<svg xmlns="http://www.w3.org/2000/svg" width="361" height="361"><path d="M75.5 215.6a4 4 0 0 0 4 4H114a4 4 0 0 0 4-4v-70a4 4 0 0 0-4-4H79.5a4 4 0 0 0-4 4v70zM178 248.4l-5.9-3.3-37.2-20.9c-2.6-1.4-4.2-1.8-4.2-4.1v-79.3c0-2.3.5-2.1 4.2-4.1l43-24.2a4.1 4.1 0 0 1 4.2 4.1v75" fill="none" stroke="#fff" stroke-width="10" stroke-miterlimit="10"/><path d="M276 227.5a50.2 50.2 0 0 1-35.2 47.6 50 50 0 0 1-56-20.6 50 50 0 0 1 4.4-59.6 50 50 0 0 1 58.4-12.2 50.1 50.1 0 0 1 28.4 44.8c.1 9.7 15.1 9.8 15 .1a65.7 65.7 0 0 0-33.5-56.7 65 65 0 0 0-66.6 2.8A65 65 0 0 0 162 233a65 65 0 0 0 38 53.4 65.2 65.2 0 0 0 62-5 65.3 65.3 0 0 0 29-53.9c0-9.7-15-9.7-15 0z" fill="#fff"/><path d="M191.4 273.2l80.7-80.7c6.9-6.8-3.8-17.4-10.6-10.6l-80.8 80.8c-6.8 6.8 3.8 17.4 10.7 10.5z" fill="#fff"/></svg>