<svg xmlns="http://www.w3.org/2000/svg" width="361" height="361"><path d="M138.7 260.2v26.5c0 6.4 10 6.4 10 0v-26.5c0-6.5-10-6.5-10 0z" fill="#fff"/><path d="M102.5 291.7H185c6.4 0 6.4-10 0-10h-82.5c-6.5 0-6.5 10 0 10zm71.9-40c-5.7 4-11.6 3.5-18.2 3.5h-17.4c-4.4 0-8.8.1-13.2-.2-8.7-.7-17-5-23.3-11-10.2-9.5-12-22-12-35v-29c0-6.4-10-6.4-10 0v31.8c0 15.8 4.7 30.3 16.8 41 12 10.8 26.4 12.4 41.7 12.4h17.8c8.3 0 15.7.1 22.8-4.8 5.3-3.6.3-12.3-5-8.6z" fill="#fff"/><path d="M169.4 227.6a56.9 56.9 0 0 1 15.8-39.5v-81.2A32.2 32.2 0 0 0 153 74.7h-18.5a32.2 32.2 0 0 0-32.3 32.2v104.6a32.2 32.2 0 0 0 32.3 32.2H153a32 32 0 0 0 17.4-5.1 57.5 57.5 0 0 1-1-11z" fill="none" stroke="#fff" stroke-width="10" stroke-miterlimit="10"/><path d="M275.8 227.3a50.2 50.2 0 0 1-35.3 47.5 50 50 0 0 1-56-20.6 50 50 0 0 1 4.4-59.6 50 50 0 0 1 58.5-12.2 50.1 50.1 0 0 1 28.4 44.9c0 9.6 15 9.7 15 0a65.7 65.7 0 0 0-33.6-56.6 65.1 65.1 0 0 0-66.6 2.7 65 65 0 0 0-28.7 59.4 65 65 0 0 0 38 53.5 65.2 65.2 0 0 0 61.9-5 65.3 65.3 0 0 0 29-54c0-9.6-15-9.7-15 0z" fill="#fff"/><path d="M191.2 273l80.7-80.8c6.8-6.8-3.8-17.4-10.7-10.5l-80.7 80.7c-6.9 6.8 3.8 17.4 10.6 10.6z" fill="#fff"/></svg>