<svg xmlns="http://www.w3.org/2000/svg" width="361" height="361"><path d="M222.2 211.4a32.2 32.2 0 0 1-32.2 32.3h-18.6a32.2 32.2 0 0 1-32.2-32.3V107a32.2 32.2 0 0 1 32.2-32.2H190a32.2 32.2 0 0 1 32.2 32.2v104.5z" fill="none" stroke="#fff" stroke-width="10" stroke-miterlimit="10"/><path d="M175.7 260.2v26.5c0 6.4 10 6.4 10 0v-26.5c0-6.5-10-6.5-10 0z" fill="#fff"/><path d="M139.5 291.7H222c6.4 0 6.4-10 0-10h-82.5c-6.5 0-6.5 10 0 10zM234.3 180v35a40 40 0 0 1-38.2 40c-6 .3-12.2 0-18.3 0-6.9 0-13.8.5-20.5-1a40 40 0 0 1-25.1-19.3c-4-7-5-14.5-5-22.4V180c0-6.5-10-6.5-10 0v35a50.4 50.4 0 0 0 32.4 47c13.3 5.3 30 3 44 3a50.3 50.3 0 0 0 47.1-31.1c3.8-9.6 3.6-19.3 3.6-29.4V180c0-6.5-10-6.5-10 0z" fill="#fff"/></svg>