<svg xmlns="http://www.w3.org/2000/svg" width="361" height="361"><path d="M71 263c1 7 10 6 16 6l18-1c6-1 5-8 5-12v-43c0-5-1-10-7-10H82c-5 0-11 0-11 7v52c0 5 7 5 7 0v-52c0-1-1 0 0 0h24c1 0 0 0 0 0v51c1 2 1 1-1 1H81l-4-1c0-4-7-2-6 2zm80 20h-1l3 1a493389 493389 0 0 1-31-18h-1l-2-1v-57c0-3 0-1 1-2l32-18h1-3l1 4v92c0 4 7 4 7 0v-92c0-3 0-7-3-10-5-3-10 2-14 4l-20 12c-4 2-9 3-9 8v53c0 4 0 8 2 11l5 2 7 5 19 10 4 3c4 2 8-2 9-6s-6-6-7-1zm113-99V72m2 112V72c0-2-3-2-3 0v112c0 2 3 2 3 0zm-48 0V72m2 112V72c0-2-3-2-3 0v112c0 2 3 2 3 0zm30 0V72m1 112V72c0-2-3-2-3 0v112c0 2 3 2 3 0zM73 167h218" fill="#fff"/><path d="M73 168h218c2 0 2-3 0-3H73c-2 0-2 3 0 3zm0-1041h218m-218 2h218c2 0 2-3 0-3H73c-2 0-2 3 0 3z" fill="#fff"/><g fill="#fff"><path d="M277 108c-8-5-15-4-22 1l-14 14c-4 4-6 5-11 4a32 32 0 0 1-9-3l-7-4c-7-3-12 2-18 2-14 1-29-5-41-11-18-10-34-25-49-39-3-4-8 1-5 5 25 24 53 48 88 52a27 27 0 0 0 16-2c6-3 11 3 17 5 4 2 10 4 15 2 6-2 11-8 16-12 2-4 5-7 9-9 3-3 8-2 11 1 4 2 8-4 4-6z"/><path d="M96 83l20 23c14 17 31 30 51 39l19 6a34 34 0 0 0 17 1c5-2 5-2 9-1 6 3 10 7 17 8h5c3 0 7-1 10-3 5-3 8-8 11-12s6-8 11-10l8 2c4 2 8-4 4-6-5-2-10-4-16-2-10 4-13 17-23 23a11 11 0 0 1-4 1h-1c-5-1-9-1-13-4l-11-5-12 2c-7 0-14-2-20-4a87 87 0 0 1-20-9l-16-9a130 130 0 0 1-13-12l-24-28-4-5c-3-3-8 2-5 5z"/><path d="M88 95a988 988 0 0 0 18 25c5 7 10 13 16 18 8 7 15 14 24 20a113 113 0 0 0 24 11 73 73 0 0 0 31 5c3-1 6-2 9-1l7 5c4 3 9 5 15 6 18 0 24-34 43-23 4 2 7-4 3-6a20 20 0 0 0-23 2c-6 5-11 14-19 19-10 5-17-7-25-10-5-1-10 1-14 1a71 71 0 0 1-19-3 114 114 0 0 1-50-29c-13-13-23-28-34-43-3-4-9 0-6 3z"/></g><path fill="#fff" d="M72 89h218M72 91h218c2 0 2-3 0-3H72c-2 0-2 3 0 3zm106 122a31 31 0 0 1 0 43c-3 4 2 9 5 6a39 39 0 0 0 0-54c-3-4-8 1-5 5z"/><path d="M188 204a45 45 0 0 1 0 63c-3 3 2 8 5 5a52 52 0 0 0 0-73c-3-3-8 2-5 5z" fill="#fff"/><path d="M199 195a57 57 0 0 1 0 80c-3 3 2 8 5 5a64 64 0 0 0 0-90c-3-3-8 2-5 5z" fill="#fff"/></svg>