<svg xmlns="http://www.w3.org/2000/svg" width="361" height="361"><path d="M260 271c0 2-1 3-3 3h-27c-2 0-3-1-3-3v-65c0-2 1-4 3-4h27c2 0 3 2 3 4v65z" fill="none" stroke="#fff" stroke-width="10" stroke-miterlimit="10"/><path d="M292 238c0-34 1-69-11-101a98 98 0 0 0-31-43c-13-10-29-16-45-19a145 145 0 0 0-23-1c-7 0-7 10 0 10 16 0 33 2 48 10a82 82 0 0 1 35 33c19 33 17 72 17 108v3c0 7 10 7 10 0z" fill="#fff"/><path d="M269 216v44c0 6 10 6 10 0v-44c0-6-10-6-10 0z" fill="#fff"/><path d="M102 271c0 2 1 3 3 3h27c2 0 3-1 3-3v-65c0-2-1-4-3-4h-27c-2 0-3 2-3 4v65z" fill="none" stroke="#fff" stroke-width="10" stroke-miterlimit="10"/><path d="M81 238c0-34-3-69 11-101a86 86 0 0 1 32-39 99 99 0 0 1 46-14h11c6 0 6-10 0-10-35 0-68 12-88 41-23 32-23 72-23 110v13c1 7 11 7 11 0z" fill="#fff"/><path d="M83 216v44c0 6 10 6 10 0v-44c0-6-10-6-10 0z" fill="#fff"/></svg>