<svg xmlns="http://www.w3.org/2000/svg" width="361" height="361"><path d="M287 265h-36c-7 0-13-1-18-6-7-6-11-15-15-23l-39-75-11-22c-8-14-14-32-27-43-10-9-22-9-34-9H75c-6 0-6 10 0 10h37c7 0 13 0 18 3 9 5 14 15 19 24l38 76 12 23 11 21 13 20c8 9 20 11 32 11h32c6 0 6-10 0-10z" fill="#fff"/><path d="M75 274h36c7 0 14-1 20-5a50 50 0 0 0 17-19l40-78 14-27c6-13 12-27 21-38a27 27 0 0 1 20-10h43c7 0 7-10 1-10h-38a50 50 0 0 0-19 2 45 45 0 0 0-21 20l-19 38a1497002 1497002 0 0 1-35 68l-20 36a26 26 0 0 1-15 12l-13 1H75c-7 0-7 10 0 10z" fill="#fff"/></svg>