<svg xmlns="http://www.w3.org/2000/svg" width="361" height="361"><path d="M154 262l-5 1h-21c-1 0 0 0 0 0v-54c0-1-1 0 0 0h26v54c0 5 7 5 7 0v-53c0-6-4-8-9-8h-21c-5 0-10 1-10 7v40c0 8-3 21 8 21h19c5 0 12 0 13-6 1-5-6-6-7-2zm-83 24c0 4 4 8 8 6l5-3 20-12c4-2 11-4 13-8 2-3 1-8 1-11v-46c0-2 1-8-1-10-2-4-9-7-13-8l-20-12-5-3c-4-2-8 2-8 6v100c0 5 7 5 7 0v-99l-2-1 32 18 1 1 1 1c3 1 1 0 1-1v62l-11 6-20 11-4 2h2l-1-1c0-4-7-2-6 2zm131-131c1 7 10 6 15 6h18c7 0 7-7 7-12v-43c0-5 1-10-4-13l-6-1h-12c-4 0-14-1-17 3-2 3-1 7-1 10v49c0 4 7 4 7 0v-54h25l1-1v55h-21l-5-1c-1-5-8-3-7 2zm83 20l-1 1h3l-32-17-3-2V96h-1l2-1 2-1 8-4 20-11 4-3-3 1c2 0 1 2 1 4v95c0 5 7 5 7 0V77c0-4-5-9-8-7l-5 3-20 11-13 8c-2 2-1 8-1 11v56c1 4 10 8 13 9l20 11 5 4c3 1 8-1 9-4v-2c1-4-6-6-7-1zm-110-29c0 3-4 2-6 2h-11c-1 0-5 1-5-1v-40c0-3 15-2 16-2 2 0 6 0 6 2v40c0 4 7 4 7 0v-37c0-6-2-12-9-12h-19c-7 0-8 7-8 12v38c1 8 10 7 17 7s18 2 19-7c0-5-6-7-7-2zm35 109c-1 3-4 2-7 2h-10c-1 0-5 1-5-1v-40c0-3 14-1 16-1 1 0 6-1 6 1v40c0 5 7 5 7 0v-37c0-6-2-11-9-11h-19c-7 0-8 6-8 11v38c1 9 10 7 17 7 6 0 17 2 19-7 0-4-7-6-7-2z" fill="#fff"/></svg>