<svg xmlns="http://www.w3.org/2000/svg" width="361" height="361"><path d="M75.5 215.6a4 4 0 0 0 4 4H114a4 4 0 0 0 4-4v-70a4 4 0 0 0-4-4H79.5a4 4 0 0 0-4 4v70zM182 244.3a4.1 4.1 0 0 1-4.1 4.1l-43.1-24.2c-2.6-1.4-4.2-1.8-4.2-4.1v-79.3c0-2.3.5-2.1 4.2-4.1l43-24.2a4.1 4.1 0 0 1 4.2 4.1v127.7z" fill="none" stroke="#fff" stroke-width="10" stroke-miterlimit="10"/><path d="M206 135.5a64 64 0 0 1 0 89.7c-4.6 4.6 2.5 11.7 7 7a74.3 74.3 0 0 0 0-103.7c-4.5-4.7-11.6 2.4-7 7z" fill="#fff"/><path d="M226.8 118.1a91.4 91.4 0 0 1 0 128c-4.5 4.6 2.5 11.6 7 7a102 102 0 0 0 29.5-70.3c.4-26.8-10.8-52.8-29.4-71.8-4.6-4.6-11.6 2.5-7.1 7.1z" fill="#fff"/></svg>