<svg xmlns="http://www.w3.org/2000/svg" width="361" height="361"><path d="M260.2 270.6c0 2-1.4 3.7-3.1 3.7h-26.9c-1.8 0-3.2-1.7-3.2-3.8v-64.8c0-2.1 1.4-3.8 3.2-3.8h26.9c1.7 0 3.1 1.7 3.1 3.8v64.9z" fill="none" stroke="#fff" stroke-width="10" stroke-miterlimit="10"/><path d="M291.7 238.1c0-34 1.8-69-10.8-101.2a98 98 0 0 0-31.2-42.7c-13-10-28.8-16-45-18.7a145 145 0 0 0-23-1.8c-6.5 0-6.5 10 0 10 16.5 0 33.2 2.7 48.2 10a82.4 82.4 0 0 1 35.5 33.6c18.6 32.5 16.3 71.3 16.3 107.5v3.3c0 6.5 10 6.5 10 0z" fill="#fff"/><path d="M268.8 216.4v43.5c0 6.4 10 6.4 10 0v-43.5c0-6.5-10-6.5-10 0z" fill="#fff"/><path d="M102 270.6c0 2 1.4 3.7 3.1 3.7H132c1.8 0 3.2-1.7 3.2-3.8v-64.8c0-2.1-1.4-3.8-3.2-3.8h-26.9c-1.7 0-3.1 1.7-3.1 3.8v64.9z" fill="none" stroke="#fff" stroke-width="10" stroke-miterlimit="10"/><path d="M80.5 238.1c0-33.7-2.2-69 11.3-100.7a86.2 86.2 0 0 1 32-39A98.5 98.5 0 0 1 170 84l10.5-.3c6.5 0 6.5-10 0-10-34.5 0-67.4 12.3-87.7 41.3-22.5 32-22.3 72.3-22.3 109.8v13.3c0 6.5 10 6.5 10 0z" fill="#fff"/><path d="M83.4 216.4v43.5c0 6.4 10 6.4 10 0v-43.5c0-6.5-10-6.5-10 0z" fill="#fff"/></svg>