<svg xmlns="http://www.w3.org/2000/svg" width="361" height="361"><path d="M292 131a6 6 0 0 1-6 6H119a6 6 0 0 1-7-6v-4a6 6 0 0 1 7-6h167a6 6 0 0 1 6 6v4zm-195 0a6 6 0 0 1-6 6H75a6 6 0 0 1-6-6v-5a6 6 0 0 1 6-6h16a6 6 0 0 1 6 6v5zm195 35a6 6 0 0 1-6 6H119a6 6 0 0 1-7-6v-4a6 6 0 0 1 7-6h167a6 6 0 0 1 6 6v4zm-195 0a6 6 0 0 1-6 6H75a6 6 0 0 1-6-6v-5a6 6 0 0 1 6-6h16a6 6 0 0 1 6 6v5zm195 34a6 6 0 0 1-6 6H119a6 6 0 0 1-7-6v-4a6 6 0 0 1 7-6h167a6 6 0 0 1 6 6v4zm-195 0a6 6 0 0 1-6 6H75a6 6 0 0 1-6-6v-5a6 6 0 0 1 6-6h16a6 6 0 0 1 6 6v5zm195 34a6 6 0 0 1-6 6H119a6 6 0 0 1-7-6v-4a6 6 0 0 1 7-6h167a6 6 0 0 1 6 6v4zm-195 0a6 6 0 0 1-6 6H75a6 6 0 0 1-6-6v-5a6 6 0 0 1 6-6h16a6 6 0 0 1 6 6v5z" fill="#fff"/></svg>