<svg xmlns="http://www.w3.org/2000/svg" width="361" height="361"><path d="M76 216a4 4 0 0 0 4 4h34a4 4 0 0 0 4-4v-70a4 4 0 0 0-4-4H80a4 4 0 0 0-4 4v70zm106 28a4 4 0 0 1-4 4l-43-24c-3-1-4-2-4-4v-79c0-2 0-2 4-4l43-24a4 4 0 0 1 4 4v127z" fill="none" stroke="#fff" stroke-width="10" stroke-miterlimit="10"/><path d="M206 136a64 64 0 0 1 0 89c-5 5 3 12 7 7a74 74 0 0 0 0-104c-4-4-12 3-7 8z" fill="#fff"/><path d="M227 118a91 91 0 0 1 0 128c-5 5 2 12 7 7a102 102 0 0 0 29-70c1-27-10-53-29-72-5-5-12 3-7 7z" fill="#fff"/><path d="M249 101a115 115 0 0 1 33 80 114 114 0 0 1-33 81c-5 4 2 11 7 7a125 125 0 0 0 36-87 124 124 0 0 0-36-88c-4-5-12 3-7 7z" fill="#fff"/></svg>