<svg xmlns="http://www.w3.org/2000/svg" width="361" height="361"><path d="M292.3 131a6.2 6.2 0 0 1-6.2 6.3H118.6a6.2 6.2 0 0 1-6.3-6.2v-4.2a6.2 6.2 0 0 1 6.3-6.2H286a6.2 6.2 0 0 1 6.2 6.2v4.2zm-195 .2a6 6 0 0 1-6 6h-16a6 6 0 0 1-6-6v-5a6 6 0 0 1 6-6h16a6 6 0 0 1 6 6v5zm195 34.9a6.2 6.2 0 0 1-6.2 6.2H118.6a6.2 6.2 0 0 1-6.3-6.2v-4.2a6.2 6.2 0 0 1 6.3-6.2H286a6.2 6.2 0 0 1 6.2 6.2v4.2zm-195 0a6 6 0 0 1-6 6h-16a6 6 0 0 1-6-6v-5a6 6 0 0 1 6-6h16a6 6 0 0 1 6 6v5zm195 34a6.2 6.2 0 0 1-6.2 6.2H118.6a6.2 6.2 0 0 1-6.3-6.2v-4.2a6.2 6.2 0 0 1 6.3-6.2H286a6.2 6.2 0 0 1 6.2 6.2v4.2zm-195 0a6 6 0 0 1-6 6h-16a6 6 0 0 1-6-6v-5a6 6 0 0 1 6-6h16a6 6 0 0 1 6 6v5zm195 34a6.2 6.2 0 0 1-6.2 6.2H118.6a6.2 6.2 0 0 1-6.3-6.2v-4.2a6.2 6.2 0 0 1 6.3-6.2H286a6.2 6.2 0 0 1 6.2 6.2v4.2zm-195 0a6 6 0 0 1-6 6h-16a6 6 0 0 1-6-6v-5a6 6 0 0 1 6-6h16a6 6 0 0 1 6 6v5z" fill="#fff"/></svg>