<svg xmlns="http://www.w3.org/2000/svg" width="361" height="361"><path d="M76 216a4 4 0 0 0 4 4h34a4 4 0 0 0 4-4v-70a4 4 0 0 0-4-4H80a4 4 0 0 0-4 4v70zm102 32l-6-3-37-21c-3-1-4-2-4-4v-79c0-2 0-2 4-4l43-24a4 4 0 0 1 4 4v75" fill="none" stroke="#fff" stroke-width="10" stroke-miterlimit="10"/><path d="M276 228a50 50 0 0 1-35 47 50 50 0 0 1-56-20 50 50 0 0 1 4-60 50 50 0 0 1 59-12 50 50 0 0 1 28 45c0 9 15 9 15 0a66 66 0 0 0-33-57 65 65 0 0 0-67 3 65 65 0 0 0-29 59 65 65 0 0 0 38 53 65 65 0 0 0 62-5 65 65 0 0 0 29-54c0-9-15-9-15 0z" fill="#fff"/><path d="M191 273l81-81c7-6-4-17-10-10l-81 81c-7 6 3 17 10 10z" fill="#fff"/></svg>