<svg xmlns="http://www.w3.org/2000/svg" width="361" height="361"><path d="M240 222l45 35v-9l-45 34 7 5v-69c0-7-10-7-10 0v69c0 3 5 6 8 4l45-34c3-3 3-7 0-9l-45-35c-5-4-10 5-5 9zm5-74l45-35c3-2 3-6 0-8l-45-35c-3-2-7 1-7 5v69c0 6 10 6 10 0V75l-8 4 45 34v-8l-45 34c-5 4 0 13 5 9z" fill="#fff"/><path d="M242 247c-11 0-26 3-36-5-9-8-7-25-7-36 0-7-10-7-10 0 0 15-2 30 9 42 12 12 29 9 44 9 6 0 6-10 0-10zm-97-62h29a31 31 0 0 0 21-15 35 35 0 0 0 4-19v-16c0-8 5-15 13-19 5-2 11-1 16-1h14c7 0 7-10 0-10-10 0-20-2-30 1a31 31 0 0 0-20 16l-3 18v15c0 9-6 17-15 20l-15 1h-14c-6 0-6 10 0 10z" fill="#fff"/><path d="M75 257c10 0 22 2 32-1a31 31 0 0 0 18-18c3-6 3-12 3-18v-14c0-10 6-18 15-20 5-2 10-1 15-1h15c6 0 6-10 0-10h-29c-9 2-16 7-21 14-4 6-5 13-5 20 0 13 2 27-10 35-5 3-11 3-17 3H75c-6 0-6 10 0 10zm53-102c0-16 2-32-11-43-11-10-28-8-42-8-6 0-6 10 0 10h16c7 0 13 0 19 5 11 8 8 24 8 36 0 6 10 6 10 0z" fill="#fff"/></svg>