<svg xmlns="http://www.w3.org/2000/svg" width="361" height="361"><path d="M72 86c-4 3 2 11 3 15 2 3 3 9 8 7l32-15c5-2-1-12-3-15-1-4-3-10-8-7L72 86c-2 0 0 3 1 2l27-12 6-3 2 3 6 14c1 1-25 12-27 13l-5 2c-2 1-2-1-3-2-1-2-7-13-5-15 1-1-1-3-2-2zm10 56c-2 0-1 0-1-2v-4l1-12 1-7c0-2 2-3 3-3l34-16 5 4 10 7 7 5-2 1-38 17-20 10c-2 1-1 3 1 2l30-14 21-9c3-1 7-2 9-4 5-4-3-8-6-10l-15-11c-3-2-8 2-11 3l-21 10-8 4c-3 1-2 6-2 9l-2 17c0 3 0 6 5 6 2-1 1-4-1-3zm206-54c2 2-4 12-5 14-1 1-1 4-3 3l-5-2-27-12c-2-1 5-13 5-15l3-3 5 3 27 12c2 1 4-1 2-2l-32-15c-5-2-6 2-8 6s-8 12-4 16c4 3 10 4 14 6l18 8c5 3 6-1 8-5s8-13 4-16c-1-1-4 1-2 2zm-9 57c7 1 5-7 4-11l-1-19c0-3-8-5-10-6l-22-10c-2-1-8-5-11-3l-14 11c-3 2-12 6-6 10 2 2 6 3 9 4l51 23c1 1 3-1 1-2l-30-14-21-10c-1 0-9-5-10-4l16-12 5-3c2-1 3 0 5 1l20 9 9 4c2 1 5 1 5 4l1 12 1 9v3l-1 1c-2-1-3 2-1 3zM96 280a2 2 0 0 1-1-2l5-11a2 2 0 0 1 2-1l24 11a2 2 0 0 1 0 2l-5 11a2 2 0 0 1-2 1l-23-11z" fill="#fff"/><path d="M97 279c-1-1 3-8 4-10l1-2 3 2 20 9-4 9-2 2-3-2-19-8c-2-1-4 1-2 2l23 11c3 1 5-2 6-5s5-8 2-12c-2-2-7-3-9-4l-14-6c-3-2-4 2-6 4-1 3-5 9-2 12 1 1 3-1 2-2zm6-39a2 2 0 0 0-2 1l1 18 1 2 26 12 2-1 15-10a2 2 0 0 0-1-2l-42-20z" fill="#fff"/><path d="M103 239c-6 0-3 10-3 14l1 7c0 2 2 3 3 3l20 9 5 2c2 1 4-1 5-2l9-7c2-1 4-2 4-4 0-3-8-6-10-6l-34-16c-2-1-3 2-1 3l27 12 14 6c1 1 2 0 1 1l-8 5-6 5h-3l-17-8-6-3-1-3-1-10v-5c0-1 0 0 0 0 2 0 2-3 0-3z" fill="#fff"/><g fill="#fff"><path d="M266 280a2 2 0 0 0 1-2l-6-11a2 2 0 0 0-2-1l-23 11a2 2 0 0 0-1 2l6 11a2 2 0 0 0 2 1l23-11z"/><path d="M267 281c3-3-1-8-2-11-2-2-3-7-7-5l-22 10c-4 2 0 8 1 10 1 3 3 9 7 7l23-11c1-1 0-3-2-2l-19 8-3 2-2-1-4-10 19-9 3-2c2 0 1 1 2 2 0 1 5 9 4 10s1 3 2 2zm-8-41a2 2 0 0 1 2 1l-1 18-1 2-26 12-2-1-15-10a2 2 0 0 1 1-2l42-20z"/><path d="M259 242c1 0 1-1 1 1l-1 4-1 10v3l-7 3-17 8h-3l-6-4-7-6c-1-1-1 0 1-1l14-6 27-12c2-1 0-4-2-3l-33 15c-2 1-9 3-10 6-1 2 1 3 2 4l10 7 5 4 5-2 20-9 4-3 1-8 1-10c0-3-1-4-4-4-2 0-2 3 0 3z"/></g><path d="M168 71c-4 1-3 7-3 10s-1 8 4 8h25c4 0 3-7 3-10 0-2 1-9-4-9h-25c-2 0-2 3 0 3h21c2 0 5-1 5 2v11h-21c-2 0-5 1-5-1s-1-11 1-12c1 0 1-3-1-2zm-10 38s0 1 0 0l2-4 5-8 2-3h29l3 7 5 8h-46c-2 0-2 3 0 3h37c2 0 10 2 12-1 1-2 0-3-1-5a54864 54864 0 0 0-6-11c-1-1-2-4-4-4h-31l-4 8c-2 3-9 11-4 13 2 1 3-2 1-3z" fill="#fff"/><g fill="#fff"><circle cx="181" cy="181" r="29"/><path d="M181 210a30 30 0 1 1 0-59 30 30 0 0 1 0 59zm0-58a28 28 0 0 0-29 29 28 28 0 0 0 29 28 28 28 0 0 0 28-28 28 28 0 0 0-29-29z"/><path d="M225 181c0 10-8 13-16 13h-59c-11 0-17-12-12-21 4-6 11-6 17-6h56c9 0 14 6 14 14 0 2 3 2 3 0 0-8-5-17-14-17h-68c-9 1-14 11-13 19a16 16 0 0 0 16 14h63a16 16 0 0 0 16-16c0-1-3-1-3 1z"/></g><g fill="#fff"><path d="M73 220c2 5 10 3 14 3s10 2 10-4v-34c0-5-11-3-14-3s-10-1-10 4v34c0 2 3 2 3 0v-34c0-2 2-1 3-1h15v34c0 2-1 1-3 1-2 1-14 2-15 0 0-2-3-1-3 0zm45 14v1l-1-1-4-4-8-7c-2-1-2-1-2-3v-37a68 68 0 0 1 6-5l8-7c2-1 1 0 1 2v61c0 2 3 2 3 0v-56c0-3 1-7-2-10-1-1-3 0-4 1l-9 8-5 4-1 5v36c0 3 3 3 4 4l7 7c3 2 8 8 10 2 0-2-3-3-3-1z"/><path d="M71 215v2a2 2 0 0 0 1 1h2a2 2 0 0 0 1-1c2-4 1-10 1-14 0-5 1-11-1-15a2 2 0 0 0-1-1h-2a2 2 0 0 0-1 1v27c0 2 3 2 3 0v-26l-2 1h2l-2-1c2 4 0 10 0 14s2 9 0 13l2-1h-2l2 1v-1c0-2-3-2-3 0z"/></g></svg>