<svg xmlns="http://www.w3.org/2000/svg" width="361" height="361"><path d="M103.8 75.2v212c0 6.4 10 6.4 10 0v-212c0-6.5-10-6.5-10 0z" fill="#fff"/><path d="M139.3 154.4c0 4.6-4.3 8.3-9.7 8.3h-40c-5.4 0-9.8-3.7-9.8-8.3v-12c0-4.6 4.4-8.2 9.8-8.2h40c5.4 0 9.7 3.6 9.7 8.2v12zm107-79.2v212c0 6.4 10 6.4 10 0v-212c0-6.5-10-6.5-10 0z" fill="#fff"/><path d="M281.8 173.4c0 4.6-4.3 8.3-9.7 8.3h-40c-5.4 0-9.8-3.7-9.8-8.3v-12c0-4.6 4.4-8.2 9.8-8.2h40c5.4 0 9.7 3.6 9.7 8.2v12zM176.1 75v212c0 6.5 10 6.5 10 0V75c0-6.4-10-6.4-10 0z" fill="#fff"/><path d="M211.6 220.2c0 4.6-4.4 8.3-9.7 8.3h-40c-5.5 0-9.8-3.7-9.8-8.3v-12c0-4.6 4.3-8.2 9.7-8.2h40c5.4 0 9.8 3.6 9.8 8.2v12z" fill="#fff"/></svg>