<svg xmlns="http://www.w3.org/2000/svg" width="361" height="361"><path d="M239.8 222l45.1 34.5v-8.6l-45 34.4 7.4 4.4v-69c0-6.5-10-6.5-10 0v69c0 3.4 4.4 6.7 7.6 4.3l45-34.5c3.3-2.4 3.3-6.2 0-8.6l-45-34.5c-5.2-4-10.1 4.8-5 8.6zm5.1-74l45.1-34.6c3.2-2.4 3.2-6.2 0-8.6l-45-34.5c-3.1-2.4-7.5.9-7.5 4.3v69c0 6.4 10 6.4 10 0v-69L240 79l45 34.4v-8.6l-45 34.5c-5 3.8-.1 12.5 5 8.6z" fill="#fff"/><path d="M241.9 247.2c-11.2 0-26.3 2.7-35.5-5.1-9.9-8.5-7-24.7-7-36.4 0-6.5-10-6.5-10 0 0 15-2.2 30.8 9 42.5 11.1 11.7 29 9 43.5 9 6.4 0 6.4-10 0-10zm-97-61.7c9.8 0 19.8.8 29.4-.5a30.6 30.6 0 0 0 21-14.6 34.9 34.9 0 0 0 4-19l.1-16.1c0-8.6 5-15.5 12.5-19.2 4.9-2.4 11.1-1.6 16.3-1.6h14.2c6.4 0 6.4-10 0-10-10 0-20.9-1.3-30.6 1a30.6 30.6 0 0 0-19.4 16.5c-2.9 5.8-3 12-3 18.2V155c0 9.3-6.3 17.1-15.1 19.8-4.7 1.4-10.5.7-15.4.7h-14c-6.4 0-6.4 10 0 10z" fill="#fff"/><path d="M75.4 257c10 0 21.5 1.5 31.3-1.5a30.5 30.5 0 0 0 18.7-17.2c2.5-6 2.4-12.1 2.5-18.5v-14.3c0-9.3 6.3-17.1 15-19.8 4.7-1.4 10.5-.7 15.3-.7h14.6c6.5 0 6.5-10 0-10-9.3 0-19.2-1-28.5.3-9 1.2-16.4 6.3-21.6 13.7-4 5.9-4.8 12.9-4.8 19.8 0 12.8 2.4 27.6-10.2 35.4-5.2 3.2-11.2 2.8-17 2.8H75.4c-6.4 0-6.4 10 0 10zM128 154.8c0-15.5 2.2-32-10.9-43.3-11.4-9.8-28.1-7.2-42-7.2-6.5 0-6.5 10 0 10h16c6.7 0 13.2-.1 19 4.3 10.8 8.3 8 24.2 8 36.2 0 6.4 10 6.4 10 0z" fill="#fff"/></svg>