<svg xmlns="http://www.w3.org/2000/svg" width="361" height="361"><path d="M139.3 119.7v129c0 6.4 10 6.4 10 0v-129c0-6.5-10-6.5-10 0zm116-12v115c0 6.4 10 6.4 10 0v-115c0-6.5-10-6.5-10 0z" fill="#fff"/><path d="M260.3 105a5.7 5.7 0 0 1-4.3 7l-102 23a5.7 5.7 0 0 1-7-4.3l-2.7-12.1a5.7 5.7 0 0 1 4.4-6.9l102-23a5.7 5.7 0 0 1 6.9 4.2l2.7 12.2z" fill="none" stroke="#fff" stroke-width="10" stroke-miterlimit="10"/><ellipse transform="rotate(-15.5 120.7 252.1)" cx="120.7" cy="252.2" rx="23.5" ry="15.5" fill="none" stroke="#fff" stroke-width="10" stroke-miterlimit="10"/><ellipse transform="rotate(-15.5 237.7 230.1)" cx="237.7" cy="230.2" rx="23.5" ry="15.5" fill="none" stroke="#fff" stroke-width="10" stroke-miterlimit="10"/></svg>