<svg xmlns="http://www.w3.org/2000/svg" width="361" height="361"><path d="M72.8 86.9a2.1 2.1 0 0 0-1 2.7l7.3 16.1a2.1 2.1 0 0 0 2.8 1l32.8-15a2.1 2.1 0 0 0 1-2.8l-7.3-16a2.1 2.1 0 0 0-2.8-1l-32.8 15z" fill="#fff"/><path d="M71.7 85.8c-4 3.4 1.9 11.3 3.5 14.8 1.7 3.8 3 9.5 8.2 7.1l32-14.7c5-2.3-1.8-12.3-3-15-1.8-3.8-3.1-9.5-8.3-7.1L72 85.6c-1.8.8-.3 3.4 1.4 2.6l26.9-12.3 5.2-2.4c1.5-.7 1.9 1 2.4 2.1l6.4 14c.5 1-25 12-27.3 13.1l-5.2 2.4c-1.5.7-1.9-1-2.4-2.2-1-2.3-7.8-13.2-5.6-15 1.4-1.2-.7-3.3-2.2-2.1zM82.2 143a2.1 2.1 0 0 1-2.8-1l2-25.4c.2-1.6 0-2.4 1.1-2.9l37.2-17c1-.5 1-.3 2.8 1l20.6 15a2.1 2.1 0 0 1-1 2.9l-60 27.4z" fill="#fff"/><path d="M81.8 141.5c-1.3.3-.9.2-.8-1.2l.4-4.1 1-12.2.6-7.3c.2-2.2 1.5-2.3 3.4-3.1l34-15.6c.3-.1 4.5 3.3 4.7 3.5l9.7 7 7 5.1c.8.6-1.3 1-2.2 1.5L102 132.3l-20.5 9.4c-1.8.8-.3 3.4 1.5 2.6l30.3-14L134 121c2.8-1.3 6.8-2.3 9.2-4.3 5-4.2-3.2-8-6-10.1-5-3.6-9.8-7.5-14.9-10.8-2.9-2-8.2 2-10.9 3.2l-21.2 9.7-8.3 3.8c-2.5 1.2-2 6.7-2.2 9l-1.4 17c-.3 3.5-.2 6.8 4.4 6 2-.3 1.1-3.2-.8-2.9zM289 87a2.1 2.1 0 0 1 1 2.7l-7.4 16.1a2.1 2.1 0 0 1-2.8 1l-32.8-15a2.1 2.1 0 0 1-1-2.8l7.4-16a2.1 2.1 0 0 1 2.8-1L289 87z" fill="#fff"/><path d="M287.9 88c2 1.7-4.3 12-5.3 14.3-.5.9-1.1 3.6-2.5 3l-4.8-2.3-27.5-12.6c-1.4-.6 5-12.6 5.6-14.1.5-.9 1.1-3.6 2.5-3l4.8 2.2 27.5 12.6c1.7.8 3.3-1.7 1.5-2.5L258 71c-5.1-2.3-6.4 2.2-8.2 6-1.7 3.7-8 12.3-3.8 15.8 3.5 2.9 9.5 4.4 13.6 6.3l18.4 8.4c5.1 2.4 6.4-2 8.2-6 1.6-3.6 8-12.2 3.8-15.7-1.5-1.2-3.6.9-2.1 2.1zm-8.4 55c1 .5 2.3 0 2.8-1l-2-25.4c-.1-1.6 0-2.4-1.1-2.9l-37.1-17c-1.1-.5-1.1-.3-2.9 1l-20.5 15a2.1 2.1 0 0 0 1 2.9l59.8 27.4z" fill="#fff"/><path d="M279.1 144.4c6.8 1.1 4.4-7 4-10.9l-1.4-18.3c-.2-3.7-7.4-5.4-10-6.6L250.3 99c-2.6-1.2-8-5.1-11-3.2-5 3.3-9.8 7.2-14.7 10.8-3 2.1-11.1 6-6 10.1 2.3 2 6.3 3 9 4.3l51 23.4c1.8.8 3.3-1.8 1.6-2.6l-30.4-14-20.6-9.4c-1-.4-9-5-9.7-4.4l15.7-11.5L240 99c2-1.4 2.8-.3 5 .7l20.2 9.2 9 4.2c1.8.8 4.4 1.2 4.5 3.4l1 12.2.8 9 .2 3c.1 1.3.4 1-.8.8-1.9-.3-2.7 2.6-.8 3zM96.9 279c-1-1.1 3-8 3.9-9.6.2-.6.6-2.2 1.1-2l3.4 1.6 19.4 8.9c.3.1-3.7 8.3-4.1 9.3-.3.6-.7 2.2-1.2 2l-3.4-1.6-19.4-8.9c-1.7-.8-3.2 1.8-1.5 2.6l22.8 10.4c3.6 1.7 4.8-1.9 6-4.5 1.4-3.2 5.6-8.5 2.6-11.7-2-2.1-7-3.3-9.6-4.5l-13.4-6.1c-3.7-1.7-4.8 1.9-6 4.5-1.5 3.2-5.6 8.5-2.7 11.7 1.3 1.4 3.4-.7 2.1-2.1zm5.6-40.1c-6-.2-2.8 10.2-2.5 13.7l.6 7.7c.2 1.9 2.3 2.5 3.7 3.1l19.8 9c1.5.7 3 1.7 4.5 2.1 2 .6 4-1.5 5.5-2.7l9-6.5c2-1.5 3.8-2 4-4.7 0-2.9-8.3-5.2-10-6L103.3 239c-1.8-.8-3.3 1.8-1.5 2.6l27.3 12.5 13.7 6.3c1.2.6 2.2-.3 1 .6l-7.5 5.5-5.9 4.3c-1.4 1-.8.8-3-.2l-16.8-7.7-6.2-2.8c-1.3-.6-1-2-1-3.4l-.8-9.2-.4-4.2-.1-1.6c-.1-1.1-.1 0 .4.1 2 0 2-3 0-3zM267 281c2.9-3-.8-7.7-2.2-10.8-1.2-2.5-2.4-7.3-6.2-5.5l-23 10.5c-3.7 1.7.6 8 1.6 10.1 1.2 2.6 2.5 8.3 6.6 6.4l23-10.5c1.7-.8.2-3.4-1.6-2.6l-18.7 8.6-3.8 1.7c-.9.4-.7-.2-1.2-1.2l-4.5-10c0 .2 17.4-7.8 18.8-8.5l3.8-1.7c1-.4.8.2 1.2 1.2.8 1.7 5.2 9 4.1 10.2-1.3 1.4.8 3.5 2.1 2zm-7.7-39.2c.7 0 .5-1 .4.9l-.4 3.9-.8 10.1c0 1 .2 2.8-.8 3.2l-6.4 3-16.9 7.7c-2 1-1.6 1.2-2.8.3l-6-4.4-7.2-5.2c-1.7-1.3-.9-.2.6-.9l13.7-6.3 27.4-12.5c1.7-.8.2-3.4-1.6-2.6l-33 15.2c-2.3 1-9.8 2.9-10.7 5.9-.6 2.3 1.1 3 2.6 4.2l9.6 7c1.2.9 3.7 3.3 5.3 3.3 1.5 0 3.5-1.3 4.8-2l19.9-9c1.4-.7 3.2-1.1 4-2.6 1-1.7.6-5.7.8-7.6l.9-10.7c.2-2.5-.7-4-3.4-3.9-2 0-2 3 0 3zM167.8 70.6c-4 1.6-2.5 7-2.5 10.6 0 2.6-.9 7.8 3.2 7.8h25.2c4.4 0 3-7.3 3-9.8 0-2.6 1.1-8.7-3.2-8.7h-25.3c-1.9 0-1.9 3 0 3h20.6c2 0 4.9-1 4.9 1.4v11c0 .1-18.9 0-20.5 0-2.1 0-5 1.1-5-1.3 0-1.6-.8-10.6.4-11.1 1.8-.7 1-3.6-.8-2.9zm-9.5 38.8c-.4-.1-.8 1 .1-.7l2-3.5L165 97c.2-.5 1.5-3.4 2-3.4h25.3c1.6 0 2.7-.4 3.4.8l3.7 6.5 4.3 7.7c1 1.8 1 .7-.7.7h-45.1c-2 0-2 3 0 3H195c2.1 0 10 1.3 11.6-1.2 1.2-2.1 0-3.3-1-5.2a54863.8 54863.8 0 0 0-6-10.4c-.6-1.1-1.8-4.5-3.2-4.8-1.8-.2-3.7 0-5.5 0h-21.8c-1.5 0-3.4-.3-4.5.8-1.7 1.7-2.9 5-4 7.1-2 3.3-9 11.3-3.2 13.7 1.8.7 2.5-2.2.8-2.9z" fill="#fff"/><g fill="#fff"><circle cx="180.5" cy="180.6" r="28.8"/><path d="M180.5 210a29.6 29.6 0 0 1-29.5-29.4 29.6 29.6 0 1 1 29.5 29.5zm0-57.6a28.2 28.2 0 0 0-28.1 28.2 28.2 28.2 0 0 0 28.1 28.1 28.2 28.2 0 0 0 28.1-28.1 28.2 28.2 0 0 0-28.1-28.2z"/><path d="M225 181.4c-.5 9.7-8.2 12.8-16.5 12.8h-58.7c-11.3 0-17.2-11.8-11.8-21.3 3.6-6.3 10.5-6 16.7-6h56.5c8.7 0 13.8 6.2 13.8 14.5 0 2 3 2 3 0 0-8.4-5.1-17-14.5-17.4-3.7-.2-7.5 0-11.2 0h-45c-3.9 0-7.8-.3-11.6.2-8.9 1.3-13.7 10.8-12.5 19a16 16 0 0 0 16 14h63a16 16 0 0 0 15.8-15.8c0-1.9-3-1.9-3 0z"/></g><g fill="#fff"><path d="M73.2 220.3c1.4 5 10 3.1 14 3.1 3.5 0 10 1.3 10-4.1v-34c0-5.6-11-3.6-14-3.6-3.6 0-10-1.2-10 4.1V220c0 2 3 2 3 0v-33.8c0-1.7 1.3-1.4 2.7-1.4h14.6c1.2 0 .7 26.5.7 29v5.3c0 1.7-1.4 1.4-2.8 1.4-2.2 0-14.7 1.4-15.3-.9-.5-1.9-3.4-1-2.9.8zm44.7 13.5c-.3 1 .9 1.8 0 1l-1.2-1.2-3.9-3.4-7.4-6.8c-1.9-1.7-1.9-1.2-1.9-3.6V183a68 68 0 0 1 5.7-4.7l7.8-7.2c1.7-1.6.7-.1.7 1.5v16.9l.1 42.3v2.4c0 1.9 3 1.9 3 0V178c0-3 .8-7.6-1.5-10-1.7-1.6-3.2-.3-4.4.8l-8.5 7.9c-1.4 1.2-4.5 3-5.4 4.3-.8 1.3-.5 3-.5 4.3v36.8c0 2.3 2.3 3 3.7 4.2l7.2 6.5c2.5 2.3 7.6 8.2 9.4 1.6.5-1.8-2.4-2.6-3-.8z"/><path d="M70.7 215.2c0 .7 0 1.2.2 1.9a1.5 1.5 0 0 0 1.5 1h1.5a1.5 1.5 0 0 0 1.4-1c1.3-4.3.3-10.1.2-14.5 0-4.4 1-10.2-.2-14.5a1.5 1.5 0 0 0-1.5-1.1h-1.5a1.5 1.5 0 0 0-1.4 1c-1 3.8-.2 8.8-.2 12.6v14.6c0 2 3 2 3 0v-12.6c0-4.1-1-9.7 0-13.7l-1.4 1h1.5l-1.4-1c1.2 4 .1 9.6.1 13.7 0 4 1.1 9.7 0 13.7l1.4-1.1h-1.5l1.4 1v-1c-.2-2-3.2-2-3 0z"/></g></svg>