<svg xmlns="http://www.w3.org/2000/svg" width="361" height="361"><path d="M139 120v129c0 6 10 6 10 0V120c0-7-10-7-10 0zm116-12v115c0 6 10 6 10 0V108c0-7-10-7-10 0z" fill="#fff"/><path d="M260 105a6 6 0 0 1-4 7l-102 23a6 6 0 0 1-7-4l-3-12a6 6 0 0 1 5-7l102-23a6 6 0 0 1 7 4l2 12z" fill="none" stroke="#fff" stroke-width="10" stroke-miterlimit="10"/><ellipse transform="rotate(-15 121 252)" cx="121" cy="252" rx="24" ry="16" fill="none" stroke="#fff" stroke-width="10" stroke-miterlimit="10"/><ellipse transform="rotate(-15 238 230)" cx="238" cy="230" rx="24" ry="16" fill="none" stroke="#fff" stroke-width="10" stroke-miterlimit="10"/></svg>