<svg xmlns="http://www.w3.org/2000/svg" width="361" height="361"><path d="M287 264.8h-36.1c-6.6 0-13-1-18.2-5.4-7-6-11-15.3-15.2-23.3-13-25.1-26-50.1-38.9-75.3l-11-21.5c-7.6-14.8-13.7-32.5-26.6-43.6-9.9-8.5-21.8-8.5-34-8.5H75c-6.4 0-6.4 10 0 10h37.4c6.3 0 12.4.1 18 3.2 8.8 4.7 13.8 14.8 18.2 23.2 13 25.3 25.7 50.7 38.7 76l11.7 23 11.1 21c3.7 7 7.5 14.2 12.8 20.3 8.4 9.5 20 11 31.9 11h32.1c6.5 0 6.5-10 0-10z" fill="#fff"/><path d="M74.5 274.2h36.1c7.3 0 14.3-1.1 20.6-4.8a49.7 49.7 0 0 0 16.6-19.7c14.2-25.5 27-51.9 40.3-77.8l13.7-26.7c6.5-12.8 11.8-27.2 21-38.4a27 27 0 0 1 20.3-10.2c3.8-.2 7.6 0 11.4 0h32c6.4 0 6.4-10 0-10H249a50 50 0 0 0-19 2.6 45 45 0 0 0-20.7 19.4c-7.6 12.1-13.2 25.5-19.7 38.2a1497002 1497002 0 0 1-34.9 68c-6.2 12.3-12.3 25.1-19.8 36.7a26 26 0 0 1-14.6 11.7c-4.4 1.2-9.1 1-13.7 1H74.5c-6.4 0-6.4 10 0 10z" fill="#fff"/></svg>