<svg xmlns="http://www.w3.org/2000/svg" width="361" height="361"><path d="M154 262c-.2 1.2-3.8.6-5.3.6h-20.5c-1 0-.4.2-.4 0v-53.8c0-.8-.4-.3 0-.3h26.4c-.5 0-.3 2.2-.3 3.3V263c0 4.5 7 4.5 7 0v-53.3c0-5.5-3.4-8-8.7-8h-21.4c-5.2 0-10 1.2-10 7.4v40.3c0 7.4-2.7 20.3 8.2 20.3h19c5.1 0 11.6.8 13-5.8.8-4.4-6-6.3-6.8-1.8zm-83.2 24.2c.7 3.5 4.6 7.5 8.4 5.4l4.9-2.8 20.2-11.4c3.7-2 10.6-4.6 12.9-8.3 1.6-2.7.6-8.5.6-11.4v-45.2c0-2.9.9-8.3-.7-11-2-3.4-9.5-6.2-12.8-8L84.1 182l-4.8-2.7c-3.9-2.1-7.8 1.8-8.5 5.3-.5 2.4-.2 5.3-.2 7.8v92.8c0 4.5 7 4.5 7 0V190c0-1.5-.5-4 .7-4.3l-2.7-.3 32 17.9 1.5 1 1.4.6c2 1 .3.4.3-.4v61.6c0 .3-9.7 5.1-10.8 5.7l-20 11.3-4.4 2.4 2.7-.3-.8-.8c-.9-4.4-7.6-2.6-6.7 1.8zm131-131.4c1.5 7.4 10 5.8 15.6 5.8H235c6.8 0 6.7-6.6 6.7-11.4v-43.4c0-4.8.9-9.5-3.7-12.6-1.6-1-4.4-.7-6.3-.7h-11.5c-4.5 0-14.2-1.7-17.2 2.7-2 2.9-1.4 6.6-1.4 10v48.7c0 4.5 7 4.5 7 0v-53.3c0-1.6-.6-1 .7-1H234c1.1 0 .8-.2.8-.2v54c0 .7 0 .2.3.2h-21.2c-1.5 0-5.1.6-5.4-.6-.9-4.5-7.6-2.6-6.7 1.8zm83.3 20.6l-.8.8 2.7.3-32-17.9c-.5-.3-3.2-1.8-3.2-1.4V95.6c0-.5 0 .4-.6.8l2.2-1.1 1.3-.8 7.9-4.4 20-11.3 4.4-2.4-2.7.3c1.2.3.6 2.4.6 3.9v95.7c0 4.5 7 4.5 7 0V76.6c0-3.8-4.5-8.5-8.4-6.3l-4.4 2.5-20 11.2c-3.6 2-10.5 4.5-13 7.7-2.2 2.7-1.3 8-1.3 11.1V148c0 3.8-.3 7.6.3 11.4.6 3.6 9.6 7.1 12.4 8.7l20.4 11.4 5.3 3c2.9 1.6 7.7-.5 8.4-4l.2-1.2c1-4.4-5.8-6.2-6.7-1.8zm-100 8.4c-.5 3.3-4.3 2.2-6.5 2.2h-10.3c-1 0-5.5.8-5.5-1.4v-39.9c0-2.5 15.4-1.3 17.4-1.3 1.2 0 4.8-.7 4.8 1.6v39.7c0 4.5 7 4.5 7 0v-36.6c0-5.6-1.5-11.7-8.6-11.7h-18.8c-6.8 0-8.9 5.5-8.9 11.2v37c0 8.8 9 8.4 15.2 8.4 7 0 19.6 2.4 21-7.4.5-4.4-6.2-6.3-6.8-1.8z" fill="#fff"/><path d="M199.9 216.2c-.5 3.3-4.3 2.2-6.5 2.2H183c-1 0-5.6.8-5.6-1.4v-40c0-2.5 14.7-1.3 16.7-1.3 1.3 0 5.6-.7 5.6 1.4v40c0 4.4 7 4.4 7 0V180c0-5.8-2-11.3-8.9-11.3H179c-7.1 0-8.6 6.2-8.6 11.8V203c0 5-.5 10.2.2 15 1.1 8.7 10.5 7.4 17 7.4 6.7 0 17.7 2 19-7.4.5-4.4-6.2-6.3-6.8-1.8z" fill="#fff"/></svg>