<svg xmlns="http://www.w3.org/2000/svg" width="361" height="361"><path d="M222 211a32 32 0 0 1-32 33h-19a32 32 0 0 1-32-33V107a32 32 0 0 1 32-32h19a32 32 0 0 1 32 32v105z" fill="none" stroke="#fff" stroke-width="10" stroke-miterlimit="10"/><path d="M176 260v27c0 6 10 6 10 0v-27c0-6-10-6-10 0z" fill="#fff"/><path d="M140 292h82c6 0 6-10 0-10h-82c-7 0-7 10 0 10zm94-112v35a40 40 0 0 1-38 40h-18c-7 0-14 1-21-1a40 40 0 0 1-25-19c-4-7-5-15-5-23v-32c0-6-10-6-10 0v35a50 50 0 0 0 33 47c13 5 30 3 44 3a50 50 0 0 0 47-31c4-10 3-19 3-29v-25c0-6-10-6-10 0z" fill="#fff"/></svg>