<svg xmlns="http://www.w3.org/2000/svg" width="361" height="361"><path d="M164 222l45 35v-9l-45 34 7 5v-69c0-7-10-7-10 0v69c0 3 5 6 8 4l45-34c3-3 3-7 0-9l-45-35c-5-4-10 5-5 9zm34-107h56l13 1c9 2 15 11 15 20v89c0 6-1 12-6 16-6 6-14 6-22 6-6 0-6 10 0 10 9 0 17 0 24-5 9-5 14-15 14-25v-76c0-12 1-24-6-34-11-14-29-12-46-12h-42c-7 0-7 10 0 10z" fill="#fff"/><path d="M194 70l-45 35c-3 2-3 6 0 8l45 35c3 2 8-1 8-4V75c0-7-10-7-10 0v69l7-5-45-34v8l45-34c5-4 0-13-5-9zm-30 176h-56l-13-1a21 21 0 0 1-15-20v-89c0-6 1-11 6-16 6-6 14-6 22-6 6 0 6-10 0-10-9 0-17 0-24 5a31 31 0 0 0-14 26v76c0 12-2 23 6 33 11 15 29 12 45 12h43c7 0 7-10 0-10z" fill="#fff"/></svg>