<svg xmlns="http://www.w3.org/2000/svg" width="361" height="361"><path d="M104 75v212c0 7 10 7 10 0V75c0-6-10-6-10 0z" fill="#fff"/><path d="M139 154c0 5-4 9-9 9H90c-6 0-10-4-10-9v-12c0-4 4-8 10-8h40c5 0 9 4 9 8v12zm107-79v212c0 7 10 7 10 0V75c0-6-10-6-10 0z" fill="#fff"/><path d="M282 173c0 5-4 9-10 9h-40c-5 0-10-4-10-9v-12c0-4 5-8 10-8h40c6 0 10 4 10 8v12zM176 75v212c0 7 10 7 10 0V75c0-6-10-6-10 0z" fill="#fff"/><path d="M212 220c0 5-5 8-10 8h-40c-6 1-10-3-10-8v-12c0-4 4-8 10-8h40c5 0 10 4 10 8v12z" fill="#fff"/></svg>