<svg xmlns="http://www.w3.org/2000/svg" width="361" height="361"><path d="M70.7 263c1.5 7.3 10.4 5.6 16 5.6 5.9 0 12.5.8 18.3-.4 5.5-1.1 4.5-8.5 4.5-12.5v-43c0-4.8-1-9.9-7-9.9H82.1c-5 0-11.5 0-11.5 7V262c0 4.5 7 4.5 7 0v-52.2c0-.7-.7 0 0 0h24.2c1.2 0 .7.2.7-.3v51c0 2 .7 1-1.2 1H80.6c-1.4 0-3 .4-3.1-.4-1-4.5-7.7-2.6-6.8 1.8zm80.1 19.6l-.6.7 2.7.3a493389.1 493389.1 0 0 1-31.4-17.5l-1-.6c-1.9-1-1.4.3-1.4-.6v-57c0-2.7-.4-1.2 1.4-2.2l31.6-17.7.8-.4-2.7.3c1 .2.5 2.4.5 3.9v91.8c0 4.5 7 4.5 7 0v-91.4c0-3.3.6-7.6-2.6-9.8-4.9-3.2-10.1 1.6-14.4 4l-20 11.2c-3.5 2-8.6 3.6-8.6 8.3v53.3c0 3.7-.6 7.5 1.9 10.5 1 1.2 3.3 2 4.8 2.8l7.6 4.3 18.5 10.4 4.4 2.5c3.7 2 7.6-1.8 8.3-5.2.9-4.4-5.9-6.3-6.8-1.9zm113.5-98.3V71.8m1.5 112.5V71.8c0-2-3-2-3 0v112.5c0 2 3 2 3 0zm-47.7 0V71.8m1.5 112.5V71.8c0-2-3-2-3 0v112.5c0 2 3 2 3 0zm30.2 0V71.8m1.5 112.5V71.8c0-2-3-2-3 0v112.5c0 2 3 2 3 0zM72.9 167H291" fill="#fff"/><path d="M73 168.4h218c2 0 2-3 0-3H73c-2 0-2 3 0 3zm0-1041.2h218m-218 1.5h218c2 0 2-3 0-3H73c-2 0-2 3 0 3z" fill="#fff"/><g fill="#fff"><path d="M276.9 107.5c-7.8-5-15.2-3.8-22.1 1.8-5.1 4-9 9.5-13.8 13.9-3.7 3.3-6.2 4.9-11.1 4a32 32 0 0 1-9-3c-2.5-1.3-4.6-3.3-7.3-4.4-6.6-2.7-11.8 2.2-17.6 2.5-14.4.8-28.8-5-41.2-11.7-18-9.8-33.8-24.8-48.5-39-3.3-3.2-8.2 1.8-5 5 25 24.3 52.3 48.2 88.2 52.5A27 27 0 0 0 205 127c6.2-3 11.3 3 16.9 5.3 4.3 1.6 10.3 3.3 14.8 2 6.2-2 11.6-8 15.8-12.8 2.8-3.1 5.5-6.1 9-8.6 3.7-2.8 8.1-1.8 11.8.6 3.8 2.5 7.3-3.6 3.6-6z"/><path d="M95.5 83l20 23.4c14.2 16.7 31.2 30 51.6 38.5 6.1 2.5 12.5 4.3 19 5.7a34 34 0 0 0 17.3 1c4.1-1.4 4.7-2 8.5-.4 6 2.7 10.5 6.7 17.2 7.7.6 0 4.6.6 2.6.1l2.3.3c3.4.1 6.8-1.3 9.6-3 5-2.9 8.4-7.8 11.6-12.5 2.5-3.8 6.1-8.2 10.8-9.4 2.7-.7 5.3.8 8 2.1 4 2 7.6-4 3.5-6-5-2.4-9.8-4.3-15.2-2.3-10.8 4.1-13.6 17-23.1 22.6a10.6 10.6 0 0 1-4.2 1.4h-1.4c-4.7-.9-8.4-1.1-12.7-3.8-3.4-2.2-7.1-4.6-11.2-5.2-4.2-.6-7.6 2-11.6 2.1-6.8.2-13.9-2.2-20.2-4a87 87 0 0 1-20.3-9c-5.3-3.2-10.8-6-15.7-9.7a130.4 130.4 0 0 1-12.9-11.8c-8.5-8.7-16.2-18.3-24.1-27.5l-4.4-5.2c-3-3.4-7.9 1.6-5 5z"/><path d="M87.7 95.4a987.8 987.8 0 0 0 18 24.6c5 6.5 9.9 13 16 18.4 7.8 6.8 15 13.7 23.9 19.3a113.2 113.2 0 0 0 24 11.4 73.4 73.4 0 0 0 31 4.5c3.3-.4 6.4-1.6 9.5-.2 2.5 1.1 4.4 3.4 6.6 5 4.5 3 9.3 5 14.9 5.2 18 .8 24.8-33.5 43.3-22.7 4 2.3 7.5-3.7 3.6-6a19.7 19.7 0 0 0-23.2 2c-6.7 5.4-11.4 14.5-19.1 18.6-10 5.3-17.4-6.7-25.7-9.4-4.6-1.4-9.5.7-14 .8a71 71 0 0 1-18.8-2.7 114 114 0 0 1-49.4-29.3c-13.3-12.7-23.8-28-34.6-43-2.6-3.6-8.6-.1-6 3.5z"/></g><path fill="#fff" d="M71.8 89.2h218m-218 1.5h218c2 0 2-3 0-3h-218c-2 0-2 3 0 3zm106 122a31.4 31.4 0 0 1 0 43.8c-3.2 3.2 1.8 8.2 4.9 5a38.5 38.5 0 0 0 0-53.8c-3.1-3.3-8 1.7-5 5z"/><path d="M188.3 203.8a45.1 45.1 0 0 1 0 63.2c-3.2 3.2 1.8 8.2 5 5a52.3 52.3 0 0 0 0-73.1c-3.2-3.2-8.2 1.7-5 5z" fill="#fff"/><path d="M199.4 195.3a56.9 56.9 0 0 1 0 79.6c-3.1 3.2 1.8 8.1 5 5a64 64 0 0 0 0-89.5c-3.2-3.3-8.1 1.7-5 5z" fill="#fff"/></svg>