<svg xmlns="http://www.w3.org/2000/svg" width="361" height="361"><path d="M139 260v27c0 6 10 6 10 0v-27c0-6-10-6-10 0z" fill="#fff"/><path d="M103 292h82c6 0 6-10 0-10h-82c-7 0-7 10 0 10zm71-40c-5 4-11 3-18 3h-30c-9-1-17-5-24-11-10-9-12-22-12-35v-29c0-6-10-6-10 0v32c0 16 5 30 17 41s27 12 42 12h18c8 0 15 0 22-5 6-3 1-12-5-8z" fill="#fff"/><path d="M169 228a57 57 0 0 1 16-40v-81a32 32 0 0 0-32-32h-18a32 32 0 0 0-33 32v105a32 32 0 0 0 33 32h18a32 32 0 0 0 17-5 58 58 0 0 1-1-11z" fill="none" stroke="#fff" stroke-width="10" stroke-miterlimit="10"/><path d="M276 227a50 50 0 0 1-35 48 50 50 0 0 1-56-21 50 50 0 0 1 4-59 50 50 0 0 1 58-13 50 50 0 0 1 29 45c0 10 15 10 15 0a66 66 0 0 0-34-56 65 65 0 0 0-66 2 65 65 0 0 0-29 60 65 65 0 0 0 38 53 65 65 0 0 0 62-5 65 65 0 0 0 29-54c0-9-15-9-15 0z" fill="#fff"/><path d="M191 273l81-81c7-7-4-17-11-10l-81 80c-6 7 4 18 11 11z" fill="#fff"/></svg>