<svg xmlns="http://www.w3.org/2000/svg" width="361" height="361"><path d="M163.8 222l45.1 34.5v-8.6l-45 34.4 7.4 4.4v-69c0-6.5-10-6.5-10 0v69c0 3.4 4.4 6.7 7.6 4.3l45-34.5c3.3-2.4 3.3-6.2 0-8.6l-45-34.5c-5.2-4-10.1 4.8-5 8.6zm34-106.9h56c4.4 0 9-.3 13.2.8 9.1 2.2 15.1 11 15.1 20.2V225c0 6.1-1.6 11.6-6 16.1-6 6.3-14 6-22 6-6.4 0-6.4 10 0 10 8.6 0 16.5-.1 24-4.8 8.7-5.4 14-15.6 14-25.8v-76c0-11.7 1.3-23.6-6.4-33.4-11.1-14.5-29.2-12-45.3-12h-42.7c-6.4 0-6.4 10 0 10z" fill="#fff"/><path d="M194 70.3l-45.1 34.5c-3.2 2.4-3.2 6.2 0 8.6l45 34.5c3.2 2.4 7.6-.9 7.6-4.3v-69c0-6.4-10-6.4-10 0v69l7.5-4.3-45.1-34.5v8.6L199 79c5-4 .1-12.6-5-8.7zm-30 175.9h-56c-4.4 0-9 .3-13.3-.7a20.7 20.7 0 0 1-15-20.2v-89c0-6.1 1.6-11.6 6-16.1 6-6.3 14-6 21.9-6 6.4 0 6.4-10 0-10-8.6 0-16.4.1-24 4.8a30.7 30.7 0 0 0-14 25.8v76c0 11.7-1.2 23.6 6.4 33.5 11.2 14.4 29.2 11.9 45.3 11.9H164c6.5 0 6.5-10 0-10z" fill="#fff"/></svg>