<svg xmlns="http://www.w3.org/2000/svg" width="361" height="361"><g fill="#fff"><path d="M178 80l84 63 2-9h-83c-7 0-7 10 0 10h83c6 0 6-6 3-9l-84-64c-5-4-10 5-5 9z"/><path d="M266 135l-83-64a5 5 0 0 0-5 0l-83 64c-4 2-3 9 3 9h166c6 0 6-10 0-10H98l2 9 83-63h-5l83 63c5 4 10-4 5-8z"/></g><path d="M245 282c0-1 3-1 0-1H116c-2 0 1 1 1 2V143c0-2-3 1-2 1h131s-2-3-2-1v140c0 6 10 6 10 0V144c0-10-8-10-15-10H119c-4 0-8 0-10 3s-2 6-2 9v123c0 7-2 20 7 22h129c5 0 10 0 11-7 1-6-8-9-10-2zm-125-93h122" fill="#fff"/><path d="M120 191h122c2 0 2-3 0-3H120c-2 0-2 3 0 3zm0 45h122m-122 1h122c2 0 2-3 0-3H120c-2 0-2 3 0 3z" fill="#fff"/><g fill="#fff"><path d="M174 110a5 5 0 0 0-2-2l-3-1a4 4 0 0 0-1 0v17h1l3-1a5 5 0 0 0 2-1 8 8 0 0 0 1-3 20 20 0 0 0 0-6 9 9 0 0 0-1-3z"/><path d="M237 126l-54-41a4 4 0 0 0-4 0l-54 41a4 4 0 0 0 2 7h108a4 4 0 0 0 2-7zm-58-4a10 10 0 0 1-2 4l-4 2h-5a23 23 0 0 1-5 0v-24a25 25 0 0 1 6-1l4 1a8 8 0 0 1 4 2 11 11 0 0 1 2 4l1 6-1 6zm9 0c1 2 3 2 5 2a12 12 0 0 0 2 0v-9h4v12a23 23 0 0 1-7 1h-4a8 8 0 0 1-3-3 12 12 0 0 1-2-4 20 20 0 0 1-1-5 17 17 0 0 1 1-6 12 12 0 0 1 2-4 9 9 0 0 1 4-3h4a14 14 0 0 1 4 0l2 1h1l-2 4a9 9 0 0 0-2-1 8 8 0 0 0-3 0l-3 1a6 6 0 0 0-2 1l-1 3a17 17 0 0 0 0 4l1 6z"/></g><g fill="#fff"><path d="M174 160a5 5 0 0 0-1-2 3 3 0 0 0-2 0 3 3 0 0 0-2 0l-1 2a11 11 0 0 0-1 3 38 38 0 0 0 0 7l1 3 1 1a3 3 0 0 0 2 1 3 3 0 0 0 2-1l1-1 1-3a38 38 0 0 0 0-7l-1-3z"/><path d="M238 146H123a4 4 0 0 0-4 4v32a4 4 0 0 0 4 4h115a4 4 0 0 0 4-4v-32a4 4 0 0 0-4-4zm-61 30a8 8 0 0 1-6 3c-3 0-5-1-7-3l-2-10c0-5 1-7 2-9a8 8 0 0 1 7-3c3 0 5 1 7 3l2 9-2 10zm11-3a5 5 0 0 0 4 2 12 12 0 0 0 2 0v-9h5v12a23 23 0 0 1-7 1h-4a8 8 0 0 1-3-3 12 12 0 0 1-2-4 20 20 0 0 1-1-6 17 17 0 0 1 1-5 12 12 0 0 1 2-4 9 9 0 0 1 4-3 11 11 0 0 1 4 0 14 14 0 0 1 4 0l2 1-1 4a9 9 0 0 0-2-1 8 8 0 0 0-3 0h-3a6 6 0 0 0-2 2l-1 3a17 17 0 0 0 0 3l1 7z"/></g><path d="M238 192H123a4 4 0 0 0-4 4v32a4 4 0 0 0 4 4h115a4 4 0 0 0 4-4v-32a4 4 0 0 0-4-4zm-59 33h-16v-25h15v4h-10v5h9v4h-9v7h11v5zm9-6l5 2a13 13 0 0 0 2 0v-9h4v12a22 22 0 0 1-7 1l-4-1a9 9 0 0 1-3-2l-2-4-1-6a17 17 0 0 1 1-6l2-3 4-3 4-1a14 14 0 0 1 6 1v1l-1 4a5 5 0 0 0-2-1 8 8 0 0 0-3 0 6 6 0 0 0-5 2l-1 3v3l1 7zm50 20H123a4 4 0 0 0-4 4v32a4 4 0 0 0 4 4h115a4 4 0 0 0 4-4v-32a4 4 0 0 0-4-4zm-63 33l-2-2a34 34 0 0 0-1-4 32 32 0 0 0-5-5v11h-5v-24h5v10a61 61 0 0 0 6-8l1-2h5a72 72 0 0 1-5 8 48 48 0 0 1-2 3 33 33 0 0 1 2 3 35 35 0 0 1 3 3 38 38 0 0 1 2 4 26 26 0 0 1 1 3h-5zm13-5l4 2a12 12 0 0 0 2 0v-9h5v12a22 22 0 0 1-7 1l-4-1a9 9 0 0 1-3-2 12 12 0 0 1-2-4 20 20 0 0 1-1-6l1-5a12 12 0 0 1 2-4 9 9 0 0 1 3-3l5-1a14 14 0 0 1 4 1l1 1h1l-1 4a11 11 0 0 0-2-1 8 8 0 0 0-3 0 6 6 0 0 0-5 2l-1 3a17 17 0 0 0 0 3l1 7z" fill="#fff"/><g fill="#fff"><path d="M258 237h32c2 0 2-3 0-3h-32c-2 0-2 3 0 3zm21 31h9c5 0 5-7 0-7h-9c-4 0-4 7 0 7zm-18 16h16c4 0 4-7 0-7h-16c-5 0-5 7 0 7zm0-11h6c2 0 3-2 3-4s-1-3-3-3h-6c-2 0-4 1-4 3s2 4 4 4z"/><path d="M274 279h2c2 0 4-1 4-3s-2-4-4-4h-2c-2 0-3 2-3 4s1 3 3 3zm-6-23h-6c-1 0-3 2-3 4s2 3 3 3h6c2 0 4-1 4-3s-2-4-4-4zm-5-14h-2c-2 0-4 1-4 3s2 4 4 4h2c2 0 3-2 3-4s-1-3-3-3zm24 3h-16c-5 0-5 7 0 7h16c4 0 4-7 0-7z"/><path d="M278 253h-16c-4 0-4 7 0 7h15c5 0 5-7 1-7zm6-13h-6c-2 0-4 1-4 3s2 4 4 4h6c2 0 3-2 3-4s-1-3-3-3zm-17-3h-6c-2 0-4 1-4 3s2 4 4 4h6c1 0 3-2 3-4s-2-3-3-3zm-4 48h-2c-2 0-4 1-4 3s2 4 4 4h2c2 0 3-2 3-4s-1-3-3-3zm25 0h-16c-5 0-5 7 0 7h16c4 0 4-7 0-7zm0-15h-6c-1 0-3 2-3 4s2 3 3 3h6c2 0 4-1 4-3s-2-4-4-4z"/><path d="M288 237h-6c-2 0-4 1-4 3s2 4 4 4h6c2 0 3-2 3-4s-1-3-3-3z"/></g><g fill="#fff"><path d="M99 273h2c1 0 3-1 3-3s-2-4-3-4h-2c-2 0-4 2-4 4s2 3 4 3zm-25 6h16c4 0 4-7 0-7H74c-5 0-5 7 0 7z"/><path d="M86 268h15c5 0 5-7 0-7H86c-5 0-5 7 0 7zm-13 24h7c1 0 3-2 3-4s-2-3-3-3h-6c-2 0-4 1-4 3s2 4 4 4zm21-6h6c2 0 4-2 4-4s-2-3-4-3h-6c-2 0-3 1-3 3s1 4 3 4zm-6-33h-9c-4 0-4 7 0 7h9c5 0 5-7 0-7zm13-16H85c-4 0-4 7 0 7h16c5 0 5-7 0-7z"/><path d="M100 242h-6c-1 0-3 1-3 3s2 4 3 4h6c2 0 4-2 4-4s-2-3-4-3zm-19-4h-3c-2 0-4 2-4 4s2 3 4 3h3c2 0 3-1 3-3s-1-4-3-4zm17 22h2c2 0 4-2 4-4s-2-3-4-3h-2c-2 0-3 1-3 3s1 4 3 4zm3 25h-6c-2 0-4 1-4 3s2 4 4 4h6c1 0 3-2 3-4s-2-3-3-3zm-16-4h-2c-2 0-4 2-4 4s2 3 4 3h2c2 0 3-1 3-3s-1-4-3-4zm-13-44h32c2 0 2-3 0-3H72c-2 0-2 3 0 3z"/><path d="M80 244h-6c-2 0-4 2-4 4s2 3 4 3h6c2 0 3-1 3-3s-1-4-3-4zm-1 19h-6c-2 1-3 2-3 4s1 3 3 3h6c2 1 3-1 3-3s-1-4-3-4z"/></g></svg>