<svg xmlns="http://www.w3.org/2000/svg" width="361" height="361"><path d="M103.3 204.8v69.6c0 2.8 2 5 4.7 5h139.1a4.9 4.9 0 0 0 4.8-5v-69.6a5 5 0 0 0-4.8-5h-139a4.9 4.9 0 0 0-4.8 5zm71 49.8h-19.2v-30.3h18.2v5H161v6.8h10.6v5H161v8.5h13.2v5zm11-7.2a5.6 5.6 0 0 0 5 2.6 14.8 14.8 0 0 0 2.3-.2v-11h6v15a26 26 0 0 1-8.8 1.5c-1.9 0-3.6-.4-5-1a10.3 10.3 0 0 1-4-3c-1-1.4-1.8-3-2.4-5s-.8-4.3-.8-6.9c0-2.6.3-4.8 1-6.8a12 12 0 0 1 6.8-8 13 13 0 0 1 5.1-1 16.3 16.3 0 0 1 5.5.9c.7.2 1.3.4 1.7.7l1 .6-1.6 4.8c-.7-.5-1.5-.9-2.6-1.2a9.7 9.7 0 0 0-3.2-.6c-1.4 0-2.6.3-3.5.8a6.7 6.7 0 0 0-2.4 2.2 9.4 9.4 0 0 0-1.4 3.3 21 21 0 0 0-.4 4.3c0 3.7.6 6.3 1.7 8z" fill="#fff"/><path d="M90.2 284c1.5 9.7 13.5 7.5 20.6 7.5h129.7c6 0 14.7 1.6 20.3-1.4 5.8-3 4-14 4-19.3V97.9c0-2.5-2.3-5.2-5-5L112.1 106c-5.2.5-18-.3-20.7 5.3C88.6 116.9 90 125 90 131v151.7c0 6.4 10 6.4 10 0V117.4c0-2.1.3-.3-1.2-.2l18.3-1.6 91-8 51.7-4.7-5-5v184.7c0-1.1 2.2-1 .4-1H99.3c-1.2 0 .6 0 .5-.3-1-6.3-10.6-3.6-9.6 2.7zm160.3-87.6h-147" fill="#fff"/><path d="M250.4 194.9h-147c-2 0-2 3 0 3h147c2 0 2-3 0-3zM283.3 91L137 103.4l-58.4 5c-6.4.5-6.4 10.5 0 10l146.2-12.5 58.5-4.9c6.3-.5 6.4-10.5 0-10z" fill="#fff"/></svg>