<svg xmlns="http://www.w3.org/2000/svg" width="361" height="361"><g stroke="#fff" stroke-linejoin="round" stroke-miterlimit="10"><path d="M286.2 90l4.1-.4-.4-4-4.1.5-2.2-5 3-2.7-2.6-3-3 2.8-4.7-2.7.8-4-3.9-.8-.8 4-5.4.6-1.7-3.8-3.6 1.6 1.7 3.8-4 3.6-3.6-2-2 3.4 3.6 2-1.1 5.2-4.1.5.4 4 4-.4L259 98l-3.1 2.8 2.7 3 3-2.9 4.7 2.7-.9 4 4 1 .8-4.1 5.4-.6 1.6 3.8 3.7-1.6-1.7-3.8 4-3.6 3.6 2 2-3.4-3.6-2 1.1-5.3zm-15 11.3a11.7 11.7 0 1 1 0-23.3 11.7 11.7 0 0 1 0 23.3zm-9.2 18.8l4.2-.2-.2-4-4.2.2-1.9-5 3.3-2.6-2.5-3.1-3.3 2.6-4.5-3 1.1-4-3.8-1-1.1 4-5.4.2-1.5-3.8-3.7 1.4 1.5 3.9-4.2 3.3-3.5-2.2-2.2 3.3 3.5 2.3-1.4 5-4.1.4.2 4 4-.2 2 5-3.2 2.6 2.5 3 3.2-2.5 4.5 3-1 4 3.8 1 1-4 5.4-.3 1.5 3.9 3.7-1.4-1.4-4 4.2-3.3 3.4 2.3 2.2-3.4-3.5-2.2 1.4-5.2zm-14.9 10.4a11.7 11.7 0 1 1 0-23.4 11.7 11.7 0 0 1 0 23.4z" fill="#fff" stroke-width="3"/><g fill="#fff" stroke-width="3"><path d="M282.4 125l2.5-.3a8.6 8.6 0 0 0-2-3.4l-1.5 2.3 1 1.5zm.4-3.7l1.9-3-3-1.9-1.9 3 .3.1a8.5 8.5 0 0 1 2.7 1.8zm-4.4.4l1.4-2.3a8.5 8.5 0 0 0-4-.5l.8 2.6 1.8.2zm7 6.6l3.6-.5-.5-3.5-3.6.4a8.5 8.5 0 0 1 .4 3.6zm-12.1-5.6l-1-2.6a8.5 8.5 0 0 0-2.8 3l2.6 1 1.2-1.4z"/><path d="M274.6 115.7l-3.4 1.3 1.2 3.2a8.6 8.6 0 0 1 3.3-1.2l-1.1-3.3zm7.7 14.6l1.7 1.7.7-1.3a8.5 8.5 0 0 0 .6-2.4l-2.4.3-.6 1.7zm-13.4.3l-3 1.9 2 3 3-2a8.6 8.6 0 0 1-2-3zm9.2 2.8l-.2 2.5a8.6 8.6 0 0 0 3.7-1.4l-1.8-1.7-1.7.6zm-3.8 2.2l-.4 3.6 3.6.3.4-3.6a8.4 8.4 0 0 1-3.6-.3zm-4.9-12.5l-3.2-1-1.1 3.3 3.2 1.1a8.5 8.5 0 0 1 1.1-3.4zm12.2 11.4l2.6 2.6 2.5-2.5-2.7-2.6a8.5 8.5 0 0 1-2.5 2.5zm-10.7-7.1l-2.6-.9a8.5 8.5 0 0 0 .6 4l2.2-1.4-.2-1.7zm2.2 4.7l-2.2 1.4a8.5 8.5 0 0 0 3.4 2l.3-2.4-1.5-1z"/></g><circle cx="276.8" cy="127.6" r="5.9" fill="none" stroke-width="5"/></g><path fill="#fff" d="M74.7 156.2l-.3-81 106.8 81z"/><path d="M79.7 156.2l-.3-81-7.5 4.3 106.8 81 2.5-9.3H74.7c-6.5 0-6.5 10 0 10h106.5c5.4 0 6.3-6.5 2.6-9.4L77 70.8c-3.2-2.3-7.6 1-7.6 4.4l.3 81c0 6.4 10 6.4 10 0z" fill="#fff"/><path d="M127.4 281c0 3.1-2.6 5.7-6 5.7H98c-3.3 0-6-2.6-6-5.7v-68.2c0-3 2.7-5.6 6-5.6h23.5c3.4 0 6 2.5 6 5.7v68z" fill="none" stroke="#fff" stroke-width="10" stroke-miterlimit="10"/><path d="M162.8 281.5c0 3.2-4.7 5.8-10.5 5.8H85.4c-5.8 0-10.6-2.6-10.6-5.8V159c0-3.2 4.8-5.8 10.6-5.8h66.9c5.8 0 10.5 2.6 10.5 5.8v122.5z" fill="none" stroke="#fff" stroke-width="10" stroke-miterlimit="10"/><g fill="#fff"><path d="M186.2 233.1v54.2c0 4.5 7 4.5 7 0V233c0-4.5-7-4.5-7 0zm11.3.1v54.1c0 4.5 7 4.5 7 0v-54.1c0-4.5-7-4.5-7 0zm11.4 0v54.1c0 4.5 7 4.5 7 0v-54.1c0-4.5-7-4.5-7 0zm11.3 0v54.1c0 4.5 7 4.5 7 0v-54.1c0-4.5-7-4.5-7 0zm11.4 0v54c0 4.6 7 4.6 7 0v-54c0-4.6-7-4.6-7 0zm11.3 0v54.1c0 4.5 7 4.5 7 0v-54.1c0-4.5-7-4.5-7 0zm11.4 0v54.1c0 4.5 7 4.5 7 0v-54.1c0-4.5-7-4.5-7 0zm11.3 0v54.1c0 4.5 7 4.5 7 0v-54.1c0-4.5-7-4.5-7 0zm11.4 0v54c0 4.6 7 4.6 7 0v-54c0-4.6-7-4.6-7 0z"/><path d="M185.3 247.2h101.6c4.5 0 4.5-7 0-7H185.3c-4.5 0-4.5 7 0 7zM185 280h102c4.5 0 4.5-7 0-7H185c-4.6 0-4.6 7 0 7z"/></g></svg>