<svg xmlns="http://www.w3.org/2000/svg" width="361" height="361"><g fill="none" stroke="#fff" stroke-width="10" stroke-miterlimit="10"><path d="M153.3 184.8a24 24 0 0 0 23.9 23.9h85a23.9 23.9 0 0 0 23.9-24v-85a23.9 23.9 0 0 0-23.9-23.9h-85a24 24 0 0 0-24 24v85z"/><path d="M153.7 189.2l-75.9 75.9a7.4 7.4 0 0 0 0 10.5l8.8 8.7a7.4 7.4 0 0 0 10.4 0l76-76"/></g><path d="M255.8 134.7H184c-9.7 0-9.8 15-.1 15h71.7c9.7 0 9.7-15 0-15z" fill="#fff"/><path d="M227.4 178v-71.6c0-9.7-15-9.8-15-.1V178c0 9.7 15 9.7 15 0z" fill="#fff"/></svg>