<svg xmlns="http://www.w3.org/2000/svg" width="361" height="361"><path d="M175.4 232.4c.2 4.2 1.3 10.3 6.7 10.3h8.8c7.4 0 16 1.5 16.4-8.6.5-8.6.1-17.3.1-25.9v-78.6c0-6.9-2.5-11-9.4-11h-10.8c-2.8 0-5.6-.3-8.2 1-4.2 2.2-3.6 8.7-3.6 12.8v100c0 6.5 10 6.5 10 0V129c0-4 0-.3-3-.3h18.1c-2.8 0-3.3-3.7-3 .3v103.4c0 4-.2.3 3 .3h-18.2c2.8 0 3.3 3.7 3.1-.3-.3-6.4-10.3-6.4-10 0z" fill="#fff"/><path d="M177.2 96l-105 80.4c-3.3 2.4-3.3 6.2 0 8.6l105 80.3c3.1 2.4 7.5-.9 7.5-4.3V100.4c0-6.5-10-6.5-10 0V261l7.5-4.3-105-80.3v8.6l105-80.3c5-3.8.1-12.5-5-8.6zm41.1 136.4c.2 4.2 1.3 10.3 6.7 10.3h8.8c7.4 0 16 1.5 16.4-8.6.5-8.6.1-17.3.1-25.9v-78.6c0-6.9-2.5-11-9.4-11h-10.8c-2.8 0-5.6-.3-8.2 1-4.2 2.2-3.6 8.7-3.6 12.8v100c0 6.5 10 6.5 10 0V129c0-4 0-.3-3-.3h18.1c-2.8 0-3.3-3.7-3 .3v103.4c0 4-.2.3 3 .3h-18.2c2.8 0 3.3 3.7 3.1-.3-.3-6.4-10.3-6.4-10 0zm41.7 0c.2 4.2 1.3 10.3 6.8 10.3h8.8c7.4 0 15.9 1.5 16.4-8.6.4-8.6 0-17.3 0-25.9v-78.6c0-6.9-2.5-11-9.3-11h-10.9c-2.8 0-5.6-.3-8.1 1-4.2 2.2-3.7 8.7-3.7 12.8v100c0 6.5 10 6.5 10 0V129c0-4 .1-.3-3-.3h18c-2.8 0-3.2-3.7-3 .3v103.4c0 4-.2.3 3 .3h-18c2.9 0 3.3 3.7 3.1-.3-.3-6.4-10.3-6.4-10 0z" fill="#fff"/></svg>