<svg xmlns="http://www.w3.org/2000/svg" width="361" height="361"><path d="M256.5 157.4c0-14.9 2-30.8-7.7-43.3A37 37 0 0 0 220 99.9h-54.7c-10.7 0-22.6-1.3-33 1.2a37 37 0 0 0-27 32.6c-.9 7.8-.1 16-.1 24 0 6.4 10 6.4 10 0 0-15-2.6-31.4 10.2-42.2 9-7.7 23.5-5.6 34.6-5.6h46.6c13.1 0 26.4-1 35.1 11.3 7.2 10 4.8 24.6 4.8 36.2 0 6.4 10 6.4 10 0z" fill="#fff"/><path d="M212.7 161.2l34.5 45c2.4 3.3 6.2 3.3 8.6 0l34.5-45c2.4-3.2-.9-7.6-4.3-7.6h-69c-6.4 0-6.4 10 0 10h69l-4.3-7.5-34.5 45.1h8.6l-34.5-45c-3.8-5.1-12.5-.2-8.6 5zm-64.4 40l-34.5-45c-2.4-3.3-6.2-3.3-8.6 0l-34.5 45c-2.4 3.2.9 7.6 4.3 7.6h69c6.5 0 6.5-10 0-10H75l4.4 7.5 34.4-45.1h-8.6l34.5 45c3.9 5.1 12.5.2 8.6-5z" fill="#fff"/><path d="M246.5 204c0 15 2.6 31-10.2 41.8-9 7.7-23.5 5.6-34.6 5.6h-46.6c-13.1 0-26.4 1-35.1-11.3-7.2-10-4.8-24.8-4.8-36.5 0-6.4-10-6.4-10 0 0 15-2.1 31 7.7 43.6 7 9 17.5 14 28.8 14.2h54.7c10.7 0 22.6 1.3 33-1.2a37 37 0 0 0 27-32.5c.9-7.8.1-16 .1-23.8 0-6.4-10-6.4-10 0z" fill="#fff"/></svg>