<svg xmlns="http://www.w3.org/2000/svg" width="361" height="361"><path d="M268 142l13 99 6-5-99-13 4 8 85-85c4-5-3-12-7-7a3419053 3419053 0 0 0-85 85c-4 3-1 8 3 9l98 13c3 0 6-3 6-5l-14-99c0-6-11-6-10 0z" fill="#fff"/><path d="M233 153c-1 1-5-3-2 0l3 3 9 8 2 3c2 2 0-4 0-3l-4 4-30 30-2 2c-2 1 1-2 3 1l-6-7-3-3c-2-2 0 4 1 2l3-4 25-35 2-3c4-5-4-10-8-5l-22 30-9 12c-5 7 2 11 6 16 5 4 9 9 15 3l12-12 17-17c2-3 8-7 9-11 2-6-6-11-10-15s-9-12-16-8c-6 4-1 13 5 9zm-53-23c-1 1-6 0-2 1l3 1 11 3 11 2 2 1c3 1 0-6-1-4l-16 36-5 12c0-1 5 0 3-1h-2l-5-1-5-2c-4-1 1 0 1 1l4-37 1-14c1-7-9-7-10 0l-4 36-1 15c-1 8 7 9 13 11 6 1 11 3 14-4l7-16 10-22c1-4 4-8 4-13 1-8-15-9-20-11-6-1-18-7-22 1-3 6 6 11 9 5zm-59 5c0 1-4 2-1 1l3-1 12-3 10-2 2-1c3-1-3-5-3-3l4 40 2 12c0-1 4-2 2-2l-2 1-5 1-5 2h2l-16-35-5-13c-3-6-12 0-9 5l15 34 6 14c3 8 11 4 17 2 6-1 11-3 10-10l-2-18-3-23c0-5 0-10-2-14-3-7-18 0-23 1-6 2-20 3-19 12 1 6 11 6 10 0zm-41 28c1 1-3 4 0 1l3-3 8-8a3192 3192 0 0 1 3-3c2-2-5-1-4-1l3 5 26 34 2 3c-1-1 3-4 0-1l-4 4-4 4c-3 2 1-2 3 0l-4-3-30-31-3-2c-4-5-11 2-7 7l26 26 11 10c6 7 12-1 16-5 4-5 8-8 4-15l-11-14-14-19c-2-3-5-8-9-10-5-5-12 5-16 9s-13 10-8 17c4 5 13 0 9-5z" fill="#fff"/></svg>