<svg xmlns="http://www.w3.org/2000/svg" width="361" height="361"><path d="M143 126.2c.4.1.2.6.2-.5V96.1c0 .8-1 .6.4.6H173c-.7 0-.6-1-.6.4v29.6c0-.8 1-.6-.4-.6h-29.4c-2 0-2 3 0 3H170c1.4 0 3.6.4 4.7-.7 1-1 .7-2.9.7-4.1V96c0-4-9.6-2.4-11.8-2.4h-20.3c-4.3 0-3 5.5-3 8.3v22.3c0 2-.3 3.8 2 4.8 1.7.7 2.5-2.2.7-3z" fill="#fff"/><path d="M123.3 288.1a3.4 3.4 0 0 1-3.5-3.4V76.9a3.5 3.5 0 0 1 3.5-3.5h114.6a3.5 3.5 0 0 1 3.4 3.5v207.8a3.4 3.4 0 0 1-3.4 3.4H123.3z" fill="none" stroke="#fff" stroke-width="7" stroke-miterlimit="10"/><path d="M188.7 126.2c.4.1.2.6.2-.5V96.1c0 .8-1 .6.4.6h29.4c-.7 0-.6-1-.6.4v29.6c0-.8 1-.6-.4-.6h-29.4c-2 0-2 3 0 3h27.4c1.4 0 3.6.4 4.7-.7 1-1 .7-2.9.7-4.1V96c0-4-9.6-2.4-11.8-2.4H189c-4.3 0-3 5.5-3 8.3v22.3c0 2-.3 3.8 2 4.8 1.7.7 2.5-2.2.7-3zm-45.6 46c.3.1.1.6.1-.5V142c0 .7-1 .6.5.6H173c-.7 0-.6-1-.6.4v29.5c0-.7 1-.5-.4-.5h-29.4c-1.9 0-1.9 3 0 3H170c1.4 0 3.6.4 4.8-.7 1-1 .6-2.9.6-4.2V142c0-4-9.6-2.5-11.8-2.5h-20.3c-4.3 0-3 5.6-3 8.4v22.2c0 2.2-.3 4 2 4.9 1.7.7 2.5-2.2.7-3zm45 0c.4.1.2.6.2-.5V142c0 .7-1 .6.4.6h29.4c-.7 0-.6-1-.6.4v29.5c0-.7 1-.5-.4-.5h-29.4c-1.9 0-1.9 3 0 3h27.4c1.4 0 3.6.4 4.7-.7 1-1 .7-2.9.7-4.2V142c0-4-9.6-2.5-11.8-2.5h-20.3c-4.3 0-3 5.6-3 8.4v22.2c0 2.2-.3 4 2 4.9 1.7.7 2.5-2.2.7-3zm-45.3 46c.4.2.2.7.2-.4v-29.6c0 .8-1 .6.4.6h29.4c-.7 0-.5-1-.5.4v29.6c0-.8 1-.6-.4-.6h-29.4c-2 0-2 3 0 3h27.3c1.4 0 3.7.4 4.8-.7 1-1 .7-2.9.7-4.1v-28.2c0-4-9.7-2.4-11.8-2.4H143c-4.3 0-3 5.5-3 8.3v22.3c0 2-.3 3.8 2 4.8 1.7.7 2.5-2.2.8-3zm45.1 0c.4.2.2.7.2-.4v-29.6c0 .8-1 .6.4.6H218c-.7 0-.5-1-.5.4v29.6c0-.8 1-.6-.5-.6h-29.4c-1.9 0-1.9 3 0 3H215c1.4 0 3.6.4 4.7-.7 1-1 .8-2.9.8-4.1v-28.2c0-4-9.7-2.4-11.9-2.4h-20.3c-4.3 0-3 5.5-3 8.3v22.3c0 2-.3 3.8 2 4.8 1.7.7 2.5-2.2.7-3zm-45 46.2c.4.2.2.6.2-.5v-29.6c0 .7-1 .6.4.6H173c-.7 0-.6-1-.6.4v29.6c0-.7 1-.6-.4-.6h-29.4c-1.9 0-1.9 3 0 3H170c1.4 0 3.6.4 4.7-.7 1-1 .7-2.9.7-4.1v-28.2c0-4-9.6-2.4-11.8-2.4h-20.3c-4.3 0-3 5.5-3 8.4v22.2c0 2.1-.3 3.9 2 4.8 1.7.7 2.5-2.2.7-3zm45.1 0c.4.2.2.6.2-.5v-29.6c0 .7-1 .6.4.6H218c-.7 0-.6-1-.6.4v29.6c0-.7 1-.6-.4-.6h-29.4c-2 0-2 3 0 3H215c1.4 0 3.6.4 4.7-.7 1-1 .7-2.9.7-4.1v-28.2c0-4-9.6-2.4-11.8-2.4h-20.3c-4.3 0-3 5.5-3 8.4v22.2c0 2.1-.3 3.9 2 4.8 1.7.7 2.5-2.2.7-3z" fill="#fff"/></svg>