<svg xmlns="http://www.w3.org/2000/svg" width="361" height="361"><path d="M264 237a27 27 0 0 1-19 25c-4 2-8 2-12 2H125a27 27 0 0 1-26-19l-1-12V125c0-12 8-22 19-25 4-2 8-2 12-2h108c12 0 22 8 25 19 2 4 2 8 2 12v108c0 7 10 7 10 0V129c0-16-6-30-21-37-10-5-20-4-30-4h-98c-9 0-17 4-24 9-11 9-13 22-13 35v87c0 9-1 19 2 28 4 17 20 27 37 27h110a37 37 0 0 0 37-37c0-6-10-6-10 0z" fill="#fff"/><path d="M109 179c0-6 1-12 3-17a35 35 0 0 1 8-12 32 32 0 0 1 12-8 39 39 0 0 1 14-2l13 2a32 32 0 0 1 11 8 36 36 0 0 1 8 12 47 47 0 0 1 3 17c0 6-1 12-3 17a36 36 0 0 1-8 12 32 32 0 0 1-11 8 38 38 0 0 1-14 2l-14-2a32 32 0 0 1-11-8 35 35 0 0 1-8-12 47 47 0 0 1-3-17zm11 0l2 12a28 28 0 0 0 5 10 22 22 0 0 0 8 6 23 23 0 0 0 10 2l11-2c4-1 5-4 7-6a28 28 0 0 0 5-10 43 43 0 0 0 0-24 28 28 0 0 0-5-10 22 22 0 0 0-8-6 24 24 0 0 0-10-2l-10 2a22 22 0 0 0-8 6 28 28 0 0 0-5 10 42 42 0 0 0-1 12zm132-37a718 718 0 0 1-16 17l-9 9a891 891 0 0 1-9 9 97 97 0 0 1 10 8 170 170 0 0 1 10 10 177 177 0 0 1 9 11 93 93 0 0 1 8 10h-13a106 106 0 0 0-7-10 136 136 0 0 0-9-10 141 141 0 0 0-10-8 84 84 0 0 0-9-7v35h-10v-75h10v34a498 498 0 0 0 8-8 712 712 0 0 0 9-9 839 839 0 0 0 9-9l6-8h13z" fill="#fff"/></svg>