<svg xmlns="http://www.w3.org/2000/svg" width="361" height="361"><g fill="#fff"><path d="M167.8 146.7a5.4 5.4 0 0 0-1.4-2.2c-.6-.5-1.4-.8-2.5-.8s-1.8.3-2.4.8a5.3 5.3 0 0 0-1.5 2.3 13.5 13.5 0 0 0-.6 3.2 45.3 45.3 0 0 0-.2 4.1c0 1.5 0 2.8.2 4 0 1.4.3 2.5.6 3.4.4 1 .8 1.7 1.5 2.2.6.6 1.4.8 2.4.8s1.8-.2 2.5-.8a5.2 5.2 0 0 0 1.4-2.2c.3-1 .6-2 .7-3.3a45.7 45.7 0 0 0 0-8.2 13.3 13.3 0 0 0-.7-3.3z"/><path d="M103.4 124v64a4.8 4.8 0 0 0 4.8 4.9H247a5 5 0 0 0 4.8-5V112a4.8 4.8 0 0 0-4.8-5l-138.8 12a4.8 4.8 0 0 0-4.8 5zm68.5 41.8a9.1 9.1 0 0 1-8 3.9 9.2 9.2 0 0 1-8-4c-1.8-2.6-2.7-6.4-2.7-11.6s.9-9 2.8-11.6a9.2 9.2 0 0 1 8-4c3.4 0 6.1 1.3 8 4 1.8 2.6 2.7 6.5 2.7 11.6 0 5.2-1 9-2.8 11.7zM185 162a5.6 5.6 0 0 0 5 2.5 15.3 15.3 0 0 0 2.3-.2v-10.9h6v15a26.3 26.3 0 0 1-8.8 1.3 12.4 12.4 0 0 1-5-1 10.2 10.2 0 0 1-3.9-3 13.9 13.9 0 0 1-2.4-4.8 23.8 23.8 0 0 1 .1-13.5c.7-2 1.6-3.6 2.8-5a11.1 11.1 0 0 1 4-2.9 13 13 0 0 1 5.1-1 16.6 16.6 0 0 1 5.5.9c.7.2 1.3.4 1.7.7l1 .6-1.6 4.7a12 12 0 0 0-2.6-1.2 9.7 9.7 0 0 0-3.2-.5c-1.4 0-2.6.2-3.5.7a6.7 6.7 0 0 0-2.4 2.2 9.2 9.2 0 0 0-1.4 3.3 20.2 20.2 0 0 0-.4 4.2c0 3.6.6 6.2 1.7 8z"/></g><path d="M90.2 284c1.5 9.7 13.5 7.5 20.6 7.5h129.7c6 0 14.7 1.6 20.3-1.4 5.8-3 4-14 4-19.3V97.9c0-2.5-2.3-5.2-5-5L112.1 106c-5.2.5-18-.3-20.7 5.3C88.6 116.9 90 125 90 131v151.7c0 6.4 10 6.4 10 0V117.4c0-2.1.3-.3-1.2-.2l18.3-1.6 91-8 51.7-4.7-5-5v184.7c0-1.1 2.2-1 .4-1H99.3c-1.2 0 .6 0 .5-.3-1-6.3-10.6-3.6-9.6 2.7zm160.3-87.6h-147" fill="#fff"/><path d="M250.4 194.9h-147c-2 0-2 3 0 3h147c2 0 2-3 0-3zM283.3 91L137 103.4l-58.4 5c-6.4.5-6.4 10.5 0 10l146.2-12.5 58.5-4.9c6.3-.5 6.4-10.5 0-10z" fill="#fff"/></svg>