<svg xmlns="http://www.w3.org/2000/svg" width="361" height="361"><g fill="#fff"><path d="M177.9 80.4l90.3 68.5 2.5-9.3-90 .4c-6.5 0-6.5 10 0 10l90-.5c5.4 0 6.3-6.4 2.6-9.3l-90.4-68.5c-5.1-3.9-10 4.8-5 8.7z"/><path d="M273.1 140.2l-89.9-68.5a4.8 4.8 0 0 0-5 0l-89.9 68.5c-3.7 2.9-2.9 9.4 2.5 9.4h179.8c6.4 0 6.4-10 0-10H90.8l2.5 9.3 90-68.5h-5.1l89.9 68.5c5 3.9 10-4.8 5-8.7z"/></g><path d="M244.5 281.6c.1-.6 3-.4.3-.4H116.1c-2.2 0 1 .5 1 1.6V149.6c0-2.7.2.4-1.9.4h130.4c1.8 0-1.3-2.6-1.3-1.4V283c0 6.4 10 6.4 10 0V148.3c0-10.5-13.4-8.3-20.2-8.3H116c-9.9 0-9 9.2-9 16.2v122c0 2.5-.1 4.9.4 7.4 1 5 6.3 5.6 10.4 5.6H238c6.2 0 14.6 1.3 16.2-6.9 1.2-6.3-8.4-9-9.7-2.7zm-125-65.9H242" fill="#fff"/><path d="M119.5 217.3H242c2 0 2-3 0-3H119.5c-2 0-2 3 0 3z" fill="#fff"/><g fill="#fff"><path d="M173.8 113.5a5 5 0 0 0-1.7-1.8c-.6-.5-1.5-.7-2.6-.7h-.8a3.8 3.8 0 0 0-.7 0v16.7h.9a5 5 0 0 0 4.7-2.3 7.8 7.8 0 0 0 1-2.7 20 20 0 0 0 0-6.5 8.7 8.7 0 0 0-.8-2.7z"/><path d="M241.5 130.7l-58.4-44a3.8 3.8 0 0 0-4.6 0l-58.5 44a3.8 3.8 0 0 0 2.3 6.8h117a3.8 3.8 0 1 0 2.2-6.8zm-62.5-5.5a10.4 10.4 0 0 1-2.4 4 9.1 9.1 0 0 1-3.6 2.1c-1.4.5-3 .7-4.6.7a23.5 23.5 0 0 1-5.3-.6v-24.1a24.6 24.6 0 0 1 6-.6c1.5 0 3 .2 4.4.7s2.5 1.2 3.4 2.3a10.7 10.7 0 0 1 2.2 3.9c.5 1.6.8 3.5.8 5.7a17 17 0 0 1-.9 5.9zm9.4.7c1 1.4 2.3 2 4.1 2a12.5 12.5 0 0 0 2-.1v-9h4.9V131a22.5 22.5 0 0 1-7.3 1.1c-1.5 0-2.9-.2-4.1-.8a8.4 8.4 0 0 1-3.2-2.4c-.9-1.1-1.6-2.4-2-4s-.8-3.5-.8-5.7c0-2 .3-4 .9-5.6a10 10 0 0 1 9.9-7.3 13.8 13.8 0 0 1 4.5.7l1.4.6.8.5-1.3 4c-.6-.4-1.3-.8-2.1-1a8 8 0 0 0-2.7-.5 7 7 0 0 0-3 .6c-.7.5-1.4 1-2 1.8s-.8 1.7-1 2.7a16.6 16.6 0 0 0-.4 3.5c0 3 .5 5.2 1.4 6.6z"/></g><path d="M238.4 152h-115a4 4 0 0 0-4 4.1v52.3a4 4 0 0 0 4 4h115a4 4 0 0 0 4-4v-52.3a4 4 0 0 0-4-4zm-59.1 42.5h-15.9v-24.7h15v4h-10v5.6h8.7v4h-8.8v7h11v4.1zm9-5.8c1 1.4 2.4 2 4.2 2a12.9 12.9 0 0 0 2-.1v-9h4.8v12.3a21.8 21.8 0 0 1-7.2 1.1c-1.6 0-3-.2-4.2-.8a8.5 8.5 0 0 1-3.2-2.4c-.8-1-1.5-2.4-2-4s-.7-3.6-.7-5.7a17 17 0 0 1 .8-5.6 12 12 0 0 1 2.3-4 9.2 9.2 0 0 1 3.4-2.5c1.3-.5 2.7-.8 4.2-.8a13.8 13.8 0 0 1 4.5.7l1.4.6.8.5-1.2 4a5 5 0 0 0-2.2-1 8 8 0 0 0-2.6-.5 6 6 0 0 0-3 .6 5.5 5.5 0 0 0-2 1.8 8 8 0 0 0-1.1 2.7 16.6 16.6 0 0 0-.3 3.5c0 3 .4 5.2 1.4 6.6zm50 30.2H123.1a4 4 0 0 0-4 4v52.3a4 4 0 0 0 4 4.1h115a4 4 0 0 0 4-4V223a4 4 0 0 0-4-4.1zm-63.6 43.6c-.3-.9-.7-1.9-1.3-3a34.2 34.2 0 0 0-1.8-3.1 32.4 32.4 0 0 0-4.2-5.2v11.3h-5v-24.7h5V248a61 61 0 0 0 5.3-8l1.2-2.3h5.5a72.2 72.2 0 0 1-5.2 8.4 47.6 47.6 0 0 1-2.4 3 33.3 33.3 0 0 1 2.5 2.7 35.3 35.3 0 0 1 2.4 3.4 38 38 0 0 1 2 3.6 26 26 0 0 1 1.6 3.6h-5.6zm13.5-5.8c.9 1.4 2.3 2 4 2a12.4 12.4 0 0 0 2 0v-9.1h5v12.3a22.4 22.4 0 0 1-7.3 1.2c-1.6 0-3-.3-4.2-.9a8.5 8.5 0 0 1-3.2-2.4 11.5 11.5 0 0 1-2-4 19.8 19.8 0 0 1-.7-5.7c0-2 .2-4 .8-5.5a12.1 12.1 0 0 1 2.3-4 9.2 9.2 0 0 1 3.4-2.6c1.3-.5 2.7-.8 4.2-.8a13.7 13.7 0 0 1 4.5.7l1.4.6.8.5-1.2 4a11 11 0 0 0-2.2-1 8 8 0 0 0-2.6-.5 5.5 5.5 0 0 0-5 2.4c-.5.8-.9 1.7-1 2.7a16.6 16.6 0 0 0-.4 3.5c0 3 .4 5.2 1.4 6.6zm70.1-39.5h31.9c1.9 0 1.9-3 0-3h-31.9c-1.9 0-1.9 3 0 3zm21 51.2h9c4.5 0 4.5-7 0-7h-9c-4.6 0-4.6 7 0 7zm-18.7 15.3h16c4.5 0 4.5-7 0-7h-16c-4.5 0-4.5 7 0 7zm.3-11.3h6c2 0 3.5-1.6 3.5-3.5s-1.6-3.5-3.5-3.5h-6c-1.9 0-3.5 1.6-3.5 3.5s1.6 3.5 3.5 3.5z" fill="#fff"/><path d="M274.3 279.4h2c1.8 0 3.4-1.5 3.4-3.5s-1.5-3.5-3.4-3.5h-2c-2 0-3.6 1.6-3.6 3.5s1.7 3.5 3.6 3.5zm-5.9-23h-6c-1.9 0-3.5 1.6-3.5 3.5s1.6 3.5 3.5 3.5h6c2 0 3.5-1.5 3.5-3.5s-1.6-3.5-3.5-3.5zm-5.6-14.8h-2c-1.9 0-3.5 1.6-3.5 3.5s1.6 3.5 3.5 3.5h2c2 0 3.5-1.6 3.5-3.5s-1.6-3.5-3.5-3.5zm23.7 3h-16c-4.5 0-4.5 7 0 7h16c4.5 0 4.5-7 0-7z" fill="#fff"/><path d="M277.5 252.6h-15.3c-4.5 0-4.5 7 0 7h15.3c4.5 0 4.5-7 0-7zm6.3-13h-6c-1.9 0-3.5 1.6-3.5 3.5s1.6 3.5 3.5 3.5h6c2 0 3.5-1.6 3.5-3.5s-1.6-3.5-3.5-3.5zm-17.3-3h-6c-1.9 0-3.5 1.6-3.5 3.5s1.6 3.5 3.5 3.5h6c1.9 0 3.5-1.6 3.5-3.5s-1.6-3.5-3.5-3.5zm-3.6 48.1h-2c-1.9 0-3.5 1.6-3.5 3.5s1.6 3.5 3.5 3.5h2c2 0 3.5-1.6 3.5-3.5s-1.6-3.5-3.5-3.5zm24.7 0h-16c-4.5 0-4.5 7 0 7h16c4.5 0 4.5-7 0-7zm.9-14.3h-6c-1.9 0-3.5 1.6-3.5 3.5s1.6 3.5 3.5 3.5h6c1.9 0 3.5-1.5 3.5-3.5s-1.6-3.5-3.5-3.5z" fill="#fff"/><path d="M287.8 236.6h-6c-1.9 0-3.5 1.6-3.5 3.5s1.6 3.5 3.5 3.5h6c2 0 3.5-1.6 3.5-3.5s-1.6-3.5-3.5-3.5z" fill="#fff"/><g fill="#fff"><path d="M98.5 273.4h2c1.9 0 3.5-1.5 3.5-3.5s-1.6-3.5-3.5-3.5h-2c-1.9 0-3.5 1.6-3.5 3.5s1.6 3.5 3.5 3.5zm-24.7 6h16c4.6 0 4.6-7 0-7h-16c-4.5 0-4.5 7 0 7z"/><path d="M85.8 268.4h15.3c4.5 0 4.5-7 0-7H85.8c-4.5 0-4.5 7 0 7zm-12.3 23.3h6c1.9 0 3.5-1.6 3.5-3.5s-1.6-3.5-3.5-3.5h-6c-2 0-3.5 1.6-3.5 3.5s1.5 3.5 3.5 3.5zm20.7-6h6c1.9 0 3.5-1.6 3.5-3.5s-1.6-3.5-3.5-3.5h-6c-2 0-3.5 1.6-3.5 3.5s1.6 3.5 3.5 3.5zm-6.1-33h-9c-4.5 0-4.5 7 0 7h9c4.5 0 4.5-7 0-7zm13-16H85c-4.5 0-4.5 7 0 7h16c4.5 0 4.5-7 0-7z"/><path d="M100.4 241.6h-6c-1.9 0-3.5 1.6-3.5 3.5s1.6 3.5 3.5 3.5h6c2 0 3.5-1.6 3.5-3.5s-1.6-3.5-3.5-3.5zM80.7 238h-3.2c-2 0-3.5 1.6-3.5 3.5s1.6 3.5 3.5 3.5h3.2c2 0 3.5-1.5 3.5-3.5s-1.6-3.5-3.5-3.5zm17.6 21.7h2c1.9 0 3.5-1.6 3.5-3.5s-1.6-3.5-3.5-3.5h-2c-2 0-3.5 1.6-3.5 3.5s1.6 3.5 3.5 3.5zm2.2 25.1h-6c-2 0-3.5 1.6-3.5 3.5s1.6 3.5 3.5 3.5h6c1.9 0 3.5-1.6 3.5-3.5s-1.6-3.5-3.5-3.5zm-16-3.5h-2c-1.8 0-3.4 1.6-3.4 3.5s1.6 3.5 3.5 3.5h2c1.9 0 3.5-1.6 3.5-3.5s-1.6-3.5-3.5-3.5zm-12.3-64H104c2 0 2-3 0-3H72.2c-2 0-2 3 0 3z"/><path d="M79.8 244.2h-6c-1.9 0-3.5 1.6-3.5 3.5s1.6 3.5 3.5 3.5h6c2 0 3.5-1.6 3.5-3.5s-1.6-3.5-3.5-3.5zm-1 19.3h-5.5c-1.9 0-3.5 1.5-3.5 3.4s1.6 3.6 3.5 3.6h5.5c2 0 3.5-1.7 3.5-3.6s-1.6-3.4-3.5-3.4z"/></g><path d="M101.4 226.9h-16c-4.5 0-4.5 7 0 7h16c4.5 0 4.5-7 0-7z" fill="#fff"/><path d="M78.8 228.1h-2c-2 0-3.5 1.6-3.5 3.5s1.6 3.5 3.5 3.5h2c1.9 0 3.5-1.6 3.5-3.5s-1.6-3.5-3.5-3.5zm20.3-2.3h2c2 0 3.5-1.6 3.5-3.5s-1.6-3.5-3.5-3.5h-2c-1.9 0-3.5 1.6-3.5 3.5s1.6 3.5 3.5 3.5zm-24.7-1h16c4.5 0 4.5-7 0-7h-16c-4.5 0-4.5 7 0 7zm213.8 4.3h-16c-4.5 0-4.5 7 0 7h16c4.5 0 4.5-7 0-7zm.4-12.3h-6c-2 0-3.5 1.6-3.5 3.5s1.6 3.5 3.5 3.5h6c1.9 0 3.5-1.6 3.5-3.5s-1.6-3.5-3.5-3.5z" fill="#fff"/><path d="M267.9 224.9h-6c-2 0-3.5 1.6-3.5 3.5s1.6 3.5 3.5 3.5h6c1.9 0 3.5-1.6 3.5-3.5s-1.6-3.5-3.5-3.5z" fill="#fff"/><path d="M261.5 225.8h6c2 0 3.5-1.6 3.5-3.5s-1.6-3.5-3.5-3.5h-6c-1.9 0-3.5 1.6-3.5 3.5s1.6 3.5 3.5 3.5zm16 3.6h2c1.8 0 3.4-1.6 3.4-3.5s-1.6-3.5-3.5-3.5h-2c-1.9 0-3.5 1.6-3.5 3.5s1.6 3.5 3.5 3.5z" fill="#fff"/></svg>