<svg xmlns="http://www.w3.org/2000/svg" width="361" height="361"><path d="M268.4 142.4l13.1 98.3 5-5-98.3-13.1 3.6 8.5 85.1-85.2c4.6-4.5-2.5-11.6-7-7a3419053.1 3419053.1 0 0 0-85.2 85.1c-3.4 3.5-.5 8 3.5 8.6l98.3 13.1c2.5.3 5.4-2.5 5-5l-13.1-98.3c-.8-6.3-10.9-6.4-10 0z" fill="#fff"/><path d="M232.7 153.2c-1.1.8-4.4-3-1.8-.3l3.2 3.1 8.5 8.5 2.6 2.7c1.8 1.8.3-4-.3-3.3l-3.8 3.8-30.3 30.3-1.7 1.7c-1.8 1.7.9-1.2 3.3 1.2l-6.8-6.8-3-3c-1.6-1.6.3 3.5 1.1 2.3l3.2-4.3 25.4-34.7 2.2-3c3.8-5.2-4.9-10.2-8.6-5l-21.5 29.3-9.2 12.5c-5 6.7 1.6 11.3 6 15.7 4.5 4.5 9.1 8.7 15 2.8l12-12 16.8-16.8c2.5-2.6 8.3-6.7 9.2-10.4 1.5-6.5-5.7-11.1-9.8-15.2-4.4-4.4-9.8-12.7-16.8-7.8-5.2 3.7-.2 12.4 5.1 8.7zm-53-23c-.6 1-5.2-.4-2 .4l3.4 1 11.4 3 10 2.7 2.8.8c2.5.6-.7-5.8-1.6-3.9l-16 36.2-5 11.4c.5-1 4.8.2 2.8-.4l-1.8-.4-5.1-1.4-5-1.3c-3.5-1 1.2.2 1 1.2l4.2-37.8 1.5-14.1c.7-6.4-9.3-6.3-10 0l-3.9 36.1-1.7 15.5c-.9 8.3 7 9 13 10.5 6 1.6 11.1 3 14.2-4l7-16 9.6-21.7c1.8-4.1 4.4-8.4 4.8-13 .8-7.7-15.1-9.2-20-10.5-6.4-1.7-18.5-7.8-22.3.6-2.7 5.8 6 10.9 8.6 5zm-58.5 4.7c.2 1.2-4.5 2.3-1.4 1.4l3.5-.9 11.4-3 10-2.7 2.8-.8c2.5-.6-3.6-4.6-3.4-2.5l4.3 39.4 1.4 12.3c-.2-1.2 4.1-2.2 2-1.7l-1.7.5-5.1 1.4-5 1.3c-3.6 1 1.2-.4 1.6.5l-15.3-34.8-5.7-13c-2.6-5.9-11.2-.8-8.7 5l14.7 33.4 6.3 14.2c3.3 7.6 10.6 4.1 16.6 2.5 6-1.6 11-3 10.1-10.5l-1.9-17.5-2.5-23.5c-.5-4.5-.5-9.5-2.3-13.6-3.3-7-17.8-.4-22.7 1-6.4 1.6-19.8 2.4-19 11.6.6 6.3 10.6 6.4 10 0zm-41 27.7c.7 1-3 4.4-.3 1.7l3.1-3 8.5-8.6a3191.6 3191.6 0 0 1 2.6-2.6c2-2-4.7-1.5-4-.7l3.1 4.3 25.4 34.7 2.2 3c-.8-1 2.9-4.3.2-1.7l-4.2 4.3-3.6 3.6c-2.8 2.7 1-1.3 2.7.5l-3.5-3.5-30.3-30.3-2.7-2.7c-4.6-4.6-11.7 2.5-7.1 7L98 194.5l10.6 10.5c6.5 6.5 12-.8 16.5-5.3 4.4-4.4 8-8.1 3.6-14.2l-10.5-14.3-13.9-19c-2.7-3.6-5-8-8.8-10.6-5.9-4.2-12.9 5.8-16.3 9.2-4.4 4.4-12.7 9.9-7.8 16.8 3.7 5.2 12.4.2 8.6-5z" fill="#fff"/></svg>