<svg xmlns="http://www.w3.org/2000/svg" width="361" height="361"><g fill="#fff"><path d="M178 79l84 63 2-9h-83c-7 0-7 10 0 10h83c6 0 6-6 3-9l-84-64c-5-4-10 5-5 9z"/><path d="M267 134l-84-64a5 5 0 0 0-5 0l-83 64c-4 3-3 9 3 9h166c6 0 6-10 0-10H98l2 9 83-63h-5l84 63c5 4 10-4 5-8z"/></g><path d="M245 248c0-1 2-1 0-1H116c-2 0 1 1 1 2V142c0-2-2 1-1 1h130c-1 0-2-3-2-1v107c0 7 10 7 10 0V143c0-5-2-10-8-10H119c-4 0-8 0-10 4-2 3-2 6-2 9v86c0 7-3 23 7 25h124c6 0 15 2 16-7 1-6-8-9-9-2zm-125-53h122" fill="#fff"/><path d="M120 197h122c2 0 2-3 0-3H120c-2 0-2 3 0 3z" fill="#fff"/><g fill="#fff"><path d="M174 109a5 5 0 0 0-2-2l-2-1h-1a4 4 0 0 0-1 0v17h1a6 6 0 0 0 3-1 5 5 0 0 0 2-1 8 8 0 0 0 1-3 20 20 0 0 0 0-6 9 9 0 0 0-1-3z"/><path d="M237 125l-54-40a4 4 0 0 0-4 0l-54 40a4 4 0 0 0 2 7h108a4 4 0 0 0 2-7z"/></g><g fill="#fff"><path d="M259 251h31c2 0 2-3 1-3h-32c-2 0-2 3 0 3zm24 31h5c2 0 4-2 4-4s-2-3-4-3h-5c-2 0-3 1-3 3s1 4 3 4zm-26 10h16c4 0 4-7 0-7h-16c-5 0-5 7 0 7z"/><path d="M268 286h6c2 0 4-2 4-4s-2-3-4-3h-6c-2 0-3 1-3 3s1 4 3 4zm19 6h2c2 0 3-2 3-4s-1-3-3-3h-2c-2 0-4 1-4 3s2 4 4 4zm-19-20h-6c-2 0-4 1-4 3s2 4 4 4h6c2 0 3-2 3-4s-1-3-3-3zm-2-14h-2c-2 0-4 1-4 3s2 4 4 4h2c2 0 3-2 3-4s-1-3-3-3z"/><path d="M289 258h-16c-5 0-5 7 0 7h16c4 0 4-7 0-7zm-4 8h-15c-5 0-5 7 0 7h15c4 0 4-7 0-7z"/><path d="M288 252h-6c-2 0-3 2-3 3s1 4 3 4h6c2 0 4-2 4-4s-2-3-4-3zm-14-2h-6c-2 0-4 2-4 3s2 4 4 4h6c2 0 3-2 3-4s-1-3-3-3zm-18 14h-6c-2 0-3 1-3 3s1 4 3 4h6c2 0 4-2 4-4s-2-3-4-3zm32 6h-1c-2 0-3 2-3 3s1 4 3 4h1c2 0 3-2 3-3s-1-4-3-4zM74 283h7c4 0 4-7 0-7h-7c-5 0-5 7 0 7zm26-3h8c5 0 5-7 0-7h-8c-4 0-4 7 0 7zm-3-11h15c5 0 5-7 0-7H97c-5 0-5 7 0 7zm25 23h6c2 0 4-2 4-4s-2-3-4-3h-6c-2 0-3 1-3 3s1 4 3 4zm124-8h-9c-4 0-4 7 0 7h9c5 0 5-7 0-7z"/><path d="M259 268h-16c-4 0-4 7 0 7h16c5 0 5-7 0-7zM80 252h-6c-2 0-3 1-3 3s1 4 3 4h6c2 0 4-2 4-4s-2-3-4-3zm161 9h-4c-2 0-3 1-3 3s1 4 3 4h4c1 0 3-2 3-4s-2-3-3-3zM77 273h2c2 0 3-2 3-3s-1-4-3-4h-2c-2 0-4 2-4 4s2 3 4 3zm17 3h-2c-2 0-4 2-4 4s2 3 4 3h2c2 0 3-1 3-3s-1-4-3-4zm-22-25h29c2 0 2-3 0-3H71c-2 0-2 3 0 3zm124 34h-6c-2 0-3 1-3 3s1 4 3 4h6c2 0 4-2 4-4s-2-3-4-3z"/><path d="M88 264h-6c-2 0-3 1-3 3s1 4 3 4h6c2 0 3-2 3-4s-1-3-3-3zm85 3h9c4 0 4-7 0-7h-9c-5 0-5 7 0 7zm33 25h16c4 0 4-7 0-7h-16c-5 0-5 7 0 7zm15-14h6c2 0 4-2 4-4s-2-3-4-3h-6c-2 0-3 1-3 3s2 4 3 4z"/><path d="M215 288h2c2 0 4-2 4-3s-2-4-4-4h-2c-2 0-3 2-3 4s1 3 3 3zm-1-23h-6c-2 0-4 1-4 3s2 4 4 4h6c2 0 3-2 3-4s-1-3-3-3z"/><path d="M223 261h-15c-5 0-5 7 0 7h15c4 0 4-7 0-7zm11 18h-6c-2 0-4 1-4 3s2 4 4 4h6c2 0 3-2 3-4s-1-3-3-3zm-98-7h-9c-5 0-5 7 0 7h9c4 0 4-7 0-7zm17-11h-16c-5 0-5 7 0 7h16c4 0 4-7 0-7zm-1 11h-6c-1 0-3 1-3 3s2 4 3 4h6c2 0 4-2 4-4s-2-3-4-3z"/><path d="M139 266h-2c-2 0-3 1-3 3s1 4 3 4h2c2 0 4-2 4-4s-2-3-4-3zm6 26h6c2 0 3-2 3-4s-1-3-3-3h-6c-2 0-4 1-4 3s2 4 4 4zm-59 0h15c5 0 5-7 0-7H86c-5 0-5 7 0 7zm39-20h6c1 0 3-2 3-4s-2-3-3-3h-6c-2 0-4 1-4 3s2 4 4 4zm53 5h9c5 0 5-7 0-7h-9c-4 0-4 7 0 7zm-18 15h16c4 0 4-7 0-7h-16c-5 0-5 7 0 7zm-5-8h6c2 0 3-2 3-4s-1-3-3-3h-6c-2 0-4 1-4 3s2 4 4 4z"/><path d="M173 288h2c2 0 4-2 4-4s-2-3-4-3h-2c-2 0-3 1-3 3s1 4 3 4zm-5-23h-12c-4 0-4 7 0 7h12c4 0 4-7 0-7zm43 3h-12c-5 0-5 7 0 7h12c4 0 4-7 0-7zm-19 11h-6c-2 0-3 1-3 3s1 4 3 4h6c2 0 4-2 4-4s-2-3-4-3zm-45 1h16c4 0 4-7 0-7h-16c-5 0-5 7 0 7zm-29-5h-9c-4 0-4 7 0 7h9c5 0 5-7 0-7zm6-15h-4c-2 1-3 2-3 4s1 4 3 4h4c2 0 3-2 3-4s-2-3-3-3zm-24 5h-6c-2 0-4 2-4 4s2 3 4 3h6c1 0 3-1 3-3s-2-4-3-4zm-13 16h-5c-2 0-4 2-4 4s2 3 4 3h5c2 0 4-2 4-3s-2-4-4-4z"/><path d="M189 271h16c4 0 4-7 0-7h-16c-4 0-4 7 0 7zm-46 11h-2c-2 0-3 1-3 3s1 4 3 4h2c2 0 4-2 4-4s-2-3-4-3zm4-10h-2c-2 0-4 1-4 3s2 4 4 4h2c2 0 3-2 3-4s-1-3-3-3zm-42 20h6c2 0 3-2 3-4s-1-3-3-3h-6c-2 0-3 1-3 3s1 4 3 4zm-32-1h2c2 0 4-2 4-4s-2-3-4-3h-2c-2 0-3 1-3 3s1 4 3 4zm20-9h2c2 0 3-2 3-4s-1-3-3-3h-2c-2 0-4 1-4 3s2 4 4 4z"/><path d="M104 273h-6c-2 0-3 1-3 3s1 4 3 4h6c2 0 3-2 3-4s-1-3-3-3zm147 10h2c2 0 3-1 3-3s-1-4-3-4h-2c-2 0-4 2-4 4s2 3 4 3zm-39-10h-12c-4 0-4 7 0 7h12c4 0 4-7 0-7zM83 260H73c-4 0-4 7 0 7h10c5 0 5-7 0-7zm57 21h-11c-4 0-4 7 0 7h12c4 0 4-7 0-7zm-41-31H89c-5 0-5 7 0 7h10c4 0 4-7 0-7z"/><path d="M95 263h2c2 0 4-2 4-4s-2-3-4-3h-2c-1 0-3 1-3 3s2 4 3 4zm165-8h-2c-2 0-3 1-3 3s1 4 3 4h2c2 0 4-2 4-4s-2-3-4-3z"/></g></svg>