<svg xmlns="http://www.w3.org/2000/svg" width="361" height="361"><path d="M115 167c-2-1 0-11 0-12v-41h52v51c0 1 1 2-1 2h-51c-2 0-2 3 0 3h52c4 0 3-3 3-6v-43c0-4 2-9-2-10h-53c-4 0-3 3-3 5v48c0 2-1 5 2 6 2 1 3-2 1-3z" fill="#fff"/><path d="M81 287a6 6 0 0 1-6-6V81a6 6 0 0 1 6-6h199a6 6 0 0 1 6 6v200a6 6 0 0 1-6 6H81z" fill="none" stroke="#fff" stroke-width="10" stroke-miterlimit="10"/><path d="M194 167v-53h53v51l-1 2h-52c-2 0-2 3 0 3h52c4 0 4-3 4-6v-43c0-4 1-9-3-10h-53c-3 0-3 3-3 5v48c0 2-1 5 3 6 1 1 2-2 0-3zm-79 80c-2-1 0-11 0-12v-41h53v51l-1 2h-52c-2 0-2 3 0 3h52c4 0 3-4 3-6v-43c0-4 2-9-2-10h-53c-4 0-3 3-3 5v48c0 2-1 5 2 6 2 1 3-2 1-3zm78 0v-53h53v51l-1 2h-52c-2 0-2 3 0 3h52c4 0 4-4 4-6v-43c0-4 1-9-3-10h-53c-3 0-3 3-3 5v48c0 2-1 5 2 6 2 1 3-2 1-3z" fill="#fff"/></svg>