<svg xmlns="http://www.w3.org/2000/svg" width="361" height="361"><path d="M115 167.2c-1.6-.7-.5-10.9-.5-12.5v-40.2c0-1.5 7.8-.7 9-.7h42c.6 0 1.9-.4 1.9.5V165c0 1.3.4 2-1 2h-51.8c-2 0-2 3 0 3h52.1c4 0 3.7-3.5 3.7-6.3v-43c0-3.6 1.2-8.4-2.7-10-.8-.3-2.3 0-3.1 0h-50c-3.3 0-3.1 3.5-3.1 5.8v47.2c0 2.8-.4 5 2.7 6.2 1.8.8 2.5-2.1.8-2.9z" fill="#fff"/><path d="M81 286.8a6 6 0 0 1-6-6V80.7a6 6 0 0 1 6-6h198.8a6 6 0 0 1 6 6V281a6 6 0 0 1-6 6H81z" fill="none" stroke="#fff" stroke-width="10" stroke-miterlimit="10"/><path d="M194.3 167.2c-1.6-.7-.5-10.9-.5-12.5v-40.2c0-1.5 7.8-.7 9-.7h42c.6 0 1.9-.4 1.9.5V165c0 1.3.4 2-1 2H194c-2 0-2 3 0 3h52c4 0 3.7-3.5 3.7-6.3v-43c0-3.6 1.2-8.4-2.7-10-.8-.3-2.3 0-3.1 0h-50c-3.4 0-3.1 3.5-3.1 5.8v47.2c0 2.8-.4 5 2.7 6.2 1.7.8 2.5-2.1.8-2.9zM115 247c-1.6-.7-.5-10.9-.5-12.5v-40.2c0-1.5 7.8-.7 9.1-.7h41.9c.6 0 2-.4 2 .4v51c0 1.2.3 1.9-1 1.9h-51.9c-2 0-2 3 0 3h52.1c4 0 3.7-3.5 3.7-6.3v-43c0-3.6 1.2-8.4-2.7-10-.8-.3-2.2 0-3 0h-50.1c-3.3 0-3 3.5-3 5.8v47.2c0 2.8-.4 5 2.6 6.2 1.8.8 2.6-2.1.8-2.9zm78.2 0c-1.5-.7-.5-10.9-.5-12.5v-40.2c0-1.5 7.9-.7 9.1-.7h42c.6 0 1.9-.4 1.9.4v51c0 1.2.4 1.9-1 1.9h-51.9c-2 0-2 3 0 3H245c3.9 0 3.7-3.5 3.7-6.3v-43c0-3.6 1.1-8.4-2.7-10-.9-.3-2.3 0-3.1 0h-50c-3.4 0-3.2 3.5-3.2 5.8v47.2c0 2.8-.3 5 2.7 6.2 1.8.8 2.6-2.1.8-2.9z" fill="#fff"/></svg>