<svg xmlns="http://www.w3.org/2000/svg" width="361" height="361"><path d="M177.5 209.8v31.3c0 4.6 7 4.6 7 0v-31.3c0-4.5-7-4.5-7 0zm3.6-53.2l-.3-81 106.8 81z" fill="#fff"/><path d="M186 156.6l-.2-81-7.5 4.3 106.8 81 2.5-9.3H181.1c-6.5 0-6.5 10 0 10h106.5c5.4 0 6.3-6.5 2.6-9.3l-106.8-81c-3.2-2.4-7.6.8-7.6 4.3l.3 81c0 6.4 10 6.4 10 0z" fill="#fff"/><g fill="#fff"><path d="M180.6 156.6l.2-81-106.8 81z"/><path d="M185.6 156.6l.2-81c0-3.5-4.4-6.7-7.5-4.3l-106.8 81c-3.7 2.8-2.9 9.3 2.5 9.3h106.6c6.5 0 6.5-10 0-10H74l2.6 9.3 106.7-81-7.5-4.3-.2 81c0 6.4 10 6.4 10 0z"/></g><path d="M268.8 280c0 4-3.9 7-8.7 7H102.3c-4.9 0-8.8-3-8.8-7V150.6c0-4 175.3-4 175.3 0V280z" fill="none" stroke="#fff" stroke-width="10" stroke-miterlimit="10"/><path d="M214 248.6c-.5 8.9-8.3 9-14.9 9h-41c-6.9 0-10.3-4.6-10.3-11v-41.7c0-6.1.8-13.6 9-13.6h43.6c2.6 0 5.2-.1 7.7.5 4.8 1.4 6 6.2 6 10.5v46.3c0 4.5 7 4.5 7 0v-37c0-4.4.4-9.2-.3-13.6a16.3 16.3 0 0 0-16.6-13.7h-40.8c-5.6 0-10.8-.3-15.8 3-5.8 3.7-6.8 10.1-6.8 16.5V242c0 4.3-.3 8.6 1.3 12.7 2.5 6.4 8.9 9.8 15.6 9.8H205c9 0 15.5-7.2 16-15.9.2-4.5-6.8-4.5-7 0z" fill="#fff"/></svg>