<svg xmlns="http://www.w3.org/2000/svg" width="361" height="361"><path d="M245.1 228.3c0 8.2.3 15.7-4 23a26.6 26.6 0 0 1-22.8 12.5H108.5c-15.5 0-28.7-10.6-28.7-26.9V127.1c0-15.4 10.5-28.7 26.8-28.7h109.8c15.5 0 28.4 10.4 28.7 26.6.2 6.4 10.2 6.4 10 0A37 37 0 0 0 218 88.4H108c-18.1 0-34 11.6-37.6 29.7-1.7 8.5-.6 18-.6 26.5v94c.2 11 6.2 21.8 15.1 28.2 10 7.2 21 7 32.6 7h88c8.8 0 18 .7 26.3-2.6a36.6 36.6 0 0 0 20.8-20.7c2.8-7.2 2.5-14.6 2.5-22.2 0-6.5-10-6.5-10 0z" fill="#fff"/><path d="M220 230.8l34.4-45.1h-8.6l34.5 45 4.3-7.4h-69c-6.4 0-6.4 10 0 10h69c3.4 0 6.7-4.4 4.3-7.6l-34.5-45c-2.4-3.3-6.2-3.3-8.6 0l-34.5 45c-4 5.2 4.8 10.1 8.6 5zm-62.6-110.2v121c0 6.4 10 6.4 10 0v-121c0-6.5-10-6.5-10 0z" fill="#fff"/></svg>