<svg xmlns="http://www.w3.org/2000/svg" width="361" height="361"><path d="M285 125.5c-.5 9-9.1 8-15.5 8h-23.2c-5.4 0-13 1.4-16.6-3.6-2.7-3.8-1.3-11.8-1.3-16.1v-23c0-6-.3-14 8-14h37.8c5.3 0 10.8 1.6 10.8 8.1v40.6c0 4.5 7 4.5 7 0V88.8c0-6.8-1-12.4-7-16.7-4.4-3.2-11.1-2.3-16.2-2.3h-23.4c-5.4 0-10.8-.5-15.9 1.7-6.8 2.9-8.2 10.2-8.2 16.7V110c0 7.2-1.2 15.6 1.7 22.3 3.7 8.9 13.8 8.2 21.6 8.2h28.5c3 0 5.8 0 8.8-.8 6.2-1.9 9.8-8 10.1-14.2.3-4.5-6.7-4.5-7 0z" fill="#fff"/><path d="M253.4 86.6v37.1c0 4.5 7 4.5 7 0v-37c0-4.6-7-4.6-7 0zM75 156.2l-.3-81 106.8 81z" fill="#fff"/><path d="M80 156.2l-.2-81-7.5 4.3 106.8 81 2.5-9.3H75.1c-6.5 0-6.5 10 0 10h106.5c5.4 0 6.3-6.5 2.6-9.4l-106.8-81c-3.2-2.3-7.6 1-7.6 4.4l.3 81c0 6.4 10 6.4 10 0z" fill="#fff"/><path d="M162.8 281.5c0 3.2-4.7 5.8-10.5 5.8H85.4c-5.8 0-10.6-2.6-10.6-5.8V159c0-3.2 4.8-5.8 10.6-5.8h66.9c5.8 0 10.5 2.6 10.5 5.8v122.5z" fill="none" stroke="#fff" stroke-width="10" stroke-miterlimit="10"/><path d="M127.8 281c0 3.1-2.6 5.7-6 5.7H98.3c-3.3 0-6-2.6-6-5.7v-68.2c0-3 2.7-5.6 6-5.6h23.5c3.4 0 6 2.5 6 5.7v68z" fill="none" stroke="#fff" stroke-width="10" stroke-miterlimit="10"/><g fill="#fff"><path d="M186.2 233.2v54.1c0 4.5 7 4.5 7 0v-54.1c0-4.5-7-4.5-7 0zm11.4 0v54.2c0 4.5 7 4.5 7 0v-54.2c0-4.5-7-4.5-7 0zm11.3 0v54.2c0 4.5 7 4.5 7 0v-54.2c0-4.5-7-4.5-7 0zm11.4 0v54.2c0 4.5 7 4.5 7 0v-54.2c0-4.5-7-4.5-7 0zm11.3 0v54.1c0 4.5 7 4.5 7 0v-54.1c0-4.5-7-4.5-7 0zm11.4 0v54.2c0 4.5 7 4.5 7 0v-54.2c0-4.5-7-4.5-7 0zm11.3 0v54.2c0 4.5 7 4.5 7 0v-54.2c0-4.5-7-4.5-7 0zm11.4 0v54.2c0 4.5 7 4.5 7 0v-54.2c0-4.5-7-4.5-7 0zm11.3 0v54.1c0 4.5 7 4.5 7 0v-54.1c0-4.5-7-4.5-7 0z"/><path d="M185.3 247.2H287c4.6 0 4.6-7 0-7H185.3c-4.5 0-4.5 7 0 7zM185 280h102.2c4.5 0 4.5-7 0-7H185c-4.5 0-4.5 7 0 7z"/></g></svg>