<svg xmlns="http://www.w3.org/2000/svg" width="361" height="361"><path d="M129 175c-4 1-10 2-10 7v9c0 7-2 16 8 16h105c7 0 11-2 11-9v-11l-1-8c-2-4-9-4-13-4H129c-6 0-6 10 0 10h104c4 0 0 0 0-3v18c0-2 4-3 0-3H129c-4 0 0 0 0 3v-18c0 3-4 4 0 3 7 0 7-10 0-10z" fill="#fff"/><path d="M266 177L185 72c-2-3-6-3-9 0L97 177c-2 3 1 8 5 8h160c7 0 7-10 0-10H101l4 7 80-105h-9l81 105c4 5 12 0 9-5zm-137 41c-4 0-10 1-10 7v9c0 7-2 16 8 16h105c7 0 11-2 11-9v-11l-1-8c-2-4-9-4-13-4H129c-6 0-6 10 0 10h104c3 0 0 0 0-3v18c0-2 4-3 0-3H129c-4 0 0 0 0 3v-18c0 3-4 3 0 3 6 0 7-10 0-10zm0 42c-4 0-10 1-10 7v8c0 8-2 16 8 17h105c7 0 11-3 11-10v-10l-1-9c-2-4-9-3-13-3H129c-6 0-6 10 0 10h104c3 0 0 0 0-3v18c0-3 4-3 0-3H129c-4 0 0 0 0 3v-18c0 3-4 3 0 3 6 0 7-10 0-10z" fill="#fff"/></svg>