<svg xmlns="http://www.w3.org/2000/svg" width="361" height="361"><g fill="#fff"><path d="M178 80l90 69 3-9h-90c-7 0-7 10 0 10h90c5 0 6-7 2-10l-90-68c-5-4-10 4-5 8z"/><path d="M273 140l-90-68a5 5 0 0 0-5 0l-90 68c-3 3-3 10 3 10h180c6 0 6-10 0-10H91l2 9 90-69h-5l90 69c5 4 10-5 5-9z"/></g><path d="M245 282c0-1 3-1 0-1H116c-2 0 1 1 1 2V150c0-3 0 0-2 0h131c1 0-2-3-2-1v134c0 6 10 6 10 0V148c0-10-13-8-20-8H116c-10 0-9 9-9 16v130c1 5 7 5 11 5h120c6 0 15 1 16-7 1-6-8-9-10-2zm-125-66h122" fill="#fff"/><path d="M120 217h122c2 0 2-3 0-3H120c-2 0-2 3 0 3z" fill="#fff"/><g fill="#fff"><path d="M174 114a5 5 0 0 0-2-2l-2-1h-1a4 4 0 0 0-1 0v17h1a5 5 0 0 0 5-3 8 8 0 0 0 1-2 20 20 0 0 0 0-7 9 9 0 0 0-1-2z"/><path d="M242 131l-59-44a4 4 0 0 0-5 0l-58 44a4 4 0 0 0 2 6h117a4 4 0 1 0 3-6zm-63-6a10 10 0 0 1-2 4 9 9 0 0 1-4 2l-5 1a24 24 0 0 1-5-1v-24a25 25 0 0 1 6 0h4c2 0 3 2 4 3a11 11 0 0 1 2 4l1 5a17 17 0 0 1-1 6zm9 1l5 2a13 13 0 0 0 2 0v-9h4v12a23 23 0 0 1-7 1l-4-1a8 8 0 0 1-3-2l-2-4-1-6 1-5a10 10 0 0 1 10-8 14 14 0 0 1 4 1l2 1h1l-2 4-2-1a8 8 0 0 0-3 0 7 7 0 0 0-3 0l-2 2-1 3a17 17 0 0 0 0 3l1 7z"/></g><path d="M238 152H123a4 4 0 0 0-4 4v52a4 4 0 0 0 4 4h115a4 4 0 0 0 4-4v-52a4 4 0 0 0-4-4zm-59 43h-16v-25h15v4h-10v5h9v4h-9v7h11v5zm9-6l5 2a13 13 0 0 0 2 0v-9h4v12a22 22 0 0 1-7 1l-4-1a9 9 0 0 1-3-2l-2-4-1-6a17 17 0 0 1 1-6 12 12 0 0 1 2-3 9 9 0 0 1 4-3l4-1a14 14 0 0 1 4 1h2v1l-1 4a5 5 0 0 0-2-1 8 8 0 0 0-3-1 6 6 0 0 0-3 1 6 6 0 0 0-2 2 8 8 0 0 0-1 3 17 17 0 0 0 0 3l1 7zm50 30H123a4 4 0 0 0-4 4v52a4 4 0 0 0 4 4h115a4 4 0 0 0 4-4v-52a4 4 0 0 0-4-4zm-63 43l-2-2a34 34 0 0 0-1-4 32 32 0 0 0-5-5v11h-5v-24h5v10a61 61 0 0 0 6-8l1-2h5a72 72 0 0 1-5 8 48 48 0 0 1-2 3 33 33 0 0 1 2 3 35 35 0 0 1 3 3 38 38 0 0 1 2 4 26 26 0 0 1 1 3h-5zm13-5l4 2a12 12 0 0 0 2 0v-9h5v12a22 22 0 0 1-7 1l-4-1a9 9 0 0 1-3-2 12 12 0 0 1-2-4 20 20 0 0 1-1-6l1-5a12 12 0 0 1 2-4 9 9 0 0 1 3-3l5-1a14 14 0 0 1 4 1l1 1h1l-1 4a11 11 0 0 0-2-1 8 8 0 0 0-3 0 6 6 0 0 0-5 2l-1 3a17 17 0 0 0 0 3l1 7zm70-40h32c2 0 2-3 0-3h-32c-2 0-2 3 0 3zm21 51h9c5 0 5-7 0-7h-9c-4 0-4 7 0 7zm-18 16h16c4 0 4-7 0-7h-16c-5 0-5 7 0 7zm0-12h6c2 0 3-1 3-3s-1-4-3-4h-6c-2 0-4 2-4 4s2 3 4 3z" fill="#fff"/><path d="M274 279h2c2 0 4-1 4-3s-2-4-4-4h-2c-2 0-3 2-3 4s1 3 3 3zm-6-23h-6c-1 0-3 2-3 4s2 3 3 3h6c2 0 4-1 4-3s-2-4-4-4zm-5-14h-2c-2 0-4 1-4 3s2 4 4 4h2c2 0 3-2 3-4s-1-3-3-3zm24 3h-16c-5 0-5 7 0 7h16c4 0 4-7 0-7z" fill="#fff"/><path d="M278 253h-16c-4 0-4 7 0 7h15c5 0 5-7 1-7zm6-13h-6c-2 0-4 1-4 3s2 4 4 4h6c2 0 3-2 3-4s-1-3-3-3zm-17-3h-6c-2 0-4 1-4 3s2 4 4 4h6c1 0 3-2 3-4s-2-3-3-3zm-4 48h-2c-2 0-4 1-4 3s2 4 4 4h2c2 0 3-2 3-4s-1-3-3-3zm25 0h-16c-5 0-5 7 0 7h16c4 0 4-7 0-7zm0-15h-6c-1 0-3 2-3 4s2 3 3 3h6c2 0 4-1 4-3s-2-4-4-4z" fill="#fff"/><path d="M288 237h-6c-2 0-4 1-4 3s2 4 4 4h6c2 0 3-2 3-4s-1-3-3-3z" fill="#fff"/><g fill="#fff"><path d="M99 273h2c1 0 3-1 3-3s-2-4-3-4h-2c-2 0-4 2-4 4s2 3 4 3zm-25 6h16c4 0 4-7 0-7H74c-5 0-5 7 0 7z"/><path d="M86 268h15c5 0 5-7 0-7H86c-5 0-5 7 0 7zm-13 24h7c1 0 3-2 3-4s-2-3-3-3h-6c-2 0-4 1-4 3s2 4 4 4zm21-6h6c2 0 4-2 4-4s-2-3-4-3h-6c-2 0-3 1-3 3s1 4 3 4zm-6-33h-9c-4 0-4 7 0 7h9c5 0 5-7 0-7zm13-16H85c-4 0-4 7 0 7h16c5 0 5-7 0-7z"/><path d="M100 242h-6c-1 0-3 1-3 3s2 4 3 4h6c2 0 4-2 4-4s-2-3-4-3zm-19-4h-3c-2 0-4 2-4 4s2 3 4 3h3c2 0 3-1 3-3s-1-4-3-4zm17 22h2c2 0 4-2 4-4s-2-3-4-3h-2c-2 0-3 1-3 3s1 4 3 4zm3 25h-6c-2 0-4 1-4 3s2 4 4 4h6c1 0 3-2 3-4s-2-3-3-3zm-16-4h-2c-2 0-4 2-4 4s2 3 4 3h2c2 0 3-1 3-3s-1-4-3-4zm-13-64h32c2 0 2-3 0-3H72c-2 0-2 3 0 3z"/><path d="M80 244h-6c-2 0-4 2-4 4s2 3 4 3h6c2 0 3-1 3-3s-1-4-3-4zm-1 19h-6c-2 1-3 2-3 4s1 3 3 3h6c2 1 3-1 3-3s-1-4-3-4z"/></g><path d="M101 227H85c-4 0-4 7 0 7h16c5 0 5-7 0-7z" fill="#fff"/><path d="M79 228h-2c-2 0-4 2-4 4s2 3 4 3h2c2 0 3-2 3-3s-1-4-3-4zm20-2h2c2 0 4-2 4-4s-2-3-4-3h-2c-2 0-3 1-3 3s1 4 3 4zm-25-1h16c5 0 5-7 0-7H74c-4 0-4 7 0 7zm214 4h-16c-4 0-4 7 0 7h16c5 0 5-7 0-7zm1-12h-6c-2 0-4 1-4 3s2 4 4 4h6c1 0 3-2 3-4s-2-3-3-3z" fill="#fff"/><path d="M268 225h-6c-2 0-4 2-4 3s2 4 4 4h6c2 0 3-2 3-4s-1-3-3-3z" fill="#fff"/><path d="M262 226h6c2 0 3-2 3-4s-2-3-3-3h-6c-2 0-4 1-4 3s2 4 4 4zm16 3h2c1 0 3-1 3-3s-2-4-4-4h-2c-2 0-3 2-3 4s1 3 3 3z" fill="#fff"/></svg>