<svg xmlns="http://www.w3.org/2000/svg" width="361" height="361"><path d="M83 142l-13 99c-1 2 2 5 5 5l98-13c4-1 7-6 4-9l-86-85c-4-5-11 3-7 7l85 85 4-8-98 13 5 5 13-99c1-6-9-6-10 1z" fill="#fff"/><path d="M134 145c-7-5-13 3-17 7s-14 11-9 17l9 10 17 16 11 12c6 6 11 1 16-4 4-4 10-8 5-15l-10-13-21-29c-3-5-12 0-8 5l21 30 9 12c1 2 3-3 2-2l-3 3-7 7c-1 1 5 0 3-1l-1-2-6-6-17-17-11-11c-2-1-3 5-1 3l2-2 9-8 3-4 1-1c2-1-1 2-2 1 5 4 10-5 5-8zm56-20c-3-7-11-4-17-2l-19 5c-7 2-6 8-4 13l8 18 9 21c2 4 3 10 8 11s12-2 17-4c6-1 4-9 4-14l-5-45c-1-7-11-7-10 0l4 36 2 15c0 2 3-2 2-1l-4 1-9 2c3 0 3 2 2-1l-4-8-9-22-7-15c-1-3 1 2-3 3h2l10-3 12-3 4-1c4-1-1 0-1-1 2 6 11 1 8-5zm60 10c1-8-8-9-13-10l-20-6c-7-1-9 4-10 9l-2 20-3 23c0 4-2 11 2 14s11 3 16 5c7 1 9-6 11-10l18-43c3-5-6-11-8-5l-15 34-6 14h3l-4-1-10-3c3 1 2 3 3 0l1-9 2-23 2-17c0-3 0 3-4 2h2l10 3 11 3 5 1c4 1-1 0-1-1-1 6 9 6 10 0zm40 33c5-7-4-13-8-17-3-4-10-14-16-9-4 2-6 7-9 10l-14 19-10 15c-5 6-1 9 3 14 5 4 10 12 17 5l10-11 26-25c5-5-3-12-7-7l-26 25-11 11c1 0 6 2 3 0l-3-3-4-4-1-2c-2-2 1 1 0 3l22-30 9-13c1-1-6-1-4 1l2 2 9 9 3 3 1 1c2 2-2-1-1-2-4 5 5 10 9 5z" fill="#fff"/></svg>