<svg xmlns="http://www.w3.org/2000/svg" width="361" height="361"><path d="M77 124.7l64.1-43c5.4-3.5.4-12.2-5-8.6l-64.2 43c-5.3 3.5-.3 12.2 5 8.6z" fill="#fff"/><path d="M276.7 279c0-.4.5-.3-.6-.3H85.8c-1.7 0-1.1.5-1.1-.6V117.4l-2.5 4.4 59.8-40-3.8.4 135.4 41c.9.3 3.1.6 3.1 1.2v154.5c0 6.5 10 6.5 10 0V132.3c0-8 1-15.3-8.6-18.2l-22.6-6.8-88.7-26.8-25.1-7.6c-2.7-.9-4.6.1-6.8 1.6L120.7 84 83 109.2c-2.7 1.8-8.3 4.3-8.3 8.2v159c0 3.9.4 7.6 3.7 10.2 2.6 2 5.4 2.1 8.5 2.1h187.3c6.5 0 11.6-2.5 12.5-9.7.9-6.4-9.1-6.3-10 0zM90.6 210h180.2" fill="#fff"/><path d="M90.6 211.4h180.2c2 0 2-3 0-3H90.6c-2 0-2 3 0 3zm0-68.7h180.2m-180.2 1.6h180.2c2 0 2-3 0-3H90.6c-2 0-2 3 0 3zM137.8 82L278 123.7l7.3 2.1c6.2 1.9 8.8-7.8 2.6-9.6L147.8 74.5l-7.3-2.1c-6.2-1.9-8.8 7.8-2.7 9.6z" fill="#fff"/><g fill="#fff"><path d="M151.1 111.6a5.6 5.6 0 0 0-1.9-2.1c-.7-.6-1.8-.8-3-.8h-.8a4.3 4.3 0 0 0-.9.1v19h1.1c1.2 0 2.3-.2 3.2-.7a5.8 5.8 0 0 0 2-2c.6-.9 1-1.9 1.2-3a22 22 0 0 0 0-7.4 10 10 0 0 0-.9-3.1z"/><path d="M266.7 125.7L144 89.5c-1.7-.5-4-.2-4.7.3l-45 29.8c-4.8 3.2-4.8 3.4-4.8 6v6.8a4.8 4.8 0 0 0 4.8 4.8h172a4.8 4.8 0 0 0 4.9-4.7l.2-2c0-2.6-1.4-3.5-4.8-4.8zm-109.6-.8a11.9 11.9 0 0 1-2.8 4.5 10.4 10.4 0 0 1-4 2.5c-1.7.5-3.4.8-5.3.8a26.7 26.7 0 0 1-3-.1 29 29 0 0 1-3-.6v-27.5a28 28 0 0 1 3.5-.6 39.2 39.2 0 0 1 3.2-.1c1.8 0 3.5.3 5 .8a9.5 9.5 0 0 1 4 2.6 12.2 12.2 0 0 1 2.5 4.5c.6 1.8.9 4 .9 6.5a22 22 0 0 1-1 6.7zm10.7.8a5.3 5.3 0 0 0 4.7 2.4 14.1 14.1 0 0 0 2.2-.2v-10.3h5.6v14a25.6 25.6 0 0 1-8.3 1.3 11.7 11.7 0 0 1-4.7-.9c-1.4-.6-2.6-1.6-3.6-2.8s-1.8-2.7-2.4-4.6a22.6 22.6 0 0 1-.8-6.4c0-2.4.3-4.5 1-6.4.6-1.8 1.5-3.3 2.6-4.6a10.5 10.5 0 0 1 3.9-2.8c1.4-.6 3-1 4.7-1a15.6 15.6 0 0 1 5.2.9c.7.2 1.2.4 1.6.7l1 .5-1.5 4.5c-.7-.4-1.5-.8-2.5-1.1a9.2 9.2 0 0 0-3-.5 7 7 0 0 0-3.4.7 6.3 6.3 0 0 0-2.2 2c-.6.9-1 2-1.3 3.1a19 19 0 0 0-.4 4c0 3.4.6 5.9 1.6 7.5z"/></g></svg>