<svg xmlns="http://www.w3.org/2000/svg" width="361" height="361"><path d="M129.1 176.1c-4-.2-.3.3-.3 3.1V161c0 2.8-3.6 3.3.3 3.1h103.5c3.9 0 .3 0 .3-3v18.1c0-3.3 3.6-3-.4-3H129c-6.4 0-6.4 10 0 10h103c2.8 0 5.6-.4 8-1.9 3-1.8 2.8-5.3 2.8-8.3v-11c0-2.8.4-6-1.8-8.3-3-3-8.2-2.6-12.3-2.6h-97.6c-4.8 0-12.4.4-12.4 6.7V179c0 5.8 5.6 7 10.3 7.2 6.5.4 6.4-9.6 0-10z" fill="#fff"/><path d="M256.8 179.3l-80.3 105h8.7l-80.3-105-4.3 7.5H261c6.5 0 6.5-10 0-10H100.6c-3.5 0-6.7 4.4-4.4 7.6l80.3 105c2.5 3.2 6.2 3.2 8.7 0l80.3-105c3.9-5.2-4.8-10.1-8.7-5zm-127.7-46c-4-.3-.3.2-.3 3v-18.2c0 2.8-3.6 3.3.3 3.1h103.5c3.9 0 .3 0 .3-3v18.1c0-3.3 3.6-3-.4-3H129c-6.4 0-6.4 10 0 10h103c2.8 0 5.6-.4 8-1.9 3-1.8 2.8-5.3 2.8-8.3v-11c0-2.8.4-6-1.8-8.3-3-3-8.2-2.6-12.3-2.6h-97.6c-4.8 0-12.4.4-12.4 6.7V136c0 5.8 5.6 7 10.3 7.2 6.5.4 6.4-9.6 0-10zm0-41.8c-3.9-.2-.3.3-.3 3.1V76.4c0 2.8-3.6 3.3.3 3.1h103.5c3.9 0 .3 0 .3-3.1v18.2c0-3.3 3.6-3-.4-3H129c-6.4 0-6.4 10 0 10h103a14 14 0 0 0 8-2c3-1.7 2.8-5.2 2.8-8.2v-11c0-2.8.4-6.1-1.8-8.3-3-3.1-8.2-2.6-12.3-2.6H131c-4.7 0-12.3.4-12.3 6.7v18.1c0 5.8 5.6 7 10.3 7.2 6.5.3 6.4-9.7 0-10z" fill="#fff"/></svg>