<svg xmlns="http://www.w3.org/2000/svg" width="361" height="361"><g fill="#fff"><path d="M178 80l84 63 2-9h-83c-7 0-7 10 0 10h83c6 0 6-6 3-9l-84-64c-5-4-10 5-5 9z"/><path d="M266 135l-83-64a5 5 0 0 0-5 0l-83 64c-4 2-3 9 3 9h166c6 0 6-10 0-10H98l2 9 83-63h-5l83 63c5 4 10-4 5-8z"/></g><path d="M245 282c0-1 3-1 0-1H116c-2 0 1 1 1 2V143c0-2-3 1-2 1h131s-2-3-2-1v140c0 6 10 6 10 0V144c0-10-8-10-15-10H119c-4 0-8 0-10 3s-2 6-2 9v123c0 7-2 20 7 22h129c5 0 10 0 11-7 1-6-8-9-10-2zm-125-93h122" fill="#fff"/><path d="M120 191h122c2 0 2-3 0-3H120c-2 0-2 3 0 3zm0 45h122m-122 1h122c2 0 2-3 0-3H120c-2 0-2 3 0 3zm118 2H123a4 4 0 0 0-4 4v32a4 4 0 0 0 4 4h115a4 4 0 0 0 4-4v-32a4 4 0 0 0-4-4z" fill="#fff"/><g fill="#fff"><path d="M258 237h32c2 0 2-3 0-3h-32c-2 0-2 3 0 3zm21 31h9c5 0 5-7 0-7h-9c-4 0-4 7 0 7zm-18 16h16c4 0 4-7 0-7h-16c-5 0-5 7 0 7zm0-11h6c2 0 3-2 3-4s-1-3-3-3h-6c-2 0-4 1-4 3s2 4 4 4z"/><path d="M274 279h2c2 0 4-1 4-3s-2-4-4-4h-2c-2 0-3 2-3 4s1 3 3 3zm-6-23h-6c-1 0-3 2-3 4s2 3 3 3h6c2 0 4-1 4-3s-2-4-4-4zm-5-14h-2c-2 0-4 1-4 3s2 4 4 4h2c2 0 3-2 3-4s-1-3-3-3zm24 3h-16c-5 0-5 7 0 7h16c4 0 4-7 0-7z"/><path d="M278 253h-16c-4 0-4 7 0 7h15c5 0 5-7 1-7zm6-13h-6c-2 0-4 1-4 3s2 4 4 4h6c2 0 3-2 3-4s-1-3-3-3zm-17-3h-6c-2 0-4 1-4 3s2 4 4 4h6c1 0 3-2 3-4s-2-3-3-3zm-4 48h-2c-2 0-4 1-4 3s2 4 4 4h2c2 0 3-2 3-4s-1-3-3-3zm25 0h-16c-5 0-5 7 0 7h16c4 0 4-7 0-7zm0-15h-6c-1 0-3 2-3 4s2 3 3 3h6c2 0 4-1 4-3s-2-4-4-4z"/><path d="M288 237h-6c-2 0-4 1-4 3s2 4 4 4h6c2 0 3-2 3-4s-1-3-3-3z"/></g><g fill="#fff"><path d="M99 273h2c1 0 3-1 3-3s-2-4-3-4h-2c-2 0-4 2-4 4s2 3 4 3zm-25 6h16c4 0 4-7 0-7H74c-5 0-5 7 0 7z"/><path d="M86 268h15c5 0 5-7 0-7H86c-5 0-5 7 0 7zm-13 24h7c1 0 3-2 3-4s-2-3-3-3h-6c-2 0-4 1-4 3s2 4 4 4zm21-6h6c2 0 4-2 4-4s-2-3-4-3h-6c-2 0-3 1-3 3s1 4 3 4zm-6-33h-9c-4 0-4 7 0 7h9c5 0 5-7 0-7zm13-16H85c-4 0-4 7 0 7h16c5 0 5-7 0-7z"/><path d="M100 242h-6c-1 0-3 1-3 3s2 4 3 4h6c2 0 4-2 4-4s-2-3-4-3zm-19-4h-3c-2 0-4 2-4 4s2 3 4 3h3c2 0 3-1 3-3s-1-4-3-4zm17 22h2c2 0 4-2 4-4s-2-3-4-3h-2c-2 0-3 1-3 3s1 4 3 4zm3 25h-6c-2 0-4 1-4 3s2 4 4 4h6c1 0 3-2 3-4s-2-3-3-3zm-16-4h-2c-2 0-4 2-4 4s2 3 4 3h2c2 0 3-1 3-3s-1-4-3-4zm-13-44h32c2 0 2-3 0-3H72c-2 0-2 3 0 3z"/><path d="M80 244h-6c-2 0-4 2-4 4s2 3 4 3h6c2 0 3-1 3-3s-1-4-3-4zm-1 19h-6c-2 1-3 2-3 4s1 3 3 3h6c2 1 3-1 3-3s-1-4-3-4z"/></g></svg>