<svg xmlns="http://www.w3.org/2000/svg" width="361" height="361"><path d="M244.5 281.6c.1-.6 3-.4.3-.4H116.1c-2.2 0 1 .2 1 1.6V110l-2.5 4.3L155.2 87l-3.8.5 70.9 21.5 17 5.1 4.3 1.4c1.9.5.7.5.7-1.2V283c0 6.4 10 6.4 10 0V114.4c0-8.9-15-10.7-21.6-12.7l-77.4-23.4c-3.3-1-5.4.3-8 2a177109 177109 0 0 1-35 23.4c-2.6 1.7-5.3 3.2-5.3 6.8V283c0 10.7 14.7 8.2 21.5 8.2h107.9c6.5 0 16 1.7 17.7-7 1.3-6.2-8.4-8.9-9.6-2.6zm-125-76.5H242" fill="#fff"/><path d="M119.5 206.6H242c2 0 2-3 0-3H119.5c-2 0-2 3 0 3zm0 37.2H242m-122.5 1.4H242c2 0 2-3 0-3H119.5c-2 0-2 3 0 3zm.4-79h122.4M120 167.5h122.4c2 0 2-3 0-3H119.8c-1.9 0-1.9 3 0 3zm0-40.5h122.4M120 128.6h122.4c2 0 2-3 0-3H119.8c-1.9 0-1.9 3 0 3zm-19.3-5.2l65.7-44c5.3-3.6.3-12.3-5-8.7l-65.7 44c-5.4 3.6-.4 12.3 5 8.7z" fill="#fff"/><path d="M155 88.5l115.3 34.2c6.1 1.9 8.8-7.8 2.6-9.6L157.7 78.8c-6.2-1.8-8.9 7.8-2.7 9.7zm83.6 119.2H122.4a4 4 0 0 0-4 4v25.6a4 4 0 0 0 4 4h116.2a4 4 0 0 0 4-4v-25.6a4 4 0 0 0-4-4zm.2 38.6H122.6a4 4 0 0 0-4 4V276a4 4 0 0 0 4 4h116.2a4 4 0 0 0 4-4v-25.7a4 4 0 0 0-4-4z" fill="#fff"/><g fill="#fff"><path d="M238.8 168.7H122.7a4 4 0 0 0-4 4v25.6a4 4 0 0 0 4 4h116.1a4 4 0 0 0 4-4v-25.6a4 4 0 0 0-4-4z"/><path d="M192.6 180.3a4.3 4.3 0 0 0-1-1.7 2.8 2.8 0 0 0-2-.7 2.8 2.8 0 0 0-2 .7 4.2 4.2 0 0 0-1 1.7 11 11 0 0 0-.6 2.6 35.3 35.3 0 0 0 0 6.4c0 1 .3 2 .5 2.6a5 5 0 0 0 1.1 1.8 2.8 2.8 0 0 0 2 .7c.8 0 1.4-.3 1.9-.7s.9-1 1.1-1.8a9 9 0 0 0 .6-2.6 35.7 35.7 0 0 0 0-6.4 10 10 0 0 0-.6-2.6z"/></g><g fill="#fff"><path d="M238.9 129.8H122.8a4 4 0 0 0-4 4v25.7a4 4 0 0 0 4 4h116.1a4 4 0 0 0 4-4v-25.7a4 4 0 0 0-4-4z"/><path d="M192.6 140.8a4.3 4.3 0 0 0-1-1.7 2.8 2.8 0 0 0-2-.7 2.8 2.8 0 0 0-2 .7 4.2 4.2 0 0 0-1 1.7 11 11 0 0 0-.6 2.6 35.3 35.3 0 0 0 0 6.4c0 1 .3 2 .5 2.6a5 5 0 0 0 1.1 1.8 2.8 2.8 0 0 0 2 .6c.8 0 1.4-.2 1.9-.6s.9-1 1.1-1.8a9 9 0 0 0 .6-2.6 35.7 35.7 0 0 0 0-6.4 10 10 0 0 0-.6-2.6z"/></g><g fill="#fff"><path d="M153.4 104a4.7 4.7 0 0 0-1.6-1.8 4.5 4.5 0 0 0-2.5-.7h-.7a3.6 3.6 0 0 0-.7.1v15.8h.8a5.4 5.4 0 0 0 2.7-.5 4.8 4.8 0 0 0 1.8-1.7c.4-.7.7-1.5 1-2.5a19 19 0 0 0 0-6.2 8.3 8.3 0 0 0-.8-2.5z"/><path d="M238.9 114.8L156.2 90c-1.5-.4-3.3-.2-4 .3l-29.4 19.5c-4 2.7-4 2.8-4 5v5.7a4 4 0 0 0 4 4h116.1a4 4 0 0 0 4-4v-1.7c0-2.2-1.2-2.9-4-4z"/></g><g fill="#fff"><path d="M98.5 281.4h2c1.9 0 3.5-1.5 3.5-3.5s-1.6-3.5-3.5-3.5h-2c-1.9 0-3.5 1.6-3.5 3.5s1.6 3.5 3.5 3.5zm-24.7 6h16c4.6 0 4.6-7 0-7h-16c-4.5 0-4.5 7 0 7z"/><path d="M85.8 276.4h15.3c4.5 0 4.5-7 0-7H85.8c-4.5 0-4.5 7 0 7zm8.6 15.4h6c2 0 3.5-1.6 3.5-3.5s-1.6-3.5-3.5-3.5h-6c-1.9 0-3.5 1.6-3.5 3.5s1.6 3.5 3.5 3.5zm-6.3-31.2h-9c-4.5 0-4.5 7 0 7h9c4.5 0 4.5-7 0-7zm13-16H85c-4.5 0-4.5 7 0 7h16c4.5 0 4.5-7 0-7z"/><path d="M100.4 249.6h-6c-1.9 0-3.5 1.6-3.5 3.5s1.6 3.5 3.5 3.5h6c2 0 3.5-1.6 3.5-3.5s-1.6-3.5-3.5-3.5zM80.7 246h-3.2c-2 0-3.5 1.6-3.5 3.5s1.6 3.5 3.5 3.5h3.2c2 0 3.5-1.5 3.5-3.5s-1.6-3.5-3.5-3.5zm17.6 21.7h2c1.9 0 3.5-1.6 3.5-3.5s-1.6-3.5-3.5-3.5h-2c-2 0-3.5 1.6-3.5 3.5s1.6 3.5 3.5 3.5zm-20.7 17.2h-2c-2 0-3.5 1.6-3.5 3.5s1.6 3.5 3.5 3.5h2c1.9 0 3.5-1.6 3.5-3.5s-1.6-3.5-3.5-3.5zm-6-39.5H104c2 0 2-3 0-3H71.7c-2 0-2 3 0 3z"/><path d="M79.8 252.2h-6c-1.9 0-3.5 1.6-3.5 3.5s1.6 3.5 3.5 3.5h6c2 0 3.5-1.6 3.5-3.5s-1.6-3.5-3.5-3.5zm-1 19.3h-5.5c-1.9 0-3.5 1.5-3.5 3.4s1.6 3.6 3.5 3.6h5.5c2 0 3.5-1.7 3.5-3.6s-1.6-3.4-3.5-3.4zm179.5-26.3h31.9c1.9 0 1.9-3 0-3h-31.9c-1.9 0-1.9 3 0 3zm21 31.3h9c4.5 0 4.5-7 0-7h-9c-4.6 0-4.6 7 0 7zm-18.7 15.2h16c4.5 0 4.5-7 0-7h-16c-4.5 0-4.5 7 0 7zm.3-11.2h6c2 0 3.5-1.7 3.5-3.6s-1.6-3.4-3.5-3.4h-6c-1.9 0-3.5 1.5-3.5 3.4s1.6 3.6 3.5 3.6z"/><path d="M274.3 287.4h2c1.8 0 3.4-1.5 3.4-3.5s-1.5-3.5-3.4-3.5h-2c-2 0-3.6 1.6-3.6 3.5s1.7 3.5 3.6 3.5zm-5.9-23h-6c-1.9 0-3.5 1.6-3.5 3.5s1.6 3.5 3.5 3.5h6c2 0 3.5-1.5 3.5-3.5s-1.6-3.5-3.5-3.5zm-5.6-14.8h-2c-1.9 0-3.5 1.6-3.5 3.5s1.6 3.5 3.5 3.5h2c2 0 3.5-1.6 3.5-3.5s-1.6-3.5-3.5-3.5zm23.7 3h-16c-4.5 0-4.5 7 0 7h16c4.5 0 4.5-7 0-7z"/><path d="M277.5 260.6h-15.3c-4.5 0-4.5 7 0 7h15.3c4.5 0 4.5-7 0-7zm6.3-13h-6c-1.9 0-3.5 1.6-3.5 3.5s1.6 3.5 3.5 3.5h6c2 0 3.5-1.6 3.5-3.5s-1.6-3.5-3.5-3.5zm-17.3-3h-6c-1.9 0-3.5 1.6-3.5 3.5s1.6 3.5 3.5 3.5h6c1.9 0 3.5-1.6 3.5-3.5s-1.6-3.5-3.5-3.5zm22 33.9h-6c-1.9 0-3.5 1.5-3.5 3.5s1.6 3.5 3.5 3.5h6c1.9 0 3.5-1.6 3.5-3.5s-1.6-3.5-3.5-3.5z"/><path d="M287.8 244.6h-6c-1.9 0-3.5 1.6-3.5 3.5s1.6 3.5 3.5 3.5h6c2 0 3.5-1.6 3.5-3.5s-1.6-3.5-3.5-3.5zm-2 47h2c2 0 3.5-1.5 3.5-3.4s-1.6-3.5-3.5-3.5h-2c-1.9 0-3.5 1.6-3.5 3.5s1.6 3.5 3.5 3.5z"/></g></svg>