<svg xmlns="http://www.w3.org/2000/svg" width="361" height="361"><g fill="#fff"><path d="M178 79.9l83.6 63.4 2.5-9.3h-83.5c-6.4 0-6.4 10 0 10h83.5c5.4 0 6.2-6.5 2.5-9.3L183 71.3c-5.2-4-10.1 4.8-5 8.6z"/><path d="M266.4 134.7l-83.2-63.4a4.8 4.8 0 0 0-5 0L95 134.7c-3.8 2.8-3 9.3 2.5 9.3h166.4c6.5 0 6.5-10 0-10H97.5l2.5 9.3L183.2 80h-5l83.2 63.4c5.1 4 10.1-4.8 5-8.6z"/></g><path d="M244.5 281.6c.1-.6 3-.4.3-.4H116.1c-2.2 0 1 .4 1 1.6v-140c0-1.7-2.6 1.2-1.7 1.2H246c-.5 0-1.7-3-1.7-1v140c0 6.4 10 6.4 10 0V143.6c0-9.8-8.2-9.6-15.3-9.6H118.6c-3.7 0-7.6-.1-10 3.4-1.8 2.8-1.6 5.6-1.6 8.7v123.1c0 7-2.4 20 6.8 21.8 2.2.5 4.6.2 6.7.2h122c5.1 0 10.4-.6 11.7-6.9 1.2-6.3-8.4-9-9.7-2.7zm-125-92.5H242" fill="#fff"/><path d="M119.5 190.6H242c2 0 2-3 0-3H119.5c-2 0-2 3 0 3zm0 45.2H242m-122.5 1.4H242c2 0 2-3 0-3H119.5c-2 0-2 3 0 3z" fill="#fff"/><g fill="#fff"><path d="M174.1 160.3a4.5 4.5 0 0 0-1.2-1.9 3 3 0 0 0-2-.6 3 3 0 0 0-2 .6c-.6.5-1 1.1-1.2 1.9a11 11 0 0 0-.6 2.7 37.5 37.5 0 0 0 0 6.8c.1 1 .3 2 .6 2.7.3.8.6 1.4 1.2 1.9a3 3 0 0 0 2 .6 3 3 0 0 0 2-.6c.5-.5 1-1.1 1.2-1.9.3-.8.5-1.7.6-2.7a37.8 37.8 0 0 0 0-6.8c-.1-1-.3-2-.6-2.7z"/><path d="M238.4 145.7h-115a4 4 0 0 0-4 4V182a4 4 0 0 0 4 4h115a4 4 0 0 0 4-4v-32.3a4 4 0 0 0-4-4z"/></g><path d="M258.3 237.3h31.9c1.9 0 1.9-3 0-3h-31.9c-1.9 0-1.9 3 0 3zm-186.1 0H104c2 0 2-3 0-3H72.2c-2 0-2 3 0 3z" fill="#fff"/></svg>