<svg xmlns="http://www.w3.org/2000/svg" width="361" height="361"><path d="M175 232c1 5 2 11 7 11h9c7 0 16 1 16-9V130c0-7-2-11-9-11h-11c-3 0-5-1-8 1-4 2-4 8-4 12v100c0 7 10 7 10 0V129c0-4 0 0-3 0h19c-3 0-4-4-3 0v103c0 4-1 1 3 1h-19c3 0 4 3 3-1 0-6-10-6-10 0z" fill="#fff"/><path d="M177 96L72 176c-3 3-3 7 0 9l105 80c3 3 8-1 8-4V100c0-6-10-6-10 0v161l7-4-105-81v9l105-80c5-4 0-13-5-9zm41 136c0 5 2 11 7 11h9c7 0 16 1 16-9V130c0-7-2-11-9-11h-11c-3 0-6-1-8 1-4 2-4 8-4 12v100c0 7 10 7 10 0V129c0-4 0 0-3 0h18c-2 0-3-4-3 0v103c0 4 0 1 3 1h-18c3 0 3 3 3-1 0-6-10-6-10 0zm42 0c0 5 1 11 7 11h9c7 0 16 1 16-9V130c0-7-2-11-9-11h-11c-3 0-6-1-8 1-5 2-4 8-4 12v100c0 7 10 7 10 0V129c0-4 0 0-3 0h18c-3 0-3-4-3 0v103c0 4 0 1 3 1h-18c3 0 3 3 3-1 0-6-10-6-10 0z" fill="#fff"/></svg>