<svg xmlns="http://www.w3.org/2000/svg" width="361" height="361"><path d="M129 176c-4 0 0 0 0 3v-18c0 3-4 3 0 3h104c3 0 0 0 0-3v18c0-3 4-3 0-3H129c-6 0-6 10 0 10h103c3 0 6 0 8-2 3-2 3-5 3-8v-11c0-3 0-6-2-8-3-3-8-3-12-3h-98c-5 0-12 0-12 7v18c0 6 5 7 10 7 7 1 6-9 0-10z" fill="#fff"/><path d="M257 179l-80 105h8l-80-105-4 8h160c7 0 7-10 0-10H101c-4 0-7 4-5 7l80 105c3 4 7 4 9 0l80-105c4-5-4-10-8-5zm-128-46c-4 0 0 1 0 3v-18c0 3-4 3 0 3h104c4 0 0 0 0-3v18c0-3 4-3 0-3H129c-6 0-6 10 0 10h103c3 0 6 0 8-2 3-1 3-5 3-8v-11c0-3 0-6-2-8-3-3-8-3-12-3h-98c-5 0-12 1-12 7v18c0 6 5 7 10 7 7 1 6-9 0-10zm0-41c-4-1 0 0 0 3V76c0 3-4 4 0 4h104c4 0 0 0 0-4v19c0-4 4-3 0-3H129c-6 0-6 10 0 10h103a14 14 0 0 0 8-2c3-2 3-6 3-9V80c0-2 0-6-2-8-3-3-8-2-12-2h-98c-5 0-12 0-12 6v18c0 6 5 7 10 8 7 0 6-10 0-10z" fill="#fff"/></svg>