<svg xmlns="http://www.w3.org/2000/svg" width="361" height="361"><path d="M178 78.9l106.7 81 2.6-9.3H180.7c-6.4 0-6.4 10 0 10h106.6c5.4 0 6.3-6.5 2.5-9.3L183 70.3c-5.1-4-10 4.8-5 8.6z" fill="#fff"/><path fill="#fff" d="M287.1 155.6l-106.3-81-106.2 81z"/><path d="M289.6 151.3l-106.2-81a4.8 4.8 0 0 0-5 0L72 151.3c-3.7 2.8-2.9 9.3 2.6 9.3H287c6.4 0 6.4-10 0-10H74.6l2.5 9.3 106.3-81h-5l106.2 81c5.1 4 10-4.8 5-8.6z" fill="#fff"/><path d="M263.7 280.6c-.1.6 1.5.5-.3.5H97.2c1.3 0 1 1.5 1-.7V160.6c0-1.6-.1 0-.9 0h166.6c1.3 0-.4-.5-.4-.7v122c0 6.5 10 6.5 10 0V170.7c0-7.3 1.8-20.1-9.2-20.1H112c-6 0-14.3-1.5-19.7 1.5-6.6 3.5-4.1 18.6-4.1 24.5v89.8c0 6.2-2.6 22.8 6.4 24.3 6 1 12.5.4 18.6.4H249c7.6 0 22.6 2.7 24.2-7.8 1-6.3-8.6-9-9.6-2.7z" fill="#fff"/><g stroke="#fff" stroke-linejoin="round" stroke-miterlimit="10"><path d="M203.4 204l4.2-.5-.4-4-4.2.5-2.2-5 3.1-2.7-2.6-3-3.1 2.8-4.7-2.7.9-4-4-.9-.8 4-5.3.6-1.7-3.7-3.6 1.6 1.6 3.8-4 3.6-3.5-2.1-2 3.4 3.5 2.1-1 5.1-4.2.6.4 4 4.1-.5 2.2 5-3 2.7 2.6 3 3-2.8 4.8 2.7-1 4 4 .9.9-4 5.3-.6 1.7 3.7 3.6-1.6-1.6-3.8 4-3.6 3.5 2.1 2-3.4-3.6-2.1 1.2-5.3zm-15 11.2a11.7 11.7 0 1 1 0-23.4 11.7 11.7 0 0 1 0 23.4zm-9.1 18.7l4.1-.2-.2-4-4.1.3-2-5 3.3-2.7-2.5-3-3.2 2.5-4.5-3 1-4-3.8-1-1 4-5.5.3-1.4-3.9-3.7 1.5 1.4 3.8-4.2 3.4-3.4-2.3-2.2 3.4 3.5 2.2-1.4 5-4.2.4.2 4 4.1-.2 2 5-3.3 2.6 2.5 3.1 3.3-2.6 4.5 3-1.1 4 3.8 1 1.1-4 5.4-.2 1.4 3.8 3.8-1.4-1.5-3.9 4.2-3.3 3.5 2.2 2.1-3.3-3.4-2.3 1.4-5.2zm-15 10.5a11.7 11.7 0 1 1 0-23.4 11.7 11.7 0 0 1 0 23.4zm35.4-5.4l2.5-.4a8.6 8.6 0 0 0-2.1-3.4l-1.4 2.2 1 1.5zm.4-3.8l1.8-3-3-1.9-1.8 3 .3.1a8.5 8.5 0 0 1 2.7 1.8zm-4.4.4l1.4-2.3a8.5 8.5 0 0 0-4.1-.5l.9 2.6 1.8.2zm6.9 6.5l3.6-.4-.4-3.6-3.6.5a8.5 8.5 0 0 1 .4 3.5zm-12-5.5l-1-2.6a8.5 8.5 0 0 0-2.9 3l2.6.9 1.2-1.3zm1.2-7l-3.4 1.2 1.2 3.2a8.6 8.6 0 0 1 3.4-1.2l-1.2-3.2zm7.7 14.5l1.8 1.7a8.6 8.6 0 0 0 .6-1.2 8.5 8.5 0 0 0 .7-2.5l-2.5.3-.6 1.7zm-13.4.3l-2.9 2 2 3 3-2a8.6 8.6 0 0 1-2-3zm9.3 2.9l-.3 2.4a8.6 8.6 0 0 0 3.7-1.3l-1.8-1.7-1.6.6zm-3.8 2.1l-.4 3.6 3.6.4.3-3.7a8.5 8.5 0 0 1-3.5-.3zm-4.9-12.4l-3.2-1.1-1.2 3.4 3.3 1a8.6 8.6 0 0 1 .6-2.4l.5-1zm12.1 11.4l2.6 2.6 2.5-2.6-2.6-2.6a8.5 8.5 0 0 1-2.5 2.6zm-10.6-7.2l-2.6-.8a8.6 8.6 0 0 0 .5 4l2.3-1.4-.2-1.8zm2.1 4.8l-2.2 1.4a8.5 8.5 0 0 0 3.5 2l.2-2.5-1.5-1z" fill="#fff" stroke-width="3"/><circle cx="194.1" cy="241.5" r="5.9" fill="none" stroke-width="5"/></g></svg>