<svg xmlns="http://www.w3.org/2000/svg" width="361" height="361"><g fill="#fff"><path d="M178 79.9l83.6 63.4 2.5-9.3h-83.5c-6.4 0-6.4 10 0 10h83.5c5.4 0 6.2-6.5 2.5-9.3L183 71.3c-5.2-4-10.1 4.8-5 8.6z"/><path d="M266.4 134.7l-83.2-63.4a4.8 4.8 0 0 0-5 0L95 134.7c-3.8 2.8-3 9.3 2.5 9.3h166.4c6.5 0 6.5-10 0-10H97.5l2.5 9.3L183.2 80h-5l83.2 63.4c5.1 4 10.1-4.8 5-8.6z"/></g><path d="M244.5 281.6c.1-.6 3-.4.3-.4H116.1c-2.2 0 1 .4 1 1.6v-140c0-1.7-2.6 1.2-1.7 1.2H246c-.5 0-1.7-3-1.7-1v140c0 6.4 10 6.4 10 0V143.6c0-9.8-8.2-9.6-15.3-9.6H118.6c-3.7 0-7.6-.1-10 3.4-1.8 2.8-1.6 5.6-1.6 8.7v123.1c0 7-2.4 20 6.8 21.8 2.2.5 4.6.2 6.7.2h122c5.1 0 10.4-.6 11.7-6.9 1.2-6.3-8.4-9-9.7-2.7zm-125-92.5H242" fill="#fff"/><path d="M119.5 190.6H242c2 0 2-3 0-3H119.5c-2 0-2 3 0 3zm0 45.2H242m-122.5 1.4H242c2 0 2-3 0-3H119.5c-2 0-2 3 0 3z" fill="#fff"/><g fill="#fff"><path d="M173.8 109.8a5 5 0 0 0-1.7-1.8c-.7-.5-1.6-.7-2.7-.7h-.7a3.8 3.8 0 0 0-.7.1V124h.9c1 0 2-.1 2.8-.6a5 5 0 0 0 1.8-1.7 7.8 7.8 0 0 0 1-2.7 20 20 0 0 0 0-6.5 8.8 8.8 0 0 0-.7-2.7z"/><path d="M237 126.2l-54-40.8a3.5 3.5 0 0 0-4.2 0l-54.1 40.8a3.5 3.5 0 0 0 2 6.3H235a3.5 3.5 0 0 0 2.1-6.3zm-58-4.7a10.4 10.4 0 0 1-2.4 4c-1 1-2.2 1.7-3.6 2.2s-3 .7-4.7.7a23.4 23.4 0 0 1-5.2-.6v-24.2a24.6 24.6 0 0 1 5.9-.6c1.6 0 3.1.3 4.4.7a8.3 8.3 0 0 1 3.5 2.3 10.7 10.7 0 0 1 2.1 4c.6 1.5.8 3.4.8 5.7 0 2.3-.3 4.2-.8 5.8zm9.4.7c1 1.4 2.3 2 4.1 2a12.4 12.4 0 0 0 2 0V115h4.8v12.4a22.5 22.5 0 0 1-7.2 1c-1.5 0-3-.2-4.2-.8a8.4 8.4 0 0 1-3.2-2.4 11.5 11.5 0 0 1-2-4 19.8 19.8 0 0 1-.7-5.7 17 17 0 0 1 .8-5.5 12 12 0 0 1 2.3-4 9.2 9.2 0 0 1 3.4-2.6c1.3-.5 2.7-.8 4.2-.8a13.8 13.8 0 0 1 4.6.8l1.3.6.9.4-1.3 4a9 9 0 0 0-2.2-1 8 8 0 0 0-2.6-.5c-1.2 0-2.2.2-3 .7a5.5 5.5 0 0 0-2 1.7c-.5.8-.9 1.7-1 2.8a16.6 16.6 0 0 0-.4 3.5c0 3 .4 5 1.4 6.5z"/></g><g fill="#fff"><path d="M174.1 160.3a4.5 4.5 0 0 0-1.2-1.9 3 3 0 0 0-2-.6 3 3 0 0 0-2 .6c-.6.5-1 1.1-1.2 1.9a11 11 0 0 0-.6 2.7 37.5 37.5 0 0 0 0 6.8c.1 1 .3 2 .6 2.7.3.8.6 1.4 1.2 1.9a3 3 0 0 0 2 .6 3 3 0 0 0 2-.6c.5-.5 1-1.1 1.2-1.9.3-.8.5-1.7.6-2.7a37.8 37.8 0 0 0 0-6.8c-.1-1-.3-2-.6-2.7z"/><path d="M238.4 145.7h-115a4 4 0 0 0-4 4V182a4 4 0 0 0 4 4h115a4 4 0 0 0 4-4v-32.3a4 4 0 0 0-4-4zm-61 30.4a7.6 7.6 0 0 1-6.5 3.2c-2.9 0-5.1-1-6.6-3.2-1.6-2.2-2.3-5.4-2.3-9.7s.7-7.5 2.3-9.7a7.6 7.6 0 0 1 6.6-3.2c2.9 0 5.1 1 6.6 3.2 1.6 2.2 2.3 5.4 2.3 9.7s-.8 7.5-2.3 9.7zm11-3.2a4.5 4.5 0 0 0 4 2.1 12.4 12.4 0 0 0 2-.1v-9h5v12.3a22.5 22.5 0 0 1-7.3 1.1c-1.6 0-3-.3-4.2-.8a8.4 8.4 0 0 1-3.2-2.4 11.5 11.5 0 0 1-2-4 19.8 19.8 0 0 1-.7-5.7 17 17 0 0 1 .8-5.6 12 12 0 0 1 2.3-4 9.2 9.2 0 0 1 3.4-2.5 11 11 0 0 1 4.2-.8 13.8 13.8 0 0 1 4.5.7l1.4.6.8.5-1.2 3.9a9 9 0 0 0-2.2-1 8 8 0 0 0-2.6-.4c-1.2 0-2.2.2-3 .6a5.5 5.5 0 0 0-2 1.8c-.5.7-.9 1.6-1.1 2.7a16.6 16.6 0 0 0-.3 3.5c0 3 .4 5.1 1.4 6.5z"/></g><path d="M238.4 192h-115a4 4 0 0 0-4 4.1v32.3a4 4 0 0 0 4 4h115a4 4 0 0 0 4-4v-32.3a4 4 0 0 0-4-4zm-59.1 32.5h-15.9v-24.7h15v4h-10v5.6h8.7v4h-8.8v7h11v4.1zm9-5.8c1 1.4 2.4 2 4.2 2a12.9 12.9 0 0 0 2-.1v-9h4.8v12.3a21.8 21.8 0 0 1-7.2 1.1c-1.6 0-3-.2-4.2-.8a8.5 8.5 0 0 1-3.2-2.4c-.8-1-1.5-2.4-2-4s-.7-3.6-.7-5.7a17 17 0 0 1 .8-5.6c.6-1.6 1.3-3 2.3-4s2-2 3.4-2.5c1.3-.5 2.7-.8 4.2-.8a13.7 13.7 0 0 1 6 1.3l.7.5-1.2 4a5 5 0 0 0-2.2-1 8 8 0 0 0-2.6-.5 5.5 5.5 0 0 0-5 2.4c-.5.8-.9 1.7-1.1 2.7s-.3 2.2-.3 3.5c0 3 .4 5.2 1.4 6.6zm50 20.2H123.1a4 4 0 0 0-4 4v32.3a4 4 0 0 0 4 4.1h115a4 4 0 0 0 4-4V243a4 4 0 0 0-4-4.1zm-63.6 33.6c-.3-.9-.7-1.9-1.3-3a34.2 34.2 0 0 0-1.8-3.1 32.4 32.4 0 0 0-4.2-5.2v11.3h-5v-24.7h5V258a61 61 0 0 0 5.3-8l1.2-2.3h5.5a72.2 72.2 0 0 1-5.2 8.4 47.6 47.6 0 0 1-2.4 3 33.3 33.3 0 0 1 2.5 2.7 35.3 35.3 0 0 1 2.4 3.4 38 38 0 0 1 2 3.6 26 26 0 0 1 1.6 3.6h-5.6zm13.5-5.8c.9 1.4 2.3 2 4 2a12.4 12.4 0 0 0 2 0v-9.1h5v12.3a22.4 22.4 0 0 1-7.3 1.2c-1.6 0-3-.3-4.2-.9a8.5 8.5 0 0 1-3.2-2.4 11.5 11.5 0 0 1-2-4 19.8 19.8 0 0 1-.7-5.7c0-2 .2-4 .8-5.5a12.1 12.1 0 0 1 2.3-4 9.2 9.2 0 0 1 3.4-2.6c1.3-.5 2.7-.8 4.2-.8a13.7 13.7 0 0 1 4.5.7l1.4.6.8.5-1.2 4a11 11 0 0 0-2.2-1 8 8 0 0 0-2.6-.5 5.5 5.5 0 0 0-5 2.4c-.5.8-.9 1.7-1 2.7a16.6 16.6 0 0 0-.4 3.5c0 3 .4 5.2 1.4 6.6zm70.1-29.5h31.9c1.9 0 1.9-3 0-3h-31.9c-1.9 0-1.9 3 0 3zm-186.1 0H104c2 0 2-3 0-3H72.2c-2 0-2 3 0 3z" fill="#fff"/></svg>