<svg xmlns="http://www.w3.org/2000/svg" width="361" height="361"><path d="M178 79l107 81 2-9H181c-7 0-7 10 0 10h106c6 0 7-7 3-10L183 70c-5-4-10 5-5 9z" fill="#fff"/><path fill="#fff" d="M287 156L181 75 75 156z"/><path d="M290 151L183 70a5 5 0 0 0-5 0L72 151c-4 3-3 10 3 10h212c6 0 6-10 0-10H75l2 9 106-81h-5l107 81c5 4 10-5 5-9z" fill="#fff"/><path d="M264 281H97c1 0 1 2 1-1V161c0-2 0 0-1 0h167l-1-1v122c1 6 11 6 11 0V171c0-8 1-20-10-20H112c-6 0-14-2-20 1-6 4-4 19-4 25v89c0 7-2 23 7 25h154c8 0 23 3 24-8 1-6-8-9-9-2z" fill="#fff"/><g stroke="#fff" stroke-linejoin="round" stroke-miterlimit="10"><path d="M203 204h5l-1-4h-4l-2-5 3-3-3-3-3 3-4-3v-4h-4v4h-6l-1-4-4 2 2 4-4 3-4-2-2 4 4 2-1 5-5 1 1 4 4-1 2 5-3 3 3 3 3-3 5 3-1 4h4v-3l6-1 1 4 4-2-2-4 4-3 4 2 2-4-4-2 2-5zm-15 11a12 12 0 1 1 0-23 12 12 0 0 1 0 23zm-9 19h4v-4h-4l-2-5 3-3-2-3-3 3-5-3 1-4-4-1-1 4h-5l-1-4-4 2 1 4-4 3-3-2-3 3 4 2-1 5-5 1 1 4 4-1 2 5-4 3 3 3 3-2 5 3-1 4 3 1 1-4 6-1 1 4 4-1-1-4 4-3 3 2 2-4-3-2 1-5zm-15 10a12 12 0 1 1 0-23 12 12 0 0 1 0 23zm36-5h2a9 9 0 0 0-2-4l-1 2 1 2zm0-4l2-3-3-2-2 3a9 9 0 0 1 3 2zm-4 1l1-3a9 9 0 0 0-4 0l1 2 2 1zm7 6h3v-4l-4 1a9 9 0 0 1 1 3zm-12-5l-1-3a9 9 0 0 0-3 3l2 1 2-1zm1-7l-4 1 2 3a9 9 0 0 1 3-1l-1-3zm8 14l1 2a9 9 0 0 0 1-1 9 9 0 0 0 1-3h-3l-1 2zm-14 0l-3 2 2 3 3-2a9 9 0 0 1-2-3zm9 3v3a9 9 0 0 0 4-2l-2-1h-2zm-3 2l-1 4h4v-3a9 9 0 0 1-3-1zm-5-12l-4-1-1 3 4 1a9 9 0 0 1 0-2l1-1zm12 11l2 3 3-3-3-2a9 9 0 0 1-2 2zm-11-7l-2-1a9 9 0 0 0 0 4l2-1v-2zm2 5l-2 1a9 9 0 0 0 4 2v-2l-2-1z" fill="#fff" stroke-width="3"/><circle cx="194" cy="242" r="6" fill="none" stroke-width="5"/></g></svg>