<svg xmlns="http://www.w3.org/2000/svg" width="361" height="361"><path d="M103 205v69c0 3 2 5 5 5h139a5 5 0 0 0 5-5v-69a5 5 0 0 0-5-5H108a5 5 0 0 0-5 5zm71 50h-19v-31h18v5h-12v7h11v5h-11v9h13v5zm11-8a6 6 0 0 0 5 3 15 15 0 0 0 3 0v-11h6v15a26 26 0 0 1-9 1l-5-1a10 10 0 0 1-4-3l-3-5v-7l1-6a12 12 0 0 1 6-8 13 13 0 0 1 6-1 16 16 0 0 1 5 1h2l1 1-2 5-3-2a10 10 0 0 0-3 0l-3 1a7 7 0 0 0-3 2 9 9 0 0 0-1 3 21 21 0 0 0 0 4l1 8z" fill="#fff"/><path d="M90 284c2 10 14 8 21 8h130c6 0 14 1 20-2s4-14 4-19V98c0-3-2-5-5-5l-148 13c-5 1-18 0-21 5-2 6-1 14-1 20v152c0 6 10 6 10 0V117c0-2 0 0-1 0l18-1 91-8 52-5-5-5v185c0-1 2-1 0-1H99l1-1c-1-6-11-3-10 3zm161-88H104" fill="#fff"/><path d="M250 195H103c-2 0-2 3 0 3h147c2 0 2-3 0-3zm33-104l-146 12-58 5c-7 1-7 11 0 10l146-12 58-5c7 0 7-10 0-10z" fill="#fff"/></svg>