<svg xmlns="http://www.w3.org/2000/svg" width="361" height="361"><path d="M187 222l85-123 13-19c5-8-8-15-13-7l-85 123-13 18c-5 8 8 16 13 8z" fill="#fff"/><path d="M184 212l-42-31c-3-2-8 0-10 3-2 4-1 8 3 10l42 30c3 3 8 1 10-2 2-4 1-8-3-11z" fill="#fff"/><path d="M264 134v102c0 16-14 27-29 27H125c-17 0-27-14-27-29V124a27 27 0 0 1 14-23 30 30 0 0 1 15-4h100c7 0 7-10 0-10H125a37 37 0 0 0-37 37v109a38 38 0 0 0 25 38c8 3 19 2 28 2h96c10 0 19-5 26-12 9-8 11-19 11-31v-96c0-7-10-7-10 0z" fill="#fff"/></svg>