<svg xmlns="http://www.w3.org/2000/svg" width="361" height="361"><path d="M176 76a5 5 0 0 0 2 4 5 5 0 0 0 3 1 5 5 0 0 0 2-1 5 5 0 0 0 3-4 5 5 0 0 0-1-2 5 5 0 0 0-2-2l-4-1a5 5 0 0 0-3 2 5 5 0 0 0 0 4v1a5 5 0 0 0 2 2v-8l8 4a5 5 0 0 0-5-5 5 5 0 0 0-5 5z" fill="#fff"/><path d="M98 144h14l-5-5v142c0 5 2 9 7 10h135c5-1 5-6 5-10V139l-5 5h15c6 0 6-6 3-9l-84-63a5 5 0 0 0-5 0l-83 63c-5 4 0 13 5 9l83-64h-5l84 64 2-10h-15a5 5 0 0 0-5 5v144c0-1 4-2 1-2H117c-3 0 0 0 0 2V139a5 5 0 0 0-5-5H98c-7 0-7 10 0 10z" fill="#fff"/><path d="M267 135l-31-23c-5-4-10 4-5 8l16 12 11 9 6 3c7 0 7-10 0-10h1l-3-3-11-8-15-11-5 8 31 24c5 3 10-5 5-9zm-89-63h-1a5 5 0 0 0-1 6 5 5 0 0 0 3 3l4-1 1-1a5 5 0 0 0 2-2 5 5 0 0 0-1-4 5 5 0 0 0-3-2l-4 1zm-58 97h122m-122 2h122c2 0 2-3 0-3H120c-2 0-2 3 0 3zm0 55h122m-122 1h122c2 0 2-3 0-3H120c-2 0-2 3 0 3zm138 0h32c2 0 2-3 0-3h-32c-2 0-2 3 0 3zm-186 0h32c2 0 2-3 0-3H72c-2 0-2 3 0 3z" fill="#fff"/><g fill="#fff"><path d="M242 134a6 6 0 0 0-2-4l-57-42a5 5 0 0 0-5 0l-56 42a5 5 0 0 0-3 5v27a4 4 0 0 0 4 4h115a4 4 0 0 0 4-4v-28zm-64 5a10 10 0 0 1-2 4l-4 3h-4a23 23 0 0 1-5 0v-25a25 25 0 0 1 5 0l5 1a8 8 0 0 1 3 2 11 11 0 0 1 2 4l1 6-1 5zm10 1l4 2a13 13 0 0 0 2 0v-9h5v12a22 22 0 0 1-7 1h-5a9 9 0 0 1-3-3 12 12 0 0 1-2-4 20 20 0 0 1-1-6l1-5a12 12 0 0 1 3-4 9 9 0 0 1 3-3 11 11 0 0 1 4 0 14 14 0 0 1 5 0l1 1h1l-1 4a10 10 0 0 0-3-1 8 8 0 0 0-2 0l-3 1a6 6 0 0 0-2 1l-1 3a17 17 0 0 0-1 4l2 6z"/><path d="M173 127a5 5 0 0 0-2-2h-3a4 4 0 0 0-1 0v16h4a5 5 0 0 0 2-2 8 8 0 0 0 1-3 20 20 0 0 0 0-6 9 9 0 0 0-1-3z"/></g></svg>