<svg xmlns="http://www.w3.org/2000/svg" width="361" height="361"><path d="M93.2 279.2a7.5 7.5 0 0 1-7.6 7.6H82a7.5 7.5 0 0 1-7.6-7.6V82.3a7.5 7.5 0 0 1 7.6-7.5h3.7a7.5 7.5 0 0 1 7.6 7.5v197zm129.2 0a7.5 7.5 0 0 1-7.5 7.6H211a7.5 7.5 0 0 1-7.5-7.6V82.3a7.5 7.5 0 0 1 7.5-7.5h3.8a7.5 7.5 0 0 1 7.5 7.5v197zm-64.6-.2a7.5 7.5 0 0 1-7.6 7.5h-3.7a7.5 7.5 0 0 1-7.6-7.5V82a7.5 7.5 0 0 1 7.6-7.5h3.7a7.5 7.5 0 0 1 7.6 7.6V279zm129.2.2a7.5 7.5 0 0 1-7.5 7.6h-3.8a7.5 7.5 0 0 1-7.5-7.6V82.3a7.5 7.5 0 0 1 7.5-7.5h3.8a7.5 7.5 0 0 1 7.5 7.5v197z" fill="none" stroke="#fff" stroke-width="10" stroke-miterlimit="10"/></svg>