<svg xmlns="http://www.w3.org/2000/svg" width="361" height="361"><path d="M257 157c0-14 2-30-8-43a37 37 0 0 0-29-14h-55c-10 0-22-1-33 1a37 37 0 0 0-27 33v24c0 6 10 6 10 0 0-15-2-32 10-42 9-8 24-6 35-6h47c13 0 26-1 35 11 7 10 5 25 5 36 0 7 10 7 10 0z" fill="#fff"/><path d="M213 161l34 45c3 3 6 3 9 0l34-45c3-3-1-7-4-7h-69c-6 0-6 10 0 10h69l-4-8-35 45h9l-35-45c-4-5-12 0-8 5zm-65 40l-34-45c-3-3-6-3-9 0l-34 45c-3 3 1 8 4 8h69c7 0 7-10 0-10H75l4 7 35-45h-9l35 45c4 5 12 0 8-5z" fill="#fff"/><path d="M247 204c0 15 2 31-11 42-9 8-23 5-34 5h-47c-13 0-26 1-35-11-7-10-5-25-5-36 0-7-10-7-10 0 0 15-2 31 8 43 7 9 17 14 29 14h54c11 0 23 2 33-1a37 37 0 0 0 27-32l1-24c0-7-10-7-10 0z" fill="#fff"/></svg>