<svg xmlns="http://www.w3.org/2000/svg" width="361" height="361"><g stroke="#fff" stroke-linejoin="round" stroke-miterlimit="10"><path d="M286 90h4v-4h-4l-2-5 3-3-3-3-3 3-5-3 1-4h-4l-1 4h-5l-2-4-3 2 1 4-4 3-3-2-2 4 3 2-1 5-4 1 1 4 4-1 2 5-3 3 3 3 3-3 4 3-1 4 4 1 1-5h6l1 4 4-2-2-4 4-3 4 2 2-4-4-2 1-5zm-15 11a12 12 0 1 1 0-23 12 12 0 0 1 0 23zm-9 19h4v-4h-4l-2-5 3-3-2-3-4 3-4-3 1-4-4-1-1 4h-5l-2-4-3 2 1 4-4 3-4-2-2 3 4 2-2 5-4 1v4h4l2 5-3 2 3 3 3-2 4 3-1 4 4 1 1-4 6-1 1 4 4-1-2-4 5-3 3 2 2-3-3-3 1-5zm-15 10a12 12 0 1 1 0-23 12 12 0 0 1 0 23zm35-5h3a9 9 0 0 0-2-4l-2 3 1 1zm1-4l2-3-3-2-2 3a9 9 0 0 1 3 2zm-5 1l2-3a9 9 0 0 0-4 0l1 3h1zm7 6h4v-4l-4 1a9 9 0 0 1 0 3zm-12-5l-1-3a9 9 0 0 0-3 3l3 1 1-1zm2-7l-4 1 1 3a9 9 0 0 1 4-1l-1-3zm7 14l2 2 1-1a9 9 0 0 0 0-3l-2 1-1 1zm-13 1l-3 2 2 3 3-2a9 9 0 0 1-2-3zm9 2v3a9 9 0 0 0 4-1l-2-2h-2zm-4 3v3l4 1v-4a8 8 0 0 1-4 0zm-5-13l-3-1-1 3 3 2a9 9 0 0 1 1-4zm13 12l2 2 3-2-3-3a9 9 0 0 1-2 3zm-11-8h-3a9 9 0 0 0 1 4l2-2v-2zm2 5l-2 2a9 9 0 0 0 3 2l1-3-2-1z" fill="#fff" stroke-width="3"/><circle cx="277" cy="128" r="6" fill="none" stroke-width="5"/></g><path fill="#fff" d="M75 156l-1-81 107 81z"/><path d="M80 156l-1-81-7 4 107 81 2-9H75c-7 0-7 10 0 10h106c6 0 6-6 3-9L77 71c-3-3-8 1-8 4l1 81c0 7 10 7 10 0z" fill="#fff"/><path d="M127 281c0 3-2 6-6 6H98c-3 0-6-3-6-6v-68c0-3 3-6 6-6h24c3 0 6 3 6 6v68z" fill="none" stroke="#fff" stroke-width="10" stroke-miterlimit="10"/><path d="M163 282c0 3-5 5-11 5H85c-5 0-10-2-10-5V159c0-3 5-6 10-6h67c6 0 11 3 11 6v123z" fill="none" stroke="#fff" stroke-width="10" stroke-miterlimit="10"/><g fill="#fff"><path d="M186 233v54c0 5 7 5 7 0v-54c0-4-7-4-7 0zm11 0v54c1 5 8 5 8 0v-54c0-4-7-4-7 0zm12 0v54c0 5 7 5 7 0v-54c0-4-7-4-7 0zm11 0v54c0 5 7 5 7 0v-54c0-4-7-4-7 0zm12 0v54c0 5 7 5 7 0v-54c0-4-7-4-7 0zm11 0v54c0 5 7 5 7 0v-54c0-4-7-4-7 0zm11 0v54c0 5 7 5 7 0v-54c0-4-7-4-7 0zm12 0v54c0 5 7 5 7 0v-54c0-4-7-4-7 0zm11 0v54c0 5 7 5 7 0v-54c0-4-7-4-7 0z"/><path d="M185 247h102c4 0 4-7 0-7H185c-4 0-4 7 0 7zm0 33h102c5 0 5-7 0-7H185c-5 0-5 7 0 7z"/></g></svg>