<svg xmlns="http://www.w3.org/2000/svg" width="361" height="361"><path d="M244 196H105a5 5 0 0 0-5 5v39c0 3 2 5 4 5h140a5 5 0 0 0 4-5v-39a5 5 0 0 0-4-5zm-72 40h-19v-31h18v5h-12v7h11v5h-11v9h13v5zm11-8a6 6 0 0 0 5 3 15 15 0 0 0 2 0v-11h6v15a26 26 0 0 1-8 1l-5-1a10 10 0 0 1-4-3 14 14 0 0 1-3-5 25 25 0 0 1-1-7l1-6c0-2 2-4 3-5a12 12 0 0 1 9-4 16 16 0 0 1 6 1h2l1 1-2 5a9 9 0 0 0-3-2 10 10 0 0 0-3 0 8 8 0 0 0-3 1 7 7 0 0 0-3 2 9 9 0 0 0-1 3l-1 4 2 8z" fill="#fff"/><path d="M252 247c0 1 2 1 0 1H97c-2 0 0-1 0 1V117l-3 4 49-32h-4l68 21 38 11 6 2v126c0 6 10 6 10 0V137c1-8 3-22-7-24l-22-6-45-14-38-12-7-2c-4-1-8 4-11 6l-36 24c-3 2-8 4-8 8v128c0 3 0 7 2 10 3 2 6 3 10 3h150c6 0 11-1 12-8 1-6-8-9-9-3zm-151-55h147" fill="#fff"/><path d="M101 194h147c2 0 2-3 0-3H101c-2 0-2 3 0 3zm0-56h147m-147 1h147c2 0 2-3 0-3H101c-2 0-2 3 0 3zm-23-7l79-53c5-3 0-12-5-8l-79 53c-6 3-1 12 5 8z" fill="#fff"/><path d="M144 90l136 41h2c6 2 9-8 3-9L149 81h-3c-6-2-9 7-2 9z" fill="#fff"/><g fill="#fff"><path d="M266 251h24c2 0 2-3 1-3h-25c-2 0-2 3 0 3zm17 31h5c2 0 4-2 4-4s-2-3-4-3h-5c-2 0-3 1-3 3s1 4 3 4zm-26 10h16c4 0 4-7 0-7h-16c-5 0-5 7 0 7z"/><path d="M268 286h6c2 0 4-2 4-4s-2-3-4-3h-6c-2 0-3 1-3 3s1 4 3 4zm19 6h2c2 0 3-2 3-4s-1-3-3-3h-2c-2 0-4 1-4 3s2 4 4 4zm-19-20h-6c-2 0-4 1-4 3s2 4 4 4h6c2 0 3-2 3-4s-1-3-3-3zm-2-14h-2c-2 0-4 1-4 3s2 4 4 4h2c2 0 3-2 3-4s-1-3-3-3z"/><path d="M289 258h-16c-5 0-5 7 0 7h16c4 0 4-7 0-7zm-4 8h-15c-5 0-5 7 0 7h15c4 0 4-7 0-7z"/><path d="M288 252h-6c-2 0-3 2-3 3s1 4 3 4h6c2 0 4-2 4-4s-2-3-4-3zm-14-2h-6c-2 0-4 2-4 3s2 4 4 4h6c2 0 3-2 3-4s-1-3-3-3zm-18 14h-6c-2 0-3 1-3 3s1 4 3 4h6c2 0 4-2 4-4s-2-3-4-3zm32 6h-1c-2 0-3 2-3 3s1 4 3 4h1c2 0 3-2 3-3s-1-4-3-4zM74 283h7c4 0 4-7 0-7h-7c-5 0-5 7 0 7zm26-3h8c5 0 5-7 0-7h-8c-4 0-4 7 0 7zm-3-11h15c5 0 5-7 0-7H97c-5 0-5 7 0 7zm25 23h6c2 0 4-2 4-4s-2-3-4-3h-6c-2 0-3 1-3 3s1 4 3 4zm124-8h-9c-4 0-4 7 0 7h9c5 0 5-7 0-7z"/><path d="M259 268h-16c-4 0-4 7 0 7h16c5 0 5-7 0-7zM80 252h-6c-2 0-3 1-3 3s1 4 3 4h6c2 0 4-2 4-4s-2-3-4-3zm161 9h-4c-2 0-3 1-3 3s1 4 3 4h4c1 0 3-2 3-4s-2-3-3-3zM77 273h2c2 0 3-2 3-3s-1-4-3-4h-2c-2 0-4 2-4 4s2 3 4 3zm17 3h-2c-2 0-4 2-4 4s2 3 4 3h2c2 0 3-1 3-3s-1-4-3-4zm-22-25h10c2 0 2-3 0-3H71c-2 0-2 3 0 3zm124 34h-6c-2 0-3 1-3 3s1 4 3 4h6c2 0 4-2 4-4s-2-3-4-3z"/><path d="M88 264h-6c-2 0-3 1-3 3s1 4 3 4h6c2 0 3-2 3-4s-1-3-3-3zm85 3h9c4 0 4-7 0-7h-9c-5 0-5 7 0 7zm33 25h16c4 0 4-7 0-7h-16c-5 0-5 7 0 7zm15-14h6c2 0 4-2 4-4s-2-3-4-3h-6c-2 0-3 1-3 3s2 4 3 4z"/><path d="M215 288h2c2 0 4-2 4-3s-2-4-4-4h-2c-2 0-3 2-3 4s1 3 3 3zm-1-23h-6c-2 0-4 1-4 3s2 4 4 4h6c2 0 3-2 3-4s-1-3-3-3z"/><path d="M223 261h-15c-5 0-5 7 0 7h15c4 0 4-7 0-7zm11 18h-6c-2 0-4 1-4 3s2 4 4 4h6c2 0 3-2 3-4s-1-3-3-3zm-98-7h-9c-5 0-5 7 0 7h9c4 0 4-7 0-7zm17-11h-16c-5 0-5 7 0 7h16c4 0 4-7 0-7zm-1 11h-6c-1 0-3 1-3 3s2 4 3 4h6c2 0 4-2 4-4s-2-3-4-3z"/><path d="M139 266h-2c-2 0-3 1-3 3s1 4 3 4h2c2 0 4-2 4-4s-2-3-4-3zm6 26h6c2 0 3-2 3-4s-1-3-3-3h-6c-2 0-4 1-4 3s2 4 4 4zm-59 0h15c5 0 5-7 0-7H86c-5 0-5 7 0 7zm39-20h6c1 0 3-2 3-4s-2-3-3-3h-6c-2 0-4 1-4 3s2 4 4 4zm53 5h9c5 0 5-7 0-7h-9c-4 0-4 7 0 7zm-18 15h16c4 0 4-7 0-7h-16c-5 0-5 7 0 7zm-5-8h6c2 0 3-2 3-4s-1-3-3-3h-6c-2 0-4 1-4 3s2 4 4 4z"/><path d="M173 288h2c2 0 4-2 4-4s-2-3-4-3h-2c-2 0-3 1-3 3s1 4 3 4zm-5-23h-12c-4 0-4 7 0 7h12c4 0 4-7 0-7zm43 3h-12c-5 0-5 7 0 7h12c4 0 4-7 0-7zm-19 11h-6c-2 0-3 1-3 3s1 4 3 4h6c2 0 4-2 4-4s-2-3-4-3zm-45 1h16c4 0 4-7 0-7h-16c-5 0-5 7 0 7zm-29-5h-9c-4 0-4 7 0 7h9c5 0 5-7 0-7zm6-15h-4c-2 1-3 2-3 4s1 4 3 4h4c2 0 3-2 3-4s-2-3-3-3zm-24 5h-6c-2 0-4 2-4 4s2 3 4 3h6c1 0 3-1 3-3s-2-4-3-4zm-13 16h-5c-2 0-4 2-4 4s2 3 4 3h5c2 0 4-2 4-3s-2-4-4-4z"/><path d="M189 271h16c4 0 4-7 0-7h-16c-4 0-4 7 0 7zm-46 11h-2c-2 0-3 1-3 3s1 4 3 4h2c2 0 4-2 4-4s-2-3-4-3zm4-10h-2c-2 0-4 1-4 3s2 4 4 4h2c2 0 3-2 3-4s-1-3-3-3zm-42 20h6c2 0 3-2 3-4s-1-3-3-3h-6c-2 0-3 1-3 3s1 4 3 4zm-32-1h2c2 0 4-2 4-4s-2-3-4-3h-2c-2 0-3 1-3 3s1 4 3 4zm20-9h2c2 0 3-2 3-4s-1-3-3-3h-2c-2 0-4 1-4 3s2 4 4 4z"/><path d="M104 273h-6c-2 0-3 1-3 3s1 4 3 4h6c2 0 3-2 3-4s-1-3-3-3zm147 10h2c2 0 3-1 3-3s-1-4-3-4h-2c-2 0-4 2-4 4s2 3 4 3zm-39-10h-12c-4 0-4 7 0 7h12c4 0 4-7 0-7zM83 260H73c-4 0-4 7 0 7h10c5 0 5-7 0-7zm57 21h-11c-4 0-4 7 0 7h12c4 0 4-7 0-7z"/></g></svg>