<svg xmlns="http://www.w3.org/2000/svg" width="361" height="361"><path d="M245 282c0-1 3-1 0-1H116c-2 0 1 0 1 2V110l-2 4 40-27-4 1 71 21 17 5 5 1v-1 169c0 6 10 6 10 0V114c0-8-15-10-21-12l-78-24c-3-1-5 1-8 2a177109 177109 0 0 1-35 24c-2 1-5 3-5 7v172c0 11 15 8 21 8h108c7 0 16 2 18-7 1-6-8-9-10-2zm-125-77h122" fill="#fff"/><path d="M120 207h122c2 0 2-3 0-3H120c-2 0-2 3 0 3zm0 37h122m-122 1h122c2 0 2-3 0-3H120c-2 0-2 3 0 3zm0-79h122m-122 2h122c2 0 2-3 0-3H120c-2 0-2 3 0 3zm0-41h122m-122 2h122c2 0 2-3 0-3H120c-2 0-2 3 0 3zm-19-6l65-44c6-3 1-12-5-8l-65 44c-6 3-1 12 5 8z" fill="#fff"/><path d="M155 89l115 34c6 2 9-8 3-10L158 79c-7-2-9 8-3 9zm84 119H122a4 4 0 0 0-4 4v25a4 4 0 0 0 4 4h117a4 4 0 0 0 4-4v-25a4 4 0 0 0-4-4zm0 38H123a4 4 0 0 0-4 4v26a4 4 0 0 0 4 4h116a4 4 0 0 0 4-4v-26a4 4 0 0 0-4-4z" fill="#fff"/><g fill="#fff"><path d="M239 169H123a4 4 0 0 0-4 4v25a4 4 0 0 0 4 4h116a4 4 0 0 0 4-4v-25a4 4 0 0 0-4-4z"/><path d="M193 180a4 4 0 0 0-1-1 3 3 0 0 0-2-1 3 3 0 0 0-2 1 4 4 0 0 0-1 1 11 11 0 0 0-1 3 35 35 0 0 0 0 6l1 3a5 5 0 0 0 1 2 3 3 0 0 0 2 0h1l2-2a9 9 0 0 0 0-3 36 36 0 0 0 0-6 10 10 0 0 0 0-3z"/></g><g fill="#fff"><path d="M239 130H123a4 4 0 0 0-4 4v26a4 4 0 0 0 4 4h116a4 4 0 0 0 4-4v-26a4 4 0 0 0-4-4z"/><path d="M193 141a4 4 0 0 0-1-2 3 3 0 0 0-2-1 3 3 0 0 0-2 1 4 4 0 0 0-1 2 11 11 0 0 0-1 2 35 35 0 0 0 0 7l1 2a5 5 0 0 0 1 2 3 3 0 0 0 2 1l1-1 2-2a9 9 0 0 0 0-2 36 36 0 0 0 0-7 10 10 0 0 0 0-2z"/></g><g fill="#fff"><path d="M153 104a5 5 0 0 0-1-2 5 5 0 0 0-3 0 4 4 0 0 0-1 0v15h1a5 5 0 0 0 2 0 5 5 0 0 0 2-2l1-2a19 19 0 0 0 0-7 8 8 0 0 0-1-2z"/><path d="M239 115l-83-25h-4l-29 20c-4 2-4 3-4 5v5a4 4 0 0 0 4 5h116a4 4 0 0 0 4-4v-2c0-2-1-3-4-4z"/></g><g fill="#fff"><path d="M99 281h2c1 0 3-1 3-3s-2-4-3-4h-2c-2 0-4 2-4 4s2 3 4 3zm-25 6h16c4 0 4-7 0-7H74c-5 0-5 7 0 7z"/><path d="M86 276h15c5 0 5-7 0-7H86c-5 0-5 7 0 7zm8 16h6c2 0 4-2 4-4s-2-3-4-3h-6c-2 0-3 1-3 3s1 4 3 4zm-6-31h-9c-4 0-4 7 0 7h9c5 0 5-7 0-7zm13-16H85c-4 0-4 7 0 7h16c5 0 5-7 0-7z"/><path d="M100 250h-6c-1 0-3 1-3 3s2 4 3 4h6c2 0 4-2 4-4s-2-3-4-3zm-19-4h-3c-2 0-4 2-4 4s2 3 4 3h3c2 0 3-1 3-3s-1-4-3-4zm17 22h2c2 0 4-2 4-4s-2-3-4-3h-2c-2 0-3 1-3 3s1 4 3 4zm-20 17h-2c-2 0-4 1-4 3s2 4 4 4h2c2 0 3-2 3-4s-1-3-3-3zm-6-40h32c2 0 2-3 0-3H72c-2 0-2 3 0 3z"/><path d="M80 252h-6c-2 0-4 2-4 4s2 3 4 3h6c2 0 3-1 3-3s-1-4-3-4zm-1 19h-6c-2 1-3 2-3 4s1 3 3 3h6c2 1 3-1 3-3s-1-4-3-4zm179-26h32c2 0 2-3 0-3h-32c-2 0-2 3 0 3zm21 31h9c5 1 5-6 0-6h-9c-4 0-4 7 0 7zm-18 16h16c4 0 4-7 0-7h-16c-5 0-5 7 0 7zm0-12h6c2 1 3-1 3-3s-1-4-3-4h-6c-2 1-4 2-4 4s2 3 4 3z"/><path d="M274 287h2c2 0 4-1 4-3s-2-4-4-4h-2c-2 0-3 2-3 4s1 3 3 3zm-6-23h-6c-1 0-3 2-3 4s2 3 3 3h6c2 0 4-1 4-3s-2-4-4-4zm-5-14h-2c-2 0-4 1-4 3s2 4 4 4h2c2 0 3-2 3-4s-1-3-3-3zm24 3h-16c-5 0-5 7 0 7h16c4 0 4-7 0-7z"/><path d="M278 261h-16c-4 0-4 7 0 7h15c5 0 5-7 1-7zm6-13h-6c-2 0-4 1-4 3s2 4 4 4h6c2 0 3-2 3-4s-1-3-3-3zm-17-3h-6c-2 0-4 1-4 3s2 4 4 4h6c1 0 3-2 3-4s-2-3-3-3zm22 34h-6c-2 0-4 1-4 3s2 4 4 4h6c1 0 3-2 3-4s-2-3-3-3z"/><path d="M288 245h-6c-2 0-4 1-4 3s2 4 4 4h6c2 0 3-2 3-4s-1-3-3-3zm-2 47h2c2 0 3-2 3-4s-1-3-3-3h-2c-2 0-4 1-4 3s2 4 4 4z"/></g></svg>