<svg xmlns="http://www.w3.org/2000/svg" width="361" height="361"><path d="M258.3 237.3h31.9c1.9 0 1.9-3 0-3h-31.9c-1.9 0-1.9 3 0 3zm21 31.1h9c4.5 0 4.5-7 0-7h-9c-4.6 0-4.6 7 0 7zm-18.7 15.3h16c4.5 0 4.5-7 0-7h-16c-4.5 0-4.5 7 0 7zm.3-11.2h6c2 0 3.5-1.7 3.5-3.6s-1.6-3.4-3.5-3.4h-6c-1.9 0-3.5 1.5-3.5 3.4s1.6 3.6 3.5 3.6z" fill="#fff"/><path d="M274.3 279.4h2c1.8 0 3.4-1.5 3.4-3.5s-1.5-3.5-3.4-3.5h-2c-2 0-3.6 1.6-3.6 3.5s1.7 3.5 3.6 3.5zm-5.9-23h-6c-1.9 0-3.5 1.6-3.5 3.5s1.6 3.5 3.5 3.5h6c2 0 3.5-1.5 3.5-3.5s-1.6-3.5-3.5-3.5zm-5.6-14.8h-2c-1.9 0-3.5 1.6-3.5 3.5s1.6 3.5 3.5 3.5h2c2 0 3.5-1.6 3.5-3.5s-1.6-3.5-3.5-3.5zm23.7 3h-16c-4.5 0-4.5 7 0 7h16c4.5 0 4.5-7 0-7z" fill="#fff"/><path d="M277.5 252.6h-15.3c-4.5 0-4.5 7 0 7h15.3c4.5 0 4.5-7 0-7zm6.3-13h-6c-1.9 0-3.5 1.6-3.5 3.5s1.6 3.5 3.5 3.5h6c2 0 3.5-1.6 3.5-3.5s-1.6-3.5-3.5-3.5zm-17.3-3h-6c-1.9 0-3.5 1.6-3.5 3.5s1.6 3.5 3.5 3.5h6c1.9 0 3.5-1.6 3.5-3.5s-1.6-3.5-3.5-3.5zm-3.6 48.1h-2c-1.9 0-3.5 1.6-3.5 3.5s1.6 3.5 3.5 3.5h2c2 0 3.5-1.6 3.5-3.5s-1.6-3.5-3.5-3.5zm24.7 0h-16c-4.5 0-4.5 7 0 7h16c4.5 0 4.5-7 0-7zm.9-14.3h-6c-1.9 0-3.5 1.6-3.5 3.5s1.6 3.5 3.5 3.5h6c1.9 0 3.5-1.5 3.5-3.5s-1.6-3.5-3.5-3.5z" fill="#fff"/><path d="M287.8 236.6h-6c-1.9 0-3.5 1.6-3.5 3.5s1.6 3.5 3.5 3.5h6c2 0 3.5-1.6 3.5-3.5s-1.6-3.5-3.5-3.5z" fill="#fff"/><g fill="#fff"><path d="M98.5 273.4h2c1.9 0 3.5-1.5 3.5-3.5s-1.6-3.5-3.5-3.5h-2c-1.9 0-3.5 1.6-3.5 3.5s1.6 3.5 3.5 3.5zm-24.7 6h16c4.6 0 4.6-7 0-7h-16c-4.5 0-4.5 7 0 7z"/><path d="M85.8 268.4h15.3c4.5 0 4.5-7 0-7H85.8c-4.5 0-4.5 7 0 7zm-12.3 23.3h6c1.9 0 3.5-1.6 3.5-3.5s-1.6-3.5-3.5-3.5h-6c-2 0-3.5 1.6-3.5 3.5s1.5 3.5 3.5 3.5zm20.7-6h6c1.9 0 3.5-1.6 3.5-3.5s-1.6-3.5-3.5-3.5h-6c-2 0-3.5 1.6-3.5 3.5s1.6 3.5 3.5 3.5zm-6.1-33h-9c-4.5 0-4.5 7 0 7h9c4.5 0 4.5-7 0-7zm13-16H85c-4.5 0-4.5 7 0 7h16c4.5 0 4.5-7 0-7z"/><path d="M100.4 241.6h-6c-1.9 0-3.5 1.6-3.5 3.5s1.6 3.5 3.5 3.5h6c2 0 3.5-1.6 3.5-3.5s-1.6-3.5-3.5-3.5zM80.7 238h-3.2c-2 0-3.5 1.6-3.5 3.5s1.6 3.5 3.5 3.5h3.2c2 0 3.5-1.5 3.5-3.5s-1.6-3.5-3.5-3.5zm17.6 21.7h2c1.9 0 3.5-1.6 3.5-3.5s-1.6-3.5-3.5-3.5h-2c-2 0-3.5 1.6-3.5 3.5s1.6 3.5 3.5 3.5zm2.2 25.1h-6c-2 0-3.5 1.6-3.5 3.5s1.6 3.5 3.5 3.5h6c1.9 0 3.5-1.6 3.5-3.5s-1.6-3.5-3.5-3.5zm-16-3.5h-2c-1.8 0-3.4 1.6-3.4 3.5s1.6 3.5 3.5 3.5h2c1.9 0 3.5-1.6 3.5-3.5s-1.6-3.5-3.5-3.5zm-12.3-44H104c2 0 2-3 0-3H72.2c-2 0-2 3 0 3z"/><path d="M79.8 244.2h-6c-1.9 0-3.5 1.6-3.5 3.5s1.6 3.5 3.5 3.5h6c2 0 3.5-1.6 3.5-3.5s-1.6-3.5-3.5-3.5zm-1 19.3h-5.5c-1.9 0-3.5 1.5-3.5 3.4s1.6 3.6 3.5 3.6h5.5c2 0 3.5-1.7 3.5-3.6s-1.6-3.4-3.5-3.4z"/></g><g fill="#fff"><path d="M173.8 114.8a4.8 4.8 0 0 0-1.6-1.8 4.6 4.6 0 0 0-2.6-.7h-.7a3.7 3.7 0 0 0-.7 0v16.2h.9c1 0 2-.2 2.7-.6a4.9 4.9 0 0 0 1.8-1.7c.4-.7.8-1.6 1-2.6a19.5 19.5 0 0 0 0-6.3 8.5 8.5 0 0 0-.8-2.6z"/><path d="M238.9 115l-82.7-24.7a5.8 5.8 0 0 0-4 .2l-29.4 19.6c-4 2.7-4 2.8-4 5v20.3a4 4 0 0 0 4 4h116.1a4 4 0 0 0 4-4v-16.3c0-2.2-1.2-3-4-4zm-60 11.3a10 10 0 0 1-2.4 3.8 8.8 8.8 0 0 1-3.5 2.2 14.1 14.1 0 0 1-4.5.6 22.7 22.7 0 0 1-5-.5V109a23.9 23.9 0 0 1 3-.5 33 33 0 0 1 2.7-.1c1.5 0 3 .2 4.3.7a8 8 0 0 1 3.3 2.2c.9 1 1.6 2.2 2.1 3.8.5 1.5.8 3.4.8 5.5 0 2.3-.3 4.1-.9 5.7zm9 .7a4.5 4.5 0 0 0 4 2 12.1 12.1 0 0 0 2-.2v-8.7h4.7v12a22 22 0 0 1-7 1c-1.5 0-2.9-.2-4-.8-1.3-.5-2.3-1.3-3.2-2.3s-1.5-2.4-2-4a19.3 19.3 0 0 1 .2-10.8 11.7 11.7 0 0 1 2.2-4 8.9 8.9 0 0 1 3.3-2.3 10.4 10.4 0 0 1 4-.8c1 0 1.8 0 2.5.2a15.5 15.5 0 0 1 2 .5l1.3.6.8.4-1.2 3.8a9.9 9.9 0 0 0-2.1-1 7.8 7.8 0 0 0-2.6-.4 6 6 0 0 0-2.9.7 5.3 5.3 0 0 0-1.9 1.7c-.5.7-.8 1.6-1 2.6a16 16 0 0 0-.4 3.4c0 2.9.5 5 1.4 6.4z"/></g><path d="M155 88.5l115.3 34.2c6.1 1.9 8.8-7.8 2.6-9.6L157.7 78.8c-6.2-1.8-8.9 7.8-2.7 9.7z" fill="#fff"/><path d="M100.6 123.4l65.7-44c5.3-3.6.3-12.3-5-8.7l-65.8 44c-5.3 3.6-.3 12.3 5.1 8.7z" fill="#fff"/><path d="M244.5 281.6c.1-.6 3-.4.3-.4H116.1c-2.2 0 1 .2 1 1.6V110l-2.5 4.3L155.2 87l-3.8.5 70.9 21.5 17 5.1 4.3 1.4c1.9.5.7.5.7-1.2V283c0 6.4 10 6.4 10 0V114.4c0-8.9-15-10.7-21.6-12.7l-77.4-23.4c-3.3-1-5.4.3-8 2a177109 177109 0 0 1-35 23.4c-2.6 1.7-5.3 3.2-5.3 6.8V283c0 10.7 14.7 8.2 21.5 8.2h107.9c6.5 0 16 1.7 17.7-7 1.3-6.2-8.4-8.9-9.6-2.6z" fill="#fff"/><path fill="#fff" d="M119.5 189.1H242m-122.5 1.5H242c2 0 2-3 0-3H119.5c-2 0-2 3 0 3zm0 45.2H242m-122.5 1.4H242c2 0 2-3 0-3H119.5c-2 0-2 3 0 3zm0-94.7l123.3.3M119.5 144l123.3.3c2 0 2-3 0-3l-123.3-.3c-1.9 0-1.9 3 0 3z"/></svg>