<svg xmlns="http://www.w3.org/2000/svg" width="361" height="361"><path d="M264 237a27 27 0 0 1-19 25l-12 1H125a27 27 0 0 1-26-18l-1-12V125c0-12 8-22 18-26l13-1h108c12 0 22 8 25 18 2 4 2 8 2 12v109c0 6 10 6 10 0V128c0-15-6-29-21-37-10-4-20-3-30-3h-98c-9 0-17 3-24 8-11 9-13 22-13 36v87c0 9-1 18 1 27 5 18 21 27 38 27h110a37 37 0 0 0 36-36c1-7-9-7-10 0z" fill="#fff"/><path d="M236 205a789939 789939 0 0 1-29-29v7l23-23c3-3 7-6 9-10 3-8-2-14-8-20-5-5-10-10-18-9-5 1-9 6-12 9l-24 24h7l-23-23c-3-3-6-7-10-9-9-4-15 2-21 7-5 6-10 10-8 19 0 5 5 9 9 12l23 23v-7l-23 23-9 11c-3 8 2 14 8 20s10 10 18 9c5-1 9-6 12-9l24-24h-7l29 29c3 3 7 5 12 4s8-4 11-7 6-5 8-9c4-6 3-12-1-18-5-5-12 3-7 7 4 5-7 12-10 15-4 5-7 0-10-3l-25-25a5 5 0 0 0-7 0l-19 19-9 10c-5 4-8-1-11-4s-10-8-5-12l8-9 20-20a5 5 0 0 0 0-7l-19-19-9-9c-4-4 1-8 4-11s7-9 11-5l9 9 20 20a5 5 0 0 0 7 0l19-20 9-9c5-4 8 1 11 4s10 7 5 12l-8 8-20 21a5 5 0 0 0 0 7l29 29c4 4 11-3 7-8z" fill="#fff"/></svg>