<svg xmlns="http://www.w3.org/2000/svg" width="361" height="361"><path d="M103.3 124v150a4.8 4.8 0 0 0 4.7 4.9h139c2.6 0 4.7-2.2 4.7-5V112a4.8 4.8 0 0 0-4.7-5l-139 12a4.8 4.8 0 0 0-4.7 5z" fill="#fff"/><path d="M90 284c1.5 9.7 13.6 7.5 20.6 7.5h129.7c6 0 14.8 1.6 20.4-1.4 5.7-3 4-14 4-19.3V97.9c0-2.5-2.3-5.2-5-5L112 106c-5.2.5-18-.3-20.7 5.3-2.8 5.6-1.4 13.7-1.4 19.7v151.7c0 6.4 10 6.4 10 0V117.4c0-2.1.3-.3-1.3-.2l18.3-1.6 91-8 51.8-4.7-5-5v184.7c0-1.1 2.1-1 .4-1h-156c-1.2 0 .6 0 .6-.3-1-6.3-10.6-3.6-9.7 2.7z" fill="#fff"/><path d="M283.4 90.7l-146.6 12.7-58.6 5.1c-6.4.6-6.5 10.6 0 10l146.6-12.7 58.6-5.1c6.3-.6 6.4-10.6 0-10z" fill="#fff"/></svg>