<svg xmlns="http://www.w3.org/2000/svg" width="361" height="361"><path d="M175.5 75.9v.2a5 5 0 0 0 2.5 4.3 5 5 0 0 0 2.5.7 5 5 0 0 0 2.6-.7v-.1a5 5 0 0 0 2.6-4.3 5 5 0 0 0-.7-2.5 5 5 0 0 0-1.8-1.8l-.1-.1c-1-.8-2.7-.9-3.9-.5a5 5 0 0 0-3 2.3 5 5 0 0 0-.5 3.8l.5 1.2a5 5 0 0 0 1.8 1.8l.1.1v-8.6h-.1l7.5 4.4v-.2a5 5 0 0 0-5-5 5 5 0 0 0-5 5z" fill="#fff"/><path d="M97.6 144.3H112l-5-5v141.6c0 4.8 1.5 9.2 6.8 10.3 2.2.5 4.6.2 6.7.2h120.8c2.5 0 5 .1 7.5-.4 4.8-1 5.5-6.3 5.5-10.4V139.3l-5 5h14.8c5.4 0 6.2-6.5 2.5-9.3L183 71.8a4.8 4.8 0 0 0-5 0L95 135c-5.1 3.8-.1 12.5 5 8.6l83-63.2h-5l83.6 63.2 2.6-9.3h-14.8a5 5 0 0 0-5 5V283c0-1.2 3.2-1.6 1-1.6H116.6c-2.8 0 .4-.3.4 1.8v-144a5 5 0 0 0-5-5H97.6c-6.5 0-6.5 10 0 10z" fill="#fff"/><path d="M266.7 135l-30.8-23.4c-5.1-3.9-10 4.8-5 8.7l16 12.2 10.7 8.1c2 1.5 4 3.7 6.6 3.7 6.4 0 6.4-10 0-10 2.4 0 3 1.1 1.1-.3l-3.3-2.5-10.8-8.2-15.3-11.7-5 8.7 30.7 23.3c5.2 3.9 10.2-4.8 5-8.6zm-88.4-63.4h-.2l-1 .8a5 5 0 0 0-.7 6.1 5 5 0 0 0 3 2.3c1.1.3 2.8.3 3.8-.5l.1-.1 1-.8a5 5 0 0 0 1.3-2.2 5 5 0 0 0-.5-3.8 5 5 0 0 0-3-2.3c-1.1-.4-2.8-.3-3.8.5zm60 100.5h-115a4 4 0 0 0-3.9 4v42.3a4 4 0 0 0 4 4h115a4 4 0 0 0 4-4v-42.3a4 4 0 0 0-4-4zm-118.8-3H242m-122.5 1.5H242c2 0 2-3 0-3H119.5c-2 0-2 3 0 3zm0 55.1H242m-122.5 1.6H242c2 0 2-3 0-3H119.5c-2 0-2 3 0 3zm138.8 0h31.9c2 0 2-3 0-3h-31.9c-1.9 0-1.9 3 0 3zm-186.1 0H104c2 0 2-3 0-3H72.2c-2 0-2 3 0 3z" fill="#fff"/></svg>