<svg xmlns="http://www.w3.org/2000/svg" width="361" height="361"><path d="M223.4 209.4c2 2 4.2 3.2 4.9 2.6l20.3-20.3c.6-.6-.5-2.8-2.6-4.9l-73-73.1c-2-2-4.3-3.2-5-2.6l-20.2 20.3c-.7.6.5 2.8 2.6 5l73 73z" fill="none" stroke="#fff" stroke-width="10" stroke-miterlimit="10"/><path d="M124.9 117.1l-17.5 131c-.4 2.5 2.5 5.3 5 5l131-17.5c4-.5 6.9-5.1 3.5-8.5a5173108.1 5173108.1 0 0 0-104.8-104.8l-8.7-8.7c-4.6-4.6-11.6 2.5-7 7L231 225.4l8.7 8.7 3.6-8.5-131 17.5 5 5 17.5-131c.8-6.4-9.2-6.3-10 0z" fill="#fff"/></svg>