<svg xmlns="http://www.w3.org/2000/svg" width="361" height="361"><path d="M245 228c0 9 0 16-4 23a27 27 0 0 1-23 13H109c-16 0-29-11-29-27V127c0-15 10-29 27-29h109c16 0 29 11 29 27 0 6 10 6 10 0a37 37 0 0 0-37-37H108c-18 0-34 12-38 30v121c0 11 6 21 15 28 10 7 21 7 33 7h88c8 0 18 1 26-3a37 37 0 0 0 21-21c2-7 2-14 2-22 0-6-10-6-10 0z" fill="#fff"/><path d="M220 231l34-45h-8l34 45 5-8h-69c-7 0-7 10 0 10h69c3 0 6-4 4-7l-35-45c-2-4-6-4-8 0l-35 45c-4 5 5 10 9 5zm-63-110v121c0 6 10 6 10 0V121c0-7-10-7-10 0z" fill="#fff"/></svg>