<svg xmlns="http://www.w3.org/2000/svg" width="361" height="361"><path d="M77 125l64-43c5-4 0-12-5-9l-64 43c-5 4 0 12 5 9z" fill="#fff"/><path d="M277 279H86c-2 0-1 0-1-1V117l-3 5 60-40h-4l136 41 3 1v155c0 6 10 6 10 0V132c0-8 1-15-9-18l-22-7-89-26-25-8c-3-1-5 0-7 2l-14 9-38 25c-3 2-8 5-8 8v159c0 4 0 8 3 11 3 2 6 2 9 2h187c7 0 12-3 13-10 1-6-9-6-10 0zM91 210h180" fill="#fff"/><path d="M91 211h180c2 0 2-3 0-3H91c-2 0-2 3 0 3zm0-68h180m-180 1h180c2 0 2-3 0-3H91c-2 0-2 3 0 3zm47-62l140 42 7 2c7 2 9-8 3-10L148 75l-7-3c-7-1-9 8-3 10z" fill="#fff"/><g fill="#fff"><path d="M151 112a6 6 0 0 0-2-3h-4a4 4 0 0 0-1 0v19h2l3-1a6 6 0 0 0 2-2l1-3a22 22 0 0 0 0-7 10 10 0 0 0-1-3z"/><path d="M267 126L144 90h-5l-45 30c-4 3-4 3-4 6v6a5 5 0 0 0 4 5h172a5 5 0 0 0 5-4v-2c0-3-1-4-4-5zm-110-1a12 12 0 0 1-3 4 10 10 0 0 1-4 3l-5 1a27 27 0 0 1-3 0 29 29 0 0 1-3-1v-27a28 28 0 0 1 3-1 39 39 0 0 1 4 0l5 1a10 10 0 0 1 4 2 12 12 0 0 1 2 5l1 6a22 22 0 0 1-1 7zm11 1a5 5 0 0 0 4 2 14 14 0 0 0 3 0v-10h5v14a26 26 0 0 1-8 1 12 12 0 0 1-5-1l-3-3-3-4a23 23 0 0 1-1-7l1-6 3-5a11 11 0 0 1 4-3l5-1a16 16 0 0 1 5 1l1 1 1 1-1 4-3-1a9 9 0 0 0-3-1 7 7 0 0 0-3 1 6 6 0 0 0-2 2l-1 3a19 19 0 0 0-1 4l2 8z"/></g></svg>