<svg xmlns="http://www.w3.org/2000/svg" width="361" height="361"><g fill="#fff"><path d="M178 80l84 63 2-9h-83c-7 0-7 10 0 10h83c6 0 6-6 3-9l-84-64c-5-4-10 5-5 9z"/><path d="M266 135l-83-64a5 5 0 0 0-5 0l-83 64c-4 2-3 9 3 9h166c6 0 6-10 0-10H98l2 9 83-63h-5l83 63c5 4 10-4 5-8z"/></g><path d="M245 282c0-1 3-1 0-1H116c-2 0 1 1 1 2V143c0-2-3 1-2 1h131s-2-3-2-1v140c0 6 10 6 10 0V144c0-10-8-10-15-10H119c-4 0-8 0-10 3s-2 6-2 9v123c0 7-2 20 7 22h129c5 0 10 0 11-7 1-6-8-9-10-2zm-125-93h122" fill="#fff"/><path d="M120 191h122c2 0 2-3 0-3H120c-2 0-2 3 0 3zm0 45h122m-122 1h122c2 0 2-3 0-3H120c-2 0-2 3 0 3z" fill="#fff"/><g fill="#fff"><path d="M174 160a5 5 0 0 0-1-2 3 3 0 0 0-2 0 3 3 0 0 0-2 0l-1 2a11 11 0 0 0-1 3 38 38 0 0 0 0 7l1 3 1 1a3 3 0 0 0 2 1 3 3 0 0 0 2-1l1-1 1-3a38 38 0 0 0 0-7l-1-3z"/><path d="M238 146H123a4 4 0 0 0-4 4v32a4 4 0 0 0 4 4h115a4 4 0 0 0 4-4v-32a4 4 0 0 0-4-4zm-61 30a8 8 0 0 1-6 3c-3 0-5-1-7-3l-2-10c0-5 1-7 2-9a8 8 0 0 1 7-3c3 0 5 1 7 3l2 9-2 10zm11-3a5 5 0 0 0 4 2 12 12 0 0 0 2 0v-9h5v12a23 23 0 0 1-7 1h-4a8 8 0 0 1-3-3 12 12 0 0 1-2-4 20 20 0 0 1-1-6 17 17 0 0 1 1-5 12 12 0 0 1 2-4 9 9 0 0 1 4-3 11 11 0 0 1 4 0 14 14 0 0 1 4 0l2 1-1 4a9 9 0 0 0-2-1 8 8 0 0 0-3 0h-3a6 6 0 0 0-2 2l-1 3a17 17 0 0 0 0 3l1 7z"/></g><path d="M258 237h32c2 0 2-3 0-3h-32c-2 0-2 3 0 3zm-186 0h32c2 0 2-3 0-3H72c-2 0-2 3 0 3z" fill="#fff"/></svg>