<svg xmlns="http://www.w3.org/2000/svg" width="361" height="361"><path d="M175.8 157.7a18.2 18.2 0 0 1-18.1 18.2H93a18.2 18.2 0 0 1-18.2-18.2V93.1A18.2 18.2 0 0 1 93 74.9h64.7a18.2 18.2 0 0 1 18.1 18.2v64.6z" fill="none" stroke="#fff" stroke-width="10" stroke-miterlimit="10"/><path d="M120.6 96.1v58c0 6.5 10 6.5 10 0v-58c0-6.4-10-6.4-10 0z" fill="#fff"/><g fill="#fff"><path d="M144.6 257.2H250c18.3 0 34-10.9 40-28.4 1.8-5.5 1.7-11.4 1.7-17.2v-21.5c0-12.3 1.3-25.5-.8-37.8-3.4-19.6-22-32.2-41-32.2h-48.8c-6.5 0-6.5 10 0 10h50.3c10.9 0 20.6 5.9 26.2 15 6.6 10.8 4.1 27 4.1 39v23.4c0 4.4.4 9-.2 13.5-2.3 16.7-16.8 26.2-32.7 26.2H144.6c-6.5 0-6.5 10 0 10z"/><path d="M147.1 281.9l-44.5-34v8.6l44.5-34-7.5-4.3v68c0 6.4 10 6.4 10 0v-68c0-3.5-4.4-6.7-7.6-4.4l-44.5 34c-3.1 2.5-3.1 6.2 0 8.7l44.5 34c5.2 3.9 10.1-4.8 5-8.6z"/></g></svg>