<svg xmlns="http://www.w3.org/2000/svg" width="361" height="361"><path d="M245 282c0-1 3-1 0-1H116c-2 0 1 0 1 2V110l-2 4 40-27-4 1 71 21 17 5 5 1v-1 169c0 6 10 6 10 0V114c0-8-15-10-21-12l-78-24c-3-1-5 1-8 2a177109 177109 0 0 1-35 24c-2 1-5 3-5 7v172c0 11 15 8 21 8h108c7 0 16 2 18-7 1-6-8-9-10-2zm-125-77h122" fill="#fff"/><path d="M120 207h122c2 0 2-3 0-3H120c-2 0-2 3 0 3zm0 37h122m-122 1h122c2 0 2-3 0-3H120c-2 0-2 3 0 3zm0-79h122m-122 2h122c2 0 2-3 0-3H120c-2 0-2 3 0 3zm0-41h122m-122 2h122c2 0 2-3 0-3H120c-2 0-2 3 0 3zm-19-6l65-44c6-3 1-12-5-8l-65 44c-6 3-1 12 5 8z" fill="#fff"/><path d="M155 89l115 34c6 2 9-8 3-10L158 79c-7-2-9 8-3 9zm84 119H122a4 4 0 0 0-4 4v25a4 4 0 0 0 4 4h117a4 4 0 0 0 4-4v-25a4 4 0 0 0-4-4zm-60 29h-15v-24h14v4h-9v5h8v4h-8v7h10v4zm9-6a4 4 0 0 0 4 2 12 12 0 0 0 1 0v-9h5v12a21 21 0 0 1-7 1l-4-1-3-2-2-4v-11a12 12 0 0 1 3-3l3-3 4-1a13 13 0 0 1 4 1l1 1h1l-1 4a10 10 0 0 0-2-1 8 8 0 0 0-3 0 5 5 0 0 0-4 2 7 7 0 0 0-1 2l-1 4 2 6zm51 15H123a4 4 0 0 0-4 4v26a4 4 0 0 0 4 4h116a4 4 0 0 0 4-4v-26a4 4 0 0 0-4-4zm-64 29a19 19 0 0 0-1-2 33 33 0 0 0-2-3 30 30 0 0 0-2-3 21 21 0 0 0-2-2v10h-5v-23h5v10a62 62 0 0 0 4-5 46 46 0 0 0 1-3l1-2h6a75 75 0 0 1-2 2 40 40 0 0 1-3 6 46 46 0 0 1-3 3l3 3a33 33 0 0 1 2 3 36 36 0 0 1 2 3 25 25 0 0 1 1 4h-5zm13-5a4 4 0 0 0 4 2 12 12 0 0 0 2 0v-9h4v12a21 21 0 0 1-7 1 9 9 0 0 1-7-3 15 15 0 0 1-2-9l1-6a12 12 0 0 1 2-4 9 9 0 0 1 7-3 13 13 0 0 1 4 1l2 1-1 4a10 10 0 0 0-2-1 8 8 0 0 0-2-1 5 5 0 0 0-5 3 7 7 0 0 0-1 2v4l1 6z" fill="#fff"/><g fill="#fff"><path d="M239 169H123a4 4 0 0 0-4 4v25a4 4 0 0 0 4 4h116a4 4 0 0 0 4-4v-25a4 4 0 0 0-4-4zm-79 29h-15v-4h5v-13l-2 1-3 1-1-4a21 21 0 0 0 2 0 30 30 0 0 0 2-2l2-1a12 12 0 0 0 2-1h3v19h4v4zm13-1a4 4 0 0 1-2 1h-2a3 3 0 0 1-2-2 4 4 0 0 1 0-1 3 3 0 0 1 1-3 3 3 0 0 1 1 0 4 4 0 0 1 2 0l2 1a3 3 0 0 1 1 2l-1 3zm23-2a7 7 0 0 1-6 3c-3 0-5-1-7-3a16 16 0 0 1-2-9l2-9a7 7 0 0 1 7-3c2 0 5 1 6 3a16 16 0 0 1 2 9l-2 9zm10-3a4 4 0 0 0 4 2 12 12 0 0 0 2 0v-8h5v11a21 21 0 0 1-7 1h-4l-3-3-2-4-1-5 1-5a12 12 0 0 1 2-4 9 9 0 0 1 3-2 10 10 0 0 1 4-1 13 13 0 0 1 5 0l1 1 1 1-1 3a10 10 0 0 0-2-1 8 8 0 0 0-3 0 5 5 0 0 0-5 2 7 7 0 0 0-1 3v3l1 6z"/><path d="M193 180a4 4 0 0 0-1-1 3 3 0 0 0-2-1 3 3 0 0 0-2 1 4 4 0 0 0-1 1 11 11 0 0 0-1 3 35 35 0 0 0 0 6l1 3a5 5 0 0 0 1 2 3 3 0 0 0 2 0h1l2-2a9 9 0 0 0 0-3 36 36 0 0 0 0-6 10 10 0 0 0 0-3z"/></g><g fill="#fff"><path d="M239 130H123a4 4 0 0 0-4 4v26a4 4 0 0 0 4 4h116a4 4 0 0 0 4-4v-26a4 4 0 0 0-4-4zm-79 28h-16a3 3 0 0 1 0-1l1-4a13 13 0 0 1 2-3 24 24 0 0 1 2-2 141 141 0 0 0 2-2l2-2 1-2-1-3a3 3 0 0 0-2-1l-3 1-2 2-2-3a10 10 0 0 1 3-3 11 11 0 0 1 4-1 8 8 0 0 1 5 2l2 2a7 7 0 0 1 0 5 11 11 0 0 1-1 3 18 18 0 0 1-2 2 45 45 0 0 1-2 2l-1 1a16 16 0 0 0-2 2v1h10v4zm13 0a4 4 0 0 1-2 1h-2a3 3 0 0 1-1-2 4 4 0 0 1-1-2v-1a3 3 0 0 1 1-1 4 4 0 0 1 1-1 4 4 0 0 1 2 0l2 1a3 3 0 0 1 1 2l-1 3zm23-2a7 7 0 0 1-6 3c-3 0-5-1-7-3l-2-9 2-10a7 7 0 0 1 7-3l6 3 2 10-2 9zm10-3a4 4 0 0 0 4 2 12 12 0 0 0 2 0v-9h5v12a21 21 0 0 1-7 1l-4-1-3-2-2-4a19 19 0 0 1-1-6l1-5a12 12 0 0 1 2-4 9 9 0 0 1 3-2 10 10 0 0 1 4-1 13 13 0 0 1 5 1h1l1 1-1 4a10 10 0 0 0-2-1 8 8 0 0 0-3-1 5 5 0 0 0-5 3 7 7 0 0 0-1 2v3l1 7z"/><path d="M193 141a4 4 0 0 0-1-2 3 3 0 0 0-2-1 3 3 0 0 0-2 1 4 4 0 0 0-1 2 11 11 0 0 0-1 2 35 35 0 0 0 0 7l1 2a5 5 0 0 0 1 2 3 3 0 0 0 2 1l1-1 2-2a9 9 0 0 0 0-2 36 36 0 0 0 0-7 10 10 0 0 0 0-2z"/></g><g fill="#fff"><path d="M153 104a5 5 0 0 0-1-2 5 5 0 0 0-3 0 4 4 0 0 0-1 0v15h1a5 5 0 0 0 2 0 5 5 0 0 0 2-2l1-2a19 19 0 0 0 0-7 8 8 0 0 0-1-2z"/><path d="M239 115l-83-25h-4l-29 20c-4 2-4 3-4 5v5a4 4 0 0 0 4 5h116a4 4 0 0 0 4-4v-2c0-2-1-3-4-4zm-81 0a10 10 0 0 1-2 4l-3 2-5 1-2-1a24 24 0 0 1-3 0V98a23 23 0 0 1 3 0 33 33 0 0 1 3-1l4 1a8 8 0 0 1 3 2l2 4 1 6-1 5zm9 1a4 4 0 0 0 4 2 12 12 0 0 0 2 0v-9h5v12a22 22 0 0 1-7 1l-4-1-3-2-2-4a19 19 0 0 1-1-5l1-6a12 12 0 0 1 2-4 9 9 0 0 1 3-2 10 10 0 0 1 4-1 13 13 0 0 1 5 1l1 1h1l-1 4a10 10 0 0 0-2-1 8 8 0 0 0-3-1 5 5 0 0 0-5 3 7 7 0 0 0-1 2v4l1 6z"/></g><g fill="#fff"><path d="M99 281h2c1 0 3-1 3-3s-2-4-3-4h-2c-2 0-4 2-4 4s2 3 4 3zm-25 6h16c4 0 4-7 0-7H74c-5 0-5 7 0 7z"/><path d="M86 276h15c5 0 5-7 0-7H86c-5 0-5 7 0 7zm8 16h6c2 0 4-2 4-4s-2-3-4-3h-6c-2 0-3 1-3 3s1 4 3 4zm-6-31h-9c-4 0-4 7 0 7h9c5 0 5-7 0-7zm13-16H85c-4 0-4 7 0 7h16c5 0 5-7 0-7z"/><path d="M100 250h-6c-1 0-3 1-3 3s2 4 3 4h6c2 0 4-2 4-4s-2-3-4-3zm-19-4h-3c-2 0-4 2-4 4s2 3 4 3h3c2 0 3-1 3-3s-1-4-3-4zm17 22h2c2 0 4-2 4-4s-2-3-4-3h-2c-2 0-3 1-3 3s1 4 3 4zm-20 17h-2c-2 0-4 1-4 3s2 4 4 4h2c2 0 3-2 3-4s-1-3-3-3zm-6-40h32c2 0 2-3 0-3H72c-2 0-2 3 0 3z"/><path d="M80 252h-6c-2 0-4 2-4 4s2 3 4 3h6c2 0 3-1 3-3s-1-4-3-4zm-1 19h-6c-2 1-3 2-3 4s1 3 3 3h6c2 1 3-1 3-3s-1-4-3-4zm179-26h32c2 0 2-3 0-3h-32c-2 0-2 3 0 3zm21 31h9c5 1 5-6 0-6h-9c-4 0-4 7 0 7zm-18 16h16c4 0 4-7 0-7h-16c-5 0-5 7 0 7zm0-12h6c2 1 3-1 3-3s-1-4-3-4h-6c-2 1-4 2-4 4s2 3 4 3z"/><path d="M274 287h2c2 0 4-1 4-3s-2-4-4-4h-2c-2 0-3 2-3 4s1 3 3 3zm-6-23h-6c-1 0-3 2-3 4s2 3 3 3h6c2 0 4-1 4-3s-2-4-4-4zm-5-14h-2c-2 0-4 1-4 3s2 4 4 4h2c2 0 3-2 3-4s-1-3-3-3zm24 3h-16c-5 0-5 7 0 7h16c4 0 4-7 0-7z"/><path d="M278 261h-16c-4 0-4 7 0 7h15c5 0 5-7 1-7zm6-13h-6c-2 0-4 1-4 3s2 4 4 4h6c2 0 3-2 3-4s-1-3-3-3zm-17-3h-6c-2 0-4 1-4 3s2 4 4 4h6c1 0 3-2 3-4s-2-3-3-3zm22 34h-6c-2 0-4 1-4 3s2 4 4 4h6c1 0 3-2 3-4s-2-3-3-3z"/><path d="M288 245h-6c-2 0-4 1-4 3s2 4 4 4h6c2 0 3-2 3-4s-1-3-3-3zm-2 47h2c2 0 3-2 3-4s-1-3-3-3h-2c-2 0-4 1-4 3s2 4 4 4z"/></g></svg>