<svg xmlns="http://www.w3.org/2000/svg" width="361" height="361"><g fill="#fff"><path d="M166 158a5.4 5.4 0 0 0-1.5-2.3c-.6-.5-1.4-.8-2.5-.8s-1.8.3-2.4.9a5.3 5.3 0 0 0-1.4 2.2 13.5 13.5 0 0 0-.7 3.3 45.3 45.3 0 0 0-.2 4 26.2 26.2 0 0 0 .9 7.4c.3 1 .8 1.7 1.4 2.3.6.5 1.4.8 2.4.8s1.8-.3 2.5-.8a5.2 5.2 0 0 0 1.4-2.3c.4-1 .6-2 .7-3.3a45.7 45.7 0 0 0 0-8.1 13.3 13.3 0 0 0-.7-3.3z"/><path d="M243.5 140.3H104.7a4.8 4.8 0 0 0-4.8 5v38.9a4.8 4.8 0 0 0 4.8 5h138.8a5 5 0 0 0 4.8-5v-39a4.8 4.8 0 0 0-4.8-4.9zM170 177a9.1 9.1 0 0 1-8 4 9.2 9.2 0 0 1-8-4c-1.8-2.6-2.7-6.5-2.7-11.6s1-9 2.8-11.7a9.2 9.2 0 0 1 8-4c3.4 0 6.1 1.4 8 4 1.8 2.6 2.7 6.5 2.7 11.7 0 5.1-1 9-2.8 11.6zm13.1-3.7a5.6 5.6 0 0 0 5 2.5 15.3 15.3 0 0 0 2.3-.2v-11h6v15a26.3 26.3 0 0 1-8.8 1.4 12.4 12.4 0 0 1-5-1 10.2 10.2 0 0 1-3.9-3 13.9 13.9 0 0 1-2.4-4.9 23.8 23.8 0 0 1 .1-13.5c.7-2 1.6-3.6 2.8-4.9a11.1 11.1 0 0 1 4-3 13 13 0 0 1 5.1-1 16.6 16.6 0 0 1 5.5 1 8 8 0 0 1 1.7.7l1 .5-1.5 4.8a12 12 0 0 0-2.6-1.2 9.7 9.7 0 0 0-3.2-.6 8 8 0 0 0-3.6.8 6.7 6.7 0 0 0-2.4 2.1 9.2 9.2 0 0 0-1.3 3.3 20.2 20.2 0 0 0-.5 4.3c0 3.5.6 6.2 1.7 7.9z"/></g><path d="M251.8 247.3c0 .2 2 .2 0 .2H96.5c-2 0 .2-.1.2 1.1V117l-2.4 4.3 48.8-32.6-3.9.5 67.6 20.4 38 11.5 6.7 2v125.6c0 6.5 10 6.5 10 0v-112c0-7.3 2.6-21.5-7.4-23.2-7.3-1.2-14.9-4.5-22-6.7L186.7 93l-38.1-11.6-6.6-2c-3.6-1-8.1 3.4-10.7 5.1l-36.8 24.6c-2.8 1.9-7.7 4-7.7 7.9v127.9c0 3.3-.3 7 2.2 9.6 2.8 2.9 5.9 3 9.5 3H249c5.5 0 11.3-.7 12.4-7.5 1-6.3-8.7-9-9.7-2.7zm-150.6-55h147" fill="#fff"/><path d="M101.2 193.9h147c2 0 2-3 0-3h-147c-2 0-2 3 0 3zm0-56.4h147m-147 1.6h147c2 0 2-3 0-3h-147c-2 0-2 3 0 3zm-23.6-7l78.9-52.8c5.3-3.5.3-12.2-5-8.6l-79 52.9c-5.3 3.5-.3 12.2 5.1 8.6z" fill="#fff"/><path d="M143.7 90.2l136 40.4 2.3.7c6.2 1.9 8.9-7.8 2.7-9.6l-136-40.4-2.4-.7c-6.2-1.8-8.8 7.8-2.6 9.6z" fill="#fff"/><g fill="#fff"><path d="M265.7 250.6h24.8c1.9 0 1.9-3 0-3h-24.8c-2 0-2 3 0 3zm17.7 31.2h4.6c1.9 0 3.5-1.6 3.5-3.5s-1.6-3.5-3.5-3.5h-4.6c-2 0-3.5 1.6-3.5 3.5s1.6 3.5 3.5 3.5zm-26.7 10h16c4.5 0 4.5-7 0-7h-16c-4.6 0-4.6 7 0 7z"/><path d="M268.3 285.8h6c1.8 0 3.4-1.6 3.4-3.5s-1.5-3.5-3.4-3.5h-6c-2 0-3.6 1.6-3.6 3.5s1.7 3.5 3.6 3.5zm18.3 6h2c1.9 0 3.5-1.6 3.5-3.5s-1.6-3.5-3.5-3.5h-2c-2 0-3.5 1.6-3.5 3.5s1.6 3.5 3.5 3.5zm-19-20.3h-6c-1.8 0-3.4 1.6-3.4 3.5s1.6 3.5 3.5 3.5h6c1.9 0 3.5-1.6 3.5-3.5s-1.6-3.5-3.5-3.5zm-2-14h-2c-1.8 0-3.4 1.6-3.4 3.5s1.6 3.5 3.5 3.5h2c1.9 0 3.5-1.6 3.5-3.5s-1.6-3.5-3.5-3.5z"/><path d="M288.8 258h-16c-4.5 0-4.5 7 0 7h16c4.5 0 4.5-7 0-7zm-4 8h-15.2c-4.5 0-4.5 7 0 7h15.2c4.5 0 4.5-7 0-7z"/><path d="M288.2 252h-6c-2 0-3.5 1.5-3.5 3.4s1.6 3.5 3.5 3.5h6c1.9 0 3.5-1.5 3.5-3.4s-1.6-3.6-3.5-3.6zm-14.4-2h-6c-1.9 0-3.5 1.5-3.5 3.4s1.6 3.5 3.5 3.5h6c2 0 3.5-1.5 3.5-3.4s-1.6-3.6-3.5-3.6zm-17.7 13.9h-6c-1.9 0-3.5 1.6-3.5 3.5s1.6 3.5 3.5 3.5h6c2 0 3.5-1.6 3.5-3.5s-1.6-3.5-3.5-3.5zm31.7 6h-.6c-2 0-3.5 1.7-3.5 3.6s1.6 3.5 3.5 3.5h.6c2 0 3.5-1.6 3.5-3.5s-1.6-3.5-3.5-3.5zm-214 13h7c4.5 0 4.5-7 0-7h-7c-4.6 0-4.6 7 0 7zm26.5-3h7.7c4.5 0 4.5-7 0-7h-7.7c-4.5 0-4.5 7 0 7zm-3.5-11h15.3c4.5 0 4.5-7 0-7H96.8c-4.5 0-4.5 7 0 7zm25.3 22.9h6c1.9 0 3.5-1.6 3.5-3.5s-1.6-3.5-3.5-3.5h-6c-2 0-3.5 1.6-3.5 3.5s1.6 3.5 3.5 3.5zm124.1-7.5h-9c-4.5 0-4.5 7 0 7h9c4.6 0 4.6-7 0-7z"/><path d="M259.2 268.3h-16c-4.5 0-4.5 7 0 7h16c4.6 0 4.6-7 0-7zM80 251.6h-6c-2 0-3.5 1.6-3.5 3.5s1.6 3.5 3.5 3.5h6c1.9 0 3.5-1.6 3.5-3.5s-1.6-3.5-3.5-3.5zm160.6 9h-3.3c-1.9 0-3.5 1.5-3.5 3.4s1.6 3.5 3.5 3.5h3.3c1.9 0 3.5-1.6 3.5-3.5s-1.6-3.5-3.5-3.5zm-164 12.3h2c2 0 3.6-1.5 3.6-3.4s-1.6-3.6-3.5-3.6h-2c-2 0-3.5 1.7-3.5 3.6s1.6 3.4 3.5 3.4zm17 3.4h-2c-1.8 0-3.4 1.6-3.4 3.5s1.6 3.5 3.5 3.5h2c1.9 0 3.5-1.6 3.5-3.5s-1.6-3.5-3.5-3.5zm-22-25.7h10.8c2 0 2-3 0-3h-11c-2 0-2 3 0 3zm124.7 34.2h-6c-2 0-3.5 1.6-3.5 3.5s1.6 3.5 3.5 3.5h6c1.9 0 3.5-1.6 3.5-3.5s-1.6-3.5-3.5-3.5z"/><path d="M87.8 263.9h-5.5c-1.9 0-3.5 1.6-3.5 3.5s1.6 3.5 3.5 3.5h5.5c2 0 3.5-1.6 3.5-3.5s-1.6-3.5-3.5-3.5zm84.7 3h9c4.5 0 4.5-7 0-7h-9c-4.5 0-4.5 7 0 7zm33.4 25h16c4.5 0 4.5-7 0-7h-16c-4.5 0-4.5 7 0 7zm15.5-14.2h6c1.9 0 3.5-1.6 3.5-3.5s-1.6-3.5-3.5-3.5h-6c-2 0-3.5 1.6-3.5 3.5s1.6 3.5 3.5 3.5z"/><path d="M215.2 288h2c2 0 3.5-1.6 3.5-3.5s-1.6-3.5-3.5-3.5h-2c-1.9 0-3.5 1.6-3.5 3.5s1.6 3.5 3.5 3.5zm-1.4-23.4h-6c-2 0-3.6 1.6-3.6 3.5s1.7 3.5 3.6 3.5h6c1.8 0 3.4-1.6 3.4-3.5s-1.5-3.5-3.4-3.5z"/><path d="M222.8 260.8h-15.2c-4.5 0-4.5 7 0 7h15.2c4.6 0 4.6-7 0-7zm11 17.8h-6c-1.9 0-3.5 1.6-3.5 3.5s1.6 3.5 3.5 3.5h6c2 0 3.5-1.6 3.5-3.5s-1.6-3.5-3.5-3.5zm-98-6.7h-9c-4.4 0-4.4 7 0 7h9c4.6 0 4.6-7 0-7zm17-11.4h-16c-4.6 0-4.6 7 0 7h16c4.4 0 4.4-7 0-7zm-.4 11.3h-6c-1.9 0-3.5 1.6-3.5 3.5s1.6 3.5 3.5 3.5h6c2 0 3.5-1.6 3.5-3.5s-1.6-3.5-3.5-3.5z"/><path d="M139 265.8h-2c-1.8 0-3.4 1.6-3.4 3.5s1.6 3.5 3.5 3.5h2c1.9 0 3.5-1.6 3.5-3.5s-1.6-3.5-3.5-3.5zm5.9 26h6c2 0 3.5-1.6 3.5-3.5s-1.6-3.5-3.5-3.5h-6c-1.9 0-3.5 1.6-3.5 3.5s1.6 3.5 3.5 3.5zm-59-.2H101c4.5 0 4.5-7 0-7H85.8c-4.5 0-4.5 7 0 7z"/><path d="M124.6 271.8h6c1.9 0 3.5-1.6 3.5-3.5s-1.6-3.5-3.5-3.5h-6c-2 0-3.5 1.6-3.5 3.5s1.6 3.5 3.5 3.5zm53.6 4.8h9c4.6 0 4.6-7 0-7h-9c-4.5 0-4.5 7 0 7zm-18.6 15.2h16c4.5 0 4.5-7 0-7h-16c-4.5 0-4.5 7 0 7zm-4.7-8h6c2 0 3.5-1.6 3.5-3.5s-1.6-3.5-3.5-3.5h-6c-1.9 0-3.5 1.6-3.5 3.5s1.6 3.5 3.5 3.5z"/><path d="M173.3 287.6h2c1.8 0 3.4-1.6 3.4-3.5s-1.5-3.5-3.4-3.5h-2c-2 0-3.6 1.6-3.6 3.5s1.7 3.5 3.6 3.5zm-5.7-23h-11.2c-4.5 0-4.5 7 0 7h11.2c4.5 0 4.5-7 0-7zm43 3.2H199c-4.6 0-4.6 7 0 7h11.7c4.5 0 4.5-7 0-7zM192 278.6h-6c-1.9 0-3.5 1.6-3.5 3.5s1.6 3.5 3.5 3.5h6c1.9 0 3.5-1.6 3.5-3.5s-1.6-3.5-3.5-3.5zm-45.1 1.2h16c4.5 0 4.5-7 0-7h-16c-4.5 0-4.5 7 0 7zm-28.9-4.6h-9c-4.5 0-4.5 7 0 7h9c4.5 0 4.5-7 0-7zm5.6-14.7h-3.2c-2 0-3.5 1.6-3.5 3.5s1.6 3.5 3.5 3.5h3.2c2 0 3.5-1.6 3.5-3.5s-1.6-3.5-3.5-3.5zm-24 4.7h-6c-2 0-3.5 1.6-3.5 3.5s1.6 3.5 3.5 3.5h6c1.9 0 3.5-1.6 3.5-3.5s-1.6-3.5-3.5-3.5zM87.3 281h-5.5c-2 0-3.5 1.6-3.5 3.5s1.6 3.5 3.5 3.5h5.5c1.9 0 3.5-1.6 3.5-3.5s-1.6-3.5-3.5-3.5z"/><path d="M189.4 270.9h15.3c4.5 0 4.5-7 0-7h-15.3c-4.5 0-4.5 7 0 7zm-46.3 11h-2c-2 0-3.5 1.6-3.5 3.5s1.6 3.5 3.5 3.5h2c1.9 0 3.5-1.6 3.5-3.5S145 282 143 282zm3.7-10.2h-2c-1.9 0-3.5 1.6-3.5 3.5s1.6 3.5 3.5 3.5h2c2 0 3.5-1.6 3.5-3.5s-1.6-3.5-3.5-3.5zm-41.5 20h5.5c1.9 0 3.5-1.7 3.5-3.6s-1.6-3.5-3.5-3.5h-5.5c-2 0-3.5 1.6-3.5 3.5s1.6 3.5 3.5 3.5zm-32-1h2c2 0 3.5-1.6 3.5-3.5s-1.6-3.5-3.5-3.5h-2c-1.9 0-3.5 1.6-3.5 3.5s1.6 3.5 3.5 3.5zm19.3-8.8h2c1.9 0 3.5-1.5 3.5-3.5s-1.6-3.5-3.5-3.5h-2c-2 0-3.5 1.6-3.5 3.5s1.6 3.5 3.5 3.5z"/><path d="M103.8 272.9h-5.5c-1.9 0-3.5 1.6-3.5 3.5s1.6 3.5 3.5 3.5h5.5c2 0 3.5-1.6 3.5-3.5s-1.6-3.5-3.5-3.5zm147 10.4h2c2 0 3.5-1.6 3.5-3.5s-1.6-3.5-3.5-3.5h-2c-1.9 0-3.5 1.6-3.5 3.5s1.6 3.5 3.5 3.5zm-39.3-10.4h-11.2c-4.5 0-4.5 7 0 7h11.2c4.5 0 4.5-7 0-7zm-128.3-13h-9.9c-4.5 0-4.5 7 0 7h9.9c4.5 0 4.5-7 0-7zm57.3 20.7h-11.2c-4.5 0-4.5 7 0 7h11.2c4.5 0 4.5-7 0-7z"/></g></svg>