<svg xmlns="http://www.w3.org/2000/svg" width="361" height="361"><path d="M263.5 236.7a27 27 0 0 1-18.4 25.3c-4 1.3-8 1.3-12 1.3H124.6a26.9 26.9 0 0 1-25.3-18.5c-1.3-4-1.2-8-1.2-12V124.5c0-11.6 7.5-21.7 18.4-25.3 4-1.4 8-1.3 12-1.3H237c11.6 0 21.7 7.6 25.3 18.4 1.4 4 1.3 8 1.3 12.1v108.3c0 6.4 10 6.4 10 0V128.4c0-15.6-6.1-29.8-20.8-37-9.4-4.5-20.1-3.5-30.2-3.5H125c-8.9 0-16.8 3.1-23.8 8.5-11.3 8.8-13.1 22-13.1 35.2v87c0 9-1 18.8 1.2 27.6 4.2 17.3 20.6 27 37.5 27h109.8a37 37 0 0 0 36.8-36.5c.1-6.5-9.9-6.4-10 0z" fill="#fff"/><path d="M235.7 205.4a789938.6 789938.6 0 0 1-29-29v7l23-23c3.2-3 7-6.1 8.9-10.2 3.8-8.5-1.9-14.6-7.4-20.2-5.5-5.5-10-10.2-18.5-9-4.9.7-8.8 5.8-12.1 9.1L177 153.7h7l-23-23c-3.1-3.1-6.2-7-10.3-8.8-8.5-3.9-14.6 1.8-20.2 7.4-5.5 5.5-10.2 10-9 18.5.7 4.9 5.8 8.8 9.1 12l23.7 23.7v-7l-23 23c-3.2 3-7 6.2-8.9 10.2-3.8 8.5 1.9 14.7 7.4 20.2s10 10.2 18.5 9c5-.7 8.8-5.8 12.1-9l23.6-23.7h-7l28.6 28.6c3.3 3.3 7.7 5 12.3 4.3 4.9-.7 8-3.8 11.2-7.1 2.7-2.7 6.2-5.4 8.3-8.6 3.8-6 2.8-12.8-1.7-18-4.2-5-11.3 2.2-7 7 4.2 5-6.2 12-9.3 15.1-4.2 4.3-7.7-.8-10.7-3.7L184 199.1a5 5 0 0 0-7 0l-19.3 19.3-9.1 9.1c-4.3 4.3-8-1-11-4-2.7-2.7-9.2-7.1-5-11.3l8.8-8.8 20-20a5 5 0 0 0 0-7L142 157.1l-9-9c-4.4-4.4 1-8 3.9-11 2.7-2.8 7.2-9.2 11.3-5l8.8 8.7 20 20a5 5 0 0 0 7 0l19.3-19.3 9.1-9.1c4.3-4.3 8 1 11 4 2.7 2.7 9.2 7.1 5 11.3l-8.8 8.8-20 20a5 5 0 0 0 0 7l29 29c4.6 4.5 11.6-2.6 7-7.1z" fill="#fff"/></svg>