<svg xmlns="http://www.w3.org/2000/svg" width="361" height="361"><path d="M178 79l107 81 2-9H181c-7 0-7 10 0 10h106c6 0 7-7 3-10L183 70c-5-4-10 5-5 9z" fill="#fff"/><path fill="#fff" d="M287 156L181 75 75 156z"/><path d="M290 151L183 70a5 5 0 0 0-5 0L72 151c-4 3-3 10 3 10h212c6 0 6-10 0-10H75l2 9 106-81h-5l107 81c5 4 10-5 5-9z" fill="#fff"/><path d="M264 281H97c1 0 1 2 1-1V161c0-2 0 0-1 0h167l-1-1v122c1 6 11 6 11 0V171c0-8 1-20-10-20H112c-6 0-14-2-20 1-6 4-4 19-4 25v89c0 7-2 23 7 25h154c8 0 23 3 24-8 1-6-8-9-9-2z" fill="#fff"/><path fill="#fff" stroke="#fff" stroke-width="7" stroke-linejoin="round" stroke-miterlimit="10" d="M104 166h154v109H104z"/></svg>