<svg xmlns="http://www.w3.org/2000/svg" width="361" height="361"><g fill="#fff"><path d="M178 80l84 63 2-9h-83c-7 0-7 10 0 10h83c6 0 6-6 3-9l-84-64c-5-4-10 5-5 9z"/><path d="M266 135l-83-64a5 5 0 0 0-5 0l-83 64c-4 2-3 9 3 9h166c6 0 6-10 0-10H98l2 9 83-63h-5l83 63c5 4 10-4 5-8z"/></g><path d="M245 282c0-1 3-1 0-1H116c-2 0 1 1 1 2V143c0-2-3 1-2 1h131s-2-3-2-1v140c0 6 10 6 10 0V144c0-10-8-10-15-10H119c-4 0-8 0-10 3s-2 6-2 9v123c0 7-2 20 7 22h129c5 0 10 0 11-7 1-6-8-9-10-2zm-125-93h122" fill="#fff"/><path d="M120 191h122c2 0 2-3 0-3H120c-2 0-2 3 0 3zm0 45h122m-122 1h122c2 0 2-3 0-3H120c-2 0-2 3 0 3z" fill="#fff"/><g fill="#fff"><path d="M174 110a5 5 0 0 0-2-2l-3-1a4 4 0 0 0-1 0v17h1l3-1a5 5 0 0 0 2-1 8 8 0 0 0 1-3 20 20 0 0 0 0-6 9 9 0 0 0-1-3z"/><path d="M237 126l-54-41a4 4 0 0 0-4 0l-54 41a4 4 0 0 0 2 7h108a4 4 0 0 0 2-7z"/></g><path d="M258 237h32c2 0 2-3 0-3h-32c-2 0-2 3 0 3zm-186 0h32c2 0 2-3 0-3H72c-2 0-2 3 0 3z" fill="#fff"/></svg>