<svg xmlns="http://www.w3.org/2000/svg" width="361" height="361"><g fill="#fff"><path d="M178 80l84 63 2-9h-83c-7 0-7 10 0 10h83c6 0 6-6 3-9l-84-64c-5-4-10 5-5 9z"/><path d="M266 135l-83-64a5 5 0 0 0-5 0l-83 64c-4 2-3 9 3 9h166c6 0 6-10 0-10H98l2 9 83-63h-5l83 63c5 4 10-4 5-8z"/></g><path d="M245 282c0-1 3-1 0-1H116c-2 0 1 1 1 2V143c0-2-3 1-2 1h131s-2-3-2-1v140c0 6 10 6 10 0V144c0-10-8-10-15-10H119c-4 0-8 0-10 3s-2 6-2 9v123c0 7-2 20 7 22h129c5 0 10 0 11-7 1-6-8-9-10-2zm-125-93h122" fill="#fff"/><path d="M120 191h122c2 0 2-3 0-3H120c-2 0-2 3 0 3zm0 45h122m-122 1h122c2 0 2-3 0-3H120c-2 0-2 3 0 3zm118 2H123a4 4 0 0 0-4 4v32a4 4 0 0 0 4 4h115a4 4 0 0 0 4-4v-32a4 4 0 0 0-4-4zm-63 34l-2-3a34 34 0 0 0-1-4 32 32 0 0 0-5-5v12h-5v-25h5v10a61 61 0 0 0 6-8l1-2h5a72 72 0 0 1-5 8 48 48 0 0 1-2 3 33 33 0 0 1 2 3 35 35 0 0 1 3 3 38 38 0 0 1 2 4 26 26 0 0 1 1 3h-5zm13-6l4 2a12 12 0 0 0 2 0v-9h5v12a22 22 0 0 1-7 1l-4-1a9 9 0 0 1-3-2 12 12 0 0 1-2-4 20 20 0 0 1-1-6l1-5a12 12 0 0 1 2-4 9 9 0 0 1 3-3l5-1a14 14 0 0 1 4 1l1 1h1l-1 4a11 11 0 0 0-2-1 8 8 0 0 0-3 0 6 6 0 0 0-5 2l-1 3a17 17 0 0 0 0 3l1 7zm70-30h32c2 0 2-3 0-3h-32c-2 0-2 3 0 3zm-186 0h32c2 0 2-3 0-3H72c-2 0-2 3 0 3z" fill="#fff"/></svg>