<svg xmlns="http://www.w3.org/2000/svg" width="361" height="361"><path d="M178 210v31c0 5 7 5 7 0v-31c0-5-7-5-7 0zm3-53V76l107 81z" fill="#fff"/><path d="M186 157V76l-8 4 107 81 3-9H181c-6 0-6 10 0 10h107c5 0 6-7 2-10L183 71c-3-2-7 1-7 5v81c0 6 10 6 10 0z" fill="#fff"/><g fill="#fff"><path d="M181 157V76L74 157z"/><path d="M186 157V76c0-4-5-7-8-5L71 152c-3 3-2 10 3 10h107c6 0 6-10 0-10H74l3 9 106-81-7-4v81c0 6 10 6 10 0z"/></g><path d="M269 280c0 4-4 7-9 7H102c-5 0-8-3-8-7V151c0-4 175-4 175 0v129z" fill="none" stroke="#fff" stroke-width="10" stroke-miterlimit="10"/><path d="M214 249c0 8-8 9-15 9h-41c-7 0-10-5-10-11v-42c0-6 1-14 9-14h43l8 1c5 1 6 6 6 10v47c0 4 7 4 7 0v-51a16 16 0 0 0-17-14h-41c-5 0-10 0-15 3-6 4-7 10-7 17v38c0 4-1 9 1 13 3 6 9 9 16 9h47c9 1 16-7 16-15 0-5-7-5-7 0z" fill="#fff"/></svg>