<svg xmlns="http://www.w3.org/2000/svg" width="361" height="361"><path d="M244.5 281.6c.1-.6 3-.4.3-.4H116.1c-2.2 0 1 .2 1 1.6V110l-2.5 4.3L155.2 87l-3.8.5 70.9 21.5 17 5.1 4.3 1.4c1.9.5.7.5.7-1.2V283c0 6.4 10 6.4 10 0V114.4c0-8.9-15-10.7-21.6-12.7l-77.4-23.4c-3.3-1-5.4.3-8 2a177109 177109 0 0 1-35 23.4c-2.6 1.7-5.3 3.2-5.3 6.8V283c0 10.7 14.7 8.2 21.5 8.2h107.9c6.5 0 16 1.7 17.7-7 1.3-6.2-8.4-8.9-9.6-2.6zm-125-76.5H242" fill="#fff"/><path d="M119.5 206.6H242c2 0 2-3 0-3H119.5c-2 0-2 3 0 3zm0 37.2H242m-122.5 1.4H242c2 0 2-3 0-3H119.5c-2 0-2 3 0 3zm.4-79h122.4M120 167.5h122.4c2 0 2-3 0-3H119.8c-1.9 0-1.9 3 0 3zm0-40.5h122.4M120 128.6h122.4c2 0 2-3 0-3H119.8c-1.9 0-1.9 3 0 3zm-19.3-5.2l65.7-44c5.3-3.6.3-12.3-5-8.7l-65.7 44c-5.4 3.6-.4 12.3 5 8.7z" fill="#fff"/><path d="M155 88.5l115.3 34.2c6.1 1.9 8.8-7.8 2.6-9.6L157.7 78.8c-6.2-1.8-8.9 7.8-2.7 9.7z" fill="#fff"/><g fill="#fff"><path d="M238.8 168.7H122.7a4 4 0 0 0-4 4v25.6a4 4 0 0 0 4 4h116.1a4 4 0 0 0 4-4v-25.6a4 4 0 0 0-4-4zm-79.3 29.2h-14.3V194h5v-13c-.7.5-1.5 1-2.5 1.4l-2.3.9-1.5-3.9a20.7 20.7 0 0 0 2-.9 29.5 29.5 0 0 0 2.1-1.1l2-1.4a11.8 11.8 0 0 0 1.7-1.5h3.2v19.7h4.6v3.8zm13.5-.4a3.5 3.5 0 0 1-2.4.8c-.4 0-.9 0-1.3-.2a3.3 3.3 0 0 1-1.8-1.7 3.5 3.5 0 0 1-.3-1.5 3.4 3.4 0 0 1 1-2.5 3.4 3.4 0 0 1 1.1-.6 3.6 3.6 0 0 1 1.3-.2c1 0 1.7.3 2.4.9a3 3 0 0 1 1 2.4c0 1.1-.3 2-1 2.6zm22.8-2.2a7.2 7.2 0 0 1-6.2 3.1c-2.7 0-4.8-1-6.3-3a16.2 16.2 0 0 1-2.2-9.3c0-4 .8-7 2.3-9.1a7.3 7.3 0 0 1 6.2-3.1c2.7 0 4.9 1 6.3 3a16 16 0 0 1 2.2 9.2c0 4-.8 7.1-2.2 9.2zm10.4-3a4.4 4.4 0 0 0 3.9 2 12.2 12.2 0 0 0 1.8-.1v-8.6h4.7v11.7a20.8 20.8 0 0 1-6.9 1.1c-1.4 0-2.8-.3-4-.8s-2.1-1.3-3-2.3c-.8-1-1.4-2.3-2-3.8s-.6-3.3-.6-5.4c0-2 .3-3.7.8-5.3a11.5 11.5 0 0 1 2.2-3.8 8.7 8.7 0 0 1 3.2-2.4 10.2 10.2 0 0 1 4-.7 13 13 0 0 1 4.3.6l1.3.6.8.5-1.2 3.7a9.8 9.8 0 0 0-2-1 7.7 7.7 0 0 0-2.6-.4 5.2 5.2 0 0 0-4.7 2.3 7 7 0 0 0-1 2.6c-.2 1-.3 2.1-.3 3.3 0 2.8.4 5 1.3 6.2z"/><path d="M192.6 180.3a4.3 4.3 0 0 0-1-1.7 2.8 2.8 0 0 0-2-.7 2.8 2.8 0 0 0-2 .7 4.2 4.2 0 0 0-1 1.7 11 11 0 0 0-.6 2.6 35.3 35.3 0 0 0 0 6.4c0 1 .3 2 .5 2.6a5 5 0 0 0 1.1 1.8 2.8 2.8 0 0 0 2 .7c.8 0 1.4-.3 1.9-.7s.9-1 1.1-1.8a9 9 0 0 0 .6-2.6 35.7 35.7 0 0 0 0-6.4 10 10 0 0 0-.6-2.6z"/></g><g fill="#fff"><path d="M98.5 281.4h2c1.9 0 3.5-1.5 3.5-3.5s-1.6-3.5-3.5-3.5h-2c-1.9 0-3.5 1.6-3.5 3.5s1.6 3.5 3.5 3.5zm-24.7 6h16c4.6 0 4.6-7 0-7h-16c-4.5 0-4.5 7 0 7z"/><path d="M85.8 276.4h15.3c4.5 0 4.5-7 0-7H85.8c-4.5 0-4.5 7 0 7zm8.6 15.4h6c2 0 3.5-1.6 3.5-3.5s-1.6-3.5-3.5-3.5h-6c-1.9 0-3.5 1.6-3.5 3.5s1.6 3.5 3.5 3.5zm-6.3-31.2h-9c-4.5 0-4.5 7 0 7h9c4.5 0 4.5-7 0-7zm13-16H85c-4.5 0-4.5 7 0 7h16c4.5 0 4.5-7 0-7z"/><path d="M100.4 249.6h-6c-1.9 0-3.5 1.6-3.5 3.5s1.6 3.5 3.5 3.5h6c2 0 3.5-1.6 3.5-3.5s-1.6-3.5-3.5-3.5zM80.7 246h-3.2c-2 0-3.5 1.6-3.5 3.5s1.6 3.5 3.5 3.5h3.2c2 0 3.5-1.5 3.5-3.5s-1.6-3.5-3.5-3.5zm17.6 21.7h2c1.9 0 3.5-1.6 3.5-3.5s-1.6-3.5-3.5-3.5h-2c-2 0-3.5 1.6-3.5 3.5s1.6 3.5 3.5 3.5zm-20.7 17.2h-2c-2 0-3.5 1.6-3.5 3.5s1.6 3.5 3.5 3.5h2c1.9 0 3.5-1.6 3.5-3.5s-1.6-3.5-3.5-3.5zm-6-39.5H104c2 0 2-3 0-3H71.7c-2 0-2 3 0 3z"/><path d="M79.8 252.2h-6c-1.9 0-3.5 1.6-3.5 3.5s1.6 3.5 3.5 3.5h6c2 0 3.5-1.6 3.5-3.5s-1.6-3.5-3.5-3.5zm-1 19.3h-5.5c-1.9 0-3.5 1.5-3.5 3.4s1.6 3.6 3.5 3.6h5.5c2 0 3.5-1.7 3.5-3.6s-1.6-3.4-3.5-3.4zm179.5-26.3h31.9c1.9 0 1.9-3 0-3h-31.9c-1.9 0-1.9 3 0 3zm21 31.3h9c4.5 0 4.5-7 0-7h-9c-4.6 0-4.6 7 0 7zm-18.7 15.2h16c4.5 0 4.5-7 0-7h-16c-4.5 0-4.5 7 0 7zm.3-11.2h6c2 0 3.5-1.7 3.5-3.6s-1.6-3.4-3.5-3.4h-6c-1.9 0-3.5 1.5-3.5 3.4s1.6 3.6 3.5 3.6z"/><path d="M274.3 287.4h2c1.8 0 3.4-1.5 3.4-3.5s-1.5-3.5-3.4-3.5h-2c-2 0-3.6 1.6-3.6 3.5s1.7 3.5 3.6 3.5zm-5.9-23h-6c-1.9 0-3.5 1.6-3.5 3.5s1.6 3.5 3.5 3.5h6c2 0 3.5-1.5 3.5-3.5s-1.6-3.5-3.5-3.5zm-5.6-14.8h-2c-1.9 0-3.5 1.6-3.5 3.5s1.6 3.5 3.5 3.5h2c2 0 3.5-1.6 3.5-3.5s-1.6-3.5-3.5-3.5zm23.7 3h-16c-4.5 0-4.5 7 0 7h16c4.5 0 4.5-7 0-7z"/><path d="M277.5 260.6h-15.3c-4.5 0-4.5 7 0 7h15.3c4.5 0 4.5-7 0-7zm6.3-13h-6c-1.9 0-3.5 1.6-3.5 3.5s1.6 3.5 3.5 3.5h6c2 0 3.5-1.6 3.5-3.5s-1.6-3.5-3.5-3.5zm-17.3-3h-6c-1.9 0-3.5 1.6-3.5 3.5s1.6 3.5 3.5 3.5h6c1.9 0 3.5-1.6 3.5-3.5s-1.6-3.5-3.5-3.5zm22 33.9h-6c-1.9 0-3.5 1.5-3.5 3.5s1.6 3.5 3.5 3.5h6c1.9 0 3.5-1.6 3.5-3.5s-1.6-3.5-3.5-3.5z"/><path d="M287.8 244.6h-6c-1.9 0-3.5 1.6-3.5 3.5s1.6 3.5 3.5 3.5h6c2 0 3.5-1.6 3.5-3.5s-1.6-3.5-3.5-3.5zm-2 47h2c2 0 3.5-1.5 3.5-3.4s-1.6-3.5-3.5-3.5h-2c-1.9 0-3.5 1.6-3.5 3.5s1.6 3.5 3.5 3.5z"/></g></svg>