<svg xmlns="http://www.w3.org/2000/svg" width="361" height="361"><path d="M176 76a5 5 0 0 0 2 4 5 5 0 0 0 3 1 5 5 0 0 0 2-1 5 5 0 0 0 3-4 5 5 0 0 0-1-2 5 5 0 0 0-2-2l-4-1a5 5 0 0 0-3 2 5 5 0 0 0 0 4v1a5 5 0 0 0 2 2v-8l8 4a5 5 0 0 0-5-5 5 5 0 0 0-5 5z" fill="#fff"/><path d="M98 144h14l-5-5v142c0 5 2 9 7 10h135c5-1 5-6 5-10V139l-5 5h15c6 0 6-6 3-9l-84-63a5 5 0 0 0-5 0l-83 63c-5 4 0 13 5 9l83-64h-5l84 64 2-10h-15a5 5 0 0 0-5 5v144c0-1 4-2 1-2H117c-3 0 0 0 0 2V139a5 5 0 0 0-5-5H98c-7 0-7 10 0 10z" fill="#fff"/><path d="M267 135l-31-23c-5-4-10 4-5 8l16 12 11 9 6 3c7 0 7-10 0-10h1l-3-3-11-8-15-11-5 8 31 24c5 3 10-5 5-9zm-89-63h-1a5 5 0 0 0-1 6 5 5 0 0 0 3 3l4-1 1-1a5 5 0 0 0 2-2 5 5 0 0 0-1-4 5 5 0 0 0-3-2l-4 1zm60 157H123a4 4 0 0 0-4 4v42a4 4 0 0 0 4 4h115a4 4 0 0 0 4-4v-42a4 4 0 0 0-4-4zm-63 39l-2-3a34 34 0 0 0-1-4 32 32 0 0 0-5-5v12h-5v-25h5v10a61 61 0 0 0 6-8l1-2h5a72 72 0 0 1-5 8 48 48 0 0 1-2 3 33 33 0 0 1 2 3 35 35 0 0 1 3 3 38 38 0 0 1 2 4 26 26 0 0 1 1 4h-5zm13-6l4 2a12 12 0 0 0 2 0v-9h5v12a22 22 0 0 1-7 1l-4-1a9 9 0 0 1-4-2 12 12 0 0 1-1-4 20 20 0 0 1-1-6l1-5a12 12 0 0 1 2-4 9 9 0 0 1 3-3l5-1a14 14 0 0 1 4 1l1 1h1l-1 4a11 11 0 0 0-2-1 8 8 0 0 0-3 0 6 6 0 0 0-5 2l-1 3a17 17 0 0 0 0 3l1 7zm-68-93h122m-122 2h122c2 0 2-3 0-3H120c-2 0-2 3 0 3zm0 55h122m-122 1h122c2 0 2-3 0-3H120c-2 0-2 3 0 3zm138 0h32c2 0 2-3 0-3h-32c-2 0-2 3 0 3zm-186 0h32c2 0 2-3 0-3H72c-2 0-2 3 0 3z" fill="#fff"/></svg>