<svg xmlns="http://www.w3.org/2000/svg" width="361" height="361"><path d="M82 287a6 6 0 0 1-6-6V80a6 6 0 0 1 6-6h199a6 6 0 0 1 6 6v201a6 6 0 0 1-6 6H82z" fill="none" stroke="#fff" stroke-width="10" stroke-miterlimit="10"/><path d="M82 235c-4 0-6-1-6-3V128c0-1 2-3 6-3h199c3 0 6 2 6 3v104c0 2-3 3-6 3H82z" fill="none" stroke="#fff" stroke-width="10" stroke-miterlimit="10"/><path d="M157 210c0 2-10 1-12 1-1 0-4 1-4-1v-6c0-2 11-1 12-1s4-1 4 1v6c0 2 3 2 3 0v-7c-1-3-4-3-6-3h-10c-3 0-5 0-6 4v7c1 3 3 3 6 3h10c3 0 5 0 6-3 0-2-2-3-3-1zm-54-20h36c6 0 6-10 0-10h-36c-6 0-6 10 0 10z" fill="#fff"/><path d="M134 181a2 2 0 0 1-2 2h-22a2 2 0 0 1-2-2v-26l2-2h22l2 2v26zm138 36a4 4 0 0 1-3 4h-22a4 4 0 0 1-3-4v-9a4 4 0 0 1 3-4h21a4 4 0 0 1 4 4v9z" fill="#fff"/><path d="M271 217c-1 3-6 2-8 2h-11c-2 0-7 1-7-2v-9c0-4 16-2 19-2 2 0 6-1 6 3v8c1 2 4 2 4 0l-1-11c-1-4-5-3-8-3h-15c-4 0-7 0-8 4a36 36 0 0 0 0 10c1 5 5 5 8 5h15c4 0 8 0 8-5 1-1-2-2-3 0zm-167 52c-8 0-8-12 0-13h8c8 0 8 13 0 13h-8c-4 0-4 7 0 7 8 0 15 1 20-7 5-9-2-19-12-20-7 0-15 0-19 7-5 9 2 19 11 20 5 0 5-7 0-7zm48 0c-7 0-7-12 1-13h8c7 0 7 13 0 13h-9c-4 0-4 7 1 7 7 0 15 1 19-7 5-9-2-19-11-20-8 0-16 0-20 7-5 9 2 19 12 20 4 0 4-7 0-7zm49 0c-8 0-8-12 0-13h8c8 0 8 13 0 13h-8c-5 0-5 7 0 7 7 0 15 1 19-7 5-9-2-19-11-20-8 0-16 0-20 7-5 9 2 19 12 20 4 0 4-7 0-7zm48 0c-8 0-8-12 0-13h8c8 0 8 13 0 13h-8c-4 0-4 7 0 7 8 0 15 1 20-7 5-9-2-19-12-20-7 0-15 0-19 7-5 9 2 19 11 20 5 0 5-7 0-7zM104 104c-8 0-8-12 0-13h8c8 0 8 13 0 13h-8c-4 0-4 7 0 7 8 0 15 1 20-7 5-9-2-19-12-20-7 0-15 0-20 7-4 9 3 20 12 20 5 1 5-6 0-7zm48 0c-7 0-7-12 0-13h8c8 0 8 13 0 13h-8c-4 0-4 7 0 7 8 0 16 1 20-7 5-9-2-19-12-20-7 0-15 0-19 7-5 9 2 20 11 20 5 1 5-6 0-7zm49 0c-8 0-8-12 0-13h8c8 0 7 13 0 13h-8c-5 0-5 7 0 7 7 0 15 1 19-7 5-9-2-19-11-20-8 0-16 0-20 7-5 9 2 20 12 20 4 1 4-6 0-7zm48 0c-8 0-8-12 0-13h8c8 0 8 13 0 13h-8c-5 0-5 7 0 7 8 0 15 1 20-7 5-9-2-19-12-20-7 0-15 0-19 7-5 9 2 20 11 20 4 1 4-6 0-7z" fill="#fff"/></svg>