<svg xmlns="http://www.w3.org/2000/svg" width="361" height="361"><g fill="#fff"><path d="M167.7 142.7a5.4 5.4 0 0 0-1.5-2.2c-.6-.5-1.4-.8-2.4-.8s-1.9.3-2.5.8a5.3 5.3 0 0 0-1.4 2.3 13.5 13.5 0 0 0-.7 3.2 45.3 45.3 0 0 0-.1 4.1l.1 4c.1 1.4.4 2.5.7 3.4.3 1 .8 1.7 1.4 2.2.6.6 1.5.8 2.5.8s1.8-.2 2.4-.8a5.2 5.2 0 0 0 1.5-2.2c.3-1 .5-2 .6-3.3a45.7 45.7 0 0 0 0-8.2 13.3 13.3 0 0 0-.6-3.3z"/><path d="M103.3 130v44a4.8 4.8 0 0 0 4.7 4.9h139c2.6 0 4.7-2.2 4.7-5V118a4.8 4.8 0 0 0-4.7-5l-139 12a4.8 4.8 0 0 0-4.7 5zm68.5 31.8a9.1 9.1 0 0 1-8 3.9 9.2 9.2 0 0 1-8-4c-1.9-2.6-2.8-6.4-2.8-11.6s1-9 2.9-11.6a9.2 9.2 0 0 1 7.9-4 9 9 0 0 1 8 4c1.8 2.6 2.8 6.5 2.8 11.6 0 5.2-1 9-2.8 11.7zm13-3.8a5.6 5.6 0 0 0 5 2.5 15.3 15.3 0 0 0 2.4-.2v-10.9h6v15a26.3 26.3 0 0 1-8.8 1.3 12.4 12.4 0 0 1-5-1 10.2 10.2 0 0 1-4-3 13.9 13.9 0 0 1-2.4-4.8 24.1 24.1 0 0 1 .2-13.5 15 15 0 0 1 2.7-5 11.1 11.1 0 0 1 4.1-2.9 13 13 0 0 1 5-1 16.6 16.6 0 0 1 5.6.9 8 8 0 0 1 1.7.7l1 .6-1.6 4.7-2.6-1.2a9.7 9.7 0 0 0-3.2-.5c-1.4 0-2.6.2-3.6.8a6.7 6.7 0 0 0-2.4 2.1 9.2 9.2 0 0 0-1.3 3.3 20.2 20.2 0 0 0-.4 4.2c0 3.6.5 6.2 1.7 8z"/></g><path d="M103.1 190.8v49.6a5 5 0 0 0 4.8 5h139a4.9 4.9 0 0 0 4.9-5v-49.6a5 5 0 0 0-4.8-5H107.9a4.9 4.9 0 0 0-4.8 5zm71 39.8H155v-30.3h18v5h-12v6.8h10.6v5H161v8.5h13.3v5zm11-7.2a5.6 5.6 0 0 0 5 2.6 14.8 14.8 0 0 0 2.4-.2v-11h6v15a26 26 0 0 1-8.8 1.5c-2 0-3.6-.4-5.1-1s-2.8-1.7-3.8-3a14.2 14.2 0 0 1-2.5-5 24.5 24.5 0 0 1-.9-6.9c0-2.6.4-4.8 1-6.8.7-2 1.6-3.7 2.8-5a12 12 0 0 1 9.2-4 16.3 16.3 0 0 1 5.5.9l1.7.7 1 .6-1.6 4.8a11.3 11.3 0 0 0-5.8-1.8 8 8 0 0 0-3.6.8 6.7 6.7 0 0 0-2.4 2.2 9.4 9.4 0 0 0-1.3 3.3c-.3 1.3-.4 2.8-.4 4.3 0 3.7.5 6.3 1.7 8z" fill="#fff"/><path d="M90 250c1.5 9.6 13.6 7.5 20.6 7.5h129.7c6 0 14.8 1.6 20.4-1.4 6.2-3.3 4-16.5 4-22.1V104c0-2.6-2.3-5.3-5-5L112 112c-5.2.5-18-.3-20.7 5.3-1.6 3.1-1.4 5.8-1.4 9.1v122.3c0 6.4 10 6.4 10 0V122.2c0 1-2.2 1.1-.3 1L252 109.5l7.7-.7-5-5v144.4c0 1 2-.8.7-.8H100.2c-2.4 0-.5 0-.5-.2-1-6.3-10.6-3.6-9.7 2.7zm160.3-67.6h-147" fill="#fff"/><path d="M250.3 180.9h-147c-2 0-2 3 0 3h147c2 0 2-3 0-3zm33-84.2l-146.5 12.7-58.6 5.1c-6.4.6-6.5 10.6 0 10l146.6-12.7 58.6-5.1c6.3-.6 6.4-10.6 0-10z" fill="#fff"/><g fill="#fff"><path d="M268.8 250.6h21.7c1.9 0 1.9-3 0-3h-21.7c-1.9 0-1.9 3 0 3zm14.6 31.2h4.6c1.9 0 3.5-1.6 3.5-3.5s-1.6-3.5-3.5-3.5h-4.6c-2 0-3.5 1.6-3.5 3.5s1.6 3.5 3.5 3.5zm-26.7 10h16c4.5 0 4.5-7 0-7h-16c-4.6 0-4.6 7 0 7z"/><path d="M268.3 285.8h6c1.8 0 3.4-1.6 3.4-3.5s-1.5-3.5-3.4-3.5h-6c-2 0-3.6 1.6-3.6 3.5s1.7 3.5 3.6 3.5zm18.3 6h2c1.9 0 3.5-1.6 3.5-3.5s-1.6-3.5-3.5-3.5h-2c-2 0-3.5 1.6-3.5 3.5s1.6 3.5 3.5 3.5zm-19-20.3h-6c-1.8 0-3.4 1.6-3.4 3.5s1.6 3.5 3.5 3.5h6c1.9 0 3.5-1.6 3.5-3.5s-1.6-3.5-3.5-3.5zm-2-12h-2c-1.8 0-3.4 1.6-3.4 3.5s1.6 3.5 3.5 3.5h2c1.9 0 3.5-1.6 3.5-3.5s-1.6-3.5-3.5-3.5z"/><path d="M288.5 258h-15.7c-4.5 0-4.5 7 0 7h15.7c4.5 0 4.5-7 0-7zm-3.7 8h-15.2c-4.5 0-4.5 7 0 7h15.2c4.5 0 4.5-7 0-7z"/><path d="M288.2 252h-5.7c-1.9 0-3.5 1.5-3.5 3.4s1.6 3.5 3.5 3.5h5.7c1.9 0 3.5-1.5 3.5-3.4s-1.6-3.6-3.5-3.6zm-14.7 1.6h-6c-1.9 0-3.5 1.6-3.5 3.5s1.6 3.5 3.5 3.5h6c1.9 0 3.5-1.6 3.5-3.5s-1.6-3.5-3.5-3.5zM256.1 264h-6c-1.9 0-3.5 1.6-3.5 3.5s1.6 3.5 3.5 3.5h6c2 0 3.5-1.6 3.5-3.5s-1.6-3.5-3.5-3.5zm31.7 6h-.6c-2 0-3.5 1.7-3.5 3.6s1.6 3.4 3.5 3.4h.6c2 0 3.5-1.5 3.5-3.4s-1.6-3.6-3.5-3.6zm-214 13h7c4.5 0 4.5-7 0-7h-7c-4.6 0-4.6 7 0 7zm26.5-3h7.7c4.5 0 4.5-7 0-7h-7.7c-4.5 0-4.5 7 0 7zm-3.5-11h15.3c4.5 0 4.5-7 0-7H96.8c-4.5 0-4.5 7 0 7zm25.3 22.9h6c1.9 0 3.5-1.6 3.5-3.5s-1.6-3.5-3.5-3.5h-6c-2 0-3.5 1.6-3.5 3.5s1.6 3.5 3.5 3.5zm124.1-7.5h-9c-4.5 0-4.5 7 0 7h9c4.6 0 4.6-7 0-7z"/><path d="M259.2 268.3h-16c-4.5 0-4.5 7 0 7h16c4.6 0 4.6-7 0-7zM80 251.6h-6c-2 0-3.5 1.6-3.5 3.5s1.6 3.5 3.5 3.5h6c1.9 0 3.5-1.6 3.5-3.5s-1.6-3.5-3.5-3.5zm160.6 9h-3.3c-1.9 0-3.5 1.5-3.5 3.4s1.6 3.5 3.5 3.5h3.3c1.9 0 3.5-1.6 3.5-3.5s-1.6-3.5-3.5-3.5zm-164 12.3h2c2 0 3.6-1.5 3.6-3.4s-1.6-3.6-3.5-3.6h-2c-2 0-3.5 1.7-3.5 3.6s1.6 3.4 3.5 3.4zm17 3.4h-2c-1.8 0-3.4 1.6-3.4 3.5s1.6 3.5 3.5 3.5h2c1.9 0 3.5-1.6 3.5-3.5s-1.6-3.5-3.5-3.5zm-22-25.7h14.7c1.9 0 1.9-3 0-3H71.4c-2 0-2 3 0 3zm124.7 34.2h-6c-2 0-3.5 1.6-3.5 3.5s1.6 3.5 3.5 3.5h6c1.9 0 3.5-1.6 3.5-3.5s-1.6-3.5-3.5-3.5z"/><path d="M87.8 263.9h-5.5c-1.9 0-3.5 1.6-3.5 3.5s1.6 3.5 3.5 3.5h5.5c2 0 3.5-1.6 3.5-3.5s-1.6-3.5-3.5-3.5zm84.7 3h9c4.5 0 4.5-7 0-7h-9c-4.5 0-4.5 7 0 7zm33.4 25h16c4.5 0 4.5-7 0-7h-16c-4.5 0-4.5 7 0 7zm15.5-14.2h6c1.9 0 3.5-1.6 3.5-3.5s-1.6-3.5-3.5-3.5h-6c-2 0-3.5 1.6-3.5 3.5s1.6 3.5 3.5 3.5z"/><path d="M215.2 288h2c2 0 3.5-1.6 3.5-3.5s-1.6-3.5-3.5-3.5h-2c-1.9 0-3.5 1.6-3.5 3.5s1.6 3.5 3.5 3.5zm-1.4-23.4h-6c-2 0-3.6 1.6-3.6 3.5s1.7 3.5 3.6 3.5h6c1.8 0 3.4-1.6 3.4-3.5s-1.5-3.5-3.4-3.5z"/><path d="M222.8 260.8h-15.2c-4.5 0-4.5 7 0 7h15.2c4.6 0 4.6-7 0-7zm11 17.8h-6c-1.9 0-3.5 1.6-3.5 3.5s1.6 3.5 3.5 3.5h6c2 0 3.5-1.6 3.5-3.5s-1.6-3.5-3.5-3.5zm-98-6.7h-9c-4.4 0-4.4 7 0 7h9c4.6 0 4.6-7 0-7zm17-11.4h-16c-4.6 0-4.6 7 0 7h16c4.4 0 4.4-7 0-7zm-.4 11.3h-6c-1.9 0-3.5 1.6-3.5 3.5s1.6 3.5 3.5 3.5h6c2 0 3.5-1.6 3.5-3.5s-1.6-3.5-3.5-3.5z"/><path d="M139 265.8h-2c-1.8 0-3.4 1.6-3.4 3.5s1.6 3.5 3.5 3.5h2c1.9 0 3.5-1.6 3.5-3.5s-1.6-3.5-3.5-3.5zm5.9 26h6c2 0 3.5-1.6 3.5-3.5s-1.6-3.5-3.5-3.5h-6c-1.9 0-3.5 1.6-3.5 3.5s1.6 3.5 3.5 3.5zm-59-.2H101c4.5 0 4.5-7 0-7H85.8c-4.5 0-4.5 7 0 7z"/><path d="M124.6 271.8h6c1.9 0 3.5-1.6 3.5-3.5s-1.6-3.5-3.5-3.5h-6c-2 0-3.5 1.6-3.5 3.5s1.6 3.5 3.5 3.5zm53.6 4.8h9c4.6 0 4.6-7 0-7h-9c-4.5 0-4.5 7 0 7zm-18.6 15.2h16c4.5 0 4.5-7 0-7h-16c-4.5 0-4.5 7 0 7zm-4.7-8h6c2 0 3.5-1.6 3.5-3.5s-1.6-3.5-3.5-3.5h-6c-1.9 0-3.5 1.6-3.5 3.5s1.6 3.5 3.5 3.5z"/><path d="M173.3 287.6h2c1.8 0 3.4-1.6 3.4-3.5s-1.5-3.5-3.4-3.5h-2c-2 0-3.6 1.6-3.6 3.5s1.7 3.5 3.6 3.5zm-5.7-23h-11.2c-4.5 0-4.5 7 0 7h11.2c4.5 0 4.5-7 0-7zm43 3.2H199c-4.6 0-4.6 7 0 7h11.7c4.5 0 4.5-7 0-7zM192 278.6h-6c-1.9 0-3.5 1.6-3.5 3.5s1.6 3.5 3.5 3.5h6c1.9 0 3.5-1.6 3.5-3.5s-1.6-3.5-3.5-3.5zm-45.1 1.2h16c4.5 0 4.5-7 0-7h-16c-4.5 0-4.5 7 0 7zm-28.9-4.6h-9c-4.5 0-4.5 7 0 7h9c4.5 0 4.5-7 0-7zm5.6-14.7h-3.2c-2 0-3.5 1.6-3.5 3.5s1.6 3.5 3.5 3.5h3.2c2 0 3.5-1.6 3.5-3.5s-1.6-3.5-3.5-3.5zm-24 4.7h-6c-2 0-3.5 1.6-3.5 3.5s1.6 3.5 3.5 3.5h6c1.9 0 3.5-1.6 3.5-3.5s-1.6-3.5-3.5-3.5zM87.3 281h-5.5c-2 0-3.5 1.6-3.5 3.5s1.6 3.5 3.5 3.5h5.5c1.9 0 3.5-1.6 3.5-3.5s-1.6-3.5-3.5-3.5z"/><path d="M189.4 270.9h15.3c4.5 0 4.5-7 0-7h-15.3c-4.5 0-4.5 7 0 7zm-46.3 11h-2c-2 0-3.5 1.6-3.5 3.5s1.6 3.5 3.5 3.5h2c1.9 0 3.5-1.6 3.5-3.5S145 282 143 282zm3.7-10.2h-2c-1.9 0-3.5 1.6-3.5 3.5s1.6 3.5 3.5 3.5h2c2 0 3.5-1.6 3.5-3.5s-1.6-3.5-3.5-3.5zm-41.5 20h5.5c1.9 0 3.5-1.7 3.5-3.6s-1.6-3.5-3.5-3.5h-5.5c-2 0-3.5 1.6-3.5 3.5s1.6 3.5 3.5 3.5zm-32-1h2c2 0 3.5-1.6 3.5-3.5s-1.6-3.5-3.5-3.5h-2c-1.9 0-3.5 1.6-3.5 3.5s1.6 3.5 3.5 3.5zm19.3-8.8h2c1.9 0 3.5-1.5 3.5-3.5s-1.6-3.5-3.5-3.5h-2c-2 0-3.5 1.6-3.5 3.5s1.6 3.5 3.5 3.5z"/><path d="M103.8 272.9h-5.5c-1.9 0-3.5 1.6-3.5 3.5s1.6 3.5 3.5 3.5h5.5c2 0 3.5-1.6 3.5-3.5s-1.6-3.5-3.5-3.5zm147 10.4h2c2 0 3.5-1.6 3.5-3.5s-1.6-3.5-3.5-3.5h-2c-1.9 0-3.5 1.6-3.5 3.5s1.6 3.5 3.5 3.5zm-39.3-10.4h-11.2c-4.5 0-4.5 7 0 7h11.2c4.5 0 4.5-7 0-7zm-128.3-13h-9.9c-4.5 0-4.5 7 0 7h9.9c4.5 0 4.5-7 0-7zm57.3 20.7h-11.2c-4.5 0-4.5 7 0 7h11.2c4.5 0 4.5-7 0-7z"/></g></svg>