<svg xmlns="http://www.w3.org/2000/svg" width="361" height="361"><path d="M83 142.4l-13.2 98.3c-.3 2.5 2.5 5.3 5 5l98.3-13.1c4-.6 7-5.2 3.5-8.6l-85.2-85c-4.5-4.6-11.6 2.5-7 7l85.1 85.2 3.6-8.5-98.3 13.1 5 5 13.1-98.3c.9-6.4-9.2-6.3-10 0z" fill="#fff"/><path d="M133.7 144.5c-7-4.9-12.4 3.4-16.8 7.8-3.5 3.4-13.5 10.4-9.3 16.4 2.6 3.6 6.1 6.6 9.3 9.8l16.8 16.8 11.7 11.6c6 6.1 10.9.8 15.4-3.7 4.4-4.4 10-8.6 5.2-15.1l-9.6-13.2-21-28.6c-3.7-5.1-12.4-.1-8.6 5l21.5 29.4 9.2 12.6c1 1.4 2.5-3.5 1.5-2.5l-2.7 2.7-7.2 7.3c-1 .8 4.9.6 3.3-1l-1.5-1.5-6.3-6.3-17-16.9-11-11.1c-1.4-1.4-2.2 4.9-.7 3.4l2.3-2.3 8.4-8.4 3.4-3.3 1-1.1c1.7-1.7-1.4 1.6-2.4.9 5.3 3.7 10.3-5 5-8.7zm56.6-19.4c-3.3-7.3-11-3.6-16.8-2l-19.9 5.2c-6.4 1.8-6 7.8-3.9 12.7l7.9 17.8 9.3 21c1.7 4 3.4 10.7 8.3 11.4 5.2.8 11.9-2.4 16.9-3.8 6.3-1.7 4.4-9.3 3.9-14l-5-45.8c-.7-6.3-10.7-6.4-10 0l4 36.1 1.6 15.5c.2 1.7 3.8-1.7 2.5-1.3l-3.7 1-9.9 2.6c3-.8 3.6 1.4 2.1-1.8l-3.4-7.7-9.5-21.8-7-15.5c-1-2.7 1.4 2.5-2.3 3.5l1.7-.5 9.8-2.6 11.8-3.1 4.5-1.2c3.8-1-1 .5-1.5-.7 2.6 5.9 11.3.8 8.6-5zm59.8 9.8c.7-8-7.7-8.7-13.4-10.2l-20-5.3c-6.4-1.8-9.1 3.5-9.7 9l-2.1 19.3-2.5 22.8c-.5 4.3-2.4 11 1.5 14.1 4.1 3.3 11.5 3.8 16.4 5.1 6.4 1.7 8.6-5.7 10.5-10.1l18.6-42.2c2.6-5.9-6-11-8.6-5L226 165.5l-6.3 14.3c-.7 1.5 4.3.5 2.9 0l-3.7-.9-9.9-2.7c3 .8 2.3 3 2.7-.5l1-8.4 2.5-23.6L217 127c.3-2.8-.2 2.9-3.9 1.9l1.8.4 9.7 2.6 11.8 3.2 4.6 1.2c3.7 1-1.1 0-1-1.3-.6 6.4 9.4 6.3 10 0zm39.7 32.7c5-7-3.3-12.4-7.8-16.8-3.4-3.4-10.4-13.4-16.3-9.2-3.7 2.6-6.1 7-8.8 10.6l-14 19-10.3 14.3c-4.5 6-.9 9.8 3.5 14.2 4.5 4.5 10 11.8 16.5 5.3l10.6-10.6 25.8-25.8c4.6-4.5-2.5-11.6-7-7l-26 25.8-10.5 10.6c.2-.1 5.3 2.2 3 0l-3.3-3.3-3.9-4-1.5-1.4c-2-2 1.4 1.1.7 2.2 7-10 14.3-19.6 21.5-29.4l9.2-12.6c1.3-1.7-5.9-1.2-4.3.4l2.3 2.3 8.5 8.4 3.3 3.3 1 1.1c1.8 1.7-1.5-1.4-.8-2.4-3.8 5.2 5 10.2 8.6 5z" fill="#fff"/></svg>