<svg xmlns="http://www.w3.org/2000/svg" width="361" height="361"><path d="M81.6 287.4a6 6 0 0 1-6-6v-201a6 6 0 0 1 6-6H281a6 6 0 0 1 6 6v201a6 6 0 0 1-6 6H81.6z" fill="none" stroke="#fff" stroke-width="10" stroke-miterlimit="10"/><path d="M81.6 235.3c-3.3 0-6-1.4-6-3v-104c0-1.7 2.7-3 6-3H281c3.3 0 6 1.3 6 3v103.8c0 1.7-2.7 3.1-6 3.1H81.6z" fill="none" stroke="#fff" stroke-width="10" stroke-miterlimit="10"/><path d="M158.7 210.1a2.4 2.4 0 0 1-2.4 2.4h-14.2a2.4 2.4 0 0 1-2.4-2.4V204a2.4 2.4 0 0 1 2.4-2.4h14.2a2.4 2.4 0 0 1 2.4 2.4v6.2z" fill="#fff"/><path d="M157.2 209.7c-.5 2.6-9.9 1.3-11.9 1.3-1 0-4.1.6-4.1-1.3V204c0-2 10.6-1 11.8-1 1.1 0 4.2-.6 4.2 1.3v5.8c0 2 3 2 3 0 0-2.5.2-5.1-.3-7.6-.5-2.6-3.7-2.5-5.7-2.5h-10c-2.8 0-5.3.2-6 3.5-.3 2-.3 5 0 7 .7 3.2 3.2 3.5 6 3.5h10c2.8 0 5.3-.3 6-3.5.3-1.9-2.6-2.7-3-.8zm-53.8-51.5h35.2c6.4 0 6.4-10 0-10h-35.2c-6.4 0-6.4 10 0 10z" fill="#fff"/><path d="M134.1 157.7a2.2 2.2 0 0 0-2.2-2.2h-21.8a2.2 2.2 0 0 0-2.2 2.2V183c0 1.2 1 2.2 2.2 2.2h21.8a2.2 2.2 0 0 0 2.2-2.2v-25.4zM272 217a3.6 3.6 0 0 1-3.5 3.6H247a3.6 3.6 0 0 1-3.5-3.6v-9.4a3.6 3.6 0 0 1 3.5-3.5h21.4a3.6 3.6 0 0 1 3.6 3.5v9.4z" fill="#fff"/><path d="M270.5 216.7c-.6 3.5-5.4 2.5-7.7 2.5h-11c-2 0-6.8.9-6.8-2.5v-8.9c0-4 16.4-2.1 18.7-2.1 2.5 0 6.8-.9 6.8 3v8.4c0 2 3 2 3 0 0-3.6.3-7.3-.3-11s-5.2-3.4-8-3.4h-15c-3.7 0-7.4 0-8.2 4.6a35.6 35.6 0 0 0 0 10.2c.8 4.5 4.5 4.7 8.2 4.7h15c3.7 0 7.5-.2 8.2-4.7.3-1.9-2.6-2.7-2.9-.8zm-166.3 52.5c-7.8-.6-7.8-12.5 0-13 2.6-.3 5.4 0 8 0 8 0 7.7 12.4 0 13h-8c-4.6 0-4.6 7 0 7 7.6 0 15.2.6 19.5-7.1 5-9-2-19.3-11.4-20-7.5-.5-15.5-.2-19.6 7.2-5 8.8 2 19.2 11.4 19.8 4.6.4 4.5-6.6 0-7zm48.3 0c-7.7-.6-7.7-12.5 0-13 2.7-.3 5.4 0 8.1 0 7.8 0 7.6 12.4 0 13h-8.1c-4.5 0-4.5 7 0 7 7.6 0 15.2.6 19.5-7.1 5-9-2-19.3-11.4-20-7.5-.5-15.5-.2-19.6 7.2-4.9 8.8 2 19.2 11.5 19.8 4.5.4 4.4-6.6 0-7zm48.3 0c-7.7-.6-7.7-12.5 0-13 2.7-.3 5.4 0 8.1 0 7.8 0 7.6 12.4 0 13h-8.1c-4.5 0-4.5 7 0 7 7.6 0 15.2.6 19.5-7.1 5-9-2-19.3-11.4-20-7.5-.5-15.5-.2-19.6 7.2-4.9 8.8 2 19.2 11.5 19.8 4.5.4 4.4-6.6 0-7zm48.3 0c-7.7-.6-7.7-12.5 0-13 2.7-.3 5.4 0 8.1 0 7.8 0 7.6 12.4 0 13h-8.1c-4.5 0-4.5 7 0 7 7.6 0 15.3.6 19.5-7.1 5-9-2-19.3-11.4-20-7.5-.5-15.5-.2-19.5 7.2-5 8.8 2 19.2 11.4 19.8 4.5.4 4.5-6.6 0-7zM104 104.3c-7.7-.6-7.7-12.4 0-13 2.7-.2 5.4 0 8.1 0 7.8 0 7.6 12.4 0 13-2.7.2-5.4 0-8.1 0-4.5 0-4.5 7 0 7 7.6 0 15.3.6 19.5-7.1 5-8.9-2-19.2-11.4-20-7.5-.5-15.5-.1-19.6 7.2-4.9 8.9 2 19.2 11.5 19.9 4.5.3 4.5-6.7 0-7zm48.3 0c-7.7-.6-7.7-12.4 0-13 2.7-.2 5.4 0 8.1 0 7.9 0 7.6 12.4 0 13-2.7.2-5.4 0-8.1 0-4.5 0-4.5 7 0 7 7.6 0 15.3.6 19.6-7.1 4.9-8.9-2-19.2-11.5-20-7.5-.5-15.5-.1-19.5 7.2-5 8.9 2 19.2 11.4 19.9 4.5.3 4.5-6.7 0-7zm48.3 0c-7.7-.6-7.7-12.4 0-13 2.7-.2 5.4 0 8.1 0 7.9 0 7.6 12.4 0 13-2.6.2-5.4 0-8.1 0-4.5 0-4.5 7 0 7 7.6 0 15.3.6 19.6-7.1 4.9-8.9-2-19.2-11.5-20-7.5-.5-15.5-.1-19.5 7.2-5 8.9 2 19.2 11.4 19.9 4.5.3 4.5-6.7 0-7zm48.3 0c-7.7-.6-7.7-12.4 0-13 2.7-.2 5.5 0 8.1 0 7.9 0 7.6 12.4 0 13-2.6.2-5.4 0-8 0-4.6 0-4.6 7 0 7 7.6 0 15.2.6 19.5-7.1 5-8.9-2-19.2-11.5-20-7.5-.5-15.5-.1-19.5 7.2-5 8.9 2 19.2 11.4 19.9 4.5.3 4.5-6.7 0-7z" fill="#fff"/></svg>