<svg xmlns="http://www.w3.org/2000/svg" width="361" height="361"><path d="M107 257c-3 0-2-3-2-5V106c0-2 4-1 5-1h146c2 0 1 15 1 17v134c0 2-3 1-4 1H106c-4 0-4 7 0 7h150c5 0 8-4 8-9V107c0-4-2-9-7-9H106c-9 0-8 12-8 18v134c0 6 0 13 7 14 5 1 7-6 2-7z" fill="#fff"/><path d="M234 153H129l1 1v-53l-1 2h105l-2-2v53c0 2 3 2 3 0v-53l-1-1H129l-2 1v53l2 2h105v-3zm-117-23l-5 1-1-6h6v5c0 2 3 2 3 0 0-3 1-8-3-8-4-1-8-1-9 3 0 4 0 8 4 9 3 0 8 0 8-4 0-2-3-2-3 0zm133 0l-5 1c-2 0-1-5-1-6h5l1 5c0 2 3 2 3 0 0-3 1-8-4-8-3-1-8-1-8 3-1 4-1 8 4 9 3 0 7 0 8-4 0-2-3-2-3 0z" fill="#fff"/><path d="M234 206H129l1 1v-53l-1 2h105l-2-2v53c0 2 3 2 3 0v-53l-1-1H129l-2 1v53l2 2h105v-3zm-117-23l-5 1-1-6h6v5c0 2 3 2 3 0 0-3 1-8-3-8-4-1-8-1-9 3 0 4 0 8 4 9 3 0 8 0 8-4 0-2-3-2-3 0zm133 0l-5 1c-2 0-1-5-1-6h5l1 5c0 2 3 2 3 0 0-3 1-8-4-8-3-1-8-1-8 3-1 4-1 8 4 9 3 0 7 0 8-4 0-2-3-2-3 0z" fill="#fff"/><path d="M234 259H129l1 2v-54l-1 2h105l-2-2v54c0 2 3 2 3 0v-54l-1-1H129l-2 1v54l2 1h105v-3zm-117-23c0 2-4 1-5 1l-1-5c0-2 5-1 6-1v5c0 2 3 2 3 0 0-3 1-8-3-8s-8 0-9 4c0 3 0 8 4 8 3 0 8 0 8-4 0-2-3-2-3 0zm133 0c0 2-4 1-5 1-2 0-1-4-1-5 0-2 4-1 5-1l1 5c0 2 3 2 3 0 0-3 1-8-4-8-3 0-8 0-8 4-1 3-1 8 4 8 3 0 7 0 8-4 0-2-3-2-3 0zm-147-80h157c2 0 2-3 0-3H103c-2 0-2 3 0 3z" fill="#fff"/><path d="M101 209h159c2 0 2-3 0-3H101c-2 0-2 3 0 3z" fill="#fff"/><path d="M82 287a6 6 0 0 1-6-6V81a6 6 0 0 1 6-6h198a6 6 0 0 1 6 6v200a6 6 0 0 1-6 6H82z" fill="none" stroke="#fff" stroke-width="10" stroke-miterlimit="10"/></svg>