<svg xmlns="http://www.w3.org/2000/svg" width="361" height="361"><g fill="#fff"><path d="M174.1 160.3a4.5 4.5 0 0 0-1.2-1.9 3 3 0 0 0-2-.6 3 3 0 0 0-2 .6c-.6.5-1 1.1-1.2 1.9a11 11 0 0 0-.6 2.7 37.5 37.5 0 0 0 0 6.8c.1 1 .3 2 .6 2.7.3.8.6 1.4 1.2 1.9a3 3 0 0 0 2 .6 3 3 0 0 0 2-.6c.5-.5 1-1.1 1.2-1.9.3-.8.5-1.7.6-2.7a37.8 37.8 0 0 0 0-6.8c-.1-1-.3-2-.6-2.7z"/><path d="M238.4 145.7h-115a4 4 0 0 0-4 4V182a4 4 0 0 0 4 4h115a4 4 0 0 0 4-4v-32.3a4 4 0 0 0-4-4zm-61 30.4a7.6 7.6 0 0 1-6.5 3.2c-2.9 0-5.1-1-6.6-3.2-1.6-2.2-2.3-5.4-2.3-9.7s.7-7.5 2.3-9.7a7.6 7.6 0 0 1 6.6-3.2c2.9 0 5.1 1 6.6 3.2 1.6 2.2 2.3 5.4 2.3 9.7s-.8 7.5-2.3 9.7zm11-3.2a4.5 4.5 0 0 0 4 2.1 12.4 12.4 0 0 0 2-.1v-9h5v12.3a22.5 22.5 0 0 1-7.3 1.1c-1.6 0-3-.3-4.2-.8a8.4 8.4 0 0 1-3.2-2.4 11.5 11.5 0 0 1-2-4 19.8 19.8 0 0 1-.7-5.7 17 17 0 0 1 .8-5.6 12 12 0 0 1 2.3-4 9.2 9.2 0 0 1 3.4-2.5 11 11 0 0 1 4.2-.8 13.8 13.8 0 0 1 4.5.7l1.4.6.8.5-1.2 3.9a9 9 0 0 0-2.2-1 8 8 0 0 0-2.6-.4c-1.2 0-2.2.2-3 .6a5.5 5.5 0 0 0-2 1.8c-.5.7-.9 1.6-1.1 2.7a16.6 16.6 0 0 0-.3 3.5c0 3 .4 5.1 1.4 6.5z"/></g><path d="M238.4 192h-115a4 4 0 0 0-4 4.1v32.3a4 4 0 0 0 4 4h115a4 4 0 0 0 4-4v-32.3a4 4 0 0 0-4-4zm-59.1 32.5h-15.9v-24.7h15v4h-10v5.6h8.7v4h-8.8v7h11v4.1zm9-5.8c1 1.4 2.4 2 4.2 2a12.9 12.9 0 0 0 2-.1v-9h4.8v12.3a21.8 21.8 0 0 1-7.2 1.1c-1.6 0-3-.2-4.2-.8a8.5 8.5 0 0 1-3.2-2.4c-.8-1-1.5-2.4-2-4s-.7-3.6-.7-5.7a17 17 0 0 1 .8-5.6c.6-1.6 1.3-3 2.3-4s2-2 3.4-2.5c1.3-.5 2.7-.8 4.2-.8a13.7 13.7 0 0 1 6 1.3l.7.5-1.2 4a5 5 0 0 0-2.2-1 8 8 0 0 0-2.6-.5 5.5 5.5 0 0 0-5 2.4c-.5.8-.9 1.7-1.1 2.7s-.3 2.2-.3 3.5c0 3 .4 5.2 1.4 6.6zm50 20.2H123.1a4 4 0 0 0-4 4v32.3a4 4 0 0 0 4 4.1h115a4 4 0 0 0 4-4V243a4 4 0 0 0-4-4.1zm-63.6 33.6c-.3-.9-.7-1.9-1.3-3a34.2 34.2 0 0 0-1.8-3.1 32.4 32.4 0 0 0-4.2-5.2v11.3h-5v-24.7h5V258a61 61 0 0 0 5.3-8l1.2-2.3h5.5a72.2 72.2 0 0 1-5.2 8.4 47.6 47.6 0 0 1-2.4 3 33.3 33.3 0 0 1 2.5 2.7 35.3 35.3 0 0 1 2.4 3.4 38 38 0 0 1 2 3.6 26 26 0 0 1 1.6 3.6h-5.6zm13.5-5.8c.9 1.4 2.3 2 4 2a12.4 12.4 0 0 0 2 0v-9.1h5v12.3a22.4 22.4 0 0 1-7.3 1.2c-1.6 0-3-.3-4.2-.9a8.5 8.5 0 0 1-3.2-2.4 11.5 11.5 0 0 1-2-4 19.8 19.8 0 0 1-.7-5.7c0-2 .2-4 .8-5.5a12.1 12.1 0 0 1 2.3-4 9.2 9.2 0 0 1 3.4-2.6c1.3-.5 2.7-.8 4.2-.8a13.7 13.7 0 0 1 4.5.7l1.4.6.8.5-1.2 4a11 11 0 0 0-2.2-1 8 8 0 0 0-2.6-.5 5.5 5.5 0 0 0-5 2.4c-.5.8-.9 1.7-1 2.7a16.6 16.6 0 0 0-.4 3.5c0 3 .4 5.2 1.4 6.6zm70.1-29.5h31.9c1.9 0 1.9-3 0-3h-31.9c-1.9 0-1.9 3 0 3zm21 31.2h9c4.5 0 4.5-7 0-7h-9c-4.6 0-4.6 7 0 7zm-18.7 15.3h16c4.5 0 4.5-7 0-7h-16c-4.5 0-4.5 7 0 7zm.3-11.3h6c2 0 3.5-1.6 3.5-3.5s-1.6-3.5-3.5-3.5h-6c-1.9 0-3.5 1.6-3.5 3.5s1.6 3.5 3.5 3.5z" fill="#fff"/><path d="M274.3 279.4h2c1.8 0 3.4-1.5 3.4-3.5s-1.5-3.5-3.4-3.5h-2c-2 0-3.6 1.6-3.6 3.5s1.7 3.5 3.6 3.5zm-5.9-23h-6c-1.9 0-3.5 1.6-3.5 3.5s1.6 3.5 3.5 3.5h6c2 0 3.5-1.5 3.5-3.5s-1.6-3.5-3.5-3.5zm-5.6-14.8h-2c-1.9 0-3.5 1.6-3.5 3.5s1.6 3.5 3.5 3.5h2c2 0 3.5-1.6 3.5-3.5s-1.6-3.5-3.5-3.5zm23.7 3h-16c-4.5 0-4.5 7 0 7h16c4.5 0 4.5-7 0-7z" fill="#fff"/><path d="M277.5 252.6h-15.3c-4.5 0-4.5 7 0 7h15.3c4.5 0 4.5-7 0-7zm6.3-13h-6c-1.9 0-3.5 1.6-3.5 3.5s1.6 3.5 3.5 3.5h6c2 0 3.5-1.6 3.5-3.5s-1.6-3.5-3.5-3.5zm-17.3-3h-6c-1.9 0-3.5 1.6-3.5 3.5s1.6 3.5 3.5 3.5h6c1.9 0 3.5-1.6 3.5-3.5s-1.6-3.5-3.5-3.5zm-3.6 48.1h-2c-1.9 0-3.5 1.6-3.5 3.5s1.6 3.5 3.5 3.5h2c2 0 3.5-1.6 3.5-3.5s-1.6-3.5-3.5-3.5zm24.7 0h-16c-4.5 0-4.5 7 0 7h16c4.5 0 4.5-7 0-7zm.9-14.3h-6c-1.9 0-3.5 1.6-3.5 3.5s1.6 3.5 3.5 3.5h6c1.9 0 3.5-1.5 3.5-3.5s-1.6-3.5-3.5-3.5z" fill="#fff"/><path d="M287.8 236.6h-6c-1.9 0-3.5 1.6-3.5 3.5s1.6 3.5 3.5 3.5h6c2 0 3.5-1.6 3.5-3.5s-1.6-3.5-3.5-3.5z" fill="#fff"/><g fill="#fff"><path d="M98.5 273.4h2c1.9 0 3.5-1.5 3.5-3.5s-1.6-3.5-3.5-3.5h-2c-1.9 0-3.5 1.6-3.5 3.5s1.6 3.5 3.5 3.5zm-24.7 6h16c4.6 0 4.6-7 0-7h-16c-4.5 0-4.5 7 0 7z"/><path d="M85.8 268.4h15.3c4.5 0 4.5-7 0-7H85.8c-4.5 0-4.5 7 0 7zm-12.3 23.3h6c1.9 0 3.5-1.6 3.5-3.5s-1.6-3.5-3.5-3.5h-6c-2 0-3.5 1.6-3.5 3.5s1.5 3.5 3.5 3.5zm20.7-6h6c1.9 0 3.5-1.6 3.5-3.5s-1.6-3.5-3.5-3.5h-6c-2 0-3.5 1.6-3.5 3.5s1.6 3.5 3.5 3.5zm-6.1-33h-9c-4.5 0-4.5 7 0 7h9c4.5 0 4.5-7 0-7zm13-16H85c-4.5 0-4.5 7 0 7h16c4.5 0 4.5-7 0-7z"/><path d="M100.4 241.6h-6c-1.9 0-3.5 1.6-3.5 3.5s1.6 3.5 3.5 3.5h6c2 0 3.5-1.6 3.5-3.5s-1.6-3.5-3.5-3.5zM80.7 238h-3.2c-2 0-3.5 1.6-3.5 3.5s1.6 3.5 3.5 3.5h3.2c2 0 3.5-1.5 3.5-3.5s-1.6-3.5-3.5-3.5zm17.6 21.7h2c1.9 0 3.5-1.6 3.5-3.5s-1.6-3.5-3.5-3.5h-2c-2 0-3.5 1.6-3.5 3.5s1.6 3.5 3.5 3.5zm2.2 25.1h-6c-2 0-3.5 1.6-3.5 3.5s1.6 3.5 3.5 3.5h6c1.9 0 3.5-1.6 3.5-3.5s-1.6-3.5-3.5-3.5zm-16-3.5h-2c-1.8 0-3.4 1.6-3.4 3.5s1.6 3.5 3.5 3.5h2c1.9 0 3.5-1.6 3.5-3.5s-1.6-3.5-3.5-3.5zm-12.3-44H104c2 0 2-3 0-3H72.2c-2 0-2 3 0 3z"/><path d="M79.8 244.2h-6c-1.9 0-3.5 1.6-3.5 3.5s1.6 3.5 3.5 3.5h6c2 0 3.5-1.6 3.5-3.5s-1.6-3.5-3.5-3.5zm-1 19.3h-5.5c-1.9 0-3.5 1.5-3.5 3.4s1.6 3.6 3.5 3.6h5.5c2 0 3.5-1.7 3.5-3.6s-1.6-3.4-3.5-3.4z"/></g><g fill="#fff"><path d="M173.8 114.8a4.8 4.8 0 0 0-1.6-1.8 4.6 4.6 0 0 0-2.6-.7h-.7a3.7 3.7 0 0 0-.7 0v16.2h.9c1 0 2-.2 2.7-.6a4.9 4.9 0 0 0 1.8-1.7c.4-.7.8-1.6 1-2.6a19.5 19.5 0 0 0 0-6.3 8.5 8.5 0 0 0-.8-2.6z"/><path d="M238.9 115l-82.7-24.7a5.8 5.8 0 0 0-4 .2l-29.4 19.6c-4 2.7-4 2.8-4 5v20.3a4 4 0 0 0 4 4h116.1a4 4 0 0 0 4-4v-16.3c0-2.2-1.2-3-4-4zm-60 11.3a10 10 0 0 1-2.4 3.8 8.8 8.8 0 0 1-3.5 2.2 14.1 14.1 0 0 1-4.5.6 22.7 22.7 0 0 1-5-.5V109a23.9 23.9 0 0 1 3-.5 33 33 0 0 1 2.7-.1c1.5 0 3 .2 4.3.7a8 8 0 0 1 3.3 2.2c.9 1 1.6 2.2 2.1 3.8.5 1.5.8 3.4.8 5.5 0 2.3-.3 4.1-.9 5.7zm9 .7a4.5 4.5 0 0 0 4 2 12.1 12.1 0 0 0 2-.2v-8.7h4.7v12a22 22 0 0 1-7 1c-1.5 0-2.9-.2-4-.8-1.3-.5-2.3-1.3-3.2-2.3s-1.5-2.4-2-4a19.3 19.3 0 0 1 .2-10.8 11.7 11.7 0 0 1 2.2-4 8.9 8.9 0 0 1 3.3-2.3 10.4 10.4 0 0 1 4-.8c1 0 1.8 0 2.5.2a15.5 15.5 0 0 1 2 .5l1.3.6.8.4-1.2 3.8a9.9 9.9 0 0 0-2.1-1 7.8 7.8 0 0 0-2.6-.4 6 6 0 0 0-2.9.7 5.3 5.3 0 0 0-1.9 1.7c-.5.7-.8 1.6-1 2.6a16 16 0 0 0-.4 3.4c0 2.9.5 5 1.4 6.4z"/></g><path d="M155 88.5l115.3 34.2c6.1 1.9 8.8-7.8 2.6-9.6L157.7 78.8c-6.2-1.8-8.9 7.8-2.7 9.7z" fill="#fff"/><path d="M100.6 123.4l65.7-44c5.3-3.6.3-12.3-5-8.7l-65.8 44c-5.3 3.6-.3 12.3 5.1 8.7z" fill="#fff"/><path d="M244.5 281.6c.1-.6 3-.4.3-.4H116.1c-2.2 0 1 .2 1 1.6V110l-2.5 4.3L155.2 87l-3.8.5 70.9 21.5 17 5.1 4.3 1.4c1.9.5.7.5.7-1.2V283c0 6.4 10 6.4 10 0V114.4c0-8.9-15-10.7-21.6-12.7l-77.4-23.4c-3.3-1-5.4.3-8 2a177109 177109 0 0 1-35 23.4c-2.6 1.7-5.3 3.2-5.3 6.8V283c0 10.7 14.7 8.2 21.5 8.2h107.9c6.5 0 16 1.7 17.7-7 1.3-6.2-8.4-8.9-9.6-2.6z" fill="#fff"/><path fill="#fff" d="M119.5 189.1H242m-122.5 1.5H242c2 0 2-3 0-3H119.5c-2 0-2 3 0 3zm0 45.2H242m-122.5 1.4H242c2 0 2-3 0-3H119.5c-2 0-2 3 0 3zm0-94.7l123.3.3M119.5 144l123.3.3c2 0 2-3 0-3l-123.3-.3c-1.9 0-1.9 3 0 3z"/></svg>