<svg xmlns="http://www.w3.org/2000/svg" width="361" height="361"><g fill="#fff"><path d="M178 79.9l83.6 63.4 2.5-9.3h-83.5c-6.4 0-6.4 10 0 10h83.5c5.4 0 6.2-6.5 2.5-9.3L183 71.3c-5.2-4-10.1 4.8-5 8.6z"/><path d="M266.4 134.7l-83.2-63.4a4.8 4.8 0 0 0-5 0L95 134.7c-3.8 2.8-3 9.3 2.5 9.3h166.4c6.5 0 6.5-10 0-10H97.5l2.5 9.3L183.2 80h-5l83.2 63.4c5.1 4 10.1-4.8 5-8.6z"/></g><path d="M244.5 281.6c.1-.6 3-.4.3-.4H116.1c-2.2 0 1 .4 1 1.6v-140c0-1.7-2.6 1.2-1.7 1.2H246c-.5 0-1.7-3-1.7-1v140c0 6.4 10 6.4 10 0V143.6c0-9.8-8.2-9.6-15.3-9.6H118.6c-3.7 0-7.6-.1-10 3.4-1.8 2.8-1.6 5.6-1.6 8.7v123.1c0 7-2.4 20 6.8 21.8 2.2.5 4.6.2 6.7.2h122c5.1 0 10.4-.6 11.7-6.9 1.2-6.3-8.4-9-9.7-2.7zm-125-92.5H242" fill="#fff"/><path d="M119.5 190.6H242c2 0 2-3 0-3H119.5c-2 0-2 3 0 3zm0 45.2H242m-122.5 1.4H242c2 0 2-3 0-3H119.5c-2 0-2 3 0 3z" fill="#fff"/><g fill="#fff"><path d="M173.8 109.8a5 5 0 0 0-1.7-1.8c-.7-.5-1.6-.7-2.7-.7h-.7a3.8 3.8 0 0 0-.7.1V124h.9c1 0 2-.1 2.8-.6a5 5 0 0 0 1.8-1.7 7.8 7.8 0 0 0 1-2.7 20 20 0 0 0 0-6.5 8.8 8.8 0 0 0-.7-2.7z"/><path d="M237 126.2l-54-40.8a3.5 3.5 0 0 0-4.2 0l-54.1 40.8a3.5 3.5 0 0 0 2 6.3H235a3.5 3.5 0 0 0 2.1-6.3zm-58-4.7a10.4 10.4 0 0 1-2.4 4c-1 1-2.2 1.7-3.6 2.2s-3 .7-4.7.7a23.4 23.4 0 0 1-5.2-.6v-24.2a24.6 24.6 0 0 1 5.9-.6c1.6 0 3.1.3 4.4.7a8.3 8.3 0 0 1 3.5 2.3 10.7 10.7 0 0 1 2.1 4c.6 1.5.8 3.4.8 5.7 0 2.3-.3 4.2-.8 5.8zm9.4.7c1 1.4 2.3 2 4.1 2a12.4 12.4 0 0 0 2 0V115h4.8v12.4a22.5 22.5 0 0 1-7.2 1c-1.5 0-3-.2-4.2-.8a8.4 8.4 0 0 1-3.2-2.4 11.5 11.5 0 0 1-2-4 19.8 19.8 0 0 1-.7-5.7 17 17 0 0 1 .8-5.5 12 12 0 0 1 2.3-4 9.2 9.2 0 0 1 3.4-2.6c1.3-.5 2.7-.8 4.2-.8a13.8 13.8 0 0 1 4.6.8l1.3.6.9.4-1.3 4a9 9 0 0 0-2.2-1 8 8 0 0 0-2.6-.5c-1.2 0-2.2.2-3 .7a5.5 5.5 0 0 0-2 1.7c-.5.8-.9 1.7-1 2.8a16.6 16.6 0 0 0-.4 3.5c0 3 .4 5 1.4 6.5z"/></g><path d="M258.3 237.3h31.9c1.9 0 1.9-3 0-3h-31.9c-1.9 0-1.9 3 0 3zm-186.1 0H104c2 0 2-3 0-3H72.2c-2 0-2 3 0 3z" fill="#fff"/></svg>