<svg xmlns="http://www.w3.org/2000/svg" width="361" height="361"><g fill="#fff"><path d="M178 79.9l83.6 63.4 2.5-9.3h-83.5c-6.4 0-6.4 10 0 10h83.5c5.4 0 6.2-6.5 2.5-9.3L183 71.3c-5.2-4-10.1 4.8-5 8.6z"/><path d="M266.4 134.7l-83.2-63.4a4.8 4.8 0 0 0-5 0L95 134.7c-3.8 2.8-3 9.3 2.5 9.3h166.4c6.5 0 6.5-10 0-10H97.5l2.5 9.3L183.2 80h-5l83.2 63.4c5.1 4 10.1-4.8 5-8.6z"/></g><path d="M244.5 281.6c.1-.6 3-.4.3-.4H116.1c-2.2 0 1 .4 1 1.6v-140c0-1.7-2.6 1.2-1.7 1.2H246c-.5 0-1.7-3-1.7-1v140c0 6.4 10 6.4 10 0V143.6c0-9.8-8.2-9.6-15.3-9.6H118.6c-3.7 0-7.6-.1-10 3.4-1.8 2.8-1.6 5.6-1.6 8.7v123.1c0 7-2.4 20 6.8 21.8 2.2.5 4.6.2 6.7.2h122c5.1 0 10.4-.6 11.7-6.9 1.2-6.3-8.4-9-9.7-2.7zm-125-92.5H242" fill="#fff"/><path d="M119.5 190.6H242c2 0 2-3 0-3H119.5c-2 0-2 3 0 3zm0 45.2H242m-122.5 1.4H242c2 0 2-3 0-3H119.5c-2 0-2 3 0 3zm118.9-45.1h-115a4 4 0 0 0-4 4v32.3a4 4 0 0 0 4 4h115a4 4 0 0 0 4-4v-32.3a4 4 0 0 0-4-4z" fill="#fff"/><g fill="#fff"><path d="M258.3 237.3h31.9c1.9 0 1.9-3 0-3h-31.9c-1.9 0-1.9 3 0 3zm21 31.1h9c4.5 0 4.5-7 0-7h-9c-4.6 0-4.6 7 0 7zm-18.7 15.3h16c4.5 0 4.5-7 0-7h-16c-4.5 0-4.5 7 0 7zm.3-11.2h6c2 0 3.5-1.7 3.5-3.6s-1.6-3.4-3.5-3.4h-6c-1.9 0-3.5 1.5-3.5 3.4s1.6 3.6 3.5 3.6z"/><path d="M274.3 279.4h2c1.8 0 3.4-1.5 3.4-3.5s-1.5-3.5-3.4-3.5h-2c-2 0-3.6 1.6-3.6 3.5s1.7 3.5 3.6 3.5zm-5.9-23h-6c-1.9 0-3.5 1.6-3.5 3.5s1.6 3.5 3.5 3.5h6c2 0 3.5-1.5 3.5-3.5s-1.6-3.5-3.5-3.5zm-5.6-14.8h-2c-1.9 0-3.5 1.6-3.5 3.5s1.6 3.5 3.5 3.5h2c2 0 3.5-1.6 3.5-3.5s-1.6-3.5-3.5-3.5zm23.7 3h-16c-4.5 0-4.5 7 0 7h16c4.5 0 4.5-7 0-7z"/><path d="M277.5 252.6h-15.3c-4.5 0-4.5 7 0 7h15.3c4.5 0 4.5-7 0-7zm6.3-13h-6c-1.9 0-3.5 1.6-3.5 3.5s1.6 3.5 3.5 3.5h6c2 0 3.5-1.6 3.5-3.5s-1.6-3.5-3.5-3.5zm-17.3-3h-6c-1.9 0-3.5 1.6-3.5 3.5s1.6 3.5 3.5 3.5h6c1.9 0 3.5-1.6 3.5-3.5s-1.6-3.5-3.5-3.5zm-3.6 48.1h-2c-1.9 0-3.5 1.6-3.5 3.5s1.6 3.5 3.5 3.5h2c2 0 3.5-1.6 3.5-3.5s-1.6-3.5-3.5-3.5zm24.7 0h-16c-4.5 0-4.5 7 0 7h16c4.5 0 4.5-7 0-7zm.9-14.3h-6c-1.9 0-3.5 1.6-3.5 3.5s1.6 3.5 3.5 3.5h6c1.9 0 3.5-1.5 3.5-3.5s-1.6-3.5-3.5-3.5z"/><path d="M287.8 236.6h-6c-1.9 0-3.5 1.6-3.5 3.5s1.6 3.5 3.5 3.5h6c2 0 3.5-1.6 3.5-3.5s-1.6-3.5-3.5-3.5z"/></g><g fill="#fff"><path d="M98.5 273.4h2c1.9 0 3.5-1.5 3.5-3.5s-1.6-3.5-3.5-3.5h-2c-1.9 0-3.5 1.6-3.5 3.5s1.6 3.5 3.5 3.5zm-24.7 6h16c4.6 0 4.6-7 0-7h-16c-4.5 0-4.5 7 0 7z"/><path d="M85.8 268.4h15.3c4.5 0 4.5-7 0-7H85.8c-4.5 0-4.5 7 0 7zm-12.3 23.3h6c1.9 0 3.5-1.6 3.5-3.5s-1.6-3.5-3.5-3.5h-6c-2 0-3.5 1.6-3.5 3.5s1.5 3.5 3.5 3.5zm20.7-6h6c1.9 0 3.5-1.6 3.5-3.5s-1.6-3.5-3.5-3.5h-6c-2 0-3.5 1.6-3.5 3.5s1.6 3.5 3.5 3.5zm-6.1-33h-9c-4.5 0-4.5 7 0 7h9c4.5 0 4.5-7 0-7zm13-16H85c-4.5 0-4.5 7 0 7h16c4.5 0 4.5-7 0-7z"/><path d="M100.4 241.6h-6c-1.9 0-3.5 1.6-3.5 3.5s1.6 3.5 3.5 3.5h6c2 0 3.5-1.6 3.5-3.5s-1.6-3.5-3.5-3.5zM80.7 238h-3.2c-2 0-3.5 1.6-3.5 3.5s1.6 3.5 3.5 3.5h3.2c2 0 3.5-1.5 3.5-3.5s-1.6-3.5-3.5-3.5zm17.6 21.7h2c1.9 0 3.5-1.6 3.5-3.5s-1.6-3.5-3.5-3.5h-2c-2 0-3.5 1.6-3.5 3.5s1.6 3.5 3.5 3.5zm2.2 25.1h-6c-2 0-3.5 1.6-3.5 3.5s1.6 3.5 3.5 3.5h6c1.9 0 3.5-1.6 3.5-3.5s-1.6-3.5-3.5-3.5zm-16-3.5h-2c-1.8 0-3.4 1.6-3.4 3.5s1.6 3.5 3.5 3.5h2c1.9 0 3.5-1.6 3.5-3.5s-1.6-3.5-3.5-3.5zm-12.3-44H104c2 0 2-3 0-3H72.2c-2 0-2 3 0 3z"/><path d="M79.8 244.2h-6c-1.9 0-3.5 1.6-3.5 3.5s1.6 3.5 3.5 3.5h6c2 0 3.5-1.6 3.5-3.5s-1.6-3.5-3.5-3.5zm-1 19.3h-5.5c-1.9 0-3.5 1.5-3.5 3.4s1.6 3.6 3.5 3.6h5.5c2 0 3.5-1.7 3.5-3.6s-1.6-3.4-3.5-3.4z"/></g></svg>