<svg xmlns="http://www.w3.org/2000/svg" width="361" height="361"><path d="M263.6 237.2a27 27 0 0 1-18.4 25.3c-4 1.3-8 1.3-12.1 1.3H124.8a26.9 26.9 0 0 1-25.3-18.5c-1.3-4-1.2-8-1.2-12V125c0-11.6 7.5-21.7 18.4-25.3 4-1.4 8-1.3 12-1.3H237c11.6 0 21.7 7.6 25.3 18.4 1.4 4 1.3 8 1.3 12.1v108.3c0 6.4 10 6.4 10 0V128.9c0-15.6-6.1-29.8-20.9-37-9.3-4.5-20-3.5-30.1-3.5h-97.4c-8.9 0-16.8 3.1-23.8 8.5-11.3 8.8-13.2 22-13.2 35.2v87c0 9-.9 18.8 1.3 27.6 4.2 17.3 20.6 27 37.5 27h109.7a37 37 0 0 0 36.9-36.5c.1-6.5-9.9-6.4-10 0z" fill="#fff"/><path d="M109.4 179c0-6.5 1-12.1 3-17a35 35 0 0 1 7.7-12.3 32.2 32.2 0 0 1 11.4-7.4 38.7 38.7 0 0 1 14-2.5c4.7 0 9.3.9 13.6 2.5a31.9 31.9 0 0 1 11.3 7.4A35.5 35.5 0 0 1 178 162a46.7 46.7 0 0 1 2.8 17c0 6.3-1 12-2.8 16.9a35.5 35.5 0 0 1-7.7 12.3 31.8 31.8 0 0 1-11.3 7.4 37.6 37.6 0 0 1-13.7 2.4c-4.9 0-9.5-.8-13.9-2.4a32.1 32.1 0 0 1-11.4-7.4 35 35 0 0 1-7.8-12.3 47 47 0 0 1-2.9-17zm11 0c0 4.5.6 8.6 1.8 12.3a27.6 27.6 0 0 0 4.9 9.4 21.5 21.5 0 0 0 7.8 6 23 23 0 0 0 10.3 2.2c3.8 0 7.2-.8 10.3-2.2s5.5-3.3 7.7-6a27.7 27.7 0 0 0 4.9-9.4 43.2 43.2 0 0 0 0-24.7 27.7 27.7 0 0 0-5-9.5 21.7 21.7 0 0 0-7.7-6 24 24 0 0 0-10.2-2c-3.8 0-7.3.6-10.3 2a21.5 21.5 0 0 0-7.8 6 27.6 27.6 0 0 0-5 9.5 41.6 41.6 0 0 0-1.6 12.3zM252 141.5a717.5 717.5 0 0 1-16.4 17.3l-9 9.2a890.5 890.5 0 0 1-8.6 8.5 96.6 96.6 0 0 1 9.8 8 170 170 0 0 1 10.2 10.1 177 177 0 0 1 9.3 11 92.9 92.9 0 0 1 7.3 10.7h-12.3a106 106 0 0 0-7.5-10.2 135.8 135.8 0 0 0-8.9-9.8 140.7 140.7 0 0 0-9.5-8.7 83.5 83.5 0 0 0-9.3-6.8v35.5h-10.5v-74.8H207v33a498 498 0 0 0 8.3-8 711.6 711.6 0 0 0 9-9 838.6 838.6 0 0 0 8.3-8.8l6.7-7.2h12.6z" fill="#fff"/></svg>