<svg xmlns="http://www.w3.org/2000/svg" width="361" height="361"><path d="M107.3 257.4c-2.8-.4-1.9-3.5-1.9-5.8v-146c0-1.7 4-1 5-1H256c2.2 0 1 15.6 1 17V256c0 1.8-2.6 1.3-3.7 1.3H106.4c-4.5 0-4.5 7 0 7H256c5.4 0 8-4.7 8-9.4V107.2c0-4.4-1.8-8.8-6.8-9.5-2-.3-4-.2-5.9-.2H106.4c-9.9 0-8 12.3-8 18.8v134.1c0 5.7-.5 12.8 7 13.8 4.5.6 6.4-6.2 2-6.8z" fill="#fff"/><path d="M233.5 259.3H128.6l1.5 1.5V101l-1.5 1.5h105L232 101v159.8c0 2 3 2 3 0V101c0-.8-.6-1.5-1.5-1.5H128.6c-.8 0-1.5.7-1.5 1.5v159.8c0 .8.7 1.5 1.5 1.5h105c1.9 0 1.9-3 0-3zM117.3 183c0 1.3-4.2.7-5.2.7-1.3 0-.8-4.4-.8-5.2 0-1.3 4.4-.8 5.3-.8 1.3 0 .8 4.4.8 5.3 0 2 3 2 3 0 0-3.3.7-7.8-3.8-8.3-3.3-.3-7.8-.4-8.3 3.8-.3 3.2-.4 7.8 3.8 8.2 3.3.4 7.8.5 8.3-3.7.1-2-2.9-2-3 0zm132.6 0c-.2 1.3-4.3.7-5.3.7-1.3 0-.8-4.4-.8-5.2 0-1.3 4.4-.8 5.3-.8 1.3 0 .8 4.4.8 5.3 0 2 3 2 3 0 0-3.3.7-7.8-3.8-8.3-3.3-.3-7.8-.4-8.3 3.8-.3 3.2-.4 7.8 3.8 8.2 3.3.4 7.8.5 8.3-3.7.1-2-2.9-2-3 0z" fill="#fff"/><path d="M81.6 286.6a6 6 0 0 1-6-6V81.2a6 6 0 0 1 6-6h198a6 6 0 0 1 6 6v199.4a6 6 0 0 1-6 6h-198z" fill="none" stroke="#fff" stroke-width="10" stroke-miterlimit="10"/></svg>