<svg xmlns="http://www.w3.org/2000/svg" width="361" height="361"><path d="M143 126s0 1 0 0V96c0 1-1 1 1 1h29-1v29h-29c-2 0-2 3 0 3h27l5-1V96c0-4-9-2-11-2h-21c-4 0-3 5-3 8v22c0 2 0 4 2 5s3-2 1-3z" fill="#fff"/><path d="M123 288a3 3 0 0 1-3-3V77a4 4 0 0 1 3-4h115a4 4 0 0 1 3 4v208a3 3 0 0 1-3 3H123z" fill="none" stroke="#fff" stroke-width="7" stroke-miterlimit="10"/><path d="M189 126s0 1 0 0V96v1h30-1v29h-30c-2 0-2 3 0 3h28l4-1 1-4V96c0-4-10-2-12-2h-20c-4 0-3 5-3 8v22c0 2 0 4 2 5s3-2 1-3zm-46 46s0 1 0 0v-30c0 1-1 1 1 1h29-1v29h-29c-2 0-2 3 0 3h27l5-1v-32c0-4-9-2-11-2h-21c-4 0-3 5-3 8v22c0 2 0 4 2 5s3-2 1-3zm45 0s0 1 0 0v-30c0 1-1 1 1 1h29-1v30c1-1 2-1 0-1h-29c-2 0-2 3 0 3h27l5-1v-32c0-4-9-2-11-2h-21c-4 0-3 5-3 8v22c0 2 0 4 2 5s3-2 1-3zm-45 46s0 1 0 0v-30 1h30-1v29h-29c-2 0-2 3 0 3h27c1 0 4 1 5-1v-32c0-4-9-2-11-2h-21c-4 0-3 5-3 8v22c0 2 0 4 2 5s3-2 1-3zm45 0s0 1 0 0v-30 1h30c-1 0 0-1 0 0v30c0-1 1-1-1-1h-29c-2 0-2 3 0 3h27c1 0 4 1 5-1v-32c1-4-9-2-11-2h-21c-4 0-3 5-3 8v22c0 2 0 4 2 5s3-2 1-3zm-45 46c0 1 0 1 0 0v-30 1h30-1v29h-29c-2 0-2 3 0 3h32v-33c0-4-9-2-11-2h-21c-4 0-3 5-3 8v22c0 3 0 4 2 5s3-2 1-3zm45 0c0 1 0 1 0 0v-30c0 1-1 1 1 1h29-1v29h-29c-2 0-2 3 0 3h32v-33c0-4-9-2-11-2h-21c-4 0-3 5-3 8v22c0 3 0 4 2 5s3-2 1-3z" fill="#fff"/></svg>