<svg xmlns="http://www.w3.org/2000/svg" width="361" height="361"><path d="M187 221.7l85-123 12.6-18.3c5.5-8-7.5-15.4-13-7.5l-85 123.1-12.5 18.2c-5.5 8 7.5 15.4 13 7.5z" fill="#fff"/><path d="M184.3 211.5L142 181c-3.3-2.4-8.3-.5-10.2 2.8-2.2 3.8-.6 7.8 2.7 10.2l42.3 30.4c3.3 2.3 8.4.5 10.3-2.8 2.2-3.8.5-7.9-2.8-10.2z" fill="#fff"/><path d="M263.5 133.8v102c0 16.6-13.6 26.8-29 26.8H124.8c-16.5 0-26.8-13.5-26.8-29V124a27 27 0 0 1 13.6-23.3 29.8 29.8 0 0 1 15.7-3.4H227c6.5 0 6.5-10 0-10H125a37 37 0 0 0-36.7 36.6v109.3a38 38 0 0 0 24.5 37.4c8.6 3.3 19.6 2 28.6 2h95.5c10 0 19.4-4.1 26.5-11.1 8.5-8.6 10.2-19.7 10.2-31v-96.7c0-6.4-10-6.4-10 0z" fill="#fff"/></svg>