<svg xmlns="http://www.w3.org/2000/svg" width="361" height="361"><path d="M285 126c0 9-9 8-15 8h-24c-5 0-13 1-16-4-3-4-2-12-2-16V91c0-6 0-14 8-14h38c5 0 11 1 11 8v41c0 4 7 4 7 0V89c0-7-1-13-7-17-4-3-11-2-16-2h-24c-5 0-10-1-15 1-7 3-9 11-9 17v22c0 7-1 16 2 22 4 9 14 9 22 9h28l9-1c6-2 10-8 10-15 0-4-7-4-7 0z" fill="#fff"/><path d="M253 87v37c0 4 7 4 7 0V87c0-5-7-5-7 0zM75 156V75l107 81z" fill="#fff"/><path d="M80 156V75l-8 4 107 81 3-9H75c-6 0-6 10 0 10h107c5 0 6-6 2-9L77 71c-3-3-7 1-7 4v81c0 7 10 7 10 0z" fill="#fff"/><path d="M163 282c0 3-5 5-11 5H85c-5 0-10-2-10-5V159c0-3 5-6 10-6h67c6 0 11 3 11 6v123z" fill="none" stroke="#fff" stroke-width="10" stroke-miterlimit="10"/><path d="M128 281c0 3-3 6-6 6H98c-3 0-6-3-6-6v-68c0-3 3-6 6-6h24c3 0 6 3 6 6v68z" fill="none" stroke="#fff" stroke-width="10" stroke-miterlimit="10"/><g fill="#fff"><path d="M186 233v54c0 5 7 5 7 0v-54c0-4-7-4-7 0zm12 0v54c0 5 7 5 7 0v-54c0-4-7-4-7 0zm11 0v54c0 5 7 5 7 0v-54c0-4-7-4-7 0zm11 0v54c0 5 7 5 7 0v-54c0-4-7-4-7 0zm12 0v54c0 5 7 5 7 0v-54c0-4-7-4-7 0zm11 0v54c0 5 7 5 7 0v-54c0-4-7-4-7 0zm11 0v54c0 5 7 5 7 0v-54c0-4-7-4-7 0zm12 0v54c0 5 7 5 7 0v-54c0-4-7-4-7 0zm11 0v54c0 5 7 5 7 0v-54c0-4-7-4-7 0z"/><path d="M185 247h102c5 0 5-7 0-7H185c-4 0-4 7 0 7zm0 33h102c5 0 5-7 0-7H185c-4 0-4 7 0 7z"/></g></svg>