<svg xmlns="http://www.w3.org/2000/svg" width="361" height="361"><path d="M267.1 146.6H94.3a4.8 4.8 0 0 0-4.8 4.9v49a4.8 4.8 0 0 0 4.8 4.9H267a5 5 0 0 0 4.8-5v-49a4.8 4.8 0 0 0-4.8-4.8zm-.4 67.2h-172a4.9 4.9 0 0 0-4.8 5v51.6c0 2.8 2.1 5 4.7 5h172.1a4.9 4.9 0 0 0 4.8-5v-51.6a5 5 0 0 0-4.8-5zM77 124.8l64.1-43c5.4-3.6.4-12.3-5-8.7l-64.2 43c-5.3 3.5-.3 12.2 5 8.6z" fill="#fff"/><path d="M276.7 279c0-.4.5-.3-.6-.3H85.8c-1.7 0-1.1.5-1.1-.6V117.4l-2.5 4.4 59.8-40-3.8.4 135.4 41c.9.3 3.1.6 3.1 1.2v154.5c0 6.5 10 6.5 10 0V132.3c0-8 1-15.3-8.6-18.2l-22.6-6.8-88.7-26.8-25.1-7.6c-2.7-.9-4.6.1-6.8 1.6L120.7 84 83 109.2c-2.7 1.8-8.3 4.3-8.3 8.2v159c0 3.9.4 7.6 3.7 10.2 2.6 2 5.4 2.1 8.5 2.1h187.3c6.5 0 11.6-2.5 12.5-9.7.9-6.4-9.1-6.3-10 0zM90.6 210h180.2" fill="#fff"/><path d="M90.6 211.4h180.2c2 0 2-3 0-3H90.6c-2 0-2 3 0 3zm0-68.7h180.2m-180.2 1.6h180.2c2 0 2-3 0-3H90.6c-2 0-2 3 0 3zM137.8 82L278 123.7l7.3 2.1c6.2 1.9 8.8-7.8 2.6-9.6L147.8 74.5l-7.3-2.1c-6.2-1.9-8.8 7.8-2.7 9.6zm128.9 43.7L144 89.5c-1.7-.5-4-.2-4.7.3l-45 29.8c-4.8 3.2-4.8 3.4-4.8 6v6.8a4.8 4.8 0 0 0 4.8 4.8h172a4.8 4.8 0 0 0 4.9-4.7l.2-2c0-2.6-1.4-3.5-4.8-4.8z" fill="#fff"/></svg>