<svg xmlns="http://www.w3.org/2000/svg" width="361" height="361"><path d="M267 147H94a5 5 0 0 0-4 4v50a5 5 0 0 0 4 4h173a5 5 0 0 0 5-5v-49a5 5 0 0 0-5-4zm0 67H95a5 5 0 0 0-5 5v51c0 3 2 5 5 5h172a5 5 0 0 0 5-5v-51a5 5 0 0 0-5-5zM77 125l64-43c5-4 0-13-5-9l-64 43c-5 4 0 12 5 9z" fill="#fff"/><path d="M277 279H86c-2 0-1 0-1-1V117l-3 5 60-40h-4l136 41 3 1v155c0 6 10 6 10 0V132c0-8 1-15-9-18l-22-7-89-26-25-8c-3-1-5 0-7 2l-14 9-38 25c-3 2-8 5-8 8v159c0 4 0 8 3 11 3 2 6 2 9 2h187c7 0 12-3 13-10 1-6-9-6-10 0zM91 210h180" fill="#fff"/><path d="M91 211h180c2 0 2-3 0-3H91c-2 0-2 3 0 3zm0-68h180m-180 1h180c2 0 2-3 0-3H91c-2 0-2 3 0 3zm47-62l140 42 7 2c7 2 9-8 3-10L148 75l-7-3c-7-1-9 8-3 10zm129 44L144 90h-5l-45 30c-4 3-4 3-4 6v6a5 5 0 0 0 4 5h172a5 5 0 0 0 5-4v-2c0-3-1-4-4-5z" fill="#fff"/></svg>