<svg xmlns="http://www.w3.org/2000/svg" width="361" height="361"><path d="M176.3 232.4c-.2 4 .3.3 3 .3h-18.1c2.8 0 3.3 3.7 3-.3V129c0-4 .2-.3-3-.3h18.2c-3.3 0-3.1-3.6-3.1.4v103.3c0 6.5 10 6.5 10 0v-103c0-2.8-.4-5.6-1.8-8-1.9-3-5.3-2.7-8.4-2.7h-10.9c-2.8 0-6.1-.5-8.3 1.7-3.1 3.1-2.6 8.3-2.6 12.4v97.6c0 4.7.4 12.3 6.7 12.3h18c5.8 0 7-5.6 7.3-10.3.3-6.4-9.7-6.4-10 0z" fill="#fff"/><path d="M179.5 104.7l105 80.3v-8.6l-105 80.3 7.5 4.3V100.4c0-6.5-10-6.5-10 0V261c0 3.4 4.4 6.7 7.5 4.3l105-80.3c3.3-2.4 3.3-6.2 0-8.6L184.6 96c-5.1-4-10 4.8-5 8.6zm-46.1 127.7c-.2 4 .3.3 3 .3h-18.1c2.8 0 3.3 3.7 3-.3V129c0-4 .1-.3-3-.3h18.2c-3.3 0-3.1-3.6-3.1.4v103.3c0 6.5 10 6.5 10 0v-103c0-2.8-.4-5.6-1.8-8-1.9-3-5.3-2.7-8.4-2.7h-10.9c-2.8 0-6.1-.5-8.3 1.7-3.1 3.1-2.6 8.3-2.6 12.4v97.6c0 4.7.4 12.3 6.7 12.3h18c5.8 0 7-5.6 7.3-10.3.3-6.4-9.7-6.4-10 0zm-41.7 0c-.2 4 .2.3 3 .3H76.5c2.9 0 3.3 3.7 3.1-.3V129c0-4 .1-.3-3-.3h18.2c-3.3 0-3.1-3.6-3.1.4v103.3c0 6.5 10 6.5 10 0v-103c0-2.8-.4-5.6-1.9-8-1.8-3-5.2-2.7-8.3-2.7h-11c-2.7 0-6-.5-8.3 1.7-3 3.1-2.6 8.3-2.6 12.4v97.6c0 4.7.5 12.3 6.8 12.3h18c5.8 0 7-5.6 7.3-10.3.3-6.4-9.7-6.4-10 0z" fill="#fff"/></svg>