<svg xmlns="http://www.w3.org/2000/svg" width="361" height="361"><path d="M178 78.9l106.7 81 2.6-9.3H180.7c-6.4 0-6.4 10 0 10h106.6c5.4 0 6.3-6.5 2.5-9.3L183 70.3c-5.1-4-10 4.8-5 8.6z" fill="#fff"/><path fill="#fff" d="M287.1 155.6l-106.3-81-106.2 81z"/><path d="M289.6 151.3l-106.2-81a4.8 4.8 0 0 0-5 0L72 151.3c-3.7 2.8-2.9 9.3 2.6 9.3H287c6.4 0 6.4-10 0-10H74.6l2.5 9.3 106.3-81h-5l106.2 81c5.1 4 10-4.8 5-8.6z" fill="#fff"/><path d="M263.7 280.6c-.1.6 1.5.5-.3.5H97.2c1.3 0 1 1.5 1-.7V160.6c0-1.6-.1 0-.9 0h166.6c1.3 0-.4-.5-.4-.7v122c0 6.5 10 6.5 10 0V170.7c0-7.3 1.8-20.1-9.2-20.1H112c-6 0-14.3-1.5-19.7 1.5-6.6 3.5-4.1 18.6-4.1 24.5v89.8c0 6.2-2.6 22.8 6.4 24.3 6 1 12.5.4 18.6.4H249c7.6 0 22.6 2.7 24.2-7.8 1-6.3-8.6-9-9.6-2.7z" fill="#fff"/></svg>