<svg xmlns="http://www.w3.org/2000/svg" width="361" height="361"><path d="M142.3 135.3H217c12.2 0 24.2-1 34.4 7.2a33.7 33.7 0 0 1 12.7 26.3v56.5c0 5.8-.3 11.1-2.2 16.7a33.7 33.7 0 0 1-23.3 20.7c-7.5 2-16.5 1-24.2 1H94c-6.5 0-6.5 10 0 10h136.4a44 44 0 0 0 42.6-34.1c1.2-5.1 1-10.3 1-15.4v-55.5a44 44 0 0 0-40.6-43.3c-5-.5-10-.1-15-.1h-76c-6.4 0-6.4 10 0 10z" fill="#fff"/><path d="M139.8 89l-48.5 37c-3.1 2.4-3.1 6.2 0 8.6l48.5 37c3.1 2.4 7.5-.8 7.5-4.3v-74c0-6.5-10-6.5-10 0v74l7.6-4.3-48.5-37v8.6l48.5-37c5-4 0-12.6-5-8.7z" fill="#fff"/></svg>