<svg xmlns="http://www.w3.org/2000/svg" width="361" height="361"><path d="M129.1 175.3c-4.2.2-10.3 1.2-10.3 6.7v8.8c0 7.4-1.5 15.9 8.6 16.4 8.6.4 17.3 0 26 0H232c6.8 0 10.9-2.5 10.9-9.3V187c0-2.8.3-5.6-1-8.1-2.1-4.2-8.6-3.6-12.7-3.6h-100c-6.5 0-6.5 10 0 10h103.4c3.9 0 .3 0 .3-3.1v18.2c0-2.8 3.6-3.3-.3-3.1H129.2c-4 0-.4-.2-.4 3v-18.1c0 2.8-3.6 3.3.3 3 6.5-.3 6.5-10.3 0-10z" fill="#fff"/><path d="M265.5 177L185.2 72c-2.5-3.2-6.2-3.2-8.7 0L96.2 177c-2.4 3.2 1 7.6 4.3 7.6h160.6c6.5 0 6.5-10 0-10H100.5l4.4 7.5L185.2 77h-8.7l80.3 105c3.9 5.1 12.6.1 8.7-5zM129 218.2c-4.2.2-10.3 1.2-10.3 6.7v8.8c0 7.4-1.5 15.9 8.6 16.4 8.6.4 17.3 0 26 0H232c6.8 0 10.9-2.5 10.9-9.3V230c0-2.8.3-5.7-1-8.2-2.2-4.2-8.6-3.6-12.8-3.6h-100c-6.4 0-6.4 10 0 10h103.5c3.9 0 .3 0 .3-3.1v18.2c0-2.8 3.6-3.3-.3-3.1H129.2c-4 0-.4-.2-.4 3v-18.1c0 2.8-3.6 3.3.3 3 6.4-.3 6.5-10.3 0-10zm0 41.7c-4.2.2-10.3 1.3-10.3 6.7v8.8c0 7.4-1.5 16 8.6 16.4 8.6.4 17.3.1 26 .1H232c6.8 0 10.9-2.5 10.9-9.4v-10.8c0-2.8.3-5.6-1-8.2-2.1-4.2-8.6-3.6-12.8-3.6h-100c-6.4 0-6.4 10 0 10h103.5c3.9 0 .3 0 .3-3.1V285c0-2.8 3.6-3.3-.3-3H129.2c-4 0-.4-.2-.4 3v-18.2c0 2.8-3.6 3.3.3 3.1 6.4-.3 6.5-10.3 0-10z" fill="#fff"/></svg>