<svg xmlns="http://www.w3.org/2000/svg" width="361" height="361"><path d="M204.5 110.8H223c8 0 15.1.4 21.4 6.2 8.7 8 7 20.3 7 30.9v81.2a23 23 0 0 1-24.2 24h-81.6c-11.4 0-22.6 1.3-31-8-7.3-8-5.3-20.8-5.3-30.6v-80.2a23 23 0 0 1 8.9-19c6.4-4.8 13.7-4.4 21.2-4.4h17.3c6.5 0 6.5-10 0-10-13 0-28.2-2.2-40.3 3.8a32.5 32.5 0 0 0-17 25.8c-.4 3-.1 6.2-.1 9.2V232a33 33 0 0 0 16 26.6c9.4 5.8 21.2 4.4 31.8 4.4h80.6a32.9 32.9 0 0 0 33.7-32.4V156c0-9 1.1-19-.5-28a32.7 32.7 0 0 0-32-27h-24.4c-6.5 0-6.5 10 0 10z" fill="#fff"/><path d="M175.8 91.8v102.9c0 6.4 10 6.4 10 0V91.8c0-6.4-10-6.4-10 0z" fill="#fff"/></svg>