<svg xmlns="http://www.w3.org/2000/svg" width="361" height="361"><path d="M176 158a18 18 0 0 1-18 18H93a18 18 0 0 1-18-18V93a18 18 0 0 1 18-18h65a18 18 0 0 1 18 18v65z" fill="none" stroke="#fff" stroke-width="10" stroke-miterlimit="10"/><path d="M121 96v58c0 7 10 7 10 0V96c0-6-10-6-10 0z" fill="#fff"/><g fill="#fff"><path d="M145 257h105c18 0 34-11 40-28 2-6 2-12 2-17v-22c0-12 1-25-1-38-4-19-22-32-41-32h-49c-6 0-6 10 0 10h50c11 0 21 6 27 15 6 11 4 27 4 39v24l-1 13c-2 17-16 26-32 26H145c-7 0-7 10 0 10z"/><path d="M147 282l-44-34v8l44-33-7-5v68c0 7 10 7 10 0v-68c0-3-5-7-8-4l-44 34c-4 2-4 6 0 8l44 35c5 3 10-5 5-9z"/></g></svg>