<svg xmlns="http://www.w3.org/2000/svg" width="361" height="361"><path d="M157 287.4a6 6 0 0 1-6-6v-201a6 6 0 0 1 6-6h47.6a6 6 0 0 1 6 6v201a6 6 0 0 1-6 6H157z" fill="none" stroke="#fff" stroke-width="10" stroke-miterlimit="10"/><path d="M176.8 104.5c-7.8-.5-7.8-12.4 0-13 2.6-.2 5.4 0 8.1 0 7.8 0 7.6 12.5 0 13-2.7.2-5.5 0-8.1 0-4.5 0-4.5 7 0 7 7.6 0 15.2.7 19.5-7 5-9-2-19.3-11.4-20-7.5-.5-15.5-.2-19.6 7.1-4.9 8.9 2 19.2 11.5 20 4.5.2 4.4-6.8 0-7z" fill="#fff"/><path d="M157 235.3c-3.2 0-6-1.4-6-3v-104c0-1.7 2.8-3 6-3h47.6c3.3 0 6 1.3 6 3v103.8c0 1.7-2.7 3.1-6 3.1H157z" fill="none" stroke="#fff" stroke-width="10" stroke-miterlimit="10"/><path d="M176.8 269.4c-7.8-.6-7.8-12.4 0-13 2.6-.2 5.4 0 8.1 0 7.8 0 7.6 12.4 0 13-2.7.2-5.5 0-8.1 0-4.5 0-4.5 7 0 7 7.6 0 15.2.7 19.5-7 5-9-2-19.3-11.4-20-7.5-.6-15.5-.2-19.6 7.1-4.9 8.9 2 19.2 11.5 19.9 4.5.3 4.4-6.7 0-7zm23.4-51.3a2.4 2.4 0 0 1-2.4 2.4h-14.2a2.4 2.4 0 0 1-2.4-2.4v-6.3a2.4 2.4 0 0 1 2.4-2.3h14.2a2.4 2.4 0 0 1 2.4 2.3v6.3z" fill="#fff"/><path d="M198.7 217.7c-.5 2.6-9.9 1.3-11.9 1.3-1 0-4.1.6-4.1-1.3V212c0-2 10.6-1 11.8-1 1.1 0 4.2-.6 4.2 1.3v5.8c0 2 3 2 3 0 0-2.5.2-5.1-.3-7.6-.5-2.6-3.7-2.5-5.7-2.5h-10c-2.8 0-5.3.2-6 3.5-.3 2-.3 5 0 7 .7 3.2 3.2 3.5 6 3.5h10c2.8 0 5.3-.3 6-3.5.3-1.9-2.6-2.7-3-.8z" fill="#fff"/><g fill="#fff"><path d="M163 158.2h35c6.5 0 6.5-10 0-10h-35c-6.5 0-6.5 10 0 10z"/><path d="M193.6 157.7a2.2 2.2 0 0 0-2.2-2.2h-21.8a2.2 2.2 0 0 0-2.2 2.2V183c0 1.2 1 2.2 2.2 2.2h21.8a2.2 2.2 0 0 0 2.2-2.2v-25.4z"/></g></svg>