<svg xmlns="http://www.w3.org/2000/svg" width="361" height="361"><path d="M157 287a6 6 0 0 1-6-6V80a6 6 0 0 1 6-6h48a6 6 0 0 1 6 6v201a6 6 0 0 1-6 6h-48z" fill="none" stroke="#fff" stroke-width="10" stroke-miterlimit="10"/><path d="M177 105c-8-1-8-13 0-13h8c8 0 8 12 0 13h-8c-5 0-5 7 0 7 7 0 15 0 19-7 5-9-2-20-11-20-8-1-16-1-20 7-5 8 2 19 12 20 4 0 4-7 0-7z" fill="#fff"/><path d="M157 235c-3 0-6-1-6-3V128c0-1 3-3 6-3h48c3 0 6 2 6 3v104c0 2-3 3-6 3h-48z" fill="none" stroke="#fff" stroke-width="10" stroke-miterlimit="10"/><path d="M177 269c-8 0-8-12 0-13h8c8 0 8 13 0 13h-8c-5 0-5 7 0 7 7 0 15 1 19-7 5-9-2-19-11-20-8 0-16 0-20 7-5 9 2 20 12 20 4 1 4-6 0-7zm22-51c-1 2-10 1-12 1-1 0-4 1-4-1v-6c0-2 10-1 12-1 1 0 4-1 4 1v6c0 2 3 2 3 0l-1-8c0-2-3-2-5-2h-10c-3 0-6 0-6 3v8c0 3 3 3 6 3h10c3 0 5 0 6-3 0-2-3-3-3-1zm-36-28h35c7 0 7-10 0-10h-35c-6 0-6 10 0 10z" fill="#fff"/><path d="M194 181a2 2 0 0 1-3 2h-21a2 2 0 0 1-3-2v-26c0-1 1-2 3-2h21c2 0 3 1 3 2v26z" fill="#fff"/></svg>