<svg xmlns="http://www.w3.org/2000/svg" width="361" height="361"><path d="M103 191v49a5 5 0 0 0 5 5h139a5 5 0 0 0 5-5v-49a5 5 0 0 0-5-5H108a5 5 0 0 0-5 5zm71 40h-19v-31h18v5h-12v7h11v5h-11v9h13v5zm11-8a6 6 0 0 0 5 3 15 15 0 0 0 2 0v-11h7v15a26 26 0 0 1-9 1l-5-1-4-3a14 14 0 0 1-3-5 25 25 0 0 1-1-7l1-6 3-5a12 12 0 0 1 9-4 16 16 0 0 1 6 1h2l1 1-2 5a11 11 0 0 0-6-2 8 8 0 0 0-3 1 7 7 0 0 0-3 2 9 9 0 0 0-1 3l-1 4 2 8z" fill="#fff"/><path d="M90 250c2 10 14 8 21 8h129c6 0 15 1 21-2s4-16 4-22V104c0-3-3-5-5-5l-148 13c-5 1-18 0-21 5l-1 9v123c0 6 10 6 10 0V122c0 1-2 1 0 1l152-13 8-1-5-5v144c0 1 2-1 0-1H100c-2 0 0 0 0 0-1-6-11-3-10 3zm160-68H103" fill="#fff"/><path d="M250 181H103c-2 0-2 3 0 3h147c2 0 2-3 0-3zm33-84l-146 12-59 6c-6 0-6 10 0 10l147-13 58-5c7-1 7-11 0-10z" fill="#fff"/><g fill="#fff"><path d="M269 251h22v-3h-22c-2 0-2 3 0 3zm14 31h5c2 0 4-2 4-4s-2-3-4-3h-5c-2 0-3 1-3 3s2 4 3 4zm-26 10h16c4 0 4-7 0-7h-16c-5 0-5 7 0 7z"/><path d="M268 286h6c2 0 4-2 4-4s-2-3-4-3h-6c-2 0-3 1-3 3s1 4 3 4zm19 6h2c2 0 3-2 3-4s-1-3-3-3h-2c-2 0-4 1-4 3s2 4 4 4zm-19-20h-6c-2 0-4 1-4 3s2 4 4 4h6c2 0 3-2 3-4s-1-3-3-3zm-2-12h-2c-2 0-4 1-4 3s2 4 4 4h2c2 0 3-2 3-4s-1-3-3-3z"/><path d="M289 258h-16c-5 0-5 7 0 7h16c4 0 4-7 0-7zm-4 8h-15c-5 0-5 7 0 7h15c4 0 4-7 0-7z"/><path d="M288 252h-6l-3 3c0 1 2 4 4 4h5c2 0 4-2 4-4s-2-3-4-3zm-15 2h-5c-2 0-4 1-4 3s2 4 4 4h6c1 0 3-2 3-4s-2-3-3-3zm-17 10h-6c-2 0-3 2-3 4s1 3 3 3h6c2 0 4-2 4-3s-2-4-4-4zm32 6h-1c-2 0-3 2-3 4s1 3 3 3h1c2 0 3-1 3-3s-1-4-3-4zM74 283h7c4 0 4-7 0-7h-7c-5 0-5 7 0 7zm26-3h8c5 0 5-7 0-7h-8c-4 0-4 7 0 7zm-3-11h15c5 0 5-7 0-7H97c-5 0-5 7 0 7zm25 23h6c2 0 4-2 4-4s-2-3-4-3h-6c-2 0-3 1-3 3s1 4 3 4zm124-8h-9c-4 0-4 7 0 7h9c5 0 5-7 0-7z"/><path d="M259 268h-16c-4 0-4 7 0 7h16c5 0 5-7 0-7zM80 252h-6c-2 0-3 1-3 3s1 4 3 4h6c2 0 4-2 4-4s-2-3-4-3zm161 9h-4c-2 0-3 1-3 3s1 4 3 4h4c1 0 3-2 3-4s-2-3-3-3zM77 273h2c2 0 3-2 3-3s-1-4-3-4h-2c-2 0-4 2-4 4s2 3 4 3zm17 3h-2c-2 0-4 2-4 4s2 3 4 3h2c2 0 3-1 3-3s-1-4-3-4zm-22-25h14c2 0 2-3 0-3H71c-2 0-2 3 0 3zm124 34h-6c-2 0-3 1-3 3s1 4 3 4h6c2 0 4-2 4-4s-2-3-4-3z"/><path d="M88 264h-6c-2 0-3 1-3 3s1 4 3 4h6c2 0 3-2 3-4s-1-3-3-3zm85 3h9c4 0 4-7 0-7h-9c-5 0-5 7 0 7zm33 25h16c4 0 4-7 0-7h-16c-5 0-5 7 0 7zm15-14h6c2 0 4-2 4-4s-2-3-4-3h-6c-2 0-3 1-3 3s2 4 3 4z"/><path d="M215 288h2c2 0 4-2 4-3s-2-4-4-4h-2c-2 0-3 2-3 4s1 3 3 3zm-1-23h-6c-2 0-4 1-4 3s2 4 4 4h6c2 0 3-2 3-4s-1-3-3-3z"/><path d="M223 261h-15c-5 0-5 7 0 7h15c4 0 4-7 0-7zm11 18h-6c-2 0-4 1-4 3s2 4 4 4h6c2 0 3-2 3-4s-1-3-3-3zm-98-7h-9c-5 0-5 7 0 7h9c4 0 4-7 0-7zm17-11h-16c-5 0-5 7 0 7h16c4 0 4-7 0-7zm-1 11h-6c-1 0-3 1-3 3s2 4 3 4h6c2 0 4-2 4-4s-2-3-4-3z"/><path d="M139 266h-2c-2 0-3 1-3 3s1 4 3 4h2c2 0 4-2 4-4s-2-3-4-3zm6 26h6c2 0 3-2 3-4s-1-3-3-3h-6c-2 0-4 1-4 3s2 4 4 4zm-59 0h15c5 0 5-7 0-7H86c-5 0-5 7 0 7zm39-20h6c1 0 3-2 3-4s-2-3-3-3h-6c-2 0-4 1-4 3s2 4 4 4zm53 5h9c5 0 5-7 0-7h-9c-4 0-4 7 0 7zm-18 15h16c4 0 4-7 0-7h-16c-5 0-5 7 0 7zm-5-8h6c2 0 3-2 3-4s-1-3-3-3h-6c-2 0-4 1-4 3s2 4 4 4z"/><path d="M173 288h2c2 0 4-2 4-4s-2-3-4-3h-2c-2 0-3 1-3 3s1 4 3 4zm-5-23h-12c-4 0-4 7 0 7h12c4 0 4-7 0-7zm43 3h-12c-5 0-5 7 0 7h12c4 0 4-7 0-7zm-19 11h-6c-2 0-3 1-3 3s1 4 3 4h6c2 0 4-2 4-4s-2-3-4-3zm-45 1h16c4 0 4-7 0-7h-16c-5 0-5 7 0 7zm-29-5h-9c-4 0-4 7 0 7h9c5 0 5-7 0-7zm6-15h-4c-2 1-3 2-3 4s1 4 3 4h4c2 0 3-2 3-4s-2-3-3-3zm-24 5h-6c-2 0-4 2-4 4s2 3 4 3h6c1 0 3-1 3-3s-2-4-3-4zm-13 16h-5c-2 0-4 2-4 4s2 3 4 3h5c2 0 4-2 4-3s-2-4-4-4z"/><path d="M189 271h16c4 0 4-7 0-7h-16c-4 0-4 7 0 7zm-46 11h-2c-2 0-3 1-3 3s1 4 3 4h2c2 0 4-2 4-4s-2-3-4-3zm4-10h-2c-2 0-4 1-4 3s2 4 4 4h2c2 0 3-2 3-4s-1-3-3-3zm-42 20h6c2 0 3-2 3-4s-1-3-3-3h-6c-2 0-3 1-3 3s1 4 3 4zm-32-1h2c2 0 4-2 4-4s-2-3-4-3h-2c-2 0-3 1-3 3s1 4 3 4zm20-9h2c2 0 3-2 3-4s-1-3-3-3h-2c-2 0-4 1-4 3s2 4 4 4z"/><path d="M104 273h-6c-2 0-3 1-3 3s1 4 3 4h6c2 0 3-2 3-4s-1-3-3-3zm147 10h2c2 0 3-1 3-3s-1-4-3-4h-2c-2 0-4 2-4 4s2 3 4 3zm-39-10h-12c-4 0-4 7 0 7h12c4 0 4-7 0-7zM83 260H73c-4 0-4 7 0 7h10c5 0 5-7 0-7zm57 21h-11c-4 0-4 7 0 7h12c4 0 4-7 0-7z"/></g></svg>