<svg xmlns="http://www.w3.org/2000/svg" width="361" height="361"><path d="M263.6 237.2a27 27 0 0 1-18.4 25.3c-4 1.3-8 1.3-12.1 1.3H124.8a26.9 26.9 0 0 1-25.3-18.5c-1.3-4-1.2-8-1.2-12V125c0-11.6 7.5-21.7 18.4-25.3 4-1.4 8-1.3 12-1.3H237c11.6 0 21.7 7.6 25.3 18.4 1.4 4 1.3 8 1.3 12.1v108.3c0 6.4 10 6.4 10 0V128.9c0-15.6-6.1-29.8-20.9-37-9.3-4.5-20-3.5-30.1-3.5h-97.4c-8.9 0-16.8 3.1-23.8 8.5-11.3 8.8-13.2 22-13.2 35.2v87c0 9-.9 18.8 1.3 27.6 4.2 17.3 20.6 27 37.5 27h109.7a37 37 0 0 0 36.9-36.5c.1-6.5-9.9-6.4-10 0z" fill="#fff"/></svg>