<svg xmlns="http://www.w3.org/2000/svg" width="361" height="361"><path d="M176 232c0 4 1 1 3 1h-18c3 0 4 3 3-1V129c0-4 0 0-3 0h18c-3 0-3-4-3 0v103c0 7 10 7 10 0V129l-1-8c-2-3-6-2-9-2h-11c-3 0-6-1-8 1-3 3-3 9-3 13v97c0 5 1 13 7 13h18c6 0 7-6 7-11 1-6-9-6-10 0z" fill="#fff"/><path d="M180 105l105 80v-9l-105 81 7 4V100c0-6-10-6-10 0v161c0 3 4 7 8 4l105-80c3-2 3-6 0-9L185 96c-6-4-10 5-5 9zm-47 127c0 4 1 1 3 1h-18c3 0 4 3 3-1V129c0-4 0 0-3 0h19c-4 0-4-4-4 0v103c0 7 10 7 10 0V129l-1-8c-2-3-6-2-9-2h-11c-3 0-6-1-8 1-3 3-3 9-3 13v97c0 5 1 13 7 13h18c6 0 7-6 7-11 1-6-9-6-10 0zm-41 0c0 4 0 1 3 1H77c2 0 3 3 3-1V129c0-4 0 0-3 0h18c-4 0-3-4-3 0v103c0 7 10 7 10 0V129l-2-8c-2-3-5-2-9-2h-9c-3 0-6-1-9 1-3 3-2 9-2 13v97c0 5 0 13 6 13h18c6 0 7-6 8-11 0-6-10-6-10 0z" fill="#fff"/></svg>