<svg xmlns="http://www.w3.org/2000/svg" width="361" height="361"><path d="M276.6 145.3a61 61 0 0 1-30.5 52.4c-19 11-42.9 9.9-61.4-1.4a60.6 60.6 0 0 1-28.2-53.7c.7-21.6 14-40.8 32.8-50.8a60.5 60.5 0 0 1 59.1 2.6 60.4 60.4 0 0 1 28.2 51c.1 9.6 15.1 9.7 15 0-.2-23-10.6-45-28.8-59.1A76 76 0 0 0 197 72.8a75.2 75.2 0 0 0-45.8 109.7A76 76 0 0 0 236 218a75.9 75.9 0 0 0 55.6-72.5c.1-9.7-14.9-9.8-15 0z" fill="#fff"/><path d="M174.1 198.4l95.5-95.5c6.9-6.9-3.7-17.5-10.6-10.6l-95.5 95.5c-7 7 3.7 17.5 10.6 10.6z" fill="#fff"/><path d="M162 105.4H80.4a5.5 5.5 0 0 0-5.6 5.5v169.8a5.5 5.5 0 0 0 5.6 5.5H210a5.5 5.5 0 0 0 5.5-5.5v-67.8" fill="none" stroke="#fff" stroke-width="10" stroke-miterlimit="10"/><path d="M96.1 137.4h54.1c6.5 0 6.5-10 0-10h-54c-6.5 0-6.5 10 0 10zm0 47.2h62.2c6.4 0 6.4-10 0-10H96c-6.4 0-6.4 10 0 10zm0-23.6h53.7c6.5 0 6.5-10 0-10H96.1c-6.4 0-6.4 10 0 10zm0 47.3h85.6c6.4 0 6.4-10 0-10H96c-6.4 0-6.4 10 0 10zm.6 23.6h96.9c6.5 0 6.5-10 0-10H96.7c-6.5 0-6.5 10 0 10zm.1 23.6h96.7c6.4 0 6.4-10 0-10H96.8c-6.4 0-6.4 10 0 10z" fill="#fff"/></svg>