<svg xmlns="http://www.w3.org/2000/svg" width="361" height="361"><path d="M134 153a357 357 0 0 0-3-9l-3-9H96l-4 9a351 351 0 0 0-3 9H70a1475 1475 0 0 1 9-25l8-22a771 771 0 0 1 8-19 422 422 0 0 1 8-18h18a672 672 0 0 1 8 18 642 642 0 0 1 8 19 866 866 0 0 1 8 22 1478 1478 0 0 1 9 25h-20zm-22-65a154 154 0 0 1-2 5 885 885 0 0 0-3 7 1053 1053 0 0 1-3 10 547 547 0 0 0-4 10h24a1262 1262 0 0 0-4-11 368 368 0 0 0-4-8 1853 1853 0 0 1-2-8 219 219 0 0 0-2-5zm22 133a360 360 0 0 0-32 40l-9 15h42v16H70v-12l8-13a589 589 0 0 1 10-15 416 416 0 0 1 21-28H72v-16h62v14z" fill="#fff"/><path d="M265 209l4-1v-21l-4-1h-76l-4 1v21l4 1h76z" fill="none" stroke="#fff" stroke-width="10" stroke-miterlimit="10"/><path d="M165 212l58 77c3 3 6 3 9 0l58-77c3-3 0-7-4-7H169c-7 0-7 10 0 10h117l-4-8-59 77h9l-59-77c-4-5-12 0-9 5z" fill="#fff"/><path d="M265 165l4-1v-21l-4-2h-76l-4 2v21l4 1h76zm0-45l4-1V98l-4-1h-75l-4 1v21l4 1h75z" fill="none" stroke="#fff" stroke-width="10" stroke-miterlimit="10"/></svg>