<svg xmlns="http://www.w3.org/2000/svg" width="361" height="361"><path d="M227 157v-36c0-13 2-28-6-39a32 32 0 0 0-26-13h-91c-17 0-32 10-34 28-2 9-1 19-1 28v70a32 32 0 0 0 33 32h62c6 0 6-10 0-10h-56l-14-1c-9-3-15-12-15-21v-92c0-14 9-24 24-24h81c5 0 11-1 17 1 12 2 16 13 16 25v52c0 7 10 7 10 0z" fill="#fff"/><path d="M188 140h-80c-9 0-9 15 0 15h80c10 0 10-15 0-15z" fill="#fff"/><path d="M191 263l-4 1v21c0 1 1 2 3 2h76l4-2v-21l-4-1h-75z" fill="none" stroke="#fff" stroke-width="10" stroke-miterlimit="10"/><path d="M291 260l-59-77c-2-3-6-3-9 0l-58 77c-3 3 1 8 4 8h117c7 0 7-10 0-10H169l4 7 59-77h-9l59 77c4 5 13 0 9-5z" fill="#fff"/></svg>