<svg xmlns="http://www.w3.org/2000/svg" width="361" height="361"><path d="M227 164V95a32 32 0 0 0-20-24 40 40 0 0 0-15-2h-91a32 32 0 0 0-26 14c-7 10-6 22-6 33v76c0 13 6 25 18 31 10 5 22 4 33 4h29c7 0 7-10 0-10H98c-11-1-19-12-19-22v-75c0-10-1-22 3-31 7-11 21-10 32-10h80c11 0 20 7 23 18v67c0 7 10 7 10 0z" fill="#fff"/><path d="M188 140h-80c-9 0-9 15 0 15h80c10 0 10-15 0-15z" fill="#fff"/><path d="M156 188v-80c0-10-15-10-15 0v79c0 10 15 10 15 1z" fill="#fff"/><path d="M266 210l3-1v-21l-3-1h-76l-4 1v21l4 1h76z" fill="none" stroke="#fff" stroke-width="10" stroke-miterlimit="10"/><path d="M165 213l59 77c2 3 6 3 9 0l58-77c3-3-1-8-4-8H170c-7 0-7 10 0 10h117l-4-7-59 77h9l-59-77c-4-5-13 0-9 5z" fill="#fff"/></svg>