<svg xmlns="http://www.w3.org/2000/svg" width="361" height="361"><path d="M287 278a8 8 0 0 1-8 8H83a8 8 0 0 1-8-8V82a8 8 0 0 1 8-8h196a8 8 0 0 1 8 8v196z" fill="none" stroke="#fff" stroke-width="10" stroke-miterlimit="10"/><path d="M258 158c-1 3-6 2-7 2H115c-2 1-5 0-5-3V82c0-3 2-4 5-4h141c3 0 2 9 2 11v69c0 5 7 5 7 0V85c0-5 0-10-4-12-3-2-6-2-9-2H129c-6 0-16-2-22 2-4 2-4 7-4 12v64c0 8 0 18 11 18h125c9 0 24 3 26-9 0-4-7-4-7 0z" fill="#fff"/><path d="M89 95a4 4 0 0 1-5 4h-4a4 4 0 1 1 0-8h5a4 4 0 0 1 4 4z" fill="none" stroke="#fff" stroke-width="10" stroke-miterlimit="10"/><path d="M125 103h117c5 0 5-7 0-7H125c-5 0-5 7 0 7zm0 49h117c5 0 5-7 0-7H125c-5 0-5 7 0 7zm0-24h117c5 0 5-7 0-7H125c-5 0-5 7 0 7zm31 139a8 8 0 0 1-8 7h-14a8 8 0 0 1-7-7v-50a8 8 0 0 1 7-7h14a8 8 0 0 1 8 7v50z" fill="#fff"/><path d="M245 278c0 6-5 5-9 5H123c-5 0-5-4-5-8v-63c0-4-2-11 4-11h118c5 0 5 4 5 8v69c0 5 7 5 7 0v-71c0-6-3-13-10-13H123c-14 0-12 15-12 25v46c0 9-2 25 11 25h118c7 0 11-5 12-12 0-4-7-4-7 0z" fill="#fff"/></svg>