<svg xmlns="http://www.w3.org/2000/svg" width="361" height="361"><path d="M282 249a34 34 0 0 1-34 33H129c-9 0-17 1-25-1-16-5-24-20-24-35V124c0-10-1-20 5-29a33 33 0 0 1 28-15h136c9 0 18 4 25 11 8 9 8 20 8 31v127c0 6 10 6 10 0V113a44 44 0 0 0-36-43H114a44 44 0 0 0-42 30c-3 8-2 18-2 27v120c0 17 8 32 24 40 9 5 19 5 30 5h122c15 0 29-5 38-18a43 43 0 0 0 8-25c0-7-10-7-10 0z" fill="#fff"/><path d="M136 196c0-30 7-52 21-68 15-15 35-24 63-25l1 12-25 4a59 59 0 0 0-20 10 56 56 0 0 0-15 18c-4 7-7 15-8 26a74 74 0 0 1 14-6 67 67 0 0 1 18-2 51 51 0 0 1 21 4c5 2 10 6 14 10a41 41 0 0 1 7 15 63 63 0 0 1 3 17 58 58 0 0 1-3 17 46 46 0 0 1-8 16 44 44 0 0 1-14 11 43 43 0 0 1-20 5c-16 0-28-6-37-17-8-11-12-27-12-47zm48-19a61 61 0 0 0-18 3 108 108 0 0 0-14 5 53 53 0 0 0-1 6v5l2 20a49 49 0 0 0 5 16c3 5 6 8 10 11a30 30 0 0 0 16 4c6 0 10-1 14-3a26 26 0 0 0 10-8 33 33 0 0 0 5-11 53 53 0 0 0 1-13c0-12-2-21-7-26-6-6-13-9-23-9z" fill="#fff"/></svg>