<svg xmlns="http://www.w3.org/2000/svg" width="361" height="361"><path d="M282.1 248.8a33.7 33.7 0 0 1-34.4 33.2H128.5c-8.2 0-17 .8-25-1.4-16-4.3-23.8-19.3-23.8-34.8V124.1c0-10.3-.4-19.8 5.3-29.1a33.4 33.4 0 0 1 28-15.3h135.7c9.7 0 18.4 4 25 11.1 8.3 8.9 8.4 20 8.4 31v127c0 6.5 10 6.5 10 0V113a43.6 43.6 0 0 0-36.4-42.8c-7.7-1.2-16-.5-23.7-.5H113.7A44 44 0 0 0 72 99.5c-3 8.4-2.2 18.2-2.2 27V247c0 17 8.4 32.4 23.8 40.4 9.6 5 19.7 4.6 30.1 4.6h122c15.5 0 28.9-5.5 38.4-18.1a42.9 42.9 0 0 0 8-25.1c.2-6.5-9.8-6.4-10 0z" fill="#fff"/><path d="M219.2 141.8a42 42 0 0 1-3.1 16.2 67.9 67.9 0 0 1-8.3 14.6 118.4 118.4 0 0 1-11.8 13.6l-13.4 13.2a394.5 394.5 0 0 0-11 11.1c-3.7 3.8-6.9 7.5-9.8 11.3a60.6 60.6 0 0 0-6.8 11 25 25 0 0 0-2.5 10.6v.5h72v12.5h-87.8l-.1-1.6-.2-3.7c0-6.9 1.3-13.3 3.8-19.2a81.5 81.5 0 0 1 9.5-16.8 111 111 0 0 1 13-14.7A3074.3 3074.3 0 0 0 187 177a78 78 0 0 0 8.7-10.2 48.6 48.6 0 0 0 6-11.3 39 39 0 0 0 2.1-13c0-10.3-2.7-17.6-8.2-22.1a31.9 31.9 0 0 0-20.8-6.8c-4.7 0-8.9.6-12.5 1.8a50.9 50.9 0 0 0-9.6 4 45.3 45.3 0 0 0-7 4.8 74.4 74.4 0 0 0-4.1 3.7L134 118a50.6 50.6 0 0 1 4.7-4.5 49.7 49.7 0 0 1 8.6-5.8 63 63 0 0 1 12-5 51.7 51.7 0 0 1 15.2-2c14.8 0 26 3.6 33.4 10.9a40.2 40.2 0 0 1 11.3 30.2z" fill="#fff"/></svg>