<svg xmlns="http://www.w3.org/2000/svg" width="361" height="361"><path d="M282.1 248.8a33.7 33.7 0 0 1-34.4 33.2H128.5c-8.2 0-17 .8-25-1.4-16-4.3-23.8-19.3-23.8-34.8V124.1c0-10.3-.4-19.8 5.3-29.1a33.4 33.4 0 0 1 28-15.3h135.7c9.7 0 18.4 4 25 11.1 8.3 8.9 8.4 20 8.4 31v127c0 6.5 10 6.5 10 0V113a43.6 43.6 0 0 0-36.4-42.8c-7.7-1.2-16-.5-23.7-.5H113.7A44 44 0 0 0 72 99.5c-3 8.4-2.2 18.2-2.2 27V247c0 17 8.4 32.4 23.8 40.4 9.6 5 19.7 4.6 30.1 4.6h122c15.5 0 28.9-5.5 38.4-18.1a42.9 42.9 0 0 0 8-25.1c.2-6.5-9.8-6.4-10 0z" fill="#fff"/><path d="M135.8 196c0-29.9 7.1-52.4 21.4-67.8 14.3-15.4 35.1-23.7 62.4-24.9l.9 12.1c-9 .6-17.2 2-24.8 4a59.4 59.4 0 0 0-20.1 10 55.7 55.7 0 0 0-14.7 17.2c-4 7-6.7 15.7-8.2 26a74.1 74.1 0 0 1 14.3-5.4 66.6 66.6 0 0 1 17.8-2.3 51 51 0 0 1 21 3.8c5.6 2.6 10.3 6 13.8 10.3a40.5 40.5 0 0 1 7.7 14.7 63 63 0 0 1 2.4 17.6 58 58 0 0 1-2.6 17.2 45.9 45.9 0 0 1-8.3 15.5 43.9 43.9 0 0 1-14 11.3 43 43 0 0 1-20.2 4.4c-16 0-28.1-5.6-36.4-16.8-8.3-11.2-12.4-26.9-12.4-47zm47.7-18.6a61 61 0 0 0-17.7 2.3 107.8 107.8 0 0 0-14.2 5.5 52.9 52.9 0 0 0-.4 5.8v5.1c0 7 .5 13.5 1.4 19.6a49.4 49.4 0 0 0 5.3 16.3c2.6 4.7 6 8.4 10.2 11.1a30 30 0 0 0 16.3 4c5.4 0 10-1 13.9-2.9a26 26 0 0 0 9.2-7.8 32.9 32.9 0 0 0 5.2-11.2 53.3 53.3 0 0 0 1.6-13.4c0-11.8-2.6-20.4-7.8-26-5.2-5.6-12.9-8.4-23-8.4z" fill="#fff"/></svg>