<svg xmlns="http://www.w3.org/2000/svg" width="361" height="361"><path d="M134.2 152.7a357.4 357.4 0 0 0-3-9l-3.1-9H95.6l-3.2 9a350.8 350.8 0 0 0-3 9H70a1475.3 1475.3 0 0 1 9-24.9l8.2-21.5a771.4 771.4 0 0 1 8-19 422.2 422.2 0 0 1 8-17.8H121a672.2 672.2 0 0 1 8 17.7 641.6 641.6 0 0 1 8 19.1 865.8 865.8 0 0 1 8.4 21.5 1477.7 1477.7 0 0 1 8.9 24.9h-20zm-22.5-64.3a153.7 153.7 0 0 1-1.8 4.9 884.5 884.5 0 0 0-2.8 7.2 1053 1053 0 0 1-3.4 9 547.3 547.3 0 0 0-3.9 10.3h23.8a1261.5 1261.5 0 0 0-3.7-10.3 368 368 0 0 0-3.4-9 1852.7 1852.7 0 0 1-2.8-7.3 218.5 218.5 0 0 0-2-4.8zm22 133a360 360 0 0 0-31.2 39.4c-3.6 5.3-6.9 10.3-9.8 15.1h42.4v15.8H69.7v-11.2c2.2-4 5-8.6 8.2-13.6a588.5 588.5 0 0 1 10.2-15.1 415.6 415.6 0 0 1 20.8-27.6H71.6v-15.7h62.2v13z" fill="#fff"/><path d="M264.7 209.2c2.2 0 4-.5 4-1.2v-21c0-.6-1.8-1.1-4-1.1h-75.5c-2.2 0-4 .5-4 1.2v21c0 .6 1.8 1.1 4 1.1h75.5z" fill="none" stroke="#fff" stroke-width="10" stroke-miterlimit="10"/><path d="M164.5 212.3L223 289c2.5 3.2 6.2 3.2 8.7 0l58.6-76.7c2.4-3.1-.8-7.5-4.3-7.5H168.8c-6.5 0-6.5 10 0 10h117.3l-4.3-7.6-58.7 76.8h8.7L173 207.2c-3.8-5-12.5 0-8.6 5z" fill="#fff"/><path d="M264.7 164.8c2.2 0 4-.6 4-1.3v-21c0-.6-1.8-1.1-4-1.1h-75.5c-2.2 0-4 .5-4 1.2v21c0 .6 1.8 1.2 4 1.2h75.5zm.5-44.4c2.2 0 4-.6 4-1.2v-21c0-.7-1.8-1.2-4-1.2h-75.5c-2.2 0-3.9.5-3.9 1.2v21c0 .6 1.7 1.2 3.9 1.2h75.5z" fill="none" stroke="#fff" stroke-width="10" stroke-miterlimit="10"/></svg>