<svg xmlns="http://www.w3.org/2000/svg" width="361" height="361"><path d="M282.1 248.8a33.7 33.7 0 0 1-34.4 33.2H128.5c-8.2 0-17 .8-25-1.4-16-4.3-23.8-19.3-23.8-34.8V124.1c0-10.3-.4-19.8 5.3-29.1a33.4 33.4 0 0 1 28-15.3h135.7c9.7 0 18.4 4 25 11.1 8.3 8.9 8.4 20 8.4 31v127c0 6.5 10 6.5 10 0V113a43.6 43.6 0 0 0-36.4-42.8c-7.7-1.2-16-.5-23.7-.5H113.7A44 44 0 0 0 72 99.5c-3 8.4-2.2 18.2-2.2 27V247c0 17 8.4 32.4 23.8 40.4 9.6 5 19.7 4.6 30.1 4.6h122c15.5 0 28.9-5.5 38.4-18.1a42.9 42.9 0 0 0 8-25.1c.2-6.5-9.8-6.4-10 0z" fill="#fff"/><path d="M226.6 164.5c0 30.6-7.3 53.7-22 69.2-14.6 15.4-36 23.2-64.2 23.2l-.5-12a101 101 0 0 0 26.7-3.2 59 59 0 0 0 21-10.2 52.9 52.9 0 0 0 14.5-17.9c3.7-7.2 6.3-16 7.6-26.3a73.9 73.9 0 0 1-14.3 5.4 66.6 66.6 0 0 1-17.8 2.3c-8.2 0-15.2-1.2-21-3.8-5.7-2.6-10.3-6-13.8-10.2a40.4 40.4 0 0 1-7.7-14.8 62.1 62.1 0 0 1-2.4-17.4c0-5.5.9-11.2 2.6-16.9s4.5-10.9 8.3-15.5a43.9 43.9 0 0 1 14-11.3c5.7-3 12.4-4.4 20.2-4.4 16 0 28.1 5.6 36.4 16.8 8.3 11.2 12.4 26.9 12.4 47zm-47.7 18c6.8 0 12.7-.8 17.7-2.3 5-1.6 9.8-3.3 14.2-5.4a124.4 124.4 0 0 0 .4-10.6c0-6.9-.4-13.4-1.4-19.5a49.5 49.5 0 0 0-5.3-16.3 30 30 0 0 0-10.2-11.1 30 30 0 0 0-16.3-4.1c-5.4 0-10 1-13.8 3a26 26 0 0 0-9.3 7.8 32.8 32.8 0 0 0-5.1 11.2 52.5 52.5 0 0 0-1.7 13.2c0 11.6 2.6 20.2 7.8 25.7 5.2 5.6 12.9 8.4 23 8.4z" fill="#fff"/></svg>