<svg xmlns="http://www.w3.org/2000/svg" width="361" height="361"><path d="M159 276c-2 7-6 5-12 5l-9-1h-1c3 0 1 1 2-1v-2l5-17 4-13a20 20 0 0 1 8-8h13v3l-2 5-8 29c-2 6 8 9 10 3l8-30 2-8a13 13 0 0 0-2-8c-3-4-6-4-10-4-6 0-13-1-19 3-5 4-8 9-10 15l-7 22c-2 5-5 14 0 18 6 4 14 3 21 4h7c5-2 8-7 10-12 2-6-8-9-10-3z" fill="#fff"/><path d="M178 244a92 92 0 0 1 20-32c5-4 12-10 12-17 0-3-4-4-6-2l6 2-1-65-1-39v-8c0-7-7-12-14-13-2 0-3 2-4 3l-1 28-3 47-2 38a85 85 0 0 1-7 31c-3 5-7 13-13 14-5 0-5 7 0 7 16-1 23-25 25-38 2-8 2-16 2-24l5-86 1-17-3 4c10 1 7 13 7 20l1 39 1 59c0 4 4 5 6 3l-6-3-3 6-9 9a95 95 0 0 0-20 33c-1 4 5 6 7 1z" fill="#fff"/><g fill="#fff"><path d="M222 270c3 4 7 7 13 7 3 0 5-2 8-3 4-3 15-5 16-11 2-8-3-12-7-18l-14-17a28 28 0 0 0-15-10 14 14 0 0 0-6 0h-1l-1 1-11 4c-3 1-6 3-7 6-1 4 0 7 1 10a923 923 0 0 0 24 31c4 5 11-2 7-7-7-9-16-18-22-29 4 9 1 2 1 1-1-2-1-2-4-1l8-3 6-3h1l3 1 6 2c3 2 5 7 7 10l13 15 3 3-7 3-8 4c-3 1-5-1-7-3-4-5-11 2-7 7z"/><path d="M205 236a96 96 0 0 0-30-22l-11-5c-2-1-5-2-6-5l-4 6c3 0 6-2 5-5l-22-55-14-37c-3-7-9-17 0-22l-5-1c5 8 8 17 12 25l20 42c10 21 18 46 35 62 7 7 16 14 25 11 4-2 3-9-2-7-8 3-16-7-21-12a73 73 0 0 1-12-18l-11-23-35-74a148 148 0 0 0-5-9 4 4 0 0 0-5-2c-5 3-10 11-8 18l3 7 14 36 24 61 4-4c-3-1-5 2-4 5 3 6 11 8 17 11a92 92 0 0 1 31 22c3 4 8-1 5-5z"/></g></svg>