<svg xmlns="http://www.w3.org/2000/svg" width="361" height="361"><path d="M80 255l33-65c2-4 5-8 5-11 0-10-7-14-14-17-7-4-14-6-21-1l-4 7-5 11-3 5c-3 6 5 11 8 5l8-15 3-6c2-1 5 0 7 1s13 5 11 10l-5 9-32 62c-3 6 6 11 9 5z" fill="#fff"/><path d="M114 251l32-63 17-33 7-14c2-4 3-10 1-14s-4-5-7-7l-9-4-7-3c-5 0-8 3-10 7l-15 29-30 58c-3 5 6 10 9 5l34-66 12-23c-1 0-2-1 0 0l4 3 9 4c4 2-4 15-5 18l-51 98c-3 6 6 11 9 5zm-34-64l9-16c5-10-5-14-12-18-5-3-10 6-5 9l6 3c3 1 2 1 1 3l-7 14c-3 6 6 11 8 5z" fill="#fff"/><path d="M126 289l15-23 9-14c2-4 5-8 4-13-2-6-7-9-12-13-7-5-16-7-22 1l-17 22c-4 6 5 10 8 5l16-20 2-2c1-2 7 2 9 3 2 2 8 5 5 9l-26 40c-3 6 5 11 9 5zm28-198a33 33 0 0 0 6-3 24 24 0 0 0 5-5h4v37h-5V90l-2 2-2 1a34 34 0 0 1-4 2l-2-4zm70 2a9 9 0 0 1-1 3 18 18 0 0 1-2 4 36 36 0 0 1-3 3 190 190 0 0 1-3 4 310 310 0 0 0-2 2 34 34 0 0 0-3 2 22 22 0 0 0-1 3 4 4 0 0 0-1 2h17v4h-22a4 4 0 0 1 0-1v-5a19 19 0 0 1 2-4 29 29 0 0 1 3-3 302 302 0 0 1 4-4 84 84 0 0 0 2-2 27 27 0 0 0 2-3 12 12 0 0 0 2-2 7 7 0 0 0 0-3v-3a5 5 0 0 0-2-2 5 5 0 0 0-2-1 8 8 0 0 0-2 0h-3l-2 1a9 9 0 0 0-2 2h-1l-2-3 1-1a14 14 0 0 1 2-2 16 16 0 0 1 3-1 13 13 0 0 1 4 0l9 2c2 2 3 5 3 8zm37 24l6-2a6 6 0 0 0 2-5v-4a7 7 0 0 0-3-2 10 10 0 0 0-3-1 20 20 0 0 0-4 0h-1v-4h2l3-1a8 8 0 0 0 2-1 6 6 0 0 0 2-2l1-3-1-2a5 5 0 0 0-1-2 5 5 0 0 0-2-1 10 10 0 0 0-2 0 11 11 0 0 0-5 1l-3 1-2-4a17 17 0 0 1 2-1 17 17 0 0 1 2 0 21 21 0 0 1 3-1 15 15 0 0 1 3 0h5c2 0 2 1 3 2a8 8 0 0 1 2 3l1 4-2 5a11 11 0 0 1-4 3l3 1a9 9 0 0 1 2 2 10 10 0 0 1 2 3 12 12 0 0 1 0 8l-3 4-4 2a20 20 0 0 1-6 1h-3a28 28 0 0 1-3-1 31 31 0 0 1-2 0 11 11 0 0 1-1-1l1-4 3 1 5 1zm-110 44a59 59 0 0 1 3-6 99 99 0 0 1 4-6 100 100 0 0 1 5-7 66 66 0 0 1 5-5h4v23h5v4h-5v9h-4v-9h-17v-3zm17-18a52 52 0 0 0-3 3 84 84 0 0 0-4 5 71 71 0 0 0-3 4 66 66 0 0 0-2 5h12v-17zm41 8c6 0 10 1 12 3a12 12 0 0 1 3 14 9 9 0 0 1-2 3 12 12 0 0 1-5 2 19 19 0 0 1-8 1 25 25 0 0 1-3-1 34 34 0 0 1-2 0 11 11 0 0 1-2-1l1-4 3 1 5 1a12 12 0 0 0 4-1 7 7 0 0 0 3-1 5 5 0 0 0 1-2 7 7 0 0 0 1-3 9 9 0 0 0-1-3 6 6 0 0 0-2-3 14 14 0 0 0-5-1 38 38 0 0 0-7-1v-5l1-4v-9h18v4h-14v5a666 666 0 0 1 0 3 41 41 0 0 1-1 2zm43 8l2-10 4-7a18 18 0 0 1 6-4 26 26 0 0 1 9-1l1 4h-6l-5 2a12 12 0 0 0-3 4 17 17 0 0 0-2 5 17 17 0 0 1 3-1 15 15 0 0 1 3 0l6 1 3 2a10 10 0 0 1 2 4 15 15 0 0 1 1 4l-1 4a12 12 0 0 1-2 4 11 11 0 0 1-3 3 11 11 0 0 1-6 1c-4 0-7-1-9-4a18 18 0 0 1-3-11zm12-4a16 16 0 0 0-7 1 25 25 0 0 0 0 3l1 4 1 4a7 7 0 0 0 2 2l3 1 3-1a7 7 0 0 0 2-1 8 8 0 0 0 1-3l1-3-2-5-5-2zm-106 72a61 61 0 0 1 1-9 76 76 0 0 1 7-17 39 39 0 0 1 4-7h-18v-4h24v4a40 40 0 0 0-4 6 70 70 0 0 0-7 17 50 50 0 0 0-2 10h-5zm68-10l-1 4a9 9 0 0 1-2 4 10 10 0 0 1-4 2l-5 1-6-1a11 11 0 0 1-4-3 9 9 0 0 1-2-3 11 11 0 0 1 0-7l2-2a12 12 0 0 1 2-2 15 15 0 0 1 2-2 10 10 0 0 1-5-9 10 10 0 0 1 3-7l3-2 5-1a13 13 0 0 1 5 1 10 10 0 0 1 6 5v4a9 9 0 0 1 0 3 11 11 0 0 1-2 2 11 11 0 0 1-1 2 16 16 0 0 1-2 2c4 2 6 5 6 9zm-19 1v2a5 5 0 0 0 1 2 7 7 0 0 0 3 1l3 1a8 8 0 0 0 3-1l2-1a5 5 0 0 0 1-2 6 6 0 0 0 1-2l-1-3a7 7 0 0 0-2-3 11 11 0 0 0-2-1 26 26 0 0 0-4-1 10 10 0 0 0-4 3 8 8 0 0 0-1 5zm13-19a5 5 0 0 0 0-2 5 5 0 0 0-1-2 6 6 0 0 0-5-2 7 7 0 0 0-5 2 5 5 0 0 0-1 2 6 6 0 0 0 0 2 7 7 0 0 0 1 4l3 2a14 14 0 0 0 3 2 12 12 0 0 0 4-4 8 8 0 0 0 1-4zm55 6c0 7-1 13-5 16-4 4-9 6-16 6v-4l6-1 4-2a12 12 0 0 0 4-4l2-5-3 1a16 16 0 0 1-4 0 12 12 0 0 1-5-1 10 10 0 0 1-4-2 10 10 0 0 1-2-4 15 15 0 0 1-1-4 13 13 0 0 1 3-8 11 11 0 0 1 4-3 11 11 0 0 1 5-1l5 1 4 3 2 5 1 7zm-12 3a17 17 0 0 0 4 0 16 16 0 0 0 3-1v-7l-1-3a7 7 0 0 0-3-3 6 6 0 0 0-3-1l-3 1a7 7 0 0 0-2 2 8 8 0 0 0-1 2l-1 3 2 6 5 1zm-99 36v4l-1 4a429 429 0 0 1 4-2 26 26 0 0 1 4-2l2 5h-1a18 18 0 0 1-4 1h-4l3 3a21 21 0 0 1 3 3v1l-4 3v-1a34 34 0 0 1-2-4 257 257 0 0 1-2-4 267 267 0 0 1-2 4 34 34 0 0 1-2 4v1l-4-3v-1a21 21 0 0 1 3-3l3-3a105 105 0 0 1-4 0 18 18 0 0 1-4-1h-1l2-5a26 26 0 0 1 4 2 493 493 0 0 1 4 2l-1-4a22 22 0 0 1 0-4v-1h4v1z" fill="#fff"/><path d="M143 125V88c0-4-1-11 6-11h128c3 0 7 1 7 5v196c0 3-1 6-5 6H152c-4 1-9 1-9-5v-17c0-5-7-5-7 0 0 10-3 29 13 29h116c7 1 20 3 24-5 3-5 2-12 2-18V82c0-12-12-12-20-12H151c-5 0-9 1-12 5s-3 10-3 15v35c0 5 7 5 7 0z" fill="#fff"/><path d="M166 132h122c4 0 4-7 0-7H166c-4 0-4 7 0 7zm-20 52h140c5 0 5-7 0-7H146c-5 0-5 7 0 7zm2 56h140c4 0 4-7 0-7H149c-5 0-5 7 0 7z" fill="#fff"/><path d="M184 74v214c0 4 7 4 7 0V74c0-5-7-5-7 0zm53 0v214c0 4 7 4 7 0V74c0-5-7-5-7 0zm-35 188a26 26 0 0 1 4-14c2-4 5-5 9-5s7 1 9 5 3 8 3 14-1 11-3 14-5 5-9 5-7-2-9-5a26 26 0 0 1-4-14zm20 0a35 35 0 0 0-2-11l-2-3-3-1a5 5 0 0 0-4 1 8 8 0 0 0-2 3 19 19 0 0 0-1 5 45 45 0 0 0 0 6v5a19 19 0 0 0 1 5 8 8 0 0 0 2 3 5 5 0 0 0 4 2l3-2c1-1 2-1 2-3a35 35 0 0 0 2-10zm40-9h8l2-10h5l-2 10h5v4h-6l-2 10h7v4h-7l-2 9h-5l2-10h-8l-2 10h-5l2-10h-5v-3h6l2-10h-8v-4h8l2-10h5l-2 10zm-3 13h9l2-9h-9l-2 10zm-123-76v40c0 5 7 5 7 0v-40c0-4-7-4-7 0z" fill="#fff"/></svg>