<svg xmlns="http://www.w3.org/2000/svg" width="361" height="361"><path d="M146 105.2H80.2a5.5 5.5 0 0 0-5.5 5.5v169.8a5.5 5.5 0 0 0 5.5 5.5H210a5.5 5.5 0 0 0 5.5-5.5v-25.3" fill="none" stroke="#fff" stroke-width="10" stroke-miterlimit="10"/><path d="M96 137.1h50.1c6.5 0 6.5-10 0-10h-50c-6.5 0-6.5 10 0 10zm0 47.3h50.1c6.5 0 6.5-10 0-10h-50c-6.5 0-6.5 10 0 10zm0-23.6h50.1c6.5 0 6.5-10 0-10h-50c-6.5 0-6.5 10 0 10zm0 47.2h50.1c6.5 0 6.5-10 0-10h-50c-6.5 0-6.5 10 0 10zm.6 23.7h49c6.4 0 6.4-10 0-10h-49c-6.4 0-6.4 10 0 10zm.2 23.6h48.6c6.4 0 6.4-10 0-10H96.8c-6.5 0-6.5 10 0 10z" fill="#fff"/><path d="M286.8 79.9a5.5 5.5 0 0 0-5.5-5.6H151.5A5.5 5.5 0 0 0 146 80v169.8a5.5 5.5 0 0 0 5.5 5.5h129.8a5.5 5.5 0 0 0 5.5-5.5v-170z" fill="none" stroke="#fff" stroke-width="10" stroke-miterlimit="10"/><path d="M167.4 106.3h98c6.5 0 6.5-10 0-10h-98c-6.5 0-6.5 10 0 10zm0 47.3h98c6.5 0 6.5-10 0-10h-98c-6.5 0-6.5 10 0 10zm0-23.6h98c6.5 0 6.5-10 0-10h-98c-6.5 0-6.5 10 0 10zm0 47.2h98c6.5 0 6.5-10 0-10h-98c-6.5 0-6.5 10 0 10zm.6 23.7h96.9c6.4 0 6.4-10 0-10h-97c-6.4 0-6.4 10 0 10zm.1 23.6h96.6c6.5 0 6.5-10 0-10h-96.6c-6.5 0-6.5 10 0 10z" fill="#fff"/></svg>