<svg xmlns="http://www.w3.org/2000/svg" width="361" height="361"><path d="M282 249a34 34 0 0 1-34 33H129c-9 0-17 1-25-1-16-5-24-20-24-35V124c0-10-1-20 5-29a33 33 0 0 1 28-15h136c9 0 18 4 25 11 8 9 8 20 8 31v127c0 6 10 6 10 0V113a44 44 0 0 0-36-43H114a44 44 0 0 0-42 30c-3 8-2 18-2 27v120c0 17 8 32 24 40 9 5 19 5 30 5h122c15 0 29-5 38-18a43 43 0 0 0 8-25c0-7-10-7-10 0z" fill="#fff"/><path d="M181 260a58 58 0 0 1-20-3 44 44 0 0 1-15-9 39 39 0 0 1-9-13 40 40 0 0 1-4-17 42 42 0 0 1 17-34 64 64 0 0 1 10-6c-9-5-15-10-18-16a41 41 0 0 1-5-20c0-6 1-12 3-17a38 38 0 0 1 9-13 41 41 0 0 1 14-8 52 52 0 0 1 18-3c8 0 14 1 20 3a40 40 0 0 1 13 9 34 34 0 0 1 8 13 43 43 0 0 1 3 14l-2 13a46 46 0 0 1-6 11 48 48 0 0 1-8 9 76 76 0 0 1-9 7c11 4 18 9 22 16s6 14 6 21a43 43 0 0 1-3 17 39 39 0 0 1-10 14 44 44 0 0 1-15 9 57 57 0 0 1-19 3zm32-42c0-6-1-11-3-15a30 30 0 0 0-10-10 50 50 0 0 0-13-6 336 336 0 0 1-15-5 42 42 0 0 0-17 15 37 37 0 0 0-5 33 25 25 0 0 0 7 9 29 29 0 0 0 10 6c4 2 8 2 14 2a41 41 0 0 0 14-2 29 29 0 0 0 10-6 25 25 0 0 0 6-9 32 32 0 0 0 2-12zm-61-77l1 11a21 21 0 0 0 5 9l11 8c4 3 11 4 19 6a49 49 0 0 0 16-14 35 35 0 0 0 4-31 25 25 0 0 0-5-9 24 24 0 0 0-9-6 35 35 0 0 0-13-2l-13 2a25 25 0 0 0-15 15 30 30 0 0 0-1 11z" fill="#fff"/></svg>