<svg xmlns="http://www.w3.org/2000/svg" width="361" height="361"><g fill="#fff"><path d="M264 134l13-1-2-12-12 1-7-15 9-8-8-10-9 9-15-8 3-13-12-2-2 12-17 2-5-12-11 5 5 12-12 11-11-6-6 10 11 6-4 16-13 2 2 12 12-1 7 15-9 8 8 9 9-8 15 8-3 13 12 2 3-12 16-2 5 12 11-5-5-12 12-11 11 6 7-10-11-7 3-16zm-46 35a36 36 0 1 1 0-72 36 36 0 0 1 0 72z"/><path d="M264 139l13-1c2 0 5-2 5-5l-2-12c0-3-2-6-5-5l-12 1 4 2-7-15-1 6 10-8c2-2 2-5 0-7l-8-9c-2-2-5-2-7 0l-10 8h6l-14-9 2 6 3-13c0-2-1-5-4-6l-12-2c-2-1-5 1-6 3l-2 13 5-4-17 2 4 2-5-11c-1-3-4-3-7-2l-11 5c-2 1-3 4-2 7l6 11v-6l-12 11 6-1-11-6a5 5 0 0 0-7 2l-6 11a5 5 0 0 0 2 6l11 7-2-6-4 16 4-4-13 2c-2 0-4 3-4 5l2 12c0 2 2 5 5 5l12-1-4-3 7 15 1-6-10 9c-2 2-2 5 0 7l8 9c2 2 5 2 7 0l10-9-6 1 14 8-2-5-3 12c0 3 1 6 4 6l12 3c2 1 5-1 6-3l2-13-4 4 16-2-4-2 5 11c1 3 4 3 7 2l11-5c3-1 3-5 2-7l-5-12-1 7 12-11h-6l11 7a5 5 0 0 0 7-2l6-11a5 5 0 0 0-2-7l-11-6 2 6 4-17c1-6-8-8-10-2l-3 16c-1 2 0 4 2 6l11 6-2-7-6 11 7-2-11-6a5 5 0 0 0-6 0l-12 11c-2 2-2 4-1 6l5 12 2-7-11 5 6 2-5-12a5 5 0 0 0-4-2l-16 2c-3 0-5 1-5 3l-3 13 6-4-12-2 4 6 2-13c1-2 0-4-2-5l-14-8a5 5 0 0 0-6 0l-10 9h7l-8-9v7l10-9v-6l-6-15a5 5 0 0 0-5-2l-12 1 5 5-2-12-3 5 12-2c2 0 4-2 4-4l3-15a5 5 0 0 0-2-6l-11-6 2 7 6-11-7 2 11 6a5 5 0 0 0 6-1l12-11c2-1 2-4 1-6l-5-11-2 6 11-5-6-1 5 11a5 5 0 0 0 4 3l16-2c3 0 5-1 5-4l3-12-6 4 12 2-4-6-2 12c-1 3 0 5 2 6l14 8a5 5 0 0 0 6-1l10-8h-7l8 9v-7l-9 8c-2 2-2 4-1 6l6 16a5 5 0 0 0 5 2l12-1-5-5 2 12 5-5-13 1c-6 1-6 11 0 10z"/><path d="M218 164a31 31 0 0 1-31-31 31 31 0 0 1 31-31c17 0 31 14 31 31s-14 30-31 31c-6 0-6 10 0 10a41 41 0 0 0 41-41c0-23-19-41-41-41a41 41 0 0 0-41 41 41 41 0 0 0 41 41c6 0 6-10 0-10z"/></g><g fill="#fff"><path d="M190 226h13l-1-12h-13l-6-15 10-8-7-10-10 8-14-9 3-12-11-4-4 13-16 1-5-12-11 4 4 12-13 11-10-7-7 10 10 7-4 15-13 1 1 13 13-1 6 15-10 8 7 10 10-8 14 9-3 12 12 3 3-12 17-1 4 12 12-4-5-12 13-11 11 8 6-11-11-7 5-16zm-46 32a36 36 0 1 1 0-71 36 36 0 0 1 0 71z"/><path d="M190 231h13c2 0 5-2 5-5l-1-12c0-3-2-6-5-5h-13l5 4-6-16-1 5 10-8c2-2 1-5 0-7l-8-9c-2-3-5-2-7 0l-10 8 6-1-14-9 3 5 3-12a5 5 0 0 0-3-6l-12-3a5 5 0 0 0-6 3l-4 13 5-4-16 1 4 3-4-11c-1-3-3-5-6-4l-12 4c-2 1-4 4-3 7l4 11 2-4-13 10 6-1-11-7c-2-1-5 0-7 2l-6 10c-2 3-1 6 1 7l11 7-2-6-4 16 4-4-12 1c-3 0-6 2-5 5v12c0 3 2 6 5 5h13l-5-4 6 16 1-5-10 8c-2 1-1 5 0 7l8 9c2 2 5 2 7 0l10-8-6 1 14 9-3-6-3 13a5 5 0 0 0 4 6l11 3a5 5 0 0 0 7-3l3-13-5 4 17-1-5-4 4 12c1 3 4 5 6 4l12-5c2-1 4-3 3-6l-4-12-1 5 12-10-6 1 11 7c2 1 5 0 7-2l6-10c2-3 1-6-1-7l-11-7 2 6 5-16c1-7-8-9-10-3l-4 16a5 5 0 0 0 2 6l11 6-2-6-7 10 7-2-11-7c-2-1-4-1-6 1l-12 10a5 5 0 0 0-2 5l5 12 3-6-11 4 6 4-5-12c0-2-2-4-5-4l-16 1a5 5 0 0 0-5 4l-3 12 6-4-12-3 4 6 3-12a5 5 0 0 0-2-6l-14-9c-2-1-4 0-6 1l-10 8h7l-8-10v8l10-8a5 5 0 0 0 2-5l-6-16c-1-2-3-3-5-3H86l5 5v-12l-5 5 12-1c2 0 4-1 5-4l4-15a5 5 0 0 0-2-6l-11-7 2 7 7-10-7 2 11 7c2 1 4 0 6-1l13-10a5 5 0 0 0 1-5l-5-12-3 6 11-4-6-4 5 12c0 2 2 4 5 4l16-1a5 5 0 0 0 5-4l3-12-6 3 12 4-4-7-3 13a5 5 0 0 0 2 5l14 9c2 2 5 1 6 0l10-8h-7l8 9v-7l-10 8a5 5 0 0 0-2 5l6 15c1 2 3 4 5 4l13-1-5-5v13l5-5h-12c-7 1-7 11 0 10z"/><path d="M144 253a31 31 0 0 1-31-31 31 31 0 0 1 31-30c17-1 31 14 31 30a31 31 0 0 1-31 31c-6 0-6 10 0 10a41 41 0 0 0 41-41c0-22-19-40-41-40a41 41 0 0 0-41 40 41 41 0 0 0 41 41c6 0 6-10 0-10z"/></g><path d="M252 242l8-1a26 26 0 0 0-6-11l-5 7 3 5z" fill="#fff"/><path d="M252 247l8-1c3-1 6-3 5-7a33 33 0 0 0-8-12 5 5 0 0 0-8 1l-4 6a5 5 0 0 0 0 5l3 5c4 5 12 0 9-5l-3-5v5l4-6-8 1a22 22 0 0 1 5 8l5-6-8 1c-2 0-5 2-5 5 0 2 3 5 5 5z" fill="#fff"/><path d="M254 230l5-9-9-6-6 9 1 1a26 26 0 0 1 9 5z" fill="#fff"/><path d="M258 233l6-10c1-2 0-5-2-6l-10-6a5 5 0 0 0-6 2l-6 9c-2 3 0 6 3 7l7 5c5 4 12-3 7-7a33 33 0 0 0-11-8l3 8 5-9-7 2 10 5-2-7-6 10c-3 5 6 10 9 5z" fill="#fff"/><path d="M240 231l4-7a26 26 0 0 0-12-1l3 8h5z" fill="#fff"/><path d="M244 234l5-7c2-3 0-6-3-8a31 31 0 0 0-14-1c-3 0-6 3-5 6l3 8a5 5 0 0 0 5 4h5c3 1 5-2 5-5s-2-4-5-5h-5l5 3-3-7-5 6c4-1 7 0 11 1l-3-7-4 7c-4 5 5 10 8 5zm17 17l11-1-1-11-11 2a26 26 0 0 1 1 10z" fill="#fff"/><path d="M261 256l11-1c3 0 6-2 5-5l-1-11c0-2-2-5-5-5l-11 2c-3 0-6 2-5 6 1 3 2 6 1 9 0 3 3 5 5 5 3 0 5-2 5-5 1-4 0-8-1-12l-5 7 11-2-5-5 1 11 5-5-11 1c-2 1-5 2-5 5s3 6 5 5zm-37-22l-2-8a26 26 0 0 0-9 10l8 2 4-4z" fill="#fff"/><path d="M229 233l-3-8c-1-3-4-5-7-3a33 33 0 0 0-11 11c-2 3 0 6 3 7l8 3a5 5 0 0 0 5-1l4-4c5-5-3-12-7-7l-4 4 5-2-8-2 3 7a22 22 0 0 1 7-7l-7-3 3 8c1 2 3 4 6 3 2 0 4-3 3-6z" fill="#fff"/><path d="M228 213l-10 4 4 9a26 26 0 0 1 10-3l-4-10z" fill="#fff"/><path d="M227 208l-10 4c-3 1-5 3-4 6l4 10c1 3 4 5 7 3a25 25 0 0 1 9-3c3-1 4-4 4-6l-4-10c-2-6-12-4-10 2l4 10 4-6a32 32 0 0 0-12 4l7 3-3-10-4 7 11-4c6-2 3-12-3-10zm25 50l5 5 2-4a26 26 0 0 0 2-8l-7 1-2 6z" fill="#fff"/><path d="M248 261l6 5a5 5 0 0 0 8-1c2-4 4-9 4-14 1-2-2-5-5-5l-7 1c-3 1-4 2-5 4l-2 5c-2 6 8 9 10 3l2-5-5 3 7-1-5-5a22 22 0 0 1-3 9l8-1-6-5c-4-4-11 3-7 7z" fill="#fff"/><g fill="#fff"><path d="M211 259l-9 5 6 10 9-6a26 26 0 0 1-6-9z"/><path d="M208 254l-9 6c-2 1-3 4-1 7l6 9c1 2 4 3 6 2l10-6c2-2 3-6 1-8a25 25 0 0 1-6-8c-1-3-5-3-7-2-2 2-3 4-1 7a32 32 0 0 0 6 10l1-8-9 6 7 2-6-9-2 7 9-6c6-4 1-12-5-9z"/></g><g fill="#fff"><path d="M239 267l-1 8a26 26 0 0 0 12-4l-6-6-5 2z"/><path d="M234 267l-1 8c0 3 4 5 7 5a31 31 0 0 0 12-5c3-2 4-6 1-8l-5-5c-1-1-3-2-5-1l-5 2c-3 0-4 3-4 6 1 2 4 4 6 3l6-2-5-1 5 5 1-8-10 4 6 5 1-8c0-2-2-5-5-5s-5 3-5 5z"/></g><g fill="#fff"><path d="M228 274l-2 11 11 1 1-11a26 26 0 0 1-10-1z"/><path d="M223 274l-2 11c0 3 3 5 5 5l11 1c3 0 5-2 5-5l1-11c1-3-2-5-5-5a24 24 0 0 1-9-1c-6-2-9 8-3 10a32 32 0 0 0 12 1l-5-5-1 11 5-5-11-1 5 5 2-11c0-3-3-5-5-5-3 0-5 2-5 5z"/></g><g fill="#fff"><path d="M213 236l-10-4-4 11 10 3a26 26 0 0 1 2-7 26 26 0 0 1 2-3z"/><path d="M214 231l-10-4c-3 0-5 1-6 4l-4 10c-1 3 1 6 4 7l10 3c3 1 6-2 6-5l3-8c3-6-6-11-9-5a34 34 0 0 0-4 13l7-5-10-3 3 6 4-10-7 3 10 3c6 2 9-7 3-9z"/></g><g fill="#fff"><path d="M250 271l8 8 8-8-9-8a26 26 0 0 1-7 8z"/><path d="M246 274l8 8a5 5 0 0 0 7 0l8-8a5 5 0 0 0 0-7l-8-8c-3-2-6-1-8 1a22 22 0 0 1-6 6c-5 4 0 13 5 9a35 35 0 0 0 10-10l-8 1 8 8v-7l-8 8h7l-8-8c-4-4-11 3-7 7z"/></g><g fill="#fff"><path d="M217 249l-8-3a26 26 0 0 0 2 13l7-5-1-5z"/><path d="M218 244l-7-3c-4-1-6 2-7 5a31 31 0 0 0 2 14c1 3 4 5 7 3l7-5c2 0 3-2 3-4l-1-5c0-3-2-5-5-5-2 0-5 2-5 5l1 5 2-4-7 4 8 3a24 24 0 0 1-2-11l-6 5 8 3c6 2 9-8 2-10z"/></g><g fill="#fff"><path d="M224 263l-7 5a26 26 0 0 0 11 6v-8l-4-3z"/><path d="M221 259l-7 4c-2 2-3 6 0 8a33 33 0 0 0 12 8c4 1 6-2 6-5l1-8c1-2-1-3-2-4l-5-3c-5-3-10 5-5 9l5 3-3-5v8l6-5a22 22 0 0 1-8-5l-1 8 6-4c6-4 1-13-5-9z"/></g><path d="M248 249c0 17-25 17-26 0 0-7 6-12 13-13 7 0 13 6 13 13s10 7 10 0a24 24 0 0 0-23-23c-13 0-23 11-23 23-1 13 11 23 23 24 13 0 23-11 23-24 0-6-10-6-10 0z" fill="#fff"/></svg>