<svg xmlns="http://www.w3.org/2000/svg" width="361" height="361"><path d="M277 145a61 61 0 0 1-31 53 61 61 0 0 1-61-2 61 61 0 0 1-28-53c0-22 14-41 32-51a61 61 0 0 1 59 2 60 60 0 0 1 29 51c0 10 15 10 15 0-1-23-11-45-29-59a76 76 0 0 0-66-13 75 75 0 0 0-46 110 76 76 0 0 0 85 35 76 76 0 0 0 56-72c0-10-15-10-15 0z" fill="#fff"/><path d="M174 198l96-95c7-7-4-18-11-11l-95 96c-7 7 3 17 10 10z" fill="#fff"/><path d="M162 105H80a6 6 0 0 0-5 6v170a6 6 0 0 0 5 5h130a6 6 0 0 0 6-5v-68" fill="none" stroke="#fff" stroke-width="10" stroke-miterlimit="10"/><path d="M96 137h54c7 0 7-10 0-10H96c-6 0-6 10 0 10zm0 48h62c7 0 7-10 0-10H96c-6 0-6 10 0 10zm0-24h54c6 0 6-10 0-10H96c-6 0-6 10 0 10zm0 47h86c6 0 6-10 0-10H96c-6 0-6 10 0 10zm1 24h97c6 0 6-10 0-10H97c-7 0-7 10 0 10zm0 24h96c7 0 7-10 1-10H97c-7 0-7 10 0 10z" fill="#fff"/></svg>