<svg xmlns="http://www.w3.org/2000/svg" width="361" height="361"><path d="M282 249a34 34 0 0 1-34 33H129c-9 0-17 1-25-1-16-5-24-20-24-35V124c0-10-1-20 5-29a33 33 0 0 1 28-15h136c9 0 18 4 25 11 8 9 8 20 8 31v127c0 6 10 6 10 0V113a44 44 0 0 0-36-43H114a44 44 0 0 0-42 30c-3 8-2 18-2 27v120c0 17 8 32 24 40 9 5 19 5 30 5h122c15 0 29-5 38-18a43 43 0 0 0 8-25c0-7-10-7-10 0z" fill="#fff"/><path d="M219 142a42 42 0 0 1-3 16 68 68 0 0 1-8 15 118 118 0 0 1-12 13l-13 13a395 395 0 0 0-11 11l-10 12a61 61 0 0 0-7 11 25 25 0 0 0-3 10v1h72v12h-87v-1l-1-4c0-7 2-13 4-19a82 82 0 0 1 10-17 111 111 0 0 1 13-15 3074 3074 0 0 0 24-23 78 78 0 0 0 9-10 49 49 0 0 0 6-11 39 39 0 0 0 2-13c0-11-3-18-8-23a32 32 0 0 0-21-6l-13 1a51 51 0 0 0-9 4 45 45 0 0 0-7 5 74 74 0 0 0-4 4l-8-10a51 51 0 0 1 5-4 50 50 0 0 1 8-6 63 63 0 0 1 12-5 52 52 0 0 1 15-2c15 0 26 3 34 11a40 40 0 0 1 11 30z" fill="#fff"/></svg>