<svg xmlns="http://www.w3.org/2000/svg" width="361" height="361"><path d="M227 164v-55.6c0-4.4.2-9-.5-13.2a31.8 31.8 0 0 0-19.5-24 40 40 0 0 0-15-2.2h-91a32.3 32.3 0 0 0-26.4 14.2c-6.7 9.3-5.2 21.7-5.2 32.5v76.4c0 13.2 5.3 25 17.5 31.2 9.7 5 22.2 3.3 32.7 3.3H149c6.5 0 6.5-10 0-10h-36.7c-4.7 0-9.4.3-14 0-10.8-.9-19-11.2-19-21.5v-75.4c0-9.6-1.7-21.8 3.2-30.4 6.8-11.7 20-10.3 31.4-10.3h80.5c11 0 19.8 6.8 22.3 17.6 1.3 5.8.3 12.8.3 18.7V164c0 6.5 10 6.5 10 0z" fill="#fff"/><path d="M188.2 140.2h-79.7c-9.7 0-9.8 15-.1 15h79.7c9.7 0 9.8-15 .1-15z" fill="#fff"/><path d="M155.8 187.7v-79.8c0-9.7-15-9.7-15 0v79.6c0 9.7 15 9.8 15 .2z" fill="#fff"/><path d="M265.6 209.9c2 0 3.8-.6 3.8-1.2v-21c0-.7-1.7-1.2-3.8-1.2H190c-2.2 0-3.9.5-3.9 1.2v21c0 .7 1.7 1.2 3.9 1.2h75.6z" fill="none" stroke="#fff" stroke-width="10" stroke-miterlimit="10"/><path d="M165.3 213l58.6 76.7c2.5 3.2 6.2 3.2 8.7 0l58.6-76.8c2.4-3-.8-7.5-4.3-7.5H169.6c-6.4 0-6.4 10 0 10H287l-4.3-7.5-58.6 76.7h8.6L173.9 208c-3.8-5-12.5 0-8.6 5z" fill="#fff"/></svg>