<svg xmlns="http://www.w3.org/2000/svg" width="361" height="361"><path d="M159 276c-2.3 6.9-5.6 5-11.7 4.5l-9.3-.7h-1c3.3.2.9 1.3 1.6-1l.5-1.5 5.3-17.8c1.2-4.1 2-9 3.8-12.9a20 20 0 0 1 7.5-7.4H170c1.6 0-.6.2-1.1-.5.5.6-.1 2.1 0 2.7v.1c.2-2.6 0-.1-.2.5l-1.4 5.5c-2.6 9.6-5.4 19-8.3 28.5-1.8 6.2 7.8 8.8 9.7 2.7 3-10 5.9-19.8 8.6-29.8.6-2.4 1.4-4.9 1.6-7.4a13 13 0 0 0-2-8.8c-2.5-3.3-5.8-3.5-9.5-3.5-6.7 0-13.4-1.3-19 3-5.4 4-8.8 8.7-10.7 15l-6.5 21.5c-1.7 5.5-5.3 14.1.3 18.6 5.2 4 13.7 3 20 3.5.4 0 3.3.4 1.5.1 2 .3 3.8.2 5.7-.3 5.5-1.6 8.3-7 10-12 2-6-7.6-8.7-9.7-2.6z" fill="#fff"/><path d="M178 244.3a91.5 91.5 0 0 1 20.3-32.2c4.4-4.6 11.3-9.9 11.6-16.8.2-3.2-3.8-4.3-6-2.5v.1l6 2.5-1-65.6-.6-38.5-.1-8c-.2-7.5-7.5-12.6-14.4-13.5-2-.2-3.3 1.8-3.5 3.5-1.1 9.1-1.3 18.4-1.8 27.5l-2.7 46.8-2.1 38.6a85.3 85.3 0 0 1-7.2 31.1c-2.3 5-6.3 13-12.8 13.3-4.5.2-4.5 7.2 0 7 16.6-.6 23-24.8 25.6-37.8 1.5-7.6 1.5-15.7 2-23.5l4.8-86.7c.3-5.4.5-10.9 1.2-16.3l-3.5 3.5c9.9 1.2 7.5 13.2 7.6 20l.5 39 1 59.6c0 3.2 3.6 4.5 6 2.5v-.1l-6-2.5c0 2-2.1 4-3.4 5.4l-9 9.5a95.4 95.4 0 0 0-19.3 32.3c-1.5 4.2 5.3 6 6.8 1.8z" fill="#fff"/><g fill="#fff"><path d="M221.8 269.7c3.3 4 7.5 7 12.9 6.9 2.9 0 5.3-1.6 7.8-2.8 4.7-2.4 15.2-5.2 16.7-11.1 1.9-7.2-3.2-12.1-7.3-17.2L238 228a28 28 0 0 0-15.5-9.6 14.1 14.1 0 0 0-6-.4c-.5 0-2.8 1-1 .3l-1 .4-10.6 4.3c-3 1.3-6.2 2.6-7.1 6.1-1 3.8 0 6.8 1.6 10.1a923 923 0 0 0 23.5 30.5c4 5 11-2 7-7-7.3-9.2-15.8-18.2-21.8-28.3a2.4 2.4 0 0 1-.1-.2c4.3 9.1.6 1.5.5 1.1-.7-2.5-.8-2.7-3.2-1.7l7.4-3 6.6-2.7c3.3-1.4-.5-.3.6 0 1 0 2 .4 2.9.7 2 .6 3.9 1.6 5.7 2.6 3.1 2 5.7 6.7 7.9 9.4l12.4 15.5c.9 1 1.9 3 2.8 2.6l-6.7 3.3-7.9 3.9c-3 1.5-5-.8-7-3.2-4.3-5-11.3 2.2-7.1 7z"/><path d="M205.1 236.3a95.5 95.5 0 0 0-29.6-22.3c-3.7-1.8-7.5-3.4-11.2-5.1-2.2-1-5.1-2.2-6.2-4.5l-4 5.1h.2c2.4.9 5.2-1.8 4.3-4.2L137 149.6l-14-36.3c-2.7-6.9-9.4-17-.2-22l-4.8-1.2c4.5 8 8.1 16.5 12 24.8l20 42.3c10 21.3 18.3 45.4 35.3 62.3 6.2 6.1 15.6 13.3 24.8 10 4.3-1.5 2.4-8.3-1.8-6.8-8.1 2.9-16.5-6.3-21.3-11.6a73 73 0 0 1-12.4-18l-11-23.4-34.7-73.6a148.4 148.4 0 0 0-4.9-9.5 3.5 3.5 0 0 0-4.8-1.3c-5.6 3.1-10.4 10.8-7.9 17.3l3 7.4 13.8 36 23.7 61.1 4.3-4.3h-.1c-3.2-1.1-5.1 2.6-4 5.1 2.8 6 11.4 8.2 16.8 10.7a92.3 92.3 0 0 1 31.3 22.7c3 3.3 8-1.6 5-5z"/></g></svg>