<svg xmlns="http://www.w3.org/2000/svg" width="361" height="361"><path d="M79.6 255.2l33.8-65.5c1.7-3.3 4.3-7.2 4.4-11 .3-9.8-6.5-13.3-14-17-6.9-3.7-13.7-5.7-20.5-.3-1.9 1.5-3 4.4-4 6.5l-5.6 10.9-3 5.7c-3 5.7 5.7 10.8 8.6 5l7.9-15.1c1-1.9 1.8-4.3 3.2-5.9 1.5-1.8 4.6-.2 6.2.6 2.8 1.4 13.7 4.8 11 10l-4.6 9-32 62c-3 5.8 5.6 10.9 8.6 5.1z" fill="#fff"/><path d="M113.6 251l32.8-63.5 16.7-32.3c2.3-4.5 4.7-9 6.7-13.7 1.8-4.6 3.6-10.2 1.3-14.9-1.6-3.1-4.3-4.6-7.3-6.1l-8.9-4.6c-2-1.1-4.6-2.8-7-2.9-5.2 0-7.7 3-9.8 7l-14.7 28.6-30 58c-3 5.7 5.7 10.7 8.7 5l33.7-65.4 12.2-23.5c-.5.8-2.3-.3 0 .8l4.3 2.2 8.9 4.6c3.9 2-4.1 14.7-5.6 17.7L105 246c-3 5.7 5.7 10.7 8.6 5zm-33.2-63.6l8.4-16.3c5-9.6-4.9-14.2-11.6-18-5.6-3.2-10.6 5.5-5 8.7l6.2 3.5c2.1 1.2 1.8.8.5 3.2l-7.1 13.9c-3 5.7 5.7 10.7 8.6 5z" fill="#fff"/><path d="M125.9 289.3l14.9-23.3 9-14c2.4-4 5-8 3.8-12.9-1.6-6.4-6.6-9.5-11.6-13.3-6.6-4.9-16.5-6.3-22.1 1l-17.2 22.6c-3.9 5.2 4.8 10.1 8.6 5l15.4-20.1 2-2.6c1.5-2 7.5 2.2 8.8 3.2 2.7 2 8.2 4.8 5.6 9l-25.8 40.3c-3.5 5.5 5.1 10.5 8.6 5zM154 91a32.9 32.9 0 0 0 6-3 24.1 24.1 0 0 0 5.2-4.6h3.5v36.8h-5v-30c-.4.5-1 .9-1.5 1.3l-2 1.2a34 34 0 0 1-4.6 2L154 91zm69.6 1.8a9.2 9.2 0 0 1-.7 3.7 17.9 17.9 0 0 1-2 3.5 35.7 35.7 0 0 1-3 3.4 190.4 190.4 0 0 1-3.1 3.3 310.4 310.4 0 0 0-2.1 2 34 34 0 0 0-2.3 2.6 21.6 21.6 0 0 0-1.8 2.6 4.4 4.4 0 0 0-.7 2h17v4.3h-22.3a3.9 3.9 0 0 1 0-.7v-.5c0-1.7.2-3.3.7-4.7a19 19 0 0 1 2.2-4 28.7 28.7 0 0 1 3-3.6 302.2 302.2 0 0 1 3.2-3.3 84.1 84.1 0 0 0 2.5-2.5 26.5 26.5 0 0 0 2.1-2.5 12.3 12.3 0 0 0 1.5-2.6 7.2 7.2 0 0 0 .6-2.8c0-1-.2-2-.5-2.7a5.4 5.4 0 0 0-1.4-1.9 5.3 5.3 0 0 0-2-1 8.3 8.3 0 0 0-2.4-.4c-1 0-2 .1-2.8.4l-2.3 1a9.4 9.4 0 0 0-1.7 1.2l-1 .9-2.5-3.5 1.5-1.3a13.8 13.8 0 0 1 2.2-1.5 16.3 16.3 0 0 1 3-1.1 13 13 0 0 1 3.6-.5c3.8 0 6.7.9 8.6 2.7 2 1.8 3 4.3 3 7.5zm37 23.8c3.2 0 5.4-.7 6.8-1.9a6.4 6.4 0 0 0 2-5c0-1.3-.3-2.4-.8-3.4a6.5 6.5 0 0 0-2.3-2.2 9.8 9.8 0 0 0-3.2-1.1 20.2 20.2 0 0 0-3.7-.4h-1.3v-4h1.8l2.7-.3a7.9 7.9 0 0 0 2.6-1 5.5 5.5 0 0 0 1.9-1.8c.5-.8.7-1.8.7-3 0-1-.1-1.8-.5-2.5a5.1 5.1 0 0 0-1.4-1.8 5.4 5.4 0 0 0-2-1 9.7 9.7 0 0 0-2.4-.3 11 11 0 0 0-4.3.8l-3 1.5-2-3.8a17 17 0 0 1 1.7-.9 17.3 17.3 0 0 1 2.2-.9 21 21 0 0 1 2.6-.7 14.5 14.5 0 0 1 3-.3c1.9 0 3.6.2 5 .7s2.5 1.1 3.5 2a8.3 8.3 0 0 1 2 3c.5 1.3.7 2.6.7 4 0 1.8-.5 3.5-1.6 4.8a10.8 10.8 0 0 1-4 3.1c1 .3 1.9.7 2.8 1.3a8.7 8.7 0 0 1 2.3 2 10.4 10.4 0 0 1 1.6 2.8 11.7 11.7 0 0 1-.3 8c-.5 1.3-1.4 2.5-2.5 3.5s-2.6 1.7-4.3 2.3a19.9 19.9 0 0 1-6.2.9l-2.8-.3a27.9 27.9 0 0 1-2.7-.5 30.6 30.6 0 0 1-2.3-.6 11.4 11.4 0 0 1-1.3-.6l1-4.3 3 1.2c1.3.4 3 .7 5 .7zm-109.4 44.1a58.7 58.7 0 0 1 2.8-5.4 98.8 98.8 0 0 1 4-6.4 99.8 99.8 0 0 1 4.6-6.5 66.1 66.1 0 0 1 5.1-5.7h4.7v23.4h4.4v4h-4.4v9.4h-4.7V164h-16.5v-3.4zm16.5-18.1a52.2 52.2 0 0 0-3.2 3.8 83.7 83.7 0 0 0-3.2 4.3 71 71 0 0 0-2.9 4.7 65.5 65.5 0 0 0-2.4 4.6h11.7v-17.5zm41.7 8.3c5.4.2 9.3 1.4 11.8 3.5s3.7 5 3.7 8.6c0 1.6-.3 3.1-.8 4.5a9.3 9.3 0 0 1-2.5 3.6 12 12 0 0 1-4.2 2.3 19.4 19.4 0 0 1-8.9.7 25.2 25.2 0 0 1-2.6-.6 34.3 34.3 0 0 1-2.2-.6 11.4 11.4 0 0 1-1.4-.5l1-4.3 3 1c1.3.5 3 .8 5 .8a12 12 0 0 0 4-.6 7.3 7.3 0 0 0 2.6-1.4 5.3 5.3 0 0 0 1.4-2.1 7 7 0 0 0 .5-2.5 8.8 8.8 0 0 0-.7-3.6 5.9 5.9 0 0 0-2.5-2.6 14.2 14.2 0 0 0-4.6-1.6 38 38 0 0 0-7.4-.6l.5-4.9.4-4.4.2-4.3.2-4.6h17.7v4.2h-13.4l-.1 2.2-.2 2.8a665.8 665.8 0 0 1-.3 2.8 41.2 41.2 0 0 1-.2 2.2zm42.6 7.8c0-3.5.5-6.7 1.5-9.4 1-2.8 2.4-5 4.2-7a17.8 17.8 0 0 1 6.6-4.2 25.7 25.7 0 0 1 8.8-1.5l.4 4.1c-2.1 0-4 .3-5.8.7s-3.2 1-4.5 2a12 12 0 0 0-3.4 3.6 16.8 16.8 0 0 0-2.1 5.4 17.2 17.2 0 0 1 3.1-1 15 15 0 0 1 3.6-.5c2 0 3.8.3 5.3 1 1.4.6 2.6 1.5 3.5 2.5a9.5 9.5 0 0 1 2 3.6 14.9 14.9 0 0 1 .6 4.3c0 1.3-.2 2.7-.7 4.1a12.1 12.1 0 0 1-2 3.9 10.9 10.9 0 0 1-3.6 2.8 11.2 11.2 0 0 1-5.2 1.1c-4 0-7-1.3-9.2-4a18.4 18.4 0 0 1-3.1-11.5zm12-3.7a16.2 16.2 0 0 0-6.7 1.3 25 25 0 0 0 0 2.4c0 1.6 0 3 .2 4.4s.6 2.6 1.2 3.7a6.7 6.7 0 0 0 2.2 2.4c.9.7 2 1 3.5 1 1.1 0 2.1-.3 3-.8a6.5 6.5 0 0 0 2-1.9 8 8 0 0 0 1.1-2.5l.3-2.6c0-2.4-.5-4.3-1.7-5.5-1.1-1.3-2.9-2-5.2-2zm-106.2 71.8a61 61 0 0 1 1.6-9 75.8 75.8 0 0 1 6.7-17.3 38.5 38.5 0 0 1 4.1-6.2h-17.8V190h23.4v4.1a40.2 40.2 0 0 0-3.9 5.5 70.4 70.4 0 0 0-7.2 17.3 49.6 49.6 0 0 0-1.7 9.9h-5.1zm68.1-9.6c0 1.5-.2 2.9-.7 4.1a9.2 9.2 0 0 1-2.3 3.3 10.3 10.3 0 0 1-3.8 2.2c-1.5.5-3.3.7-5.2.7-2.3 0-4.2-.3-5.8-1a10.6 10.6 0 0 1-3.7-2.4 8.8 8.8 0 0 1-2-3.3 10.5 10.5 0 0 1 0-6.3c.3-1 .8-1.8 1.3-2.6a12 12 0 0 1 2-2.2 15.4 15.4 0 0 1 2.2-1.7 9.5 9.5 0 0 1-5.2-8.8 9.7 9.7 0 0 1 3-7c1-1 2.2-1.7 3.6-2.2 1.4-.5 3-.8 4.6-.8a13 13 0 0 1 5.1.9 9.7 9.7 0 0 1 5.5 5.3c.3 1.2.5 2.3.5 3.4a9 9 0 0 1-.4 2.9 10.7 10.7 0 0 1-1.2 2.5 11 11 0 0 1-1.8 2 15.5 15.5 0 0 1-2 1.6c4.2 2 6.3 5.1 6.4 9.4zm-19 .3c0 .7 0 1.3.3 2a5 5 0 0 0 1.2 2 6.8 6.8 0 0 0 2.2 1.4c.9.4 2 .6 3.3.6a8 8 0 0 0 3.2-.6c.9-.3 1.6-.8 2.2-1.3a5.4 5.4 0 0 0 1.2-1.9 5.8 5.8 0 0 0 .5-2.2c0-1.1-.2-2-.7-3a6.7 6.7 0 0 0-1.8-2.2 11 11 0 0 0-2.9-1.6 25.7 25.7 0 0 0-3.7-1.1 10.3 10.3 0 0 0-3.7 3.3 8.3 8.3 0 0 0-1.3 4.6zm13.2-18.8a5.2 5.2 0 0 0-.3-1.7 5.3 5.3 0 0 0-1.1-1.8 6 6 0 0 0-4.8-2 6.8 6.8 0 0 0-4.8 1.9 5.3 5.3 0 0 0-1 1.8 5.8 5.8 0 0 0-.4 2 6.8 6.8 0 0 0 1.7 4.5c.6.6 1.4 1.2 2.4 1.8a14 14 0 0 0 3.4 1.3 12 12 0 0 0 3.6-3.1 7.6 7.6 0 0 0 1.3-4.7zm55.2 6c0 7.3-1.8 12.8-5.4 16.5-3.7 3.7-9 5.6-16.2 5.7l-.1-4.2c2.2 0 4.2-.2 6-.6s3.3-1.1 4.7-2a11.8 11.8 0 0 0 3.3-3.7c1-1.5 1.6-3.3 2-5.4-.9.4-2 .7-3.1 1a16.2 16.2 0 0 1-3.6.4 12 12 0 0 1-5.3-1 9.7 9.7 0 0 1-3.6-2.4 9.5 9.5 0 0 1-2-3.6 14.8 14.8 0 0 1-.5-4.3 13.2 13.2 0 0 1 2.7-8 10.8 10.8 0 0 1 3.6-2.8 11.1 11.1 0 0 1 5.2-1.1c2 0 3.7.3 5.3 1 1.5.7 2.8 1.8 3.8 3.1s1.9 3 2.4 5c.5 1.8.8 4 .8 6.4zm-11.9 3.7a17 17 0 0 0 3.5-.4 15.6 15.6 0 0 0 3.2-1v-2.3c0-1.5 0-3-.3-4.4s-.6-2.6-1.1-3.6a6.7 6.7 0 0 0-2.2-2.5 6.2 6.2 0 0 0-3.5-1c-1.2 0-2.1.3-3 .8a6.6 6.6 0 0 0-2 1.9 7.6 7.6 0 0 0-1.1 2.5c-.2.9-.4 1.7-.4 2.6 0 2.4.6 4.2 1.8 5.5 1.1 1.2 2.8 1.9 5.1 1.9zm-99 35.3c0 1.5-.2 3-.5 4.3l-.8 4.2a429.4 429.4 0 0 1 3.8-2 26.1 26.1 0 0 1 4-1.8l.3-.1 1.5 4.5-.4.1a17.6 17.6 0 0 1-4.3 1l-4.3.4 3.3 3a20.7 20.7 0 0 1 2.8 3.2l.3.4-3.9 2.7-.2-.4a33.6 33.6 0 0 1-2.2-3.7 256.8 256.8 0 0 1-1.9-4 267 267 0 0 1-1.8 4 34 34 0 0 1-2.2 3.7l-.3.4-3.8-2.7.2-.4a20.6 20.6 0 0 1 2.9-3.3l3.3-2.9a105.2 105.2 0 0 1-4.4-.4 17.6 17.6 0 0 1-4.2-1l-.4-.1 1.5-4.5.3.1a26.2 26.2 0 0 1 4 1.8 492.8 492.8 0 0 1 3.8 2l-.9-4.2a22.3 22.3 0 0 1-.4-4.3v-.4h4.8v.4z" fill="#fff"/><path d="M143.3 125V87.9c0-4.3-.9-10.7 5.5-10.7h127.9c3.4 0 7.5.4 7.5 5v195.5c0 3.3-1 6.8-5.3 6.8H152c-3.8 0-8.6 0-8.6-5.2v-17.6c0-4.5-7-4.5-7 0 0 10.5-3.3 29.8 12.6 29.8h116.2c7.3 0 19.4 2 24-5.2 3.2-5.2 2.1-12.6 2.1-18.5V82.1c0-12.2-12.1-12-20.8-12H151c-4.6 0-8.7.9-12 4.5-3.5 4.1-2.6 10.5-2.6 15.5V125c0 4.5 7 4.5 7 0z" fill="#fff"/><path d="M166.1 131.5h121.6c4.5 0 4.5-7 0-7H166.1c-4.5 0-4.5 7 0 7zm-20.3 52.8h140.3c4.5 0 4.5-7 0-7H145.8c-4.5 0-4.5 7 0 7zm2.7 55.9h139.2c4.5 0 4.5-7 0-7H148.5c-4.5 0-4.5 7 0 7z" fill="#fff"/><path d="M184.2 73.7v214.2c0 4.6 7 4.6 7 0V73.7c0-4.5-7-4.5-7 0zm53 0v214.2c0 4.6 7 4.6 7 0V73.7c0-4.5-7-4.5-7 0zm-34.7 188a26 26 0 0 1 3.2-14.1c2.2-3.4 5.2-5 9-5 4 0 7 1.7 9.1 5s3.3 8 3.3 14.2c0 6.1-1.1 10.9-3.3 14.2s-5.2 5-9 5c-3.9 0-6.9-1.7-9-5a26 26 0 0 1-3.3-14.2zm19.4 0a34.8 34.8 0 0 0-1.5-10.4c-.6-1.3-1.3-2.4-2.2-3.2s-2-1.2-3.4-1.2a5 5 0 0 0-3.4 1.2 8.3 8.3 0 0 0-2.2 3.2 18.7 18.7 0 0 0-1.2 4.7 45.3 45.3 0 0 0-.3 5.8c0 2 0 3.9.3 5.7a19 19 0 0 0 1.2 4.7 8.3 8.3 0 0 0 2.2 3.2 5 5 0 0 0 3.4 1.2c1.3 0 2.5-.4 3.4-1.2s1.6-1.8 2.2-3.2a34.8 34.8 0 0 0 1.5-10.4zm40-8.6h8.6l1.8-9.7h4.5l-1.9 9.7h4.7v4H274l-1.8 9.4h7.3v4h-8l-1.9 9.7h-4.4l1.8-9.7h-8.5l-2 9.7h-4.4l1.9-9.7h-4.7v-4h5.4l1.8-9.4h-7.2v-4h8l1.9-9.7h4.4l-1.8 9.7zm-2.6 13.4h8.6l1.8-9.4h-8.6l-1.8 9.4zm-123-76.2V230c0 4.6 7 4.6 7 0v-39.6c0-4.5-7-4.5-7 0z" fill="#fff"/></svg>