<svg xmlns="http://www.w3.org/2000/svg" width="361" height="361"><path d="M282.1 248.8a33.7 33.7 0 0 1-34.4 33.2H128.5c-8.2 0-17 .8-25-1.4-16-4.3-23.8-19.3-23.8-34.8V124.1c0-10.3-.4-19.8 5.3-29.1a33.4 33.4 0 0 1 28-15.3h135.7c9.7 0 18.4 4 25 11.1 8.3 8.9 8.4 20 8.4 31v127c0 6.5 10 6.5 10 0V113a43.6 43.6 0 0 0-36.4-42.8c-7.7-1.2-16-.5-23.7-.5H113.7A44 44 0 0 0 72 99.5c-3 8.4-2.2 18.2-2.2 27V247c0 17 8.4 32.4 23.8 40.4 9.6 5 19.7 4.6 30.1 4.6h122c15.5 0 28.9-5.5 38.4-18.1a42.9 42.9 0 0 0 8-25.1c.2-6.5-9.8-6.4-10 0z" fill="#fff"/><path d="M131.8 180.3c0-25.8 4.3-45.5 12.8-59.2a40.4 40.4 0 0 1 36.3-20.4c15.5 0 27.6 6.8 36.2 20.4 8.5 13.7 12.8 33.4 12.8 59.2 0 25.7-4.3 45.3-12.8 59s-20.7 20.4-36.2 20.4c-15.6 0-27.6-6.8-36.2-20.4s-12.9-33.3-12.9-59zm82.5 0c0-8.8-.5-17.2-1.6-25.2s-3-15-5.6-21.2-6.1-11-10.4-14.8a23.4 23.4 0 0 0-15.8-5.5c-6.5 0-11.8 1.9-16 5.5a38.8 38.8 0 0 0-10.3 14.8A85.8 85.8 0 0 0 149 155a185 185 0 0 0 0 50.4c1 8 3 15 5.5 21.1a39 39 0 0 0 10.2 14.6c4.3 3.7 9.6 5.5 16 5.5s11.7-1.8 16-5.5a39 39 0 0 0 10.2-14.6c2.7-6 4.6-13.1 5.7-21.1 1-8 1.6-16.4 1.6-25.2z" fill="#fff"/></svg>