<svg xmlns="http://www.w3.org/2000/svg" width="361" height="361"><path d="M286.7 146.8a4.4 4.4 0 0 0-4.4-4.4H178.5a4.4 4.4 0 0 0-4.4 4.4v135.9a4.4 4.4 0 0 0 4.4 4.4h103.8a4.4 4.4 0 0 0 4.4-4.4V146.8z" fill="none" stroke="#fff" stroke-width="10" stroke-miterlimit="10"/><path d="M191.2 169h78.4c6.5 0 6.5-10 0-10h-78.4c-6.5 0-6.5 10 0 10zm0 37.8h78.4c6.5 0 6.5-10 0-10h-78.4c-6.5 0-6.5 10 0 10zm0-18.9h78.4c6.5 0 6.5-10 0-10h-78.4c-6.5 0-6.5 10 0 10zm0 37.8h78.4c6.5 0 6.5-10 0-10h-78.4c-6.5 0-6.5 10 0 10zm.5 19h77.5c6.4 0 6.4-10 0-10h-77.5c-6.5 0-6.5 10 0 10zm0 18.8h77.4c6.4 0 6.4-10 0-10h-77.3c-6.5 0-6.5 10 0 10z" fill="#fff"/><g fill="#fff"><path d="M172.2 276.2H84.5c-3 0-4.7-1.7-4.7-4.6V92c0-6.3 10.3-4.3 14.6-4.3h117.4c3.2 0 4.5 2 4.5 5v48c0 6.4 10 6.4 10 0V91.2c0-8-6.7-13.5-14.3-13.5H95c-9.8 0-21.8-1.6-24.9 10.8-1.3 5.4-.3 12-.3 17.5v166.7c0 8.2 7 13.5 14.7 13.5h87.7c6.4 0 6.4-10 0-10zm-64.9-203h81.5c2 0 2-3 0-3h-81.5c-1.9 0-1.9 3 0 3z"/><path d="M191.5 93c0 3.1-2.4 5.7-5.4 5.7h-76c-3 0-5.4-2.6-5.4-5.7V80.8c0-3.1 2.4-5.6 5.4-5.6h76c3 0 5.4 2.5 5.4 5.6V93z"/></g></svg>