<svg xmlns="http://www.w3.org/2000/svg" width="361" height="361"><path d="M282 249a34 34 0 0 1-34 33H129c-9 0-17 1-25-1-16-5-24-20-24-35V124c0-10-1-20 5-29a33 33 0 0 1 28-15h136c9 0 18 4 25 11 8 9 8 20 8 31v127c0 6 10 6 10 0V113a44 44 0 0 0-36-43H114a44 44 0 0 0-42 30c-3 8-2 18-2 27v120c0 17 8 32 24 40 9 5 19 5 30 5h122c15 0 29-5 38-18a43 43 0 0 0 8-25c0-7-10-7-10 0z" fill="#fff"/><path d="M171 247c14 0 24-3 30-9s9-14 9-24c0-6-2-11-4-16a28 28 0 0 0-10-10 44 44 0 0 0-15-6 89 89 0 0 0-17-1h-2v-12h5l12-1c4-1 8-2 11-5a26 26 0 0 0 12-22c0-5 0-9-2-13a22 22 0 0 0-6-8 27 27 0 0 0-10-5 44 44 0 0 0-11-1c-8 0-14 1-19 3l-10 6-7-11a80 80 0 0 1 6-3 55 55 0 0 1 8-4 71 71 0 0 1 10-3 66 66 0 0 1 32 2c6 1 10 4 14 8a32 32 0 0 1 8 12 44 44 0 0 1 3 15c0 9-3 17-8 22a40 40 0 0 1-18 12l12 5a42 42 0 0 1 10 8c4 4 6 8 8 12a44 44 0 0 1 3 17 46 46 0 0 1-4 18 40 40 0 0 1-10 14 47 47 0 0 1-17 9 78 78 0 0 1-37 2 95 95 0 0 1-11-2 74 74 0 0 1-8-2 44 44 0 0 1-4-2l3-13a35 35 0 0 0 5 2 61 61 0 0 0 7 3 91 91 0 0 0 21 3z" fill="#fff"/></svg>