<svg xmlns="http://www.w3.org/2000/svg" width="361" height="361"><g fill="#fff"><path d="M264 134.2l12.6-1.3-1.3-12.2-12.6 1.4L256 107l9.4-8.5-8.1-9.1-9.5 8.5-14.3-8.3 2.7-12.4-12-2.5-2.6 12.4-16.5 1.7-5.1-11.6-11.2 5 5.2 11.6-12.3 11-11-6.3-6.1 10.6 11 6.3-3.5 15.7-12.6 1.8 1.3 12.2 12.6-1.4 6.7 15.1-9.4 8.5 8.2 9.1 9.4-8.5 14.3 8.3-2.6 12.4 12 2.5 2.6-12.4L231 177l5.2 11.6 11.1-5-5-11.6 12.1-11 11 6.3 6.2-10.6-11-6.3 3.4-16.2zm-46 34.5a35.8 35.8 0 1 1 0-71.6 35.8 35.8 0 0 1 0 71.6z"/><path d="M264 139.2l12.6-1.3c2.5-.3 5.3-2 5-5l-1.3-12.2c-.2-2.4-2-5.3-5-5l-12.6 1.4 4.4 2.4-6.8-15-.8 6 9.5-8.5c2-1.9 1.7-5.1 0-7l-8.2-9.1c-1.9-2.1-5.1-1.8-7 0l-9.5 8.5 6-.8-14.3-8.3 2.3 5.6 2.7-12.4c.5-2.5-.7-5.5-3.5-6.1l-12-2.5c-2.5-.6-5.5.7-6.1 3.4l-2.6 12.5 4.8-3.7-16.5 1.7 4.3 2.5-5.1-11.6c-1.2-2.7-4.6-2.8-6.8-1.8l-11.2 5c-2.7 1.2-2.8 4.5-1.8 6.8l5.2 11.6.7-6-12.2 11 6-.8-11-6.3a5 5 0 0 0-6.8 1.8l-6.1 10.6a5 5 0 0 0 1.8 6.8l11 6.3-2.3-5.6-3.5 15.7 3.5-3.5-12.6 1.8c-2 .3-3.9 2.8-3.7 4.8l1.3 12.2c.3 2.4 2 5.3 5 5l12.6-1.4-4.3-2.4 6.7 15 .8-6-9.4 8.5c-2.1 1.9-1.8 5.1 0 7l8.2 9.1c1.9 2.1 5 1.8 7 0l9.5-8.5-6.1.8 14.3 8.3-2.3-5.7-2.6 12.4c-.6 2.6.7 5.6 3.5 6.2l12 2.5c2.5.6 5.5-.7 6-3.4l2.7-12.5-4.8 3.7L231 182l-4.3-2.5 5.2 11.6c1.1 2.7 4.5 2.8 6.8 1.8l11.2-5c2.7-1.2 2.8-4.6 1.8-6.8l-5.1-11.7-.8 6.1 12.2-11-6 .8 11 6.3a5 5 0 0 0 6.8-1.8l6-10.6a5 5 0 0 0-1.7-6.8l-11-6.3 2.3 5.6 3.4-16.2c1.4-6.3-8.3-9-9.6-2.6l-3.4 16.2c-.5 2.2.2 4.4 2.3 5.6l11 6.3-1.9-6.8-6 10.6 6.8-1.8-11-6.4a5.1 5.1 0 0 0-6 .8l-12.3 11c-1.8 1.7-1.6 4-.8 6l5.1 11.7 1.8-6.8-11.2 5 6.9 1.8-5.2-11.6a4.8 4.8 0 0 0-4.3-2.5l-16.4 1.7c-2.2.2-4.3 1.4-4.8 3.7l-2.7 12.4 6.2-3.5-12-2.5 3.5 6.1 2.7-12.4c.4-2.2-.3-4.5-2.3-5.6l-14.3-8.3a5.1 5.1 0 0 0-6.1.8l-9.4 8.5h7l-8.2-9.1v7l9.5-8.4c1.8-1.6 1.7-4 .8-6l-6.8-15.2a4.8 4.8 0 0 0-4.3-2.5l-12.6 1.4 5 5-1.3-12.2-3.6 4.8 12.6-1.8c1.6-.2 3.1-2 3.5-3.5l3.4-15.7a5 5 0 0 0-2.3-5.6l-11-6.3 1.8 6.8L175 101l-6.8 1.8 11 6.4a5.1 5.1 0 0 0 6-.8l12.3-11.1c1.8-1.6 1.7-4 .8-6L193 79.6l-1.8 6.8 11.2-5-6.8-1.8 5.1 11.6a4.8 4.8 0 0 0 4.3 2.5l16.5-1.7c2.1-.2 4.3-1.4 4.8-3.7L229 76l-6.2 3.5 12 2.5-3.5-6.1-2.6 12.4c-.5 2.2.3 4.5 2.3 5.6l14.3 8.3a5.1 5.1 0 0 0 6-.8l9.5-8.5h-7l8.1 9.1v-7l-9.4 8.4c-1.8 1.6-1.7 4-.8 6l6.7 15.2a4.8 4.8 0 0 0 4.3 2.5l12.6-1.4-5-5 1.3 12.2 5-5-12.6 1.3c-6.3.7-6.4 10.7 0 10z"/><path d="M218 163.7a31.2 31.2 0 0 1-30.8-30.8 31.1 31.1 0 0 1 30.9-30.8c17-.4 30.5 14.2 30.8 30.8.3 17-14.3 30.5-30.8 30.8-6.5.2-6.5 10.2 0 10a41.4 41.4 0 0 0 40.8-40.8c.5-22.6-19-40.4-40.8-40.8a41.3 41.3 0 0 0-40.9 40.8 41.3 41.3 0 0 0 40.9 40.8c6.4.2 6.4-9.8 0-10z"/></g><g fill="#fff"><path d="M189.8 226.3l12.7-.6-.6-12.2-12.7.6-5.8-15.5 9.9-8-7.7-9.4-10 8L162 180l3.3-12.3-11.8-3.2L150 177l-16.5.8-4.5-11.9-11.5 4.4 4.6 11.8-13 10.4-10.5-7-6.7 10.3 10.6 7-4.3 15.4-12.7 1.1.6 12.2 12.7-.6 5.9 15.4-10 8 7.7 9.5 10-8 13.7 9.1L123 277l11.8 3.2L138 268l16.5-.8L159 279l11.5-4.3-4.5-12 12.8-10.2 10.7 7 6.7-10.3-10.7-7 4.3-16zm-45.8 32a35.8 35.8 0 1 1 0-71.7 35.8 35.8 0 0 1 0 71.7z"/><path d="M189.8 231.3l12.7-.6c2.6-.1 5.2-2.2 5-5l-.6-12.2c-.1-2.7-2.2-5.2-5-5l-12.7.6 4.9 3.7-6-15.5-1.2 4.9 9.9-8c2.3-1.8 1.5-5.1 0-7l-7.7-9.6c-1.8-2.3-5.1-1.5-7 0l-10 8 6.1-.8-13.8-9 2.3 5.6 3.3-12.2a5 5 0 0 0-3.5-6.2l-11.8-3.2a5 5 0 0 0-6.1 3.5l-3.3 12.3 4.8-3.7-16.5.8 4.8 3.7-4.5-11.9c-1-2.3-3.4-4.5-6.2-3.5l-11.4 4.4c-2.4.9-4.5 3.4-3.5 6.1l4.5 11.9 1.3-4.9-12.9 10.4 6.1-.8-10.6-7c-2.4-1.5-5.4-.4-6.9 1.8l-6.7 10.3c-1.5 2.3-.4 5.4 1.8 6.8l10.7 7-2.3-5.7-4.3 15.5 4.8-3.7-12.7 1.1c-2.6.2-5.2 2.1-5 5l.6 12.2c.1 2.6 2.2 5.2 5 5l12.7-.6L94 232l6 15.5 1.2-4.9-9.9 8c-2.3 1.8-1.5 5 0 7l7.7 9.6c1.8 2.2 5.1 1.5 7 0l10-8-6.1.8 13.8 9-2.3-5.6-3.3 12.2a5 5 0 0 0 3.5 6.2l11.8 3.2a5 5 0 0 0 6.1-3.5l3.3-12.3-4.8 3.7 16.5-.8-4.8-3.7 4.5 11.9c1 2.3 3.5 4.5 6.2 3.5l11.4-4.4c2.4-.9 4.5-3.4 3.5-6.2l-4.4-11.8-1.3 4.8 12.8-10.3-6.1.8 10.6 7c2.4 1.5 5.4.3 6.9-1.9l6.7-10.2c1.5-2.4.4-5.4-1.8-6.8l-10.7-7 2.3 5.7 4.4-16c1.6-6.2-8-8.9-9.7-2.6l-4.3 16a5.1 5.1 0 0 0 2.3 5.6l10.6 6.9-1.8-6.9-6.7 10.3 6.9-1.8-10.6-7c-2-1.3-4.4-.6-6.1.8l-12.8 10.3a4.8 4.8 0 0 0-1.3 5l4.5 11.8 3.5-6.1-11.5 4.3 6.2 3.5-4.5-11.8c-.8-2-2.5-3.8-4.9-3.7l-16.5.8a5 5 0 0 0-4.8 3.7l-3.3 12.2 6.2-3.5-11.9-3.2 3.5 6.2 3.4-12.3a5.1 5.1 0 0 0-2.3-5.6l-13.9-9c-2-1.4-4.3-.7-6 .7l-10 8h7.2l-7.7-9.6v7.1l9.9-8a4.8 4.8 0 0 0 1.3-4.8l-6-15.4c-.7-2-2.4-3.8-4.7-3.7l-12.7.6 5 5-.6-12.2-5 5 12.7-1.1c2.2-.2 4.2-1.4 4.8-3.7l4.3-15.4a5 5 0 0 0-2.3-5.7l-10.6-7 1.8 7L103 188l-6.9 1.8 10.7 7c2 1.3 4.3.5 6-.8l12.9-10.4a4.8 4.8 0 0 0 1.3-4.9l-4.6-11.8-3.5 6.1 11.5-4.3-6.2-3.5 4.5 11.8c.8 2 2.5 3.8 4.9 3.7l16.5-.8a5 5 0 0 0 4.8-3.7l3.3-12.2-6.1 3.5 11.8 3.2-3.5-6.2-3.4 12.2a5.1 5.1 0 0 0 2.3 5.7l13.9 9c2 1.4 4.3.6 6-.7l10-8H182l7.7 9.5v-7l-9.9 7.9a4.8 4.8 0 0 0-1.3 4.9l6 15.4c.7 2 2.4 3.8 4.7 3.7l12.7-.6-5-5 .6 12.2 5-5-12.7.6c-6.4.3-6.4 10.3 0 10z"/><path d="M144 253.3a31.2 31.2 0 0 1-30.8-30.9 31.1 31.1 0 0 1 30.9-30.8c17-.3 30.5 14.3 30.8 30.8a31.2 31.2 0 0 1-30.8 30.9c-6.5.1-6.5 10.1 0 10a41.4 41.4 0 0 0 40.8-40.9c.4-22.5-19-40.4-40.8-40.8a41.3 41.3 0 0 0-40.9 40.8 41.3 41.3 0 0 0 40.9 40.9c6.4.1 6.4-9.9 0-10z"/></g><path d="M252.4 241.6l7.7-1a26.3 26.3 0 0 0-6.5-10.5l-4.2 6.8 3 4.7z" fill="#fff"/><path d="M252.4 246.6l7.7-1c3-.4 6-3 4.8-6.3a33.2 33.2 0 0 0-7.8-12.7 5 5 0 0 0-7.8 1l-4.2 6.8a5 5 0 0 0 0 5l3 4.7c3.4 5.4 12 .4 8.6-5l-3-4.7v5l4.2-6.8-7.8 1a21.9 21.9 0 0 1 5.2 8.3l4.8-6.3-7.7 1c-2.7.3-5 2-5 5 0 2.4 2.3 5.3 5 5z" fill="#fff"/><path d="M253.6 230.1l5.7-9.2-9.4-5.8-5.5 9.1 1 .5a26.1 26.1 0 0 1 8.2 5.4z" fill="#fff"/><path d="M258 232.6l5.6-9.2c1.5-2.4.5-5.4-1.8-6.8l-9.4-5.8a5 5 0 0 0-6.8 1.8l-5.5 9.1c-1.8 3 0 6.3 3 7.4 2.6 1 5 2.6 7 4.5 4.6 4.5 11.7-2.6 7-7a32.6 32.6 0 0 0-11.4-7.2l3 7.4 5.5-9.1-6.8 1.8 9.4 5.7-1.8-6.8-5.7 9.2c-3.4 5.5 5.2 10.5 8.6 5z" fill="#fff"/><path d="M240.1 231.3l4.3-7a26 26 0 0 0-12.6-1.5l2.8 7.9 5.5.6z" fill="#fff"/><path d="M244.4 233.8l4.3-7c1.8-3 0-6.3-3-7.4a31 31 0 0 0-13.9-1.6c-3 .4-6 3-4.8 6.4l2.8 7.8a5.1 5.1 0 0 0 4.8 3.7l5.5.6c2.7.2 5-2.5 5-5 0-3-2.3-4.8-5-5l-5.5-.6 4.9 3.7-2.9-7.9-4.8 6.3c4-.4 7.5 0 11.2 1.3l-3-7.4-4.2 7c-3.4 5.6 5.3 10.6 8.6 5zm17 17.6l11-1.3-1.3-11-11 1.5a26.2 26.2 0 0 1 1.2 10.8z" fill="#fff"/><path d="M261.3 256.4l11.1-1.3c2.5-.3 5.4-2 5-5l-1.3-11c-.3-2.3-2-5.3-5-5l-11 1.5c-3 .4-5.9 2.9-4.8 6.3 1 3.2 1.3 6.2 1 9.5-.2 2.8 2.5 5 5 5 3 0 4.8-2.2 5-5 .4-4-.2-8.2-1.4-12.2l-4.8 6.4 11-1.4-5-5 1.3 10.9 5-5-11 1.3c-2.8.4-5 2-5 5 0 2.5 2.2 5.4 5 5zm-36.9-22l-2.9-8a26 26 0 0 0-9 9.2l8 2.8 4-4z" fill="#fff"/><path d="M229.2 233l-2.9-7.8c-1-3-4.4-4.9-7.3-3a32.8 32.8 0 0 0-10.7 11c-1.8 2.8 0 6.2 3 7.3l8 2.7a5 5 0 0 0 4.8-1.3l3.8-4c4.6-4.6-2.5-11.6-7-7l-3.9 4 4.9-1.4-8-2.7 3 7.4a21.8 21.8 0 0 1 7.1-7.4l-7.3-3 2.9 8c1 2.5 3.3 4.2 6.1 3.4 2.5-.6 4.5-3.6 3.5-6.1z" fill="#fff"/><path d="M228.3 213l-10.4 3.7 3.6 9.8a26.3 26.3 0 0 1 10.3-3.7l-3.5-9.9z" fill="#fff"/><path d="M227 208.1l-10.4 3.8c-2.4.8-4.5 3.4-3.5 6.1l3.6 9.8c1 3 4.4 4.7 7.3 3a24.6 24.6 0 0 1 9.1-3.2c2.6-.3 4.4-3.8 3.5-6.1l-3.5-9.9c-2.2-6-11.9-3.4-9.7 2.7l3.6 9.9 3.5-6.2a31.9 31.9 0 0 0-11.5 4.2l7.3 3-3.6-9.8-3.4 6.1 10.3-3.7c6-2.2 3.4-11.9-2.7-9.7zm25 49.5l5.4 5.2 2-3.8a26.2 26.2 0 0 0 2-7.6l-7.7 1-1.8 5.2z" fill="#fff"/><path d="M248.4 261.1l5.4 5.3a5 5 0 0 0 7.9-1c2.6-4.4 4-9 4.6-14 .3-2.4-2.5-5.3-5-5l-7.6 1c-2.3.2-4 1.3-4.8 3.6l-1.8 5.2c-2 6.2 7.6 8.8 9.7 2.7l1.7-5.2-4.8 3.7 7.6-1-5-5a21.6 21.6 0 0 1-3.3 8.9l7.9-1-5.4-5.3c-4.6-4.5-11.7 2.6-7 7.1z" fill="#fff"/><g fill="#fff"><path d="M210.9 258.5l-9 5.8 6 9.2 9.1-6a26.3 26.3 0 0 1-6.1-9z"/><path d="M208.4 254.2l-9 5.8c-2.3 1.4-3.4 4.4-1.9 6.8l6 9.2c1.4 2.3 4.5 3.4 6.9 1.9l9.1-6c2.7-1.7 3.4-5.5 1-7.8a24.9 24.9 0 0 1-5.3-8.1c-1-2.5-4.7-3-6.8-1.8-2.6 1.5-2.9 4.3-1.8 6.8a32 32 0 0 0 6.9 10.1l1-7.8-9.2 6 6.8 1.7-6-9.2-1.7 6.8 9-5.8c5.4-3.4.4-12.1-5-8.6z"/></g><g fill="#fff"><path d="M239.2 267.2l-.8 7.6a26.4 26.4 0 0 0 11.3-4.2l-5.4-5.2-5.1 1.8z"/><path d="M234.2 267.2l-.8 7.6c-.3 3.6 3.5 5.2 6.4 4.8a31 31 0 0 0 12.4-4.7c2.7-1.7 3.4-5.5 1-7.8l-5.3-5.3c-1.2-1.2-3.2-1.9-4.9-1.3l-5.2 2c-2.5.8-4.2 3.3-3.5 6 .7 2.5 3.6 4.5 6.2 3.6l5.2-2-4.9-1.2 5.4 5.3 1-7.9c-3.1 2-6.4 3.1-10 3.7l6.2 4.8.8-7.6c.2-2.7-2.5-5-5-5-3 0-4.8 2.3-5 5z"/></g><g fill="#fff"><path d="M227.5 273.9l-1.1 11 11 1.1 1-11.2a26 26 0 0 1-10.9-1z"/><path d="M222.5 273.9l-1.1 11c-.3 2.9 2.5 4.8 5 5l11 1.1c2.8.3 4.7-2.5 5-5l1-11.2c.3-2.5-2.4-5.3-5-5a24 24 0 0 1-9.5-.8c-6.2-1.8-8.9 7.9-2.7 9.7a31.8 31.8 0 0 0 12.2 1l-5-5-1 11.3 5-5-11-1.1 5 5 1.1-11c.3-2.8-2.5-5-5-5-2.9 0-4.7 2.2-5 5z"/></g><g fill="#fff"><path d="M212.6 235.6l-9.9-3.3-3.5 10.4 10 3.3a26.2 26.2 0 0 1 1.9-7.4 26 26 0 0 1 1.5-3z"/><path d="M214 230.8l-10-3.4c-2.7-.9-5.3 1-6.1 3.5l-3.5 10.5c-1 2.6 1 5.3 3.5 6.1l10 3.3c3.3 1.2 5.9-1.8 6.3-4.8.3-2.8 1.3-5.4 2.7-7.8 3.2-5.7-5.5-10.7-8.6-5a34 34 0 0 0-4.1 12.8l6.3-4.8-10-3.3 3.5 6.1 3.5-10.4-6.1 3.5 9.9 3.4c6 2 8.7-7.6 2.6-9.7z"/></g><g fill="#fff"><path d="M249.7 270.6l8.1 8 7.7-7.9-8.1-7.9a26 26 0 0 1-7.7 7.8z"/><path d="M246.2 274.2l8 8a5 5 0 0 0 7.1 0l7.7-8a5 5 0 0 0 0-7l-8.1-8c-2.4-2.2-6-1.6-7.9 1a21.9 21.9 0 0 1-5.8 6.1c-5.3 3.6-.3 12.3 5 8.6a34.6 34.6 0 0 0 9.5-9.6l-7.9 1 8.2 8v-7.1l-7.7 7.8h7l-8-7.9c-4.7-4.5-11.7 2.5-7.1 7z"/></g><g fill="#fff"><path d="M217 248.7l-7.8-2.7a26.2 26.2 0 0 0 1.7 12.5l6.9-4.4-.7-5.4z"/><path d="M218.4 243.8l-7.9-2.6c-3.3-1.1-6 1.8-6.3 4.8a31.2 31.2 0 0 0 1.9 13.8c1 3 4.4 4.9 7.3 3l6.9-4.4c1.3-.8 2.7-2.5 2.5-4.3l-.7-5.4c-.4-2.7-2-5-5-5-2.5 0-5.4 2.3-5 5l.7 5.4 2.4-4.3-6.8 4.4 7.3 3a24.3 24.3 0 0 1-1.5-11.2l-6.4 4.8 8 2.7c6 2 8.7-7.6 2.6-9.7z"/></g><g fill="#fff"><path d="M223.7 263.3l-6.7 4.3a26.1 26.1 0 0 0 10.5 6.3l.8-7.7-4.7-3z"/><path d="M221.1 259l-6.6 4.3c-2.7 1.7-3.5 5.5-1 7.8a33.2 33.2 0 0 0 12.7 7.6c3.4 1 6-1.8 6.3-4.8l.8-7.8c.2-1.7-1-3.4-2.4-4.3l-4.7-2.8c-5.5-3.4-10.6 5.2-5 8.6l4.6 2.9-2.4-4.4-.8 7.7 6.3-4.8a21.8 21.8 0 0 1-8.4-5l-1 7.9 6.7-4.3c5.4-3.5.4-12.2-5-8.6z"/></g><path d="M248.3 249.4c-.6 17-25.7 17-26.3 0-.3-7.4 6.2-12.9 13.2-13.1 7.3-.3 12.9 6.1 13.1 13.1.2 6.4 10.2 6.5 10 0a23.6 23.6 0 0 0-23.2-23.1c-12.9-.5-22.6 10.9-23.1 23.1-.5 13 11 22.7 23.1 23.2 13 .4 22.8-11 23.2-23.2.2-6.4-9.8-6.4-10 0z" fill="#fff"/></svg>