<svg xmlns="http://www.w3.org/2000/svg" width="361" height="361"><path d="M282.1 248.8a33.7 33.7 0 0 1-34.4 33.2H128.5c-8.2 0-17 .8-25-1.4-16-4.3-23.8-19.3-23.8-34.8V124.1c0-10.3-.4-19.8 5.3-29.1a33.4 33.4 0 0 1 28-15.3h135.7c9.7 0 18.4 4 25 11.1 8.3 8.9 8.4 20 8.4 31v127c0 6.5 10 6.5 10 0V113a43.6 43.6 0 0 0-36.4-42.8c-7.7-1.2-16-.5-23.7-.5H113.7A44 44 0 0 0 72 99.5c-3 8.4-2.2 18.2-2.2 27V247c0 17 8.4 32.4 23.8 40.4 9.6 5 19.7 4.6 30.1 4.6h122c15.5 0 28.9-5.5 38.4-18.1a42.9 42.9 0 0 0 8-25.1c.2-6.5-9.8-6.4-10 0z" fill="#fff"/><path d="M129.8 206.3a193.2 193.2 0 0 1 11.1-23.8 390.5 390.5 0 0 1 16.2-27 357.3 357.3 0 0 1 19.6-27.2A310.2 310.2 0 0 1 198 104h15v99.4h19v11.7h-19v41.3h-14v-41.3h-69.2v-8.8zm69.1-2.9v-83.1a204.6 204.6 0 0 0-15.6 18.2 318.6 318.6 0 0 0-15 21.4 370.7 370.7 0 0 0-13.4 22.2 214 214 0 0 0-10.3 21.3h54.3z" fill="#fff"/></svg>