<svg xmlns="http://www.w3.org/2000/svg" width="361" height="361"><path d="M287 147a4 4 0 0 0-5-5H179a4 4 0 0 0-5 5v136a4 4 0 0 0 4 4h104a4 4 0 0 0 5-4V147z" fill="none" stroke="#fff" stroke-width="10" stroke-miterlimit="10"/><path d="M191 169h79c6 0 6-10 0-10h-79c-6 0-6 10 0 10zm0 38h79c6 0 6-10 0-10h-79c-6 0-6 10 0 10zm0-19h79c6 0 6-10 0-10h-79c-6 0-6 10 0 10zm0 38h79c6 0 6-10 0-10h-79c-6 0-6 10 0 10zm1 19h77c7 0 7-10 0-10h-77c-7 0-7 10 0 10zm0 18h77c7 1 7-9 0-9h-77c-7 0-7 10 0 10z" fill="#fff"/><g fill="#fff"><path d="M172 276H85c-3 0-5-2-5-4V92c0-6 10-4 14-4h118c3 0 4 2 4 5v48c0 6 10 6 10 0V91c0-8-6-13-14-13H95c-10 0-22-2-25 11v184c0 8 7 13 14 13h88c7 0 7-10 0-10zM107 73h82c2 0 2-3 0-3h-82c-2 0-2 3 0 3z"/><path d="M192 93c0 3-3 6-6 6h-76c-3 0-5-3-5-6V81c0-3 2-6 5-6h76c3 0 5 3 5 6v12z"/></g></svg>