<svg xmlns="http://www.w3.org/2000/svg" width="361" height="361"><path d="M146 105H80a6 6 0 0 0-5 6v170a6 6 0 0 0 5 5h130a6 6 0 0 0 6-5v-26" fill="none" stroke="#fff" stroke-width="10" stroke-miterlimit="10"/><path d="M96 137h50c7 0 7-10 0-10H96c-6 0-6 10 0 10zm0 47h50c7 0 7-10 0-10H96c-6 0-6 10 0 10zm0-23h50c7 0 7-10 0-10H96c-6 0-6 10 0 10zm0 47h50c7 0 7-10 0-10H96c-6 0-6 10 0 10zm1 24h49c6 0 6-10 0-10H97c-7 0-7 10 0 10zm0 23h48c7 0 7-10 0-10H97c-7 0-7 10 0 10z" fill="#fff"/><path d="M287 80a6 6 0 0 0-6-6H152a6 6 0 0 0-6 6v170a6 6 0 0 0 6 5h129a6 6 0 0 0 6-5V80z" fill="none" stroke="#fff" stroke-width="10" stroke-miterlimit="10"/><path d="M167 106h98c7 0 7-10 0-10h-98c-6 0-6 10 0 10zm0 48h98c7 0 7-10 0-10h-98c-6 0-6 10 0 10zm0-24h98c7 0 7-10 0-10h-98c-6 0-6 10 0 10zm0 47h98c7 0 7-10 0-10h-98c-6 0-6 10 0 10zm1 24h97c6 0 6-10 0-10h-97c-7 0-7 10 0 10zm0 23h97c6 0 6-10 0-10h-97c-6 0-6 10 0 10z" fill="#fff"/></svg>