<svg xmlns="http://www.w3.org/2000/svg" width="361" height="361"><path d="M282 249a34 34 0 0 1-34 33H129c-9 0-17 1-25-1-16-5-24-20-24-35V124c0-10-1-20 5-29a33 33 0 0 1 28-15h136c9 0 18 4 25 11 8 9 8 20 8 31v127c0 6 10 6 10 0V113a44 44 0 0 0-36-43H114a44 44 0 0 0-42 30c-3 8-2 18-2 27v120c0 17 8 32 24 40 9 5 19 5 30 5h122c15 0 29-5 38-18a43 43 0 0 0 8-25c0-7-10-7-10 0z" fill="#fff"/><path d="M227 165c0 30-8 53-22 69-15 15-36 23-65 23v-12a101 101 0 0 0 27-3 59 59 0 0 0 21-11 53 53 0 0 0 14-17c4-8 6-16 8-27a74 74 0 0 1-15 6 67 67 0 0 1-17 2c-9 0-16-1-21-4-6-2-11-6-14-10a40 40 0 0 1-8-15 62 62 0 0 1-2-17l2-17c1-6 5-11 9-16a44 44 0 0 1 14-11c5-3 12-4 20-4 16 0 28 5 36 16 8 12 13 27 13 47zm-48 18c7 0 13-1 18-3l14-5a124 124 0 0 0 0-11l-1-19a50 50 0 0 0-6-17 30 30 0 0 0-10-11 30 30 0 0 0-16-4c-5 0-10 1-14 3a26 26 0 0 0-9 8 33 33 0 0 0-5 11 53 53 0 0 0-2 13c0 12 3 21 8 26 5 6 13 8 23 8z" fill="#fff"/></svg>