<svg xmlns="http://www.w3.org/2000/svg" width="361" height="361"><path d="M282.1 248.8a33.7 33.7 0 0 1-34.4 33.2H128.5c-8.2 0-17 .8-25-1.4-16-4.3-23.8-19.3-23.8-34.8V124.1c0-10.3-.4-19.8 5.3-29.1a33.4 33.4 0 0 1 28-15.3h135.7c9.7 0 18.4 4 25 11.1 8.3 8.9 8.4 20 8.4 31v127c0 6.5 10 6.5 10 0V113a43.6 43.6 0 0 0-36.4-42.8c-7.7-1.2-16-.5-23.7-.5H113.7A44 44 0 0 0 72 99.5c-3 8.4-2.2 18.2-2.2 27V247c0 17 8.4 32.4 23.8 40.4 9.6 5 19.7 4.6 30.1 4.6h122c15.5 0 28.9-5.5 38.4-18.1a42.9 42.9 0 0 0 8-25.1c.2-6.5-9.8-6.4-10 0z" fill="#fff"/><path d="M170.5 246.5c14 0 24-2.9 30-8.7 6-5.8 9-13.7 9-23.5 0-6.5-1.2-11.8-3.7-16.1a28.3 28.3 0 0 0-9.9-10.3 43.9 43.9 0 0 0-14.5-5.5 88.8 88.8 0 0 0-17.5-1.7h-2.2V169h5c4 0 8.1-.4 12.3-1.2 4.2-.8 8-2.3 11.4-4.5a25.7 25.7 0 0 0 12-22.8c0-4.8-.8-9-2.4-12.4a21.6 21.6 0 0 0-6.5-8.2 27 27 0 0 0-9.4-4.5 44.2 44.2 0 0 0-11.4-1.4c-7.9 0-14 1-18.4 3.3-4.5 2.2-8 4.2-10.8 6.1l-6.2-11.2a80.1 80.1 0 0 1 5.6-3.5 55.4 55.4 0 0 1 8-3.8 70.9 70.9 0 0 1 10.3-3c3.7-.7 7.8-1.1 12.2-1.1 7.6 0 14.2 1 19.7 2.8s10 4.6 13.7 8a31.8 31.8 0 0 1 8.2 12.3 44.3 44.3 0 0 1 2.6 15.5c0 9-2.4 16.2-7.1 21.9a40 40 0 0 1-18.4 12.2c4 1 8 2.6 12 4.7a41.5 41.5 0 0 1 10.4 8.2c3.1 3.3 5.6 7.3 7.5 12a43.9 43.9 0 0 1 2.9 16.5 45.8 45.8 0 0 1-3.4 17.8 39.5 39.5 0 0 1-10.2 14.2 47 47 0 0 1-17 9.5c-7 2.3-15 3.4-24.2 3.4-4.8 0-9.3-.3-13.3-1a95 95 0 0 1-10.7-2.3 73.6 73.6 0 0 1-7.8-2.6 44.2 44.2 0 0 1-4.7-2.2l3.7-12.8a35 35 0 0 0 4.4 2.2 60.5 60.5 0 0 0 7.4 2.6 90.8 90.8 0 0 0 21.4 3z" fill="#fff"/></svg>