<svg xmlns="http://www.w3.org/2000/svg" width="361" height="361"><path d="M282 249a34 34 0 0 1-34 33H129c-9 0-17 1-25-1-16-5-24-20-24-35V124c0-10-1-20 5-29a33 33 0 0 1 28-15h136c9 0 18 4 25 11 8 9 8 20 8 31v127c0 6 10 6 10 0V113a44 44 0 0 0-36-43H114a44 44 0 0 0-42 30c-3 8-2 18-2 27v120c0 17 8 32 24 40 9 5 19 5 30 5h122c15 0 29-5 38-18a43 43 0 0 0 8-25c0-7-10-7-10 0z" fill="#fff"/><path d="M132 180c0-25 4-45 13-59a40 40 0 0 1 36-20c15 0 28 7 36 20 9 14 13 34 13 59 0 26-4 46-13 59s-21 21-36 21c-16 0-28-7-36-21s-13-33-13-59zm82 0l-1-25a65 65 0 0 0-16-36 23 23 0 0 0-16-5c-7 0-12 2-16 5a39 39 0 0 0-10 15 86 86 0 0 0-6 21 185 185 0 0 0 0 50c1 8 3 15 6 22a39 39 0 0 0 10 14c4 4 9 6 16 6s11-2 16-6a39 39 0 0 0 10-15c3-5 4-13 6-21l1-25z" fill="#fff"/></svg>