<svg xmlns="http://www.w3.org/2000/svg" width="361" height="361"><path d="M282 249a34 34 0 0 1-34 33H129c-9 0-17 1-25-1-16-5-24-20-24-35V124c0-10-1-20 5-29a33 33 0 0 1 28-15h136c9 0 18 4 25 11 8 9 8 20 8 31v127c0 6 10 6 10 0V113a44 44 0 0 0-36-43H114a44 44 0 0 0-42 30c-3 8-2 18-2 27v120c0 17 8 32 24 40 9 5 19 5 30 5h122c15 0 29-5 38-18a43 43 0 0 0 8-25c0-7-10-7-10 0z" fill="#fff"/><path d="M157 256a213 213 0 0 1 7-38l13-40a302 302 0 0 1 17-35c6-11 12-19 18-26h-78v-13h93v13l-17 24a281 281 0 0 0-17 34 327 327 0 0 0-13 40 206 206 0 0 0-8 41h-15z" fill="#fff"/></svg>