<svg xmlns="http://www.w3.org/2000/svg" width="361" height="361"><path d="M282.1 248.8a33.7 33.7 0 0 1-34.4 33.2H128.5c-8.2 0-17 .8-25-1.4-16-4.3-23.8-19.3-23.8-34.8V124.1c0-10.3-.4-19.8 5.3-29.1a33.4 33.4 0 0 1 28-15.3h135.7c9.7 0 18.4 4 25 11.1 8.3 8.9 8.4 20 8.4 31v127c0 6.5 10 6.5 10 0V113a43.6 43.6 0 0 0-36.4-42.8c-7.7-1.2-16-.5-23.7-.5H113.7A44 44 0 0 0 72 99.5c-3 8.4-2.2 18.2-2.2 27V247c0 17 8.4 32.4 23.8 40.4 9.6 5 19.7 4.6 30.1 4.6h122c15.5 0 28.9-5.5 38.4-18.1a42.9 42.9 0 0 0 8-25.1c.2-6.5-9.8-6.4-10 0z" fill="#fff"/><path d="M180.9 259.7a58 58 0 0 1-19.5-3 44.4 44.4 0 0 1-15-8.7 38.9 38.9 0 0 1-9.6-13.2 39.9 39.9 0 0 1-3.4-16.6 41.7 41.7 0 0 1 16.3-33.9 64.2 64.2 0 0 1 10-6.7c-9-4.5-15-9.8-18.2-15.8a40.8 40.8 0 0 1-4.8-19.6c0-6.3 1-12 3.3-17.1a38 38 0 0 1 9-13.1 41 41 0 0 1 14-8.4 51.6 51.6 0 0 1 17.9-3c7.6 0 14.2 1.2 19.8 3.5a40.2 40.2 0 0 1 13.7 8.9 34.4 34.4 0 0 1 8 12.6 42.7 42.7 0 0 1 2.5 14.5c0 4.8-.8 9.3-2.2 13.3a46.1 46.1 0 0 1-5.8 11 48 48 0 0 1-7.9 8.7 75.9 75.9 0 0 1-8.6 6.4c10.3 4.4 17.5 9.8 21.7 16.4s6.3 13.6 6.3 21a43 43 0 0 1-3.4 17.3 38.9 38.9 0 0 1-9.6 13.5 44.4 44.4 0 0 1-15 8.8 57.2 57.2 0 0 1-19.5 3.2zm32.3-41.6c0-6.3-1.2-11.4-3.6-15.4a29.8 29.8 0 0 0-9.5-9.6 50.3 50.3 0 0 0-13.2-6 336 336 0 0 1-14.8-4.6 42.4 42.4 0 0 0-17.4 14.2 37 37 0 0 0-4.2 32.9 25 25 0 0 0 6 9.2 29.2 29.2 0 0 0 10.2 6.3c4 1.5 8.7 2.3 14.2 2.3a41 41 0 0 0 14.2-2.3 29.3 29.3 0 0 0 10-6.3 25 25 0 0 0 6.1-9.2 32.3 32.3 0 0 0 2-11.5zm-61.6-77.4c0 4.1.5 7.9 1.4 11.2a21.3 21.3 0 0 0 5.4 9.2c2.7 2.7 6.3 5.2 11 7.5s10.9 4.5 18.5 6.5a48.5 48.5 0 0 0 16-14.1 35.2 35.2 0 0 0 4.4-30.8 25.4 25.4 0 0 0-5.1-8.7 24.2 24.2 0 0 0-8.9-6.2 34.8 34.8 0 0 0-13.4-2.3c-4.9 0-9.1.7-12.8 2.2a25.2 25.2 0 0 0-14.6 15 30.2 30.2 0 0 0-1.9 10.5z" fill="#fff"/></svg>