<svg xmlns="http://www.w3.org/2000/svg" width="361" height="361"><path d="M227 157v-35.6c0-13 2-28-6-39.3A31.8 31.8 0 0 0 195.3 69h-91.5c-16.8 0-32 9.9-34.2 27.5-1.2 9.3-.3 19-.3 28.3V195a32 32 0 0 0 32.3 31.6h62.3c6.5 0 6.5-10 0-10h-55.8c-4.7 0-9.3.2-13.8-1-9-2.6-15-11.7-15-20.8v-92.1c0-13.8 9-23.8 23.2-23.8h81.3c5.5 0 11.5-.6 16.9.7 12 2.8 16.2 13.9 16.2 25V157c0 6.5 10 6.5 10 0z" fill="#fff"/><path d="M188.2 140.2h-79.7c-9.7 0-9.8 15-.1 15h79.7c9.7 0 9.8-15 .1-15z" fill="#fff"/><path d="M190.5 263.1c-2.2 0-3.9.6-3.9 1.2v21c0 .7 1.7 1.2 3.9 1.2H266c2.2 0 4-.5 4-1.2v-21c0-.6-1.8-1.2-4-1.2h-75.5z" fill="none" stroke="#fff" stroke-width="10" stroke-miterlimit="10"/><path d="M290.7 260l-58.6-76.7c-2.4-3.1-6.2-3.1-8.7 0l-58.6 76.8c-2.4 3.1.9 7.5 4.3 7.5h117.3c6.5 0 6.5-10 0-10H169.1l4.3 7.5 58.7-76.7h-8.7l58.7 76.7c3.9 5 12.6.1 8.6-5z" fill="#fff"/></svg>