<svg xmlns="http://www.w3.org/2000/svg" width="361" height="361"><path d="M287.1 278.4a8 8 0 0 1-8 8h-196a8 8 0 0 1-8-8v-196a8 8 0 0 1 8-8h196a8 8 0 0 1 8 8v196z" fill="none" stroke="#fff" stroke-width="10" stroke-miterlimit="10"/><path d="M257.9 158.1c-.4 3.3-5.4 2.4-7.3 2.4H115c-2.3 0-4.6-.4-4.6-3.4V81.6c0-2.8 2-3.6 4.3-3.6h140.8c3.8 0 2.4 9.2 2.4 10.8V158c0 4.5 7 4.5 7 0V84.8c0-4.4.3-9.4-4-12-2.8-2-5.6-1.8-8.8-1.8H128.9c-6.2 0-16-1.8-21.6 1.7-4.2 2.7-4 7.7-4 12V149c0 8.2-.7 18.4 10.7 18.4h125.4c8.9 0 24 3 25.5-9.3.5-4.5-6.5-4.4-7 0z" fill="#fff"/><path d="M88.8 94.9a4.3 4.3 0 0 1-4.3 4.2h-4.3a4.3 4.3 0 1 1 0-8.5h4.3a4.3 4.3 0 0 1 4.3 4.3z" fill="none" stroke="#fff" stroke-width="10" stroke-miterlimit="10"/><path d="M124.8 103.3h117.6c4.5 0 4.5-7 0-7H124.8c-4.5 0-4.5 7 0 7zm0 48.5h117.6c4.5 0 4.5-7 0-7H124.8c-4.5 0-4.5 7 0 7zm0-24.3h117.6c4.5 0 4.5-7 0-7H124.8c-4.5 0-4.5 7 0 7zm31 139a7.6 7.6 0 0 1-7.4 7.8h-14.5a7.6 7.6 0 0 1-7.4-7.7v-49.3a7.6 7.6 0 0 1 7.4-7.8h14.5a7.6 7.6 0 0 1 7.5 7.8v49.3z" fill="#fff"/><path d="M245 278.4c-.4 5.3-5.5 4.6-9.2 4.6h-113c-5 0-5.2-4.1-5.2-7.8v-62.8c0-4.1-1.2-11 4.7-11.5 7.5-.6 15.2 0 22.7 0h95c5 0 5 4.2 5 7.8v69.7c0 4.5 7 4.5 7 0v-71.3c0-6.2-3.3-12.6-10.3-13.1-2.4-.2-4.8-.1-7.2-.1h-112c-14 0-11.9 15.5-11.9 24.9V265c0 9.3-2 24.9 11.9 24.9h117.7c6.7 0 11.3-5.2 11.8-11.6.4-4.5-6.6-4.4-7 0z" fill="#fff"/></svg>