<svg xmlns="http://www.w3.org/2000/svg" width="361" height="361"><path d="M282 249a34 34 0 0 1-34 33H129c-9 0-17 1-25-1-16-5-24-20-24-35V124c0-10-1-20 5-29a33 33 0 0 1 28-15h136c9 0 18 4 25 11 8 9 8 20 8 31v127c0 6 10 6 10 0V113a44 44 0 0 0-36-43H114a44 44 0 0 0-42 30c-3 8-2 18-2 27v120c0 17 8 32 24 40 9 5 19 5 30 5h122c15 0 29-5 38-18a43 43 0 0 0 8-25c0-7-10-7-10 0z" fill="#fff"/><path d="M171 247a57 57 0 0 0 19-3c5-2 9-4 12-7a25 25 0 0 0 6-10 41 41 0 0 0 2-13c0-6-1-11-3-16a26 26 0 0 0-10-11 56 56 0 0 0-20-8 160 160 0 0 0-31-2 901 901 0 0 0 4-39 501 501 0 0 0 1-34h69v12h-56a620 620 0 0 1-1 11l-1 14a340 340 0 0 1-1 13l-1 10c11 0 21 2 29 4 8 3 15 6 20 10a40 40 0 0 1 12 16 51 51 0 0 1 4 20 50 50 0 0 1-3 18 38 38 0 0 1-10 14c-4 4-10 8-17 10a73 73 0 0 1-24 4 81 81 0 0 1-23-4 79 79 0 0 1-8-2 42 42 0 0 1-5-3l3-12 5 2a68 68 0 0 0 7 2 90 90 0 0 0 21 3z" fill="#fff"/></svg>