<svg xmlns="http://www.w3.org/2000/svg" width="361" height="361"><path d="M282.1 248.8a33.7 33.7 0 0 1-34.4 33.2H128.5c-8.2 0-17 .8-25-1.4-16-4.3-23.8-19.3-23.8-34.8V124.1c0-10.3-.4-19.8 5.3-29.1a33.4 33.4 0 0 1 28-15.3h135.7c9.7 0 18.4 4 25 11.1 8.3 8.9 8.4 20 8.4 31v127c0 6.5 10 6.5 10 0V113a43.6 43.6 0 0 0-36.4-42.8c-7.7-1.2-16-.5-23.7-.5H113.7A44 44 0 0 0 72 99.5c-3 8.4-2.2 18.2-2.2 27V247c0 17 8.4 32.4 23.8 40.4 9.6 5 19.7 4.6 30.1 4.6h122c15.5 0 28.9-5.5 38.4-18.1a42.9 42.9 0 0 0 8-25.1c.2-6.5-9.8-6.4-10 0z" fill="#fff"/><path d="M171.4 246.5a57 57 0 0 0 18.4-2.5c4.9-1.7 8.8-4 11.7-7a25.2 25.2 0 0 0 6.3-10.2 41.3 41.3 0 0 0 1.9-12.6c0-5.9-1-11.2-2.9-15.9a26 26 0 0 0-10-11.8A55.6 55.6 0 0 0 177 179a160 160 0 0 0-31.2-2.5 900.7 900.7 0 0 0 3.7-38.6 500.6 500.6 0 0 0 1.6-34h68.6v12.5h-56a620 620 0 0 1-.8 10.8l-.8 13.5A340 340 0 0 1 161 154l-1.1 10.1c11.3.3 21 1.7 29.2 4.2 8.3 2.5 15 5.9 20.3 10.1a39.5 39.5 0 0 1 11.7 15.4 50.6 50.6 0 0 1 3.9 20 50.2 50.2 0 0 1-3.2 18.1 38.3 38.3 0 0 1-9.8 14.5c-4.4 4.1-10 7.4-16.7 9.7a73 73 0 0 1-24 3.5 81.3 81.3 0 0 1-23.8-3.3 79.3 79.3 0 0 1-8-2.6 41.7 41.7 0 0 1-5-2.2l3.8-12.8c.9.6 2.4 1.3 4.5 2.2a67.6 67.6 0 0 0 7.5 2.5 90.1 90.1 0 0 0 21 3z" fill="#fff"/></svg>