<svg xmlns="http://www.w3.org/2000/svg" width="361" height="361"><path d="M223.1 282h-69.3l1.3 9.7 16.7-3.2 11.7-2.2 4.3-.8c2-.4 2.2.3-1-.3l35 6.5c6.3 1.2 9-8.4 2.6-9.6l-35-6.6c-2-.4-4.4.4-6.4.8l-12 2.2-18.6 3.6c-5.6 1-4.1 9.8 1.4 9.8H223c6.4 0 6.4-10 0-10zM170.4 83.8L133.1 214v.1c-1.9 6.3 7.8 8.9 9.6 2.7L180 86.7v-.2c1.8-6.2-7.8-8.8-9.6-2.6z" fill="#fff"/><path d="M194.7 280.3a7083648.9 7083648.9 0 0 0-24.5-147.9c-1-6.3-10.7-3.6-9.7 2.7l23.7 142.8.9 5c1 6.4 10.7 3.7 9.6-2.6z" fill="#fff"/><path d="M146 192.5l23.2-37.6c1-1.7-1.5-3.2-2.5-1.5L143.4 191c-1 1.7 1.5 3.2 2.6 1.5zm27.2-99.8l28.3 111.4c1.1 4.4 7.9 2.6 6.7-1.8L180 90.9c-1.1-4.4-7.9-2.6-6.8 1.8z" fill="#fff"/><path d="M174 92.4L215 200c1.6 4.2 8.3 2.4 6.8-1.9l-41-107.6c-1.6-4.1-8.3-2.3-6.8 1.9z" fill="#fff"/><path d="M173 91.8l13.6 113.4c.6 4.4 7.6 4.5 7 0L180.1 91.8c-.5-4.4-7.5-4.5-7 0z" fill="#fff"/><path d="M174.4 93.2l54.9 102c2.1 4 8.2.5 6-3.5a5082500 5082500 0 0 1-54.9-102c-2-4-8.1-.4-6 3.5z" fill="#fff"/><path d="M190.7 206.7c8.7-.1 17.3-2.2 25.5-4.9 5.3-1.7 13.2-3.9 16.8-8.4 2.9-3.4-2-8.4-5-5-2.8 3.6-9.5 5.2-13.6 6.7a77.4 77.4 0 0 1-23.7 4.6c-4.5 0-4.5 7 0 7z" fill="#fff"/></svg>