<svg xmlns="http://www.w3.org/2000/svg" width="361" height="361"><path d="M179 71v42c0 2 3 2 3 0V71c0-2-3-2-3 0zm0 83v51c0 2 3 2 3 0v-51c0-2-3-2-3 0zm0 93v43c0 2 3 2 3 0v-43c0-2-3-2-3 0z" fill="#fff"/><g fill="#fff"><path d="M79 289c14-14 27-29 43-39 10-6 20-10 30-13 13-4 26-5 40-7 20-3 40-10 57-21l25-23 2-3h-4c-2-1-3-4-2 0 2 10 3 29 16 30 7 0 7-10 0-10-6-1-2-39-17-27l-6 6a113 113 0 0 1-11 12 116 116 0 0 1-48 23c-13 4-27 4-40 7-12 2-23 5-34 10-23 11-40 30-58 48-4 5 3 12 7 7z"/><path d="M76 280l-3 2a6 6 0 0 0 0 8 6 6 0 0 0 8 0l3-3a6 6 0 0 0 0-7 6 6 0 0 0-8 0zm210-75a5359 5359 0 0 1-4 0 4 4 0 0 0-4 4 4 4 0 0 0 4 4h4a4 4 0 0 0 5-4 4 4 0 0 0-5-4z"/></g><g fill="#fff"><path d="M80 195c14-14 27-29 43-39 9-6 19-10 30-13 13-4 26-5 40-7 20-3 40-10 57-22a123 123 0 0 0 25-23l2-3c-1 1-2 2-4 1s-2-4-2 0c3 10 3 29 16 30 7 0 7-10 0-10-6-1-2-40-17-28l-6 7a113 113 0 0 1-11 12 116 116 0 0 1-48 23c-13 4-27 4-40 7a141 141 0 0 0-34 10c-23 11-40 30-58 48-4 4 3 12 7 7z"/><path d="M77 185l-3 3a6 6 0 0 0 0 8 6 6 0 0 0 8 0l3-3a6 6 0 0 0 0-8 6 6 0 0 0-8 0zm210-74h-4a4 4 0 0 0-4 4 4 4 0 0 0 4 4h4a4 4 0 0 0 5-4 4 4 0 0 0-5-5z"/></g></svg>