<svg xmlns="http://www.w3.org/2000/svg" width="361" height="361"><path d="M201 251.5c.3-.9 1.4-.7.2-.7H187c.7 0 .8 2.8.8-.2v-20.8c0 1.7-1.8 1.5-.4 1.5h14.2c-.7 0-.8-2.8-.8.2v20.9c0 4.5 7 4.5 7 0v-11.8c0-4 1-9-.4-12.8-1.7-4.9-9.6-3.5-13.6-3.5-4.8 0-11-1.1-13 4.5-1.2 3.5 0 9 0 12.7 0 4-1 9 .4 12.8 1.8 4.9 9.7 3.5 13.6 3.5 4.8 0 11 1.1 13-4.5 1.4-4.2-5.3-6-6.8-1.8z" fill="#fff"/><path d="M228.7 250.8c0-.1 1.5 0-.2 0h-13.7c-.8 0 .7 1.5.7.6v-30.5c0 1-1.7.9.2.9h13.7c.8 0-.8-1.6-.8-.6v30.5c0 4.5 7 4.5 7 0v-30.3c0-6.8-6-6.6-11-6.6-5.6 0-14.1-1.9-16 5-1 4.3 0 9.7 0 14v17.3c0 6.8 6 6.7 11 6.7 5.6 0 14 1.8 15.9-5.1 1.1-4.4-5.6-6.3-6.8-2z" fill="#fff"/><path d="M256.5 250.8h.5-14c-1.3 0 .2 1.1.2.6v-40.8c0 1.2-1.3.9 1 .9H257c.5 0-.6-1.6-.6-.5v40.7c0 4.5 7 4.5 7 0v-37.1c0-4.9-.4-10.1-6.8-10.1h-10c-2.9 0-6.2-.5-8.5 1.8-3.1 3.1-1.8 10.4-1.8 14.3v23.5c0 3.9-1.3 12.2 4.2 13.3 5.4 1 11.3.3 16.8.3 3 0 5.4-2.2 6-5 1-4.5-5.8-6.4-6.8-2zm27.8 0c0-.2 1.3 0 0 0H272c-2.3 0-.8-.1-.8.7v-53.4c0 .5-1.6.8.2.8H284c1.8 0 .3.2.3-1v53.8c0 4.6 7 4.6 7 0v-53c0-7.3-6.8-6.8-12.1-6.8-5.1 0-15-1.6-15 6.2v53.4c0 6.5 6.5 6.2 11.1 6.2 5.5 0 13.9 1.8 15.8-5 1.2-4.4-5.5-6.2-6.7-1.9zm-82.5 40.6l-1.6-6.3h-9l-1.5 6.3h-7a234.3 234.3 0 0 1 4.8-14.6l4.8-12.5h7.3a327.8 327.8 0 0 1 4.8 12.6c1.6 4.5 3.2 9.3 4.7 14.5h-7.3zm-6-21.9a176.4 176.4 0 0 0-1.9 5.6l-.8 2.7a91.7 91.7 0 0 0-.6 2.8h6.6l-.7-2.8-.7-2.7a134 134 0 0 0-2-5.6zm27.4 22.4c-2.2 0-4-.2-5.5-.7a8.5 8.5 0 0 1-3.6-2c-.8-1-1.5-2-1.8-3.3a15.6 15.6 0 0 1-.6-4.3v-17.3h6.8v17c0 1 .1 2 .3 2.8.1.8.4 1.4.7 1.8.3.5.8.8 1.5 1s1.4.4 2.3.4c1 0 1.8-.1 2.4-.3a3 3 0 0 0 1.5-1c.3-.6.6-1.2.7-2 .2-.7.2-1.7.2-2.8v-17h6.8v17.4c0 1.5-.2 3-.5 4.3a7.4 7.4 0 0 1-2 3.2c-.9 1-2.1 1.6-3.6 2.1s-3.4.7-5.6.7zm40-27.6v4.4h-9v22.7h-6.8v-22.7h-9v-4.4h24.7zm2.8 13.5c0-4.7 1-8.2 3.2-10.6 2.2-2.4 5.2-3.5 9-3.5 4 0 7 1.1 9.1 3.5 2.1 2.4 3.2 6 3.2 10.6s-1 8.2-3.2 10.6a11.5 11.5 0 0 1-9 3.6c-4 0-7-1.2-9.2-3.6-2-2.4-3.1-6-3.1-10.6zm6.9 0l.1 3.7c.2 1.1.4 2.1.8 3a4.9 4.9 0 0 0 1.6 2c.7.5 1.7.8 2.8.8 1.2 0 2-.3 2.8-.8a4.8 4.8 0 0 0 1.7-2c.3-.9.6-1.9.7-3l.2-3.7-.2-3.7a10 10 0 0 0-.7-3 4.9 4.9 0 0 0-1.7-2c-.7-.5-1.6-.8-2.8-.8s-2 .3-2.8.8c-.7.5-1.2 1.2-1.6 2-.4.9-.6 1.9-.8 3a33 33 0 0 0-.2 3.7z" fill="#fff"/><path d="M239 188a5.3 5.3 0 0 1-5.3 5.3H86a5.3 5.3 0 0 1-5.3-5.3V93a5.3 5.3 0 0 1 5.3-5.3h147.8a5.3 5.3 0 0 1 5.3 5.2v95z" fill="none" stroke="#fff" stroke-width="10" stroke-miterlimit="10"/><path d="M155.4 145.3h9.4c6.5 0 6.5-10 0-10h-9.4c-6.5 0-6.5 10 0 10z" fill="#fff"/><path fill="none" stroke="#fff" stroke-width="10" stroke-miterlimit="10" d="M160 88v102.7"/><path d="M244.8 88.8c0 .4-2.6.7-5.7.7H80.8c-3.1 0-5.7-.3-5.7-.7V75.5c0-.4 2.6-.7 5.7-.7h158.3c3.1 0 5.7.3 5.7.7v13.3z" fill="#fff" stroke="#fff" stroke-width="10" stroke-miterlimit="10"/><path d="M75.4 103.2H245c4.5 0 4.5-7 0-7H75.4c-4.5 0-4.5 7 0 7zm0 10.4H245c4.5 0 4.5-7 0-7H75.4c-4.5 0-4.5 7 0 7zm0 10.4H245c4.5 0 4.5-7 0-7H75.4c-4.5 0-4.5 7 0 7zm0 10.4H245c4.5 0 4.5-7 0-7H75.4c-4.5 0-4.5 7 0 7z" fill="#fff"/></svg>