<svg xmlns="http://www.w3.org/2000/svg" width="361" height="361"><path d="M226 156.5a79.4 79.4 0 0 1 34.6-76.8c5.3-3.6.3-12.3-5-8.7a89.2 89.2 0 0 0-39.5 85.5c.8 6.3 10.8 6.4 10 0z" fill="#fff"/><path d="M216 154.8l.2 1.6.2 1.4a5.5 5.5 0 0 0 9 2.4c1-.9 1.8-2.5 1.7-3.8l-.2-1.7-.2-1.4a5.5 5.5 0 0 0-9.1-2.4c-1 1-1.8 2.5-1.6 3.9zm38.4-82.9l-1.3 1a6 6 0 0 0-1.6 4 5.5 5.5 0 0 0 1.6 3.8 5.5 5.5 0 0 0 3.9 1.6l1.4-.2a5.4 5.4 0 0 0 2.4-1.4l1.3-1c1-1 1.6-2.6 1.6-3.9a5.5 5.5 0 0 0-1.6-3.9 5.5 5.5 0 0 0-3.9-1.6l-1.4.2a5.5 5.5 0 0 0-2.4 1.4z" fill="#fff"/><g fill="#fff"><path d="M226 221.1c-3.8-30.2 9-60 34.6-76.9 5.3-3.5.3-12.2-5-8.6a89.2 89.2 0 0 0-39.5 85.5c.8 6.3 10.8 6.4 10 0z"/><path d="M216 219.3l.2 1.7.2 1.4a5.5 5.5 0 0 0 1.4 2.4 5.5 5.5 0 0 0 7.7 0c1-1 1.7-2.5 1.6-3.9l-.2-1.6-.2-1.4a5.5 5.5 0 0 0-1.4-2.4 5.5 5.5 0 0 0-7.7 0c-1 .9-1.8 2.5-1.6 3.8zm38.4-82.8l-1.3 1a6 6 0 0 0-1.6 4 5.5 5.5 0 0 0 1.6 3.8 5.5 5.5 0 0 0 3.9 1.6l1.4-.2a5.4 5.4 0 0 0 2.4-1.4l1.3-1a6 6 0 0 0 1.6-4 5.5 5.5 0 0 0-1.6-3.8 5.5 5.5 0 0 0-3.9-1.6l-1.4.2a5.4 5.4 0 0 0-2.4 1.4z"/></g><g fill="#fff"><path d="M226 285.7c-3.8-30.2 9-60 34.6-76.9 5.3-3.5.3-12.2-5-8.6a89.2 89.2 0 0 0-39.5 85.5c.8 6.3 10.8 6.4 10 0z"/><path d="M216 283.9l.2 1.6.2 1.5a5.5 5.5 0 0 0 1.4 2.4 5.5 5.5 0 0 0 7.7 0c1-1 1.7-2.5 1.6-3.9l-.2-1.6-.2-1.5a5.5 5.5 0 0 0-1.4-2.4 5.5 5.5 0 0 0-7.7 0c-1 1-1.8 2.5-1.6 3.9zm38.4-82.8l-1.3 1c-1 .9-1.6 2.6-1.6 3.9a5.5 5.5 0 0 0 5.5 5.4l1.4-.2a5.5 5.5 0 0 0 2.4-1.4l1.3-1c1-.9 1.6-2.5 1.6-3.9a5.5 5.5 0 0 0-5.5-5.4l-1.4.2a5.4 5.4 0 0 0-2.4 1.4z"/></g><path d="M231.9 119.8v27.4c0 2 3 2 3 0v-27.4c0-2-3-2-3 0zm0 68.5V212c0 2 3 2 3 0v-23.6c0-2-3-2-3 0zm0 66.8v34.1c0 2 3 2 3 0v-34.1c0-2-3-2-3 0zm0-184v10.4c0 2 3 2 3 0V71.2c0-2-3-2-3 0z" fill="#fff"/><path d="M90.7 118.6a4 4 0 0 0 4 4h23.4a4 4 0 0 0 4.1-4V95.2a4 4 0 0 0-4-4H94.7a4 4 0 0 0-4 4v23.4z" fill="none" stroke="#fff" stroke-width="10" stroke-miterlimit="10"/><path d="M137.8 70.8l-7.2 7.2c-2 1.9-2 5.1 0 7s5.1 2 7 0l7.3-7.2c1.9-1.9 1.9-5.1 0-7s-5.2-2-7.1 0zm37.9 30.9h-33.5c-6.4 0-6.4 10 0 10h33.5c6.5 0 6.5-10 0-10zm-97.3 41.6l6-6a5 5 0 0 0-7-7l-6.1 6c-2 1.9-2 5.1 0 7s5.1 2 7 0zm33.6 32.1V142c0-6.4-10-6.4-10 0v33.5c0 6.5 10 6.5 10 0zm48.3-21.4l-23.7-23.7c-4.5-4.6-11.6 2.5-7 7l23.7 23.8c4.5 4.5 11.6-2.6 7-7.1z" fill="#fff"/></svg>