<svg xmlns="http://www.w3.org/2000/svg" width="361" height="361"><path d="M239 188a5 5 0 0 1-5 5H86a5 5 0 0 1-5-5V93a5 5 0 0 1 5-5h148a5 5 0 0 1 5 5v95z" fill="none" stroke="#fff" stroke-width="10" stroke-miterlimit="10"/><path d="M155 145h10c6 0 6-10 0-10h-10c-6 0-6 10 0 10z" fill="#fff"/><path fill="none" stroke="#fff" stroke-width="10" stroke-miterlimit="10" d="M160 88v103"/><path d="M245 89H75V76l6-1h164v14z" fill="#fff" stroke="#fff" stroke-width="10" stroke-miterlimit="10"/><path d="M75 103h170c5 0 5-7 0-7H75c-4 0-4 7 0 7zm0 11h170c5 0 5-7 0-7H75c-4 0-4 7 0 7zm0 10h170c5 0 5-7 0-7H75c-4 0-4 7 0 7zm0 10h170c5 0 5-7 0-7H75c-4 0-4 7 0 7zm132 155l42-72h-9a4632061 4632061 0 0 0 42 72l4-7h-83c-6 0-6 10 0 10h83a5 5 0 0 0 5-8l-42-72a5 5 0 0 0-9 0l-41 72c-4 6 5 11 8 5z" fill="#fff"/><path d="M250 270l-2 4a5 5 0 0 1-6 0 4 4 0 0 1-2-4l2-3a5 5 0 0 1 6 0l1 3zm-1-22a88 88 0 0 1-1 15h-6l-1-7a81 81 0 0 1 0-7v-9h8v9z" fill="#fff"/></svg>