<svg xmlns="http://www.w3.org/2000/svg" width="361" height="361"><path d="M239 188a5 5 0 0 1-5 5H86a5 5 0 0 1-5-5V93a5 5 0 0 1 5-5h148a5 5 0 0 1 5 5v95z" fill="none" stroke="#fff" stroke-width="10" stroke-miterlimit="10"/><path d="M155 145h10c6 0 6-10 0-10h-10c-6 0-6 10 0 10z" fill="#fff"/><path fill="none" stroke="#fff" stroke-width="10" stroke-miterlimit="10" d="M160 88v103"/><path d="M245 89H75V76l6-1h164v14z" fill="#fff" stroke="#fff" stroke-width="10" stroke-miterlimit="10"/><path d="M75 103h170c5 0 5-7 0-7H75c-4 0-4 7 0 7zm0 11h170c5 0 5-7 0-7H75c-4 0-4 7 0 7zm0 10h170c5 0 5-7 0-7H75c-4 0-4 7 0 7zm0 10h170c5 0 5-7 0-7H75c-4 0-4 7 0 7zm153 109h53c1 0 0-2 0 0v41h-53v1-43c0-5-7-5-7 0v37c0 5-1 11 6 12h53c5 0 7-3 7-7v-42c0-8-11-6-16-6h-31c-6 0-17-2-18 5-1 4 5 6 6 2z" fill="#fff"/><path d="M226 280h30c4 0 4-7 0-7h-30c-5 0-5 7 0 7zm1-12h29c4 0 4-7 0-7h-29c-4 0-4 7 0 7zm0-12h29c4 0 4-7 0-7h-29c-4 0-4 7 0 7zm11-19v-13c0-1 0-1 0 0l1-2a39 39 0 0 1 4-5h-1 23c2 0 1 1-1-1l4 5c1 1 2 4 2 2v14c0 7 10 7 10 0v-11c0-5-1-7-4-11-2-3-6-8-10-8h-24c-4 0-7 4-9 7-3 4-5 7-5 11v12c0 7 10 7 10 0z" fill="#fff"/></svg>