<svg xmlns="http://www.w3.org/2000/svg" width="361" height="361"><path d="M225.5 106.2l58.3 58.3c4.6 4.6 11.7-2.5 7.1-7L232.6 99c-4.6-4.5-11.6 2.5-7 7.1zm-30.1 0l58.3 58.3c4.5 4.6 11.6-2.5 7-7L202.4 99c-4.5-4.5-11.6 2.5-7 7.1zm-29.7 0l58.3 58.3c4.6 4.6 11.6-2.5 7-7L172.9 99c-4.6-4.5-11.7 2.5-7.1 7.1zm-30.2 0l58.3 58.3c4.6 4.6 11.6-2.5 7-7L142.7 99c-4.6-4.5-11.7 2.5-7 7.1zm-32.8 0l58.3 58.3c4.6 4.6 11.7-2.5 7.1-7L109.8 99c-4.5-4.5-11.6 2.5-7 7.1zm-31.1 0l58.3 58.3c4.5 4.6 11.6-2.5 7-7L78.6 99c-4.5-4.5-11.6 2.5-7 7.1z" fill="#fff"/><path d="M282.4 161.5v14c0 6.4 10 6.4 10 0v-14c0-6.5-10-6.5-10 0zm-30.2 0v14c0 6.4 10 6.4 10 0v-14c0-6.5-10-6.5-10 0zm-29.7 0v14c0 6.4 10 6.4 10 0v-14c0-6.5-10-6.5-10 0zm-30.2 0v14c0 6.4 10 6.4 10 0v-14c0-6.5-10-6.5-10 0zm-32.7 0v14c0 6.4 10 6.4 10 0v-14c0-6.5-10-6.5-10 0zm-31.2 0v14c0 6.4 10 6.4 10 0v-14c0-6.5-10-6.5-10 0z" fill="#fff"/><path d="M264 181v77.5a6.2 6.2 0 0 1-6.2 6.3H83.4a6.2 6.2 0 0 1-6.2-6.2V146.2a6.2 6.2 0 0 1 6.2-6.2h29.1" fill="none" stroke="#fff" stroke-width="10" stroke-miterlimit="10"/><path d="M165 199.4h11.1c6.5 0 6.5-10 0-10h-11c-6.5 0-6.5 10 0 10z" fill="#fff"/><path fill="none" stroke="#fff" stroke-width="10" stroke-miterlimit="10" d="M170.6 181.3v80.3"/></svg>