<svg xmlns="http://www.w3.org/2000/svg" width="361" height="361"><path d="M178.8 70.7v59.5c0 1.9 3 1.9 3 0V70.7c0-2-3-2-3 0zm.2 88.4v40.6c0 2 3 2 3 0v-40.6c0-2-3-2-3 0zm0 71.6v59c0 1.9 3 1.9 3 0v-59c0-2-3-2-3 0zm-9.5-82.8l19.7 8.2c2.5 1 5.5-1.1 6.1-3.5.8-2.9-1-5-3.5-6.1l-19.7-8.2c-2.5-1.1-5.5 1-6.1 3.4-.8 3 1 5.1 3.5 6.2z" fill="#fff"/><path d="M192.4 156.4l66.3-13.3c6.4-1.3 3.7-11-2.6-9.7l-66.3 13.3c-6.4 1.3-3.7 11 2.6 9.7zm-86.6 4.8l66.3-13.3c6.4-1.3 3.7-11-2.6-9.7L103 151.7c-6.3 1.2-3.6 10.9 2.7 9.6z" fill="#fff"/><path d="M106.1 151.6l-2.5.4a5.3 5.3 0 0 0-3.3 2.5 5.5 5.5 0 0 0-.5 4.2 5.5 5.5 0 0 0 2.5 3.3c1.3.8 2.7.8 4.2.6l2.5-.5a5.3 5.3 0 0 0 3.3-2.5 5.5 5.5 0 0 0 .5-4.2 5.5 5.5 0 0 0-2.5-3.3 5.7 5.7 0 0 0-4.2-.5zm149.7-18.2l-2.5.6a5.3 5.3 0 0 0-3.3 2.5 5.5 5.5 0 0 0-.5 4.2 5.5 5.5 0 0 0 2.5 3.2 5.7 5.7 0 0 0 4.2.6l2.5-.5a5.3 5.3 0 0 0 3.2-2.5 5.5 5.5 0 0 0 .6-4.3 5.5 5.5 0 0 0-2.5-3.2 5.7 5.7 0 0 0-4.2-.6zM169 214.5l19.7 8.2c2.5 1 5.5-1 6.2-3.5.8-2.8-1-5-3.5-6.1l-19.7-8.2c-2.6-1-5.5 1-6.2 3.5-.8 2.8 1 5 3.5 6.1z" fill="#fff"/><path d="M192 223l66.4-13.3c6.3-1.3 3.6-11-2.7-9.7l-66.3 13.3c-6.3 1.3-3.6 11 2.6 9.7zm-86.6 4.8l66.4-13.3c6.3-1.3 3.6-10.9-2.7-9.6l-66.3 13.3c-6.3 1.2-3.7 10.9 2.6 9.6z" fill="#fff"/><path d="M105.7 218.2l-2.5.5a5.3 5.3 0 0 0-3.2 2.5 5.5 5.5 0 0 0-.6 4.2 5.5 5.5 0 0 0 2.5 3.2c1.4.8 2.7.8 4.2.6l2.5-.5a5.3 5.3 0 0 0 3.3-2.5 5.5 5.5 0 0 0 .5-4.2 5.5 5.5 0 0 0-2.5-3.2 5.8 5.8 0 0 0-4.2-.6zm149.7-18.1l-2.5.5a5.3 5.3 0 0 0-3.3 2.5 5.5 5.5 0 0 0-.5 4.2 5.5 5.5 0 0 0 2.5 3.2 5.7 5.7 0 0 0 4.2.6l2.5-.5a5.3 5.3 0 0 0 3.3-2.5 5.5 5.5 0 0 0 .5-4.2 5.5 5.5 0 0 0-2.5-3.3 5.7 5.7 0 0 0-4.2-.5z" fill="#fff"/></svg>