<svg xmlns="http://www.w3.org/2000/svg" width="361" height="361"><path d="M179 71v42c0 2 3 2 3 0V71c0-2-3-2-3 0zm0 83v41c0 2 3 2 3 0v-41c0-2-3-2-3 0zm0 83v53c0 2 3 2 3 0v-53c0-2-3-2-3 0z" fill="#fff"/><path d="M112 223c15-7 29-14 46-15 11 0 22 3 32 5a99 99 0 0 0 27 2 76 76 0 0 0 32-10l3-2c1-1 0 0 0 0-2 1-4 0-5-3 0-1 0-2 0 0-1 7-5 19 3 23 6 3 11-6 5-9l1-12v-6c-2-4-6-3-9-1-9 5-18 9-28 10-22 2-41-7-62-7-18 1-34 9-50 17-6 3-1 11 5 8z" fill="#fff"/><path d="M109 214l-2 1a5 5 0 0 0-3 3 6 6 0 0 0 1 5 6 6 0 0 0 3 2h4l3-2c1 0 2-1 2-3a6 6 0 0 0 0-4 6 6 0 0 0-4-2 6 6 0 0 0-4 0zm145 1l-3-1-3 1a4 4 0 0 0-2 2 4 4 0 0 0 1 3 5 5 0 0 0 2 2l2 1h4a4 4 0 0 0 2-3 4 4 0 0 0-1-3 5 5 0 0 0-2-2z" fill="#fff"/><g fill="#fff"><path d="M111 152c15-8 30-15 47-15 11-1 21 2 32 4a99 99 0 0 0 27 2 76 76 0 0 0 32-10l3-1v-1c-2 1-4 0-5-3-1-1 0-1 0 0-1 7-5 19 3 23 6 3 11-5 5-8-1-1 1-10 1-12v-7c-2-3-7-2-10-1-9 5-17 9-28 10-21 2-41-7-62-6-18 0-34 8-50 16-5 3 0 12 5 9z"/><path d="M109 143l-2 1c-2 0-3 2-3 3a6 6 0 0 0 1 4 6 6 0 0 0 3 3 6 6 0 0 0 4-1l2-1 3-3a6 6 0 0 0-1-5 6 6 0 0 0-3-2 6 6 0 0 0-4 1zm144 1l-2-1a4 4 0 0 0-3 0 4 4 0 0 0-2 3 4 4 0 0 0 0 3 5 5 0 0 0 3 2l2 1 3-1a4 4 0 0 0 2-2 4 4 0 0 0 0-4 5 5 0 0 0-3-1z"/></g></svg>