<svg xmlns="http://www.w3.org/2000/svg" width="361" height="361"><path d="M238.8 188a5.3 5.3 0 0 1-5.2 5.3H85.7a5.3 5.3 0 0 1-5.2-5.3V93a5.3 5.3 0 0 1 5.2-5.3h147.9a5.3 5.3 0 0 1 5.3 5.2v95z" fill="none" stroke="#fff" stroke-width="10" stroke-miterlimit="10"/><path d="M155.2 145.3h9.4c6.5 0 6.5-10 0-10h-9.4c-6.4 0-6.4 10 0 10z" fill="#fff"/><path fill="none" stroke="#fff" stroke-width="10" stroke-miterlimit="10" d="M159.8 88v102.7"/><path d="M244.6 88.8c0 .4-2.5.7-5.7.7H80.6c-3 0-5.6-.3-5.6-.7V75.5c0-.4 2.5-.7 5.6-.7H239c3.2 0 5.7.3 5.7.7v13.3z" fill="#fff" stroke="#fff" stroke-width="10" stroke-miterlimit="10"/><path d="M75.3 103.2h169.4c4.5 0 4.5-7 0-7H75.3c-4.6 0-4.6 7 0 7zm0 10.4h169.4c4.5 0 4.5-7 0-7H75.3c-4.6 0-4.6 7 0 7zm0 10.4h169.4c4.5 0 4.5-7 0-7H75.3c-4.6 0-4.6 7 0 7zm0 10.4h169.4c4.5 0 4.5-7 0-7H75.3c-4.6 0-4.6 7 0 7zm0 10.2h169.5c4.5 0 4.5-7 0-7H75.3c-4.5 0-4.5 7 0 7zm0 10.4h169.5c4.5 0 4.5-7 0-7H75.3c-4.5 0-4.5 7 0 7z" fill="#fff"/><path d="M287.2 284.4a2.4 2.4 0 0 1-2.4 2.3h-58a2.4 2.4 0 0 1-2.4-2.3v-58.1a2.4 2.4 0 0 1 2.4-2.4h58a2.4 2.4 0 0 1 2.4 2.4v58z" fill="none" stroke="#fff" stroke-width="10" stroke-miterlimit="10"/></svg>