<svg xmlns="http://www.w3.org/2000/svg" width="361" height="361"><path d="M239 188a5 5 0 0 1-5 5H86a5 5 0 0 1-6-5V93a5 5 0 0 1 6-5h148a5 5 0 0 1 5 5v95z" fill="none" stroke="#fff" stroke-width="10" stroke-miterlimit="10"/><path d="M155 145h10c6 0 6-10 0-10h-10c-6 0-6 10 0 10z" fill="#fff"/><path fill="none" stroke="#fff" stroke-width="10" stroke-miterlimit="10" d="M160 88v103"/><path d="M245 89H75V76l6-1h164v14z" fill="#fff" stroke="#fff" stroke-width="10" stroke-miterlimit="10"/><path d="M75 103h170c4 0 4-7 0-7H75c-4 0-4 7 0 7zm0 11h170c4 0 4-7 0-7H75c-4 0-4 7 0 7zm0 10h170c4 0 4-7 0-7H75c-4 0-4 7 0 7zm0 10h170c4 0 4-7 0-7H75c-4 0-4 7 0 7zm0 11h170c4 0 4-7 0-7H75c-4 0-4 7 0 7zm0 10h170c4 0 4-7 0-7H75c-4 0-4 7 0 7z" fill="#fff"/><path d="M287 284a2 2 0 0 1-2 3h-58a2 2 0 0 1-3-3v-58a2 2 0 0 1 3-2h58a2 2 0 0 1 2 2v58z" fill="none" stroke="#fff" stroke-width="10" stroke-miterlimit="10"/></svg>