<svg xmlns="http://www.w3.org/2000/svg" width="361" height="361"><path d="M207 129v31c0 2 3 2 3 0v-31c0-2-3-2-3 0zm0 61v37c0 2 3 2 3 0v-37c0-2-3-2-3 0zm0 68v31c0 2 3 2 3 0v-31c0-2-3-2-3 0z" fill="#fff"/><path d="M136 290c13-14 25-28 43-35 11-5 23-6 35-8a120 120 0 0 0 32-8 84 84 0 0 0 31-23l2-3c1-1 2-2 0-1-1 1-5 0-6-2 3 8 2 23 13 24 7 1 7-9 1-10l-1-1-1-4-2-10-3-6c-4-2-7 1-9 4a82 82 0 0 1-29 23c-22 10-46 7-68 16-18 8-32 22-45 37-5 4 2 11 7 7z" fill="#fff"/><path d="M132 281l-2 2a5 5 0 0 0 0 7 5 5 0 0 0 8 0l2-2a5 5 0 0 0 0-7 5 5 0 0 0-8 0zm155-54h-3a4 4 0 0 0-5 4 4 4 0 0 0 5 4h3a4 4 0 0 0 4-4 4 4 0 0 0-5-4zm-150-6c12-14 25-28 43-35 11-5 23-6 35-8a120 120 0 0 0 31-8 84 84 0 0 0 31-23l3-4s2-1 0 0-6 0-6-2c2 8 1 23 13 24 7 1 7-9 0-10v-1l-1-4-2-10-3-6c-4-2-7 1-9 4a82 82 0 0 1-30 22c-21 10-46 8-68 17-18 8-31 22-45 36-4 5 3 12 7 8z" fill="#fff"/><path d="M133 212l-2 2a5 5 0 0 0 0 7 5 5 0 0 0 7 0l3-2a5 5 0 0 0 0-7 5 5 0 0 0-8 0zm154-54h-3a4 4 0 0 0-4 4 4 4 0 0 0 4 4h3a4 4 0 0 0 4-4 4 4 0 0 0-4-4z" fill="#fff"/><path d="M91 119a4 4 0 0 0 4 4h23a4 4 0 0 0 4-4V96a4 4 0 0 0-4-4H95a4 4 0 0 0-4 4v23z" fill="none" stroke="#fff" stroke-width="10" stroke-miterlimit="10"/><path d="M138 71l-7 7c-2 2-2 5 0 7s5 2 7 0l7-7c2-2 2-5 0-7s-5-2-7 0zm38 31h-34c-6 0-6 10 0 10h34c6 0 6-10 0-10zm-98 42l6-6c2-2 2-5 0-7s-5-2-7 0l-6 6c-2 2-2 5 0 7s6 2 7 0zm34 32v-34c0-6-10-6-10 0v34c0 6 10 6 10 0zm48-22l-23-23c-5-5-12 2-7 7l23 23c5 5 12-2 7-7z" fill="#fff"/></svg>