<svg xmlns="http://www.w3.org/2000/svg" width="361" height="361"><path d="M179 71v42c0 2 3 2 3 0V71c0-2-3-2-3 0zm0 83v41c0 2 3 2 3 0v-41c0-2-3-2-3 0zm0 83v53c0 2 3 2 3 0v-53c0-2-3-2-3 0z" fill="#fff"/><path d="M139 269c6-15 11-29 22-40a92 92 0 0 1 24-17c9-5 17-11 24-18a76 76 0 0 0 20-30l1-4h-7c4 6 9 18 19 16 6-2 3-12-3-10l-3-4-5-7a6 6 0 0 0-5-4c-4 0-5 4-6 7a71 71 0 0 1-17 28c-7 7-16 13-25 18a98 98 0 0 0-25 19c-12 12-18 28-24 43-2 6 8 9 10 3z" fill="#fff"/><path d="M131 263l-1 2v1a6 6 0 0 0 0 3 6 6 0 0 0 2 3 6 6 0 0 0 5 1l3-3 1-2v-4a6 6 0 0 0-2-4 6 6 0 0 0-4 0 6 6 0 0 0-4 3zm109-95h-3l-2 2a4 4 0 0 0-1 4 4 4 0 0 0 2 2 4 4 0 0 0 4 1l2-1a5 5 0 0 0 2-2l1-4a4 4 0 0 0-2-2 4 4 0 0 0-3-1z" fill="#fff"/><g fill="#fff"><path d="M139 197c5-14 11-28 22-40a92 92 0 0 1 23-17 111 111 0 0 0 25-18 76 76 0 0 0 19-30l2-4c0-1 0 0 0 0-1 1-6 2-8 0 5 6 10 19 20 16 6-2 3-11-3-10l-3-4-5-7c-1-2-3-3-5-3-4 0-5 3-6 6a71 71 0 0 1-17 28c-7 8-16 13-25 18a98 98 0 0 0-25 19c-12 13-18 28-24 44-2 6 7 8 10 2z"/><path d="M131 191l-1 2-1 2a6 6 0 0 0 1 3 6 6 0 0 0 2 3 6 6 0 0 0 4 0l3-2 2-2v-5a6 6 0 0 0-2-3 6 6 0 0 0-5 0l-3 2zm108-95l-2 1-3 2a4 4 0 0 0 0 3 4 4 0 0 0 2 3 4 4 0 0 0 3 0l3-1a5 5 0 0 0 2-2v-3a4 4 0 0 0-1-3h-4z"/></g></svg>