<svg xmlns="http://www.w3.org/2000/svg" width="361" height="361"><path d="M179 71v59c0 2 3 2 3 0V71c0-2-3-2-3 0zm0 88v41c0 2 3 2 3 0v-41c0-2-3-2-3 0zm0 72v59c0 2 3 2 3 0v-59c0-2-3-2-3 0zm-5-73l18-12c5-4 0-12-5-9l-18 12c-5 4 0 12 5 9z" fill="#fff"/><path d="M195 143l26-63c2-6-7-8-10-3l-26 63c-2 6 7 9 10 3zm-45 74l26-62c3-6-7-9-9-3l-26 63c-3 6 7 8 9 2z" fill="#fff"/><path d="M143 211l-1 2-1 1a6 6 0 0 0 0 3 6 6 0 0 0 3 4 6 6 0 0 0 4 0l3-2 1-3 1-1v-3a6 6 0 0 0-3-3 6 6 0 0 0-4-1l-3 3zm68-133l-1 2 1 4a6 6 0 0 0 3 3 6 6 0 0 0 4-1h1a5 5 0 0 0 1-3l1-2v-4a6 6 0 0 0-3-3 6 6 0 0 0-5 1h-1a5 5 0 0 0-1 3zm-37 146l17-11c6-4 1-13-4-9l-18 12c-6 3-1 12 5 8z" fill="#fff"/><path d="M194 209l26-62c3-6-7-9-9-3l-26 63c-3 6 7 8 9 2zm-44 75l26-63c3-6-7-8-10-2l-26 62c-2 6 8 9 10 3z" fill="#fff"/><path d="M143 277l-1 3-1 1a6 6 0 0 0 0 3 6 6 0 0 0 2 3 6 6 0 0 0 5 1 5 5 0 0 0 3-3l1-2 1-1v-3a6 6 0 0 0-3-4 6 6 0 0 0-4 0l-3 2zm68-133l-1 3v4a6 6 0 0 0 3 2 6 6 0 0 0 5 0l1-1a5 5 0 0 0 1-2l1-3v-4a6 6 0 0 0-4-2 6 6 0 0 0-4 0l-1 1a5 5 0 0 0-1 2z" fill="#fff"/></svg>