<svg xmlns="http://www.w3.org/2000/svg" width="361" height="361"><path d="M209.5 214.7a79.4 79.4 0 0 1 63.2-55.7c6.4-1 3.7-10.7-2.6-9.6a89.2 89.2 0 0 0-70.3 62.6c-1.8 6.2 7.8 8.8 9.7 2.7z" fill="#fff"/><path d="M200.4 210.4l-.5 1.6c-.9 2.8 1 6 3.9 6.7a5.5 5.5 0 0 0 6.7-3.8l.5-1.6c.9-2.8-1-6-3.8-6.7a5.5 5.5 0 0 0-6.8 3.8zm69.6-61l-1.6.5a5.5 5.5 0 0 0-3.8 6.7 5.5 5.5 0 0 0 6.7 3.8l1.6-.4a5.5 5.5 0 0 0 3.8-6.7 5.5 5.5 0 0 0-6.7-3.9zm-60.5 130.2a79.4 79.4 0 0 1 63.2-55.7c6.4-1 3.7-10.7-2.6-9.6a89.2 89.2 0 0 0-70.3 62.6c-1.8 6.2 7.8 8.8 9.7 2.7z" fill="#fff"/><path d="M200.4 275.3l-.5 1.6c-.9 2.8 1 6 3.9 6.7a5.5 5.5 0 0 0 6.7-3.8l.5-1.6c.9-2.8-1-6-3.8-6.7a5.5 5.5 0 0 0-6.8 3.8zm69.6-61l-1.6.5a5.5 5.5 0 0 0-3.8 6.7 5.5 5.5 0 0 0 6.7 3.8l1.6-.5a5.5 5.5 0 0 0 3.8-6.7 5.5 5.5 0 0 0-6.7-3.8z" fill="#fff"/><g fill="#fff"><path d="M209.5 149.8A79.4 79.4 0 0 1 272.7 94c6.4-1 3.7-10.7-2.6-9.6a89.2 89.2 0 0 0-70.3 62.6c-1.8 6.2 7.8 8.9 9.7 2.7z"/><path d="M200.4 145.5l-.5 1.6c-.9 2.8 1 6 3.9 6.7a5.5 5.5 0 0 0 6.7-3.8l.5-1.6c.9-2.8-1-6-3.8-6.7a5.5 5.5 0 0 0-6.8 3.8zm69.6-61l-1.6.5a5.5 5.5 0 0 0-3.8 6.7 5.5 5.5 0 0 0 6.7 3.8l1.6-.4a5.5 5.5 0 0 0 3.8-6.7 5.5 5.5 0 0 0-6.7-3.8z"/></g><path d="M231.9 71.3v20.6c0 2 3 2 3 0V71.3c0-2-3-2-3 0zm0 49.5V158c0 2 3 2 3 0v-37.2c0-2-3-2-3 0zm0 64V222c0 2 3 2 3 0v-37.2c0-2-3-2-3 0zm0 63.9v41c0 1.9 3 1.9 3 0v-41c0-2-3-2-3 0z" fill="#fff"/><path d="M90.7 118.6a4 4 0 0 0 4 4h23.4a4 4 0 0 0 4.1-4V95.2a4 4 0 0 0-4-4H94.7a4 4 0 0 0-4 4v23.4z" fill="none" stroke="#fff" stroke-width="10" stroke-miterlimit="10"/><path d="M137.8 70.8l-7.2 7.2c-2 1.9-2 5.1 0 7s5.1 2 7 0l7.3-7.2c1.9-1.9 1.9-5.1 0-7s-5.2-2-7.1 0zm37.9 30.9h-33.5c-6.4 0-6.4 10 0 10h33.5c6.5 0 6.5-10 0-10zm-97.3 41.6l6-6a5 5 0 0 0-7-7l-6.1 6c-2 1.9-2 5.1 0 7s5.1 2 7 0zm33.6 32.1V142c0-6.4-10-6.4-10 0v33.5c0 6.5 10 6.5 10 0zm48.3-21.4l-23.7-23.7c-4.5-4.6-11.6 2.5-7 7l23.7 23.8c4.5 4.5 11.6-2.6 7-7.1z" fill="#fff"/></svg>