<svg xmlns="http://www.w3.org/2000/svg" width="361" height="361"><path d="M179 71v59c0 2 3 2 3 0V71c0-2-3-2-3 0zm0 88v41c0 2 3 2 3 0v-41c0-2-3-2-3 0zm0 72v59c0 2 3 2 3 0v-59c0-2-3-2-3 0zm-10-85l18 11c6 3 11-5 5-9l-18-11c-6-3-11 6-5 9z" fill="#fff"/><path d="M191 158l67-4c6 0 6-10 0-10l-67 4c-7 0-7 10 0 10zm-87-7l68-4c6-1 6-11 0-10l-68 4c-6 0-6 10 0 10z" fill="#fff"/><path d="M107 141h-3a6 6 0 0 0-5 6c0 3 3 5 5 5h3a6 6 0 0 0 6-5c0-3-3-6-6-6zm151 3h-3l-4 2a6 6 0 0 0-1 4c0 2 2 5 5 5h3a6 6 0 0 0 4-2 6 6 0 0 0 1-4c0-2-2-5-5-5zm-89 69l18 11c6 3 11-6 5-9l-18-11c-6-3-11 5-5 9z" fill="#fff"/><path d="M190 225l68-4c6-1 6-11 0-10l-68 4c-6 0-6 10 0 10zm-86-8l67-4c7 0 7-10 0-10l-67 4c-7 1-7 11 0 10z" fill="#fff"/><path d="M107 208h-3a6 6 0 0 0-5 5c0 3 2 6 5 6h3a6 6 0 0 0 5-6c0-3-2-5-5-5zm150 3h-2l-4 1a6 6 0 0 0-2 4c0 3 3 6 6 6l2-1a6 6 0 0 0 4-1 6 6 0 0 0 2-4c0-3-3-6-6-5z" fill="#fff"/></svg>