<svg xmlns="http://www.w3.org/2000/svg" width="361" height="361"><path d="M81 130v136c0 7 10 7 10 0V130c0-6-10-6-10 0zm190 0v136c0 7 10 7 10 0V130c0-6-10-6-10 0z" fill="#fff"/><path d="M287 118a6 6 0 0 1-6 5H81a6 6 0 0 1-5-5v-10a6 6 0 0 1 5-6h200a6 6 0 0 1 6 6v10z" fill="none" stroke="#fff" stroke-width="10"/><path d="M273 146c-1 1 1 1-1 1H89v-8c0-1-2 0 0 0h184l-1-1v9c0 4 7 4 7 0 0-6 2-15-6-15H105c-5 1-12 2-16 0-8-2-7 13-6 17 0 4 4 5 8 5h181c4 0 7-3 7-6 1-5-6-7-6-2z" fill="#fff"/><path d="M273 160c-1 2 1 2-1 2H89v-9c0-1-2 1 0 1h184c2 0-1 0-1-1v8c0 5 7 5 7 0 0-6 2-14-6-14H89c-8-2-7 12-6 17 0 3 4 5 8 5h181c4 0 7-3 7-7 1-4-6-6-6-2z" fill="#fff"/><path d="M273 175c-1 1 1 1-1 1H89v-8c0-1-2 0 0 0h184l-1-1v9c0 4 7 4 7 0 0-6 2-15-6-15H105c-5 1-12 2-16 0-8-2-7 13-6 17 0 4 4 5 8 5h181c4 0 7-3 7-6 1-5-6-7-6-2z" fill="#fff"/><path d="M273 189c-1 2 1 2-1 2H89v-8c0-2-2 0 0 0h184c2 0-1-2-1-1v8c0 5 7 5 7 0 0-6 2-14-6-14H89c-8 0-7 8-7 14 0 5 4 8 8 8h182c4 0 7-3 7-7 1-4-6-6-7-2z" fill="#fff"/><path d="M273 204c-1 2 1 2-1 2H89v-9c0-2-2 1 0 1h184c2 0-1-2-1-1v8c0 5 7 5 7 0 0-6 2-14-6-14H89c-8 0-7 8-7 14 0 4 4 8 8 8h182c4 0 7-3 7-7 1-4-6-6-7-2z" fill="#fff"/><path d="M273 218c-1 2 1 2-1 2H89v-8c0-2-2 0 0 0h184c2 0-1-2-1-1v8c0 5 7 5 7 0 0-6 2-14-6-14H89c-8 0-7 8-7 14 0 5 4 8 8 8h182c4 0 7-3 7-7 1-4-6-6-7-2z" fill="#fff"/><path d="M273 233c-1 2 1 2-1 2H89v-9c0-1-2 1 0 1h184c2 0-1 0-1-1v8c0 5 7 5 7 0 0-6 2-14-6-14H89c-8-3-7 12-6 16 0 4 4 6 8 6h181c4 0 7-4 7-7 1-4-6-6-6-2z" fill="#fff"/><path d="M273 248c-1 1 1 1-1 1H89v-8c0-1-2 0 0 0h184l-1-1v9c0 4 7 4 7 0 0-6 2-15-6-15H105c-5 1-12 2-16 0-8-2-7 13-6 17 0 4 4 5 8 5h181c4 0 7-3 7-6 1-5-6-7-6-2z" fill="#fff"/><path d="M273 262c-1 2 1 2-1 2H89v-8c0-2-2 0 0 0h184c2 0-1-2-1-1v8c0 5 7 5 7 0 0-6 2-14-6-14H89c-8 0-7 8-7 14 0 5 4 8 8 8h182c4 0 7-3 7-7 1-4-6-6-7-2zM86 140h190c4 0 4-7 0-7H86c-5 0-5 7 0 7zm152 92h11c2 0 2-3 0-3h-11c-2 0-2 3 0 3z" fill="#fff"/><path d="M251 234l-1 1h-19v-8h20c1 0 0-1 0 0v8c0 5 7 5 7 0 0-3 1-9-1-12s-5-3-9-3h-15c-4 0-8 1-9 5v12c1 4 6 4 10 4h14c5 1 9 0 10-5 1-4-6-6-7-2z" fill="#fff"/></svg>