<svg xmlns="http://www.w3.org/2000/svg" width="361" height="361"><path d="M273.8 288.8H75c-2 0-2 3 0 3h198.8c2 0 2-3 0-3zM243 77.3v150.2c0 9.6 15 9.7 15 0v-150c0-9.7-15-9.8-15-.1z" fill="#fff"/><path d="M261.6 240.4a3 3 0 0 1-3 3h-16.2a3 3 0 0 1-3-3v-25.8a3 3 0 0 1 3-3h16.2a3 3 0 0 1 3 3v25.8zM70 204.4V287c0 6.5 10 6.5 10 0v-82.4c0-6.5-10-6.5-10 0z" fill="#fff"/><path d="M275.8 284.3c0 2.2-2.1 4-4.8 4h-37.4c-2.7 0-4.8-1.8-4.8-4v-75.9c0-2.2 2.1-4 4.7-4h37.6c2.6 0 4.7 1.8 4.7 4v75.9z" fill="none" stroke="#fff" stroke-width="7" stroke-miterlimit="10"/></svg>