<svg xmlns="http://www.w3.org/2000/svg" width="361" height="361"><path d="M254.3 241.4v-37.6c0-4 0-3.8 4.2-3.8 3.6 0 3 .5 3 4v37.4c0 4.6 7 4.6 7 0v-41.1c0-5.6-5.3-7.3-10-7.3-5 0-11.2 1-11.2 7.5v41c0 4.5 7 4.5 7 0z" fill="#fff"/><path d="M241 264.6c0-17.4-.7-35 .1-52.4.1-1.7-.2-1.9 1.2-1.9h4.6c3.1 0 .4.3.4-1.6v43c0 4.6 7 4.6 7 0v-43.2c0-6.5-9.9-5.7-14.2-5-6.6 1-6 9.2-6 14.2v47c0 4.4 7 4.4 7 0zm27.5-15.5V206c0 2-2.7 1.6.5 1.6h3.4c1.1 0 1.8 1.7 1.8.9v40.6c0 4.5 7 4.5 7 0v-40.5c0-6.2-6.3-8-11.2-8-4.3 0-8.5.7-8.5 6V249c0 4.5 7 4.5 7 0z" fill="#fff"/><path d="M281.3 254v-35.5c0 .6-2.7 1.5.1 1.5h2.7c1.2 1.5.6 5.8.6 7.5V288c0 4.6 7 4.6 7 0v-64.3c0-5.3-1.7-9.9-7.5-10.6-5.4-.7-10 1-10 6.9v34c0 4.5 7 4.5 7 0zm-50.8 33l-10.3-40c-.6-2.4-1.7-3.4 1-4.1 1-.3 4.3-1.6 4.6-.8l1.2 3.5 7 20.1c1.6 4.3 8.3 2.4 6.8-1.8l-8-23a8.5 8.5 0 0 0-10.5-5.6c-4.9 1.2-10.4 3-10 9.1.7 7.2 3.8 14.8 5.6 21.7l5.8 22.8c1.2 4.3 8 2.5 6.8-1.9z" fill="#fff"/><path d="M239 188a5.3 5.3 0 0 1-5.3 5.3H86a5.3 5.3 0 0 1-5.3-5.3V93a5.3 5.3 0 0 1 5.3-5.3h147.8a5.3 5.3 0 0 1 5.3 5.2v95z" fill="none" stroke="#fff" stroke-width="10" stroke-miterlimit="10"/><path d="M155.4 145.3h9.4c6.5 0 6.5-10 0-10h-9.4c-6.5 0-6.5 10 0 10z" fill="#fff"/><path fill="none" stroke="#fff" stroke-width="10" stroke-miterlimit="10" d="M160 88v102.7"/><path d="M244.8 88.8c0 .4-2.6.7-5.7.7H80.8c-3.1 0-5.7-.3-5.7-.7V75.5c0-.4 2.6-.7 5.7-.7h158.3c3.1 0 5.7.3 5.7.7v13.3z" fill="#fff" stroke="#fff" stroke-width="10" stroke-miterlimit="10"/><path d="M75.4 103.2H245c4.5 0 4.5-7 0-7H75.4c-4.5 0-4.5 7 0 7zm0 10.4H245c4.5 0 4.5-7 0-7H75.4c-4.5 0-4.5 7 0 7zm0 10.4H245c4.5 0 4.5-7 0-7H75.4c-4.5 0-4.5 7 0 7zm0 10.4H245c4.5 0 4.5-7 0-7H75.4c-4.5 0-4.5 7 0 7z" fill="#fff"/></svg>