<svg xmlns="http://www.w3.org/2000/svg" width="361" height="361"><path d="M115 232.1c38.2-29.4 90-35 133.4-13.3 5.7 2.8 10.8-5.8 5-8.7A136.2 136.2 0 0 0 110 223.5c-5 3.8 0 12.5 5 8.6z" fill="#fff"/><path d="M112.4 222.2l-2.1 1.5-1.1.9a5.5 5.5 0 0 0-1.4 2.4 5.5 5.5 0 0 0 .5 4.2 5.5 5.5 0 0 0 3.3 2.5c1.3.3 3 .2 4.2-.6l2-1.5 1.2-.9a5.5 5.5 0 0 0 1.4-2.4 5.5 5.5 0 0 0-.6-4.2 5.5 5.5 0 0 0-3.2-2.5c-1.3-.3-3.1-.2-4.2.6zm139.5-12.4l-2.4-1c-1.3-.4-3 0-4.2.6a5.5 5.5 0 0 0-2.5 3.3 5.5 5.5 0 0 0 .6 4.2c.7 1.3 1.8 2 3.2 2.5l2.4 1c1.3.4 3 0 4.2-.6a5.5 5.5 0 0 0 2.5-3.3 5.5 5.5 0 0 0-.5-4.2c-.8-1.3-2-2-3.3-2.5zm-73-138.1v16.2c0 2 3 2 3 0V71.7c0-2-3-2-3 0zm.1 71.3v22.8c0 2 3 2 3 0V143c0-2-3-2-3 0zm0 75v71.7c0 1.9 3 1.9 3 0V218c0-2-3-2-3 0z" fill="#fff"/><g fill="#fff"><path d="M113.7 151.9c38.3-29.4 90.1-35 133.5-13.4 5.7 2.9 10.8-5.7 5-8.6a136.2 136.2 0 0 0-143.5 13.3c-5 3.9 0 12.6 5 8.7z"/><path d="M111.2 142l-2.1 1.5-1.1.8a5.4 5.4 0 0 0-1.4 2.4 5.5 5.5 0 0 0 .5 4.2 5.5 5.5 0 0 0 3.3 2.5c1.3.4 3 .3 4.2-.5l2-1.5 1.2-.9a5.4 5.4 0 0 0 1.4-2.4 5.5 5.5 0 0 0-.6-4.2 5.5 5.5 0 0 0-3.2-2.5c-1.3-.4-3.1-.3-4.2.5zm139.5-12.4l-2.4-1c-1.3-.5-3 0-4.2.6a5.5 5.5 0 0 0-2.5 3.3 5.5 5.5 0 0 0 .6 4.2c.7 1.3 1.8 2 3.2 2.5l2.4.9c1.3.5 3 .1 4.2-.6a5.5 5.5 0 0 0 2.5-3.2 5.5 5.5 0 0 0-.5-4.2c-.8-1.4-2-2-3.3-2.5z"/></g><path d="M179 134v22.8c0 2 3 2 3 0V134c0-2-3-2-3 0z" fill="#fff"/></svg>