<svg xmlns="http://www.w3.org/2000/svg" width="361" height="361"><path d="M207.3 128.7v31.2c0 2 3 2 3 0v-31.2c0-2-3-2-3 0zm.1 61V227c0 2 3 2 3 0v-37.3c0-1.9-3-1.9-3 0zm0 68.4v31c0 2 3 2 3 0v-31c0-1.9-3-1.9-3 0z" fill="#fff"/><path d="M135.8 289.6c12.9-13.6 25.5-27.3 43.1-34.6 11.3-4.7 23-6.2 35-7.8a119.8 119.8 0 0 0 31.8-8.6 84 84 0 0 0 30.9-23l2.7-3.1c.4-.5 1.7-1.4 0-.3-1.6 1.2-5.6-.6-6.1-2.3 2.6 8.5 1.6 23 13.3 24.3 6.4.7 6.4-9.3 0-10 1 .1 0-.8-.2-1.4-.5-1.3-.8-2.7-1.1-4-.8-3.2-1.3-6.4-2-9.6-.4-2.3-1-4.6-3.1-5.8-3.9-2-6.9.8-9.2 3.5a82.3 82.3 0 0 1-29.1 22.6c-21.6 10-46.2 7.4-68 16.8-18.2 8-31.6 22-45 36.2-4.5 4.7 2.6 11.8 7 7z" fill="#fff"/><path d="M132.4 280.9l-2 2a5.3 5.3 0 0 0 0 7.5 5.3 5.3 0 0 0 7.4 0l2-2.1a5.3 5.3 0 0 0 0-7.4 5.3 5.3 0 0 0-7.4 0zm154.1-54.1l-3-.1a4.2 4.2 0 0 0-4.1 4.2 4.3 4.3 0 0 0 4.2 4.2h3a4.2 4.2 0 0 0 4.1-4.2 4.3 4.3 0 0 0-4.2-4.2zm-150-6.2c12.8-13.6 25.5-27.3 43.1-34.6 11.3-4.7 23-6.2 35-7.8a119.8 119.8 0 0 0 31.8-8.6 84 84 0 0 0 30.9-23l2.7-3.1c.4-.5 1.6-1.4 0-.3-1.6 1.2-5.6-.6-6.1-2.3 2.6 8.5 1.6 23 13.3 24.3 6.4.7 6.4-9.3 0-10 1 .1 0-.8-.2-1.4-.5-1.3-.8-2.7-1.1-4-.8-3.2-1.3-6.4-2-9.6-.4-2.3-1-4.6-3.2-5.8-3.8-2-6.8.8-9.1 3.5a82.3 82.3 0 0 1-29.1 22.6c-21.6 10-46.2 7.4-68 16.8-18.2 8-31.6 22-45 36.2-4.5 4.7 2.5 11.8 7 7z" fill="#fff"/><path d="M133.1 211.9l-2 2a5.3 5.3 0 0 0 0 7.5 5.3 5.3 0 0 0 7.4 0l2-2.1a5.3 5.3 0 0 0 0-7.4 5.3 5.3 0 0 0-7.4 0zm154.1-54.1l-3-.1a4.2 4.2 0 0 0-4.1 4.2 4.3 4.3 0 0 0 4.2 4.2h2.9a4.2 4.2 0 0 0 4.2-4.2 4.3 4.3 0 0 0-4.2-4.2z" fill="#fff"/><path d="M90.7 119a4 4 0 0 0 4 4h23.4a4 4 0 0 0 4.1-4V95.6a4 4 0 0 0-4-4H94.7a4 4 0 0 0-4 4V119z" fill="none" stroke="#fff" stroke-width="10" stroke-miterlimit="10"/><path d="M137.8 71.1l-7.2 7.3c-2 1.9-2 5 0 7s5.1 2 7 0l7.3-7.2c1.9-2 1.9-5.1 0-7s-5.2-2-7.1 0zm37.9 31h-33.5c-6.4 0-6.4 10 0 10h33.5c6.5 0 6.5-10 0-10zm-97.3 41.6l6-6c1.9-1.9 1.9-5.1 0-7s-5.2-2-7.1 0l-6 6c-2 1.9-2 5 0 7s5.2 2 7 0zm33.6 32.1v-33.5c0-6.5-10-6.5-10 0v33.5c0 6.4 10 6.4 10 0zm48.4-21.5l-23.8-23.6c-4.5-4.6-11.6 2.5-7 7l23.7 23.7c4.5 4.6 11.6-2.5 7-7z" fill="#fff"/></svg>