<svg xmlns="http://www.w3.org/2000/svg" width="361" height="361"><path d="M179 71v59c0 2 3 2 3 0V71c0-2-3-2-3 0zm0 88v41c0 2 3 2 3 0v-41c0-2-3-2-3 0zm0 72v59c0 2 3 2 3 0v-59c0-2-3-2-3 0zm-3-73l16-14c5-4-2-11-7-7l-16 14c-5 4 2 11 7 7z" fill="#fff"/><path d="M194 141l17-65c2-6-8-9-10-3l-17 66c-2 6 8 9 10 2zm-34 80l17-65c2-6-8-9-9-3l-17 66c-2 6 8 9 9 2z" fill="#fff"/><path d="M152 216l-1 3a6 6 0 0 0 4 6c3 1 6-1 7-4v-2a6 6 0 0 0-3-7c-3-1-6 1-7 4zm49-142v2c-1 3 1 6 3 7a6 6 0 0 0 7-4l1-2c0-3-1-6-4-7a6 6 0 0 0-7 4zm-25 151l16-14c5-5-3-12-7-7l-16 14c-5 4 2 11 7 7z" fill="#fff"/><path d="M193 208l18-65c1-7-8-9-10-3l-17 65c-2 7 8 9 9 3zm-33 80l17-65c2-7-8-9-10-3l-17 65c-2 7 8 9 10 3z" fill="#fff"/><path d="M152 283l-1 2a6 6 0 0 0 4 7c3 1 6-1 6-4l1-2a6 6 0 0 0-4-7c-3-1-6 1-7 4zm49-143l-1 3c-1 3 1 6 4 6a6 6 0 0 0 7-3v-3c1-3-1-6-3-7a6 6 0 0 0-7 4z" fill="#fff"/></svg>