<svg xmlns="http://www.w3.org/2000/svg" width="361" height="361"><path d="M232.8 281a6 6 0 0 1-6 6h-93a6.1 6.1 0 0 1-6-6V80.7a6 6 0 0 1 6-6.1h93a6.1 6.1 0 0 1 6 6.1V281z" fill="none" stroke="#fff" stroke-width="10" stroke-miterlimit="10"/><path d="M129.8 185.7h10c6.5 0 6.5-10 0-10h-10c-6.4 0-6.4 10 0 10z" fill="#fff"/><path d="M231.2 280a6 6 0 0 0-6-6h-91.4a6 6 0 0 0-6 6v.7a6 6 0 0 0 6 6h91.4a6 6 0 0 0 6-6v-.7z" fill="none" stroke="#fff" stroke-width="10" stroke-miterlimit="10"/><path d="M129.8 186h10c4.6 0 4.6-7 0-7h-10c-4.5 0-4.5 7 0 7zm58.7-64.4c.3-.9 2.4-.8 1.1-.8H171c1.6 0 1.5 3 1.5 0V104c0 1.7-2.6 1.6-1.2 1.6H190c-1.7 0-1.6-2.6-1.6-1.2v18c0 4.5 7 4.5 7 0v-13.1c0-4 .7-10.7-5.3-10.7h-13.2c-4.4 0-10-1-11.4 4.4-1 4-.1 9.2-.1 13.2 0 4.4-1 10 4.4 11.4 4 1 9.2.1 13.3.1 4.5 0 10.7 1.2 12.2-4.3 1.2-4.4-5.6-6.3-6.8-2zm0 41.9c.3-.9 2.4-.8 1.1-.8H171c1.6 0 1.5 3 1.5-.1V146c0 1.7-2.6 1.6-1.2 1.6H190c-1.7 0-1.6-2.6-1.6-1.2v18c0 4.5 7 4.5 7 0v-13.2c0-4 .7-10.6-5.3-10.6h-13.2c-4.4 0-10-1-11.4 4.4-1 4-.1 9.2-.1 13.2 0 4.4-1 10 4.4 11.4 4 1 9.2.1 13.3.1 4.5 0 10.7 1.2 12.2-4.4 1.2-4.3-5.6-6.2-6.8-1.8zm0 39.4c.3-.9 2.4-.8 1.1-.8H171c1.6 0 1.5 3 1.5 0v-16.7c0 1.7-2.6 1.6-1.2 1.6H190c-1.7 0-1.6-2.6-1.6-1.2v18c0 4.5 7 4.5 7 0v-13.1c0-4 .7-10.7-5.3-10.7h-13.2c-4.4 0-10-1-11.4 4.4-1 4-.1 9.2-.1 13.3 0 4.3-1 9.9 4.4 11.3 4 1 9.2.1 13.3.1 4.5 0 10.7 1.2 12.2-4.3 1.2-4.4-5.6-6.3-6.8-2zm0 41.9c.3-.9 2.4-.8 1.1-.8H171c1.6 0 1.5 3 1.5-.1v-16.6c0 1.7-2.6 1.6-1.2 1.6H190c-1.7 0-1.6-2.6-1.6-1.2v18c0 4.5 7 4.5 7 0v-13.2c0-4 .7-10.6-5.3-10.6h-13.2c-4.4 0-10-1-11.4 4.4-1 4-.1 9.2-.1 13.2 0 4.4-1 10 4.4 11.4 4 1 9.2.1 13.3.1 4.5 0 10.7 1.2 12.2-4.4 1.2-4.3-5.6-6.2-6.8-1.8z" fill="#fff"/></svg>