<svg xmlns="http://www.w3.org/2000/svg" width="361" height="361"><path d="M116.5 194.9c48-4.7 94.9 18.2 120.2 59.6 3.3 5.5 12 .4 8.6-5a136.2 136.2 0 0 0-128.9-64.6c-6.3.6-6.4 10.6 0 10z" fill="#fff"/><path d="M119.2 185l-2.6.3a5.7 5.7 0 0 0-3.8 1.6 5.5 5.5 0 0 0 0 7.7 5.3 5.3 0 0 0 3.8 1.6l2.6-.2a5.7 5.7 0 0 0 3.9-1.6 5.5 5.5 0 0 0 0-7.7 5.3 5.3 0 0 0-3.9-1.6zM245 249.6l-1.6-2-.8-1.2a5.4 5.4 0 0 0-2.4-1.4 5.5 5.5 0 0 0-4.2.6 5.5 5.5 0 0 0-2.5 3.2c-.4 1.3-.3 3.1.5 4.2l1.6 2 .8 1.2a5.4 5.4 0 0 0 2.4 1.4 5.5 5.5 0 0 0 4.2-.6 5.5 5.5 0 0 0 2.5-3.2c.4-1.3.3-3.1-.5-4.2zM178.8 71.7v16.2c0 2 3 2 3 0V71.7c0-2-3-2-3 0zm.2 71.3v22.8c0 2 3 2 3 0V143c0-2-3-2-3 0zm0 75v71.7c0 1.9 3 1.9 3 0V218c0-2-3-2-3 0z" fill="#fff"/><path d="M179 134v22.8c0 2 3 2 3 0V134c0-2-3-2-3 0z" fill="#fff"/><g fill="#fff"><path d="M115.2 114.6c48.2-4.6 95 18.3 120.2 59.6 3.4 5.5 12 .5 8.7-5a136.2 136.2 0 0 0-128.9-64.6c-6.3.6-6.4 10.6 0 10z"/><path d="M118 104.8l-2.6.2a5.7 5.7 0 0 0-3.8 1.6 5.5 5.5 0 0 0 0 7.7c1 1 2.5 1.7 3.8 1.6l2.6-.2a5.7 5.7 0 0 0 3.9-1.6 5.5 5.5 0 0 0 0-7.7 5.3 5.3 0 0 0-4-1.6zm125.8 64.4l-1.6-2a820 820 0 0 0-.8-1.1 5.5 5.5 0 0 0-2.4-1.4 5.5 5.5 0 0 0-4.2.5 5.5 5.5 0 0 0-2.6 3.3c-.3 1.3-.2 3 .6 4.2l1.5 2 .9 1.1a5.5 5.5 0 0 0 2.4 1.4 5.5 5.5 0 0 0 4.2-.5 5.5 5.5 0 0 0 2.5-3.3c.3-1.2.3-3-.6-4.2z"/></g></svg>