<svg xmlns="http://www.w3.org/2000/svg" width="361" height="361"><path d="M201 251.6c.3-.9 1.4-.7.2-.7H187c.7 0 .8 2.8.8-.1v-21c0 1.8-1.8 1.6-.4 1.6h14.2c-.7 0-.8-2.8-.8.2v21c0 4.5 7 4.5 7 0v-11.9c0-4 1-9-.4-12.7-1.7-5-9.6-3.5-13.6-3.5-4.8 0-11-1.2-13 4.4-1.2 3.5 0 9.1 0 12.8 0 3.9-1 9 .4 12.7 1.8 5 9.7 3.5 13.6 3.5 4.8 0 11 1.2 13-4.4 1.4-4.3-5.3-6.1-6.8-1.9z" fill="#fff"/><path d="M228.7 251c0-.2 1.5 0-.2 0h-13.7c-.8 0 .7 1.4.7.5V221c0 1.1-1.7.9.2.9h13.7c.8 0-.8-1.6-.8-.6v30.6c0 4.5 7 4.5 7 0v-30.3c0-6.9-6-6.7-11-6.7-5.6 0-14.1-1.8-16 5.1-1 4.2 0 9.7 0 14v17.2c0 6.9 6 6.7 11 6.7 5.6 0 14 1.9 15.9-5.1 1.1-4.4-5.6-6.2-6.8-1.9z" fill="#fff"/><path d="M256.5 250.9h.5-14c-1.3 0 .2 1.1.2.6v-40.8c0 1.3-1.3 1 1 1H257c.5 0-.6-1.7-.6-.5v40.6c0 4.5 7 4.5 7 0v-37.1c0-4.9-.4-10-6.8-10h-10c-2.9 0-6.2-.5-8.5 1.7-3.1 3.1-1.8 10.4-1.8 14.4v23.4c0 4-1.3 12.3 4.2 13.3 5.4 1.1 11.3.4 16.8.4 3 0 5.4-2.3 6-5.1 1-4.4-5.8-6.3-6.8-1.9zm27.8 0c0-.2 1.3 0 0 0H272c-2.3 0-.8-.1-.8.8v-53.5c0 .5-1.6.8.2.8H284c1.8 0 .3.3.3-1v54c0 4.5 7 4.5 7 0v-53c0-7.4-6.8-6.9-12.1-6.9-5.1 0-15-1.6-15 6.2v53.4c0 6.5 6.5 6.2 11.1 6.2 5.5 0 13.9 1.8 15.8-5 1.2-4.4-5.5-6.2-6.7-1.9zm-82.5 40.6l-1.6-6.3h-9l-1.5 6.3h-7a234.3 234.3 0 0 1 4.8-14.6l4.8-12.5h7.3a327.8 327.8 0 0 1 4.8 12.6 242 242 0 0 1 4.7 14.5h-7.3zm-6-21.9a176.4 176.4 0 0 0-1.9 5.7l-.8 2.7a91.7 91.7 0 0 0-.6 2.8h6.6l-.7-2.8-.7-2.7a116.4 116.4 0 0 0-2-5.7zm27.4 22.5c-2.2 0-4-.3-5.5-.7a8.5 8.5 0 0 1-3.6-2.1c-.8-1-1.5-2-1.8-3.3a15.6 15.6 0 0 1-.6-4.3v-17.3h6.8v17c0 1 .1 2 .3 2.8.1.8.4 1.4.7 1.9.3.4.8.8 1.5 1s1.4.3 2.3.3c1 0 1.8-.1 2.4-.3a3 3 0 0 0 1.5-1c.3-.5.6-1.2.7-2 .2-.7.2-1.7.2-2.8v-16.9h6.8v17.3c0 1.6-.2 3-.5 4.3a7.4 7.4 0 0 1-2 3.3c-.9.9-2.1 1.6-3.6 2s-3.4.8-5.6.8zm40-27.7v4.5h-9v22.6h-6.8V269h-9v-4.5h24.7zm2.8 13.5c0-4.6 1-8.2 3.2-10.5 2.2-2.4 5.2-3.6 9-3.6 4 0 7 1.2 9.1 3.6 2.1 2.3 3.2 5.9 3.2 10.5s-1 8.2-3.2 10.6a11.4 11.4 0 0 1-9 3.6c-4 0-7-1.2-9.2-3.6-2-2.4-3.1-5.9-3.1-10.6zm6.9 0l.1 3.7c.2 1.2.4 2.2.8 3a4.9 4.9 0 0 0 1.6 2c.7.5 1.7.8 2.8.8 1.2 0 2-.3 2.8-.8a4.8 4.8 0 0 0 1.7-2c.3-.9.6-1.9.7-3l.2-3.7-.2-3.7a10 10 0 0 0-.7-3 4.9 4.9 0 0 0-1.7-2c-.7-.5-1.6-.7-2.8-.7s-2 .2-2.8.7c-.7.5-1.2 1.2-1.6 2-.4 1-.6 2-.8 3a33 33 0 0 0-.2 3.7zM138.2 71.8v26.6c0 1.9 3 1.9 3 0V71.8c0-2-3-2-3 0zm0 51.9v31.6c0 2 3 2 3 0v-31.6c0-2-3-2-3 0zm0 58.1v26.4c0 2 3 2 3 0v-26.4c0-1.9-3-1.9-3 0z" fill="#fff"/><path d="M78.1 209c10.9-11.3 21.5-23 36.4-29.1 9.6-4 19.7-5.3 29.9-6.7a99.3 99.3 0 0 0 26.6-7.1 73.5 73.5 0 0 0 26.6-19.7l2.5-2.9c.3-.4 1.4-1.1 0 0-2.2 1.4-6.4-2.3-6.4-2.3 2 7.9 1.8 19.8 12 21 6.4.9 6.3-9.1 0-10 1.3.2-.4-4.1-.7-5.2-.6-2.8-1-5.7-1.7-8.5a5.8 5.8 0 0 0-2.7-3.8c-3.6-1.9-6.5.4-8.7 3a70 70 0 0 1-24.8 19.3c-18.4 8.3-39.2 6.1-57.7 14.2C94 178 82.5 190 71.1 202c-4.5 4.7 2.6 11.8 7 7z" fill="#fff"/><path d="M74.2 200.6l-1.8 1.8a5.3 5.3 0 0 0 0 7.4 5.3 5.3 0 0 0 7.4 0l1.8-1.8a5.3 5.3 0 0 0 0-7.4 5.3 5.3 0 0 0-7.4 0zm131.5-46l-2.5-.1a4.2 4.2 0 0 0-4.2 4.2 4.3 4.3 0 0 0 4.2 4.2h2.5a4.2 4.2 0 0 0 4.2-4.2 4.3 4.3 0 0 0-4.2-4.2zm-127-4.2c10.9-11.4 21.5-23 36.4-29.2 9.6-4 19.7-5.2 29.9-6.6a99.3 99.3 0 0 0 26.6-7.2 73.5 73.5 0 0 0 26.6-19.6l2.5-2.9c.3-.4 1.4-1.2 0-.1 1.6-1-.1-1.2-5.4-.8-1.4-1.2-1.3-2.6-1-1.5 2 8 1.8 19.8 12 21.1 6.4.8 6.3-9.2 0-10 1.3.2-.4-4.2-.7-5.3-.6-2.8-1-5.6-1.7-8.4a5.8 5.8 0 0 0-2.7-3.9c-3.6-1.8-6.5.5-8.7 3a69.8 69.8 0 0 1-24.9 19.3c-18.3 8.4-39.1 6.2-57.6 14.3-15.5 6.8-26.9 18.7-38.4 30.8-4.4 4.6 2.7 11.7 7.1 7z" fill="#fff"/><path d="M74.8 142l-1.8 1.7a5.3 5.3 0 0 0 0 7.4 5.3 5.3 0 0 0 7.4 0l1.8-1.7a5.3 5.3 0 0 0 0-7.5 5.3 5.3 0 0 0-7.4 0zm131.5-46.1h-2.5a4.2 4.2 0 0 0-4.2 4.1 4.3 4.3 0 0 0 4.2 4.2h2.5a4.2 4.2 0 0 0 4.2-4.1 4.3 4.3 0 0 0-4.2-4.2z" fill="#fff"/></svg>