<svg xmlns="http://www.w3.org/2000/svg" width="361" height="361"><path d="M154.2 282.3c-3-48.3 21.7-94.2 63.9-118 5.6-3.1.5-11.8-5-8.6a136.2 136.2 0 0 0-69 126.6c.5 6.4 10.5 6.4 10 0z" fill="#fff"/><path d="M144.5 279.6v2.5a5.6 5.6 0 0 0 1.7 3.9 5.5 5.5 0 0 0 3.8 1.6c3 0 5.6-2.5 5.5-5.5l-.1-2.5a5.6 5.6 0 0 0-1.6-3.9 5.5 5.5 0 0 0-3.9-1.6c-2.9 0-5.6 2.5-5.4 5.5zM213 156l-2 1.5a5.7 5.7 0 0 0-2.5 3.3 5.5 5.5 0 0 0 .5 4.2 5.5 5.5 0 0 0 3.3 2.5 5.3 5.3 0 0 0 4.2-.6l2-1.5a5.7 5.7 0 0 0 2.6-3.2 5.5 5.5 0 0 0-.6-4.2 5.5 5.5 0 0 0-3.2-2.5 5.3 5.3 0 0 0-4.2.5zm-60 46c-3-48.3 21.7-94.1 63.9-117.9 5.6-3.2.5-11.8-5.1-8.6-45 25.4-72 74.9-68.8 126.5.4 6.4 10.4 6.5 10 0z" fill="#fff"/><path d="M143.3 199.3v2.6a5.6 5.6 0 0 0 1.7 3.9 5.5 5.5 0 0 0 3.8 1.6c2.9 0 5.6-2.5 5.5-5.5l-.1-2.6a5.6 5.6 0 0 0-1.6-3.8 5.5 5.5 0 0 0-3.9-1.6c-2.9 0-5.6 2.5-5.4 5.4zm68.5-123.5l-2 1.5a5.8 5.8 0 0 0-2.6 3.2 5.5 5.5 0 0 0 .6 4.2 5.5 5.5 0 0 0 3.3 2.5 5.3 5.3 0 0 0 4.2-.5l2-1.5a5.7 5.7 0 0 0 2.5-3.2 5.5 5.5 0 0 0-.5-4.2 5.5 5.5 0 0 0-3.3-2.5 5.3 5.3 0 0 0-4.1.5zm-33-4.1v16.2c0 2 3 2 3 0V71.7c0-2-3-2-3 0zm.2 71.3v22.8c0 2 3 2 3 0V143c0-2-3-2-3 0zm0 75v71.7c0 2 3 2 3 0V218c0-2-3-2-3 0z" fill="#fff"/><path d="M179 134v22.8c0 2 3 2 3 0V134c0-2-3-2-3 0z" fill="#fff"/></svg>