<svg xmlns="http://www.w3.org/2000/svg" width="361" height="361"><g fill="#fff"><path d="M139 260a6 6 0 0 1-6 6h-12a6 6 0 0 1-6-6v-11a6 6 0 0 1 6-6h12a6 6 0 0 1 6 6v11zm108 0a6 6 0 0 1-6 6h-12a6 6 0 0 1-6-6v-11a6 6 0 0 1 6-6h12a6 6 0 0 1 6 6v11zm-14-45H129c-6 0-11-6-11-14l5-19c0-7 7-13 13-13h89c6 0 13 6 14 13l5 19v1c0 7-5 13-11 13zm-104-10h104l1-3-5-18v-1c0-2-3-3-4-4h-89c-1 1-3 2-3 4v1l-5 18 1 3z"/><path d="M251 243c0 3-3 5-6 5H117c-4 0-7-2-7-5v-28c0-3 3-5 7-5h128c3 0 6 2 6 5v28zm-107-22c0-2-3-4-6-4h-18c-3 0-6 2-6 4v5c0 3 3 5 6 5h18c3 0 6-2 6-5v-5zm103 0c0-2-3-4-6-4h-17c-4 0-6 2-6 4v5c0 3 2 5 6 5h17c3 0 6-2 6-5v-5zm-40 5c0-5-3-10-6-10h-41c-3 0-6 5-6 10v5c0 5 3 9 6 9h41c3 0 6-4 6-9v-5z"/><path d="M148 219h66v10h-66zm1 13h66v10h-66z"/></g><path d="M81 130v136c0 7 10 7 10 0V130c0-6-10-6-10 0zm190 0v136c0 7 10 7 10 0V130c0-6-10-6-10 0z" fill="#fff"/><path d="M287 118a6 6 0 0 1-6 5H81a6 6 0 0 1-5-5v-10a6 6 0 0 1 5-6h200a6 6 0 0 1 6 6v10z" fill="none" stroke="#fff" stroke-width="10"/><path d="M273 132H89v-5h184l-1 1v5c0 4 7 4 7 0 0-5 1-13-6-13H102c-4 0-13-1-17 2-5 3-4 17 4 17h184c3 0 6-2 6-5 1-5-6-7-7-2z" fill="#fff"/></svg>