<svg xmlns="http://www.w3.org/2000/svg" width="361" height="361"><path d="M266.9 251.8c.5 2.9-1.3 5.2-3.8 5.2h-73.4c-2.5 0-5-2.3-5.4-5.2l-16.5-104.6c-.5-2.9 1.3-5.2 3.8-5.2H245c2.5 0 5 2.3 5.4 5.2L267 251.8z" fill="none" stroke="#fff" stroke-width="10" stroke-miterlimit="10"/><path d="M267.6 250.3c0 4-2.5 7-5.7 7l-162 .1c-3 0-5.7-3.2-5.7-7V122.7c0-3.9 2.6-7 5.8-7h161.9c3.2 0 5.8 3 5.8 7v127.5z" fill="none" stroke="#fff" stroke-width="10" stroke-miterlimit="10"/><path d="M181 191.6c6.4 0 6.4-10 0-10s-6.5 10 0 10z" fill="#fff"/><path fill="none" stroke="#fff" stroke-width="10" stroke-miterlimit="10" d="M181 116.6v137.2m86.6-133.6c0 2.5-2.2 4.5-4.9 4.5H99.2c-2.8 0-5-2-5-4.5v-9c0-2.5 2.2-4.5 5-4.5h163.5c2.7 0 5 2 5 4.5v9z"/></svg>