<svg xmlns="http://www.w3.org/2000/svg" width="361" height="361"><path d="M239 75c3 0 6 3 6 7v198c0 4-3 7-6 7H124c-3 0-6-3-6-7V82c0-4 2-7 6-7h115z" fill="none" stroke="#fff" stroke-width="10" stroke-miterlimit="10"/><path d="M232 85c5 0 4 5 4 8v12c0 4 1 12-5 12h-97c-3 0-8 0-8-5V92c0-3-1-7 4-7h102v-3H131c-7 0-8 5-8 10v21c0 9 13 7 20 7h84c3 0 7 1 9-2 4-3 3-11 3-16 0-7 2-19-7-20-2-1-2 2 0 3zm0 121c5 0 4 5 4 8v12c0 4 1 12-5 12h-97c-3 0-8 0-8-5v-20c0-3-1-7 4-8h102v-2H131c-7 0-8 5-8 10v21c0 9 13 7 20 7h84c3 0 7 0 9-2 4-3 3-11 3-16 0-7 2-20-7-21-2 0-2 3 0 3zm0-41c5 1 4 5 4 9v12c0 4 1 12-5 12h-97c-3 0-8 0-8-6v-19c0-3-1-7 4-8h102v-3H131c-7 0-8 6-8 11v20c0 10 13 8 20 8h84c3 0 7 0 9-2 4-4 3-11 3-16 0-7 2-20-7-21-2 0-2 3 0 3zm0-40c5 0 4 5 4 8v12c0 5 1 12-5 12h-97c-3 0-8 0-8-5v-19c0-3-1-8 4-8h102v-3H131c-7 0-8 6-8 11v20c0 10 13 7 20 7h84c3 0 7 1 9-1 4-4 3-12 3-16 0-7 2-20-7-21-2 0-2 3 0 3zm0 121c5 0 4 5 4 8v12c0 4 1 12-5 12h-97c-3 0-8 0-8-5v-20c0-3-1-7 4-7h102v-3H131c-7 0-8 5-8 11v20c0 10 13 7 20 7h84c3 0 7 1 9-1 4-4 3-12 3-17 0-7 2-19-7-20-2 0-2 3 0 3z" fill="#fff"/></svg>