<svg xmlns="http://www.w3.org/2000/svg" width="361" height="361"><path d="M81 130v136c0 7 10 7 10 0V130c0-6-10-6-10 0zm190 0v136c0 7 10 7 10 0V130c0-6-10-6-10 0z" fill="#fff"/><path d="M287 118a6 6 0 0 1-6 5H81a6 6 0 0 1-5-5v-10a6 6 0 0 1 5-6h200a6 6 0 0 1 6 6v10z" fill="none" stroke="#fff" stroke-width="10"/><path d="M273 160c-1 2 1 2-1 2H89v-9c0-1-2 1 0 1h184c2 0-1 0-1-1v8c0 5 7 5 7 0 0-6 2-14-6-14H89c-8-3-7 12-6 16 0 4 4 6 8 6h181c4 0 7-4 7-7 1-4-6-6-6-2z" fill="#fff"/><path d="M273 175c-1 1 1 1-1 1H89v-8c0-2-2 0 0 0h184c2 0-1-1-1-1v9c0 4 7 4 7 0 0-6 2-15-6-15H89c-8 0-7 9-7 15 0 4 4 7 8 7h182c4 0 7-3 7-7 1-4-6-6-7-1zM86 140h190c4 0 4-7 0-7H86c-5 0-5 7 0 7zm152 5h11c2 0 2-3 0-3h-11c-2 0-2 3 0 3z" fill="#fff"/><path d="M251 146l-1 1h-19v-8h20c1 0 0-1 0 0v8c0 5 7 5 7 0 0-3 1-8-1-11-2-4-5-4-9-4h-15c-4 0-8 1-9 6v11c1 5 6 5 10 5h14c5 0 9-1 10-6 1-4-6-6-7-2z" fill="#fff"/></svg>