<svg xmlns="http://www.w3.org/2000/svg" width="361" height="361"><path d="M163 284.8a126.1 126.1 0 0 1 46.4-124.7c5-3.8.1-12.5-5-8.6a136.5 136.5 0 0 0-51 136c1.2 6.3 10.9 3.6 9.6-2.7z" fill="#fff"/><path d="M153.3 284.8l.5 2.5a5.3 5.3 0 0 0 2.5 3.3 5.5 5.5 0 0 0 4.2.5 5.5 5.5 0 0 0 3.2-2.5c.8-1.3.9-2.7.6-4.2l-.5-2.5a5.3 5.3 0 0 0-2.5-3.3 5.5 5.5 0 0 0-4.2-.5 5.5 5.5 0 0 0-3.2 2.5 5.8 5.8 0 0 0-.6 4.2zm50.1-132.2l-1.9 1.8c-2.1 2-2 5.7 0 7.7a5.5 5.5 0 0 0 7.7 0l2-1.7c2.1-2 2-5.7 0-7.8a5.5 5.5 0 0 0-7.8 0zm-41.6 52a126 126 0 0 1 46.4-124.7c5-3.9 0-12.5-5-8.6a136.5 136.5 0 0 0-51 136c1.3 6.3 10.9 3.6 9.6-2.7z" fill="#fff"/><path d="M152.1 204.6l.5 2.5a5.3 5.3 0 0 0 2.5 3.2 5.5 5.5 0 0 0 4.2.6 5.5 5.5 0 0 0 3.2-2.5c.8-1.4.9-2.7.6-4.2l-.5-2.5a5.3 5.3 0 0 0-2.5-3.3 5.5 5.5 0 0 0-4.2-.5 5.5 5.5 0 0 0-3.3 2.5 5.8 5.8 0 0 0-.5 4.2zm50.1-132.2l-1.9 1.8c-2.2 2-2 5.6 0 7.7a5.5 5.5 0 0 0 7.7 0l2-1.8c2-2 2-5.6 0-7.7a5.5 5.5 0 0 0-7.8 0zm-23.4-.7v16.2c0 2 3 2 3 0V71.7c0-2-3-2-3 0zm.2 71.3v22.8c0 2 3 2 3 0V143c0-2-3-2-3 0zm0 75v71.7c0 1.9 3 1.9 3 0V218c0-2-3-2-3 0z" fill="#fff"/><path d="M179 134v22.8c0 2 3 2 3 0V134c0-2-3-2-3 0z" fill="#fff"/></svg>