<svg xmlns="http://www.w3.org/2000/svg" width="361" height="361"><path d="M275 281c0 3-3 6-6 6h-58a6 6 0 0 1-6-6V94a6 6 0 0 1 6-6h58a6 6 0 0 1 6 6v187z" fill="none" stroke="#fff" stroke-width="10" stroke-miterlimit="10"/><path d="M207 186h10c7 0 7-10 0-10h-10c-6 0-6 10 0 10z" fill="#fff"/><path d="M287 81c0-4 0-6-3-6H78c-4 0-3 2-3 6s-1 6 3 6h206c3 0 3-2 3-6zM85 281c0 3 3 6 6 6h58a6 6 0 0 0 6-6V94a6 6 0 0 0-6-6H91a6 6 0 0 0-6 6v187z" fill="none" stroke="#fff" stroke-width="10" stroke-miterlimit="10"/><path d="M153 176h-10c-6 0-6 10 0 10h10c7 0 7-10 0-10z" fill="#fff"/></svg>