<svg xmlns="http://www.w3.org/2000/svg" width="361" height="361"><path d="M285 252c1 3-1 5-5 5h-94c-3 0-6-2-7-5l-21-105c-1-3 2-5 5-5h94c3 0 7 2 7 5l21 105z" fill="none" stroke="#fff" stroke-width="10" stroke-miterlimit="10"/><path d="M287 250a7 7 0 0 1-7 7H82a7 7 0 0 1-7-7V123a7 7 0 0 1 7-7h198a7 7 0 0 1 7 7v127z" fill="none" stroke="#fff" stroke-width="10" stroke-miterlimit="10"/><path d="M175 192h6c3 0 5-3 5-5s-2-5-5-5h-6c-3 0-5 2-5 5s2 5 5 5z" fill="#fff"/><path fill="none" stroke="#fff" stroke-width="10" stroke-miterlimit="10" d="M181 117v137m106-134c0 3-3 5-6 5H81c-3 0-6-2-6-5v-9c0-2 3-4 6-4h200c3 0 6 2 6 4v9z"/></svg>