<svg xmlns="http://www.w3.org/2000/svg" width="361" height="361"><path d="M114 204a126 126 0 0 1 127 42c5 6 12-2 7-6a136 136 0 0 0-136-46c-7 2-4 11 2 10z" fill="#fff"/><path d="M114 194h-2c-3 1-5 4-4 7a6 6 0 0 0 3 3l4 1 2-1c3 0 5-4 4-6a6 6 0 0 0-2-4 6 6 0 0 0-5 0zm134 46l-2-2a6 6 0 0 0-7 0 6 6 0 0 0 0 7l1 2a6 6 0 0 0 8 0 6 6 0 0 0 0-8zM179 72v16c0 2 3 2 3 0V72c0-2-3-2-3 0zm0 71v23c0 2 3 2 3 0v-23c0-2-3-2-3 0zm0 75v72c0 2 3 2 3 0v-72c0-2-3-2-3 0z" fill="#fff"/><path d="M179 134v23c0 2 3 2 3 0v-23c0-2-3-2-3 0z" fill="#fff"/><g fill="#fff"><path d="M113 123a126 126 0 0 1 127 43c4 5 11-2 7-7a136 136 0 0 0-137-45c-6 1-3 11 3 9z"/><path d="M113 114h-2c-3 1-5 4-4 7a6 6 0 0 0 2 3l4 1 3-1c3-1 5-4 4-7a6 6 0 0 0-3-3 6 6 0 0 0-4 0zm134 45l-2-1a6 6 0 0 0-8 0 6 6 0 0 0 1 7l1 2a6 6 0 0 0 8 0 6 6 0 0 0 0-8z"/></g></svg>