<svg xmlns="http://www.w3.org/2000/svg" width="361" height="361"><path d="M178.8 70.7v42.6c0 2 3 2 3 0V70.7c0-2-3-2-3 0zm.2 83.4v40.6c0 2 3 2 3 0v-40.6c0-2-3-2-3 0zm0 83.2v52.4c0 1.9 3 1.9 3 0v-52.4c0-1.9-3-1.9-3 0z" fill="#fff"/><path d="M111.7 223.4c15-7.4 29.5-14.7 46.5-15.3 11.1-.3 21.5 2.6 32.2 4.8a99 99 0 0 0 27 1.8 75.8 75.8 0 0 0 31.7-9.8l3.2-1.8c1.2-.7 0 0 .1-.1-2.2.5-4-.5-5.3-3.2-.4-1-.1-1.4-.3-.2-1 7-4.9 19 3.4 23.3 5.7 2.9 10.8-5.8 5-8.7-1.2-.6 1-10.2 1.3-12 .3-2.1.8-4.4-.4-6.4-2.3-3.7-6.3-2.8-9.5-1-9 5-17.7 8.7-28 9.8-21.1 2.2-40.8-7-61.8-6.4-18.2.6-34.2 8.6-50.2 16.6-5.8 2.9-.7 11.5 5 8.6z" fill="#fff"/><path d="M109.2 214l-2.3 1.1a5 5 0 0 0-2.5 3.3 5.5 5.5 0 0 0 .5 4.2 5.5 5.5 0 0 0 3.3 2.5c1.5.4 2.8.1 4.2-.5l2.3-1.1c1.2-.6 2.2-2 2.5-3.3a5.5 5.5 0 0 0-.5-4.2 5.5 5.5 0 0 0-3.3-2.5 5.8 5.8 0 0 0-4.2.6zm144.4 1l-2.4-.8c-1-.4-2.3-.1-3.2.4a4.2 4.2 0 0 0-2 2.5 4.2 4.2 0 0 0 .5 3.2 4.5 4.5 0 0 0 2.5 2l2.4.9c1 .4 2.3 0 3.2-.4a4.2 4.2 0 0 0 2-2.5 4.2 4.2 0 0 0-.5-3.3 4.5 4.5 0 0 0-2.5-2z" fill="#fff"/><g fill="#fff"><path d="M111.4 151.9c15-7.5 29.5-14.7 46.6-15.3 11-.3 21.4 2.6 32.2 4.7a99 99 0 0 0 26.9 1.8 75.8 75.8 0 0 0 31.7-9.7c1-.6 2.1-1.3 3.2-1.8 1.2-.7.1-.1.1-.1-2.2.5-4-.6-5.3-3.2-.4-1 0-1.4-.2-.2-1 7-5 19 3.3 23.2 5.8 3 10.8-5.7 5-8.6-1.1-.6 1-10.2 1.3-12 .3-2.2.9-4.4-.4-6.5-2.2-3.7-6.3-2.7-9.4-1-9 5-17.8 8.7-28.1 9.8-21 2.3-40.8-7-61.8-6.3-18.2.5-34.2 8.6-50.1 16.6-5.8 2.8-.7 11.5 5 8.6z"/><path d="M109 142.5l-2.4 1.1c-1.2.6-2.1 2-2.5 3.3a5.5 5.5 0 0 0 .6 4.2 5.5 5.5 0 0 0 3.2 2.5 6 6 0 0 0 4.2-.6l2.4-1c1.2-.6 2.1-2 2.5-3.3a5.5 5.5 0 0 0-.6-4.2 5.5 5.5 0 0 0-3.2-2.5 5.7 5.7 0 0 0-4.2.5zm144.3 1l-2.4-.9a4 4 0 0 0-3.2.5 4.2 4.2 0 0 0-2 2.5 4.2 4.2 0 0 0 .5 3.2 4.5 4.5 0 0 0 2.5 2l2.4.9c1 .4 2.4 0 3.3-.5a4.2 4.2 0 0 0 1.9-2.5 4.2 4.2 0 0 0-.5-3.2 4.5 4.5 0 0 0-2.5-2z"/></g></svg>