<svg xmlns="http://www.w3.org/2000/svg" width="361" height="361"><path d="M226 106l58 59c4 4 12-3 7-7l-58-59c-5-4-12 3-7 7zm-31 0l59 59c4 4 11-3 7-7l-59-59c-4-4-11 3-7 7zm-29 0l58 59c5 4 12-3 7-7l-58-59c-5-4-12 3-7 7zm-30 0l58 59c4 4 11-3 7-7l-58-59c-5-4-12 3-7 7zm-33 0l58 59c5 4 12-3 7-7l-58-59c-5-4-12 3-7 7zm-31 0l58 59c4 4 12-3 7-7L79 99c-5-4-12 3-7 7z" fill="#fff"/><path d="M282 162v14c0 6 10 6 10 0v-14c0-7-10-7-10 0zm-30 0v14c0 6 10 6 10 0v-14c0-7-10-7-10 0zm-30 0v14c1 6 11 6 11 0v-14c0-7-10-7-10 0zm-30 0v14c0 6 10 6 10 0v-14c0-7-10-7-10 0zm-32 0v14c0 6 10 6 10 0v-14c0-7-10-7-10 0zm-32 0v14c0 6 10 6 10 0v-14c0-7-10-7-10 0z" fill="#fff"/><path d="M264 181v78a6 6 0 0 1-6 6H83a6 6 0 0 1-6-6V146a6 6 0 0 1 6-6h30" fill="none" stroke="#fff" stroke-width="10" stroke-miterlimit="10"/><path d="M165 199h11c7 0 7-10 0-10h-11c-6 0-6 10 0 10z" fill="#fff"/><path fill="none" stroke="#fff" stroke-width="10" stroke-miterlimit="10" d="M171 181v81"/></svg>