<svg xmlns="http://www.w3.org/2000/svg" width="361" height="361"><path d="M117 195c48-5 94 18 120 60 3 5 12 0 8-5a136 136 0 0 0-129-65c-6 1-6 11 0 10z" fill="#fff"/><path d="M119 185h-2a6 6 0 0 0-4 2 6 6 0 0 0 0 8 5 5 0 0 0 4 1h2a6 6 0 0 0 4-2 6 6 0 0 0 0-7 5 5 0 0 0-4-2zm126 65l-2-2v-2a5 5 0 0 0-3-1 6 6 0 0 0-4 1 6 6 0 0 0-2 3v4l2 2v1a5 5 0 0 0 3 2 6 6 0 0 0 4-1 6 6 0 0 0 3-3l-1-4zM179 72v16c0 2 3 2 3 0V72c0-2-3-2-3 0zm0 71v23c0 2 3 2 3 0v-23c0-2-3-2-3 0zm0 75v72c0 2 3 2 3 0v-72c0-2-3-2-3 0z" fill="#fff"/><path d="M179 134v23c0 2 3 2 3 0v-23c0-2-3-2-3 0z" fill="#fff"/><g fill="#fff"><path d="M115 115c48-5 95 18 120 59 4 6 12 1 9-5a136 136 0 0 0-129-64c-6 0-6 10 0 10z"/><path d="M118 105h-3a6 6 0 0 0-3 2 6 6 0 0 0 0 7l3 2h3a6 6 0 0 0 4-2 6 6 0 0 0 0-8 5 5 0 0 0-4-1zm126 64l-2-2a820 820 0 0 0-1-1 6 6 0 0 0-2-1 6 6 0 0 0-4 0 6 6 0 0 0-3 3l1 5 1 2 1 1a6 6 0 0 0 3 1 6 6 0 0 0 4 0 6 6 0 0 0 2-4v-4z"/></g></svg>