<svg xmlns="http://www.w3.org/2000/svg" width="361" height="361"><path d="M175 194h12c6 0 6-10 0-10h-12c-6 0-6 10 0 10z" fill="#fff"/><path fill="none" stroke="#fff" stroke-width="10" stroke-miterlimit="10" d="M181 124v128"/><g stroke="#fff" stroke-width="10" stroke-miterlimit="10"><path d="M280 249a7 7 0 0 1-7 6H88a7 7 0 0 1-7-6V130a7 7 0 0 1 7-7h185a7 7 0 0 1 6 7v119z" fill="none"/><path d="M287 125l-7 1H82l-7-1v-17l7-1h198l7 1v17z" fill="#fff"/></g><path d="M75 143a7102900 7102900 0 0 1 212 0c6 0 6-10 0-10H75c-6 0-6 10 0 10zm0 13l146-2 66-1c6 0 6-10 0-10l-146 2-66 1c-6 0-6 10 0 10z" fill="#fff"/><path d="M75 169l146-4 66-2c6 0 6-10 0-10l-146 5-66 1c-6 1-6 11 0 10z" fill="#fff"/><path d="M75 183l145-8 67-4c6 0 6-10 0-10l-146 9-66 3c-6 1-6 11 0 10z" fill="#fff"/><path d="M75 198l145-14 67-6c6 0 6-10 0-10l-145 14-67 6c-6 1-6 11 0 10z" fill="#fff"/><path d="M203 245l33-58h-8l34 58 4-7h-68c-6 0-6 10 0 10h68a5 5 0 0 0 4-8l-34-58a5 5 0 0 0-8 0l-34 58c-3 6 5 11 9 5z" fill="#fff"/><path d="M236 229a3 3 0 0 1-1 3 4 4 0 0 1-5 0 3 3 0 0 1-2-3l2-2a4 4 0 0 1 5 0 3 3 0 0 1 1 2zm-1-17v6a110 110 0 0 1 0 6h-5l-1-6a66 66 0 0 1 0-6v-7h6v7z" fill="#fff"/></svg>