<svg xmlns="http://www.w3.org/2000/svg" width="361" height="361"><g fill="#fff"><path d="M252.5 165.8a6.3 6.3 0 0 0 6.3 6.4h12.1a6.3 6.3 0 0 0 6.3-6.4v-11.6a6.3 6.3 0 0 0-6.3-6.3h-12.1a6.3 6.3 0 0 0-6.3 6.4v11.5zm-113.8 0a6.3 6.3 0 0 0 6.3 6.4h12.1a6.3 6.3 0 0 0 6.4-6.4v-11.6a6.3 6.3 0 0 0-6.4-6.3h-12a6.3 6.3 0 0 0-6.4 6.4v11.5zm3.4-61.8v-.7l5-19.5c.5-7.4 8-13.7 14.2-13.7h94c6.1 0 13.7 6.3 14.1 13.7l5 19.5v.7c0 8-4.9 14.4-11.2 14.4H153.4c-6.3 0-11.3-6.3-11.3-14.4zm121.8.6l-5-19.4v-.6c0-1.7-2.6-3.8-3.7-4h-93.8c-1.1.2-3.8 2.3-3.8 4v.6l-5 19.4c.2 1.8.8 2.9 1.2 3.3h109c.4-.4 1-1.5 1.1-3.3z"/><path d="M134.1 118.4c0-3 3-5.6 6.6-5.6h135.1c3.6 0 6.5 2.5 6.5 5.6v29.2c0 3.1-2.9 5.6-6.5 5.6H140.7c-3.6 0-6.6-2.5-6.6-5.6v-29.2zm113.4 11.8c0 2.7 2.8 5 6.3 5H272c3.5 0 6.3-2.3 6.3-5V125c0-2.7-2.8-5-6.3-5h-18.2c-3.5 0-6.3 2.3-6.3 5v5.2zm-109 0c0 2.7 2.8 5 6.3 5h18.1c3.5 0 6.4-2.3 6.4-5V125c0-2.7-2.9-5-6.4-5h-18.1c-3.5 0-6.4 2.3-6.4 5v5.2zm42.3 5.2c0 5.3 2.9 9.6 6.4 9.6h42.6c3.5 0 6.3-4.3 6.3-9.6v-6c0-5.3-2.8-9.6-6.3-9.6h-42.6c-3.5 0-6.4 4.3-6.4 9.6v6z"/><path d="M173.7 122.7h69.6v10.5h-69.6zm-1 13.7h69.5v10.5h-69.5z"/></g><path d="M83.5 179.5v105.1c0 9.7 15 9.8 15 .1V179.6c0-9.7-15-9.8-15-.1z" fill="#fff"/><path d="M89 291.8h198.8c2 0 2-3 0-3H89c-2 0-2 3 0 3zm180.8-99.6v88.7c0 6.4 10 6.4 10 0v-88.7c0-6.5-10-6.5-10 0zm-24 .1v88.6c0 6.5 10 6.5 10 0v-88.6c0-6.5-10-6.5-10 0zm-23.9 0v88.6c0 6.5 10 6.5 10 0v-88.6c0-6.5-10-6.5-10 0zm-47.8 0v88.6c0 6.5 10 6.5 10 0v-88.6c0-6.5-10-6.5-10 0zm-24-.1v88.7c0 6.4 10 6.4 10 0v-88.7c0-6.5-10-6.5-10 0zm-23.9.1v88.6c0 6.5 10 6.5 10 0v-88.6c0-6.5-10-6.5-10 0zm-23.9 0v88.6c0 6.5 10 6.5 10 0v-88.6c0-6.5-10-6.5-10 0z" fill="#fff"/><path d="M274.8 275.9H107.3c-6.4 0-6.4 10 0 10h167.4c6.5 0 6.5-10 0-10zm0-89.4H107.3c-6.4 0-6.4 10 0 10h167.4c6.5 0 6.5-10 0-10z" fill="#fff"/><path d="M198 192.3V281c0 6.4 10 6.4 10 0v-88.7c0-6.5-10-6.5-10 0zm84.8-.8V287c0 6.5 10 6.5 10 0v-95.4c0-6.4-10-6.4-10 0z" fill="#fff"/></svg>