<svg xmlns="http://www.w3.org/2000/svg" width="361" height="361"><path d="M226 157a79 79 0 0 1 35-77c5-4 0-13-5-9a89 89 0 0 0-40 86c1 6 11 6 10 0z" fill="#fff"/><path d="M216 155v3a6 6 0 0 0 9 2l2-4v-3a6 6 0 0 0-9-2l-2 4zm38-83l-1 1a6 6 0 0 0-2 4 6 6 0 0 0 2 4 6 6 0 0 0 4 1h1a5 5 0 0 0 3-1l1-1 2-4a6 6 0 0 0-2-4 6 6 0 0 0-4-2h-1a6 6 0 0 0-3 2z" fill="#fff"/><g fill="#fff"><path d="M226 221c-4-30 9-60 35-77 5-3 0-12-5-8a89 89 0 0 0-40 85c1 6 11 6 10 0z"/><path d="M216 219v3a6 6 0 0 0 2 3 6 6 0 0 0 7 0l2-4v-3a6 6 0 0 0-2-2 6 6 0 0 0-7 0l-2 3zm38-82l-1 1a6 6 0 0 0-2 4 6 6 0 0 0 2 3 6 6 0 0 0 4 2h1a5 5 0 0 0 3-2l1-1a6 6 0 0 0 2-4 6 6 0 0 0-2-3 6 6 0 0 0-4-2h-1a5 5 0 0 0-3 1z"/></g><g fill="#fff"><path d="M226 286c-4-31 9-60 35-77 5-4 0-12-5-9a89 89 0 0 0-40 86c1 6 11 6 10 0z"/><path d="M216 284v3a6 6 0 0 0 2 2 6 6 0 0 0 7 0l2-4v-3a6 6 0 0 0-2-2 6 6 0 0 0-7 0l-2 4zm38-83l-1 1-2 4a6 6 0 0 0 6 5h1a6 6 0 0 0 3-1l1-1 2-4a6 6 0 0 0-6-6l-1 1a5 5 0 0 0-3 1z"/></g><path d="M232 120v27c0 2 3 2 3 0v-27c0-2-3-2-3 0zm0 68v24c0 2 3 2 3 0v-24c0-2-3-2-3 0zm0 67v34c0 2 3 2 3 0v-34c0-2-3-2-3 0zm0-184v11c0 2 3 2 3 0V71c0-2-3-2-3 0z" fill="#fff"/><path d="M91 119a4 4 0 0 0 4 4h23a4 4 0 0 0 4-4V95a4 4 0 0 0-4-4H95a4 4 0 0 0-4 4v24z" fill="none" stroke="#fff" stroke-width="10" stroke-miterlimit="10"/><path d="M138 71l-7 7c-2 2-2 5 0 7s5 2 7 0l7-7c2-2 2-5 0-7s-5-2-7 0zm38 31h-34c-6 0-6 10 0 10h34c6 0 6-10 0-10zm-98 41l6-6a5 5 0 0 0-7-7l-6 6c-2 2-2 5 0 7s5 2 7 0zm34 32v-33c0-6-10-6-10 0v34c0 6 10 6 10 0zm48-21l-23-24c-5-4-12 3-7 7l23 24c5 5 12-3 7-7z" fill="#fff"/></svg>