<svg xmlns="http://www.w3.org/2000/svg" width="361" height="361"><path d="M202 246.2c-1.7 3.6-6 6.6-9.7 6.6h-90.9c-3.6 0-5.1-3-3.4-6.6l59.5-127.7c1.7-3.6 6-6.6 9.6-6.6h91c3.5 0 5.1 3 3.4 6.6L202 246.2z" fill="none" stroke="#fff" stroke-width="10" stroke-miterlimit="10"/><path d="M146.3 240.3l-2.9 6.2c-1.1 2.4-.7 5.3 1.8 6.8 2.2 1.3 5.7.7 6.9-1.8l2.8-6.2c1.2-2.4.7-5.3-1.8-6.8-2.2-1.3-5.7-.7-6.8 1.8z" fill="#fff"/><path d="M207.7 264.1c-2 4.5-7.4 8.1-11.8 8.1h-116c-4.4 0-6.3-3.6-4.3-8l78-167.1c2-4.5 7.4-8.1 11.8-8.1h116c4.4 0 6.4 3.6 4.3 8l-78 167.1z" fill="none" stroke="#fff" stroke-width="10" stroke-miterlimit="10"/><path fill="#fff" d="M278 104.3H150.3l8.8-17.3h127.5zM76.3 262.6h127.4v6.4H76.4zM244 120.5h-75c-6.5 0-6.5 10 0 10h75c6.5 0 6.5-10 0-10zm-5.9 12.6H163c-6.5 0-6.5 10 0 10h75c6.5 0 6.5-10 0-10zm-6 12.6h-75.2c-6.4 0-6.4 10 0 10H232c6.5 0 6.5-10 0-10zm-6 12.6h-75.2c-6.4 0-6.4 10 0 10H226c6.5 0 6.5-10 0-10zm-5.5 12.6h-75c-6.5 0-6.5 10 0 10h75c6.5 0 6.5-10 0-10zm-5.9 12.6h-75.1c-6.5 0-6.5 10 0 10h75.1c6.5 0 6.5-10 0-10z"/></svg>