<svg xmlns="http://www.w3.org/2000/svg" width="361" height="361"><path d="M154 282c-3-48 22-94 64-118 6-3 1-11-5-8a136 136 0 0 0-69 126c1 7 11 7 10 0z" fill="#fff"/><path d="M145 280v2a6 6 0 0 0 1 4 6 6 0 0 0 4 2c3 0 6-3 6-6l-1-2a6 6 0 0 0-1-4 6 6 0 0 0-4-2c-3 0-6 3-5 6zm68-124l-2 2a6 6 0 0 0-2 3 6 6 0 0 0 0 4 6 6 0 0 0 3 3 5 5 0 0 0 5-1l2-2a6 6 0 0 0 2-3 6 6 0 0 0-1-4 6 6 0 0 0-3-2 5 5 0 0 0-4 0zm-60 46c-3-48 22-94 64-118 6-3 0-12-5-9-45 26-72 75-69 127 0 6 10 7 10 0z" fill="#fff"/><path d="M143 199v3a6 6 0 0 0 2 4 6 6 0 0 0 4 1c3 0 5-2 5-5v-3a6 6 0 0 0-1-3 6 6 0 0 0-4-2c-3 0-6 2-6 5zm69-123l-2 1a6 6 0 0 0-3 4 6 6 0 0 0 1 4 6 6 0 0 0 3 2 5 5 0 0 0 4 0l2-2a6 6 0 0 0 3-3 6 6 0 0 0-1-4 6 6 0 0 0-3-3 5 5 0 0 0-4 1zm-33-4v16c0 2 3 2 3 0V72c0-2-3-2-3 0zm0 71v23c0 2 3 2 3 0v-23c0-2-3-2-3 0zm0 75v72c0 2 3 2 3 0v-72c0-2-3-2-3 0z" fill="#fff"/><path d="M179 134v23c0 2 3 2 3 0v-23c0-2-3-2-3 0z" fill="#fff"/></svg>