<svg xmlns="http://www.w3.org/2000/svg" width="361" height="361"><path d="M140 166a126 126 0 0 1 70 114c0 7 10 7 10 0 1-52-29-100-75-123-6-3-11 6-5 9z" fill="#fff"/><path d="M147 159l-2-1a6 6 0 0 0-4-1 6 6 0 0 0-4 3c-1 2 0 6 2 7l3 1 4 1a6 6 0 0 0 3-3c2-2 1-6-2-7zm73 121l-1-2a6 6 0 0 0-1-4 6 6 0 0 0-8 0 5 5 0 0 0-1 3v3l1 4a6 6 0 0 0 8 0 5 5 0 0 0 2-4zM179 72v16c0 2 3 2 3 0V72c0-2-3-2-3 0zm0 71v23c0 2 3 2 3 0v-23c0-2-3-2-3 0zm0 75v72c0 2 3 2 3 0v-72c0-2-3-2-3 0z" fill="#fff"/><path d="M179 134v23c0 2 3 2 3 0v-23c0-2-3-2-3 0z" fill="#fff"/><g fill="#fff"><path d="M139 86a126 126 0 0 1 70 114c0 6 10 6 10 0 0-52-29-100-75-123-6-3-11 6-5 9z"/><path d="M146 79l-2-1a6 6 0 0 0-5-1 6 6 0 0 0-3 2c-1 3-1 7 2 8l2 1 5 1a6 6 0 0 0 3-3c1-2 0-6-2-7zm73 121l-1-3a6 6 0 0 0-1-4 6 6 0 0 0-8 0 5 5 0 0 0-2 4l1 3 1 4a6 6 0 0 0 8 0 5 5 0 0 0 2-4z"/></g></svg>