<svg xmlns="http://www.w3.org/2000/svg" width="361" height="361"><path d="M195.7 130.2a79.3 79.3 0 0 1 82.7-15.8c6 2.3 8.6-7.4 2.6-9.6a89.3 89.3 0 0 0-92.4 18.3c-4.7 4.4 2.4 11.5 7 7.1z" fill="#fff"/><path d="M190 122l-1.3 1.2c-2.2 2-2 5.7 0 7.7a5.5 5.5 0 0 0 3.9 1.6c1.5 0 2.8-.6 3.9-1.6l1.2-1.1c2.2-2 2-5.7 0-7.7a5.5 5.5 0 0 0-3.9-1.6c-1.5 0-2.7.6-3.8 1.6zm90.9-17.2l-1.6-.5a5.5 5.5 0 0 0-6.7 3.8 5.5 5.5 0 0 0 3.8 6.7l1.6.5a5.5 5.5 0 0 0 6.7-3.8 5.5 5.5 0 0 0-3.8-6.7zM195.7 195a79.3 79.3 0 0 1 82.7-15.8c6 2.3 8.6-7.4 2.6-9.7a89.3 89.3 0 0 0-92.4 18.4c-4.7 4.4 2.4 11.4 7 7z" fill="#fff"/><path d="M190 187l-1.3 1c-2.2 2-2 5.7 0 7.7a5.5 5.5 0 0 0 3.9 1.6c1.5 0 2.8-.6 3.9-1.6l1.2-1c2.2-2 2-5.8 0-7.8a5.5 5.5 0 0 0-3.9-1.6c-1.5 0-2.7.6-3.8 1.6zm90.9-17.4l-1.6-.4a5.5 5.5 0 0 0-6.7 3.8 5.5 5.5 0 0 0 3.8 6.7l1.6.4a5.5 5.5 0 0 0 6.7-3.8 5.5 5.5 0 0 0-3.8-6.7z" fill="#fff"/><g fill="#fff"><path d="M195.7 259.9a79.3 79.3 0 0 1 82.7-15.8c6 2.3 8.6-7.4 2.6-9.6a89.3 89.3 0 0 0-92.4 18.3c-4.7 4.4 2.4 11.5 7 7.1z"/><path d="M190 251.8l-1.3 1c-2.2 2-2 5.8 0 7.8a5.5 5.5 0 0 0 3.9 1.6c1.5 0 2.8-.6 3.9-1.6l1.2-1.1c2.2-2 2-5.7 0-7.7a5.5 5.5 0 0 0-3.9-1.6c-1.5 0-2.7.6-3.8 1.6zm90.9-17.3l-1.6-.5a5.5 5.5 0 0 0-6.7 3.8 5.5 5.5 0 0 0 3.8 6.7l1.6.5a5.5 5.5 0 0 0 6.7-3.8 5.5 5.5 0 0 0-3.8-6.7z"/></g><path d="M232 71.7v19c0 1.8 3 1.8 3 0v-19c0-1.9-3-1.9-3 0zm0 47v39.6c0 2 3 2 3 0v-39.5c0-2-3-2-3 0zm0 65.6v38.3c0 2 3 2 3 0v-38.3c0-2-3-2-3 0zm0 64v41c0 1.8 3 1.8 3 0v-41c0-2-3-2-3 0z" fill="#fff"/><path d="M90.7 118.6a4 4 0 0 0 4 4h23.4a4 4 0 0 0 4.1-4V95.2a4 4 0 0 0-4-4H94.7a4 4 0 0 0-4 4v23.4z" fill="none" stroke="#fff" stroke-width="10" stroke-miterlimit="10"/><path d="M137.8 70.8l-7.2 7.2c-2 1.9-2 5.1 0 7s5.1 2 7 0l7.3-7.2c1.9-1.9 1.9-5.1 0-7s-5.2-2-7.1 0zm37.9 30.9h-33.5c-6.4 0-6.4 10 0 10h33.5c6.5 0 6.5-10 0-10zm-97.3 41.6l6-6a5 5 0 0 0-7-7l-6.1 6c-2 1.9-2 5.1 0 7s5.1 2 7 0zm33.6 32.1V142c0-6.4-10-6.4-10 0v33.5c0 6.5 10 6.5 10 0zm48.3-21.4l-23.7-23.7c-4.5-4.6-11.6 2.5-7 7l23.7 23.8c4.5 4.5 11.6-2.6 7-7.1z" fill="#fff"/></svg>