<svg xmlns="http://www.w3.org/2000/svg" width="361" height="361"><path d="M280 249a7 7 0 0 1-7 6H88a7 7 0 0 1-7-6V130a7 7 0 0 1 7-7h185a7 7 0 0 1 6 7v119z" fill="none" stroke="#fff" stroke-width="10" stroke-miterlimit="10"/><path d="M175 194h12c6 0 6-10 0-10h-12c-6 0-6 10 0 10z" fill="#fff"/><path fill="none" stroke="#fff" stroke-width="10" stroke-miterlimit="10" d="M181 124v128"/><path d="M287 125l-7 1H82l-7-1v-17l7-1h198l7 1v17z" fill="#fff" stroke="#fff" stroke-width="10" stroke-miterlimit="10"/><path d="M75 143a7102900 7102900 0 0 1 212 0c6 0 6-10 0-10H75c-6 0-6 10 0 10zm0 13a7102900 7102900 0 0 1 212 0c6 0 6-10 0-10H75c-6 0-6 10 0 10zm0 13a7102900 7102900 0 0 1 212 0c6 0 6-10 0-10H75c-6 0-6 10 0 10zm0 13h212c6 0 6-10 0-10H75c-6 0-6 10 0 10zm0 13h212c7 0 7-10 0-10H75c-6 0-6 10 0 10zm0 13h212c7 0 7-10 0-10H75c-6 0-6 10 0 10z" fill="#fff"/></svg>