<svg xmlns="http://www.w3.org/2000/svg" width="361" height="361"><path d="M232.8 281a6 6 0 0 1-6 6h-93a6.1 6.1 0 0 1-6-6V80.7a6 6 0 0 1 6-6.1h93a6.1 6.1 0 0 1 6 6.1V281z" fill="none" stroke="#fff" stroke-width="10" stroke-miterlimit="10"/><path d="M231.2 280a6 6 0 0 0-6-6h-91.4a6 6 0 0 0-6 6v.7a6 6 0 0 0 6 6h91.4a6 6 0 0 0 6-6v-.7z" fill="none" stroke="#fff" stroke-width="10" stroke-miterlimit="10"/><path d="M127.8 185.7h11.6c6.5 0 6.5-10 0-10h-11.6c-6.4 0-6.4 10 0 10zm31-2.1c-.1.5-1.6.3 0 .3h46.9c1.7 0-.2 0-.2-1.1V222c0-.8 1.9-1.1.5-1.1h-47.2c-1.8 0 .2.8.2 1v-39.4c0-4.5-7-4.5-7 0v36.7c0 4.6 1.2 8.7 6.8 8.7h40.5c3.8 0 11.3 1.2 12.8-3.7 1.3-4.6.4-10.3.4-15v-22.5c0-4.6-.2-9.9-6.3-9.9H165c-4.9 0-11.3-1.2-13 4.8-1.3 4.4 5.5 6.2 6.7 1.9z" fill="#fff"/><path d="M156.1 218h27c4.6 0 4.6-7 0-7h-27c-4.5 0-4.5 7 0 7zm1.3-11h25.8c4.5 0 4.5-7 0-7h-25.8c-4.5 0-4.5 7 0 7zm0-10.8h25.8c4.5 0 4.5-7 0-7h-25.8c-4.5 0-4.5 7 0 7zm10.3-17.7V166c0-.8 0 .5-.1.7l1.4-2.2a33 33 0 0 1 3.6-4.3c1.4-1.4-3.6.3-.5.3h19.5c3 0-2-1.6-.6-.3a29.9 29.9 0 0 1 5 6.5v-.7 12.4c0 6.4 10 6.4 10 0v-10.8c0-4-1.5-6.6-4-9.8-2.2-3-5.2-7.3-9.4-7.3H171c-4.2 0-7.1 4.3-9.4 7.3-2.4 3.2-4 5.8-4 9.8v10.8c0 6.4 10 6.4 10 0z" fill="#fff"/></svg>