<svg xmlns="http://www.w3.org/2000/svg" width="361" height="361"><path d="M179 71v59c0 2 3 2 3 0V71c0-2-3-2-3 0zm0 88v41c0 2 3 2 3 0v-41c0-2-3-2-3 0zm0 72v59c0 2 3 2 3 0v-59c0-2-3-2-3 0zm-9-78l21-1c7 0 7-10 0-10l-21 1c-7 0-7 10 0 10z" fill="#fff"/><path d="M194 151l56-39c5-3 0-12-5-8l-56 39c-5 3 0 12 5 8zm-77 40l55-39c6-4 1-12-5-9l-55 39c-5 4 0 13 5 9z" fill="#fff"/><path d="M115 181l-2 2a6 6 0 0 0-3 3 6 6 0 0 0 1 4 6 6 0 0 0 3 3l4-1 2-1a6 6 0 0 0 3-4 6 6 0 0 0-1-4 6 6 0 0 0-3-2 5 5 0 0 0-4 0zm129-77l-2 1a6 6 0 0 0-2 3 6 6 0 0 0 0 5 6 6 0 0 0 4 2h4l2-2a6 6 0 0 0 2-3 6 6 0 0 0 0-4 6 6 0 0 0-4-3l-4 1zm-75 115h22c6-1 6-11 0-10h-22c-6 0-6 10 0 10z" fill="#fff"/><path d="M194 218l55-39c5-4 0-12-5-9l-55 39c-5 4 0 13 5 9zm-77 40l55-39c5-4 0-13-5-9l-55 39c-5 4 0 12 5 9z" fill="#fff"/><path d="M115 248l-3 1a6 6 0 0 0-2 4 6 6 0 0 0 0 4 6 6 0 0 0 4 2h4l2-2a6 6 0 0 0 3-3 6 6 0 0 0-1-4 6 6 0 0 0-3-3 5 5 0 0 0-4 1zm129-78l-2 2a6 6 0 0 0-3 3 6 6 0 0 0 1 4 6 6 0 0 0 3 3l4-1 2-1a6 6 0 0 0 3-3 6 6 0 0 0-1-5 6 6 0 0 0-3-2h-4z" fill="#fff"/></svg>