<svg xmlns="http://www.w3.org/2000/svg" width="361" height="361"><path d="M122 249a126 126 0 0 1 124-49c6 2 9-8 2-9a137 137 0 0 0-135 53c-4 5 5 10 9 5z" fill="#fff"/><path d="M115 242l-1 2-1 5a6 6 0 0 0 3 3 6 6 0 0 0 4 0h1a6 6 0 0 0 2-2l2-2v-4a6 6 0 0 0-2-4 6 6 0 0 0-5 0h-1a6 6 0 0 0-2 2zm132-51h-3a5 5 0 0 0-4 1 6 6 0 0 0 0 8 6 6 0 0 0 4 2h3a5 5 0 0 0 4-2 6 6 0 0 0 0-8 6 6 0 0 0-4-1zM179 72v16c0 2 3 2 3 0V72c0-2-3-2-3 0zm0 71v23c0 2 3 2 3 0v-23c0-2-3-2-3 0zm0 75v72c0 2 3 2 3 0v-72c0-2-3-2-3 0z" fill="#fff"/><g fill="#fff"><path d="M121 169a126 126 0 0 1 123-49c7 1 9-8 3-9a137 137 0 0 0-135 53c-4 5 5 10 9 5z"/><path d="M114 162l-2 2a5 5 0 0 0 0 4 6 6 0 0 0 2 4 6 6 0 0 0 5 0l1-1a6 6 0 0 0 2-1l1-2 1-5a6 6 0 0 0-3-3 6 6 0 0 0-4 0h-1a6 6 0 0 0-2 2zm132-51h-3a5 5 0 0 0-4 1 6 6 0 0 0 0 8 6 6 0 0 0 4 1l3 1a5 5 0 0 0 3-2 6 6 0 0 0 0-8 6 6 0 0 0-3-1z"/></g><path d="M179 134v23c0 2 3 2 3 0v-23c0-2-3-2-3 0z" fill="#fff"/></svg>