<svg xmlns="http://www.w3.org/2000/svg" width="361" height="361"><path d="M178.8 70.7v59.5c0 1.9 3 1.9 3 0V70.7c0-2-3-2-3 0zm.2 88.4v40.6c0 2 3 2 3 0v-40.6c0-2-3-2-3 0zm0 71.6v59c0 1.9 3 1.9 3 0v-59c0-2-3-2-3 0zm-5-73l18-11.7c5.3-3.6.3-12.2-5-8.7l-18 11.8c-5.4 3.5-.4 12.2 5 8.6z" fill="#fff"/><path d="M194.7 142.6l26-62.4c2.6-6-7.1-8.5-9.6-2.7l-26 62.5c-2.5 6 7.2 8.5 9.6 2.6zm-44.4 74.5l26-62.4c2.5-6-7.2-8.5-9.6-2.7l-26 62.5c-2.5 6 7.1 8.5 9.6 2.6z" fill="#fff"/><path d="M142.9 210.8l-1 2.3-.6 1.3a5.5 5.5 0 0 0 0 3 5.5 5.5 0 0 0 2.5 3.2 5.5 5.5 0 0 0 4.2.5c1.2-.3 2.7-1.2 3.2-2.5l1-2.3.6-1.3c.3-1 .3-2 0-3a5.5 5.5 0 0 0-2.5-3.2 5.5 5.5 0 0 0-4.2-.5c-1.2.3-2.7 1.2-3.2 2.5zm68-133l-.9 2.4c-.5 1.3-.1 3 .6 4.2a5.5 5.5 0 0 0 3.2 2.5 5.5 5.5 0 0 0 4.2-.6l1.1-.8a5.4 5.4 0 0 0 1.4-2.4l1-2.4c.5-1.3.1-3-.6-4.2a5.5 5.5 0 0 0-3.2-2.5 5.5 5.5 0 0 0-4.2.6l-1.1.8a5.4 5.4 0 0 0-1.4 2.4zm-37.2 146.5l17.8-11.7c5.4-3.5.4-12.2-5-8.7l-17.9 11.8c-5.3 3.5-.3 12.2 5 8.6z" fill="#fff"/><path d="M194.3 209.2l26.1-62.4c2.5-6-7.2-8.5-9.6-2.6l-26.1 62.4c-2.5 6 7.2 8.5 9.7 2.6zM150 283.7l26-62.4c2.6-6-7.1-8.5-9.6-2.6l-26 62.4c-2.5 6 7.2 8.5 9.6 2.7z" fill="#fff"/><path d="M142.5 277.4l-1 2.3-.6 1.3a5.5 5.5 0 0 0 0 3 5.5 5.5 0 0 0 2.5 3.2 5.5 5.5 0 0 0 4.2.5 5 5 0 0 0 3.3-2.5l1-2.3.6-1.3c.2-1 .2-2 0-3a5.5 5.5 0 0 0-2.5-3.2 5.5 5.5 0 0 0-4.2-.5c-1.3.3-2.8 1.3-3.3 2.5zm68.1-133l-1 2.4c-.5 1.3 0 3 .6 4.2a5.5 5.5 0 0 0 3.2 2.5 5.5 5.5 0 0 0 4.2-.5l1.1-.9a5.4 5.4 0 0 0 1.4-2.4l1-2.4c.5-1.2.1-3-.5-4.2a5.5 5.5 0 0 0-3.3-2.5 5.5 5.5 0 0 0-4.2.6l-1 .8a5.4 5.4 0 0 0-1.5 2.4z" fill="#fff"/></svg>