<svg xmlns="http://www.w3.org/2000/svg" width="361" height="361"><path d="M254 241v-37c0-4 0-4 5-4 3 0 3 1 3 4v37c0 5 7 5 7 0v-41c0-5-6-7-10-7-5 0-12 1-12 8v41c0 4 7 4 7 0z" fill="#fff"/><path d="M241 265v-53l1-2h5c3 0 0 1 0-1v43c0 4 7 4 7 0v-43c0-7-10-6-14-5-7 1-6 9-6 14v47c0 4 7 4 7 0zm28-16v-43c0 2-3 2 0 2h5v41c0 5 7 5 7 0v-40c0-7-6-8-11-8-4 0-8 0-8 6v42c0 5 7 5 7 0z" fill="#fff"/><path d="M281 254v-35s-2 1 0 1h3l1 8v60c0 5 7 5 7 0v-64c0-6-2-10-8-11-5-1-10 1-10 7v34c0 5 7 5 7 0zm-50 33l-11-40c0-2-2-3 1-4 1 0 4-2 5-1l1 4 7 20c2 4 8 2 7-2l-8-23a9 9 0 0 0-11-6c-5 1-10 3-10 9 1 8 4 15 6 22l6 23c1 4 8 2 6-2z" fill="#fff"/><path d="M239 188a5 5 0 0 1-5 5H86a5 5 0 0 1-5-5V93a5 5 0 0 1 5-5h148a5 5 0 0 1 5 5v95z" fill="none" stroke="#fff" stroke-width="10" stroke-miterlimit="10"/><path d="M156 145h9c6 0 6-10 0-10h-9c-7 0-7 10 0 10z" fill="#fff"/><path fill="none" stroke="#fff" stroke-width="10" stroke-miterlimit="10" d="M160 88v103"/><path d="M245 89l-6 1H81l-6-1V76l6-1h158l6 1v13z" fill="#fff" stroke="#fff" stroke-width="10" stroke-miterlimit="10"/><path d="M98 193V85c0-4-7-4-7 0v108c0 5 7 5 7 0zm14 0V85c0-4-7-4-7 0v108c0 5 7 5 7 0zm15 0V85c0-4-7-4-7 0v108c0 5 7 5 7 0zm15 0V85c0-4-7-4-7 0v108c0 5 7 5 7 0zm14 0V85c0-4-7-4-7 0v108c0 5 7 5 7 0zm15 0V85c0-4-7-4-7 0v108c0 5 7 5 7 0zm15 0V85c0-4-7-4-7 0v108c0 5 7 5 7 0z" fill="#fff"/></svg>