<svg xmlns="http://www.w3.org/2000/svg" width="361" height="361"><path d="M168.2 281c0 3.3 2.7 6.1 6 6.1h93a6.1 6.1 0 0 0 6-6.2V94a6 6 0 0 0-6-6.2h-93a6.1 6.1 0 0 0-6 6.1V281z" fill="none" stroke="#fff" stroke-width="10" stroke-miterlimit="10"/><path d="M271.2 175.7h-10c-6.5 0-6.5 10 0 10h10c6.4 0 6.4-10 0-10z" fill="#fff"/><path d="M74.5 80.7c0-3.4-.3-6 3-6H284c3.3 0 3 2.6 3 6v.6c0 3.4.3 6-3 6H77.5c-3.3 0-3-2.6-3-6v-.6z" fill="none" stroke="#fff" stroke-width="10" stroke-miterlimit="10"/><path d="M203.8 287.1h76.5a6.1 6.1 0 0 0 6-6.2V81a6 6 0 0 0-6-6.2h-76.1" fill="none" stroke="#fff" stroke-width="10" stroke-miterlimit="10"/></svg>