<svg xmlns="http://www.w3.org/2000/svg" width="361" height="361"><path d="M178.8 70.7v59.5c0 1.9 3 1.9 3 0V70.7c0-2-3-2-3 0zm.2 88.4v40.6c0 2 3 2 3 0v-40.6c0-2-3-2-3 0zm0 71.6v59c0 1.9 3 1.9 3 0v-59c0-2-3-2-3 0zm-10-81.4l20.6 5.4c6.2 1.7 8.9-8 2.6-9.6l-20.6-5.4c-6.3-1.6-9 8-2.7 9.6z" fill="#fff"/><path d="M192.8 154.9l63.9-22.4c6-2.1 3.4-11.8-2.7-9.6l-63.8 22.4c-6 2-3.4 11.7 2.7 9.6zm-85 16.8l63.8-22.4c6-2 3.4-11.7-2.7-9.6l-63.8 22.4c-6 2.1-3.5 11.8 2.6 9.6z" fill="#fff"/><path d="M108 161.7l-2.4.8a5.7 5.7 0 0 0-3.2 2.5 5.5 5.5 0 0 0-.6 4.2c.8 2.8 4 4.7 6.7 3.8l2.5-.8a5.7 5.7 0 0 0 3.2-2.5 5.5 5.5 0 0 0 .6-4.2c-.8-2.7-3.9-4.7-6.7-3.8zm145.8-38.8l-2.4.9a5.8 5.8 0 0 0-3.3 2.5 5.5 5.5 0 0 0-.5 4.2 5.5 5.5 0 0 0 2.5 3.2 5.3 5.3 0 0 0 4.2.6l2.4-.9a5.8 5.8 0 0 0 3.2-2.5 5.5 5.5 0 0 0 .6-4.2 5.5 5.5 0 0 0-2.5-3.3 5.3 5.3 0 0 0-4.2-.5zm-85.2 93l20.6 5.5c6.2 1.6 9-8 2.7-9.7l-20.7-5.4c-6.2-1.6-8.9 8-2.6 9.7z" fill="#fff"/><path d="M192.5 221.5l63.8-22.4c6-2 3.5-11.8-2.6-9.6l-63.9 22.4c-6 2.1-3.4 11.8 2.7 9.6zm-85.1 16.9l63.8-22.4c6-2.2 3.5-11.8-2.6-9.7l-63.9 22.4c-6 2.1-3.4 11.8 2.7 9.7z" fill="#fff"/><path d="M107.7 228.3l-2.4.8a5.7 5.7 0 0 0-3.3 2.5 5.5 5.5 0 0 0-.5 4.2c.7 2.8 3.8 4.8 6.7 3.8l2.4-.8a5.7 5.7 0 0 0 3.3-2.5 5.5 5.5 0 0 0 .5-4.2c-.7-2.7-3.9-4.7-6.7-3.8zm145.7-38.8l-2.4.9a5.8 5.8 0 0 0-3.3 2.5 5.5 5.5 0 0 0-.5 4.2 5.5 5.5 0 0 0 2.5 3.2 5.3 5.3 0 0 0 4.2.6l2.4-.9a5.8 5.8 0 0 0 3.3-2.5 5.5 5.5 0 0 0 .5-4.2 5.5 5.5 0 0 0-2.5-3.2 5.3 5.3 0 0 0-4.2-.6z" fill="#fff"/></svg>