<svg xmlns="http://www.w3.org/2000/svg" width="361" height="361"><g fill="#fff"><path d="M110 166a6 6 0 0 1-6 6H92a6 6 0 0 1-6-6v-12a6 6 0 0 1 6-6h12a6 6 0 0 1 6 6v12zm114 0a6 6 0 0 1-6 6h-12a6 6 0 0 1-7-6v-12a6 6 0 0 1 7-6h12a6 6 0 0 1 6 6v12zm-15-48H101c-7 0-12-6-12-14v-1l5-19c1-8 8-14 15-14h94c6 0 13 6 14 14l5 19v1c0 8-5 14-12 14zm-109-10h109l1-3-5-20c0-2-2-4-4-4h-93c-1 0-4 2-4 4l-5 20a7 7 0 0 0 1 3z"/><path d="M229 148c0 3-3 5-7 5H87c-4 0-6-2-6-5v-30c0-3 3-5 6-5h135c4 0 7 2 7 5v30zm-114-23c0-3-2-5-6-5H91c-3 0-6 2-6 5v5c0 3 2 5 6 5h18c4 0 6-2 6-5v-5zm109 0c0-3-2-5-6-5h-18c-4 0-6 2-6 5v5c0 3 2 5 6 5h18c4 0 6-2 6-5v-5zm-42 4c0-5-3-9-6-9h-43c-3 0-6 4-6 9v6c0 6 3 10 6 10h43c3 0 6-4 6-10v-6z"/><path d="M120 123h69v10h-69zm1 13h69v11h-69z"/></g><path d="M264 180v105c0 9 15 9 15 0V180c0-10-15-10-15-1z" fill="#fff"/><path d="M274 289H75c-2 0-2 3 0 3h199c2 0 2-3 0-3zm-40-97v89c0 6 10 6 10 0v-89c0-6-10-6-10 0zm24 0v89c0 6 10 6 10 0v-89c0-6-10-6-10 0zm24 0v89c0 6 10 6 10 0v-89c0-6-10-6-10 0z" fill="#fff"/><path d="M239 286h49c6 0 6-10 0-10h-49c-6 0-6 10 0 10zm0-90h49c6 0 6-10 0-10h-49c-6 0-6 10 0 10zm-169-5v96c0 7 10 7 10 0v-95c0-7-10-7-10 0z" fill="#fff"/></svg>