<svg xmlns="http://www.w3.org/2000/svg" width="361" height="361"><path d="M179 71v59c0 2 3 2 3 0V71c0-2-3-2-3 0zm0 88v41c0 2 3 2 3 0v-41c0-2-3-2-3 0zm0 72v59c0 2 3 2 3 0v-59c0-2-3-2-3 0zm-9-80l21 3c6 0 6-10 0-10l-21-3c-6-1-6 9 0 10z" fill="#fff"/><path d="M194 153l60-31c6-3 1-12-5-9l-60 31c-5 3 0 12 5 9zm-82 28l60-31c6-3 1-11-5-8l-60 31c-5 3 0 11 5 8z" fill="#fff"/><path d="M110 172l-2 1a5 5 0 0 0-3 3 6 6 0 0 0 1 5 6 6 0 0 0 3 2l4-1h3a5 5 0 0 0 2-4 6 6 0 0 0 0-4 6 6 0 0 0-4-2 6 6 0 0 0-4 0zm139-59l-2 1c-3 2-4 6-2 8a6 6 0 0 0 3 2h4l3-1c2-2 3-5 2-8a6 6 0 0 0-4-2 6 6 0 0 0-4 0zm-79 105l21 2c6 1 6-9 0-10l-21-2c-7-1-7 9 0 10z" fill="#fff"/><path d="M194 220l60-31c6-3 1-12-5-9l-60 31c-6 3-1 12 5 9zm-82 28l60-31c6-3 1-12-5-9l-60 31c-6 3-1 12 5 9z" fill="#fff"/><path d="M110 239l-3 1a5 5 0 0 0-2 3 6 6 0 0 0 1 4 6 6 0 0 0 3 3l4-1 2-1a5 5 0 0 0 3-3 6 6 0 0 0-1-4 6 6 0 0 0-3-3 6 6 0 0 0-4 1zm139-59l-3 1c-2 2-3 5-2 8a6 6 0 0 0 4 2h4l2-2c3-1 4-5 2-7a6 6 0 0 0-3-2 6 6 0 0 0-4 0z" fill="#fff"/></svg>