<svg xmlns="http://www.w3.org/2000/svg" width="361" height="361"><path d="M121 187c49 2 92 32 111 76 2 6 11 1 8-5a136 136 0 0 0-119-81c-6-1-6 9 0 10z" fill="#fff"/><path d="M124 177h-3c-3 0-5 3-5 5a5 5 0 0 0 2 4 6 6 0 0 0 3 2h3c3 0 5-3 5-5a5 5 0 0 0-1-4 6 6 0 0 0-4-2zm116 81l-1-3a6 6 0 0 0-8-1 6 6 0 0 0-2 7l2 2a6 6 0 0 0 7 2 6 6 0 0 0 2-7zM179 72v16c0 2 3 2 3 0V72c0-2-3-2-3 0zm0 71v23c0 2 3 2 3 0v-23c0-2-3-2-3 0zm0 75v72c0 2 3 2 3 0v-72c0-2-3-2-3 0z" fill="#fff"/><path d="M179 134v23c0 2 3 2 3 0v-23c0-2-3-2-3 0z" fill="#fff"/><g fill="#fff"><path d="M120 106c48 2 91 32 111 77 2 5 11 0 8-5a136 136 0 0 0-119-82c-6 0-6 10 0 10z"/><path d="M123 97h-3c-3 0-5 2-5 5a6 6 0 0 0 1 4 6 6 0 0 0 4 2h3c3 0 5-3 5-6a6 6 0 0 0-1-4 6 6 0 0 0-4-1zm116 81l-1-3a6 6 0 0 0-8-2 6 6 0 0 0-2 8l1 2a6 6 0 0 0 8 2 6 6 0 0 0 2-7z"/></g></svg>