<svg xmlns="http://www.w3.org/2000/svg" width="361" height="361"><path d="M239 188a5.3 5.3 0 0 1-5.3 5.3H86a5.3 5.3 0 0 1-5.3-5.3V93a5.3 5.3 0 0 1 5.3-5.3h147.8a5.3 5.3 0 0 1 5.3 5.2v95z" fill="none" stroke="#fff" stroke-width="10" stroke-miterlimit="10"/><path d="M155.4 145.3h9.4c6.5 0 6.5-10 0-10h-9.4c-6.5 0-6.5 10 0 10z" fill="#fff"/><path fill="none" stroke="#fff" stroke-width="10" stroke-miterlimit="10" d="M160 88v102.7"/><path d="M244.8 88.8c0 .4-2.6.7-5.7.7H80.8c-3.1 0-5.7-.3-5.7-.7V75.5c0-.4 2.6-.7 5.7-.7h158.3c3.1 0 5.7.3 5.7.7v13.3z" fill="#fff" stroke="#fff" stroke-width="10" stroke-miterlimit="10"/><path d="M75.4 103.2H245c4.5 0 4.5-7 0-7H75.4c-4.5 0-4.5 7 0 7zm0 10.4H245c4.5 0 4.5-7 0-7H75.4c-4.5 0-4.5 7 0 7zm0 10.4H245c4.5 0 4.5-7 0-7H75.4c-4.5 0-4.5 7 0 7zm0 10.4H245c4.5 0 4.5-7 0-7H75.4c-4.5 0-4.5 7 0 7zm132 154.9L249 217h-8.6a4632061 4632061 0 0 0 41.7 72.2l4.3-7.6H203c-6.4 0-6.4 10 0 10h83.4a5 5 0 0 0 4.3-7.5L249 212a5 5 0 0 0-8.6 0l-41.7 72.2c-3.2 5.6 5.4 10.6 8.6 5z" fill="#fff"/><path d="M249.5 270.2c0 1.4-.5 2.6-1.5 3.4a5.2 5.2 0 0 1-6.4 0 4.2 4.2 0 0 1-1.4-3.4c0-1.5.5-2.6 1.4-3.4a4.8 4.8 0 0 1 6.5 0c.9.8 1.4 1.9 1.4 3.4zm-.7-21.7a88 88 0 0 1-1 14.6H242l-.8-7a81.1 81.1 0 0 1-.3-7.6v-8.9h8v8.9z" fill="#fff"/></svg>