<svg xmlns="http://www.w3.org/2000/svg" width="361" height="361"><path d="M178.8 70.7v59.5c0 1.9 3 1.9 3 0V70.7c0-2-3-2-3 0zm.2 88.4v40.6c0 2 3 2 3 0v-40.6c0-2-3-2-3 0zm0 71.6v59c0 1.9 3 1.9 3 0v-59c0-2-3-2-3 0zM169 146l18.4 10.9c5.5 3.3 10.6-5.4 5-8.6l-18.3-11c-5.6-3.2-10.6 5.4-5 8.7z" fill="#fff"/><path d="M190.5 158l67.5-4c6.4-.4 6.4-10.4 0-10l-67.5 4c-6.4.3-6.5 10.3 0 10zm-86.5-7.4l67.6-3.9c6.4-.4 6.4-10.4 0-10l-67.6 4c-6.4.3-6.4 10.3 0 10z" fill="#fff"/><path d="M107 141.1h-2.6a5.5 5.5 0 0 0-5.4 5.5c0 3 2.5 5.6 5.4 5.5l2.6-.1a5.5 5.5 0 0 0 5.5-5.4c0-3-2.5-5.6-5.5-5.5zm150.8 2.8l-2.6.2c-1.5.1-2.8.5-3.9 1.6a5.5 5.5 0 0 0-1.6 3.9c0 2.8 2.5 5.6 5.5 5.4l2.5-.2a5.7 5.7 0 0 0 4-1.6 5.5 5.5 0 0 0 1.5-3.8c0-2.8-2.5-5.7-5.4-5.5zm-89.1 68.7l18.3 11c5.6 3.2 10.6-5.4 5-8.7L173.8 204c-5.5-3.3-10.6 5.4-5 8.6z" fill="#fff"/><path d="M190.1 224.5l67.5-3.9c6.4-.4 6.5-10.4 0-10l-67.5 4c-6.4.3-6.4 10.3 0 10zm-86.4-7.2l67.5-4c6.4-.4 6.4-10.4 0-10l-67.5 4c-6.5.3-6.5 10.3 0 10z" fill="#fff"/><path d="M106.6 207.7l-2.5.1a5.5 5.5 0 0 0-5.5 5.5c0 2.8 2.5 5.5 5.5 5.4h2.5a5.5 5.5 0 0 0 5.5-5.5c0-3-2.5-5.6-5.5-5.5zm150.8 2.9l-2.6.1c-1.5.1-2.8.6-3.8 1.6a5.5 5.5 0 0 0-1.6 3.9c0 2.8 2.5 5.6 5.4 5.4l2.6-.1a5.7 5.7 0 0 0 3.9-1.6 5.5 5.5 0 0 0 1.5-3.9c0-2.8-2.4-5.6-5.4-5.4z" fill="#fff"/></svg>