<svg xmlns="http://www.w3.org/2000/svg" width="361" height="361"><path d="M178.8 70.7v42.6c0 2 3 2 3 0V70.7c0-2-3-2-3 0zm.2 83.4v40.6c0 2 3 2 3 0v-40.6c0-2-3-2-3 0zm0 83.2v52.4c0 1.9 3 1.9 3 0v-52.4c0-1.9-3-1.9-3 0zm-65.6-5c13.9-9.2 27.4-18.2 44-21.1 10.8-2 21.5-.5 32.3.5 9.3.9 18.7.4 27.9-1.3a73.8 73.8 0 0 0 30.3-13.5l3-2.2c1-.8-.1 0-.1 0-3 0-4.8-1-5.5-3.1-.4-1.3-.1-1.4-.2 1-.1 7.6-2.2 18.8 6.9 22.1 6 2.2 8.7-7.5 2.6-9.7.8.8 1 .6.4-.5-.3-1.2-.1-2.7-.1-3.9l.2-8c0-2.1.1-4.8-1.6-6.2-3-2.6-6.1-1.5-9 .6a73 73 0 0 1-28.5 13.5c-20.3 4.5-40.7-2.2-61.2 1-17.4 2.8-32 12.6-46.4 22.1-5.4 3.5-.4 12.2 5 8.6z" fill="#fff"/><path d="M110.9 222.5l-2.2 1.4a5.5 5.5 0 0 0-2 7.5c1.5 2.5 5 3.5 7.5 2l2.2-1.4a5.5 5.5 0 0 0 2-7.5 5.6 5.6 0 0 0-7.5-2zm143.4-16l-2.5-.7a4.3 4.3 0 0 0-5.2 3c-.6 2.1.8 4.5 3 5.1l2.5.6c2.2.6 4.5-.7 5.1-2.9.6-2.2-.7-4.6-3-5.2z" fill="#fff"/><g fill="#fff"><path d="M113.2 160.7c13.8-9.2 27.3-18.1 44-21 10.8-2 21.5-.5 32.2.5 9.3.9 18.7.4 28-1.3a73.8 73.8 0 0 0 30.2-13.6l3-2.2c1.1-.7-.1 0 0 0-3 .1-4.9-.9-5.6-3-.3-1.3 0-1.4-.1 1-.2 7.6-2.3 18.8 6.8 22 6.1 2.2 8.7-7.4 2.7-9.6.8.8 1 .6.4-.6-.3-1.2-.2-2.6-.2-3.8 0-2.7.2-5.4.3-8 0-2.1 0-4.8-1.7-6.3-3-2.5-6.1-1.5-9 .6a73 73 0 0 1-28.4 13.6c-20.3 4.4-40.8-2.2-61.2 1-17.5 2.7-32 12.6-46.5 22-5.3 3.6-.3 12.3 5 8.7z"/><path d="M110.6 151l-2.1 1.4a5.5 5.5 0 0 0-2 7.4c1.5 2.5 5 3.6 7.5 2l2.1-1.4a5.5 5.5 0 0 0 2-7.4c-1.5-2.5-5-3.6-7.5-2zM254 135l-2.5-.7a4.3 4.3 0 0 0-5.1 3 4 4 0 0 0 3 5l2.4.7c2.2.6 4.5-.7 5.2-3a4 4 0 0 0-3-5z"/></g></svg>