<svg xmlns="http://www.w3.org/2000/svg" width="361" height="361"><path d="M178.8 70.7v59.5c0 1.9 3 1.9 3 0V70.7c0-2-3-2-3 0zm.2 88.4v40.6c0 2 3 2 3 0v-40.6c0-2-3-2-3 0zm0 71.6v59c0 1.9 3 1.9 3 0v-59c0-2-3-2-3 0zm-7.8-76.8l21-3.5c6.5-1 3.7-10.7-2.6-9.6l-21 3.5c-6.4 1-3.7 10.6 2.6 9.6z" fill="#fff"/><path d="M195.1 149l49.2-46.4c4.7-4.4-2.4-11.5-7-7L188 142c-4.7 4.4 2.3 11.5 7 7zm-70.9 50l49.2-46.4c4.7-4.4-2.3-11.5-7-7L117.2 192c-4.7 4.4 2.3 11.5 7 7z" fill="#fff"/><path d="M119.7 190.4l-1.9 1.8c-2.2 2-2 5.6 0 7.7a5.5 5.5 0 0 0 3.9 1.6c1.5 0 2.7-.6 3.8-1.6l2-1.8c2.1-2 2-5.6 0-7.7a5.5 5.5 0 0 0-4-1.6c-1.4 0-2.7.6-3.8 1.6zM237 95.7l-1.8 1.8a5.5 5.5 0 0 0 0 7.7 5.5 5.5 0 0 0 7.7 0l1.8-1.8a5.5 5.5 0 0 0 0-7.7 5.5 5.5 0 0 0-7.7 0zm-66 124.8l21-3.5c6.4-1 3.7-10.6-2.6-9.6l-21 3.5c-6.4 1-3.7 10.6 2.6 9.6z" fill="#fff"/><path d="M194.8 215.7l49.2-46.5c4.7-4.4-2.4-11.4-7-7l-49.3 46.4c-4.7 4.4 2.4 11.5 7 7zm-71 50l49.3-46.5c4.7-4.4-2.4-11.5-7-7l-49.3 46.4c-4.7 4.4 2.4 11.5 7 7z" fill="#fff"/><path d="M119.3 257l-1.9 1.8c-2.2 2-2 5.7 0 7.7a5.5 5.5 0 0 0 3.9 1.6c1.5 0 2.8-.6 3.8-1.6l2-1.7c2.2-2 2-5.7 0-7.8a5.5 5.5 0 0 0-3.9-1.5c-1.5 0-2.8.6-3.9 1.6zm117.4-94.7l-1.9 1.8a5.5 5.5 0 0 0 0 7.7 5.5 5.5 0 0 0 7.7 0l1.9-1.8a5.5 5.5 0 0 0 0-7.7 5.5 5.5 0 0 0-7.7 0z" fill="#fff"/></svg>