<svg xmlns="http://www.w3.org/2000/svg" width="361" height="361"><path d="M126 258a126 126 0 0 1 117-66c6 0 6-10 0-10a136 136 0 0 0-126 71c-3 6 6 11 9 5z" fill="#fff"/><path d="M119 251l-1 2a6 6 0 0 0 2 7 6 6 0 0 0 7-2l2-2a6 6 0 0 0-2-7 6 6 0 0 0-8 2zm124-69h-3l-4 2a6 6 0 0 0-1 4c0 3 2 5 5 5h3a6 6 0 0 0 3-2 6 6 0 0 0 2-3c0-3-2-6-5-6zM179 72v16c0 2 3 2 3 0V72c0-2-3-2-3 0zm0 71v23c0 2 3 2 3 0v-23c0-2-3-2-3 0zm0 75v72c0 2 3 2 3 0v-72c0-2-3-2-3 0z" fill="#fff"/><g fill="#fff"><path d="M125 178a126 126 0 0 1 117-66c6 0 6-10 0-10a136 136 0 0 0-126 71c-3 5 6 10 9 5z"/><path d="M118 171l-1 2a6 6 0 0 0 2 7 6 6 0 0 0 7-2l1-2a6 6 0 0 0-2-7 6 6 0 0 0-7 2zm123-69h-2l-4 2a6 6 0 0 0-2 4c1 2 3 5 6 5h3a6 6 0 0 0 3-2 6 6 0 0 0 2-4c0-2-2-5-5-5z"/></g><path d="M179 134v23c0 2 3 2 3 0v-23c0-2-3-2-3 0z" fill="#fff"/></svg>