<svg xmlns="http://www.w3.org/2000/svg" width="361" height="361"><path d="M267.8 263.3a7 7 0 0 1-7 7l-158 .1a7 7 0 0 1-7-7V105.7a7 7 0 0 1 7-7h158a7 7 0 0 1 7 7v157.5z" fill="none" stroke="#fff" stroke-width="10" stroke-miterlimit="10"/><path d="M258.5 185.6h6.6c2.8 0 5-2.3 5-5s-2.2-5-5-5h-6.6c-2.7 0-5 2.3-5 5s2.3 5 5 5z" fill="#fff"/><path d="M267.8 103.2c0 2.5-2.7 4.5-6 4.5h-160c-3.3 0-6-2-6-4.5v-9c0-2.5 2.7-4.5 6-4.5h160c3.3 0 6 2 6 4.5v9z" fill="none" stroke="#fff" stroke-width="10" stroke-miterlimit="10"/><path d="M157.8 181.6c-.1.5-1.6.3 0 .3h46.9c1.7 0-.2 0-.2-1.1V220c0-.8 1.9-1.1.5-1.1h-47.2c-1.8 0 .2.8.2 1v-39.4c0-4.5-7-4.5-7 0v36.7c0 4.6 1.2 8.7 6.8 8.7h40.5c3.8 0 11.3 1.2 12.8-3.7 1.3-4.6.4-10.3.4-15v-22.5c0-4.6-.2-9.9-6.3-9.9H164c-4.9 0-11.3-1.2-13 4.8-1.3 4.4 5.5 6.2 6.7 1.9z" fill="#fff"/><path d="M155.1 216h27c4.6 0 4.6-7 0-7h-27c-4.5 0-4.5 7 0 7zm1.3-11h25.8c4.5 0 4.5-7 0-7h-25.8c-4.5 0-4.5 7 0 7zm0-10.8h25.8c4.5 0 4.5-7 0-7h-25.8c-4.5 0-4.5 7 0 7zm10.3-17.7V164c0-.8 0 .5-.1.7l1.4-2.2a33 33 0 0 1 3.6-4.3c1.4-1.4-3.6.3-.5.3h19.5c3 0-2-1.6-.6-.3a29.9 29.9 0 0 1 5 6.5v-.7 12.4c0 6.4 10 6.4 10 0v-10.8c0-4-1.5-6.6-4-9.8-2.2-3-5.2-7.3-9.4-7.3H170c-4.2 0-7.1 4.3-9.4 7.3-2.4 3.2-4 5.8-4 9.8v10.8c0 6.4 10 6.4 10 0z" fill="#fff"/></svg>