<svg xmlns="http://www.w3.org/2000/svg" width="361" height="361"><path d="M233 281a6 6 0 0 1-6 6h-93a6 6 0 0 1-6-6V81a6 6 0 0 1 6-6h93a6 6 0 0 1 6 6v200z" fill="none" stroke="#fff" stroke-width="10" stroke-miterlimit="10"/><path d="M231 280a6 6 0 0 0-6-6h-91a6 6 0 0 0-6 6v1a6 6 0 0 0 6 6h91a6 6 0 0 0 6-6v-1z" fill="none" stroke="#fff" stroke-width="10" stroke-miterlimit="10"/><path d="M128 186h11c7 0 7-10 0-10h-11c-7 0-7 10 0 10zm31-2s-2 0 0 0h47v-1 38h-47c-2 0 0 1 0 1v-39c0-5-7-5-7 0v36c0 5 1 9 7 9h40c4 0 12 1 13-4l1-15v-22c0-5-1-10-7-10h-41c-5 0-11-1-13 5-1 4 6 6 7 1z" fill="#fff"/><path d="M156 218h27c5 0 5-7 0-7h-27c-4 0-4 7 0 7zm1-11h26c5 0 5-7 0-7h-26c-4 0-4 7 0 7zm0-11h26c5 0 5-7 0-7h-26c-4 0-4 7 0 7zm20-41l6-5 3-3c1-1 0 0 0 0h2a33 33 0 0 1 6-1c2 0-3-2-1 0l7 7 7 7c2 2 0-3 0-1a34 34 0 0 1-1 6 28 28 0 0 1 0 2s1-1 0 0l-3 3-6 6c-4 4 3 11 7 7l8-8c3-3 4-6 4-10 1-4 2-9-1-12l-8-7-8-8c-2-3-8-2-11-1-4 0-7 1-10 4l-8 7c-4 5 3 12 7 8z" fill="#fff"/></svg>