<svg xmlns="http://www.w3.org/2000/svg" width="361" height="361"><path d="M118 241a126 126 0 0 1 130-31c7 2 9-8 3-10a136 136 0 0 0-140 34c-5 4 3 12 7 7z" fill="#fff"/><path d="M113 232l-2 2a6 6 0 0 0 0 8 6 6 0 0 0 8 0l2-2a6 6 0 0 0 0-8 6 6 0 0 0-8 0zm138-32h-3a6 6 0 0 0-4 0 6 6 0 0 0-2 4c-1 2 1 6 4 6l2 1 4-1a6 6 0 0 0 3-3c0-3-1-6-4-7zM179 72v16c0 2 3 2 3 0V72c0-2-3-2-3 0zm0 71v23c0 2 3 2 3 0v-23c0-2-3-2-3 0zm0 75v72c0 2 3 2 3 0v-72c0-2-3-2-3 0z" fill="#fff"/><g fill="#fff"><path d="M117 161a126 126 0 0 1 130-32c6 3 9-7 3-9a136 136 0 0 0-140 34c-5 4 2 11 7 7z"/><path d="M112 152l-2 2a6 6 0 0 0 0 8 6 6 0 0 0 8 0l2-2a6 6 0 0 0 0-8 6 6 0 0 0-8 0zm138-32h-3a6 6 0 0 0-4 0 6 6 0 0 0-3 3c0 3 1 6 4 7l3 1 4-1a6 6 0 0 0 2-3c1-3 0-6-3-7z"/></g><path d="M179 134v23c0 2 3 2 3 0v-23c0-2-3-2-3 0z" fill="#fff"/></svg>