<svg xmlns="http://www.w3.org/2000/svg" width="361" height="361"><path d="M226 106l58 59c4 4 12-3 7-7l-58-59c-5-4-12 3-7 7zm-31 0l59 59c4 4 11-3 7-7l-59-59c-4-4-11 3-7 7zm-29 0l58 59c5 4 12-3 7-7l-58-59c-5-4-12 3-7 7zm-30 0l58 59c4 4 11-3 7-7l-58-59c-5-4-12 3-7 7zm-33 0l58 59c5 4 12-3 7-7l-58-59c-5-4-12 3-7 7zm-31 0l58 59c4 4 12-3 7-7L79 99c-5-4-12 3-7 7z" fill="#fff"/><path d="M282 162v47c0 7 10 7 10 0v-48c0-6-10-6-10 1zm-30 0v47c0 7 10 7 10 0v-48c0-6-10-6-10 1zm-30 0v47c1 7 11 7 11 0v-48c0-6-10-6-10 1zm-30 0v47c0 7 10 7 10 0v-48c0-6-10-6-10 1zm-32 0v47c0 7 10 7 10 0v-48c0-6-10-6-10 1zm-32 0v47c0 7 10 7 10 0v-48c0-6-10-6-10 1z" fill="#fff"/><path d="M264 215v44a6 6 0 0 1-6 6H83a6 6 0 0 1-6-6V146a6 6 0 0 1 6-6h30m58 75v47" fill="none" stroke="#fff" stroke-width="10" stroke-miterlimit="10"/></svg>