<svg xmlns="http://www.w3.org/2000/svg" width="361" height="361"><path d="M196 130a79 79 0 0 1 82-16c6 3 9-7 3-9a89 89 0 0 0-92 18c-5 4 2 12 7 7z" fill="#fff"/><path d="M190 122l-1 1c-3 2-2 6 0 8a6 6 0 0 0 4 2l3-2 2-1c2-2 2-6 0-8a6 6 0 0 0-4-1l-4 1zm91-17l-2-1a6 6 0 0 0-6 4 6 6 0 0 0 3 7h2a6 6 0 0 0 7-4 6 6 0 0 0-4-6zm-85 90a79 79 0 0 1 82-16c6 2 9-7 3-10a89 89 0 0 0-92 19c-5 4 2 11 7 7z" fill="#fff"/><path d="M190 187l-1 1c-3 2-2 6 0 8a6 6 0 0 0 4 1l3-1 2-1c2-2 2-6 0-8a6 6 0 0 0-4-2l-4 2zm91-17l-2-1a6 6 0 0 0-6 4 6 6 0 0 0 3 7h2a6 6 0 0 0 7-4 6 6 0 0 0-4-6z" fill="#fff"/><g fill="#fff"><path d="M196 260a79 79 0 0 1 82-16c6 2 9-7 3-10a89 89 0 0 0-92 19c-5 4 2 11 7 7z"/><path d="M190 252l-1 1c-3 2-2 6 0 8a6 6 0 0 0 4 1l3-1 2-1c2-2 2-6 0-8a6 6 0 0 0-4-2l-4 2zm91-17l-2-1a6 6 0 0 0-6 4 6 6 0 0 0 3 7h2a6 6 0 0 0 7-4 6 6 0 0 0-4-7z"/></g><path d="M232 72v19c0 2 3 2 3 0V72c0-2-3-2-3 0zm0 47v39c0 2 3 2 3 0v-39c0-2-3-2-3 0zm0 65v39c0 2 3 2 3 0v-39c0-2-3-2-3 0zm0 64v41c0 2 3 2 3 0v-41c0-2-3-2-3 0z" fill="#fff"/><path d="M91 119a4 4 0 0 0 4 4h23a4 4 0 0 0 4-4V95a4 4 0 0 0-4-4H95a4 4 0 0 0-4 4v24z" fill="none" stroke="#fff" stroke-width="10" stroke-miterlimit="10"/><path d="M138 71l-7 7c-2 2-2 5 0 7s5 2 7 0l7-7c2-2 2-5 0-7s-5-2-7 0zm38 31h-34c-6 0-6 10 0 10h34c6 0 6-10 0-10zm-98 41l6-6a5 5 0 0 0-7-7l-6 6c-2 2-2 5 0 7s5 2 7 0zm34 32v-33c0-6-10-6-10 0v34c0 6 10 6 10 0zm48-21l-23-24c-5-4-12 3-7 7l23 24c5 5 12-3 7-7z" fill="#fff"/></svg>