<svg xmlns="http://www.w3.org/2000/svg" width="361" height="361"><path d="M272 234c-1 2-3 1-5 1H89s-1 2 0 0a273 273 0 0 0 6-20c2-9 2-19 2-29l2-15h161c3 0 2 0 2 3l2 34c1 10 4 19 8 28 2 6 11 4 9-2a176 176 0 0 1-6-22c-2-9-1-19-2-28 0-6 1-17-5-21-3-3-6-2-9-2H98c-9 0-10 9-10 17l-2 29c-1 9-4 17-6 26-3 6 3 12 9 12h171c8 0 20 2 21-9 1-6-9-9-9-2z" fill="#fff"/><path d="M273 159c0-10-16-15-24-17a248 248 0 0 0-68-8c-23 0-46 2-67 8-9 2-26 6-26 17-1 2 2 2 3 0 0-4 4-7 8-9a79 79 0 0 1 19-6 277 277 0 0 1 123 0 88 88 0 0 1 20 6c4 2 9 5 9 9 0 2 3 2 3 0z" fill="#fff"/><path d="M86 167h188c6 0 6-10 0-10H87c-7 0-7 10 0 10z" fill="#fff"/><path d="M82 161l-4 12c-2 6 8 9 10 3l3-12c2-7-8-9-9-3zm187 3l3 12c2 6 12 3 10-3l-4-12c-1-6-11-4-9 3zM81 224c-1 4-2 13-8 14-5 0-5 7 0 7 10-1 14-13 15-21 0-5-7-5-7 0zm193 0c0 8 4 20 14 21 5 0 5-7 0-7-6-1-7-10-7-14 0-5-7-5-7 0z" fill="#fff"/><path d="M84 227h193c5 0 5-7 0-7H84c-4 0-4 7 0 7zm-11 19h215c5 0 5-7 0-7H73c-5 0-5 7 0 7z" fill="#fff"/></svg>