<svg xmlns="http://www.w3.org/2000/svg" width="361" height="361"><path d="M239 188a5 5 0 0 1-5 5H86a5 5 0 0 1-6-5V93a5 5 0 0 1 6-5h148a5 5 0 0 1 5 5v95z" fill="none" stroke="#fff" stroke-width="10" stroke-miterlimit="10"/><path d="M155 145h9c7 0 7-10 1-10h-10c-6 0-6 10 0 10z" fill="#fff"/><path fill="none" stroke="#fff" stroke-width="10" stroke-miterlimit="10" d="M160 88v103"/><path d="M245 89H75V76l6-1h164v14z" fill="#fff" stroke="#fff" stroke-width="10" stroke-miterlimit="10"/><path d="M75 103h170c4 0 4-7 0-7H75c-4 0-4 7 0 7zm0 11h170c4 0 4-7 0-7H75c-4 0-4 7 0 7z" fill="#fff"/><path d="M221 234l-3-1v-14l3-1h52l2 1v14l-2 1h-52z" fill="none" stroke="#fff" stroke-width="10" stroke-miterlimit="10"/><path d="M282 232l-40 52h9l-40-52-5 7h81c6 0 6-10 0-10h-81c-3 0-6 4-4 8l40 52c3 3 6 3 9 0l40-52c4-5-5-10-9-5z" fill="#fff"/></svg>