<svg xmlns="http://www.w3.org/2000/svg" width="361" height="361"><path d="M114.3 203.7a126.4 126.4 0 0 1 127 42.8c4.2 5 11.2-2.1 7.1-7A136.2 136.2 0 0 0 111.6 194c-6.2 1.5-3.6 11.2 2.7 9.7z" fill="#fff"/><path d="M114.3 193.9l-2.5.5c-2.9.7-4.5 4-3.8 6.7a5.5 5.5 0 0 0 2.5 3.3c1.4.7 2.8.8 4.2.5l2.5-.5c3-.7 4.6-4 3.9-6.7a5.5 5.5 0 0 0-2.5-3.3 5.7 5.7 0 0 0-4.2-.5zm133.8 45.6l-1.8-1.8a5.5 5.5 0 0 0-7.7 0 5.5 5.5 0 0 0 0 7.7l1.8 1.8a5.5 5.5 0 0 0 7.7 0 5.5 5.5 0 0 0 0-7.7zM178.8 71.7v16.2c0 2 3 2 3 0V71.7c0-2-3-2-3 0zm.2 71.3v22.8c0 2 3 2 3 0V143c0-2-3-2-3 0zm0 75v71.7c0 1.9 3 1.9 3 0V218c0-2-3-2-3 0z" fill="#fff"/><path d="M179 134v22.8c0 2 3 2 3 0V134c0-2-3-2-3 0z" fill="#fff"/><g fill="#fff"><path d="M113.1 123.4a126.4 126.4 0 0 1 127 42.9c4.2 5 11.2-2.2 7.1-7a136 136 0 0 0-136.8-45.5c-6.2 1.5-3.6 11.1 2.7 9.6z"/><path d="M113.1 113.6l-2.5.6c-2.9.6-4.5 4-3.8 6.7a5.5 5.5 0 0 0 2.5 3.2c1.3.8 2.8 1 4.2.6l2.5-.6c3-.6 4.6-4 3.8-6.7a5.5 5.5 0 0 0-2.5-3.2 5.7 5.7 0 0 0-4.2-.6zM247 159.3l-1.8-1.8a5.5 5.5 0 0 0-7.7 0 5.5 5.5 0 0 0 0 7.7l1.8 1.8a5.5 5.5 0 0 0 7.7 0 5.5 5.5 0 0 0 0-7.7z"/></g></svg>