<svg xmlns="http://www.w3.org/2000/svg" width="361" height="361"><path d="M235.5 106.2l8.2 8.2a5 5 0 0 0 7 0 5 5 0 0 0 0-7.1l-8-8.2a5 5 0 0 0-7.2 0 5 5 0 0 0 0 7.1zm-30.1 0l8.1 8.2a5 5 0 0 0 7.1 0 5 5 0 0 0 0-7.1l-8.2-8.2a5 5 0 0 0-7 0 5 5 0 0 0 0 7.1zm-29.7 0l8.2 8.2a5 5 0 0 0 7 0 5 5 0 0 0 0-7.1l-8.1-8.2c-2-1.9-5.2-1.9-7.1 0s-2 5.2 0 7.1zm-30.2 0l8.2 8.2c2 1.9 5.1 1.9 7 0s2-5.2 0-7.1l-8.1-8.2c-2-1.9-5.2-1.9-7 0s-2 5.2 0 7.1zm-32.8 0l8.2 8.2c2 1.9 5.2 1.9 7 0s2-5.2 0-7.1l-8-8.2c-2-1.9-5.2-1.9-7.1 0s-2 5.2 0 7.1zm-31.1 0l8 8c4.5 4.6 11.6-2.5 7-7l-8-8c-4.5-4.6-11.6 2.4-7 7z" fill="#fff"/><path d="M242.4 111.5v14c0 6.4 10 6.4 10 0v-14c0-6.5-10-6.5-10 0zm-30.2 0v14c0 6.4 10 6.4 10 0v-14c0-6.5-10-6.5-10 0zm-29.7 0v14c0 6.4 10 6.4 10 0v-14c0-6.5-10-6.5-10 0zm-30.2 0v14c0 6.4 10 6.4 10 0v-14c0-6.5-10-6.5-10 0zm-32.7 0v14c0 6.4 10 6.4 10 0v-14c0-6.5-10-6.5-10 0zm-31.2 0v14c0 6.4 10 6.4 10 0v-14c0-6.5-10-6.5-10 0z" fill="#fff"/><path d="M264 258.6a6.2 6.2 0 0 1-6.2 6.2H83.4a6.2 6.2 0 0 1-6.2-6.2V146.2a6.2 6.2 0 0 1 6.2-6.2h174.4c3.4 0 6.2 2.7 6.2 6.2v112.4z" fill="none" stroke="#fff" stroke-width="10" stroke-miterlimit="10"/><path d="M165 199.4h11.1c6.5 0 6.5-10 0-10h-11c-6.5 0-6.5 10 0 10z" fill="#fff"/><path fill="none" stroke="#fff" stroke-width="10" stroke-miterlimit="10" d="M170.6 140.7v120.9"/></svg>