<svg xmlns="http://www.w3.org/2000/svg" width="361" height="361"><path d="M268 263a7 7 0 0 1-7 7H103a7 7 0 0 1-7-7V106a7 7 0 0 1 7-7h158a7 7 0 0 1 7 7v157z" fill="none" stroke="#fff" stroke-width="10" stroke-miterlimit="10"/><path d="M268 103c0 3-3 5-6 5H102c-3 0-6-2-6-5v-9c0-2 3-4 6-4h160c3 0 6 2 6 4v9zm-2 162c0 3-2 5-5 5H104c-4 0-7-2-8-5L75 131c0-3 2-6 5-6h158c3 0 6 3 7 6l21 134z" fill="none" stroke="#fff" stroke-width="10" stroke-miterlimit="10"/><path d="M247 200h7c3 0 5-3 5-5s-2-5-5-5h-7a5 5 0 0 0 0 10z" fill="#fff"/></svg>