<svg xmlns="http://www.w3.org/2000/svg" width="361" height="361"><path d="M118 241a126.3 126.3 0 0 1 130.4-31.3c6.2 2 8.8-7.6 2.7-9.6a136.3 136.3 0 0 0-140.2 33.7c-4.5 4.6 2.6 11.7 7.1 7.1z" fill="#fff"/><path d="M113.2 232.3l-1.9 1.8a5.5 5.5 0 0 0 0 7.7 5.5 5.5 0 0 0 7.7 0l1.9-1.8a5.5 5.5 0 0 0 0-7.7 5.5 5.5 0 0 0-7.8 0zm137.6-32l-2.5-.6a5.6 5.6 0 0 0-4.2.6 5.5 5.5 0 0 0-2.4 3.3c-.8 2.7.9 6 3.8 6.7l2.5.5c1.4.4 2.9.2 4.2-.5a5.5 5.5 0 0 0 2.5-3.3c.7-2.7-1-6-3.8-6.7zm-72-128.6v16.2c0 2 3 2 3 0V71.7c0-2-3-2-3 0zm.2 71.3v22.8c0 2 3 2 3 0V143c0-2-3-2-3 0zm0 75v71.7c0 1.9 3 1.9 3 0V218c0-2-3-2-3 0z" fill="#fff"/><g fill="#fff"><path d="M116.8 160.7a126.3 126.3 0 0 1 130.4-31.2c6.1 2 8.8-7.6 2.7-9.7a136.3 136.3 0 0 0-140.2 33.8c-4.5 4.6 2.6 11.7 7.1 7z"/><path d="M112 152l-1.9 1.8a5.5 5.5 0 0 0 0 7.7 5.5 5.5 0 0 0 7.7 0l1.9-1.8a5.5 5.5 0 0 0 0-7.7 5.5 5.5 0 0 0-7.8 0zm137.6-32l-2.5-.5a5.6 5.6 0 0 0-4.2.6 5.5 5.5 0 0 0-2.5 3.2c-.7 2.8 1 6 3.8 6.7l2.5.6c1.5.3 3 .2 4.2-.6a5.5 5.5 0 0 0 2.5-3.2c.8-2.8-.9-6-3.8-6.7z"/></g><path d="M179 134v22.8c0 2 3 2 3 0V134c0-2-3-2-3 0z" fill="#fff"/></svg>