<svg xmlns="http://www.w3.org/2000/svg" width="361" height="361"><path d="M178.8 70.7v59.5c0 1.9 3 1.9 3 0V70.7c0-2-3-2-3 0zm.2 88.4v40.6c0 2 3 2 3 0v-40.6c0-2-3-2-3 0zm0 71.6v59c0 1.9 3 1.9 3 0v-59c0-2-3-2-3 0zm-5.7-74.4l19.3-9.1c5.8-2.8.7-11.4-5-8.6l-19.4 9.1c-5.8 2.8-.7 11.4 5.1 8.6z" fill="#fff"/><path d="M195 145.1L229.5 87c3.3-5.6-5.4-10.6-8.7-5l-34.5 58c-3.3 5.6 5.4 10.7 8.7 5.1zm-54.4 67.6l34.5-58.2c3.3-5.5-5.4-10.5-8.6-5L132 207.7c-3.3 5.5 5.3 10.6 8.6 5z" fill="#fff"/><path d="M134 205.5l-1.4 2.2c-1.6 2.5-.5 6 2 7.4a5.5 5.5 0 0 0 7.4-2l1.4-2.1c1.6-2.5.6-6-2-7.5a5.5 5.5 0 0 0-7.4 2zm86.6-123.4l-1.3 2.2a5.5 5.5 0 0 0 2 7.5 5.5 5.5 0 0 0 7.5-2l1.3-2.2c1.5-2.6.6-6-2-7.5a5.5 5.5 0 0 0-7.5 2zM173 223l19.3-9.2c5.8-2.7.8-11.4-5-8.6l-19.3 9.1c-5.8 2.8-.8 11.4 5 8.7z" fill="#fff"/><path d="M194.6 211.8l34.5-58.2c3.3-5.6-5.3-10.6-8.6-5l-34.5 58c-3.3 5.6 5.3 10.6 8.6 5zm-54.4 67.6l34.5-58.2c3.3-5.6-5.3-10.6-8.6-5l-34.5 58.1c-3.3 5.6 5.3 10.6 8.6 5z" fill="#fff"/><path d="M133.6 272.1l-1.3 2.2c-1.6 2.5-.6 6 2 7.5a5.5 5.5 0 0 0 7.4-2l1.3-2.2c1.6-2.5.6-6-2-7.4a5.5 5.5 0 0 0-7.4 2zm86.7-123.4L219 151a5.5 5.5 0 0 0 2 7.5 5.5 5.5 0 0 0 7.4-2l1.3-2.2c1.5-2.5.6-6-2-7.4a5.5 5.5 0 0 0-7.4 2z" fill="#fff"/></svg>