<svg xmlns="http://www.w3.org/2000/svg" width="361" height="361"><path d="M182.8 241.2c-3 3.6-8.4 6.6-12 6.6h-91c-3.7 0-4.2-3-1.2-6.6l103.2-121.9c3-3.6 8.4-6.6 12-6.6h84.3L263.6 144l-80.8 97.3z" fill="none" stroke="#fff" stroke-width="10" stroke-miterlimit="10"/><path d="M129 234.3l-5 6.1c-1.8 2.1-2.2 5 0 7.1 1.7 1.8 5.2 2.1 7 0l5.1-6.2c1.7-2 2-5 0-7-1.8-1.8-5.3-2.1-7 0z" fill="#fff"/><path d="M207.6 264.4c-2 4.5-7.4 8-11.8 8l-116.1.1c-4.5 0-6.4-3.6-4.3-8.1l78-167.3c2.1-4.5 7.4-8.2 11.9-8.2h116c4.5 0 6.5 3.7 4.4 8.2l-4.5 9.6-17 36.4-56.5 121.3z" fill="none" stroke="#fff" stroke-width="10" stroke-miterlimit="10"/><path fill="#fff" d="M278 104.3H150.1L159 87h127.7zM76 262.8h127.6v6.4H76.1z"/></svg>