<svg xmlns="http://www.w3.org/2000/svg" width="361" height="361"><path d="M221 234l-3-1v-14l3-1h52l2 1v14l-2 1h-52z" fill="none" stroke="#fff" stroke-width="10" stroke-miterlimit="10"/><path d="M282 232l-40 52h9l-40-52-5 7h81c6 0 6-10 0-10h-81c-3 0-6 4-4 8l40 52c3 3 6 3 9 0l40-52c4-5-5-10-9-5z" fill="#fff"/><path d="M238 188a5 5 0 0 1-5 5H86a5 5 0 0 1-6-5V93a5 5 0 0 1 6-5h147a5 5 0 0 1 5 5v95z" fill="none" stroke="#fff" stroke-width="10" stroke-miterlimit="10"/><path d="M155 146h9c7 0 7-10 0-10h-9c-7 0-7 10 0 10z" fill="#fff"/><path fill="none" stroke="#fff" stroke-width="10" stroke-miterlimit="10" d="M159 88v103"/><path d="M244 89l-6 1H81l-6-1V76l6-1h157l6 1v13z" fill="#fff" stroke="#fff" stroke-width="10" stroke-miterlimit="10"/><path d="M97 193V86c0-5-7-5-7 0v107c0 5 7 5 7 0zm15 0V86c0-5-7-5-7 0v107c0 5 7 5 7 0z" fill="#fff"/></svg>