<svg xmlns="http://www.w3.org/2000/svg" width="361" height="361"><path d="M133.1 172A126 126 0 0 1 218 274.6c.8 6.3 10.8 6.4 10 0a136.5 136.5 0 0 0-92.2-112.2c-6.2-2-8.8 7.6-2.7 9.6z" fill="#fff"/><path d="M138.1 163.7l-2.4-.9a5.3 5.3 0 0 0-4.2.6 5.5 5.5 0 0 0-2.5 3.2 5.5 5.5 0 0 0 .6 4.2 5.8 5.8 0 0 0 3.2 2.5l2.4 1a5.3 5.3 0 0 0 4.2-.6 5.5 5.5 0 0 0 2.5-3.3 5.5 5.5 0 0 0-.5-4.2 5.8 5.8 0 0 0-3.3-2.5zm89.3 109.4l-.5-2.5c-.7-2.9-4-4.6-6.7-3.8a5.5 5.5 0 0 0-3.3 2.5 5.6 5.6 0 0 0-.6 4.2l.6 2.5c.7 2.9 4 4.6 6.7 3.8a5.5 5.5 0 0 0 3.3-2.5c.7-1.3.9-2.8.5-4.2zM178.8 71.7v16.2c0 2 3 2 3 0V71.7c0-2-3-2-3 0zm.2 71.3v22.8c0 2 3 2 3 0V143c0-2-3-2-3 0zm0 75v71.7c0 1.9 3 1.9 3 0V218c0-2-3-2-3 0z" fill="#fff"/><path d="M179 134v22.8c0 2 3 2 3 0V134c0-2-3-2-3 0z" fill="#fff"/><g fill="#fff"><path d="M131.9 91.8a126 126 0 0 1 84.8 102.5c.9 6.3 10.9 6.4 10 0a136.5 136.5 0 0 0-92.1-112.1c-6.2-2-8.8 7.6-2.7 9.6z"/><path d="M137 83.5l-2.5-.9a5.3 5.3 0 0 0-4.2.6 5.5 5.5 0 0 0-2.5 3.2 5.5 5.5 0 0 0 .6 4.2 5.8 5.8 0 0 0 3.2 2.5l2.4.9c1.4.5 3 .1 4.2-.6a5.5 5.5 0 0 0 2.5-3.2 5.5 5.5 0 0 0-.5-4.2 5.7 5.7 0 0 0-3.3-2.5zm89.2 109.4l-.5-2.5c-.7-3-4-4.6-6.7-3.8a5.5 5.5 0 0 0-3.3 2.5 5.6 5.6 0 0 0-.6 4.2l.6 2.5c.7 2.9 4 4.5 6.7 3.8a5.5 5.5 0 0 0 3.3-2.5 5.6 5.6 0 0 0 .5-4.2z"/></g></svg>