<svg xmlns="http://www.w3.org/2000/svg" width="361" height="361"><path d="M178.8 70.7v42.6c0 2 3 2 3 0V70.7c0-2-3-2-3 0zm.2 83.4v40.6c0 2 3 2 3 0v-40.6c0-2-3-2-3 0zm0 83.2v52.4c0 1.9 3 1.9 3 0v-52.4c0-1.9-3-1.9-3 0zm-61.8 2.8c12.2-10.3 24-20.6 39.6-25.5 10-3.1 20.3-3.4 30.8-3.6a102.5 102.5 0 0 0 29-4.5 75.6 75.6 0 0 0 29.2-17.3l2.9-2.8c1-1-.8.5 0 0 .9-.5.2-.3-2 .4-4.8.6-4.6-5.2-4.2-2.9 1.5 7.2-.7 20 9 22.2 6.3 1.5 9-8.2 2.7-9.6l-.1-.2a16.7 16.7 0 0 1-.8-3.7c-.4-2.7-.5-5.4-.8-8-.2-2.9-.4-5.3-3-7-3-2.2-6.4.3-8.6 2.4a70.9 70.9 0 0 1-27 16.8c-19.9 6.6-41 2.4-61 8.6-16.7 5.2-29.7 16.5-42.8 27.7-4.9 4.2 2.3 11.2 7.1 7z" fill="#fff"/><path d="M112.5 231.7l-2 1.7c-1 .8-1.6 2.5-1.6 3.8 0 1.5.6 2.9 1.6 3.9a5.5 5.5 0 0 0 3.8 1.6l1.5-.2a5.5 5.5 0 0 0 2.4-1.4l2-1.6a5.5 5.5 0 0 0 0-7.7 5.5 5.5 0 0 0-3.9-1.7l-1.4.2a5.4 5.4 0 0 0-2.4 1.4zm140.3-34l-2.6-.3a5 5 0 0 0-3 1.3 4.2 4.2 0 0 0 0 6l1 .6c.6.3 1.3.5 2 .5l2.6.4c1 .1 2.2-.6 3-1.3a4.2 4.2 0 0 0 0-5.9 629 629 0 0 0-1-.7 4.2 4.2 0 0 0-2-.5z" fill="#fff"/><g fill="#fff"><path d="M117 168.6c12.1-10.3 24-20.6 39.5-25.5 10.1-3.1 20.4-3.4 30.8-3.6 9.8-.2 19.7-1.6 29-4.5a75.7 75.7 0 0 0 29.2-17.3l3-2.8c1-1-.9.5 0-.1.8-.4.2-.3-2 .5-4.9.6-4.7-5.2-4.2-3 1.4 7.3-.8 20.1 9 22.3 6.2 1.4 9-8.2 2.6-9.6.4.7.4.6 0-.2a16.8 16.8 0 0 1-.9-3.8l-.7-8c-.3-2.8-.4-5.2-3-7-3.1-2-6.4.4-8.7 2.5a70.8 70.8 0 0 1-27 16.8c-19.8 6.6-41 2.3-61 8.6C136 139 123 150.4 110 161.5c-5 4.2 2.2 11.3 7 7.1z"/><path d="M112.2 160.2l-2 1.6c-1 .9-1.6 2.6-1.6 3.9a5.5 5.5 0 0 0 1.6 3.8 5.5 5.5 0 0 0 3.9 1.6l1.4-.2a5.5 5.5 0 0 0 2.4-1.4l2-1.6c1.1-.8 1.6-2.5 1.6-3.8a5.5 5.5 0 0 0-1.6-3.9 5.5 5.5 0 0 0-3.8-1.6l-1.5.2a5.5 5.5 0 0 0-2.4 1.4zm140.3-34l-2.5-.3a4 4 0 0 0-3 1.3 4.2 4.2 0 0 0 0 5.9l.9.6c.6.4 1.3.6 2 .6l2.6.3c1 .2 2.3-.5 3-1.2a4.2 4.2 0 0 0 0-6 629 629 0 0 0-.9-.6 4.2 4.2 0 0 0-2-.6z"/></g></svg>