<svg xmlns="http://www.w3.org/2000/svg" width="361" height="361"><path d="M179 71v42c0 2 3 2 3 0V71c0-2-3-2-3 0zm0 83v41c0 2 3 2 3 0v-41c0-2-3-2-3 0zm0 83v53c0 2 3 2 3 0v-53c0-2-3-2-3 0z" fill="#fff"/><path d="M162 283c0-15 0-31 6-46 8-18 25-31 33-49a76 76 0 0 0 7-35v-4c0-1 0-2 0 0-1 6-9 0-5 3 6 4 14 13 21 7 5-3 0-12-5-8-1 1-8-5-9-6-3-2-5-4-8-3-4 1-4 5-4 8 0 11-1 22-6 33-8 19-25 32-33 52-7 15-7 32-7 48 0 7 10 7 10 0z" fill="#fff"/><path d="M153 281l-1 2c0 3 3 6 6 6a6 6 0 0 0 5-6v-2c1-3-2-6-5-6a6 6 0 0 0-5 6zm66-128l-2 1v6a4 4 0 0 0 3 2l3-2 2-1c2-2 2-5 0-6a4 4 0 0 0-3-2 4 4 0 0 0-3 2z" fill="#fff"/><g fill="#fff"><path d="M162 212c0-16 0-31 6-46 8-19 24-31 33-50a76 76 0 0 0 7-35v-4s0-2 0 0c-1 6-10 1-5 4 5 4 14 12 21 7 5-4 0-12-5-9-1 1-8-4-10-6-2-1-4-3-7-3-4 1-5 5-4 8 0 12-1 22-6 33-8 19-26 33-34 52-6 16-6 32-6 49 0 6 10 6 10 0z"/><path d="M152 209v3c0 3 3 5 6 5a6 6 0 0 0 5-5v-3c0-3-2-5-5-5a6 6 0 0 0-6 5zm67-128l-2 2c-2 1-1 4 0 6a4 4 0 0 0 3 1l3-1 2-2c2-1 1-4 0-6a4 4 0 0 0-3-1l-3 1z"/></g></svg>