<svg xmlns="http://www.w3.org/2000/svg" width="361" height="361"><path d="M163 285a126 126 0 0 1 46-125c5-4 1-12-5-8a137 137 0 0 0-51 136c2 6 11 3 10-3z" fill="#fff"/><path d="M153 285l1 2a5 5 0 0 0 2 4 6 6 0 0 0 5 0 6 6 0 0 0 3-2v-7a5 5 0 0 0-3-3 6 6 0 0 0-4-1 6 6 0 0 0-3 3 6 6 0 0 0-1 4zm50-132l-1 1c-3 2-2 6 0 8a6 6 0 0 0 7 0l2-2c2-2 2-5 0-7a6 6 0 0 0-8 0zm-41 52a126 126 0 0 1 46-125c5-4 0-13-5-9a137 137 0 0 0-51 136c2 7 11 4 10-2z" fill="#fff"/><path d="M152 205l1 2a5 5 0 0 0 2 3 6 6 0 0 0 4 1 6 6 0 0 0 3-3l1-4v-2a5 5 0 0 0-3-4 6 6 0 0 0-4 0 6 6 0 0 0-3 2 6 6 0 0 0-1 5zm50-133l-2 2c-2 2-2 6 0 8a6 6 0 0 0 8 0l2-2c2-2 2-5 0-8a6 6 0 0 0-8 0zm-23 0v16c0 2 3 2 3 0V72c0-2-3-2-3 0zm0 71v23c0 2 3 2 3 0v-23c0-2-3-2-3 0zm0 75v72c0 2 3 2 3 0v-72c0-2-3-2-3 0z" fill="#fff"/><path d="M179 134v23c0 2 3 2 3 0v-23c0-2-3-2-3 0z" fill="#fff"/></svg>