<svg xmlns="http://www.w3.org/2000/svg" width="361" height="361"><path d="M179 71v59c0 2 3 2 3 0V71c0-2-3-2-3 0zm0 88v41c0 2 3 2 3 0v-41c0-2-3-2-3 0zm0 72v59c0 2 3 2 3 0v-59c0-2-3-2-3 0zm-10-87l17 13c2 2 5 2 7 0 1-1 2-5 0-7l-17-13c-2-2-5-2-7 0s-2 5 0 7z" fill="#fff"/><path d="M190 159l67 6c6 0 6-10 0-10l-67-6c-7 0-7 10 0 10zm-85-19l67 5c7 1 7-9 0-10l-67-5c-6 0-6 10 0 10z" fill="#fff"/><path d="M108 131h-3c-1-1-3 0-4 1a6 6 0 0 0 0 8l1 1a5 5 0 0 0 3 0l3 1 4-2a6 6 0 0 0 0-8h-1a5 5 0 0 0-3-1zm149 24l-3-1a6 6 0 0 0-4 10 6 6 0 0 0 4 1l3 1a6 6 0 0 0 4-10 6 6 0 0 0-4-1zm-88 56l16 13c2 2 5 2 7 0s2-5 0-7l-16-13c-3-2-5-2-7 0-2 1-3 5 0 7z" fill="#fff"/><path d="M189 226l68 5c6 1 6-9 0-10l-68-5c-6-1-6 9 0 10zm-84-19l67 5c6 1 6-9 0-10l-67-5c-7-1-7 9 0 10z" fill="#fff"/><path d="M108 197h-3l-4 2a6 6 0 0 0 0 7l1 1a5 5 0 0 0 3 1h2l4-1a6 6 0 0 0 0-8 820 820 0 0 1-1-1 5 5 0 0 0-3-1zm148 24h-2a6 6 0 0 0-4 9 6 6 0 0 0 4 2h2a6 6 0 0 0 4-9 6 6 0 0 0-4-2z" fill="#fff"/></svg>