<svg xmlns="http://www.w3.org/2000/svg" width="361" height="361"><path d="M239 188a5.3 5.3 0 0 1-5.3 5.3H86a5.3 5.3 0 0 1-5.3-5.3V93a5.3 5.3 0 0 1 5.3-5.3h147.8a5.3 5.3 0 0 1 5.3 5.2v95z" fill="none" stroke="#fff" stroke-width="10" stroke-miterlimit="10"/><path d="M155.4 145.3h9.4c6.5 0 6.5-10 0-10h-9.4c-6.5 0-6.5 10 0 10z" fill="#fff"/><path fill="none" stroke="#fff" stroke-width="10" stroke-miterlimit="10" d="M160 88v102.7"/><path d="M244.8 88.8c0 .4-2.6.7-5.7.7H80.8c-3.1 0-5.7-.3-5.7-.7V75.5c0-.4 2.6-.7 5.7-.7h158.3c3.1 0 5.7.3 5.7.7v13.3z" fill="#fff" stroke="#fff" stroke-width="10" stroke-miterlimit="10"/><path d="M75.4 103.2H245c4.5 0 4.5-7 0-7H75.4c-4.5 0-4.5 7 0 7zm0 10.4H245c4.5 0 4.5-7 0-7H75.4c-4.5 0-4.5 7 0 7zm0 10.4H245c4.5 0 4.5-7 0-7H75.4c-4.5 0-4.5 7 0 7zm0 10.4H245c4.5 0 4.5-7 0-7H75.4c-4.5 0-4.5 7 0 7zm152.9 108.3c0 .2-1.2 0 .1 0h52c1.4 0 0-1.8 0 .4v42c0 .4 1.6-.7.3-.7H228c-1 0 .4.8.4.9v-43.6c0-4.5-7-4.5-7 0V279c0 4.8-1 11.2 5.2 12.3 4 .8 8.4.2 12.3.2h41.3c5 0 7.3-3.1 7.3-7.8v-41.9c0-8-11.7-6-16.7-6h-31c-5.4 0-16.7-2.1-18.3 5.1-1 4.4 5.8 6.3 6.8 1.9z" fill="#fff"/><path d="M225.6 280.3h29.9c4.5 0 4.5-7 0-7h-29.9c-4.5 0-4.5 7 0 7zm1.4-12h28.5c4.5 0 4.5-7 0-7H227c-4.5 0-4.5 7 0 7zm0-12h28.5c4.5 0 4.5-7 0-7H227c-4.5 0-4.5 7 0 7zm21.7-44.9l6.3-6.3 3.1-3c.3-.4 1-1-.2 0 .2-.2 2-.4 2.5-.5 2-.4 4-.5 6-.6 2.4 0 1.3.8-.6-1l.9.8 7.3 7.4 7.8 7.7c1.8 1.8.3 1.2 0-1 .3 2.1 0 4.4-.3 6.5-.1 1-1.6 4.4-.2 3l-2.9 2.9a45507.3 45507.3 0 0 0-7 7c-4.5 4.5 2.6 11.6 7.1 7l8.1-8.1c3-3 4-6 4.7-10.2.5-4 1.8-10-1.4-13.1l-8-8.1-8.7-8.7c-3-3-8.1-2.2-12-1.7-4.3.5-7.9 1.2-11 4.3l-8.6 8.7c-4.6 4.5 2.5 11.6 7 7z" fill="#fff"/></svg>