<svg xmlns="http://www.w3.org/2000/svg" width="361" height="361"><path d="M113.8 222.3a126.3 126.3 0 0 1 134 6c5.2 3.8 10.2-5 5-8.5a136.3 136.3 0 0 0-144-6.1c-5.7 3.2-.7 11.8 5 8.6z" fill="#fff"/><path d="M111.3 212.8L109 214c-2.6 1.4-3.4 5-2 7.5a5.5 5.5 0 0 0 7.5 2l2.3-1.3c2.6-1.4 3.4-5 2-7.5a5.5 5.5 0 0 0-7.5-2zm141.2 7.1l-2.3-1.2a5.5 5.5 0 0 0-7.5 2 5.5 5.5 0 0 0 2 7.4l2.2 1.2a5.5 5.5 0 0 0 7.5-2 5.5 5.5 0 0 0-2-7.4zM178.8 71.7v16.2c0 2 3 2 3 0V71.7c0-2-3-2-3 0zm.2 71.3v22.8c0 2 3 2 3 0V143c0-2-3-2-3 0zm0 75v71.7c0 1.9 3 1.9 3 0V218c0-2-3-2-3 0z" fill="#fff"/><g fill="#fff"><path d="M112.5 142a126.3 126.3 0 0 1 134 6.2c5.3 3.6 10.3-5 5-8.7a136.3 136.3 0 0 0-144-6c-5.6 3.1-.6 11.8 5 8.6z"/><path d="M110 132.6l-2.2 1.2c-2.6 1.4-3.4 5-2 7.4a5.5 5.5 0 0 0 7.5 2l2.3-1.2c2.6-1.4 3.4-5 2-7.5a5.5 5.5 0 0 0-7.5-2zm141.2 7l-2.2-1.2a5.5 5.5 0 0 0-7.5 2 5.5 5.5 0 0 0 2 7.5l2.2 1.2a5.5 5.5 0 0 0 7.5-2 5.5 5.5 0 0 0-2-7.4z"/></g><path d="M179 134v22.8c0 2 3 2 3 0V134c0-2-3-2-3 0z" fill="#fff"/></svg>