<svg xmlns="http://www.w3.org/2000/svg" width="361" height="361"><path d="M179 71v59c0 2 3 2 3 0V71c0-2-3-2-3 0zm0 88v41c0 2 3 2 3 0v-41c0-2-3-2-3 0zm0 72v59c0 2 3 2 3 0v-59c0-2-3-2-3 0zm-10-82l21 6c6 1 8-8 2-10l-20-5c-7-2-9 8-3 9z" fill="#fff"/><path d="M193 155l64-22c6-3 3-12-3-10l-64 22c-6 2-3 12 3 10zm-85 17l64-23c6-2 3-11-3-9l-64 22c-6 2-3 12 3 10z" fill="#fff"/><path d="M108 162h-2a6 6 0 0 0-4 3 6 6 0 0 0 0 4c1 3 4 5 6 4l3-1a6 6 0 0 0 3-2 6 6 0 0 0 1-5c-1-2-4-4-7-3zm146-39l-3 1a6 6 0 0 0-3 2 6 6 0 0 0 0 4 6 6 0 0 0 2 4 5 5 0 0 0 4 0l3-1a6 6 0 0 0 3-2 6 6 0 0 0 0-4 6 6 0 0 0-2-4 5 5 0 0 0-4 0zm-85 93l20 5c6 2 9-8 3-9l-21-6c-6-1-9 8-2 10z" fill="#fff"/><path d="M193 222l63-23c6-2 4-12-2-10l-64 23c-6 2-4 12 3 10zm-86 16l64-22c6-2 4-12-2-10l-64 23c-6 2-4 12 2 9z" fill="#fff"/><path d="M108 228l-3 1a6 6 0 0 0-3 3 6 6 0 0 0 0 4c0 3 3 5 6 4l3-1a6 6 0 0 0 3-3 6 6 0 0 0 0-4c0-3-3-5-6-4zm145-38h-2a6 6 0 0 0-3 3 6 6 0 0 0-1 4 6 6 0 0 0 3 3 5 5 0 0 0 4 1l2-1a6 6 0 0 0 4-3 6 6 0 0 0 0-4 6 6 0 0 0-2-3 5 5 0 0 0-5-1z" fill="#fff"/></svg>