<svg xmlns="http://www.w3.org/2000/svg" width="361" height="361"><path d="M178.8 70.7v42.6c0 2 3 2 3 0V70.7c0-2-3-2-3 0zm.2 83.3v50.8c0 2 3 2 3 0V154c0-2-3-2-3 0zm0 93.3v42.4c0 1.9 3 1.9 3 0v-42.4c0-1.9-3-1.9-3 0z" fill="#fff"/><g fill="#fff"><path d="M79.4 289c13.4-14 26.4-28.6 42.9-39 9.2-5.9 19.2-10.1 29.6-13.2 13-3.8 26.4-4.8 39.8-6.8 20.3-3 40.4-9.9 57.4-21.5 9.4-6.4 17.2-14.3 24.5-23 .9-1 1.7-2 2.7-2.9-1 .9-2.4 1.4-4.6.3-1.8-.8-2.2-3.9-1.3 0 2.1 10 2.5 29 16 30 6.4.5 6.4-9.5 0-10-6.3-.5-2.3-39.3-17.1-27.3-2.3 1.8-4 4.5-6 6.7a112.7 112.7 0 0 1-11.4 11.5 115.6 115.6 0 0 1-48 23.6c-13.1 3.3-26.6 4-39.9 6.3-11.6 2.1-23 5.7-33.8 10.6-23.2 10.6-40.5 29.4-57.8 47.6-4.5 4.7 2.6 11.7 7 7z"/><path d="M76 279.6l-2.9 2.8a5.5 5.5 0 0 0 0 7.7 5.5 5.5 0 0 0 7.8 0l2.8-2.8a5.5 5.5 0 0 0 0-7.7 5.5 5.5 0 0 0-7.7 0zm210.4-75a5358.6 5358.6 0 0 1-4 0 4.2 4.2 0 0 0-4.2 4.2 4.3 4.3 0 0 0 4.2 4.2h4a4.2 4.2 0 0 0 4.2-4.1 4.3 4.3 0 0 0-4.2-4.2z"/></g><g fill="#fff"><path d="M80.4 194.8c13.3-14 26.4-28.6 42.8-39 9.2-5.8 19.2-10 29.6-13.1 13-3.9 26.4-4.9 39.8-6.9 20.3-3 40.4-9.8 57.4-21.5a123 123 0 0 0 24.5-22.9l2.8-3c-1 1-2.4 1.5-4.7.4-1.8-.9-2.1-4-1.3 0 2.2 9.9 2.5 29 16 30 6.5.4 6.4-9.6 0-10-6.3-.6-2.3-39.4-17.1-27.4-2.3 1.8-4 4.5-5.9 6.7a112.7 112.7 0 0 1-11.5 11.6 115.8 115.8 0 0 1-48 23.6c-13.1 3.3-26.6 4-39.8 6.3a141.2 141.2 0 0 0-33.8 10.5c-23.3 10.6-40.6 29.4-57.9 47.6-4.4 4.7 2.6 11.8 7 7z"/><path d="M77 185.4l-3 2.8a5.5 5.5 0 0 0 0 7.7 5.5 5.5 0 0 0 7.8 0l2.8-2.8a5.5 5.5 0 0 0 0-7.7 5.5 5.5 0 0 0-7.7 0zm210.3-74.9h-4a4.2 4.2 0 0 0-4.2 4.1 4.3 4.3 0 0 0 4.2 4.2l4 .1a4.2 4.2 0 0 0 4.2-4.2 4.3 4.3 0 0 0-4.2-4.2z"/></g></svg>