<svg xmlns="http://www.w3.org/2000/svg" width="361" height="361"><path d="M178.8 70.7v42.6c0 2 3 2 3 0V70.7c0-2-3-2-3 0zm.2 83.4v40.6c0 2 3 2 3 0v-40.6c0-2-3-2-3 0zm0 83.2v52.4c0 1.9 3 1.9 3 0v-52.4c0-1.9-3-1.9-3 0z" fill="#fff"/><path d="M146 274.9c4-15 7.6-29.8 16.8-42.6 11.8-16.4 31.2-24.8 43.9-40.5a75 75 0 0 0 15.4-32.3l.8-4 .3-1.1c-.7 2.2-6 2.8-6.8 2 4.7 5 11.2 16.7 20 13.3 5.8-2.4 3.3-12-2.7-9.7-3.1 1.3-9-12.4-14.5-12.7-4-.3-5.5 3.5-6.1 6.7a71 71 0 0 1-13.5 30.8c-6.7 8.4-15 14.9-23.6 21.1a100.3 100.3 0 0 0-21.8 21.3c-9.8 13.2-13.7 29.4-17.8 45-1.6 6.3 8 9 9.7 2.7z" fill="#fff"/><path d="M137.6 269.8l-.7 2.4a5.5 5.5 0 0 0 3.8 6.7c2.9.8 5.9-1 6.7-3.8l.7-2.5a5.5 5.5 0 0 0-3.8-6.7 5.5 5.5 0 0 0-6.7 3.9zm95.6-108l-2.3 1.2c-2 1-2.6 3.8-1.5 5.7a4.3 4.3 0 0 0 5.8 1.5l2.2-1.2c2-1 2.7-3.8 1.5-5.7a4.3 4.3 0 0 0-5.7-1.5z" fill="#fff"/><g fill="#fff"><path d="M145.8 203.3c4-15 7.6-29.7 16.8-42.6 11.7-16.3 31.1-24.7 43.8-40.4 7.7-9.4 13-20.4 15.5-32.3l.8-4c0-.4.2-.8.3-1.1-.7 2.2-6 2.8-6.9 1.9 4.8 5 11.3 16.8 20 13.3 5.9-2.3 3.3-12-2.7-9.6-3 1.2-9-12.4-14.5-12.8-3.9-.2-5.4 3.6-6 6.7a71 71 0 0 1-13.6 30.8c-6.6 8.5-15 15-23.6 21.2a100.3 100.3 0 0 0-21.7 21.3c-9.9 13.2-13.8 29.3-17.8 45-1.6 6.2 8 8.9 9.6 2.7z"/><path d="M137.3 198.2l-.7 2.5a5.5 5.5 0 0 0 3.8 6.7c3 .8 6-1 6.7-3.8l.8-2.5a5.5 5.5 0 0 0-3.9-6.7 5.5 5.5 0 0 0-6.7 3.8zm95.7-108l-2.3 1.2c-2 1.1-2.6 3.9-1.5 5.8a4.3 4.3 0 0 0 5.7 1.5l2.3-1.2c2-1 2.6-3.8 1.5-5.8a4.3 4.3 0 0 0-5.7-1.5z"/></g></svg>