<svg xmlns="http://www.w3.org/2000/svg" width="361" height="361"><path d="M179 71v42c0 2 3 2 3 0V71c0-2-3-2-3 0zm0 83v41c0 2 3 2 3 0v-41c0-2-3-2-3 0zm0 83v53c0 2 3 2 3 0v-53c0-2-3-2-3 0z" fill="#fff"/><path d="M132 263c8-14 15-28 28-38 8-7 18-11 27-15a103 103 0 0 0 25-14 76 76 0 0 0 22-27l2-3v-1c1-1-1-1-6 1l-1-1c4 7 7 19 17 17 7 0 4-10-2-9l-2-5-4-8a6 6 0 0 0-4-3c-4-1-6 2-8 5a72 72 0 0 1-20 26 98 98 0 0 1-26 15 103 103 0 0 0-27 15 96 96 0 0 0-29 40c-4 6 5 11 8 5z" fill="#fff"/><path d="M125 256l-1 2a6 6 0 0 0 2 8 6 6 0 0 0 7-2l2-3a6 6 0 0 0-2-7 6 6 0 0 0-8 2zm119-82l-2 1c-3 0-4 3-3 5a4 4 0 0 0 5 3l2-1c3 0 4-3 3-5a4 4 0 0 0-5-3z" fill="#fff"/><g fill="#fff"><path d="M132 191c8-14 15-27 28-38 8-6 18-10 27-14s17-8 25-14a76 76 0 0 0 22-27l2-4s1-2 0 0c1-2-1-1-6 0l-1-1c4 8 7 19 17 18 7-1 4-11-2-10l-3-5-4-8a6 6 0 0 0-3-3c-4-1-6 2-8 6a72 72 0 0 1-20 26 98 98 0 0 1-26 14 103 103 0 0 0-27 15c-14 11-22 26-30 40-3 6 6 11 9 5z"/><path d="M125 184l-1 3a6 6 0 0 0 2 7 6 6 0 0 0 7-2l1-2a6 6 0 0 0-2-8 6 6 0 0 0-7 2zm119-81h-3c-2 1-3 3-2 5a4 4 0 0 0 5 3h2c2-1 4-3 3-5a4 4 0 0 0-5-3z"/></g></svg>