<svg xmlns="http://www.w3.org/2000/svg" width="361" height="361"><path d="M148.4 161.5a126 126 0 0 1 53.2 121.9c-1 6.3 8.7 9 9.7 2.6a136.5 136.5 0 0 0-57.8-133.2c-5.4-3.6-10.3 5-5 8.7z" fill="#fff"/><path d="M155.4 154.7l-2.1-1.5a5.3 5.3 0 0 0-4.2-.5 5.5 5.5 0 0 0-3.3 2.5 5.5 5.5 0 0 0-.5 4.2 5.8 5.8 0 0 0 2.5 3.2l2 1.5c1.2.8 3 1 4.3.6a5.5 5.5 0 0 0 3.2-2.5 5.5 5.5 0 0 0 .6-4.2 5.8 5.8 0 0 0-2.5-3.3zm55.8 129.8v-2.6c.3-3-2.5-5.4-5.4-5.4-1.4 0-2.8.6-3.8 1.6a5.6 5.6 0 0 0-1.6 3.8l-.2 2.6a5.5 5.5 0 1 0 9.4 3.9 5.6 5.6 0 0 0 1.6-4zM178.8 71.7v16.2c0 2 3 2 3 0V71.7c0-2-3-2-3 0zm.2 71.3v22.8c0 2 3 2 3 0V143c0-2-3-2-3 0zm0 75v71.7c0 1.9 3 1.9 3 0V218c0-2-3-2-3 0z" fill="#fff"/><path d="M179 134v22.8c0 2 3 2 3 0V134c0-2-3-2-3 0z" fill="#fff"/><g fill="#fff"><path d="M147.2 81.2a126 126 0 0 1 53.2 122c-1 6.3 8.7 9 9.6 2.6a136.5 136.5 0 0 0-57.7-133.2c-5.4-3.7-10.4 5-5 8.6z"/><path d="M154.2 74.5L152 73a5.3 5.3 0 0 0-4.2-.6 5.5 5.5 0 0 0-3.3 2.5 5.5 5.5 0 0 0-.5 4.2 5.8 5.8 0 0 0 2.5 3.3l2 1.5c1.2.8 3 .9 4.3.5A5.5 5.5 0 0 0 156 82a5.5 5.5 0 0 0 .6-4.2 5.8 5.8 0 0 0-2.5-3.2zM210 204.3v-2.6c.2-3-2.5-5.5-5.4-5.5-1.4 0-2.8.6-3.8 1.6a5.6 5.6 0 0 0-1.6 3.9l-.2 2.6c-.1 3 2.6 5.4 5.5 5.4 1.4 0 2.8-.6 3.9-1.6a5.6 5.6 0 0 0 1.6-3.8z"/></g></svg>