<svg xmlns="http://www.w3.org/2000/svg" width="361" height="361"><path d="M178.8 70.7v59.5c0 1.9 3 1.9 3 0V70.7c0-2-3-2-3 0zm.2 88.4v40.6c0 2 3 2 3 0v-40.6c0-2-3-2-3 0zm0 71.6v59c0 1.9 3 1.9 3 0v-59c0-2-3-2-3 0zm-9-79.7l21.1 2.5c6.4.7 6.3-9.3 0-10L170 141c-6.4-.7-6.3 9.3 0 10z" fill="#fff"/><path d="M194.3 152.9l60-31c5.8-3 .7-11.7-5-8.7l-60 31c-5.8 3-.7 11.7 5 8.7zm-82 28.5l60.1-31c5.8-3 .7-11.7-5-8.7l-60.1 31c-5.7 3-.7 11.7 5 8.7z" fill="#fff"/><path d="M110.2 172l-2.3 1.1a5.3 5.3 0 0 0-2.6 3.3 5.5 5.5 0 0 0 .6 4.2 5.5 5.5 0 0 0 3.2 2.5c1.6.4 2.9.1 4.3-.6l2.3-1a5.3 5.3 0 0 0 2.5-3.4 5.5 5.5 0 0 0-.6-4.1 5.5 5.5 0 0 0-3.2-2.5 5.7 5.7 0 0 0-4.2.5zM249 113.3l-2.2 1.2c-2.7 1.3-3.4 5-2 7.4a5.5 5.5 0 0 0 3.3 2.5c1.4.4 2.9.2 4.2-.5l2.2-1.2c2.7-1.4 3.4-5 2-7.5a5.5 5.5 0 0 0-3.3-2.5 5.6 5.6 0 0 0-4.2.6zm-79.5 104.3l21.3 2.5c6.3.7 6.3-9.3 0-10l-21.3-2.5c-6.3-.7-6.3 9.3 0 10z" fill="#fff"/><path d="M194 219.5l60-31c5.7-3 .7-11.7-5-8.7l-60.1 31c-5.8 3-.7 11.7 5 8.7zM112 248l60-31c5.8-3 .7-11.6-5-8.7l-60 31c-5.8 3-.7 11.7 5 8.7z" fill="#fff"/><path d="M109.8 238.6l-2.3 1.1a5.3 5.3 0 0 0-2.5 3.3 5.5 5.5 0 0 0 .5 4.2 5.5 5.5 0 0 0 3.3 2.5c1.5.4 2.8.1 4.2-.5l2.3-1.2a5.3 5.3 0 0 0 2.5-3.2 5.5 5.5 0 0 0-.5-4.2 5.5 5.5 0 0 0-3.3-2.5 5.7 5.7 0 0 0-4.2.5zM248.7 180l-2.3 1.2c-2.6 1.4-3.4 5-2 7.5a5.5 5.5 0 0 0 3.3 2.5c1.5.4 2.9.1 4.2-.6l2.3-1.2c2.6-1.4 3.4-5 2-7.4a5.5 5.5 0 0 0-3.3-2.5 5.6 5.6 0 0 0-4.2.5z" fill="#fff"/></svg>