<svg xmlns="http://www.w3.org/2000/svg" width="361" height="361"><path d="M179 71v42c0 2 3 2 3 0V71c0-2-3-2-3 0zm0 83v41c0 2 3 2 3 0v-41c0-2-3-2-3 0zm0 93v43c0 2 3 2 3 0v-43c0-2-3-2-3 0z" fill="#fff"/><path d="M171 287c-2-16-4-31 0-46a91 91 0 0 1 13-27 111 111 0 0 0 14-28 76 76 0 0 0 2-36v-3a6 6 0 0 1 0-1c-1 3-2 4-5 5-1 0-4-2 0 0 6 4 16 11 23 4 4-4-3-11-7-7h-1a16 16 0 0 1-3-1l-7-5c-2 0-4-2-6-1-5 1-5 5-4 9a73 73 0 0 1-1 32 100 100 0 0 1-15 28 99 99 0 0 0-13 28c-4 16-2 33 0 49 0 6 10 6 10 0z" fill="#fff"/><path d="M161 284v3l2 4a6 6 0 0 0 7 0 5 5 0 0 0 2-4v-3a6 6 0 0 0-2-4 6 6 0 0 0-8 0 5 5 0 0 0-1 4zm51-135l-2 2a4 4 0 0 0-1 3l1 3c2 2 4 2 6 0l2-2a4 4 0 0 0 1-3 4 4 0 0 0-1-3h-6z" fill="#fff"/><g fill="#fff"><path d="M170 215c-1-15-3-30 1-46a91 91 0 0 1 13-27c6-8 10-18 14-28a76 76 0 0 0 2-35l-1-3a6 6 0 0 1 0-1c0 2-1 4-4 4-1 0-4-1 0 1 6 3 15 10 22 4 5-5-2-12-7-7v-1a16 16 0 0 1-3-1l-7-4-7-2c-4 2-4 6-3 9 1 11 1 22-2 32a100 100 0 0 1-14 29 99 99 0 0 0-13 28c-5 16-2 32-1 48 1 7 11 7 10 0z"/><path d="M161 213v2l1 4a6 6 0 0 0 8 0 5 5 0 0 0 2-4l-1-2a6 6 0 0 0-1-4 6 6 0 0 0-8 0 5 5 0 0 0-2 4zm50-135l-1 2a4 4 0 0 0-1 3l1 3h6l1-2a4 4 0 0 0 2-3 4 4 0 0 0-2-3c-1-2-4-2-6 0z"/></g></svg>