<svg xmlns="http://www.w3.org/2000/svg" width="361" height="361"><path d="M178.8 70.7v42.6c0 2 3 2 3 0V70.7c0-2-3-2-3 0zm.2 83.4v40.6c0 2 3 2 3 0v-40.6c0-2-3-2-3 0zm0 83.2v52.4c0 1.9 3 1.9 3 0v-52.4c0-1.9-3-1.9-3 0z" fill="#fff"/><path d="M132.2 263c7.6-14.1 15-27.9 27.6-38.2 8.1-6.7 17.9-10.7 27.5-14.6a103 103 0 0 0 25-14.1 75.5 75.5 0 0 0 21.7-27l1.8-3.6c.2-.4 1-1.6-.1-.1 1.4-1.4-.4-1.2-5.3.5-1.6-.7-1.9-2.2-1.3-1.1 4 7.3 7 19 17.4 17.6 6.3-.8 3.6-10.5-2.7-9.6 1.2-.2-1.7-4.2-2.2-5.1l-3.9-8a5.8 5.8 0 0 0-3.7-3c-4-.8-6.1 2.1-7.6 5.3a71.7 71.7 0 0 1-20.3 26.3 97.8 97.8 0 0 1-26.3 14.2 103.3 103.3 0 0 0-27 15.2c-13.4 10.5-21.3 25.6-29.2 40.2-3.1 5.7 5.5 10.7 8.6 5z" fill="#fff"/><path d="M125.3 255.8L124 258a5.5 5.5 0 0 0 2 7.5 5.5 5.5 0 0 0 7.4-2l1.3-2.2a5.5 5.5 0 0 0-2-7.5 5.5 5.5 0 0 0-7.4 2zm118.9-81.6l-2.5.6c-2.2.5-3.5 3-3 5.2a4.3 4.3 0 0 0 5.2 2.9l2.5-.6c2.2-.6 3.5-3 3-5.2a4.3 4.3 0 0 0-5.2-3z" fill="#fff"/><g fill="#fff"><path d="M132 191.4c7.6-14 15-27.8 27.5-38.1 8.2-6.7 18-10.8 27.6-14.7 8.9-3.5 17.3-8.1 24.9-14a75.5 75.5 0 0 0 21.8-27l1.7-3.6c.3-.5 1.1-1.6 0-.2 1.4-1.4-.4-1.2-5.4.6-1.5-.7-1.8-2.2-1.3-1.1 4 7.2 7 19 17.4 17.6 6.4-.9 3.7-10.5-2.6-9.6 1.2-.2-1.7-4.2-2.2-5.2l-4-7.9a5.7 5.7 0 0 0-3.6-3c-4-.8-6.2 2.1-7.7 5.3a71.7 71.7 0 0 1-20.2 26.2 97.8 97.8 0 0 1-26.4 14.2 103.4 103.4 0 0 0-27 15.3c-13.3 10.5-21.2 25.6-29.2 40.2-3 5.6 5.6 10.7 8.6 5z"/><path d="M125 184.3l-1.3 2.2a5.5 5.5 0 0 0 2 7.4 5.5 5.5 0 0 0 7.5-2l1.2-2.2a5.5 5.5 0 0 0-2-7.4 5.5 5.5 0 0 0-7.4 2zm119-81.7l-2.6.7c-2.2.5-3.5 3-2.9 5.1a4.3 4.3 0 0 0 5.2 3l2.5-.6c2.2-.6 3.5-3 3-5.2a4.3 4.3 0 0 0-5.3-3z"/></g></svg>