<svg xmlns="http://www.w3.org/2000/svg" width="361" height="361"><path d="M267.8 263.3a7 7 0 0 1-7 7l-158 .1a7 7 0 0 1-7-7V105.7a7 7 0 0 1 7-7h158a7 7 0 0 1 7 7v157.5z" fill="none" stroke="#fff" stroke-width="10" stroke-miterlimit="10"/><path d="M228.5 205.6h6.6c2.8 0 5-2.3 5-5s-2.2-5-5-5h-6.6c-2.7 0-5 2.3-5 5s2.3 5 5 5z" fill="#fff"/><path d="M267.8 103.2c0 2.5-2.7 4.5-6 4.5h-160c-3.3 0-6-2-6-4.5v-9c0-2.5 2.7-4.5 6-4.5h160c3.3 0 6 2 6 4.5v9z" fill="none" stroke="#fff" stroke-width="10" stroke-miterlimit="10"/><path d="M232.8 280.9c-.3 3.4-18.8-.8-20.9-1l-45-6-45.1-6-14.5-1.8c-1.5-.2-6.2-.1-6.5-2.2-.6-6.1 0-12.7 0-18.9V114.3c0-2.5 5.2-1 6.5-.8l35.4 4.6 83.7 11c1.5.3 6.2.1 6.4 2.2.2 1.7 0 3.5 0 5.2v144.4c0 6.5 10 6.5 10 0V131.3c0-7.6-6.1-10.8-12.6-11.6l-28.6-3.8-88.4-11.7-9.9-1.3c-6.5-.8-12.5 5-12.5 11.4v144.9c0 2 0 4 .2 6 .7 7.1 6.6 9.6 12.7 10.4l76.9 10.1 39.9 5.3 9.7 1.2c7 1 12-4.7 12.6-11.3.7-6.4-9.3-6.4-10 0z" fill="#fff"/></svg>