<svg xmlns="http://www.w3.org/2000/svg" width="361" height="361"><path d="M181 212a29 29 0 0 1-12 4H78c-4 0-4-2-1-4l114-66c3-2 8-3 12-3h61l-13 29-70 40z" fill="none" stroke="#fff" stroke-width="10" stroke-miterlimit="10"/><path d="M129 206l-6 4a5 5 0 0 0-2 6 5 5 0 0 0 7 2l6-3a5 5 0 0 0 1-7 5 5 0 0 0-6-2z" fill="#fff"/><path d="M208 264c-2 5-8 8-12 8H80c-5 1-7-3-5-8l78-167c2-4 8-8 12-8h116c5 0 7 4 5 8l-78 167z" fill="none" stroke="#fff" stroke-width="10" stroke-miterlimit="10"/><path fill="#fff" d="M278 104H150l9-17h128zM76 263h128v6H76z"/></svg>