<svg xmlns="http://www.w3.org/2000/svg" width="361" height="361"><path d="M126 258a126.3 126.3 0 0 1 116.8-66.1c6.4.3 6.4-9.7 0-10a136.3 136.3 0 0 0-125.4 71c-3 5.6 5.5 10.7 8.6 5z" fill="#fff"/><path d="M119 250.7l-1.2 2.3a5.5 5.5 0 0 0 2 7.4 5.5 5.5 0 0 0 7.4-2l1.3-2.1a5.5 5.5 0 0 0-2-7.5 5.5 5.5 0 0 0-7.4 2zm123.6-68.5l-2.5.1c-1.5.1-2.8.6-3.9 1.6a5.5 5.5 0 0 0-1.6 3.9c0 2.8 2.5 5.6 5.5 5.4l2.5-.1a5.6 5.6 0 0 0 3.9-1.6 5.5 5.5 0 0 0 1.6-3.9c0-2.8-2.5-5.6-5.5-5.4zM178.8 71.7v16.2c0 2 3 2 3 0V71.7c0-2-3-2-3 0zm.2 71.3v22.8c0 2 3 2 3 0V143c0-2-3-2-3 0zm0 75v71.7c0 1.9 3 1.9 3 0V218c0-2-3-2-3 0z" fill="#fff"/><g fill="#fff"><path d="M124.8 177.7a126.3 126.3 0 0 1 116.8-66c6.4.2 6.4-9.8 0-10a136.3 136.3 0 0 0-125.4 71c-3.1 5.6 5.5 10.6 8.6 5z"/><path d="M117.9 170.5l-1.3 2.2a5.5 5.5 0 0 0 2 7.5 5.5 5.5 0 0 0 7.4-2l1.3-2.2a5.5 5.5 0 0 0-2-7.4 5.5 5.5 0 0 0-7.4 2zM241.4 102H239c-1.5.2-2.8.6-3.9 1.7a5.5 5.5 0 0 0-1.6 3.8c0 2.9 2.5 5.6 5.5 5.5l2.5-.2a5.6 5.6 0 0 0 3.9-1.6 5.5 5.5 0 0 0 1.6-3.8c0-2.9-2.5-5.6-5.5-5.5z"/></g><path d="M179 134v22.8c0 2 3 2 3 0V134c0-2-3-2-3 0z" fill="#fff"/></svg>