<svg xmlns="http://www.w3.org/2000/svg" width="361" height="361"><path d="M138 272a126 126 0 0 1 94-96c7-1 4-11-2-9a136 136 0 0 0-101 102c-2 7 8 9 9 3z" fill="#fff"/><path d="M130 267l-1 2c-1 3 1 6 4 7s6-1 7-4v-2c1-3-1-6-4-7-2-1-6 1-6 4zm100-100l-3 1a6 6 0 0 0-3 2 6 6 0 0 0-1 5 6 6 0 0 0 3 3h7a6 6 0 0 0 3-3 6 6 0 0 0 0-4 6 6 0 0 0-2-3 5 5 0 0 0-4-1zm-93 25a126 126 0 0 1 94-96c6-1 4-11-3-10a136 136 0 0 0-101 103c-1 6 9 9 10 3z" fill="#fff"/><path d="M129 187l-1 2c-1 3 1 6 4 7s6-1 6-4l1-2c1-3-1-6-4-7s-6 1-7 4zm99-100l-2 1a6 6 0 0 0-3 2 6 6 0 0 0-1 4 6 6 0 0 0 3 4h4l2-1a6 6 0 0 0 4-2 6 6 0 0 0 0-4 6 6 0 0 0-2-4 5 5 0 0 0-5 0zm-49-15v16c0 2 3 2 3 0V72c0-2-3-2-3 0zm0 71v23c0 2 3 2 3 0v-23c0-2-3-2-3 0zm0 75v72c0 2 3 2 3 0v-72c0-2-3-2-3 0z" fill="#fff"/><path d="M179 134v23c0 2 3 2 3 0v-23c0-2-3-2-3 0z" fill="#fff"/></svg>