<svg xmlns="http://www.w3.org/2000/svg" width="361" height="361"><path d="M183 241c-3 4-9 7-12 7H80c-4 0-4-3-1-7l103-122c3-3 8-6 12-6h84l-14 31-81 97z" fill="none" stroke="#fff" stroke-width="10" stroke-miterlimit="10"/><path d="M129 234l-5 6c-2 3-2 5 0 8 2 1 5 2 7 0l5-7c2-2 2-5 0-7-2-1-5-2-7 0z" fill="#fff"/><path d="M208 264c-2 5-8 8-12 8H80c-5 1-7-3-5-8l78-167c2-4 8-8 12-8h116c5 0 7 4 5 8l-5 10-17 36-56 121z" fill="none" stroke="#fff" stroke-width="10" stroke-miterlimit="10"/><path fill="#fff" d="M278 104H150l9-17h128zM76 263h128v6H76z"/></svg>