<svg xmlns="http://www.w3.org/2000/svg" width="361" height="361"><path d="M201 252v-1h-14c1 0 1 3 1 0v-21c0 2-2 1-1 1h15c-1 0-1-2-1 1v20c0 5 7 5 7 0v-11c0-4 1-9-1-13-1-5-9-4-13-4-5 0-11-1-13 5v25c2 5 10 4 14 4 5 0 11 1 13-5 1-4-6-6-7-2zm28-1h-13v-30c0 1-2 1 0 1h13v-1 31c0 4 7 4 7 0v-31c0-6-6-6-11-6-6 0-15-2-16 5v31c0 7 6 7 11 7s14 2 15-5c2-5-5-7-6-2z" fill="#fff"/><path d="M257 251h-14c-1 0 0 1 0 0v-40c0 1-1 1 1 1h13l-1-1v41c0 4 7 4 7 0v-37c0-5 0-10-6-10h-10c-3 0-7-1-9 1-3 3-2 11-2 15v23c0 4-1 12 4 13l17 1c3 0 6-2 6-5 1-5-6-7-7-2zm27 0s2 0 0 0h-12c-2 0-1 0-1 1v-54 1h13c2 0 0 0 0-1v54c0 4 7 4 7 0v-53c0-8-6-7-12-7-5 0-15-2-15 6v53c0 7 7 7 11 7 6 0 14 1 16-5 1-5-5-7-7-2zm-82 40l-2-6h-9l-1 6h-7a234 234 0 0 1 5-14l4-13h8a328 328 0 0 1 4 13l5 14h-7zm-6-21a176 176 0 0 0-2 5l-1 3a92 92 0 0 0-1 3h7l-1-3v-3a134 134 0 0 0-2-5zm27 22l-5-1a9 9 0 0 1-4-2l-2-3a16 16 0 0 1 0-4v-18h7v20l1 2 1 1h5a3 3 0 0 0 1-1l1-2v-20h7v18l-1 4a7 7 0 0 1-2 3l-3 2-6 1zm40-28v5h-9v22h-7v-22h-9v-5h25zm3 14c0-5 1-8 3-11 2-2 5-3 9-3s7 1 9 3c2 3 4 6 4 11s-1 8-4 10a12 12 0 0 1-9 4c-4 0-7-1-9-4-2-2-3-6-3-10zm7 0v4l1 3a5 5 0 0 0 1 2h6a5 5 0 0 0 2-2v-3l1-4-1-4a10 10 0 0 0 0-3 5 5 0 0 0-2-2l-3-1-3 1-1 2-1 3a33 33 0 0 0 0 4z" fill="#fff"/><path d="M239 188a5 5 0 0 1-5 5H86a5 5 0 0 1-5-5V93a5 5 0 0 1 5-5h148a5 5 0 0 1 5 5v95z" fill="none" stroke="#fff" stroke-width="10" stroke-miterlimit="10"/><path d="M155 145h10c6 0 6-10 0-10h-10c-6 0-6 10 0 10z" fill="#fff"/><path fill="none" stroke="#fff" stroke-width="10" stroke-miterlimit="10" d="M160 88v103"/><path d="M245 89l-6 1H81l-6-1V76l6-1h158l6 1v13z" fill="#fff" stroke="#fff" stroke-width="10" stroke-miterlimit="10"/><path d="M97 193V85c0-4-7-4-7 0v108c0 5 7 5 7 0zm15 0V85c0-4-7-4-7 0v108c0 5 7 5 7 0zm15 0V85c0-4-7-4-7 0v108c0 5 7 5 7 0zm14 0V85c0-4-7-4-7 0v108c0 5 7 5 7 0zm15 0V85c0-4-7-4-7 0v108c0 5 7 5 7 0zm15 0V85c0-4-7-4-7 0v108c0 5 7 5 7 0zm14 0V85c0-4-7-4-7 0v108c0 5 7 5 7 0z" fill="#fff"/></svg>