<svg xmlns="http://www.w3.org/2000/svg" width="361" height="361"><path d="M179 71v59c0 2 3 2 3 0V71c0-2-3-2-3 0zm0 88v41c0 2 3 2 3 0v-41c0-2-3-2-3 0zm0 72v59c0 2 3 2 3 0v-59c0-2-3-2-3 0zm-7-76l20-6c6-2 4-11-3-10l-20 7c-6 2-4 11 3 9z" fill="#fff"/><path d="M195 148l42-53c4-5-3-12-7-7l-42 53c-4 5 3 12 7 7zm-63 59l42-53c4-5-3-12-7-7l-43 53c-4 5 3 12 8 7z" fill="#fff"/><path d="M127 198l-2 2a6 6 0 0 0-2 4l2 4a6 6 0 0 0 4 1l4-1 2-2a6 6 0 0 0 1-4l-2-4a6 6 0 0 0-3-2l-4 2zM230 88l-2 2-1 1a5 5 0 0 0 0 3 6 6 0 0 0 1 3 6 6 0 0 0 4 2c1 0 3 0 4-2l2-2v-1a5 5 0 0 0 1-2 6 6 0 0 0-1-4 6 6 0 0 0-4-2l-4 2zm-59 134l21-6c6-2 3-12-3-10l-20 6c-6 2-4 12 2 10z" fill="#fff"/><path d="M194 214l43-53c4-5-3-12-7-7a1085206 1085206 0 0 0-43 53c-4 5 3 12 7 7zm-63 60l42-53c4-5-3-12-7-7l-42 53c-4 5 3 12 7 7z" fill="#fff"/><path d="M126 265l-1 2a6 6 0 0 0-2 3 5 5 0 0 0 2 4 6 6 0 0 0 4 2l4-2 1-2a6 6 0 0 0 2-4 5 5 0 0 0-2-3 6 6 0 0 0-4-2l-4 2zm103-111l-1 2-1 2a5 5 0 0 0-1 2 6 6 0 0 0 2 4 6 6 0 0 0 4 2l3-2 2-2 1-1a5 5 0 0 0 1-3 6 6 0 0 0-2-4 6 6 0 0 0-4-1l-4 1z" fill="#fff"/></svg>