<svg xmlns="http://www.w3.org/2000/svg" width="361" height="361"><path d="M267.7 252.1c0 3.2-1.9 6.3-4.1 6.9l-49 21.7c-2.2.6-4-1.6-4-4.8V154c0-3.2 1.8-6.3 4-6.9l49-21.7c2.2-.6 4 1.6 4 4.8v122z" fill="none" stroke="#fff" stroke-width="10" stroke-miterlimit="10"/><path d="M212.4 220l4.7-1.1a5 5 0 0 0 3.5-6.2 5 5 0 0 0-6.1-3.5l-4.8 1.2a5 5 0 0 0-3.5 6.2 5 5 0 0 0 6.2 3.5z" fill="#fff"/><g fill="none" stroke="#fff" stroke-width="10" stroke-miterlimit="10"><path d="M267.6 250.3c0 4-2.5 7-5.7 7l-162 .1c-3 0-5.7-3.2-5.7-7V122.7c0-3.9 2.6-7 5.8-7h161.9c3.2 0 5.8 3 5.8 7v127.5zM181 116.6v137.2"/><path d="M267.6 120.2c0 2.5-2.2 4.5-4.9 4.5H99.2c-2.8 0-5-2-5-4.5v-9c0-2.5 2.2-4.5 5-4.5h163.5c2.7 0 5 2 5 4.5v9z"/></g><path d="M267.6 250.3c0 4-2.5 7-5.7 7l-162 .1c-3 0-5.7-3.2-5.7-7V122.7c0-3.9 2.6-7 5.8-7h161.9c3.2 0 5.8 3 5.8 7v127.5z" fill="none" stroke="#fff" stroke-width="10" stroke-miterlimit="10"/><path d="M181 191.6c6.4 0 6.4-10 0-10s-6.5 10 0 10z" fill="#fff"/><path fill="none" stroke="#fff" stroke-width="10" stroke-miterlimit="10" d="M181 116.6v137.2m86.6-133.6c0 2.5-2.2 4.5-4.9 4.5H99.2c-2.8 0-5-2-5-4.5v-9c0-2.5 2.2-4.5 5-4.5h163.5c2.7 0 5 2 5 4.5v9zm-93 131.6c.5 2.9-1.2 5.2-3.8 5.2H97.5c-2.6 0-5-2.3-5.5-5.2L75.5 147.2c-.4-2.9 1.3-5.2 3.9-5.2h73.3c2.6 0 5 2.3 5.5 5.2l16.4 104.6z"/></svg>