<svg xmlns="http://www.w3.org/2000/svg" width="361" height="361"><path d="M272 234c-1 2-3 1-5 1H89s-1 2 0 0a273 273 0 0 0 6-20c2-9 2-19 2-29l2-15h161c3 0 2 0 2 3l2 34c1 10 4 19 8 28 2 6 11 4 9-2a176 176 0 0 1-6-22c-2-9-1-19-2-28 0-6 1-17-5-21-3-3-6-2-9-2H98c-9 0-10 9-10 17l-2 29c-1 9-4 17-6 26-3 6 3 12 9 12h171c8 0 20 2 21-9 1-6-9-9-9-2zM249 75c-6-9-24-5-32-3-23 5-45 15-66 26a245 245 0 0 0-53 37c-6 6-18 17-14 27 1 1 4 0 3-2-2-4 1-8 3-11a77 77 0 0 1 13-15 255 255 0 0 1 50-33 276 276 0 0 1 59-25 90 90 0 0 1 22-3c4 0 10 0 12 4 1 2 4 0 3-2z" fill="#fff"/><path d="M87 169l132-69 34-17c6-3 0-12-5-9a5512721 5512721 0 0 0-133 69l-33 18c-6 3-1 11 5 8z" fill="#fff"/><path d="M80 166l2 12c1 3 4 5 6 4 3-1 4-3 4-6l-3-12c0-3-3-5-6-4s-4 4-3 6zm167-84l8 9c5 4 12-3 7-7l-8-9c-5-5-12 2-7 7zM80 224c0 4-1 13-7 14-5 0-5 7 0 7 10-1 14-13 14-21 0-5-7-5-7 0zm194 0c0 8 4 20 14 21 5 0 5-7 0-7-6-1-7-10-7-14 0-5-7-5-7 0z" fill="#fff"/><path d="M84 227h193c5 0 5-7 0-7H84c-4 0-4 7 0 7zm-11 19h215c5 0 5-7 0-7H73c-5 0-5 7 0 7zM246 86l5 75c0 2 3 2 3 0l-5-75c-1-2-4-2-3 0z" fill="#fff"/></svg>