<svg xmlns="http://www.w3.org/2000/svg" width="361" height="361"><path d="M274 289H75c-2 0-2 3 0 3h199c2 0 2-3 0-3z" fill="#fff"/><path d="M70 205v82c0 6 10 6 10 0v-83c0-6-10-6-10 0z" fill="#fff"/><path d="M276 284c0 3-2 4-5 4h-37c-3 0-5-1-5-4v-76c0-2 2-4 4-4h38c3 0 5 2 5 4v76z" fill="none" stroke="#fff" stroke-width="7" stroke-miterlimit="10"/><path d="M100 235h150c10 0 10-15 0-15H100c-10 0-10 15 0 15z" fill="#fff"/><path d="M263 216a3 3 0 0 1 3 3v17a3 3 0 0 1-3 3h-26a3 3 0 0 1-2-3v-17a3 3 0 0 1 3-3h25z" fill="#fff"/></svg>