<svg xmlns="http://www.w3.org/2000/svg" width="361" height="361"><path d="M112.5 213.1c45-17.7 96.2-8.7 132 24 4.7 4.4 11.8-2.6 7-7a136.3 136.3 0 0 0-141.7-26.6c-5.9 2.3-3.3 12 2.7 9.6z" fill="#fff"/><path d="M112.5 202.9l-2.4.9a5.8 5.8 0 0 0-3.2 2.5 5.5 5.5 0 0 0-.6 4.2 5.5 5.5 0 0 0 2.5 3.3 5.3 5.3 0 0 0 4.2.5l2.4-.9a5.8 5.8 0 0 0 3.3-2.5 5.5 5.5 0 0 0 .6-4.2 5.5 5.5 0 0 0-2.5-3.2 5.3 5.3 0 0 0-4.2-.6zm137.6 26.5l-2-1.6c-1.1-.8-3-.9-4.2-.5a5.5 5.5 0 0 0-3.3 2.5 5.5 5.5 0 0 0-.5 4.2l.5 1.3a5.5 5.5 0 0 0 2 2l2 1.5c1.1.8 3 1 4.2.6a5.5 5.5 0 0 0 3.3-2.5 5.5 5.5 0 0 0 .5-4.2l-.5-1.3a5.5 5.5 0 0 0-2-2zM178.8 71.7v16.2c0 2 3 2 3 0V71.7c0-2-3-2-3 0zm.2 71.3v22.8c0 2 3 2 3 0V143c0-2-3-2-3 0zm0 75v71.7c0 1.9 3 1.9 3 0V218c0-2-3-2-3 0z" fill="#fff"/><path d="M179 134v22.8c0 2 3 2 3 0V134c0-2-3-2-3 0z" fill="#fff"/><g fill="#fff"><path d="M111.3 132.9c45-17.8 96.2-8.8 132 24 4.7 4.4 11.8-2.7 7-7a136.2 136.2 0 0 0-141.7-26.7c-5.9 2.4-3.3 12 2.7 9.7z"/><path d="M111.3 122.7l-2.4.9a5.8 5.8 0 0 0-3.2 2.5 5.5 5.5 0 0 0-.6 4.2 5.5 5.5 0 0 0 2.5 3.2 5.3 5.3 0 0 0 4.2.6l2.4-1a5.8 5.8 0 0 0 3.3-2.4 5.5 5.5 0 0 0 .6-4.2 5.5 5.5 0 0 0-2.6-3.3 5.3 5.3 0 0 0-4.2-.5zM249 149.2l-2-1.6c-1.1-.8-3-.9-4.2-.5a5.5 5.5 0 0 0-3.3 2.5 5.5 5.5 0 0 0-.6 4.2l.6 1.3a5.5 5.5 0 0 0 2 2l2 1.5c1.1.8 3 .9 4.2.5a5.5 5.5 0 0 0 3.3-2.5 5.5 5.5 0 0 0 .5-4.2 509 509 0 0 0-.5-1.3 5.5 5.5 0 0 0-2-2z"/></g></svg>