<svg xmlns="http://www.w3.org/2000/svg" width="361" height="361"><path d="M144.1 282H74.8l1.3 9.7 16.7-3.2 11.7-2.2 4.3-.8c2-.4 2.2.3-1-.3l35 6.5c6.2 1.2 9-8.4 2.6-9.6l-35-6.6c-2-.4-4.4.4-6.4.8l-12 2.2-18.6 3.6c-5.6 1-4.2 9.8 1.4 9.8H144c6.4 0 6.4-10 0-10zM104 149.5l86.7-54.7-2.7.4 99.7 24.2v-6.7l-147.1 24-39.3 6.4c-4.4.7-2.6 7.5 1.9 6.8l147-24 39.3-6.5c3.5-.5 3.2-6 0-6.7l-71.4-17.4-28-6.8c-2.4-.6-4.3 1.2-6.2 2.4l-13.2 8.3a7344151.8 7344151.8 0 0 0-70.2 44.3c-3.8 2.4-.3 8.4 3.5 6z" fill="#fff"/><path d="M183.7 90.1L165 131.5c-1.8 4 4.2 7.6 6 3.5l18.7-41.3c1.8-4.1-4.2-7.7-6-3.6z" fill="#fff"/><path d="M187.6 81L74 125.6c-6 2.4-3.4 12 2.6 9.7l113.8-44.7c6-2.3 3.4-12-2.7-9.6z" fill="#fff"/><path d="M115.7 280.3L92.4 136.1l-1.2-7.5c-1-6.3-10.7-3.6-9.7 2.7L105 275.5l1.2 7.5c1 6.3 10.7 3.6 9.6-2.7z" fill="#fff"/><path d="M72.9 131.1l20 42.2c.8 1.7 3.4.2 2.6-1.5l-20-42.2c-.9-1.7-3.5-.2-2.6 1.5zm114-34.7l31.8 32.2c3.2 3.2 8.2-1.7 5-5l-31.8-32.2c-3.2-3.2-8.2 1.7-5 5z" fill="#fff"/></svg>