<svg xmlns="http://www.w3.org/2000/svg" width="361" height="361"><g fill="#fff"><path d="M251 166a6 6 0 0 0 6 6h13a6 6 0 0 0 6-6v-12a6 6 0 0 0-6-6h-13a6 6 0 0 0-6 6v12zm-114 0a6 6 0 0 0 7 6h12a6 6 0 0 0 6-6v-12a6 6 0 0 0-6-6h-12a6 6 0 0 0-7 6v12zm4-62v-1l5-19c0-8 8-14 14-14h94c6 0 14 6 14 14l5 19v1c0 8-5 14-11 14H152c-6 0-11-6-11-14zm122 1l-5-20c0-2-3-4-4-4h-94c-1 0-4 2-4 4l-5 20a7 7 0 0 0 1 3h109l2-3z"/><path d="M133 118c0-3 3-5 6-5h136c3 0 6 2 6 5v30c0 3-3 5-6 5H139c-3 0-6-2-6-5v-30zm113 12c0 3 3 5 7 5h18c3 0 6-2 6-5v-5c0-3-3-5-6-5h-18c-4 0-7 2-7 5v5zm-109 0c0 3 3 5 6 5h19c3 0 6-2 6-5v-5c0-3-3-5-6-5h-19c-3 0-6 2-6 5v5zm43 5c0 6 2 10 6 10h43c3 0 6-4 6-10v-6c0-5-3-9-6-9h-43c-4 0-6 4-6 9v6z"/><path d="M172 123h70v10h-70zm-1 13h70v11h-70z"/></g><path d="M82 180v105c0 9 15 9 15 0V180c0-10-15-10-15-1z" fill="#fff"/><path d="M88 292h199c2 0 2-3 0-3H88c-2 0-2 3 0 3zm149-100v89c0 6 10 6 10 0v-89c0-6-10-6-10 0zm-24 0v89c0 6 10 6 10 0v-89c0-6-10-6-10 0zm-24 0v89c0 6 10 6 10 0v-89c0-6-10-6-10 0zm-47 0v89c0 6 10 6 10 0v-89c0-6-10-6-10 0zm-24 0v89c0 6 10 6 10 0v-89c0-6-10-6-10 0zm-24 0v89c0 6 10 6 10 0v-89c0-6-10-6-10 0zm-24 0v89c0 6 10 6 10 0v-89c0-6-10-6-10 0z" fill="#fff"/><path d="M242 276H75c-6 0-6 10 0 10h167c7 0 7-10 0-10zm0-90H75c-6 0-6 10 0 10h167c7 0 7-10 0-10z" fill="#fff"/><path d="M166 192v89c0 6 10 6 10 0v-89c0-6-10-6-10 0zm115 0v95c1 7 11 7 11 0v-95c0-7-10-7-10 0z" fill="#fff"/></svg>