<svg xmlns="http://www.w3.org/2000/svg" width="361" height="361"><path d="M121.3 186.5c48.4 2 91.2 32 110.4 76.3 2.6 6 11.2.8 8.6-5a136.2 136.2 0 0 0-119-81.3c-6.4-.3-6.4 9.7 0 10z" fill="#fff"/><path d="M124 177h-2.6c-3-.3-5.4 2.6-5.4 5.4a5 5 0 0 0 1.6 3.8 5.7 5.7 0 0 0 3.8 1.6l2.6.2c3 .2 5.4-2.6 5.4-5.5a5 5 0 0 0-1.6-3.8 5.7 5.7 0 0 0-3.8-1.6zm116 80.7l-1.3-2.2a5.5 5.5 0 0 0-7.4-2 5.5 5.5 0 0 0-2 7.5l1.3 2.2a5.5 5.5 0 0 0 7.4 2 5.5 5.5 0 0 0 2-7.5zm-61.2-186v16.2c0 2 3 2 3 0V71.7c0-2-3-2-3 0zm.2 71.3v22.8c0 2 3 2 3 0V143c0-2-3-2-3 0zm0 75v71.7c0 1.9 3 1.9 3 0V218c0-2-3-2-3 0z" fill="#fff"/><path d="M179 134v22.8c0 2 3 2 3 0V134c0-2-3-2-3 0z" fill="#fff"/><g fill="#fff"><path d="M120.1 106.3c48.4 2 91.2 32 110.4 76.3 2.5 5.9 11.2.8 8.6-5a136.2 136.2 0 0 0-119-81.3c-6.4-.3-6.4 9.7 0 10z"/><path d="M122.8 96.8l-2.6-.1c-3-.2-5.4 2.6-5.4 5.4a5.5 5.5 0 0 0 1.6 3.9 5.7 5.7 0 0 0 3.8 1.6l2.6.2c3 .1 5.4-2.7 5.4-5.5a5.5 5.5 0 0 0-1.6-3.9 5.7 5.7 0 0 0-3.8-1.6zm116 80.7l-1.3-2.2a5.5 5.5 0 0 0-7.4-2 5.5 5.5 0 0 0-2 7.4l1.2 2.3a5.5 5.5 0 0 0 7.5 2 5.5 5.5 0 0 0 2-7.5z"/></g></svg>