<svg xmlns="http://www.w3.org/2000/svg" width="361" height="361"><path d="M233 281a6 6 0 0 1-6 6h-93a6 6 0 0 1-6-6V81a6 6 0 0 1 6-6h93a6 6 0 0 1 6 6v200z" fill="none" stroke="#fff" stroke-width="10" stroke-miterlimit="10"/><path d="M231 280a6 6 0 0 0-6-6h-91a6 6 0 0 0-6 6v1a6 6 0 0 0 6 6h91a6 6 0 0 0 6-6v-1z" fill="none" stroke="#fff" stroke-width="10" stroke-miterlimit="10"/><path d="M128 186h11c7 0 7-10 0-10h-11c-7 0-7 10 0 10zm31-2s-2 0 0 0h47v-1 38h-47c-2 0 0 1 0 1v-39c0-5-7-5-7 0v36c0 5 1 9 7 9h40c4 0 12 1 13-4l1-15v-22c0-5-1-10-7-10h-41c-5 0-11-1-13 5-1 4 6 6 7 1z" fill="#fff"/><path d="M156 218h27c5 0 5-7 0-7h-27c-4 0-4 7 0 7zm1-11h26c5 0 5-7 0-7h-26c-4 0-4 7 0 7zm0-11h26c5 0 5-7 0-7h-26c-4 0-4 7 0 7zm11-18v-12 1l1-3a33 33 0 0 1 4-4h-1 19a30 30 0 0 1 5 7v-1 12c0 7 10 7 10 0v-10c0-4-1-7-4-10-2-3-5-8-9-8h-22c-4 0-7 5-9 8-3 3-4 6-4 10v10c0 7 10 7 10 0z" fill="#fff"/></svg>