<svg xmlns="http://www.w3.org/2000/svg" width="361" height="361"><path d="M144 282H75l1 10 17-4 11-2h5c2-1 2 0-1-1l35 7c6 1 9-9 2-10l-35-7-6 1-12 2-19 4c-5 1-4 10 2 10h69c6 0 6-10 0-10zm-40-132l87-55h-3l100 24v-6l-147 24-40 6c-4 1-2 8 2 7l147-24 39-7c4 0 4-6 1-6l-72-18-28-6c-2-1-4 1-6 2l-13 8a7344152 7344152 0 0 0-70 45c-4 2-1 8 3 6z" fill="#fff"/><path d="M184 90l-19 42c-2 4 4 7 6 3l19-41c1-4-5-8-6-4z" fill="#fff"/><path d="M188 81L74 126c-6 2-3 12 3 9l113-44c6-3 4-12-2-10z" fill="#fff"/><path d="M116 280L92 136l-1-7c-1-7-10-4-9 2l23 145 1 7c1 6 11 4 10-3z" fill="#fff"/><path d="M73 131l20 42c1 2 3 1 3-1l-20-42c-1-2-4-1-3 1zm114-35l32 33c3 3 8-2 5-5l-32-33c-3-3-8 2-5 5z" fill="#fff"/></svg>