<svg xmlns="http://www.w3.org/2000/svg" width="361" height="361"><path d="M286.8 250.3a7 7 0 0 1-7 7l-198 .1a7 7 0 0 1-7-7V122.7a7 7 0 0 1 7-7h198a7 7 0 0 1 7 7v127.5z" fill="none" stroke="#fff" stroke-width="10" stroke-miterlimit="10"/><path d="M174.5 191.6h12.6c6.5 0 6.5-10 0-10h-12.6c-6.4 0-6.4 10 0 10z" fill="#fff"/><path fill="none" stroke="#fff" stroke-width="10" stroke-miterlimit="10" d="M180.8 116.6v137.2m106-133.6c0 2.5-2.7 4.5-6 4.5h-200c-3.3 0-6-2-6-4.5v-9c0-2.5 2.7-4.5 6-4.5h200c3.3 0 6 2 6 4.5v9z"/></svg>