<svg xmlns="http://www.w3.org/2000/svg" width="361" height="361"><path d="M201 252v-1h-14c1 0 1 3 1 0v-21c0 2-2 1-1 1h15c-1 0-1-2-1 1v21c0 4 7 4 7 0v-12c0-4 1-9-1-13-1-5-9-3-13-3-5 0-11-2-13 4v25c2 5 10 4 14 4 5 0 11 1 13-5 1-4-6-6-7-1zm28-1h-14l1 1v-31c0 1-2 1 0 1h13v-1 31c0 4 7 4 7 0v-30c0-7-6-7-11-7-6 0-15-2-16 5v31c0 7 6 7 11 7s14 2 15-5c2-5-5-6-6-2z" fill="#fff"/><path d="M257 251h-14v1-41c0 1-1 1 1 1h13l-1-1v41c0 4 7 4 7 0v-37c0-5 0-10-6-10h-10c-3 0-7-1-9 1-3 3-2 11-2 15v23c0 4-1 12 4 13 6 2 12 1 17 1 3 0 6-2 6-5 1-5-6-7-7-2zm27 0s2 0 0 0h-12c-2 0-1 0-1 1v-54 1h13c2 0 0 0 0-1v54c0 5 7 5 7 0v-53c0-7-6-7-12-7-5 0-15-1-15 6v54c0 6 7 6 11 6 6 0 14 2 16-5 1-4-5-6-7-2zm-82 41l-2-7h-9l-1 6h-7a234 234 0 0 1 5-14l4-13h8a328 328 0 0 1 4 13 242 242 0 0 1 5 15h-7zm-6-22a176 176 0 0 0-2 5l-1 3a92 92 0 0 0-1 3h7l-1-3v-3a116 116 0 0 0-2-5zm27 22l-5-1a9 9 0 0 1-4-2l-2-3a16 16 0 0 1 0-4v-18h7v20l1 2 1 1h5a3 3 0 0 0 1-1l1-2v-20h7v18l-1 4a7 7 0 0 1-2 3l-3 2-6 1zm40-28v5h-9v23h-7v-23h-9v-4h25zm3 14c0-5 1-8 3-11 2-2 5-3 9-3s7 1 9 3c2 3 4 6 4 11s-1 8-4 11a11 11 0 0 1-9 3c-4 0-7-1-9-3-2-3-3-6-3-11zm7 0v4l1 3a5 5 0 0 0 1 2h6a5 5 0 0 0 2-2v-3l1-4-1-4a10 10 0 0 0 0-3 5 5 0 0 0-2-2h-6l-1 2-1 3a33 33 0 0 0 0 4zM138 72v26c0 2 3 2 3 0V72c0-2-3-2-3 0zm0 52v31c0 2 3 2 3 0v-31c0-2-3-2-3 0zm0 58v26c0 2 3 2 3 0v-26c0-2-3-2-3 0z" fill="#fff"/><path d="M78 209c11-11 22-23 36-29 10-4 20-5 30-7a99 99 0 0 0 27-7 74 74 0 0 0 27-20l2-2c0-1 1-2 0 0-2 1-6-3-6-3 2 8 1 20 12 21 6 1 6-9 0-10l-1-5-2-8a6 6 0 0 0-2-4c-4-2-7 0-9 3a70 70 0 0 1-25 19c-18 8-39 6-58 14-15 7-26 19-38 31-4 5 3 12 7 7z" fill="#fff"/><path d="M74 201l-2 1a5 5 0 0 0 0 8 5 5 0 0 0 8 0l2-2a5 5 0 0 0 0-7 5 5 0 0 0-8 0zm132-46l-3-1a4 4 0 0 0-4 5 4 4 0 0 0 4 4h3a4 4 0 0 0 4-4 4 4 0 0 0-4-5zm-127-5c11-11 21-23 36-29 10-4 20-5 30-6a99 99 0 0 0 27-8 74 74 0 0 0 26-19l3-3s1-1 0 0c1-1 0-1-6-1-1-1-1-3-1-1 2 8 2 19 12 21 7 0 7-10 0-10 2 0 0-5 0-6l-2-8a6 6 0 0 0-3-4c-3-2-6 1-8 3a70 70 0 0 1-25 19c-19 9-39 7-58 15-15 6-27 18-38 30-5 5 2 12 7 7z" fill="#fff"/><path d="M75 142l-2 2a5 5 0 0 0 0 7 5 5 0 0 0 7 0l2-2a5 5 0 0 0 0-7 5 5 0 0 0-7 0zm131-46h-2a4 4 0 0 0-4 4 4 4 0 0 0 4 4h2a4 4 0 0 0 5-4 4 4 0 0 0-5-4z" fill="#fff"/></svg>