<svg xmlns="http://www.w3.org/2000/svg" width="361" height="361"><path d="M121.8 249.2a126 126 0 0 1 123.8-48.7c6.3 1.1 9-8.5 2.7-9.7a136.5 136.5 0 0 0-135.1 53.3c-3.8 5.2 4.9 10.2 8.6 5z" fill="#fff"/><path d="M115.2 242.3l-1.6 2c-.8 1.1-1 3-.6 4.2a5.5 5.5 0 0 0 2.5 3.3 5.5 5.5 0 0 0 4.2.5l1.4-.5a5.5 5.5 0 0 0 2-2l1.5-2c.8-1.1.9-3 .5-4.2a5.5 5.5 0 0 0-2.5-3.3 5.5 5.5 0 0 0-4.2-.5l-1.3.5a5.5 5.5 0 0 0-2 2zm131.5-51.4l-2.5-.2a5.3 5.3 0 0 0-3.9 1.6 5.5 5.5 0 0 0 0 7.7 5.8 5.8 0 0 0 3.9 1.6l2.5.2a5.3 5.3 0 0 0 3.9-1.6 5.5 5.5 0 0 0 0-7.7 5.8 5.8 0 0 0-3.9-1.6zM178.8 71.7v16.2c0 2 3 2 3 0V71.7c0-2-3-2-3 0zm.2 71.3v22.8c0 2 3 2 3 0V143c0-2-3-2-3 0zm0 75v71.7c0 1.9 3 1.9 3 0V218c0-2-3-2-3 0z" fill="#fff"/><g fill="#fff"><path d="M120.6 169a126 126 0 0 1 123.8-48.8c6.3 1.2 9-8.4 2.7-9.6A136.5 136.5 0 0 0 112 163.9c-3.8 5.2 4.8 10.2 8.6 5z"/><path d="M114 162l-1.6 2a5 5 0 0 0-.6 4.3 5.5 5.5 0 0 0 2.5 3.2 5.5 5.5 0 0 0 4.2.6l1.3-.6a5.5 5.5 0 0 0 2-1.9l1.6-2c.8-1.1.9-3 .5-4.2a5.5 5.5 0 0 0-2.5-3.3 5.5 5.5 0 0 0-4.2-.5l-1.3.5a5.5 5.5 0 0 0-2 2zm131.5-51.3l-2.5-.2a5.3 5.3 0 0 0-4 1.6 5.5 5.5 0 0 0 0 7.7 5.8 5.8 0 0 0 4 1.6l2.5.2a5.3 5.3 0 0 0 3.9-1.6 5.5 5.5 0 0 0 0-7.7 5.8 5.8 0 0 0-3.9-1.6z"/></g><path d="M179 134v22.8c0 2 3 2 3 0V134c0-2-3-2-3 0z" fill="#fff"/></svg>