<svg xmlns="http://www.w3.org/2000/svg" width="361" height="361"><path d="M148 162a126 126 0 0 1 54 121c-1 7 8 9 9 3a137 137 0 0 0-57-133c-6-4-11 5-5 9z" fill="#fff"/><path d="M155 155l-2-2a5 5 0 0 0-4 0 6 6 0 0 0-3 2 6 6 0 0 0-1 4 6 6 0 0 0 3 4l2 1 4 1a6 6 0 0 0 3-3 6 6 0 0 0 1-4 6 6 0 0 0-3-3zm56 130v-3c0-3-2-6-5-6l-4 2a6 6 0 0 0-2 4v3a6 6 0 1 0 10 3 6 6 0 0 0 1-4zM179 72v16c0 2 3 2 3 0V72c0-2-3-2-3 0zm0 71v23c0 2 3 2 3 0v-23c0-2-3-2-3 0zm0 75v72c0 2 3 2 3 0v-72c0-2-3-2-3 0z" fill="#fff"/><path d="M179 134v23c0 2 3 2 3 0v-23c0-2-3-2-3 0z" fill="#fff"/><g fill="#fff"><path d="M147 81a126 126 0 0 1 53 122c-1 6 9 9 10 3a137 137 0 0 0-58-133c-5-4-10 5-5 8z"/><path d="M154 75l-2-2a5 5 0 0 0-4-1 6 6 0 0 0-3 3 6 6 0 0 0-1 4 6 6 0 0 0 3 3l2 2h4a6 6 0 0 0 3-2 6 6 0 0 0 1-4 6 6 0 0 0-3-3zm56 129v-2c0-3-2-6-5-6l-4 2a6 6 0 0 0-2 4v2c0 3 3 6 6 6l3-2a6 6 0 0 0 2-4z"/></g></svg>