<svg xmlns="http://www.w3.org/2000/svg" width="361" height="361"><path d="M126 179a126 126 0 0 1 99 90c2 6 11 4 10-2a136 136 0 0 0-106-98c-7-1-9 9-3 10z" fill="#fff"/><path d="M131 170h-2a6 6 0 0 0-4 0 6 6 0 0 0-3 3 6 6 0 0 0 1 4 5 5 0 0 0 3 3l2 1a6 6 0 0 0 5-1 6 6 0 0 0 2-3 6 6 0 0 0 0-4 5 5 0 0 0-4-3zm104 97l-1-3a6 6 0 0 0-3-3 6 6 0 0 0-4-1 6 6 0 0 0-3 3l-1 4 1 2a6 6 0 0 0 3 4 6 6 0 0 0 4 0 6 6 0 0 0 3-2v-5zM179 72v16c0 2 3 2 3 0V72c0-2-3-2-3 0zm0 71v23c0 2 3 2 3 0v-23c0-2-3-2-3 0zm0 75v72c0 2 3 2 3 0v-72c0-2-3-2-3 0z" fill="#fff"/><path d="M179 134v23c0 2 3 2 3 0v-23c0-2-3-2-3 0z" fill="#fff"/><g fill="#fff"><path d="M125 99a126 126 0 0 1 99 90c2 6 11 4 10-3a136 136 0 0 0-106-97c-7-1-9 8-3 10z"/><path d="M130 90l-2-1a6 6 0 0 0-5 1 6 6 0 0 0-2 3 6 6 0 0 0 0 4 5 5 0 0 0 4 3h2a6 6 0 0 0 4 0 6 6 0 0 0 3-4 6 6 0 0 0-1-4 5 5 0 0 0-3-2zm103 96l-1-2a6 6 0 0 0-2-3 6 6 0 0 0-4-1 6 6 0 0 0-4 3v4l1 2a6 6 0 0 0 2 3 6 6 0 0 0 5 1 6 6 0 0 0 3-3v-4z"/></g></svg>