<svg xmlns="http://www.w3.org/2000/svg" width="361" height="361"><g fill="none" stroke="#fff" stroke-width="10" stroke-miterlimit="10"><path d="M268 250c0 4-3 7-6 7H100c-3 0-6-3-6-7V123c0-4 3-7 6-7h162c3 0 6 3 6 7v127zm-87-133v137"/><path d="M268 120c0 3-3 5-5 5H99c-3 0-5-2-5-5v-9c0-2 2-4 5-4h164c2 0 5 2 5 4v9z"/></g><path d="M94 250c0 4 3 7 6 7h162c3 0 6-3 6-7V123c0-4-3-7-6-7H100c-3 0-6 3-6 7v127z" fill="none" stroke="#fff" stroke-width="10" stroke-miterlimit="10"/><path d="M186 182h-5c-3 0-5 2-5 5s2 5 5 5h5c3 0 5-3 5-5s-2-5-5-5z" fill="#fff"/><path fill="none" stroke="#fff" stroke-width="10" stroke-miterlimit="10" d="M181 117v137M94 120c0 3 3 5 5 5h164c2 0 5-2 5-5v-9c0-2-3-4-5-4H99c-3 0-5 2-5 4v9z"/><path d="M268 250c0 4-3 7-6 7H100c-3 0-6-3-6-7V123c0-4 3-7 6-7h162c3 0 6 3 6 7v127z" fill="none" stroke="#fff" stroke-width="10" stroke-miterlimit="10"/><path d="M181 192c6 0 6-10 0-10s-6 10 0 10z" fill="#fff"/><path fill="none" stroke="#fff" stroke-width="10" stroke-miterlimit="10" d="M181 117v137m87-134c0 3-3 5-5 5H99c-3 0-5-2-5-5v-9c0-2 2-4 5-4h164c2 0 5 2 5 4v9zm-93 132c0 3-2 5-4 5H98c-3 0-5-2-6-5L76 147c-1-3 1-5 3-5h74c2 0 5 2 5 5l17 105z"/></svg>