<svg xmlns="http://www.w3.org/2000/svg" width="361" height="361"><path d="M80.8 130.4V266c0 6.5 10 6.5 10 0V130.4c0-6.4-10-6.4-10 0zm190 0V266c0 6.5 10 6.5 10 0V130.4c0-6.4-10-6.4-10 0z" fill="#fff"/><path d="M286.8 117.6a5.8 5.8 0 0 1-5.7 5.7H81.3a5.8 5.8 0 0 1-5.8-5.7V108a5.8 5.8 0 0 1 5.8-5.7H281a5.8 5.8 0 0 1 5.7 5.7v9.6z" fill="none" stroke="#fff" stroke-width="10"/><path d="M272.5 131.7c-.2.6.6.5-.7.5h-183c1 0 .8-4.7.1-4.7h183.9c-.6 0-.5-.3-.5 1v4.2c0 4.5 7 4.5 7 0 0-5.1.4-12.2-6.7-12.2H102.4c-4.9 0-13.2-1.5-17.5 1.4-5.3 3.6-3.5 17.3 4 17.3h183.9c3.4 0 5.8-2.5 6.4-5.6.9-4.4-5.9-6.3-6.8-1.9z" fill="#fff"/></svg>