<svg xmlns="http://www.w3.org/2000/svg" width="361" height="361"><path d="M113 213c45-18 96-9 132 24 4 4 11-3 7-7a136 136 0 0 0-142-27c-6 3-3 13 3 10z" fill="#fff"/><path d="M113 203l-3 1a6 6 0 0 0-3 2 6 6 0 0 0-1 5 6 6 0 0 0 3 3 5 5 0 0 0 4 0l2-1a6 6 0 0 0 4-2 6 6 0 0 0 0-4 6 6 0 0 0-2-3 5 5 0 0 0-4-1zm137 26l-2-1-4-1a6 6 0 0 0-3 3 6 6 0 0 0-1 4l1 1a6 6 0 0 0 2 2l2 2h4a6 6 0 0 0 3-2 6 6 0 0 0 1-4l-1-2a6 6 0 0 0-2-2zM179 72v16c0 2 3 2 3 0V72c0-2-3-2-3 0zm0 71v23c0 2 3 2 3 0v-23c0-2-3-2-3 0zm0 75v72c0 2 3 2 3 0v-72c0-2-3-2-3 0z" fill="#fff"/><path d="M179 134v23c0 2 3 2 3 0v-23c0-2-3-2-3 0z" fill="#fff"/><g fill="#fff"><path d="M111 133c45-18 97-9 132 24 5 4 12-3 7-7a136 136 0 0 0-141-27c-6 3-4 12 2 10z"/><path d="M111 123l-2 1a6 6 0 0 0-3 2 6 6 0 0 0-1 4 6 6 0 0 0 3 4 5 5 0 0 0 4 0l2-1a6 6 0 0 0 4-2 6 6 0 0 0 0-5 6 6 0 0 0-3-3 5 5 0 0 0-4 0zm138 26l-2-1-4-1a6 6 0 0 0-3 3 6 6 0 0 0-1 4l1 1a6 6 0 0 0 2 2l2 2h4a6 6 0 0 0 3-2 6 6 0 0 0 1-5 509 509 0 0 0-1-1 6 6 0 0 0-2-2z"/></g></svg>