<svg xmlns="http://www.w3.org/2000/svg" width="361" height="361"><path d="M133 172a126 126 0 0 1 85 103c1 6 11 6 10 0a137 137 0 0 0-92-113c-6-2-9 8-3 10z" fill="#fff"/><path d="M138 164l-2-1a5 5 0 0 0-5 0 6 6 0 0 0-2 4 6 6 0 0 0 1 4 6 6 0 0 0 3 2l2 1a5 5 0 0 0 4 0 6 6 0 0 0 3-4 6 6 0 0 0-1-4 6 6 0 0 0-3-2zm89 109v-2c-1-3-4-5-7-4a6 6 0 0 0-3 2 6 6 0 0 0-1 5l1 2c1 3 4 5 7 4a6 6 0 0 0 3-3v-4zM179 72v16c0 2 3 2 3 0V72c0-2-3-2-3 0zm0 71v23c0 2 3 2 3 0v-23c0-2-3-2-3 0zm0 75v72c0 2 3 2 3 0v-72c0-2-3-2-3 0z" fill="#fff"/><path d="M179 134v23c0 2 3 2 3 0v-23c0-2-3-2-3 0z" fill="#fff"/><g fill="#fff"><path d="M132 92a126 126 0 0 1 85 102c1 7 11 7 10 0a137 137 0 0 0-92-112c-7-2-9 8-3 10z"/><path d="M137 84l-2-1a5 5 0 0 0-5 0 6 6 0 0 0-2 3 6 6 0 0 0 0 5 6 6 0 0 0 4 2l2 1c1 1 3 0 4-1a6 6 0 0 0 3-3 6 6 0 0 0-1-4 6 6 0 0 0-3-2zm89 109v-3c-1-3-4-4-7-3a6 6 0 0 0-3 2 6 6 0 0 0-1 4l1 3c0 3 4 4 6 4a6 6 0 0 0 4-3 6 6 0 0 0 0-4z"/></g></svg>