<svg xmlns="http://www.w3.org/2000/svg" width="361" height="361"><path d="M80.8 130.4V266c0 6.5 10 6.5 10 0V130.4c0-6.4-10-6.4-10 0zm190 0V266c0 6.5 10 6.5 10 0V130.4c0-6.4-10-6.4-10 0z" fill="#fff"/><path d="M286.8 117.6a5.8 5.8 0 0 1-5.7 5.7H81.3a5.8 5.8 0 0 1-5.8-5.7V108a5.8 5.8 0 0 1 5.8-5.7H281a5.8 5.8 0 0 1 5.7 5.7v9.6z" fill="none" stroke="#fff" stroke-width="10"/><path d="M272.5 146.4c-.2.6.6.4-.7.4h-183c.9 0 .5-.9.5-2.3v-5.3c0-.2-.9 0 .5 0H272c1.2 0 .3.1.3-.4v8.5c0 4.5 7 4.5 7 0 0-5.2 1.5-15.1-6.5-15.1h-184c-8 0-7.2 11.8-6.1 17.2.8 3.9 5 4.4 8.1 4.4h181.3c3.6 0 6.4-2 7.1-5.5.9-4.4-5.9-6.3-6.7-1.9z" fill="#fff"/></svg>