<svg xmlns="http://www.w3.org/2000/svg" width="361" height="361"><path d="M238.6 265.5a7 7 0 0 1-5.6 6.6l-85.8 15.2a4.6 4.6 0 0 1-5.6-4.7V97.7a7 7 0 0 1 5.6-6.7L233 76a4.6 4.6 0 0 1 5.6 4.7v184.9z" fill="none" stroke="#fff" stroke-width="10" stroke-miterlimit="10"/><path d="M144.8 194.4l9.2-1.6c2.7-.5 4.2-3.7 3.5-6.1-.8-2.8-3.5-4-6.1-3.5l-9.3 1.6c-2.7.5-4.1 3.7-3.5 6.2.8 2.8 3.5 4 6.2 3.5z" fill="#fff"/><path d="M238.6 265.7c0 3.1-3 5.7-6.5 5.7H131.4c-3.6 0-6.5-2.6-6.5-5.7V80.9c0-3.2 3-5.8 6.5-5.8H232c3.7 0 6.6 2.6 6.6 5.7v184.9z" fill="none" stroke="#fff" stroke-width="10" stroke-miterlimit="10"/></svg>