<svg xmlns="http://www.w3.org/2000/svg" width="361" height="361"><path d="M91 119a4 4 0 0 0 4 4h23a4 4 0 0 0 4-4V96a4 4 0 0 0-4-4H95a4 4 0 0 0-4 4v23z" fill="none" stroke="#fff" stroke-width="10" stroke-miterlimit="10"/><path d="M138 71l-7 7c-2 2-2 5 0 7s5 2 7 0l7-7c2-2 2-5 0-7s-5-2-7 0zm38 31h-34c-6 0-6 10 0 10h34c6 0 6-10 0-10zm-98 42l6-6c2-2 2-5 0-7s-5-2-7 0l-6 6c-2 2-2 5 0 7s6 2 7 0zm34 32v-34c0-6-10-6-10 0v34c0 6 10 6 10 0zm48-22l-23-23c-5-5-12 2-7 7l23 23c5 5 12-2 7-7zm50-20v30c0 2 3 2 3 0v-30c0-2-3-2-3 0zm1 59v36c0 2 3 2 3 0v-36c0-2-3-2-3 0zm0 66v30c0 2 3 2 3 0v-30c0-2-3-2-3 0zm-12-76h24c6 0 6-10 0-10h-24c-6 0-6 10 0 10z" fill="#fff"/><path d="M226 182l63-41c5-3 0-12-5-8l-63 41c-5 3 0 12 5 8zm-87 41l63-41c5-3 0-12-5-8l-63 41c-5 3 0 12 5 8z" fill="#fff"/><path d="M137 217l-2 2a4 4 0 0 0-2 4c1 2 4 3 5 2l3-2a4 4 0 0 0 1-5c-1-1-3-2-5-1zm149-82l-2 2c-2 1-2 3-1 5 1 1 3 2 4 1l3-1c1-1 2-4 1-5-1-2-3-3-5-2z" fill="#fff"/><g fill="#fff"><path d="M199 249h24c6 1 6-9 0-9l-24-1c-6 0-6 10 0 10z"/><path d="M226 249l62-41c6-4 1-13-5-9l-62 41c-6 4-1 12 5 9zm-87 41l63-41c5-4 0-13-6-9l-62 41c-6 4 0 12 5 9z"/><path d="M137 283l-2 2a4 4 0 0 0-2 5c1 1 3 2 5 1l2-1a4 4 0 0 0 2-5c-1-2-3-3-5-2zm149-81l-2 1c-2 1-3 3-2 5s4 2 5 1l3-1c1-1 2-3 1-5s-3-2-5-1z"/></g></svg>