<svg xmlns="http://www.w3.org/2000/svg" width="361" height="361"><path d="M101 281c0 3 3 6 6 6h93a6 6 0 0 0 6-6V94a6 6 0 0 0-6-6h-93a6 6 0 0 0-6 6v187z" fill="none" stroke="#fff" stroke-width="10" stroke-miterlimit="10"/><path d="M204 176h-10c-6 0-6 10 0 10h10c7 0 7-10 0-10z" fill="#fff"/><path d="M75 81c0-4-1-6 3-6h206c3 0 3 2 3 6s0 6-3 6H78c-4 0-3-2-3-6z" fill="none" stroke="#fff" stroke-width="10" stroke-miterlimit="10"/><path d="M277 287h3a6 6 0 0 0 6-6V81a6 6 0 0 0-6-6h-3" fill="none" stroke="#fff" stroke-width="10" stroke-miterlimit="10"/><path d="M283 287h-4a6 6 0 0 1-6-6V87" fill="none" stroke="#fff" stroke-width="10" stroke-miterlimit="10"/></svg>