<svg xmlns="http://www.w3.org/2000/svg" width="361" height="361"><path d="M179 71v42c0 2 3 2 3 0V71c0-2-3-2-3 0zm0 83v41c0 2 3 2 3 0v-41c0-2-3-2-3 0zm0 83v53c0 2 3 2 3 0v-53c0-2-3-2-3 0z" fill="#fff"/><path d="M121 249c11-12 22-24 36-31 10-4 20-6 30-7 10-2 19-4 28-8a74 74 0 0 0 28-21l2-3 1-1c-2 2-7 0-7-1 2 7 2 20 12 21 7 1 7-9 0-10 1 1 1 0 1-1l-1-3-2-8c-1-2-1-5-3-6-4-2-7 0-9 3a73 73 0 0 1-25 20 92 92 0 0 1-28 8 110 110 0 0 0-32 8c-15 7-27 20-38 32-4 5 3 12 7 8z" fill="#fff"/><path d="M116 240l-2 2a6 6 0 0 0 0 7 6 6 0 0 0 8 0l2-1a6 6 0 0 0 0-8 6 6 0 0 0-8 0zm135-50h-2a4 4 0 0 0-5 4c1 2 3 4 5 4h2a4 4 0 0 0 4-4c0-3-2-5-4-5z" fill="#fff"/><g fill="#fff"><path d="M121 177c11-12 21-24 36-30a102 102 0 0 1 29-8c10-1 20-4 29-8a74 74 0 0 0 27-20l3-3 1-1c-3 2-7 0-7-2 2 8 2 20 12 21 7 1 6-9 0-10 1 1 1 1 0 0l-1-4-1-8c-1-2-1-4-4-5-3-2-6 0-8 3a73 73 0 0 1-25 20 92 92 0 0 1-28 8c-11 1-22 3-32 8-16 7-27 20-38 32-5 5 2 12 7 7z"/><path d="M116 168l-2 2a6 6 0 0 0 0 8 6 6 0 0 0 8 0l2-2a6 6 0 0 0 0-8 6 6 0 0 0-8 0zm135-50h-2a4 4 0 0 0-5 4c0 2 2 4 5 4h2a4 4 0 0 0 4-4c0-2-2-4-4-4z"/></g></svg>