<svg xmlns="http://www.w3.org/2000/svg" width="361" height="361"><path d="M233 281a6 6 0 0 1-6 6h-93a6 6 0 0 1-6-6V81a6 6 0 0 1 6-6h93a6 6 0 0 1 6 6v200z" fill="none" stroke="#fff" stroke-width="10" stroke-miterlimit="10"/><path d="M130 186h10c6 0 6-10 0-10h-10c-7 0-7 10 0 10z" fill="#fff"/><path d="M231 280a6 6 0 0 0-6-6h-91a6 6 0 0 0-6 6v1a6 6 0 0 0 6 6h91a6 6 0 0 0 6-6v-1z" fill="none" stroke="#fff" stroke-width="10" stroke-miterlimit="10"/><path d="M130 186h10c4 0 4-7 0-7h-10c-5 0-5 7 0 7zm59-64l1-1h-19c2 0 2 3 2 0v-17c0 2-3 2-2 2h19c-2 0-2-3-2-2v18c0 5 7 5 7 0v-13c0-4 1-10-5-10h-13c-4 0-10-1-11 4l-1 13c0 5-1 10 5 12h13c5 0 11 1 12-5 2-4-5-6-6-2zm0 41h1-19c2 0 2 3 2 0v-17c0 2-3 2-2 2h19c-2 0-2-3-2-2v18c0 5 7 5 7 0v-13c0-4 1-10-5-10h-13c-4 0-10-1-11 4l-1 13c0 5-1 10 5 12h13c5 0 11 1 12-5 2-4-5-6-6-1zm0 40l1-1h-19c2 0 2 3 2 0v-17c0 2-3 2-2 2h19c-2 0-2-3-2-1v18c0 4 7 4 7 0v-13c0-4 1-11-5-11h-13c-4 0-10-1-11 4l-1 14c0 4-1 10 5 11h13c5 0 11 1 12-4 2-5-5-6-6-2zm0 42l1-1h-19c2 0 2 3 2 0v-17c0 2-3 2-2 2h19c-2 0-2-3-2-1v18c0 4 7 4 7 0v-13c0-4 1-11-5-11h-13c-4 0-10-1-11 4l-1 14c0 4-1 10 5 11h13c5 0 11 1 12-4 2-5-5-7-6-2z" fill="#fff"/></svg>