<svg xmlns="http://www.w3.org/2000/svg" width="361" height="361"><path d="M145 197a126 126 0 0 1 79-107c6-2 3-12-3-10a137 137 0 0 0-86 117c-1 6 9 6 10 0z" fill="#fff"/><path d="M135 194v3l2 4a6 6 0 0 0 7 0 6 6 0 0 0 2-4v-3l-1-4a6 6 0 0 0-8 0 6 6 0 0 0-2 4zm85-113l-2 1c-3 2-4 5-2 8a6 6 0 0 0 3 2h4l2-1c3-2 4-5 2-8a6 6 0 0 0-3-2 6 6 0 0 0-4 0zm-74 196a126 126 0 0 1 79-107c6-2 3-12-3-10a137 137 0 0 0-86 117c-1 7 9 7 10 0z" fill="#fff"/><path d="M137 275l-1 2 2 4a6 6 0 0 0 8 0 6 6 0 0 0 1-4v-2c1-2 0-3-1-4a6 6 0 0 0-8 0 6 6 0 0 0-2 4zm84-114l-2 1c-3 2-4 5-2 8a6 6 0 0 0 3 2 6 6 0 0 0 4 0l2-1c3-2 4-5 3-8a6 6 0 0 0-4-2 6 6 0 0 0-4 0zm-42-89v16c0 2 3 2 3 0V72c0-2-3-2-3 0zm0 71v23c0 2 3 2 3 0v-23c0-2-3-2-3 0zm0 75v72c0 2 3 2 3 0v-72c0-2-3-2-3 0z" fill="#fff"/><path d="M179 134v23c0 2 3 2 3 0v-23c0-2-3-2-3 0z" fill="#fff"/></svg>