<svg xmlns="http://www.w3.org/2000/svg" width="361" height="361"><path d="M178.8 70.7v42.6c0 2 3 2 3 0V70.7c0-2-3-2-3 0zm.2 83.4v40.6c0 2 3 2 3 0v-40.6c0-2-3-2-3 0zm0 83.2v52.4c0 1.9 3 1.9 3 0v-52.4c0-1.9-3-1.9-3 0z" fill="#fff"/><path d="M154 278.9c2-15.5 4-30.9 12-44.6a98.3 98.3 0 0 1 19.9-23 104.5 104.5 0 0 0 18.7-22.6 75.6 75.6 0 0 0 10.8-33.7c0-1.4.1-2.8.3-4.1-.2 1.5 0 .4 0 0-.8 2.3-2.6 3.3-5.4 3-1-.2-3.1-2.3-.2.3 5.5 5 12.8 14.3 21.1 9.7 5.7-3.1.6-11.8-5-8.6.4-.3-2.1-1.8-2.7-2.3l-6.3-5.8c-1.6-1.5-3.5-3.4-5.9-3.2-4.5.5-5.4 4.1-5.7 8a71.3 71.3 0 0 1-9.7 31.7 113 113 0 0 1-21.4 24.4 96.1 96.1 0 0 0-18.6 23.5c-8 14.6-9.9 31-12 47.3-.8 6.4 9.2 6.3 10 0z" fill="#fff"/><path d="M145 275l-.5 2.5-.2 1.4c0 1 .3 2 .8 2.8a5.5 5.5 0 0 0 3.3 2.5 5.5 5.5 0 0 0 4.1-.6c1.1-.6 2.3-2 2.5-3.2l.5-2.6.2-1.4a5.4 5.4 0 0 0-.8-2.8 5.5 5.5 0 0 0-3.3-2.5 5.5 5.5 0 0 0-4.2.6c-1 .6-2.3 2-2.5 3.2zm82-118.5l-2.1 1.4a4.4 4.4 0 0 0-2 2.5 4.2 4.2 0 0 0 .5 3.3c1 1.8 3.8 2.8 5.7 1.5l2.1-1.5a4.4 4.4 0 0 0 2-2.5 4.2 4.2 0 0 0-.5-3.2c-1-1.9-3.8-2.8-5.7-1.5z" fill="#fff"/><g fill="#fff"><path d="M153.7 207.4c2-15.6 4-30.9 12-44.7a98 98 0 0 1 20-23 104.5 104.5 0 0 0 18.6-22.5 75.8 75.8 0 0 0 10.8-33.8l.3-4c-.1 1.4 0 .3.1 0-.8 2.3-2.6 3.3-5.5 3-1-.2-3-2.4-.2.3 5.6 5 12.9 14.2 21.2 9.7 5.7-3.1.6-11.8-5-8.7.4-.2-2.2-1.7-2.8-2.3-2.2-1.8-4.2-3.8-6.3-5.8-1.5-1.4-3.5-3.3-5.8-3.1-4.5.5-5.5 4.1-5.8 8a71.4 71.4 0 0 1-9.6 31.7 113 113 0 0 1-21.4 24.4 96.2 96.2 0 0 0-18.6 23.5c-8 14.6-9.9 31-12 47.3-.9 6.3 9.1 6.3 10 0z"/><path d="M144.7 203.4l-.4 2.5-.2 1.5c0 1 .3 1.9.7 2.7a5.5 5.5 0 0 0 3.3 2.5 5.5 5.5 0 0 0 4.2-.5c1.1-.7 2.3-2 2.5-3.3l.4-2.5.2-1.4a5.4 5.4 0 0 0-.7-2.8 5.5 5.5 0 0 0-3.3-2.5 5.5 5.5 0 0 0-4.2.6c-1.1.6-2.3 1.9-2.5 3.2zm82-118.5l-2 1.5a4.4 4.4 0 0 0-2 2.5 4.2 4.2 0 0 0 .4 3.3c1.1 1.8 3.9 2.8 5.8 1.5l2-1.5a4.4 4.4 0 0 0 2-2.5 4.2 4.2 0 0 0-.4-3.2c-1.1-2-3.9-2.9-5.8-1.6z"/></g></svg>