<svg xmlns="http://www.w3.org/2000/svg" width="361" height="361"><g fill="#fff"><path d="M110.3 165.8a6.3 6.3 0 0 1-6.3 6.4H92a6.3 6.3 0 0 1-6.3-6.4v-11.6a6.3 6.3 0 0 1 6.3-6.3h12a6.3 6.3 0 0 1 6.3 6.4v11.5zm113.8 0a6.3 6.3 0 0 1-6.3 6.4h-12.1a6.3 6.3 0 0 1-6.3-6.4v-11.6a6.3 6.3 0 0 1 6.3-6.3h12.1a6.3 6.3 0 0 1 6.3 6.4v11.5zm-14.6-47.4H99.6c-6.3 0-11.2-6.3-11.2-14.4v-.7l5-19.5c.5-7.4 8-13.7 14.2-13.7h93.9c6.2 0 13.7 6.3 14.2 13.7l5 19.5v.7c0 8-5 14.4-11.2 14.4zM100 108h109c.4-.4 1-1.5 1.2-3.3l-5-19.4v-.6c0-1.7-2.6-3.8-3.8-4h-93.8c-1 .2-3.7 2.3-3.7 4v.6l-5 19.4a7 7 0 0 0 1.1 3.3z"/><path d="M228.7 147.6c0 3.1-3 5.6-6.5 5.6H87c-3.6 0-6.5-2.5-6.5-5.6v-29.2c0-3 3-5.6 6.5-5.6h135.2c3.6 0 6.5 2.5 6.5 5.6v29.2zM115.4 125c0-2.7-2.9-5-6.4-5H91c-3.5 0-6.4 2.3-6.4 5v5.2c0 2.7 2.9 5 6.4 5h18c3.5 0 6.3-2.3 6.3-5V125zm109 0c0-2.7-2.8-5-6.3-5h-18.2c-3.5 0-6.3 2.3-6.3 5v5.2c0 2.7 2.8 5 6.3 5h18.2c3.5 0 6.3-2.3 6.3-5V125zm-42.4 4.4c0-5.3-2.8-9.6-6.3-9.6H133c-3.5 0-6.3 4.3-6.3 9.6v6c0 5.3 2.8 9.6 6.3 9.6h42.7c3.5 0 6.3-4.3 6.3-9.6v-6z"/><path d="M119.6 122.7H189v10.5h-69.5zm1 13.7h69.6v10.5h-69.6z"/></g><path d="M276.8 179.5v105.1c0 9.7 15 9.8 15 .1V179.6c0-9.7-15-9.8-15-.1z" fill="#fff"/><path d="M284.3 288.8H78c-2 0-2 3 0 3h206.3c2 0 2-3 0-3zM90.1 189.2v88.7c0 6.4 10 6.4 10 0v-88.7c0-6.5-10-6.5-10 0zm23.9.1v88.6c0 6.5 10 6.5 10 0v-88.6c0-6.5-10-6.5-10 0zm24 0v88.6c0 6.5 10 6.5 10 0v-88.6c0-6.5-10-6.5-10 0z" fill="#fff"/><path d="M95 282.9h79.8c6.5 0 6.5-10 0-10H95.1c-6.5 0-6.5 10 0 10zm0-89.4h79.8c6.5 0 6.5-10 0-10H95.1c-6.5 0-6.5 10 0 10z" fill="#fff"/><path d="M161.8 189.3V278c0 6.4 10 6.4 10 0v-88.7c0-6.5-10-6.5-10 0zm-91.3-9.8v105.1c0 9.7 15 9.8 15 .1V179.6c0-9.7-15-9.8-15-.1z" fill="#fff"/><g fill="#fff"><path d="M271.6 277.3v-88.7c0-6.4-10-6.4-10 0v88.7c0 6.4 10 6.4 10 0zm-24-.1v-88.7c0-6.4-10-6.4-10 0v88.7c0 6.4 10 6.4 10 0zm-23.9 0v-88.7c0-6.4-10-6.4-10 0v88.7c0 6.4 10 6.4 10 0z"/><path d="M266.6 183.6h-79.8c-6.4 0-6.4 10 0 10h79.8c6.4 0 6.4-10 0-10zm0 89.4h-79.8c-6.4 0-6.4 10 0 10h79.8c6.4 0 6.4-10 0-10z"/><path d="M199.8 277.2v-88.7c0-6.4-10-6.4-10 0v88.7c0 6.4 10 6.4 10 0z"/></g></svg>