<svg xmlns="http://www.w3.org/2000/svg" width="361" height="361"><path d="M178.8 70.7v42.6c0 2 3 2 3 0V70.7c0-2-3-2-3 0zm.2 83.3v50.8c0 2 3 2 3 0V154c0-2-3-2-3 0zm0 93.3v42.4c0 1.9 3 1.9 3 0v-42.4c0-1.9-3-1.9-3 0z" fill="#fff"/><g fill="#fff"><path d="M79.4 195.4a200 200 0 0 1 206-51.5c6.2 2 8.8-7.7 2.7-9.7a209.9 209.9 0 0 0-215.7 54.1c-4.5 4.7 2.6 11.7 7 7z"/><path d="M76 186l-2.9 2.8a5.5 5.5 0 0 0 0 7.7 5.5 5.5 0 0 0 7.8 0l2.8-2.8a5.5 5.5 0 0 0 0-7.7 5.5 5.5 0 0 0-7.7 0zm211.7-51.1l-4-.9c-2.8-.6-5.8.8-6.6 3.8-.8 2.8.9 6 3.8 6.7l3.9.9c2.9.6 5.9-.8 6.7-3.8.7-2.8-1-6-3.8-6.7z"/></g><g fill="#fff"><path d="M79.4 289.4a200 200 0 0 1 206-51.5c6.2 2 8.8-7.7 2.7-9.7a209.9 209.9 0 0 0-215.7 54.1c-4.5 4.7 2.6 11.7 7 7z"/><path d="M76 280l-2.9 2.8a5.5 5.5 0 0 0 0 7.7 5.5 5.5 0 0 0 7.8 0l2.8-2.8a5.5 5.5 0 0 0 0-7.7 5.5 5.5 0 0 0-7.7 0zm211.7-51.1l-4-.9c-2.8-.6-5.8.8-6.6 3.8-.8 2.8.9 6 3.8 6.7l3.9.9c2.9.6 5.9-.8 6.7-3.8.7-2.8-1-6-3.8-6.7z"/></g></svg>