<svg xmlns="http://www.w3.org/2000/svg" width="361" height="361"><path d="M267.8 263.3a7 7 0 0 1-7 7l-158 .1a7 7 0 0 1-7-7V105.7a7 7 0 0 1 7-7h158a7 7 0 0 1 7 7v157.5z" fill="none" stroke="#fff" stroke-width="10" stroke-miterlimit="10"/><path d="M258.5 185.6h6.6c2.8 0 5-2.3 5-5s-2.2-5-5-5h-6.6c-2.7 0-5 2.3-5 5s2.3 5 5 5z" fill="#fff"/><path d="M267.8 103.2c0 2.5-2.7 4.5-6 4.5h-160c-3.3 0-6-2-6-4.5v-9c0-2.5 2.7-4.5 6-4.5h160c3.3 0 6 2 6 4.5v9z" fill="none" stroke="#fff" stroke-width="10" stroke-miterlimit="10"/><path d="M157.8 181.6c-.1.5-1.6.3 0 .3h46.9c1.7 0-.2 0-.2-1.1V220c0-.7 1.9-1.1.5-1.1h-47.2c-1.8 0 .2.8.2 1v-39.3c0-4.6-7-4.6-7 0v36.6c0 4.6 1.2 8.7 6.8 8.7h40.5c3.8 0 11.3 1.2 12.8-3.7 1.3-4.6.4-10.3.4-15v-22.5c0-4.6-.2-9.9-6.3-9.9H164c-4.9 0-11.3-1.2-13 4.8-1.3 4.4 5.5 6.2 6.7 1.9z" fill="#fff"/><path d="M155.1 216h27c4.6 0 4.6-7 0-7h-27c-4.5 0-4.5 7 0 7zm1.3-11h25.8c4.5 0 4.5-7 0-7h-25.8c-4.5 0-4.5 7 0 7zm0-10.8h25.8c4.5 0 4.5-7 0-7h-25.8c-4.5 0-4.5 7 0 7zm20-40.7l5.8-5.8 2.9-3c.6-.5-.3.4-.6.5l2.6-.6a32.9 32.9 0 0 1 5.6-.4c2 0-2.7-2.4-.6-.2l6.9 6.8 6.9 7c2.1 2.1-.3-2.6-.2-.6a34 34 0 0 1-.5 5.5 27.6 27.6 0 0 1-.5 2.6c0-.3 1-1.1.4-.5l-3 2.9-5.8 5.8c-4.5 4.6 2.5 11.6 7 7l7.7-7.5c2.9-3 3.6-6 4.2-10 .5-3.6 1.4-8.7-1.5-11.6l-7.7-7.6-7.6-7.7c-2.9-2.9-8-2-11.6-1.5-4 .6-7 1.3-10 4.2l-7.6 7.6c-4.5 4.6 2.6 11.7 7.1 7.1z" fill="#fff"/></svg>