<svg xmlns="http://www.w3.org/2000/svg" width="361" height="361"><path d="M268 263a7 7 0 0 1-7 7H103a7 7 0 0 1-7-7V106a7 7 0 0 1 7-7h158a7 7 0 0 1 7 7v157z" fill="none" stroke="#fff" stroke-width="10" stroke-miterlimit="10"/><path d="M259 186h6c3 0 5-3 5-5s-2-5-5-5h-6c-3 0-5 2-5 5s2 5 5 5z" fill="#fff"/><path d="M268 103c0 3-3 5-6 5H102c-3 0-6-2-6-5v-9c0-2 3-4 6-4h160c3 0 6 2 6 4v9z" fill="none" stroke="#fff" stroke-width="10" stroke-miterlimit="10"/><path d="M158 182s-2 0 0 0h47v-1 38h-47c-2 0 0 1 0 1v-39c0-5-7-5-7 0v36c0 5 1 9 7 9h40c4 0 12 1 13-4l1-15v-22c0-5-1-10-7-10h-41c-5 0-11-1-13 5-1 4 6 6 7 2z" fill="#fff"/><path d="M155 216h27c5 0 5-7 0-7h-27c-4 0-4 7 0 7zm1-11h26c5 0 5-7 0-7h-26c-4 0-4 7 0 7zm0-11h26c5 0 5-7 0-7h-26c-4 0-4 7 0 7zm20-41l6-5 3-3c1-1 0 0 0 0h2a33 33 0 0 1 6-1c2 0-3-2-1 0l7 7 7 7c2 2 0-3 0-1a34 34 0 0 1-1 6 28 28 0 0 1 0 2s1-1 0 0l-3 3-6 6c-4 4 3 11 7 7l8-8c3-3 4-6 4-10 1-4 2-9-1-12l-8-7-8-8c-2-3-8-2-11-1-4 0-7 1-10 4l-8 7c-4 5 3 12 7 8z" fill="#fff"/></svg>