<svg xmlns="http://www.w3.org/2000/svg" width="361" height="361"><path d="M272 269.8c1.5 0 2.6.4 2.6.8V285c0 .4-1.2.8-2.6.8h-51.7c-1.5 0-2.7-.4-2.7-.8v-14.4c0-.4 1.2-.8 2.7-.8H272z" fill="none" stroke="#fff" stroke-width="10" stroke-miterlimit="10"/><path d="M210.7 272l40.1-52.5h-8.6l40 52.5 4.4-7.5h-80.2c-6.5 0-6.5 10 0 10h80.2c3.4 0 6.7-4.4 4.3-7.6l-40.1-52.5c-2.4-3.1-6.2-3.1-8.6 0L202 267c-3.9 5.2 4.8 10.1 8.7 5z" fill="#fff"/><path d="M238.3 188a5.3 5.3 0 0 1-5.3 5.3H85.7a5.3 5.3 0 0 1-5.3-5.3V93.3a5.3 5.3 0 0 1 5.3-5.3H233a5.3 5.3 0 0 1 5.3 5.3V188z" fill="none" stroke="#fff" stroke-width="10" stroke-miterlimit="10"/><path d="M155 145.5h9.3c6.5 0 6.5-10 0-10H155c-6.4 0-6.4 10 0 10z" fill="#fff"/><path fill="none" stroke="#fff" stroke-width="10" stroke-miterlimit="10" d="M159.5 88.3v102.3"/><path d="M244 89.1c0 .4-2.5.8-5.6.8H80.6c-3 0-5.6-.4-5.6-.8V76c0-.4 2.5-.7 5.6-.7h157.8c3 0 5.6.3 5.6.7v13.2z" fill="#fff" stroke="#fff" stroke-width="10" stroke-miterlimit="10"/><path d="M97 193.3V85.7c0-4.6-7-4.6-7 0v107.6c0 4.5 7 4.5 7 0zm14.7 0V85.7c0-4.6-7-4.6-7 0v107.6c0 4.5 7 4.5 7 0zm14.7 0V85.7c0-4.6-7-4.6-7 0v107.6c0 4.5 7 4.5 7 0zm14.6 0V85.7c0-4.6-7-4.6-7 0v107.6c0 4.5 7 4.5 7 0zm14.7 0V85.7c0-4.6-7-4.6-7 0v107.6c0 4.5 7 4.5 7 0zm14.7 0V85.7c0-4.6-7-4.6-7 0v107.6c0 4.5 7 4.5 7 0zm14.6 0V85.7c0-4.6-7-4.6-7 0v107.6c0 4.5 7 4.5 7 0zm14.7 0V85.7c0-4.6-7-4.6-7 0v107.6c0 4.5 7 4.5 7 0z" fill="#fff"/></svg>