<svg xmlns="http://www.w3.org/2000/svg" width="361" height="361"><path d="M239 188a5.3 5.3 0 0 1-5.3 5.3H86a5.3 5.3 0 0 1-5.3-5.3V93a5.3 5.3 0 0 1 5.3-5.3h147.8a5.3 5.3 0 0 1 5.3 5.2v95z" fill="none" stroke="#fff" stroke-width="10" stroke-miterlimit="10"/><path d="M155.4 145.3h9.4c6.5 0 6.5-10 0-10h-9.4c-6.5 0-6.5 10 0 10z" fill="#fff"/><path fill="none" stroke="#fff" stroke-width="10" stroke-miterlimit="10" d="M160 88v102.7"/><path d="M244.8 88.8c0 .4-2.6.7-5.7.7H80.8c-3.1 0-5.7-.3-5.7-.7V75.5c0-.4 2.6-.7 5.7-.7h158.3c3.1 0 5.7.3 5.7.7v13.3z" fill="#fff" stroke="#fff" stroke-width="10" stroke-miterlimit="10"/><path d="M75.4 103.2H245c4.5 0 4.5-7 0-7H75.4c-4.5 0-4.5 7 0 7zm0 10.4H245c4.5 0 4.5-7 0-7H75.4c-4.5 0-4.5 7 0 7zm0 10.4H245c4.5 0 4.5-7 0-7H75.4c-4.5 0-4.5 7 0 7zm0 10.4H245c4.5 0 4.5-7 0-7H75.4c-4.5 0-4.5 7 0 7zm153 108.3c0 .2-1.2.1.1.1h52c1.3 0 0-1.8 0 .3v42c0 .4 1.5-.7.3-.7H228c-1 0 .4.8.4.9v-43.5c0-4.5-7-4.5-7 0v37.1c0 4.8-1 11.2 5.2 12.4 4 .7 8.4 0 12.3 0h41.3c4.9 0 7.2-3 7.2-7.7v-41.8c0-8-11.7-6-16.6-6h-31c-5.4 0-16.7-2.2-18.2 5-1 4.4 5.8 6.3 6.7 1.9z" fill="#fff"/><path d="M225.8 280.3h29.8c4.5 0 4.5-7 0-7h-29.8c-4.6 0-4.6 7 0 7zm1.3-12h28.5c4.5 0 4.5-7 0-7h-28.4c-4.6 0-4.6 7 0 7zm0-12h28.5c4.5 0 4.5-7 0-7h-28.4c-4.6 0-4.6 7 0 7zm10.9-19.1v-13.4c0-.5.2-1.3-.1.3 0-.3 1-1.7 1.4-2.2a39 39 0 0 1 3.8-4.6c1.7-1.8 1.6-.4-1.1-.4h22.5c2.6 0 1.1.6-.6-.7 1.7 1.3 3 3.2 4.4 4.9.6.9 1.9 4.3 1.9 2.1v14c0 6.4 10 6.4 10 0v-11.5c0-4.3-1.3-7-4-10.5-2.3-3.2-5.7-8.3-10.2-8.3h-23.6c-4.3 0-7.3 4.2-9.7 7.3-2.7 3.4-4.7 6.4-4.7 10.8v12.2c0 6.4 10 6.4 10 0z" fill="#fff"/></svg>