<svg xmlns="http://www.w3.org/2000/svg" width="361" height="361"><path d="M178.8 70.7v42.6c0 2 3 2 3 0V70.7c0-2-3-2-3 0zm.2 83.4v40.6c0 2 3 2 3 0v-40.6c0-2-3-2-3 0zm0 83.2v52.4c0 1.9 3 1.9 3 0v-52.4c0-1.9-3-1.9-3 0z" fill="#fff"/><path d="M126.5 255.5c9.1-12.7 18-25.4 31.5-33.8a97 97 0 0 1 28.2-11 104.6 104.6 0 0 0 27.6-11.2 75.6 75.6 0 0 0 24.9-24c.7-1.2 1.4-2.5 2.2-3.6.7-1.2 0-.2.1-.3-1.1 1.4-5.5.8-6.6-1-.6-1.4-.5-1.1.3 1l1.7 5a75.3 75.3 0 0 0 2.8 6.8c1.8 4 5.1 6.8 9.5 6.7 6.4 0 6.4-10 0-10 0 0-1.7-3.6-2-4.6l-3-8.4c-.8-2-2-3.5-4-4.3-3.7-1.3-6.4 2.3-8 5a69.9 69.9 0 0 1-23 23c-17.7 10.9-39.1 11.9-56.8 23-14.6 9-24.3 23-34 36.7-3.8 5.2 4.9 10.2 8.6 5z" fill="#fff"/><path d="M119.8 248.6l-1.5 2a5 5 0 0 0-.6 4.3 5.5 5.5 0 0 0 2.5 3.2 5.5 5.5 0 0 0 4.2.6l1.3-.6a5.5 5.5 0 0 0 2-2l1.5-2c.9-1 1-2.9.6-4.2a5.5 5.5 0 0 0-2.5-3.2 5.5 5.5 0 0 0-4.2-.6l-1.3.6a5.5 5.5 0 0 0-2 2zm129-67l-2.6.2c-1.1.2-2 .4-3 1.3a4.2 4.2 0 0 0 0 6c.7.6 2 1.3 3 1.1l2.6-.3c1.1 0 2-.3 3-1.2a4.2 4.2 0 0 0 0-6c-.8-.6-2-1.3-3-1.2z" fill="#fff"/><g fill="#fff"><path d="M126.3 184c9-12.7 18-25.4 31.5-33.8a97.2 97.2 0 0 1 28.2-11 104.5 104.5 0 0 0 27.5-11.3 75.6 75.6 0 0 0 25-24l2.2-3.6c.7-1.1 0-.1.1-.2-1.2 1.4-5.6.8-6.6-1-.6-1.4-.5-1.1.3.9l1.7 5a75.2 75.2 0 0 0 2.7 7c1.8 3.8 5.2 6.7 9.5 6.6 6.5-.1 6.5-10.1 0-10l-2-4.7-3-8.3a6.4 6.4 0 0 0-4-4.3c-3.7-1.4-6.3 2.3-8 4.9a69.9 69.9 0 0 1-23 23.1c-17.6 10.8-39 11.9-56.8 23-14.5 9-24.2 23-34 36.7-3.7 5.2 5 10.2 8.7 5z"/><path d="M119.6 177.1l-1.6 2c-.8 1.2-.9 3-.5 4.3a5.5 5.5 0 0 0 2.5 3.2 5.5 5.5 0 0 0 4.2.6l1.3-.6a5.5 5.5 0 0 0 2-2l1.5-2c.8-1 .9-3 .5-4.2a5.5 5.5 0 0 0-2.5-3.3 5.5 5.5 0 0 0-4.2-.5l-1.3.5a5.5 5.5 0 0 0-2 2zm129-67l-2.6.2c-1.2.2-2.1.4-3 1.2a4.2 4.2 0 0 0 0 6c.7.7 2 1.3 3 1.2l2.5-.3c1.2-.1 2.1-.4 3-1.2a4.2 4.2 0 0 0 0-6c-.7-.7-2-1.3-3-1.2z"/></g></svg>