<svg xmlns="http://www.w3.org/2000/svg" width="361" height="361"><path d="M258 287.8l23-144.2 10.3-64.3c1-6.3-8.6-9-9.6-2.6l-23.1 144.2-10.3 64.2c-1 6.3 8.7 9 9.7 2.7zm-.6-182.3a82.8 82.8 0 0 1-17.7 20 214.5 214.5 0 0 1-34.4 24.2 316 316 0 0 1-112.8 38.4c-4.4.6-2.5 7.4 1.9 6.7 40.5-6 80-19 115.5-39.7a224 224 0 0 0 34.7-24.7c7-6.2 14.1-13.2 18.8-21.3 2.3-4-3.8-7.5-6-3.6z" fill="#fff"/><path d="M259.1 103a185.8 185.8 0 0 1-56.6 15.4c-35.8 5-72.5 3.3-108.2-1.4-4.5-.6-4.4 6.5 0 7a418 418 0 0 0 108.9 1.4c20.3-2.8 41-7.3 59.4-16.4 4-2 .5-8-3.5-6zm-188.6 7v177.4c0 6.5 10 6.5 10 0V110.1c0-6.4-10-6.4-10 0z" fill="#fff"/><path d="M90.8 120.5c1.6 14.6 1.4 29.4 1 44a528.7 528.7 0 0 1-1 17.8 280 280 0 0 1-.4 6c-.2 1.5-.8 2.5 0 1.4-2.6 3.6 3.4 7.1 6 3.5 1.4-1.7 1-5.6 1.2-7.6a458.5 458.5 0 0 0 .2-65c-.5-4.5-7.5-4.6-7 0zm194-39.5l-25 23.9c-1.4 1.3.7 3.4 2.1 2.1l25-23.8c1.4-1.4-.7-3.5-2.1-2.2z" fill="#fff"/><path d="M74.7 111.4l18.8 10.4c1.7 1 3.2-1.6 1.5-2.6l-18.7-10.4c-1.7-1-3.2 1.6-1.6 2.6zM93.5 190l-18 2.2c-1.9.2-2 3.2 0 3l18-2.2c1.9-.3 1.9-3.3 0-3z" fill="#fff"/></svg>