<svg xmlns="http://www.w3.org/2000/svg" width="361" height="361"><path d="M267.8 263.3a7 7 0 0 1-7 7l-158 .1a7 7 0 0 1-7-7V105.7a7 7 0 0 1 7-7h158a7 7 0 0 1 7 7v157.5z" fill="none" stroke="#fff" stroke-width="10" stroke-miterlimit="10"/><path d="M258.5 185.6h6.6c2.8 0 5-2.3 5-5s-2.2-5-5-5h-6.6c-2.7 0-5 2.3-5 5s2.3 5 5 5z" fill="#fff"/><path d="M267.8 103.2c0 2.5-2.7 4.5-6 4.5h-160c-3.3 0-6-2-6-4.5v-9c0-2.5 2.7-4.5 6-4.5h160c3.3 0 6 2 6 4.5v9z" fill="none" stroke="#fff" stroke-width="10" stroke-miterlimit="10"/></svg>