<svg xmlns="http://www.w3.org/2000/svg" width="361" height="361"><path d="M250 82.1c0-6.6-5-12-11.3-12H124c-6.3 0-11.4 5.4-11.4 12V280c0 6.6 5.1 12 11.4 12h114.7c6.3 0 11.4-5.3 11.4-12V82.1zm-4.1 69.2c1.7 2.3.4 4.1-2.7 4.1H240v28.3l5.8 8c1.7 2.2.4 4-2.7 4H240V224l5.8 8c1.7 2.2.4 4-2.7 4H240v28.3l5.8 8c1.7 2.2.4 4-2.7 4H240v3.7c0 1.2-.7 2-1.4 2H124c-.7 0-1.4-.8-1.4-2v-19.7l-6.3-8.6c-1.7-2.3-.5-4.1 2.7-4.1h3.6V220l-6.3-8.6c-1.7-2.3-.5-4.1 2.7-4.1h3.6v-27.6l-6.3-8.6c-1.7-2.3-.5-4.1 2.7-4.1h3.6v-27.6l-6.3-8.6c-1.7-2.3-.5-4.1 2.7-4.1h3.6V99l-6.3-8.5c-1.7-2.3-.5-4.1 2.7-4.1h3.6V82c0-1.2.7-2 1.3-2h114.8c.6 0 1.4.8 1.4 2v21l5.8 8c1.7 2.2.4 4-2.7 4H240v28.3l5.8 8z" fill="#fff"/><path d="M221.8 87.2c8 .6 12.2 9.9 16.4 15.6l5.5 7.4c.9 1.2.3 2.7-1.4 2.7H146c-3.8 0-7.4.4-11-1.3-2.5-1.2-4-4-5.5-6l-6.7-9c-.9-1.3-8.5-9.4-3.3-9.4h102.3c2 0 2-3 0-3H119c-5.4 0-6 4-3.3 7.6l12.5 17c5.9 8 13.5 7.1 22.4 7.1h85.7c2.7 0 5.4.1 8-.1 7.3-.8 1.1-8.3-.8-10.9-5.5-7.6-11.2-20-21.7-20.7-2-.2-1.9 2.8 0 3zm0 40.3c8 .6 12.2 9.9 16.4 15.6l5.5 7.4c.9 1.2.3 2.7-1.4 2.7H146c-3.8 0-7.4.4-11-1.3-2.5-1.2-4-3.9-5.5-6l-6.7-9c-.9-1.3-8.5-9.4-3.3-9.4h102.3c2 0 2-3 0-3H119c-5.4 0-6 4-3.3 7.7l12.5 17c5.9 8 13.5 7 22.4 7h85.7c2.7 0 5.4.2 8-.1 7.3-.8 1.1-8.3-.8-10.9-5.5-7.5-11.2-19.9-21.7-20.7-2-.2-1.9 2.8 0 3zm0 40.3c8 .6 12.2 9.9 16.4 15.6l5.5 7.4c.9 1.2.3 2.7-1.4 2.7H146c-3.8 0-7.4.4-11-1.3-2.5-1.1-4-3.9-5.5-6l-6.7-9c-.9-1.3-8.5-9.4-3.3-9.4h102.3c2 0 2-3 0-3H119c-5.4 0-6 4-3.3 7.7l12.5 17c5.9 8 13.5 7 22.4 7h85.7c2.7 0 5.4.2 8-.1 7.3-.8 1.1-8.2-.8-10.8-5.5-7.6-11.2-20-21.7-20.8-2-.1-1.9 2.9 0 3zm0 40.3c8 .6 12.2 9.9 16.4 15.6l5.5 7.4c.9 1.2.3 2.7-1.4 2.7H146c-3.8 0-7.4.4-11-1.3-2.5-1.1-4-3.9-5.5-6l-6.7-9c-.9-1.3-8.5-9.4-3.3-9.4h102.3c2 0 2-3 0-3H119c-5.4 0-6 4-3.3 7.7l12.5 17c5.9 8 13.5 7 22.4 7h85.7c2.7 0 5.4.2 8-.1 7.3-.7 1.1-8.2-.8-10.8-5.5-7.6-11.2-20-21.7-20.8-2-.1-1.9 2.9 0 3zm0 40.3c8 .6 12.2 9.9 16.4 15.6l5.5 7.4c.9 1.3.3 2.8-1.4 2.8H146c-3.8 0-7.4.3-11-1.4-2.5-1.1-4-3.9-5.5-6l-6.7-9c-.9-1.3-8.5-9.4-3.3-9.4h102.3c2 0 2-3 0-3H119c-5.4 0-6 4-3.3 7.7l12.5 17c5.9 8 13.5 7 22.4 7h85.7c2.7 0 5.4.2 8 0 7.3-.8 1.1-8.3-.8-11-5.5-7.5-11.2-19.9-21.7-20.7-2-.1-1.9 2.9 0 3z" fill="#fff"/><path d="M240 95.8v182c0 6.5 10 6.5 10 0v-182c0-6.4-10-6.4-10 0z" fill="#fff"/></svg>