<svg xmlns="http://www.w3.org/2000/svg" width="361" height="361"><path d="M115 232c38-29 90-35 133-13 6 3 11-6 5-9a136 136 0 0 0-143 14c-5 3 0 12 5 8z" fill="#fff"/><path d="M112 222l-2 2-1 1a6 6 0 0 0-1 2 6 6 0 0 0 0 4 6 6 0 0 0 4 3l4-1 2-1 1-1a6 6 0 0 0 1-3 6 6 0 0 0 0-4 6 6 0 0 0-3-2h-5zm140-12l-2-1h-5a6 6 0 0 0-2 4 6 6 0 0 0 0 4l4 2 2 1h4a6 6 0 0 0 3-4 6 6 0 0 0-1-4l-3-2zM179 72v16c0 2 3 2 3 0V72c0-2-3-2-3 0zm0 71v23c0 2 3 2 3 0v-23c0-2-3-2-3 0zm0 75v72c0 2 3 2 3 0v-72c0-2-3-2-3 0z" fill="#fff"/><g fill="#fff"><path d="M114 152c38-29 90-35 133-13 6 2 11-6 5-9a136 136 0 0 0-143 13c-5 4 0 13 5 9z"/><path d="M111 142l-2 2h-1a5 5 0 0 0-1 3 6 6 0 0 0 0 4 6 6 0 0 0 3 2h5l2-2h1a5 5 0 0 0 1-3 6 6 0 0 0 0-4 6 6 0 0 0-4-3l-4 1zm140-12l-3-1h-4a6 6 0 0 0-2 3 6 6 0 0 0 0 5l3 2 3 1c1 1 3 0 4-1a6 6 0 0 0 2-3 6 6 0 0 0 0-4l-3-2z"/></g><path d="M179 134v23c0 2 3 2 3 0v-23c0-2-3-2-3 0z" fill="#fff"/></svg>