<svg xmlns="http://www.w3.org/2000/svg" width="361" height="361"><path d="M232.8 281a6 6 0 0 1-6 6h-93a6.1 6.1 0 0 1-6-6V80.7a6 6 0 0 1 6-6.1h93a6.1 6.1 0 0 1 6 6.1V281z" fill="none" stroke="#fff" stroke-width="10" stroke-miterlimit="10"/><path d="M231.2 280a6 6 0 0 0-6-6h-91.4a6 6 0 0 0-6 6v.7a6 6 0 0 0 6 6h91.4a6 6 0 0 0 6-6v-.7z" fill="none" stroke="#fff" stroke-width="10" stroke-miterlimit="10"/><path d="M232.8 281a6 6 0 0 1-6 6h-93a6.1 6.1 0 0 1-6-6l-24-185.2a6 6 0 0 1 6-6.1h93a6.1 6.1 0 0 1 6 6.1l24 185.1z" fill="none" stroke="#fff" stroke-width="10" stroke-miterlimit="10"/><path d="M116.8 196.7h10c6.5 0 6.5-10 0-10h-10c-6.4 0-6.4 10 0 10z" fill="#fff"/></svg>