<svg xmlns="http://www.w3.org/2000/svg" width="361" height="361"><path d="M267.8 263.3a7 7 0 0 1-7 7l-158 .1a7 7 0 0 1-7-7V105.7a7 7 0 0 1 7-7h158a7 7 0 0 1 7 7v157.5z" fill="none" stroke="#fff" stroke-width="10" stroke-miterlimit="10"/><path d="M267.8 103.2c0 2.5-2.7 4.5-6 4.5h-160c-3.3 0-6-2-6-4.5v-9c0-2.5 2.7-4.5 6-4.5h160c3.3 0 6 2 6 4.5v9zm-2 162c.5 2.9-1.7 5.2-5 5.2H103.5c-3.4 0-6.5-2.3-7.1-5.2L75.2 130.6c-.5-2.8 1.7-5.2 5-5.2h157.3c3.3 0 6.5 2.3 7 5.2l21.2 134.6z" fill="none" stroke="#fff" stroke-width="10" stroke-miterlimit="10"/><path d="M247.2 199.7h6.6c2.8 0 5-2.3 5-5s-2.2-5-5-5h-6.6a5 5 0 0 0 0 10z" fill="#fff"/></svg>