<svg xmlns="http://www.w3.org/2000/svg" width="361" height="361"><path d="M180 281a6 6 0 0 1-6 6H81a6 6 0 0 1-6-6V81a6 6 0 0 1 6-6h93a6 6 0 0 1 6 6v200z" fill="none" stroke="#fff" stroke-width="10" stroke-miterlimit="10"/><path d="M77 186h10c6 0 6-10 0-10H77c-7 0-7 10 0 10z" fill="#fff"/><path d="M178 280a6 6 0 0 0-6-6H81a6 6 0 0 0-6 6v1a6 6 0 0 0 6 6h91a6 6 0 0 0 6-6v-1z" fill="none" stroke="#fff" stroke-width="10" stroke-miterlimit="10"/><path d="M254 110h-22c-7 0-16 3-16 12v25c0 7-1 15 8 18l-1-1v79l2 5 2 1 6-1 6-5v-8l1-2 2-4v-6l-2-4c-1-1-1 2-1 1l1-3c1-1 4-5 3-6l-4-8v2c2-2 8-5 8-9l-1-6a10709 10709 0 0 0-3-7v2c1-2 5-5 5-8l1-14-2 2c8 0 15 2 19-6 2-5 1-11 1-16 0-11 4-32-13-33-2 0-2 3 0 3 8 1 10 7 10 13v28l-2 5c-2 4-6 3-9 3h-6l-1 1-1 12v3s1-1 0 0l-5 4v2l3 6 1 6c0 1 0 0 0 0l-3 3-4 4v2l3 7c0-1 0-2 0 0l-1 2-2 5v2l2 3-2 8-1 7v2c0 2 0 1 1 0l-4 3-3 2h-2c-2 0 0 1 0 0l-2-2v-80l-1-1c-8-3-6-14-6-20v-20c0-10 10-10 17-10h18c2 0 2-3 0-3z" fill="#fff"/><path d="M228 165v83c0 2 3 2 3 0v-83c0-2-3-2-3 0zm7-34c0 5-8 4-8 0v-5c0-5 8-4 8 0v5c0 2 3 2 3 0 0-3 1-7-2-10-5-4-12-1-12 5-1 3-1 7 2 10 4 4 11 1 12-5 0-2-3-2-3 0z" fill="#fff"/></svg>