<svg xmlns="http://www.w3.org/2000/svg" width="361" height="361"><path d="M279.5 248.7a6.6 6.6 0 0 1-6.6 6.6H88.1a6.6 6.6 0 0 1-6.6-6.6V130a6.6 6.6 0 0 1 6.6-6.6h184.8a6.6 6.6 0 0 1 6.6 6.6v118.8z" fill="none" stroke="#fff" stroke-width="10" stroke-miterlimit="10"/><path d="M175 194.2h11.7c6.5 0 6.5-10 0-10H175c-6.5 0-6.5 10 0 10z" fill="#fff"/><path fill="none" stroke="#fff" stroke-width="10" stroke-miterlimit="10" d="M180.7 123.6v128.5"/><path d="M286.7 124.7c0 .5-3.2 1-7.1 1H81.7c-3.9 0-7-.5-7-1v-16.6c0-.5 3.1-.9 7-.9h197.9c3.9 0 7 .4 7 1v16.5z" fill="#fff" stroke="#fff" stroke-width="10" stroke-miterlimit="10"/><path d="M98.1 254.9V120.4m18.4 134.5V120.4m18.4 134.5V120.4m18.4 134.5V120.4m18.3 134.5V120.4M190 254.9V120.4m18.4 134.5V120.4m18.4 134.5V120.4m18.4 134.5V120.4m18.4 134.5V120.4" fill="none" stroke="#fff" stroke-width="14" stroke-miterlimit="10"/></svg>