<svg xmlns="http://www.w3.org/2000/svg" width="361" height="361"><path d="M175 194.2h11.7c6.5 0 6.5-10 0-10H175c-6.5 0-6.5 10 0 10z" fill="#fff"/><path fill="none" stroke="#fff" stroke-width="10" stroke-miterlimit="10" d="M180.7 123.6v128.5"/><g stroke="#fff" stroke-width="10" stroke-miterlimit="10"><path d="M279.5 248.7a6.6 6.6 0 0 1-6.6 6.6H88.1a6.6 6.6 0 0 1-6.6-6.6V130a6.6 6.6 0 0 1 6.6-6.6h184.8a6.6 6.6 0 0 1 6.6 6.6v118.8z" fill="none"/><path d="M286.7 124.7c0 .5-3.2 1-7.1 1H81.7c-3.9 0-7-.5-7-1v-16.6c0-.5 3.1-.9 7-.9h197.9c3.9 0 7 .4 7 1v16.5z" fill="#fff"/></g><path d="M75 143.3a7102900.2 7102900.2 0 0 1 211.8 0c6.5 0 6.5-10 0-10H75c-6.5 0-6.5 10 0 10zm0 13l146-2 65.8-1c6.5 0 6.5-10 0-10l-146 2.1-65.8 1c-6.4 0-6.5 10 0 10z" fill="#fff"/><path d="M75 169.3l146-4.1 65.8-1.9c6.5-.2 6.5-10.2 0-10l-146 4.2-65.8 1.8c-6.4.2-6.5 10.2 0 10z" fill="#fff"/><path d="M75 183.3l145.4-8.2 66.4-3.8c6.4-.3 6.5-10.3 0-10l-145.4 8.3-66.4 3.7c-6.4.4-6.5 10.4 0 10z" fill="#fff"/><path d="M75 198.2l145-13.7 67-6.3c6.4-.6 6.4-10.6 0-10l-144.8 13.7-67 6.3c-6.4.6-6.4 10.6 0 10z" fill="#fff"/><path d="M202.6 245.3l33.8-58.6h-8.7l33.9 58.6 4.3-7.6h-67.6c-6.5 0-6.5 10 0 10h67.6a5 5 0 0 0 4.3-7.5l-33.8-58.6a5 5 0 0 0-8.7 0L194 240.2c-3.2 5.6 5.4 10.6 8.7 5z" fill="#fff"/><path d="M236 229.3a3.4 3.4 0 0 1-1.2 2.7 4 4 0 0 1-5.2 0 3.4 3.4 0 0 1-1.2-2.7c0-1.2.4-2.1 1.2-2.8a4 4 0 0 1 5.2 0 3.4 3.4 0 0 1 1.1 2.8zm-.6-17.6c0 2.2 0 4.2-.2 6.1a109.5 109.5 0 0 1-.7 5.7H230l-.6-5.7a65.9 65.9 0 0 1-.3-6v-7.3h6.4v7.2z" fill="#fff"/></svg>