<svg xmlns="http://www.w3.org/2000/svg" width="361" height="361"><path d="M239 188a5 5 0 0 1-5 5H86a5 5 0 0 1-5-5V93a5 5 0 0 1 5-5h148a5 5 0 0 1 5 5v95z" fill="none" stroke="#fff" stroke-width="10" stroke-miterlimit="10"/><path d="M155 145h10c6 0 6-10 0-10h-10c-6 0-6 10 0 10z" fill="#fff"/><path fill="none" stroke="#fff" stroke-width="10" stroke-miterlimit="10" d="M160 88v103"/><path d="M245 89H75V76l6-1h164v14z" fill="#fff" stroke="#fff" stroke-width="10" stroke-miterlimit="10"/><path d="M75 103h170c5 0 5-7 0-7H75c-4 0-4 7 0 7zm0 11h170c5 0 5-7 0-7H75c-4 0-4 7 0 7zm0 10h170c5 0 5-7 0-7H75c-4 0-4 7 0 7zm0 10h170c5 0 5-7 0-7H75c-4 0-4 7 0 7zm153 109s-1 0 0 0h52c2 0 0-2 0 0v42l1-1h-53v1-43c0-5-7-5-7 0v37c0 5-1 11 6 12l12 1h41c5 0 7-4 7-8v-42c1-8-11-6-16-6h-31c-6 0-17-2-18 5-1 4 5 6 6 2z" fill="#fff"/><path d="M226 280h29c5 0 5-7 1-7h-30c-5 0-5 7 0 7zm1-12h29c4 0 4-7 0-7h-29c-4 0-4 7 0 7zm0-12h29c4 0 4-7 0-7h-29c-4 0-4 7 0 7zm22-45l6-6 3-3s1-1 0 0h2l6-1c3 0 2 1 0-1l1 1 7 7 8 8c2 2 0 1 0-1v6l-1 3-3 3a45507 45507 0 0 0-7 7c-4 5 3 12 8 7l8-8c3-3 4-6 4-10 1-4 2-10-1-13l-8-8-9-9c-3-3-8-2-12-2-4 1-8 2-11 5l-8 8c-5 5 2 12 7 7z" fill="#fff"/></svg>