<svg xmlns="http://www.w3.org/2000/svg" width="361" height="361"><path d="M181.2 212.4a29.2 29.2 0 0 1-12.4 3.4H77.7c-3.6 0-4-1.5-.7-3.4l113.6-66.1c3.2-2 8.8-3.4 12.4-3.4h61.3l-13.5 29-69.7 40.5z" fill="none" stroke="#fff" stroke-width="10" stroke-miterlimit="10"/><path d="M128.6 206.4l-5.5 3.2a5 5 0 0 0-1.8 6.8 5 5 0 0 0 6.9 1.8l5.5-3.2a5 5 0 0 0 1.8-6.8 5 5 0 0 0-6.9-1.8z" fill="#fff"/><path d="M207.6 264.4c-2 4.5-7.4 8-11.8 8l-116.1.1c-4.5 0-6.4-3.6-4.3-8.1l78-167.3c2.1-4.5 7.4-8.2 11.9-8.2h116c4.5 0 6.5 3.7 4.4 8.2l-78 167.3z" fill="none" stroke="#fff" stroke-width="10" stroke-miterlimit="10"/><path fill="#fff" d="M278 104.3H150.1L159 87h127.7zM76 262.8h127.6v6.4H76.1z"/></svg>