<svg xmlns="http://www.w3.org/2000/svg" width="361" height="361"><path d="M132 265a126 126 0 0 1 105-81c7-1 7-11 0-10a137 137 0 0 0-115 88c-2 6 8 9 10 3z" fill="#fff"/><path d="M124 260l-1 2v4a6 6 0 0 0 3 3 6 6 0 0 0 5-1h1a6 6 0 0 0 1-3l1-2c1-1 0-3-1-4a6 6 0 0 0-3-3 6 6 0 0 0-4 1l-1 1a6 6 0 0 0-1 2zm112-86l-3 1a5 5 0 0 0-3 2 6 6 0 0 0 0 4 6 6 0 0 0 2 4 6 6 0 0 0 4 0h3a5 5 0 0 0 3-3 6 6 0 0 0 1-4 6 6 0 0 0-3-3 6 6 0 0 0-4-1zm-105 11a126 126 0 0 1 105-81c7-1 7-11 0-10a137 137 0 0 0-115 88c-2 6 7 9 10 3z" fill="#fff"/><path d="M122 180l-1 2 1 4a6 6 0 0 0 3 3 6 6 0 0 0 4-1l2-1a6 6 0 0 0 1-2l1-3-1-4a6 6 0 0 0-3-2 6 6 0 0 0-4 0l-1 1a6 6 0 0 0-2 3zm113-86l-3 1a5 5 0 0 0-3 2 6 6 0 0 0-1 4 6 6 0 0 0 3 3l4 1h3a5 5 0 0 0 3-3 6 6 0 0 0 0-4 6 6 0 0 0-2-3 6 6 0 0 0-4-1zm-56-22v16c0 2 3 2 3 0V72c0-2-3-2-3 0zm0 71v23c0 2 3 2 3 0v-23c0-2-3-2-3 0zm0 75v72c0 2 3 2 3 0v-72c0-2-3-2-3 0z" fill="#fff"/><path d="M179 134v23c0 2 3 2 3 0v-23c0-2-3-2-3 0z" fill="#fff"/></svg>