<svg xmlns="http://www.w3.org/2000/svg" width="361" height="361"><path d="M178.8 70.7v59.5c0 1.9 3 1.9 3 0V70.7c0-2-3-2-3 0zm.2 88.4v40.6c0 2 3 2 3 0v-40.6c0-2-3-2-3 0zm0 71.6v59c0 1.9 3 1.9 3 0v-59c0-2-3-2-3 0zm-9.2-78.1l21.3-.5c6.5-.2 6.5-10.2 0-10l-21.3.5c-6.4.1-6.5 10.1 0 10z" fill="#fff"/><path d="M194.3 151.4l55.2-39.2c5.2-3.7.2-12.3-5-8.6l-55.3 39.1c-5.2 3.7-.2 12.4 5.1 8.7zM117.1 191l55.2-39.1c5.2-3.7.3-12.4-5-8.7L112 182.4c-5.2 3.7-.2 12.3 5 8.6z" fill="#fff"/><path d="M114.9 181.2l-2.2 1.4a5.7 5.7 0 0 0-2.5 3.3 5.5 5.5 0 0 0 .6 4.1 5.5 5.5 0 0 0 3.2 2.6c1.4.3 3 .2 4.2-.6l2.2-1.4a5.7 5.7 0 0 0 2.5-3.3 5.5 5.5 0 0 0-.6-4.2 5.5 5.5 0 0 0-3.2-2.5 5.3 5.3 0 0 0-4.2.6zm129.3-77.5l-2 1.5a5.8 5.8 0 0 0-2.6 3.2 5.5 5.5 0 0 0 .6 4.2 5.5 5.5 0 0 0 3.3 2.6c1.3.3 3 .2 4.2-.6l2-1.5a5.8 5.8 0 0 0 2.5-3.3 5.5 5.5 0 0 0-.5-4.2 5.5 5.5 0 0 0-3.3-2.5c-1.3-.3-3-.2-4.2.6zm-74.8 115.5l21.4-.5c6.4-.2 6.4-10.2 0-10l-21.4.5c-6.4.1-6.4 10.1 0 10z" fill="#fff"/><path d="M194 218l55.1-39.1c5.2-3.8.3-12.4-5-8.7l-55.2 39.1c-5.2 3.7-.2 12.4 5 8.7zm-77.2 39.6l55.2-39.1c5.2-3.7.2-12.4-5-8.6l-55.3 39c-5.2 3.8-.2 12.5 5 8.7z" fill="#fff"/><path d="M114.5 247.8l-2.1 1.4a5.7 5.7 0 0 0-2.5 3.3 5.5 5.5 0 0 0 .5 4.2 5.5 5.5 0 0 0 3.3 2.5c1.3.4 3 .2 4.2-.6l2.1-1.4a5.7 5.7 0 0 0 2.5-3.3 5.5 5.5 0 0 0-.5-4.2 5.5 5.5 0 0 0-3.3-2.5 5.3 5.3 0 0 0-4.2.6zm129.4-77.5l-2.1 1.5a5.8 5.8 0 0 0-2.5 3.3 5.5 5.5 0 0 0 .5 4.2 5.5 5.5 0 0 0 3.3 2.5c1.3.3 3 .2 4.2-.6l2-1.5a5.8 5.8 0 0 0 2.6-3.2 5.5 5.5 0 0 0-.6-4.2 5.5 5.5 0 0 0-3.2-2.5c-1.3-.4-3.1-.3-4.2.5z" fill="#fff"/></svg>