<svg xmlns="http://www.w3.org/2000/svg" width="361" height="361"><path d="M80.8 130.4V266c0 6.5 10 6.5 10 0V130.4c0-6.4-10-6.4-10 0zm190 0V266c0 6.5 10 6.5 10 0V130.4c0-6.4-10-6.4-10 0z" fill="#fff"/><path d="M286.8 117.6a5.8 5.8 0 0 1-5.7 5.7H81.3a5.8 5.8 0 0 1-5.8-5.7V108a5.8 5.8 0 0 1 5.8-5.7H281a5.8 5.8 0 0 1 5.7 5.7v9.6z" fill="none" stroke="#fff" stroke-width="10"/><path d="M272.5 160c-.4 1.7 1 1.5-.7 1.5h-183c1 0 .5-7.7.5-8.6 0-1-2.8 1-.4 1h183.8c2.4 0-.4-.3-.4-1.4v8.5c0 4.5 7 4.5 7 0 0-6.1 1.5-14.2-6.5-14.2H104.6c-4.8 0-11.4 1.2-16-.2-8-2.3-6.7 12.5-6 16.5.9 3.9 4.8 5.4 8.2 5.4h181.3c3.6 0 6.4-3.3 7.1-6.6.9-4.4-5.9-6.3-6.7-1.8z" fill="#fff"/><path d="M272.5 174.7c-.4 1.6 1 1.4-.7 1.4h-183c1 0 .5-7.3.5-8.2 0-2-2.6.5-.4.5h183.9c2.4 0-.5-1.8-.5-1v8.2c0 4.5 7 4.5 7 0 0-6 1.5-14.2-6.5-14.2h-184c-8 0-6.5 8.1-6.5 14.2 0 4.4 4 7.5 8 7.5h181.5c3.7 0 6.7-3 7.4-6.6.9-4.4-5.9-6.3-6.7-1.8zM85.8 139.5h190c4.5 0 4.5-7 0-7h-190c-4.5 0-4.5 7 0 7zm152.4 5H249c1.9 0 1.9-3 0-3h-10.8c-2 0-2 3 0 3z" fill="#fff"/><path d="M251.2 146.4c-.1.6.3.4-1 .4h-17.7c-1.4 0-1.4-.2-1.4.4v-8.4c0 .6-.5.4.9.4h19.3c.3 0-.2-.8-.2 0v8.1c0 4.5 7 4.5 7 0 0-3 1.1-8.8-.7-11.6-2.6-3.7-5.9-3.5-9.9-3.5h-14.3c-4.2 0-8 .8-9 5.5-.7 3.6-.5 8.2.2 11.7 1 4.4 6 4.4 9.5 4.4h14.4c4.3 0 8.6-.4 9.7-5.5.8-4.4-5.9-6.3-6.8-1.9z" fill="#fff"/></svg>