<svg xmlns="http://www.w3.org/2000/svg" width="361" height="361"><path d="M250 82c0-7-5-12-11-12H124c-6 0-11 5-11 12v198c0 7 5 12 11 12h115c6 0 11-5 11-12V82zm-4 69c2 3 0 4-3 4h-3v29l6 8c2 2 0 4-3 4h-3v28l6 8c2 2 0 4-3 4h-3v28l6 8c2 3 0 4-3 4h-3v4l-1 2H124l-1-2v-20l-7-8c-1-3 0-4 3-4h4v-28l-7-9c-1-2 0-4 3-4h4v-27l-7-9c-1-2 0-4 3-4h4v-28l-7-8c-1-2 0-4 3-4h4V99l-7-8c-1-3 0-5 3-5h4v-4l1-2h115l1 2v21l6 8c2 2 0 4-3 4h-3v28l6 8z" fill="#fff"/><path d="M222 87c8 1 12 10 16 16l6 7c1 1 0 3-2 3h-96l-11-1-5-6-7-9c-1-2-9-10-4-10h103c2 0 2-3 0-3H119c-5 0-6 4-3 8l12 17c6 8 14 7 23 7h93c8-1 1-9 0-11-6-8-12-20-22-21-2 0-2 3 0 3zm0 41c8 0 12 9 16 15l6 7c1 2 0 3-2 3h-96c-4 0-7 1-11-1l-5-6-7-9c-1-1-9-10-4-10h103c2 0 2-3 0-3H119c-5 0-6 4-3 8l12 17c6 8 14 7 23 7h93c8-1 1-8 0-11-6-7-12-20-22-21-2 0-2 3 0 3zm0 40c8 0 12 10 16 15l6 8c1 1 0 3-2 3h-96c-4 0-7 0-11-2l-5-6-7-9c-1-1-9-9-4-9h103c2 0 2-3 0-3H119c-5 0-6 4-3 7l12 17c6 8 14 7 23 7h93c8 0 1-8 0-10-6-8-12-20-22-21-2 0-2 3 0 3zm0 40c8 1 12 10 16 16l6 7c1 1 0 3-2 3h-96l-11-1-5-6-7-9c-1-2-9-10-4-10h103c2 0 2-3 0-3H119c-5 0-6 4-3 8l12 17c6 8 14 7 23 7h93c8-1 1-9 0-11-6-8-12-20-22-21-2 0-2 3 0 3zm0 40c8 1 12 10 16 16l6 7c1 2 0 3-2 3h-96c-4 0-7 1-11-1l-5-6-7-9c-1-1-9-10-4-10h103c2 0 2-3 0-3H119c-5 0-6 4-3 8l12 17c6 8 14 7 23 7h93c8-1 1-8 0-11-6-7-12-20-22-21-2 0-2 3 0 3z" fill="#fff"/><path d="M240 96v182c0 6 10 6 10 0V96c0-7-10-7-10 0z" fill="#fff"/></svg>