<svg xmlns="http://www.w3.org/2000/svg" width="361" height="361"><path d="M179 71v42c0 2 3 2 3 0V71c0-2-3-2-3 0zm0 83v51c0 2 3 2 3 0v-51c0-2-3-2-3 0zm0 93v43c0 2 3 2 3 0v-43c0-2-3-2-3 0zm-16-16h33c7 0 7-10 1-10h-34c-6 0-6 10 0 10z" fill="#fff"/><path d="M200 231l88-59c6-3 1-12-5-8l-88 58c-5 4 0 12 5 9zM77 288l89-58c5-3 0-12-5-8l-89 58c-5 3 0 12 5 8z" fill="#fff"/><path d="M77 278l-3 2a6 6 0 0 0-2 8c1 2 5 3 7 2l3-2a6 6 0 0 0 2-8 6 6 0 0 0-7-2zm206-114l-3 2a6 6 0 0 0-3 3 6 6 0 0 0 1 5c1 2 5 3 7 2l3-3a6 6 0 0 0 3-3 6 6 0 0 0 0-4c-2-3-5-4-8-2z" fill="#fff"/><g fill="#fff"><path d="M164 138h33c6 0 6-10 0-10h-33c-7 0-7 10 0 10z"/><path d="M200 138l89-59c5-3 0-12-5-8l-89 58c-5 4 0 12 5 9zM78 195l88-58c5-3 0-12-5-8l-88 58c-6 3-1 12 5 8z"/><path d="M77 185l-3 2a6 6 0 0 0-2 8c1 2 5 3 7 2l4-2a6 6 0 0 0 2-8 6 6 0 0 0-8-2zM283 71l-3 2a6 6 0 0 0-2 3 6 6 0 0 0 0 5c2 2 5 3 8 2l3-2a6 6 0 0 0 2-4 6 6 0 0 0 0-4c-2-2-5-4-8-2z"/></g></svg>