<svg xmlns="http://www.w3.org/2000/svg" width="361" height="361"><path d="M236 106l8 8a5 5 0 0 0 7 0 5 5 0 0 0 0-7l-8-8a5 5 0 0 0-8 0 5 5 0 0 0 1 7zm-31 0l9 8a5 5 0 0 0 7 0 5 5 0 0 0 0-7l-9-8a5 5 0 0 0-7 0 5 5 0 0 0 0 7zm-29 0l8 8a5 5 0 0 0 7 0 5 5 0 0 0 0-7l-8-8c-2-2-5-2-7 0s-2 5 0 7zm-30 0l8 8c2 2 5 2 7 0s2-5 0-7l-8-8c-2-2-6-2-7 0s-2 5 0 7zm-33 0l8 8c2 2 5 2 7 0s2-5 0-7l-8-8c-2-2-5-2-7 0s-2 5 0 7zm-31 0l8 8c4 5 11-2 7-7l-8-8c-5-4-12 3-7 7z" fill="#fff"/><path d="M242 112v14c0 6 10 6 10 0v-14c0-7-10-7-10 0zm-30 0v14c0 6 10 6 10 0v-14c0-7-10-7-10 0zm-29 0v14c0 6 10 6 10 0v-14c0-7-10-7-10 0zm-31 0v14c0 6 10 6 10 0v-14c0-7-10-7-10 0zm-32 0v14c0 6 10 6 10 0v-14c0-7-10-7-10 0zm-32 0v14c0 6 10 6 10 0v-14c0-7-10-7-10 0z" fill="#fff"/><path d="M264 259a6 6 0 0 1-6 6H83a6 6 0 0 1-6-6V146a6 6 0 0 1 6-6h175c3 0 6 3 6 6v113z" fill="none" stroke="#fff" stroke-width="10" stroke-miterlimit="10"/><path d="M165 199h11c7 0 7-10 0-10h-11c-6 0-6 10 0 10z" fill="#fff"/><path fill="none" stroke="#fff" stroke-width="10" stroke-miterlimit="10" d="M171 141v121"/></svg>