<svg xmlns="http://www.w3.org/2000/svg" width="361" height="361"><path d="M178.8 70.7v59.5c0 1.9 3 1.9 3 0V70.7c0-2-3-2-3 0zm.2 88.4v40.6c0 2 3 2 3 0v-40.6c0-2-3-2-3 0zm0 71.6v59c0 1.9 3 1.9 3 0v-59c0-2-3-2-3 0zm-7.4-75.3l20.3-6.4c6.2-1.9 3.6-11.5-2.6-9.6l-20.4 6.4c-6.1 1.9-3.5 11.5 2.7 9.6z" fill="#fff"/><path d="M194.8 147.6L237 94.7c4-5-3-12-7-7l-42.3 52.8c-4 5 3 12.1 7 7zm-63.3 59.3l42.3-52.8c4-5-3-12-7.1-7l-42.3 52.8c-4 5 3 12 7.1 7z" fill="#fff"/><path d="M126.8 198l-1.7 2a5.8 5.8 0 0 0-1.6 3.8c0 1.4.6 2.8 1.6 3.8a5.5 5.5 0 0 0 3.9 1.6c1.3 0 3-.5 3.8-1.6l1.7-2a5.8 5.8 0 0 0 1.6-3.8c0-1.5-.6-2.8-1.6-3.9a5.5 5.5 0 0 0-3.9-1.6c-1.3 0-3 .6-3.8 1.6zm103-110.2l-1.6 2-.9 1.1a5.4 5.4 0 0 0-.7 2.8 5.5 5.5 0 0 0 1.6 3.8 5.5 5.5 0 0 0 3.8 1.6c1.3 0 3-.5 3.9-1.6l1.6-2 .8-1a5.4 5.4 0 0 0 .8-2.8 5.5 5.5 0 0 0-1.6-3.9 5.5 5.5 0 0 0-3.9-1.6c-1.3 0-3 .5-3.8 1.6zM171.2 222l20.4-6.3c6.1-2 3.5-11.6-2.7-9.7l-20.4 6.4c-6 1.9-3.5 11.5 2.7 9.6z" fill="#fff"/><path d="M194.4 214.2l42.3-52.8c4-5-3-12.1-7.1-7.1a1085205.6 1085205.6 0 0 0-42.3 52.8c-4 5 3 12.1 7 7zm-63.3 59.4l42.3-52.9c4-5-3-12-7-7L124 266.5c-4 5 3 12 7 7z" fill="#fff"/><path d="M126.4 264.6l-1.6 2a5.8 5.8 0 0 0-1.6 3.8 5 5 0 0 0 1.6 3.8 5.5 5.5 0 0 0 3.8 1.6c1.4 0 3-.5 3.9-1.6l1.6-2a5.8 5.8 0 0 0 1.6-3.8 5 5 0 0 0-1.6-3.8 5.5 5.5 0 0 0-3.8-1.6c-1.4 0-3 .5-3.9 1.6zm103-110.2l-1.6 2-.8 1.1a5.4 5.4 0 0 0-.8 2.8 5.5 5.5 0 0 0 1.6 3.9 5.5 5.5 0 0 0 3.9 1.6c1.3 0 3-.6 3.8-1.6l1.6-2 .9-1.2a5.4 5.4 0 0 0 .7-2.7 5.5 5.5 0 0 0-1.6-3.9 5.5 5.5 0 0 0-3.8-1.6c-1.3 0-3 .6-3.9 1.6z" fill="#fff"/></svg>