<svg xmlns="http://www.w3.org/2000/svg" width="361" height="361"><path d="M271.6 233.8c-.3 2.1-2.2 1.3-4.2 1.3H93.2c-1.1 0-3.3.5-4.3 0 .3.2-.4 2.1.4-.4a272.6 272.6 0 0 0 5.5-19.6c2.2-9.6 1.8-19.5 2.4-29.2.1-1.2.7-15.4 1.4-15.4H260c2.6 0 2 .2 2.2 3.1 1 11.4.6 23 2 34.4 1.1 9.7 4.2 19.3 7.5 28.4 2.1 6 11.8 3.4 9.6-2.6a175.5 175.5 0 0 1-6.3-21.4c-2-9.2-1.4-19.2-2-28.6-.5-6.3.6-17-5-21.2-2.8-2.2-5.8-2.1-9.1-2.1H98.4c-9.7 0-10 9.9-10.6 17-.7 9.7-.5 19.6-1.6 29.2-1 8.8-4 17.5-6.7 25.8-2.1 6.4 3.2 12.6 9.8 12.6h171c7.6 0 19.5 1.8 20.9-8.7.9-6.3-8.8-9-9.6-2.6z" fill="#fff"/><path d="M273.4 159.4c-.4-10.7-16.8-15-24.8-17.4a248 248 0 0 0-68-7.8c-22.4 0-45.3 1.7-67 7.5-8.2 2.2-25.6 6.7-26 17.7-.1 1.9 2.9 1.9 3 0 .2-4.3 4.8-7 8-8.9a79 79 0 0 1 19.6-6.9c20.2-5 41.5-6.3 62.3-6.4 20.4 0 41.1 1.5 61 6a88 88 0 0 1 20 6.9c3.6 1.8 8.7 4.7 9 9.3 0 1.9 3 1.9 3 0z" fill="#fff"/><path d="M86.4 167.4h187.1c6.5 0 6.5-10 0-10h-187c-6.5 0-6.5 10 0 10z" fill="#fff"/><path d="M81.6 161l-3.4 12c-1.8 6.3 7.9 9 9.6 2.7l3.5-12c1.8-6.2-7.9-8.8-9.7-2.6zm187 2.7l3.5 12c1.8 6.2 11.4 3.6 9.7-2.6l-3.5-12c-1.8-6.2-11.4-3.6-9.6 2.6zM80.5 223.5c-.1 4.5-1.6 13.8-7.6 14.1-4.5.2-4.5 7.2 0 7 10.5-.5 14.4-12.3 14.6-21 0-4.6-7-4.6-7 0zm193.2.2c.2 8.8 4.1 20.6 14.6 21 4.5.3 4.5-6.7 0-7-6-.2-7.5-9.6-7.6-14 0-4.5-7-4.5-7 0z" fill="#fff"/><path d="M83.9 227H277c4.5 0 4.5-7 0-7H84c-4.5 0-4.5 7 0 7zm-11 19.1h215.3c4.5 0 4.5-7 0-7H72.8c-4.5 0-4.5 7 0 7z" fill="#fff"/></svg>