<svg xmlns="http://www.w3.org/2000/svg" width="361" height="361"><path d="M208.5 133.7v30.4c0 2 3 2 3 0v-30.4c0-2-3-2-3 0zm0 59.4v36.1c0 2 3 2 3 0V193c0-1.9-3-1.9-3 0zm0 66.4v30.2c0 1.9 3 1.9 3 0v-30.2c0-2-3-2-3 0z" fill="#fff"/><path d="M140.1 221.5a141 141 0 0 1 145.3-36.3c6.2 2 8.8-7.6 2.7-9.6a151 151 0 0 0-155 38.9c-4.5 4.6 2.6 11.7 7 7z" fill="#fff"/><path d="M137 216.1l-2 2a3.5 3.5 0 0 0 0 5 3.5 3.5 0 0 0 4.9 0l2-2a3.5 3.5 0 0 0 0-5 3.5 3.5 0 0 0-5 0zm150.3-36.3l-2.8-.6c-1.8-.4-3.8.5-4.3 2.4-.5 1.8.6 4 2.5 4.3l2.7.7c2 .4 3.8-.6 4.4-2.5.4-1.8-.6-3.9-2.5-4.3z" fill="#fff"/><g fill="#fff"><path d="M140.1 288.5a141 141 0 0 1 145.3-36.3c6.2 2 8.8-7.7 2.7-9.7a151 151 0 0 0-155 38.9c-4.5 4.7 2.6 11.7 7 7z"/><path d="M137 283l-2 2a3.5 3.5 0 0 0 0 5 3.5 3.5 0 0 0 4.9 0l2-2a3.5 3.5 0 0 0 0-5 3.5 3.5 0 0 0-5 0zm150.3-36.3l-2.8-.6c-1.8-.4-3.8.6-4.3 2.5-.5 1.7.6 3.9 2.5 4.3l2.7.6c2 .4 3.8-.5 4.4-2.4.4-1.8-.6-4-2.5-4.3z"/></g><path d="M90.7 118.6a4 4 0 0 0 4 4h23.4a4 4 0 0 0 4.1-4V95.2a4 4 0 0 0-4-4H94.7a4 4 0 0 0-4 4v23.4z" fill="none" stroke="#fff" stroke-width="10" stroke-miterlimit="10"/><path d="M137.8 70.8l-7.2 7.2c-2 1.9-2 5.1 0 7s5.1 2 7 0l7.3-7.2c1.9-1.9 1.9-5.1 0-7s-5.2-2-7.1 0zm37.9 30.9h-33.5c-6.4 0-6.4 10 0 10h33.5c6.5 0 6.5-10 0-10zm-97.3 41.6l6-6a5 5 0 0 0-7-7l-6.1 6c-2 1.9-2 5.1 0 7s5.1 2 7 0zm33.6 32.1V142c0-6.4-10-6.4-10 0v33.5c0 6.5 10 6.5 10 0zm48.3-21.4l-23.7-23.7c-4.5-4.6-11.6 2.5-7 7l23.7 23.8c4.5 4.5 11.6-2.6 7-7.1z" fill="#fff"/></svg>