<svg xmlns="http://www.w3.org/2000/svg" width="361" height="361"><path d="M178.8 70.7v42.6c0 2 3 2 3 0V70.7c0-2-3-2-3 0zm.2 83.4v40.6c0 2 3 2 3 0v-40.6c0-2-3-2-3 0zm0 83.2v52.4c0 1.9 3 1.9 3 0v-52.4c0-1.9-3-1.9-3 0z" fill="#fff"/><path d="M139 268.7c5.6-14.3 11.1-28.5 21.8-39.8a91.5 91.5 0 0 1 23.8-17.3c9-4.8 17.4-10.6 24.8-17.6a75.8 75.8 0 0 0 19.1-30.3l1.3-3.8v-.3c-.7 1.4-5.8 1.9-7.2 0 4.6 6.2 9.5 18.7 19.2 16.1 6.2-1.6 3.6-11.3-2.6-9.6l-3-4.2-5-7.3a5.6 5.6 0 0 0-5-3.1c-3.8 0-5.3 3.3-6.3 6.4a70.8 70.8 0 0 1-16.7 28.1c-7.3 7.5-16 13-25.2 17.8a98.3 98.3 0 0 0-25.2 19c-11.5 12.2-17.4 27.9-23.4 43.2-2.4 6 7.3 8.6 9.6 2.7z" fill="#fff"/><path d="M131.3 262.5l-1 2.4-.5 1.3a5.5 5.5 0 0 0 0 2.9 5.5 5.5 0 0 0 2.5 3.2 5.5 5.5 0 0 0 4.2.6c1.2-.4 2.7-1.3 3.3-2.5l1-2.4.5-1.3c.3-1 .3-2 0-3a5.5 5.5 0 0 0-2.5-3.2 5.5 5.5 0 0 0-4.2-.5 5.5 5.5 0 0 0-3.3 2.5zm108.3-95l-2.4.8c-1 .4-1.9 1-2.5 2a4.2 4.2 0 0 0-.4 3.2 4.2 4.2 0 0 0 2 2.5 4 4 0 0 0 3.2.5l2.4-1a4.5 4.5 0 0 0 2.5-1.9c.5-1 .7-2.1.4-3.2a4.2 4.2 0 0 0-2-2.5 4 4 0 0 0-3.2-.5z" fill="#fff"/><g fill="#fff"><path d="M138.8 197.2c5.6-14.3 11-28.5 21.8-39.8a91.6 91.6 0 0 1 23.8-17.3 111 111 0 0 0 24.8-17.7 75.8 75.8 0 0 0 19-30.2l1.3-3.8c.5-1.3.1-.3.1-.4-.7 1.5-5.8 2-7.2 0 4.5 6.3 9.4 18.8 19.2 16.2 6.2-1.7 3.6-11.3-2.7-9.7.2 0-2.4-3.2-3-4L231 83c-1.1-1.7-2.8-3-5-3-3.8-.1-5.3 3.3-6.4 6.4a70.8 70.8 0 0 1-16.6 28c-7.3 7.5-16.1 13-25.2 18a98.3 98.3 0 0 0-25.2 18.8c-11.6 12.3-17.4 28-23.5 43.3-2.3 6 7.3 8.6 9.7 2.7z"/><path d="M131.1 191l-1 2.3-.6 1.3a5.5 5.5 0 0 0 0 3 5.5 5.5 0 0 0 2.5 3.2 5.5 5.5 0 0 0 4.2.5c1.3-.3 2.8-1.2 3.3-2.5l1-2.3.6-1.3c.2-1 .2-2 0-3a5.5 5.5 0 0 0-2.5-3.2 5.5 5.5 0 0 0-4.2-.5c-1.3.3-2.8 1.2-3.3 2.5zm108.3-95l-2.4.8c-1 .4-2 1-2.5 2a4.2 4.2 0 0 0-.5 3.2 4.2 4.2 0 0 0 2 2.5 4 4 0 0 0 3.2.4l2.4-.9a4.5 4.5 0 0 0 2.5-2c.6-.9.7-2 .4-3.1a4.2 4.2 0 0 0-1.9-2.6c-.9-.5-2.2-.8-3.2-.4z"/></g></svg>