<svg xmlns="http://www.w3.org/2000/svg" width="361" height="361"><path d="M179 71v42c0 2 3 2 3 0V71c0-2-3-2-3 0zm0 83v41c0 2 3 2 3 0v-41c0-2-3-2-3 0zm0 83v53c0 2 3 2 3 0v-53c0-2-3-2-3 0zm-66-5c14-9 28-18 44-21 11-2 22 0 33 1 9 1 18 0 28-2a74 74 0 0 0 30-13l3-2c1-1 0 0 0 0-3 0-5-1-6-3v1c0 7-2 18 7 22 6 2 9-8 3-10 0 1 1 1 0 0v-12l-1-7c-3-2-7-1-9 1a73 73 0 0 1-29 14c-20 4-41-3-61 1-18 2-32 12-47 22-5 3 0 12 5 8z" fill="#fff"/><path d="M111 223l-2 1a6 6 0 0 0-2 7c1 3 5 4 7 2l2-1a6 6 0 0 0 2-7 6 6 0 0 0-7-2zm143-16l-2-1a4 4 0 0 0-5 3c-1 2 0 4 3 5l2 1c2 0 5-1 5-3 1-3 0-5-3-6z" fill="#fff"/><g fill="#fff"><path d="M113 161c14-10 28-18 44-21 11-2 22-1 32 0s19 1 28-1a74 74 0 0 0 31-14l3-2c1-1-1 0 0 0-3 0-5-1-6-3v1c0 8-2 19 7 22 6 2 8-7 2-10h1v-12c0-2 0-5-2-6-3-3-6-2-9 0a73 73 0 0 1-28 14c-20 4-41-2-61 1-18 3-32 13-47 22-5 4 0 12 5 9z"/><path d="M111 151l-3 1a6 6 0 0 0-1 8c1 2 5 3 7 2l2-2a6 6 0 0 0 2-7c-1-2-5-4-7-2zm143-16l-2-1a4 4 0 0 0-6 3 4 4 0 0 0 3 5l3 1c2 1 4-1 5-3a4 4 0 0 0-3-5z"/></g></svg>