<svg xmlns="http://www.w3.org/2000/svg" width="361" height="361"><path d="M126 178.7a126.3 126.3 0 0 1 99.2 90.5c1.7 6.2 11.3 3.6 9.6-2.6a136.2 136.2 0 0 0-106-97.5c-6.4-1.2-9 8.5-2.7 9.6z" fill="#fff"/><path d="M131.3 170l-2.5-.5a5.7 5.7 0 0 0-4.2.6 5.5 5.5 0 0 0-2.5 3.2 5.5 5.5 0 0 0 .5 4.2 5.3 5.3 0 0 0 3.3 2.5l2.5.6a5.7 5.7 0 0 0 4.2-.6 5.5 5.5 0 0 0 2.5-3.3 5.5 5.5 0 0 0-.5-4.1 5.3 5.3 0 0 0-3.3-2.5zm103.2 96.5l-1-2.4a5.9 5.9 0 0 0-2.4-3.2 5.5 5.5 0 0 0-4.2-.6 5.5 5.5 0 0 0-3.3 2.5c-.7 1.2-1 3-.6 4.2l1 2.4a5.9 5.9 0 0 0 2.5 3.3 5.5 5.5 0 0 0 4.2.5 5.5 5.5 0 0 0 3.2-2.5c.7-1.1 1-2.9.6-4.2zM178.8 71.7v16.2c0 2 3 2 3 0V71.7c0-2-3-2-3 0zm.2 71.3v22.8c0 2 3 2 3 0V143c0-2-3-2-3 0zm0 75v71.7c0 1.9 3 1.9 3 0V218c0-2-3-2-3 0z" fill="#fff"/><path d="M179 134v22.8c0 2 3 2 3 0V134c0-2-3-2-3 0z" fill="#fff"/><g fill="#fff"><path d="M124.9 98.5a126.3 126.3 0 0 1 99 90.5c1.8 6.2 11.4 3.6 9.7-2.7a136.2 136.2 0 0 0-106-97.5c-6.4-1.1-9 8.5-2.7 9.7z"/><path d="M130.1 89.8l-2.5-.5a5.7 5.7 0 0 0-4.2.5 5.5 5.5 0 0 0-2.5 3.3 5.5 5.5 0 0 0 .5 4.2 5.3 5.3 0 0 0 3.3 2.5l2.5.5a5.7 5.7 0 0 0 4.2-.5 5.5 5.5 0 0 0 2.5-3.3 5.5 5.5 0 0 0-.5-4.2 5.3 5.3 0 0 0-3.3-2.5zm103.2 96.5l-1-2.4a5.9 5.9 0 0 0-2.5-3.3 5.5 5.5 0 0 0-4.2-.5 5.5 5.5 0 0 0-3.2 2.5c-.7 1.2-1 2.9-.6 4.2l1 2.4a5.9 5.9 0 0 0 2.4 3.2 5.5 5.5 0 0 0 4.3.6 5.5 5.5 0 0 0 3.2-2.5c.7-1.2 1-3 .6-4.2z"/></g></svg>