<svg xmlns="http://www.w3.org/2000/svg" width="361" height="361"><g fill="#fff"><path d="M138.8 260.2a6 6 0 0 1-6 6h-11.5a6 6 0 0 1-6-6v-11a6 6 0 0 1 6-6h11.5a6 6 0 0 1 6 6v11zm108 0a6 6 0 0 1-6 6h-11.5a6 6 0 0 1-6-6v-11a6 6 0 0 1 6-6h11.5a6 6 0 0 1 6 6v11zm-13.9-45H128.6c-6 0-10.6-6-10.6-13.7v-.7l4.7-18.5c.5-7 7.6-13 13.5-13h89.1c6 0 13 6 13.5 13l4.8 18.5v.7c0 7.6-4.7 13.6-10.7 13.6zm-103.9-10h103.5c.4-.4 1-1.5 1-3.2l-4.6-18.4v-.6c0-1.6-2.5-3.5-3.6-3.7h-89.1c-1 .2-3.5 2.1-3.5 3.7v.6L128 202c0 1.7.7 2.8 1 3.1z"/><path d="M251.2 242.9c0 2.9-2.8 5.3-6.2 5.3H116.7c-3.4 0-6.2-2.4-6.2-5.3v-27.7c0-3 2.8-5.3 6.2-5.3H245c3.4 0 6.2 2.3 6.2 5.3v27.7zm-107.6-21.5c0-2.6-2.7-4.7-6-4.7h-17.3c-3.3 0-6 2.1-6 4.7v4.9c0 2.6 2.7 4.7 6 4.7h17.3c3.3 0 6-2.1 6-4.7v-4.9zm103.5 0c0-2.6-2.7-4.7-6-4.7h-17.3c-3.3 0-6 2.1-6 4.7v4.9c0 2.6 2.7 4.7 6 4.7h17.3c3.3 0 6-2.1 6-4.7v-4.9zm-40.3 4.2c0-5-2.6-9.2-6-9.2h-40.5c-3.3 0-6 4.1-6 9.2v5.7c0 5 2.7 9.1 6 9.1h40.5c3.4 0 6-4 6-9.1v-5.7z"/><path d="M147.6 219.2h66v10h-66zm1 13h66v10h-66z"/></g><path d="M80.8 130.4V266c0 6.5 10 6.5 10 0V130.4c0-6.4-10-6.4-10 0zm190 0V266c0 6.5 10 6.5 10 0V130.4c0-6.4-10-6.4-10 0z" fill="#fff"/><path d="M286.8 117.6a5.8 5.8 0 0 1-5.7 5.7H81.3a5.8 5.8 0 0 1-5.8-5.7V108a5.8 5.8 0 0 1 5.8-5.7H281a5.8 5.8 0 0 1 5.7 5.7v9.6z" fill="none" stroke="#fff" stroke-width="10"/><path d="M272.5 131.7c-.2.6.6.5-.7.5h-183c1 0 .8-4.7.1-4.7h183.9c-.6 0-.5-.3-.5 1v4.2c0 4.5 7 4.5 7 0 0-5.1.4-12.2-6.7-12.2H102.4c-4.9 0-13.2-1.5-17.5 1.4-5.3 3.6-3.5 17.3 4 17.3h183.9c3.4 0 5.8-2.5 6.4-5.6.9-4.4-5.9-6.3-6.8-1.9z" fill="#fff"/></svg>