<svg xmlns="http://www.w3.org/2000/svg" width="361" height="361"><path d="M178.8 70.7v59.5c0 1.9 3 1.9 3 0V70.7c0-2-3-2-3 0zm.2 88.4v40.6c0 2 3 2 3 0v-40.6c0-2-3-2-3 0zm0 71.6v59c0 1.9 3 1.9 3 0v-59c0-2-3-2-3 0zm-3-72.5l16-14.1c4.8-4.3-2.3-11.4-7-7.1l-16 14c-5 4.4 2.2 11.4 7 7.2z" fill="#fff"/><path d="M193.8 141.4L210.9 76c1.6-6.3-8-9-9.6-2.7L184 138.8c-1.6 6.2 8 8.9 9.7 2.6zm-33.7 80l17.2-65.5c1.6-6.2-8-8.8-9.7-2.6l-17.1 65.4c-1.6 6.3 8 9 9.6 2.7z" fill="#fff"/><path d="M151.8 216l-.7 2.5a5.5 5.5 0 0 0 3.9 6.7c2.8.8 5.9-1 6.7-3.8l.7-2.4a5.5 5.5 0 0 0-3.8-6.7c-3-.8-6 .9-6.8 3.8zm49.3-142.4l-.6 2.5c-.7 2.8 1 5.9 3.8 6.7A5.5 5.5 0 0 0 211 79l.7-2.5c.7-3-1-6-3.8-6.7a5.5 5.5 0 0 0-6.8 3.8zm-25.5 151.2l16-14.1c4.9-4.3-2.2-11.3-7-7.1l-16 14.1c-4.9 4.3 2.2 11.3 7 7z" fill="#fff"/><path d="M193.4 208l17.1-65.4c1.7-6.2-8-8.9-9.6-2.6l-17.1 65.4c-1.7 6.2 8 8.9 9.6 2.7zm-33.6 80l17.1-65.4c1.6-6.3-8-9-9.6-2.7L150 285.3c-1.6 6.3 8 9 9.7 2.7z" fill="#fff"/><path d="M151.5 282.7l-.7 2.5a5.5 5.5 0 0 0 3.8 6.7c2.9.8 5.9-1 6.7-3.8l.7-2.5a5.5 5.5 0 0 0-3.8-6.7c-2.9-.8-5.9 1-6.7 3.8zm49.3-142.5l-.7 2.5c-.7 2.9 1 5.9 3.8 6.7a5.5 5.5 0 0 0 6.8-3.8l.6-2.5c.7-2.9-.9-6-3.8-6.7a5.5 5.5 0 0 0-6.7 3.8z" fill="#fff"/></svg>