<svg xmlns="http://www.w3.org/2000/svg" width="361" height="361"><path d="M273.8 288.8H75c-2 0-2 3 0 3h198.8c2 0 2-3 0-3z" fill="#fff"/><path d="M70 204.5v82.4c0 6.5 10 6.5 10 0v-82.4c0-6.5-10-6.5-10 0z" fill="#fff"/><path d="M275.8 284.3c0 2.2-2.1 4-4.8 4h-37.4c-2.7 0-4.8-1.8-4.8-4v-75.9c0-2.2 2.1-4 4.7-4h37.6c2.6 0 4.7 1.8 4.7 4v75.9z" fill="none" stroke="#fff" stroke-width="7" stroke-miterlimit="10"/><path d="M100.1 235h150.2c9.7 0 9.8-15 .1-15H100.2c-9.7 0-9.8 15-.1 15z" fill="#fff"/><path d="M263.2 216.4a3 3 0 0 1 3 3v16.3a3 3 0 0 1-3 3h-25.7a3 3 0 0 1-3-3v-16.3a3 3 0 0 1 3-3h25.7z" fill="#fff"/></svg>