<svg xmlns="http://www.w3.org/2000/svg" width="361" height="361"><path d="M178.8 70.7v59.5c0 1.9 3 1.9 3 0V70.7c0-2-3-2-3 0zm.2 88.4v40.6c0 2 3 2 3 0v-40.6c0-2-3-2-3 0zm0 71.6v59c0 1.9 3 1.9 3 0v-59c0-2-3-2-3 0zM168.9 144l16.7 13.3c2 1.7 5 2 7 0 1.8-1.8 2.2-5.4 0-7L176 136.8c-2.2-1.7-5-2-7.1 0-1.8 1.8-2.2 5.4 0 7z" fill="#fff"/><path d="M189.6 159.2l67.4 5.5c6.4.5 6.4-9.5 0-10l-67.4-5.5c-6.4-.5-6.4 9.5 0 10zM105 139.9l67.4 5.5c6.5.6 6.4-9.4 0-10L105 130c-6.4-.5-6.4 9.5 0 10z" fill="#fff"/><path d="M107.8 130.8l-2.5-.3c-1.4-.1-3 .7-3.9 1.6a5.5 5.5 0 0 0 0 7.7l1.1.9a5.4 5.4 0 0 0 2.8.7l2.5.3c1.4.2 3-.7 3.9-1.6a5.5 5.5 0 0 0 0-7.7l-1.1-.9a5.4 5.4 0 0 0-2.8-.7zm149 23.8l-2.6-.2a5.5 5.5 0 0 0-3.9 9.3 5.7 5.7 0 0 0 3.9 1.6l2.5.2a5.5 5.5 0 0 0 3.9-9.3 5.7 5.7 0 0 0-3.9-1.6zm-88.3 56l16.7 13.3c2.1 1.7 5 2.1 7 0 1.8-1.7 2.2-5.3 0-7l-16.6-13.4c-2.1-1.7-5-2-7 0-1.8 1.8-2.2 5.4 0 7.1z" fill="#fff"/><path d="M189.2 225.8l67.5 5.5c6.4.5 6.3-9.5 0-10l-67.5-5.5c-6.4-.5-6.4 9.5 0 10zm-84.6-19.2l67.5 5.5c6.4.5 6.3-9.5 0-10l-67.5-5.5c-6.4-.6-6.3 9.4 0 10z" fill="#fff"/><path d="M107.5 197.4l-2.6-.3c-1.4 0-3 .7-3.9 1.7a5.5 5.5 0 0 0 0 7.7l1.1.8a5.4 5.4 0 0 0 2.8.8l2.6.2c1.3.2 2.9-.6 3.8-1.6a5.5 5.5 0 0 0 0-7.7 820 820 0 0 1-1-.8 5.4 5.4 0 0 0-2.8-.8zm148.9 23.8l-2.6-.2a5.5 5.5 0 0 0-3.9 9.3 5.7 5.7 0 0 0 3.9 1.6l2.6.2a5.5 5.5 0 0 0 3.8-9.3 5.7 5.7 0 0 0-3.8-1.6z" fill="#fff"/></svg>