<svg xmlns="http://www.w3.org/2000/svg" width="361" height="361"><path d="M179 71v42c0 2 3 2 3 0V71c0-2-3-2-3 0zm0 83v41c0 2 3 2 3 0v-41c0-2-3-2-3 0zm0 83v53c0 2 3 2 3 0v-53c0-2-3-2-3 0z" fill="#fff"/><path d="M127 256c9-13 18-26 31-34a97 97 0 0 1 28-11 105 105 0 0 0 28-12 76 76 0 0 0 25-23l2-4c1-1 0 0 0 0-1 1-6 0-7-1 0-2 0-2 1 1l1 5a75 75 0 0 0 3 6c2 4 5 7 10 7 6 0 6-10 0-10l-2-5-3-8-4-4c-4-2-7 2-8 5a70 70 0 0 1-23 23c-18 11-39 12-57 23-15 9-24 23-34 36-4 6 5 11 8 6z" fill="#fff"/><path d="M120 249l-2 2a5 5 0 0 0 0 4 6 6 0 0 0 2 3 6 6 0 0 0 4 1l2-1a6 6 0 0 0 2-2l1-2 1-4a6 6 0 0 0-3-3 6 6 0 0 0-4-1l-1 1a6 6 0 0 0-2 2zm129-67h-3l-3 1a4 4 0 0 0 0 6l3 1h3l3-1a4 4 0 0 0 0-6l-3-2z" fill="#fff"/><g fill="#fff"><path d="M126 184c9-13 18-25 32-34a97 97 0 0 1 28-11 105 105 0 0 0 28-11 76 76 0 0 0 25-24l2-4c0-1 0 0 0 0-1 1-6 1-7-1v1l2 5a75 75 0 0 0 3 7c2 4 5 7 9 7 7-1 7-11 0-10l-2-5-3-8a6 6 0 0 0-4-5c-3-1-6 3-8 5a70 70 0 0 1-23 23c-17 11-39 12-56 23-15 9-25 23-34 37-4 5 5 10 8 5z"/><path d="M120 177l-2 2v4a6 6 0 0 0 2 4 6 6 0 0 0 4 0h2a6 6 0 0 0 2-2l1-2 1-5a6 6 0 0 0-3-3 6 6 0 0 0-4 0h-2a6 6 0 0 0-1 2zm129-67h-3l-3 1a4 4 0 0 0 0 7l3 1 3-1 3-1a4 4 0 0 0 0-6l-3-1z"/></g></svg>