<svg xmlns="http://www.w3.org/2000/svg" width="361" height="361"><g fill="#fff"><path d="M253 166a6 6 0 0 0 6 6h12a6 6 0 0 0 6-6v-12a6 6 0 0 0-6-6h-12a6 6 0 0 0-6 6v12zm-114 0a6 6 0 0 0 6 6h12a6 6 0 0 0 6-6v-12a6 6 0 0 0-6-6h-12a6 6 0 0 0-6 6v12zm3-62v-1l5-19c1-8 8-14 14-14h94c6 0 14 6 14 14l5 19v1c0 8-5 14-11 14H153c-6 0-11-6-11-14zm122 1l-5-20c0-2-3-4-4-4h-94c-1 0-3 2-3 4l-5 20 1 3h109l1-3z"/><path d="M134 118c0-3 3-5 7-5h135c3 0 6 2 6 5v30c0 3-3 5-6 5H141c-4 0-7-2-7-5v-30zm114 12c0 3 2 5 6 5h18c4 0 6-2 6-5v-5c0-3-2-5-6-5h-18c-4 0-6 2-6 5v5zm-109 0c0 3 2 5 6 5h18c3 0 6-2 6-5v-5c0-3-3-5-6-5h-18c-4 0-7 2-7 5v5zm42 5c0 6 3 10 6 10h43c3 0 6-4 6-10v-6c0-5-3-9-6-9h-43c-3 0-6 4-6 9v6z"/><path d="M174 123h69v10h-69zm-1 13h69v11h-69z"/></g><path d="M84 180v105c0 9 15 9 15 0V180c0-10-15-10-15-1z" fill="#fff"/><path d="M89 292h199c2 0 2-3 0-3H89c-2 0-2 3 0 3zm181-100v89c0 6 10 6 10 0v-89c0-6-10-6-10 0zm-24 0v89c0 6 10 6 10 0v-89c0-6-10-6-10 0zm-24 0v89c0 6 10 6 10 0v-89c0-6-10-6-10 0zm-48 0v89c0 6 10 6 10 0v-89c0-6-10-6-10 0zm-24 0v89c0 6 10 6 10 0v-89c0-6-10-6-10 0zm-24 0v89c0 6 10 6 10 0v-89c0-6-10-6-10 0zm-24 0v89c0 6 10 6 10 0v-89c0-6-10-6-10 0z" fill="#fff"/><path d="M275 276H107c-6 0-6 10 0 10h168c6 0 6-10 0-10zm0-90H107c-6 0-6 10 0 10h168c6 0 6-10 0-10z" fill="#fff"/><path d="M198 192v89c0 6 10 6 10 0v-89c0-6-10-6-10 0zm85 0v95c0 7 10 7 10 0v-95c0-7-10-7-10 0z" fill="#fff"/></svg>