<svg xmlns="http://www.w3.org/2000/svg" width="361" height="361"><path d="M179 71v59c0 2 3 2 3 0V71c0-2-3-2-3 0zm0 88v41c0 2 3 2 3 0v-41c0-2-3-2-3 0zm0 72v59c0 2 3 2 3 0v-59c0-2-3-2-3 0zm-6-75l20-9c5-3 0-11-5-8l-20 9c-6 3 0 11 5 8z" fill="#fff"/><path d="M195 145l35-58c3-6-6-11-9-5l-35 58c-3 6 6 11 9 5zm-54 68l34-59c3-5-5-10-9-4l-34 58c-3 5 5 10 9 5z" fill="#fff"/><path d="M134 206l-1 2c-2 2-1 6 2 7a6 6 0 0 0 7-2l1-2c2-2 1-6-2-7a6 6 0 0 0-7 2zm87-124l-2 2a6 6 0 0 0 2 8 6 6 0 0 0 8-2l1-2c2-3 1-6-2-8a6 6 0 0 0-7 2zm-48 141l19-9c6-3 1-12-5-9l-19 9c-6 3-1 12 5 9z" fill="#fff"/><path d="M195 212l34-58c3-6-5-11-9-5l-34 58c-3 5 5 10 9 5zm-55 67l35-58c3-5-6-10-9-5l-34 58c-4 6 5 11 8 5z" fill="#fff"/><path d="M134 272l-2 2c-1 3 0 6 2 8a6 6 0 0 0 8-2l1-2c2-3 1-6-2-8a6 6 0 0 0-7 2zm86-123l-1 2a6 6 0 0 0 2 8 6 6 0 0 0 7-2l2-3c1-2 0-6-2-7a6 6 0 0 0-8 2z" fill="#fff"/></svg>