<svg xmlns="http://www.w3.org/2000/svg" width="361" height="361"><path d="M238.8 188a5.3 5.3 0 0 1-5.2 5.3H85.7a5.3 5.3 0 0 1-5.2-5.3V93a5.3 5.3 0 0 1 5.2-5.3h147.9a5.3 5.3 0 0 1 5.3 5.2v95z" fill="none" stroke="#fff" stroke-width="10" stroke-miterlimit="10"/><path d="M155.2 145.3h9.4c6.5 0 6.5-10 0-10h-9.4c-6.4 0-6.4 10 0 10z" fill="#fff"/><path fill="none" stroke="#fff" stroke-width="10" stroke-miterlimit="10" d="M159.8 88v102.7"/><path d="M244.6 88.8c0 .4-2.5.7-5.7.7H80.6c-3 0-5.6-.3-5.6-.7V75.5c0-.4 2.5-.7 5.6-.7H239c3.2 0 5.7.3 5.7.7v13.3z" fill="#fff" stroke="#fff" stroke-width="10" stroke-miterlimit="10"/><path d="M75.3 103.2h169.4c4.5 0 4.5-7 0-7H75.3c-4.6 0-4.6 7 0 7zm0 10.4h169.4c4.5 0 4.5-7 0-7H75.3c-4.6 0-4.6 7 0 7zm0 10.4h169.4c4.5 0 4.5-7 0-7H75.3c-4.6 0-4.6 7 0 7zm0 10.4h169.4c4.5 0 4.5-7 0-7H75.3c-4.6 0-4.6 7 0 7zm0 10.2h169.5c4.5 0 4.5-7 0-7H75.3c-4.5 0-4.5 7 0 7zm0 10.4h169.5c4.5 0 4.5-7 0-7H75.3c-4.5 0-4.5 7 0 7zm0 10.4h169.5c4.5 0 4.5-7 0-7H75.3c-4.5 0-4.5 7 0 7zm0 10.4h169.5c4.5 0 4.5-7 0-7H75.3c-4.5 0-4.5 7 0 7z" fill="#fff"/><path d="M272 269.8c1.5 0 2.6.4 2.6.8V285c0 .4-1.2.8-2.6.8h-51.7c-1.5 0-2.7-.4-2.7-.8v-14.4c0-.4 1.2-.8 2.7-.8H272z" fill="none" stroke="#fff" stroke-width="10" stroke-miterlimit="10"/><path d="M210.7 272l40.1-52.5h-8.6l40 52.5 4.4-7.5h-80.2c-6.5 0-6.5 10 0 10h80.2c3.4 0 6.7-4.4 4.3-7.6l-40.1-52.5c-2.4-3.1-6.2-3.1-8.6 0L202 267c-3.9 5.2 4.8 10.1 8.7 5z" fill="#fff"/></svg>