<svg xmlns="http://www.w3.org/2000/svg" width="361" height="361"><path d="M179 71v42c0 2 3 2 3 0V71c0-2-3-2-3 0zm0 83v41c0 2 3 2 3 0v-41c0-2-3-2-3 0zm0 83v53c0 2 3 2 3 0v-53c0-2-3-2-3 0z" fill="#fff"/><path d="M154 279c2-16 4-31 12-45a98 98 0 0 1 20-23 105 105 0 0 0 19-22 76 76 0 0 0 10-34l1-4c0 1 0 0 0 0-1 2-3 3-6 3-1 0-3-2 0 0 6 5 13 15 21 10 6-3 1-12-5-9l-2-2-7-6c-1-1-3-3-6-3-4 1-5 4-5 8a71 71 0 0 1-10 32 113 113 0 0 1-21 24 96 96 0 0 0-19 24c-8 14-10 31-12 47-1 6 9 6 10 0z" fill="#fff"/><path d="M145 275v3l-1 1 1 3a6 6 0 0 0 3 2 6 6 0 0 0 5 0l2-4 1-2v-2a5 5 0 0 0-1-2 6 6 0 0 0-3-3 6 6 0 0 0-5 1l-2 3zm82-118l-2 1a4 4 0 0 0-2 2 4 4 0 0 0 0 4c1 2 4 3 6 1l2-1a4 4 0 0 0 2-3 4 4 0 0 0 0-3c-1-2-4-3-6-1z" fill="#fff"/><g fill="#fff"><path d="M154 207c2-15 4-30 12-44a98 98 0 0 1 20-23 105 105 0 0 0 18-23 76 76 0 0 0 11-34v-4c0 2 0 1 1 0-1 3-3 4-6 3-1 0-3-2 0 1 5 5 13 14 21 9 6-3 1-11-5-8l-3-3-6-5c-2-2-4-4-6-4-4 1-5 5-6 9a71 71 0 0 1-9 31 113 113 0 0 1-22 25 96 96 0 0 0-18 23c-8 15-10 31-12 47-1 7 9 7 10 0z"/><path d="M145 203l-1 3v1l1 3a6 6 0 0 0 3 3 6 6 0 0 0 4-1l3-3v-4a5 5 0 0 0 0-3 6 6 0 0 0-4-2 6 6 0 0 0-4 0l-2 3zm82-118l-2 1a4 4 0 0 0-2 3 4 4 0 0 0 0 3c1 2 4 3 6 2l2-2a4 4 0 0 0 2-2 4 4 0 0 0 0-3c-2-2-4-3-6-2z"/></g></svg>