<svg xmlns="http://www.w3.org/2000/svg" width="361" height="361"><path d="M210 215a79 79 0 0 1 63-56c6-1 3-11-3-10a89 89 0 0 0-70 63c-2 6 8 9 9 3z" fill="#fff"/><path d="M200 210v2c-1 3 1 6 4 7a6 6 0 0 0 7-4v-2c1-3-1-6-4-6a6 6 0 0 0-7 3zm70-61l-2 1a6 6 0 0 0-3 7 6 6 0 0 0 6 3h2a6 6 0 0 0 4-7 6 6 0 0 0-7-4zm-60 131a79 79 0 0 1 63-56c6-1 3-11-3-10a89 89 0 0 0-70 63c-2 6 8 9 9 3z" fill="#fff"/><path d="M200 275v2c-1 3 1 6 4 7a6 6 0 0 0 7-4v-2c1-3-1-6-4-7a6 6 0 0 0-7 4zm70-61l-2 1a6 6 0 0 0-3 7 6 6 0 0 0 6 3h2a6 6 0 0 0 4-7 6 6 0 0 0-7-4z" fill="#fff"/><g fill="#fff"><path d="M210 150a79 79 0 0 1 63-56c6-1 3-11-3-10a89 89 0 0 0-70 63c-2 6 8 9 9 3z"/><path d="M200 146v1c-1 3 1 6 4 7a6 6 0 0 0 7-4v-2c1-2-1-6-4-6a6 6 0 0 0-7 3zm70-61h-2a6 6 0 0 0-3 7 6 6 0 0 0 6 4l2-1a6 6 0 0 0 4-7 6 6 0 0 0-7-3z"/></g><path d="M232 71v21c0 2 3 2 3 0V71c0-2-3-2-3 0zm0 50v37c0 2 3 2 3 0v-37c0-2-3-2-3 0zm0 64v37c0 2 3 2 3 0v-37c0-2-3-2-3 0zm0 64v41c0 2 3 2 3 0v-41c0-2-3-2-3 0z" fill="#fff"/><path d="M91 119a4 4 0 0 0 4 4h23a4 4 0 0 0 4-4V95a4 4 0 0 0-4-4H95a4 4 0 0 0-4 4v24z" fill="none" stroke="#fff" stroke-width="10" stroke-miterlimit="10"/><path d="M138 71l-7 7c-2 2-2 5 0 7s5 2 7 0l7-7c2-2 2-5 0-7s-5-2-7 0zm38 31h-34c-6 0-6 10 0 10h34c6 0 6-10 0-10zm-98 41l6-6a5 5 0 0 0-7-7l-6 6c-2 2-2 5 0 7s5 2 7 0zm34 32v-33c0-6-10-6-10 0v34c0 6 10 6 10 0zm48-21l-23-24c-5-4-12 3-7 7l23 24c5 5 12-3 7-7z" fill="#fff"/></svg>