<svg xmlns="http://www.w3.org/2000/svg" width="361" height="361"><g fill="none" stroke="#fff" stroke-width="10" stroke-miterlimit="10"><path d="M267.6 250.3c0 4-2.5 7-5.7 7l-162 .1c-3 0-5.7-3.2-5.7-7V122.7c0-3.9 2.6-7 5.8-7h161.9c3.2 0 5.8 3 5.8 7v127.5zM181 116.6v137.2"/><path d="M267.6 120.2c0 2.5-2.2 4.5-4.9 4.5H99.2c-2.8 0-5-2-5-4.5v-9c0-2.5 2.2-4.5 5-4.5h163.5c2.7 0 5 2 5 4.5v9z"/></g><path d="M94.2 250.3c0 4 2.6 7 5.8 7l161.9.1c3.2 0 5.8-3.2 5.8-7V122.7c0-3.9-2.6-7-5.8-7H100c-3.2 0-5.8 3-5.8 7v127.5z" fill="none" stroke="#fff" stroke-width="10" stroke-miterlimit="10"/><path d="M186.1 181.6H181c-2.8 0-5 2.3-5 5s2.2 5 5 5h5.1c2.7 0 5-2.3 5-5s-2.3-5-5-5z" fill="#fff"/><path fill="none" stroke="#fff" stroke-width="10" stroke-miterlimit="10" d="M181 116.6v137.2M94.2 120.2c0 2.5 2.3 4.5 5 4.5h163.5c2.8 0 5-2 5-4.5v-9c0-2.5-2.2-4.5-5-4.5H99.2c-2.7 0-5 2-5 4.5v9z"/><path d="M267.6 250.3c0 4-2.5 7-5.7 7l-162 .1c-3 0-5.7-3.2-5.7-7V122.7c0-3.9 2.6-7 5.8-7h161.9c3.2 0 5.8 3 5.8 7v127.5z" fill="none" stroke="#fff" stroke-width="10" stroke-miterlimit="10"/><path d="M181 191.6c6.4 0 6.4-10 0-10s-6.5 10 0 10z" fill="#fff"/><path fill="none" stroke="#fff" stroke-width="10" stroke-miterlimit="10" d="M181 116.6v137.2m86.6-133.6c0 2.5-2.2 4.5-4.9 4.5H99.2c-2.8 0-5-2-5-4.5v-9c0-2.5 2.2-4.5 5-4.5h163.5c2.7 0 5 2 5 4.5v9zm-93 131.6c.5 2.9-1.2 5.2-3.8 5.2H97.5c-2.6 0-5-2.3-5.5-5.2L75.5 147.2c-.4-2.9 1.3-5.2 3.9-5.2h73.3c2.6 0 5 2.3 5.5 5.2l16.4 104.6z"/></svg>