<svg xmlns="http://www.w3.org/2000/svg" width="361" height="361"><path d="M179 71v59c0 2 3 2 3 0V71c0-2-3-2-3 0zm0 88v41c0 2 3 2 3 0v-41c0-2-3-2-3 0zm0 72v59c0 2 3 2 3 0v-59c0-2-3-2-3 0zm-8-77l21-4c7-1 4-10-2-9l-21 3c-7 1-4 11 2 10z" fill="#fff"/><path d="M195 149l49-46c5-5-2-12-7-7l-49 46c-5 4 2 12 7 7zm-71 50l49-46c5-5-2-12-7-7l-49 46c-4 4 3 12 7 7z" fill="#fff"/><path d="M120 190l-2 2c-2 2-2 6 0 8a6 6 0 0 0 4 2l4-2 2-2c2-2 2-6 0-8a6 6 0 0 0-4-1l-4 1zm117-94l-2 2a6 6 0 0 0 0 7 6 6 0 0 0 8 0l2-2a6 6 0 0 0 0-7 6 6 0 0 0-8 0zm-66 125l21-4c6-1 4-11-3-10l-21 4c-6 1-3 11 3 10z" fill="#fff"/><path d="M195 216l49-47c5-4-2-11-7-7l-49 47c-5 4 2 11 7 7zm-71 50l49-47c5-4-2-11-7-7l-49 47c-5 4 2 11 7 7z" fill="#fff"/><path d="M119 257l-2 2c-2 2-2 6 0 8a6 6 0 0 0 4 1l4-1 2-2c2-2 2-6 0-8a6 6 0 0 0-4-1l-4 1zm118-95l-2 2a6 6 0 0 0 0 8 6 6 0 0 0 7 0l2-2a6 6 0 0 0 0-8 6 6 0 0 0-7 0z" fill="#fff"/></svg>