<svg xmlns="http://www.w3.org/2000/svg" width="361" height="361"><path d="M238.7 75c3.5 0 6.4 3.2 6.4 7.1V280c0 3.9-2.9 7-6.4 7H124c-3.5 0-6.4-3.1-6.4-7V82.1c0-3.9 2.8-7 6.4-7h114.7z" fill="none" stroke="#fff" stroke-width="10" stroke-miterlimit="10"/><path d="M231.6 84.5c5.1.5 4 5.4 4 8.5v12c0 4.2 1.7 12-5 12h-96.2c-3.5 0-8 0-8-5.2V92.2c0-3-1-7.2 4-7.7h101.2c1.9 0 1.9-3 0-3h-101c-6.6 0-7.2 5.7-7.2 10.7v20.5c0 9.6 13 7.3 19.3 7.3h84.5c2.9 0 6.7.5 9-1.6 4-3.7 2.5-11.3 2.5-16.2 0-7 2.8-19.7-7.1-20.7-2-.2-2 2.8 0 3zm0 121c5.1.5 4 5.3 4 8.4V226c0 4.1 1.7 12-5 12h-96.2c-3.5 0-8-.1-8-5.3v-19.5c0-3-1-7.2 4-7.7h101.2c1.9 0 1.9-3 0-3h-101c-6.6 0-7.2 5.6-7.2 10.7v20.4c0 9.7 13 7.3 19.3 7.3h84.5c2.9 0 6.7.5 9-1.5 4-3.7 2.5-11.3 2.5-16.3 0-7 2.8-19.6-7.1-20.7-2-.2-2 2.8 0 3zm0-40.4c5.1.6 4 5.4 4 8.5v12c0 4.2 1.7 12-5 12h-96.2c-3.5 0-8 0-8-5.2v-19.6c0-3-1-7.2 4-7.7h101.2c1.9 0 1.9-3 0-3h-101c-6.6 0-7.2 5.7-7.2 10.7v20.5c0 9.6 13 7.3 19.3 7.3h84.5c2.9 0 6.7.5 9-1.5 4-3.7 2.5-11.3 2.5-16.3 0-7 2.8-19.6-7.1-20.7-2-.2-2 2.8 0 3zm0-40.3c5.1.5 4 5.4 4 8.5v12c0 4.2 1.7 12-5 12h-96.2c-3.5 0-8 0-8-5.2v-19.6c0-3-1-7.2 4-7.7h101.2c1.9 0 1.9-3 0-3h-101c-6.6 0-7.2 5.7-7.2 10.7V153c0 9.6 13 7.3 19.3 7.3h84.5c2.9 0 6.7.5 9-1.6 4-3.7 2.5-11.3 2.5-16.2 0-7 2.8-19.7-7.1-20.7-2-.2-2 2.8 0 3zm0 121c5.1.5 4 5.3 4 8.4v12.1c0 4.1 1.7 12-5 12h-96.2c-3.5 0-8-.1-8-5.2v-19.7c0-3-1-7.1 4-7.6h101.2c1.9 0 1.9-3 0-3h-101c-6.6 0-7.2 5.6-7.2 10.7v20.4c0 9.7 13 7.3 19.3 7.3h84.5c2.9 0 6.7.5 9-1.5 4-3.7 2.5-11.3 2.5-16.3 0-7 2.8-19.6-7.1-20.7-2-.2-2 2.9 0 3z" fill="#fff"/></svg>