<svg xmlns="http://www.w3.org/2000/svg" width="361" height="361"><path d="M201 252v-1h-14c1 0 1 3 1 0v-21c0 2-2 1-1 1h15c-1 0-1-2-1 1v21c0 4 7 4 7 0v-12c0-4 1-9-1-13-1-5-9-3-13-3-5 0-11-2-13 4v25c2 5 10 4 14 4 5 0 11 1 13-5 1-4-6-6-7-1zm28-1h-14l1 1v-31c0 1-2 1 0 1h13v-1 31c0 4 7 4 7 0v-30c0-7-6-7-11-7-6 0-15-2-16 5v31c0 7 6 7 11 7s14 2 15-5c2-5-5-6-6-2z" fill="#fff"/><path d="M257 251h-14v1-41c0 1-1 1 1 1h13l-1-1v41c0 4 7 4 7 0v-37c0-5 0-10-6-10h-10c-3 0-7-1-9 1-3 3-2 11-2 15v23c0 4-1 12 4 13 6 2 12 1 17 1 3 0 6-2 6-5 1-5-6-7-7-2zm27 0s2 0 0 0h-12c-2 0-1 0-1 1v-54 1h13c2 0 0 0 0-1v54c0 5 7 5 7 0v-53c0-7-6-7-12-7-5 0-15-1-15 6v54c0 6 7 6 11 6 6 0 14 2 16-5 1-4-5-6-7-2zm-82 41l-2-7h-9l-1 6h-7a234 234 0 0 1 5-14l4-13h8a328 328 0 0 1 4 13 242 242 0 0 1 5 15h-7zm-6-22a176 176 0 0 0-2 5l-1 3a92 92 0 0 0-1 3h7l-1-3v-3a116 116 0 0 0-2-5zm27 22l-5-1a9 9 0 0 1-4-2l-2-3a16 16 0 0 1 0-4v-18h7v20l1 2 1 1h5a3 3 0 0 0 1-1l1-2v-20h7v18l-1 4a7 7 0 0 1-2 3l-3 2-6 1zm40-28v5h-9v23h-7v-23h-9v-4h25zm3 14c0-5 1-8 3-11 2-2 5-3 9-3s7 1 9 3c2 3 4 6 4 11s-1 8-4 11a11 11 0 0 1-9 3c-4 0-7-1-9-3-2-3-3-6-3-11zm7 0v4l1 3a5 5 0 0 0 1 2h6a5 5 0 0 0 2-2v-3l1-4-1-4a10 10 0 0 0 0-3 5 5 0 0 0-2-2h-6l-1 2-1 3a33 33 0 0 0 0 4zM138 72v26c0 2 3 2 3 0V72c0-2-3-2-3 0zm0 50v31c0 2 3 2 3 0v-31c0-2-3-2-3 0zm0 56v26c0 2 3 2 3 0v-26c0-2-3-2-3 0zm-10-64l21 1c6 0 6-10 0-10l-21-1c-6 0-6 10 1 10z" fill="#fff"/><path d="M152 114l53-35c5-4 0-12-5-9l-53 35c-6 4-1 12 5 9zm-74 35l53-35c5-4 0-13-5-9l-53 35c-6 4-1 12 5 9z" fill="#fff"/><path d="M76 142l-2 1a4 4 0 0 0-2 5c1 2 3 3 5 2l2-2a4 4 0 0 0 1-5 4 4 0 0 0-4-1zm126-69l-2 1c-1 1-2 3-1 5 1 1 3 2 5 1l2-1c2-1 2-3 1-5s-3-2-5-1z" fill="#fff"/><g fill="#fff"><path d="M128 171h21c6 0 6-10 0-10h-21c-6 0-6 10 0 10z"/><path d="M152 170l53-35c5-3 0-12-5-8l-53 35c-6 3-1 12 5 8zm-74 35l53-35c5-3 0-12-5-9l-53 35c-6 4-1 13 5 9z"/><path d="M76 199l-2 1a4 4 0 0 0-2 5c1 1 3 2 5 1l2-1a4 4 0 0 0 1-5c-1-2-3-2-5-1zm126-70l-2 1c-1 2-2 4-1 5 1 2 3 3 5 2l2-2c1-1 2-3 1-5-1-1-3-2-5-1z"/></g></svg>