<svg xmlns="http://www.w3.org/2000/svg" width="361" height="361"><path d="M179.8 281a6 6 0 0 1-6 6h-93a6.1 6.1 0 0 1-6-6V80.7a6 6 0 0 1 6-6.1h93a6.1 6.1 0 0 1 6 6.1V281z" fill="none" stroke="#fff" stroke-width="10" stroke-miterlimit="10"/><path d="M76.8 185.7h10c6.5 0 6.5-10 0-10h-10c-6.4 0-6.4 10 0 10z" fill="#fff"/><path d="M178.2 280a6 6 0 0 0-6-6H80.8a6 6 0 0 0-6 6v.7a6 6 0 0 0 6 6h91.4a6 6 0 0 0 6-6v-.7z" fill="none" stroke="#fff" stroke-width="10" stroke-miterlimit="10"/><path d="M254.4 110.3h-22.2c-7.7 0-16.2 2.5-16.2 12v24.4c0 7.5-.9 15.8 7.8 18.8l-1.1-1.5v78.6c0 2.1 1.5 4 2.5 5.8.2.5.8.8 1.3.8 2.6 0 4 .2 6.1-1.2 1.8-1.3 5.4-2.8 6.6-4.7 1-1.9.2-6.1.2-8.2 0-2-.3-1 .5-2.4l2-3.8c.6-1.2.7-5.2 0-6.3l-2.3-3.5c-.8-1.3-.7 1.4-.2.4l1-2.1c.6-1.5 3.2-5 2.3-6.8l-3.5-7.4-.2 1.9c2-2.2 7.5-5.6 7.5-9 0-1.8.6-4.8-.3-6.6a10709.3 10709.3 0 0 0-3.5-6.8l-.2 1.8c1.9-2 5.7-4.4 5.8-7.4l.4-13.7-1.5 1.5c7.4 0 15 1.8 18.5-6.4 1.9-4.4.8-10.8.8-15.4 0-11 4.1-31.8-12.1-32.8-2-.1-2 2.9 0 3 7.9.5 9.1 6.8 9.1 13.1v27.7c0 1.9-.6 3.4-1.5 5-2.2 3.8-5.6 2.8-9.1 2.8h-5.7c-.8 0-1.4.7-1.5 1.5l-.4 11.8v2.3c0 .2.8-1-.4.2l-4.5 4.7c-.5.5-.6 1.2-.3 1.8l3 5.9c.6 1 .4 3 .4 5.4 0 1.8.3.4.1.6l-2.6 2.6-4.2 4.2c-.5.5-.5 1.2-.2 1.8l3.5 7.3c-.5-1 .2-1.8-.4-.4l-1.1 2.5-2 4.4c-.4.8 0 1.4.4 2.1.5.7 2 3.4 2 3 0 4.2 0 4.4-2 8.2-1.1 2-.6 4.8-.6 7v2.6c0 1.6-.3.5.6-.1l-4.4 3c-.7.5-3 1.9-2.5 1.9h-2.6c-1.7 0 .5 1.2 0 0l-1.3-2.2c-.3-.5-.5-1.8-.5-.6V164c0-.7-.5-1.2-1.1-1.4-7.5-2.6-5.6-13.2-5.6-19.5v-20.3c0-10 9.5-9.5 16.5-9.5h18.9c2 0 2-3 0-3z" fill="#fff"/><path d="M227.9 165.4v82.3c0 2 3 2 3 0v-82.3c0-1.9-3-1.9-3 0zm7.1-34.1c-.5 4.6-8.4 4-8.4-.6v-5c0-4.6 8.4-4.1 8.4.5v5c0 2 3 2 3 0 0-3.6.7-7.3-2.3-10-4.2-3.8-11.4-1.2-12 4.4-.5 3.5-.5 7.6 2.2 10 4.2 3.9 11.5 1.3 12.1-4.3.2-2-2.8-2-3 0z" fill="#fff"/></svg>