<svg xmlns="http://www.w3.org/2000/svg" width="361" height="361"><path d="M271.6 233.8c-.3 2.1-2.2 1.3-4.2 1.3H93.2c-1.1 0-3.3.5-4.3 0 .3.2-.4 2.1.4-.4a272.6 272.6 0 0 0 5.5-19.6c2.2-9.6 1.8-19.5 2.4-29.2.1-1.2.7-15.4 1.4-15.4H260c2.6 0 2 .2 2.2 3.1 1 11.4.6 23 2 34.4 1.1 9.7 4.2 19.3 7.5 28.4 2.1 6 11.8 3.4 9.6-2.6a175.5 175.5 0 0 1-6.3-21.4c-2-9.2-1.4-19.2-2-28.6-.5-6.3.6-17-5-21.2-2.8-2.2-5.8-2.1-9.1-2.1H98.4c-9.7 0-10 9.9-10.6 17-.7 9.7-.5 19.6-1.6 29.2-1 8.8-4 17.5-6.7 25.8-2.1 6.4 3.2 12.6 9.8 12.6h171c7.6 0 19.5 1.8 20.9-8.7.9-6.3-8.8-9-9.6-2.6zM248.8 75.4c-5.6-9.6-23.6-5.2-32-3.4-22.8 5-44.8 15-65.4 26a245.3 245.3 0 0 0-53.8 37.1c-6 5.7-18 17-13.5 26.5.8 1.8 3.4.3 2.6-1.5-1.8-3.7 1-8.3 3-11.4a77 77 0 0 1 13.7-14.9 255 255 0 0 1 49.5-33.2 275.9 275.9 0 0 1 59.4-24.4 89.5 89.5 0 0 1 21.8-3.4c4 0 9.8.2 12 4.1 1 1.7 3.6.2 2.7-1.5z" fill="#fff"/><path d="M87 169.2L219.4 100l33.4-17.5c5.7-3 .6-11.6-5-8.6a5512720.8 5512720.8 0 0 0-132.5 69.2L82 160.6c-5.7 3-.6 11.6 5.1 8.6z" fill="#fff"/><path d="M79.7 166.2l2.5 12.3c.5 2.6 3.6 4.1 6.1 3.4 2.8-.7 4-3.4 3.5-6.1l-2.5-12.3c-.5-2.6-3.7-4.1-6.1-3.5-2.8.8-4 3.5-3.5 6.2zm167-84.4l8.7 9c4.4 4.7 11.4-2.4 7-7l-8.6-9.1c-4.5-4.7-11.5 2.4-7 7zM80.4 223.5c-.1 4.5-1.6 13.8-7.6 14.1-4.4.2-4.5 7.3 0 7 10.5-.5 14.4-12.2 14.6-21 0-4.6-7-4.6-7 0zm193.2.2c.2 8.8 4.1 20.6 14.6 21 4.5.3 4.5-6.7 0-7-6-.2-7.5-9.5-7.6-14 0-4.5-7-4.5-7 0z" fill="#fff"/><path d="M83.9 227H277c4.5 0 4.5-7 0-7H84c-4.5 0-4.5 7 0 7zm-11 19.1h215.3c4.5 0 4.5-7 0-7H72.8c-4.5 0-4.5 7 0 7zM245.7 85.6l5.5 75.4c.1 2 3.1 2 3 0l-5.5-75.4c-.2-2-3.2-2-3 0z" fill="#fff"/></svg>