<svg xmlns="http://www.w3.org/2000/svg" width="361" height="361"><path d="M131.9 264.8a126 126 0 0 1 105.5-81c6.4-.6 6.4-10.6 0-10a136.5 136.5 0 0 0-115.2 88.4c-2.2 6 7.4 8.6 9.7 2.6z" fill="#fff"/><path d="M123.6 259.9l-1 2.4c-.5 1.2 0 3 .6 4.1a5.5 5.5 0 0 0 3.2 2.6 5.5 5.5 0 0 0 4.2-.6l1.2-.8a5.5 5.5 0 0 0 1.3-2.4l1-2.4c.5-1.3.1-3-.6-4.2a5.5 5.5 0 0 0-3.2-2.5 5.5 5.5 0 0 0-4.2.5l-1.1.9a5.5 5.5 0 0 0-1.4 2.4zm112.3-85.6l-2.5.5a5.3 5.3 0 0 0-3.3 2.5 5.5 5.5 0 0 0-.5 4.2 5.5 5.5 0 0 0 2.5 3.3 6 6 0 0 0 4.2.5l2.5-.5a5.3 5.3 0 0 0 3.3-2.5 5.5 5.5 0 0 0 .5-4.2 5.5 5.5 0 0 0-2.5-3.2 5.7 5.7 0 0 0-4.2-.6zm-105.3 10.3a126 126 0 0 1 105.6-81c6.4-.6 6.4-10.6 0-10A136.5 136.5 0 0 0 121 181.9c-2.3 6 7.4 8.7 9.7 2.7z" fill="#fff"/><path d="M122.4 179.6l-1 2.4c-.5 1.3-.1 3 .6 4.2a5.5 5.5 0 0 0 3.2 2.5 5.5 5.5 0 0 0 4.2-.5l1.1-.9a5.5 5.5 0 0 0 1.4-2.4l1-2.4c.5-1.3.1-3-.6-4.2a5.5 5.5 0 0 0-3.2-2.5 5.5 5.5 0 0 0-4.2.6l-1.1.8a5.5 5.5 0 0 0-1.4 2.4zm112.3-85.5l-2.5.5a5.3 5.3 0 0 0-3.3 2.5 5.5 5.5 0 0 0-.5 4.2 5.5 5.5 0 0 0 2.5 3.2c1.3.8 2.7.9 4.2.6l2.5-.5a5.3 5.3 0 0 0 3.3-2.5 5.5 5.5 0 0 0 .5-4.2 5.5 5.5 0 0 0-2.5-3.3 5.7 5.7 0 0 0-4.2-.5zm-55.9-22.4v16.2c0 2 3 2 3 0V71.7c0-2-3-2-3 0zm.2 71.3v22.8c0 2 3 2 3 0V143c0-2-3-2-3 0zm0 75v71.7c0 2 3 2 3 0V218c0-2-3-2-3 0z" fill="#fff"/><path d="M179 134v22.8c0 2 3 2 3 0V134c0-2-3-2-3 0z" fill="#fff"/></svg>