<svg xmlns="http://www.w3.org/2000/svg" width="361" height="361"><path d="M178.8 70.7v42.6c0 2 3 2 3 0V70.7c0-2-3-2-3 0zm.2 83.3v50.8c0 2 3 2 3 0V154c0-2-3-2-3 0zm0 93.3v42.4c0 1.9 3 1.9 3 0v-42.4c0-1.9-3-1.9-3 0zm-15.8-16.5l33.3.4c6.5 0 6.5-10 0-10l-33.3-.4c-6.5 0-6.5 10 0 10z" fill="#fff"/><path d="M200 230.5l88.3-58.2c5.3-3.5.3-12.2-5-8.6L195 222c-5.4 3.5-.4 12.2 5 8.6zM77.4 288.3l88.3-58.2c5.3-3.5.3-12.1-5-8.6l-88.3 58.2c-5.4 3.5-.4 12.2 5 8.6z" fill="#fff"/><path d="M76.9 278.2l-3.4 2.1a5.5 5.5 0 0 0-2 7.5c1.5 2.5 5 3.5 7.5 2l3.4-2.2a5.5 5.5 0 0 0 2-7.5 5.6 5.6 0 0 0-7.5-2zM283 164l-3.3 2.2a5.7 5.7 0 0 0-2.5 3.2 5.5 5.5 0 0 0 .5 4.2c1.4 2.5 5 3.7 7.5 2l3.3-2.2a5.7 5.7 0 0 0 2.5-3.3 5.5 5.5 0 0 0-.5-4.2c-1.5-2.4-5-3.6-7.5-2z" fill="#fff"/><g fill="#fff"><path d="M163.5 138l33.3.3c6.5 0 6.5-10 0-10l-33.3-.4c-6.5 0-6.5 10 0 10z"/><path d="M200.4 137.6l88.2-58.2c5.4-3.5.4-12.2-5-8.6L195.3 129c-5.3 3.5-.3 12.2 5 8.6zM77.8 195.4l88.2-58.2c5.4-3.5.4-12.2-5-8.6l-88.3 58.2c-5.3 3.5-.3 12.2 5 8.6z"/><path d="M77.2 185.3l-3.4 2.1a5.5 5.5 0 0 0-2 7.5c1.5 2.5 5 3.5 7.5 2l3.4-2.2a5.5 5.5 0 0 0 2-7.5 5.6 5.6 0 0 0-7.5-2zM283.3 71l-3.3 2.3a5.7 5.7 0 0 0-2.5 3.2 5.5 5.5 0 0 0 .5 4.2c1.5 2.5 5 3.7 7.5 2l3.3-2.2a5.7 5.7 0 0 0 2.5-3.3 5.5 5.5 0 0 0-.5-4.2c-1.4-2.4-5-3.6-7.5-2z"/></g></svg>