<svg xmlns="http://www.w3.org/2000/svg" width="361" height="361"><path d="M223 282h-69l1 10 17-4 12-2h4c2-1 2 0-1-1l35 7c6 1 9-9 2-10l-35-7-6 1-12 2-19 4c-5 1-4 10 2 10h69c6 0 6-10 0-10zM170 84l-37 130c-2 6 8 9 10 3l37-130c2-7-8-9-10-3z" fill="#fff"/><path d="M195 280a7083649 7083649 0 0 0-25-148c-1-6-11-3-10 3l24 143 1 5c1 6 11 4 10-3z" fill="#fff"/><path d="M146 193l23-38c1-2-1-3-2-2l-24 38c-1 2 2 3 3 2zm27-100l28 111c2 5 8 3 7-2L180 91c-1-4-8-3-7 2z" fill="#fff"/><path d="M174 92l41 108c2 4 8 2 7-2L181 91c-2-5-8-3-7 1z" fill="#fff"/><path d="M173 92l14 113c0 5 7 5 7 0L180 92c0-5-7-5-7 0z" fill="#fff"/><path d="M174 93l55 102c2 4 9 1 6-3a5082500 5082500 0 0 1-55-102c-2-4-8-1-6 3z" fill="#fff"/><path d="M191 207c8 0 17-3 25-5 5-2 13-4 17-9 3-3-2-8-5-5-3 4-9 6-14 7a77 77 0 0 1-23 5c-5 0-5 7 0 7z" fill="#fff"/></svg>