<svg xmlns="http://www.w3.org/2000/svg" width="361" height="361"><path d="M268 263a7 7 0 0 1-7 7H103a7 7 0 0 1-7-7V106a7 7 0 0 1 7-7h158a7 7 0 0 1 7 7v157z" fill="none" stroke="#fff" stroke-width="10" stroke-miterlimit="10"/><path d="M229 206h6c3 0 5-3 5-5s-2-5-5-5h-7c-2 0-4 2-4 5s2 5 5 5z" fill="#fff"/><path d="M268 103c0 3-3 5-6 5H102c-3 0-6-2-6-5v-9c0-2 3-4 6-4h160c3 0 6 2 6 4v9z" fill="none" stroke="#fff" stroke-width="10" stroke-miterlimit="10"/><path d="M233 281c0 3-19-1-21-1l-45-6-45-6-15-2c-1 0-6 0-6-2V114c0-2 5-1 6-1l36 5 83 11c2 0 7 0 7 2v150c0 6 10 6 10 0V131c0-7-6-10-13-11l-28-4-89-12-10-1c-6-1-12 5-12 11v151c1 7 7 10 13 11l77 10 40 5 9 1c7 1 12-4 13-11 1-6-9-6-10 0z" fill="#fff"/></svg>