<svg xmlns="http://www.w3.org/2000/svg" width="361" height="361"><path d="M209 134v30c0 2 3 2 3 0v-30c0-2-3-2-3 0zm0 59v36c0 2 3 2 3 0v-36c0-2-3-2-3 0zm0 67v30c0 2 3 2 3 0v-31c0-1-3-1-3 1z" fill="#fff"/><path d="M140 222a141 141 0 0 1 145-37c7 2 9-7 3-9a151 151 0 0 0-155 38c-4 5 3 12 7 8z" fill="#fff"/><path d="M137 216l-2 2a4 4 0 0 0 0 5 4 4 0 0 0 5 0l2-2a4 4 0 0 0 0-5 4 4 0 0 0-5 0zm150-36l-2-1c-2 0-4 1-5 3 0 1 1 4 3 4l2 1c2 0 4-1 5-3 0-2-1-4-3-4z" fill="#fff"/><g fill="#fff"><path d="M140 289a141 141 0 0 1 145-37c7 2 9-8 3-10a151 151 0 0 0-155 39c-4 5 3 12 7 7z"/><path d="M137 283l-2 2a4 4 0 0 0 0 5 4 4 0 0 0 5 0l2-2a4 4 0 0 0 0-5 4 4 0 0 0-5 0zm150-36l-2-1c-2 0-4 1-5 3l3 4 2 1c2 0 4-1 5-3 0-2-1-4-3-4z"/></g><path d="M91 119a4 4 0 0 0 4 4h23a4 4 0 0 0 4-4V95a4 4 0 0 0-4-4H95a4 4 0 0 0-4 4v24z" fill="none" stroke="#fff" stroke-width="10" stroke-miterlimit="10"/><path d="M138 71l-7 7c-2 2-2 5 0 7s5 2 7 0l7-7c2-2 2-5 0-7s-5-2-7 0zm38 31h-34c-6 0-6 10 0 10h34c6 0 6-10 0-10zm-98 41l6-6a5 5 0 0 0-7-7l-6 6c-2 2-2 5 0 7s5 2 7 0zm34 32v-33c0-6-10-6-10 0v34c0 6 10 6 10 0zm48-21l-23-24c-5-4-12 3-7 7l23 24c5 5 12-3 7-7z" fill="#fff"/></svg>