<svg xmlns="http://www.w3.org/2000/svg" width="361" height="361"><path d="M90.7 119a4 4 0 0 0 4 4h23.4a4 4 0 0 0 4.1-4V95.6a4 4 0 0 0-4-4H94.7a4 4 0 0 0-4 4V119z" fill="none" stroke="#fff" stroke-width="10" stroke-miterlimit="10"/><path d="M137.8 71.1l-7.2 7.3c-2 1.9-2 5 0 7s5.1 2 7 0l7.3-7.2c1.9-2 1.9-5.1 0-7s-5.2-2-7.1 0zm37.9 31h-33.5c-6.4 0-6.4 10 0 10h33.5c6.5 0 6.5-10 0-10zm-97.3 41.6l6-6c1.9-1.9 1.9-5.1 0-7s-5.2-2-7.1 0l-6 6c-2 1.9-2 5 0 7s5.2 2 7 0zm33.6 32.1v-33.5c0-6.5-10-6.5-10 0v33.5c0 6.4 10 6.4 10 0zm48.4-21.5l-23.8-23.6c-4.5-4.6-11.6 2.5-7 7l23.7 23.7c4.5 4.6 11.6-2.5 7-7zm50-20.6v30.2c0 2 3 2 3 0v-30.2c0-2-3-2-3 0zm.2 59v36.1c0 2 3 2 3 0v-36c0-2-3-2-3 0zm0 66.3v30c0 2 3 2 3 0v-30c0-2-3-2-3 0zm-11.5-76.2l23.6.3c6.4 0 6.4-10 0-10l-23.7-.3c-6.4 0-6.4 10 0 10z" fill="#fff"/><path d="M226 182.4l62.5-41.3c5.4-3.5.4-12.2-5-8.6l-62.6 41.3c-5.4 3.5-.4 12.2 5 8.6zm-87 41l62.6-41.3c5.3-3.5.3-12.2-5-8.6l-62.7 41.3c-5.3 3.5-.3 12.1 5 8.6z" fill="#fff"/><path d="M137 217l-2.3 1.5a3.5 3.5 0 0 0-1.3 4.8c1 1.6 3.2 2.3 4.8 1.3l2.4-1.5a3.5 3.5 0 0 0 1.3-4.8c-1-1.6-3.2-2.3-4.8-1.3zm149.2-81.7L284 137c-1.6 1-2.3 3-1.3 4.8 1 1.6 3.2 2.3 4.8 1.3l2.4-1.6c1.5-1 2.2-3.1 1.2-4.8-1-1.6-3.2-2.3-4.8-1.3z" fill="#fff"/><g fill="#fff"><path d="M199 249.2l23.6.3c6.4 0 6.4-10 0-10l-23.7-.3c-6.4 0-6.4 10 0 10z"/><path d="M225.8 248.8l62.6-41.2c5.4-3.6.4-12.2-5-8.7l-62.6 41.3c-5.4 3.5-.4 12.2 5 8.6zm-87 41l62.7-41.2c5.3-3.6.3-12.2-5.1-8.7l-62.6 41.3c-5.4 3.5-.3 12.2 5 8.6z"/><path d="M137 283.4l-2.4 1.6a3.5 3.5 0 0 0-1.3 4.7c1 1.7 3.2 2.3 4.8 1.3l2.4-1.5a3.5 3.5 0 0 0 1.3-4.8c-1-1.6-3.2-2.3-4.8-1.3zm149-81.7l-2.4 1.6c-1.5 1-2.2 3-1.2 4.8 1 1.6 3.2 2.3 4.8 1.3l2.3-1.6c1.6-1 2.3-3 1.3-4.8-1-1.6-3.2-2.3-4.8-1.3z"/></g></svg>