<svg xmlns="http://www.w3.org/2000/svg" width="361" height="361"><path d="M144.6 196.8a126 126 0 0 1 79.1-107c6-2.3 3.4-12-2.7-9.6a136.5 136.5 0 0 0-86.4 116.6c-.5 6.5 9.5 6.4 10 0z" fill="#fff"/><path d="M135.3 194.3l-.2 2.5c-.2 1.4.6 3 1.6 3.9a5.5 5.5 0 0 0 7.7 0 5.8 5.8 0 0 0 1.6-3.9l.2-2.6c.2-1.3-.6-2.9-1.6-3.8a5.5 5.5 0 0 0-7.7 0 5.8 5.8 0 0 0-1.6 3.9zM219.8 81l-2.3 1.2c-2.6 1.4-3.4 5-2 7.5a5.5 5.5 0 0 0 3.3 2.5c1.5.4 2.9.1 4.2-.6l2.3-1.1c2.6-1.4 3.4-5 2-7.5a5.5 5.5 0 0 0-3.3-2.5 5.7 5.7 0 0 0-4.2.5zm-74 196A126 126 0 0 1 225 170c6-2.3 3.4-12-2.6-9.6a136.5 136.5 0 0 0-86.5 116.7c-.5 6.4 9.5 6.4 10 0z" fill="#fff"/><path d="M136.5 274.5l-.2 2.5c-.2 1.4.6 3 1.6 3.9a5.5 5.5 0 0 0 7.7 0 5.8 5.8 0 0 0 1.6-3.9l.2-2.5c.2-1.4-.6-3-1.6-3.9a5.5 5.5 0 0 0-7.7 0 5.8 5.8 0 0 0-1.6 3.9zM221 161.3l-2.3 1.1c-2.6 1.4-3.4 5-2 7.5a5.5 5.5 0 0 0 3.3 2.5 6 6 0 0 0 4.2-.5l2.3-1.2c2.6-1.4 3.4-5 2-7.5a5.5 5.5 0 0 0-3.3-2.5 5.7 5.7 0 0 0-4.2.6zm-42.2-89.6v16.2c0 2 3 2 3 0V71.7c0-2-3-2-3 0zm.2 71.3v22.8c0 2 3 2 3 0V143c0-2-3-2-3 0zm0 75v71.7c0 1.9 3 1.9 3 0V218c0-2-3-2-3 0z" fill="#fff"/><path d="M179 134v22.8c0 2 3 2 3 0V134c0-2-3-2-3 0z" fill="#fff"/></svg>