<svg xmlns="http://www.w3.org/2000/svg" width="361" height="361"><path d="M202 246c-2 4-6 7-10 7h-91c-3 0-5-3-3-7l60-128c1-3 6-6 9-6h91c4 0 5 3 4 6l-60 128z" fill="none" stroke="#fff" stroke-width="10" stroke-miterlimit="10"/><path d="M146 240l-3 7c-1 2 0 5 2 6 2 2 6 1 7-1l3-7c1-2 1-5-2-6-2-2-6-1-7 1z" fill="#fff"/><path d="M208 264c-2 5-8 8-12 8H80c-5 0-6-3-4-8l78-167c2-4 7-8 11-8h116c5 0 7 4 5 8l-78 167z" fill="none" stroke="#fff" stroke-width="10" stroke-miterlimit="10"/><path fill="#fff" d="M278 104H150l9-17h128zM76 263h128v6H76zm168-142h-75c-6 0-6 10 0 10h75c7 0 7-10 0-10zm-6 12h-75c-6 0-6 10 0 10h75c7 0 7-10 0-10zm-6 13h-75c-7 0-7 10 0 10h75c7 0 7-10 0-10zm-6 12h-75c-7 0-7 10 0 10h75c7 0 7-10 0-10zm-5 13h-75c-7 0-7 10 0 10h75c6 0 6-10 0-10zm-6 12h-75c-7 0-7 10 0 10h75c6 0 6-10 0-10zm-6 13h-76c-6 0-6 10 1 10h75c6 0 6-10 0-10zm-6 13h-76c-6 0-6 10 0 10h76c6 0 6-10 0-10z"/></svg>