<svg xmlns="http://www.w3.org/2000/svg" width="361" height="361"><path d="M178.8 70.7v42.6c0 2 3 2 3 0V70.7c0-2-3-2-3 0zm.2 83.4v40.6c0 2 3 2 3 0v-40.6c0-2-3-2-3 0zm0 83.2v52.4c0 1.9 3 1.9 3 0v-52.4c0-1.9-3-1.9-3 0z" fill="#fff"/><path d="M121 248.6c11-12 21.5-23.6 36.4-30.6 9.2-4.3 19.3-5.9 29.3-7.3 10-1.3 19.3-3.9 28.5-7.8a73.6 73.6 0 0 0 27.3-20.7l2.5-3 .8-.9c-2.3 2-6.5.2-7-1.7 2 7.9 2.1 20.4 12.5 21.4 6.4.7 6.3-9.3 0-10 1 .5 1.1.3.4-.6-.5-1.2-.8-2.5-1.2-3.8l-1.7-8c-.5-2-1-4.4-3.2-5.5-3.5-1.9-6.4.4-8.5 3a72.5 72.5 0 0 1-24.8 20.2 91.5 91.5 0 0 1-28.6 7.8 110.4 110.4 0 0 0-31.4 8.3c-15.6 7-27 19.7-38.4 32-4.3 4.8 2.7 12 7.1 7.1z" fill="#fff"/><path d="M116.1 239.8l-1.8 1.9a5.5 5.5 0 0 0 0 7.7 5.5 5.5 0 0 0 7.7 0l1.8-1.8a5.5 5.5 0 0 0 0-7.8 5.5 5.5 0 0 0-7.7 0zm135.2-50.3h-2.6a4.2 4.2 0 0 0-4.2 4.2c0 2.3 2 4.2 4.2 4.2h2.6a4.2 4.2 0 0 0 4.2-4.2c0-2.3-2-4.2-4.2-4.2z" fill="#fff"/><g fill="#fff"><path d="M120.8 177c10.9-11.9 21.4-23.6 36.3-30.5a102 102 0 0 1 29.4-7.3c9.9-1.4 19.3-3.9 28.4-7.8a73.6 73.6 0 0 0 27.4-20.7l2.4-3 .9-1c-2.3 2.1-6.6.3-7-1.6 2 7.8 2 20.4 12.4 21.4 6.5.7 6.4-9.4 0-10 1 .5 1.2.3.4-.6-.5-1.2-.8-2.6-1.1-3.9-.7-2.6-1.2-5.2-1.7-7.9-.5-2.1-1.1-4.4-3.2-5.5-3.5-1.9-6.5.4-8.6 3a72.5 72.5 0 0 1-24.8 20.1 91.5 91.5 0 0 1-28.5 7.9c-11 1.3-21.4 3.8-31.4 8.3-15.7 7-27 19.7-38.4 32-4.4 4.8 2.7 11.9 7 7.1z"/><path d="M115.9 168.3l-1.8 1.9a5.5 5.5 0 0 0 0 7.7 5.5 5.5 0 0 0 7.7 0l1.8-1.9a5.5 5.5 0 0 0 0-7.7 5.5 5.5 0 0 0-7.7 0zM251 118h-2.5a4.2 4.2 0 0 0-4.2 4.1c0 2.3 1.9 4.2 4.2 4.2h2.5a4.2 4.2 0 0 0 4.2-4.1c0-2.3-1.9-4.2-4.2-4.2z"/></g></svg>