<svg xmlns="http://www.w3.org/2000/svg" width="361" height="361"><path d="M238.8 188a5.3 5.3 0 0 1-5.3 5.3H85.6a5.3 5.3 0 0 1-5.2-5.3V93a5.3 5.3 0 0 1 5.2-5.3h147.9a5.3 5.3 0 0 1 5.2 5.2v95z" fill="none" stroke="#fff" stroke-width="10" stroke-miterlimit="10"/><path d="M155.1 145.3h9.4c6.5 0 6.5-10 0-10h-9.4c-6.4 0-6.4 10 0 10z" fill="#fff"/><path fill="none" stroke="#fff" stroke-width="10" stroke-miterlimit="10" d="M159.7 88v102.7"/><path d="M244.5 88.8c0 .4-2.6.7-5.7.7H80.5c-3 0-5.6-.3-5.6-.7V75.5c0-.4 2.5-.7 5.6-.7h158.3c3.1 0 5.7.3 5.7.7v13.3z" fill="#fff" stroke="#fff" stroke-width="10" stroke-miterlimit="10"/><path d="M75.2 103.2h169.4c4.5 0 4.5-7 0-7H75.2c-4.6 0-4.6 7 0 7zm0 10.4h169.4c4.5 0 4.5-7 0-7H75.2c-4.6 0-4.6 7 0 7z" fill="#fff"/><path d="M221 233.8c-1.5 0-2.7-.4-2.7-.9v-14.3c0-.5 1.2-.8 2.7-.8h51.7c1.4 0 2.6.3 2.6.8v14.3c0 .5-1.2.9-2.6.9H221z" fill="none" stroke="#fff" stroke-width="10" stroke-miterlimit="10"/><path d="M282.3 231.6L242.2 284h8.6l-40.1-52.5-4.3 7.5h80.2c6.5 0 6.5-10 0-10h-80.2c-3.5 0-6.7 4.4-4.4 7.5l40.2 52.5c2.4 3.2 6.2 3.2 8.6 0l40.1-52.5c4-5-4.7-10-8.6-5z" fill="#fff"/></svg>