<svg xmlns="http://www.w3.org/2000/svg" width="361" height="361"><path d="M138.3 272.1a126.3 126.3 0 0 1 94-95.8c6.3-1.4 3.6-11-2.7-9.6a136.2 136.2 0 0 0-101 102.7c-1.3 6.3 8.3 9 9.7 2.7z" fill="#fff"/><path d="M129.7 266.9l-.6 2.5c-.7 2.9.9 5.9 3.8 6.7 2.8.8 6-1 6.7-3.8l.6-2.5c.7-2.9-.9-5.9-3.8-6.7-2.8-.8-6 1-6.7 3.8zm99.9-99.9l-2.5.9a5.7 5.7 0 0 0-3.2 2.5 5.5 5.5 0 0 0-.6 4.2 5.5 5.5 0 0 0 2.5 3.2c1.2.7 3 1 4.2.6l2.5-.8a5.7 5.7 0 0 0 3.2-2.6 5.5 5.5 0 0 0 .6-4.2 5.5 5.5 0 0 0-2.5-3.2 5.3 5.3 0 0 0-4.2-.6zM137 192a126.3 126.3 0 0 1 94-96c6.3-1.5 3.6-11.1-2.7-9.6a136.2 136.2 0 0 0-101 102.7c-1.4 6.3 8.3 9 9.7 2.7z" fill="#fff"/><path d="M128.5 186.7l-.6 2.5c-.7 2.8.8 5.9 3.8 6.7 2.8.7 6-1 6.7-3.8l.6-2.5c.7-3-.9-6-3.8-6.7-2.8-.8-6 .9-6.7 3.8zm99.9-99.9l-2.5.8a5.7 5.7 0 0 0-3.2 2.5 5.5 5.5 0 0 0-.6 4.2 5.5 5.5 0 0 0 2.5 3.3c1.2.7 2.9 1 4.2.5l2.5-.8a5.7 5.7 0 0 0 3.2-2.5 5.5 5.5 0 0 0 .6-4.2 5.5 5.5 0 0 0-2.5-3.3 5.3 5.3 0 0 0-4.2-.5zm-49.6-15.1v16.2c0 2 3 2 3 0V71.7c0-2-3-2-3 0zm.2 71.3v22.8c0 2 3 2 3 0V143c0-2-3-2-3 0zm0 75v71.7c0 1.9 3 1.9 3 0V218c0-2-3-2-3 0z" fill="#fff"/><path d="M179 134v22.8c0 2 3 2 3 0V134c0-2-3-2-3 0z" fill="#fff"/></svg>