<svg xmlns="http://www.w3.org/2000/svg" width="361" height="361"><path d="M179 71v42c0 2 3 2 3 0V71c0-2-3-2-3 0zm0 83v41c0 2 3 2 3 0v-41c0-2-3-2-3 0zm0 83v53c0 2 3 2 3 0v-53c0-2-3-2-3 0z" fill="#fff"/><path d="M146 275c4-15 8-30 17-43 12-16 31-25 44-40a75 75 0 0 0 15-33l1-3v-2c0 3-6 3-7 2 5 5 12 17 20 14 6-3 4-12-2-10-3 1-9-12-15-13-4 0-5 4-6 7a71 71 0 0 1-13 31c-7 8-15 15-24 21a100 100 0 0 0-22 21c-10 13-13 30-18 45-1 7 8 9 10 3z" fill="#fff"/><path d="M138 270l-1 2a6 6 0 0 0 4 7c3 1 6-1 6-4l1-2a6 6 0 0 0-4-7 6 6 0 0 0-6 4zm95-108l-2 1c-2 1-3 4-2 6a4 4 0 0 0 6 1l2-1c2-1 3-4 2-6a4 4 0 0 0-6-1z" fill="#fff"/><g fill="#fff"><path d="M146 203c4-15 7-29 17-42 11-17 31-25 43-41 8-9 13-20 16-32l1-4v-1c-1 2-6 3-7 2 5 5 11 17 20 13 6-2 3-12-3-9-3 1-9-13-14-13-4 0-5 3-6 6a71 71 0 0 1-14 31c-6 9-15 15-23 21a100 100 0 0 0-22 22c-10 13-14 29-18 45-1 6 8 9 10 2z"/><path d="M137 198v3a6 6 0 0 0 3 6c3 1 6-1 7-3l1-3a6 6 0 0 0-4-7 6 6 0 0 0-7 4zm96-108l-2 1c-2 1-3 4-2 6a4 4 0 0 0 6 2l2-2c2-1 3-3 2-5a4 4 0 0 0-6-2z"/></g></svg>