<svg xmlns="http://www.w3.org/2000/svg" width="361" height="361"><path d="M179 71v42c0 2 3 2 3 0V71c0-2-3-2-3 0zm0 83v51c0 2 3 2 3 0v-51c0-2-3-2-3 0zm0 93v43c0 2 3 2 3 0v-43c0-2-3-2-3 0z" fill="#fff"/><g fill="#fff"><path d="M79 195a200 200 0 0 1 206-51c7 2 9-8 3-10a210 210 0 0 0-216 54c-4 5 3 12 7 7z"/><path d="M76 186l-3 3a6 6 0 0 0 0 8 6 6 0 0 0 8 0l3-3a6 6 0 0 0 0-8 6 6 0 0 0-8 0zm212-51l-4-1c-3-1-6 1-7 4s1 6 4 7h4c3 1 6 0 6-3 1-3-1-6-3-7z"/></g><g fill="#fff"><path d="M79 289a200 200 0 0 1 206-51c7 2 9-8 3-10a210 210 0 0 0-216 54c-4 5 3 12 7 7z"/><path d="M76 280l-3 3a6 6 0 0 0 0 8 6 6 0 0 0 8 0l3-3a6 6 0 0 0 0-8 6 6 0 0 0-8 0zm212-51l-4-1c-3-1-6 1-7 4s1 6 4 7h4c3 1 6 0 6-3 1-3-1-6-3-7z"/></g></svg>