<svg xmlns="http://www.w3.org/2000/svg" width="361" height="361"><path d="M139.8 166A126.3 126.3 0 0 1 210 280.1c0 6.5 10 6.5 10 0 .6-51.7-28.8-99.9-75.1-123-5.8-2.8-10.9 5.8-5 8.7z" fill="#fff"/><path d="M147 159l-2.2-1.3a5.6 5.6 0 0 0-4.2-.5 5.5 5.5 0 0 0-3.3 2.5c-1.4 2.5-.6 6 2 7.5l2.3 1.1c1.3.7 2.7 1 4.2.6a5.5 5.5 0 0 0 3.2-2.5c1.5-2.5.7-6.1-2-7.5zm72.7 121l-.2-2.5a5.8 5.8 0 0 0-1.6-3.8 5.5 5.5 0 0 0-7.7 0 5.3 5.3 0 0 0-1.6 3.8l.2 2.6c.2 1.5.5 2.8 1.6 3.8a5.5 5.5 0 0 0 7.7 0 5.3 5.3 0 0 0 1.6-3.8zM178.8 71.8V88c0 2 3 2 3 0V71.7c0-2-3-2-3 0zm.2 71.3v22.8c0 2 3 2 3 0V143c0-2-3-2-3 0zm0 75v71.7c0 1.9 3 1.9 3 0V218c0-2-3-2-3 0z" fill="#fff"/><path d="M179 134v22.8c0 2 3 2 3 0V134c0-2-3-2-3 0z" fill="#fff"/><g fill="#fff"><path d="M138.6 85.7A126.3 126.3 0 0 1 208.8 200c0 6.4 10 6.4 10 0 .6-51.8-28.8-99.9-75.1-123-5.8-2.8-10.9 5.8-5 8.7z"/><path d="M145.9 78.7l-2.3-1.2a5.6 5.6 0 0 0-4.2-.6 5.5 5.5 0 0 0-3.3 2.5c-1.4 2.5-.6 6.1 2 7.5l2.3 1.2c1.3.7 2.7 1 4.2.5a5.5 5.5 0 0 0 3.2-2.5c1.5-2.4.7-6-2-7.4zm72.6 121.2l-.2-2.6a5.8 5.8 0 0 0-1.6-3.9 5.5 5.5 0 0 0-7.7 0 5.3 5.3 0 0 0-1.6 3.9l.2 2.5c.2 1.6.5 2.8 1.6 4a5.5 5.5 0 0 0 7.7 0 5.3 5.3 0 0 0 1.6-4z"/></g></svg>