<svg xmlns="http://www.w3.org/2000/svg" width="361" height="361"><path d="M268 252c0 3-2 6-4 7l-49 22c-3 0-4-2-4-5V154c0-3 1-6 4-7l49-22c2 0 4 2 4 5v122z" fill="none" stroke="#fff" stroke-width="10" stroke-miterlimit="10"/><path d="M212 220l5-1a5 5 0 0 0 4-6 5 5 0 0 0-7-4l-4 1a5 5 0 0 0-4 7 5 5 0 0 0 6 3z" fill="#fff"/><g fill="none" stroke="#fff" stroke-width="10" stroke-miterlimit="10"><path d="M268 250c0 4-3 7-6 7H100c-3 0-6-3-6-7V123c0-4 3-7 6-7h162c3 0 6 3 6 7v127zm-87-133v137"/><path d="M268 120c0 3-3 5-5 5H99c-3 0-5-2-5-5v-9c0-2 2-4 5-4h164c2 0 5 2 5 4v9z"/></g><path d="M94 252c0 3 2 6 4 7l49 22c3 0 4-2 4-5V154c0-3-1-6-4-7l-49-22c-2 0-4 2-4 5v122z" fill="none" stroke="#fff" stroke-width="10" stroke-miterlimit="10"/><path d="M152 210l-5-1a5 5 0 0 0-6 4 5 5 0 0 0 4 6l4 1a5 5 0 0 0 7-3 5 5 0 0 0-4-7z" fill="#fff"/></svg>