<svg xmlns="http://www.w3.org/2000/svg" width="361" height="361"><path d="M179 71v42c0 2 3 2 3 0V71c0-2-3-2-3 0zm0 83v41c0 2 3 2 3 0v-41c0-2-3-2-3 0zm0 83v53c0 2 3 2 3 0v-53c0-2-3-2-3 0zm-62 3c12-10 24-20 40-25 10-3 20-4 31-4a103 103 0 0 0 29-4 76 76 0 0 0 29-18l3-3c1-1-1 1 0 0l-2 1c-5 0-5-5-4-3 1 7-1 20 9 22 6 2 9-8 2-10a17 17 0 0 1-1-3v-8c-1-3-1-6-3-7-3-3-7 0-9 2a71 71 0 0 1-27 17c-20 6-41 2-61 8-17 6-30 17-43 28-5 4 2 11 7 7z" fill="#fff"/><path d="M113 232l-2 1-2 4 2 4a6 6 0 0 0 3 2l2-1a6 6 0 0 0 2-1l2-2a6 6 0 0 0 0-7 6 6 0 0 0-4-2h-1a5 5 0 0 0-3 2zm140-34l-3-1a5 5 0 0 0-3 2 4 4 0 0 0 0 6h1l2 1h3l3-1a4 4 0 0 0 0-6 629 629 0 0 0-1-1 4 4 0 0 0-2 0z" fill="#fff"/><g fill="#fff"><path d="M117 169c12-11 24-21 40-26 10-3 20-3 30-4 10 0 20-1 29-4a76 76 0 0 0 30-17l3-3c1-1-1 0 0 0h-2c-5 1-5-5-5-3 2 8 0 20 9 23 7 1 9-9 3-10 0 1 0 1 0 0a17 17 0 0 1-1-4l-1-8c0-3 0-5-3-7s-6 0-8 3a71 71 0 0 1-27 16c-20 7-41 3-61 9-17 5-30 16-43 28-5 4 2 11 7 7z"/><path d="M112 160l-2 2-1 4a6 6 0 0 0 1 3 6 6 0 0 0 4 2h2a6 6 0 0 0 2-1l2-2 2-4a6 6 0 0 0-2-4 6 6 0 0 0-4-1h-1a6 6 0 0 0-3 1zm141-34h-3a4 4 0 0 0-3 1 4 4 0 0 0 0 6l1 1h2l3 1 3-2a4 4 0 0 0 0-6 629 629 0 0 0-1 0 4 4 0 0 0-2-1z"/></g></svg>