<svg xmlns="http://www.w3.org/2000/svg" width="361" height="361"><path d="M80.8 130.4V266c0 6.5 10 6.5 10 0V130.4c0-6.4-10-6.4-10 0zm190 0V266c0 6.5 10 6.5 10 0V130.4c0-6.4-10-6.4-10 0z" fill="#fff"/><path d="M286.8 117.6a5.8 5.8 0 0 1-5.7 5.7H81.3a5.8 5.8 0 0 1-5.8-5.7V108a5.8 5.8 0 0 1 5.8-5.7H281a5.8 5.8 0 0 1 5.7 5.7v9.6z" fill="none" stroke="#fff" stroke-width="10"/><path d="M272.5 145.4c-.4 1.7 1 1.4-.7 1.4h-183c1 0 .5-7.7.5-8.6 0-1-2.8 1-.4 1h183.8c2.4 0-.4-.3-.4-1.4v8.5c0 4.5 7 4.5 7 0 0-6 1.5-14.1-6.5-14.1H104.6c-4.8 0-11.4 1.1-16-.2-8-2.4-6.7 12.4-6 16.5.9 3.8 4.8 5.3 8.2 5.3h181.3c3.6 0 6.4-3.2 7.1-6.5.9-4.4-5.9-6.3-6.7-1.9z" fill="#fff"/><path d="M272.5 160c-.4 1.7 1 1.5-.7 1.5h-183c1 0 .5-7.3.5-8.1 0-2-2.6.4-.4.4h183.9c2.4 0-.5-1.7-.5-1v8.2c0 4.5 7 4.5 7 0 0-6 1.5-14.2-6.5-14.2h-184c-8 0-6.5 8.1-6.5 14.2 0 4.4 4 7.5 8 7.5h181.5c3.7 0 6.7-3 7.4-6.6.9-4.4-5.9-6.3-6.7-1.8zm-34.3-29.8H249c1.9 0 1.9-3 0-3h-10.8c-2 0-2 3 0 3z" fill="#fff"/><path d="M251.2 132c-.1.7.3.5-1 .5h-19.6c.8 0 .5-1 .5-2.4v-4.6c0 .5-.5.3.9.3h17.6c1.5 0 1.5.3 1.5-.3v7.5c0 4.5 7 4.5 7 0 0-2.8 1-8-.7-10.6-2.6-3.8-5.9-3.6-9.9-3.6h-14.3c-4.2 0-8 .9-9 5.6-.5 2.7-1 9.1.6 11.5 2.5 3.8 5.8 3.6 9.8 3.6H249c4.2 0 8-.8 9-5.6.9-4.4-5.9-6.2-6.8-1.8z" fill="#fff"/></svg>