<svg xmlns="http://www.w3.org/2000/svg" width="361" height="361"><path d="M114 222a126 126 0 0 1 134 6c5 4 10-5 5-8a136 136 0 0 0-144-6c-6 3-1 12 5 8z" fill="#fff"/><path d="M111 213l-2 1c-3 1-3 5-2 8a6 6 0 0 0 8 2l2-2c2-1 3-5 2-7a6 6 0 0 0-8-2zm142 7l-3-1a6 6 0 0 0-7 2 6 6 0 0 0 2 7l2 1a6 6 0 0 0 7-2 6 6 0 0 0-2-7zM179 72v16c0 2 3 2 3 0V72c0-2-3-2-3 0zm0 71v23c0 2 3 2 3 0v-23c0-2-3-2-3 0zm0 75v72c0 2 3 2 3 0v-72c0-2-3-2-3 0z" fill="#fff"/><g fill="#fff"><path d="M113 142a126 126 0 0 1 134 6c5 4 10-5 5-9a136 136 0 0 0-144-5c-6 3-1 11 5 8z"/><path d="M110 133l-2 1c-3 1-4 5-2 7a6 6 0 0 0 7 2l3-1c2-1 3-5 2-7a6 6 0 0 0-8-2zm141 7l-2-2a6 6 0 0 0-7 2 6 6 0 0 0 2 8l2 1a6 6 0 0 0 7-2 6 6 0 0 0-2-7z"/></g><path d="M179 134v23c0 2 3 2 3 0v-23c0-2-3-2-3 0z" fill="#fff"/></svg>