<svg xmlns="http://www.w3.org/2000/svg" width="361" height="361"><path d="M178.8 70.7v42.6c0 2 3 2 3 0V70.7c0-2-3-2-3 0zm.2 83.4v40.6c0 2 3 2 3 0v-40.6c0-2-3-2-3 0zm0 93.2v42.4c0 1.9 3 1.9 3 0v-42.4c0-1.9-3-1.9-3 0z" fill="#fff"/><path d="M170.6 286.9c-1.8-15.5-3.8-30.9.3-46.2a91.4 91.4 0 0 1 13-26.9 111 111 0 0 0 13.9-28 76 76 0 0 0 2.2-35.4c0-.7-.7-4.4-.5-3a6 6 0 0 1 0-1c-.2 2.4-1.7 3.9-4.5 4.3-1 0-3.6-1.4-.2.4 6.6 3.6 15.9 10.7 22.9 4.2 4.7-4.4-2.4-11.4-7.1-7 .9-.3.7-.5-.6-.6a16 16 0 0 1-2.6-1.1c-2.6-1.2-5-2.7-7.5-4.1-1.9-1-4.2-2.4-6.4-1.6-4.2 1.5-4.3 5.1-3.7 8.8a73 73 0 0 1-1.3 32.2 100.4 100.4 0 0 1-14.2 28.5 99 99 0 0 0-13 27.7c-4.6 16-2.6 32.5-.7 48.8.7 6.3 10.7 6.4 10 0z" fill="#fff"/><path d="M160.7 284.1l.3 2.6c.1 1.5.5 2.7 1.6 3.8a5.5 5.5 0 0 0 7.7 0 5.3 5.3 0 0 0 1.6-3.8l-.3-2.6a5.8 5.8 0 0 0-1.6-3.8 5.5 5.5 0 0 0-7.7 0 5.3 5.3 0 0 0-1.6 3.8zm51-134.9l-1.7 2a4.4 4.4 0 0 0-1.3 3c0 1 .5 2.1 1.3 2.9 1.5 1.5 4.4 1.7 5.9 0l1.7-2a4.4 4.4 0 0 0 1.2-3 4.2 4.2 0 0 0-1.2-2.9c-1.5-1.5-4.4-1.7-6 0z" fill="#fff"/><g fill="#fff"><path d="M170.3 215.3c-1.8-15.5-3.7-30.8.4-46.1a91.4 91.4 0 0 1 13-26.9c5.9-8.7 10.7-18 13.8-28a75.9 75.9 0 0 0 2.3-35.4c-.1-.8-.7-4.5-.6-3a6 6 0 0 1 0-1c-.2 2.4-1.7 3.8-4.5 4.3-1 0-3.6-1.4-.1.4 6.6 3.5 15.8 10.7 22.8 4.2 4.8-4.4-2.3-11.5-7-7 .8-.3.7-.5-.6-.6a16 16 0 0 1-2.7-1.1l-7.5-4.1c-1.8-1-4.1-2.4-6.3-1.7-4.2 1.5-4.3 5.2-3.7 9 1.7 11 1.7 21.2-1.3 32A100.3 100.3 0 0 1 174 139a99 99 0 0 0-13 27.6c-4.6 16-2.5 32.5-.7 48.8.7 6.4 10.7 6.4 10 0z"/><path d="M160.5 212.6l.2 2.5c.2 1.5.5 2.8 1.6 3.9a5.5 5.5 0 0 0 7.7 0 5.3 5.3 0 0 0 1.6-3.9l-.2-2.5a5.8 5.8 0 0 0-1.6-3.9 5.5 5.5 0 0 0-7.7 0 5.3 5.3 0 0 0-1.6 3.9zm50.9-135l-1.7 2a4.4 4.4 0 0 0-1.2 3c0 1 .4 2.2 1.2 3 1.6 1.5 4.4 1.7 6 0l1.6-2a4.4 4.4 0 0 0 1.3-3 4.2 4.2 0 0 0-1.3-3c-1.5-1.4-4.4-1.6-5.9 0z"/></g></svg>