<svg xmlns="http://www.w3.org/2000/svg" width="361" height="361"><path d="M178.8 70.7v42.6c0 2 3 2 3 0V70.7c0-2-3-2-3 0zm.2 83.4v40.6c0 2 3 2 3 0v-40.6c0-2-3-2-3 0zm0 83.2v52.4c0 1.9 3 1.9 3 0v-52.4c0-1.9-3-1.9-3 0z" fill="#fff"/><path d="M162 283.4c.2-15.6 0-31.3 6.2-45.9 8-18.6 24.4-31.5 32.8-49.9a75.8 75.8 0 0 0 7-34.7l-.2-4.1c0-.5.2-1.9-.1 0-1 6-9.2.5-4.6 3.7 5.5 3.9 14 12.1 21.1 7 5.2-3.7.2-12.4-5-8.6-1.3 1-8-4.9-9.5-6-2.4-1.7-4.6-3.6-7.7-3-3.7 1-4.3 4.8-4.2 8 .5 11.4-.7 22-5.4 32.7-8.5 19.3-25.9 32.6-33.8 52.4-6.3 15.5-6.4 31.9-6.5 48.4-.1 6.4 9.9 6.4 10 0z" fill="#fff"/><path d="M152.6 280.7l-.1 2.6c-.1 3 2.5 5.4 5.4 5.4a5.5 5.5 0 0 0 5.5-5.4v-2.6c.2-3-2.5-5.5-5.4-5.5a5.5 5.5 0 0 0-5.4 5.5zm66.6-128l-2 1.7c-1.6 1.5-1.5 4.4 0 6a4.2 4.2 0 0 0 3 1.2c1.2 0 2.2-.5 3-1.3l2-1.7c1.6-1.5 1.5-4.4 0-5.9a4.2 4.2 0 0 0-3-1.2 4 4 0 0 0-3 1.2z" fill="#fff"/><g fill="#fff"><path d="M161.8 211.8c.1-15.5 0-31.2 6.2-45.8 7.9-18.6 24.4-31.5 32.8-50a75.8 75.8 0 0 0 6.9-34.7l-.2-4c0-.6.2-1.9 0 0-1 6-9.2.5-4.6 3.7 5.5 3.9 14 12.1 21 7 5.3-3.7.3-12.4-5-8.6-1.2.9-8-4.9-9.5-6-2.4-1.7-4.5-3.6-7.7-3-3.7 1-4.3 4.8-4.1 8 .4 11.4-.8 22-5.4 32.7-8.5 19.3-26 32.6-33.9 52.3-6.3 15.6-6.3 32-6.5 48.4 0 6.5 10 6.5 10 0z"/><path d="M152.3 209.2v2.5c-.2 3 2.5 5.5 5.4 5.5a5.5 5.5 0 0 0 5.4-5.5l.1-2.5c.1-3-2.5-5.5-5.4-5.5a5.5 5.5 0 0 0-5.5 5.5zm66.6-128l-1.9 1.7c-1.7 1.5-1.5 4.4 0 6a4.2 4.2 0 0 0 3 1.2c1.2 0 2.1-.5 3-1.3l1.9-1.7c1.7-1.5 1.5-4.4 0-6a4.2 4.2 0 0 0-3-1.2c-1.2 0-2.1.5-3 1.3z"/></g></svg>