<svg xmlns="http://www.w3.org/2000/svg" width="361" height="361"><path d="M179 71v59c0 2 3 2 3 0V71c0-2-3-2-3 0zm0 88v41c0 2 3 2 3 0v-41c0-2-3-2-3 0zm0 72v59c0 2 3 2 3 0v-59c0-2-3-2-3 0zm-9-83l19 8c3 1 6-1 6-3 1-3-1-5-3-6l-20-9c-2-1-5 1-6 4s1 5 4 6z" fill="#fff"/><path d="M192 156l67-13c6-1 3-11-3-10l-66 14c-7 1-4 11 2 9zm-86 5l66-13c7-1 4-11-2-10l-67 14c-6 1-4 11 3 9z" fill="#fff"/><path d="M106 152h-2a5 5 0 0 0-4 3 6 6 0 0 0 0 4 6 6 0 0 0 2 3l4 1 3-1a5 5 0 0 0 3-2 6 6 0 0 0 1-5 6 6 0 0 0-3-3 6 6 0 0 0-4 0zm150-19l-3 1a5 5 0 0 0-3 3 6 6 0 0 0-1 4 6 6 0 0 0 3 3 6 6 0 0 0 4 0h3a5 5 0 0 0 3-3 6 6 0 0 0 0-4 6 6 0 0 0-2-3 6 6 0 0 0-4-1zm-87 82l20 8c2 1 5-1 6-4s-1-5-4-6l-19-8c-3-1-6 1-7 3 0 3 2 5 4 7z" fill="#fff"/><path d="M192 223l66-13c7-2 4-11-2-10l-67 13c-6 2-3 11 3 10zm-87 5l67-13c6-2 3-11-3-10l-66 13c-6 1-4 11 2 10z" fill="#fff"/><path d="M106 218l-3 1a5 5 0 0 0-3 2 6 6 0 0 0-1 4 6 6 0 0 0 3 4h7a5 5 0 0 0 3-3 6 6 0 0 0 0-4 6 6 0 0 0-2-3 6 6 0 0 0-4-1zm149-18l-2 1a5 5 0 0 0-3 2 6 6 0 0 0-1 4 6 6 0 0 0 3 3 6 6 0 0 0 4 1h2a5 5 0 0 0 4-3 6 6 0 0 0 0-4 6 6 0 0 0-2-3 6 6 0 0 0-5-1z" fill="#fff"/></svg>