<svg xmlns="http://www.w3.org/2000/svg" width="361" height="361"><path d="M258 288l23-144 10-65c1-6-8-9-9-2l-23 144-11 64c-1 6 9 9 10 3zm-1-182a83 83 0 0 1-17 20 215 215 0 0 1-35 24 316 316 0 0 1-113 38c-4 1-2 7 2 7 41-6 80-19 116-40a224 224 0 0 0 35-25c7-6 14-13 18-21 3-4-3-7-6-4z" fill="#fff"/><path d="M259 103a186 186 0 0 1-56 15c-36 5-73 4-109-1-4-1-4 7 0 7a418 418 0 0 0 109 1c21-2 41-7 60-16 4-2 0-8-4-6zm-188 7v177c0 7 10 7 10 0V110c0-6-10-6-10 0z" fill="#fff"/><path d="M91 121l1 44a529 529 0 0 1-1 17 280 280 0 0 1-1 6v2c-2 3 4 7 6 3 2-1 1-5 2-7a459 459 0 0 0 0-65c-1-5-8-5-7 0zm194-40l-25 24c-2 1 1 3 2 2l25-24c1-1-1-3-2-2z" fill="#fff"/><path d="M75 111l19 11c1 1 3-2 1-3l-19-10c-1-1-3 1-1 2zm19 79l-18 2c-2 0-2 3 0 3l18-2v-3z" fill="#fff"/></svg>