<svg xmlns="http://www.w3.org/2000/svg" width="361" height="361"><path d="M282 249a34 34 0 0 1-34 33H129c-9 0-18 1-25-1-16-5-24-19-24-35V125c0-11-1-20 5-30a33 33 0 0 1 28-15h136c9 0 18 4 25 11 8 9 8 20 8 31v127c0 7 10 7 10 0V113a44 44 0 0 0-36-42c-8-2-16-1-24-1H114a44 44 0 0 0-42 30c-3 8-2 18-2 27v120c0 17 8 33 24 40 9 6 19 5 30 5h121c16 0 29-5 39-18a43 43 0 0 0 8-25c0-7-10-6-10 0z" fill="#fff"/><path d="M97 180c0-8 1-14 3-20a41 41 0 0 1 9-14 38 38 0 0 1 14-9 46 46 0 0 1 16-3c6 0 11 1 16 3a38 38 0 0 1 14 9 42 42 0 0 1 9 14 55 55 0 0 1 3 20c0 8-1 14-3 20a42 42 0 0 1-9 14 37 37 0 0 1-14 9 44 44 0 0 1-16 3 46 46 0 0 1-16-3 38 38 0 0 1-13-9 41 41 0 0 1-10-14 55 55 0 0 1-3-20zm13 0l2 15a33 33 0 0 0 6 11 25 25 0 0 0 9 7 29 29 0 0 0 12 2 27 27 0 0 0 21-9 33 33 0 0 0 6-12 49 49 0 0 0 2-14 51 51 0 0 0-2-15 33 33 0 0 0-6-11 25 25 0 0 0-9-7 28 28 0 0 0-12-2l-12 2a25 25 0 0 0-9 7 33 33 0 0 0-6 11 49 49 0 0 0-2 15zm154-44a857 857 0 0 1-9 10 775 775 0 0 1-10 10 1337 1337 0 0 1-11 11 1050 1050 0 0 1-10 10 113 113 0 0 1 12 10 199 199 0 0 1 12 12 208 208 0 0 1 11 13 110 110 0 0 1 8 12h-14a125 125 0 0 0-9-12 160 160 0 0 0-10-12 166 166 0 0 0-11-10 98 98 0 0 0-11-8v42h-13v-88h13v39a592 592 0 0 0 9-9 827 827 0 0 0 11-11 978 978 0 0 0 10-10l8-9h14z" fill="#fff"/></svg>