<svg xmlns="http://www.w3.org/2000/svg" width="361" height="361"><path d="M282 249a34 34 0 0 1-34 33H129c-9 0-18 1-25-1-16-5-24-19-24-35V125c0-11-1-20 5-30a33 33 0 0 1 28-15h136c9 0 18 4 25 11 8 9 8 20 8 31v127c0 7 10 7 10 0V113a44 44 0 0 0-36-42c-8-2-16-1-24-1H114a44 44 0 0 0-42 30c-3 8-2 18-2 27v120c0 17 8 33 24 40 9 6 19 5 30 5h121c16 0 29-5 39-18a43 43 0 0 0 8-25c0-7-10-6-10 0z" fill="#fff"/><path d="M155 259l85-124 18-25c5-8-8-15-13-7l-85 123-18 25c-5 8 8 16 13 8z" fill="#fff"/><path d="M153 249l-45-32c-3-3-8-1-10 2-2 4-1 8 3 11l44 31c3 3 8 1 10-2 2-4 1-8-2-11z" fill="#fff"/></svg>