<svg xmlns="http://www.w3.org/2000/svg" width="361" height="361"><path d="M282 249a34 34 0 0 1-34 33H129c-9 0-18 1-25-1-16-5-24-19-24-35V125c0-11-1-20 5-30a33 33 0 0 1 28-15h136c9 0 18 4 25 11 8 9 8 20 8 31v127c0 7 10 7 10 0V113a44 44 0 0 0-36-42c-8-2-16-1-24-1H114a44 44 0 0 0-42 30c-3 8-2 18-2 27v120c0 17 8 33 24 40 9 6 19 5 30 5h121c16 0 29-5 39-18a43 43 0 0 0 8-25c0-7-10-6-10 0z" fill="#fff"/><path d="M192 214a11 11 0 0 1-3 9 13 13 0 0 1-9 3c-3 0-6-1-8-3a11 11 0 0 1-4-9c0-4 2-7 4-9s5-3 8-3l9 3c2 2 3 5 3 9zm-1-57a231 231 0 0 1-1 20 356 356 0 0 1-2 18h-15a407 407 0 0 1-2-18l-1-20v-23h21v23z" fill="#fff"/></svg>