<svg xmlns="http://www.w3.org/2000/svg" width="361" height="361"><path d="M282 249a33.7 33.7 0 0 1-34.4 33.2h-119c-8.2 0-17.1.8-25-1.4-16-4.4-23.8-19.3-23.8-34.8V124.5c0-10.3-.4-19.8 5.2-29.1A33.4 33.4 0 0 1 113 80h135.6c9.7 0 18.4 4 25 11.1 8.2 8.8 8.3 19.9 8.3 31V249c0 6.5 10 6.5 10 0V113.4a43.6 43.6 0 0 0-36.3-42.8c-7.7-1.2-16-.5-23.8-.5h-118a44 44 0 0 0-41.9 29.8c-3 8.4-2 18.1-2 27v120.3c0 17 8.3 32.4 23.6 40.3 9.6 5 19.7 4.7 30.1 4.7h121.8c15.6 0 29-5.5 38.5-18.1a42.9 42.9 0 0 0 8-25.1c.1-6.5-9.9-6.4-10 0z" fill="#fff"/><path d="M190.4 217.3a9 9 0 0 1-3 7.3 10.5 10.5 0 0 1-7 2.6c-2.6 0-5-.8-7-2.6-2-1.7-3-4.1-3-7.3s1-5.6 3-7.3a10.5 10.5 0 0 1 7-2.6c2.6 0 4.9.9 7 2.6a9 9 0 0 1 3 7.3zm-1.4-46.8c0 5.8-.2 11.2-.7 16.2a294.5 294.5 0 0 1-1.7 15.3h-12.2a336.7 336.7 0 0 1-1.8-15.3c-.5-5-.7-10.4-.7-16.2v-19.3H189v19.3z" fill="#fff"/><path d="M112.1 246.2l72.5-125.5 2.7-4.7h-13l72.5 125.5 2.8 4.8L256 235H105.7c-9.7 0-9.8 15-.1 15H256c5.7 0 9.4-6.3 6.5-11.3l-72.4-125.5-2.8-4.8a7.6 7.6 0 0 0-13 0L102 234l-2.8 4.7c-4.8 8.4 8.2 16 13 7.5z" fill="#fff"/></svg>