<svg xmlns="http://www.w3.org/2000/svg" width="361" height="361"><path d="M282 249a33.7 33.7 0 0 1-34.4 33.2h-119c-8.2 0-17.1.8-25-1.4-16-4.4-23.8-19.3-23.8-34.8V124.5c0-10.3-.4-19.8 5.2-29.1A33.4 33.4 0 0 1 113 80h135.6c9.7 0 18.4 4 25 11.1 8.2 8.8 8.3 19.9 8.3 31V249c0 6.5 10 6.5 10 0V113.4a43.6 43.6 0 0 0-36.3-42.8c-7.7-1.2-16-.5-23.8-.5h-118a44 44 0 0 0-41.9 29.8c-3 8.4-2 18.1-2 27v120.3c0 17 8.3 32.4 23.6 40.3 9.6 5 19.7 4.7 30.1 4.7h121.8c15.6 0 29-5.5 38.5-18.1a42.9 42.9 0 0 0 8-25.1c.1-6.5-9.9-6.4-10 0z" fill="#fff"/><path d="M97 180c0-7.6 1.1-14.2 3.3-20a41.2 41.2 0 0 1 9.2-14.4 37.8 37.8 0 0 1 13.4-8.7 45.5 45.5 0 0 1 16.3-2.9c5.7 0 11 1 16 3a37.5 37.5 0 0 1 13.3 8.6 41.7 41.7 0 0 1 9.1 14.4 54.7 54.7 0 0 1 3.4 20c0 7.5-1.2 14.1-3.4 19.9a41.7 41.7 0 0 1-9 14.4 37.4 37.4 0 0 1-13.3 8.6 44.1 44.1 0 0 1-16 3 45.5 45.5 0 0 1-16.4-3 37.8 37.8 0 0 1-13.4-8.6 41.1 41.1 0 0 1-9.2-14.4 54.6 54.6 0 0 1-3.3-20zm13 0c0 5.3.6 10.1 2 14.5a32.5 32.5 0 0 0 5.7 11 25.3 25.3 0 0 0 9.1 7.1 28.7 28.7 0 0 0 12.2 2.5 26.5 26.5 0 0 0 21.1-9.5 32.5 32.5 0 0 0 5.8-11.1 48.9 48.9 0 0 0 2-14.5 51 51 0 0 0-2-14.6 32.6 32.6 0 0 0-5.8-11 25.4 25.4 0 0 0-9-7.1 28.3 28.3 0 0 0-12.1-2.5c-4.5 0-8.6.8-12.2 2.5a25.3 25.3 0 0 0-9 7 32.5 32.5 0 0 0-5.8 11.1 48.8 48.8 0 0 0-2 14.6zm154.3-44a857.4 857.4 0 0 1-8.9 9.6 774.8 774.8 0 0 1-10.3 10.8 1336.9 1336.9 0 0 1-10.7 10.9 1049.5 1049.5 0 0 1-10 9.9 113 113 0 0 1 11.5 9.4 199 199 0 0 1 12 11.9 207.8 207.8 0 0 1 10.9 13 110 110 0 0 1 8.6 12.5h-14.5a124.7 124.7 0 0 0-8.8-12 159.5 159.5 0 0 0-10.4-11.6 165.8 165.8 0 0 0-11.2-10.2 98.4 98.4 0 0 0-11-8V224h-12.3v-88h12.3v39a592.1 592.1 0 0 0 9.8-9.5 827.2 827.2 0 0 0 10.5-10.6 978.4 978.4 0 0 0 9.9-10.2c3-3.2 5.7-6 7.8-8.5h14.8z" fill="#fff"/></svg>