<svg xmlns="http://www.w3.org/2000/svg" width="361" height="361"><path d="M282 249a33.7 33.7 0 0 1-34.4 33.2h-119c-8.2 0-17.1.8-25-1.4-16-4.4-23.8-19.3-23.8-34.8V124.5c0-10.3-.4-19.8 5.2-29.1A33.4 33.4 0 0 1 113 80h135.6c9.7 0 18.4 4 25 11.1 8.2 8.8 8.3 19.9 8.3 31V249c0 6.5 10 6.5 10 0V113.4a43.6 43.6 0 0 0-36.3-42.8c-7.7-1.2-16-.5-23.8-.5h-118a44 44 0 0 0-41.9 29.8c-3 8.4-2 18.1-2 27v120.3c0 17 8.3 32.4 23.6 40.3 9.6 5 19.7 4.7 30.1 4.7h121.8c15.6 0 29-5.5 38.5-18.1a42.9 42.9 0 0 0 8-25.1c.1-6.5-9.9-6.4-10 0z" fill="#fff"/><path d="M216 229.4c0 3.9-15.9 19.6-19.8 19.6h-31.1c-4 0-19.7-15.7-19.7-19.6v-64c0-4 7-10.9 10.8-10.9h48.9c3.9 0 10.8 7 10.8 10.9v64z" fill="#fff"/><path d="M212.2 229.4c-.2 1.6-4.3 5.5-5.8 7-2.9 3.1-6 6.2-9.7 8.5-2.7 1.7-10.8.4-14.5.4H165c-1.5 0-5.7-4.4-7-5.7-3.2-3-6.3-6.1-8.5-9.7-1.1-1.8-.4-6.5-.4-9v-45.5c0-3-1-8 .2-10.8 2.6-5.8 6.8-6.3 12-6.3H205c2.3 0 7 4.9 7 7.2v63.9c0 4.8 7.6 4.8 7.6 0v-56.2c0-3.6.6-8-.9-11.4-2.6-6-8.6-11-15.3-11H162c-5.6 0-9.3 0-14 3.8a16.5 16.5 0 0 0-6.4 14V228c0 5.2 3.8 9.2 7.2 12.9 3.7 4 10.2 11.8 16.3 11.8h19c4.4 0 11 1.2 15.2-.9 4.7-2.3 8.8-6.4 12.3-10.1 3.2-3.4 7.4-7.6 8-12.4.5-4.8-7-4.8-7.5 0zM116.9 187h17.3c6.5 0 6.5-10 0-10H117c-6.5 0-6.5 10 0 10z" fill="#fff"/><path d="M104.3 195.1l15-8.6c5.6-3.3.6-12-5-8.7l-15 8.7c-5.6 3.2-.6 11.9 5 8.6zm12.6 30h17.3c6.5 0 6.5-10 0-10H117c-6.5 0-6.5 10 0 10z" fill="#fff"/><path d="M108 236l12.2-12.3c4.5-4.5-2.5-11.6-7-7l-12.3 12.2c-4.6 4.6 2.5 11.7 7 7.1zm14-90.8l15 8.6c5.5 3.3 10.6-5.4 5-8.6l-15-8.7c-5.6-3.2-10.7 5.4-5 8.7z" fill="#fff"/><path d="M111.4 128.3l8.6 15c3.3 5.6 12 .6 8.7-5l-8.7-15c-3.2-5.6-11.9-.6-8.6 5z" fill="#fff"/><g fill="#fff"><path d="M244.1 177.1h-17.3c-6.5 0-6.5 10 0 10h17.4c6.4 0 6.4-10 0-10z"/><path d="M261.8 186.5l-15-8.7c-5.7-3.2-10.7 5.4-5.1 8.7l15 8.6c5.6 3.3 10.6-5.4 5-8.6z"/></g><g fill="#fff"><path d="M244.1 215.2h-17.3c-6.5 0-6.5 10 0 10h17.4c6.4 0 6.4-10 0-10z"/><path d="M260.1 229L248 216.6c-4.6-4.6-11.6 2.5-7 7l12 12.4c4.5 4.6 11.6-2.5 7-7z"/></g><g fill="#fff"><path d="M234 136.5l-15 8.7c-5.6 3.2-.5 11.9 5 8.6l15-8.6c5.7-3.3.6-12-5-8.7z"/><path d="M241 123.3l-8.7 15c-3.2 5.6 5.4 10.6 8.6 5l8.7-15c3.2-5.6-5.4-10.6-8.6-5z"/></g><path d="M204.1 144h-46.9v-13.5c0-3.4 10.2-6 13.5-6h19.9c3.3 0 13.5 2.6 13.5 6V144z" fill="#fff"/><path d="M204.1 140.3h-46.9l3.8 3.7v-13.4c0 1.3 0 .6 1.2-.1 5.5-3.1 12.4-2.3 18.5-2.3s11.5-.3 17.4 1.8c.9.3 1.8.8 2.5 1.4-.5-.4-.3-1.4-.3-.2V144c0 4.9 7.5 4.9 7.5 0 0-5.6 2.2-15.3-3.3-19-7.1-4.8-15.7-4.3-23.8-4.3-8.2 0-15.8-.3-23.2 3.8-6.3 3.6-4 13.5-4 19.5 0 2 1.7 3.8 3.7 3.8h47c4.7 0 4.7-7.5 0-7.5zm-37.9-24l5.9 5.7" fill="#fff"/><path d="M162.7 119.7l5.8 5.8a5 5 0 0 0 7.1 0 5 5 0 0 0 0-7l-5.8-5.8a5 5 0 0 0-7.1 0 5 5 0 0 0 0 7zm32.1-3.5L189 122m2.3-9.3l-5.9 5.7a5 5 0 0 0 0 7.1 5 5 0 0 0 7 0l6-5.8a5 5 0 0 0 0-7 5 5 0 0 0-7.1 0z" fill="#fff"/></svg>