<svg xmlns="http://www.w3.org/2000/svg" width="361" height="361"><path d="M282 249a34 34 0 0 1-34 33H129c-9 0-18 1-25-1-16-5-24-19-24-35V125c0-11-1-20 5-30a33 33 0 0 1 28-15h136c9 0 18 4 25 11 8 9 8 20 8 31v127c0 7 10 7 10 0V113a44 44 0 0 0-36-42c-8-2-16-1-24-1H114a44 44 0 0 0-42 30c-3 8-2 18-2 27v120c0 17 8 33 24 40 9 6 19 5 30 5h121c16 0 29-5 39-18a43 43 0 0 0 8-25c0-7-10-6-10 0z" fill="#fff"/><path d="M216 229c0 4-16 20-20 20h-31c-4 0-20-16-20-20v-64c0-4 7-10 11-10h49c4 0 11 7 11 10v64z" fill="#fff"/><path d="M212 229c0 2-4 6-6 7l-9 9c-3 2-11 0-15 0h-17l-7-5-8-10c-2-2-1-7-1-9v-56c3-6 7-7 12-7h44c2 0 7 5 7 8v63c0 5 8 5 8 0v-56l-1-11c-3-6-9-11-16-11h-41c-6 0-9 0-14 4a17 17 0 0 0-6 14v59c0 5 3 9 7 13 3 4 10 12 16 12h19c4 0 11 1 15-1 5-2 9-7 13-10 3-4 7-8 8-13 0-4-7-4-8 0zm-95-42h17c7 0 7-10 0-10h-17c-6 0-6 10 0 10z" fill="#fff"/><path d="M104 195l15-9c6-3 1-11-5-8l-15 9c-5 3 0 11 5 8zm13 30h17c7 0 7-10 0-10h-17c-6 0-6 10 0 10z" fill="#fff"/><path d="M108 236l12-12c5-5-2-12-7-7l-12 12c-5 4 2 12 7 7zm14-91l15 9c6 3 11-6 5-9l-15-9c-6-3-11 6-5 9z" fill="#fff"/><path d="M111 128l9 15c3 6 12 1 9-5l-9-15c-3-5-12 0-9 5z" fill="#fff"/><g fill="#fff"><path d="M244 177h-17c-7 0-7 10 0 10h17c7 0 7-10 0-10z"/><path d="M262 187l-15-9c-6-3-11 5-5 9l15 8c5 3 10-5 5-9z"/></g><g fill="#fff"><path d="M244 215h-17c-7 0-7 10 0 10h17c7 0 7-10 0-10z"/><path d="M260 229l-12-12c-5-5-12 2-7 7l12 12c5 5 12-2 7-7z"/></g><g fill="#fff"><path d="M234 137l-15 8c-6 3 0 12 5 9l15-9c6-3 1-12-5-9z"/><path d="M241 123l-9 15c-3 6 6 11 9 5l9-15c3-5-6-10-9-5z"/></g><path d="M204 144h-47v-13c0-4 10-6 14-6h20c3 0 13 2 13 6v13z" fill="#fff"/><path d="M204 140h-47l4 4v-13l1-1c6-3 13-2 19-2s11 0 17 2l3 1h-1v13c0 5 8 5 8 0 0-6 2-15-4-19-7-5-15-4-23-4-9 0-16-1-24 4-6 3-4 13-4 19 0 2 2 4 4 4h47c5 0 5-8 0-8zm-38-24l6 6" fill="#fff"/><path d="M163 120l5 6a5 5 0 0 0 8 0 5 5 0 0 0 0-7l-6-6a5 5 0 0 0-7 0 5 5 0 0 0 0 7zm32-4l-6 6m2-9l-6 5a5 5 0 0 0 0 8 5 5 0 0 0 7 0l6-6a5 5 0 0 0 0-7 5 5 0 0 0-7 0z" fill="#fff"/></svg>