<svg xmlns="http://www.w3.org/2000/svg" width="361" height="361"><path d="M282 249a34 34 0 0 1-34 33H129c-9 0-18 1-25-1-16-5-24-19-24-35V125c0-11-1-20 5-30a33 33 0 0 1 28-15h136c9 0 18 4 25 11 8 9 8 20 8 31v127c0 7 10 7 10 0V113a44 44 0 0 0-36-42c-8-2-16-1-24-1H114a44 44 0 0 0-42 30c-3 8-2 18-2 27v120c0 17 8 33 24 40 9 6 19 5 30 5h121c16 0 29-5 39-18a43 43 0 0 0 8-25c0-7-10-6-10 0z" fill="#fff"/><g fill="#fff"><path d="M182 240l-54 4h-4v-3l-2-28-2-33-1-10v-2l76-5 4-7-6-15-7-3 4-10v-7l-21-14a2 2 0 0 0-1-1c-1 0-3 0-3 2l-63 55c-3 2-2 7 2 7l8-1 1 8a4681700 4681700 0 0 1 4 61c0 5 0 14 7 13l60-4-2-7z"/><path d="M180 235l7-18-7-9 8-17-3-10 4-6 5-10-70 5a3 3 0 0 0-2 3l5 67a3 3 0 0 0 2 2l52-4-1-3zm83-66a3 3 0 0 0-1-1l-22-23-20-20-2 8-6 8 6 4 2 16-5 7 27 3 2 1-1 4-4 26-6 45h-2l-10-2-30-4h-4l1 7 43 6c3 0 7 0 9-4v-1l7-50 4-25v-1l7 1h3c2-1 2-3 2-5z"/><path d="M239 173l-25-4-7 9-6 5 2 11-11 15 5 10-11 16v4l43 6a3 3 0 0 0 2-3l10-66a3 3 0 0 0-2-3z"/></g></svg>