<svg xmlns="http://www.w3.org/2000/svg" width="361" height="361"><path d="M282 249a33.7 33.7 0 0 1-34.4 33.2h-119c-8.2 0-17.1.8-25-1.4-16-4.4-23.8-19.3-23.8-34.8V124.5c0-10.3-.4-19.8 5.2-29.1A33.4 33.4 0 0 1 113 80h135.6c9.7 0 18.4 4 25 11.1 8.2 8.8 8.3 19.9 8.3 31V249c0 6.5 10 6.5 10 0V113.4a43.6 43.6 0 0 0-36.3-42.8c-7.7-1.2-16-.5-23.8-.5h-118a44 44 0 0 0-41.9 29.8c-3 8.4-2 18.1-2 27v120.3c0 17 8.3 32.4 23.6 40.3 9.6 5 19.7 4.7 30.1 4.7h121.8c15.6 0 29-5.5 38.5-18.1a42.9 42.9 0 0 0 8-25.1c.1-6.5-9.9-6.4-10 0z" fill="#fff"/><path d="M231.4 208.8L203 180.5l28.3-28.3a9 9 0 0 0 0-12.7l-9.5-9.5a9 9 0 0 0-12.7 0l-28.3 28.3-28.3-28.3a9 9 0 0 0-12.7 0l-9.5 9.5a9 9 0 0 0 0 12.7l28.3 28.3-28.3 28.3a9 9 0 0 0 0 12.7l9.5 9.5a9 9 0 0 0 12.7 0l28.3-28.3 28.3 28.3a9 9 0 0 0 12.7 0l9.5-9.5a9 9 0 0 0 0-12.7z" fill="#fff"/></svg>