<svg xmlns="http://www.w3.org/2000/svg" width="361" height="361"><path d="M282 249a34 34 0 0 1-34 33H129c-9 0-18 1-25-1-16-5-24-19-24-35V125c0-11-1-20 5-30a33 33 0 0 1 28-15h136c9 0 18 4 25 11 8 9 8 20 8 31v127c0 7 10 7 10 0V113a44 44 0 0 0-36-42c-8-2-16-1-24-1H114a44 44 0 0 0-42 30c-3 8-2 18-2 27v120c0 17 8 33 24 40 9 6 19 5 30 5h121c16 0 29-5 39-18a43 43 0 0 0 8-25c0-7-10-6-10 0z" fill="#fff"/><path d="M190 217a9 9 0 0 1-3 8 11 11 0 0 1-7 2l-7-2c-2-2-3-4-3-8s1-5 3-7a11 11 0 0 1 7-3c3 0 5 1 7 3a9 9 0 0 1 3 7zm-1-46l-1 16a295 295 0 0 1-1 15h-13a337 337 0 0 1-1-15l-1-17v-19h17v19z" fill="#fff"/><path d="M112 246l73-125 2-5h-13l73 125 3 5 6-11H106c-10 0-10 15 0 15h150c6 0 9-6 7-11l-73-126-3-5a8 8 0 0 0-13 0l-72 126-3 5c-5 8 8 16 13 7z" fill="#fff"/></svg>