<svg xmlns="http://www.w3.org/2000/svg" width="361" height="361"><path d="M282 249a33.7 33.7 0 0 1-34.4 33.2h-119c-8.2 0-17.1.8-25-1.4-16-4.4-23.8-19.3-23.8-34.8V124.5c0-10.3-.4-19.8 5.2-29.1A33.4 33.4 0 0 1 113 80h135.6c9.7 0 18.4 4 25 11.1 8.2 8.8 8.3 19.9 8.3 31V249c0 6.5 10 6.5 10 0V113.4a43.6 43.6 0 0 0-36.3-42.8c-7.7-1.2-16-.5-23.8-.5h-118a44 44 0 0 0-41.9 29.8c-3 8.4-2 18.1-2 27v120.3c0 17 8.3 32.4 23.6 40.3 9.6 5 19.7 4.7 30.1 4.7h121.8c15.6 0 29-5.5 38.5-18.1a42.9 42.9 0 0 0 8-25.1c.1-6.5-9.9-6.4-10 0z" fill="#fff"/><g fill="#fff"><path d="M182 240.4l-54.2 3.8-3.4.2-.3-3.2-1.9-27.8-2.3-33-.7-10.3-.1-1.7 75.8-5.3 3.7-7.1-6-15.1-6.4-3.4 3.9-9.2.2-7.8-21.2-14a2.4 2.4 0 0 0-.9-.3c-1.5-.6-2.9.1-3.6 1.4L101.5 163c-2.5 2.2-1.6 6.7 2.2 6.5l8.3-.6c0 2.6.4 5.5.6 7.6a4681699.8 4681699.8 0 0 1 4.3 61.7c.3 5.1-.3 13.8 7.3 13.3l60.2-4.2-2.4-6.9z"/><path d="M180.1 235l7.4-17.7-7.1-9.1 7.8-16.9-3.4-10 4-6.5 5.1-9.8-69.7 4.8a2.5 2.5 0 0 0-2.3 2.7l4.7 67.3a2.5 2.5 0 0 0 2.6 2.3l52.1-3.7-1.2-3.4zm82.5-66a3.3 3.3 0 0 0-.4-.9 4 4 0 0 0-.5-.5l-22.2-22.3-20-20.2-1.8 7.6-5.7 8.2 5.5 4.6 2.8 16-5.2 6.2 27.2 3.8 1.4.2-.7 4.6-3.6 26.2-6.3 44.7-2.5-.4-9.5-1.3-30.2-4.2-4.3-.6 1 7.3 43 6c3.7.5 7.7.4 9-3.8l.4-1.1 7-50.4 3.5-24.9.1-1.1 7.4 1c.9.6 1.8.5 2.6 0 2-.5 2.7-2.8 2-4.7z"/><path d="M238.6 172.8l-24.8-3.4-7.1 8.5-5.2 5.5 1.3 10.5-11.2 14.9 5 10.4-10.8 15.8.5 3.6 42.3 6a2.5 2.5 0 0 0 2.8-2.2l9.3-66.8a2.5 2.5 0 0 0-2-2.8z"/></g></svg>