<svg xmlns="http://www.w3.org/2000/svg" width="361" height="361"><path d="M287 219a6 6 0 0 1-6 6H80a6 6 0 0 1-6-6v-78a6 6 0 0 1 6-6h201a6 6 0 0 1 6 6v78z" fill="none" stroke="#fff" stroke-width="10" stroke-miterlimit="10"/><path d="M141 190a4 4 0 0 1-4 4 4 4 0 0 1 0-8 4 4 0 0 1 4 4zm-29 0a4 4 0 0 1-4 4 4 4 0 0 1 0-8 4 4 0 0 1 4 4zm-21-28h9c7 0 7-10 0-10h-9c-6 0-6 10 0 10zm70 28a4 4 0 0 1-4 4 4 4 0 0 1 0-8 4 4 0 0 1 4 4zm20 0a4 4 0 0 1-4 4 4 4 0 0 1 0-8 4 4 0 0 1 4 4zm19 0a4 4 0 0 1-4 4 4 4 0 0 1 0-8 4 4 0 0 1 4 4zm20 0a4 4 0 1 1-8 0 4 4 0 0 1 8 0zm48-21c0 16-23 16-24 0 0-7 6-12 12-12 7-1 12 6 12 12 0 2 3 2 3 0a16 16 0 0 0-15-15c-8-1-15 7-15 15-1 9 7 15 15 15 9 1 15-7 15-15 0-2-3-2-3 0zM95 208c0 2-4 2-4 0s4-2 4 0 3 2 3 0a5 5 0 0 0-5-5c-3 0-4 3-5 5 0 3 3 5 5 5 3 0 5-2 5-5 0-2-3-2-3 0zm147 0c0 2-3 2-3 0s3-2 3 0 3 2 3 0a5 5 0 0 0-4-5c-3 0-5 3-5 5 0 3 2 5 5 5 2 0 4-2 4-5 0-2-3-2-3 0zm11 0c0 2-3 2-3 0s3-2 3 0 3 2 3 0a5 5 0 0 0-4-5c-3 0-5 3-5 5 0 3 2 5 5 5 2 0 4-2 4-5 0-2-3-2-3 0zm12 0c0 2-4 2-4 0s4-2 4 0 3 2 3 0a5 5 0 0 0-5-5c-3 0-4 3-5 5 0 3 3 5 5 5 3 0 5-2 5-5 0-2-3-2-3 0z" fill="#fff"/><path fill="none" stroke="#fff" stroke-width="3" stroke-linecap="round" stroke-miterlimit="10" d="M165 180h9m6 0h8m6 0h9m-52 0h9m-23 0h8m63 0h9"/><path d="M216 152h-80c-4 0-8 4-8 8v8c1 5 4 9 8 9h80c4 0 7-4 7-9v-8c0-4-3-8-7-8zm-74 13h-6a2 2 0 1 1 0-3h6a2 2 0 1 1 0 3zm6 6h-3a2 2 0 1 1 0-3h3a2 2 0 1 1 0 3zm1-11h-10a2 2 0 1 1 0-3h10a2 2 0 1 1 0 3zm13 4a2 2 0 0 1 1-1h7a2 2 0 1 1 0 3h-7a2 2 0 0 1-1-2zm10 7h-3a2 2 0 1 1 0-3h3a2 2 0 1 1 0 3zm3-11h-5a2 2 0 1 1 0-3h5a2 2 0 1 1 0 3zm22 6h-3a2 2 0 1 1 0-3h3a2 2 0 1 1 0 3zm0-7a2 2 0 0 1 2-2h6a2 2 0 1 1 0 3h-6a2 2 0 0 1-2-1zm14 12h-7a2 2 0 1 1 0-3h7a2 2 0 1 1 0 3zm4-5h-6a2 2 0 1 1 0-3h6a2 2 0 1 1 0 3z" fill="#fff"/></svg>