<svg xmlns="http://www.w3.org/2000/svg" width="361" height="361"><path d="M287.3 218.7a6 6 0 0 1-6 6h-201a6 6 0 0 1-6-6v-77.5a6 6 0 0 1 6-6h201a6 6 0 0 1 6 6v77.5z" fill="none" stroke="#fff" stroke-width="10" stroke-miterlimit="10"/><path d="M141 189.8a4 4 0 0 1-4.1 4 4 4 0 0 1 0-8 4 4 0 0 1 4 4zm-28.6 0a4 4 0 0 1-4 4 4 4 0 0 1 0-8 4 4 0 0 1 4 4zM91 161.5h9.3c6.5 0 6.5-10 0-10H91c-6.5 0-6.5 10 0 10zm69.8 28.3a4 4 0 0 1-4 4 4 4 0 0 1 0-8 4 4 0 0 1 4 4zm19.8 0a4 4 0 0 1-4 4 4 4 0 0 1 0-8 4 4 0 0 1 4 4zm19.8 0a4 4 0 0 1-4 4 4 4 0 0 1 0-8 4 4 0 0 1 4 4zm19.8 0a4 4 0 1 1-8 0 4 4 0 0 1 8 0zm48.1-20.9c-.7 15.8-23.7 15.8-24.5 0-.3-6.9 5.9-12 12.3-12.2 6.9-.4 12 5.8 12.2 12.2.1 2 3.1 2 3 0a15.6 15.6 0 0 0-15.2-15.2c-8.6-.4-14.9 7.2-15.3 15.2-.4 8.6 7.3 14.9 15.3 15.3 8.6.4 14.8-7.3 15.2-15.3.1-2-2.9-2-3 0zM94.8 208c0 2.3-3.4 2.3-3.5 0 0-2.2 3.4-2.2 3.5 0 .1 2 3.1 2 3 0a4.9 4.9 0 0 0-4.7-4.7c-2.7-.1-4.6 2.3-4.8 4.8-.1 2.7 2.3 4.6 4.8 4.7 2.7.2 4.6-2.2 4.7-4.7.1-2-2.9-2-3 0zm147.5 0c0 2.3-3.4 2.3-3.5 0 0-2.2 3.4-2.2 3.5 0 .1 2 3.1 2 3 0a4.9 4.9 0 0 0-4.7-4.7c-2.7-.1-4.6 2.3-4.8 4.8-.1 2.7 2.3 4.6 4.8 4.7 2.7.2 4.6-2.2 4.7-4.7.1-2-2.9-2-3 0zm11 0c0 2.3-3.4 2.3-3.5 0 0-2.2 3.4-2.2 3.5 0 .1 2 3.1 2 3 0a4.9 4.9 0 0 0-4.7-4.7c-2.7-.1-4.6 2.3-4.8 4.8-.1 2.7 2.3 4.6 4.8 4.7 2.7.2 4.6-2.2 4.7-4.7.1-2-2.9-2-3 0zm11.5 0c0 2.3-3.4 2.3-3.5 0 0-2.2 3.4-2.2 3.5 0 .1 2 3.1 2 3 0a4.9 4.9 0 0 0-4.7-4.7c-2.7-.1-4.6 2.3-4.8 4.8-.1 2.7 2.3 4.6 4.8 4.7 2.7.2 4.6-2.2 4.7-4.7.1-2-2.9-2-3 0z" fill="#fff"/><path fill="none" stroke="#fff" stroke-width="3" stroke-linecap="round" stroke-miterlimit="10" d="M165.4 179.9h8.5m5.8 0h8.5m5.8 0h8.5m-51.4 0h8.5m-22.8 0h8.5m63 0h8.5"/><path d="M216.2 151.8h-80.6c-4 0-7.1 3.8-7.1 8.6v7.6c0 4.8 3.2 8.6 7.1 8.6h80.6c4 0 7.1-3.8 7.1-8.6v-7.6c0-4.8-3.1-8.6-7-8.6zm-74.4 13.4h-5.5a1.5 1.5 0 1 1 0-3h5.5a1.5 1.5 0 1 1 0 3zm6 5.3h-3a1.5 1.5 0 1 1 0-3h3a1.5 1.5 0 1 1 0 3zm1-10.3h-9.5a1.5 1.5 0 1 1 0-3h9.5a1.5 1.5 0 1 1 0 3zm13 4a1.5 1.5 0 0 1 1.5-1.5h6.5a1.5 1.5 0 1 1 0 3h-6.5a1.5 1.5 0 0 1-1.5-1.5zm10 6.3h-3a1.5 1.5 0 1 1 0-3h3a1.5 1.5 0 1 1 0 3zm3.5-10.3h-5.5a1.5 1.5 0 1 1 0-3h5.5a1.5 1.5 0 1 1 0 3zm22 5.5h-3.5a1.5 1.5 0 1 1 0-3h3.5a1.5 1.5 0 1 1 0 3zm0-7a1.5 1.5 0 0 1 1.5-1.5h6.5a1.5 1.5 0 1 1 0 3h-6.5a1.5 1.5 0 0 1-1.5-1.5zm13.5 11.8h-6.5a1.5 1.5 0 1 1 0-3h6.5a1.5 1.5 0 1 1 0 3zm4.5-4.8h-6.5a1.5 1.5 0 1 1 0-3h6.5a1.5 1.5 0 1 1 0 3z" fill="#fff"/></svg>