<svg xmlns="http://www.w3.org/2000/svg" width="361" height="361"><path d="M286 167a6 6 0 0 1-2 8l-125 72a6 6 0 0 1-8-2l-31-54a6 6 0 0 1 3-8l124-72a6 6 0 0 1 8 2l31 54z" fill="none" stroke="#fff" stroke-width="10" stroke-miterlimit="10"/><path d="M121 269l-36-63-5 7h50l-4-2 11 19v-5l-25 44c-3 5 6 10 9 5l25-43a5 5 0 0 0 0-6l-11-17c-1-3-2-5-5-5H80a5 5 0 0 0-4 8l36 63c3 5 12 0 9-5zm55-179v60c0 6 10 6 10 0V90c0-7-10-7-10 0z" fill="#fff"/><path d="M287 84a6 6 0 0 1-6 6H149a6 6 0 0 1-6-6v-3a6 6 0 0 1 6-6h132a6 6 0 0 1 6 6v3z" fill="#fff" stroke="#fff" stroke-width="10" stroke-miterlimit="10"/></svg>