<svg xmlns="http://www.w3.org/2000/svg" width="361" height="361"><path d="M286.1 166.6a6 6 0 0 1-2.2 8.2l-124.7 72a6 6 0 0 1-8.2-2.2l-30.7-53.3a6 6 0 0 1 2.2-8.2l124.7-72a6 6 0 0 1 8.2 2.2l30.7 53.3z" fill="none" stroke="#fff" stroke-width="10" stroke-miterlimit="10"/><path d="M120.9 268.5l-36.3-62.9-4.3 7.5H130l-4.4-2.4 11.6 19.8v-5.1l-25 43.1c-3.2 5.6 5.5 10.6 8.7 5l24.9-43a5 5 0 0 0 0-5.1l-10.3-17.7c-1.4-2.3-2.6-4.6-5.8-4.6H80.3a5 5 0 0 0-4.4 7.6l36.4 62.9c3.2 5.5 11.8.5 8.6-5zm55-178.8v60c0 6.4 10 6.4 10 0v-60c0-6.5-10-6.5-10 0z" fill="#fff"/><path d="M287.3 84.2a6 6 0 0 1-5.9 6H148.8a6 6 0 0 1-6-6v-3.5a6 6 0 0 1 6-6h132.6a6 6 0 0 1 6 6v3.5z" fill="#fff" stroke="#fff" stroke-width="10" stroke-miterlimit="10"/></svg>