<svg xmlns="http://www.w3.org/2000/svg" width="361" height="361"><path d="M287 278c0 5-4 9-9 9H85c-5 0-10-4-10-9v-90c0-4 5-8 10-8h193c5 0 9 4 9 8v90z" fill="none" stroke="#fff" stroke-width="10" stroke-miterlimit="10"/><path d="M263 214c-13-3-28-4-41-5a978 978 0 0 0-41-1h-1a967 967 0 0 0-81 6c-3 0-5 1-5 4v32c0 2 2 4 5 4h36c10-1 8-14 13-18 2-2 6-2 8-2h49c3 0 7 0 9 2 5 4 2 16 13 17h36c2 1 5-1 5-3v-32c0-3-3-4-5-4z" fill="none" stroke="#fff" stroke-width="10" stroke-miterlimit="10"/><path d="M242 77c-1-10-17-7-24-7h-94c-5 3-5 7-5 11v83c0 7-2 20 8 20h107c11 0 8-13 8-20V78c0-4-7-4-7 0v74c0 2 2 25-1 25H128c-3 0-2-2-2-4V79c0-4 17-2 20-2h84c3 0 5-1 5 2 1 4 8 2 7-2z" fill="#fff"/><path d="M140 101h81c5 0 5-7 0-7h-81c-4 0-4 7 0 7zm0 39h81c5 0 5-7 0-7h-81c-4 0-4 7 0 7zm0-19h81c5 0 5-7 0-7h-81c-4 0-4 7 0 7zm0 39h81c5 0 5-7 0-7h-81c-4 0-4 7 0 7z" fill="#fff"/></svg>