<svg xmlns="http://www.w3.org/2000/svg" width="361" height="361"><path d="M287.3 278.2c0 5-4.3 8.9-9.7 8.9H85c-5.3 0-9.6-4-9.6-8.9v-89.7c0-4.9 4.3-8.8 9.6-8.8h192.8c5.3 0 9.6 4 9.6 8.8v89.7z" fill="none" stroke="#fff" stroke-width="10" stroke-miterlimit="10"/><path d="M262.9 213.5c-12.9-2.6-28-3.8-40.7-4.8a978 978 0 0 0-40.7-.7h-1.3c-6 0-33 .1-40.7.7-12.7 1-27.8 2.2-40.7 4.8-2.5.5-4.8 1.8-4.8 4v32c0 2.2 2.2 4 4.8 4h36c10.5-1 7.8-13.4 13-17.9 1.8-1.5 6-1.3 8.6-1.3h49c2.5 0 6.7-.2 8.5 1.3 5.2 4.5 2.5 16.8 13 17.9h36c2.6 0 4.8-1.8 4.8-4v-32c0-2.2-2.3-3.5-4.8-4z" fill="none" stroke="#fff" stroke-width="10" stroke-miterlimit="10"/><path d="M242.2 77c-1.3-10-16.8-7.2-23.8-7.2h-85.8c-2.7 0-6-.4-8.5.7-4.7 2-5 6.2-5 10.6v83.2c0 7-2.2 19.9 8.4 19.9H234c10.7 0 8.4-13.6 8.4-20.6V78c0-4.5-7-4.5-7 0v74c0 1.8 1.2 25.3-1 25.3H128c-2.6 0-2-2.4-2-4.3V78.5c0-3.4 17.4-1.7 19.8-1.7h84.6c2.2 0 4.6-.7 5 2 .5 4.5 7.3 2.6 6.7-1.8z" fill="#fff"/><path d="M140.2 101.1h81c4.5 0 4.5-7 0-7h-81c-4.5 0-4.5 7 0 7zm0 39h81c4.5 0 4.5-7 0-7h-81c-4.5 0-4.5 7 0 7zm0-19.5h81c4.5 0 4.5-7 0-7h-81c-4.5 0-4.5 7 0 7zm0 39h81c4.5 0 4.5-7 0-7h-81c-4.5 0-4.5 7 0 7z" fill="#fff"/></svg>