<svg xmlns="http://www.w3.org/2000/svg" width="361" height="361"><path d="M178 195a58.5 58.5 0 0 1-2.7-67.3 58.5 58.5 0 0 1 55.2-25.7 58.1 58.1 0 0 1 47.3 37.4c8.8 23.7.5 50-18.8 65.7-5 4 2 11.1 7 7a68.7 68.7 0 0 0 23.7-67.6 68 68 0 0 0-41-48 68.3 68.3 0 0 0-64 7.5 68.5 68.5 0 0 0-28.9 57.1c.2 15 6 29.2 15.2 41 4 5 11-2 7-7.1z" fill="#fff"/><path d="M169.7 138.4h105.9c6.4 0 6.4-10 0-10h-106c-6.4 0-6.4 10 0 10zm-.4 51h106c6.4 0 6.4-10 0-10h-106c-6.4 0-6.4 10 0 10z" fill="#fff"/><path d="M234.1 104.8a80.2 80.2 0 0 1 11.8 89.5c-3 5.8 5.7 10.8 8.6 5a90.6 90.6 0 0 0-13.3-101.6c-4.3-4.8-11.3 2.3-7 7zm-20-9a90.3 90.3 0 0 0-22.3 99c2.4 6 12 3.4 9.6-2.6a80.6 80.6 0 0 1 19.7-89.3c4.7-4.4-2.4-11.5-7-7zM108 264.5a828 828 0 0 0-2.4-6.8 385.7 385.7 0 0 1-4.1-12.2 199.8 199.8 0 0 1-2.1-7l-2.2 6.9a248.5 248.5 0 0 1-2 6l-2.1 6.2-2.7 7h-11a166.6 166.6 0 0 1-2.7-11.8 211 211 0 0 1-2.4-13.6 373.6 373.6 0 0 1-1.9-15.1 822.9 822.9 0 0 1-1.6-16h12.6l1 20.4a253.5 253.5 0 0 0 2 20.6 196.8 196.8 0 0 0 2.8-8.5 216.1 216.1 0 0 0 2-7.4 424.6 424.6 0 0 0 1.7-6.9l1.6-6.8h10.7a247 247 0 0 0 1.5 6.8c.5 2.2 1 4.5 1.7 6.9l1.9 7.4a178.3 178.3 0 0 0 2.4 8.5 291 291 0 0 0 2-20.6 414.8 414.8 0 0 0 1-20.4h12.5a392.6 392.6 0 0 1-3.6 31 268 268 0 0 1-5.3 25.4h-11.1zm60 0a828 828 0 0 0-2.4-6.8 385.7 385.7 0 0 1-4.1-12.2 199.8 199.8 0 0 1-2.1-7l-2.2 6.9a248.5 248.5 0 0 1-2 6l-2.1 6.2-2.7 7h-11.1a166.6 166.6 0 0 1-2.7-11.8c-.9-4.2-1.6-8.8-2.4-13.6a373.6 373.6 0 0 1-1.9-15.1 822.9 822.9 0 0 1-1.5-16h12.6l1 20.4a253.5 253.5 0 0 0 2 20.6 196.8 196.8 0 0 0 2.7-8.5 216.1 216.1 0 0 0 2-7.4 424.6 424.6 0 0 0 1.7-6.9l1.7-6.8h10.6a247 247 0 0 0 1.5 6.8c.5 2.2 1 4.5 1.7 6.9l1.9 7.4a178.3 178.3 0 0 0 2.4 8.5 291 291 0 0 0 2-20.6 414.8 414.8 0 0 0 1-20.4h12.5a393.6 393.6 0 0 1-3.6 31 268 268 0 0 1-5.3 25.4h-11.1zm60 0a828 828 0 0 0-2.4-6.8 375.8 375.8 0 0 1-4.1-12.2 199.8 199.8 0 0 1-2.1-7l-2.2 6.9a248.5 248.5 0 0 1-2 6l-2.1 6.2-2.7 7h-11.1a167.2 167.2 0 0 1-2.7-11.8c-.9-4.2-1.6-8.8-2.4-13.6a371.8 371.8 0 0 1-1.9-15.1 830.7 830.7 0 0 1-1.5-16h12.6l1 20.4a254.4 254.4 0 0 0 2 20.6 195.4 195.4 0 0 0 2.7-8.5 216.2 216.2 0 0 0 2-7.4 414 414 0 0 0 1.7-6.9l1.7-6.8h10.6a247.8 247.8 0 0 0 3.2 13.7l1.9 7.4a176 176 0 0 0 2.4 8.5 308.2 308.2 0 0 0 2.5-30.6l.4-10.4h12.6a393.6 393.6 0 0 1-3.6 31 268 268 0 0 1-5.3 25.4h-11.1z" fill="#fff"/></svg>