<svg xmlns="http://www.w3.org/2000/svg" width="361" height="361"><path d="M178 195a59 59 0 0 1-3-67 59 59 0 0 1 56-26 58 58 0 0 1 47 37c9 24 0 50-19 66-5 4 2 11 7 7a69 69 0 0 0 24-67 68 68 0 0 0-41-48 68 68 0 0 0-64 7 69 69 0 0 0-29 57c0 15 6 29 15 41 4 5 11-2 7-7z" fill="#fff"/><path d="M170 138h106c6 0 6-10 0-10H170c-7 0-7 10 0 10zm-1 51h106c7 0 7-10 0-10H169c-6 0-6 10 0 10z" fill="#fff"/><path d="M234 105a80 80 0 0 1 12 89c-3 6 6 11 9 5a91 91 0 0 0-14-101c-4-5-11 2-7 7zm-20-9a90 90 0 0 0-22 99c2 6 12 3 9-3a81 81 0 0 1 20-89c5-4-2-12-7-7zM108 265a828 828 0 0 0-2-7 386 386 0 0 1-5-13 200 200 0 0 1-2-6l-2 6a249 249 0 0 1-2 6l-2 7-3 7H79a167 167 0 0 1-2-12 211 211 0 0 1-3-14 374 374 0 0 1-2-15 823 823 0 0 1-1-16h12l1 21a254 254 0 0 0 2 20 197 197 0 0 0 3-8 216 216 0 0 0 2-8 425 425 0 0 0 2-7l1-6h11a247 247 0 0 0 2 6l1 7 2 8a178 178 0 0 0 3 8 291 291 0 0 0 2-20 415 415 0 0 0 1-21h12a393 393 0 0 1-3 31 268 268 0 0 1-6 26h-11zm60 0a828 828 0 0 0-2-7 386 386 0 0 1-5-13 200 200 0 0 1-2-6l-2 6a249 249 0 0 1-2 6l-2 7-3 7h-11a167 167 0 0 1-2-12l-3-14a374 374 0 0 1-2-15 823 823 0 0 1-1-16h12l1 21a254 254 0 0 0 2 20 197 197 0 0 0 3-8 216 216 0 0 0 2-8 425 425 0 0 0 2-7l2-6h10a247 247 0 0 0 2 6l1 7 2 8a178 178 0 0 0 3 8 291 291 0 0 0 2-20 415 415 0 0 0 1-21h12a394 394 0 0 1-4 31 268 268 0 0 1-5 26h-11zm60 0a828 828 0 0 0-2-7 376 376 0 0 1-5-13 200 200 0 0 1-2-6l-2 6a249 249 0 0 1-2 6l-2 7-3 7h-11a167 167 0 0 1-2-12l-3-14a372 372 0 0 1-2-15 831 831 0 0 1-1-16h12l1 21a254 254 0 0 0 2 20 195 195 0 0 0 3-8 216 216 0 0 0 2-8 414 414 0 0 0 2-7l2-6h10a248 248 0 0 0 3 13l2 8a176 176 0 0 0 3 8 308 308 0 0 0 2-31v-10h13a394 394 0 0 1-4 31 268 268 0 0 1-5 25h-11z" fill="#fff"/></svg>