<svg xmlns="http://www.w3.org/2000/svg" width="361" height="361"><path d="M287.3 207.7a6 6 0 0 1-6 6h-201a6 6 0 0 1-6-6v-53.5a6 6 0 0 1 6-6h201a6 6 0 0 1 6 6v53.5z" fill="none" stroke="#fff" stroke-width="10" stroke-miterlimit="10"/><path fill="none" stroke="#fff" stroke-width="10" stroke-linecap="round" stroke-miterlimit="10" d="M74.3 180.2h33.5m14.5 0h11"/><path d="M260 168.8h-69.3a11.5 11.5 0 0 0-10.6 11.4 11.5 11.5 0 0 0 12.5 11.5H258a11.8 11.8 0 0 0 2 0 11.5 11.5 0 0 0 10.5-11.4c0-6-4.7-11-10.6-11.5zm-1.5 15.5a4.3 4.3 0 0 1-4.3-4.3 4.3 4.3 0 1 1 4.3 4.3z" fill="#fff"/></svg>