<svg xmlns="http://www.w3.org/2000/svg" width="361" height="361"><path d="M287 208a6 6 0 0 1-6 6H80a6 6 0 0 1-6-6v-54a6 6 0 0 1 6-6h201a6 6 0 0 1 6 6v54z" fill="none" stroke="#fff" stroke-width="10" stroke-miterlimit="10"/><path fill="none" stroke="#fff" stroke-width="10" stroke-linecap="round" stroke-miterlimit="10" d="M74 180h34m14 0h11"/><path d="M260 169h-69a12 12 0 0 0-11 11 12 12 0 0 0 13 12h65a12 12 0 0 0 2 0 12 12 0 0 0 11-12c0-6-5-11-11-11zm-1 15a4 4 0 0 1-5-4 4 4 0 1 1 4 4z" fill="#fff"/></svg>