<svg xmlns="http://www.w3.org/2000/svg" width="361" height="361"><path d="M75.3 184.7h212c6.5 0 6.5-10 0-10h-212c-6.4 0-6.4 10 0 10z" fill="#fff"/><path d="M185.8 175.2v-24.5c0-6.5-10-6.5-10 0v24.5c0 6.4 10 6.4 10 0zm70 35.5v-26.5c0-6.5-10-6.5-10 0v26.5c0 6.4 10 6.4 10 0zm-141-.3v-26.2c0-6.5-10-6.5-10 0v26.2c0 6.5 10 6.5 10 0z" fill="#fff"/><path d="M140 270.2a6 6 0 0 1-6 6H85a6 6 0 0 1-6-6v-49a6 6 0 0 1 6-6h49a6 6 0 0 1 6 6v49zm142 0a6 6 0 0 1-6 6h-49a6 6 0 0 1-6-6v-49a6 6 0 0 1 6-6h49a6 6 0 0 1 6 6v49zm-71-130a6 6 0 0 1-6 6h-49a6 6 0 0 1-6-6v-49a6 6 0 0 1 6-6h49a6 6 0 0 1 6 6v49z" fill="none" stroke="#fff" stroke-width="10" stroke-miterlimit="10"/></svg>