<svg xmlns="http://www.w3.org/2000/svg" width="361" height="361"><path d="M187.1 279c-.3 4-5.4 3-8.2 3H83.2c-5.3 0-3.6-9-3.6-12.4v-186c0-3.7 3.6-3.3 6-3.3h96.7c6.1 0 4.8 5.8 4.8 10.3V279c0 6.4 10 6.4 10 0V95.2c0-6 1.1-13.7-2.2-19-5.2-8.4-19.8-5.9-28-5.9H84.6c-6 0-11.5 2.1-14 8-1 2.7-1 5.2-1 8v189.3c0 2-.2 4.1.2 6 1.7 7 7.5 10.4 14.3 10.4h99.8c7.6 0 12.7-5.8 13.2-13 .5-6.4-9.5-6.4-10 0z" fill="#fff"/><path d="M173.4 174.7c-.3 3.8-8 2.5-10.4 2.5H95.8c-3.2 0-2.7-3.2-2.7-5.4 0-2.8-2-18 2.5-18H167c3.4 0 6.5-.4 6.5 4v17c0 4.4 7 4.4 7 0 0-9.5 3.7-28-10.5-28H96.2c-6.6 0-10.1 5-10.1 11v10.6c0 2.6-.6 6 .2 8.5 2.6 8.3 10.3 7.3 17.2 7.3h60.7c7.4 0 15.3 0 16.2-9.5.5-4.5-6.5-4.4-7 0zm.4-43.6c-.4 3.8-8 2.5-10.5 2.5H96.2c-3.2 0-2.8-3.3-2.8-5.4 0-2.8-2-18 2.6-18h71.2c3.4 0 6.6-.5 6.6 4v16.9c0 4.5 7 4.5 7 0 0-9.4 3.6-28-10.6-28H96.5c-6.6 0-10.1 5-10.1 11.1v10.6c0 2.5-.5 5.9.2 8.4 2.6 8.3 10.4 7.4 17.3 7.4h60.6c7.4 0 15.3 0 16.3-9.5.4-4.5-6.6-4.5-7 0zm-.4 87.8c-.3 3.8-8 2.5-10.4 2.5H95.8c-3.2 0-2.7-3.3-2.7-5.4 0-2.8-2-18 2.5-18H167c3.4 0 6.5-.4 6.5 4v17c0 4.5 7 4.5 7 0 0-9.4 3.7-28-10.5-28H96.2c-6.6 0-10.2 5-10.2 11v10.6c0 2.5-.6 5.9.2 8.4 2.6 8.3 10.3 7.4 17.2 7.4h60.7c7.4 0 15.3 0 16.2-9.5.5-4.5-6.5-4.5-7 0zm2-127.9c-.1 3.2-4.8 3.2-5 0-.1-3.2 4.9-3.2 5 0 .1 2 3.1 2 3 0a5.6 5.6 0 0 0-5.5-5.5c-3-.2-5.3 2.6-5.5 5.5-.1 3.1 2.7 5.4 5.5 5.5 3.1.2 5.4-2.6 5.5-5.5.1-2-2.9-2-3 0zm-84 184h82.9c6.4 0 6.4-10 0-10H91.4c-6.5 0-6.5 10 0 10zm0-13h82.9c6.4 0 6.4-10 0-10H91.4c-6.5 0-6.5 10 0 10zm0-12.9h82.9c6.4 0 6.4-10 0-10H91.4c-6.5 0-6.5 10 0 10zm115.6 2.7h81.7c4.6 0 4.6-7 0-7H207c-4.5 0-4.5 7 0 7z" fill="#fff"/><path d="M244.5 236.5v11c0 4.5 7 4.5 7 0v-11c0-4.5-7-4.5-7 0zm27.2 12.8v11c0 4.5 7 4.5 7 0v-11c0-4.5-7-4.5-7 0zm-54.4 0v11c0 4.5 7 4.5 7 0v-11c0-4.5-7-4.5-7 0z" fill="#fff"/><path d="M227.7 281.7c0 .1 1.7.1.5.1H213c1.2 0 1.1 2 1.1.6v-15.1c0 1.2-2 1-.6 1h15.2c-1.2 0-1.1-1.9-1.1-.5V283c0 6.5 10 6.5 10 0 0-7.5 3-22.8-7.5-24.5-4.2-.6-8.6-.1-12.8-.1-5.7 0-11.9.5-13 7.4-.7 4.2-.2 8.7-.2 12.8 0 5.7.5 12 7.5 13 4.1.7 8.6.2 12.8.2 5.6 0 11.9-.5 13-7.4 1-6.3-8.6-9-9.7-2.7zm54.4 0c0 .1 1.6.1.4.1h-15.2c1.2 0 1.1 2 1.1.6v-15.1c0 1.2-1.9 1-.6 1H283c-1.2 0-1.1-1.9-1.1-.5V283c0 6.5 10 6.5 10 0 0-7.5 3-22.8-7.5-24.5-4.1-.6-8.6-.1-12.8-.1-5.6 0-11.9.5-13 7.4-.7 4.2-.2 8.7-.2 12.8 0 5.7.6 12 7.5 13 4.1.7 8.6.2 12.8.2 5.7 0 11.9-.5 13-7.4 1-6.3-8.6-9-9.6-2.7zm-27.2-54.5h.4-15.2c1.3 0 1.1 2 1.1.7v-15.2c0 1.3-1.9 1.1-.6 1.1h15.2c-1.2 0-1.1-1.9-1.1-.6v15.3c0 6.4 10 6.4 10 0 0-7.5 3-22.8-7.5-24.5-4.1-.7-8.6-.2-12.8-.2-5.6 0-11.9.6-13 7.5-.7 4.1-.2 8.6-.2 12.8 0 5.7.6 11.9 7.5 13 4.1.7 8.6.2 12.8.2 5.7 0 11.9-.5 13-7.5 1-6.3-8.6-9-9.6-2.6z" fill="#fff"/></svg>