<svg xmlns="http://www.w3.org/2000/svg" width="361" height="361"><path d="M187 279c0 4-5 3-8 3H83c-5 0-3-9-3-12V84c0-4 3-4 6-4h96c6 0 5 6 5 11v188c0 6 10 6 10 0V95c0-6 1-14-2-19-5-8-20-6-28-6H85c-6 0-12 2-14 8l-1 8v196c1 7 7 10 14 10h100c7 0 13-6 13-13 1-6-9-6-10 0z" fill="#fff"/><path d="M173 175c0 3-8 2-10 2H96c-3 0-3-3-3-5 0-3-2-18 3-18h71c3 0 7-1 7 4v17c0 4 7 4 7 0 0-10 3-28-11-28H96c-6 0-10 5-10 11v19c3 8 11 7 18 7h60c8 0 16 0 16-9 1-5-6-5-7 0zm1-44c-1 4-8 3-11 3H96c-3 0-3-4-3-6 0-3-2-18 3-18h71c4 0 7 0 7 4v17c0 5 7 5 7 0 0-9 3-28-11-28H97c-7 0-11 5-11 11v11l1 8c2 8 10 8 17 8h61c7 0 15 0 16-10 0-4-7-4-7 0zm-1 88c0 4-8 2-10 2H96c-3 0-3-3-3-5 0-3-2-18 3-18h71c3 0 7 0 7 4v17c0 4 7 4 7 0 0-9 3-28-11-28H96c-6 0-10 5-10 11v19c3 8 11 7 17 7h61c8 0 15 0 16-9 1-5-6-5-7 0zm2-128c0 3-4 3-5 0 0-3 5-3 5 0 1 2 4 2 3 0a6 6 0 0 0-5-6c-3 0-5 3-6 6 0 3 3 5 6 5 3 1 5-2 5-5 1-2-2-2-3 0zM91 275h83c7 0 7-10 0-10H91c-6 0-6 10 0 10zm0-13h83c7 0 7-10 0-10H91c-6 0-6 10 0 10zm0-13h83c7 0 7-10 0-10H91c-6 0-6 10 0 10zm116 3h82c4 0 4-7 0-7h-82c-4 0-4 7 0 7z" fill="#fff"/><path d="M245 237v11c0 4 7 4 7 0v-11c0-5-7-5-7 0zm27 12v11c0 5 7 5 7 0v-11c0-4-7-4-7 0zm-55 0v11c0 5 7 5 7 0v-11c0-4-7-4-7 0z" fill="#fff"/><path d="M228 282s1 0 0 0h-15c1 0 1 2 1 0v-15c0 2-2 1-1 1h16c-2 0-1-2-1 0v15c0 7 10 7 10 0s3-23-8-24l-13-1c-5 0-12 1-13 8v13c0 5 1 12 8 13h12c6 0 12-1 13-8 1-6-8-9-9-2zm54 0s2 0 0 0h-15c1 0 1 2 1 0v-15c0 2-2 1 0 1h15c-1 0-1-2-1 0v15c0 7 10 7 10 0s3-23-8-24l-12-1c-6 0-12 1-13 8l-1 13c0 5 1 12 8 13h13c5 0 12-1 13-8 1-6-9-9-10-2zm-27-55h-15l1 1v-15c0 1-2 1 0 1h15l-1-1v15c0 7 10 7 10 1 0-8 3-23-8-25h-13c-5 0-12 0-13 7v13c0 6 1 12 8 13h12c6 0 12 0 14-7 1-6-9-9-10-3z" fill="#fff"/></svg>