<svg xmlns="http://www.w3.org/2000/svg" width="361" height="361"><path d="M75 185h212c7 0 7-10 0-10H75c-6 0-6 10 0 10z" fill="#fff"/><path d="M186 175v-24c0-7-10-7-10 0v24c0 7 10 7 10 0zm70 36v-27c0-6-10-6-10 0v27c0 6 10 6 10 0zm-141-1v-26c0-6-10-6-10 0v26c0 7 10 7 10 0z" fill="#fff"/><path d="M140 270a6 6 0 0 1-6 6H85a6 6 0 0 1-6-6v-49a6 6 0 0 1 6-6h49a6 6 0 0 1 6 6v49zm142 0a6 6 0 0 1-6 6h-49a6 6 0 0 1-6-6v-49a6 6 0 0 1 6-6h49a6 6 0 0 1 6 6v49zm-71-130a6 6 0 0 1-6 6h-49a6 6 0 0 1-6-6V91a6 6 0 0 1 6-6h49a6 6 0 0 1 6 6v49z" fill="none" stroke="#fff" stroke-width="10" stroke-miterlimit="10"/></svg>