<svg xmlns="http://www.w3.org/2000/svg" width="361" height="361"><g stroke="#fff" stroke-width="10" stroke-miterlimit="10"><path d="M164.2 281.7a4.7 4.7 0 0 0 4.6 4.6h24a4.7 4.7 0 0 0 4.7-4.6v-24a4.7 4.7 0 0 0-4.7-4.7h-24a4.7 4.7 0 0 0-4.6 4.6v24z" fill="#fff"/><path d="M253.5 171.3a4.7 4.7 0 0 0 4.7 4.7h24a4.7 4.7 0 0 0 4.6-4.7v-24a4.7 4.7 0 0 0-4.6-4.6h-24a4.7 4.7 0 0 0-4.7 4.6v24zm-179 0a4.7 4.7 0 0 0 4.7 4.7h24a4.7 4.7 0 0 0 4.6-4.7v-24a4.7 4.7 0 0 0-4.6-4.6h-24a4.7 4.7 0 0 0-4.7 4.6v24zm89.3-55.3a4.7 4.7 0 0 0 4.7 4.7h24a4.7 4.7 0 0 0 4.7-4.7V92a4.7 4.7 0 0 0-4.7-4.7h-24a4.7 4.7 0 0 0-4.7 4.7v24zm16.7 134.7V121m-17.7 131l-75-75m110 75l75-75" fill="none"/></g></svg>