<svg xmlns="http://www.w3.org/2000/svg" width="361" height="361"><g stroke="#fff" stroke-width="10" stroke-miterlimit="10"><path d="M164 282a5 5 0 0 0 5 4h24a5 5 0 0 0 4-4v-24a5 5 0 0 0-4-5h-24a5 5 0 0 0-5 5v24z" fill="#fff"/><path d="M254 171a5 5 0 0 0 4 5h24a5 5 0 0 0 5-5v-24a5 5 0 0 0-5-4h-24a5 5 0 0 0-5 4v24zm-179 0a5 5 0 0 0 4 5h24a5 5 0 0 0 5-5v-24a5 5 0 0 0-5-4H79a5 5 0 0 0-4 4v24zm89-55a5 5 0 0 0 5 5h24a5 5 0 0 0 4-5V92a5 5 0 0 0-5-5h-23a5 5 0 0 0-5 5v24zm17 135V121m-18 131l-75-75m110 75l75-75" fill="none"/></g></svg>