<svg xmlns="http://www.w3.org/2000/svg" width="361" height="361"><path d="M203.8 251.3c0 3-2.6 5.4-6 5.4h-109c-3.3 0-6-2.4-6-5.4v-78.7c0-3 2.7-5.4 6-5.4h109c3.4 0 6 2.4 6 5.4v78.7z" fill="none" stroke="#fff" stroke-width="10"/><path d="M109.3 274.2h64.5c6.5 0 6.5-10 0-10h-64.5c-6.4 0-6.4 10 0 10z" fill="#fff"/><path d="M158.8 263a4.3 4.3 0 0 1-4.2 4.2H128a4.3 4.3 0 0 1 0-8.5h26.5a4.3 4.3 0 0 1 4.2 4.2zm128.5-.8a6 6 0 0 1-6 6h-55.5a6 6 0 0 1-6-6v-162a6 6 0 0 1 6-6h55.5a6 6 0 0 1 6 6v162z" fill="none" stroke="#fff" stroke-width="10"/><path d="M232.8 115.2h42c6.5 0 6.5-10 0-10h-42c-6.4 0-6.4 10 0 10zm0 23h42c6.5 0 6.5-10 0-10h-42c-6.4 0-6.4 10 0 10zm24.5 62.7a2.8 2.8 0 0 1-2.7 2.8h-4a2.8 2.8 0 0 1-2.8-2.8v-4a2.8 2.8 0 0 1 2.8-2.7h4a2.8 2.8 0 0 1 2.7 2.8v3.9zm22.7 53.7a7.1 7.1 0 0 1-7 7h-39.2a7.1 7.1 0 0 1-7.1-7v-36.8a7.1 7.1 0 0 1 7-7.1H273a7.1 7.1 0 0 1 7.1 7v36.9z" fill="#fff"/></svg>