<svg xmlns="http://www.w3.org/2000/svg" width="361" height="361"><path d="M204 251c0 3-3 6-6 6H89c-3 0-6-3-6-6v-78c0-3 3-6 6-6h109c3 0 6 3 6 6v78z" fill="none" stroke="#fff" stroke-width="10"/><path d="M109 274h65c6 0 6-10 0-10h-65c-6 0-6 10 0 10z" fill="#fff"/><path d="M159 263a4 4 0 0 1-4 4h-27a4 4 0 0 1 0-8h27a4 4 0 0 1 4 4zm128-1a6 6 0 0 1-6 6h-55a6 6 0 0 1-6-6V100a6 6 0 0 1 6-6h55a6 6 0 0 1 6 6v162z" fill="none" stroke="#fff" stroke-width="10"/><path d="M233 115h42c6 0 6-10 0-10h-42c-7 0-7 10 0 10zm0 23h42c6 0 6-10 0-10h-42c-7 0-7 10 0 10zm24 63a3 3 0 0 1-2 3h-4a3 3 0 0 1-3-3v-4a3 3 0 0 1 3-3h4a3 3 0 0 1 2 3v4zm23 54a7 7 0 0 1-7 7h-39a7 7 0 0 1-7-7v-37a7 7 0 0 1 7-7h39a7 7 0 0 1 7 7v37z" fill="#fff"/></svg>