<svg xmlns="http://www.w3.org/2000/svg" width="361" height="361"><path d="M284 232a6 6 0 0 1-6 6H83a6 6 0 0 1-6-6v-23a6 6 0 0 1 6-6h195a6 6 0 0 1 6 6v23z" fill="none" stroke="#fff" stroke-width="10"/><path d="M91 249h30c6 0 6-10 0-10H91c-7 0-7 10 0 10zm149 0h30c6 0 6-10 0-10h-30c-7 0-7 10 0 10zM88 108l20 91c1 6 11 4 10-3l-20-91c-2-6-11-3-10 3z" fill="#fff"/><path d="M121 198c0 3-2 6-5 7l-3 1c-4 0-7-1-7-4l-7-32c-1-3 1-6 4-6l4-1c3-1 6 1 7 4l7 31zm144-93l-20 91c-1 7 8 9 10 3l20-91c1-6-8-9-10-3z" fill="#fff"/><path d="M242 198c-1 3 1 6 5 7l3 1c3 0 6-1 7-4l7-32c1-3-1-6-5-6l-3-1c-3-1-6 1-7 4l-7 31zm-137 27h5c2 0 5-2 5-5s-3-5-5-5h-5a5 5 0 0 0 0 10zm92 1h5c2 0 5-2 5-5s-3-5-5-5h-5a5 5 0 0 0 0 10zm19 0h5c2 0 5-2 5-5s-3-5-5-5h-5a5 5 0 0 0 0 10zm20 0h5c2 0 5-2 5-5s-3-5-5-5h-5a5 5 0 0 0 0 10zm20 0h5c2 0 5-2 5-5s-3-5-5-5h-5a5 5 0 0 0 0 10z" fill="#fff"/></svg>