<svg xmlns="http://www.w3.org/2000/svg" width="361" height="361"><path d="M137 107a31 31 0 0 0-30 30c0 5 7 5 7 0a24 24 0 0 1 23-23c5 0 5-7 0-7z" fill="#fff"/><path d="M137 89a49 49 0 0 0-48 49c0 4 7 4 7 0a42 42 0 0 1 41-42c5 0 5-7 0-7z" fill="#fff"/><path d="M137 71a67 67 0 0 0-66 67c0 4 7 4 7 0a60 60 0 0 1 59-60c5 0 5-7 0-7zm148 168c1 2-5 7-7 8l-16 16-21 22-43-42-65-65-17-17c-1-1 1-2 2-3l14-14 28-28c1-1 1-1 2 1l7 7 61 60 56 56c3 3 8-2 5-5L185 129l-18-18c-3-3-7-4-10-2l-8 8-32 32-8 8c-2 4 1 7 3 10l113 112 10 11c7 6 13-2 17-6l27-27 10-10c3-4 5-7 3-11-3-4-9-1-6 3z" fill="#fff"/><path d="M151 156l5-6a4 4 0 0 0 0-5 4 4 0 0 0-5 0l-5 6a4 4 0 0 0 0 5 4 4 0 0 0 5 0zm12-13l6-6a4 4 0 0 0 0-5 4 4 0 0 0-5 0l-6 6a4 4 0 0 0 1 5 4 4 0 0 0 5 0zm-25 26l5-6a4 4 0 0 0 0-5 4 4 0 0 0-5 0l-5 6a4 4 0 0 0 0 5 4 4 0 0 0 5 0zm22-4l5-6a4 4 0 0 0 0-5 4 4 0 0 0-5 0l-5 6a4 4 0 0 0 0 5 4 4 0 0 0 5 0zm12-13l6-6a4 4 0 0 0 0-5 4 4 0 0 0-5 0l-6 6a4 4 0 0 0 1 5 4 4 0 0 0 5 0zm-25 26l5-6a4 4 0 0 0 0-5 4 4 0 0 0-5 0l-5 6a4 4 0 0 0 0 5 4 4 0 0 0 5 0zm5-39l6-7c3-3-2-8-5-5l-6 7c-3 3 2 8 5 5zm6 52l7-7c3-3-2-8-5-5l-7 7c-3 3 2 8 5 5zm47 18l6-5a4 4 0 0 0 0-5 4 4 0 0 0-5 0l-6 5a4 4 0 0 0 0 5 4 4 0 0 0 5 0zm13-13l5-5a4 4 0 0 0 0-5 4 4 0 0 0-5 0l-5 6a4 4 0 0 0 0 4 4 4 0 0 0 5 0zm-26 26l6-5a4 4 0 0 0 0-5 4 4 0 0 0-5 0l-6 5a4 4 0 0 0 0 5 4 4 0 0 0 5 0zm23-2l6-6a4 4 0 0 0 0-5 4 4 0 0 0-5 0l-6 6a4 4 0 0 0 1 5 4 4 0 0 0 5 0zm13-13l6-5a4 4 0 0 0 0-5 4 4 0 0 0-5 0l-6 5a4 4 0 0 0 0 5 4 4 0 0 0 5 0zm-25 26l5-6a4 4 0 0 0 0-5 4 4 0 0 0-5 0l-5 6a4 4 0 0 0 0 5 4 4 0 0 0 5 0zm24-2l5-6a4 4 0 0 0 0-5 4 4 0 0 0-5 0l-5 6a4 4 0 0 0 0 5 4 4 0 0 0 5 0zm12-13l6-5a4 4 0 0 0 0-5 4 4 0 0 0-5 0l-6 5a4 4 0 0 0 1 5 4 4 0 0 0 5 0zm-25 26l5-6a4 4 0 0 0 0-5 4 4 0 0 0-5 0l-5 6a4 4 0 0 0 0 5 4 4 0 0 0 5 0zm-3-56l4-5a4 4 0 0 0 0-5 4 4 0 0 0-5 0l-4 5a4 4 0 0 0 0 5 4 4 0 0 0 5 0zm24 75l2-1a4 4 0 0 0 0-5 4 4 0 0 0-5 0l-2 1a4 4 0 0 0 0 5 4 4 0 0 0 5 0zm9-9l2-1a4 4 0 0 0 0-5 4 4 0 0 0-5 0l-2 1a4 4 0 0 0 0 5 4 4 0 0 0 5 0zm9-9l2-2a4 4 0 0 0 0-5 4 4 0 0 0-5 0l-2 2a4 4 0 0 0 0 5 4 4 0 0 0 5 0zm10-9l1-2a4 4 0 0 0 0-5 4 4 0 0 0-5 0l-1 2a4 4 0 0 0 0 5 4 4 0 0 0 5 0zm-26 7l6-6a4 4 0 0 0 0-5 4 4 0 0 0-5 0l-5 6a4 4 0 0 0 0 5 4 4 0 0 0 4 0zm-65-62l3-5 6-4h-2l1 1a83 83 0 0 1 1 5v-1l-2 2-2 3h-1 1a23 23 0 0 1-4-2 63 63 0 0 1-1 0c-1-1-1-1 0 0-1-2-4 0-3 1 1 2 3 2 5 3h5l4-4c1-1 2-2 1-3a47 47 0 0 0-2-6c-1-2-2-2-3-1-2 1-5 2-6 4l-4 6c-1 2 2 3 3 1zm25 7l-3 6-6 4h2l-1-2a76 76 0 0 1-1-3 14 14 0 0 1 0-1v1l2-3 2-2h1-1l4 1 1 1c1 0 1 1 0 0 1 2 4 0 3-2l-4-2c-2 0-4-2-5 0l-4 4c-1 1-3 1-2 3a47 47 0 0 0 2 6c1 2 2 2 4 1l5-4 4-6c1-2-2-3-3-2zm-17 10l-6-3-3-6v2l1-1a71 71 0 0 1 5-1h-1l2 2a4390 4390 0 0 0 3 3c-1-1 0-2-1-1l-1 4a65 65 0 0 1 0 1c-1 1-1 1 0 0-2 1 0 4 1 3l2-5c1-1 2-3 1-4l-4-4c-1-2-2-3-4-2a47 47 0 0 0-6 2v3c1 2 2 5 4 6l6 4c1 1 3-2 1-3zm9-27l5 4c2 1 3 4 4 6v-2c0-1 1 0 0 0h-1a75 75 0 0 1-5 2h1l-2-3-2-2h-1c1 0 0 1 0 0l2-3v-2c1 0 1 0 0 0 2-1 0-3-1-3-2 1-2 4-3 5v5l4 4 3 2a47 47 0 0 0 6-3c2 0 2-2 1-3l-4-6a43 43 0 0 0-6-4c-2 0-3 2-1 3zm-5-6l7-7c3-3-2-8-5-5l-7 7c-3 3 2 8 5 5z" fill="#fff"/></svg>