<svg xmlns="http://www.w3.org/2000/svg" width="361" height="361"><path d="M137 107a30.6 30.6 0 0 0-30.2 30.2c-.1 4.6 6.9 4.6 7 0a23.5 23.5 0 0 1 23.2-23.1c4.5-.2 4.5-7.2 0-7z" fill="#fff"/><path d="M137.2 88.9a49.3 49.3 0 0 0-48.6 48.6c0 4.6 7 4.6 7 0A42.1 42.1 0 0 1 137.2 96c4.5 0 4.6-7 0-7z" fill="#fff"/><path d="M137.4 71a67.3 67.3 0 0 0-66.5 66.5c-.1 4.6 6.9 4.6 7 0A60.1 60.1 0 0 1 137.4 78c4.5 0 4.5-7 0-7zm148 168c1.1 1.6-5.5 6.8-6.9 8.2l-16.2 16.3c-1.5 1.4-21.5 21.7-21.6 21.6l-42.4-42.3-65.6-65.3-16.5-16.5c-1.3-1.3.5-2 1.8-3.2l13.5-13.6 28.4-28.5c1.2-1.2 1.2-.5 2.4.8l7.1 7 61 60.8 55.6 55.4c3.2 3.2 8.2-1.7 5-5L185 129.2l-18-18c-3-2.9-6.6-4.4-10.5-1.8-2.9 2-5.3 5.1-7.7 7.6l-31.9 32c-2.6 2.7-5.7 5.2-7.7 8.3-2.3 3.5.3 7 2.7 9.5L224.6 279l10.9 10.8c6.4 6.3 12.4-1.9 16.6-6.1l26.7-26.9 10.3-10.3c3-3.1 5.3-6.7 2.4-11-2.5-3.8-8.6-.3-6 3.5z" fill="#fff"/><path d="M150.7 155.6l5.6-5.7a3.5 3.5 0 0 0 0-5 3.5 3.5 0 0 0-5 0l-5.6 5.8a3.5 3.5 0 0 0 0 5 3.5 3.5 0 0 0 5 0zm12.8-12.8l5.6-5.7a3.5 3.5 0 0 0 0-5 3.5 3.5 0 0 0-5 0l-5.6 5.7a3.5 3.5 0 0 0 0 5 3.5 3.5 0 0 0 5 0zm-25.8 25.8l5.7-5.7a3.5 3.5 0 0 0 0-5 3.5 3.5 0 0 0-5 0l-5.6 5.8a3.5 3.5 0 0 0 0 5 3.5 3.5 0 0 0 5 0zm22-3.6l5.6-5.7a3.5 3.5 0 0 0 0-5 3.5 3.5 0 0 0-5 0l-5.6 5.7a3.5 3.5 0 0 0 0 5 3.5 3.5 0 0 0 5 0zm12.8-12.9l5.6-5.7a3.5 3.5 0 0 0 0-5 3.5 3.5 0 0 0-5 0l-5.6 5.8a3.5 3.5 0 0 0 0 5 3.5 3.5 0 0 0 5 0zM146.7 178l5.7-5.7a3.5 3.5 0 0 0 0-5 3.5 3.5 0 0 0-5 0l-5.7 5.7a3.5 3.5 0 0 0 0 5 3.5 3.5 0 0 0 5 0zm5.1-39.2l6.5-6.4c3.2-3.2-1.8-8.2-5-5l-6.4 6.5c-3.2 3.2 1.7 8.1 5 5zm6.1 52l6.7-6.8c3.2-3.2-1.8-8.1-5-5l-6.6 6.8c-3.2 3.2 1.7 8.1 5 5zm47.1 18.5l5.7-5.7a3.5 3.5 0 0 0 0-5 3.5 3.5 0 0 0-5 0l-5.6 5.7a3.5 3.5 0 0 0 0 5 3.5 3.5 0 0 0 4.9 0zm12.8-12.9l5.7-5.7a3.5 3.5 0 0 0 0-5 3.5 3.5 0 0 0-5 0l-5.6 5.8a3.5 3.5 0 0 0 0 4.9 3.5 3.5 0 0 0 5 0zm-25.7 25.9l5.6-5.7a3.5 3.5 0 0 0 0-5 3.5 3.5 0 0 0-5 0l-5.6 5.7a3.5 3.5 0 0 0 0 5 3.5 3.5 0 0 0 5 0zm23.4-2.2l5.6-5.7a3.5 3.5 0 0 0 0-5 3.5 3.5 0 0 0-5 0l-5.6 5.8a3.5 3.5 0 0 0 0 4.9 3.5 3.5 0 0 0 5 0zm12.8-12.9l5.7-5.7a3.5 3.5 0 0 0 0-5 3.5 3.5 0 0 0-5 0l-5.7 5.8a3.5 3.5 0 0 0 0 5 3.5 3.5 0 0 0 5 0zm-25.8 25.9l5.7-5.7a3.5 3.5 0 0 0 0-5 3.5 3.5 0 0 0-5 0l-5.6 5.7a3.5 3.5 0 0 0 0 5 3.5 3.5 0 0 0 5 0zm24.1-2l5.7-5.7a3.5 3.5 0 0 0 0-5 3.5 3.5 0 0 0-5 0l-5.7 5.7a3.5 3.5 0 0 0 0 5 3.5 3.5 0 0 0 5 0zm12.8-12.9l5.7-5.7a3.5 3.5 0 0 0 0-5 3.5 3.5 0 0 0-5 0l-5.6 5.8a3.5 3.5 0 0 0 0 4.9 3.5 3.5 0 0 0 5 0zm-25.7 25.9l5.6-5.7a3.5 3.5 0 0 0 0-5 3.5 3.5 0 0 0-5 0l-5.6 5.7a3.5 3.5 0 0 0 0 5 3.5 3.5 0 0 0 5 0zm-2.8-56.6l4.1-4.2a3.5 3.5 0 0 0 0-5 3.5 3.5 0 0 0-4.9 0l-4.2 4.2a3.5 3.5 0 0 0 0 5 3.5 3.5 0 0 0 5 0zm24.1 75.9l1.5-1.5a3.5 3.5 0 0 0 0-5 3.5 3.5 0 0 0-5 0l-1.4 1.5a3.5 3.5 0 0 0 0 5 3.5 3.5 0 0 0 4.9 0zm9.2-9.2l1.4-1.5a3.5 3.5 0 0 0 0-5 3.5 3.5 0 0 0-5 0l-1.4 1.6a3.5 3.5 0 0 0 0 4.9 3.5 3.5 0 0 0 5 0zm9.2-9.3l1.5-1.5a3.5 3.5 0 0 0 0-5 3.5 3.5 0 0 0-5 0l-1.4 1.5a3.5 3.5 0 0 0 0 5 3.5 3.5 0 0 0 5 0zm9.2-9.3l1.5-1.4a3.5 3.5 0 0 0 0-5 3.5 3.5 0 0 0-5 0l-1.4 1.5a3.5 3.5 0 0 0 0 5 3.5 3.5 0 0 0 5 0zm-25.1 6.9l5.7-5.7a3.5 3.5 0 0 0 0-5 3.5 3.5 0 0 0-5 0l-5.6 5.7a3.5 3.5 0 0 0 0 5 3.5 3.5 0 0 0 4.9 0zm-65.7-61.1c1-2 2.1-4.1 3.6-5.8 1.5-1.6 4-2.6 5.8-3.6h-1.5c-.6-.3-.6-.7-.3 0l.6 1.3a83.3 83.3 0 0 1 1.5 4.5c-.2-.9.8-1.6 0-.8l-2.4 2.4-2.1 2.1-.6.6c.8-.8 1.8-.2.5-.6a23 23 0 0 1-3.4-1.2 62.6 62.6 0 0 1-1.6-.6c-.7-.3-.5-.5-.1.2-.9-1.8-3.5-.2-2.6 1.5.6 1.2 3.3 1.8 4.4 2.2 1.3.4 3.7 1.8 5 .6l4-4c1.1-1.2 2.2-1.9 1.7-3.6a47 47 0 0 0-2.2-6c-.8-1.7-2-1.5-3.5-.6-2 1-4.3 2.2-5.8 4-1.4 1.8-2.5 3.9-3.6 5.9-1 1.7 1.6 3.2 2.6 1.5zm25.7 6.9c-1 2-2.1 4.1-3.6 5.8-1.5 1.6-4 2.6-5.8 3.6h1.5c.6.3.5.7.3 0l-.6-1.3a75.8 75.8 0 0 1-1.2-3.5 14.2 14.2 0 0 1-.3-1c.2.8-.8 1.6 0 .8l2.3-2.4 2.2-2.1.6-.6c-.8.8-1.8.2-.5.6l3.3 1.1 1.6.7c.7.2.6.5.2-.2.9 1.7 3.5.2 2.6-1.5-.6-1.2-3.3-1.8-4.5-2.2-1.2-.4-3.7-1.8-4.8-.6l-4.1 4c-1.1 1.2-2.2 1.9-1.7 3.6a47 47 0 0 0 2.2 6c.8 1.7 2 1.5 3.4.7 2-1.2 4.4-2.4 5.9-4.2 1.4-1.7 2.5-3.8 3.6-5.8 1-1.7-1.6-3.2-2.6-1.5zm-17.2 10c-2-1-4.1-2.1-5.8-3.7-1.5-1.4-2.6-3.8-3.6-5.7v1.5c-.3.5-.7.5 0 .2l1.3-.5a70.7 70.7 0 0 1 4.6-1.6c-1 .3-1.7-.8-.9 0l2.4 2.4a4389.6 4389.6 0 0 0 2.7 2.8c-.8-.8-.2-1.8-.6-.5l-1.1 3.3a65 65 0 0 1-.7 1.6c-.2.7-.5.6.2.2-1.8.8-.2 3.4 1.5 2.6 1.2-.6 1.8-3.3 2.2-4.5.4-1.2 1.8-3.7.6-4.8l-4-4.1c-1.2-1.1-1.9-2.2-3.6-1.7a47 47 0 0 0-6 2.2c-1.7.7-1.5 2-.6 3.4 1 2 2.3 4.4 4 5.9 1.9 1.4 4 2.5 5.9 3.6 1.7 1 3.2-1.6 1.5-2.6zm8.4-27.2c2 1 4.1 2.1 5.8 3.6 1.5 1.5 2.6 4 3.6 5.8V179c.3-.6.7-.5 0-.3l-1.3.6a74.7 74.7 0 0 1-4.6 1.5c1-.2 1.7.8.9 0l-2.4-2.3-2.1-2.2-.6-.6c.8.8.2 1.8.5.5l1.2-3.3.7-1.6c.2-.7.5-.6-.2-.2 1.7-.9.2-3.4-1.5-2.6-1.3.6-1.8 3.3-2.2 4.5-.4 1.2-1.8 3.7-.7 4.8l4.1 4.1c1.1 1.1 1.9 2.2 3.6 1.7a47 47 0 0 0 6-2.2c1.7-.7 1.5-2 .6-3.4-1.1-2-2.3-4.4-4.1-5.9a43.2 43.2 0 0 0-5.8-3.6c-1.7-1-3.2 1.6-1.5 2.6zm-4.6-6.6l6.7-6.7c3.2-3.2-1.8-8.1-5-5l-6.7 6.8c-3.1 3.2 1.8 8.1 5 5z" fill="#fff"/></svg>