<svg xmlns="http://www.w3.org/2000/svg" width="361" height="361"><path d="M284.3 232.2a6 6 0 0 1-6 6h-195a6 6 0 0 1-6-6v-23a6 6 0 0 1 6-6h195a6 6 0 0 1 6 6v23z" fill="none" stroke="#fff" stroke-width="10"/><path d="M90.8 248.7h30c6.5 0 6.5-10 0-10h-30c-6.4 0-6.4 10 0 10zm149 0h30c6.5 0 6.5-10 0-10h-30c-6.4 0-6.4 10 0 10zM88 108l20 91c1.4 6.3 11 3.6 9.6-2.7l-20-91c-1.3-6.3-11-3.6-9.6 2.7z" fill="#fff"/><path d="M120.8 198.4c.7 2.8-1.5 5.6-4.7 6.3l-3.4.8c-3.3.7-6.4-1-7-3.8l-7-31.7c-.6-2.8 1.6-5.6 4.8-6.3l3.4-.8c3.3-.7 6.4 1 7 3.8l7 31.7zm144.3-93l-20 91c-1.3 6.2 8.3 8.9 9.7 2.6l20-91c1.4-6.3-8.3-9-9.7-2.7z" fill="#fff"/><path d="M242 198.4c-.7 2.8 1.4 5.6 4.7 6.3l3.4.8c3.2.7 6.4-1 7-3.8l7-31.7c.5-2.8-1.6-5.6-4.8-6.3l-3.4-.8c-3.3-.7-6.4 1-7 3.8l-7 31.7zm-137 26.8h4.6c2.7 0 5-2.3 5-5s-2.3-5-5-5H105a5 5 0 0 0 0 10zm92 1h4.6c2.7 0 5-2.3 5-5s-2.3-5-5-5H197a5 5 0 0 0 0 10zm19 0h4.6c2.7 0 5-2.3 5-5s-2.3-5-5-5H216a5 5 0 0 0 0 10zm20 0h4.6c2.7 0 5-2.3 5-5s-2.3-5-5-5H236a5 5 0 0 0 0 10zm20 0h4.6c2.7 0 5-2.3 5-5s-2.3-5-5-5H256a5 5 0 0 0 0 10z" fill="#fff"/></svg>