<svg xmlns="http://www.w3.org/2000/svg" width="361" height="361"><path d="M256 280.5a6 6 0 0 1-6 6H86.8a6 6 0 0 1-6-6v-95.9a6 6 0 0 1 6-6h163a6 6 0 0 1 6 6v95.9z" fill="none" stroke="#fff" stroke-width="10" stroke-miterlimit="10"/><path d="M231.6 179.7l41.7-104.4c2.4-6-7.3-8.6-9.6-2.7L222 177.1c-2.4 6 7.3 8.5 9.6 2.6zM175 224.5h51.9c6.4 0 6.4-10 0-10H175c-6.4 0-6.4 10 0 10zm-11.3 14h73.2c6.5 0 6.5-10 0-10h-73.2c-6.4 0-6.4 10 0 10zm0 14h73.2c6.5 0 6.5-10 0-10h-73.2c-6.4 0-6.4 10 0 10zm11.3 14h51.9c6.4 0 6.4-10 0-10H175c-6.4 0-6.4 10 0 10z" fill="#fff"/><path d="M113 174.4a4.6 4.6 0 0 1-4.6 4.6H98.2a4.6 4.6 0 0 1 0-9.1h10.2a4.6 4.6 0 0 1 4.6 4.5zm29 0a4.6 4.6 0 0 1-4.6 4.6h-10.2a4.6 4.6 0 0 1 0-9.1h10.2a4.6 4.6 0 0 1 4.6 4.5z" fill="#fff" stroke="#fff" stroke-miterlimit="10"/><path d="M98.5 199.5h138.3c6.5 0 6.5-10 0-10H98.5c-6.5 0-6.5 10 0 10z" fill="#fff"/></svg>