<svg xmlns="http://www.w3.org/2000/svg" width="361" height="361"><path d="M256 281a6 6 0 0 1-6 6H87a6 6 0 0 1-6-6v-96a6 6 0 0 1 6-6h163a6 6 0 0 1 6 6v96z" fill="none" stroke="#fff" stroke-width="10" stroke-miterlimit="10"/><path d="M232 180l41-105c3-6-7-8-9-2l-42 104c-2 6 7 9 10 3zm-57 45h52c6 0 6-10 0-10h-52c-6 0-6 10 0 10zm-11 14h73c6 0 6-10 0-10h-73c-7 0-7 10 0 10zm0 14h73c6 0 6-10 0-10h-73c-7 0-7 10 0 10zm11 14h52c6 0 6-10 0-10h-52c-6 0-6 10 0 10z" fill="#fff"/><path d="M113 174a5 5 0 0 1-5 5H98a5 5 0 0 1 0-9h10a5 5 0 0 1 5 4zm29 0a5 5 0 0 1-5 5h-10a5 5 0 0 1 0-9h10a5 5 0 0 1 5 4z" fill="#fff" stroke="#fff" stroke-miterlimit="10"/><path d="M99 200h138c6 0 6-10 0-10H99c-7 0-7 10 0 10z" fill="#fff"/></svg>