<svg xmlns="http://www.w3.org/2000/svg" width="361" height="361"><path d="M287.3 218.7a6 6 0 0 1-6 6h-201a6 6 0 0 1-6-6v-77.5a6 6 0 0 1 6-6h201a6 6 0 0 1 6 6v77.5z" fill="none" stroke="#fff" stroke-width="10" stroke-miterlimit="10"/><path d="M87.6 154.2L88 206c0 6.5 10 6.5 10 0l-.3-51.8c0-6.4-10-6.4-10 0zm176 0l.3 51.8c0 6.5 10 6.5 10 0l-.3-51.8c0-6.4-10-6.4-10 0zM165.2 204a4 4 0 1 1-8 0 4 4 0 0 1 8 0zm0-13a4 4 0 1 1-8 0 4 4 0 0 1 8 0z" fill="#fff"/><path d="M165 177.3a4 4 0 0 1-4 4h-.7a4 4 0 0 1-4-4v-3.5a4 4 0 0 1 4-4.1h.7a4 4 0 0 1 4 4v3.6z" fill="none" stroke="#fff" stroke-width="5" stroke-miterlimit="10"/><path d="M257.8 170.6c0 4.4-3 8-6.7 8h-65.9c-3.7 0-6.7-3.6-6.7-8v-7.2c0-4.5 3-8.1 6.7-8.1h66c3.6 0 6.6 3.6 6.6 8v7.3zM183.5 194h70.3c6.5 0 6.5-10 0-10h-70.3c-6.5 0-6.5 10 0 10zm0 12h70.3c6.5 0 6.5-10 0-10h-70.3c-6.5 0-6.5 10 0 10z" fill="#fff"/></svg>