<svg xmlns="http://www.w3.org/2000/svg" width="361" height="361"><path d="M238 280c0 3-3 6-6 6H128c-4 0-6-3-6-6V82c0-4 2-7 5-7h105c3 0 6 3 6 7v198z" fill="none" stroke="#fff" stroke-width="10" stroke-miterlimit="10"/><path d="M237 105c0 3-3 6-6 6H129c-3 0-5-3-5-6V82c0-4 3-6 5-6h102c3 0 6 2 6 6v23zm-28-13c0-3-2-6-5-6h-46c-3 0-5 3-5 6v3c0 3 2 6 5 6h46c3 0 5-3 5-6v-3z" fill="#fff" stroke="#fff" stroke-width="10" stroke-miterlimit="10"/><path d="M233 248H126c-3 0-6 3-6 6v25c1 3 3 6 6 6h107c3 0 5-3 5-6v-25c0-3-2-6-5-6zm-45 23a3 3 0 0 1-3 2h-9a3 3 0 0 1-2-2v-9a3 3 0 0 1 3-2h8a3 3 0 0 1 3 2v9z" fill="#fff"/></svg>