<svg xmlns="http://www.w3.org/2000/svg" width="361" height="361"><path d="M287 219a6 6 0 0 1-6 6H80a6 6 0 0 1-6-6v-78a6 6 0 0 1 6-6h201a6 6 0 0 1 6 6v78z" fill="none" stroke="#fff" stroke-width="10" stroke-miterlimit="10"/><path d="M88 154v52c0 7 10 7 10 0v-52c0-6-10-6-10 0zm176 0v52c0 7 10 7 10 0v-52c0-6-10-6-10 0zm-99 50a4 4 0 1 1-8 0 4 4 0 0 1 8 0zm0-13a4 4 0 1 1-8 0 4 4 0 0 1 8 0z" fill="#fff"/><path d="M165 177a4 4 0 0 1-4 4h-1a4 4 0 0 1-4-4v-3a4 4 0 0 1 4-4h1a4 4 0 0 1 4 4v3z" fill="none" stroke="#fff" stroke-width="5" stroke-miterlimit="10"/><path d="M258 171c0 4-3 8-7 8h-66c-3 0-6-4-6-8v-8c0-4 3-8 6-8h66c4 0 7 4 7 8v8zm-74 23h70c6 0 6-10 0-10h-70c-7 0-7 10 0 10zm0 12h70c6 0 6-10 0-10h-70c-7 0-7 10 0 10z" fill="#fff"/></svg>