<svg xmlns="http://www.w3.org/2000/svg" width="361" height="361"><path d="M232.7 283.5l-113-68.7c-5.6-3.4-10.6 5.3-5.1 8.6l113 68.8c5.6 3.3 10.6-5.3 5-8.7zM100 236.3a4.3 4.3 0 0 1-4.5-4l-1.7-33a4.3 4.3 0 0 1 4-4.6l5.8-.3a4.3 4.3 0 0 1 4.5 4l1.8 33.1a4.3 4.3 0 0 1-4 4.5l-5.9.3z" fill="#fff"/><path d="M129.3 206.4a3.6 3.6 0 0 1-3.4 3.7l-18 1a3.6 3.6 0 0 1-3.8-3.4l-.3-4.8a3.6 3.6 0 0 1 3.4-3.8l18.1-1a3.6 3.6 0 0 1 3.8 3.4l.2 4.9z" fill="#fff"/><path d="M114 226.8c-1.7 0-3.2-1.7-3.3-4l-1.1-20.5c-.1-2.3 1.2-4.2 3-4.3l4.1-.2c1.8-.1 3.3 1.7 3.4 4l1 20.5c.2 2.3-1.1 4.2-2.8 4.3l-4.3.2zm113.5-51.3a397.5 397.5 0 0 0-10.3 81.8c0 11 .3 34.4 15.6 36 14.3 1.4 23-20.8 27.3-31a423 423 0 0 0 23-80.5c5-25.3 9.4-51.5 9-77.3 0-11-.7-33.3-15.6-34.8-13.6-1.4-22 18.9-26.3 28.6a394.8 394.8 0 0 0-22.7 77.2c-1.4 6.3 8.3 9 9.6 2.6 5.6-26.4 12-53.5 23.3-78.2a53 53 0 0 1 12.4-19c3-2.5 4.2-1.6 6 2 3.5 6.6 3.3 15.6 3.4 22.8a269 269 0 0 1-2.7 37 550 550 0 0 1-19.2 89.4 170.8 170.8 0 0 1-18 43.2c-1.8 2.9-5 6.9-7.5 7.8-1 .4-1.6.2-1.8.1-1.2-.5-1.7-1.4-2.5-3.1a36.3 36.3 0 0 1-3-14.6c-.6-7.7-.4-15.5.1-23.1 1.3-21.6 5.1-43.1 9.5-64.3 1.3-6.3-8.3-9-9.6-2.6z" fill="#fff"/></svg>