<svg xmlns="http://www.w3.org/2000/svg" width="361" height="361"><path d="M233 284l-113-69c-6-4-11 5-5 8l113 69c5 3 10-5 5-9zm-133-48a4 4 0 0 1-4-4l-2-33a4 4 0 0 1 4-4l6-1a4 4 0 0 1 4 4l2 34a4 4 0 0 1-4 4h-6z" fill="#fff"/><path d="M129 206a4 4 0 0 1-3 4l-18 1a4 4 0 0 1-4-3v-5a4 4 0 0 1 3-4l18-1a4 4 0 0 1 4 3v5z" fill="#fff"/><path d="M114 227c-2 0-3-2-3-4l-1-21c0-2 1-4 3-4h4c2 0 3 2 3 4l1 20c0 3-1 5-3 5h-4zm114-51a398 398 0 0 0-11 81c0 11 0 35 16 36 14 2 23-20 27-31a423 423 0 0 0 23-80c5-25 9-52 9-77 0-11-1-34-16-35-13-2-22 19-26 28a395 395 0 0 0-23 78c-1 6 9 9 10 2 6-26 12-53 23-78a53 53 0 0 1 13-19c3-3 4-2 6 2 3 6 3 15 3 23a269 269 0 0 1-3 37 550 550 0 0 1-19 89 171 171 0 0 1-18 43l-7 8h-2l-3-3a36 36 0 0 1-3-14l1-24c1-21 5-43 9-64 1-6-8-9-10-2z" fill="#fff"/></svg>