<svg xmlns="http://www.w3.org/2000/svg" width="361" height="361"><path d="M238 279.6c0 3.5-2.6 6.4-5.8 6.4H127.5c-3.2 0-5.9-2.9-5.9-6.4V81.7c0-3.5 2.7-6.4 5.9-6.4h104.7c3.2 0 5.8 2.9 5.8 6.4v198z" fill="none" stroke="#fff" stroke-width="10" stroke-miterlimit="10"/><path d="M236.8 105c0 3.3-2.4 6-5.4 6h-102c-3 0-5.4-2.7-5.4-6V81.7c0-3.4 2.5-6 5.4-6h102c3 0 5.4 2.6 5.4 6V105zm-27.6-12.7c0-3.3-2.4-6-5.4-6h-45.6c-3 0-5.4 2.7-5.4 6V95c0 3.3 2.5 6 5.4 6h45.6c3 0 5.4-2.7 5.4-6v-2.7z" fill="#fff" stroke="#fff" stroke-width="10" stroke-miterlimit="10"/><path d="M232.7 248H126.1c-3 0-5.6 2.9-5.6 6.4v24.3c0 3.5 2.5 6.3 5.7 6.3h106.5c3.2 0 5.7-2.8 5.7-6.3v-24.3c0-3.5-2.6-6.3-5.7-6.3zm-45 22.6a2.6 2.6 0 0 1-2.5 2.6h-8.7a2.6 2.6 0 0 1-2.6-2.6V262a2.6 2.6 0 0 1 2.6-2.5h8.7a2.6 2.6 0 0 1 2.5 2.5v8.7z" fill="#fff"/></svg>