<svg xmlns="http://www.w3.org/2000/svg" width="361" height="361"><path d="M287 232a7 7 0 0 1-6 6H82a7 7 0 0 1-6-6V105a7 7 0 0 1 6-6h199a7 7 0 0 1 6 6v127z" fill="none" stroke="#fff" stroke-width="10" stroke-miterlimit="10"/><path d="M286 231c0 2-2 4-6 4H82c-3 0-6-2-6-4v-3c0-2 3-3 6-3h198c4 0 6 1 6 3v4z" fill="#fff" stroke="#fff" stroke-width="10" stroke-miterlimit="10"/><path d="M187 257a6 6 0 0 1-6 6h-1a6 6 0 0 1-6-6v-19a6 6 0 0 1 6-6h1a6 6 0 0 1 6 6v19z" fill="#fff" stroke="#fff" stroke-width="10" stroke-miterlimit="10"/><path d="M111 268h140c6 0 6-10 0-10H111c-6 0-6 10 0 10z" fill="#fff"/></svg>