<svg xmlns="http://www.w3.org/2000/svg" width="361" height="361"><path d="M248 266c0 3-2 5-6 5H122c-4 0-6-2-6-5v-92c0-3 2-5 6-5h120c4 0 6 2 6 5v92z" fill="none" stroke="#fff" stroke-width="10" stroke-miterlimit="10"/><path d="M214 192v56c0 7 10 7 10 0v-56c0-6-10-6-10 0z" fill="#fff"/><path d="M144 255h75c7 0 7-10 0-10h-75c-7 0-7 10 0 10zm0-20h74c7 0 7-10 0-10h-74c-7 0-7 10 0 10z" fill="#fff"/><path d="M189 192v56c0 7 10 7 10 0v-56c0-6-10-6-10 0zm-51 0v56c0 7 10 7 10 0v-56c0-6-10-6-10 0zm26 0v56c0 7 10 7 10 0v-56c0-6-10-6-10 0z" fill="#fff"/><path d="M144 195h75c7 0 7-10 0-10h-75c-7 0-7 10 0 10zm0 20h75c6 0 6-10 0-10h-75c-7 0-7 10 0 10z" fill="#fff"/><path d="M281 99c-16-3-34-5-50-6l-49-1h-2l-50 1c-15 1-34 2-49 6-3 0-6 2-6 5v39c0 2 2 4 6 4h44c12-1 9-16 15-21 3-2 8-2 11-2h60c3 0 8 0 10 2 7 5 3 20 16 22h44c3 0 6-3 6-5v-39c0-3-3-5-6-5zm-67 64a6 6 0 0 1-6 6h-53a6 6 0 0 1-6-6v-10a6 6 0 0 1 6-5h53a6 6 0 0 1 6 5v10z" fill="none" stroke="#fff" stroke-width="10" stroke-miterlimit="10"/></svg>