<svg xmlns="http://www.w3.org/2000/svg" width="361" height="361"><path d="M287.3 231.6a6.8 6.8 0 0 1-6.7 6.7H82.3a6.8 6.8 0 0 1-6.7-6.7V105.4a6.8 6.8 0 0 1 6.7-6.7h198.3a6.8 6.8 0 0 1 6.7 6.7v126.2z" fill="none" stroke="#fff" stroke-width="10" stroke-miterlimit="10"/><path d="M286.3 231.4c0 1.8-2.7 3.3-6.1 3.3H82c-3.4 0-6.2-1.5-6.2-3.3V228c0-1.8 2.8-3.2 6.2-3.2h198.2c3.4 0 6.1 1.4 6.1 3.2v3.5z" fill="#fff" stroke="#fff" stroke-width="10" stroke-miterlimit="10"/><path d="M186.8 256.7a6 6 0 0 1-6 6h-.5a6 6 0 0 1-6-6v-19a6 6 0 0 1 6-6h.5a6 6 0 0 1 6 6v19z" fill="#fff" stroke="#fff" stroke-width="10" stroke-miterlimit="10"/><path d="M111.3 268.2h139.5c6.5 0 6.5-10 0-10H111.3c-6.4 0-6.4 10 0 10z" fill="#fff"/></svg>