<svg xmlns="http://www.w3.org/2000/svg" width="361" height="361"><path d="M248.3 265.6c0 3-2.7 5.5-6 5.5H121.5c-3.4 0-6-2.5-6-5.5v-91.4c0-3 2.6-5.5 6-5.5h120.8c3.3 0 6 2.5 6 5.5v91.4z" fill="none" stroke="#fff" stroke-width="10" stroke-miterlimit="10"/><path d="M214.3 192.2v56.2c0 6.4 10 6.4 10 0v-56.2c0-6.5-10-6.5-10 0z" fill="#fff"/><path d="M143.6 254.8h75.7c6.5 0 6.5-10 0-10h-75.7c-6.4 0-6.4 10 0 10zm.1-19.8h74.6c6.4 0 6.4-10 0-10h-74.5c-6.5 0-6.5 10 0 10z" fill="#fff"/><path d="M189 192.2v56.2c0 6.4 10 6.4 10 0v-56.2c0-6.5-10-6.5-10 0zm-50.7 0v56.2c0 6.4 10 6.4 10 0v-56.2c0-6.5-10-6.5-10 0zm25.4 0v56.2c0 6.4 10 6.4 10 0v-56.2c0-6.5-10-6.5-10 0z" fill="#fff"/><path d="M143.5 195.3h75.8c6.5 0 6.5-10 0-10h-75.8c-6.5 0-6.5 10 0 10zm0 19.9h75.4c6.4 0 6.4-10 0-10h-75.4c-6.5 0-6.5 10 0 10z" fill="#fff"/><path d="M281 98.7c-15.7-3.2-34.1-4.6-49.7-5.9-9.3-.7-42.3-.8-49.7-.8H180c-7.4 0-40.4.1-49.7.8-15.6 1.3-34 2.7-49.7 5.9-3.1.6-5.9 2.2-5.9 4.8v39.1c0 2.7 2.7 4.9 5.9 4.9h44c12.8-1.3 9.4-16.3 15.8-21.8 2.2-1.8 7.3-1.6 10.4-1.6h59.8c3.1 0 8.3-.2 10.5 1.6 6.4 5.5 3 20.5 15.8 21.8h44c3.2 0 5.8-2.2 5.8-4.9v-39c0-2.7-2.7-4.3-5.8-5zM214 163a5.7 5.7 0 0 1-5.7 5.7h-53.8a5.7 5.7 0 0 1-5.7-5.7v-9.7a5.7 5.7 0 0 1 5.7-5.6h53.8a5.7 5.7 0 0 1 5.6 5.6v9.7z" fill="none" stroke="#fff" stroke-width="10" stroke-miterlimit="10"/></svg>