<svg xmlns="http://www.w3.org/2000/svg" width="361" height="361"><path d="M194 281a6 6 0 0 1-6 6H81a6 6 0 0 1-6-6V119a6 6 0 0 1 6-6h107a6 6 0 0 1 6 6v162z" fill="none" stroke="#fff" stroke-width="10"/><path d="M93 136h82c7 0 7-10 0-10H93c-6 0-6 10 0 10zm0 17h82c7 0 7-10 0-10H93c-6 0-6 10 0 10zm0 17h82c7 0 7-10 0-10H93c-6 0-6 10 0 10z" fill="#fff"/><g fill="none" stroke="#fff" stroke-width="10" stroke-linejoin="round"><path d="M265 265v22c-15 0-29-10-29-22s14-21 28-21v21z"/><path d="M287 251h-22m22 28h-22" stroke-linecap="round"/></g><path d="M193 179s24 2 22 24c-2 18-6 22-8 38-2 21 18 24 27 24" fill="none" stroke="#fff" stroke-width="10" stroke-linejoin="round"/><path d="M173 186h-7v-2a3 3 0 0 0-2-3h-6a3 3 0 0 0-3 3v2h-41v-2a3 3 0 0 0-3-3h-6a3 3 0 0 0-3 3v2h-6a7 7 0 0 0-7 7v74a7 7 0 0 0 7 7h77a7 7 0 0 0 7-7v-74a7 7 0 0 0-7-7zm-24 16l-7 23 4 4a4 4 0 0 1 1 5l-21 22a4 4 0 0 1-5 1 4 4 0 0 1-1-4l7-23-5-4a4 4 0 0 1 0-5l21-22a4 4 0 0 1 6 3zm-217 42h78m221-116l30-53h-6a1438585 1438585 0 0 1 30 53l3-5h-60c-4 0-4 7 0 7h60c3 0 5-3 3-5a1438585 1438585 0 0 1-30-54c-1-2-4-2-6 0l-30 54c-2 4 4 7 6 3z" fill="#fff"/><path d="M262 114l-1 3a3 3 0 0 1-5 0 3 3 0 0 1-1-3l1-2 3-1 2 1a3 3 0 0 1 1 2zm-1-16v6a102 102 0 0 1 0 5h-4a119 119 0 0 1-1-5 62 62 0 0 1 0-6v-6h5v6z" fill="#fff"/></svg>