<svg xmlns="http://www.w3.org/2000/svg" width="361" height="361"><path d="M193.7 281.2a6 6 0 0 1-6 6H81.2a6 6 0 0 1-6-6v-162a6 6 0 0 1 6-6h106.5a6 6 0 0 1 6 6v162z" fill="none" stroke="#fff" stroke-width="10"/><path d="M93.4 135.7h82c6.4 0 6.4-10 0-10h-82c-6.5 0-6.5 10 0 10zm0 17h82c6.4 0 6.4-10 0-10h-82c-6.5 0-6.5 10 0 10zm0 17h82c6.4 0 6.4-10 0-10h-82c-6.5 0-6.5 10 0 10z" fill="#fff"/><g fill="none" stroke="#fff" stroke-width="10" stroke-linejoin="round"><path d="M264.5 265.3v21.2c-14.3 0-28.4-9.5-28.4-21.2s14.1-21.2 28.4-21.2v21.2z"/><path d="M286.5 251.1h-22m22 28.4h-22" stroke-linecap="round"/></g><path d="M193.3 179.2s24.1 1.5 21.5 24c-2 17.5-5.5 22-7.5 37.5-2.7 21.3 17.7 24 27 24" fill="none" stroke="#fff" stroke-width="10" stroke-linejoin="round"/><path d="M173 186.1h-6.6v-2.5a2.8 2.8 0 0 0-2.8-2.7h-6a2.8 2.8 0 0 0-2.7 2.7v2.5h-41v-2.5a2.8 2.8 0 0 0-2.8-2.7h-6a2.8 2.8 0 0 0-2.7 2.7v2.5H96a7.1 7.1 0 0 0-7.2 7.1V267a7.1 7.1 0 0 0 7.2 7h77a7.1 7.1 0 0 0 7.1-7.1v-73.8a7.1 7.1 0 0 0-7.1-7.1zm-23.8 16.2l-7 22.4 4.3 4a3.5 3.5 0 0 1 .1 5l-21 22.4a3.5 3.5 0 0 1-4.3.6 3.5 3.5 0 0 1-1.6-4l6.9-22.4-4.2-4a3.5 3.5 0 0 1-.2-5l21-22.4a3.5 3.5 0 0 1 6 3.4zm-216.8 41.8H9.5m221.9-115.7l30-53.5h-6a1438584.7 1438584.7 0 0 1 30 53.5l3-5.2h-60c-4.6 0-4.6 7 0 7h60c2.7 0 4.3-3 3-5.3a1438584.7 1438584.7 0 0 1-30-53.5c-1.3-2.3-4.8-2.3-6 0l-30 53.5c-2.3 4 3.7 7.5 6 3.5z" fill="#fff"/><path d="M261.8 114.4c0 1-.3 1.9-1 2.5a3.4 3.4 0 0 1-4.7 0 3.1 3.1 0 0 1-1-2.5c0-1.1.4-2 1-2.5s1.5-1 2.4-1c.8 0 1.6.4 2.3 1a3.1 3.1 0 0 1 1 2.5zm-.5-16c0 2 0 3.8-.2 5.5a101.7 101.7 0 0 1-.6 5.2h-4a118.9 118.9 0 0 1-.6-5.2 62 62 0 0 1-.3-5.6v-6.6h5.7v6.6z" fill="#fff"/></svg>