<svg xmlns="http://www.w3.org/2000/svg" width="361" height="361"><path d="M194 281a6 6 0 0 1-6 6H81a6 6 0 0 1-6-6V119a6 6 0 0 1 6-6h107a6 6 0 0 1 6 6v162z" fill="none" stroke="#fff" stroke-width="10"/><path d="M93 136h82c7 0 7-10 0-10H93c-6 0-6 10 0 10zm0 17h82c7 0 7-10 0-10H93c-6 0-6 10 0 10zm0 17h82c7 0 7-10 0-10H93c-6 0-6 10 0 10z" fill="#fff"/><g fill="none" stroke="#fff" stroke-width="10" stroke-linejoin="round"><path d="M265 265v22c-15 0-29-10-29-22s14-21 28-21v21z"/><path d="M287 251h-22m22 28h-22" stroke-linecap="round"/></g><path d="M193 179s24 2 22 24c-2 18-6 22-8 38-2 21 18 24 27 24" fill="none" stroke="#fff" stroke-width="10" stroke-linejoin="round"/><path d="M173 186h-7v-2a3 3 0 0 0-2-3h-6a3 3 0 0 0-3 3v2h-41v-2a3 3 0 0 0-3-3h-6a3 3 0 0 0-3 3v2h-6a7 7 0 0 0-7 7v74a7 7 0 0 0 7 7h77a7 7 0 0 0 7-7v-74a7 7 0 0 0-7-7zm-24 16l-7 23 4 4a4 4 0 0 1 1 5l-21 22a4 4 0 0 1-5 1 4 4 0 0 1-1-4l7-23-5-4a4 4 0 0 1 0-5l21-22a4 4 0 0 1 6 3zM269 83c7 0 16-1 16 9v38c0 8-7 8-13 8h-23c-5 0-13 1-17-3-3-3-2-13-2-17V95c0-3 0-6 2-9 3-4 10-3 14-3 5 0 5-7 0-7-7 0-16-1-20 7-3 5-3 11-3 16v23c0 6-1 12 3 17 5 6 11 6 17 6h23l16-1c8-3 10-10 10-17V94c0-6-1-10-5-14-5-5-12-4-18-4-4 0-4 7 0 7z" fill="#fff"/><path d="M254 74v37c0 5 7 5 7 0V74c0-5-7-5-7 0z" fill="#fff"/></svg>