<svg xmlns="http://www.w3.org/2000/svg" width="361" height="361"><path d="M193.7 281.2a6 6 0 0 1-6 6H81.2a6 6 0 0 1-6-6v-162a6 6 0 0 1 6-6h106.5a6 6 0 0 1 6 6v162z" fill="none" stroke="#fff" stroke-width="10"/><path d="M93.4 135.7h82c6.4 0 6.4-10 0-10h-82c-6.5 0-6.5 10 0 10zm0 17h82c6.4 0 6.4-10 0-10h-82c-6.5 0-6.5 10 0 10zm0 17h82c6.4 0 6.4-10 0-10h-82c-6.5 0-6.5 10 0 10z" fill="#fff"/><g fill="none" stroke="#fff" stroke-width="10" stroke-linejoin="round"><path d="M264.5 265.3v21.2c-14.3 0-28.4-9.5-28.4-21.2s14.1-21.2 28.4-21.2v21.2z"/><path d="M286.5 251.1h-22m22 28.4h-22" stroke-linecap="round"/></g><path d="M193.3 179.2s24.1 1.5 21.5 24c-2 17.5-5.5 22-7.5 37.5-2.7 21.3 17.7 24 27 24" fill="none" stroke="#fff" stroke-width="10" stroke-linejoin="round"/><path d="M173 186.1h-6.6v-2.5a2.8 2.8 0 0 0-2.8-2.7h-6a2.8 2.8 0 0 0-2.7 2.7v2.5h-41v-2.5a2.8 2.8 0 0 0-2.8-2.7h-6a2.8 2.8 0 0 0-2.7 2.7v2.5H96a7.1 7.1 0 0 0-7.2 7.1V267a7.1 7.1 0 0 0 7.2 7h77a7.1 7.1 0 0 0 7.1-7.1v-73.8a7.1 7.1 0 0 0-7.1-7.1zm-23.8 16.2l-7 22.4 4.3 4a3.5 3.5 0 0 1 .1 5l-21 22.4a3.5 3.5 0 0 1-4.3.6 3.5 3.5 0 0 1-1.6-4l6.9-22.4-4.2-4a3.5 3.5 0 0 1-.2-5l21-22.4a3.5 3.5 0 0 1 6 3.4zM269.3 83c6.9 0 15.5-.8 15.5 8.7v37.8c0 8-7.2 8-13 8h-22.9c-5.3 0-12.8 1.4-16.9-2.6-3.3-3.4-1.7-12.8-1.7-17V95.4c0-3.3-.5-6.8 1.7-9.6 3-3.9 9.6-2.7 14-2.7 4.5 0 4.5-7 0-7-7.3 0-15.8-.8-20.3 6.5-3.1 5-2.4 10.9-2.4 16.6v23.2c0 5.6-.8 11.8 3 16.5 4.4 5.7 10.5 5.8 17 5.8H266c5.2 0 11 .7 16-1 7.5-2.3 9.7-9.6 9.7-16.5V93.5c0-5.2-.8-9.8-4.7-13.7-4.7-4.7-11.8-3.8-17.8-3.8-4.5 0-4.5 7 0 7z" fill="#fff"/><path d="M254.2 73.8v37.6c0 4.5 7 4.5 7 0V73.8c0-4.5-7-4.5-7 0z" fill="#fff"/></svg>