<svg xmlns="http://www.w3.org/2000/svg" width="361" height="361"><path d="M148 118a39 39 0 0 0 0 54c4 4 11-3 7-7a28 28 0 0 1 0-40c4-5-3-12-7-7z" fill="#fff"/><path d="M132 102a61 61 0 0 0 0 86c5 4 12-3 7-7a51 51 0 0 1 0-72c5-5-3-12-7-7z" fill="#fff"/><path d="M117 86a84 84 0 0 0 0 117c4 5 11-2 7-7a73 73 0 0 1 0-103c4-4-3-11-7-7z" fill="#fff"/><path d="M101 72a105 105 0 0 0-30 73 104 104 0 0 0 30 73c4 5 11-2 7-7a94 94 0 0 1 0-132c4-5-3-12-7-7zm100 211c0 5-3 8-6 8h-7c-3 0-6-3-6-8V125c0-5 3-8 6-8h7c3 0 6 3 6 8v158z" fill="#fff"/><path d="M209 134c0 3-2 5-4 5h-27a5 5 0 0 1-5-5v-5c0-3 2-5 5-5h27c2 0 4 2 4 5v5zm7 18c0 2-3 5-6 5h-37c-4 0-6-3-6-5v-6c0-3 2-5 6-5h37c3 0 6 2 6 5v6zm3 18c0 3-3 5-7 5h-40c-4 0-7-2-7-5v-5c0-3 3-5 7-5h40c4 0 7 2 7 5v5z" fill="#fff"/><path fill="#fff" d="M175 284l16-122 17 122z"/><path d="M183 284l16-122-15 2 16 122 7-10h-32c-10 1-10 16 0 16h32c6 0 8-5 8-10l-16-122c-1-3-5-5-8-5-4 0-7 3-7 7l-16 122c-1 4 3 8 7 8 5 0 7-4 8-8z" fill="#fff"/></svg>