<svg xmlns="http://www.w3.org/2000/svg" width="361" height="361"><path d="M147.6 118a38.5 38.5 0 0 0 0 53.6c4.5 4.7 11.6-2.4 7.1-7a28.3 28.3 0 0 1 0-39.5c4.5-4.7-2.6-11.7-7-7z" fill="#fff"/><path d="M132 102a61.4 61.4 0 0 0 0 85.7c4.5 4.7 11.6-2.4 7.1-7a51.2 51.2 0 0 1 0-71.6c4.5-4.7-2.6-11.7-7-7.1z" fill="#fff"/><path d="M116.6 86.3a83.6 83.6 0 0 0 0 116.9c4.5 4.6 11.6-2.5 7-7a73.4 73.4 0 0 1 0-102.8c4.6-4.6-2.5-11.7-7-7z" fill="#fff"/><path d="M100.8 71.8A105 105 0 0 0 70.5 145a104 104 0 0 0 30.3 73.2c4.6 4.6 11.6-2.5 7-7.1a94.4 94.4 0 0 1 0-132.2c4.6-4.6-2.5-11.7-7-7.1zm100 211.6c0 4.2-2.6 7.6-5.8 7.6h-7.2c-3.2 0-5.8-3.4-5.8-7.6V124.6c0-4.2 2.6-7.6 5.8-7.6h7.2c3.2 0 5.8 3.4 5.8 7.6v158.8z" fill="#fff"/><path d="M209.4 134c0 2.8-2 5-4.7 5H178a4.8 4.8 0 0 1-4.7-5v-5.5c0-2.8 2.1-5 4.7-5h26.7c2.6 0 4.7 2.2 4.7 5v5.5zm7 17.7c0 2.7-3 5-6.6 5H173c-3.6 0-6.5-2.3-6.5-5v-5.5c0-2.8 2.9-5 6.5-5h36.8c3.6 0 6.5 2.2 6.5 5v5.5zm2.4 18.4c0 2.8-3.1 5-7 5h-39.7c-4 0-7-2.3-7-5v-5.5c0-2.8 3-5 7-5h39.7c3.9 0 7 2.2 7 5v5.5z" fill="#fff"/><path fill="#fff" d="M175.2 284l16.1-121.7L207.5 284z"/><path d="M182.7 284l16.1-121.6-14.7 1.9 16.1 121.6 7.3-9.4h-32.3c-9.7 0-9.7 15 0 15h32.2c5.4 0 8-4.7 7.3-9.4l-16.1-121.7c-.5-3.3-4.2-5.6-7.2-5.6-4.5 0-7 3.4-7.6 7.5l-16.1 121.6c-.6 4.1 3.7 7.6 7.4 7.6 4.5 0 7-3.4 7.6-7.5z" fill="#fff"/></svg>