<svg xmlns="http://www.w3.org/2000/svg" width="361" height="361"><path d="M193 164a4 4 0 0 1-5 4h-14a4 4 0 0 1-4-5v-11a4 4 0 0 1 4-4h14a4 4 0 0 1 5 4v12z" fill="none" stroke="#fff" stroke-width="10" stroke-miterlimit="10"/><path d="M146 135a32 32 0 0 0 0 44c4 5 11-2 7-7a21 21 0 0 1 0-30c4-4-3-11-7-7z" fill="#fff"/><path d="M132 117a58 58 0 0 0 0 81c4 5 11-2 7-7a48 48 0 0 1 0-67c4-5-3-12-7-7z" fill="#fff"/><path d="M116 103a79 79 0 0 0 0 111c4 5 11-2 7-7a69 69 0 0 1 0-97c4-4-3-11-7-7z" fill="#fff"/><path d="M99 90a98 98 0 0 0-28 68 97 97 0 0 0 28 68c4 5 11-2 7-7a87 87 0 0 1 0-122c4-4-3-11-7-7zm111 52a21 21 0 0 1 0 30c-4 5 3 12 7 7a32 32 0 0 0 0-44c-4-5-11 3-7 7z" fill="#fff"/><path d="M224 124a48 48 0 0 1 0 67c-4 5 3 12 7 7a58 58 0 0 0 0-81c-4-5-11 2-7 7z" fill="#fff"/><path d="M240 111a69 69 0 0 1 0 96c-4 5 3 12 7 7 30-31 30-80 0-111-4-4-11 3-7 7z" fill="#fff"/><path d="M257 98a87 87 0 0 1 0 121c-4 5 3 12 7 7a98 98 0 0 0 28-68 97 97 0 0 0-28-68c-4-4-11 3-7 7zm-81 76v114c0 6 10 6 10 0V174c0-6-10-6-10 0z" fill="#fff"/></svg>