<svg xmlns="http://www.w3.org/2000/svg" width="361" height="361"><path d="M192.6 163.5a4.1 4.1 0 0 1-4.2 4.2H174a4.1 4.1 0 0 1-4.2-4.2v-11.7a4.1 4.1 0 0 1 4.2-4.1h14.4a4.1 4.1 0 0 1 4.2 4.1v11.7z" fill="none" stroke="#fff" stroke-width="10" stroke-miterlimit="10"/><path d="M145.8 135.3a31.5 31.5 0 0 0 0 43.8c4.4 4.7 11.5-2.4 7-7a21.3 21.3 0 0 1 0-29.8c4.5-4.7-2.6-11.7-7-7z" fill="#fff"/><path d="M131.6 116.8a58.2 58.2 0 0 0 0 81.3c4.5 4.6 11.5-2.5 7-7.1a48 48 0 0 1 0-67.2c4.5-4.6-2.5-11.7-7-7z" fill="#fff"/><path d="M115.5 103.4c-30 30.7-30 80 0 110.7 4.6 4.6 11.6-2.5 7.1-7a69 69 0 0 1 0-96.7c4.5-4.6-2.5-11.6-7-7z" fill="#fff"/><path d="M98.5 90.4a97.5 97.5 0 0 0-28 67.8 96.6 96.6 0 0 0 28 67.9c4.6 4.6 11.6-2.5 7.1-7a86.8 86.8 0 0 1 0-121.7c4.5-4.6-2.5-11.6-7-7zm111.4 52a21.3 21.3 0 0 1 0 29.6c-4.4 4.7 2.6 11.8 7 7a31.5 31.5 0 0 0 0-43.8c-4.4-4.7-11.4 2.4-7 7.1z" fill="#fff"/><path d="M224.1 123.8a48 48 0 0 1 0 67.2c-4.5 4.6 2.6 11.7 7.1 7a58.2 58.2 0 0 0 0-81.2c-4.5-4.7-11.6 2.4-7 7z" fill="#fff"/><path d="M240.1 110.5a69 69 0 0 1 0 96.5c-4.5 4.6 2.6 11.7 7.1 7 30-30.6 30-80 0-110.6-4.5-4.6-11.6 2.4-7 7z" fill="#fff"/><path d="M257.1 97.5a86.7 86.7 0 0 1 0 121.5c-4.5 4.6 2.6 11.7 7.1 7a97.5 97.5 0 0 0 28.1-67.8 96.5 96.5 0 0 0-28-67.8c-4.6-4.6-11.7 2.4-7.2 7zm-81.3 76.7v113.5c0 6.4 10 6.4 10 0V174.2c0-6.5-10-6.5-10 0z" fill="#fff"/></svg>