<svg xmlns="http://www.w3.org/2000/svg" width="361" height="361"><path d="M83.8 260.4l26.8 4.6c4.4.7 6.3-6 1.9-6.8l-26.8-4.5c-4.4-.8-6.3 6-1.9 6.7zm.3 9.6l26.8 4.6c4.4.8 6.3-6 1.8-6.8L86 263.4c-4.4-.8-6.3 6-1.9 6.7zm0 9.4L111 284c4.4.7 6.3-6 1.8-6.8L86 272.6c-4.4-.7-6.3 6-1.9 6.8zm5.7 10l15 2.5c4.4.8 6.3-6 1.9-6.7l-15-2.6c-4.4-.8-6.3 6-1.9 6.8z" fill="#fff"/><path d="M120.8 234.5c0 7.5-6.1 13.6-13.7 13.6H89a13.7 13.7 0 0 1-13.7-13.6v-48.6c0-7.5 6.2-13.7 13.7-13.7h18.2c7.6 0 13.7 6.2 13.7 13.7v48.6z" fill="none" stroke="#fff" stroke-width="10" stroke-miterlimit="10"/><path d="M152.1 88.2H80.7c-2.5 0-3.6-1.3-3.6-3.8 0-1.6-1-7.6 2-7.6h203.5c3 0 1.9 6.9 1.9 8.4 0 3.7-3.5 3-6 3H251c-4.5 0-4.5 7 0 7h22.6c7 0 14.8 1.3 17.6-6.7 1-2.6.3-6.5.3-9.2 0-4.6-2.5-7.7-6.7-9.2-1.6-.6-3.9-.3-5.5-.3H79.4c-6.4 0-9.3 5.1-9.3 10.9 0 6.2 0 11.8 6.8 14.3 3.4 1.2 8.6.2 12.1.2h63.1c4.5 0 4.5-7 0-7z" fill="#fff"/><path d="M216.8 88.2h-32.5c-4.5 0-4.5 7 0 7h32.5c4.6 0 4.6-7 0-7zm41.8 39l-5.2-17.4c-1.4-4.3-8.1-2.4-6.8 1.9L252 129c1.3 4.3 8 2.5 6.7-1.9zm-21.5 3.3v-17.8c0-4.5-7-4.5-7 0v17.8c0 4.5 7 4.5 7 0zm-21.8-1.5l5.3-17.3c1.3-4.3-5.5-6.2-6.8-1.9l-5.3 17.3c-1.3 4.4 5.5 6.2 6.8 1.9zm-21.7-.9l-5.3-17.3c-1.3-4.3-8-2.4-6.8 1.9l5.3 17.3c1.3 4.3 8 2.4 6.8-1.9zm-21.6 3.4v-17.8c0-4.5-7-4.5-7 0v17.8c0 4.5 7 4.5 7 0zm-21.8-1.5l5.3-17.3c1.3-4.3-5.4-6.2-6.8-1.9l-5.2 17.3c-1.4 4.3 5.4 6.2 6.7 1.9zm-1.7-33.3h9.5c2 0 2-3 0-3h-9.5c-2 0-2 3 0 3z" fill="#fff"/><path d="M247.6 91.3c-.7 3.2-10.2 3.2-12.2 3.3a32 32 0 0 1-15-2.2c-1.9-1 3.6-2.6 4-2.7 3-.7 6.1-.8 9.2-.9 2.3 0 13.2-.2 14 3.3.3 2 3.2 1.1 2.9-.8-1.2-5.7-12.8-5.4-17-5.5-3.4 0-16.8 0-16.8 6 0 5.5 11.7 5.6 15 5.8 4.3.2 17.5.6 18.7-5.5.4-1.9-2.5-2.7-2.9-.8zm-65.1 0c-.6 3.2-10.1 3.2-12.2 3.3-4.8.2-10.5 0-14.9-2.2-2-1 3.5-2.6 3.9-2.7 3-.7 6.1-.8 9.2-.9 2.4 0 13.3-.2 14 3.3.4 2 3.3 1.1 2.9-.8-1.2-5.7-12.8-5.4-16.9-5.5-3.5 0-17 0-17 6 0 5.5 11.8 5.6 15.2 5.8 4.2.2 17.5.6 18.7-5.5.4-1.9-2.5-2.7-3-.8z" fill="#fff"/><path d="M180.7 96.7h9.4c2 0 2-3 0-3h-9.4c-2 0-2 3 0 3zm32 0h9.5c2 0 2-3 0-3h-9.4c-2 0-2 3 0 3zm32.2 0h9.5c2 0 2-3 0-3h-9.5c-2 0-2 3 0 3z" fill="#fff"/></svg>