<svg xmlns="http://www.w3.org/2000/svg" width="361" height="361"><path d="M84 163l27 4c4 1 6-6 1-6l-26-5c-5-1-7 6-2 7zm0 10l27 4c4 1 6-6 2-7l-27-4c-4-1-6 6-2 6zm0 9l27 4c4 1 6-6 2-6l-27-5c-4-1-6 6-2 7zm6 10l15 2c4 1 6-6 2-6l-15-3c-5-1-7 6-2 7z" fill="#fff"/><path d="M121 137c0 7-6 14-14 14H89a14 14 0 0 1-14-14V88c0-7 6-13 14-13h18c8 0 14 6 14 13v49z" fill="none" stroke="#fff" stroke-width="10" stroke-miterlimit="10"/><path fill="#fff" d="M209 190l-1-60 80 60z"/><path d="M214 190l-1-60-7 4 79 61 3-10h-79c-7 0-7 10 0 10h79c5 0 6-6 2-9l-79-60c-3-3-8 1-8 4l1 60c0 7 10 7 10 0z" fill="#fff"/><g fill="#fff"><path d="M208 190v-60l-79 60z"/><path d="M213 190v-60c0-3-4-7-7-4l-79 60c-4 3-3 9 2 9h79c7 0 7-10 0-10h-79l3 10 79-60-8-5v60c0 7 10 7 10 0z"/></g><path d="M274 282c0 3-3 5-7 5H150c-4 0-6-2-6-5v-96c0-3 130-3 130 0v96z" fill="none" stroke="#fff" stroke-width="10" stroke-miterlimit="10"/><path d="M179 228v3l-2 4a29 29 0 0 1-3 3 71 71 0 0 1-3 3 95 95 0 0 0-2 2 31 31 0 0 0-3 4 4 4 0 0 0-1 2h16v6h-24a3 3 0 0 1 0-2v-1l1-5a29 29 0 0 1 6-9 218 218 0 0 0 4-3 25 25 0 0 0 3-4 5 5 0 0 0 1-3l-2-3a5 5 0 0 0-3-2l-4 1-3 3-4-5a15 15 0 0 1 5-4 17 17 0 0 1 7-1l4 1a11 11 0 0 1 4 2 10 10 0 0 1 2 3l1 5zm20 22l-2 4a6 6 0 0 1-6 1 5 5 0 0 1-3-2 6 6 0 0 1 0-3v-2a5 5 0 0 1 2-2 6 6 0 0 1 1-1 6 6 0 0 1 2 0l4 1a5 5 0 0 1 2 4zm6-14c0-6 1-11 4-14 2-3 5-5 9-5 5 0 8 2 10 5 3 3 4 8 4 14s-1 12-4 15a11 11 0 0 1-10 5c-4 0-7-2-10-5s-3-8-3-15zm8 0a39 39 0 0 0 1 10l1 2a4 4 0 0 0 3 1l3-1a7 7 0 0 0 2-3l1-4a58 58 0 0 0 0-10l-1-4-2-3a4 4 0 0 0-3-1l-3 1-1 3-1 4a57 57 0 0 0 0 5zm39-13l-4 1a8 8 0 0 0-3 3l-2 4v5c0 5 0 8 2 10a7 7 0 0 0 6 3 19 19 0 0 0 3 0v-14h7v19a33 33 0 0 1-11 2l-6-2a13 13 0 0 1-5-3 17 17 0 0 1-3-6 30 30 0 0 1-1-9l1-8a18 18 0 0 1 4-6 14 14 0 0 1 5-4 16 16 0 0 1 6-1 21 21 0 0 1 7 1l2 1 1 1-2 6a16 16 0 0 0-3-2l-4-1z" fill="#fff"/></svg>