<svg xmlns="http://www.w3.org/2000/svg" width="361" height="361"><path d="M84 260l27 5c4 1 6-6 1-7l-26-4c-5-1-7 6-2 6zm0 10l27 5c4 0 6-6 2-7l-27-5c-4 0-6 6-2 7zm0 9l27 5c4 1 6-6 2-7l-27-4c-4-1-6 6-2 6zm6 10l15 3c4 1 6-6 2-7l-15-2c-5-1-7 6-2 6z" fill="#fff"/><path d="M121 235c0 7-6 13-14 13H89a14 14 0 0 1-14-14v-48c0-8 6-14 14-14h18c8 0 14 6 14 14v49z" fill="none" stroke="#fff" stroke-width="10" stroke-miterlimit="10"/><path d="M95 88H79c-3 0-3-11 1-11h202c4 0 4 11 0 11h-15c-4 0-4 7 0 7h17c8-1 8-11 7-17-1-9-11-8-17-8H81c-3 0-6 0-9 3-4 4-3 16 1 20 3 3 7 2 11 2h11c5 0 5-7 0-7z" fill="#fff"/><path d="M224 88h-20c-5 0-5 7 0 7h20c4 0 4-7 0-7zm-18 128h11v76h-11v-76zm67 44a276 276 0 0 1 4 6 154 154 0 0 1 6 8 229 229 0 0 1 5 9 92 92 0 0 1 5 9h-11a171 171 0 0 0-5-8 187 187 0 0 0-6-8 168 168 0 0 0-5-8 188 188 0 0 0-4-6l-3 1h-13v29h-11v-75a60 60 0 0 1 10-1l11-1a42 42 0 0 1 24 6c6 4 9 10 9 18 0 5-2 10-4 13a24 24 0 0 1-12 8zm-16-35h-11v29h8l10-1 7-2a11 11 0 0 0 5-4l1-8-1-7a12 12 0 0 0-5-4 20 20 0 0 0-6-3 47 47 0 0 0-8 0z" fill="#fff"/><path d="M265 88c-1 3-6 2-8 2h-26c-3 0-5 0-5-5 0-3 19-1 21-1h13c4 0 5 1 5 5 0 2 3 2 3 0 0-4 0-8-5-8h-32c-3 0-7-1-8 4-1 3 0 8 5 8h31c4 0 8 1 9-4 0-2-3-3-3-1zm-64 0c-1 3-5 2-7 2h-26c-4 0-6 0-6-5 0-3 19-1 22-1h12c4 0 5 1 5 5 0 2 3 2 3 0 0-4 0-8-5-8h-32c-3 0-7-1-8 4 0 3 1 8 5 8h32c3 0 7 1 8-4 0-2-3-3-3-1zm-64 0c0 3-5 2-7 2h-26c-4 0-6 0-6-5 0-3 20-1 22-1h12c4 0 5 1 5 5 0 2 3 2 3 0 0-4 0-8-5-8h-31c-4 0-8-1-9 4 0 3 1 8 5 8h32c3 0 7 1 8-4 0-2-2-3-3-1z" fill="#fff"/><path d="M161 88h-20c-5 0-5 7 0 7h20c4 0 4-7 0-7zm76 52c-3-2-5-5-5-8-1-3 3-6 5-8 6-6 9-14 4-21-3-4-9-1-6 3 3 5 1 9-3 13a39 39 0 0 0-5 6c-5 7-1 15 5 20 3 3 8-2 5-5zm16 0c-2-2-5-5-5-8s3-6 5-8c7-6 9-14 4-21-2-4-8-1-6 3 3 5 1 9-2 13a39 39 0 0 0-5 6c-5 7-2 15 4 20 3 3 8-2 5-5z" fill="#fff"/><g fill="#fff"><path d="M173 140c-2-2-5-5-5-8s3-6 5-8c7-6 9-14 4-21-2-4-8-1-6 3 3 5 1 9-3 13a39 39 0 0 0-5 6c-5 7-1 15 5 20 3 3 8-2 5-5z"/><path d="M189 140c-2-2-5-5-5-8s3-6 5-8c7-6 9-14 4-21-2-4-8-1-6 3 4 5 2 9-2 13a39 39 0 0 0-5 6c-5 7-2 15 4 20 4 3 9-2 5-5z"/></g><g fill="#fff"><path d="M109 140c-2-2-5-5-5-8s3-6 5-8c7-6 9-14 4-21-2-4-8-1-6 3 4 5 2 9-2 13a39 39 0 0 0-5 6c-5 7-2 15 4 20 3 3 8-2 5-5z"/><path d="M125 140l-5-8c0-3 3-6 6-8 6-6 9-14 4-21-3-4-9-1-6 3 3 5 1 9-3 13a39 39 0 0 0-5 6c-5 7-1 15 5 20 3 3 8-2 5-5z"/></g></svg>