<svg xmlns="http://www.w3.org/2000/svg" width="361" height="361"><path d="M84 163l27 5c4 0 6-6 1-7l-26-5c-5-1-7 6-2 7zm0 10l27 4c4 1 6-6 2-7l-27-4c-4-1-6 6-2 7zm0 9l27 5c4 0 6-6 2-7l-27-5c-4-1-6 6-2 7zm6 10l15 3c4 0 6-6 2-7l-15-3c-5-1-7 6-2 7z" fill="#fff"/><path d="M121 137c0 8-6 14-14 14H89a14 14 0 0 1-14-14V89c0-8 6-14 14-14h18c8 0 14 6 14 13v49z" fill="none" stroke="#fff" stroke-width="10" stroke-miterlimit="10"/><g fill="none" stroke="#fff" stroke-width="10" stroke-linecap="round" stroke-linejoin="round" stroke-miterlimit="10"><path d="M144 269l32 18-6-37 27-26-37-5-16-34-17 34-37 5 27 26-6 37z"/><path d="M144 255l16 8-3-18 13-13-18-2-8-17-9 17-18 2 13 13-3 18z"/></g><path d="M154 206c0-56 58-102 131-102M158 217c0-32 57-57 127-57m0 0c0-7-16-13-42-13m0 0c0-6 27-15 43-15m0 0c0-4-34-8-43-8m0 0c8-9 17-17 42-20" fill="none" stroke="#fff" stroke-width="10" stroke-linecap="round" stroke-linejoin="round" stroke-miterlimit="10"/></svg>