<svg xmlns="http://www.w3.org/2000/svg" width="361" height="361"><path d="M83.8 163l26.8 4.6c4.4.7 6.3-6 1.9-6.8l-26.8-4.5c-4.4-.8-6.3 6-1.9 6.7zm.3 9.6l26.8 4.6c4.4.8 6.3-6 1.8-6.8L86 166c-4.4-.8-6.3 6-1.9 6.7zm0 9.4l26.8 4.5c4.4.8 6.3-6 1.8-6.7L86 175.2c-4.4-.7-6.3 6-1.9 6.8zm5.7 10l15 2.5c4.4.8 6.3-6 1.9-6.8l-15-2.5c-4.4-.8-6.3 6-1.9 6.7z" fill="#fff"/><path d="M120.8 137c0 7.6-6.1 13.7-13.7 13.7H89a13.7 13.7 0 0 1-13.7-13.6V88.5c0-7.5 6.2-13.7 13.7-13.7h18.2c7.6 0 13.7 6.2 13.7 13.7v48.6z" fill="none" stroke="#fff" stroke-width="10" stroke-miterlimit="10"/><g fill="none" stroke="#fff" stroke-width="10" stroke-linecap="round" stroke-linejoin="round" stroke-miterlimit="10"><path d="M208.7 261.2l48.4 25.5-9.2-54 39.2-38.2-54.2-7.9-24.2-49-24.3 49-54.1 7.9 39.2 38.2-9.3 54z"/><path d="M208.7 239.6l24.2 12.8-4.6-27 19.6-19.1-27.1-4-12.1-24.5-12.1 24.6-27.1 3.9 19.6 19.1-4.7 27z"/></g></svg>