<svg xmlns="http://www.w3.org/2000/svg" width="361" height="361"><path d="M84 164l27 4c4 1 6-6 2-7l-27-4c-4-1-6 6-2 6zm0 9l27 5c5 0 6-6 2-7l-27-5c-4 0-6 6-2 7zm0 9l27 5c4 1 6-6 2-7l-27-4c-4-1-6 6-2 7zm6 11l15 2c5 1 6-6 2-7l-15-2c-4-1-6 6-2 6z" fill="#fff"/><path d="M121 138c0 7-6 13-14 13H89a14 14 0 0 1-13-13V89c0-7 6-14 13-14h18c8 0 14 6 14 14v49z" fill="none" stroke="#fff" stroke-width="10" stroke-miterlimit="10"/><path d="M258 287a5 5 0 0 0-5-6h-44a5 5 0 1 0 0 11h44a5 5 0 0 0 5-6z" fill="#fff"/><path d="M236 286V186c0-6-10-6-10 0v100c0 6 10 6 10 0z" fill="#fff"/><path d="M180 186a51 51 0 0 1 51-50 51 51 0 0 1 51 50l5-5H175c-6 0-6 10 0 10h112a5 5 0 0 0 5-5c1-33-29-60-61-60a61 61 0 0 0-61 60c0 7 10 7 10 0z" fill="#fff"/></svg>