<svg xmlns="http://www.w3.org/2000/svg" width="361" height="361"><path d="M226.4 241h52.8c6.4 0 6.4-10 0-10h-52.8c-6.4 0-6.4 10 0 10z" fill="#fff"/><path d="M249 240.4v28.2c0 6.5 10 6.5 10 0v-28.2c0-6.5-10-6.5-10 0z" fill="#fff"/><path d="M254.1 266l-30.7 11c-4.2 1.5-2.4 8.3 1.9 6.8l30.7-11c4.2-1.5 2.4-8.3-1.9-6.8z" fill="#fff"/><path d="M253 272.8l30.7 11c4.3 1.5 6.1-5.3 1.9-6.8l-30.7-11c-4.3-1.5-6 5.3-1.9 6.8zm25-119.2l-6 48.2c-.9 6.4 9.1 6.3 10 0l6-48.2c.9-6.4-9.1-6.3-10 0z" fill="#fff"/><path d="M272 203.5l2.2 19.9c.7 6.3 10.7 6.4 10 0l-2.3-19.9c-.7-6.3-10.7-6.4-10 0zm6.5-77.7l3.2 15c1.4 6.4 11 3.7 9.7-2.6a81017.8 81017.8 0 0 0-3.2-15c-1.4-6.3-11-3.7-9.7 2.6zM236.3 214h31.8c4.6 0 4.6-7 0-7h-31.8c-4.5 0-4.5 7 0 7z" fill="#fff"/><path d="M257.4 211l.7 24.7c0 2 3 2 3 0l-.7-24.7c0-2-3-2-3 0zm-33 73.7h-1.7c-1.9 0-3.4 1.6-3.4 3.5s1.5 3.5 3.4 3.5h1.8c1.9 0 3.4-1.6 3.4-3.5s-1.5-3.5-3.5-3.5zm61.1 0h-1.7c-1.9 0-3.5 1.6-3.5 3.5s1.6 3.5 3.5 3.5h1.7c2 0 3.5-1.6 3.5-3.5s-1.6-3.5-3.5-3.5zM136 207.9h85.5c6.5 0 6.5-10 0-10H136c-6.5 0-6.5 10 0 10z" fill="#fff"/><path d="M158.5 205.5v79.1c0 6.5 10 6.5 10 0v-79c0-6.5-10-6.5-10 0zm-22.7 0v79.1c0 6.5 10 6.5 10 0v-79c0-6.5-10-6.5-10 0z" fill="#fff"/><path d="M136 291.8h55.6c6.4 0 6.4-10 0-10H136c-6.5 0-6.5 10 0 10zM84 162.5l26.8 4.6c4.4.7 6.3-6 1.9-6.8l-26.8-4.5c-4.4-.8-6.3 6-1.8 6.7zm.3 9.6l26.8 4.6c4.4.8 6.3-6 1.9-6.8l-26.8-4.5c-4.4-.8-6.3 6-1.9 6.7zm0 9.4l26.8 4.5c4.4.8 6.3-6 1.9-6.7l-26.8-4.6c-4.4-.7-6.3 6-1.9 6.8zm5.7 10l15 2.5c4.5.8 6.4-6 2-6.8l-15-2.5c-4.5-.8-6.4 6-2 6.7z" fill="#fff"/><path d="M121 136.6c0 7.5-6 13.6-13.6 13.6H89.2a13.7 13.7 0 0 1-13.7-13.6V88c0-7.5 6.1-13.7 13.7-13.7h18.2c7.5 0 13.6 6.2 13.6 13.7v48.6z" fill="none" stroke="#fff" stroke-width="10" stroke-miterlimit="10"/><path d="M169.9 194.1h-24.3c-4.5 0-4.5 7 0 7h24.3c4.5 0 4.5-7 0-7z" fill="#fff"/><path d="M153 198.6l30.7-77.4c1.7-4.2-5-6-6.7-1.9l-30.8 77.4c-1.6 4.2 5.1 6 6.8 1.9z" fill="#fff"/><path d="M180.4 125.2h34c6.4 0 6.4-10 0-10h-34c-6.5 0-6.5 10 0 10z" fill="#fff"/><path d="M186 127h26.4c2 0 2-3 0-3H186c-2 0-2 3 0 3z" fill="#fff"/></svg>