<svg xmlns="http://www.w3.org/2000/svg" width="361" height="361"><path d="M84 163l27 4c4 1 6-6 1-6l-26-5c-5-1-7 6-2 7zm0 10l27 4c4 1 6-6 2-7l-27-4c-4-1-6 6-2 6zm0 9l27 4c4 1 6-6 2-6l-27-5c-4-1-6 6-2 7zm6 10l15 2c4 1 6-6 2-6l-15-3c-5-1-7 6-2 7z" fill="#fff"/><path d="M121 137c0 7-6 14-14 14H89a14 14 0 0 1-14-14V88c0-7 6-13 14-13h18c8 0 14 6 14 13v49z" fill="none" stroke="#fff" stroke-width="10" stroke-miterlimit="10"/><path fill="#fff" d="M209 190l-1-60 80 60z"/><path d="M214 190l-1-60-7 4 79 61 3-10h-79c-7 0-7 10 0 10h79c5 0 6-6 2-9l-79-60c-3-3-8 1-8 4l1 60c0 7 10 7 10 0z" fill="#fff"/><g fill="#fff"><path d="M208 190v-60l-79 60z"/><path d="M213 190v-60c0-3-4-7-7-4l-79 60c-4 3-3 9 2 9h79c7 0 7-10 0-10h-79l3 10 79-60-8-5v60c0 7 10 7 10 0z"/></g><path d="M274 282c0 3-3 5-7 5H150c-4 0-6-2-6-5v-96c0-3 130-3 130 0v96z" fill="none" stroke="#fff" stroke-width="10" stroke-miterlimit="10"/></svg>