<svg xmlns="http://www.w3.org/2000/svg" width="361" height="361"><path d="M155.2 234.1l48.6 8.3c6.3 1.1 9-8.5 2.7-9.6l-48.7-8.3c-6.3-1-9 8.6-2.6 9.6zm.5 17.5l48.6 8.3c6.3 1.1 9-8.5 2.7-9.6l-48.7-8.3c-6.3-1-9 8.6-2.6 9.6zm0 17l48.6 8.3c6.3 1.1 9-8.5 2.7-9.6l-48.7-8.3c-6.3-1-9 8.6-2.6 9.6zm10.3 18.2l27.3 4.6c6.3 1.1 9-8.5 2.7-9.6l-27.3-4.7c-6.3-1-9 8.6-2.7 9.7z" fill="#fff"/><path d="M222 188.3a24.9 24.9 0 0 1-24.8 24.8H164a24.9 24.9 0 0 1-24.8-24.8V99.8A24.9 24.9 0 0 1 164 75h33.2A24.9 24.9 0 0 1 222 99.9v88.4z" fill="none" stroke="#fff" stroke-width="10" stroke-miterlimit="10"/></svg>