<svg xmlns="http://www.w3.org/2000/svg" width="361" height="361"><path d="M84 163l27 4c4 1 6-6 2-7l-27-4c-4-1-6 6-2 6zm0 9l27 5c5 0 6-6 2-7l-27-5c-4 0-6 6-2 7zm0 9l27 5c4 1 6-6 2-7l-27-4c-4-1-6 6-2 7zm6 11l15 2c5 1 6-6 2-7l-15-2c-4-1-6 6-2 6z" fill="#fff"/><path d="M121 137c0 7-6 13-14 13H89a14 14 0 0 1-13-13V88c0-7 6-14 13-14h18c8 0 14 6 14 14v49z" fill="none" stroke="#fff" stroke-width="10" stroke-miterlimit="10"/><path d="M285 276c-1 4-7 2-9 2h-96c-5 0-3-11-3-13V100c0-5-2-11 4-11h98c2 0 6-1 6 2v185c0 5 7 5 7 0V96c0-7-1-14-10-14h-97l-9 1c-8 2-6 12-6 19v165c0 7-2 17 8 18h101c7 0 12-1 13-9 0-4-7-4-7 0z" fill="#fff"/><path d="M181 291h13c6 0 6-10 0-10h-13c-7 0-7 10 0 10zm88 0h13c7 0 7-10 0-10h-13c-6 0-6 10 0 10zM227 88v131c0 5 7 5 7 0V88c0-4-7-4-7 0z" fill="#fff"/><path d="M173 224h115c5 0 5-7 0-7H173c-4 0-4 7 0 7zm0 31h115c5 0 5-7 0-7H173c-4 0-4 7 0 7zm85-21h18c2 0 2-3 0-3h-18c-2 0-2 3 0 3zm-72 0h18c2 0 2-3 0-3h-18c-2 0-2 3 0 3zm72 31h18c2 0 2-3 0-3h-18c-2 0-2 3 0 3zm-72 0h18c2 0 2-3 0-3h-18c-2 0-2 3 0 3zm-13-89h115c2 0 2-3 0-3H173c-2 0-2 3 0 3zm0-46h115c2 0 2-3 0-3H173c-2 0-2 3 0 3z" fill="#fff"/><path d="M224 167v15c0 5 7 5 7 0v-15c0-4-7-4-7 0zm7 0v15c0 5 7 5 7 0v-15c0-4-7-4-7 0z" fill="#fff"/></svg>