<svg xmlns="http://www.w3.org/2000/svg" width="361" height="361"><path d="M84 260l27 5c4 1 6-6 1-7l-26-4c-5-1-7 6-2 6zm0 10l27 5c4 0 6-6 2-7l-27-5c-4 0-6 6-2 7zm0 9l27 5c4 1 6-6 2-7l-27-4c-4-1-6 6-2 6zm6 10l15 3c4 1 6-6 2-7l-15-2c-5-1-7 6-2 6z" fill="#fff"/><path d="M121 235c0 7-6 13-14 13H89a14 14 0 0 1-14-14v-48c0-8 6-14 14-14h18c8 0 14 6 14 14v49z" fill="none" stroke="#fff" stroke-width="10" stroke-miterlimit="10"/><path d="M72 73a3416 3416 0 0 0 89 4c34 2 68-1 102-3l27-1c2 0 2-3 0-3l-88 4c-34 2-68-1-102-3l-28-1c-2 0-2 3 0 3zm0 55a3483 3483 0 0 0 88 4c34 1 68-1 102-3l28-2c2 0 2-3 0-3a3609 3609 0 0 1-89 5c-33 1-67-1-101-3l-28-1c-2-1-2 3 0 3z" fill="#fff"/><path d="M95 89l-7-15c-1-2-3-1-2 1l7 15c0 2 3 0 2-2zm17 36l-7-16c-1-1-4 0-3 2l8 16c0 1 3 0 2-2zM74 98l10 22c2 4 8 0 6-4L80 95c-2-4-8-1-6 3z" fill="#fff"/><path d="M100 105c2 3 1 6-2 7l-8 4c-3 1-6 0-7-3l-5-10c-1-2 0-6 2-7l9-4c2-1 6 0 7 3l4 10zm-2-10l4 8c1 2 3 2 5 1 1-1 2-3 1-4l-4-8c-1-2-3-3-5-2s-2 3-1 5z" fill="#fff"/><g fill="#fff"><path d="M199 91l-7-15c-1-1-4 0-3 2l7 15c1 1 3 0 3-2zm17 37l-8-16c0-2-3 0-2 2l7 16c1 1 4 0 3-2zm-39-27l10 22c2 4 8 0 7-4l-11-22c-2-4-8 0-6 4z"/><path d="M204 107c1 3 0 6-2 8l-9 4c-2 1-5-1-7-4l-4-9c-1-3 0-6 2-7l8-4c3-1 6 0 8 3l4 9zm-2-9l3 8c1 2 4 2 5 1 2-1 2-3 1-5a29497 29497 0 0 1-3-8c-1-1-4-2-5-1-2 1-2 3-1 5z"/></g><path d="M268 88l-7-15c0-2-3 0-2 1l7 15c0 2 3 0 2-1zm17 37l-7-16c-1-2-3-1-3 1l8 16c1 2 3 0 2-1z" fill="#fff"/><g fill="#fff"><path d="M247 97l10 22c2 4 8 1 6-3l-10-22c-2-4-8-1-6 3z"/><path d="M273 104c2 3 1 6-2 7l-8 4c-2 1-6 0-7-3l-4-9c-2-3-1-6 2-8l8-4c3-1 6 1 7 4l4 9zm-2-10l4 9c1 1 3 2 5 1 1-1 2-3 1-5l-4-8c-1-2-3-2-5-1-1 1-2 3-1 4z"/></g></svg>