<svg xmlns="http://www.w3.org/2000/svg" width="361" height="361"><path d="M161.2 248l36.9 6.4c6.3 1 9-8.6 2.6-9.7l-36.8-6.3c-6.3-1-9 8.6-2.7 9.7zm.4 13.3l36.8 6.3c6.3 1 9-8.6 2.7-9.6l-36.9-6.3c-6.3-1.1-9 8.5-2.6 9.6zm0 12.9l36.8 6.3c6.3 1 9-8.6 2.7-9.7l-36.9-6.3c-6.3-1-9 8.6-2.6 9.7zm7.8 13.7l20.7 3.6c6.3 1 9-8.6 2.7-9.7l-20.7-3.5c-6.3-1.1-9 8.5-2.7 9.6zm37.7-75.8c-.3 9.7-8 13.9-16.7 13.9h-21c-8 0-15-5.5-15-14v-58c0-3.7-.4-7.7.2-11.4 1.7-9.2 10-11.2 18-11.2H189c5 0 9.6 0 13.6 3.6 6.2 5.4 4.5 15.5 4.5 22.8v54.3c0 6.5 10 6.5 10 0v-66.9c0-10.7-7.2-19.6-17.2-22.9-6-2-13.9-.9-20.1-.9-6.8 0-14.1-.8-20.5 1.8a24 24 0 0 0-14.9 22.2V212c0 10.5 6.7 18.8 16 22.6 5.8 2.3 13.4 1.3 19.4 1.3 6.2 0 12.6.5 18.8-.6 11-2 18.2-12.7 18.5-23.3.3-6.4-9.7-6.4-10 0zM200 84.3V94c0 2 3 2 3 0v-9.6c0-1.9-3-1.9-3 0zm-96.4 54.5h14.5c2 0 2-3 0-3h-14.5c-1.9 0-1.9 3 0 3zM118.3 96l8.5 8.5c1.4 1.4 3.5-.8 2.1-2.1l-8.5-8.5c-1.3-1.4-3.5.7-2 2zm124-3.2l-9.5 9.6c-1.3 1.3.8 3.5 2.1 2.1l9.6-9.6c1.4-1.3-.8-3.4-2.1-2zm-138.7 87h14.5c2 0 2-3 0-3h-14.5c-1.9 0-1.9 3 0 3zm140.5-41.2h14.4c2 0 2-3 0-3h-14.4c-2 0-2 3 0 3zm0 41h14.4c2 0 2-3 0-3h-14.4c-2 0-2 3 0 3zm-85.7-95.3v9.6c0 2 3 2 3 0v-9.6c0-2-3-2-3 0zm-54.8 136.6h14.5c2 0 2-3 0-3h-14.4c-2 0-2 3 0 3zm140.5-.2h14.4c2 0 2-3 0-3h-14.4c-2 0-2 3 0 3z" fill="#fff"/></svg>