<svg xmlns="http://www.w3.org/2000/svg" width="361" height="361"><path d="M84 163l27 4c4 1 6-6 2-7l-27-4c-4-1-6 6-2 6zm0 9l27 5c5 0 6-6 2-7l-27-5c-4 0-6 6-2 7zm0 9l27 5c4 1 6-6 2-7l-27-4c-4-1-6 6-2 7zm6 11l15 2c5 1 6-6 2-7l-15-2c-4-1-6 6-2 6z" fill="#fff"/><path d="M121 137c0 7-6 13-14 13H89a14 14 0 0 1-13-13V88c0-7 6-14 13-14h18c8 0 14 6 14 14v49z" fill="none" stroke="#fff" stroke-width="10" stroke-miterlimit="10"/><path d="M157 283v9h-46v-76h11v66h35zm11 9v-76h46v9h-35v23h31v8h-32v26h39v10h-49zm124-38c0 6-1 12-3 17a32 32 0 0 1-9 12 37 37 0 0 1-13 7 59 59 0 0 1-17 2 121 121 0 0 1-20-2v-73l10-1 10-1c6 0 12 1 17 3a37 37 0 0 1 13 7 32 32 0 0 1 9 12 45 45 0 0 1 3 17zm-41 29c10 0 18-3 23-8s7-12 7-21-2-17-7-22-13-7-23-7h-7a61 61 0 0 0-3 0v58h10z" fill="#fff"/></svg>