<svg xmlns="http://www.w3.org/2000/svg" width="361" height="361"><path d="M201 203l5 13c1 5 8 3 7-1l-5-14c-2-4-8-2-7 2zm-17-25l12 18c3 3 9 0 6-4l-12-18c-3-3-9 0-6 4zm29 67v16c0 5 7 5 7 0v-16c0-4-7-4-7 0zm7 42v-13c-1-5-8-5-7 0v13c0 5 7 5 7 0z" fill="#fff"/><path d="M209 224l2 14c1 5 8 3 7-1l-3-15c-1-4-7-3-6 2zm12-19l5 13c1 5 8 3 7-1l-5-14c-2-4-8-2-7 2z" fill="#fff"/><path d="M203 178l16 22c2 3 8 0 6-4l-16-22c-3-3-9 0-6 4zm29 75v12c1 4 8 4 8 0l-1-12c0-5-7-5-7 0zm8 29v-8c0-5-7-5-7 0v8c0 4 7 4 7 0zm-11-53l2 15c1 5 8 3 7-2l-3-14c-1-5-7-3-6 1zm11-20l5 10c0 2 3 2 4 2 2-1 3-3 2-5l-5-11c-1-1-3-2-5-1-1 1-2 3-1 5zm-17-31l14 24c2 4 8 0 6-4l-14-24c-2-4-8 0-6 4zm29 72v11c0 5 7 5 7 0v-11c0-4-7-4-7 0zm7 32v-8c0-4-7-4-7 0v8c0 4 7 4 7 0zm-12-53l3 14c1 4 8 3 7-2l-3-14c-1-5-8-3-7 2zm-36-25l5 13c1 5 8 3 7-1l-5-14c-2-4-8-2-7 2z" fill="#fff"/><path d="M193 178l15 20c2 3 8 0 6-4l-15-20c-3-3-9 0-6 4zm29 70l1 19c1 4 8 4 7 0l-1-19c0-4-7-4-7 0zm8 36v-9c0-4-7-4-7 0v9c0 5 7 5 7 0zm-11-59l2 10c0 2 3 3 4 3 2-1 3-3 3-5l-2-10c0-2-3-3-4-2-2 0-3 2-3 4zm10-22l6 15c1 1 3 2 5 1 1-1 2-3 1-5l-6-15c-1-1-4-2-5-1-2 1-2 3-1 5z" fill="#fff"/><path d="M213 178l12 18c2 4 8 0 6-4l-12-18c-2-3-8 0-6 4zm28 71l1 15c0 4 7 4 7 0l-1-15c0-4-7-4-7 0zm8 36v-9c1-4-6-4-7 0v9c0 5 7 5 7 0zm-12-59l3 13c1 5 8 3 7-1l-3-14c-1-4-7-2-7 2zm10-21l6 13c2 4 8 1 6-3l-6-13c-2-4-8-1-6 3z" fill="#fff"/><path d="M231 178l13 20c3 3 9 0 6-4l-13-20c-2-3-8 0-6 4zm30 76v8c0 2 2 4 4 4s3-2 3-4v-8c0-2-2-4-4-4s-3 2-3 4z" fill="#fff"/><path d="M268 283v-13c0-5-7-5-7 0v13c0 5 7 5 7 0zm-13-55l4 18c0 4 7 3 6-2l-3-18c-1-4-7-2-7 2zm4-19l5 13c2 5 8 3 7-1l-5-14c-1-4-8-2-7 2zm-18-31l15 23c2 4 8 1 6-3l-15-24c-2-4-8 0-6 4zm29 71v14c1 5 8 5 7 0v-14c0-5-7-5-7 0z" fill="#fff"/><path d="M278 286v-15c0-5-7-5-7 0v15c0 4 7 4 7 0zm-12-55l2 10c1 4 8 2 7-2l-2-10c-1-4-8-2-7 2zm15-84h-15c-3 0-8-1-10 1-4 2-5 5-5 9v19c0-1 3-1 0-1h-66c-1 0 1 3 1 1v-22c-1-5-5-7-10-7h-18c-8 0-12 6-12 13v22c0 7 2 15 11 15h127c7-3 8-9 8-16v-20c0-7-2-13-11-14-6-1-6 9 0 10 3 0 1 15 1 16 0 2 1 14-1 14H158c-3 0-2-6-2-8v-20c0-4 12-2 14-2h8c-2 0-2-3-2 0v5c0 6-2 16 3 20 3 4 8 3 12 3h52c7 0 17 2 18-7l1-11-1-12c0 2-2 2 0 2h20c7 0 7-10 0-10z" fill="#fff"/><g fill="#fff"><path d="M205 287c-10-2-19 2-28 2l-13-2a40 40 0 0 0-16 0c-2 0-1 3 1 3 10-2 18 2 28 2l11-2a40 40 0 0 1 16-1c2 1 3-2 1-2z"/><path d="M191 290c10-2 18 2 28 2l11-2a40 40 0 0 1 17-1c2 1 2-2 0-2-10-2-18 2-28 2l-13-2a40 40 0 0 0-15 0c-2 0-1 3 0 3z"/><path d="M234 290c9-2 18 2 27 2l12-2a40 40 0 0 1 16-1c2 1 3-2 1-2-10-2-19 2-29 2l-13-2a40 40 0 0 0-15 0c-2 0-1 3 1 3z"/></g><g fill="#fff"><path d="M209 282a46 46 0 0 0-16 0l-14 2-14-2a47 47 0 0 0-17 0c-2 0-1 3 1 3 10-2 19 2 30 2l12-2a47 47 0 0 1 18 0c1 0 2-3 0-3z"/><path d="M195 285c10-2 19 2 29 2l13-2a47 47 0 0 1 17 0c2 0 3-3 1-3a46 46 0 0 0-16 0l-14 2-14-2a47 47 0 0 0-17 0c-2 0-1 3 1 3z"/><path d="M240 285c8-2 16 0 24 1 9 2 17-1 25-2 2 0 2-3 0-3l-11 2a42 42 0 0 1-16 0c-7-1-14-3-22-1-2 0-1 3 0 3z"/></g><g fill="#fff"><path d="M149 278a64 64 0 0 1 8 1c2 0 3-3 1-3a70 70 0 0 0-9-1c-2 0-2 3 0 3z"/><path d="M150 278c10 0 19 4 30 3 10-1 20-4 30-2 2 0 3-3 1-3-10-2-20 1-30 2-11 1-21-3-31-3-2 0-2 3 0 3z"/></g><path d="M280 280l9-1c2 0 2-3 0-3l-10 1c-2 1-1 4 1 3zm-92-100h62c4 0 4-7 0-7h-62c-5 0-5 7 0 7zM84 163l27 5c4 0 6-6 2-7l-27-5c-5-1-6 6-2 7zm0 10l27 4c4 1 6-6 2-7l-27-4c-4-1-6 6-2 7zm0 9l27 5c4 0 6-6 2-7l-27-5c-4 0-6 6-2 7zm6 10l15 3c4 0 6-6 2-7l-15-3c-5-1-6 6-2 7z" fill="#fff"/><path d="M121 137c0 8-6 14-14 14H89a14 14 0 0 1-14-14V89c0-8 6-14 14-14h18c8 0 14 6 14 13v49z" fill="none" stroke="#fff" stroke-width="10" stroke-miterlimit="10"/></svg>