<svg xmlns="http://www.w3.org/2000/svg" width="361" height="361"><path d="M201 203.1l4.9 13.3c1.5 4.2 8.2 2.4 6.7-1.8l-4.8-13.3c-1.5-4.2-8.2-2.4-6.7 1.8zm-17.2-25.3l12.6 18c2.6 3.6 8.7.1 6-3.6l-12.6-18c-2.6-3.6-8.7 0-6 3.6zm29 67.6v15.8c0 4.5 7 4.5 7 0v-15.8c0-4.5-7-4.5-7 0zm7 41.8l-.3-13.6c-.1-4.5-7.1-4.5-7 0l.3 13.6c0 4.5 7 4.5 7 0z" fill="#fff"/><path d="M208.5 224l2.8 14.4c.8 4.5 7.5 2.6 6.7-1.8l-2.7-14.5c-.9-4.5-7.6-2.6-6.8 1.8zm12.7-18.8l4.7 13.3c1.6 4.2 8.3 2.4 6.8-1.8l-4.8-13.3c-1.5-4.2-8.3-2.4-6.7 1.8z" fill="#fff"/><path d="M202.5 177.8l16 22c2.6 3.6 8.6.1 6-3.6l-16-22c-2.6-3.5-8.7 0-6 3.6zm29.7 75l.3 11.8c0 4.5 7 4.5 7 0l-.3-11.9c0-4.5-7-4.5-7 0zm7.4 28.9l.2-7.8c.2-4.5-6.8-4.5-7 0l-.2 7.8c0 4.5 7 4.5 7 0zm-11-52.2l2.7 14.5c.8 4.5 7.6 2.6 6.8-1.8l-2.8-14.5c-.8-4.5-7.5-2.6-6.7 1.8zM240 209l4.7 10.3c.8 1.7 3.3 2.1 4.8 1.2 1.8-1 2-3 1.3-4.8l-4.7-10.2c-.8-1.7-3.3-2.1-4.8-1.3-1.8 1-2.1 3-1.3 4.8zm-17.2-31.2l14 23.9c2.4 3.8 8.4.3 6.1-3.6l-14.1-23.8c-2.3-4-8.3-.4-6 3.5zm28.7 72.2l.3 11.3c.2 4.4 7.2 4.5 7 0l-.3-11.3c0-4.5-7-4.5-7 0zm7.2 31.7v-7.4c0-4.5-7-4.5-7 0v7.4c0 4.5 7 4.5 7 0z" fill="#fff"/><path d="M247.4 228.5L250 243c.8 4.4 7.6 2.6 6.7-1.9l-2.7-14.5c-.8-4.4-7.6-2.5-6.7 2zM211 204.2l4.8 13.3c1.5 4.2 8.3 2.4 6.8-1.9l-4.8-13.3c-1.5-4.2-8.3-2.4-6.8 1.9z" fill="#fff"/><path d="M193.1 177.8l14.5 19.8c2.6 3.6 8.7.2 6-3.5l-14.4-19.8c-2.7-3.6-8.7-.1-6 3.5zm29.2 70.2l1 18.8c.3 4.5 7.3 4.5 7 0l-1-18.8c-.3-4.5-7.3-4.5-7 0z" fill="#fff"/><path d="M230.4 284.1v-8.8c0-4.5-7-4.5-7 0v8.8c0 4.5 7 4.5 7 0zm-11.2-58.9l1.9 10c.3 2 2.6 3 4.3 2.5 2-.5 2.8-2.4 2.4-4.3l-1.9-10c-.3-2-2.5-3-4.3-2.5-2 .5-2.8 2.4-2.4 4.3zm9.4-22.2l6.1 14.5c.8 1.7 3.3 2.1 4.8 1.2 1.8-1 2-3 1.3-4.8l-6.1-14.5c-.8-1.7-3.3-2-4.8-1.2-1.8 1-2 3-1.3 4.8z" fill="#fff"/><path d="M213.1 177.8l11.7 18.2c2.4 3.8 8.5.3 6-3.6l-11.6-18.1c-2.5-3.8-8.5-.3-6 3.5zm28.1 71.5l.8 14.4c.2 4.5 7.2 4.6 7 0l-.8-14.4c-.2-4.5-7.2-4.5-7 0zm8.2 35.8l.1-8.8c.1-4.5-6.9-4.5-7 0l-.1 8.8c-.1 4.5 6.9 4.5 7 0zm-11.9-59l2.6 13.3c.9 4.5 7.6 2.6 6.8-1.8l-2.6-13.3c-1-4.4-7.7-2.5-6.8 1.9zm9.8-20.9l6.2 13.2c2 4 8 .5 6-3.6l-6.1-13.1c-2-4-8-.5-6 3.5z" fill="#fff"/><path d="M231 177.8l13.3 19.8c2.5 3.8 8.5.3 6-3.5L237 174.3c-2.4-3.8-8.5-.3-6 3.5zm29.7 76.1l.5 8.3c.2 2 1.5 3.5 3.5 3.5 1.9 0 3.7-1.6 3.5-3.5l-.5-8.3c-.1-1.9-1.5-3.5-3.5-3.5-1.8 0-3.6 1.6-3.5 3.5z" fill="#fff"/><path d="M268.3 283.4l-.3-13.6c0-4.5-7-4.6-7 0l.3 13.6c0 4.5 7 4.5 7 0zm-12.9-55.2l3.2 17.8c.8 4.4 7.5 2.5 6.8-1.9l-3.2-17.7c-.8-4.5-7.6-2.6-6.8 1.8zm4-19l4.8 13.3c1.5 4.2 8.3 2.4 6.7-1.8l-4.7-13.3c-1.6-4.2-8.3-2.4-6.8 1.8zm-18.2-31.4l14.7 23.5c2.4 3.9 8.4.3 6-3.5l-14.6-23.5c-2.4-3.8-8.5-.3-6 3.5zm28.6 70.8l.5 14.6c.2 4.5 7.2 4.5 7 0l-.5-14.6c-.2-4.5-7.2-4.5-7 0z" fill="#fff"/><path d="M278.4 285.7l-.3-15.1c-.1-4.5-7.1-4.5-7 0l.3 15c0 4.6 7 4.6 7 0zM265.8 231l2 9.5c1 4.4 7.8 2.6 6.8-1.8l-2-9.6c-1-4.4-7.8-2.5-6.8 1.9zm15.4-84.2h-15.3c-2.8 0-7.6-.7-10 1-3.6 2.3-4.6 5.3-4.6 9.3l.1 19.2c0-1.7 3-1.4-.5-1.4h-66c-1.2 0 1.3 2.7 1.3 1.2v-3.4l.1-12c0-2.2.3-4.6-.1-6.8-1-5.3-5.3-7-10.2-7h-18c-8.2 0-11.8 6.2-11.8 13.6v21.7c0 7.2 2.2 15 11 15h120.1c2 0 4.6.3 6.5-.3 7.6-2.4 8.5-8.6 8.5-15.4v-20.4c0-7.5-2.7-13.4-11-14.2-6.4-.7-6.4 9.3 0 10 2.4.2 1 14.8 1 16.6 0 1.5 1.2 13.7-1.1 13.7H157.9c-3.2 0-1.8-6-1.8-8.1v-20.5c0-3.4 11.6-1.8 14.2-1.8h7.6c-1.9 0-1.5-2.8-1.6.2v5.5c0 5.5-2 15.6 2.4 20 3.2 3.2 8.5 2.4 12.6 2.4H243c6.7 0 16.6 1.7 18.3-7 .7-3.4.2-7.2.2-10.6l-.1-12c0 1.9-2.8 1.5 0 1.5h19.9c6.4 0 6.4-10 0-10z" fill="#fff"/><g fill="#fff"><path d="M204.9 286.6c-10-1.8-18.5 2-28.4 2.4-4.3.1-8.8-1.4-13-2.2a40.2 40.2 0 0 0-15.4-.2c-1.9.3-1 3.2.8 2.9 9.7-1.8 18 2.1 27.6 2.5 3.7.1 7.7-1 11.3-1.8a40.4 40.4 0 0 1 16.3-.7c1.9.3 2.7-2.5.8-2.9z"/><path d="M191.4 289.5c9.7-1.8 18 2.1 27.6 2.5 3.7.1 7.7-1 11.3-1.8a40 40 0 0 1 16.3-.7c1.9.3 2.7-2.6.8-2.9-10.1-1.8-18.5 2-28.4 2.4-4.3.1-8.7-1.4-13-2.2a40.1 40.1 0 0 0-15.4-.2c-1.9.3-1 3.2.8 2.9z"/><path d="M233.8 289.5c9.6-1.8 18 2 27.5 2.5 3.8.1 7.7-1 11.3-1.8a40.3 40.3 0 0 1 16.3-.7c2 .3 2.7-2.6.8-3-10-1.7-18.5 2-28.4 2.5-4.2.1-8.7-1.4-12.9-2.2a40.1 40.1 0 0 0-15.4-.2c-2 .3-1.1 3.2.8 2.9z"/></g><g fill="#fff"><path d="M209.3 281.8a46.4 46.4 0 0 0-16 0c-4.9.9-9.7 2.2-14.6 2.3-4.5.2-9.2-1.3-13.6-2a47.3 47.3 0 0 0-17-.3c-1.9.3-1 3.2.8 2.9 10.4-1.8 19.5 2.1 29.8 2.4 4 .2 8.2-1 12-1.7a47 47 0 0 1 17.8-.7c1.8.3 2.6-2.6.7-3z"/><path d="M194.7 284.6c10.4-1.7 19.6 2.2 29.8 2.5 4 .2 8.2-1 12-1.7a47 47 0 0 1 17.8-.7c1.9.3 2.7-2.6.8-3a46.3 46.3 0 0 0-16 .2c-4.9.8-9.7 2-14.6 2.2-4.5.2-9.1-1.2-13.6-2a47.3 47.3 0 0 0-17-.3c-1.9.3-1 3.2.8 2.9z"/><path d="M240.4 284.6c8-1.3 15.3.4 23.1 1.7 9 1.6 17-1 25.8-2.2 2-.2 2-3.2 0-3-3.8.5-7.5 1.3-11.2 2a42 42 0 0 1-16 0c-7.6-1.4-14.6-2.7-22.5-1.4-2 .4-1.1 3.3.8 3z"/></g><g fill="#fff"><path d="M148.5 278a64 64 0 0 1 8.8.8c1.9.3 2.7-2.6.8-3a69.8 69.8 0 0 0-9.6-.8c-2 0-2 3 0 3z"/><path d="M149.7 278c10 .3 19.8 4 30 3 10.4-1.1 20.1-3.8 30.8-2.2 1.9.3 2.7-2.6.8-3-10.6-1.4-20.2.7-30.5 2-10.5 1.4-20.6-2.5-31-2.8-2 0-2 3 0 3z"/></g><path d="M280.1 280c3.1-.9 6-.9 9.2-.7 2 .1 2-2.9 0-3-3.5-.2-6.6-.1-10 .9-1.9.5-1 3.4.8 2.9zm-92.5-100.4h62c4.6 0 4.6-7 0-7h-62c-4.5 0-4.5 7 0 7zM84 163l26.7 4.6c4.4.7 6.3-6 1.9-6.8l-26.8-4.6c-4.4-.7-6.3 6-1.8 6.8zm.2 9.6l26.8 4.6c4.4.7 6.3-6 1.8-6.8L86.2 166c-4.4-.8-6.3 6-1.9 6.7zm0 9.4l26.8 4.5c4.4.8 6.3-6 1.8-6.7l-26.7-4.6c-4.4-.7-6.3 6-1.9 6.8zm5.7 10l15 2.5c4.5.8 6.3-6 2-6.8l-15.1-2.5c-4.4-.8-6.3 6-1.9 6.8z" fill="#fff"/><path d="M121 137c0 7.6-6.1 13.7-13.6 13.7H89a13.7 13.7 0 0 1-13.6-13.6V88.5c0-7.5 6-13.7 13.6-13.7h18.3c7.5 0 13.6 6.2 13.6 13.7v48.6z" fill="none" stroke="#fff" stroke-width="10" stroke-miterlimit="10"/></svg>