<svg xmlns="http://www.w3.org/2000/svg" width="361" height="361"><path d="M84 162.5l26.8 4.6c4.5.7 6.3-6 1.9-6.8l-26.8-4.5c-4.4-.8-6.3 6-1.8 6.7zm.4 9.6l26.7 4.6c4.4.8 6.3-6 1.9-6.8l-26.8-4.5c-4.4-.8-6.3 6-1.8 6.7zm0 9.4L111 186c4.4.8 6.3-6 1.9-6.7l-26.8-4.6c-4.4-.7-6.3 6-1.8 6.8zm5.7 10l15 2.5c4.4.8 6.3-6 1.8-6.8l-15-2.5c-4.4-.8-6.3 6-1.8 6.7z" fill="#fff"/><path d="M121 136.6c0 7.5-6 13.6-13.6 13.6H89.2a13.7 13.7 0 0 1-13.7-13.6V88c0-7.5 6.1-13.7 13.7-13.7h18.2c7.5 0 13.6 6.2 13.6 13.7v48.6z" fill="none" stroke="#fff" stroke-width="10" stroke-miterlimit="10"/><path d="M288.7 278.4H162.8c-1.6 0-6 .8-6-2.3V95c0-1.7-.7-5.7 2.2-6 1.9-.3 4 0 5.8 0h123.9c4.5 0 4.5-7 0-7H162.8c-3.3 0-6.2-.2-9.1 1.7-5.5 3.5-3.9 13.3-3.9 18.8v165.3c0 6.9-1 17.6 9.2 17.6h129.7c4.5 0 4.5-7 0-7z" fill="#fff"/><path d="M160.6 291.4h13c6.4 0 6.4-10 0-10h-13c-6.5 0-6.5 10 0 10zm91.9-52.1l28-25.7c1.5-1.3-.7-3.4-2-2.1l-28.2 25.7c-1.4 1.3.7 3.4 2.2 2zm-3.4 15.2l42.2-40c1.4-1.4-.7-3.5-2.1-2.2l-42.3 40c-1.4 1.4.7 3.5 2.2 2.2zm9.2 3.8l29.3-27.8c1.4-1.4-.7-3.5-2-2.2l-29.4 27.9c-1.4 1.3.7 3.4 2 2.1z" fill="#fff"/><path d="M290.4 274.2H235c-3.1 0-9 .8-9-4.7V97.3c0-5.8 10.8-4.1 13.7-4.1h50.6c2 0 2-3 0-3H235c-4.4 0-8.5-.5-11.3 3.9-1 1.7-.8 4.5-.8 6.5v168.1c0 10.2 10.4 8.5 17.6 8.5h49.8c1.9 0 1.9-3 0-3zM243.5 76.8H277c4.5 0 4.5-7 0-7h-33.5c-4.5 0-4.5 7 0 7z" fill="#fff"/><path d="M260.3 84c-.2-7.3-5.3-12-12.5-12.2-2 0-2 3 0 3 5.5.1 9.3 3.6 9.5 9.2 0 2 3 2 3 0zM244 126.3l21-20c1.4-1.3-.7-3.4-2-2l-21 19.8c-1.4 1.3.7 3.5 2 2.1zm.6 13.9l32.8-31.2c1.4-1.3-.7-3.4-2.1-2.1L242.6 138c-1.4 1.4.7 3.5 2 2.2zm13.1-.1l22.8-21.6c1.4-1.4-.7-3.5-2-2.2L255.6 138c-1.4 1.3.7 3.4 2.1 2.1zm-52.5 33v15.5c0 4.6 7 4.6 7 0v-15.5c0-4.5-7-4.5-7 0zm9.2-84.4v191c0 4.5 7 4.5 7 0v-191c0-4.6-7-4.6-7 0z" fill="#fff"/></svg>