<svg xmlns="http://www.w3.org/2000/svg" width="361" height="361"><path d="M84 162.5l26.8 4.6c4.5.7 6.3-6 1.9-6.8l-26.8-4.5c-4.4-.8-6.3 6-1.8 6.7zm.4 9.6l26.7 4.6c4.4.8 6.3-6 1.9-6.8l-26.8-4.5c-4.4-.8-6.3 6-1.8 6.7zm0 9.4L111 186c4.4.8 6.3-6 1.9-6.7l-26.8-4.6c-4.4-.7-6.3 6-1.8 6.8zm5.7 10l15 2.5c4.4.8 6.3-6 1.8-6.8l-15-2.5c-4.4-.8-6.3 6-1.8 6.7z" fill="#fff"/><path d="M121 136.6c0 7.5-6 13.6-13.6 13.6H89.2a13.7 13.7 0 0 1-13.7-13.6V88c0-7.5 6.1-13.7 13.7-13.7h18.2c7.5 0 13.6 6.2 13.6 13.7v48.6zm166 95.7a3.4 3.4 0 0 1-3.4 3.4H121.4a3.4 3.4 0 0 1-3.4-3.4v-13.9a3.4 3.4 0 0 1 3.4-3.3h162.2a3.4 3.4 0 0 1 3.4 3.3v13.9z" fill="none" stroke="#fff" stroke-width="10" stroke-miterlimit="10"/><path d="M156.6 215.2a2 2 0 0 1-2-2l32-32.5v-62.4c0-1.1 1-2 2-2h27.8a2 2 0 0 1 2 2v62.4l32 32.5a2 2 0 0 1-2 2h-91.8z" fill="none" stroke="#fff" stroke-width="10" stroke-linecap="round" stroke-linejoin="round" stroke-miterlimit="10"/><path d="M200.2 255.5c2 1.8 4.2 4.3 4.5 7.1.3 2.7-2.8 5.6-4.6 7.3-6.1 5.4-8.3 12.6-3.7 19.7 2.4 3.8 8.5.3 6-3.5-3-4.7-1-7.9 2.6-11.3a29 29 0 0 0 4.8-5.8c4.1-6.5.5-13.8-4.7-18.4-3.3-3-8.3 1.9-5 4.9zm21.1 4.2c2.2 2 4.7 4.7 3.3 7.9-.8 1.8-2.4 3.2-3.8 4.5-5.2 5-7 11.3-2.9 17.5 2.5 3.8 8.5.3 6-3.5-2.4-3.9-.8-6.5 2.2-9.4a26.2 26.2 0 0 0 4.6-5.6c3.4-5.8.1-12.3-4.4-16.4-3.4-3-8.3 2-5 5zm-43.5 0c2.3 2 4.8 4.7 3.3 7.9-.8 1.8-2.3 3.2-3.7 4.5-5.3 5-7 11.3-3 17.5 2.5 3.8 8.6.3 6.1-3.5-2.5-3.9-.8-6.5 2.2-9.4a26.2 26.2 0 0 0 4.5-5.6c3.5-5.8.2-12.3-4.4-16.4-3.3-3-8.3 2-5 5zm13.7-30.8h11.1c4.5 0 4.5-7 0-7h-11.1c-4.5 0-4.5 7 0 7zm26.2 0h2c2 0 3.5-1.6 3.5-3.5s-1.6-3.5-3.5-3.5h-2c-2 0-3.5 1.6-3.5 3.5s1.6 3.5 3.5 3.5zm10 0h1.8c1.9 0 3.5-1.6 3.5-3.5s-1.6-3.5-3.5-3.5h-1.8c-2 0-3.5 1.6-3.5 3.5s1.6 3.5 3.5 3.5z" fill="#fff"/></svg>