<svg xmlns="http://www.w3.org/2000/svg" width="361" height="361"><path d="M83.8 162.8l26.8 4.6c4.4.8 6.3-6 1.9-6.8l-26.8-4.5c-4.4-.8-6.3 6-1.9 6.7zm.3 9.7L111 177c4.4.8 6.3-6 1.8-6.7L86 165.7c-4.4-.7-6.3 6-1.9 6.8zm0 9.3l26.8 4.6c4.4.7 6.3-6 1.8-6.8L86 175c-4.4-.7-6.3 6-1.9 6.8zm5.7 10l15 2.5c4.4.8 6.3-6 1.9-6.7l-15-2.6c-4.4-.8-6.3 6-1.9 6.8z" fill="#fff"/><path d="M120.8 136.9c0 7.5-6.1 13.7-13.7 13.7H89a13.7 13.7 0 0 1-13.7-13.7V88.3c0-7.5 6.2-13.6 13.7-13.6h18.2c7.6 0 13.7 6 13.7 13.6V137z" fill="none" stroke="#fff" stroke-width="10" stroke-miterlimit="10"/><path fill="#fff" d="M208.5 190.2l-.2-60.2 79.3 60.2z"/><path d="M213.5 190.2l-.2-60.2-7.5 4.4 79.3 60.1 2.5-9.3h-79.1c-6.5 0-6.5 10 0 10h79.1c5.4 0 6.3-6.5 2.5-9.3l-79.3-60.2c-3-2.3-7.5.9-7.5 4.3l.2 60.2c0 6.4 10 6.4 10 0z" fill="#fff"/><g fill="#fff"><path d="M208.2 190.2l.1-60.2-79.3 60.2z"/><path d="M213.2 190.2l.1-60.2c0-3.4-4.4-6.7-7.5-4.3L126.5 186c-3.7 2.8-2.9 9.3 2.5 9.3h79.2c6.4 0 6.4-10 0-10H129l2.6 9.3 79.3-60.1-7.6-4.4-.1 60.2c0 6.4 10 6.4 10 0z"/></g><path d="M273.7 281.8c0 3-3 5.3-6.5 5.3H150c-3.6 0-6.5-2.4-6.5-5.3v-96c0-3 130.2-3 130.2 0v96z" fill="none" stroke="#fff" stroke-width="10" stroke-miterlimit="10"/><path d="M199.3 255a30.2 30.2 0 0 0-1.9-4.6 50.8 50.8 0 0 0-5.8-9 33.8 33.8 0 0 0-3.2-3.4v17H181v-37.2h7.4v15.5a97.6 97.6 0 0 0 5.5-7.8 72 72 0 0 0 2.4-4 50 50 0 0 0 1.8-3.7h8.3a118 118 0 0 1-7.9 12.6 72 72 0 0 1-3.5 4.5 49.1 49.1 0 0 1 3.7 4.2 52.8 52.8 0 0 1 3.7 5 56.8 56.8 0 0 1 3 5.4 39 39 0 0 1 2.3 5.5h-8.4zm27.8-31.6c-1.8 0-3.3.3-4.5 1a8.3 8.3 0 0 0-3 2.6c-.7 1.2-1.3 2.5-1.6 4.1s-.5 3.4-.5 5.3c0 4.4.7 7.7 2 9.8a7 7 0 0 0 6.2 3.1 18.9 18.9 0 0 0 3-.2v-13.6h7.3v18.6a32.6 32.6 0 0 1-10.9 1.7c-2.3 0-4.4-.4-6.2-1.3a12.7 12.7 0 0 1-4.8-3.6 17.3 17.3 0 0 1-3-6 29.6 29.6 0 0 1-1.2-8.5c0-3.2.5-6 1.3-8.4a18.1 18.1 0 0 1 3.4-6 13.8 13.8 0 0 1 5.1-3.8 16.2 16.2 0 0 1 6.3-1.2 20.6 20.6 0 0 1 6.9 1l2 1 1.3.7-2 5.9a15.5 15.5 0 0 0-3.2-1.5c-1.3-.5-2.6-.7-4-.7z" fill="#fff"/></svg>