<svg xmlns="http://www.w3.org/2000/svg" width="361" height="361"><path d="M84 162.5l26.8 4.6c4.5.7 6.3-6 1.9-6.8l-26.8-4.5c-4.4-.8-6.3 6-1.8 6.7zm.4 9.6l26.7 4.6c4.4.8 6.3-6 1.9-6.8l-26.8-4.5c-4.4-.8-6.3 6-1.8 6.7zm0 9.4L111 186c4.4.8 6.3-6 1.9-6.7l-26.8-4.6c-4.4-.7-6.3 6-1.8 6.8zm5.7 10l15 2.5c4.4.8 6.3-6 1.8-6.8l-15-2.5c-4.4-.8-6.3 6-1.8 6.7z" fill="#fff"/><path d="M121 136.6c0 7.5-6 13.6-13.6 13.6H89.2a13.7 13.7 0 0 1-13.7-13.6V88c0-7.5 6.1-13.7 13.7-13.7h18.2c7.5 0 13.6 6.2 13.6 13.7v48.6zm166 145.6a4.8 4.8 0 0 1-4.8 4.8H147.3a4.8 4.8 0 0 1-4.8-4.8v-86.9a4.8 4.8 0 0 1 4.8-4.8H282c2.6 0 4.8 2.1 4.8 4.8v86.9z" fill="none" stroke="#fff" stroke-width="10" stroke-miterlimit="10"/><path d="M210.4 243.8h8.6c2.7 0 5-2.3 5-5s-2.3-5-5-5h-8.6a5 5 0 0 0 0 10z" fill="#fff"/><path fill="none" stroke="#fff" stroke-width="10" stroke-miterlimit="10" d="M214.7 191v93.5m72.2-91c0 1.7-1.8 3-4.1 3l-136.2.1c-2.3 0-4.1-1.4-4.1-3v-6.2c0-1.7 1.8-3 4-3h136.3c2.3 0 4.1 1.3 4.1 3v6.1z"/></svg>