<svg xmlns="http://www.w3.org/2000/svg" width="361" height="361"><path d="M160 264v-53c0-3-1-8-5-10-5-2-10-2-14-2s-10 0-14 2c-6 2-5 10-5 15 0 7 10 7 10 0v-5c0-2-1-2 1-2h16l1 1v54c0 7 10 7 10 0z" fill="#fff"/><path d="M180 241v-53c0-5-1-8-5-11-3-2-10-1-14-1s-11-1-14 1c-5 4-5 9-5 16 0 6 10 6 10 0 0-3-1-7 1-7h17s0-1 0 0v55c0 6 10 6 10 0z" fill="#fff"/><path d="M118 266l40-56c2-4 6-5 9-5 2 0 6-1 4 3h-1l-6 10-27 38-21 30c-1 2 1 3 2 2l43-61 10-14 4-8c-2-6-14-2-17 0l-7 9-35 51c-1 2 1 3 2 2z" fill="#fff"/><g fill="#fff"><path d="M192 286a44 44 0 0 0-18 0l-15 3-14-2a45 45 0 0 0-19-1c-2 1-1 3 1 3 11-2 21 3 32 3l13-2a45 45 0 0 1 19-1c2 0 3-2 1-3z"/><path d="M176 289c12-2 21 3 33 3l13-2a45 45 0 0 1 19-1c2 0 2-2 0-3a44 44 0 0 0-17 0l-15 3-15-2a45 45 0 0 0-19-1c-1 1 0 3 1 3z"/><path d="M226 289c11-2 21 3 32 3l13-2a45 45 0 0 1 19-1c2 0 3-2 1-3h-18l-15 3-14-2a45 45 0 0 0-19-1c-2 1-1 3 1 3z"/></g><g fill="#fff"><path d="M204 272a44 44 0 0 0-18 1l-15 2-14-2a45 45 0 0 0-19-1c-2 1-1 4 1 3 11-2 21 3 32 3l13-2a45 45 0 0 1 19-1c2 1 3-2 1-3z"/><path d="M188 275c12-2 21 3 32 3l13-2a45 45 0 0 1 20-1c2 1 2-2 0-3a44 44 0 0 0-17 1l-16 2-14-2a45 45 0 0 0-19-1c-2 1-1 4 1 3z"/><path d="M238 275c9-2 17 1 25 2 10 2 18-1 27-2 2-1 2-4 0-3l-11 2a40 40 0 0 1-17 0c-9-2-16-3-25-2-2 1-1 4 1 3z"/></g><g fill="#fff"><path d="M211 259a48 48 0 0 0-21 0c-6 2-12 3-19 2-2-1-3 2-1 3 7 1 13 0 20-1a44 44 0 0 1 20-1c2 0 3-3 1-3z"/><path d="M195 261c11-2 21 3 32 3 4 1 9-1 13-2a45 45 0 0 1 19-1c2 1 3-2 1-2a44 44 0 0 0-18 0l-15 2c-5 1-10-1-14-2a45 45 0 0 0-19-1c-2 1-1 4 1 3z"/><path d="M244 261c9-1 16 1 24 2 8 2 15 1 23-1 2-1 1-4-1-3l-11 2c-4 1-9 0-13-1a53 53 0 0 0-23-1c-1 0-1 3 1 3z"/></g><g fill="#fff"><path d="M248 214a44 44 0 0 0-17 0c-5 1-10 3-16 3l-14-2a45 45 0 0 0-19-1c-2 0-1 3 1 3 12-2 21 3 32 3l13-2a45 45 0 0 1 20-1c1 0 2-3 0-3z"/><path d="M233 217c10-2 19 1 29 3 9 1 18-4 27-4 2 0 2-3 0-3-10 0-19 5-29 4-10-2-18-5-28-3-2 1-1 3 1 3z"/><path d="M282 217l8-1c2 0 2-3 0-3l-9 1c-2 0-1 3 1 3z"/></g><g fill="#fff"><path d="M237 228a55 55 0 0 0-24 2c-9 2-16 1-26-1-2 0-2 3 0 3 7 1 15 3 22 2 9-2 17-5 27-3 2 0 2-3 1-3z"/><path d="M221 231c11-2 21 3 32 3l13-2a45 45 0 0 1 19-1c2 0 3-2 1-3a44 44 0 0 0-18 0l-15 3-14-2a45 45 0 0 0-19-1c-2 0-1 3 1 3z"/><path d="M270 231c7-1 13 0 20 1 2 1 3-2 1-3a50 50 0 0 0-22-1c-1 0-1 3 1 3z"/></g><g fill="#fff"><path d="M226 243a49 49 0 0 0-21 1 42 42 0 0 1-20 1c-2-1-3 2-1 3 14 3 27-5 41-2 2 0 2-3 1-3z"/><path d="M210 246c11-2 21 3 32 3l13-2a45 45 0 0 1 19-1c2 0 3-3 1-3a44 44 0 0 0-18 0l-15 3c-5 0-9-2-14-3a45 45 0 0 0-19 0c-2 0-1 3 1 3z"/><path d="M259 246a42 42 0 0 1 18 1l13 2c2 0 2-3 0-3l-14-3a44 44 0 0 0-17 0c-2 0-2 3 0 3z"/></g><path d="M84 163l27 5c4 0 6-6 1-7l-26-5c-5-1-7 6-2 7zm0 10l27 4c4 1 6-6 2-7l-27-4c-4-1-6 6-2 7zm0 9l27 5c4 0 6-6 2-7l-27-5c-4-1-6 6-2 7zm6 10l15 3c4 0 6-6 2-7l-15-3c-5-1-7 6-2 7z" fill="#fff"/><path d="M121 137c0 8-6 14-14 14H89a14 14 0 0 1-14-14V89c0-8 6-14 14-14h18c8 0 14 6 14 13v49z" fill="none" stroke="#fff" stroke-width="10" stroke-miterlimit="10"/><path d="M160 264v-53c0-4-1-9-5-10-5-2-10-2-14-2s-10 0-14 2c-6 2-5 10-5 15 0 7 10 7 10 0v-5c0-2-1-2 1-2h16v55c1 7 11 7 11 0z" fill="#fff"/><path d="M180 240v-52c0-5-1-8-5-11-3-3-10-1-14-1s-11-2-14 1c-5 4-5 9-5 16 0 6 10 6 10 0v-5l1-2h17s0-1 0 0v54c0 7 10 7 10 0z" fill="#fff"/><path d="M118 266l40-57c2-3 6-4 9-4 2 0 6-1 4 3h-1l-6 10-27 38-21 30c-1 2 1 3 2 2l43-61 10-14 4-8c-2-6-14-2-17 0l-7 9-35 51c-1 1 1 3 2 1z" fill="#fff"/><g fill="#fff"><path d="M192 286a44 44 0 0 0-18 0l-15 3-14-2a45 45 0 0 0-19-1c-2 0-1 3 1 3 11-2 21 3 32 3l13-2a45 45 0 0 1 19-1c2 0 3-3 1-3z"/><path d="M176 289c12-2 21 3 33 3l13-2a45 45 0 0 1 19-1c2 0 2-3 0-3a44 44 0 0 0-17 0l-15 3-15-3a45 45 0 0 0-19 0l1 3z"/><path d="M226 289c11-2 21 3 32 3l13-2a45 45 0 0 1 19-1c2 0 3-3 1-3h-18l-15 3-14-2a45 45 0 0 0-19-1c-2 0-1 3 1 3z"/></g><g fill="#fff"><path d="M204 272a44 44 0 0 0-18 0l-15 3-14-2a45 45 0 0 0-19-1c-2 1-1 3 1 3 11-2 21 3 32 3l13-2a45 45 0 0 1 19-1c2 1 3-2 1-3z"/><path d="M188 275c12-2 21 3 32 3l13-2a45 45 0 0 1 20-1c2 1 2-2 0-3a44 44 0 0 0-17 0c-5 1-10 3-16 3l-14-2a45 45 0 0 0-19-1c-2 1-1 3 1 3z"/><path d="M238 275c9-2 17 1 26 3 9 1 18-2 27-3 2-1 1-4-1-3l-12 2h-17a59 59 0 0 0-24-2c-2 1-1 3 0 3z"/></g><g fill="#fff"><path d="M211 258a48 48 0 0 0-21 1c-6 2-12 3-19 1-2 0-3 3-1 3 7 2 13 1 20-1a44 44 0 0 1 20-1c2 1 3-2 1-3z"/><path d="M195 261c11-2 21 3 32 3 4 1 9-1 13-2a45 45 0 0 1 19-1c2 1 3-2 1-3-6-1-11-1-18 1l-15 2c-5 1-10-1-14-2a45 45 0 0 0-19-1c-2 1-1 4 1 3z"/><path d="M244 261c9-1 16 1 24 2a48 48 0 0 0 23-1c2-1 1-4-1-3l-11 2c-4 1-9 0-13-1a53 53 0 0 0-23-2c-1 1-1 4 1 3z"/></g><g fill="#fff"><path d="M248 214h-17c-5 1-10 3-16 3l-14-3a45 45 0 0 0-19 0c-2 0-1 3 1 3 12-2 21 3 32 3l13-2a45 45 0 0 1 20-1c1 0 2-3 0-3z"/><path d="M233 217c10-2 19 1 29 3 9 1 18-4 27-4 2 0 2-3 0-3-10 0-19 5-29 3-10-1-18-4-28-2-2 0-1 3 1 3z"/><path d="M282 217l8-1c2 0 2-3 0-3l-9 1c-2 0-1 3 1 3z"/></g><g fill="#fff"><path d="M237 228a55 55 0 0 0-24 1c-9 2-16 1-26 0-2 0-2 3 0 3 7 1 15 3 22 1 9-1 17-4 27-2 2 0 2-3 1-3z"/><path d="M221 231c11-2 21 3 32 3l13-2a45 45 0 0 1 19-1c2 0 3-3 1-3a44 44 0 0 0-18 0l-15 3-14-2a45 45 0 0 0-19-1c-2 0-1 3 1 3z"/><path d="M270 231c7-1 13-1 20 1 2 0 3-2 1-3a49 49 0 0 0-22-1c-1 0-1 3 1 3z"/></g><g fill="#fff"><path d="M226 243a49 49 0 0 0-21 1 42 42 0 0 1-20 1c-2-1-3 2-1 3 14 3 27-5 41-2 2 0 2-3 1-3z"/><path d="M210 246c11-2 21 2 32 3l13-2a45 45 0 0 1 19-1c2 0 3-3 1-3a44 44 0 0 0-18 0l-15 3c-5 0-9-2-14-3a45 45 0 0 0-19 0c-2 0-1 3 1 3z"/><path d="M259 246h18l13 3c2 0 2-3 0-3l-14-3a44 44 0 0 0-17 0c-2 0-2 3 0 3z"/></g><path d="M84 163l27 5c4 0 6-6 1-7l-26-5c-5-1-7 6-2 7zm0 10l27 4c4 1 6-6 2-7l-27-4c-4-1-6 6-2 7zm0 9l27 4c4 1 6-6 2-6l-27-5c-4-1-6 6-2 7zm6 10l15 2c4 1 6-6 2-6l-15-3c-5-1-7 6-2 7z" fill="#fff"/><path d="M121 137c0 8-6 14-14 14H89a14 14 0 0 1-14-14V88c0-7 6-13 14-13h18c8 0 14 6 14 13v49z" fill="none" stroke="#fff" stroke-width="10" stroke-miterlimit="10"/><path d="M193 70c6 0 11 1 14 4 4 2 5 5 5 10 0 3 0 5-2 7a13 13 0 0 1-5 4 58 58 0 0 1 2 4l3 4a82 82 0 0 1 3 5 114 114 0 0 1 2 4h-11l-2-4a100 100 0 0 0-2-4 115 115 0 0 0-3-4 41 41 0 0 0-2-3h-5v15h-9V71a53 53 0 0 1 12-1zm1 8h-4v12h3l7-2c1-1 3-2 3-4s-1-4-3-5l-6-1zm45 0c-4 0-7 1-9 3a15 15 0 0 0-3 10v6l3 4a10 10 0 0 0 3 3l5 1h3a13 13 0 0 0 2 0V90h9v21a47 47 0 0 1-14 2l-9-1a18 18 0 0 1-10-11 27 27 0 0 1-2-10l2-9a20 20 0 0 1 4-7 19 19 0 0 1 7-4 23 23 0 0 1 8-1 33 33 0 0 1 9 1 19 19 0 0 1 5 2l-3 7a25 25 0 0 0-4-1l-6-1zm34 35l-7-1a48 48 0 0 1-7 0V71a61 61 0 0 1 6-1 81 81 0 0 1 7 0l7 1a17 17 0 0 1 6 2l3 3 2 6c0 3-2 6-5 8 3 1 4 2 5 4a12 12 0 0 1 2 6c0 4-2 7-5 9a25 25 0 0 1-14 4zm-5-26h5l6-1 2-4-2-3a13 13 0 0 0-6-1h-5v9zm0 7v11a33 33 0 0 0 5 0l7-1c1-1 2-2 2-5 0-2 0-3-2-4l-6-1h-6z" fill="#fff"/></svg>