<svg xmlns="http://www.w3.org/2000/svg" width="361" height="361"><path d="M84 163l27 5c4 0 6-6 1-7l-26-5c-5-1-7 6-2 7zm0 10l27 4c4 1 6-6 2-7l-27-4c-4-1-6 6-2 7zm0 9l27 5c4 0 6-6 2-7l-27-5c-4-1-6 6-2 7zm6 10l15 3c4 0 6-6 2-7l-15-3c-5-1-7 6-2 7z" fill="#fff"/><path d="M121 137c0 8-6 14-14 14H89a14 14 0 0 1-14-14V89c0-8 6-14 14-14h18c8 0 14 6 14 13v49z" fill="none" stroke="#fff" stroke-width="10" stroke-miterlimit="10"/><path d="M232 144l35-3-5-3 20 29 7-6-55-26c-6-3-11 6-5 8l55 26c4 2 10-2 7-7l-20-29-4-2-35 3c-7 1-7 11 0 10z" fill="#fff"/><path d="M254 152l-10 20c-3 6 5 11 8 5l10-21c3-5-5-10-8-5zm-68-7l29 81c2 6 12 4 10-3l-29-81c-2-6-12-4-10 2z" fill="#fff"/><path d="M264 132l-14 10c-2 2-4 5-2 7 1 2 5 3 7 2l14-10c2-2 3-5 2-7-2-2-5-3-7-2z" fill="#fff"/><path d="M273 156l-1-16c0-6-10-6-10 0l1 16c0 6 10 6 10 0zm-51 78l-36-62-4 8h71l-4-8-36 62c-3 5 6 10 9 5l35-62a5 5 0 0 0-4-7h-71a5 5 0 0 0-4 7l35 62c3 5 12 0 9-5zm31 48h-71l1 9 18-3 12-2 4-1h-1l36 6c6 2 9-8 3-9l-36-7-8 1-12 2-18 4c-6 1-4 10 1 10h71c7 0 7-10 0-10z" fill="#fff"/><path d="M213 234v44c0 6 10 6 10 0v-44c0-6-10-6-10 0zm-20-97l-35-27c-5-4-10 4-5 8l35 27c5 4 10-4 5-8z" fill="#fff"/></svg>