<svg xmlns="http://www.w3.org/2000/svg" width="361" height="361"><path d="M84 163l27 5c4 0 6-6 1-7l-26-5c-5-1-7 6-2 7zm0 10l27 4c4 1 6-6 2-7l-27-4c-4-1-6 6-2 7zm0 9l27 5c4 0 6-6 2-7l-27-5c-4-1-6 6-2 7zm6 10l15 3c4 0 6-6 2-7l-15-3c-5-1-7 6-2 7z" fill="#fff"/><path d="M121 137c0 8-6 14-14 14H89a14 14 0 0 1-14-14V89c0-8 6-14 14-14h18c8 0 14 6 14 13v49z" fill="none" stroke="#fff" stroke-width="10" stroke-miterlimit="10"/><g fill="none" stroke="#fff" stroke-width="10" stroke-linecap="round" stroke-linejoin="round" stroke-miterlimit="10"><path d="M209 261l48 26-9-54 39-39-54-7-24-49-25 49-54 7 39 39-9 54z"/><path d="M209 240l24 12-5-27 20-19-27-4-12-24-12 24-28 4 20 19-5 27z"/></g></svg>