<svg xmlns="http://www.w3.org/2000/svg" width="361" height="361"><path d="M84 162.5l26.8 4.6c4.5.7 6.3-6 1.9-6.8l-26.8-4.5c-4.4-.8-6.3 6-1.8 6.7zm.4 9.6l26.7 4.6c4.4.8 6.3-6 1.9-6.8l-26.8-4.5c-4.4-.8-6.3 6-1.8 6.7zm0 9.4L111 186c4.4.8 6.3-6 1.9-6.7l-26.8-4.6c-4.4-.7-6.3 6-1.8 6.8zm5.7 10l15 2.5c4.4.8 6.3-6 1.8-6.8l-15-2.5c-4.4-.8-6.3 6-1.8 6.7z" fill="#fff"/><path d="M121 136.6c0 7.5-6 13.6-13.6 13.6H89.2a13.7 13.7 0 0 1-13.7-13.6V88c0-7.5 6.1-13.7 13.7-13.7h18.2c7.5 0 13.6 6.2 13.6 13.7v48.6z" fill="none" stroke="#fff" stroke-width="10" stroke-miterlimit="10"/><path d="M207.3 269.3h57.3c6.5 0 6.5-10 0-10h-57.3c-6.5 0-6.5 10 0 10zm-80.5 6.5h6.2c2 0 3.5-1.6 3.5-3.5s-1.6-3.5-3.5-3.5h-6.2c-2 0-3.5 1.6-3.5 3.5s1.6 3.5 3.5 3.5zm44.8-7.2h-11.7c-4.5 0-4.5 7 0 7h11.7c4.5 0 4.5-7 0-7zm111.8 13.2h4.6c1.9 0 3.5-1.6 3.5-3.5s-1.6-3.5-3.5-3.5h-4.6c-2 0-3.5 1.6-3.5 3.5s1.6 3.5 3.5 3.5zm-26.7 10h16c4.5 0 4.5-7 0-7h-16c-4.6 0-4.6 7 0 7z" fill="#fff"/><path d="M276.3 288.8h6c1.8 0 3.4-1.6 3.4-3.5s-1.5-3.5-3.4-3.5h-6c-2 0-3.6 1.6-3.6 3.5s1.7 3.5 3.6 3.5z" fill="#fff"/><path d="M286.6 291.8h2c1.9 0 3.5-1.6 3.5-3.5s-1.6-3.5-3.5-3.5h-2c-2 0-3.5 1.6-3.5 3.5s1.6 3.5 3.5 3.5zm1.2-21.8h-.6c-2 0-3.5 1.6-3.5 3.5s1.6 3.5 3.5 3.5h.6c2 0 3.5-1.6 3.5-3.5s-1.6-3.5-3.5-3.5zm-214 12.9h7c4.5 0 4.5-7 0-7h-7c-4.6 0-4.6 7 0 7zm26.5-3h7.7c4.5 0 4.5-7 0-7h-7.7c-4.5 0-4.5 7 0 7zm21.8 11.9h6c1.9 0 3.5-1.6 3.5-3.5s-1.6-3.5-3.5-3.5h-6c-2 0-3.5 1.6-3.5 3.5s1.6 3.5 3.5 3.5zm124.1-7.5h-9c-4.5 0-4.5 7 0 7h9c4.6 0 4.6-7 0-7z" fill="#fff"/><path d="M76.8 277h2c2 0 3.6-1.6 3.6-3.6s-1.6-3.4-3.5-3.4h-2.1c-1.9 0-3.5 1.5-3.5 3.4s1.6 3.6 3.5 3.6zm16.8-.7h-2c-2 0-3.5 1.6-3.5 3.5s1.6 3.5 3.5 3.5h2c1.9 0 3.5-1.6 3.5-3.5s-1.6-3.5-3.5-3.5zm102.6 8.5h-6c-2 0-3.5 1.6-3.5 3.5s1.6 3.5 3.5 3.5h6c1.9 0 3.5-1.6 3.5-3.5s-1.6-3.5-3.5-3.5zm9.7 7h16c4.5 0 4.5-7 0-7h-16c-4.5 0-4.5 7 0 7z" fill="#fff"/><path d="M215.2 288h2c2 0 3.5-1.6 3.5-3.5s-1.6-3.5-3.5-3.5h-2c-1.9 0-3.5 1.6-3.5 3.5s1.6 3.5 3.5 3.5zm-79.3-16h-9c-4.5 0-4.5 7 0 7h9c4.5 0 4.5-7 0-7zm16.5-.2h-6c-1.9 0-3.5 1.6-3.5 3.5s1.6 3.5 3.5 3.5h6c2 0 3.5-1.6 3.5-3.5s-1.6-3.5-3.5-3.5z" fill="#fff"/><path d="M141.9 269.8h-2.1c-2 0-3.5 1.6-3.5 3.5s1.6 3.5 3.5 3.5h2c2 0 3.6-1.6 3.6-3.5s-1.6-3.5-3.5-3.5zm3 22h6c2 0 3.5-1.6 3.5-3.5s-1.6-3.5-3.5-3.5h-6c-1.9 0-3.5 1.6-3.5 3.5s1.6 3.5 3.5 3.5zm-59-.2H101c4.5 0 4.5-7 0-7H85.8c-4.5 0-4.5 7 0 7zm92.4-15h9c4.5 0 4.5-7 0-7h-9c-4.6 0-4.6 7 0 7zm-18.7 15.2h16c4.5 0 4.5-7 0-7h-16c-4.5 0-4.5 7 0 7zm-4.7-8h6c2 0 3.5-1.6 3.5-3.5s-1.6-3.5-3.5-3.5h-6c-1.9 0-3.5 1.6-3.5 3.5s1.6 3.5 3.5 3.5z" fill="#fff"/><path d="M173.3 287.6h2c1.8 0 3.4-1.6 3.4-3.5s-1.5-3.5-3.4-3.5h-2c-2 0-3.6 1.6-3.6 3.5s1.7 3.5 3.6 3.5zm40.1-17.8h-12.2c-4.5 0-4.5 7 0 7h12.2c4.5 0 4.5-7 0-7zm-21.4 8.8h-6c-1.9 0-3.5 1.6-3.5 3.5s1.6 3.5 3.5 3.5h6c1.9 0 3.5-1.6 3.5-3.5s-1.6-3.5-3.5-3.5zm-45.1 1.2h16c4.5 0 4.5-7 0-7h-16c-4.5 0-4.5 7 0 7zm-28.9-4.6h-9c-4.5 0-4.5 7 0 7h9c4.5 0 4.5-7 0-7zm-17.2-6h-6.3c-1.9 0-3.5 1.6-3.5 3.5s1.6 3.5 3.5 3.5h6.3c1.9 0 3.5-1.6 3.5-3.5s-1.6-3.5-3.5-3.5zM87.3 281h-5.5c-2 0-3.5 1.6-3.5 3.5s1.6 3.5 3.5 3.5h5.5c1.9 0 3.5-1.6 3.5-3.5s-1.6-3.5-3.5-3.5zm55.8 1h-2c-2 0-3.5 1.5-3.5 3.4s1.6 3.5 3.5 3.5h2c1.9 0 3.5-1.6 3.5-3.5S145 282 143 282z" fill="#fff"/><path d="M146.8 271.7h-2c-1.9 0-3.5 1.6-3.5 3.5s1.6 3.5 3.5 3.5h2c2 0 3.5-1.6 3.5-3.5s-1.6-3.5-3.5-3.5zm-41.5 20h5.5c1.9 0 3.5-1.7 3.5-3.6s-1.6-3.5-3.5-3.5h-5.5c-2 0-3.5 1.6-3.5 3.5s1.6 3.5 3.5 3.5zm-32-1h2c2 0 3.5-1.6 3.5-3.5s-1.6-3.5-3.5-3.5h-2c-1.9 0-3.5 1.6-3.5 3.5s1.6 3.5 3.5 3.5zm19.3-8.7h2c1.9 0 3.5-1.6 3.5-3.6s-1.6-3.4-3.5-3.4h-2c-2 0-3.5 1.5-3.5 3.4s1.6 3.6 3.5 3.6zm11.2-2.1c4.6 0 4.6-7 0-7s-4.5 7 0 7zm103.7-4h-11.2c-4.5 0-4.5 7 0 7h11.2c4.5 0 4.5-7 0-7zm-67 4.7h-11.2c-4.5 0-4.5 7 0 7h11.2c4.5 0 4.5-7 0-7zm-69.2-10h219c2 0 2-3 0-3h-219c-1.9 0-1.9 3 0 3zm213 2.1h-9c-4.6 0-4.6 7 0 7h9c4.4 0 4.4-7 0-7zm-29 6h-6c-2 0-3.5 1.5-3.5 3.4s1.6 3.5 3.5 3.5h6c1.9 0 3.5-1.6 3.5-3.5s-1.6-3.5-3.5-3.5z" fill="#fff"/><path d="M231.8 275.6h6c1.9 0 3.5-1.6 3.5-3.5s-1.6-3.5-3.5-3.5h-6c-2 0-3.5 1.6-3.5 3.5s1.6 3.5 3.5 3.5zm-9.7 14.2h16c4.5 0 4.5-7 0-7h-16c-4.5 0-4.5 7 0 7zm-4.7-8h6c2 0 3.5-1.6 3.5-3.5s-1.6-3.5-3.5-3.5h-6c-1.9 0-3.5 1.6-3.5 3.5s1.6 3.5 3.5 3.5z" fill="#fff"/><path d="M235.8 285.6h2c1.9 0 3.5-1.6 3.5-3.5s-1.6-3.5-3.5-3.5h-2c-2 0-3.5 1.6-3.5 3.5s1.6 3.5 3.5 3.5zm15.3-13.2h-6c-1.9 0-3.5 1.7-3.5 3.6s1.6 3.4 3.5 3.4h6c2 0 3.5-1.5 3.5-3.4s-1.6-3.6-3.5-3.6zm-69.3 3.5h-2c-1.9 0-3.5 1.6-3.5 3.5s1.6 3.5 3.5 3.5h2c2 0 3.5-1.6 3.5-3.5s-1.6-3.5-3.5-3.5z" fill="#fff"/><path d="M268.2 271.7H257c-4.5 0-4.5 7 0 7h11.2c4.5 0 4.5-7 0-7zm-13.3-158h-35.5c-6.2 0-10.8 3.6-10.8 10.1v18.3c0 3.8 6.3 4.9 6.9.9.4-2.6 6.5-1.4 8.4-1.4 1 0 9.7-.5 9.1.9-2.5 5.2-5.5 10.1-8.3 15.1a5920.6 5920.6 0 0 1-11.8 21.2c-1.4 2.5-4.3 6-4.3 9V263c0 1.9 1.6 3.5 3.5 3.5h48.5c1.9 0 3.5-1.6 3.5-3.5V124c0-5.9-3.5-9.7-9.2-10.4-4.5-.5-4.5 6.5 0 7 3.1.4 2.2 5.5 2.2 7.3V263l3.5-3.5H212l3.5 3.5v-75.6c0 1-.8 2.4-.1 1.1l1.5-2.6a7209 7209 0 0 0 10.8-19.4A669 669 0 0 0 238 148c2.8-5.4 1.5-13.4-6-13.4-6.8 0-21.8-3-23.4 6.5l7 1v-15.7c0-1.6-.8-5.8 2.3-5.8h36.9c4.5 0 4.5-7 0-7z" fill="#fff"/><path d="M210.6 142v45.4c0 1.9 3 1.9 3 0V142c0-2-3-2-3 0zm-40 81.3l27.2-25c3.3-3-1.7-8-5-4.9l-27.1 25c-3.4 3 1.6 8 5 4.9zm-.7-24.9l28.6-22.3c3.6-2.8-1.4-7.7-5-5L165 193.5c-3.5 2.8 1.4 7.7 5 5zm-.8-22l28.8-22.1c3.5-2.7 0-8.8-3.6-6l-28.7 22c-3.6 2.8 0 8.9 3.5 6.1z" fill="#fff"/></svg>