<svg xmlns="http://www.w3.org/2000/svg" width="361" height="361"><path d="M84 162.5l26.8 4.6c4.5.7 6.3-6 1.9-6.8l-26.8-4.5c-4.4-.8-6.3 6-1.8 6.7zm.4 9.6l26.7 4.6c4.4.8 6.3-6 1.9-6.8l-26.8-4.5c-4.4-.8-6.3 6-1.8 6.7zm0 9.4L111 186c4.4.8 6.3-6 1.9-6.7l-26.8-4.6c-4.4-.7-6.3 6-1.8 6.8zm5.7 10l15 2.5c4.4.8 6.3-6 1.8-6.8l-15-2.5c-4.4-.8-6.3 6-1.8 6.7z" fill="#fff"/><path d="M121 136.6c0 7.5-6 13.6-13.6 13.6H89.2a13.7 13.7 0 0 1-13.7-13.6V88c0-7.5 6.1-13.7 13.7-13.7h18.2c7.5 0 13.6 6.2 13.6 13.7v48.6z" fill="none" stroke="#fff" stroke-width="10" stroke-miterlimit="10"/><path d="M169.5 237.3c-5.4-.6-4.2-7.5-4.2-10.8v-96.4c0-5 4.3-4.8 7.3-4.8h111.7c5.2 0 4.5 5 4.5 8v84.4c0 4.7 2.8 19.6-5.5 19.6H169.5c-2 0-2 3 0 3h109.6c2 0 5.2.5 7.3-.2 4.5-1.6 5.4-5 5.4-9.3v-97.9c0-3.2.3-7.1-2.8-9.2-2.8-1.7-5.5-1.4-8.6-1.4H177.6c-6.5 0-15.3-1-15.3 8.2v100c0 5 1.4 9.1 7.2 9.8 2 .2 1.9-2.8 0-3zm6-121.1h33.6c4.5 0 4.5-7 0-7h-33.5c-4.5 0-4.5 7 0 7z" fill="#fff"/><path d="M192.3 123.3c-.1-7.3-5.3-12-12.5-12.1-1.9 0-1.9 3 0 3 5.6 0 9.4 3.5 9.5 9.1 0 2 3 2 3 0zm49.3-7.3H275c4.5 0 4.5-7 0-7h-33.5c-4.5 0-4.5 7 0 7z" fill="#fff"/><path d="M265.3 123.1c-.1-7.2-5.3-12-12.5-12.1-1.9 0-1.9 3 0 3 5.6 0 9.4 3.5 9.5 9.1 0 2 3 2 3 0zm-38.2 78l36-34.2c1.4-1.4-.7-3.5-2-2.2L225 199c-1.4 1.3.7 3.4 2.1 2zm-10.9 25.2L283 163c1.4-1.3-.8-3.4-2.2-2.1l-66.7 63.3c-1.4 1.3.7 3.5 2.1 2.1zm17.3 0l39-37c1.5-1.3-.6-3.4-2-2.1l-39.1 37c-1.4 1.4.7 3.5 2.1 2.2z" fill="#fff"/></svg>