<svg xmlns="http://www.w3.org/2000/svg" width="361" height="361"><path d="M84 163l27 4c4 1 6-6 2-7l-27-4c-4-1-6 6-2 6zm0 9l27 5c5 0 6-6 2-7l-27-5c-4 0-6 6-2 7zm0 9l27 5c4 1 6-6 2-7l-27-4c-4-1-6 6-2 7zm6 11l15 2c5 1 6-6 2-7l-15-2c-4-1-6 6-2 6z" fill="#fff"/><path d="M121 137c0 7-6 13-14 13H89a14 14 0 0 1-13-13V88c0-7 6-14 13-14h18c8 0 14 6 14 14v49z" fill="none" stroke="#fff" stroke-width="10" stroke-miterlimit="10"/><path d="M224 292h26c10 0 10-15 0-15h-26c-10 0-10 15 0 15zm-20-154l27 51c2 4 8 0 6-4l-27-50c-2-4-8-1-6 3z" fill="#fff"/><path d="M231 106v179c0 6 10 6 10 0V106c0-6-10-6-10 0z" fill="#fff"/><path d="M284 70l-49 31h5l-50-31-3 9h100c6 0 6-10 0-10H187c-5 0-6 7-2 10l50 31a5 5 0 0 0 5 0l50-31c5-4 0-12-5-9zm-107 79l31-10c4-1 2-8-2-6l-31 9c-4 2-2 8 2 7z" fill="#fff"/><path d="M168 147l18-1-3-6-14 11 6 2-4-11c-2-4-9-2-7 2l4 11c1 2 4 3 6 1l14-11c2-2 1-6-2-6l-18 1c-5 0-5 7 0 7z" fill="#fff"/></svg>