<svg xmlns="http://www.w3.org/2000/svg" width="361" height="361"><path d="M84 163l27 4c4 1 6-6 2-7l-27-4c-4-1-6 6-2 6zm0 9l27 5c5 0 6-6 2-7l-27-5c-4 0-6 6-2 7zm0 9l27 5c4 1 6-6 2-7l-27-4c-4-1-6 6-2 7zm6 11l15 2c5 1 6-6 2-7l-15-2c-4-1-6 6-2 6z" fill="#fff"/><path d="M121 137c0 7-6 13-14 13H89a14 14 0 0 1-13-13V88c0-7 6-14 13-14h18c8 0 14 6 14 14v49z" fill="none" stroke="#fff" stroke-width="10" stroke-miterlimit="10"/><path d="M211 268h57c5 0 5-7 0-7h-57c-4 0-4 7 0 7z" fill="#fff"/><path d="M269 263V124c0-15-17-12-27-12s-32-4-32 11v140c1 6 11 6 11 0V124c0-3 3-2 5-2h23c2 0 10-1 10 1v140c0 6 10 6 10 0zm-142 13h6c2 0 4-2 4-4s-2-3-4-3h-6c-2 0-4 1-4 3s2 4 4 4zm45-7h-12c-5 0-5 7 0 7h12c4 0 4-7 0-7zm111 13h5c2 0 4-2 4-4s-2-3-4-3h-5c-2 0-3 1-3 3s2 4 3 4zm-26 10h16c4 0 4-7 0-7h-16c-5 0-5 7 0 7z" fill="#fff"/><path d="M276 289h6c2 0 4-2 4-4s-2-3-4-3h-6c-2 0-3 1-3 3s1 4 3 4z" fill="#fff"/><path d="M287 292h2c2 0 3-2 3-4s-1-3-3-3h-2c-2 0-4 1-4 3s2 4 4 4zm1-22h-1c-2 0-3 2-3 4s1 3 3 3h1c2 0 3-2 3-3s-1-4-3-4zM74 283h7c4 0 4-7 0-7h-7c-5 0-5 7 0 7zm26-3h8c5 0 5-7 0-7h-8c-4 0-4 7 0 7zm22 12h6c2 0 4-2 4-4s-2-3-4-3h-6c-2 0-3 1-3 3s1 4 3 4zm124-8h-9c-4 0-4 7 0 7h9c5 0 5-7 0-7z" fill="#fff"/><path d="M77 277h2c2 0 3-2 3-4s-1-3-3-3h-2c-2 0-4 2-4 3s2 4 4 4zm17-1h-2c-2 0-4 2-4 4s2 3 4 3h2c1 0 3-1 3-3s-2-4-3-4zm102 9h-6c-2 0-3 1-3 3s1 4 3 4h6c2 0 4-2 4-4s-2-3-4-3zm10 7h16c4 0 4-7 0-7h-16c-5 0-5 7 0 7z" fill="#fff"/><path d="M215 288h2c2 0 4-2 4-3s-2-4-4-4h-2c-2 0-3 2-3 4s1 3 3 3zm-79-16h-9c-5 0-5 7 0 7h9c4 0 4-7 0-7zm16 0h-6c-2 0-3 1-3 3s1 4 3 4h6c2 0 4-2 4-4s-2-3-4-3z" fill="#fff"/><path d="M142 270h-2c-2 0-4 1-4 3s2 4 4 4h2c2 0 3-2 3-4s-1-3-3-3zm3 22h6c2 0 3-2 3-4s-1-3-3-3h-6c-2 0-4 1-4 3s2 4 4 4zm-59 0h15c5 0 5-7 0-7H86c-5 0-5 7 0 7zm92-15h9c5 0 5-7 0-7h-9c-4 0-4 7 0 7zm-18 15h16c4 0 4-7 0-7h-16c-5 0-5 7 0 7zm-5-8h6c2 0 3-2 3-4s-1-3-3-3h-6c-2 0-4 1-4 3s2 4 4 4z" fill="#fff"/><path d="M173 288h2c2 0 4-2 4-4s-2-3-4-3h-2c-2 0-3 1-3 3s1 4 3 4zm40-18h-12c-4 0-4 7 0 7h12c5 0 5-7 0-7zm-21 9h-6c-2 0-3 1-3 3s1 4 3 4h6c2 0 4-2 4-4s-2-3-4-3zm-45 1h16c4 0 4-7 0-7h-16c-5 0-5 7 0 7zm-29-5h-9c-4 0-4 7 0 7h9c5 0 5-7 0-7zm-17-6h-7c-1 0-3 2-3 4s2 3 4 3h6c2 0 3-1 3-3s-1-4-3-4zm-14 12h-5c-2 0-4 2-4 4s2 3 4 3h5c2 0 4-2 4-3s-2-4-4-4zm56 1h-2c-2 0-3 2-3 3s1 4 3 4h2c2 0 4-2 4-4s-2-3-4-3z" fill="#fff"/><path d="M147 272h-2c-2 0-4 1-4 3s2 4 4 4h2c2 0 3-2 3-4s-1-3-3-3zm-42 20h6c2 0 3-2 3-4s-1-3-3-3h-6c-2 0-3 1-3 3s1 4 3 4zm-32-1h2c2 0 4-2 4-4s-2-3-4-3h-2c-2 0-3 1-3 3s1 4 3 4zm20-9h2c2 0 3-2 3-4s-1-3-3-3h-2c-2 0-4 2-4 3s2 4 4 4zm11-2c4 0 4-7 0-7s-5 7 0 7zm104-4h-12c-4 0-4 7 0 7h12c4 0 4-7 0-7zm-67 5h-12c-4 0-4 7 0 7h12c4 0 4-7 0-7zm-70-10h219c2 0 2-3 0-3H71c-2 0-2 3 0 3zm213 2h-9c-4 0-4 7 0 7h9c5 0 5-7 0-7zm-29 6h-6c-2 0-3 1-3 3s1 4 3 4h6c2 0 4-2 4-4s-2-3-4-3z" fill="#fff"/><path d="M232 276h6c2 0 3-2 3-4s-1-3-3-3h-6c-2 0-4 1-4 3s2 4 4 4zm-10 14h16c5 0 5-7 0-7h-16c-4 0-4 7 0 7zm-5-8h6c2 0 4-2 4-4s-2-3-4-3h-6c-1 0-3 1-3 3s2 4 3 4z" fill="#fff"/><path d="M236 286h2c2 0 3-2 3-4s-1-3-3-3h-2c-2 0-4 1-4 3s2 4 4 4zm15-14h-6c-2 0-3 2-3 4s1 3 3 3h6c2 0 4-1 4-3s-2-4-4-4zm-69 4h-2c-2 0-4 2-4 3s2 4 4 4h2c2 0 3-2 3-4s-1-3-3-3z" fill="#fff"/><path d="M268 272h-11c-4 0-4 7 0 7h11c5 0 5-7 0-7zm-57-140h57c2 0 2-3 0-3h-57c-2 0-2 3 0 3z" fill="#fff"/><path d="M207 137l5-5c2-1 0-3-2-2l-5 4c-1 2 1 4 2 3zm60-5l5 5c2 1 4-1 2-3l-5-4c-1-1-3 1-2 2z" fill="#fff"/><path d="M206 137h67c2 0 2-3 0-3h-67c-2 0-2 3 0 3zm6 5h56c2 0 2-3 0-3h-57c-2 0-2 3 0 3z" fill="#fff"/><path d="M207 146l5-5c2-1 0-3-2-2l-5 5c-1 1 1 3 2 2zm60-5l5 5c2 1 4-1 2-2l-5-5c-1-1-3 1-2 2z" fill="#fff"/><path d="M206 147h67c2 0 2-3 0-3h-67c-2 0-2 3 0 3zm6 4h56c2 1 2-2 0-2h-57c-2 0-2 3 0 3z" fill="#fff"/><path d="M207 156l5-5c2-1 0-3-2-2l-5 5c-1 1 1 3 2 2zm60-5l5 5c2 1 4-1 2-2l-5-5c-1-1-3 1-2 2z" fill="#fff"/><path d="M206 156h67c2 0 2-3 0-3h-67c-2 0-2 3 0 3z" fill="#fff"/><g fill="#fff"><path d="M211 161h57c2 0 2-3 0-3h-56c-2 0-2 3 0 3z"/><path d="M207 165l5-4c2-2 0-4-2-2l-5 4c-1 2 1 4 2 2zm60-4l5 4c2 2 4 0 2-2l-5-4c-1-2-3 0-2 2z"/><path d="M206 166h67c2 0 2-3 0-3h-67c-2 0-2 3 0 3z"/></g><g fill="#fff"><path d="M211 171h57c2 0 2-3 0-3h-56c-2 0-2 3 0 3z"/><path d="M207 175l5-5c2-1 0-3-2-2l-5 5c-1 1 1 3 2 2zm60-5l5 5c2 1 4-1 2-2l-5-5c-1-1-3 1-2 2z"/><path d="M206 175h67c2 0 2-3 0-3h-67c-2 0-2 3 0 3z"/></g></svg>