<svg xmlns="http://www.w3.org/2000/svg" width="361" height="361"><path d="M84 162.5l26.8 4.6c4.5.7 6.3-6 1.9-6.8l-26.8-4.5c-4.4-.8-6.3 6-1.8 6.7zm.4 9.6l26.7 4.6c4.4.8 6.3-6 1.9-6.8l-26.8-4.5c-4.4-.8-6.3 6-1.8 6.7zm0 9.4L111 186c4.4.8 6.3-6 1.9-6.7l-26.8-4.6c-4.4-.7-6.3 6-1.8 6.8zm5.7 10l15 2.5c4.4.8 6.3-6 1.8-6.8l-15-2.5c-4.4-.8-6.3 6-1.8 6.7z" fill="#fff"/><path d="M121 136.6c0 7.5-6 13.6-13.6 13.6H89.2a13.7 13.7 0 0 1-13.7-13.6V88c0-7.5 6.1-13.7 13.7-13.7h18.2c7.5 0 13.6 6.2 13.6 13.7v48.6z" fill="none" stroke="#fff" stroke-width="10" stroke-miterlimit="10"/><path d="M271.7 195.5l-7 46.3c-.7 4.4 6 6.3 6.7 1.8l7-46.2c.7-4.4-6-6.3-6.7-1.9zm-31-4.9v47c0 4.6 7 4.6 7 0v-47c0-4.5-7-4.5-7 0zm-30.8 6.8l7 46.2c.7 4.5 7.4 2.6 6.8-1.8l-7-46.3c-.7-4.4-7.5-2.5-6.8 1.9zm5.4 70.2h57.3c4.5 0 4.5-7 0-7h-57.3c-4.5 0-4.5 7 0 7z" fill="#fff"/><path d="M264.7 265.5c0 3 1.7 12.3-3 12.3h-35c-5.3 0-3.5-9-3.5-12.3 0-4.5-7-4.5-7 0 0 6.8-1.6 18 8 19.2 6.4.7 13.2.1 19.8.1h18.4c10.8 0 9.3-12.1 9.3-19.3 0-4.5-7-4.5-7 0zm-139 10.3h6.3c2 0 3.5-1.6 3.5-3.5s-1.6-3.5-3.5-3.5h-6.2c-2 0-3.5 1.6-3.5 3.5s1.6 3.5 3.5 3.5zm44.9-7.2h-11.7c-4.5 0-4.5 7 0 7h11.7c4.5 0 4.5-7 0-7zm111.8 13.2h4.6c1.9 0 3.5-1.6 3.5-3.5s-1.6-3.5-3.5-3.5h-4.6c-2 0-3.5 1.6-3.5 3.5s1.6 3.5 3.5 3.5z" fill="#fff"/><path d="M255.7 291.8h16c4.5 0 4.5-7 0-7h-16c-4.6 0-4.6 7 0 7z" fill="#fff"/><path d="M275.3 288.8h6c1.8 0 3.4-1.6 3.4-3.5s-1.5-3.5-3.4-3.5h-6c-2 0-3.6 1.6-3.6 3.5s1.7 3.5 3.6 3.5z" fill="#fff"/><path d="M285.6 291.8h2c1.9 0 3.5-1.6 3.5-3.5s-1.6-3.5-3.5-3.5h-2c-2 0-3.5 1.6-3.5 3.5s1.6 3.5 3.5 3.5zm1.2-21.8h-.6c-2 0-3.5 1.6-3.5 3.5s1.6 3.5 3.5 3.5h.6c2 0 3.5-1.6 3.5-3.5s-1.6-3.5-3.5-3.5zm-214 12.9h7c4.5 0 4.5-7 0-7h-7c-4.6 0-4.6 7 0 7zm26.5-3h7.7c4.5 0 4.5-7 0-7h-7.7c-4.5 0-4.5 7 0 7zm21.8 11.9h6c1.9 0 3.5-1.6 3.5-3.5s-1.6-3.5-3.5-3.5h-6c-2 0-3.5 1.6-3.5 3.5s1.6 3.5 3.5 3.5zm124.1-7.5h-9c-4.5 0-4.5 7 0 7h9c4.6 0 4.6-7 0-7z" fill="#fff"/><path d="M75.8 277h2c2 0 3.6-1.6 3.6-3.6s-1.6-3.4-3.5-3.4h-2.1c-1.9 0-3.5 1.5-3.5 3.4s1.6 3.6 3.5 3.6zm16.8-.7h-2c-2 0-3.5 1.6-3.5 3.5s1.6 3.5 3.5 3.5h2c1.9 0 3.5-1.6 3.5-3.5s-1.6-3.5-3.5-3.5zm102.6 8.5h-6c-2 0-3.5 1.6-3.5 3.5s1.6 3.5 3.5 3.5h6c1.9 0 3.5-1.6 3.5-3.5s-1.6-3.5-3.5-3.5zm9.7 7h16c4.5 0 4.5-7 0-7h-16c-4.5 0-4.5 7 0 7z" fill="#fff"/><path d="M214.2 288h2c2 0 3.5-1.6 3.5-3.5s-1.6-3.5-3.5-3.5h-2c-1.9 0-3.5 1.6-3.5 3.5s1.6 3.5 3.5 3.5zm-79.3-16h-9c-4.5 0-4.5 7 0 7h9c4.5 0 4.5-7 0-7zm16.5-.2h-6c-1.9 0-3.5 1.6-3.5 3.5s1.6 3.5 3.5 3.5h6c2 0 3.5-1.6 3.5-3.5s-1.6-3.5-3.5-3.5z" fill="#fff"/><path d="M140.9 269.8h-2.1c-2 0-3.5 1.6-3.5 3.5s1.6 3.5 3.5 3.5h2c2 0 3.6-1.6 3.6-3.5s-1.6-3.5-3.5-3.5zm3 22h6c2 0 3.5-1.6 3.5-3.5s-1.6-3.5-3.5-3.5h-6c-1.9 0-3.5 1.6-3.5 3.5s1.6 3.5 3.5 3.5zm-59-.2H100c4.5 0 4.5-7 0-7H84.8c-4.5 0-4.5 7 0 7zm92.4-15h9c4.5 0 4.5-7 0-7h-9c-4.6 0-4.6 7 0 7zm-18.7 15.2h16c4.5 0 4.5-7 0-7h-16c-4.5 0-4.5 7 0 7zm-4.7-8h6c2 0 3.5-1.6 3.5-3.5s-1.6-3.5-3.5-3.5h-6c-1.9 0-3.5 1.6-3.5 3.5s1.6 3.5 3.5 3.5z" fill="#fff"/><path d="M172.3 287.6h2c1.8 0 3.4-1.6 3.4-3.5s-1.5-3.5-3.4-3.5h-2c-2 0-3.6 1.6-3.6 3.5s1.7 3.5 3.6 3.5zm40.1-17.8h-12.2c-4.5 0-4.5 7 0 7h12.2c4.5 0 4.5-7 0-7zm-21.4 8.8h-6c-1.9 0-3.5 1.6-3.5 3.5s1.6 3.5 3.5 3.5h6c1.9 0 3.5-1.6 3.5-3.5s-1.6-3.5-3.5-3.5zm-45.1 1.2h16c4.5 0 4.5-7 0-7h-16c-4.5 0-4.5 7 0 7zm-28.9-4.6h-9c-4.5 0-4.5 7 0 7h9c4.5 0 4.5-7 0-7zm-17.2-6h-6.3c-1.9 0-3.5 1.6-3.5 3.5s1.6 3.5 3.5 3.5h6.3c1.9 0 3.5-1.6 3.5-3.5s-1.6-3.5-3.5-3.5zM86.3 281h-5.5c-2 0-3.5 1.6-3.5 3.5s1.6 3.5 3.5 3.5h5.5c1.9 0 3.5-1.6 3.5-3.5s-1.6-3.5-3.5-3.5zm55.8 1h-2c-2 0-3.5 1.5-3.5 3.4s1.6 3.5 3.5 3.5h2c1.9 0 3.5-1.6 3.5-3.5S144 282 142 282z" fill="#fff"/><path d="M145.8 271.7h-2c-1.9 0-3.5 1.6-3.5 3.5s1.6 3.5 3.5 3.5h2c2 0 3.5-1.6 3.5-3.5s-1.6-3.5-3.5-3.5zm-41.5 20h5.5c1.9 0 3.5-1.7 3.5-3.6s-1.6-3.5-3.5-3.5h-5.5c-2 0-3.5 1.6-3.5 3.5s1.6 3.5 3.5 3.5zm-32-1h2c2 0 3.5-1.6 3.5-3.5s-1.6-3.5-3.5-3.5h-2c-1.9 0-3.5 1.6-3.5 3.5s1.6 3.5 3.5 3.5zm19.3-8.7h2c1.9 0 3.5-1.6 3.5-3.6s-1.6-3.4-3.5-3.4h-2c-2 0-3.5 1.5-3.5 3.4s1.6 3.6 3.5 3.6zm11.2-2.1c4.6 0 4.6-7 0-7s-4.5 7 0 7zm103.7-4h-11.2c-4.5 0-4.5 7 0 7h11.2c4.5 0 4.5-7 0-7zm-67 4.7h-11.2c-4.5 0-4.5 7 0 7h11.2c4.5 0 4.5-7 0-7zm-69.2-10h144.2c2 0 2-3 0-3H70.3c-1.9 0-1.9 3 0 3zm201.7 0h17.4c2 0 2-3 0-3H272c-1.9 0-1.9 3 0 3zm11.2 2.1h-9c-4.5 0-4.5 7 0 7h9c4.5 0 4.5-7 0-7z" fill="#fff"/></svg>