<svg xmlns="http://www.w3.org/2000/svg" width="361" height="361"><path d="M83.8 162.8l26.8 4.6c4.4.8 6.3-6 1.9-6.8l-26.8-4.5c-4.4-.8-6.3 6-1.9 6.7zm.3 9.7L111 177c4.4.8 6.3-6 1.8-6.7L86 165.7c-4.4-.7-6.3 6-1.9 6.8zm0 9.3l26.8 4.6c4.4.7 6.3-6 1.8-6.8L86 175c-4.4-.7-6.3 6-1.9 6.8zm5.7 10l15 2.5c4.4.8 6.3-6 1.9-6.7l-15-2.6c-4.4-.8-6.3 6-1.9 6.8z" fill="#fff"/><path d="M120.8 136.9c0 7.5-6.1 13.7-13.7 13.7H89a13.7 13.7 0 0 1-13.7-13.7V88.3c0-7.5 6.2-13.6 13.7-13.6h18.2c7.6 0 13.7 6 13.7 13.6V137z" fill="none" stroke="#fff" stroke-width="10" stroke-miterlimit="10"/><path fill="#fff" d="M208.5 190.2l-.2-60.2 79.3 60.2z"/><path d="M213.5 190.2l-.2-60.2-7.5 4.4 79.3 60.1 2.5-9.3h-79.1c-6.5 0-6.5 10 0 10h79.1c5.4 0 6.3-6.5 2.5-9.3l-79.3-60.2c-3-2.3-7.5.9-7.5 4.3l.2 60.2c0 6.4 10 6.4 10 0z" fill="#fff"/><g fill="#fff"><path d="M208.2 190.2l.1-60.2-79.3 60.2z"/><path d="M213.2 190.2l.1-60.2c0-3.4-4.4-6.7-7.5-4.3L126.5 186c-3.7 2.8-2.9 9.3 2.5 9.3h79.2c6.4 0 6.4-10 0-10H129l2.6 9.3 79.3-60.1-7.6-4.4-.1 60.2c0 6.4 10 6.4 10 0z"/></g><path d="M273.7 281.8c0 3-3 5.3-6.5 5.3H150c-3.6 0-6.5-2.4-6.5-5.3v-96c0-3 130.2-3 130.2 0v96z" fill="none" stroke="#fff" stroke-width="10" stroke-miterlimit="10"/><path d="M179.4 227.6c0 1.3-.3 2.5-.8 3.7s-1 2.3-1.9 3.5a28.9 28.9 0 0 1-2.7 3.2 71.3 71.3 0 0 1-3 3 94.7 94.7 0 0 0-1.8 1.7 30.6 30.6 0 0 0-3.5 4.2 4 4 0 0 0-.6 2h16v6h-24.3a3 3 0 0 1-.1-1.4v-1.3c0-2 .4-3.8 1.1-5.5a28.8 28.8 0 0 1 6.5-8.6 217.8 217.8 0 0 0 3.6-3.5 24.5 24.5 0 0 0 2.9-3.3 5.4 5.4 0 0 0 1-3.1c0-1.6-.4-2.7-1.3-3.6a5 5 0 0 0-3.5-1.2c-1.1 0-2.4.3-3.6.9-1.3.5-2.6 1.5-3.8 2.8l-3.7-5.2a15 15 0 0 1 5.6-3.7 17 17 0 0 1 6.2-1.2c1.6 0 3 .2 4.4.7a11.1 11.1 0 0 1 3.7 2 9.5 9.5 0 0 1 2.6 3.3c.7 1.3 1 2.9 1 4.6zm19.3 22.6c0 1.8-.5 3.1-1.6 4a5.8 5.8 0 0 1-5.7 1 5.1 5.1 0 0 1-3-2.6 5.5 5.5 0 0 1-.4-2.3c0-.9.1-1.6.4-2.3a4.8 4.8 0 0 1 1.2-1.7 5.5 5.5 0 0 1 1.7-1 5.8 5.8 0 0 1 2-.3c1.5 0 2.7.4 3.8 1.3a4.8 4.8 0 0 1 1.6 4zm6.3-13.8c0-6.4 1.1-11.3 3.5-14.5 2.4-3.3 5.6-4.9 9.8-4.9 4.4 0 7.7 1.6 10 4.9 2.3 3.3 3.4 8 3.4 14.5s-1.1 11.2-3.5 14.5a11.4 11.4 0 0 1-9.8 4.9c-4.4 0-7.7-1.7-10-5s-3.5-8-3.5-14.4zm7.5 0a39.4 39.4 0 0 0 1 9.2c.4 1.2 1 2 1.8 2.7a4.4 4.4 0 0 0 3 1c1.3 0 2.3-.3 3-1a6.5 6.5 0 0 0 1.9-2.8c.4-1.1.7-2.5.8-4a58 58 0 0 0 0-10.2c-.1-1.6-.4-3-.8-4.1s-1-2-1.8-2.8a4.4 4.4 0 0 0-3-1c-1.3 0-2.4.4-3.1 1-.8.7-1.4 1.7-1.8 2.8s-.7 2.6-.8 4.1a57 57 0 0 0-.2 5zm39.6-13c-1.8 0-3.3.3-4.5 1a8.3 8.3 0 0 0-3 2.6c-.7 1.2-1.3 2.5-1.6 4.1s-.5 3.4-.5 5.3c0 4.4.7 7.7 2 9.8a7 7 0 0 0 6.2 3.1 18.9 18.9 0 0 0 3-.2v-13.6h7.3v18.6a32.6 32.6 0 0 1-10.9 1.7c-2.3 0-4.4-.4-6.2-1.3a12.7 12.7 0 0 1-4.8-3.6 17.3 17.3 0 0 1-3-6 29.6 29.6 0 0 1-1.2-8.5c0-3.2.5-6 1.3-8.4a18.1 18.1 0 0 1 3.4-6 13.8 13.8 0 0 1 5.1-3.8 16.2 16.2 0 0 1 6.3-1.2 20.6 20.6 0 0 1 6.9 1l2 1 1.3.7-2 5.9a15.5 15.5 0 0 0-3.2-1.5c-1.3-.5-2.6-.7-4-.7z" fill="#fff"/></svg>