<svg xmlns="http://www.w3.org/2000/svg" width="361" height="361"><path d="M203 184c6-5 6 5 6 8l1 13v14c1 2 2 7 0 8l2 2v-15l-1-9-3-1 1 21v14c0 2 1 1-1 1l-3 1c-2 0-1 3 1 3 4-1 6-1 6-5v-10l-1-25c0-1-2-2-3 0s0 7 1 9v16a2 2 0 0 0 2 1c4-2 3-6 3-10l-1-21-1-13c-1-6-6-8-11-4-1 1 1 3 2 2z" fill="#fff"/><path d="M212 193c0-5-4-8-8-8-2 0-2 3 0 3s5 2 5 5c0 2 3 2 3 0z" fill="#fff"/><path d="M285 281c0 5-5 4-9 4H172c-5 0-15 2-15-5V89c0-4-2-12 5-12h115c3 0 8-1 8 4v200c0 4 7 4 7 0V81c0-13-14-11-23-11H165l-9 1c-8 4-6 12-6 19v190c0 6 3 11 9 12h122c6 0 11-5 11-11 1-5-6-5-7 0z" fill="#fff"/><path d="M177 157v100c0 4 7 4 7 0V157c0-5-7-5-7 0zm43-83v214c0 5 7 5 7 0V74c0-5-7-5-7 0z" fill="#fff"/><path d="M153 160h70c5 0 5-7 1-7h-71c-4 0-4 7 0 7zm0 101h70c5 0 5-7 1-7h-71c-4 0-4 7 0 7zm70-38h63c4 0 4-7 0-7h-62c-5 0-5 7 0 7zm-42-49h43v-3h-43c-2 0-2 3 0 3zm43-27h65c4 0 4-7 0-7h-65c-4 0-4 7 0 7zm0-39h65c4 0 4-7 0-7h-65c-4 0-4 7 0 7zm-53 136v2h-9v-2l2-1h6l1 1c0 2 3 2 3 0 0-1 0-4-2-4h-5c-3 0-8-1-8 3 0 2 0 6 2 6h10c2 0 3-3 3-5s-3-2-3 0z" fill="#fff"/><path d="M162 236v-2h9v2l-1 2h-7l-1-2c0-2-3-2-3 0 0 1 0 4 2 4l5 1c3 0 8 0 8-4 0-2 0-5-2-6h-10c-2 0-3 3-3 5s3 2 3 0zm1 14l1-1h7l1 2h-8l-1-1c0-2-3-2-3 0s0 4 3 4h4c3 0 8 1 8-4 0-2-1-4-3-4h-9c-3 0-3 2-3 4s3 2 3 0z" fill="#fff"/><path d="M162 229c0-2 0-1 2-1h6c2 0 1 0 1 1l-4 1h-4l-1-2c0-1-3-1-3 1s1 4 3 4h5c3 0 7 0 7-4 0-2 0-4-3-4h-9c-2 0-2 2-3 4h3zm118-31c-1 4-6 3-10 3h-28c-3 0-9 1-9-4s7-4 11-4h26c4 0 10-1 10 5 0 2 3 2 3 0 0-7-5-8-10-8h-30c-5 0-13 0-13 7 0 5 3 7 8 7h35c5 0 9-1 10-6 0-2-3-2-3 0zm-46-15c1-5 6-4 9-4h29c3 0 9-1 9 4s-7 4-11 4h-26c-4 0-10 1-10-5 0-2-3-2-3 0 0 7 4 8 10 8h30c5 0 13 0 13-7 0-5-3-7-9-7h-35c-5 0-8 1-9 6 0 2 3 2 3 0z" fill="#fff"/><path d="M233 207c0-4 7-3 9-3h28c3 0 10-1 10 3s-8 3-11 3h-27c-3 0-9 1-9-3 0-2-3-2-3 0 0 6 5 6 10 6h30c4 0 13 1 13-6 0-5-5-6-9-6h-34c-5 0-10 1-10 6 0 2 3 2 3 0zm0-37c0-4 7-3 9-3h28c3 0 10-1 10 3s-8 3-11 3h-27c-3 0-9 1-9-3 0-2-3-2-3 0 0 6 5 6 10 6h30c4 0 13 1 13-6 0-5-5-6-9-6h-34c-5 0-10 0-10 6 0 2 3 2 3 0zm-21 105c-1 5-7 4-11 4h-5c-2-2-2-4-2-7 0-5 7-4 11-4l5 1c2 1 2 4 2 6s3 2 3 0c0-7-3-10-10-10-6 0-13-1-14 7-1 7 4 10 10 10s13 1 14-7c0-2-3-2-3 0zm-18-90c4-4 7 2 7 6a3882 3882 0 0 1 1 28c0 3 2 11 0 12l2 1-1-26-1 2-2-2 1 22v15c0 2 1 1-1 2h-3c-2 1-1 3 1 3 4-1 6-1 6-5v-10l-1-26-2-2-1 1 1 26a2 2 0 0 0 2 1c4-2 3-8 3-12l-1-22c-1-4 0-10-2-13-3-5-7-8-11-3-2 2 0 4 2 2zm14-4v-1l-1-3a54 54 0 0 1 0-6h-3v1c0 2 3 2 3 0l1-3-2-2 1 2 1 4c0 2 3 2 3 0s0-6-3-7l1 1-2-1c-2 1-3 4-3 6h3v-1c0-2-3-2-3 0 0 3-1 12 3 13 2 1 2-2 0-3zm-25 3h-1l-1-2c2 5 2 8 2 13l1 21v13c0 1 2 13 0 14h2v-7l-1-14v-13c0-2 1-5-1-5h-2v16c0 1 2 19-1 19-2-1-2 2-1 3 8 1 6-9 5-14v-23l-2 1c-1-1-1-1-1 1v5l1 14v13l1 6 2 1c3-2 1-9 1-12v-16l-1-23c0-5 0-9-2-13l-1-1h-2l-1 1c0 2 2 4 3 2z" fill="#fff"/><path d="M188 184c1-2 2 4 2 5v8l1 21 1 14c0 1 2 14 1 15l2 1-1-7-1-15-1-13v-7h-3v18l1 14v6a6 6 0 0 1-3 0c-2-1-3 2-1 2 4 2 7 1 7-4l-1-10a8241 8241 0 0 1 0-22 378 378 0 0 1 0-2c0-1 0-1 0 0l-3-1 1 7v14l1 14 1 7 2 1c2-1 2-3 2-5l-1-11a306 306 0 0 1-2-20v-25l-1-6c-2-4-5-3-7 0-1 1 2 3 3 1zm11-3v-1l-1-3a54 54 0 0 1 0-6h-3v1c0 2 3 2 3 0l1-3-2-2 1 2 1 4c0 2 3 2 3 0s0-6-3-7l1 1-2-1c-2 1-3 4-3 6h3v-1c0-2-3-2-3 0 0 3-1 12 3 13 2 1 2-2 0-3z" fill="#fff"/><path d="M188 181v-1l-1-3a54 54 0 0 1 0-6h-3v1c0 2 3 2 3 0l1-3-2-2 1 2 1 4c0 2 3 2 3 0s0-6-3-7l1 1-2-1c-2 1-3 4-3 6h3v-1c0-2-3-2-3 0 0 3-1 12 3 13 2 1 2-2 1-3z" fill="#fff"/><path d="M186 185h-1a14 14 0 0 1 3 1c1 0 0-1 0 0h1l-1-1c0 2 3 1 3-1s-3-2-4-2-4 0-4 2c-1 2 2 3 3 1zm28-39c0 4-14 2-16 2-3 0-17 2-17-3 0-3 15-2 17-2h10c2 0 6-1 6 3 0 2 3 2 3 0 0-8-12-6-18-6-4 0-21-2-21 5 0 9 13 6 19 6h13c4 0 7-1 7-5 1-2-2-2-3 0z" fill="#fff"/><path d="M182 135c0-4 14-2 17-2 2 0 16-2 16 2s-15 3-17 3h-9c-3 0-7 0-7-3 0-2-3-2-3 0 0 8 13 6 18 6 4 0 21 2 21-5 0-9-12-6-18-6h-14c-4 0-7 1-7 5 0 2 3 2 3 0z" fill="#fff"/><path d="M182 127c1-4 15-2 17-2 1 0 16-2 16 2 0 2-16 1-17 1h-9c-2 0-7 1-7-2 0-2-3-2-3 0 0 7 14 5 19 5 4 0 20 2 20-4 0-8-12-5-17-5h-14c-4 0-7 0-8 4 0 2 3 2 3 1zm51-10c1-3 1-3 3-3h11c2 0 2 1 2 3s-8 2-9 2c-2 0-7 1-7-3 0-2-3-2-3 0 0 7 6 6 10 6s12 1 12-5c0-2 0-5-3-6h-15c-3 0-3 3-4 5 0 2 3 2 3 0z" fill="#fff"/><path d="M249 127c-1 2-2 2-3 2h-11c-2 0-2-1-2-3s7-2 8-2c3 0 8-1 8 3 0 2 3 2 3 0 0-7-6-6-10-6s-12-1-12 5c0 2 0 5 3 6h15c3 0 3-3 4-5 0-2-3-2-3 0z" fill="#fff"/><path d="M249 135c-1 3-7 1-9 1s-7 2-7-2l8-1c1 0 8-1 8 2 0 2 3 2 3 0 0-6-6-5-10-5s-12-1-12 4c0 6 5 5 10 5 4 0 11 2 12-4 0-2-3-2-3 0zm11-17c0-3 1-2 2-2h11c2 0 2 1 2 3s-7 1-8 1c-3 0-7 1-7-2 0-2-3-2-3 0 0 6 5 5 10 5 3 0 11 2 11-4 0-3 0-6-3-6h-14c-3 0-4 2-4 5 0 2 3 2 3 0z" fill="#fff"/><path d="M275 127c0 2-1 2-3 2h-11c-2 0-2-1-2-3 0-3 8-2 9-2 2 0 7-1 7 2 0 2 3 2 3 0 0-6-5-5-10-5-4 0-12-1-12 4 0 3 0 6 3 6l7 1h8c3 0 4-3 4-5s-3-2-3 0z" fill="#fff"/><path d="M275 135c0 3-7 1-8 1-3 0-8 2-8-2l8-1c2 0 8-1 8 2 0 2 3 2 3 0 0-6-6-5-10-5-3 0-12-1-12 4 0 6 5 5 10 5 4 0 11 2 12-4 0-2-3-2-3 0zm-113-7c0-2 0-2 2-2h9c2 0 1 2 1 3 0 2-6 1-7 1h-4c-2 0-1-1-1-2 0-2-3-2-3 0s0 4 2 5h6c3 0 10 2 10-4 0-2 0-5-2-6h-13c-3 0-3 3-3 5s3 2 3 0z" fill="#fff"/><path d="M174 138c0 3 0 2-2 2h-9c-2 0-2-1-2-3s6-1 7-1h5l1 2c0 2 3 2 3 0s0-4-3-5h-5c-4 0-11-1-11 4 0 2 0 6 3 6h12c3 0 4-2 4-5 0-2-3-2-3 0z" fill="#fff"/><path d="M174 147l-2 1h-9c-2 0-2 0-2-2l7-1h4c2 0 2 1 2 2 0 2 3 2 3 0 0-6-5-5-9-5-3 0-10-1-10 4 0 2 1 5 3 5h6c4 0 10 1 10-4 0-2-3-2-3 0zm84 136v-10c0-2-3-2-3 0v10c1 2 4 2 3 0z" fill="#fff"/><path d="M257 267c0 2 0 4-2 5l-3 3-2 5c-2 3-3 2-6 2-2 0-2 3 0 3s4 1 6-1c2-1 3-4 4-7l4-4c2-2 2-4 2-6s-3-2-3 0z" fill="#fff"/><path d="M257 267c-2 4-2-3-5-1-2 1-3 4-4 6a25 25 0 0 1-3 5l-3 3c0 2-1 6 2 5 2 0 1-3 0-3h-1l2 1c-1-1 3-5 4-6l4-8 1-1h-2l1 2 2 2c3 1 4-3 5-5 0-1-2-2-3 0z" fill="#fff"/><path d="M258 283l1-13c1-2-2-1-2 0l-1 13c-1 2 2 2 3 0zm-14-1v-9c0-2-3-2-3 0v9c0 2 3 2 3 0z" fill="#fff"/><path d="M243 266c0 2 0 5-2 6l-3 2-2 5c-2 3-4 3-6 3s-2 3 0 3l6-1 4-7 5-4 1-7c0-2-3-2-3 0z" fill="#fff"/><path d="M243 266c-2 4-2-3-5-1l-4 7a25 25 0 0 1-3 4l-3 4c0 1-1 5 2 5 2-1 1-4 0-3h-1 2l4-6 4-7 1-1h-2l1 1 2 3c3 0 4-3 5-5 0-2-2-3-3-1z" fill="#fff"/><path d="M244 282l2-12c0-2-3-2-3 0l-2 12c0 2 3 2 3 0zm36-1v-12h-3v12c0 2 3 2 3 0z" fill="#fff"/><path d="M278 249a82 82 0 0 1-4 32c-2 0-3 3-1 3 6 1 5-9 6-12 3-7 2-16 2-23 0-2-3-2-3 0z" fill="#fff"/><path d="M280 247c-2 0-4 0-4 2l-1 12c-1 5-1 10-3 14l-1 8 2 1c2-1 1-4 0-3h-1l2 1 1-6 2-9 1-9 1-8c2 0 3-3 1-3z" fill="#fff"/><path d="M280 282l1-16c0-2-3-2-3 0l-1 16c0 2 3 2 3 0z" fill="#fff"/><g fill="#fff"><path d="M270 280v-11c0-2-3-2-3 0v11c0 2 3 2 3 0z"/><path d="M269 248c0 6 0 13-2 19l-1 5c-1 2-1 9-3 8-2 0-3 3-1 3 7 1 4-8 7-12 2-2 2-6 2-9l1-14c0-2-3-2-3 0z"/><path d="M271 246c-8-1-6 8-6 14l-3 14c-1 3-3 5-2 8a2 2 0 0 0 2 1h1c1 0 1-3-1-3h-1l2 1 2-6 2-9 1-9c0-1 0-8 2-8 2 1 3-2 1-3z"/><path d="M270 281l1-15c0-2-3-2-3 0l-1 15c0 2 3 2 3 0z"/></g><g fill="#fff"><path d="M185 282l-1-4c0-2-3-2-3 0l1 4c0 2 3 2 3 0z"/><path d="M183 271l-2 7-1 1c-1 2-1 3-3 2-2 0-2 3 0 3l4-1 2-3c2-2 3-6 3-9 0-2-3-2-3 0z"/><path d="M184 270h-4l-1 4c0 2 0 4-2 5-1 2-2 2-1 4l1 1c2 1 2-2 0-3l1 1 2-2a16 16 0 0 0 2-3l1-4v-1c-1 0-1 1 0 0h1c2 1 2-2 0-3z"/><path d="M185 283v-6c0-2-3-2-3 0v6c-1 2 2 2 3 0z"/></g><g fill="#fff"><path d="M175 282l-1-4c0-2-3-2-2 0v4c0 2 3 2 3 0z"/><path d="M173 271c0 1 0 5-2 6a4 4 0 0 0-1 2l-1 1-2 1c-2 0-2 3 0 3l4-1 2-3c3-2 3-6 3-9 0-2-3-2-3 0z"/><path d="M175 269l-5 1-1 4c0 2-1 4-3 5-1 1-2 3-1 4l1 1c2 0 2-3 0-3l1 1 3-2a17 17 0 0 0 3-7c0-2 0-1-1-1h3c2 0 2-3 0-3z"/><path d="M175 282v-5c0-2-3-2-3 0v5c-1 2 2 2 3 0z"/></g><path d="M214 117c-1 4-15 2-17 2s-16 2-16-3c0-3 14-2 17-2h9c3 0 7-1 7 3 0 2 3 2 3 0 0-8-13-6-18-6s-21-2-21 4c0 9 12 7 18 7h14c4 0 6-1 7-5 0-2-3-2-3 0z" fill="#fff"/><path d="M181 106c1-4 15-2 17-2s17-2 17 2-15 2-17 2h-10c-2 0-7 1-7-2 0-2-3-2-3 0 0 8 13 5 19 5 4 0 21 3 21-4 0-9-13-6-19-6h-14c-4 0-6 1-7 5 0 2 3 2 3 0z" fill="#fff"/><path d="M181 97c1-3 15-2 17-2s17-1 17 2c0 2-16 2-17 2h-10c-2 0-7 0-7-2s-3-2-3 0c0 7 15 5 20 5 3 0 20 2 20-4 0-8-13-6-18-6h-14c-3 0-7 0-8 4 0 2 3 3 3 1zm-97 66l27 4c4 1 6-6 2-6l-27-5c-4-1-6 6-2 7zm0 10l27 4c4 1 6-6 2-7l-27-4c-4-1-6 6-2 7zm0 9l27 4c5 1 6-6 2-6l-27-5c-4-1-6 6-2 7zm6 10l15 2c5 1 6-6 2-6l-15-3c-4-1-6 6-2 7z" fill="#fff"/><path d="M121 137c0 8-6 14-14 14H89a14 14 0 0 1-13-14V88c0-7 6-13 13-13h18c8 0 14 6 14 13v49z" fill="none" stroke="#fff" stroke-width="10" stroke-miterlimit="10"/></svg>