<svg xmlns="http://www.w3.org/2000/svg" width="361" height="361"><path d="M84 260l27 5c4 1 6-6 1-7l-26-4c-5-1-7 6-2 6zm0 10l27 5c4 0 6-6 2-7l-27-5c-4 0-6 6-2 7zm0 9l27 5c4 1 6-6 2-7l-27-4c-4-1-6 6-2 6zm6 10l15 3c4 1 6-6 2-7l-15-2c-5-1-7 6-2 6z" fill="#fff"/><path d="M121 235c0 7-6 13-14 13H89a14 14 0 0 1-14-14v-48c0-8 6-14 14-14h18c8 0 14 6 14 14v49z" fill="none" stroke="#fff" stroke-width="10" stroke-miterlimit="10"/><g fill="#fff"><path d="M266 88c0 9-11 14-18 17a112 112 0 0 1-42 8c-14 0-29-2-42-8-7-3-18-8-18-17 0-6-10-6-10 0 0 12 10 20 20 25a116 116 0 0 0 50 10c17 0 35-3 50-10 10-5 20-13 20-25 1-6-9-6-10 0z"/><path d="M141 93h130c7 0 7-10 0-10H141c-6 0-6 10 0 10z"/></g><path d="M253 83c-1 3-6 2-9 2h-83c-2 0-2-8 0-8h91v7c0 4 7 4 7 0 1-6 1-14-7-14h-90c-6 0-9 4-9 10s1 12 9 12h82c6 0 14 1 16-7 0-5-7-6-7-2zm-1 71l-7-23c-2-4-9-2-7 2l7 23c1 4 8 2 6-2zm-42 4v-23c0-5-7-5-7 0v23c0 5 7 5 7 0zm-42-2l7-23c1-4-6-6-7-2l-7 23c-1 4 5 6 7 2zm-41-12l15-21c3-3-3-7-6-3l-15 20c-3 4 3 7 6 4zm165-4l-16-20c-3-4-9 0-6 3l16 21c2 3 8 0 6-4z" fill="#fff"/></svg>