<svg xmlns="http://www.w3.org/2000/svg" width="361" height="361"><path d="M84 163l27 4c4 1 6-6 2-7l-27-4c-4-1-6 6-2 6zm0 9l27 5c5 0 6-6 2-7l-27-5c-4 0-6 6-2 7zm0 9l27 5c4 1 6-6 2-7l-27-4c-4-1-6 6-2 7zm6 11l15 2c5 1 6-6 2-7l-15-2c-4-1-6 6-2 6z" fill="#fff"/><path d="M121 137c0 7-6 13-14 13H89a14 14 0 0 1-13-13V88c0-7 6-14 13-14h18c8 0 14 6 14 14v49zm166 95a3 3 0 0 1-3 4H121a3 3 0 0 1-3-4v-14a3 3 0 0 1 3-3h163a3 3 0 0 1 3 3v14z" fill="none" stroke="#fff" stroke-width="10" stroke-miterlimit="10"/><path d="M157 215a2 2 0 0 1-2-2l32-32v-63l2-2h27a2 2 0 0 1 2 2v63l32 32a2 2 0 0 1-2 2h-91z" fill="none" stroke="#fff" stroke-width="10" stroke-linecap="round" stroke-linejoin="round" stroke-miterlimit="10"/><path d="M200 256c2 1 4 4 5 7 0 2-3 5-5 7-6 5-8 13-4 20 3 3 9 0 6-4-3-5-1-8 3-11a29 29 0 0 0 5-6c4-6 0-14-5-18-3-3-8 1-5 4zm21 4c2 2 5 4 4 8l-4 4c-5 5-7 11-3 18 2 3 8 0 6-4-3-4-1-6 2-9a26 26 0 0 0 5-6c3-6 0-12-5-16-3-3-8 2-5 5zm-43 0c2 2 5 4 3 8l-4 4c-5 5-7 11-3 18 3 3 9 0 7-4-3-4-1-6 2-9a26 26 0 0 0 4-6c4-6 0-12-4-16-4-3-9 2-5 5zm13-31h12c4 0 4-7 0-7h-12c-4 0-4 7 0 7zm27 0h2c2 0 3-2 3-4s-1-3-3-3h-2c-2 0-4 1-4 3s2 4 4 4zm10 0h1c2 0 4-2 4-4s-2-3-4-3h-1c-2 0-4 1-4 3s2 4 4 4z" fill="#fff"/></svg>