<svg xmlns="http://www.w3.org/2000/svg" width="361" height="361"><path d="M84 162.5l26.8 4.6c4.5.7 6.3-6 1.9-6.8l-26.8-4.5c-4.4-.8-6.3 6-1.8 6.7zm.4 9.6l26.7 4.6c4.4.8 6.3-6 1.9-6.8l-26.8-4.5c-4.4-.8-6.3 6-1.8 6.7zm0 9.4L111 186c4.4.8 6.3-6 1.9-6.7l-26.8-4.6c-4.4-.7-6.3 6-1.8 6.8zm5.7 10l15 2.5c4.4.8 6.3-6 1.8-6.8l-15-2.5c-4.4-.8-6.3 6-1.8 6.7z" fill="#fff"/><path d="M121 136.6c0 7.5-6 13.6-13.6 13.6H89.2a13.7 13.7 0 0 1-13.7-13.6V88c0-7.5 6.1-13.7 13.7-13.7h18.2c7.5 0 13.6 6.2 13.6 13.7v48.6z" fill="none" stroke="#fff" stroke-width="10" stroke-miterlimit="10"/><path d="M136 253l23.7 28.8c2.9 3.5 7.8-1.5 5-5L141 248c-2.9-3.5-7.8 1.5-5 5z" fill="#fff"/><path d="M155.9 274.3l-10.7 8.8c-1.8 1.4-3.3 2.6-5.3.2l-5-6.1-4.7-5.7c-1.7-2-.3-3.7 1.4-5l11.1-9.2c3.5-2.9-1.4-7.8-5-5l-12.4 10.3c-7.6 6.3.4 14.4 4.7 19.5 4.5 5.6 9.6 13.2 17.6 8 4.7-3 8.9-7.3 13.2-10.9 3.5-2.8-1.5-7.7-5-4.9zM269 291c0-9.8-.1-21.4 5.4-29.9 2.8-4.2 7.6-6.4 11.3-9.6 1.5-1.2-.6-3.3-2-2.1-4.3 3.6-9.1 6-12.2 10.8-5.7 8.6-5.5 21-5.5 30.8 0 1.9 3 1.9 3 0z" fill="#fff"/><path d="M261.5 291c0-10 .3-21.9 7.5-29.5 4.4-4.7 11-6.6 16.5-9.8 1.7-1 .2-3.5-1.5-2.6-6 3.5-12.8 5.6-17.6 10.8-7.5 8-7.8 20.8-8 31 0 2 3 2 3 0zm17.5-.4c0-6-.5-14.9 3.8-19.8 1.3-1.5 3.2-1.9 3.5-4.1.2-2-2.8-2-3 0 0 .3-3.4 3-3.9 3.7-3.6 5.6-3.3 14-3.4 20.3 0 1.9 3 1.9 3 0z" fill="#fff"/><path d="M274 291c.9-5.3 1.2-12.4 4.3-17.1 1.6-2.5 5.4-4 7.5-6.1 1.4-1.4-.7-3.5-2.1-2.2-2.4 2.3-5.8 3.8-7.8 6.4-3.6 4.8-3.9 12.6-4.8 18.2-.4 2 2.5 2.7 2.8.8zm-20.2-.2c0-7.7 1.7-20.7-5.6-25.7-1.6-1.1-3 1.5-1.5 2.6 1.2.8 1.7 1 2.3 2.5 2.3 6.3 1.8 14 1.8 20.6 0 2 3 2 3 0z" fill="#fff"/><path d="M261.4 290.4c-1-5.8-1.3-13.2-4.7-18.2-1.9-3-5.7-4.5-8.2-6.9-1.4-1.3-3.5.8-2 2.1 2.2 2.2 5.2 3.7 7.3 6 1.3 1.2 1.7 3.3 2.2 4.9 1.1 4.2 1.8 8.6 2.5 12.9.4 1.9 3.3 1 3-.8zm31.3-106.5c0 2.7-2 4.8-4.6 4.8h-61.5a4.7 4.7 0 0 1-4.6-4.8v-31.7c0-2.7 2-4.8 4.6-4.8H288a4.7 4.7 0 0 1 4.5 4.8v31.7z" fill="#fff"/><path d="M277.4 161.6a3.8 3.8 0 0 1-3.8 3.8h-47.1a3.8 3.8 0 0 1-3.8-3.8v-21.3a3.8 3.8 0 0 1 3.8-3.7h47a3.8 3.8 0 0 1 3.9 3.7v21.3z" fill="#fff"/><path d="M264.9 157.8a6.7 6.7 0 0 1-6.7 6.7H247a6.7 6.7 0 0 1-6.7-6.7V136a6.7 6.7 0 0 1 6.7-6.7h11a6.7 6.7 0 0 1 6.8 6.7v21.7zm-29.7 23.1c0 4.3-3 7.8-6.7 7.8H211c-3.7 0-6.7-3.5-6.7-7.8v-20.5c0-4.4 3-7.9 6.7-7.9h17.6c3.7 0 6.7 3.5 6.7 7.9v20.5zm-6.5 26.4a5.3 5.3 0 0 1-5.3 5.3H210a5.3 5.3 0 0 1-5.3-5.3 5.3 5.3 0 0 1 5.3-5.3h13.4a5.3 5.3 0 0 1 5.3 5.3z" fill="#fff"/><path d="M270.8 197.9a5 5 0 0 1-5 5h-58.5a5 5 0 0 1-5-5v-6.7a5 5 0 0 1 5-5h58.5a5 5 0 0 1 5 5v6.7z" fill="#fff"/><path d="M286.6 209.2c0 1.6-1.7 3-3.8 3H257c-2.2 0-3.9-1.4-3.9-3V174c0-1.6 1.7-3 3.9-3h25.7c2.1 0 3.8 1.4 3.8 3v35.3z" fill="#fff"/><path d="M276.7 221.6c0 3.2-2.3 5.8-5.2 5.8h-48.3c-2.9 0-5.2-2.6-5.2-5.8v-7.7c0-3.2 2.3-5.8 5.2-5.8h48.3c2.9 0 5.2 2.6 5.2 5.8v7.7zm-50.6-20.4l11.3 47" fill="#fff"/><path d="M221.2 202.5l11.3 47c1.5 6.3 11.2 3.6 9.7-2.6l-11.3-47c-1.5-6.3-11.2-3.7-9.7 2.6zm17.2 32.9l17.3-17.2" fill="#fff"/><path d="M242 239l17.2-17.3c4.6-4.5-2.5-11.6-7-7l-17.3 17.2c-4.6 4.5 2.4 11.6 7 7zm22.3-24.5l-14 45.3" fill="#fff"/><path d="M259.5 213.2l-14 45.3c-1.9 6.2 7.8 8.8 9.7 2.6l14-45.3c1.9-6.1-7.8-8.8-9.7-2.6zm-20.1 74l-2-37m7 37l-2-37c-.4-6.4-10.4-6.4-10 0l2 37c.3 6.4 10.3 6.4 10 0z" fill="#fff"/><path fill="#fff" d="M247.4 287.2l2.5-28.5m2.5 28.5l2.5-28.5c.5-6.4-9.5-6.4-10 0l-2.5 28.5c-.6 6.4 9.4 6.3 10 0zm-30 2.5c0-7.2.4-15.3-2.1-22.1-1.4-3.6-4.2-5.8-7-8.2-1.5-1.2-3.6.9-2.1 2.1 2.3 2 4.7 3.8 6 6.7 3 6.2 2.3 14.8 2.3 21.5 0 1.9 3 1.9 3 0z"/><path d="M227.8 289.7c0-7.3 0-15.7-3.8-22.2-2.4-4.1-7-6-11-8.3-1.7-1-3.2 1.6-1.6 2.6 3.4 1.9 7.3 3.5 9.7 6.7 4.2 5.6 3.7 14.6 3.7 21.2 0 1.9 3 1.9 3 0zm-11.7 0c0-5 0-10.7-2.4-15.3a7.7 7.7 0 0 0-2-2.4c-.4-.4-1-1.1-1-.6-.2-1.9-3.2-1.9-3 0 .2 1.7 1.4 2.2 2.5 3.2 3.4 3.4 2.9 10.8 2.9 15 0 2 3 2 3 0z" fill="#fff"/><path d="M219.8 289.3c-.7-4.4-1-10-3.5-13.7-1.4-2.2-4.2-3.4-6-5.2-1.4-1.4-3.6.7-2.2 2 1.7 1.7 3.9 2.8 5.5 4.5.8 1 1.1 2.4 1.4 3.5.9 3.2 1.4 6.5 2 9.7.3 1.9 3.1 1 2.8-.8zm12 .5c0-4-.3-10.2 2.8-13.5 1-1.1 2.5-1.3 2.7-3.2.2-1.9-2.8-1.9-3 0 0-.7 0-.3-.8.2a8.3 8.3 0 0 0-2 2.2c-2.8 3.9-2.7 9.8-2.7 14.3 0 1.9 3 1.9 3 0z" fill="#fff"/><path d="M228 290.2c.6-3.4.8-9 3.1-11.8 1.5-1.7 4-2.7 5.7-4.2 1.5-1.3-.6-3.4-2-2.1-1.9 1.6-4.4 2.6-6 4.4-2.7 3.3-3 8.9-3.7 12.9-.4 1.9 2.5 2.7 2.9.8zm-45-56.7l-21 17.2c-3.5 2.8 1.5 7.8 5 5l20.9-17.3c3.5-2.8-1.5-7.8-5-5zm13.2 14.3L171 257.9c-4.2 1.7-2.4 8.5 1.8 6.8l25.1-10.2c4.2-1.6 2.4-8.4-1.8-6.7zm-26-27.5L155.3 243c-2.5 3.8 3.5 7.3 6 3.5l14.8-22.7c2.5-3.8-3.6-7.3-6-3.5z" fill="#fff"/></svg>