<svg xmlns="http://www.w3.org/2000/svg" width="361" height="361"><path d="M84 163.5l26.8 4.6c4.5.7 6.3-6 1.9-6.8l-26.8-4.5c-4.4-.8-6.3 6-1.8 6.7zm.4 9.6l26.7 4.6c4.4.8 6.3-6 1.9-6.8l-26.8-4.5c-4.4-.8-6.3 6-1.8 6.7zm0 9.4L111 187c4.4.8 6.3-6 1.9-6.7l-26.8-4.6c-4.4-.7-6.3 6-1.8 6.8zm5.7 10l15 2.5c4.4.8 6.3-6 1.8-6.8l-15-2.5c-4.4-.8-6.3 6-1.8 6.7z" fill="#fff"/><path d="M121 137.6c0 7.5-6 13.6-13.6 13.6H89.2a13.7 13.7 0 0 1-13.7-13.6V89c0-7.5 6.1-13.7 13.7-13.7h18.2c7.5 0 13.6 6.2 13.6 13.7v48.6z" fill="none" stroke="#fff" stroke-width="10" stroke-miterlimit="10"/><path d="M250.6 75.5v31.9c0 4.5 7 4.5 7 0v-32c0-4.4-7-4.4-7 0z" fill="#fff"/><path d="M232.2 125.4l24-15.4h-3.5l24.1 15.4 1.8-6.5h-48.2c-4.5 0-4.5 7 0 7h48.2c3.5 0 4.6-4.7 1.7-6.6l-24-15.3a3.5 3.5 0 0 0-3.6 0 322895.1 322895.1 0 0 0-24 15.3c-3.8 2.5-.3 8.5 3.5 6z" fill="#fff"/><path d="M266.1 75.5a4.8 4.8 0 0 1-4.8 4.8h-13.6a4.8 4.8 0 0 1 0-9.6h13.6a4.8 4.8 0 0 1 4.8 4.8z" fill="#fff" stroke="#fff" stroke-miterlimit="10"/><path d="M231.6 178.3h45.7c9.6 0 9.7-15 0-15h-45.6c-9.6 0-9.7 15 0 15zm9.3 114.3H268c6.5 0 6.5-10 0-10h-27c-6.5 0-6.5 10 0 10z" fill="#fff"/><path d="M263.1 173.2v114.6c0 6.5 10 6.5 10 0V173.2c0-6.5-10-6.5-10 0zm-27.2 0v114.2c0 6.5 10 6.5 10 0V173.2c0-6.5-10-6.5-10 0zm-48 115V218c0-4.5-7-4.5-7 0v70c0 4.6 7 4.6 7 0zm22 0V218c0-4.5-7-4.5-7 0v70c0 4.6 7 4.6 7 0z" fill="#fff"/><path d="M184.3 221.6h22c9.7 0 9.7-15 0-15h-22c-9.6 0-9.7 15 0 15zm0 52h22c4.6 0 4.6-7 0-7h-22c-4.5 0-4.5 7 0 7zm0-42.3h22c4.6 0 4.6-7 0-7h-22c-4.5 0-4.5 7 0 7z" fill="#fff"/></svg>