<svg xmlns="http://www.w3.org/2000/svg" width="361" height="361"><g fill="#fff"><path d="M200 281a5 5 0 0 1-5 5h-10a5 5 0 0 1-5-5v-9a5 5 0 0 1 5-5h10a5 5 0 0 1 5 5v9zm89 0a5 5 0 0 1-5 5h-10a5 5 0 0 1-5-5v-9a5 5 0 0 1 5-5h10a5 5 0 0 1 5 5v9zm-12-37h-86c-5 0-9-5-9-11v-1l4-15c1-6 7-11 12-11h73c5 0 11 5 11 11l4 15v1c0 6-4 11-9 11zm-85-8h85a5 5 0 0 0 1-3l-4-15c0-2-2-3-3-3h-73c-1 0-3 1-3 3l-4 15 1 3z"/><path d="M292 267c0 3-2 4-5 4H181c-2 0-5-2-5-4v-23c0-2 3-4 5-4h106c3 0 5 2 5 4v23zm-88-18c0-2-3-4-5-4h-15c-2 0-5 2-5 4v4c0 3 3 4 5 4h15c2 0 5-1 5-4v-4zm85 0c0-2-2-4-5-4h-14c-3 0-5 2-5 4v4c0 3 2 4 5 4h14c3 0 5-1 5-4v-4zm-33 4c0-4-2-8-5-8h-34c-2 0-5 4-5 8v5c0 4 3 7 5 7h34c3 0 5-3 5-7v-5z"/><path d="M207 248h54v8h-54zm1 10h54v8h-54z"/></g><path d="M151 174v112c0 7 10 7 10 0V174c0-6-10-6-10 0z" fill="#fff"/><path d="M287 163H152v-6l1-1h134c7 0 7-10 0-10H152c-10 0-10 10-10 17 0 6 5 10 11 10h134c7 0 7-10 0-10z" fill="#fff"/><path d="M285 175s2 0 0 0H159c-1 0 0 2 0 0v-2c0-2 1 0-1 0h128l-1-1v4c0 5 7 5 7 0s0-11-6-11H159c-6 1-7 6-7 11s5 6 9 6h118c5 0 11 1 13-5 1-4-6-6-7-2zM84 163l27 4c4 1 6-6 2-7l-27-4c-4-1-6 6-2 7zm0 9l27 5c4 0 6-6 2-7l-27-5c-4 0-6 6-2 7zm0 9l27 5c4 1 6-6 2-7l-27-4c-4-1-6 6-2 7zm6 11l15 2c4 1 6-6 2-7l-15-2c-5-1-6 6-2 6z" fill="#fff"/><path d="M121 137c0 7-6 13-14 13H89a14 14 0 0 1-13-13V88c0-7 6-14 13-14h18c8 0 14 6 14 14v49z" fill="none" stroke="#fff" stroke-width="10" stroke-miterlimit="10"/></svg>