<svg xmlns="http://www.w3.org/2000/svg" width="361" height="361"><path d="M84 163l27 5c4 0 6-6 1-7l-26-5c-5-1-7 6-2 7zm0 10l27 4c4 1 6-6 2-7l-27-4c-4-1-6 6-2 7zm0 9l27 5c4 0 6-6 2-7l-27-5c-4-1-6 6-2 7zm6 10l15 3c4 0 6-6 2-7l-15-3c-5-1-7 6-2 7z" fill="#fff"/><path d="M121 137c0 8-6 14-14 14H89a14 14 0 0 1-14-14V89c0-8 6-14 14-14h18c8 0 14 6 14 13v49z" fill="none" stroke="#fff" stroke-width="10" stroke-miterlimit="10"/><path d="M260 162c0 8-7 14-14 19-12 9-26 14-40 18-42 13-87 17-131 17-7 0-7 10 0 10 46 0 93-4 137-18a134 134 0 0 0 42-20c8-7 16-15 16-26 0-7-10-7-10 0z" fill="#fff"/><path d="M83 225v10c0 4 7 4 7 0v-10c0-5-7-5-7 0z" fill="#fff"/><path d="M94 251a6 6 0 0 1-6 6h-3a6 6 0 0 1-6-6v-11a6 6 0 0 1 6-6h3a6 6 0 0 1 6 6v11zm33-29v10c0 4 7 4 7 0v-10c0-5-7-5-7 0z" fill="#fff"/><path d="M138 248a6 6 0 0 1-6 6h-3a6 6 0 0 1-6-6v-11a6 6 0 0 1 6-6h3a6 6 0 0 1 6 6v11zm29-32v10c0 4 7 4 7 0v-10c0-5-7-5-7 0z" fill="#fff"/><path d="M178 242a6 6 0 0 1-6 6h-3a6 6 0 0 1-6-6v-11a6 6 0 0 1 6-6h3a6 6 0 0 1 6 6v11zm30-35v10c0 4 7 4 7 0v-10c0-5-7-5-7 0z" fill="#fff"/><path d="M219 233a6 6 0 0 1-6 6h-3a6 6 0 0 1-6-6v-11a6 6 0 0 1 6-6h3a6 6 0 0 1 6 6v11z" fill="#fff"/><g fill="#fff"><path d="M248 189v10c0 4 7 4 7 0v-10c0-5-7-5-7 0z"/><path d="M259 215a6 6 0 0 1-6 6h-3a6 6 0 0 1-6-6v-11a6 6 0 0 1 6-6h3a6 6 0 0 1 6 6v11z"/></g><g fill="#fff"><path d="M287 155l1-57-76 57z"/><path d="M292 155l1-57c0-4-5-7-8-5l-76 58c-3 3-3 9 3 9h75c7 0 7-10 0-10h-75l2 9 76-57-7-4-1 57c0 7 10 7 10 0z"/></g><path d="M292 152h-52c-6 0-10 3-10 6v123c0 3 4 5 10 5h52" fill="none" stroke="#fff" stroke-width="10" stroke-miterlimit="10"/><path d="M293 207h-18c-4 0-6 3-6 6v68c0 3 2 6 6 6h17" fill="none" stroke="#fff" stroke-width="10" stroke-miterlimit="10"/></svg>