<svg xmlns="http://www.w3.org/2000/svg" width="361" height="361"><path d="M83.8 163l26.8 4.6c4.4.7 6.3-6 1.9-6.8l-26.8-4.5c-4.4-.8-6.3 6-1.9 6.7zm.3 9.6l26.8 4.6c4.4.8 6.3-6 1.8-6.8L86 166c-4.4-.8-6.3 6-1.9 6.7zm0 9.4l26.8 4.5c4.4.8 6.3-6 1.8-6.7L86 175.2c-4.4-.7-6.3 6-1.9 6.8zm5.7 10l15 2.5c4.4.8 6.3-6 1.9-6.8l-15-2.5c-4.4-.8-6.3 6-1.9 6.7z" fill="#fff"/><path d="M120.8 137c0 7.6-6.1 13.7-13.7 13.7H89a13.7 13.7 0 0 1-13.7-13.6V88.5c0-7.5 6.2-13.7 13.7-13.7h18.2c7.6 0 13.7 6.2 13.7 13.7v48.6z" fill="none" stroke="#fff" stroke-width="10" stroke-miterlimit="10"/><path d="M250.1 270l15 7c1.7.8 3.2-1.8 1.5-2.7l-15-7c-1.7-.7-3.2 1.8-1.5 2.7zm-36.7-17.2l16 7.5c1.7.8 3.2-1.8 1.5-2.6l-16-7.5c-1.7-.8-3.2 1.8-1.5 2.6zm32.1 29.8l-21.7-10.1c-4-2-7.6 4.1-3.5 6l21.7 10.1c4 2 7.6-4.1 3.5-6z" fill="#fff"/><path d="M235.5 262.2c-2.9-1.3-6.2-.4-7.4 2.1l-3.9 8.4c-1.1 2.5.3 5.6 3.2 7l9.3 4.3c3 1.4 6.2.4 7.4-2l4-8.4c1-2.5-.3-5.7-3.3-7l-9.3-4.4zm13-3.7l-8.1-3.8c-1.7-.8-3.8-.5-4.8 1.2-.9 1.6-.5 4 1.3 4.8l8 3.8c1.8.8 3.8.5 4.9-1.2.9-1.6.4-4-1.3-4.8zm2-76.2l14.9 7c1.7.8 3.2-1.8 1.5-2.6l-15-7c-1.7-.8-3.2 1.8-1.5 2.6zm-36.8-17.1l16 7.4c1.7.8 3.2-1.8 1.5-2.6l-16-7.4c-1.7-.8-3.2 1.8-1.5 2.6zm32.1 29.7l-21.7-10.1c-4-1.9-7.6 4.1-3.5 6l21.7 10.2c4 1.9 7.6-4.2 3.5-6z" fill="#fff"/><path d="M235.8 174.6c-2.9-1.4-6.2-.5-7.4 2l-3.9 8.4c-1.1 2.5.3 5.6 3.2 7l9.3 4.3c3 1.4 6.3.5 7.4-2l4-8.4c1-2.5-.3-5.6-3.3-7l-9.3-4.3zm13-3.8l-8.1-3.8c-1.7-.8-3.8-.5-4.8 1.3-.9 1.5-.5 4 1.3 4.8l8 3.7c1.8.8 3.8.5 4.9-1.2.9-1.5.4-4-1.3-4.8zm2-74.1l15 7c1.7.8 3.3-1.8 1.5-2.6l-15-7c-1.7-.8-3.2 1.8-1.4 2.6zm-36.7-17.1l16 7.4c1.7.8 3.3-1.8 1.5-2.6l-16-7.4c-1.7-.8-3.2 1.8-1.5 2.6z" fill="#fff"/><g fill="#fff"><path d="M246.3 109.3l-21.8-10.1c-4-1.9-7.6 4.1-3.5 6l21.8 10.2c4 1.9 7.6-4.2 3.5-6z"/><path d="M236.3 89c-3-1.4-6.3-.5-7.4 2l-4 8.4c-1 2.5.3 5.6 3.2 7l9.3 4.3c3 1.4 6.3.5 7.4-2l4-8.4c1.1-2.5-.3-5.6-3.2-7l-9.3-4.3zm13-3.8l-8.2-3.8c-1.7-.8-3.7-.5-4.8 1.3-.9 1.5-.4 4 1.3 4.8l8.1 3.7c1.7.8 3.8.5 4.8-1.2 1-1.5.5-4-1.3-4.8z"/></g><path d="M265.9 71.7v218.8c0 2 3 2 3 0V71.7c0-2-3-2-3 0zm-53-.6v218.8c0 2 3 2 3 0V71.1c0-2-3-2-3 0z" fill="#fff"/></svg>