<svg xmlns="http://www.w3.org/2000/svg" width="361" height="361"><path d="M84 260l27 5c4 1 6-6 1-7l-26-4c-5-1-7 6-2 6zm0 10l27 5c4 0 6-6 2-7l-27-5c-4 0-6 6-2 7zm0 9l27 5c4 1 6-6 2-7l-27-4c-4-1-6 6-2 6zm6 10l15 3c4 1 6-6 2-7l-15-2c-5-1-7 6-2 6z" fill="#fff"/><path d="M121 235c0 7-6 13-14 13H89a14 14 0 0 1-14-14v-48c0-8 6-14 14-14h18c8 0 14 6 14 14v49z" fill="none" stroke="#fff" stroke-width="10" stroke-miterlimit="10"/><path d="M152 88H81c-3 0-4-1-4-4 0-1-1-7 2-7h204c3 0 2 7 2 8 0 4-4 3-6 3h-28c-4 0-4 7 0 7h23c7 0 14 2 17-6l1-10c0-4-3-7-7-9H79c-6 0-9 5-9 11s0 12 7 14h75c5 0 5-7 0-7z" fill="#fff"/><path d="M217 88h-33c-4 0-4 7 0 7h33c4 0 4-7 0-7zm42 39l-6-17c-1-4-8-3-6 2l5 17c1 4 8 3 7-2zm-22 4v-18c0-5-7-5-7 0v18c0 4 7 4 7 0zm-22-2l6-17c1-5-6-6-7-2l-5 17c-2 4 5 6 6 2zm-21-1l-6-17c-1-5-8-3-6 2l5 17c1 4 8 2 7-2zm-22 3v-17c0-5-7-5-7 0v18c0 4 7 4 7 0zm-22-1l6-17c1-5-6-6-7-2l-5 17c-2 4 5 6 6 2zm-1-33h9c2 0 2-3 0-3h-9c-2 0-2 3 0 3z" fill="#fff"/><path d="M248 91c-1 3-11 3-13 4a32 32 0 0 1-15-3c-1-1 4-2 4-2l10-1c2 0 13 0 14 3 0 2 3 1 2-1-1-5-12-5-16-5s-17 0-17 6c0 5 11 5 15 6 4 0 17 0 18-6 1-2-2-3-3-1zm-65 0c-1 3-11 3-13 4-4 0-10 0-15-3-2-1 4-2 4-2l10-1c2 0 13 0 14 3 0 2 3 1 2-1-1-5-12-5-16-5s-17 0-17 6c0 5 11 5 15 6 4 0 17 0 18-6 1-2-2-3-3-1z" fill="#fff"/><path d="M181 97h9c2 0 2-3 0-3h-9c-2 0-2 3 0 3zm32 0h9c2 0 2-3 0-3h-9c-2 0-2 3 0 3zm32 0h9c2 0 2-3 0-3h-9c-2 0-2 3 0 3z" fill="#fff"/></svg>