<svg xmlns="http://www.w3.org/2000/svg" width="361" height="361"><path d="M84 164l27 4c4 1 6-6 2-7l-27-4c-4-1-6 6-2 6zm0 9l27 5c5 0 6-6 2-7l-27-5c-4 0-6 6-2 7zm0 9l27 5c4 1 6-6 2-7l-27-4c-4-1-6 6-2 7zm6 11l15 2c5 1 6-6 2-7l-15-2c-4-1-6 6-2 6z" fill="#fff"/><path d="M121 138c0 7-6 13-14 13H89a14 14 0 0 1-13-13V89c0-7 6-14 13-14h18c8 0 14 6 14 14v49z" fill="none" stroke="#fff" stroke-width="10" stroke-miterlimit="10"/><path d="M200 291c0-11 1-22-3-32-2-5-6-8-10-11-1-1-3 1-2 2 4 3 8 6 9 10 4 10 3 21 3 30 0 3 3 3 3 1z" fill="#fff"/><path d="M208 291c0-11 0-23-5-32-4-5-10-8-16-11-2-1-3 1-1 2 5 3 10 5 14 10 6 8 5 21 5 30 0 3 3 3 3 1zm-20 0c0-9 0-20-5-28a14 14 0 0 0-4-4l-2-2c-1-2-4-2-3 0 0 3 3 4 5 6 6 6 5 19 5 27 1 3 4 3 4 1z" fill="#fff"/><path d="M195 290c-1-7-2-18-7-25l-12-9c-1-1-4 1-2 2 3 4 8 5 11 9 2 2 3 4 3 7l4 17c1 2 3 1 3-1zm19 1c0-6-1-15 4-20 1-1 3-2 3-4 1-2-2-2-3 0l-4 4c-3 5-3 14-3 20 0 2 3 2 3 0z" fill="#fff"/><path d="M208 291c1-5 1-13 5-17l8-6c1-1-1-3-2-2l-9 6c-3 5-4 13-5 18 0 2 3 3 3 1zm66 0c0-10 0-22 6-30 2-4 7-7 11-10 1-1-1-3-2-2-5 4-9 6-13 11-5 9-5 21-5 31 0 2 3 2 3 0z" fill="#fff"/><path d="M267 291c0-10 0-22 7-30 4-5 11-6 17-10 1 0 0-3-2-2-6 3-13 5-18 11-7 8-7 20-8 31 0 2 3 2 3 0zm17-1c0-6 0-15 4-20 1-1 3-1 3-4 0-2-3-2-3 0l-4 4c-3 6-3 14-3 20 0 2 3 2 3 0z" fill="#fff"/><path d="M279 291c1-6 1-13 4-17 2-3 6-4 8-6 1-2-1-4-2-3l-8 7c-4 4-4 12-5 18 0 2 3 3 3 1zm-20 0c0-8 1-21-6-26-1-1-3 1-1 2l2 3c2 6 2 14 2 21 0 2 3 2 3 0z" fill="#fff"/><path d="M266 290c-1-6-1-13-4-18-2-3-6-5-9-7-1-1-3 1-2 2l8 6 2 5 3 13c0 2 3 1 3-1zm26-107c0 3-2 5-5 5h-61a5 5 0 0 1-5-5v-31c0-3 2-5 5-5h61a5 5 0 0 1 5 5v31z" fill="#fff"/><path d="M283 154a4 4 0 0 1-4 3h-47a4 4 0 0 1-3-3v-22a4 4 0 0 1 3-3h47a4 4 0 0 1 4 3v22z" fill="#fff"/><path d="M256 158c0 2-2 4-5 4h-39c-2 0-4-2-4-4v-37c0-2 2-3 4-3h39c3 0 5 1 5 3v37z" fill="#fff"/><path d="M271 150a7 7 0 0 1-7 6h-11a7 7 0 0 1-7-6v-22a7 7 0 0 1 7-7h11a7 7 0 0 1 7 7v22zm-40 36a7 7 0 0 1-6 7h-18a7 7 0 0 1-7-7v-17a7 7 0 0 1 7-7h18a7 7 0 0 1 6 7v18z" fill="#fff"/><path d="M233 160c0 3-4 6-9 6h-16c-5 0-9-3-9-7v-25c0-4 4-7 9-7h16c5 0 9 3 9 7v25z" fill="#fff"/><path d="M209 203a7 7 0 0 1-7 7h-11a7 7 0 0 1-7-7v-45a7 7 0 0 1 7-7h11a7 7 0 0 1 7 7v45z" fill="#fff"/><path d="M260 194a5 5 0 0 1-5 5h-59a5 5 0 0 1-5-5v-6a5 5 0 0 1 5-5h59a5 5 0 0 1 5 5v6zm-32 13a5 5 0 0 1-5 5h-14a5 5 0 0 1-5-5 5 5 0 0 1 5-6h14a5 5 0 0 1 5 6z" fill="#fff"/><path d="M270 197a5 5 0 0 1-5 5h-58a5 5 0 0 1-5-5v-6a5 5 0 0 1 5-5h58a5 5 0 0 1 5 5v6z" fill="#fff"/><path d="M286 209c0 1-2 3-4 3h-26c-2 0-4-2-4-3v-36c0-1 2-3 4-3h26c2 0 4 2 4 3v36z" fill="#fff"/><path d="M276 221c0 3-2 6-5 6h-49c-3 0-5-3-5-6v-8c0-3 2-5 5-5h49c3 0 5 2 5 5v8zm-51-20l11 47" fill="#fff"/><path d="M220 202l12 47c1 6 11 4 9-3l-11-47c-1-6-11-3-10 3zm18 33l17-17" fill="#fff"/><path d="M241 238l17-17c5-4-2-11-7-7l-17 17c-5 5 3 12 7 7zm22-24l-13 45" fill="#fff"/><path d="M259 213l-14 45c-2 6 7 9 9 3l14-46c2-6-7-9-9-2zm-21 74l-1-37m7 37l-2-37c-1-7-11-7-10 0l2 37c0 6 10 6 10 0zm3 0l2-29" fill="#fff"/><path d="M252 287l2-29c1-6-9-6-10 0l-2 29c-1 6 9 6 10 0zm-42-61a8 8 0 0 1-8 8h-22a8 8 0 0 1-8-8v-21a8 8 0 0 1 8-7h22a8 8 0 0 1 8 7v21z" fill="#fff"/><path d="M184 224a6 6 0 0 1-6 6h-10a6 6 0 0 1-6-6v-40a6 6 0 0 1 6-6h10a6 6 0 0 1 6 6v40z" fill="#fff"/><path d="M231 235c0 3-2 5-4 5h-51c-2 0-4-2-4-5v-7c0-2 2-4 4-4h51c2 0 4 2 4 5v6z" fill="#fff"/><path d="M216 240a5 5 0 0 1-5 5h-14a5 5 0 0 1-5-5 5 5 0 0 1 5-5h14a5 5 0 0 1 5 5zm-13-52a7 7 0 0 1-7 7h-17a7 7 0 0 1-7-7v-18a7 7 0 0 1 7-6h17a7 7 0 0 1 7 6v18z" fill="#fff"/><path fill="#fff" d="M193 212l25 41m-30-39l26 42c3 5 12 0 9-5l-26-42c-3-5-12 0-9 5z"/><path fill="#fff" d="M224 287l-6-34m10 32l-5-33c-1-6-10-4-9 3l5 33c1 6 10 4 9-3zm-64 6c0-8 0-16-2-23-1-3-4-5-7-8-2-1-4 1-2 2 2 2 5 4 6 7 3 6 2 15 2 22h3z"/><path d="M170 291c0-8 0-16-4-23-3-4-7-6-11-8-2-1-4 2-2 3 3 2 7 3 10 6 4 6 3 15 3 22 1 2 4 2 4 0zm-12 0c0-5 0-11-3-16a8 8 0 0 0-2-2l-1-1c0-2-3-2-3 0s2 3 3 4c3 3 3 10 3 15 0 2 3 2 3 0z" fill="#fff"/><path d="M161 290c0-4-1-10-3-14l-6-5c-1-1-4 1-2 2l5 5 2 3 2 10c0 2 3 1 3-1zm12 1c0-4 0-11 3-14 1-1 3-1 3-3s-3-2-3 0h-1a8 8 0 0 0-2 2c-3 4-3 10-3 15 0 2 3 2 3 0z" fill="#fff"/><path d="M170 291c0-3 0-9 3-12l5-4c2-1 0-3-2-2l-6 4c-2 4-3 9-3 13-1 2 2 3 3 1z" fill="#fff"/></svg>