<svg xmlns="http://www.w3.org/2000/svg" width="361" height="361"><path d="M77.1 291.2H117c9.6 0 9.7-15 0-15H77.3c-9.7 0-9.7 15 0 15zm33.7-22h39.7c9.7 0 9.8-15 .1-15H111c-9.7 0-9.8 15-.1 15zm33.6-22h39.8c9.7 0 9.7-15 0-15h-39.7c-9.7 0-9.8 15 0 15zm33.7-22h39.7c9.7 0 9.8-15 .1-15h-39.7c-9.7 0-9.8 15-.1 15zm33.6-22h39.8c9.7 0 9.7-15 0-15h-39.7c-9.7 0-9.8 15 0 15zm33.7-22H285c9.7 0 9.8-15 .1-15h-39.7c-9.7 0-9.8 15-.1 15zM84 162.5l26.7 4.6c4.5.7 6.3-6 1.9-6.8l-26.8-4.6c-4.4-.7-6.3 6-1.8 6.8zm.3 9.6l26.7 4.6c4.4.7 6.3-6 1.9-6.8l-26.8-4.5c-4.4-.8-6.3 6-1.8 6.7zm0 9.4L111 186c4.4.8 6.3-6 1.9-6.7l-26.8-4.6c-4.4-.7-6.3 6-1.8 6.8zm5.7 10l15 2.5c4.4.8 6.3-6 1.8-6.8l-15-2.5c-4.4-.8-6.3 6-1.8 6.7z" fill="#fff"/><path d="M121 136.6c0 7.5-6 13.6-13.6 13.6H89.2a13.7 13.7 0 0 1-13.7-13.6V88c0-7.5 6.1-13.7 13.7-13.7h18.2c7.5 0 13.6 6.2 13.6 13.7v48.6z" fill="none" stroke="#fff" stroke-width="10" stroke-miterlimit="10"/></svg>