<svg xmlns="http://www.w3.org/2000/svg" width="361" height="361"><path d="M203.3 183.7c5.3-4.3 5.7 5.5 5.8 8.3l.7 13.1c.2 4.7.5 9.3.6 14 .1 2.3 1.3 7.3-.7 8.3l2.3 1.3-.5-14.3c0-2.4-.9-8.3-.4-9.7l-2.9-.4c.4 7 .4 13.9.6 20.8l.3 11.4v2.2c0 1.9.5 1.4-1.2 1.7l-2.6.5c-2 .4-1.1 3.3.8 3 3.7-.8 6.1-.7 6-5.2l-.2-9.8c-.2-8.2-.2-16.4-.7-24.6-.1-1.7-2.3-2-3-.4-.9 2.4.2 7 .3 9.4l.5 15.4a1.5 1.5 0 0 0 2.3 1.3c3.7-2 2.3-6.3 2.2-10-.2-7-.6-14-1-21-.2-4.3-.2-8.7-1-13-.8-5.8-5.9-8-10.3-4.5-1.6 1.2.6 3.4 2 2.2z" fill="#fff"/><path d="M212.2 192.7c-.1-4.5-4.2-7.9-8.5-8-2 0-2 3 0 3 2.6 0 5.4 2.2 5.5 5 0 1.9 3 2 3 0z" fill="#fff"/><path d="M285.3 280.7c-.5 4.9-5.6 4-9 4H171.8c-4.8 0-15.2 2-15.2-5V89.3c0-4.7-1.6-12.4 5.1-12.4h114.9c3 0 8.6-.8 8.6 4v199.7c0 4.5 7 4.5 7 0V81c0-12.8-14.3-11-22.9-11h-104c-3 0-6.2-.4-9 1-7.9 3.7-6.6 12-6.6 19.2V280c0 5.7 3.7 11.2 9.7 11.7 2.4.2 4.8.1 7.2.1h114c6.6 0 11-4.6 11.7-11 .4-4.5-6.6-4.4-7 0z" fill="#fff"/><path d="M177 156.9v99.8c0 4.5 7 4.5 7 0v-99.8c0-4.6-7-4.6-7 0zm43-83.4v214.7c0 4.5 7 4.5 7 0V73.5c0-4.5-7-4.5-7 0z" fill="#fff"/><path d="M153.2 160.4h70.3c4.5 0 4.5-7 0-7h-70.3c-4.6 0-4.6 7 0 7zm0 100.4h70.3c4.5 0 4.5-7 0-7h-70.3c-4.6 0-4.6 7 0 7zm70.3-38h62.3c4.5 0 4.5-7 0-7h-62.3c-4.6 0-4.6 7 0 7zm-42.7-49h42.7c1.9 0 1.9-3 0-3h-42.7c-1.9 0-1.9 3 0 3zm43.6-26.9h64.4c4.5 0 4.5-7 0-7h-64.4c-4.5 0-4.5 7 0 7zm0-38.6h64.4c4.5 0 4.5-7 0-7h-64.4c-4.5 0-4.5 7 0 7zm-53.5 136.1c0 .6-.3 1.6 0 1.6h-9c.5 0 .2-1.6.2-2.2 0-1.1.5-1.2 1.5-1.2h6.6c1 0 .7 1 .7 1.8 0 2 3 2 3 0 0-1.7 0-4-2-4.6-1.4-.4-3-.2-4.4-.2-3.2 0-8.4-.8-8.4 3.8 0 1.6-.1 5.1 2.2 5.5 1.4.2 3 0 4.5 0h5.1c2.4 0 2.9-2.6 3-4.5 0-2-3-2-3 0z" fill="#fff"/><path d="M162.4 235.8c0-.6.2-1.6 0-1.6h8.9c-.4 0-.1 1.6-.1 2.2 0 1.1-.6 1.2-1.5 1.2H163c-1 0-.7-1-.7-1.8 0-2-3-2-3 0 0 1.7 0 4 2 4.6 1.3.4 3 .2 4.4.2 3.2 0 8.4.8 8.4-3.8 0-1.6 0-5.2-2.2-5.5-1.5-.2-3 0-4.5 0h-5.2c-2.4 0-2.8 2.6-3 4.5 0 2 3 2 3 0zm.3 14c0-1.2 0-.9 1.2-.9h6.7c1.3 0 1 .3 1 1.7 0 .7-4 .4-4.6.4h-3.2c-1 0-1 0-1-1.1 0-2-3-2-3 0s.4 4 2.7 4c1.5.2 3 .1 4.5.1 3.3 0 7.5.6 7.5-3.9 0-1.8-.6-4.2-2.9-4.2h-9c-2.2 0-2.8 2.2-2.9 4 0 2 3 2 3 0z" fill="#fff"/><path d="M162.4 228.5c0-1.2-.1-1 1.2-1h6.7c1.3 0 .9.4.9 1.7 0 .8-4 .5-4.5.5h-3.2c-1 0-1.1 0-1.1-1.2 0-1.9-3-1.9-3 0 0 2 .5 4 2.8 4.1h4.5c3.2 0 7.5.6 7.5-3.8 0-1.9-.7-4.2-2.9-4.2h-9c-2.2 0-2.8 2.1-3 4 0 1.9 3 1.9 3 0zm117.2-31c-.5 4.8-6 3.9-9.2 3.9H242c-3.2 0-9.2 1-9.2-4.2 0-5 7.2-4 10.8-4H270c3.8 0 9.6-.9 9.6 4.3 0 2 3 2 3 0 0-6.5-4.3-7.2-10.1-7.2h-29.9c-4.8 0-12.8-.3-12.8 6.2 0 5.5 3.2 7.9 8.5 7.9h35c5 0 8.8-1.3 9.3-6.9.1-2-2.9-1.9-3 0zm-45.4-15c.4-4.9 6-3.9 9.2-3.9h28.3c3.3 0 9.2-1 9.2 4.2 0 4.9-7.2 3.9-10.8 3.9h-26.4c-3.7 0-9.5 1-9.5-4.3 0-1.9-3-1.9-3 0 0 6.5 4.3 7.3 10 7.3h30c4.8 0 12.7.3 12.7-6.2 0-5.6-3.1-7.9-8.4-7.9h-35c-5 0-8.8 1.3-9.3 6.8-.2 2 2.8 2 3 0z" fill="#fff"/><path d="M232.8 207.1c.5-3.7 6.7-2.8 9.2-2.8h28.4c2.6 0 9.2-.9 9.2 3.2 0 3.7-8 2.7-10.8 2.7h-26.4c-3.3 0-9.6 1.2-9.6-3.1 0-2-3-2-3 0 0 6 5.2 6 10.2 6h29.7c4.6 0 12.9.8 12.9-5.6 0-5.2-4.6-6.2-8.9-6.2h-34.1c-4.5 0-9.1.4-9.8 5.8-.2 1.9 2.8 1.9 3 0zm0-37.3c.5-3.7 6.7-2.8 9.2-2.8h28.4c2.6 0 9.2-.9 9.2 3.2 0 3.7-8 2.7-10.8 2.7h-26.4c-3.3 0-9.6 1.2-9.6-3.1 0-2-3-2-3 0 0 6 5.2 6 10.2 6h29.7c4.6 0 12.9.8 12.9-5.6 0-5.2-4.6-6.2-8.9-6.2h-34.1c-4.5 0-9.1.4-9.8 5.8-.2 1.9 2.8 1.9 3 0zm-21 105c-.5 5.5-7 4.3-10.9 4.3-1.6 0-3.2.2-4.7-.6-2.5-1.1-2.2-4-2.2-6.2 0-5.5 7.3-4.3 10.8-4.3 1.7 0 3.2-.2 4.8.6 2.5 1.1 2.2 4 2.2 6.2 0 2 3 2 3 0 0-6.9-3.2-9.8-10-9.8-6 0-13-.6-13.8 7.3-.6 6.9 3.6 9.8 10 9.8 6 0 13 .6 13.8-7.3.1-2-2.9-2-3 0zm-18.2-89.4c4-4.9 7.2 1.7 7.4 5.6a3881.7 3881.7 0 0 1 1.4 28c0 2.5 1.5 10.6-.6 11.9l2.2 1.3c-.2-8.6-.7-17.2-.8-25.8l-1 1.5-2-1.5c.4 7 .4 14.2.6 21.3l.3 12.4v2.6c.1 2 .6 1.5-1.1 1.9l-2.7.5c-1.9.4-1 3.3.8 2.9 4-.8 6.2-.7 6-5.4l-.2-10.1c-.2-8.7-.2-17.4-.6-26-.1-1-1-1.8-2-1.5-.6.1-1 .8-1 1.4 0 8.6.5 17.2.8 25.7a1.5 1.5 0 0 0 2.2 1.3c4.1-2.3 2.3-8.2 2.2-12.3l-1-22.4c-.3-3.7.4-9.4-1.5-12.8-2.8-5-7.1-8-11.5-2.6-1.2 1.4.9 3.6 2.1 2zm14-4.2c.6.2.1-.2 0-.8l-.3-3a54.4 54.4 0 0 1 0-6.3h-3v.7c0 1.9 2.8 1.9 3 0 0-.4 0-2.7.7-3l-1.9-1.4c0 .7.5 1.3 1.1 1.5.8.3.7 3.3.6 4-.1 2 2.9 2 3 0 .2-2.3-.2-6-2.8-6.9l1.1 1.5c0-1-1-1.8-1.9-1.5-2.5.6-2.9 3.6-3 5.8h3v-.7c0-2-2.9-1.9-3 0 0 2.8-1.2 11.9 2.5 13 2 .5 2.7-2.4.8-3zm-24.6 2.7l-.6-.3-1.4-1.1c1.6 4 1.7 7.6 1.8 12l.8 21 .5 13.3c0 1.6 1.6 13.3 0 14.1l2.1.5c-.5-1-.3-5.4-.3-7.1l-.5-14.7c0-4.4-.2-8.7-.3-13 0-1.3.4-4.3-.9-5-.8-.5-2-.1-2.2.8-.8 5.1.1 10.8.2 16 0 1 1.4 18.7-1 18.3-2-.3-2.7 2.6-.8 2.9 7.3 1.1 5.1-9 5-13.4l-.3-14.7c0-2.4-.4-6.7-.2-8.3l-2.2 1c-1.2-.8-.7-1.3-.6.8v5l.4 13.5.5 13c0 2-.3 4.7.6 6.5.4.7 1.4.9 2.1.5 3.2-1.7 1.6-9 1.6-11.6l-.6-15.7-.8-22.8c-.2-5-.2-9.1-2-13.7-.3-.7-.7-1-1.4-1.1h-.3c-.5-.1-1.1.2-1.3.7l-.5 1c-.8 1.8 1.8 3.3 2.6 1.6z" fill="#fff"/><path d="M187.8 184.2c1-2 1.9 3.8 2 4.9l.2 7.6.7 21.6c0 4.5.5 8.8.9 13.3.2 1.9 2.5 14.4 1 15.3l2 .6c-.4-1.1-.4-5.1-.5-6.8l-.8-14.4-.8-13.7c-.1-2 .1-4.4-.5-6.2-.4-1-1.7-1.5-2.5-.7-1 1-.5 3.5-.5 4.6l.3 14 .3 13.6.1 4v.6c1.2 1.2 1.2 1.7 0 1.6a6 6 0 0 1-2.8-.5c-1.8-.6-2.6 2.3-.8 2.9 4.3 1.4 6.7.5 6.6-4.1l-.2-10.3a8240.9 8240.9 0 0 1-.5-22.4 377.6 377.6 0 0 1 0-1.8c0-1.2.3-.8-.4 0l-2.5-.7c.5 1.4.4 4.8.5 6.8l.8 14.2.8 14c.2 2 0 4.9.9 6.8.3.7 1.4.9 2 .5 1.6-1 1.8-2.8 1.7-4.4-.2-3.8-.7-7.7-1-11.5a306.3 306.3 0 0 1-1.3-19.6l-.8-25c0-2.1 0-4.4-1-6.4-1.6-3.2-5-2.7-6.5 0-1 1.8 1.6 3.3 2.6 1.6zm10.7-3c.7.1.2-.2 0-.8l-.3-3a54.1 54.1 0 0 1 0-6.3h-3v.7c0 1.9 3 1.9 3 0 0-.5 0-2.7.8-3l-2-1.4c0 .7.5 1.3 1.2 1.5.8.3.6 3.3.6 4-.1 2 2.9 2 3 0 .2-2.3-.2-6-2.8-6.9l1 1.4c0-1-.9-1.7-1.8-1.4-2.5.6-2.9 3.6-3 5.8h3v-.7c0-2-2.9-1.9-3 0-.1 2.8-1.2 11.9 2.5 13 1.9.5 2.7-2.4.8-3z" fill="#fff"/><path d="M187.6 181.2c.6.1.2-.2 0-.8l-.3-3a54.4 54.4 0 0 1 0-6.3h-3v.7c0 1.9 2.9 1.9 3 0 0-.5 0-2.7.7-3l-1.9-1.4c0 .7.5 1.3 1.1 1.5.9.3.7 3.3.7 4-.2 2 2.8 2 3 0 .1-2.3-.2-6-2.9-6.9l1.1 1.4c0-1-1-1.7-1.9-1.4-2.4.6-2.8 3.6-3 5.8h3v-.7c0-2-2.8-1.9-3 0 0 2.8-1.1 11.9 2.6 13 1.9.5 2.6-2.4.8-3z" fill="#fff"/><path d="M185.7 184.7c-.1.4-.8.8-.6.8h.3a13.5 13.5 0 0 1 2.8 0c.5 0-.2-.1.2 0h.3c-.4-.1-.6-.4-.7-.8.4 1.9 3.3 1.1 2.9-.8-.4-1.6-2.8-1.5-4-1.5-1.4 0-3.8-.1-4.1 1.5-.5 1.9 2.4 2.7 2.9.8zm28.6-39c-.6 4.2-14.5 2.3-16.7 2.3-2.3 0-16.7 1.9-16.7-2.7 0-3.3 14.7-2.1 17.2-2.1h9.5c2.4 0 6.7-.8 6.7 2.5 0 2 3 2 3 0 0-8-12.7-5.5-18.2-5.5-4.3 0-21.2-2.3-21.2 4.5 0 9 12.6 6.3 18.7 6.3h13.8c3.8 0 6.4-1.3 6.9-5.3.2-2-2.8-1.9-3 0z" fill="#fff"/><path d="M181.9 135c.5-4.1 14.5-2.2 16.7-2.2 2.2 0 16.7-1.9 16.7 2.6 0 3.4-14.8 2.2-17.2 2.2h-9.5c-2.5 0-6.7.8-6.7-2.5 0-2-3-2-3 0 0 8 12.7 5.5 18.2 5.5 4.3 0 21.2 2.3 21.2-4.5 0-9-12.7-6.3-18.7-6.3h-13.9c-3.8 0-6.3 1.3-6.8 5.3-.2 1.9 2.8 1.9 3 0z" fill="#fff"/><path d="M181.8 126.5c.7-3.7 14.7-2 16.8-2 1.6 0 16.7-1.5 16.7 2.2 0 1.8-16 1.1-17.2 1.1h-9.6c-2 0-6.6.9-6.6-1.7 0-2-3-2-3 0 0 7.3 14.4 4.8 19.2 4.8 3.5 0 20.2 2 20.2-3.7 0-8.1-12.3-5.6-17.7-5.6h-13.9c-3.4 0-7 .1-7.8 4.1-.3 1.9 2.6 2.7 3 .8zm51.5-10c.2-2.7 1-2.2 2.8-2.2h10.7c2 0 2.3 1 2.3 3.1s-7.8 1.3-8.8 1.3c-2.5 0-7 1-7-2.3 0-2-3-2-3 0 0 6.4 5.2 5.3 10 5.3 3.8 0 11.8 1.4 11.8-4.3 0-2.5-.3-5.6-3.3-6-2.1-.3-4.4 0-6.5 0h-8.1c-3 0-3.7 2.5-3.9 5-.1 2 2.9 2 3 0z" fill="#fff"/><path d="M248.6 126.5c-.2 2.6-1.1 2-2.8 2H235c-2 0-2.3-.8-2.3-3 0-2 7.8-1.3 8.8-1.3 2.4 0 7-1 7 2.3 0 2 3 2 3 0 0-6.4-5.2-5.3-10-5.3-3.8 0-11.8-1.4-11.8 4.3 0 2.5.3 5.6 3.3 6 2 .3 4.4 0 6.5 0h8c3 0 3.8-2.5 4-5 0-2-3-2-3 0z" fill="#fff"/><path d="M248.6 135c-.3 2.5-6.6 1.3-8.3 1.3-2.5 0-7.5 1.3-7.5-2.1 0-1.3 7.3-.8 8-.8 1.7 0 7.8-1 7.8 1.6 0 1.9 3 1.9 3 0 0-5.8-5.9-4.6-10-4.6-3.4 0-11.8-1.4-11.8 3.8 0 6.2 5.2 5.1 9.8 5.1 4.5 0 11.3 1.7 12-4.3.2-2-2.8-2-3 0zm11-17.2c.1-2.6 1-2 2.8-2H273c2 0 2.3.8 2.3 3 0 2.1-7.8 1.4-8.7 1.4-2.5 0-7 1-7-2.4 0-2-3-2-3 0 0 6.4 5.2 5.4 10 5.4 3.7 0 11.7 1.4 11.7-4.4 0-2.5-.3-5.6-3.3-6-2-.3-4.3 0-6.4 0h-8.1c-3 0-3.8 2.6-4 5 0 2 3 2 3 0z" fill="#fff"/><path d="M274.8 126.5c-.2 2.6-1 2.1-2.8 2.1h-10.7c-2 0-2.2-.9-2.2-3 0-2.2 7.8-1.4 8.7-1.4 2.5 0 7-1 7 2.3 0 2 3 2 3 0 0-6.3-5.2-5.3-10-5.3-3.8 0-11.7-1.4-11.7 4.3 0 2.5.3 5.6 3.3 6 2 .3 4.3.1 6.4.1h8.1c3 0 3.8-2.6 4-5 0-2-3-2-3 0z" fill="#fff"/><path d="M274.8 135c-.3 2.5-6.5 1.4-8.2 1.4-2.5 0-7.5 1.3-7.5-2.2 0-1.2 7.3-.8 8-.8 1.7 0 7.7-1 7.7 1.6 0 2 3 2 3 0 0-5.8-5.8-4.6-10-4.6-3.3 0-11.7-1.4-11.7 3.8 0 6.2 5.1 5.2 9.7 5.2 4.5 0 11.4 1.7 12-4.4.2-2-2.8-2-3 0zm-113-6.8c0-2.2.2-2 2-2h9.2c1.7 0 1.3 1.7 1.3 3.1 0 2-5.9 1.2-7 1.2H163c-1.6 0-1.4-1-1.4-2.3 0-2-3-2-3 0 0 2.3.2 4.2 2.5 5.2 1.5.5 4 .1 5.5.1 3.6 0 10.6 1.3 10.6-4.2 0-1.8 0-5.7-2.5-6-2-.4-4-.2-5.9-.2h-6.7c-2.8 0-3.4 2.8-3.5 5 0 2 3 2 3 0z" fill="#fff"/><path d="M173.9 138.3c-.1 2.2-.3 2-2.1 2h-9.3c-1.7 0-1.2-1.8-1.2-3.2 0-1.9 5.8-1.2 7-1.2h4.2c1.5 0 1.4 1 1.4 2.4 0 1.9 3 1.9 3 0 0-2.3-.2-4.3-2.5-5.2-1.5-.6-4-.2-5.5-.2-3.6 0-10.6-1.2-10.6 4.2 0 1.9 0 5.8 2.5 6.1 2 .3 4 .1 5.9.1h6.7c2.8 0 3.4-2.8 3.5-5 0-2-3-2-3 0z" fill="#fff"/><path d="M173.9 146.7c-.2 1.8-.8 1.4-2.1 1.4h-8.9c-1.5 0-1.6-.5-1.6-2.2 0-1.2 6.5-.7 7-.7h4c1.2 0 1.6.3 1.6 1.5 0 2 3 2 3 0 0-5.4-4.5-4.5-8.6-4.5-3.2 0-10-1.2-10 3.7 0 2.2.3 4.8 2.9 5.2 1.8.2 3.7 0 5.5 0 4.2 0 9.8 1.4 10.2-4.4 0-1.9-3-1.9-3 0zm84.5 135.9l-.4-9.7c0-1.9-3-2-3 0l.4 9.7c.1 2 3.1 2 3 0z" fill="#fff"/><path d="M256.9 266.6c0 2 .2 4.5-1.7 5.8-1.3.9-2.4 1.1-3.3 2.4-1 1.5-1.6 3.5-2.3 5.1-1.3 2.6-3 2.5-5.6 2.3-2-.1-2 2.9 0 3 2.4.2 4.4.4 6.4-1.2 1.8-1.5 2.5-4.4 3.5-6.6 1-2 3.3-2.2 4.6-4 1.4-2 1.3-4.5 1.4-6.8 0-2-3-2-3 0z" fill="#fff"/><path d="M256.9 266.6c-1.5 4-1.7-2.7-4.6-.9-2 1.3-3 4.5-4 6.5a24.8 24.8 0 0 1-3.1 4.7c-1 1.1-2.3 1.6-2.8 3-.8 1.8-1.2 6 2 5.3 1.9-.4 1-3.3-.8-3l-.3.1 1.4.4c-.7-.6 3.8-5.2 4.4-6 1.5-2.3 2.6-5 4-7.3.1-.4.3-.7.6-1h-1.2l.4 1.3c.3 1 1 2 2 2.2 2.8.8 4.2-2.6 4.9-4.5.7-1.8-2.2-2.6-2.9-.8z" fill="#fff"/><path d="M258.4 282.6l1.1-12.2c.2-2-2.8-1.9-3 0l-1 12.2c-.3 2 2.7 1.9 3 0zm-14-.5l-.4-9.6c-.1-2-3.1-2-3 0l.4 9.6c0 2 3 2 3 0z" fill="#fff"/><path d="M242.8 266.1c0 2 .3 4.5-1.6 5.8-1.3.9-2.4 1.2-3.3 2.5-1.1 1.5-1.6 3.5-2.3 5-1.3 2.7-3.1 2.5-5.6 2.4-2-.2-2 2.8 0 3 2.4.1 4.4.4 6.3-1.2 2-1.6 2.6-4.5 3.6-6.6.9-2 3.3-2.3 4.6-4 1.4-2 1.3-4.6 1.3-6.9 0-1.9-3-1.9-3 0z" fill="#fff"/><path d="M242.9 266.1c-1.5 4.1-1.7-2.7-4.7-.8-2 1.3-3 4.4-4 6.4a24.9 24.9 0 0 1-3 4.8c-1 1-2.3 1.5-2.8 3-.8 1.7-1.2 5.9 2 5.2 1.8-.4 1-3.3-.9-2.9h-.3l1.5.5c-.8-.7 3.8-5.2 4.4-6 1.5-2.4 2.6-5 4-7.4.1-.3.3-.7.6-1h-1.2l.3 1.3c.3 1 1.1 2 2.2 2.3 2.6.7 4.1-2.7 4.8-4.6.6-1.8-2.3-2.6-3-.8z" fill="#fff"/><path d="M244.4 282.1l1.1-12.1c.2-2-2.8-2-3 0l-1.1 12.1c-.2 2 2.8 2 3 0zm35.7-1l-.2-11.7c0-1.9-3-1.9-3 0l.2 11.7c0 2 3 2 3 0z" fill="#fff"/><path d="M278.3 248.5a82 82 0 0 1-4.8 32.5c-2-.3-2.7 2.6-.8 3 6.3 1 5-8.6 6.5-12.5 2.8-6.7 2-15.8 2.1-23 0-2-3-2-3 0z" fill="#fff"/><path d="M280.2 247c-2.1-.3-4.4-.2-4.6 2.4-.5 4-.3 8-.7 12-.5 4.6-1 9.3-2.4 13.7-.8 2.6-1.9 5-1.2 7.8.2.8 1.1 1.3 1.9 1h.1c1.9-.5 1.1-3.4-.8-2.9h-.1l1.8 1.1c-.5-2.2.5-4.2 1.2-6.2 1-3 1.4-6.2 1.9-9.3.4-2.8.7-5.7.9-8.6 0-1.3-.2-8.3 1.2-8 2 .3 2.7-2.6.8-3z" fill="#fff"/><path d="M280.1 281.9l.5-15.5c0-2-3-2-3 0l-.5 15.5c0 1.9 3 1.9 3 0z" fill="#fff"/><g fill="#fff"><path d="M270.4 280.3l-.2-11.6c0-2-3-2-3 0l.2 11.6c0 2 3 2 3 0z"/><path d="M268.8 247.7c0 6.5-.3 13.2-1.5 19.5-.4 1.8-1.4 3.1-1.8 4.8-.5 1.8-.7 8.6-2.8 8.2-2-.3-2.7 2.6-.8 3 7.2 1.2 4.5-8.2 7.2-12.1 1.7-2.3 1.6-6.3 2-9 .5-4.7.7-9.6.7-14.4 0-1.9-3-1.9-3 0z"/><path d="M270.7 246.3c-7.6-1.2-5.3 8-5.9 13.2-.5 4.7-1.2 9.5-2.6 14-1 3-2.7 5.4-1.7 8.6a1.5 1.5 0 0 0 1.8 1h.2c1.9-.4 1.1-3.3-.8-2.9h-.2l1.9 1.1c-.7-2.3.6-4.1 1.4-6.1 1-3 1.6-6.2 2.2-9.3.4-3 .8-5.8 1-8.7.2-1.6-.4-8.4 1.9-8 1.9.3 2.7-2.6.8-3z"/><path d="M270.4 281l.6-15.4c0-2-3-1.9-3 0l-.6 15.5c0 2 3 2 3 0z"/></g><g fill="#fff"><path d="M184.5 282.4l-.2-4.1c-.1-2-3.1-2-3 0l.2 4c0 2 3 2 3 0z"/><path d="M182.6 271c0 2.1-.2 4.6-1.3 6.5-.3.6-1 1-1.4 1.6-.7 1.4-.7 2.4-2.5 2.2-2-.1-2 3 0 3 1.5.1 2.6.1 3.7-1 1-1 1.2-2.5 2.1-3.4 2.1-2.1 2.4-6.1 2.4-9 0-1.9-3-1.9-3 0z"/><path d="M184.1 269.5c-1.3-.1-3-.4-4 .9-.6 1-.4 2.6-.6 3.7-.4 1.9-1 4-2.4 5.3-1 1.2-2.1 2.1-1.5 3.8.3.7.7 1 1.5 1.1h.2c1.9.2 1.9-2.8 0-3h-.2l1.4 1.1c0-.2 1.7-2 1.9-2.3a16 16 0 0 0 1.5-3.6c.4-1 .7-2.2.8-3.4v-1.3c-.6.5-.6.7 0 .6h1.4c2 .2 2-2.8 0-3z"/><path d="M184.5 282.6l.4-5.4c.2-2-2.8-1.9-3 0l-.4 5.4c-.2 2 2.8 2 3 0z"/></g><g fill="#fff"><path d="M174.7 282l-.2-4c-.1-2-3.1-2-3 0l.2 4c.1 2 3.1 2 3 0z"/><path d="M173.1 270.7c0 1.7-.1 5.8-2 6.7a3.9 3.9 0 0 0-1.5 1.7l-.7 1.4c-.5.9-1.4.6-2.3.6-2-.2-2 2.8 0 3 1.6 0 2.8 0 4-1 1.2-1 1.5-2.5 2.7-3.5 2.3-2 2.7-6 2.8-9 0-1.9-3-1.9-3 0z"/><path d="M174.6 269.2c-1.4-.1-3.3-.4-4.3.7-1 1-.6 2.7-.9 3.8-.5 2-1.4 4.3-3 5.5-1.4 1-2.3 2.4-1.5 4.1.2.5.8.7 1.3.8h.2c2 0 2-3 0-3h-.2l1.3.7c.3.6 2.2-1.7 2.3-1.9a17.4 17.4 0 0 0 2.9-7.4c.1-1.2 0-.4-.5-.4h2.4c2 .2 2-2.8 0-3z"/><path d="M174.7 282.4l.6-5.4c.2-2-2.8-2-3 0l-.6 5.3c-.2 2 2.8 2 3 0z"/></g><path d="M213.8 116.5c-.5 4.2-14.5 2.3-16.7 2.3-2.2 0-16.6 1.9-16.6-2.7 0-3.3 14.7-2.1 17.1-2.1h9.6c2.4 0 6.6-.9 6.6 2.5 0 2 3 2 3 0 0-8-12.7-5.6-18.2-5.6-4.3 0-21.1-2.3-21.1 4.5 0 9 12.6 6.4 18.6 6.4H210c3.8 0 6.3-1.3 6.8-5.3.2-2-2.8-1.9-3 0z" fill="#fff"/><path d="M181.4 105.8c.6-4.1 14.5-2.2 16.7-2.2 2.3 0 16.7-2 16.7 2.6 0 3.4-14.7 2.2-17.2 2.2h-9.5c-2.4 0-6.7.8-6.7-2.6 0-1.9-3-1.9-3 0 0 8.1 12.7 5.6 18.2 5.6 4.3 0 21.2 2.3 21.2-4.5 0-9-12.6-6.3-18.7-6.3h-13.8c-3.8 0-6.3 1.2-6.8 5.2-.3 2 2.7 2 3 0z" fill="#fff"/><path d="M181.4 97.3c.7-3.7 14.7-2 16.7-2 1.6 0 16.7-1.5 16.7 2.2 0 1.8-16 1.1-17.2 1.1h-9.5c-2 0-6.7.8-6.7-1.7 0-2-3-2-3 0 0 7.2 14.4 4.7 19.2 4.7 3.5 0 20.2 2 20.2-3.6 0-8.1-12.3-5.6-17.7-5.6h-13.8c-3.4 0-7 0-7.8 4-.3 2 2.5 2.8 2.9.9zm-97.3 65.6l26.7 4.6c4.5.8 6.3-6 1.9-6.7l-26.8-4.6c-4.4-.8-6.3 6-1.8 6.7zm.3 9.7L111 177c4.4.8 6.3-6 1.9-6.7l-26.8-4.6c-4.4-.8-6.3 6-1.8 6.8zm0 9.3l26.7 4.6c4.4.7 6.3-6 1.9-6.8l-26.8-4.5c-4.4-.8-6.3 6-1.8 6.7zm5.7 10l15 2.5c4.4.8 6.3-6 1.8-6.7L92 185c-4.4-.7-6.3 6-1.8 6.8z" fill="#fff"/><path d="M121 137c0 7.5-6 13.7-13.6 13.7H89.2A13.7 13.7 0 0 1 75.5 137V88.4c0-7.5 6.1-13.6 13.7-13.6h18.2c7.5 0 13.6 6 13.6 13.6V137z" fill="none" stroke="#fff" stroke-width="10" stroke-miterlimit="10"/></svg>