<svg xmlns="http://www.w3.org/2000/svg" width="361" height="361"><path d="M84 163l27 4c4 1 6-6 2-7l-27-4c-4-1-6 6-2 6zm0 9l27 5c5 0 6-6 2-7l-27-5c-4 0-6 6-2 7zm0 9l27 5c4 1 6-6 2-7l-27-4c-4-1-6 6-2 7zm6 11l15 2c5 1 6-6 2-7l-15-2c-4-1-6 6-2 6z" fill="#fff"/><path d="M121 137c0 7-6 13-14 13H89a14 14 0 0 1-13-13V88c0-7 6-14 13-14h18c8 0 14 6 14 14v49z" fill="none" stroke="#fff" stroke-width="10" stroke-miterlimit="10"/><path d="M289 278H163c-2 0-6 1-6-2V95c0-2-1-6 2-6h130c4 0 4-7 0-7H163c-3 0-6 0-9 2-6 3-4 13-4 19v165c0 7-1 17 9 17h130c4 0 4-7 0-7z" fill="#fff"/><path d="M161 291h13c6 0 6-10 0-10h-13c-7 0-7 10 0 10zm92-52l28-25c1-2-1-4-2-3l-29 26c-1 1 1 4 3 2zm-4 15l42-40c2-1 0-3-2-2l-42 40c-2 2 1 4 2 2zm9 4l30-28c1-1-1-3-2-2l-30 28c-1 1 1 4 2 2z" fill="#fff"/><path d="M290 274h-55c-3 0-9 1-9-5V98c0-5 11-4 14-4h50c2 0 2-3 0-3h-55c-4 0-8 0-11 4l-1 7v168c0 10 10 8 17 8h50c2 0 2-3 0-3zM244 77h33c5 0 5-7 0-7h-33c-5 0-5 7 0 7z" fill="#fff"/><path d="M260 84c0-7-5-12-12-12-2 0-2 3 0 3 5 0 9 3 9 9 0 2 3 2 3 0zm-16 42l21-20c1-1-1-3-2-2l-21 20c-1 1 1 4 2 2zm1 14l32-31c2-1 0-3-2-2l-32 31c-2 1 0 4 2 2zm13 0l22-22c2-1 0-3-1-2l-23 22c-2 1 0 3 2 2zm-53 33v16c0 4 7 4 7 0v-16c0-4-7-4-7 0zm9-84v191c0 4 7 4 7 0V89c0-5-7-5-7 0z" fill="#fff"/></svg>