<svg xmlns="http://www.w3.org/2000/svg" width="361" height="361"><path d="M84 163l27 5c4 0 6-6 1-7l-26-5c-5-1-7 6-2 7zm0 10l27 4c4 1 6-6 2-7l-27-4c-4-1-6 6-2 7zm0 9l27 5c4 0 6-6 2-7l-27-5c-4-1-6 6-2 7zm6 10l15 3c4 0 6-6 2-7l-15-3c-5-1-7 6-2 7z" fill="#fff"/><path d="M121 137c0 8-6 14-14 14H89a14 14 0 0 1-14-14V89c0-8 6-14 14-14h18c8 0 14 6 14 13v49z" fill="none" stroke="#fff" stroke-width="10" stroke-miterlimit="10"/><g fill="none" stroke="#fff" stroke-width="10" stroke-linecap="round" stroke-miterlimit="10"><path d="M286 287c0-39-39-71-88-71s-88 32-88 71"/><path d="M266 287c0-30-30-55-68-55s-68 25-68 55m-20 0h20m136 0h20"/></g><path d="M207 220a5 5 0 0 1-5 5h-8a5 5 0 0 1-5-5v-25a5 5 0 0 1 5-5h8a5 5 0 0 1 5 5v25z" fill="#fff"/><ellipse cx="198" cy="182" rx="7" ry="18" fill="none" stroke="#fff" stroke-width="7" stroke-miterlimit="10"/><path d="M247 228a5 5 0 0 1-5 5h-8a5 5 0 0 1-5-5v-25a5 5 0 0 1 5-5h8a5 5 0 0 1 5 5v25z" fill="#fff"/><ellipse cx="238" cy="190" rx="7" ry="18" fill="none" stroke="#fff" stroke-width="7" stroke-miterlimit="10"/><path d="M283 258a5 5 0 0 1-5 5h-9a5 5 0 0 1-4-5v-25a5 5 0 0 1 4-5h9a5 5 0 0 1 5 5v25z" fill="#fff"/><ellipse cx="274" cy="220" rx="7" ry="18" fill="none" stroke="#fff" stroke-width="7" stroke-miterlimit="10"/><path d="M149 227a5 5 0 0 0 4 5h9a5 5 0 0 0 5-5v-24a5 5 0 0 0-5-5h-9a5 5 0 0 0-4 5v24z" fill="#fff"/><ellipse cx="158" cy="189" rx="7" ry="18" fill="none" stroke="#fff" stroke-width="7" stroke-miterlimit="10"/><path d="M113 258a5 5 0 0 0 5 5h8a5 5 0 0 0 5-5v-25a5 5 0 0 0-5-5h-8a5 5 0 0 0-5 5v25z" fill="#fff"/><ellipse cx="122" cy="220" rx="7" ry="18" fill="none" stroke="#fff" stroke-width="7" stroke-miterlimit="10"/></svg>