<svg xmlns="http://www.w3.org/2000/svg" width="361" height="361"><path d="M84 162.5l26.8 4.6c4.5.7 6.3-6 1.9-6.8l-26.8-4.5c-4.4-.8-6.3 6-1.8 6.7zm.4 9.6l26.7 4.6c4.4.8 6.3-6 1.9-6.8l-26.8-4.5c-4.4-.8-6.3 6-1.8 6.7zm0 9.4L111 186c4.4.8 6.3-6 1.9-6.7l-26.8-4.6c-4.4-.7-6.3 6-1.8 6.8zm5.7 10l15 2.5c4.4.8 6.3-6 1.8-6.8l-15-2.5c-4.4-.8-6.3 6-1.8 6.7z" fill="#fff"/><path d="M121 136.6c0 7.5-6 13.6-13.6 13.6H89.2a13.7 13.7 0 0 1-13.7-13.6V88c0-7.5 6.1-13.7 13.7-13.7h18.2c7.5 0 13.6 6.2 13.6 13.7v48.6z" fill="none" stroke="#fff" stroke-width="10" stroke-miterlimit="10"/><path d="M224 292h26.1c9.7 0 9.8-15 .1-15h-26c-9.8 0-9.8 15-.2 15zm-20.2-153.8l26.8 50.4c2.1 4 8.2.5 6-3.5l-26.8-50.4c-2-4-8.1-.4-6 3.5z" fill="#fff"/><path d="M231.3 106.2v178.5c0 6.4 10 6.4 10 0V106.2c0-6.5-10-6.5-10 0z" fill="#fff"/><path d="M284.4 70l-49.8 31.1h5l-49.8-31-2.5 9.2H287c6.4 0 6.4-10 0-10h-99.7c-5.1 0-6.7 6.8-2.6 9.4l50 31a5 5 0 0 0 5 0l49.8-31c5.5-3.4.4-12.1-5-8.7zM177 149l30.5-9.7c4.3-1.4 2.5-8.2-1.9-6.8l-30.5 9.8c-4.2 1.4-2.4 8.1 2 6.8z" fill="#fff"/><path d="M167.6 146.7l18.1-.9-2.4-6-14 11.7 5.9 1.6-4.3-10.8c-1.6-4.2-8.4-2.4-6.7 1.8l4.2 10.9c1 2.5 3.7 3.3 5.9 1.5l13.9-11.7c2.3-2 .5-6.2-2.5-6l-18.1.9c-4.5.2-4.6 7.2 0 7z" fill="#fff"/></svg>