<svg xmlns="http://www.w3.org/2000/svg" width="361" height="361"><path d="M84 164l27 4c4 1 6-6 2-7l-27-4c-4-1-6 6-2 6zm0 9l27 5c5 0 6-6 2-7l-27-5c-4 0-6 6-2 7zm0 9l27 5c4 1 6-6 2-7l-27-4c-4-1-6 6-2 7zm6 11l15 2c5 1 6-6 2-7l-15-2c-4-1-6 6-2 6z" fill="#fff"/><path d="M121 138c0 7-6 13-14 13H89a14 14 0 0 1-13-13V89c0-7 6-14 13-14h18c8 0 14 6 14 14v49z" fill="none" stroke="#fff" stroke-width="10" stroke-miterlimit="10"/><path d="M243 75a5 5 0 0 1-5 5h-14a5 5 0 1 1 0-10h14a5 5 0 0 1 5 5z" fill="#fff" stroke="#fff" stroke-miterlimit="10"/><path d="M226 82v93c0 7 10 7 10 0V82c0-6-10-6-10 0z" fill="#fff"/><path d="M170 231c1 22 13 43 33 54 20 10 45 8 63-4a61 61 0 0 0 25-58 61 61 0 1 0-121 8c0 6 10 6 10 0a51 51 0 0 1 38-49c22-6 45 4 57 23a51 51 0 0 1-8 62 51 51 0 0 1-62 8 51 51 0 0 1-25-44c0-6-10-6-10 0z" fill="#fff"/><path d="M224 153v18c0 10 15 10 15 0v-18c0-10-15-10-15 0z" fill="#fff"/></svg>