<svg xmlns="http://www.w3.org/2000/svg" width="361" height="361"><path d="M84 163l27 4c4 1 6-6 2-7l-27-4c-4-1-6 6-2 6zm0 9l27 5c5 0 6-6 2-7l-27-5c-4 0-6 6-2 7zm0 9l27 5c4 1 6-6 2-7l-27-4c-4-1-6 6-2 7zm6 11l15 2c5 1 6-6 2-7l-15-2c-4-1-6 6-2 6z" fill="#fff"/><path d="M121 137c0 7-6 13-14 13H89a14 14 0 0 1-13-13V88c0-7 6-14 13-14h18c8 0 14 6 14 14v49z" fill="none" stroke="#fff" stroke-width="10" stroke-miterlimit="10"/><path d="M169 231c-5 0-4-7-4-11v-83c0-3 0-8 5-8h111c3 0 7 0 7 5v92c0 8-16 5-20 5h-99c-2 0-2 3 0 3h118c4-2 4-6 4-9v-83c0-7 2-16-8-16H171c-4 0-8 2-9 7v86c0 6-1 14 7 15 2 0 2-3 0-3z" fill="#fff"/><path d="M176 187l26-19c2-1 0-3-1-2l-26 19c-2 1 0 3 1 2z" fill="#fff"/><path d="M175 226c-5-1-4-9-4-12v-76c0-5 7-4 10-4h97c4 0 4 4 4 7v79c0 7-9 6-13 6h-94c-2 0-2 3 0 3h103c10 0 7-14 7-20v-66c0-3 1-6-1-9-1-3-6-3-9-3h-98c-4 0-8 1-9 6v85c0 4 3 6 7 7 2 0 2-3 0-3z" fill="#fff"/><path d="M200 168l18 18c2 2 4-1 2-2l-17-18c-2-1-4 1-3 2z" fill="#fff"/><path d="M220 186l18-15c2-1 0-3-2-2l-18 15c-1 1 1 3 2 2z" fill="#fff"/><path d="M236 171l12 22c1 1 4 0 3-2l-12-21c-1-2-4-1-3 1z" fill="#fff"/><path d="M251 193l13-20c1-2-2-3-3-2l-13 20c-1 2 2 3 3 2z" fill="#fff"/><path d="M261 173l13 16c2 2 4-1 2-2l-13-16c-1-2-3 1-2 2zm-17-4h14c2 0 2-3 0-3h-14c-2 0-2 3 0 3zm7-6h25c2 0 2-3 0-3h-25c-2 0-2 3 0 3zm-8-5h25c2 0 2-3 0-3h-25c-2 0-2 3 0 3zm6-4h30c2 0 2-3 0-3h-30c-2 0-2 3 0 3zm-37 6l-5-5c-1-1-3 1-2 2l4 5c2 1 4-1 3-2zm12-3l1-6-2-1-1 1-1 6 1 1 2-1zm10 7l5-2 1-2-2-1-5 2-1 2 2 1zm-24 10c1-13 20-13 20 0 0 2 3 2 3 0-1-17-25-17-26 0 0 2 3 2 3 0zm-26 31h10c2 0 2-3 0-3h-10c-2 0-2 3 0 3zm0 5h27c2 0 2-3 0-3h-27c-2 0-2 3 0 3zm8 5h14c2 0 2-3 0-3h-14c-2 0-2 3 0 3zm23 2h12c2 0 2-3 0-3h-12c-2 0-2 3 0 3zm-15 4h11c2 0 2-3 0-3h-11c-2 0-2 3 0 3z" fill="#fff"/><path d="M175 198l7 1 11 2c7 2 14-1 21-1 5 0 8 3 11 5 4 2 9 3 9 8l1 3c0 4-6 4-8 5h-10c-1-1-3 1-1 2 2 2 5 1 8 1l12-3c4-3 2-12-2-15l-14-8c-3-2-7-1-11-1-6 1-11 2-17 1l-6-2c-3 0-7 1-10-1-2-1-3 2-1 3zM165 77h33c5 0 5-7 0-7h-33c-4 0-4 7 0 7z" fill="#fff"/><path d="M189 76c-1 3-6 2-7 2h-7l1-2h5c2 0 7-1 8 1 0 2 3 1 2-1 0-4-6-3-10-3-3 0-10-1-10 4s7 4 10 4c4 0 10 1 10-4 1-2-2-2-2-1zm-10 14v18c0 2 3 2 3 0V90c0-2-3-2-3 0zm8 0l5 18c1 2 4 1 3-1l-5-17c0-2-3-1-3 0zm-15 0l-6 17c0 2 3 3 3 1l5-18c1-1-2-2-2 0z" fill="#fff"/><g fill="#fff"><path d="M255 77h33c5 0 5-7 0-7h-33c-5 0-5 7 0 7z"/><path d="M278 77c0 2-5 1-6 1h-7l1-2h5c2 0 7-1 7 1 1 2 4 1 3 0-1-5-7-4-10-4s-10-1-10 4 7 4 10 4 9 1 10-4c1-2-2-2-3 0zm-9 13v18c0 2 3 2 3 0V90c0-2-3-2-3 0zm8 1l5 17c1 2 4 1 3-1l-5-17c-1-2-4-1-3 1zm-16-1l-5 17c-1 2 2 3 3 1l5-18c1-1-2-2-3 0z"/></g></svg>