<svg xmlns="http://www.w3.org/2000/svg" width="361" height="361"><path d="M162.6 255.3l31 5.3c4.3.7 6.2-6 1.8-6.8l-31-5.2c-4.4-.8-6.3 6-1.8 6.7zm.3 11.1l31 5.3c4.4.8 6.2-6 1.8-6.7l-31-5.3c-4.3-.8-6.2 6-1.8 6.7zm0 10.8l31 5.3c4.4.8 6.2-6 1.8-6.7l-31-5.3c-4.3-.8-6.2 6-1.8 6.7zm6.6 11.6l17.4 3c4.4.7 6.3-6 1.8-6.8l-17.3-3c-4.5-.7-6.3 6-2 6.8z" fill="#fff"/><path d="M205.2 225.8a15.8 15.8 0 0 1-15.8 15.8h-21.1a15.8 15.8 0 0 1-15.8-15.8v-56.1a15.8 15.8 0 0 1 15.8-15.8h21a15.8 15.8 0 0 1 15.9 15.7v56.2z" fill="none" stroke="#fff" stroke-width="10" stroke-miterlimit="10"/><path d="M79.9 161a135 135 0 0 1 82.3-73.7c40-13 84-8 122.2 8.6 5.9 2.5 11-6.1 5-8.7-40.8-17.7-86.9-23.1-129.8-9.6A144 144 0 0 0 71.2 156c-2.6 5.9 6 11 8.7 5z" fill="#fff"/><path d="M79 162.1a144.8 144.8 0 0 1 101.2-42c38.6-.3 75.8 15.6 103.1 42.5 4.6 4.6 11.7-2.5 7-7A157.4 157.4 0 0 0 181.7 110a154.6 154.6 0 0 0-109.6 45c-4.6 4.6 2.5 11.7 7 7.1z" fill="#fff"/><path d="M282 92.4v66.7c0 6.5 10 6.5 10 0V92.4c0-6.4-10-6.4-10 0zm-50.4 87a44.6 44.6 0 0 0 5.2-2.6 32.8 32.8 0 0 0 2.4-1.7 16.5 16.5 0 0 0 2-1.8h4.4v29.1h-6.2v-21a19 19 0 0 1-2.8 1.6l-3 1.2-2-4.9zm37.4 8.4c0 4.9-1 8.6-2.8 11.3-1.9 2.6-4.4 3.9-7.7 3.9s-5.9-1.3-7.7-4a19.3 19.3 0 0 1-2.8-11.2c0-2.5.2-4.6.7-6.5a14.2 14.2 0 0 1 2.1-4.7c1-1.3 2-2.3 3.3-3s2.8-1 4.4-1a9 9 0 0 1 7.7 4c1.9 2.6 2.8 6.3 2.8 11.2zm-6.4 0c0-1.5 0-2.8-.2-4s-.4-2.2-.7-3a4.8 4.8 0 0 0-1.2-2c-.6-.6-1.2-.8-2-.8s-1.5.2-2 .7a5.1 5.1 0 0 0-1.2 2 13 13 0 0 0-.7 3.1 34.2 34.2 0 0 0 .7 11 5 5 0 0 0 1.2 2.1c.5.5 1.2.7 2 .7s1.4-.2 2-.7a4.8 4.8 0 0 0 1.2-2l.7-3.1.2-4zm29.2 0c0 4.9-.9 8.6-2.8 11.3a9 9 0 0 1-7.7 3.9 9 9 0 0 1-7.7-4 19.3 19.3 0 0 1-2.8-11.2c0-2.5.3-4.6.8-6.5a17 17 0 0 1 2-4.7 9.4 9.4 0 0 1 3.4-3 9.2 9.2 0 0 1 4.3-1 9 9 0 0 1 7.7 4c1.9 2.6 2.8 6.3 2.8 11.2zm-6.3 0l-.2-4a14.3 14.3 0 0 0-.7-3 4.8 4.8 0 0 0-1.3-2 2.9 2.9 0 0 0-2-.8 3 3 0 0 0-2 .7 5 5 0 0 0-1.2 2l-.7 3.1a36.5 36.5 0 0 0 .7 11 5 5 0 0 0 1.3 2.1c.5.5 1.2.7 2 .7a3 3 0 0 0 2-.7c.4-.5.9-1.1 1.2-2a34.8 34.8 0 0 0 .9-7.1zM91 187c0 4.9-1 8.7-2.8 11.3-1.9 2.6-4.4 3.9-7.7 3.9s-5.8-1.3-7.7-4A19.3 19.3 0 0 1 70 187c0-2.4.3-4.6.7-6.5s1.2-3.4 2.2-4.7a9.4 9.4 0 0 1 3.3-3 10 10 0 0 1 4.3-1 9 9 0 0 1 7.7 4c1.9 2.6 2.8 6.3 2.8 11.2zm-6.4 0c0-1.5 0-2.8-.2-4a14.3 14.3 0 0 0-.7-3 4.8 4.8 0 0 0-1.2-2 2.9 2.9 0 0 0-2-.8c-.8 0-1.4.2-2 .7a5 5 0 0 0-1.2 2 14 14 0 0 0-.7 3.1 34 34 0 0 0-.2 4 24.9 24.9 0 0 0 .9 7 5.1 5.1 0 0 0 1.2 2.1c.6.5 1.2.7 2 .7s1.4-.2 2-.7a4.8 4.8 0 0 0 1.2-2c.3-.9.6-1.9.7-3.1.2-1.2.2-2.5.2-4z" fill="#fff"/></svg>