<svg xmlns="http://www.w3.org/2000/svg" width="361" height="361"><path d="M84 260l27 5c4 1 6-6 1-7l-26-4c-5-1-7 6-2 6zm0 10l27 5c4 0 6-6 2-7l-27-5c-4 0-6 6-2 7zm0 9l27 5c4 1 6-6 2-7l-27-4c-4-1-6 6-2 6zm6 10l15 3c4 1 6-6 2-7l-15-2c-5-1-7 6-2 6z" fill="#fff"/><path d="M121 235c0 7-6 13-14 13H89a14 14 0 0 1-14-14v-48c0-8 6-14 14-14h18c8 0 14 6 14 14v49z" fill="none" stroke="#fff" stroke-width="10" stroke-miterlimit="10"/><path d="M285 86c-1 4-10 2-11 2h-4c-1 0-2 0-1 1l-1-6c0-9-8-7-14-7h-84c-3 0-6-1-8 2-3 2-2 7-3 10H93c-2 0-15 2-16-2 0-2-1-9 3-9h202c4 0 3 7 3 9 0 5 7 5 7 0 0-7 0-15-9-16H79c-7 0-9 6-9 12 0 7 2 13 10 13h74c4 0 9 1 11-3 2-3 1-7 2-10 0 1-1 1 1 1h93c2 0 0-2 0 0l1 5c0 4 2 7 6 7 6 0 18 3 22-4a11 11 0 0 0 2-5c0-4-7-4-7 0zm-36 59l-5-17c-1-5-8-3-7 2l6 17c1 4 8 2 6-2zm-31 3v-17c0-5-7-5-7 0v17c0 5 7 5 7 0zm-32-1l5-17c2-5-5-7-6-2l-6 17c-1 4 6 6 7 2zm-31-9l12-16c3-3-3-7-6-3l-12 15c-3 4 3 7 6 4zm125-4l-12-15c-3-4-9 0-6 3l12 16c2 3 8 0 6-4z" fill="#fff"/><path d="M159 97h11c2 0 2-3 0-3h-11c-2 0-2 3 0 3zm50 0h11c2 0 2-3 0-3h-11c-2 0-2 3 0 3zm50 0h11c2 0 2-3 0-3h-11c-2 0-2 3 0 3z" fill="#fff"/><g fill="#fff"><path d="M254 104c-1 4-11 3-14 3-5-1-10-3-13-6-4-5 13-4 14-4 3 0 13 2 13 7 0 2 3 2 3 0 0-7-10-9-15-10-6-1-17-2-19 5-2 6 12 10 16 11 5 1 16 1 18-5 0-2-3-3-3-1z"/><path d="M253 99l1-4a6 6 0 0 0-6-7l-12-2a6 6 0 0 0-7 5v3"/><path d="M255 99c0-3 1-7-1-10-3-3-7-3-11-3-3-1-7-2-11-1s-4 6-5 9c0 2 3 3 3 1 1-3 1-6 4-8l8 1 6 1c5 1 4 6 4 9 0 2 2 3 3 1z"/></g><g fill="#fff"><path d="M204 104c-1 4-11 3-14 3-5-1-10-3-13-6-4-5 13-4 14-4 3 0 13 2 13 7 0 2 3 2 3 0 0-7-10-9-15-10-6-1-17-2-19 5-2 6 12 10 16 11 5 1 16 1 18-5 0-2-3-3-3-1z"/><path d="M203 99l1-4a6 6 0 0 0-6-7l-12-2a6 6 0 0 0-7 5v3"/><path d="M205 99c0-3 1-7-1-10-3-3-7-3-11-3-3-1-7-2-11-1s-4 6-5 9c0 2 3 3 3 1 1-3 1-6 4-8l8 1 6 1c5 1 4 6 4 9 0 2 2 3 3 1z"/></g></svg>