<svg xmlns="http://www.w3.org/2000/svg" width="361" height="361"><path d="M159.8 157.4L206.3 77h-8.6l46.5 80.5 4.3-7.5h-93c-6.5 0-6.5 10 0 10h93a5 5 0 0 0 4.3-7.5l-46.5-80.6a5 5 0 0 0-8.6 0l-46.5 80.6c-3.3 5.6 5.4 10.6 8.6 5z" fill="#fff"/><path d="M214.9 280.5c0 3.1-3 5.7-6.5 5.7h-14.7c-3.6 0-6.5-2.6-6.5-5.7v-8c0-3.1 3-5.7 6.5-5.7h14.7c3.6 0 6.5 2.5 6.5 5.7v8z" fill="none" stroke="#fff" stroke-width="10" stroke-miterlimit="10"/><path d="M137.9 217.2l34.5-59.7-4.4 2.5h68l-4.4-2.5 34.5 59.7 4.3-7.5H133.6c-6.5 0-6.5 10 0 10h136.8a5 5 0 0 0 4.3-7.6l-34.3-59.4c-2-3.4-6.1-2.7-9.5-2.7H168a5 5 0 0 0-4.3 2.5L129.3 212c-3.3 5.6 5.4 10.7 8.6 5z" fill="#fff"/><path d="M119.5 269.4l30.2-52.2-4.3 2.5h111.2l-4.3-2.5 30.1 52.2 4.4-7.5H115.2c-6.4 0-6.4 10 0 10h171.6a5 5 0 0 0 4.3-7.5l-17.3-30-10.4-18c-1.7-2.9-3-6.7-7-6.7H145.2a5 5 0 0 0-4.3 2.5L111 264.4c-3.2 5.6 5.4 10.6 8.6 5zM83.8 163l26.8 4.6c4.4.7 6.3-6 1.9-6.8l-26.8-4.5c-4.4-.8-6.3 6-1.9 6.7zm.3 9.6l26.8 4.6c4.4.8 6.3-6 1.8-6.7L86 165.9c-4.4-.8-6.3 6-1.9 6.7zm0 9.4l26.8 4.6c4.4.7 6.3-6 1.8-6.8L86 175.2c-4.4-.7-6.3 6-1.9 6.8zm5.7 10l15 2.5c4.4.8 6.3-6 1.9-6.7l-15-2.6c-4.4-.7-6.3 6-1.9 6.8z" fill="#fff"/><path d="M120.8 137c0 7.6-6.1 13.7-13.7 13.7H89a13.7 13.7 0 0 1-13.7-13.6V88.5c0-7.5 6.2-13.7 13.7-13.7h18.2c7.6 0 13.7 6.2 13.7 13.7v48.6z" fill="none" stroke="#fff" stroke-width="10" stroke-miterlimit="10"/></svg>