<svg xmlns="http://www.w3.org/2000/svg" width="361" height="361"><path d="M84 163l27 4c4 1 6-6 2-7l-27-4c-4-1-6 6-2 6zm0 9l27 5c5 0 6-6 2-7l-27-5c-4 0-6 6-2 7zm0 9l27 5c4 1 6-6 2-7l-27-4c-4-1-6 6-2 7zm6 11l15 2c5 1 6-6 2-7l-15-2c-4-1-6 6-2 6z" fill="#fff"/><path d="M121 137c0 7-6 13-14 13H89a14 14 0 0 1-13-13V88c0-7 6-14 13-14h18c8 0 14 6 14 14v49z" fill="none" stroke="#fff" stroke-width="10" stroke-miterlimit="10"/><path d="M170 237c-6 0-5-7-5-10v-97c0-5 5-5 8-5h111c6 0 5 5 5 8v85c0 4 3 19-6 19H170c-2 0-2 3 0 3h116c5-1 6-5 6-9v-98c0-3 0-7-3-9s-5-2-9-2H178c-7 0-16-1-16 8v101c0 5 2 9 7 9 2 1 2-2 0-3zm6-121h33c5 0 5-7 0-7h-33c-5 0-5 7 0 7z" fill="#fff"/><path d="M192 123c0-7-5-12-12-12-2 0-2 3 0 3 5 0 9 4 9 9 0 2 3 2 3 0zm50-7h33c5 0 5-7 0-7h-33c-5 0-5 7 0 7z" fill="#fff"/><path d="M265 123c0-7-5-12-12-12-2 0-2 3 0 3 5 0 9 4 9 9 0 2 3 2 3 0zm-38 78l36-34c2-2-1-4-2-2l-36 34c-1 1 1 3 2 2zm-11 25l67-63c1-1-1-3-2-2l-67 63c-1 1 1 4 2 2zm18 0l39-37c1-1-1-3-2-2l-40 37c-1 2 1 4 3 2z" fill="#fff"/></svg>