<svg xmlns="http://www.w3.org/2000/svg" width="361" height="361"><path d="M83.8 163l26.8 4.6c4.4.7 6.3-6 1.9-6.8l-26.8-4.5c-4.4-.8-6.3 6-1.9 6.7zm.3 9.6l26.8 4.6c4.4.8 6.3-6 1.8-6.8L86 166c-4.4-.8-6.3 6-1.9 6.7zm0 9.4l26.8 4.5c4.4.8 6.3-6 1.8-6.7L86 175.2c-4.4-.7-6.3 6-1.9 6.8zm5.7 10l15 2.5c4.4.8 6.3-6 1.9-6.8l-15-2.5c-4.4-.8-6.3 6-1.9 6.7z" fill="#fff"/><path d="M120.8 137c0 7.6-6.1 13.7-13.7 13.7H89a13.7 13.7 0 0 1-13.7-13.6V88.5c0-7.5 6.2-13.7 13.7-13.7h18.2c7.6 0 13.7 6.2 13.7 13.7v48.6z" fill="none" stroke="#fff" stroke-width="10" stroke-miterlimit="10"/><g fill="none" stroke="#fff" stroke-width="10" stroke-linecap="round" stroke-linejoin="round" stroke-miterlimit="10"><path d="M143.5 269.4l32.8 17.3-6.2-36.7 26.6-25.9-36.8-5.3-16.4-33.3-16.5 33.3-36.7 5.3 26.6 26-6.3 36.5z"/><path d="M143.5 254.8l16.4 8.6-3.1-18.3 13.3-13-18.4-2.6-8.2-16.7-8.2 16.7-18.4 2.6 13.3 13-3.2 18.3z"/></g><path d="M153.6 206c0-56.4 58.9-102 131.6-102M158.4 217.2c0-31.8 56.7-57.5 126.8-57.5m0 0c0-6.9-15.9-12.4-41.8-12.4m0 0c0-6.3 26.7-15.3 42.5-15.3m0 0c0-4.3-33.7-7.7-43.2-7.7m0 0c8.2-9.6 17-16.8 42.5-20.3" fill="none" stroke="#fff" stroke-width="10" stroke-linecap="round" stroke-linejoin="round" stroke-miterlimit="10"/></svg>