<svg xmlns="http://www.w3.org/2000/svg" width="361" height="361"><path d="M83.8 260.4l26.8 4.6c4.4.7 6.3-6 1.9-6.8l-26.8-4.5c-4.4-.8-6.3 6-1.9 6.7zm.3 9.6l26.8 4.6c4.4.8 6.3-6 1.8-6.8L86 263.4c-4.4-.8-6.3 6-1.9 6.7zm0 9.4L111 284c4.4.7 6.3-6 1.8-6.8L86 272.6c-4.4-.7-6.3 6-1.9 6.8zm5.7 10l15 2.5c4.4.8 6.3-6 1.9-6.7l-15-2.6c-4.4-.8-6.3 6-1.9 6.8z" fill="#fff"/><path d="M120.8 234.5c0 7.5-6.1 13.6-13.7 13.6H89a13.7 13.7 0 0 1-13.7-13.6v-48.6c0-7.5 6.2-13.7 13.7-13.7h18.2c7.6 0 13.7 6.2 13.7 13.7v48.6z" fill="none" stroke="#fff" stroke-width="10" stroke-miterlimit="10"/><path d="M284.5 86.3c-.4 3.3-9.2 2-11 2h-3.4c-1.4 0-1.7-.6-1.3.6-.7-1.8-.3-4.2-.5-6-.6-8.5-8.2-7-14.6-7h-84c-3 0-5.8-.4-8 1.7-2.7 2.6-1.8 7.2-2.3 10.5-.1 1-.1.1-1.7.1H92.5c-2 0-15 1.8-15.3-1.9-.3-2.6-1.2-9.5 2.8-9.5h202.3c3.5 0 2.2 7.6 2.2 9.5 0 4.5 7 4.5 7 0 0-7.3.5-15.4-8.9-16.5H79.3c-7.6 0-9.2 6.6-9.2 12.7 0 6.7 2 12.7 9.9 12.7h73.5c4.2 0 9.4 1.2 11.9-3 1.7-3 .8-6.8 1.5-10-.2 1-.9.6.6.6h93.8c1.2 0-.3-1.4 0 .1.4 1.7.2 3.6.3 5.3.3 3.4 2 7 6 7 6 0 18.3 2.4 22.2-3.7a11.2 11.2 0 0 0 1.7-5.2c.5-4.4-6.5-4.4-7 0zM249.4 145l-5.3-17.3c-1.3-4.3-8-2.5-6.7 1.8l5.3 17.3c1.3 4.3 8 2.5 6.7-1.8zm-31.6 3.3v-17.7c0-4.5-7-4.5-7 0v17.7c0 4.5 7 4.5 7 0zm-31.8-1.5l5.3-17.3c1.3-4.3-5.4-6.1-6.7-1.8l-5.3 17.3c-1.3 4.3 5.4 6.1 6.7 1.8zm-30.9-9l11.8-15.4c2.7-3.6-3.4-7.1-6-3.6L149 134.1c-2.8 3.6 3.3 7 6 3.5zm124.5-3.6L268 118.7c-2.7-3.5-8.8 0-6 3.6l11.7 15.3c2.7 3.6 8.8 0 6-3.5z" fill="#fff"/><path d="M158.8 96.8h11.1c2 0 2-3 0-3h-11.1c-2 0-2 3 0 3zm50 0h11.1c2 0 2-3 0-3h-11.1c-2 0-2 3 0 3zm50.1 0H270c2 0 2-3 0-3h-11c-2 0-2 3 0 3z" fill="#fff"/><g fill="#fff"><path d="M253.9 103.7c-1.4 4.6-11.1 3.3-14.4 2.9-4.4-.6-10-2.2-12.8-6-3.4-4.7 13-4 14-3.9 3.6.5 13.3 2.6 13.1 7.4 0 2 3 2 3 0 .2-6.8-10.2-9.3-15.2-10.3-5.2-1-16.1-1.7-18.2 5-2 6.6 11.4 10 15.3 10.7 5.1 1 16 1.6 18-5 .6-1.8-2.3-2.6-2.8-.8z"/><path d="M253.2 98.6l.6-3.4a6.4 6.4 0 0 0-5.3-7.3l-12-2a6.4 6.4 0 0 0-7.3 5.3l-.5 3.3"/><path d="M254.7 99c.5-3.2 1.4-6.9-1-9.6-2.7-3.2-6.4-3.3-10.3-3.9-3.6-.6-7.4-1.8-11-.6-4 1.4-4.6 5.6-5.2 9.2-.3 2 2.6 2.7 3 .8.4-3 .6-6.2 4.2-7.5 2-.6 5.4.5 7.3.8l6.3 1c5 1 4.4 5.4 3.8 9-.3 1.9 2.6 2.7 2.9.8z"/></g><g fill="#fff"><path d="M203.9 103.7c-1.4 4.6-11.1 3.3-14.4 2.9-4.4-.6-10-2.2-12.8-6-3.4-4.7 13-4 14-3.9 3.6.5 13.3 2.6 13.1 7.4 0 2 3 2 3 0 .2-6.8-10.2-9.3-15.2-10.3-5.2-1-16.1-1.7-18.2 5-2 6.6 11.4 10 15.3 10.7 5.1 1 16 1.6 18-5 .6-1.8-2.3-2.6-2.8-.8z"/><path d="M203.2 98.6l.6-3.4a6.4 6.4 0 0 0-5.3-7.3l-12-2a6.4 6.4 0 0 0-7.3 5.3l-.5 3.3"/><path d="M204.7 99c.5-3.2 1.4-6.9-1-9.6-2.7-3.2-6.4-3.3-10.3-3.9-3.6-.6-7.4-1.8-11-.6-4 1.4-4.6 5.6-5.2 9.2-.3 2 2.6 2.7 3 .8.4-3 .6-6.2 4.2-7.5 2-.6 5.4.5 7.3.8l6.3 1c5 1 4.4 5.4 3.8 9-.3 1.9 2.6 2.7 2.9.8z"/></g></svg>