<svg xmlns="http://www.w3.org/2000/svg" width="361" height="361"><path d="M84 163.5l26.8 4.6c4.5.7 6.3-6 1.9-6.8l-26.8-4.5c-4.4-.8-6.3 6-1.8 6.7zm.4 9.6l26.7 4.6c4.4.8 6.3-6 1.9-6.8l-26.8-4.5c-4.4-.8-6.3 6-1.8 6.7zm0 9.4L111 187c4.4.8 6.3-6 1.9-6.7l-26.8-4.6c-4.4-.7-6.3 6-1.8 6.8zm5.7 10l15 2.5c4.4.8 6.3-6 1.8-6.8l-15-2.5c-4.4-.8-6.3 6-1.8 6.7z" fill="#fff"/><path d="M121 137.6c0 7.5-6 13.6-13.6 13.6H89.2a13.7 13.7 0 0 1-13.7-13.6V89c0-7.5 6.1-13.7 13.7-13.7h18.2c7.5 0 13.6 6.2 13.6 13.7v48.6z" fill="none" stroke="#fff" stroke-width="10" stroke-miterlimit="10"/><path d="M243.4 75.2a5.2 5.2 0 0 1-5.1 5.1h-14.6a5.2 5.2 0 1 1 0-10.3h14.6a5.2 5.2 0 0 1 5.1 5.2z" fill="#fff" stroke="#fff" stroke-miterlimit="10"/><path d="M226 82.4v92.8c0 6.5 10 6.5 10 0V82.4c0-6.4-10-6.4-10 0z" fill="#fff"/><path d="M170.3 231c.2 22.4 12.5 43 32.3 53.6 20 10.8 45 8.8 63.4-4a61 61 0 0 0 25.1-57.9 60.8 60.8 0 1 0-120.8 8.2c-.1 6.5 9.9 6.5 10 0a51.4 51.4 0 0 1 37.2-48.9c22-6.3 45.6 4 57.3 23.3a51.1 51.1 0 0 1-8 61.5 51.1 51.1 0 0 1-61.4 8 51 51 0 0 1-25.1-43.9c-.1-6.4-10.1-6.4-10 0z" fill="#fff"/><path d="M223.5 152.6V171c0 9.6 15 9.7 15 0v-18.3c0-9.7-15-9.8-15-.1z" fill="#fff"/></svg>