<svg xmlns="http://www.w3.org/2000/svg" width="361" height="361"><path d="M83.8 260.4l26.8 4.6c4.4.7 6.3-6 1.9-6.8l-26.8-4.5c-4.4-.8-6.3 6-1.9 6.7zm.3 9.6l26.8 4.6c4.4.8 6.3-6 1.8-6.8L86 263.4c-4.4-.8-6.3 6-1.9 6.7zm0 9.4L111 284c4.4.7 6.3-6 1.8-6.8L86 272.6c-4.4-.7-6.3 6-1.9 6.8zm5.7 10l15 2.5c4.4.8 6.3-6 1.9-6.7l-15-2.6c-4.4-.8-6.3 6-1.9 6.8z" fill="#fff"/><path d="M120.8 234.5c0 7.5-6.1 13.6-13.7 13.6H89a13.7 13.7 0 0 1-13.7-13.6v-48.6c0-7.5 6.2-13.7 13.7-13.7h18.2c7.6 0 13.7 6.2 13.7 13.7v48.6z" fill="none" stroke="#fff" stroke-width="10" stroke-miterlimit="10"/><g fill="#fff"><path d="M266.4 88.2c-.3 8.7-11 14.1-17.9 17a112 112 0 0 1-42.3 7.4c-14.4 0-29-2.1-42.4-7.4-6.9-2.8-17.5-8.4-17.8-17-.2-6.4-10.2-6.5-10 0 .4 12 10.5 19.7 20.4 24.5a116 116 0 0 0 49.8 9.9c17 0 34.4-2.7 49.8-9.9 9.9-4.5 20-12.8 20.4-24.5.2-6.5-9.8-6.4-10 0z"/><path d="M141 93.2h130.4c6.4 0 6.4-10 0-10H141c-6.5 0-6.5 10 0 10z"/></g><path d="M252.6 82.9c-.4 3-6 1.8-8.3 1.8h-83.5c-1.5 0-1.5-7.9 0-7.9h90.8c1.7 0 .9 6 .9 7 0 4.6 7 4.6 7 0 0-5.8.2-14-8-14H162c-6.2 0-9 4.2-9 10 0 6 1.3 11.9 8.5 11.9h82.3c6 0 14.6 1.2 15.7-7 .6-4.3-6.2-6.2-6.8-1.8zm-1 71.2l-7-23c-1.4-4.2-8.2-2.4-6.8 2l7 22.8c1.3 4.3 8 2.5 6.7-1.8zm-41.9 4.1v-23.5c0-4.5-7-4.5-7 0v23.5c0 4.5 7 4.5 7 0zm-42-2.3l7-22.9c1.3-4.3-5.5-6.1-6.8-1.8l-7 22.9c-1.3 4.3 5.4 6.1 6.7 1.8zm-40.9-12.3l15.6-20.3c2.7-3.6-3.4-7.1-6-3.6l-15.6 20.4c-2.8 3.6 3.3 7 6 3.5zm164.8-3.5l-15.5-20.4c-2.7-3.5-8.8 0-6 3.6l15.5 20.3c2.7 3.6 8.8 0 6-3.5z" fill="#fff"/></svg>