<svg xmlns="http://www.w3.org/2000/svg" width="361" height="361"><path d="M163 255l31 6c4 0 6-6 1-7l-31-5c-4-1-6 6-1 6zm0 11l31 6c4 1 6-6 2-7l-31-5c-5-1-6 6-2 6zm0 11l31 6c4 0 6-6 2-7l-31-5c-5-1-6 6-2 6zm7 12l17 3c4 1 6-6 2-7l-18-3c-4-1-6 6-2 7z" fill="#fff"/><path d="M205 226a16 16 0 0 1-16 16h-21a16 16 0 0 1-16-16v-56a16 16 0 0 1 16-16h21a16 16 0 0 1 16 16v56z" fill="none" stroke="#fff" stroke-width="10" stroke-miterlimit="10"/><path d="M80 161a135 135 0 0 1 82-74c40-13 84-8 122 9 6 2 11-6 5-9-40-18-87-23-129-9a144 144 0 0 0-89 78c-2 6 6 11 9 5z" fill="#fff"/><path d="M79 162a145 145 0 0 1 101-42c39 0 76 16 103 43 5 4 12-3 7-7a157 157 0 0 0-108-46 155 155 0 0 0-110 45c-5 5 3 12 7 7z" fill="#fff"/><path d="M282 92v67c0 7 10 7 10 0V92c0-6-10-6-10 0zm-50 87a45 45 0 0 0 5-2 33 33 0 0 0 2-2 17 17 0 0 0 2-2h5v29h-7v-21a19 19 0 0 1-2 2l-3 1-2-5zm37 9c0 5-1 8-3 11s-4 4-8 4-5-1-7-4a19 19 0 0 1-3-11l1-7a14 14 0 0 1 2-4l3-3 4-1a9 9 0 0 1 8 4c2 2 3 6 3 11zm-6 0l-1-4v-3a5 5 0 0 0-1-2l-2-1-2 1a5 5 0 0 0-2 2 13 13 0 0 0 0 3 34 34 0 0 0 0 11 5 5 0 0 0 2 2l2 1 2-1a5 5 0 0 0 1-2v-3l1-4zm29 0c0 5-1 8-3 11a9 9 0 0 1-8 4 9 9 0 0 1-7-4 19 19 0 0 1-3-11l1-7a17 17 0 0 1 2-4 9 9 0 0 1 3-3 9 9 0 0 1 4-1 9 9 0 0 1 8 4c2 2 3 6 3 11zm-6 0l-1-4a14 14 0 0 0 0-3 5 5 0 0 0-2-2 3 3 0 0 0-2-1 3 3 0 0 0-2 1 5 5 0 0 0-1 2l-1 3a37 37 0 0 0 1 11 5 5 0 0 0 1 2l2 1a3 3 0 0 0 2-1l2-2a35 35 0 0 0 1-7zm-195-1c0 5-1 9-3 11-2 3-4 4-7 4s-6-1-8-4a19 19 0 0 1-3-11l1-6 2-5a9 9 0 0 1 3-3 10 10 0 0 1 5-1 9 9 0 0 1 7 4c2 2 3 6 3 11zm-6 0l-1-4a14 14 0 0 0 0-3 5 5 0 0 0-2-2 3 3 0 0 0-2-1l-2 1a5 5 0 0 0-1 2 14 14 0 0 0 0 3 34 34 0 0 0-1 4 25 25 0 0 0 1 7 5 5 0 0 0 1 2l2 1 2-1a5 5 0 0 0 2-2v-3l1-4z" fill="#fff"/></svg>