<svg xmlns="http://www.w3.org/2000/svg" width="361" height="361"><path d="M84 162.5l26.8 4.6c4.5.7 6.3-6 1.9-6.8l-26.8-4.5c-4.4-.8-6.3 6-1.8 6.7zm.4 9.6l26.7 4.6c4.4.8 6.3-6 1.9-6.8l-26.8-4.5c-4.4-.8-6.3 6-1.8 6.7zm0 9.4L111 186c4.4.8 6.3-6 1.9-6.7l-26.8-4.6c-4.4-.7-6.3 6-1.8 6.8zm5.7 10l15 2.5c4.4.8 6.3-6 1.8-6.8l-15-2.5c-4.4-.8-6.3 6-1.8 6.7z" fill="#fff"/><path d="M121 136.6c0 7.5-6 13.6-13.6 13.6H89.2a13.7 13.7 0 0 1-13.7-13.6V88c0-7.5 6.1-13.7 13.7-13.7h18.2c7.5 0 13.6 6.2 13.6 13.7v48.6z" fill="none" stroke="#fff" stroke-width="10" stroke-miterlimit="10"/><path d="M197.5 111.7a2 2 0 0 1-2 2h-1a2 2 0 0 1-2-2v-1a2 2 0 0 1 2-2h1a2 2 0 0 1 2 2v1zm43.4 76.5a2 2 0 0 1-2 2h-1a2 2 0 0 1-2-2v-1a2 2 0 0 1 2-2h1a2 2 0 0 1 2 2v1zm-30.4-24.6a2.8 2.8 0 0 1-2.7 2.8h-1.4a2.8 2.8 0 0 1-2.8-2.8v-1.4a2.8 2.8 0 0 1 2.8-2.7h1.3a2.8 2.8 0 0 1 2.8 2.7v1.4zm53-26a2.8 2.8 0 0 1-2.7 2.9h-1.4a2.8 2.8 0 0 1-2.8-2.8v-1.4a2.8 2.8 0 0 1 2.8-2.8h1.4a2.8 2.8 0 0 1 2.8 2.8v1.4zm-33-33.1a2.7 2.7 0 0 1-2.7 2.7h-1.3a2.7 2.7 0 0 1-2.8-2.7V103a2.7 2.7 0 0 1 2.8-2.7h1.3a2.7 2.7 0 0 1 2.8 2.7v1.4zm57.6 81.2a2 2 0 0 1-2 2h-1a2 2 0 0 1-2-2v-1a2 2 0 0 1 2-2h1a2 2 0 0 1 2 2v1zM215.5 73a2 2 0 0 1-2 2h-1a2 2 0 0 1-2-2v-1a2 2 0 0 1 2-2h1a2 2 0 0 1 2 2v1zm59.5 82.5a2 2 0 0 1-2 2h-1a2 2 0 0 1-2-2v-1a2 2 0 0 1 2-2h1a2 2 0 0 1 2 2v1zm-17.4-30c0 .9-.7 1.6-1.6 1.6h-.8a1.6 1.6 0 0 1-1.6-1.6v-.8c0-1 .7-1.7 1.6-1.7h.8c.9 0 1.6.8 1.6 1.6v.9zm-20 19.5a2 2 0 0 1-2 2h-1a2 2 0 0 1-2-2v-1a2 2 0 0 1 2-2h1a2 2 0 0 1 2 2v1zm20 70a2 2 0 0 1-2 2h-1a2 2 0 0 1-2-2v-1a2 2 0 0 1 2-2h1a2 2 0 0 1 2 2v1zm-60-70a2 2 0 0 1-2 2h-1a2 2 0 0 1-2-2v-1a2 2 0 0 1 2-2h1a2 2 0 0 1 2 2v1zm60 20a2 2 0 0 1-2 2h-1a2 2 0 0 1-2-2v-1a2 2 0 0 1 2-2h1a2 2 0 0 1 2 2v1zm0-80a2 2 0 0 1-2 2h-1a2 2 0 0 1-2-2v-1a2 2 0 0 1 2-2h1a2 2 0 0 1 2 2v1zm29.8 19.7a2.2 2.2 0 0 1-2.2 2.1H284a2.2 2.2 0 0 1-2.2-2.1v-1.1c0-1.2 1-2.2 2.2-2.2h1c1.3 0 2.3 1 2.3 2.2v1zm-101.2 9.6c0 .8-.6 1.4-1.4 1.4h-.7a1.4 1.4 0 0 1-1.4-1.4v-.7c0-.8.6-1.4 1.4-1.4h.7c.8 0 1.4.6 1.4 1.4v.7zm26.2 121.6c0-.8.7-1.5 1.5-1.5h.7c.9 0 1.5.7 1.5 1.5v.8c0 .8-.6 1.5-1.5 1.5h-.7a1.5 1.5 0 0 1-1.5-1.5v-.8zm51.5 25a2.8 2.8 0 0 1 2.8-2.8h1.4a2.8 2.8 0 0 1 2.7 2.8v1.4a2.8 2.8 0 0 1-2.7 2.7h-1.4a2.8 2.8 0 0 1-2.8-2.8V261zm-59.5-13.3a3.6 3.6 0 0 1 3.6-3.6h1.8a3.6 3.6 0 0 1 3.6 3.6v1.8a3.6 3.6 0 0 1-3.6 3.6H208a3.6 3.6 0 0 1-3.6-3.6v-1.8zm-18-20.6a2 2 0 0 1 2-2h1a2 2 0 0 1 2 2v1a2 2 0 0 1-2 2h-1a2 2 0 0 1-2-2v-1zm13 42a2 2 0 0 1 2-2h1a2 2 0 0 1 2 2v1a2 2 0 0 1-2 2h-1a2 2 0 0 1-2-2v-1zm37.5 10.5a2 2 0 0 1 2-2h1a2 2 0 0 1 2 2v1a2 2 0 0 1-2 2h-1a2 2 0 0 1-2-2v-1zm-20-70a2 2 0 0 1 2-2h1a2 2 0 0 1 2 2v1a2 2 0 0 1-2 2h-1a2 2 0 0 1-2-2v-1zm19 51a2 2 0 0 1 2-2h1a2 2 0 0 1 2 2v1a2 2 0 0 1-2 2h-1a2 2 0 0 1-2-2v-1zm36.9-53.6c.8 0 1.5.7 1.5 1.6v.8c0 .8-.7 1.5-1.5 1.5h-.8c-.9 0-1.6-.7-1.6-1.5v-.8c0-.9.7-1.6 1.6-1.6h.8zm-9.1 39.1c.8 0 1.4.7 1.4 1.4v.8c0 .8-.6 1.4-1.4 1.4h-.7a1.4 1.4 0 0 1-1.5-1.4v-.8c0-.8.7-1.4 1.5-1.4h.7zm19.3-21.5a2 2 0 0 1 2 2v1a2 2 0 0 1-2 2h-1a2 2 0 0 1-2-2v-1a2 2 0 0 1 2-2h1zm-108.7 57c.8 0 1.5.7 1.5 1.6v.7c0 .8-.7 1.5-1.5 1.5h-.7a1.5 1.5 0 0 1-1.5-1.5v-.7c0-.9.6-1.5 1.5-1.5h.7zm-20.4-9.7a3.6 3.6 0 0 1 3.5 3.5v1.8a3.6 3.6 0 0 1-3.5 3.6H152a3.6 3.6 0 0 1-3.6-3.6v-1.8c0-2 1.6-3.5 3.6-3.5h1.8zm-2.4-18.1a2 2 0 0 1 2 2v1a2 2 0 0 1-2 2h-1a2 2 0 0 1-2-2v-1a2 2 0 0 1 2-2h1zm134.9 34.5a2 2 0 0 1 2-2h1a2 2 0 0 1 2 2v1a2 2 0 0 1-2 2h-1a2 2 0 0 1-2-2v-1zm-3-19a2 2 0 0 1 2-2h1a2 2 0 0 1 2 2v1a2 2 0 0 1-2 2h-1a2 2 0 0 1-2-2v-1z" fill="#fff"/></svg>