<svg xmlns="http://www.w3.org/2000/svg" width="361" height="361"><path d="M84 163l27 5c4 0 6-6 1-7l-26-5c-5-1-7 6-2 7zm0 10l27 4c4 1 6-6 2-7l-27-4c-4-1-6 6-2 7zm0 9l27 5c4 0 6-6 2-7l-27-5c-4-1-6 6-2 7zm6 10l15 3c4 0 6-6 2-7l-15-3c-5-1-7 6-2 7z" fill="#fff"/><path d="M121 137c0 8-6 14-14 14H89a14 14 0 0 1-14-14V89c0-8 6-14 14-14h18c8 0 14 6 14 13v49z" fill="none" stroke="#fff" stroke-width="10" stroke-miterlimit="10"/><path d="M250 270l15 7c2 1 3-2 2-3l-15-7c-2 0-4 2-2 3zm-37-17l16 7c2 1 4-1 2-2l-16-8c-2-1-3 2-2 3zm32 30l-21-10c-4-2-8 4-4 6l22 10c4 2 8-4 3-6z" fill="#fff"/><path d="M236 262c-3-1-7 0-8 2l-4 9c-1 2 0 5 3 7l10 4c3 1 6 0 7-2l4-8c1-3 0-6-3-7l-10-5zm13-4l-9-3c-1-1-3-1-4 1-1 1-1 4 1 5l8 3c2 1 4 1 5-1 1-1 0-4-1-4zm2-76l14 7c2 1 4-1 2-2l-15-7c-2-1-3 2-2 2zm-37-17l16 8c1 0 3-2 1-3l-16-7c-2-1-3 1-1 2zm32 30l-22-10c-4-2-8 4-3 6l21 10c4 2 8-4 4-6z" fill="#fff"/><path d="M236 175c-3-2-6-1-8 2l-3 8c-2 3 0 6 3 7l9 4c3 2 6 1 7-2l4-8c1-3 0-6-3-7l-9-4zm13-4l-8-4c-2-1-4-1-5 1s-1 4 1 5l8 4c2 1 4 0 5-1 1-2 1-4-1-5zm2-74l15 7c2 0 3-2 1-3l-15-7c-1-1-3 2-1 3zm-37-17l16 7c2 1 3-2 2-3l-16-7c-2-1-4 2-2 3z" fill="#fff"/><g fill="#fff"><path d="M246 109l-21-10c-4-2-8 4-4 6l22 10c4 2 7-4 3-6z"/><path d="M236 89c-3-1-6 0-7 2l-4 8c-1 3 0 6 3 7l9 5c3 1 7 0 8-2l4-9c1-2 0-5-3-7l-10-4zm13-4l-8-4c-2 0-4 0-5 2-1 1 0 4 2 5l8 3c1 1 4 1 5-1 1-1 0-4-2-5z"/></g><path d="M266 72v219c0 2 3 2 3 0V72c0-2-3-2-3 0zm-53-1v219c0 2 3 2 3 0V71c0-2-3-2-3 0z" fill="#fff"/></svg>