<svg xmlns="http://www.w3.org/2000/svg" width="361" height="361"><path fill="#fff" d="M287 156V75l-107 81z"/><path d="M292 156V75c0-3-4-7-7-4l-107 81c-4 3-3 9 2 9h107c6 0 6-10 0-10H180l3 9 107-80-8-5v81c0 7 10 7 10 0z" fill="#fff"/><path d="M234 281c0 3 3 6 6 6h24c3 0 6-3 6-6v-68c0-3-3-6-6-6h-24c-3 0-6 3-6 6v68z" fill="none" stroke="#fff" stroke-width="10" stroke-miterlimit="10"/><path d="M199 282c0 3 4 5 10 5h67c6 0 11-2 11-5V159c0-3-5-6-11-6h-67c-6 0-10 3-10 6v123z" fill="none" stroke="#fff" stroke-width="10" stroke-miterlimit="10"/><path d="M168 233v54c0 5 7 5 7 0v-54c0-4-7-4-7 0zm-11 0v54c0 5 7 5 7 0v-54c0-4-7-4-7 0zm-11 0v54c0 5 7 5 7 0v-54c0-4-7-4-7 0zm-12 0v54c0 5 7 5 7 0v-54c0-4-7-4-7 0zm-11 0v54c0 5 7 5 7 0v-54c0-4-7-4-7 0zm-11 0v54c0 5 7 5 7 0v-54c0-4-7-4-7 0zm-12 0v54c0 5 7 5 7 0v-54c0-4-7-4-7 0zm-11 0v54c0 5 7 5 7 0v-54c0-4-7-4-7 0zm-11 0v54c0 5 7 5 7 0v-54c0-4-7-4-7 0z" fill="#fff"/><path d="M176 240H75c-5 0-5 7 0 7h101c5 0 5-7 0-7zm1 33H74c-4 0-4 7 0 7h103c4 0 4-7 0-7zM84 163l27 4c4 1 6-6 1-6l-26-5c-5-1-7 6-2 7zm0 10l27 4c4 1 6-6 2-7l-27-4c-4-1-6 6-2 6zm0 9l27 4c4 1 6-6 2-6l-27-5c-4-1-6 6-2 7zm6 10l15 2c4 1 6-6 2-6l-15-3c-5-1-7 6-2 7z" fill="#fff"/><path d="M121 137c0 7-6 14-14 14H89a14 14 0 0 1-14-14V88c0-7 6-13 14-13h18c8 0 14 6 14 13v49z" fill="none" stroke="#fff" stroke-width="10" stroke-miterlimit="10"/></svg>