<svg xmlns="http://www.w3.org/2000/svg" width="361" height="361"><path d="M84 162.5l26.8 4.6c4.5.7 6.3-6 1.9-6.8l-26.8-4.5c-4.4-.8-6.3 6-1.8 6.7zm.4 9.6l26.7 4.6c4.4.8 6.3-6 1.9-6.8l-26.8-4.5c-4.4-.8-6.3 6-1.8 6.7zm0 9.4L111 186c4.4.8 6.3-6 1.9-6.7l-26.8-4.6c-4.4-.7-6.3 6-1.8 6.8zm5.7 10l15 2.5c4.4.8 6.3-6 1.8-6.8l-15-2.5c-4.4-.8-6.3 6-1.8 6.7z" fill="#fff"/><path d="M121 136.6c0 7.5-6 13.6-13.6 13.6H89.2a13.7 13.7 0 0 1-13.7-13.6V88c0-7.5 6.1-13.7 13.7-13.7h18.2c7.5 0 13.6 6.2 13.6 13.7v48.6z" fill="none" stroke="#fff" stroke-width="10" stroke-miterlimit="10"/><path d="M156.8 282.5v9.2h-45.5V216H122v66.4h35zm11.1 9.2V216H214v9h-35.5v22.5h31.6v8.9h-31.6v26.1h38.3v9h-48.9zm124.3-37.9c0 6.6-1 12.3-3 17.1a31.6 31.6 0 0 1-8.7 12 36.5 36.5 0 0 1-13.3 7 58.5 58.5 0 0 1-17 2.4 120.9 120.9 0 0 1-20-1.8v-73.3c3-.7 6.3-1.2 10-1.5 3.6-.2 7-.4 10-.4 6.2 0 11.9.8 17 2.4a36.5 36.5 0 0 1 13.3 7 31.6 31.6 0 0 1 8.7 12 45 45 0 0 1 3 17.1zm-41.1 29.3c10 0 17.5-2.6 22.5-7.7 4.9-5.2 7.4-12.3 7.4-21.6s-2.5-16.4-7.4-21.5c-5-5.1-12.5-7.7-22.5-7.7l-7 .1a61.4 61.4 0 0 0-3.3.3v57.7l3.4.2 6.9.2z" fill="#fff"/></svg>