<svg xmlns="http://www.w3.org/2000/svg" width="361" height="361"><path d="M84 163.5l26.8 4.6c4.5.7 6.3-6 1.9-6.8l-26.8-4.5c-4.4-.8-6.3 6-1.8 6.7zm.4 9.6l26.7 4.6c4.4.8 6.3-6 1.9-6.8l-26.8-4.5c-4.4-.8-6.3 6-1.8 6.7zm0 9.4L111 187c4.4.8 6.3-6 1.9-6.7l-26.8-4.6c-4.4-.7-6.3 6-1.8 6.8zm5.7 10l15 2.5c4.4.8 6.3-6 1.8-6.8l-15-2.5c-4.4-.8-6.3 6-1.8 6.7z" fill="#fff"/><path d="M121 137.6c0 7.5-6 13.6-13.6 13.6H89.2a13.7 13.7 0 0 1-13.7-13.6V89c0-7.5 6.1-13.7 13.7-13.7h18.2c7.5 0 13.6 6.2 13.6 13.7v48.6z" fill="none" stroke="#fff" stroke-width="10" stroke-miterlimit="10"/><path d="M200.3 291h49.1c9.7 0 9.8-15 .1-15h-49.1c-9.7 0-9.8 15-.1 15zm-32.5-65.7h115.6c9.7 0 9.8-15 .2-15H167.9c-9.7 0-9.8 15-.1 15z" fill="#fff"/><path d="M230 224v59.6c0 9.7 15 9.8 15 .1v-59.6c0-9.7-15-9.8-15-.1zm-8-143.3V138c0 4.5 7 4.5 7 0V80.7c0-4.6-7-4.6-7 0z" fill="#fff"/><path d="M184.6 168l43.3-27.6h-3.5l43.3 27.6 1.8-6.5h-86.6c-4.6 0-4.6 7 0 7h86.6c3.5 0 4.6-4.7 1.7-6.5L228 134.3a3.5 3.5 0 0 0-3.5 0L181.1 162c-3.8 2.4-.3 8.5 3.5 6z" fill="#fff"/><path d="M239.5 75.7a5.7 5.7 0 0 1-5.7 5.6h-16a5.7 5.7 0 0 1 0-11.3h16a5.7 5.7 0 0 1 5.7 5.7z" fill="#fff" stroke="#fff" stroke-miterlimit="10"/><path d="M204 219v59.6c0 9.7 15 9.8 15 .1v-59.6c0-9.7-15-9.8-15-.1z" fill="#fff"/></svg>