<svg xmlns="http://www.w3.org/2000/svg" width="361" height="361"><path d="M83.8 260.4l26.8 4.6c4.4.7 6.3-6 1.9-6.8l-26.8-4.5c-4.4-.8-6.3 6-1.9 6.7zm.3 9.6l26.8 4.6c4.4.8 6.3-6 1.8-6.8L86 263.4c-4.4-.8-6.3 6-1.9 6.7zm0 9.4L111 284c4.4.7 6.3-6 1.8-6.8L86 272.6c-4.4-.7-6.3 6-1.9 6.8zm5.7 10l15 2.5c4.4.8 6.3-6 1.9-6.7l-15-2.6c-4.4-.8-6.3 6-1.9 6.8z" fill="#fff"/><path d="M120.8 234.5c0 7.5-6.1 13.6-13.7 13.6H89a13.7 13.7 0 0 1-13.7-13.6v-48.6c0-7.5 6.2-13.7 13.7-13.7h18.2c7.6 0 13.7 6.2 13.7 13.7v48.6z" fill="none" stroke="#fff" stroke-width="10" stroke-miterlimit="10"/><path d="M72.3 72.8a3415.9 3415.9 0 0 0 89 4.6c34 1.2 68-1.1 101.8-3l27-1.6c2 0 2-3 0-3-29.5 1.8-59 3.5-88.6 4.6-34 1.2-68-1-101.9-3l-27.3-1.6c-2 0-1.9 3 0 3zm-.3 54.9a3482.9 3482.9 0 0 0 88.3 4.2c34 1.2 68-1.2 101.9-3.2 9.3-.5 18.7-1 28-1.7 2-.1 2-3.1 0-3a3609 3609 0 0 1-88.8 4.8c-33.8 1.3-67.6-.8-101.4-2.6l-28-1.5c-2-.2-2 2.9 0 3z" fill="#fff"/><path d="M95 88.5l-7-15c-.8-1.7-3.4-.2-2.5 1.6l7 15c.7 1.7 3.3.2 2.5-1.6zm17.1 36.7l-7.4-16c-.8-1.7-3.4-.2-2.6 1.6l7.5 16c.8 1.7 3.4.2 2.6-1.6zm-38.3-27l10 21.7c2 4 8 .5 6.1-3.6L79.8 94.6c-2-4-8-.5-6 3.5z" fill="#fff"/><path d="M100.2 104.6c1.3 3 .4 6.2-2.1 7.4l-8.4 4c-2.5 1-5.6-.3-7-3.3l-4.3-9.3c-1.4-2.9-.4-6.2 2-7.4l8.4-3.9c2.5-1.1 5.7.3 7 3.2l4.4 9.3zm-2.3-9.4l3.8 8c.8 1.8 3.2 2.2 4.8 1.3 1.7-1 2-3 1.2-4.7l-3.8-8.2c-.8-1.7-3.2-2.1-4.8-1.2-1.7 1-2 3-1.2 4.8z" fill="#fff"/><g fill="#fff"><path d="M198.7 91.2l-7-15c-.8-1.7-3.4-.2-2.6 1.6l7 15c.8 1.7 3.4.2 2.6-1.6zm17.1 36.7l-7.4-16c-.8-1.7-3.4-.2-2.6 1.6l7.4 16c.8 1.7 3.4.2 2.6-1.6zm-38.4-27l10.1 21.7c2 4 8 .5 6.1-3.6l-10.1-21.7c-2-4-8-.5-6 3.5z"/><path d="M203.8 107.3c1.4 3 .5 6.2-2 7.4l-8.4 4c-2.5 1-5.6-.3-7-3.3l-4.3-9.3c-1.4-2.9-.5-6.2 2-7.4l8.4-3.9c2.5-1.1 5.6.3 7 3.2l4.3 9.3zm-2.3-9.4l3.8 8c.8 1.8 3.3 2.2 4.8 1.3 1.8-1 2-3 1.3-4.7a29497.2 29497.2 0 0 1-3.8-8.2c-.8-1.7-3.3-2.1-4.8-1.2-1.8 1-2 3-1.3 4.8z"/></g><path d="M268.3 87.8l-7-15c-.8-1.7-3.4-.2-2.6 1.5l7 15c.8 1.7 3.4.2 2.6-1.5zm17.1 36.7l-7.4-16c-.9-1.7-3.4-.2-2.6 1.6l7.4 15.9c.8 1.7 3.4.2 2.6-1.5z" fill="#fff"/><g fill="#fff"><path d="M247 97.4l10.1 21.7c2 4.1 8 .6 6-3.5l-10-21.7c-2-4.1-8-.6-6 3.5z"/><path d="M273.4 103.9c1.4 2.9.5 6.2-2 7.4l-8.4 3.9c-2.5 1.1-5.6-.3-7-3.2l-4.3-9.3c-1.4-3-.5-6.2 2-7.4l8.4-4c2.5-1 5.6.3 7 3.3l4.3 9.3zm-2.2-9.5l3.7 8.1c.8 1.8 3.3 2.2 4.8 1.3 1.8-1 2-3 1.3-4.8l-3.8-8.1c-.8-1.7-3.3-2.2-4.8-1.3-1.8 1-2 3.1-1.3 4.8z"/></g></svg>