<svg xmlns="http://www.w3.org/2000/svg" width="361" height="361"><path d="M84 163l27 4c4 1 6-6 2-7l-27-4c-4-1-6 6-2 6zm0 9l27 5c5 0 6-6 2-7l-27-5c-4 0-6 6-2 7zm0 9l27 5c4 1 6-6 2-7l-27-4c-4-1-6 6-2 7zm6 11l15 2c5 1 6-6 2-7l-15-2c-4-1-6 6-2 6z" fill="#fff"/><path d="M121 137c0 7-6 13-14 13H89a14 14 0 0 1-13-13V88c0-7 6-14 13-14h18c8 0 14 6 14 14v49z" fill="none" stroke="#fff" stroke-width="10" stroke-miterlimit="10"/><path d="M289 72l-87 88A13408793 13408793 0 0 1 73 289c-2 1 1 3 2 2l87-87L281 85l10-11c2-1 0-3-2-2zm0 51l-100 99-66 66c-1 2 1 4 2 3l100-100 66-66c2-2 0-4-2-3zm2-29l-1-2-2-1 3-4c2-1 0-3-1-2-2 1-5 3-5 6 0 2 3 4 4 5 2 1 4-1 2-2z" fill="#fff"/><path d="M287 92l-1 2a2 2 0 0 0 0 2 2 2 0 0 0 2 0l1-2a2 2 0 0 0 0-2 2 2 0 0 0-2 0zm-26 46c-1 1-4-3-5-4l-5-5c-1-1 2-4 3-4l6-6 10 10-9 9c-2 2 0 4 2 2l7-7c2-2 4-4 2-6l-8-8c-2-2-3-4-6-2-3 1-5 5-7 7-2 1-5 4-3 6l7 8c2 2 4 5 7 3 2-1 1-4-1-3z" fill="#fff"/><path d="M249 130l-1 1a2 2 0 0 0 0 2 2 2 0 0 0 2 0l2-1a2 2 0 0 0 0-2 2 2 0 0 0-3 0zm8 7l-2 2a2 2 0 0 0 0 2 2 2 0 0 0 2 0l2-2a2 2 0 0 0 0-2 2 2 0 0 0-2 0zm6-20l-2 1a2 2 0 0 0 0 2 2 2 0 0 0 2 0l2-1a2 2 0 0 0 0-2 2 2 0 0 0-2 0zm7 7l-1 1a2 2 0 0 0 0 3 2 2 0 0 0 2 0l1-2a2 2 0 0 0 0-2 2 2 0 0 0-2 0zm-47 52l-4-4-6-6 3-4 6-5c1-1 9 8 10 9s-8 9-9 10 1 3 2 2l8-8c1-1 4-3 2-6l-8-7c-2-2-4-5-7-3l-7 7c-1 2-5 5-2 7l7 7c2 2 4 5 7 3 2-1 0-4-2-2z" fill="#fff"/><path d="M212 167l-2 2a2 2 0 0 0 0 2 2 2 0 0 0 3 0l1-1a2 2 0 0 0 0-3 2 2 0 0 0-2 0zm7 8l-1 1a2 2 0 0 0 0 2 2 2 0 0 0 2 0l1-1a2 2 0 0 0 0-2 2 2 0 0 0-2 0zm6-21l-1 2a2 2 0 0 0 0 2 2 2 0 0 0 2 0l1-2a2 2 0 0 0 0-2 2 2 0 0 0-2 0zm7 8l-1 1a2 2 0 0 0 0 2 2 2 0 0 0 2 0l2-1a2 2 0 0 0 0-2 2 2 0 0 0-3 0zm-46 51c-1 1-4-3-5-4l-5-5c-1-1 2-3 3-4l6-6 10 10-9 9c-2 2 0 4 2 2l7-7c2-1 4-4 2-6l-8-8c-2-2-3-4-6-2-3 1-5 5-8 7-1 1-4 4-2 6l7 8c2 2 4 5 7 3 2-1 1-4-1-3z" fill="#fff"/><path d="M174 205l-1 1a2 2 0 0 0 0 3 2 2 0 0 0 2 0l1-2a2 2 0 0 0 0-2 2 2 0 0 0-2 0zm8 7l-2 2a2 2 0 0 0 0 2 2 2 0 0 0 2 0l2-1v-3h-2zm6-20l-2 1v2h2l2-1v-2h-2zm7 7l-2 2a2 2 0 0 0 0 2 2 2 0 0 0 3 0l1-2v-2h-2zm-47 52l-4-4-6-6 3-3 6-6 10 10-9 9c-1 1 1 3 2 2l8-7c1-2 4-4 1-6l-7-8c-2-2-4-4-7-3l-7 7c-2 2-5 5-2 7l7 7c2 2 4 5 7 3 1-1 0-3-2-2z" fill="#fff"/><path d="M137 243l-2 1a2 2 0 0 0 0 2 2 2 0 0 0 2 0l2-1a2 2 0 0 0 0-2 2 2 0 0 0-2 0zm7 7l-1 1a2 2 0 0 0 0 3 2 2 0 0 0 2 0l1-2a2 2 0 0 0 0-2 2 2 0 0 0-2 0zm6-21l-1 2a2 2 0 0 0 0 2 2 2 0 0 0 2 0l1-2a2 2 0 0 0 0-2 2 2 0 0 0-2 0zm7 8l-1 1a2 2 0 0 0 0 2 2 2 0 0 0 2 0l1-1a2 2 0 0 0 0-2 2 2 0 0 0-2 0zm-46 51c-1 1-4-2-5-3l-6-6 4-4 5-6 11 10-10 9c-1 2 1 4 3 3l7-8c1-1 4-4 2-6l-8-8c-2-2-3-4-6-2l-8 7c-1 2-4 4-2 7l7 7c2 2 4 5 7 3 2-1 0-4-1-3z" fill="#fff"/><path d="M99 280l-1 2a2 2 0 0 0 0 2 2 2 0 0 0 2 0l1-2a2 2 0 0 0 0-2 2 2 0 0 0-2 0zm7 8l-1 1a2 2 0 0 0 0 2 2 2 0 0 0 2 0l2-1a2 2 0 0 0 0-2 2 2 0 0 0-2 0zm6-21l-1 1a2 2 0 0 0 0 2 2 2 0 0 0 2 0l2-1a2 2 0 0 0 0-2 2 2 0 0 0-3 0zm8 7l-2 2a2 2 0 0 0 0 2 2 2 0 0 0 2 0l2-2a2 2 0 0 0 0-2 2 2 0 0 0-2 0zm155-165l5 5c2 1 4-1 2-2l-5-5c-1-2-3 0-2 2zm-76 76l5 5c2 1 4-1 2-2l-5-5c-1-2-3 0-2 2zm-75 75l5 5c1 1 4-1 2-2l-5-5c-1-2-3 0-2 2zm68-10c7 0 11 1 15 3 3 2 5 6 5 10l-2 7a13 13 0 0 1-6 5 58 58 0 0 1 3 3 102 102 0 0 1 7 14h-10l-3-5a99 99 0 0 0-2-3 112 112 0 0 0-5-7h-5v15h-9v-41l6-1a81 81 0 0 1 6 0zm1 8h-3v11h2l8-1 2-5-2-4a14 14 0 0 0-7-1zm45-1c-4 0-7 2-9 4s-3 6-3 10l1 5a12 12 0 0 0 2 5 10 10 0 0 0 3 3l5 1a51 51 0 0 0 5-1v-14h9v20a47 47 0 0 1-14 3l-9-2-6-4-4-7-2-9 2-9 4-7a19 19 0 0 1 7-4 23 23 0 0 1 8-2 33 33 0 0 1 9 1 19 19 0 0 1 5 2l-3 8a24 24 0 0 0-4-2 19 19 0 0 0-6-1zm34 35h-7a48 48 0 0 1-7-1v-40a60 60 0 0 1 6-1h14l6 2 4 4 1 5c0 4-2 6-5 8 3 1 5 2 6 4a12 12 0 0 1 1 6c0 4-2 8-5 10s-8 3-14 3zm-5-26h5l6-1 2-3-2-4-6-1h-5v9zm0 8v10a52 52 0 0 0 5 1l7-2c2 0 3-2 3-4s-1-3-3-4l-6-1h-6z" fill="#fff"/></svg>