<svg xmlns="http://www.w3.org/2000/svg" width="361" height="361"><path d="M159.6 264.3v-53c0-3.8-.7-8.8-4.9-10.5-4.4-2-9.2-1.4-14-1.4s-9.5-.5-14 1.4c-5.8 2.4-4.8 10.5-4.8 15.5 0 6.5 10 6.5 10 0v-5c0-2-.6-1.9.8-1.9h16.8c.3 0 0-.5 0 .4v54.5c0 6.4 10 6.4 10 0z" fill="#fff"/><path d="M180 240.6v-53c0-4.4-1.2-7.7-4.9-10.6-3.2-2.4-10.3-1.3-14-1.3s-10.8-1.1-14 1.3c-5.4 4.2-4.8 9.4-4.8 15.6 0 6.4 10 6.4 10 0 0-2.2-1-6.9.8-6.9h16.8c.2 0 0-.3 0 .6v54.3c0 6.4 10 6.4 10 0z" fill="#fff"/><path d="M118.3 266.4l39.8-56.8c2.3-3.3 5.6-4.4 9.4-4.4 1 0 5.6-.7 3.4 2.5l-.5.7-6.9 9.8-26.4 37.7-21.3 30.4c-1 1.5 1.5 3 2.6 1.5l42.8-61.1 9.6-13.8c1.6-2.2 4.6-5.4 3.8-8.3-1.6-5.6-14-1.8-16.6.7-2.7 2.5-4.6 5.8-6.7 8.8L115.7 265c-1.1 1.6 1.5 3.1 2.6 1.5z" fill="#fff"/><g fill="#fff"><path d="M192 286.2a44 44 0 0 0-17.7.2c-5 1-10.1 2.5-15.3 2.7-4.7.2-9.7-1.5-14.3-2.5a45.3 45.3 0 0 0-18.7-.4c-1.9.4-1 3.3.8 2.9 11.4-2.2 21 2.6 32.2 3 4.3.2 8.8-1.2 13-2.1a44.8 44.8 0 0 1 19.2-.9c2 .4 2.7-2.5.8-2.9z"/><path d="M176.3 289c11.4-2.1 21 2.7 32.2 3.1 4.3.2 8.8-1.2 13-2.1a44.8 44.8 0 0 1 19.2-1c2 .4 2.7-2.4.8-2.8a44 44 0 0 0-17.7.2c-5 1-10.1 2.5-15.3 2.7-4.7.2-9.7-1.5-14.3-2.5a45.2 45.2 0 0 0-18.7-.4c-1.9.4-1 3.3.8 2.9z"/><path d="M225.6 289c11.5-2.1 21 2.7 32.2 3.1 4.3.1 8.8-1.2 13-2.1a44.8 44.8 0 0 1 19.3-1c1.8.4 2.7-2.5.8-2.8-6.2-1.2-11.6-1-17.8.2-5 1-10 2.5-15.3 2.7-4.7.2-9.6-1.5-14.3-2.5a45.2 45.2 0 0 0-18.7-.4c-1.9.4-1 3.2.8 2.9z"/></g><g fill="#fff"><path d="M203.9 272.3a44 44 0 0 0-17.7.2c-5 1-10.1 2.6-15.3 2.7-4.7.2-9.7-1.5-14.3-2.5a45.2 45.2 0 0 0-18.7-.4c-2 .4-1.1 3.3.8 3 11.4-2.3 21 2.6 32.2 3 4.3.1 8.8-1.3 13-2.2a45 45 0 0 1 19.2-.9c1.9.4 2.7-2.5.8-2.9z"/><path d="M188.2 275.2c11.4-2.2 21 2.7 32.2 3 4.3.2 8.8-1.2 13-2.1a44.8 44.8 0 0 1 19.2-.9c2 .4 2.7-2.5.8-2.9a44 44 0 0 0-17.7.2c-5 1-10.1 2.6-15.3 2.7-4.7.2-9.7-1.5-14.3-2.5a45.2 45.2 0 0 0-18.7-.4c-1.9.4-1 3.3.8 3z"/><path d="M237.5 275.2c9-1.7 17 .6 25.6 2.2 9.6 1.8 18-1.6 27.3-2.8 2-.3 2-3.3 0-3-3.9.5-7.7 1.5-11.6 2.3a39.6 39.6 0 0 1-17 .2c-8.6-1.7-16.3-3.5-25-1.8-2 .4-1.2 3.3.7 3z"/></g><g fill="#fff"><path d="M210.7 258.6a48.3 48.3 0 0 0-20.3.7c-6.6 1.4-12.8 3-19.5 1.3-2-.5-2.7 2.4-.8 2.9 6.8 1.6 13.2.5 20-1a44.1 44.1 0 0 1 19.8-1c2 .3 2.7-2.6.8-3z"/><path d="M195 261.4c11.4-2.1 21 2.7 32.2 3 4.3.2 8.8-1.1 13-2a45 45 0 0 1 19.2-1c2 .4 2.7-2.5.8-2.8a44 44 0 0 0-17.7.2c-5 1-10 2.5-15.3 2.7-4.7.1-9.7-1.6-14.3-2.5a45.1 45.1 0 0 0-18.7-.5c-1.9.4-1 3.3.8 3z"/><path d="M244.3 261.4c8.2-1.5 15.5.2 23.4 1.8 8.3 1.7 15 .6 23.2-1.5 1.8-.5 1-3.4-.8-2.9-3.5 1-7 1.7-10.6 2.3-4.5.8-9.1-.4-13.5-1.3a53.3 53.3 0 0 0-22.5-1.3c-1.9.4-1 3.3.8 3z"/></g><g fill="#fff"><path d="M248.3 214.2a44 44 0 0 0-17.7.2c-5.1 1-10.1 2.5-15.3 2.7-4.8.1-9.7-1.6-14.3-2.5a45.2 45.2 0 0 0-18.7-.4c-2 .3-1.1 3.2.8 2.9 11.4-2.2 21 2.6 32.2 3 4.2.1 8.8-1.2 13-2.2a45 45 0 0 1 19.2-.9c1.9.4 2.7-2.5.8-2.9z"/><path d="M232.6 217c10.1-2 19 1.4 29 2.8 9.2 1.3 18.1-3.4 27.3-3.7 2 0 2-3 0-3-9.8.3-19 5-28.8 3.4-9.7-1.5-18.3-4.3-28.3-2.4-2 .4-1.1 3.3.8 3z"/><path d="M281.9 217c2.8-.5 5.3-1 8.1-1 2 0 2-3 0-3-3 0-5.9.5-8.9 1.1-1.9.4-1 3.3.8 3z"/></g><g fill="#fff"><path d="M236.6 228.2a55 55 0 0 0-23.1 1.4c-9.1 2-17 1-26.2-.4-1.9-.3-2.7 2.6-.8 2.8 7.5 1.2 15 2.7 22.6 1.5 9.1-1.5 17.3-4.2 26.7-2.4 1.9.3 2.7-2.6.8-3z"/><path d="M220.9 231c11.4-2.1 21 2.7 32.2 3 4.3.2 8.8-1.1 13-2a44.8 44.8 0 0 1 19.2-1c1.9.4 2.7-2.5.8-2.8a44 44 0 0 0-17.7.2c-5 1-10.1 2.5-15.3 2.7-4.7.2-9.7-1.5-14.3-2.5a45.2 45.2 0 0 0-18.7-.4c-1.9.3-1.1 3.2.8 2.9z"/><path d="M270.2 231c7-1.3 13-.5 19.8 1 1.9.5 2.7-2.4.8-2.9a49.5 49.5 0 0 0-21.4-1c-1.9.4-1 3.3.8 3z"/></g><g fill="#fff"><path d="M225.6 243a49 49 0 0 0-20.8 1 42.1 42.1 0 0 1-19.8.9c-1.9-.5-2.7 2.4-.8 2.9 13.8 3.3 26.7-4.5 40.6-1.9 2 .4 2.7-2.5.8-2.9z"/><path d="M210 246c11.4-2.3 21 2.5 32.1 3 4.3.1 8.8-1.3 13-2.2a44.8 44.8 0 0 1 19.2-.9c2 .4 2.7-2.5.8-2.9a44 44 0 0 0-17.7.2c-5 1-10 2.6-15.2 2.7-4.8.2-9.7-1.5-14.4-2.5a45.2 45.2 0 0 0-18.7-.4c-1.9.4-1 3.3.8 3z"/><path d="M259.3 246a42 42 0 0 1 18 .5c4.3 1 8.6 2.3 13.1 2.5 2 0 2-3 0-3-4.8-.2-9.5-1.8-14.2-2.8a43.6 43.6 0 0 0-17.7-.2c-2 .4-1.1 3.3.8 3z"/></g><path d="M83.8 163l26.8 4.6c4.4.7 6.3-6 1.9-6.8l-26.8-4.5c-4.4-.8-6.3 6-1.9 6.7zm.3 9.6l26.8 4.6c4.4.8 6.3-6 1.8-6.8L86 166c-4.4-.8-6.3 6-1.9 6.7zm0 9.4l26.8 4.5c4.4.8 6.3-6 1.8-6.7L86 175.2c-4.4-.7-6.3 6-1.9 6.8zm5.7 10l15 2.5c4.4.8 6.3-6 1.9-6.8l-15-2.5c-4.4-.8-6.3 6-1.9 6.7z" fill="#fff"/><path d="M120.8 137c0 7.6-6.1 13.7-13.7 13.7H89a13.7 13.7 0 0 1-13.7-13.6V88.5c0-7.5 6.2-13.7 13.7-13.7h18.2c7.6 0 13.7 6.2 13.7 13.7v48.6z" fill="none" stroke="#fff" stroke-width="10" stroke-miterlimit="10"/></svg>