<svg xmlns="http://www.w3.org/2000/svg" width="361" height="361"><path d="M84 164l27 4c4 1 6-6 2-7l-27-4c-4-1-6 6-2 6zm0 9l27 5c5 0 6-6 2-7l-27-5c-4 0-6 6-2 7zm0 9l27 5c4 1 6-6 2-7l-27-4c-4-1-6 6-2 7zm6 11l15 2c5 1 6-6 2-7l-15-2c-4-1-6 6-2 6z" fill="#fff"/><path d="M121 138c0 7-6 13-14 13H89a14 14 0 0 1-13-13V89c0-7 6-14 13-14h18c8 0 14 6 14 14v49z" fill="none" stroke="#fff" stroke-width="10" stroke-miterlimit="10"/><path d="M200 291h49c10 0 10-15 1-15h-50c-9 0-9 15 0 15zm-32-66h115c10 0 10-15 1-15H168c-10 0-10 15 0 15z" fill="#fff"/><path d="M230 224v60c0 9 15 9 15 0v-60c0-10-15-10-15 0zm-8-143v57c0 5 7 5 7 0V81c0-5-7-5-7 0z" fill="#fff"/><path d="M185 168l43-28h-4l44 28 1-6h-86c-5 0-5 7 0 7h87c3 0 4-5 1-7l-43-28a4 4 0 0 0-3 0l-44 28c-4 2 0 9 4 6z" fill="#fff"/><path d="M240 76a6 6 0 0 1-6 5h-16a6 6 0 0 1 0-11h16a6 6 0 0 1 6 6z" fill="#fff" stroke="#fff" stroke-miterlimit="10"/><path d="M204 219v60c0 9 15 9 15 0v-60c0-10-15-10-15 0z" fill="#fff"/></svg>