<svg xmlns="http://www.w3.org/2000/svg" width="361" height="361"><path d="M83.8 163l26.8 4.6c4.4.7 6.3-6 1.9-6.8l-26.8-4.5c-4.4-.8-6.3 6-1.9 6.7zm.3 9.6l26.8 4.6c4.4.8 6.3-6 1.8-6.8L86 166c-4.4-.8-6.3 6-1.9 6.7zm0 9.4l26.8 4.5c4.4.8 6.3-6 1.8-6.7L86 175.2c-4.4-.7-6.3 6-1.9 6.8zm5.7 10l15 2.5c4.4.8 6.3-6 1.9-6.8l-15-2.5c-4.4-.8-6.3 6-1.9 6.7z" fill="#fff"/><path d="M120.8 137c0 7.6-6.1 13.7-13.7 13.7H89a13.7 13.7 0 0 1-13.7-13.6V88.5c0-7.5 6.2-13.7 13.7-13.7h18.2c7.6 0 13.7 6.2 13.7 13.7v48.6z" fill="none" stroke="#fff" stroke-width="10" stroke-miterlimit="10"/><path d="M277 76.6V285c0 9.7 15 9.7 15 0V76.8c0-9.7-15-9.8-15 0z" fill="#fff"/><path d="M269.3 203.7V249c0 6.5 10 6.5 10 0v-45.4c0-6.5-10-6.5-10 0z" fill="#fff"/><path d="M253.8 193.1c0 8.8-8.5 16-19 16h-25.4c-10.5 0-19-7.1-19-16v-57c0-8.8 8.5-16 19-16h25.4c10.5 0 19 7.2 19 16v57z" fill="none" stroke="#fff" stroke-width="10" stroke-miterlimit="10"/><path d="M215.8 233.2h56c9.7 0 9.7-15 0-15h-56c-9.6 0-9.7 15 0 15z" fill="#fff"/><path d="M214.8 211.6v9.5a7.6 7.6 0 0 0 7.5 7.6 7.6 7.6 0 0 0 7.5-7.5v-9.5a7.6 7.6 0 0 0-7.4-7.5 7.6 7.6 0 0 0-7.6 7.4z" fill="#fff"/></svg>