<svg xmlns="http://www.w3.org/2000/svg" width="361" height="361"><path d="M83.8 163l26.8 4.6c4.4.7 6.3-6 1.9-6.8l-26.8-4.5c-4.4-.8-6.3 6-1.9 6.7zm.3 9.6l26.8 4.6c4.4.8 6.3-6 1.8-6.8L86 166c-4.4-.8-6.3 6-1.9 6.7zm0 9.4l26.8 4.5c4.4.8 6.3-6 1.8-6.7L86 175.2c-4.4-.7-6.3 6-1.9 6.8zm5.7 10l15 2.5c4.4.8 6.3-6 1.9-6.8l-15-2.5c-4.4-.8-6.3 6-1.9 6.7z" fill="#fff"/><path d="M120.8 137c0 7.6-6.1 13.7-13.7 13.7H89a13.7 13.7 0 0 1-13.7-13.6V88.5c0-7.5 6.2-13.7 13.7-13.7h18.2c7.6 0 13.7 6.2 13.7 13.7v48.6z" fill="none" stroke="#fff" stroke-width="10" stroke-miterlimit="10"/><path d="M259.8 161.7c0 8-7 14.8-13.7 19.5-12 8.5-26.2 13.7-40.1 18-42.2 12.8-87.3 16.4-131.2 16.5-6.4 0-6.4 10 0 10 46-.1 93.5-4.1 137.6-18a133.6 133.6 0 0 0 41.6-19.9c8.3-6.4 15.7-15 15.8-26.1.1-6.5-9.9-6.5-10 0z" fill="#fff"/><path d="M83.3 224.7v10c0 4.5 7 4.5 7 0v-10c0-4.6-7-4.6-7 0z" fill="#fff"/><path d="M93.8 250.7a6 6 0 0 1-6 6h-3a6 6 0 0 1-6-6v-11a6 6 0 0 1 6-6h3a6 6 0 0 1 6 6v11zm33.5-29v10c0 4.5 7 4.5 7 0v-10c0-4.6-7-4.6-7 0z" fill="#fff"/><path d="M137.8 247.7a6 6 0 0 1-6 6h-3a6 6 0 0 1-6-6v-11a6 6 0 0 1 6-6h3a6 6 0 0 1 6 6v11zm29.5-32v10c0 4.5 7 4.5 7 0v-10c0-4.6-7-4.6-7 0z" fill="#fff"/><path d="M177.8 241.7a6 6 0 0 1-6 6h-3a6 6 0 0 1-6-6v-11a6 6 0 0 1 6-6h3a6 6 0 0 1 6 6v11zm30.5-35v10c0 4.5 7 4.5 7 0v-10c0-4.6-7-4.6-7 0z" fill="#fff"/><path d="M218.8 232.7a6 6 0 0 1-6 6h-3a6 6 0 0 1-6-6v-11a6 6 0 0 1 6-6h3a6 6 0 0 1 6 6v11z" fill="#fff"/><g fill="#fff"><path d="M248.3 188.7v10c0 4.5 7 4.5 7 0v-10c0-4.6-7-4.6-7 0z"/><path d="M258.8 214.7a6 6 0 0 1-6 6h-3a6 6 0 0 1-6-6v-11a6 6 0 0 1 6-6h3a6 6 0 0 1 6 6v11z"/></g><g fill="#fff"><path d="M287.4 155.2l.2-57.5-75.8 57.5z"/><path d="M292.4 155.2l.2-57.5c0-3.4-4.4-6.7-7.5-4.3l-75.8 57.4c-3.7 2.9-2.9 9.4 2.5 9.4h75.6c6.5 0 6.5-10 0-10h-75.6l2.6 9.3L290 102l-7.5-4.3-.2 57.5c0 6.4 10 6.4 10 0z"/></g><path d="M291.8 152.2h-51.6c-5.8 0-10.6 2.6-10.6 5.8v122.5c0 3.2 4.8 5.8 10.6 5.8h51.6" fill="none" stroke="#fff" stroke-width="10" stroke-miterlimit="10"/><path d="M292.6 207.2h-18c-3.3 0-6 2.5-6 5.6V281c0 3.1 2.7 5.7 6 5.7h17.2" fill="none" stroke="#fff" stroke-width="10" stroke-miterlimit="10"/></svg>