<svg xmlns="http://www.w3.org/2000/svg" width="361" height="361"><path d="M84 163l27 4c4 1 6-6 2-7l-27-4c-4-1-6 6-2 6zm0 9l27 5c5 0 6-6 2-7l-27-5c-4 0-6 6-2 7zm0 9l27 5c4 1 6-6 2-7l-27-4c-4-1-6 6-2 7zm6 11l15 2c5 1 6-6 2-7l-15-2c-4-1-6 6-2 6z" fill="#fff"/><path d="M121 137c0 7-6 13-14 13H89a14 14 0 0 1-13-13V88c0-7 6-14 13-14h18c8 0 14 6 14 14v49z" fill="none" stroke="#fff" stroke-width="10" stroke-miterlimit="10"/><path d="M272 196l-7 46c-1 4 6 6 6 2l7-47c1-4-6-6-6-1zm-31-5v47c0 4 7 4 7 0v-47c0-5-7-5-7 0zm-31 6l7 47c1 4 7 2 7-2l-7-46c-1-5-8-3-7 1zm5 71h58c4 0 4-7 0-7h-58c-4 0-4 7 0 7z" fill="#fff"/><path d="M265 266c0 3 1 12-3 12h-35c-6 0-4-9-4-12 0-5-7-5-7 0 0 6-1 18 8 19h38c11 0 10-12 10-19 0-5-7-5-7 0zm-139 10h6c2 0 4-2 4-4s-2-3-4-3h-6c-2 0-4 1-4 3s2 4 4 4zm45-7h-12c-5 0-5 7 0 7h12c4 0 4-7 0-7zm111 13h5c2 0 4-2 4-4s-2-3-4-3h-5c-2 0-3 1-3 3s1 4 3 4zm-26 10h16c4 0 4-7 0-7h-16c-5 0-5 7 0 7z" fill="#fff"/><path d="M275 289h6c2 0 4-2 4-4s-2-3-4-3h-6c-2 0-3 1-3 3s1 4 3 4z" fill="#fff"/><path d="M286 292h2c2 0 3-2 3-4s-1-3-3-3h-2c-2 0-4 1-4 3s2 4 4 4zm1-22h-1c-2 0-3 2-3 4s1 3 3 3h1c2 0 3-2 3-3s-1-4-3-4zM73 283h7c4 0 4-7 0-7h-7c-5 0-5 7 0 7zm26-3h8c5 0 5-7 0-7h-8c-4 0-4 7 0 7zm22 12h6c2 0 4-2 4-4s-2-3-4-3h-6c-2 0-3 1-3 3s1 4 3 4zm124-8h-9c-4 0-4 7 0 7h9c5 0 5-7 0-7z" fill="#fff"/><path d="M76 277h2c2 0 3-2 3-4s-1-3-3-3h-2c-2 0-4 2-4 3s2 4 4 4zm17-1h-2c-2 0-4 2-4 4s2 3 4 3h2c1 0 3-1 3-3s-2-4-3-4zm102 9h-6c-2 0-3 1-3 3s1 4 3 4h6c2 0 4-2 4-4s-2-3-4-3zm10 7h16c4 0 4-7 0-7h-16c-5 0-5 7 0 7z" fill="#fff"/><path d="M214 288h2c2 0 4-2 4-3s-2-4-4-4h-2c-2 0-3 2-3 4s1 3 3 3zm-79-16h-9c-5 0-5 7 0 7h9c4 0 4-7 0-7zm16 0h-6c-2 0-3 1-3 3s1 4 3 4h6c2 0 4-2 4-4s-2-3-4-3z" fill="#fff"/><path d="M141 270h-2c-2 0-4 1-4 3s2 4 4 4h2c2 0 3-2 3-4s-1-3-3-3zm3 22h6c2 0 3-2 3-4s-1-3-3-3h-6c-2 0-4 1-4 3s2 4 4 4zm-59 0h15c5 0 5-7 0-7H85c-5 0-5 7 0 7zm92-15h9c5 0 5-7 0-7h-9c-4 0-4 7 0 7zm-18 15h16c4 0 4-7 0-7h-16c-5 0-5 7 0 7zm-5-8h6c2 0 3-2 3-4s-1-3-3-3h-6c-2 0-4 1-4 3s2 4 4 4z" fill="#fff"/><path d="M172 288h2c2 0 4-2 4-4s-2-3-4-3h-2c-2 0-3 1-3 3s1 4 3 4zm40-18h-12c-4 0-4 7 0 7h12c5 0 5-7 0-7zm-21 9h-6c-2 0-3 1-3 3s1 4 3 4h6c2 0 4-2 4-4s-2-3-4-3zm-45 1h16c4 0 4-7 0-7h-16c-5 0-5 7 0 7zm-29-5h-9c-4 0-4 7 0 7h9c5 0 5-7 0-7zm-17-6h-7c-1 0-3 2-3 4s2 3 4 3h6c2 0 3-1 3-3s-1-4-3-4zm-14 12h-5c-2 0-4 2-4 4s2 3 4 3h5c2 0 4-2 4-3s-2-4-4-4zm56 1h-2c-2 0-3 2-3 3s1 4 3 4h2c2 0 4-2 4-4s-2-3-4-3z" fill="#fff"/><path d="M146 272h-2c-2 0-4 1-4 3s2 4 4 4h2c2 0 3-2 3-4s-1-3-3-3zm-42 20h6c2 0 3-2 3-4s-1-3-3-3h-6c-2 0-3 1-3 3s1 4 3 4zm-32-1h2c2 0 4-2 4-4s-2-3-4-3h-2c-2 0-3 1-3 3s1 4 3 4zm20-9h2c2 0 3-2 3-4s-1-3-3-3h-2c-2 0-4 2-4 3s2 4 4 4zm11-2c4 0 4-7 0-7s-5 7 0 7zm104-4h-12c-4 0-4 7 0 7h12c4 0 4-7 0-7zm-67 5h-12c-4 0-4 7 0 7h12c4 0 4-7 0-7zm-70-10h145c2 0 2-3 0-3H70c-2 0-2 3 0 3zm202 0h17c2 0 2-3 0-3h-17c-2 0-2 3 0 3zm11 2h-9c-4 0-4 7 0 7h9c5 0 5-7 0-7z" fill="#fff"/></svg>