<svg xmlns="http://www.w3.org/2000/svg" width="361" height="361"><path d="M84 163l27 4c4 1 6-6 2-7l-27-4c-4-1-6 6-2 6zm0 9l27 5c5 0 6-6 2-7l-27-5c-4 0-6 6-2 7zm0 9l27 5c4 1 6-6 2-7l-27-4c-4-1-6 6-2 7zm6 11l15 2c5 1 6-6 2-7l-15-2c-4-1-6 6-2 6z" fill="#fff"/><path d="M121 137c0 7-6 13-14 13H89a14 14 0 0 1-13-13V88c0-7 6-14 13-14h18c8 0 14 6 14 14v49z" fill="none" stroke="#fff" stroke-width="10" stroke-miterlimit="10"/><path d="M134 207a69 69 0 0 1 17-2l11 1 9 5a21 21 0 0 1 5 8 32 32 0 0 1 2 12c0 6-1 10-3 14a22 22 0 0 1-9 8 83 83 0 0 1 4 7 196 196 0 0 1 4 9 277 277 0 0 1 5 10 131 131 0 0 1 4 11h-11l-4-9a266 266 0 0 0-4-9 298 298 0 0 0-4-9 176 176 0 0 0-4-7 60 60 0 0 1-4 1 69 69 0 0 1-4 0h-3v32h-11v-82zm11 41h5c5 0 9-1 12-4 3-2 5-7 5-13l-1-8a12 12 0 0 0-3-5 13 13 0 0 0-6-3 24 24 0 0 0-6-1l-6 1v33zm39 0l2-21c2-5 4-10 7-13l9-8a34 34 0 0 1 13-2l10 1a29 29 0 0 1 7 4l-3 9a29 29 0 0 0-6-3 21 21 0 0 0-7-2c-7 0-12 3-16 9s-4 14-4 26l1 15a34 34 0 0 0 4 11 16 16 0 0 0 6 6 17 17 0 0 0 8 2l7-1v-33h11v40a38 38 0 0 1-8 2 46 46 0 0 1-11 1c-4 0-8 0-12-2a26 26 0 0 1-9-8 40 40 0 0 1-6-14c-2-5-3-12-3-19zm60-41a86 86 0 0 1 9-2 72 72 0 0 1 9 0l10 1 9 3a18 18 0 0 1 8 17c0 5-1 9-3 12a19 19 0 0 1-8 7 24 24 0 0 1 10 8 21 21 0 0 1 4 13l-2 11a19 19 0 0 1-6 8l-10 4-11 1a85 85 0 0 1-9 0 110 110 0 0 1-10-2v-81zm11 34h8c10 0 15-4 15-13l-2-7a11 11 0 0 0-3-4l-5-3a27 27 0 0 0-6 0 58 58 0 0 0-3 0 55 55 0 0 0-4 0v27zm0 9v30a82 82 0 0 0 9 1 27 27 0 0 0 6-1 14 14 0 0 0 6-2 11 11 0 0 0 3-5 19 19 0 0 0 2-7c0-5-2-9-4-12-3-3-7-4-13-4h-9z" fill="#fff"/></svg>