<svg xmlns="http://www.w3.org/2000/svg" width="361" height="361"><path d="M84 163l27 4c4 1 6-6 2-7l-27-4c-4-1-6 6-2 6zm0 9l27 5c5 0 6-6 2-7l-27-5c-4 0-6 6-2 7zm0 9l27 5c4 1 6-6 2-7l-27-4c-4-1-6 6-2 7zm6 11l15 2c5 1 6-6 2-7l-15-2c-4-1-6 6-2 6z" fill="#fff"/><path d="M121 137c0 7-6 13-14 13H89a14 14 0 0 1-13-13V88c0-7 6-14 13-14h18c8 0 14 6 14 14v49z" fill="none" stroke="#fff" stroke-width="10" stroke-miterlimit="10"/><path d="M166 138v11c0 2 3 2 3 0v-11c0-2-3-2-3 0zm-18 9l8 7c1 2 3 0 2-2l-8-8c-1-1-3 1-2 3zm-7 18h11c2 0 2-3 0-3h-11c-2 0-2 3 0 3zm151 117h-38v-9h38v-20H171v-84h121v-10H171a10 10 0 0 0-10 10v94a10 10 0 0 0 10 10h63v9h-42c-6 0-6 10 0 10h100v-10zm-151-12h11c2 0 2-3 0-3h-11c-2 0-2 3 0 3zm9 18l8-8c1-2-1-4-2-2l-8 8c-1 1 1 3 2 2zm19 2v-6c0-2-3-2-3 0v6c0 2 3 2 3 0zm68-150l-8 8c-1 1 1 3 2 2l8-8c1-2-1-4-2-2zm-17-3v12c0 2 3 2 3 0v-12c0-2-3-2-3 0zm-16 5l8 8c1 1 3-1 2-2l-8-8c-2-2-4 0-2 2zm-61 58l8 8c1 1 3-1 2-2l-8-8c-1-1-3 1-2 2zm-2 17h11c2 0 2-3 0-3h-11c-2 0-2 3 0 3zm4 16l8-8c1-1-1-3-2-2l-8 8c-1 1 1 3 2 2zm141-96v12c0 2 3 2 3 0v-12c0-2-3-2-3 0zm-16 5l8 8c1 1 3-1 2-3l-8-7c-1-2-3 0-2 2z" fill="#fff"/></svg>