<svg xmlns="http://www.w3.org/2000/svg" width="361" height="361"><path d="M84 162.5l26.8 4.6c4.5.7 6.3-6 1.9-6.8l-26.8-4.5c-4.4-.8-6.3 6-1.8 6.7zm.4 9.6l26.7 4.6c4.4.8 6.3-6 1.9-6.8l-26.8-4.5c-4.4-.8-6.3 6-1.8 6.7zm0 9.4L111 186c4.4.8 6.3-6 1.9-6.7l-26.8-4.6c-4.4-.7-6.3 6-1.8 6.8zm5.7 10l15 2.5c4.4.8 6.3-6 1.8-6.8l-15-2.5c-4.4-.8-6.3 6-1.8 6.7z" fill="#fff"/><path d="M121 136.6c0 7.5-6 13.6-13.6 13.6H89.2a13.7 13.7 0 0 1-13.7-13.6V88c0-7.5 6.1-13.7 13.7-13.7h18.2c7.5 0 13.6 6.2 13.6 13.7v48.6z" fill="none" stroke="#fff" stroke-width="10" stroke-miterlimit="10"/><path d="M284.8 276.3c-.4 3.3-6.9 2.1-8.7 2.1h-96.5c-4.6 0-2.8-11.1-2.8-13.5V99.6c0-4.1-1.6-10.7 4.2-10.7h97.8c1.8 0 6-.7 6 2.4v185c0 4.5 7 4.5 7 0v-180c0-7-1-14.4-10.1-14.4h-97.1c-3 0-6.2-.3-9 .7-7.5 2.7-5.8 12.7-5.8 18.9v165.3c0 6.7-1.5 17.4 7.9 18.5 8.3 1 17.2.1 25.6.1h76c6.3 0 11.7-1.8 12.5-9.2.5-4.4-6.5-4.4-7 0z" fill="#fff"/><path d="M180.6 291.4h13c6.4 0 6.4-10 0-10h-13c-6.5 0-6.5 10 0 10zm88.7 0h13c6.5 0 6.5-10 0-10h-13c-6.4 0-6.4 10 0 10zM227.3 88v131c0 4.5 7 4.5 7 0V88c0-4.5-7-4.5-7 0z" fill="#fff"/><path d="M173.3 223.8h115c4.6 0 4.6-7 0-7h-115c-4.5 0-4.5 7 0 7zm0 31h115c4.6 0 4.6-7 0-7h-115c-4.5 0-4.5 7 0 7zm84.8-21.3h17.8c2 0 2-3 0-3h-17.8c-2 0-2 3 0 3zm-72.3 0h17.8c2 0 2-3 0-3h-17.8c-2 0-2 3 0 3zm72.3 31.3h17.8c2 0 2-3 0-3h-17.8c-2 0-2 3 0 3zm-72.3 0h17.8c2 0 2-3 0-3h-17.8c-2 0-2 3 0 3zm-12.5-88.6h115c2 0 2-3 0-3h-115c-1.9 0-1.9 3 0 3zm0-46h115c2 0 2-3 0-3h-115c-1.9 0-1.9 3 0 3z" fill="#fff"/><path d="M224 167.2v15c0 4.5 7 4.5 7 0v-15c0-4.6-7-4.6-7 0z" fill="#fff"/><path d="M230.7 167.2v15c0 4.5 7 4.5 7 0v-15c0-4.6-7-4.6-7 0z" fill="#fff"/></svg>