<svg xmlns="http://www.w3.org/2000/svg" width="361" height="361"><path d="M84 163l27 4c4 1 6-6 2-7l-27-4c-4-1-6 6-2 6zm0 9l27 5c5 0 6-6 2-7l-27-5c-4 0-6 6-2 7zm0 9l27 5c4 1 6-6 2-7l-27-4c-4-1-6 6-2 7zm6 11l15 2c5 1 6-6 2-7l-15-2c-4-1-6 6-2 6z" fill="#fff"/><path d="M121 137c0 7-6 13-14 13H89a14 14 0 0 1-13-13V88c0-7 6-14 13-14h18c8 0 14 6 14 14v49z" fill="none" stroke="#fff" stroke-width="10" stroke-miterlimit="10"/><path d="M198 112a2 2 0 0 1-2 2h-1a2 2 0 0 1-2-2v-1a2 2 0 0 1 2-2h1a2 2 0 0 1 2 2v1zm43 76a2 2 0 0 1-2 2h-1a2 2 0 0 1-2-2v-1a2 2 0 0 1 2-2h1a2 2 0 0 1 2 2v1zm-30-24a3 3 0 0 1-3 2h-2a3 3 0 0 1-2-2v-2a3 3 0 0 1 2-3h2a3 3 0 0 1 3 3v2zm53-26a3 3 0 0 1-3 2h-2a3 3 0 0 1-2-2v-2a3 3 0 0 1 2-3h2a3 3 0 0 1 3 3v2zm-33-34a3 3 0 0 1-3 3h-1a3 3 0 0 1-3-2v-2a3 3 0 0 1 2-3h2a3 3 0 0 1 3 3v1zm57 82a2 2 0 0 1-2 2h-1a2 2 0 0 1-2-2v-1a2 2 0 0 1 2-2h1a2 2 0 0 1 2 2v1zM216 73a2 2 0 0 1-2 2h-1a2 2 0 0 1-2-2v-1a2 2 0 0 1 2-2h1a2 2 0 0 1 2 2v1zm59 83a2 2 0 0 1-2 2h-1a2 2 0 0 1-2-2v-1a2 2 0 0 1 2-2h1a2 2 0 0 1 2 2v1zm-17-30l-2 1h-1a2 2 0 0 1-1-2l1-2h1l2 2zm-20 19a2 2 0 0 1-2 2h-1a2 2 0 0 1-2-2v-1a2 2 0 0 1 2-2h1a2 2 0 0 1 2 2v1zm20 70a2 2 0 0 1-2 2h-1a2 2 0 0 1-2-2v-1a2 2 0 0 1 2-2h1a2 2 0 0 1 2 2v1zm-60-70a2 2 0 0 1-2 2h-1a2 2 0 0 1-2-2v-1a2 2 0 0 1 2-2h1a2 2 0 0 1 2 2v1zm60 20a2 2 0 0 1-2 2h-1a2 2 0 0 1-2-2v-1a2 2 0 0 1 2-2h1a2 2 0 0 1 2 2v1zm0-80a2 2 0 0 1-2 2h-1a2 2 0 0 1-2-2v-1a2 2 0 0 1 2-2h1a2 2 0 0 1 2 2v1zm29 20a2 2 0 0 1-2 2h-1a2 2 0 0 1-2-2v-1c0-2 1-3 2-3h1c1 0 2 1 2 3v1zm-101 9l-1 2h-1a1 1 0 0 1-1-2l1-2h1l1 2zm26 122l2-2h1l1 2v1l-1 1h-1a2 2 0 0 1-2-1v-1zm52 25a3 3 0 0 1 3-3h1a3 3 0 0 1 3 3v1a3 3 0 0 1-3 3h-1a3 3 0 0 1-3-3v-1zm-60-13a4 4 0 0 1 4-4h2a4 4 0 0 1 3 4v1a4 4 0 0 1-3 4h-2a4 4 0 0 1-4-4v-1zm-18-21a2 2 0 0 1 2-2h1a2 2 0 0 1 2 2v1a2 2 0 0 1-2 2h-1a2 2 0 0 1-2-2v-1zm13 42a2 2 0 0 1 2-2h1a2 2 0 0 1 2 2v1a2 2 0 0 1-2 2h-1a2 2 0 0 1-2-2v-1zm38 11a2 2 0 0 1 2-2h1a2 2 0 0 1 2 2v1a2 2 0 0 1-2 2h-1a2 2 0 0 1-2-2v-1zm-20-70a2 2 0 0 1 2-2h1a2 2 0 0 1 2 2v1a2 2 0 0 1-2 2h-1a2 2 0 0 1-2-2v-1zm19 51a2 2 0 0 1 2-2h1a2 2 0 0 1 2 2v1a2 2 0 0 1-2 2h-1a2 2 0 0 1-2-2v-1zm37-54l1 2-1 2h-1l-2-2 2-2h1zm-9 39l1 1v1l-1 2h-1a1 1 0 0 1-1-2v-1l1-1h1zm19-21a2 2 0 0 1 2 2v1a2 2 0 0 1-2 2h-1a2 2 0 0 1-2-2v-1a2 2 0 0 1 2-2h1zm-109 57l2 1v1l-2 1a2 2 0 0 1-2-1v-1l2-1zm-20-10a4 4 0 0 1 3 3v2a4 4 0 0 1-3 4h-2a4 4 0 0 1-4-4v-2c0-2 2-3 4-3h2zm-2-18a2 2 0 0 1 2 2v1a2 2 0 0 1-2 2h-1a2 2 0 0 1-2-2v-1a2 2 0 0 1 2-2h1zm134 34a2 2 0 0 1 2-2h1a2 2 0 0 1 2 2v1a2 2 0 0 1-2 2h-1a2 2 0 0 1-2-2v-1zm-3-19a2 2 0 0 1 2-2h1a2 2 0 0 1 2 2v1a2 2 0 0 1-2 2h-1a2 2 0 0 1-2-2v-1z" fill="#fff"/></svg>