<svg xmlns="http://www.w3.org/2000/svg" width="361" height="361"><path d="M242 237l27 4c4 1 6-6 2-7l-27-4c-4-1-6 6-2 6zm0 9l27 5c5 0 6-6 2-7l-27-5c-4 0-6 6-2 7zm0 9l27 5c4 1 6-6 2-7l-27-4c-4-1-6 6-2 7zm6 11l15 2c5 1 6-6 2-7l-15-2c-4-1-6 6-2 6z" fill="#fff"/><path d="M279 211c0 7-6 13-14 13h-18a14 14 0 0 1-14-13v-49c1-7 7-14 14-14h18c8 0 14 7 14 14v49z" fill="none" stroke="#fff" stroke-width="10" stroke-miterlimit="10"/><path d="M201 150v134c0 9 15 9 15 0V150c0-10-15-10-15 0zM78 85h207c9 0 9-15 0-15H78c-9 0-9 15 0 15zm168 37l-35-34c-3-3-8 1-5 5l35 34c3 3 8-2 5-5z" fill="#fff"/><path d="M207 88l-100 99-1 1c-3 3 2 8 5 5l100-99 1-1c3-4-2-9-5-5zm56 34l-35-34c-3-3-8 2-5 5l35 34c3 3 8-2 5-5z" fill="#fff"/><path d="M224 88l-100 99-1 1c-3 3 2 8 5 5l100-99 1-1c3-4-2-9-5-5z" fill="#fff"/><g fill="#fff"><path d="M228 121l-35-34c-3-3-8 2-5 5l35 34c3 3 8-2 5-5z"/><path d="M189 87L89 186l-1 1c-3 3 2 8 5 5l100-99 1-1c3-4-2-9-5-5z"/></g></svg>