<svg xmlns="http://www.w3.org/2000/svg" width="361" height="361"><path d="M84 163.5l26.8 4.6c4.5.7 6.3-6 1.9-6.8l-26.8-4.5c-4.4-.8-6.3 6-1.8 6.7zm.4 9.6l26.7 4.6c4.4.8 6.3-6 1.9-6.8l-26.8-4.5c-4.4-.8-6.3 6-1.8 6.7zm0 9.4L111 187c4.4.8 6.3-6 1.9-6.7l-26.8-4.6c-4.4-.7-6.3 6-1.8 6.8zm5.7 10l15 2.5c4.4.8 6.3-6 1.8-6.8l-15-2.5c-4.4-.8-6.3 6-1.8 6.7z" fill="#fff"/><path d="M121 137.6c0 7.5-6 13.6-13.6 13.6H89.2a13.7 13.7 0 0 1-13.7-13.6V89c0-7.5 6.1-13.7 13.7-13.7h18.2c7.5 0 13.6 6.2 13.6 13.7v48.6z" fill="none" stroke="#fff" stroke-width="10" stroke-miterlimit="10"/><path d="M258.4 286.5a5.2 5.2 0 0 0-5.1-5.2h-44.6a5.2 5.2 0 1 0 0 10.4h44.6a5.2 5.2 0 0 0 5.1-5.2z" fill="#fff"/><path d="M236 285.7v-99.3c0-6.4-10-6.4-10 0v99.3c0 6.4 10 6.4 10 0z" fill="#fff"/><path d="M180.3 186.4a51.2 51.2 0 0 1 50.7-50.7 51 51 0 0 1 50.7 50.7l5-5H175.3c-6.5 0-6.5 10 0 10h111.4a5 5 0 0 0 5-5c1.2-33.3-28.5-60.3-60.7-60.7a61.2 61.2 0 0 0-60.7 60.7c0 6.5 10 6.5 10 0z" fill="#fff"/></svg>