<svg xmlns="http://www.w3.org/2000/svg" width="361" height="361"><path d="M77 291h40c10 0 10-15 0-15H77c-9 0-9 15 0 15zm34-22h40c9 0 9-15 0-15h-40c-10 0-10 15 0 15zm33-22h40c10 0 10-15 0-15h-40c-9 0-9 15 1 15zm34-22h40c10 0 10-15 0-15h-40c-10 0-10 15 0 15zm34-22h40c9 0 9-15 0-15h-40c-10 0-10 15 0 15zm33-22h40c10 0 10-15 0-15h-40c-9 0-9 15 0 15zM84 163l27 4c4 1 6-6 2-7l-27-4c-5-1-6 6-2 6zm0 9l27 5c4 0 6-6 2-7l-27-5c-4 0-6 6-2 7zm0 9l27 5c4 1 6-6 2-7l-27-4c-4-1-6 6-2 7zm6 11l15 2c4 1 6-6 2-7l-15-2c-5-1-7 6-2 6z" fill="#fff"/><path d="M121 137c0 7-6 13-14 13H89a14 14 0 0 1-13-13V88c0-7 6-14 13-14h18c8 0 14 6 14 14v49z" fill="none" stroke="#fff" stroke-width="10" stroke-miterlimit="10"/></svg>