<svg xmlns="http://www.w3.org/2000/svg" width="361" height="361"><path d="M84 163l27 4c4 1 6-6 2-7l-27-4c-4-1-6 6-2 6zm0 9l27 5c5 0 6-6 2-7l-27-5c-4 0-6 6-2 7zm0 9l27 5c4 1 6-6 2-7l-27-4c-4-1-6 6-2 7zm6 11l15 2c5 1 6-6 2-7l-15-2c-4-1-6 6-2 6z" fill="#fff"/><path d="M121 137c0 7-6 13-14 13H89a14 14 0 0 1-13-13V88c0-7 6-14 13-14h18c8 0 14 6 14 14v49z" fill="none" stroke="#fff" stroke-width="10" stroke-miterlimit="10"/><path d="M136 253l24 29c3 3 7-2 5-5l-24-29c-3-3-8 2-5 5z" fill="#fff"/><path d="M156 274l-11 9c-2 2-3 3-5 0l-5-6-5-6c-1-1 0-3 2-4l11-10c3-3-2-7-5-5l-13 11c-7 6 1 14 5 19 5 6 10 13 18 8l13-11c3-3-2-7-5-5zm113 17c0-10 0-21 5-30 3-4 8-6 12-9 1-2-1-4-2-3-5 4-9 6-13 11-5 9-5 21-5 31 0 2 3 2 3 0z" fill="#fff"/><path d="M262 291c0-10 0-22 7-29 4-5 11-7 17-10 1-1 0-4-2-3-6 4-13 6-18 11-7 8-7 21-8 31 0 2 3 2 3 0zm17 0c0-6 0-15 4-20 1-2 3-2 3-4 1-2-2-2-3 0l-4 3c-3 6-3 14-3 21 0 2 3 2 3 0z" fill="#fff"/><path d="M274 291c1-5 1-12 4-17 2-3 6-4 8-6 1-2-1-4-2-2-3 2-6 3-8 6-4 5-4 13-5 18 0 2 3 3 3 1zm-20 0c0-8 2-21-6-26-1-1-3 2-1 3l2 2c2 7 2 14 2 21 0 2 3 2 3 0z" fill="#fff"/><path d="M261 290c-1-5-1-13-4-18-2-3-6-4-9-7-1-1-3 1-1 2l7 6 2 5 3 13c0 2 3 1 3-1zm32-106c0 3-2 5-5 5h-61a5 5 0 0 1-5-5v-32c0-3 2-5 5-5h61a5 5 0 0 1 5 5v32z" fill="#fff"/><path d="M277 162a4 4 0 0 1-3 3h-48a4 4 0 0 1-3-3v-22a4 4 0 0 1 3-3h47a4 4 0 0 1 4 3v22z" fill="#fff"/><path d="M265 158a7 7 0 0 1-7 7h-11a7 7 0 0 1-7-7v-22a7 7 0 0 1 7-7h11a7 7 0 0 1 7 7v22zm-30 23c0 4-3 8-7 8h-17c-4 0-7-4-7-8v-21c0-4 3-7 7-7h18c3 0 6 3 6 7v21zm-6 26a5 5 0 0 1-6 6h-13a5 5 0 0 1-5-6 5 5 0 0 1 5-5h13a5 5 0 0 1 6 5z" fill="#fff"/><path d="M271 198a5 5 0 0 1-5 5h-59a5 5 0 0 1-5-5v-7a5 5 0 0 1 5-5h59a5 5 0 0 1 5 5v7z" fill="#fff"/><path d="M287 209c0 2-2 3-4 3h-26c-2 0-4-1-4-3v-35c0-2 2-3 4-3h26c2 0 3 1 3 3v35z" fill="#fff"/><path d="M277 222c0 3-3 5-6 5h-48c-3 0-5-2-5-5v-8c0-3 2-6 5-6h48c3 0 6 3 6 6v8zm-51-21l11 47" fill="#fff"/><path d="M221 203l11 47c2 6 12 3 10-3l-11-47c-2-6-11-4-10 3zm17 32l18-17" fill="#fff"/><path d="M242 239l17-17c5-5-2-12-7-7l-17 17c-5 4 2 11 7 7zm22-24l-14 45" fill="#fff"/><path d="M260 213l-14 45c-2 7 7 9 9 3l14-45c2-6-8-9-10-3zm-21 74l-2-37m7 37l-2-37c0-6-10-6-10 0l2 37c1 7 11 7 10 0z" fill="#fff"/><path fill="#fff" d="M247 287l3-28m2 28l3-28c0-7-10-7-10 0l-3 28c0 7 10 6 10 0zm-30 3c0-8 1-16-2-22-1-4-4-6-7-9-1-1-3 1-2 2 3 3 5 4 6 7 3 6 3 15 3 22 0 2 3 2 3 0z"/><path d="M228 290c0-8 0-16-4-23-2-4-7-5-11-8-2-1-3 2-2 3 4 2 8 3 10 7 4 5 4 14 4 21 0 2 3 2 3 0zm-12 0c0-5 0-11-2-16a8 8 0 0 0-2-2l-1-1c0-2-3-2-3 0l2 4c4 3 3 10 3 15 0 2 3 2 3 0z" fill="#fff"/><path d="M220 289c-1-4-1-10-4-13-1-3-4-4-6-6-1-1-3 1-2 2l6 5 1 3 2 10c0 2 3 1 3-1zm12 1c0-4 0-10 3-14 1-1 2-1 2-3 1-2-2-2-3 0 0-1 0 0 0 0a8 8 0 0 0-2 3c-3 3-3 9-3 14 0 2 3 2 3 0z" fill="#fff"/><path d="M228 290c1-3 1-9 3-12l6-4c1-1-1-3-2-2l-6 4c-3 4-3 9-4 13 0 2 3 3 3 1zm-45-57l-21 18c-3 2 2 7 5 5l21-18c3-2-2-7-5-5zm13 15l-25 10c-4 2-2 8 2 7l25-11c4-1 2-8-2-6zm-26-28l-15 23c-2 4 4 7 6 4l15-23c3-4-3-7-6-4z" fill="#fff"/></svg>