<svg xmlns="http://www.w3.org/2000/svg" width="361" height="361"><path d="M84 162.5l26.8 4.6c4.5.7 6.3-6 1.9-6.8l-26.8-4.5c-4.4-.8-6.3 6-1.8 6.7zm.4 9.6l26.7 4.6c4.4.8 6.3-6 1.9-6.8l-26.8-4.5c-4.4-.8-6.3 6-1.8 6.7zm0 9.4L111 186c4.4.8 6.3-6 1.9-6.7l-26.8-4.6c-4.4-.7-6.3 6-1.8 6.8zm5.7 10l15 2.5c4.4.8 6.3-6 1.8-6.8l-15-2.5c-4.4-.8-6.3 6-1.8 6.7z" fill="#fff"/><path d="M121 136.6c0 7.5-6 13.6-13.6 13.6H89.2a13.7 13.7 0 0 1-13.7-13.6V88c0-7.5 6.1-13.7 13.7-13.7h18.2c7.5 0 13.6 6.2 13.6 13.7v48.6z" fill="none" stroke="#fff" stroke-width="10" stroke-miterlimit="10"/><path d="M165.6 138.2v11.1c0 2 3 2 3 0v-11.2c0-1.9-3-1.9-3 0zm-17.6 8.4l8 7.9c1.3 1.4 3.4-.8 2-2.1l-7.8-8c-1.4-1.3-3.5.8-2.2 2.2zm-7.3 18.4h11.1c2 0 2-3 0-3h-11.2c-1.9 0-1.9 3 0 3zm151.1 116.7h-38.1v-8.5h38.1V253h-121v-83.9h121v-10h-121a10 10 0 0 0-10 10v94a10 10 0 0 0 10 10.1h63.6v8.5h-42c-6.4 0-6.4 10 0 10h99.4v-10zM140.7 270h11.2c1.9 0 1.9-3 0-3h-11.2c-2 0-2 3 0 3zm9.4 17.6l8-7.9c1.3-1.4-.8-3.5-2.2-2.1l-7.9 7.9c-1.4 1.4.8 3.5 2.1 2.1zm18.5 2.7v-6.5c0-2-3-2-3 0v6.5c0 1.9 3 1.9 3 0zm68.3-150.7l-8 8c-1.3 1.3.8 3.4 2.2 2l7.9-7.9c1.4-1.3-.7-3.5-2.1-2zm-17-2.2v11.2c0 2 3 2 3 0v-11.2c0-2-3-2-3 0zm-16.1 4.3l7.9 8c1.3 1.3 3.5-.8 2-2.2l-7.8-7.9c-1.4-1.4-3.5.8-2.1 2.1zM143 200l7.9 8c1.4 1.3 3.5-.8 2.1-2.2l-7.9-8c-1.3-1.3-3.5.8-2.1 2.2zm-2.2 17H152c2 0 2-3 0-3h-11.2c-2 0-2 3 0 3zm4.3 16.1l8-7.8c1.3-1.4-.8-3.6-2.2-2.2l-7.9 8c-1.4 1.3.8 3.4 2.1 2zm141.1-95.8v11.2c0 2 3 2 3 0v-11.2c0-2-3-2-3 0zm-16.1 4.3l7.9 8c1.3 1.3 3.4-.8 2-2.2l-7.8-7.9c-1.4-1.4-3.5.8-2.1 2.1z" fill="#fff"/></svg>