<svg xmlns="http://www.w3.org/2000/svg" width="361" height="361"><path d="M84 163l27 4c4 1 6-6 2-7l-27-4c-4-1-6 6-2 6zm0 9l27 5c5 0 6-6 2-7l-27-5c-4 0-6 6-2 7zm0 9l27 5c4 1 6-6 2-7l-27-4c-4-1-6 6-2 7zm6 11l15 2c5 1 6-6 2-7l-15-2c-4-1-6 6-2 6z" fill="#fff"/><path d="M121 137c0 7-6 13-14 13H89a14 14 0 0 1-13-13V88c0-7 6-14 13-14h18c8 0 14 6 14 14v49zm166 145a5 5 0 0 1-5 5H147a5 5 0 0 1-4-5v-87a5 5 0 0 1 4-5h135c3 0 5 3 5 5v87z" fill="none" stroke="#fff" stroke-width="10" stroke-miterlimit="10"/><path d="M210 244h9c3 0 5-2 5-5s-2-5-5-5h-9a5 5 0 0 0 0 10z" fill="#fff"/><path fill="none" stroke="#fff" stroke-width="10" stroke-miterlimit="10" d="M215 191v94m72-91c0 1-2 3-4 3H147c-3 0-5-2-5-3v-7c0-1 2-3 4-3h137c2 0 4 2 4 3v7z"/></svg>