<svg xmlns="http://www.w3.org/2000/svg" width="361" height="361"><path d="M84 162.5l26.8 4.6c4.5.7 6.3-6 1.9-6.8l-26.8-4.5c-4.4-.8-6.3 6-1.8 6.7zm.4 9.6l26.7 4.6c4.4.8 6.3-6 1.9-6.8l-26.8-4.5c-4.4-.8-6.3 6-1.8 6.7zm0 9.4L111 186c4.4.8 6.3-6 1.9-6.7l-26.8-4.6c-4.4-.7-6.3 6-1.8 6.8zm5.7 10l15 2.5c4.4.8 6.3-6 1.8-6.8l-15-2.5c-4.4-.8-6.3 6-1.8 6.7z" fill="#fff"/><path d="M121 136.6c0 7.5-6 13.6-13.6 13.6H89.2a13.7 13.7 0 0 1-13.7-13.6V88c0-7.5 6.1-13.7 13.7-13.7h18.2c7.5 0 13.6 6.2 13.6 13.7v48.6z" fill="none" stroke="#fff" stroke-width="10" stroke-miterlimit="10"/><path d="M134.3 206.8a69.2 69.2 0 0 1 16.4-2c4.2 0 8 .4 11.4 1.4 3.3 1 6.3 2.5 8.7 4.6a20.8 20.8 0 0 1 5.6 8.1 32 32 0 0 1 2 12c0 5.8-1.1 10.5-3.3 14a21.5 21.5 0 0 1-9 8.3 83 83 0 0 1 3.6 6.6 196.4 196.4 0 0 1 4.6 9.2 277 277 0 0 1 4.6 10.3 131 131 0 0 1 3.8 10.2h-11c-.8-2.5-2-5.2-3.2-8.3a266 266 0 0 0-4.2-9.1 298 298 0 0 0-4.3-8.7 176.4 176.4 0 0 0-3.9-7 59.7 59.7 0 0 1-4 .3 69 69 0 0 1-4 0H145v32.8h-10.7v-82.7zm10.7 41h4.6c5.6 0 9.8-1.2 12.8-3.8 3-2.5 4.5-6.9 4.5-13.1 0-3.2-.4-5.8-1.2-8a12.1 12.1 0 0 0-3.2-5 12.9 12.9 0 0 0-5.1-2.8 24 24 0 0 0-6.6-.8c-2.1 0-4 .1-5.8.4v33.1zm39.2-.3c0-8 .8-14.7 2.2-20.2 1.5-5.6 3.5-10.1 6.2-13.7s6-6 9.8-7.6a33.7 33.7 0 0 1 13-2.3c3.6 0 6.9.5 9.9 1.5a29.2 29.2 0 0 1 7.2 3.4l-3.4 9.1a29 29 0 0 0-6-3.2 20.6 20.6 0 0 0-7.5-1.3c-7 0-12 2.9-15.1 8.5s-4.6 14.3-4.6 25.8c0 6.1.4 11.3 1.3 15.7a34 34 0 0 0 4 10.7 16.4 16.4 0 0 0 6.2 6 17 17 0 0 0 8 2c2.6 0 4.7-.3 6.5-.9v-32.8h10.9v39.5a38.2 38.2 0 0 1-8.1 2.6 46.2 46.2 0 0 1-10.2 1.1c-4.4 0-8.4-.9-12.1-2.6a25.5 25.5 0 0 1-9.6-8 39.8 39.8 0 0 1-6.3-13.7c-1.5-5.5-2.3-12-2.3-19.6zm60-40.7a86.1 86.1 0 0 1 8.7-1.5 71.7 71.7 0 0 1 8.8-.5c3.6 0 7 .3 10.3 1 3.3.7 6.2 1.8 8.7 3.5a18.4 18.4 0 0 1 8.2 16.6c0 5-1 9.1-3.1 12.3a19.3 19.3 0 0 1-8.1 7 24 24 0 0 1 10.1 7.5 21 21 0 0 1 4 13.7c0 4.3-.7 8-2 11a19 19 0 0 1-6 7.3c-2.7 1.9-5.7 3.3-9.3 4.1s-7.6 1.3-11.8 1.3a84.9 84.9 0 0 1-8.9-.5 110.1 110.1 0 0 1-9.5-1.5v-81.3zm11 34.5h7.5c10 0 15-4.5 15-13.6 0-2.8-.4-5.1-1.3-7a10.8 10.8 0 0 0-3.3-4.1c-1.4-1-3-1.8-4.8-2.2a26.5 26.5 0 0 0-5.8-.6 58 58 0 0 0-3.6.2 55.4 55.4 0 0 0-3.7.3v27zm0 8.7v30.3a82 82 0 0 0 9 .8 27 27 0 0 0 6.3-.7 14 14 0 0 0 5.3-2.4 11.2 11.2 0 0 0 3.5-4.7 18.6 18.6 0 0 0 1.3-7.3c0-5-1.4-9-4-11.7-2.8-2.9-7-4.3-12.7-4.3h-8.7z" fill="#fff"/></svg>