<svg xmlns="http://www.w3.org/2000/svg" width="361" height="361"><path d="M226 232h53c7 0 7-10 0-10h-53c-6 0-6 10 0 10z" fill="#fff"/><path d="M249 227v42c0 6 10 6 10 0v-42c0-6-10-6-10 0z" fill="#fff"/><path d="M254 266l-31 11c-4 2-2 8 2 7l31-11c4-2 2-8-2-7z" fill="#fff"/><path d="M253 273l31 11c4 1 6-5 2-7l-31-11c-4-1-6 5-2 7zm25-128l-6 48c-1 6 9 6 10 0l6-48c1-7-9-7-10 0z" fill="#fff"/><path d="M272 195l2 19c1 7 11 7 10 0l-2-19c-1-7-11-7-10 0zm7-78l3 15c1 6 11 4 9-3a81018 81018 0 0 0-3-15c-1-6-11-3-10 3zm-43 88h32c5 0 5-7 0-7h-32c-4 0-4 7 0 7z" fill="#fff"/><path d="M257 202l1 25c0 2 3 2 3 0l-1-25c0-2-3-2-3 0zm-33 83h-1c-2 0-4 1-4 3s2 4 4 4h1c2 0 4-2 4-4s-2-3-4-3zm61 0h-1c-2 0-4 1-4 3s2 4 4 4h2c2 0 3-2 3-4s-2-3-3-3z" fill="#fff"/><g fill="#fff"><path d="M126 208h86c6 0 6-10 0-10h-86c-6 0-6 10 0 10z"/><path d="M149 206v79c0 6 10 6 10 0v-79c0-7-10-7-10 0zm-23 0v79c0 6 10 6 10 0v-79c0-7-10-7-10 0z"/><path d="M126 292h56c6 0 6-10 0-10h-56c-6 0-6 10 0 10z"/></g><path d="M84 163l27 4c4 1 6-6 2-7l-27-4c-4-1-6 6-2 6zm0 9l27 5c5 0 6-6 2-7l-27-5c-4 0-6 6-2 7zm0 9l27 5c4 1 6-6 2-7l-27-4c-4-1-6 6-2 7zm6 11l15 2c5 1 6-6 2-7l-15-2c-4-1-6 6-2 6z" fill="#fff"/><path d="M121 137c0 7-6 13-14 13H89a14 14 0 0 1-13-13V88c0-7 6-14 13-14h18c8 0 14 6 14 14v49z" fill="none" stroke="#fff" stroke-width="10" stroke-miterlimit="10"/></svg>