<svg xmlns="http://www.w3.org/2000/svg" width="361" height="361"><path d="M83.8 163l26.8 4.6c4.4.7 6.3-6 1.9-6.8l-26.8-4.5c-4.4-.8-6.3 6-1.9 6.7zm.3 9.6l26.8 4.6c4.4.8 6.3-6 1.8-6.8L86 166c-4.4-.8-6.3 6-1.9 6.7zm0 9.4l26.8 4.5c4.4.8 6.3-6 1.8-6.7L86 175.2c-4.4-.7-6.3 6-1.9 6.8zm5.7 10l15 2.5c4.4.8 6.3-6 1.9-6.8l-15-2.5c-4.4-.8-6.3 6-1.9 6.7z" fill="#fff"/><path d="M120.8 137c0 7.6-6.1 13.7-13.7 13.7H89a13.7 13.7 0 0 1-13.7-13.6V88.5c0-7.5 6.2-13.7 13.7-13.7h18.2c7.6 0 13.7 6.2 13.7 13.7v48.6z" fill="none" stroke="#fff" stroke-width="10" stroke-miterlimit="10"/><path d="M231.7 144.2l35-3.3-4.3-2.4 20.1 29 6.8-6.9-55-25.7c-5.9-2.7-11 5.9-5.1 8.6l55.1 25.7c4.1 2 10-2.3 6.8-6.8l-20-29c-1-1.4-2.6-2.6-4.4-2.5l-35 3.3c-6.4.6-6.4 10.6 0 10z" fill="#fff"/><path d="M254 151.5L243.5 172c-2.9 5.7 5.7 10.8 8.6 5l10.4-20.6c2.8-5.7-5.8-10.8-8.7-5zm-67.7-7l28.6 81.6c2.1 6 11.8 3.5 9.6-2.6L196 141.8c-2.1-6-11.8-3.5-9.6 2.6z" fill="#fff"/><path d="M263.6 132l-13.9 10.2c-2.2 1.6-3.3 4.4-1.8 6.9 1.3 2.2 4.6 3.4 6.8 1.8l14-10.2c2.2-1.6 3.2-4.3 1.8-6.8-1.3-2.2-4.7-3.4-6.9-1.8z" fill="#fff"/><path d="M273.1 155.8l-.7-15.6c-.2-6.4-10.2-6.5-10 0l.8 15.6c.2 6.4 10.2 6.4 10 0zm-51.2 78l-35.6-61.6-4.3 7.5h71.1l-4.3-7.5-35.5 61.6c-3.3 5.6 5.4 10.6 8.6 5l35.5-61.6a5 5 0 0 0-4.3-7.5h-71a5 5 0 0 0-4.4 7.5l35.6 61.6c3.2 5.6 11.8.6 8.6-5zm31.2 47.9h-71l1.3 9.8L201 288l11.7-2.2 4.3-.8c2-.4 2.1.2-1-.3l35.8 6.7c6.3 1.2 9-8.5 2.7-9.7l-35.9-6.7c-2.3-.4-4.9.4-7.1.9l-12.2 2.3-18.6 3.5c-5.6 1.1-4.2 9.9 1.4 9.9h71c6.5 0 6.5-10 0-10z" fill="#fff"/><path d="M212.5 234.1v43.8c0 6.4 10 6.4 10 0V234c0-6.5-10-6.5-10 0zm-19.4-97.4l-35.2-27c-5.2-4-10.1 4.7-5 8.5l35.2 27.1c5 4 10-4.7 5-8.6z" fill="#fff"/></svg>