<svg xmlns="http://www.w3.org/2000/svg" width="361" height="361"><path d="M83.8 163l26.8 4.6c4.4.7 6.3-6 1.9-6.8l-26.8-4.5c-4.4-.8-6.3 6-1.9 6.7zm.3 9.6l26.8 4.6c4.4.8 6.3-6 1.8-6.8L86 166c-4.4-.8-6.3 6-1.9 6.7zm0 9.4l26.8 4.5c4.4.8 6.3-6 1.8-6.7L86 175.2c-4.4-.7-6.3 6-1.9 6.8zm5.7 10l15 2.5c4.4.8 6.3-6 1.9-6.8l-15-2.5c-4.4-.8-6.3 6-1.9 6.7z" fill="#fff"/><path d="M120.8 137c0 7.6-6.1 13.7-13.7 13.7H89a13.7 13.7 0 0 1-13.7-13.6V88.5c0-7.5 6.2-13.7 13.7-13.7h18.2c7.6 0 13.7 6.2 13.7 13.7v48.6z" fill="none" stroke="#fff" stroke-width="10" stroke-miterlimit="10"/><g fill="none" stroke="#fff" stroke-width="10" stroke-linecap="round" stroke-miterlimit="10"><path d="M286.3 286.6c0-38.8-39.6-70.2-88.3-70.2-48.8 0-88.4 31.4-88.4 70.2"/><path d="M266.2 286.6c0-30-30.6-54.2-68.2-54.2-37.7 0-68.3 24.3-68.3 54.2m-20 0h20m136.7 0h20"/></g><path d="M206.9 219.5a4.9 4.9 0 0 1-4.9 5h-8.2a4.9 4.9 0 0 1-5-5v-24.7a4.9 4.9 0 0 1 5-4.9h8.2a4.9 4.9 0 0 1 4.9 4.9v24.7z" fill="#fff"/><ellipse cx="197.9" cy="181.5" rx="7.4" ry="18.4" fill="none" stroke="#fff" stroke-width="7" stroke-miterlimit="10"/><path d="M247.2 228a4.9 4.9 0 0 1-4.9 5h-8.2a4.9 4.9 0 0 1-4.9-5v-24.7a4.9 4.9 0 0 1 4.9-4.9h8.2a4.9 4.9 0 0 1 5 4.9V228z" fill="#fff"/><ellipse cx="238.2" cy="190" rx="7.4" ry="18.4" fill="none" stroke="#fff" stroke-width="7" stroke-miterlimit="10"/><path d="M282.5 258a4.9 4.9 0 0 1-4.9 4.8h-8.2a4.9 4.9 0 0 1-4.9-4.9v-24.7a4.9 4.9 0 0 1 4.9-5h8.2a4.9 4.9 0 0 1 5 5v24.7z" fill="#fff"/><ellipse cx="273.5" cy="219.9" rx="7.4" ry="18.4" fill="none" stroke="#fff" stroke-width="7" stroke-miterlimit="10"/><path d="M148.6 227.3a4.9 4.9 0 0 0 4.9 4.9h8.2a4.9 4.9 0 0 0 4.9-5v-24.6a4.9 4.9 0 0 0-4.9-5h-8.2a4.9 4.9 0 0 0-5 5v24.7z" fill="#fff"/><ellipse cx="157.6" cy="189.3" rx="7.4" ry="18.4" fill="none" stroke="#fff" stroke-width="7" stroke-miterlimit="10"/><path d="M113.3 258a4.9 4.9 0 0 0 4.8 4.8h8.3a4.9 4.9 0 0 0 4.9-4.9v-24.7a4.9 4.9 0 0 0-5-5h-8.2a4.9 4.9 0 0 0-4.8 5v24.7z" fill="#fff"/><ellipse cx="122.3" cy="219.9" rx="7.4" ry="18.4" fill="none" stroke="#fff" stroke-width="7" stroke-miterlimit="10"/></svg>