<svg xmlns="http://www.w3.org/2000/svg" width="361" height="361"><path d="M160 264v-53c0-3-1-8-5-10-5-2-10-2-14-2s-10 0-14 2c-6 2-5 10-5 15 0 7 10 7 10 0v-5c0-2-1-2 1-2h16l1 1v54c0 7 10 7 10 0z" fill="#fff"/><path d="M180 241v-53c0-5-1-8-5-11-3-2-10-1-14-1s-11-1-14 1c-5 4-5 9-5 16 0 6 10 6 10 0 0-3-1-7 1-7h17s0-1 0 0v55c0 6 10 6 10 0z" fill="#fff"/><path d="M118 266l40-56c2-4 6-5 9-5 2 0 6-1 4 3h-1l-6 10-27 38-21 30c-1 2 1 3 2 2l43-61 10-14 4-8c-2-6-14-2-17 0l-7 9-35 51c-1 2 1 3 2 2z" fill="#fff"/><g fill="#fff"><path d="M192 286a44 44 0 0 0-18 0l-15 3-14-2a45 45 0 0 0-19-1c-2 1-1 3 1 3 11-2 21 3 32 3l13-2a45 45 0 0 1 19-1c2 0 3-2 1-3z"/><path d="M176 289c12-2 21 3 33 3l13-2a45 45 0 0 1 19-1c2 0 2-2 0-3a44 44 0 0 0-17 0l-15 3-15-2a45 45 0 0 0-19-1c-1 1 0 3 1 3z"/><path d="M226 289c11-2 21 3 32 3l13-2a45 45 0 0 1 19-1c2 0 3-2 1-3h-18l-15 3-14-2a45 45 0 0 0-19-1c-2 1-1 3 1 3z"/></g><g fill="#fff"><path d="M204 272a44 44 0 0 0-18 1l-15 2-14-2a45 45 0 0 0-19-1c-2 1-1 4 1 3 11-2 21 3 32 3l13-2a45 45 0 0 1 19-1c2 1 3-2 1-3z"/><path d="M188 275c12-2 21 3 32 3l13-2a45 45 0 0 1 20-1c2 1 2-2 0-3a44 44 0 0 0-17 1l-16 2-14-2a45 45 0 0 0-19-1c-2 1-1 4 1 3z"/><path d="M238 275c9-2 17 1 25 2 10 2 18-1 27-2 2-1 2-4 0-3l-11 2a40 40 0 0 1-17 0c-9-2-16-3-25-2-2 1-1 4 1 3z"/></g><g fill="#fff"><path d="M211 259a48 48 0 0 0-21 0c-6 2-12 3-19 2-2-1-3 2-1 3 7 1 13 0 20-1a44 44 0 0 1 20-1c2 0 3-3 1-3z"/><path d="M195 261c11-2 21 3 32 3 4 1 9-1 13-2a45 45 0 0 1 19-1c2 1 3-2 1-2a44 44 0 0 0-18 0l-15 2c-5 1-10-1-14-2a45 45 0 0 0-19-1c-2 1-1 4 1 3z"/><path d="M244 261c9-1 16 1 24 2 8 2 15 1 23-1 2-1 1-4-1-3l-11 2c-4 1-9 0-13-1a53 53 0 0 0-23-1c-1 0-1 3 1 3z"/></g><g fill="#fff"><path d="M248 214a44 44 0 0 0-17 0c-5 1-10 3-16 3l-14-2a45 45 0 0 0-19-1c-2 0-1 3 1 3 12-2 21 3 32 3l13-2a45 45 0 0 1 20-1c1 0 2-3 0-3z"/><path d="M233 217c10-2 19 1 29 3 9 1 18-4 27-4 2 0 2-3 0-3-10 0-19 5-29 4-10-2-18-5-28-3-2 1-1 3 1 3z"/><path d="M282 217l8-1c2 0 2-3 0-3l-9 1c-2 0-1 3 1 3z"/></g><g fill="#fff"><path d="M237 228a55 55 0 0 0-24 2c-9 2-16 1-26-1-2 0-2 3 0 3 7 1 15 3 22 2 9-2 17-5 27-3 2 0 2-3 1-3z"/><path d="M221 231c11-2 21 3 32 3l13-2a45 45 0 0 1 19-1c2 0 3-2 1-3a44 44 0 0 0-18 0l-15 3-14-2a45 45 0 0 0-19-1c-2 0-1 3 1 3z"/><path d="M270 231c7-1 13 0 20 1 2 1 3-2 1-3a50 50 0 0 0-22-1c-1 0-1 3 1 3z"/></g><g fill="#fff"><path d="M226 243a49 49 0 0 0-21 1 42 42 0 0 1-20 1c-2-1-3 2-1 3 14 3 27-5 41-2 2 0 2-3 1-3z"/><path d="M210 246c11-2 21 3 32 3l13-2a45 45 0 0 1 19-1c2 0 3-3 1-3a44 44 0 0 0-18 0l-15 3c-5 0-9-2-14-3a45 45 0 0 0-19 0c-2 0-1 3 1 3z"/><path d="M259 246a42 42 0 0 1 18 1l13 2c2 0 2-3 0-3l-14-3a44 44 0 0 0-17 0c-2 0-2 3 0 3z"/></g><path d="M84 163l27 5c4 0 6-6 1-7l-26-5c-5-1-7 6-2 7zm0 10l27 4c4 1 6-6 2-7l-27-4c-4-1-6 6-2 7zm0 9l27 5c4 0 6-6 2-7l-27-5c-4-1-6 6-2 7zm6 10l15 3c4 0 6-6 2-7l-15-3c-5-1-7 6-2 7z" fill="#fff"/><path d="M121 137c0 8-6 14-14 14H89a14 14 0 0 1-14-14V89c0-8 6-14 14-14h18c8 0 14 6 14 13v49z" fill="none" stroke="#fff" stroke-width="10" stroke-miterlimit="10"/></svg>