<svg xmlns="http://www.w3.org/2000/svg" width="361" height="361"><path d="M84 162.5l26.8 4.6c4.5.7 6.3-6 1.9-6.8l-26.8-4.5c-4.4-.8-6.3 6-1.8 6.7zm.4 9.6l26.7 4.6c4.4.8 6.3-6 1.9-6.8l-26.8-4.5c-4.4-.8-6.3 6-1.8 6.7zm0 9.4L111 186c4.4.8 6.3-6 1.9-6.7l-26.8-4.6c-4.4-.7-6.3 6-1.8 6.8zm5.7 10l15 2.5c4.4.8 6.3-6 1.8-6.8l-15-2.5c-4.4-.8-6.3 6-1.8 6.7z" fill="#fff"/><path d="M121 136.6c0 7.5-6 13.6-13.6 13.6H89.2a13.7 13.7 0 0 1-13.7-13.6V88c0-7.5 6.1-13.7 13.7-13.7h18.2c7.5 0 13.6 6.2 13.6 13.7v48.6z" fill="none" stroke="#fff" stroke-width="10" stroke-miterlimit="10"/><path d="M169.4 231.2c-5.5-.6-4.1-7.6-4.1-11V137c0-3-.8-7.8 4.5-7.8h111.5c2.9 0 7 .3 7 4.5v92.7c0 7.4-16 4.8-20 4.8h-98.9c-2 0-2 3 0 3H279c2.7 0 5.5.2 8-.6 4.2-1.4 4.3-5.5 4.3-9v-82.8c0-6.8 1.3-15.6-8.2-15.6H171c-4.5 0-8.1 1.7-8.7 6.6-.3 2.5 0 5.3 0 7.8v78c0 6.3-1.5 14.6 7.1 15.6 2 .2 2-2.8 0-3z" fill="#fff"/><path d="M176 187.2l26.3-18.7c1.5-1.1 0-3.8-1.6-2.6l-26.2 18.7c-1.5 1 0 3.7 1.6 2.6z" fill="#fff"/><path d="M175 225.6c-5.2-.6-3.7-8.5-3.7-11.6v-76.5c0-4.3 7-3.3 9.2-3.3h97c4.6 0 4.7 3.7 4.7 6.8v79.3c0 7.1-9 5.3-13.6 5.3h-93.7c-1.9 0-1.9 3 0 3h103.2c9.7 0 7-13.2 7-19.5v-65.7c0-3 .5-6.3-.8-9.2-1.6-3.4-6-3-9.2-3h-97.8c-4.1 0-8.2.9-8.9 5.7-.4 2.7 0 5.6 0 8.3v77c0 4 3 6 6.6 6.4 1.9.2 1.9-2.8 0-3z" fill="#fff"/><path d="M200.4 168.2l17.9 18c1.3 1.4 3.4-.7 2-2l-17.7-18c-1.4-1.5-3.5.6-2.2 2z" fill="#fff"/><path d="M220.4 186.2l18-14.8c1.5-1.2-.7-3.4-2.1-2.1l-18 14.8c-1.5 1.2.6 3.3 2 2.1z" fill="#fff"/><path d="M236 171.1l12 21.5c1 1.7 3.6.2 2.6-1.5l-12-21.5c-1-1.7-3.5-.2-2.6 1.5z" fill="#fff"/><path d="M250.6 192.6l13-19.8c1-1.7-1.5-3.2-2.6-1.6l-13 19.9c-1 1.6 1.6 3.1 2.6 1.5z" fill="#fff"/><path d="M261.3 173l13 16.1c1.2 1.5 3.3-.6 2-2l-13-16.2c-1.1-1.5-3.2.7-2 2.2zm-17-4.3H258c2 0 2-3 0-3h-13.7c-1.9 0-1.9 3 0 3zm6.9-5.8H276c2 0 2-3 0-3h-25c-1.9 0-1.9 3 0 3zm-7.9-5l24.4-.2c1.9 0 1.9-3 0-3l-24.4.1c-1.9 0-1.9 3 0 3zm5.2-3.9H279c2 0 2-3 0-3h-30.5c-2 0-2 3 0 3zm-37 5.8l-4.1-4.5c-1.3-1.5-3.4.7-2.1 2l4 4.6c1.4 1.4 3.5-.7 2.2-2.1zm12.4-2.8l.7-5.6c0-.9-.8-1.5-1.5-1.5-1 0-1.4.6-1.5 1.5l-.7 5.6c0 .8.8 1.5 1.5 1.5 1 0 1.4-.7 1.5-1.5zm10.4 7.1l4.6-2c.8-.3 1-1.4.6-2-.5-.8-1.3-.9-2-.6l-4.8 2c-.7.4-.9 1.4-.5 2 .5.9 1.3 1 2 .6z" fill="#fff"/><path d="M209.9 173.5c.7-13 19.8-13 20.5 0 0 2 3 2 3 0-1-16.8-25.6-16.8-26.5 0-.1 2 2.9 2 3 0zm-26 31.8H194c2 0 2-3 0-3h-10.2c-1.9 0-1.9 3 0 3zm0 4.5h27.3c1.9 0 1.9-3 0-3h-27.4c-1.9 0-1.9 3 0 3zm8 5h14.4c2 0 2-3 0-3h-14.5c-1.9 0-1.9 3 0 3zm23.4 2.2h11.5c1.9 0 1.9-3 0-3h-11.5c-1.9 0-1.9 3 0 3zm-15 4.3h10.9c1.9 0 1.9-3 0-3h-10.9c-1.9 0-1.9 3 0 3z" fill="#fff"/><path d="M174.6 198c2.2 1.3 4.4 1.3 7 1 4-.2 7.2.8 11 2 7.5 2.2 14.1-.6 21.5-.9 4.5-.1 7.5 2.8 11.3 4.7 3.6 2 8.3 3.1 8.8 7.8l.4 3.6c.2 3.7-5.5 4.3-8 4.6-1.9.1-7.4 1-9.2 0-1.6-.9-3.1 1.7-1.5 2.7 2.2 1.2 5.3.4 7.7.3 4.2-.1 8.4-.3 12-3 4.1-3.1 2-12.2-1.6-14.9-4-2.9-9.2-5-13.6-7.5-3.3-1.9-7.5-1.4-11-.9-6.3.9-11.2 2-17.5.1-2-.6-4.1-1.5-6.3-1.6-3-.1-6.8 1-9.5-.5-1.7-1-3.2 1.6-1.6 2.6zm-9.7-121h33.5c4.5 0 4.5-7 0-7H165c-4.5 0-4.5 7 0 7z" fill="#fff"/><path d="M188.6 76.4c-.4 2.4-5.2 1.4-6.8 1.4h-6.3c-1.4 0-.4-2 .4-2h5.3c1.5 0 7-1 7.4 1.4.3 2 3.2 1.1 2.9-.8-.8-4.8-6.8-3.6-10.3-3.6-3.3 0-9.7-1-9.7 4s6.4 4 9.7 4c3.5 0 9.5 1.2 10.3-3.6.3-1.9-2.6-2.7-3-.8zm-9.3 13.3v18.6c0 2 3 2 3 0V89.7c0-2-3-2-3 0zm8 .7l5.2 17.3c.6 1.9 3.5 1 3-.8L190 89.6c-.5-1.8-3.4-1-2.9.8zm-15.7-.8l-5.3 17.3c-.6 1.9 2.3 2.7 2.9.8l5.3-17.3c.5-1.9-2.4-2.6-3-.8z" fill="#fff"/><g fill="#fff"><path d="M254.8 77h33.5c4.5 0 4.5-7 0-7h-33.5c-4.5 0-4.5 7 0 7z"/><path d="M278.4 76.5c-.4 2.3-5.2 1.4-6.7 1.4h-6.3c-1.4 0-.4-2 .3-2h5.3c1.6 0 7-1 7.4 1.4.3 2 3.2 1.1 2.9-.8-.8-4.8-6.8-3.6-10.3-3.6-3.2 0-9.7-1-9.7 4s6.5 4 9.7 4c3.5 0 9.5 1.2 10.3-3.6.3-1.9-2.6-2.7-3-.8zm-9.2 13.2v18.7c0 2 3 2 3 0V89.7c0-1.9-3-1.9-3 0zm7.9.8l5.2 17.3c.6 1.9 3.5 1 3-.8l-5.4-17.3c-.5-1.9-3.4-1-2.8.8zm-15.7-.8L256 107c-.6 1.9 2.3 2.7 2.9.8l5.3-17.3c.5-1.9-2.4-2.7-3-.8z"/></g></svg>