<svg xmlns="http://www.w3.org/2000/svg" width="361" height="361"><path d="M163 229l1-132h56c2 0 3-1 3 2v130c0 5 7 5 7 0V96c-1-6-7-6-12-6h-56c-8 1-6 14-6 21v118c0 5 7 5 7 0z" fill="#fff"/><path d="M219 165h6c5 0 5-7 0-7h-6c-5 0-5 7 0 7zm-98 69h169c2 0 2-3 0-3H121c-2 0-2 3 0 3zm105-7h65c2 0 2-3 0-3h-65c-2 0-2 3 0 3zm-105 0h40c2 0 2-3 0-3h-40c-2 0-2 3 0 3zm32 26h110c2 0 2-3 0-3H153c-2 0-2 3 0 3zm8 39h116c2 0 2-3 0-3H161c-2 0-2 3 0 3zm-21-35h10c2 0 2-3 0-3h-10c-2 0-2 3 0 3z" fill="#fff"/><path d="M140 253h10c2 0 2-3 0-3h-10c-2 0-2 3 0 3zm2 13h10c2 0 2-3 0-3h-10c-2 0-2 3 0 3zm0-5h10c2 0 2-3 0-3h-10c-2 0-2 3 0 3zm0 13h10c2 0 2-3 0-3h-10c-2 0-2 3 0 3zm1-4h10c2 0 2-3 0-3h-10c-2 0-2 3 0 3zm2 13h10c2 0 2-3 0-3h-10c-2 0-2 3 0 3zm-2-4h10c2 0 2-3 0-3h-10c-2 0-2 3 0 3zm4 13h10c2 0 2-3 0-3h-10c-2 0-2 3 0 3zm-1-5h10c2 0 2-3 0-3h-10c-2 0-2 3 0 3zm123-30h10c2 0 2-3 0-3h-10c-2 0-2 3 0 3zm-2-4h10c2 0 2-3 0-3h-10c-2 0-2 3 0 3zm6 13h10c2 0 2-3 0-3h-10c-2 0-2 3 0 3zm-1-5h10c2 0 2-3 0-3h-10c-2 0-2 3 0 3zm4 13h10c2 0 2-3 0-3h-10c-2 0-2 3 0 3zm-2-4h10c2 0 2-3 0-3h-10c-2 0-2 3 0 3zm5 13h10c2 0 2-3 0-3h-10c-2 0-2 3 0 3zm-2-4h10c2 0 2-3 0-3h-10c-2 0-2 3 0 3zm4 13h10c2 0 2-3 0-3h-10c-2 0-2 3 0 3zm-1-5h10c2 0 2-3 0-3h-10c-2 0-2 3 0 3zM157 72h134c2 0 2-3 0-3H157c-2 0-2 3 0 3zm-73 91l27 5c4 0 6-6 2-7l-27-5c-5 0-6 6-2 7zm0 10l27 4c4 1 6-6 2-6l-27-5c-4-1-6 6-2 7zm0 9l27 5c4 0 6-6 2-7l-27-5c-4 0-6 6-2 7zm6 10l15 3c4 0 6-6 2-7l-15-3c-5 0-7 6-2 7z" fill="#fff"/><path d="M121 137c0 8-6 14-14 14H89a14 14 0 0 1-13-14V89c0-8 6-14 13-14h18c8 0 14 6 14 14v48z" fill="none" stroke="#fff" stroke-width="10" stroke-miterlimit="10"/></svg>