<svg xmlns="http://www.w3.org/2000/svg" width="361" height="361"><path d="M84 163.2l26.8 4.6c4.5.7 6.3-6 1.9-6.8l-26.8-4.6c-4.4-.7-6.3 6-1.8 6.8zm.4 9.6l26.7 4.6c4.4.7 6.3-6 1.9-6.8l-26.8-4.5c-4.4-.8-6.3 6-1.8 6.7zm0 9.3l26.7 4.6c4.4.8 6.3-6 1.9-6.7l-26.8-4.6c-4.4-.8-6.3 6-1.8 6.7zm5.7 10l15 2.6c4.4.7 6.3-6 1.8-6.8l-15-2.5c-4.4-.8-6.3 6-1.8 6.7z" fill="#fff"/><path d="M121 137.3c0 7.5-6 13.6-13.6 13.6H89.2a13.7 13.7 0 0 1-13.7-13.7V88.8C75.5 81 81.6 75 89.2 75h18.2c7.5 0 13.6 6.1 13.6 13.7v48.6z" fill="none" stroke="#fff" stroke-width="10" stroke-miterlimit="10"/><path d="M168.9 288.6c0-5.2.2-10.9-1.6-15.8-1-2.6-3-4.2-5-6-1.5-1.2-3.7 1-2.2 2.2 1.7 1.4 3.3 2.5 4.3 4.5 2 4.3 1.5 10.4 1.5 15 0 2 3 2 3 0z" fill="#fff"/><path d="M172.7 288.6c0-5.3 0-11.2-2.7-15.9-1.8-3-5.2-4.4-8-6-1.7-1-3.3 1.5-1.6 2.5 2.3 1.3 5 2.4 6.6 4.6 3 3.9 2.6 10.2 2.7 14.7 0 2 3 2 3 0zm-10.2 0c0-4.6-.1-9.8-2.4-14a7.5 7.5 0 0 0-2.1-2.2 12.2 12.2 0 0 0-.9-.6c-.4-.3-.1-.3 0 .2-.3-1.9-3.3-1.9-3 0 .1 1.7 1.3 2 2.4 3 3.4 3 3 9.7 3 13.6 0 1.9 3 1.9 3 0z" fill="#fff"/><path d="M166.2 288.1c-.7-3.9-1.1-9-3.5-12.4-1.5-2-4.2-3-6.1-4.7-1.4-1.3-3.6.8-2.1 2.1 1.7 1.5 3.8 2.5 5.4 4 .9.8 1.2 2 1.5 3.1.9 2.9 1.4 5.8 2 8.7.3 2 3.1 1.1 2.8-.8zm9.3.5c0-2.7-.3-7 1.8-9.2.7-.8 1.9-1 2-2.5.2-2-2.8-2-3 0 .1-.8.6-.9-.3-.3a6.4 6.4 0 0 0-1.6 1.7c-2 2.8-1.9 7-2 10.3 0 2 3 2 3 0z" fill="#fff"/><path d="M172.7 289c.5-2.3.6-6.2 2.2-8 1-1.3 2.8-2 4-3 1.4-1.4-.7-3.5-2.1-2.2-1.3 1.1-3 1.8-4.2 3.2-2 2.4-2.2 6.3-2.8 9.2-.3 2 2.6 2.7 3 .8zm106.8.8c0-5.8-.1-12.5 3.2-17.5 1.5-2.4 4.4-3.7 6.5-5.5 1.5-1.3-.6-3.4-2.1-2.1-2.6 2.1-5.5 3.7-7.4 6.6-3.3 5.1-3.2 12.6-3.2 18.5 0 2 3 2 3 0z" fill="#fff"/><path d="M275 289.8c0-6 .1-13 4.6-17.5 2.5-2.5 6.3-3.6 9.3-5.3 1.7-1 .2-3.5-1.5-2.6-3.8 2.2-8 3.5-10.9 6.9-4.3 4.8-4.5 12.4-4.5 18.5 0 2 3 2 3 0zm12.4-.2c0-3.4-.4-8.6 2-11.4.9-1 2.1-1.2 2.3-2.8.2-2-2.8-2-3 0 0-.7.2-.5-.5 0a7.1 7.1 0 0 0-1.7 1.9c-2.2 3.4-2.1 8.4-2.1 12.3 0 2 3 2 3 0z" fill="#fff"/><path d="M284.3 290c.6-3.1.7-7.3 2.5-10 1-1.4 3.2-2.4 4.4-3.6 1.4-1.3-.7-3.4-2.1-2-1.5 1.3-3.5 2.2-4.7 3.8-2.2 3-2.4 7.6-3 11-.3 1.9 2.6 2.7 3 .8zm-16-.3c0-5 1-12.6-3.5-15.8-1.6-1.1-3.1 1.5-1.5 2.6.7.5.7.2 1 1.1 1.4 3.7 1 8.2 1 12 0 2 3 2 3 0z" fill="#fff"/><path d="M272.9 289.3c-.6-3.5-.8-8-2.9-11-1.1-1.8-3.4-2.7-5-4.2-1.3-1.3-3.4.8-2 2.1 1.3 1.3 3 2.2 4.4 3.5.6.7.8 1.9 1 2.7.8 2.5 1.2 5.1 1.6 7.7.3 1.9 3.2 1 3-.8zm-120-.3c0-4.9.2-10.3-1.6-15-.9-2.5-2.8-4-4.8-5.7-1.5-1.3-3.6.8-2.1 2.1s3 2.5 4 4.3c2 4.1 1.4 10 1.4 14.3 0 2 3 2 3 0z" fill="#fff"/><path d="M156.5 289c0-5 0-10.6-2.6-15.1-1.7-3-5-4.3-7.7-5.9-1.7-1-3.2 1.7-1.5 2.6 2.1 1.3 4.7 2.3 6.3 4.4 2.8 3.7 2.4 9.7 2.5 14 0 2 3 2 3 0zm-9.8 0c0-4.2-.1-9-2-12.8a6.6 6.6 0 0 0-1.8-2.1c-.6-.6-.9-1-.8-.3-.2-2-3.2-2-3 0 .2 1.5 1.2 1.9 2.2 2.8 2.8 2.8 2.3 9 2.3 12.4 0 2 3 2 3 0z" fill="#fff"/><path d="M149.8 288.6c-.7-3.6-1-8.3-3-11.5-1.2-1.8-3.6-2.8-5.1-4.4-1.4-1.3-3.5.8-2.1 2.2 1.4 1.3 3.2 2.3 4.5 3.7.7.7 1 1.9 1.2 2.8.7 2.6 1.1 5.4 1.5 8 .4 2 3.3 1.1 3-.8z" fill="#fff"/><path d="M70.8 292h219c2 0 2-3 0-3h-219c-1.9 0-1.9 3 0 3z" fill="#fff"/><path d="M130.4 290c0-4.4.2-9.2-1.3-13.4-.9-2.3-2.6-3.6-4.4-5.1-1.4-1.3-3.6.8-2 2 1.3 1.2 2.7 2.2 3.5 3.9 1.7 3.6 1.2 8.7 1.2 12.5 0 2 3 2 3 0z" fill="#fff"/><path d="M133.6 290c0-4.5 0-9.6-2.3-13.5-1.5-2.6-4.4-3.8-6.9-5.3-1.6-1-3.2 1.7-1.5 2.6 2 1.1 4.2 2 5.5 3.8 2.5 3.2 2.2 8.5 2.2 12.3 0 2 3 2 3 0zm-8 0c0-3.2 0-6.6-1.5-9.4a5 5 0 0 0-1.2-1.6 10.6 10.6 0 0 0-.8-.5l.3.6c-.2-2-3.2-2-3 0 .1 1.2 1.1 1.8 1.6 2.3 2 1.8 1.6 6.2 1.6 8.5 0 2 3 2 3 0z" fill="#fff"/><path d="M127.8 289.5c-.4-2.6-.6-6-2.1-8.3-1-1.3-2.6-2-3.8-3.2-1.3-1.3-3.5.8-2 2.1 1 1 2.3 1.8 3.2 2.7.3.3.5 1.2.7 1.8.5 1.9.8 3.8 1.1 5.7.3 2 3.2 1.1 3-.8zm10.2.5c0-2.2-.2-5.8 1.5-7.6.5-.6 1.6-1 1.8-2.3.2-2-2.8-2-3 0 0-.7.6-1-.2-.4a5.7 5.7 0 0 0-1.5 1.5c-1.6 2.4-1.6 6-1.6 8.8 0 2 3 2 3 0z" fill="#fff"/><path d="M135.7 290.4c.3-1.9.5-5.2 1.7-6.7.7-.9 2.4-1.7 3.4-2.6 1.4-1.3-.7-3.4-2.1-2-1 .9-2.6 1.5-3.5 2.6-1.7 2-2 5.4-2.4 7.9-.4 1.9 2.5 2.7 2.9.8z" fill="#fff"/><circle cx="219.8" cy="229.5" r="54" fill="#fff"/><path d="M268.8 229.5a49.7 49.7 0 0 1-38.1 47.8 49.5 49.5 0 0 1-55.2-26.9 49.4 49.4 0 0 1 14.5-59.9 49.6 49.6 0 0 1 61.6 1.7c11 9.3 17 23 17.2 37.3.1 6.4 10.1 6.5 10 0a59.8 59.8 0 0 0-33-53 59.3 59.3 0 0 0-62.8 7 59.8 59.8 0 0 0-20.6 59.5 59.4 59.4 0 0 0 44 44c36.7 9 72-20.4 72.4-57.5.1-6.5-9.9-6.4-10 0z" fill="#fff"/><path d="M200.9 288.6h37.9c4.5 0 4.5-7 0-7h-37.9c-4.5 0-4.5 7 0 7z" fill="#fff"/></svg>