<svg xmlns="http://www.w3.org/2000/svg" width="361" height="361"><path d="M84 162.5l26.8 4.6c4.5.7 6.3-6 1.9-6.8l-26.8-4.5c-4.4-.8-6.3 6-1.8 6.7zm.4 9.6l26.7 4.6c4.4.8 6.3-6 1.9-6.8l-26.8-4.5c-4.4-.8-6.3 6-1.8 6.7zm0 9.4L111 186c4.4.8 6.3-6 1.9-6.7l-26.8-4.6c-4.4-.7-6.3 6-1.8 6.8zm5.7 10l15 2.5c4.4.8 6.3-6 1.8-6.8l-15-2.5c-4.4-.8-6.3 6-1.8 6.7z" fill="#fff"/><path d="M121 136.6c0 7.5-6 13.6-13.6 13.6H89.2a13.7 13.7 0 0 1-13.7-13.6V88c0-7.5 6.1-13.7 13.7-13.7h18.2c7.5 0 13.6 6.2 13.6 13.7v48.6z" fill="none" stroke="#fff" stroke-width="10" stroke-miterlimit="10"/><path d="M289.4 72.3L202 159.6A13408792.8 13408792.8 0 0 1 72.8 288.9c-1.4 1.4.7 3.5 2.1 2.1l87.2-87.2L281.4 84.6l10-10.1c1.4-1.4-.7-3.5-2-2.2zm0 50.2l-99.9 99.8-66 66.1c-1.4 1.4.7 3.5 2 2.2l99.9-99.9 66-66c1.4-1.4-.7-3.6-2-2.2zm1.8-28.6l-1.6-1.6-1.2-1.2c-.4-.4-.5-.3-.2-.6 1-1.2 2.2-2.3 3.3-3.4 1.4-1.4-.7-3.5-2-2.1-1.4 1.3-4.5 3.4-4.5 5.6 0 2.2 2.6 4 4 5.4 1.5 1.4 3.6-.7 2.2-2z" fill="#fff"/><path d="M287 92.3l-1.4 1.4a1.5 1.5 0 0 0 0 2.2 1.5 1.5 0 0 0 2 0l1.5-1.5a1.5 1.5 0 0 0 0-2.1 1.5 1.5 0 0 0-2.1 0zm-26 45.6c-1.2.8-3.6-2.7-4.6-3.7l-5.7-5.6c-.6-.7 2.6-3.2 3.2-3.9l5.7-5.6c.5-.6 9 8.4 10.2 9.7.3.2-8.1 8.3-9.1 9.3-1.4 1.4.8 3.5 2.1 2.2l7.4-7.4c1.5-1.6 4-4 1.9-6.1l-7.7-7.7c-2-2-3.7-4.4-6.6-2.5-2.6 1.8-5 5-7.2 7.1-1.5 1.6-4.8 4.2-2.4 6.6l7.2 7.2c2 2 4 5 7.1 3 1.6-1 .1-3.7-1.5-2.6z" fill="#fff"/><path d="M249.4 129.8l-1.4 1.5a1.5 1.5 0 0 0 0 2.1 1.5 1.5 0 0 0 2.1 0l1.5-1.4a1.5 1.5 0 0 0 0-2.2 1.5 1.5 0 0 0-2.2 0zm7.4 7.4l-1.5 1.4a1.5 1.5 0 0 0 0 2.2 1.5 1.5 0 0 0 2.1 0l1.5-1.5a1.5 1.5 0 0 0 0-2.1 1.5 1.5 0 0 0-2.1 0zm5.9-20.6l-1.5 1.5a1.5 1.5 0 0 0 0 2 1.5 1.5 0 0 0 2.2 0l1.4-1.4a1.5 1.5 0 0 0 0-2 1.5 1.5 0 0 0-2.1 0zm7.3 7.3l-1.4 1.5a1.5 1.5 0 0 0 0 2.1 1.5 1.5 0 0 0 2 0l1.5-1.4a1.5 1.5 0 0 0 0-2.2 1.5 1.5 0 0 0-2 0zm-46.6 51.6c-1.1.7-3.6-2.7-4.6-3.7l-5.6-5.7c-.7-.6 2.5-3.1 3.1-3.8l5.7-5.7c.6-.5 9 8.5 10.3 9.8.2.2-8.2 8.3-9.2 9.3-1.3 1.4.8 3.5 2.1 2.1l7.4-7.4c1.6-1.5 4.1-3.9 2-6l-7.8-7.8c-2-2-3.6-4.3-6.5-2.4-2.7 1.8-5 4.9-7.2 7.1-1.6 1.6-4.8 4.2-2.5 6.6l7.2 7.2c2.1 2 4 5 7.1 3 1.7-1 .2-3.7-1.5-2.6z" fill="#fff"/><path d="M211.8 167.4l-1.4 1.5a1.5 1.5 0 0 0 0 2 1.5 1.5 0 0 0 2.1 0l1.5-1.3a1.5 1.5 0 0 0 0-2.2 1.5 1.5 0 0 0-2.1 0zm7.4 7.4l-1.4 1.4a1.5 1.5 0 0 0 0 2.1 1.5 1.5 0 0 0 2 0l1.5-1.4a1.5 1.5 0 0 0 0-2.1 1.5 1.5 0 0 0-2.1 0zm5.9-20.6l-1.4 1.4a1.5 1.5 0 0 0 0 2.1 1.5 1.5 0 0 0 2 0l1.5-1.4a1.5 1.5 0 0 0 0-2.1 1.5 1.5 0 0 0-2.1 0zm7.3 7.3L231 163a1.5 1.5 0 0 0 0 2 1.5 1.5 0 0 0 2.1 0l1.5-1.4a1.5 1.5 0 0 0 0-2 1.5 1.5 0 0 0-2.2 0zM185.8 213c-1.1.8-3.6-2.6-4.6-3.6l-5.6-5.7c-.7-.6 2.5-3.2 3.2-3.8l5.7-5.7c.5-.5 9 8.5 10.2 9.7.2.2-8.1 8.4-9.1 9.4-1.4 1.4.7 3.5 2 2.1l7.5-7.4c1.5-1.5 4-3.9 1.9-6l-7.8-7.8c-2-2-3.6-4.3-6.5-2.4-2.7 1.7-5 4.9-7.2 7.1-1.5 1.5-4.8 4.2-2.5 6.5l7.3 7.3c2 2 4 5 7 3 1.7-1.1.2-3.7-1.5-2.7z" fill="#fff"/><path d="M174.3 205l-1.5 1.4a1.5 1.5 0 0 0 0 2.2 1.5 1.5 0 0 0 2.2 0l1.4-1.5a1.5 1.5 0 0 0 0-2.1 1.5 1.5 0 0 0-2.1 0zm7.3 7.3l-1.4 1.5a1.5 1.5 0 0 0 0 2.1 1.5 1.5 0 0 0 2.1 0l1.4-1.4c.6-.6.6-1.6 0-2.2s-1.5-.5-2 0zm6-20.5l-1.5 1.4c-.6.6-.6 1.5 0 2.1s1.5.6 2.1 0l1.5-1.4c.5-.6.5-1.6 0-2.2s-1.6-.5-2.2 0zm7.3 7.3l-1.5 1.4a1.5 1.5 0 0 0 0 2.2 1.5 1.5 0 0 0 2.2 0l1.4-1.5c.6-.6.6-1.5 0-2.1s-1.5-.6-2.1 0zm-46.6 51.5c-1.2.8-3.6-2.6-4.7-3.7l-5.6-5.6c-.7-.7 2.5-3.2 3.2-3.8l5.7-5.7c.5-.6 9 8.4 10.2 9.7.2.2-8.1 8.3-9.1 9.4-1.4 1.3.7 3.4 2.1 2l7.4-7.3c1.5-1.5 4-4 1.9-6l-7.7-7.8c-2-2-3.7-4.3-6.6-2.4-2.7 1.7-5 4.8-7.2 7-1.5 1.6-4.8 4.3-2.4 6.6l7.2 7.2c2 2 4 5 7.1 3 1.6-1 .1-3.6-1.5-2.6z" fill="#fff"/><path d="M136.7 242.6l-1.4 1.4a1.5 1.5 0 0 0 0 2.1 1.5 1.5 0 0 0 2 0l1.5-1.4a1.5 1.5 0 0 0 0-2.1 1.5 1.5 0 0 0-2 0zm7.4 7.3l-1.5 1.4a1.5 1.5 0 0 0 0 2.2 1.5 1.5 0 0 0 2.1 0l1.5-1.5a1.5 1.5 0 0 0 0-2 1.5 1.5 0 0 0-2.1 0zm5.9-20.6l-1.5 1.5a1.5 1.5 0 0 0 0 2 1.5 1.5 0 0 0 2.1 0l1.5-1.4a1.5 1.5 0 0 0 0-2 1.5 1.5 0 0 0-2.1 0zm7.3 7.4l-1.4 1.4a1.5 1.5 0 0 0 0 2.1 1.5 1.5 0 0 0 2 0l1.5-1.4a1.5 1.5 0 0 0 0-2.1 1.5 1.5 0 0 0-2.1 0z" fill="#fff"/><g fill="#fff"><path d="M110.7 288.2c-1.2.8-3.6-2.7-4.6-3.7l-5.7-5.6c-.6-.7 2.6-3.2 3.2-3.9l5.7-5.7c.5-.5 9 8.5 10.2 9.8.3.2-8 8.3-9 9.3-1.5 1.4.7 3.5 2 2.1l7.4-7.3c1.5-1.6 4-4 2-6.1l-7.8-7.7c-2-2-3.7-4.4-6.6-2.5-2.6 1.8-4.9 4.9-7.1 7.1-1.6 1.6-4.8 4.2-2.5 6.6l7.2 7.2c2 2 4 5 7.1 3 1.6-1 .1-3.7-1.5-2.6z"/><path d="M99.1 280.1l-1.4 1.5a1.5 1.5 0 0 0 0 2.1 1.5 1.5 0 0 0 2.1 0l1.5-1.4a1.5 1.5 0 0 0 0-2.2 1.5 1.5 0 0 0-2.2 0zm7.4 7.4l-1.5 1.4a1.5 1.5 0 0 0 0 2.1 1.5 1.5 0 0 0 2.2 0l1.4-1.4a1.5 1.5 0 0 0 0-2.1 1.5 1.5 0 0 0-2.1 0zm5.9-20.6l-1.4 1.4a1.5 1.5 0 0 0 0 2.2 1.5 1.5 0 0 0 2 0l1.5-1.5a1.5 1.5 0 0 0 0-2.1 1.5 1.5 0 0 0-2.1 0zm7.3 7.3l-1.4 1.5a1.5 1.5 0 0 0 0 2 1.5 1.5 0 0 0 2.1 0l1.4-1.4a1.5 1.5 0 0 0 0-2 1.5 1.5 0 0 0-2 0z"/></g><path d="M275 108.7l5 5c1.5 1.4 3.6-.8 2.2-2.1l-5-5c-1.4-1.4-3.5.7-2.2 2zm-76 76l5 5c1.5 1.4 3.6-.8 2.2-2.1l-5-5c-1.4-1.4-3.5.7-2.2 2zm-75 75l5 5.1c1.3 1.4 3.5-.7 2-2.1l-5-5c-1.3-1.4-3.5.7-2 2z" fill="#fff"/></svg>