<svg xmlns="http://www.w3.org/2000/svg" width="361" height="361"><path d="M84 164l27 4c4 1 6-6 2-7l-27-4c-4-1-6 6-2 6zm0 9l27 5c5 0 6-6 2-7l-27-5c-4 0-6 6-2 7zm0 9l27 5c4 1 6-6 2-7l-27-4c-4-1-6 6-2 7zm6 11l15 2c5 1 6-6 2-7l-15-2c-4-1-6 6-2 6z" fill="#fff"/><path d="M121 138c0 7-6 13-14 13H89a14 14 0 0 1-13-13V89c0-7 6-14 13-14h18c8 0 14 6 14 14v49z" fill="none" stroke="#fff" stroke-width="10" stroke-miterlimit="10"/><g fill="#fff"><path d="M205 75a5 5 0 0 1-5 5h-15a5 5 0 1 1 0-10h15a5 5 0 0 1 5 5z" stroke="#fff" stroke-miterlimit="10"/><path d="M187 83v125c0 7 10 7 10 0V83c0-7-10-7-10 0z"/><path d="M100 272l95-61h-5l94 61 3-10H97c-6 0-6 10 0 10h190c5 0 6-6 2-9l-95-60a5 5 0 0 0-5 0l-94 60c-6 4-1 12 5 9z"/><path d="M210 273c0 5-3 11-9 11h-17c-7 0-10-6-10-12 0-4-7-4-7 1 0 7 4 14 11 17 4 2 9 1 14 1s10 1 14-1c7-3 11-10 11-18 0-4-7-4-7 1z"/></g></svg>