<svg xmlns="http://www.w3.org/2000/svg" width="361" height="361"><path d="M84 163l27 5c4 0 6-6 2-7l-27-5c-4 0-6 6-2 7zm0 10l27 4c5 1 6-6 2-6l-27-5c-4-1-6 6-2 7zm0 9l27 5c5 0 6-6 2-7l-27-5c-4 0-6 6-2 7zm6 10l15 3c5 0 6-6 2-7l-15-3c-4 0-6 6-2 7z" fill="#fff"/><path d="M121 137c0 8-6 14-14 14H89a14 14 0 0 1-13-14V89c0-8 6-14 13-14h18c8 0 14 6 14 14v48z" fill="none" stroke="#fff" stroke-width="10" stroke-miterlimit="10"/><path d="M156 289c0-6 0-11-2-16-1-3-3-4-5-6-1-1-3 1-2 2l4 5c2 4 2 10 2 15 0 2 3 2 3 0z" fill="#fff"/><path d="M160 289c0-6 0-12-3-16-2-3-5-5-8-6-2-1-3 1-2 2l7 5c3 4 3 10 3 15 0 2 3 2 3 0zm-11 0c1-5 0-10-2-14a8 8 0 0 0-2-3 12 12 0 0 0-1 0c0-2-3-2-3 0s1 2 2 3c4 3 4 10 4 14 0 2 3 2 3 0z" fill="#fff"/><path d="M153 288c-1-4-1-9-3-12l-6-5c-2-1-4 1-3 2l6 4 1 3 2 9c1 2 4 1 3-1zm9 1c1-3 0-7 2-10l2-2c1-2-2-2-3 0 0-1 1-1 0 0a6 6 0 0 0-2 1c-2 3-1 7-2 11 0 2 3 2 3 0z" fill="#fff"/><path d="M160 289c0-2 0-6 2-8l4-3c1-1-1-3-2-2l-4 3c-2 2-3 6-3 9-1 2 2 3 3 1zm121 1c1-6 0-13 4-18l6-5c2-1 0-4-2-2l-7 6c-4 5-4 13-4 19 1 2 4 2 4 0z" fill="#fff"/><path d="M277 290c0-6 0-13 5-18l9-5c2-1 0-3-2-3-3 3-8 4-10 7-5 5-5 13-5 19 0 2 3 2 3 0zm10 0c0-4 0-9 2-12l3-3c0-2-3-2-3 0h-1a7 7 0 0 0-2 2c-2 4-2 9-2 13 0 2 3 2 3 0z" fill="#fff"/><path d="M284 290c1-3 1-7 3-10l4-4c2-1-1-3-2-2l-5 4c-2 3-2 8-3 11 0 2 3 3 3 1zm-12 0c0-5 1-13-3-16-2-1-3 1-2 2l1 2c2 3 1 8 1 12 0 2 3 2 3 0z" fill="#fff"/><path d="M277 289c-1-3-1-8-3-11l-5-4c-1-1-3 1-2 2l4 4 1 2 2 8c0 2 3 1 3-1zm-137 0c0-5 0-10-2-15l-5-6c-1-1-3 1-2 2l4 5c2 4 2 10 2 14 0 2 3 2 3 0z" fill="#fff"/><path d="M144 289c0-5 0-11-3-15-2-3-5-4-8-6-1-1-3 2-1 3l6 4c3 4 2 10 3 14 0 2 3 2 3 0zm-10 0c0-4 0-9-2-13a7 7 0 0 0-2-2h-1c0-2-3-2-3 0l2 3c3 2 3 9 3 12 0 2 3 2 3 0z" fill="#fff"/><path d="M137 289c-1-4-1-9-3-12l-5-4c-2-2-4 1-2 2l4 4 1 2 2 8c0 2 3 2 3 0z" fill="#fff"/><path d="M71 292h219c2 0 2-3 0-3H71c-2 0-2 3 0 3z" fill="#fff"/><path d="M117 290c0-4 1-9-1-13-1-3-2-4-4-5-2-2-4 0-2 2l3 3c2 4 1 9 1 13 0 2 3 2 3 0z" fill="#fff"/><path d="M121 290c0-4 0-10-3-13-1-3-4-4-7-6-1-1-3 2-1 3l5 4c3 3 3 8 3 12 0 2 3 2 3 0zm-8 0c0-3 0-7-2-9a5 5 0 0 0-1-2 11 11 0 0 0-1 0c0-2-3-2-3 0l2 2c2 2 2 7 2 9s3 2 3 0z" fill="#fff"/><path d="M115 290l-2-9-4-3c-1-1-4 1-2 2l3 3 1 2 1 5c0 2 3 1 3 0zm10 0c0-2 0-6 2-8l1-2c0-2-3-2-3 0 0-1 1-1 0 0a6 6 0 0 0-1 1c-2 3-2 6-2 9 0 2 3 2 3 0z" fill="#fff"/><path d="M123 290l1-6 4-3c1-1-1-3-2-2l-4 3-2 8c-1 1 2 2 3 0zm51-90a5 5 0 0 1 4-5h77a5 5 0 0 1 5 5v77a5 5 0 0 1-5 5h-77a5 5 0 0 1-4-5v-77z" fill="#fff"/><path d="M179 200h76v77h-77v-77c0-7-10-7-10 0v73c0 5 1 10 6 13l11 1h65c4 0 9 0 12-3 3-4 3-8 3-12v-65c0-3 1-8-1-11-2-6-8-6-13-6h-69c-7 0-12 2-14 10 0 6 10 6 10 0z" fill="#fff"/><path d="M189 289h55c2 0 2-3 0-3h-55c-2 0-2 3 0 3z" fill="#fff"/></svg>