<svg xmlns="http://www.w3.org/2000/svg" width="361" height="361"><path d="M83.8 260.4l26.8 4.6c4.4.7 6.3-6 1.9-6.8l-26.8-4.5c-4.4-.8-6.3 6-1.9 6.7zm.3 9.6l26.8 4.6c4.4.8 6.3-6 1.8-6.8L86 263.4c-4.4-.8-6.3 6-1.9 6.7zm0 9.4L111 284c4.4.7 6.3-6 1.8-6.8L86 272.6c-4.4-.7-6.3 6-1.9 6.8zm5.7 10l15 2.5c4.4.8 6.3-6 1.9-6.7l-15-2.6c-4.4-.8-6.3 6-1.9 6.8z" fill="#fff"/><path d="M120.8 234.5c0 7.5-6.1 13.6-13.7 13.6H89a13.7 13.7 0 0 1-13.7-13.6v-48.6c0-7.5 6.2-13.7 13.7-13.7h18.2c7.6 0 13.7 6.2 13.7 13.7v48.6z" fill="none" stroke="#fff" stroke-width="10" stroke-miterlimit="10"/><path d="M95.1 88.2h-16c-3 0-3.5-11.4.7-11.4h202.4c3.6 0 3.4 11.4.3 11.4H267c-4.5 0-4.5 7 0 7 5.5 0 11.3.5 16.8-.1 8.5-1 8.3-11.2 7.5-17.6-1-9-11-7.7-17.3-7.7H81c-3.3 0-6.1.5-8.6 3-4.3 4.3-3.1 16.3.8 20.2 2.7 2.7 7 2.2 10.6 2.2H95c4.5 0 4.5-7 0-7z" fill="#fff"/><path d="M223.5 88.2h-20c-4.6 0-4.6 7 0 7h20c4.5 0 4.5-7 0-7zm-17.7 127.9h10.7v76.2h-10.7v-76.2zm66.9 44.3a275.6 275.6 0 0 1 4.4 5.8 154 154 0 0 1 5.6 8 229.2 229.2 0 0 1 5.7 9 92 92 0 0 1 4.7 9.1h-11.6a170.8 170.8 0 0 0-4.8-8.4 186.8 186.8 0 0 0-5.2-8.2 168 168 0 0 0-5.3-7.3 187.8 187.8 0 0 0-4.6-6l-3 .1H246v29.8h-10.6v-75.1a60 60 0 0 1 10-1.5c3.7-.2 7.1-.4 10.2-.4a42 42 0 0 1 24.5 6c5.6 4.1 8.4 10.1 8.4 18.1 0 5-1.3 9.4-4 13a23.6 23.6 0 0 1-11.8 8zm-16.2-35.7c-4.5 0-8 0-10.4.3v28.7h7.6c3.6 0 7-.2 9.9-.5 2.9-.4 5.3-1 7.4-2.1a11.2 11.2 0 0 0 4.6-4.4c1.1-1.8 1.7-4.3 1.7-7.4 0-2.9-.6-5.2-1.7-7.1a12.2 12.2 0 0 0-4.4-4.5 19.5 19.5 0 0 0-6.6-2.4 47.3 47.3 0 0 0-8.1-.6z" fill="#fff"/><path d="M264.8 88.3c-.6 3-5.5 1.9-7.5 1.9h-26c-3.8 0-5.3-.2-5.3-4.8 0-3.4 19.2-1.7 21.4-1.7H260c3.8 0 4.8.8 4.8 5 0 1.9 3 1.9 3 0 0-3.6 0-8-4.9-8h-31.6c-3.5 0-7.4-.4-8.3 4-.7 3.7.3 8.5 4.8 8.5h31.6c3.6 0 7.4.3 8.3-4.1.4-2-2.5-2.7-2.9-.8zm-63.8 0c-.6 3-5.5 1.9-7.5 1.9h-26c-3.8 0-5.3-.2-5.3-4.8 0-3.4 19.2-1.7 21.4-1.7h12.6c3.8 0 4.8.8 4.8 5 0 1.9 3 1.9 3 0 0-3.6 0-8-4.9-8h-31.6c-3.5 0-7.4-.4-8.2 4-.8 3.7.2 8.5 4.7 8.5h31.6c3.6 0 7.4.3 8.3-4.1.4-2-2.5-2.7-2.9-.8zm-63.8 0c-.6 3-5.5 1.9-7.5 1.9h-26c-3.8 0-5.3-.2-5.3-4.8 0-3.4 19.2-1.7 21.4-1.7h12.7c3.7 0 4.7.8 4.7 5 0 1.9 3 1.9 3 0 0-3.6 0-8-4.8-8h-31.6c-3.6 0-7.4-.4-8.3 4-.8 3.7.2 8.5 4.7 8.5h31.6c3.6 0 7.4.3 8.3-4.1.4-2-2.5-2.7-2.9-.8z" fill="#fff"/><path d="M160.5 88.2h-20c-4.5 0-4.5 7 0 7h20c4.5 0 4.5-7 0-7zm76.2 52c-2.3-2-4.8-4.8-5.1-8-.3-3 3.1-6.4 5.2-8.3 6.5-5.8 9-13.6 4-21.3-2.5-3.7-8.6-.2-6 3.5 3.3 5 1.3 8.8-2.7 12.6a38.5 38.5 0 0 0-5 5.9c-5 7.2-1.3 15.3 4.6 20.6 3.4 3 8.4-2 5-5z" fill="#fff"/><path d="M253 140.3c-2.3-2.1-4.8-5-5-8.2-.3-3 3-6.3 5.1-8.2 6.6-5.8 9-13.6 4-21.3-2.5-3.7-8.5-.2-6 3.5 3.3 5 1.3 8.8-2.6 12.6a38.5 38.5 0 0 0-5 5.9c-5 7.2-1.4 15.3 4.6 20.6 3.3 3 8.3-2 5-5z" fill="#fff"/><g fill="#fff"><path d="M172.9 140.3c-2.3-2.1-4.8-5-5.1-8.2-.3-3 3.1-6.3 5.2-8.2 6.6-5.8 9-13.6 4-21.3-2.5-3.7-8.5-.2-6 3.5 3.3 5 1.3 8.8-2.7 12.6a38.5 38.5 0 0 0-5 5.9c-5 7.2-1.3 15.3 4.6 20.6 3.4 3 8.4-2 5-5z"/><path d="M189.2 140.3c-2.3-2.1-4.8-5-5-8.2-.3-3 3-6.3 5.1-8.2 6.6-5.8 9-13.6 4-21.3-2.5-3.7-8.5-.2-6 3.5 3.3 5.1 1.3 8.8-2.6 12.6a38.5 38.5 0 0 0-5 5.9c-5 7.2-1.3 15.3 4.6 20.6 3.3 3 8.3-2 5-5z"/></g><g fill="#fff"><path d="M109.1 140.3c-2.3-2.1-4.8-5-5.1-8.2-.3-3 3.1-6.3 5.2-8.2 6.6-5.8 9-13.6 4-21.3-2.5-3.7-8.5-.2-6 3.5 3.3 5 1.3 8.8-2.7 12.6a38.5 38.5 0 0 0-5 5.9c-5 7.2-1.3 15.3 4.6 20.6 3.4 3 8.4-2 5-5z"/><path d="M125.4 140.3c-2.3-2.1-4.8-5-5-8.2-.3-3 3-6.3 5.1-8.2 6.6-5.8 9.1-13.6 4-21.3-2.4-3.7-8.5-.2-6 3.5 3.3 5 1.3 8.8-2.6 12.6a38.5 38.5 0 0 0-5 5.9c-5 7.2-1.3 15.3 4.6 20.6 3.3 3 8.3-2 5-5z"/></g></svg>