<svg xmlns="http://www.w3.org/2000/svg" width="361" height="361"><path fill="#fff" d="M286.9 156.2l.2-81-106.8 81z"/><path d="M291.9 156.2l.2-81c0-3.5-4.4-6.7-7.5-4.4l-106.8 81c-3.7 2.9-2.9 9.4 2.5 9.4H287c6.4 0 6.4-10 0-10H180.3l2.5 9.3 106.8-81-7.5-4.3-.2 81c0 6.4 10 6.4 10 0z" fill="#fff"/><path d="M234.1 281c0 3.1 2.7 5.7 6 5.7h23.5c3.3 0 6-2.6 6-5.7v-68.2c0-3-2.7-5.6-6-5.6h-23.5c-3.3 0-6 2.5-6 5.7v68z" fill="none" stroke="#fff" stroke-width="10" stroke-miterlimit="10"/><path d="M198.7 281.5c0 3.2 4.8 5.8 10.6 5.8h66.9c5.8 0 10.5-2.6 10.5-5.8V159c0-3.2-4.7-5.8-10.5-5.8h-67c-5.7 0-10.5 2.6-10.5 5.8v122.5z" fill="none" stroke="#fff" stroke-width="10" stroke-miterlimit="10"/><path d="M168.4 233.1v54.2c0 4.5 7 4.5 7 0V233c0-4.5-7-4.5-7 0zm-11.4.1v54.1c0 4.5 7 4.5 7 0v-54.1c0-4.5-7-4.5-7 0zm-11.3 0v54.1c0 4.5 7 4.5 7 0v-54.1c0-4.5-7-4.5-7 0zm-11.4 0v54.1c0 4.5 7 4.5 7 0v-54.1c0-4.5-7-4.5-7 0zm-11.3 0v54c0 4.6 7 4.6 7 0v-54c0-4.6-7-4.6-7 0zm-11.4 0v54.1c0 4.5 7 4.5 7 0v-54.1c0-4.5-7-4.5-7 0zm-11.3 0v54.1c0 4.5 7 4.5 7 0v-54.1c0-4.5-7-4.5-7 0zm-11.4 0v54.1c0 4.5 7 4.5 7 0v-54.1c0-4.5-7-4.5-7 0zm-11.3 0v54c0 4.6 7 4.6 7 0v-54c0-4.6-7-4.6-7 0z" fill="#fff"/><path d="M176.3 240.2H74.7c-4.6 0-4.6 7 0 7h101.6c4.5 0 4.5-7 0-7zm.3 32.8H74.4c-4.5 0-4.5 7 0 7h102.2c4.5 0 4.5-7 0-7zM83.8 162.8l26.8 4.6c4.4.8 6.3-6 1.9-6.8l-26.8-4.5c-4.4-.8-6.3 6-1.9 6.7zm.3 9.7L111 177c4.4.8 6.3-6 1.8-6.7L86 165.7c-4.4-.7-6.3 6-1.9 6.8zm0 9.3l26.8 4.6c4.4.7 6.3-6 1.8-6.8L86 175c-4.4-.7-6.3 6-1.9 6.8zm5.7 10l15 2.5c4.4.8 6.3-6 1.9-6.7l-15-2.6c-4.4-.7-6.3 6-1.9 6.8z" fill="#fff"/><path d="M120.8 136.9c0 7.5-6.1 13.7-13.7 13.7H89a13.7 13.7 0 0 1-13.7-13.7V88.3c0-7.5 6.2-13.6 13.7-13.6h18.2c7.6 0 13.7 6 13.7 13.6V137z" fill="none" stroke="#fff" stroke-width="10" stroke-miterlimit="10"/></svg>