<svg xmlns="http://www.w3.org/2000/svg" width="361" height="361"><path d="M84 164l27 4c4 1 6-6 2-7l-27-4c-4-1-6 6-2 6zm0 9l27 5c5 0 6-6 2-7l-27-5c-4 0-6 6-2 7zm0 9l27 5c4 1 6-6 2-7l-27-4c-4-1-6 6-2 7zm6 11l15 2c5 1 6-6 2-7l-15-2c-4-1-6 6-2 6z" fill="#fff"/><path d="M121 138c0 7-6 13-14 13H89a14 14 0 0 1-13-13V89c0-7 6-14 13-14h18c8 0 14 6 14 14v49z" fill="none" stroke="#fff" stroke-width="10" stroke-miterlimit="10"/><path d="M251 76v31c0 5 7 5 7 0V75c0-4-7-4-7 0z" fill="#fff"/><path d="M232 125l24-15h-3l24 15 2-6h-49c-4 0-4 7 0 7h49c3 0 4-5 1-7l-24-15a4 4 0 0 0-3 0 322895 322895 0 0 0-24 15c-4 3-1 9 3 6z" fill="#fff"/><path d="M266 76a5 5 0 0 1-5 4h-13a5 5 0 0 1 0-9h13a5 5 0 0 1 5 5z" fill="#fff" stroke="#fff" stroke-miterlimit="10"/><path d="M232 178h45c10 0 10-15 0-15h-45c-10 0-10 15 0 15zm9 115h27c7 0 7-10 0-10h-27c-6 0-6 10 0 10z" fill="#fff"/><path d="M263 173v115c0 6 10 6 10 0V173c0-6-10-6-10 0zm-27 0v114c0 7 10 7 10 0V173c0-6-10-6-10 0zm-48 115v-70c0-4-7-4-7 0v70c0 5 7 5 7 0zm22 0v-70c0-4-7-4-7 0v70c0 5 7 5 7 0z" fill="#fff"/><path d="M184 222h22c10 0 10-15 0-15h-22c-9 0-9 15 0 15zm0 52h22c5 0 5-7 0-7h-22c-4 0-4 7 0 7zm0-43h22c5 0 5-7 0-7h-22c-4 0-4 7 0 7z" fill="#fff"/></svg>