<svg xmlns="http://www.w3.org/2000/svg" width="361" height="361"><path d="M242 236.5l26.8 4.6c4.5.7 6.3-6 1.9-6.8l-26.7-4.5c-4.5-.8-6.3 6-2 6.7zm.4 9.6l26.7 4.6c4.4.8 6.3-6 1.9-6.8l-26.8-4.5c-4.4-.8-6.3 6-1.8 6.7zm0 9.4L269 260c4.4.8 6.3-6 1.9-6.7l-26.8-4.6c-4.4-.7-6.3 6-1.8 6.8zm5.7 10l15 2.5c4.4.8 6.3-6 1.8-6.8l-15-2.5c-4.4-.8-6.3 6-1.8 6.7z" fill="#fff"/><path d="M279 210.6c0 7.5-6 13.6-13.6 13.6h-18.2a13.7 13.7 0 0 1-13.7-13.6V162c0-7.5 6.1-13.7 13.7-13.7h18.2c7.5 0 13.6 6.2 13.6 13.7v48.6z" fill="none" stroke="#fff" stroke-width="10" stroke-miterlimit="10"/><path d="M201.3 150v133.6c0 9.7 15 9.8 15 .1V150.1c0-9.7-15-9.8-15-.1zM78.1 85.2h206.4c9.6 0 9.7-15 0-15H78.3c-9.7 0-9.8 15 0 15zm167.5 36.9l-34.3-34.3c-3.2-3.2-8.1 1.7-5 5l34.4 34.2c3.2 3.2 8.1-1.7 5-5z" fill="#fff"/><path d="M206.7 87.5l-99.3 99.3-1 1c-3.2 3.3 1.7 8.2 5 5l99.2-99.3 1-1c3.2-3.2-1.7-8.2-5-5zm56 34.7l-34.4-34.3c-3.2-3.2-8.1 1.7-5 5l34.4 34.2c3.2 3.2 8.1-1.7 5-5z" fill="#fff"/><path d="M223.7 87.5l-99.3 99.3-1 1c-3.2 3.3 1.7 8.2 5 5l99.2-99.3 1-1c3.2-3.2-1.7-8.2-5-5z" fill="#fff"/><g fill="#fff"><path d="M227.6 121.2l-34.3-34.3c-3.2-3.2-8.1 1.7-5 5l34.4 34.2c3.2 3.2 8.1-1.7 5-5z"/><path d="M188.7 86.5l-99.3 99.3-1 1c-3.2 3.3 1.7 8.2 5 5l99.2-99.3 1-1c3.2-3.2-1.7-8.2-5-5z"/></g></svg>