<svg xmlns="http://www.w3.org/2000/svg" width="361" height="361"><path d="M84 163.5l26.8 4.6c4.5.7 6.3-6 1.9-6.8l-26.8-4.5c-4.4-.8-6.3 6-1.8 6.7zm.4 9.6l26.7 4.6c4.4.8 6.3-6 1.9-6.8l-26.8-4.5c-4.4-.8-6.3 6-1.8 6.7zm0 9.4L111 187c4.4.8 6.3-6 1.9-6.7l-26.8-4.6c-4.4-.7-6.3 6-1.8 6.8zm5.7 10l15 2.5c4.4.8 6.3-6 1.8-6.8l-15-2.5c-4.4-.8-6.3 6-1.8 6.7z" fill="#fff"/><path d="M121 137.6c0 7.5-6 13.6-13.6 13.6H89.2a13.7 13.7 0 0 1-13.7-13.6V89c0-7.5 6.1-13.7 13.7-13.7h18.2c7.5 0 13.6 6.2 13.6 13.7v48.6z" fill="none" stroke="#fff" stroke-width="10" stroke-miterlimit="10"/><g fill="#fff"><path d="M205.2 75.3a5.3 5.3 0 0 1-5.2 5.2h-15a5.3 5.3 0 1 1 0-10.5h15a5.3 5.3 0 0 1 5.2 5.3z" stroke="#fff" stroke-miterlimit="10"/><path d="M187 82.7v125.5c0 6.5 10 6.5 10 0V82.7c0-6.5-10-6.5-10 0z"/><path d="M99.7 271.7l94.8-60.6h-5l94.8 60.6 2.5-9.3H97c-6.4 0-6.4 10 0 10h189.7c5 0 6.6-6.7 2.5-9.4l-94.8-60.5a5 5 0 0 0-5 0L94.5 263c-5.4 3.5-.4 12.2 5 8.7z"/><path d="M209.9 272.5c-.2 5.4-3.2 11.9-9.4 11.9h-17c-6.3 0-9.3-6.5-9.5-11.9-.2-4.5-7.2-4.5-7 0 .3 7.3 3.6 14.8 10.7 17.7 4.4 1.8 9.6 1.2 14.3 1.2s9.8.6 14.2-1.2c7.1-2.9 10.4-10.4 10.7-17.7.2-4.5-6.8-4.5-7 0z"/></g></svg>