<svg xmlns="http://www.w3.org/2000/svg" width="361" height="361"><path d="M84 163.5l26.8 4.6c4.5.7 6.3-6 1.9-6.8l-26.8-4.5c-4.4-.8-6.3 6-1.8 6.7zm.4 9.6l26.7 4.6c4.4.8 6.3-6 1.9-6.8l-26.8-4.5c-4.4-.8-6.3 6-1.8 6.7zm0 9.4L111 187c4.4.8 6.3-6 1.9-6.7l-26.8-4.6c-4.4-.7-6.3 6-1.8 6.8zm5.7 10l15 2.5c4.4.8 6.3-6 1.8-6.8l-15-2.5c-4.4-.8-6.3 6-1.8 6.7z" fill="#fff"/><path d="M121 137.6c0 7.5-6 13.6-13.6 13.6H89.2a13.7 13.7 0 0 1-13.7-13.6V89c0-7.5 6.1-13.7 13.7-13.7h18.2c7.5 0 13.6 6.2 13.6 13.7v48.6z" fill="none" stroke="#fff" stroke-width="10" stroke-miterlimit="10"/><path d="M200.4 290.5c0-10.2.5-21.8-3.3-31.5-2-4.8-5.8-7.7-9.7-11-1.4-1.3-3.6.9-2 2.1 3.5 3.1 7.2 5.8 9 10.3 3.7 9.2 3 20.5 3 30.1 0 2 3 2 3 0z" fill="#fff"/><path d="M208 290.5c0-10.2.1-22.2-5.4-31.2-3.5-5.7-10-8.3-15.5-11.5-1.6-1-3.1 1.6-1.5 2.6 5 2.8 10.6 5 14 9.8 6 8.2 5.3 20.8 5.4 30.3 0 2 3 2 3 0zm-20.5 0c0-9 0-19.8-5-27.7a14 14 0 0 0-3.8-3.9c-.4-.3-2.1-1-2.1-1.6-.2-1.9-3.2-1.9-3 0 .2 2.9 3.2 3.7 5 5.4 6.5 6.5 5.8 19.7 5.9 27.8 0 2 3 2 3 0z" fill="#fff"/><path d="M195 290.1c-1.4-7.6-2-18.4-7-24.8-3-3.8-8.3-5.8-11.9-9-1.4-1.3-3.6.8-2.1 2.1 3.4 3.1 8.1 5 11.3 8.4 1.7 1.8 2.4 4.6 3 6.9 1.7 5.6 2.7 11.5 3.8 17.2.4 2 3.3 1.1 2.9-.8zm18.6.6c0-6-.4-14.8 4-19.5 1.5-1.5 3.5-1.8 3.8-4.1.2-2-2.8-2-3 0 0-.1-3.6 2.8-4.2 3.6-3.7 5.5-3.6 13.8-3.6 20 0 1.9 3 1.9 3 0z" fill="#fff"/><path d="M208.1 291c1-5 1.3-12.7 4.7-16.9 2-2.4 5.7-3.8 8.1-6 1.5-1.3-.7-3.4-2.1-2.1-2.6 2.3-6.2 3.7-8.4 6.3-3.7 4.6-4.1 12.5-5.2 18-.3 1.9 2.6 2.7 3 .8zm66-.3c0-9.8-.2-21.4 5.4-29.9 2.7-4.2 7.5-6.4 11.3-9.6 1.5-1.2-.7-3.3-2.1-2.1-4.3 3.6-9 6-12.2 10.8-5.6 8.6-5.4 21-5.5 30.8 0 1.9 3 1.9 3 0z" fill="#fff"/><path d="M266.5 290.7c0-10 .3-21.8 7.5-29.5 4.4-4.7 11-6.6 16.5-9.7 1.7-1 .1-3.6-1.5-2.6-6 3.4-12.8 5.5-17.7 10.7-7.4 8-7.8 20.8-7.9 31 0 2 3 2 3 0zm17.5-.3c0-6-.5-15 3.8-19.9 1.3-1.5 3.2-1.9 3.4-4.1.2-2-2.8-1.9-3 0 0 .4-3.4 3-3.8 3.7-3.6 5.7-3.4 14-3.4 20.3 0 1.9 3 1.9 3 0z" fill="#fff"/><path d="M279 290.8c.8-5.4 1.2-12.6 4.3-17.2 1.6-2.5 5.4-4 7.5-6.1 1.4-1.4-.7-3.5-2.1-2.2-2.4 2.3-5.8 3.8-7.8 6.4-3.6 4.8-4 12.6-4.9 18.2-.3 2 2.6 2.7 3 .8zm-20.2-.3c0-7.7 1.6-20.7-5.6-25.7-1.6-1.1-3.1 1.5-1.5 2.6 1.1.8 1.7 1 2.3 2.5 2.3 6.3 1.8 14 1.8 20.6 0 2 3 2 3 0z" fill="#fff"/><path d="M266.4 290.1c-1-5.8-1.4-13.2-4.7-18.2-2-3-5.8-4.5-8.2-6.9-1.4-1.3-3.5.8-2.1 2.1 2.2 2.2 5.2 3.7 7.4 6 1.2 1.2 1.7 3.3 2.1 4.9 1.2 4.2 1.9 8.6 2.6 12.9.3 1.9 3.2 1 3-.8zm25.4-106.8c0 2.7-2 4.8-4.5 4.8h-61.5a4.7 4.7 0 0 1-4.6-4.8v-31.7c0-2.7 2-4.8 4.6-4.8h61.5a4.7 4.7 0 0 1 4.5 4.8v31.7z" fill="#fff"/><path d="M283.2 153.6a3.8 3.8 0 0 1-3.8 3.8h-47a3.8 3.8 0 0 1-3.8-3.8v-21.3a3.8 3.8 0 0 1 3.7-3.7h47.1a3.8 3.8 0 0 1 3.8 3.7v21.3z" fill="#fff"/><path d="M255.7 158.4c0 1.7-1.9 3.1-4.2 3.1h-39.3c-2.3 0-4.1-1.4-4.1-3.1v-37.7c0-1.7 1.8-3.1 4.1-3.1h39.3c2.3 0 4.1 1.4 4.1 3.1v37.7z" fill="#fff"/><path d="M270.7 149.7a6.7 6.7 0 0 1-6.7 6.8h-11a6.7 6.7 0 0 1-6.8-6.8v-21.6a6.7 6.7 0 0 1 6.7-6.7h11a6.7 6.7 0 0 1 6.8 6.7v21.6zm-39.3 36.8a6.7 6.7 0 0 1-6.7 6.7H207a6.7 6.7 0 0 1-6.7-6.7v-17.7a6.7 6.7 0 0 1 6.7-6.7h17.7a6.7 6.7 0 0 1 6.7 6.7v17.7z" fill="#fff"/><path d="M232.8 159.5c0 3.7-4 6.7-9 6.7h-15.6c-5 0-9-3-9-6.7v-25.4c0-3.7 4-6.8 9-6.8h15.5c5 0 9.1 3 9.1 6.8v25.4z" fill="#fff"/><path d="M208.7 203a6.7 6.7 0 0 1-6.7 6.8h-11.2a6.7 6.7 0 0 1-6.7-6.7v-45.2a6.7 6.7 0 0 1 6.7-6.7H202a6.7 6.7 0 0 1 6.7 6.7v45.2z" fill="#fff"/><path d="M259.5 194.3a5 5 0 0 1-5 5H196a5 5 0 0 1-5-5v-6.7a5 5 0 0 1 5-5h58.5a5 5 0 0 1 5 5v6.7zm-31.6 12.4a5.3 5.3 0 0 1-5.3 5.4h-13.4a5.3 5.3 0 0 1-5.4-5.4 5.3 5.3 0 0 1 5.3-5.3h13.5a5.3 5.3 0 0 1 5.3 5.3z" fill="#fff"/><path d="M270 197.3a5 5 0 0 1-5 5h-58.5a5 5 0 0 1-5-5v-6.7a5 5 0 0 1 5-5H265a5 5 0 0 1 5 5v6.7z" fill="#fff"/><path d="M285.8 208.6c0 1.6-1.7 3-3.9 3h-25.7c-2 0-3.8-1.4-3.8-3v-35.3c0-1.6 1.7-3 3.8-3H282c2.2 0 4 1.4 4 3v35.3z" fill="#fff"/><path d="M275.9 221c0 3.2-2.3 5.8-5.2 5.8h-48.3c-2.9 0-5.2-2.6-5.2-5.8v-7.7c0-3.2 2.3-5.8 5.2-5.8h48.3c2.9 0 5.2 2.6 5.2 5.8v7.7zm-50.7-20.4l11.3 47" fill="#fff"/><path d="M220.4 201.9l11.3 47c1.5 6.3 11.2 3.6 9.7-2.6l-11.3-47c-1.5-6.3-11.2-3.7-9.7 2.6zm17.2 32.9l17.3-17.2" fill="#fff"/><path d="M241.1 238.3l17.3-17.2c4.6-4.5-2.5-11.6-7-7L234 231.3c-4.6 4.5 2.5 11.6 7.1 7zm22.4-24.4l-14 45.3" fill="#fff"/><path d="M258.7 212.6l-14 45.3c-2 6.2 7.7 8.8 9.6 2.7l14-45.4c2-6.1-7.7-8.7-9.6-2.6zm-20.2 74l-2-37m7 37l-2-37c-.3-6.4-10.3-6.4-10 0l2 37c.4 6.4 10.4 6.4 10 0zm3 0l2.6-28.5" fill="#fff"/><path d="M251.6 286.6L254 258c.5-6.4-9.5-6.4-10 0l-2.5 28.5c-.6 6.4 9.4 6.3 10 0zM210 226.2a8 8 0 0 1-8.3 7.9h-21.6a8 8 0 0 1-8.2-8v-20.6a8 8 0 0 1 8.2-7.8h21.6a8 8 0 0 1 8.3 7.8v20.7z" fill="#fff"/><path d="M184 223.9a6 6 0 0 1-6 6h-10a6 6 0 0 1-6-6v-40.3a6 6 0 0 1 6-6h10a6 6 0 0 1 6 6V224z" fill="#fff"/><path d="M231.2 235.2c0 2.7-2 5-4.3 5h-50.6c-2.4 0-4.3-2.3-4.3-5v-6.7c0-2.8 2-5 4.3-5H227c2.3 0 4.3 2.2 4.3 5v6.7z" fill="#fff"/><path d="M215.9 240.2a5.3 5.3 0 0 1-5.4 5.3h-13.4a5.3 5.3 0 0 1-5.3-5.3 5.3 5.3 0 0 1 5.3-5.4h13.5a5.3 5.3 0 0 1 5.3 5.4zM203 187.8a6.7 6.7 0 0 1-6.7 6.7h-17.7a6.7 6.7 0 0 1-6.7-6.7v-17.6a6.7 6.7 0 0 1 6.7-6.7h17.7a6.7 6.7 0 0 1 6.7 6.7v17.6z" fill="#fff"/><path fill="#fff" d="M192.6 211.6l25.8 41.8m-30-39.3l25.7 41.8c3.4 5.5 12 .4 8.6-5L197 209c-3.4-5.4-12-.4-8.7 5.1z"/><path fill="#fff" d="M223.6 286.8l-5.2-33.4m10 32l-5.2-33.4c-1-6.3-10.6-3.6-9.6 2.7l5.2 33.4c1 6.4 10.6 3.7 9.6-2.6zm-64.3 5.2c0-7.2.3-15.3-2.2-22.1-1.4-3.6-4.2-5.8-7-8.2-1.5-1.2-3.6.9-2.1 2.1 2.3 2 4.7 3.8 6 6.7 3 6.2 2.3 14.8 2.3 21.5 0 1.9 3 1.9 3 0z"/><path d="M169.5 290.6c0-7.3 0-15.7-3.8-22.2-2.5-4.1-7.1-6-11.1-8.3-1.7-1-3.2 1.6-1.5 2.6 3.3 1.9 7.2 3.5 9.6 6.7 4.2 5.6 3.7 14.6 3.8 21.2 0 1.9 3 1.9 3 0zm-11.8 0c0-5 0-10.7-2.4-15.3a7.7 7.7 0 0 0-2-2.4c-.4-.4-1-1.1-1-.6-.2-1.9-3.2-1.9-3 0 .2 1.7 1.4 2.2 2.5 3.2 3.4 3.4 2.9 10.8 3 15 0 2 3 2 3 0z" fill="#fff"/><path d="M161.4 290.2c-.7-4.4-1-10-3.5-13.7-1.4-2.2-4.2-3.4-6-5.2-1.4-1.4-3.5.7-2.2 2 1.7 1.7 3.9 2.8 5.5 4.5.9 1 1.1 2.4 1.5 3.5.8 3.2 1.3 6.5 1.8 9.7.4 1.9 3.2 1 3-.8zm12 .5c0-4-.3-10.2 2.8-13.5 1-1.1 2.5-1.3 2.7-3.2.2-1.9-2.8-1.9-3 0 0-.7 0-.3-.8.2a8.2 8.2 0 0 0-2 2.2c-2.7 3.9-2.6 9.8-2.7 14.3 0 1.9 3 1.9 3 0z" fill="#fff"/><path d="M169.6 291c.6-3.3.8-8.8 3.2-11.7 1.4-1.7 4-2.7 5.7-4.2 1.4-1.3-.7-3.4-2.2-2.1-1.8 1.6-4.3 2.6-5.9 4.4-2.7 3.3-3 8.9-3.7 12.9-.4 1.9 2.5 2.7 2.9.8z" fill="#fff"/></svg>