<svg xmlns="http://www.w3.org/2000/svg" width="361" height="361"><path d="M161 248l37 6c6 1 9-8 3-9l-37-7c-6-1-9 9-3 10zm1 13l36 7c7 1 9-9 3-10l-37-6c-6-1-9 8-2 9zm0 13l36 6c7 2 9-8 3-9l-37-6c-6-1-9 8-2 9zm7 14l21 3c6 2 9-8 3-9l-21-4c-6-1-9 9-3 10zm38-76c0 10-8 14-17 14h-21c-8 0-15-6-15-14v-58l1-11c1-10 10-12 18-12h16c5 0 10 0 14 4 6 5 4 15 4 23v54c0 7 10 7 10 0v-67c0-11-7-19-17-23-6-2-14-1-20-1-7 0-14 0-21 2a24 24 0 0 0-15 22v67c0 11 7 19 16 23 6 2 14 1 20 1l19-1c11-2 18-12 18-23 0-6-10-6-10 0zM89 224h29c7 0 7-10 0-10H89c-6 0-6 10 0 10zM200 84v10c0 2 3 2 3 0V84c0-2-3-2-3 0zm-96 55h14c2 0 2-3 0-3h-14c-2 0-2 3 0 3zm14-43l9 9c1 1 3-1 2-3l-9-8c-1-1-3 1-2 2zm124-3l-9 9c-2 2 1 4 2 2l10-9c1-1-1-4-3-2zm-138 87h14c2 0 2-3 0-3h-14c-2 0-2 3 0 3zm140-41h15c2 0 2-3 0-3h-15c-2 0-2 3 0 3zm0 41h15c2 0 2-3 0-3h-15c-2 0-2 3 0 3zm-86-96v10c0 2 3 2 3 0V84c0-2-3-2-3 0z" fill="#fff"/><path d="M104 221h14c2 0 2-3 0-3h-14c-2 0-2 3 0 3zm140 0h14c3 0 3-3 1-3h-15c-2 0-2 3 0 3z" fill="#fff"/></svg>