<svg xmlns="http://www.w3.org/2000/svg" width="361" height="361"><path d="M84 163.5l26.8 4.6c4.5.7 6.3-6 1.9-6.8l-26.8-4.5c-4.4-.8-6.3 6-1.8 6.7zm.4 9.6l26.7 4.6c4.4.8 6.3-6 1.9-6.8l-26.8-4.5c-4.4-.8-6.3 6-1.8 6.7zm0 9.4L111 187c4.4.8 6.3-6 1.9-6.7l-26.8-4.6c-4.4-.7-6.3 6-1.8 6.8zm5.7 10l15 2.5c4.4.8 6.3-6 1.8-6.8l-15-2.5c-4.4-.8-6.3 6-1.8 6.7z" fill="#fff"/><path d="M121 137.6c0 7.5-6 13.6-13.6 13.6H89.2a13.7 13.7 0 0 1-13.7-13.6V89c0-7.5 6.1-13.7 13.7-13.7h18.2c7.5 0 13.6 6.2 13.6 13.7v48.6z" fill="none" stroke="#fff" stroke-width="10" stroke-miterlimit="10"/><path d="M281.8 274.7c-.5 9.8-16 7-22.5 7H155.8c-4 0-8.1 0-9.9-4.6-1.7-4.4-.4-11.3-.4-15.9v-21.7c0-4.9 1.6-9.5 7.5-9.5h116.6c4.5 0 9.8-.7 11.8 4.5.8 2 .4 4.7.4 6.8v33.4c0 6.4 10 6.4 10 0v-36.1c0-8.6-4.5-15.8-13-18.2-2.8-.7-6-.4-8.8-.4H154c-6 0-12 2.1-15.5 7.4-3.6 5.4-3 11.5-3 17.6v23.2c0 6.7 0 12.4 4.6 18 6 7.4 18.2 5.5 26.6 5.5h108.1c9.6 0 16.5-7.8 17-17 .4-6.5-9.6-6.4-10 0zM175.6 119.3c7.8-7.9 15.7-16.3 24.8-22.7 5.3-3.8 12.2-5.6 18.3-7.7a359.2 359.2 0 0 1 13.8-4.3l-4-1.6a344.3 344.3 0 0 1 5.4 11.4c2.6 5.6 6 12 6.7 18.1 1.4 10.8 0 22.4-1 33.2l4.5-3.3-70-29c-4.2-1.7-6 5-1.9 6.8l70 28.9c2.3 1 4.3-1.4 4.4-3.4 1-11 2.3-22.8 1-33.9-.9-6.5-4-12.8-6.7-18.8a311.9 311.9 0 0 0-6.4-13.5c-.6-1.4-2.5-2-3.9-1.6-11 3.2-23.5 6.1-33.2 12.3-10 6.3-18.5 15.8-26.7 24.1-3.2 3.2 1.8 8.2 5 5zm77.7 91.4l26.3-109c1.5-6.3-8.1-9-9.6-2.7l-26.4 109c-1.5 6.3 8.1 9 9.7 2.7z" fill="#fff"/><path d="M277.2 95.8L233.8 74c-5.8-2.9-10.8 5.8-5 8.7l43.3 21.8c5.8 2.9 10.9-5.8 5.1-8.7zm-81 124.3h68.3c6.5 0 6.5-10 0-10h-68.3c-6.5 0-6.5 10 0 10z" fill="#fff"/><path d="M201.1 215h58.7c6.4 0 6.4-10 0-10H201c-6.5 0-6.5 10 0 10z" fill="#fff"/><path d="M204.8 206.4v5.3c0 2.8 2.3 5 5 5s5-2.2 5-5v-5.3a5 5 0 1 0-10 0zm36.8-121.6L227.3 78c-5.8-2.8-11 5.9-5.1 8.6l14.4 7c5.8 2.7 10.8-5.9 5-8.7z" fill="#fff"/></svg>