<svg xmlns="http://www.w3.org/2000/svg" width="361" height="361"><path d="M84 164l27 4c4 1 6-6 2-7l-27-4c-4-1-6 6-2 6zm0 9l27 5c5 0 6-6 2-7l-27-5c-4 0-6 6-2 7zm0 9l27 5c4 1 6-6 2-7l-27-4c-4-1-6 6-2 7zm6 11l15 2c5 1 6-6 2-7l-15-2c-4-1-6 6-2 6z" fill="#fff"/><path d="M121 138c0 7-6 13-14 13H89a14 14 0 0 1-13-13V89c0-7 6-14 13-14h18c8 0 14 6 14 14v49z" fill="none" stroke="#fff" stroke-width="10" stroke-miterlimit="10"/><path d="M282 275c-1 9-16 7-23 7H156c-4 0-8 0-10-5-2-4 0-11 0-16v-22c0-4 1-9 7-9h117c4 0 9-1 11 5l1 6v34c0 6 10 6 10 0v-36c0-9-5-16-13-19H154c-6 0-12 2-15 7-4 6-3 12-3 18v23c0 7 0 13 4 18 6 8 18 6 27 6h108c9 0 16-8 17-17 0-7-10-7-10 0zM176 119c7-8 15-16 24-22 6-4 13-6 19-8a359 359 0 0 1 14-4l-4-2a344 344 0 0 1 5 11c3 6 6 12 7 19 1 10 0 22-1 33l4-4-70-29c-4-1-6 5-2 7l70 29c3 1 5-1 5-3 1-11 2-23 1-34-1-7-4-13-7-19a312 312 0 0 0-6-13c-1-2-3-2-4-2-11 3-24 6-34 12-10 7-18 16-26 24-3 4 2 9 5 5zm77 92l27-109c1-7-8-9-10-3l-26 109c-2 6 8 9 9 3z" fill="#fff"/><path d="M277 96l-43-22c-6-3-11 6-5 9l43 22c6 2 11-6 5-9zm-81 124h68c7 0 7-10 1-10h-69c-6 0-6 10 0 10z" fill="#fff"/><path d="M201 215h59c6 0 6-10 0-10h-59c-6 0-6 10 0 10z" fill="#fff"/><path d="M205 206v6c0 3 2 5 5 5s5-2 5-5v-6a5 5 0 1 0-10 0zm37-121l-15-7c-5-3-11 6-5 9l15 7c5 2 10-6 5-9z" fill="#fff"/></svg>