<svg xmlns="http://www.w3.org/2000/svg" width="361" height="361"><path d="M84 163l27 5c4 0 6-6 1-7l-26-5c-5-1-7 6-2 7zm0 10l27 4c4 1 6-6 2-7l-27-4c-4-1-6 6-2 7zm0 9l27 5c4 0 6-6 2-7l-27-5c-4-1-6 6-2 7zm6 10l15 3c4 0 6-6 2-7l-15-3c-5-1-7 6-2 7z" fill="#fff"/><path d="M121 137c0 8-6 14-14 14H89a14 14 0 0 1-14-14V89c0-8 6-14 14-14h18c8 0 14 6 14 13v49z" fill="none" stroke="#fff" stroke-width="10" stroke-miterlimit="10"/><path d="M262 232c-1 9-13 7-19 7h-8c-6 0-6-4-7-8l-6-27-17-74c-1-2 4-5 6-5h44c6 0 7 5 7 10v97c0 7 10 7 10 0V132c0-10-8-17-17-17h-39c-7 0-14 1-18 7-6 8-1 19 1 28l19 81c0 4 1 7 3 11 4 6 11 7 18 7h16c9 0 16-8 17-17 0-6-10-6-10 0zm15-155v208c0 10 15 10 15 0V77c0-10-15-10-15 0zm-26-2v19c0 5 7 5 7 0V75c0-5-7-5-7 0zm-25 0l3 19c0 4 7 4 7 0l-3-19c0-5-7-5-7 0zm-25 1l6 18c1 4 8 2 7-2l-6-18c-1-5-8-3-7 2zm57 213v-19c0-5-7-5-7 0v19c0 4 7 4 7 0zm-24 0l2-19c1-5-6-5-7 0l-2 19c-1 4 6 4 7 0z" fill="#fff"/><path d="M271 152v58c0 5 7 5 7 0v-58c0-5-7-5-7 0z" fill="#fff"/></svg>