<svg xmlns="http://www.w3.org/2000/svg" width="361" height="361"><path d="M84 162.5l26.8 4.6c4.5.7 6.3-6 1.9-6.8l-26.8-4.5c-4.4-.8-6.3 6-1.8 6.7zm.4 9.6l26.7 4.6c4.4.8 6.3-6 1.9-6.8l-26.8-4.5c-4.4-.8-6.3 6-1.8 6.7zm0 9.4L111 186c4.4.8 6.3-6 1.9-6.7l-26.8-4.6c-4.4-.7-6.3 6-1.8 6.8zm5.7 10l15 2.5c4.4.8 6.3-6 1.8-6.8l-15-2.5c-4.4-.8-6.3 6-1.8 6.7z" fill="#fff"/><path d="M121 136.6c0 7.5-6 13.6-13.6 13.6H89.2a13.7 13.7 0 0 1-13.7-13.6V88c0-7.5 6.1-13.7 13.7-13.7h18.2c7.5 0 13.6 6.2 13.6 13.7v48.6z" fill="none" stroke="#fff" stroke-width="10" stroke-miterlimit="10"/><path d="M289.4 72.3L202 159.6A13408792.8 13408792.8 0 0 1 72.8 288.9c-1.4 1.4.7 3.5 2.1 2.1l87.2-87.2L281.4 84.6l10-10.1c1.4-1.4-.7-3.5-2-2.2zm0 50.2l-99.9 99.8-66 66.1c-1.4 1.4.7 3.5 2 2.2l99.9-99.9 66-66c1.4-1.4-.7-3.6-2-2.2zm1.8-28.6l-1.6-1.6-1.2-1.2c-.4-.4-.5-.3-.2-.6 1-1.2 2.2-2.3 3.3-3.4 1.4-1.4-.7-3.5-2-2.1-1.4 1.3-4.5 3.4-4.5 5.6 0 2.2 2.6 4 4 5.4 1.5 1.4 3.6-.7 2.2-2z" fill="#fff"/><path d="M287 92.3l-1.4 1.4a1.5 1.5 0 0 0 0 2.2 1.5 1.5 0 0 0 2 0l1.5-1.5a1.5 1.5 0 0 0 0-2.1 1.5 1.5 0 0 0-2.1 0zm-26 45.6c-1.2.8-3.6-2.7-4.6-3.7l-5.7-5.6c-.6-.7 2.6-3.2 3.2-3.9l5.7-5.6c.5-.6 9 8.4 10.2 9.7.3.2-8.1 8.3-9.1 9.3-1.4 1.4.8 3.5 2.1 2.2l7.4-7.4c1.5-1.6 4-4 1.9-6.1l-7.7-7.7c-2-2-3.7-4.4-6.6-2.5-2.6 1.8-5 5-7.2 7.1-1.5 1.6-4.8 4.2-2.4 6.6l7.2 7.2c2 2 4 5 7.1 3 1.6-1 .1-3.7-1.5-2.6z" fill="#fff"/><path d="M249.4 129.8l-1.4 1.5a1.5 1.5 0 0 0 0 2.1 1.5 1.5 0 0 0 2.1 0l1.5-1.4a1.5 1.5 0 0 0 0-2.2 1.5 1.5 0 0 0-2.2 0zm7.4 7.4l-1.5 1.4a1.5 1.5 0 0 0 0 2.2 1.5 1.5 0 0 0 2.1 0l1.5-1.5a1.5 1.5 0 0 0 0-2.1 1.5 1.5 0 0 0-2.1 0zm5.9-20.6l-1.5 1.5a1.5 1.5 0 0 0 0 2 1.5 1.5 0 0 0 2.2 0l1.4-1.4a1.5 1.5 0 0 0 0-2 1.5 1.5 0 0 0-2.1 0zm7.3 7.3l-1.4 1.5a1.5 1.5 0 0 0 0 2.1 1.5 1.5 0 0 0 2 0l1.5-1.4a1.5 1.5 0 0 0 0-2.2 1.5 1.5 0 0 0-2 0zm-46.6 51.6c-1.1.7-3.6-2.7-4.6-3.7l-5.6-5.7c-.7-.6 2.5-3.1 3.1-3.8l5.7-5.7c.6-.5 9 8.5 10.3 9.8.2.2-8.2 8.3-9.2 9.3-1.3 1.4.8 3.5 2.1 2.1l7.4-7.4c1.6-1.5 4.1-3.9 2-6l-7.8-7.8c-2-2-3.6-4.3-6.5-2.4-2.7 1.8-5 4.9-7.2 7.1-1.6 1.6-4.8 4.2-2.5 6.6l7.2 7.2c2.1 2 4 5 7.1 3 1.7-1 .2-3.7-1.5-2.6z" fill="#fff"/><path d="M211.8 167.4l-1.4 1.5a1.5 1.5 0 0 0 0 2 1.5 1.5 0 0 0 2.1 0l1.5-1.3a1.5 1.5 0 0 0 0-2.2 1.5 1.5 0 0 0-2.1 0zm7.4 7.4l-1.4 1.4a1.5 1.5 0 0 0 0 2.1 1.5 1.5 0 0 0 2 0l1.5-1.4a1.5 1.5 0 0 0 0-2.1 1.5 1.5 0 0 0-2.1 0zm5.9-20.6l-1.4 1.4a1.5 1.5 0 0 0 0 2.1 1.5 1.5 0 0 0 2 0l1.5-1.4a1.5 1.5 0 0 0 0-2.1 1.5 1.5 0 0 0-2.1 0zm7.3 7.3L231 163a1.5 1.5 0 0 0 0 2 1.5 1.5 0 0 0 2.1 0l1.5-1.4a1.5 1.5 0 0 0 0-2 1.5 1.5 0 0 0-2.2 0zM185.8 213c-1.1.8-3.6-2.6-4.6-3.6l-5.6-5.7c-.7-.6 2.5-3.2 3.2-3.8l5.7-5.7c.5-.5 9 8.5 10.2 9.7.2.2-8.1 8.4-9.1 9.4-1.4 1.4.7 3.5 2 2.1l7.5-7.4c1.5-1.5 4-3.9 1.9-6l-7.8-7.8c-2-2-3.6-4.3-6.5-2.4-2.7 1.7-5 4.9-7.2 7.1-1.5 1.5-4.8 4.2-2.5 6.5l7.3 7.3c2 2 4 5 7 3 1.7-1.1.2-3.7-1.5-2.7z" fill="#fff"/><path d="M174.3 205l-1.5 1.4a1.5 1.5 0 0 0 0 2.2 1.5 1.5 0 0 0 2.2 0l1.4-1.5a1.5 1.5 0 0 0 0-2.1 1.5 1.5 0 0 0-2.1 0zm7.3 7.3l-1.4 1.5a1.5 1.5 0 0 0 0 2.1 1.5 1.5 0 0 0 2.1 0l1.4-1.4c.6-.6.6-1.6 0-2.2s-1.5-.5-2 0zm6-20.5l-1.5 1.4c-.6.6-.6 1.5 0 2.1s1.5.6 2.1 0l1.5-1.4c.5-.6.5-1.6 0-2.2s-1.6-.5-2.2 0zm7.3 7.3l-1.5 1.4a1.5 1.5 0 0 0 0 2.2 1.5 1.5 0 0 0 2.2 0l1.4-1.5c.6-.6.6-1.5 0-2.1s-1.5-.6-2.1 0zm-46.6 51.5c-1.2.8-3.6-2.6-4.7-3.7l-5.6-5.6c-.7-.7 2.5-3.2 3.2-3.8l5.7-5.7c.5-.6 9 8.4 10.2 9.7.2.2-8.1 8.3-9.1 9.4-1.4 1.3.7 3.4 2.1 2l7.4-7.3c1.5-1.5 4-4 1.9-6l-7.7-7.8c-2-2-3.7-4.3-6.6-2.4-2.7 1.7-5 4.8-7.2 7-1.5 1.6-4.8 4.3-2.4 6.6l7.2 7.2c2 2 4 5 7.1 3 1.6-1 .1-3.6-1.5-2.6z" fill="#fff"/><path d="M136.7 242.6l-1.4 1.4a1.5 1.5 0 0 0 0 2.1 1.5 1.5 0 0 0 2 0l1.5-1.4a1.5 1.5 0 0 0 0-2.1 1.5 1.5 0 0 0-2 0zm7.4 7.3l-1.5 1.4a1.5 1.5 0 0 0 0 2.2 1.5 1.5 0 0 0 2.1 0l1.5-1.5a1.5 1.5 0 0 0 0-2 1.5 1.5 0 0 0-2.1 0zm5.9-20.6l-1.5 1.5a1.5 1.5 0 0 0 0 2 1.5 1.5 0 0 0 2.1 0l1.5-1.4a1.5 1.5 0 0 0 0-2 1.5 1.5 0 0 0-2.1 0zm7.3 7.4l-1.4 1.4a1.5 1.5 0 0 0 0 2.1 1.5 1.5 0 0 0 2 0l1.5-1.4a1.5 1.5 0 0 0 0-2.1 1.5 1.5 0 0 0-2.1 0zm-46.6 51.5c-1.1.8-3.6-2.7-4.6-3.7l-5.7-5.6c-.6-.7 2.6-3.2 3.2-3.9l5.7-5.7c.5-.5 9 8.5 10.3 9.8.2.2-8.2 8.3-9.2 9.3-1.4 1.4.8 3.5 2.1 2.1l7.4-7.3c1.5-1.6 4-4 2-6.1l-7.8-7.7c-2-2-3.6-4.4-6.6-2.5-2.6 1.8-4.9 4.9-7.1 7.1-1.6 1.6-4.8 4.2-2.5 6.6l7.2 7.2c2 2 4 5 7.1 3 1.6-1 .1-3.7-1.5-2.6z" fill="#fff"/><path d="M99.1 280.1l-1.4 1.5a1.5 1.5 0 0 0 0 2.1 1.5 1.5 0 0 0 2.1 0l1.5-1.4a1.5 1.5 0 0 0 0-2.2 1.5 1.5 0 0 0-2.2 0zm7.4 7.4l-1.5 1.4a1.5 1.5 0 0 0 0 2.1 1.5 1.5 0 0 0 2.2 0l1.4-1.4a1.5 1.5 0 0 0 0-2.1 1.5 1.5 0 0 0-2.1 0zm5.9-20.6l-1.4 1.4a1.5 1.5 0 0 0 0 2.2 1.5 1.5 0 0 0 2 0l1.5-1.5a1.5 1.5 0 0 0 0-2.1 1.5 1.5 0 0 0-2.1 0zm7.3 7.3l-1.4 1.5a1.5 1.5 0 0 0 0 2 1.5 1.5 0 0 0 2.1 0l1.4-1.4a1.5 1.5 0 0 0 0-2 1.5 1.5 0 0 0-2 0zM275 108.7l5 5c1.5 1.4 3.6-.8 2.2-2.1l-5-5c-1.4-1.4-3.5.7-2.2 2zm-76 76l5 5c1.5 1.4 3.6-.8 2.2-2.1l-5-5c-1.4-1.4-3.5.7-2.2 2zm-75 75l5 5.1c1.3 1.4 3.5-.7 2-2.1l-5-5c-1.3-1.4-3.5.7-2 2zm68.3-10.1c6.3 0 11 1.1 14.4 3.3 3.3 2.3 5 5.7 5 10.4 0 3-.7 5.3-2 7a13.3 13.3 0 0 1-5.9 4.4 58.2 58.2 0 0 1 2.7 3.6 101.8 101.8 0 0 1 7.7 13.4h-10.5l-2.3-4.2a98.5 98.5 0 0 0-2.4-4 111.7 111.7 0 0 0-4.9-7h-4.6v15.2h-9.4v-41c2-.4 4.2-.7 6.4-.8a81.3 81.3 0 0 1 5.8-.3zm.6 8H191l-1.5.2V269h2.6c3.6 0 6-.4 7.6-1.3 1.5-.9 2.3-2.4 2.3-4.5 0-2-.8-3.5-2.3-4.3a14 14 0 0 0-6.8-1.3zm45.5-.3c-4.4 0-7.5 1.2-9.5 3.6-2 2.4-2.9 5.7-2.9 10 0 2 .2 3.8.7 5.5a12 12 0 0 0 2.2 4.3 9.7 9.7 0 0 0 3.6 2.8c1.4.6 3.1 1 5 1a50.8 50.8 0 0 0 4.6-.3v-14.5h9.4v20.6a46.8 46.8 0 0 1-14.6 2.2c-3.1 0-6-.5-8.5-1.5s-4.7-2.4-6.5-4.2c-1.8-1.8-3.2-4.1-4.2-6.8s-1.4-5.7-1.4-9.2c0-3.4.5-6.5 1.6-9.2s2.6-5 4.4-6.8a18.7 18.7 0 0 1 6.7-4.2 22.8 22.8 0 0 1 8.1-1.5 32.9 32.9 0 0 1 9.4 1.3 19 19 0 0 1 4.4 1.9l-2.7 7.5a24.4 24.4 0 0 0-4.4-1.8 19 19 0 0 0-5.4-.7zm33.7 35c-2.3 0-4.6-.2-6.8-.3a48.3 48.3 0 0 1-7.1-1v-40.3a60 60 0 0 1 6.3-.8l6.4-.3c2.6 0 5 .2 7.3.6 2.2.4 4 1 5.7 2 1.6.9 2.8 2 3.7 3.6 1 1.5 1.4 3.3 1.4 5.5 0 3.3-1.6 6-4.8 7.9 2.6 1 4.4 2.3 5.4 4a11.7 11.7 0 0 1 1.4 5.9c0 4.3-1.6 7.6-4.7 9.8s-8 3.3-14.2 3.3zm-4.8-25.9h4.6c2.9 0 5-.4 6.2-1.1 1.2-.7 1.8-2 1.8-3.6 0-1.7-.6-2.8-1.9-3.5s-3.2-1-5.6-1h-2.6l-2.5.1v9.1zm0 7.1v10.8a51.9 51.9 0 0 0 4.9.2c2.8 0 5-.4 6.8-1.2 1.7-.8 2.6-2.3 2.6-4.4 0-2-.8-3.3-2.2-4.1-1.4-.8-3.5-1.3-6.2-1.3h-5.9z" fill="#fff"/></svg>