<svg xmlns="http://www.w3.org/2000/svg" width="361" height="361"><path d="M211 163v19c0 2 3 2 3 0v-19c0-2-3-2-3 0zm19 0l2-6c1-2-2-3-3-1l-2 6c-1 2 2 3 3 1zm-6 19l3-12c0-2-3-2-3-1l-3 12c0 2 3 3 3 1zm17-31l1 1a2 2 0 0 0 2-1 2 2 0 0 0-1-2l-1-1a2 2 0 0 0-2 1l1 2zm5 4v2h2l1-2a631 631 0 0 0-1-1l-2-1v2zm-11-3l1-1 1-2h-2l-1 1-1 2h2zm-36 10l-2-6c-1-2-3-1-3 1l2 6c1 2 4 1 3-1zm6 19l-3-11c0-2-3-1-3 0l3 12c0 2 3 1 2-1zm-21-33l-1 1a2 2 0 0 0-1 2 2 2 0 0 0 2 1l1-1a2 2 0 0 0 1-2 2 2 0 0 0-2-1zm-6 6l-1 1 1 2h2v-4l-2 1zm15-4l-2-1h-2l1 2 1 1h2v-2zm28-13l1-7c0-2-3-3-3-1l-1 7c-1 2 2 3 3 1zm-2 19l1-12c0-2-3-2-3 0l-1 12c-1 2 2 2 3 0zm5-31h1l2-1-1-2h-3l1 3zm2 4v1a2 2 0 0 0 2 1 2 2 0 0 0 1-2v-1a2 2 0 0 0-2-1 2 2 0 0 0-1 2z" fill="#fff"/><path d="M223 125l1-1c1-1-2-3-3-1l-1 1c-1 1 2 3 3 1z" fill="#fff"/><g fill="#fff"><path d="M208 136l-1-7c0-2-3-1-3 1l1 7c0 2 3 1 3-1zm2 20l-1-12c0-2-3-2-3 0l1 12c0 2 3 2 3 0zm-10-34l-1 2 2 1 1-1v-2h-2zm-3 6v1l1 2 2-1v-1a2 2 0 0 0-1-2l-2 1z"/><path d="M205 124v-1c-1-2-4 0-3 1l1 1c1 2 3 0 2-1z"/></g><path d="M287 281H117c-5 0-5-6-5-9v-39c0-7 13-4 18-4h157c6 0 6-10 0-10H119c-9 0-17 5-17 14v39c0 7 1 12 7 17 5 4 15 2 21 2h157c6 0 6-10 0-10z" fill="#fff"/><path d="M283 219c0-8-5-13-13-13h-12l5 5c0-11-7-16-17-16h-22l5 5c-2-19-31-19-33 0l5-5h-20c-10 0-16 5-16 16l5-5h-13c-8 0-13 5-14 13 0 6 10 6 10 0 1-5 13-3 17-3a5 5 0 0 0 5-5c0-7 6-6 11-6h15c3 0 5-2 5-5 1-5 13-5 13 0 0 3 2 5 5 5h16c5 0 12-2 12 6a5 5 0 0 0 5 5c4 0 16-2 16 3 1 6 11 6 10 0zM84 163l27 4c4 1 6-6 2-7l-27-4c-5-1-6 6-2 6zm0 9l27 5c4 0 6-6 2-7l-27-5c-4 0-6 6-2 7zm0 9l27 5c4 1 6-6 2-7l-27-4c-4-1-6 6-2 6zm6 10l15 3c4 1 6-6 2-7l-15-2c-5-1-7 6-2 6z" fill="#fff"/><path d="M121 137c0 7-6 13-14 13H89a14 14 0 0 1-14-14V89c0-8 6-14 14-14h18c8 0 14 6 14 14v49z" fill="none" stroke="#fff" stroke-width="10" stroke-miterlimit="10"/></svg>