<svg xmlns="http://www.w3.org/2000/svg" width="361" height="361"><path d="M83.8 163l26.8 4.6c4.4.7 6.3-6 1.9-6.8l-26.8-4.5c-4.4-.8-6.3 6-1.9 6.7zm.3 9.6l26.8 4.6c4.4.8 6.3-6 1.8-6.8L86 166c-4.4-.8-6.3 6-1.9 6.7zm0 9.4l26.8 4.5c4.4.8 6.3-6 1.8-6.7L86 175.2c-4.4-.7-6.3 6-1.9 6.8zm5.7 10l15 2.5c4.4.8 6.3-6 1.9-6.8l-15-2.5c-4.4-.8-6.3 6-1.9 6.7z" fill="#fff"/><path d="M120.8 137c0 7.6-6.1 13.7-13.7 13.7H89a13.7 13.7 0 0 1-13.7-13.6V88.5c0-7.5 6.2-13.7 13.7-13.7h18.2c7.6 0 13.7 6.2 13.7 13.7v48.6z" fill="none" stroke="#fff" stroke-width="10" stroke-miterlimit="10"/><path d="M261.5 232.1c-.5 8.8-12.4 6.6-18.3 6.6h-8.5c-5.2 0-6-3.9-7-8l-6-26.3-17-74.2c-.6-2.6 4.5-5.3 6.8-5.3h43.4c5.9 0 6.6 5.2 6.6 9.7V232c0 6.5 10 6.5 10 0V131.5c0-9.2-7.7-16.6-16.8-16.6h-39c-6.7 0-13.3.7-17.6 6.8-6 8.4-1.2 19.5.9 28.5l18.5 81c.9 3.7 1.2 7.3 3.6 10.7 4.3 6 10.8 6.8 17.5 6.8h16.3c9.4 0 16-7.6 16.6-16.6.3-6.4-9.7-6.4-10 0zM277 76.6V285c0 9.7 15 9.7 15 0V76.8c0-9.7-15-9.8-15 0zm-26.2-1.8V94c0 4.5 7 4.5 7 0V74.8c0-4.5-7-4.5-7 0zm-24.6.1l2.4 19c.5 4.5 7.5 4.5 7 0l-2.4-19c-.5-4.4-7.5-4.5-7 0zm-25 .7l5.6 18.3c1.3 4.3 8 2.5 6.7-1.8L208 73.7c-1.3-4.3-8-2.4-6.7 1.9zm57 213v-19c0-4.6-7-4.6-7 0v19c0 4.6 7 4.6 7 0zm-24.6 0l2.3-19c.6-4.5-6.4-4.4-7 0l-2.3 19c-.6 4.5 6.4 4.4 7 0z" fill="#fff"/><path d="M270.8 151.7v58.4c0 4.6 7 4.6 7 0v-58.4c0-4.5-7-4.5-7 0z" fill="#fff"/></svg>