<svg xmlns="http://www.w3.org/2000/svg" width="361" height="361"><path d="M163 229.1c0-12.6-.4-132.4.5-132.4h56c2.6 0 3.2-.4 3.2 2.2v130.2c0 4.5 7 4.5 7 0v-112c0-6.7 1-14.2 0-21-1.1-6.4-6.7-6.4-11.8-6.4h-44c-3.7 0-7.7-.5-11.4 0-8.9 1.5-6.4 14.8-6.4 21.2v118.2c0 4.6 7 4.6 7 0z" fill="#fff"/><path d="M218.8 165.1h6.4c4.5 0 4.5-7 0-7h-6.4c-4.5 0-4.5 7 0 7zM121 233.5h169.3c2 0 2-3 0-3H121c-2 0-2 3 0 3zm105.2-6.3h64.4c2 0 2-3 0-3h-64.4c-1.9 0-1.9 3 0 3zm-105.2 0h39.8c2 0 2-3 0-3H121c-2 0-2 3 0 3zm32.3 25.5H263c2 0 2-3 0-3H153.3c-1.9 0-1.9 3 0 3zm7.7 39.1h116.2c1.9 0 1.9-3 0-3H161c-2 0-2 3 0 3zM140.2 257h9.5c1.9 0 1.9-3 0-3h-9.5c-2 0-2 3 0 3z" fill="#fff"/><path d="M140.2 252.7h9.5c1.9 0 1.9-3 0-3h-9.5c-2 0-2 3 0 3zm2 13h9.5c1.9 0 1.9-3 0-3h-9.5c-2 0-2 3 0 3zm0-4.3h9.5c1.9 0 1.9-3 0-3h-9.5c-2 0-2 3 0 3zm0 13h9.5c1.9 0 1.9-3 0-3h-9.5c-2 0-2 3 0 3zm1-4.3h9.5c1.9 0 1.9-3 0-3h-9.5c-2 0-2 3 0 3zm2 13h9.5c1.9 0 1.9-3 0-3h-9.5c-2 0-2 3 0 3zm-2-4.3h9.5c1.9 0 1.9-3 0-3h-9.5c-2 0-2 3 0 3zm4 13h9.5c1.9 0 1.9-3 0-3h-9.5c-2 0-2 3 0 3zm-1-4.3h9.5c1.9 0 1.9-3 0-3h-9.5c-2 0-2 3 0 3zM269.3 257h9.5c2 0 2-3 0-3h-9.5c-1.9 0-1.9 3 0 3zm-2-4.3h9.5c2 0 2-3 0-3h-9.5c-1.9 0-1.9 3 0 3zm6 13h9.5c2 0 2-3 0-3h-9.5c-1.9 0-1.9 3 0 3zm-1-4.3h9.5c2 0 2-3 0-3h-9.5c-1.9 0-1.9 3 0 3zm4 13h9.5c2 0 2-3 0-3h-9.5c-1.9 0-1.9 3 0 3zm-2-4.3h9.5c2 0 2-3 0-3h-9.5c-1.9 0-1.9 3 0 3zm5 13h9.5c2 0 2-3 0-3h-9.5c-1.9 0-1.9 3 0 3zm-2-4.3h9.5c2 0 2-3 0-3h-9.5c-1.9 0-1.9 3 0 3zm4 13h9.5c2 0 2-3 0-3h-9.5c-1.9 0-1.9 3 0 3zm-1-4.3h9.5c2 0 2-3 0-3h-9.5c-1.9 0-1.9 3 0 3zm-123.6-215h134c1.9 0 1.9-3 0-3h-134c-2 0-2 3 0 3zM84 163.2l26.7 4.6c4.4.7 6.3-6 1.9-6.8l-26.8-4.6c-4.4-.7-6.3 6-1.8 6.8zm.3 9.6l26.7 4.6c4.4.7 6.3-6 1.9-6.8l-26.8-4.5c-4.4-.8-6.3 6-1.8 6.7zm0 9.3l26.7 4.6c4.4.8 6.3-6 1.9-6.7l-26.8-4.6c-4.4-.8-6.3 6-1.8 6.7zm5.7 10l15 2.6c4.4.7 6.3-6 1.8-6.8l-15-2.5c-4.4-.8-6.3 6-1.8 6.7z" fill="#fff"/><path d="M121 137.3c0 7.5-6 13.6-13.6 13.6H89.2a13.7 13.7 0 0 1-13.7-13.7V88.8C75.5 81 81.6 75 89.2 75h18.2c7.5 0 13.6 6.1 13.6 13.7v48.6z" fill="none" stroke="#fff" stroke-width="10" stroke-miterlimit="10"/></svg>