<svg xmlns="http://www.w3.org/2000/svg" width="361" height="361"><path d="M84 163l27 5c4 0 6-6 1-7l-26-5c-5-1-7 6-2 7zm0 10l27 4c4 1 6-6 2-7l-27-4c-4-1-6 6-2 7zm0 9l27 5c4 0 6-6 2-7l-27-5c-4-1-6 6-2 7zm6 10l15 3c4 0 6-6 2-7l-15-3c-5-1-7 6-2 7z" fill="#fff"/><path d="M121 137c0 8-6 14-14 14H89a14 14 0 0 1-14-14V89c0-8 6-14 14-14h18c8 0 14 6 14 13v49z" fill="none" stroke="#fff" stroke-width="10" stroke-miterlimit="10"/><path d="M135 204l99-40m53 40l-53-40" fill="none" stroke="#fff" stroke-width="10" stroke-linecap="round" stroke-miterlimit="10"/><g stroke="#fff" stroke-width="7" stroke-linecap="round" stroke-linejoin="round" stroke-miterlimit="10"><path d="M262 256c0 20 15 32 8 32h-18c-5 0-15 1-16-2-2-6 5-20 7-23l1-6v-8c2-2 2-7 2-8 1-3-4-9-2-14 2-7 8-6 12-6 5 0 8 7 12 18 2 7-6 7-6 17zm-103-23l-4 48c0 5 3 7 4 7h12c5 0 7 1 8-2 3-6-1-29-1-32l1-6-2-5-2-10 2-11c-1-7-5-9-10-9-5 1-7 5-7 8l-1 12z" fill="none"/><path d="M213 267c0-2-2-4-4-4s-4 2-4 4h-7l10 13h2l10-13h-7zm10 3l-20 18m-7-18l20 18" fill="#fff"/></g></svg>