<svg xmlns="http://www.w3.org/2000/svg" width="361" height="361"><path d="M84 163l27 5c4 0 6-6 1-7l-26-5c-5-1-7 6-2 7zm0 10l27 4c4 1 6-6 2-7l-27-4c-4-1-6 6-2 7zm0 9l27 5c4 0 6-6 2-7l-27-5c-4-1-6 6-2 7zm6 10l15 3c4 0 6-6 2-7l-15-3c-5-1-7 6-2 7z" fill="#fff"/><path d="M121 137c0 8-6 14-14 14H89a14 14 0 0 1-14-14V89c0-8 6-14 14-14h18c8 0 14 6 14 13v49z" fill="none" stroke="#fff" stroke-width="10" stroke-miterlimit="10"/><path d="M277 77v208c0 10 15 10 15 0V77c0-10-15-10-15 0z" fill="#fff"/><path d="M269 204v45c0 7 10 7 10 0v-45c0-7-10-7-10 0z" fill="#fff"/><path d="M254 193c0 9-9 16-19 16h-26c-10 0-19-7-19-16v-57c0-9 9-16 19-16h26c10 0 19 7 19 16v57z" fill="none" stroke="#fff" stroke-width="10" stroke-miterlimit="10"/><path d="M216 233h56c10 0 10-15 0-15h-56c-10 0-10 15 0 15z" fill="#fff"/><path d="M215 212v9a8 8 0 0 0 7 8 8 8 0 0 0 8-8v-9a8 8 0 0 0-8-8 8 8 0 0 0-7 8z" fill="#fff"/></svg>