<svg xmlns="http://www.w3.org/2000/svg" width="361" height="361"><g fill="#fff"><path d="M199.7 281.3a5 5 0 0 1-5 5h-9.5a5 5 0 0 1-5-5v-9a5 5 0 0 1 5-5h9.5a5 5 0 0 1 5 5v9zm89 0a5 5 0 0 1-4.9 5h-9.5a5 5 0 0 1-5-5v-9a5 5 0 0 1 5-5h9.5a5 5 0 0 1 5 5v9zm-11.4-37.1h-86c-5 0-8.9-5-8.9-11.3v-.5l4-15.3c.3-5.8 6.2-10.7 11.1-10.7H271c4.9 0 10.8 4.9 11.1 10.7l4 15.3v.5c0 6.3-3.9 11.3-8.8 11.3zm-85.7-8.3H277a4.5 4.5 0 0 0 .8-2.5l-3.9-15.2v-.5c0-1.3-2-3-3-3h-73.4c-.8 0-2.9 1.7-2.9 3v.5l-3.9 15.2c.1 1.4.6 2.2.9 2.5z"/><path d="M292.3 267c0 2.5-2.3 4.4-5 4.4h-106c-2.8 0-5.1-2-5.1-4.3v-22.9c0-2.4 2.3-4.4 5.1-4.4h105.8c2.8 0 5.1 2 5.1 4.4v22.9zm-88.7-17.6c0-2.2-2.2-4-5-4h-14.2c-2.7 0-5 1.8-5 4v4c0 2.1 2.3 3.9 5 3.9h14.2c2.8 0 5-1.8 5-3.9v-4zm85.4 0c0-2.2-2.3-4-5-4h-14.2c-2.8 0-5 1.8-5 4v4c0 2.1 2.2 3.9 5 3.9H284c2.7 0 5-1.8 5-3.9v-4zm-33.2 3.4c0-4.2-2.3-7.5-5-7.5h-33.4c-2.7 0-5 3.3-5 7.5v4.7c0 4.2 2.3 7.5 5 7.5h33.4c2.7 0 5-3.3 5-7.5v-4.7z"/><path d="M206.9 247.5h54.4v8.3H207zm.8 10.7h54.5v8.3h-54.5z"/></g><path d="M151 174.3v111.8c0 6.5 10 6.5 10 0V174.3c0-6.5-10-6.5-10 0z" fill="#fff"/><path d="M287.2 163.4h-135c.4 0 .2-5.3.2-6.4 0-1.4-.6-1 .6-1h134.2c6.5 0 6.5-10 0-10h-135c-9.9 0-9.8 10-9.8 17.1 0 6.4 4.9 10.4 11 10.4h28l90.9-.1h15c6.4 0 6.4-10 0-10z" fill="#fff"/><path d="M285.3 175.2c0-.2 1.5 0-.5 0H158.7c-.8 0 .7 1.6.7.2V173c0-2 .3-.5-1-.5H286c1 0-.7 0-.7-.8v4.5c0 4.5 7 4.5 7 0 0-5-.1-10.7-6.6-10.7H159.2c-6.4 0-6.8 5.4-6.8 10.4s4.3 6.2 8.2 6.2h118.7c5 0 11.1 1.1 12.8-5 1.1-4.4-5.6-6.2-6.8-1.9zM84.1 162.5l26.8 4.6c4.4.7 6.2-6 1.8-6.8L86 155.8c-4.5-.8-6.3 6-1.9 6.7zm.3 9.6l26.7 4.6c4.4.8 6.3-6 1.9-6.7l-26.8-4.6c-4.4-.8-6.3 6-1.8 6.7zm0 9.4L111 186c4.4.8 6.3-6 1.9-6.7l-26.8-4.6c-4.4-.7-6.3 6-1.8 6.8zm5.7 10l15 2.5c4.4.8 6.3-6 1.8-6.8l-15-2.5c-4.4-.8-6.3 6-1.8 6.7z" fill="#fff"/><path d="M121 136.6c0 7.5-6 13.6-13.6 13.6H89.2a13.7 13.7 0 0 1-13.7-13.6V88c0-7.5 6.1-13.7 13.7-13.7h18.2c7.5 0 13.6 6.2 13.6 13.7v48.6z" fill="none" stroke="#fff" stroke-width="10" stroke-miterlimit="10"/></svg>