<svg xmlns="http://www.w3.org/2000/svg" width="361" height="361"><path d="M83.8 163l26.8 4.6c4.4.7 6.3-6 1.9-6.8l-26.8-4.5c-4.4-.8-6.3 6-1.9 6.7zm.3 9.6l26.8 4.6c4.4.8 6.3-6 1.8-6.8L86 166c-4.4-.8-6.3 6-1.9 6.7zm0 9.4l26.8 4.5c4.4.8 6.3-6 1.8-6.7L86 175.2c-4.4-.7-6.3 6-1.9 6.8zm5.7 10l15 2.5c4.4.8 6.3-6 1.9-6.8l-15-2.5c-4.4-.8-6.3 6-1.9 6.7z" fill="#fff"/><path d="M120.8 137c0 7.6-6.1 13.7-13.7 13.7H89a13.7 13.7 0 0 1-13.7-13.6V88.5c0-7.5 6.2-13.7 13.7-13.7h18.2c7.6 0 13.7 6.2 13.7 13.7v48.6z" fill="none" stroke="#fff" stroke-width="10" stroke-miterlimit="10"/><path d="M134.8 203.7l99.1-40m53.2 40.2l-52.7-40.2" fill="none" stroke="#fff" stroke-width="10" stroke-linecap="round" stroke-miterlimit="10"/><g stroke="#fff" stroke-width="7" stroke-linecap="round" stroke-linejoin="round" stroke-miterlimit="10"><path d="M262.2 256.2c-.3 19.4 14.6 32.1 7.4 32.1l-17.2-.1c-5.3-.2-15.1 1-16.3-2.2-2.4-6.2 5.4-19.6 6.5-22.8 1.1-3.7 1.9-3 1-5.7-.9-2.6-.5-6.7.8-8.5 1.5-2 1.7-6.6 2-8 .5-2.7-4.2-9-2.8-13.8 2-7.3 8.8-6.5 12.6-6.5 5 0 7.7 7.8 11.4 18.3 2.6 7.2-5.2 6.5-5.4 17.2zm-103-23.5c-.5 2.6-4.3 43-4.5 48.5-.1 5.2 3 7.1 4.8 7.1l11.2-.1c5.3-.2 7.5.9 8.7-2.4 2.3-6.2-1.7-28.4-1.7-31.9 0-2.2 1.4-3.6 1-6.2-.3-2.1-1.7-3.1-2.1-5.2l-1.5-10c-.5-2.7 2.4-5.2 1.6-10.5-1-6.7-4.2-9.2-9.6-8.7-5 .5-6.8 4.6-7.5 7.9-.9 3.6.5 7.2-.4 11.5z" fill="none"/><path d="M213.1 267.3v-.6c0-1.8-1.7-3.3-3.8-3.3s-3.9 1.5-3.9 3.3v.6h-7l10 12.5h1.7l10-12.5h-7zm9.8 2.8l-20 17.9m-7.2-17.9l20 17.9" fill="#fff"/></g></svg>