<svg xmlns="http://www.w3.org/2000/svg" width="361" height="361"><path d="M75 282h42c7 0 7-10 0-10H75c-7 0-7 10 0 10zm0-14h24c7 0 7-10 1-10H75c-7 0-7 10 0 10zm0-27h24c7 0 7-10 1-10H75c-7 0-7 10 0 10zm0-13h24c7 0 7-10 1-10H75c-7 0-7 10 0 10zm0-14h24c7 0 7-10 1-10H75c-7 0-7 10 0 10zm0-13h24c7 0 7-10 1-10H75c-7 0-7 10 0 10zm0-14h42c7 0 7-10 0-10H75c-7 0-7 10 0 10zm0-13h24c7 0 7-10 1-10H75c-7 0-7 10 0 10zm0-27h24c7 0 7-10 1-10H75c-7 0-7 10 0 10zm166 112l-1 9-3 6-5 4a17 17 0 0 1-7 1 19 19 0 0 1-8-2v15h-11v-50a42 42 0 0 1 4-1 58 58 0 0 1 4-1 79 79 0 0 1 4 0 49 49 0 0 1 4 0l8 1c3 1 5 2 6 4a17 17 0 0 1 4 6 24 24 0 0 1 1 8zm-11 1c0-3 0-6-2-8-1-2-3-3-6-3h-3a23 23 0 0 0-2 0v20l3 1h3c5 0 8-3 8-10zm50-31h12v50h-12v-22h-18v21h-12v-49h12v19h19v-19zM75 160h25c6 0 6-10 0-10H75c-7 0-7 10 0 10zm0-27h25c6 0 6-10 0-10H75c-7 0-7 10 0 10zm0-13h25c6 0 6-10 0-10H75c-7 0-7 10 0 10zm0-14h25c6 0 6-10 0-10H75c-7 0-7 10 0 10zm0-13h42c7 0 7-10 0-10H75c-7 0-7 10 0 10zm87 182c0 6-1 10-3 13s-5 4-9 4-7-1-9-4-3-7-3-13l1-7a16 16 0 0 1 2-6 11 11 0 0 1 4-3 11 11 0 0 1 5-1c4 0 7 1 9 4a22 22 0 0 1 3 13zm-7 0l-1-5a17 17 0 0 0 0-3 6 6 0 0 0-2-2 3 3 0 0 0-2-1l-2 1a6 6 0 0 0-2 2v3a42 42 0 0 0 0 13 6 6 0 0 0 2 2 4 4 0 0 0 4 0 6 6 0 0 0 2-2 40 40 0 0 0 1-8zm-12-70l1-8a70 70 0 0 1 3-7 63 63 0 0 1 3-7 43 43 0 0 1 3-6h-15v-6h24v5a32 32 0 0 0-4 5 54 54 0 0 0-3 7 62 62 0 0 0-3 8 42 42 0 0 0-2 8h-7zM126 76a49 49 0 0 0 3-1 35 35 0 0 0 3-2 43 43 0 0 0 3-2 19 19 0 0 0 2-2h5v33h-7V78a22 22 0 0 1-3 2 42 42 0 0 1-4 2l-2-6zm47-7v20h3v6h-3v7h-7v-7h-15v-5l3-5a94 94 0 0 1 7-11 60 60 0 0 1 5-5h6zm-7 9a332 332 0 0 0-4 5 37 37 0 0 0-4 6h8V78zM75 255h24c7 0 7-10 1-10H75c-7 0-7 10 0 10z" fill="#fff"/></svg>