<svg xmlns="http://www.w3.org/2000/svg" width="361" height="361"><path d="M255.5 179.2a74.2 74.2 0 0 0-27.8-57.5 74.3 74.3 0 0 0-63.2-13.8 73.8 73.8 0 0 0-48.8 40 74.3 74.3 0 0 0 1.1 64.9 74.2 74.2 0 0 0 82.8 37.6 74.1 74.1 0 0 0 55.9-71.2c0-6.5-10-6.5-10 0a64.3 64.3 0 0 1-31.4 54.7 63.8 63.8 0 0 1-64 0 63.9 63.9 0 0 1-31.4-54.7 63.8 63.8 0 0 1 31.4-54.8 63.8 63.8 0 0 1 64 0 63.9 63.9 0 0 1 31.4 54.8c0 6.4 10 6.4 10 0z" fill="#fff"/><path d="M162.3 111.8l-4.8-13.6c-1.5-4.3-8.3-2.4-6.8 1.8l4.9 13.7c1.5 4.2 8.2 2.4 6.7-1.9zm50.6 144l-4-11.2c-1.4-4.2-8.2-2.4-6.7 2l4 11c1.5 4.3 8.2 2.4 6.7-1.8z" fill="#fff"/><path d="M152.7 95.5a89.5 89.5 0 0 0-56.1 106 89.3 89.3 0 0 0 114.8 60.8c4.2-1.4 2.4-8.2-1.9-6.7a82.3 82.3 0 0 1-104.1-49.2 82.2 82.2 0 0 1 49.1-104.1c4.2-1.5 2.4-8.3-1.8-6.8z" fill="#fff"/><path d="M167.2 262.4v22.8c0 4.5 7 4.5 7 0v-22.8c0-4.5-7-4.5-7 0z" fill="#fff"/><path d="M139.8 292.2h60.7c6.5 0 6.5-10 0-10h-60.7c-6.5 0-6.5 10 0 10z" fill="#fff"/></svg>