<svg xmlns="http://www.w3.org/2000/svg" width="361" height="361"><path d="M80.5 77.2H288c4.5 0 4.5-7 0-7H80.5c-4.5 0-4.5 7 0 7zm0 9h20.7c4.5 0 4.5-7 0-7H80.5c-4.5 0-4.5 7 0 7zm37.4 0h20.6c4.6 0 4.6-7 0-7H118c-4.5 0-4.5 7 0 7zm37.3 0H176c4.5 0 4.5-7 0-7h-20.7c-4.5 0-4.5 7 0 7zm37.4 0h20.7c4.5 0 4.5-7 0-7h-20.7c-4.5 0-4.5 7 0 7zm37.4 0h20.7c4.5 0 4.5-7 0-7H230c-4.5 0-4.5 7 0 7zM69.8 71.6v135c0 1.9 3 1.9 3 0v-135c0-2-3-2-3 0zM267.4 86H288c4.5 0 4.5-7 0-7h-20.7c-4.5 0-4.5 7 0 7zM80 245.5a17.8 17.8 0 0 0 2-1.3 24.9 24.9 0 0 0 2-1.8 27.6 27.6 0 0 0 1.8-2 13.6 13.6 0 0 0 1.4-1.9h3.4V274h-4.4v-28.4a13.7 13.7 0 0 1-2 1.7 26.5 26.5 0 0 1-2.4 1.5l-1.8-3.2zm46-3.5l-3.5.8a8 8 0 0 0-2.9 1.9 9.7 9.7 0 0 0-2 3.3 20.7 20.7 0 0 0-1.3 5 10.8 10.8 0 0 1 2-.6 9.4 9.4 0 0 1 1.9-.2c2.4 0 4.3 1 5.7 2.9 1.3 1.9 2 4.6 2 8 0 3.5-.6 6.4-2 8.4s-3.2 3.1-6 3.1a7.9 7.9 0 0 1-3.6-.8 6.4 6.4 0 0 1-2.7-2.7 15.6 15.6 0 0 1-1.5-4.9 43.2 43.2 0 0 1 .2-14.8c.5-2.4 1.3-4.6 2.4-6.5a13.9 13.9 0 0 1 4.3-4.6 12.6 12.6 0 0 1 6.6-2l.5 3.7zm-6.9 13.8c-.5 0-1 0-1.6.2a9 9 0 0 0-1.5.7v2.6a70.3 70.3 0 0 0 .6 8.2 6.3 6.3 0 0 0 1.2 2.5c.5.7 1.2 1 2 1 1.4 0 2.3-.7 2.9-2.1.5-1.4.8-3.3.8-5.7a13 13 0 0 0-1-5.6 3.5 3.5 0 0 0-3.4-1.8zm14.7-10.3a17.8 17.8 0 0 0 2-1.3 24.9 24.9 0 0 0 2-1.8 27.6 27.6 0 0 0 1.8-2 13.6 13.6 0 0 0 1.5-1.9h3.3V274H140v-28.4a13.7 13.7 0 0 1-2 1.7 26.5 26.5 0 0 1-2.4 1.5l-1.8-3.2zm37.4.8c0 2-.5 3.8-1.5 5.4a18.9 18.9 0 0 1-3.4 4.2 16.8 16.8 0 0 1 3.8 3.8 8.8 8.8 0 0 1 1.5 5.3c0 1.6-.2 3-.7 4.2a9 9 0 0 1-2 3c-.7.8-1.6 1.4-2.7 1.8s-2 .6-3.1.6a8.6 8.6 0 0 1-3.5-.7 8 8 0 0 1-2.7-1.8 8.3 8.3 0 0 1-1.7-3 10 10 0 0 1-.6-3.6c0-2 .4-4 1.4-5.6a15.2 15.2 0 0 1 3.7-4.4 11 11 0 0 1-4.4-9c0-1.6.3-3 .8-4a8 8 0 0 1 1.8-2.7 7.1 7.1 0 0 1 2.6-1.6 9 9 0 0 1 2.9-.5c1 0 1.9.2 2.8.5a7 7 0 0 1 2.5 1.5c.8.7 1.4 1.6 1.8 2.7.5 1.1.7 2.4.7 4zm-3.8 19a7 7 0 0 0-.5-2.5 9.4 9.4 0 0 0-1.1-2.1 11.8 11.8 0 0 0-1.6-1.8 23 23 0 0 0-1.9-1.5 12 12 0 0 0-2.4 3.2 9.8 9.8 0 0 0-1 4.6c0 1.8.4 3.3 1.1 4.4a3.7 3.7 0 0 0 6.1.1c.9-1 1.3-2.5 1.3-4.4zm-7.8-19.4c0 1 .1 2 .3 2.9a7.7 7.7 0 0 0 2 3.9c.5.5 1 1 1.7 1.4a14.2 14.2 0 0 0 2.3-3.1 9 9 0 0 0 1-4.4c0-2-.4-3.5-1.1-4.3a3.2 3.2 0 0 0-2.5-1.2l-1.2.2a2.9 2.9 0 0 0-1.2.8c-.4.3-.7.8-1 1.4s-.3 1.4-.3 2.4zm27.1 10.3c0-3.5.1-6.4.5-8.8.3-2.3.7-4.2 1.4-5.7a7 7 0 0 1 2.6-3 7.2 7.2 0 0 1 3.8-1c1.5 0 2.7.3 3.8 1a6.9 6.9 0 0 1 2.6 3c.7 1.5 1.2 3.4 1.5 5.7a70 70 0 0 1 0 17.5 19.2 19.2 0 0 1-1.5 5.7 6.9 6.9 0 0 1-2.6 3.1 7.2 7.2 0 0 1-3.8 1 7.2 7.2 0 0 1-3.8-1 7 7 0 0 1-2.6-3 19.2 19.2 0 0 1-1.5-5.8 71 71 0 0 1-.4-8.7zm12 0c0-2.8 0-5.1-.2-7a26.7 26.7 0 0 0-.6-4.5 5.3 5.3 0 0 0-1.2-2.4c-.4-.5-1-.7-1.7-.7s-1.2.2-1.7.7c-.5.5-.9 1.3-1.2 2.4s-.5 2.6-.6 4.5a96.8 96.8 0 0 0 .6 18.5 6 6 0 0 0 1.2 2.4c.5.4 1 .7 1.7.7s1.3-.3 1.7-.7c.5-.5.9-1.3 1.2-2.4a103.4 103.4 0 0 0 .8-11.5zm20.4-1.3c1.7.6 3 1.7 4 3.2.9 1.5 1.3 3.5 1.3 6 0 3.3-.8 5.8-2.3 7.7s-4 2.8-7.2 2.8a12.2 12.2 0 0 1-6.8-2l1.2-3.6c.8.5 1.6 1 2.5 1.3s1.7.5 2.7.5c1.7 0 3-.6 4-1.6s1.5-2.8 1.5-5.2c0-2.3-.5-4-1.6-5.3-1-1.2-2.8-1.8-5.1-1.8h-1.4v-3.7h1.2c2 0 3.5-.5 4.5-1.6s1.5-2.6 1.5-4.5-.4-3.2-1.2-4.1a4 4 0 0 0-3.1-1.4 6.4 6.4 0 0 0-2.5.5 7.6 7.6 0 0 0-2 1.3l-1.8-3.2a8.6 8.6 0 0 1 3.1-1.9 11.2 11.2 0 0 1 3.6-.6c2.7 0 4.7.8 6.1 2.5s2.2 3.9 2.2 6.6a9.8 9.8 0 0 1-1.2 5 7.7 7.7 0 0 1-3.2 3zm22 0c1.6.6 3 1.7 3.9 3.2.9 1.5 1.4 3.5 1.4 6 0 3.3-.8 5.8-2.4 7.7s-4 2.8-7.2 2.8a12.2 12.2 0 0 1-6.8-2l1.2-3.6c.8.5 1.6 1 2.5 1.3s1.8.5 2.7.5c1.8 0 3.1-.6 4-1.6s1.5-2.8 1.5-5.2c0-2.3-.5-4-1.6-5.3-1-1.2-2.8-1.8-5.1-1.8h-1.3v-3.7h1.1c2 0 3.6-.5 4.5-1.6 1-1.1 1.5-2.6 1.5-4.5s-.4-3.2-1.2-4.1a4 4 0 0 0-3-1.4 6.4 6.4 0 0 0-2.6.5 7.6 7.6 0 0 0-2 1.3l-1.8-3.2a8.6 8.6 0 0 1 3.1-1.9 11.2 11.2 0 0 1 3.6-.6c2.7 0 4.7.8 6.2 2.5s2.1 3.9 2.1 6.6a9.8 9.8 0 0 1-1.1 5 7.7 7.7 0 0 1-3.3 3zm17.1 13.2l.1.8v.7a21 21 0 0 1-1 6.3 29 29 0 0 1-2.4 5.8l-3.1-.9a29.2 29.2 0 0 0 2.1-10.3 27 27 0 0 0-.1-2.4h4.4zm7.9 2.2a15.6 15.6 0 0 0 3.6-.8c1.1-.4 2-1 3-1.8s1.5-2 2.1-3.3c.6-1.3 1-3 1.3-5a9.8 9.8 0 0 1-3.7.8c-2.5 0-4.4-1-5.8-3s-2-4.5-2-7.9c0-3.6.6-6.4 1.9-8.5 1.3-2 3.3-3 6-3a8 8 0 0 1 3.7.7 6.5 6.5 0 0 1 2.6 2.7c.7 1.3 1.3 2.9 1.6 5a44.2 44.2 0 0 1-.2 14.8 20.6 20.6 0 0 1-2.4 6.5 13.7 13.7 0 0 1-4.4 4.6 13.3 13.3 0 0 1-6.8 1.9l-.5-3.7zm7.3-13.7c1 0 2-.3 3-1v-1.2a91.5 91.5 0 0 0 0-5.8 19 19 0 0 0-.5-3.7 6.4 6.4 0 0 0-1.2-2.6 2.6 2.6 0 0 0-2.1-1c-1.3 0-2.3.8-2.8 2.2a17 17 0 0 0-.8 5.6c0 2.6.4 4.5 1.1 5.7s1.9 1.8 3.4 1.8z" fill="#fff"/><path d="M284.7 282.4c-.5 4.2-14.1 2.3-16.3 2.3H79.3c-3.8 0-2.6-6.6-2.6-8.6v-42.6c0-2.4.3-5 3.4-5h202c3.3 0 2.6 4.1 2.6 6v47.9c0 4.5 7 4.5 7 0v-36.5c0-8.3 2.9-24.5-9.8-24.5h-190c-5 0-11.5-1-16.4.7-6 2.2-5.8 8.4-5.8 13.6v42.9c0 5.6 1 12.1 8 13 5 .5 10.2 0 15.3 0h189c5.7 0 9-4 9.7-9.2.5-4.5-6.5-4.4-7 0z" fill="#fff"/><path d="M95.7 286a2 2 0 0 1-2 2H82.2a2 2 0 0 1-2-2v-5a2 2 0 0 1 2-2h11.5a2 2 0 0 1 2 2v5zm31.1 0a2 2 0 0 1-2 2h-11.5a2 2 0 0 1-2-2v-5a2 2 0 0 1 2-2h11.5a2 2 0 0 1 2 2v5zm23.1 0a2 2 0 0 1-2 2h-11.5a2 2 0 0 1-2-2v-5a2 2 0 0 1 2-2H148a2 2 0 0 1 2 2v5zm23.2 0a2 2 0 0 1-2 2h-11.5a2 2 0 0 1-2-2v-5a2 2 0 0 1 2-2H171a2 2 0 0 1 2 2v5zm28 0a2 2 0 0 1-2 2h-11.4a2 2 0 0 1-2-2v-5a2 2 0 0 1 2-2h11.5a2 2 0 0 1 2 2v5zm23.2 0a2 2 0 0 1-2 2h-11.5a2 2 0 0 1-2-2v-5a2 2 0 0 1 2-2h11.5a2 2 0 0 1 2 2v5zm23.1 0a2 2 0 0 1-2 2H234a2 2 0 0 1-2-2v-5a2 2 0 0 1 2-2h11.5a2 2 0 0 1 2 2v5zm33.8 0a2 2 0 0 1-2 2h-11.5a2 2 0 0 1-2-2v-5a2 2 0 0 1 2-2h11.5a2 2 0 0 1 2 2v5zM95.5 231.8a2 2 0 0 1-2 2H82a2 2 0 0 1-2-2v-5a2 2 0 0 1 2-2h11.5a2 2 0 0 1 2 2v5zm31.1 0a2 2 0 0 1-2 2h-11.5a2 2 0 0 1-2-2v-5a2 2 0 0 1 2-2h11.5a2 2 0 0 1 2 2v5zm23.2 0a2 2 0 0 1-2 2h-11.6a2 2 0 0 1-2-2v-5a2 2 0 0 1 2-2h11.6a2 2 0 0 1 2 2v5zm23 0a2 2 0 0 1-2 2h-11.4a2 2 0 0 1-2-2v-5a2 2 0 0 1 2-2h11.5a2 2 0 0 1 2 2v5zm28.2 0a2 2 0 0 1-2 2h-11.5a2 2 0 0 1-2-2v-5a2 2 0 0 1 2-2H199a2 2 0 0 1 2 2v5zm23.1 0a2 2 0 0 1-2 2h-11.5a2 2 0 0 1-2-2v-5a2 2 0 0 1 2-2h11.5a2 2 0 0 1 2 2v5zm23.2 0a2 2 0 0 1-2 2h-11.6a2 2 0 0 1-2-2v-5a2 2 0 0 1 2-2h11.6a2 2 0 0 1 2 2v5zm33.7 0a2 2 0 0 1-2 2h-11.5a2 2 0 0 1-2-2v-5a2 2 0 0 1 2-2H279a2 2 0 0 1 2 2v5zM73.2 150.6H289c2 0 2-3 0-3H73.2c-2 0-2 3 0 3z" fill="#fff"/><g fill="#fff"><path d="M134.3 181.3c3.6 8.7 8.9 23.8 20 24.8 5.8.5 10.3-6 13-10.2a153 153 0 0 0 16.2-42c2.5-8.6 4.8-17.2 7.8-25.7 2.7-7.6 5.8-15.3 10.2-22.2 2.5-4 5.5-8 9.7-4 7.2 7 10.7 18.9 14 28.1a251.2 251.2 0 0 1 6.1 20.4c1.2 4.3 8 2.5 6.8-1.9-2.9-11.3-17.4-68.9-37-52.9a46.6 46.6 0 0 0-11.3 17.5 207.5 207.5 0 0 0-8.5 23c-2.4 7.7-4.3 15.5-6.6 23.2a159 159 0 0 1-12.1 30.7c-1.6 2.9-4 7.4-7.3 8.8-6 2.4-12.8-15.8-14.3-19.4-1.7-4.1-8.5-2.3-6.8 1.8z"/><path d="M168 179.5a55.4 55.4 0 0 1-10.6 18c-2.5 2.6-4.4 1.3-6.6-.9-5-5.3-8-13.3-10.7-20a266.7 266.7 0 0 1-9.2-29c-3.3-12.3-19.8-73.6-40-48.4a97 97 0 0 0-13.9 29 251.7 251.7 0 0 0-6.2 20.4c-1 4.4 5.7 6.2 6.8 1.9 3-11.8 6.8-23.6 11.8-34.7 2-4.6 5.4-13.4 10.6-15.6 4.3-1.7 8.7 7.8 10.1 10.4 11.5 21.4 14.8 46.3 23.7 68.8 3.4 8.7 7.4 19 15.2 24.9 12.6 9.3 22.4-15.1 25.7-23 1.7-4.1-5-6-6.8-1.8zm73.4 1.4c3.5 8.6 9.8 26.3 22 24.6 6.5-1 11-9.6 13.7-14.7a190 190 0 0 0 14.5-40.7c1.1-4.4-5.6-6.3-6.7-1.9a238.7 238.7 0 0 1-10.1 30.8 55 55 0 0 1-10 17.7c-7.3 7.5-14.8-13.1-16.7-17.7-1.7-4-8.5-2.3-6.7 1.9z"/><path d="M275 179a55.3 55.3 0 0 1-10.4 18.1c-2.6 2.6-4.5 1.3-6.6-.9-5.2-5.3-8.1-13.3-10.8-20a266.2 266.2 0 0 1-9.2-29c-3.2-12.3-19.8-73.6-40-48.5-6.6 8.4-10.4 19.2-13.9 29.1a251.3 251.3 0 0 0-6.2 20.4c-1 4.4 5.7 6.2 6.8 1.9 3-11.8 6.8-23.6 11.8-34.7 2-4.7 5.4-13.5 10.6-15.6 4.3-1.7 8.7 7.7 10.1 10.4 11.5 21.4 14.9 46.3 23.7 68.8 3.4 8.7 7.4 19 15.2 24.8 12.6 9.4 22.4-15 25.7-22.9 1.7-4.2-5-6-6.8-1.9z"/></g></svg>