<svg xmlns="http://www.w3.org/2000/svg" width="361" height="361"><path fill="#fff" d="M110.2 175l-36 34.8 12.3-48.6z"/><path d="M107.6 172.4l-36 34.8 6.2 3.6L90 162.2l-5.4 2.2 23.8 13.7c4 2.4 7.8-4 3.7-6.3l-23.8-13.7c-2-1.2-4.8-.2-5.4 2.2l-12.2 48.5c-1 3.6 3.4 6.2 6 3.6l36.1-34.8c3.4-3.3-1.8-8.5-5.2-5.2zm60.9 114.5l-.3-93.7-7.5 4.3 116.9 88.7 6.7 5 2.5-9.3H163.5c-6.5 0-6.5 10 0 10h123.3c5.4 0 6.3-6.4 2.6-9.3l-117-88.6-6.7-5.1c-3.1-2.4-7.5.8-7.5 4.3l.3 93.7c0 6.5 10 6.5 10 0zm17.6-88.4l83.7 64.6c5.1 4 10.1-4.7 5-8.6l-83.7-64.6c-5-4-10 4.8-5 8.6z" fill="#fff"/><path d="M269.8 123.5a4.5 4.5 0 0 1-4.5 4.5h-25.7c-2.5 0-4.5-2-4.5-4.5V97.8c0-2.5 2-4.5 4.5-4.5h25.7c2.5 0 4.5 2 4.5 4.5v25.7z" fill="none" stroke="#fff" stroke-width="10" stroke-miterlimit="10"/><path d="M210.6 78.3l8 8a5 5 0 0 0 7 0 5 5 0 0 0 0-7.1l-8-8a5 5 0 0 0-7 0 5 5 0 0 0 0 7.1zm-34.2 37h36.8c6.4 0 6.4-10 0-10h-36.8c-6.5 0-6.5 10 0 10zm114.3 28l-6.5-6.6a5 5 0 0 0-7 0 5 5 0 0 0 0 7l6.5 6.6a5 5 0 0 0 7 0 5 5 0 0 0 0-7zM257 185.8V149c0-6.5-10-6.5-10 0v36.8c0 6.5 10 6.5 10 0zm-56.2-16.1l26-26c4.6-4.6-2.5-11.7-7-7.1l-26.1 26c-4.6 4.6 2.5 11.6 7 7zM109.3 74l-29.8 51.5c-4.8 8.4 8.1 15.9 13 7.5l29.8-51.5c4.9-8.3-8.1-15.8-13-7.5z" fill="#fff"/><path d="M84 136.5l31.5 6c9.4 1.7 13.4-12.8 4-14.6L88 122c-9.5-1.8-13.5 12.7-4 14.5z" fill="#fff"/><path d="M111 131.4L81 183c-4.8 8.4 8.1 15.9 13 7.5l29.8-51.5c4.9-8.3-8.1-15.8-13-7.5z" fill="#fff"/></svg>