<svg xmlns="http://www.w3.org/2000/svg" width="361" height="361"><path d="M131 212.8c.1-18.2 1.1-36.5 4.9-54.4 1.9-8.9 5.8-28.3 17.8-28.7 2 0 2-3 0-3-12.2.4-16.9 16-19.4 25.6a236.3 236.3 0 0 0-6.2 60.5c0 2 3 2 3 0z" fill="#fff"/><path d="M127 202.8a172 172 0 0 1 6.1-49c3-9.6 8.7-23.8 20.6-24.1 2 0 2-3 0-3-11.3.3-17.5 10.9-21.3 20.2-7.1 17.4-8.3 37.4-8.4 55.9 0 2 3 2 3 0zm-34-47.7c1.6-8 2.8-16.8 6.5-24.2 1.8-3.6 4.8-5.5 8-7.7 1.6-1.1.1-3.7-1.5-2.6-3.2 2.2-6.3 4.2-8.5 7.6-4.6 7.5-5.7 17.7-7.3 26-.4 2 2.5 2.8 2.9.9z" fill="#fff"/><path d="M88.7 148.9c1.3-6.7 2.5-14.8 7.1-20 2.9-3.3 7.5-4.2 11.4-5.6 1.8-.6 1-3.5-.8-2.9-4.3 1.6-8.8 2.6-12.2 5.8-5.6 5.3-7 14.8-8.4 21.9-.4 1.9 2.5 2.7 2.9.8zm-9.5-2c0-4.7 0-10-2.4-14.2a7.6 7.6 0 0 0-2.2-2.4 12.8 12.8 0 0 0-.8-.5c-.5-.3-.2-.4-.1.2-.3-2-3.3-2-3 0 .1 1.7 1.4 2 2.5 3 3.4 3 3 10 3 13.9 0 1.9 3 1.9 3 0z" fill="#fff"/><path d="M83 146.5c-.7-4-1.1-9.3-3.6-12.8-1.5-2-4.3-3-6.2-4.8-1.4-1.3-3.6.8-2.1 2.1 1.7 1.6 4 2.6 5.6 4.1.8.8 1.2 2.2 1.5 3.3.9 2.8 1.4 5.9 2 8.9.3 1.9 3.2 1 2.8-.8z" fill="#fff"/><path d="M83.7 146.4c0-6.8.3-14.3-2-20.9-1-3-3.3-5-5.5-7.3-1.4-1.4-3.5.7-2.1 2.1 2 2 4 3.8 5 6.6 2 6 1.6 13.2 1.6 19.5 0 2 3 2 3 0z" fill="#fff"/><path d="M86.6 149c0-7.2.3-15.5-2.6-22.2-1.7-3.9-4.7-6-7.8-8.6-1.5-1.2-3.6.9-2.2 2.1 2.6 2.1 5.2 3.9 6.8 6.8 3.4 6.2 2.7 15.1 2.8 22 0 1.8 3 1.8 3 0zm33.2 46c0-12-.3-24-1.8-36-.8-5.8-1.5-13-5-17.9-1.2-1.5-3.8 0-2.6 1.5 3.7 5.2 4.2 13 4.9 19 1.3 11.1 1.5 22.3 1.5 33.3 0 2 3 2 3 0z" fill="#fff"/><path d="M123.9 198c0-12.2-.8-24.5-3-36.5-1.2-6.8-2.9-15.7-8.2-20.7-1.4-1.3-3.5.8-2.1 2.1 5 4.7 6.2 13 7.5 19.4a203 203 0 0 1 2.8 35.7c0 2 3 2 3 0z" fill="#fff"/><g fill="#fff"><path d="M248.7 290.8h16c4.5 0 4.5-7 0-7h-16c-4.6 0-4.6 7 0 7zm-173-8h7c4.6 0 4.6-7 0-7h-7c-4.5 0-4.5 7 0 7zm26.6-3h7.7c4.5 0 4.5-7 0-7h-7.7c-4.5 0-4.5 7 0 7zm-3.5-11h15.3c4.5 0 4.5-7 0-7H98.8c-4.5 0-4.5 7 0 7zm25.3 23h6c1.9 0 3.5-1.6 3.5-3.5s-1.6-3.5-3.5-3.5h-6c-2 0-3.5 1.6-3.5 3.5s1.6 3.5 3.5 3.5z"/><path d="M276 282h-9c-4.5 0-4.5 7 0 7h9c4.6 0 4.6-7 0-7zM82 251.5h-6c-2 0-3.5 1.6-3.5 3.5s1.6 3.5 3.5 3.5h6c1.9 0 3.5-1.6 3.5-3.5s-1.6-3.5-3.5-3.5zM78.6 273h2c1.9 0 3.5-1.6 3.5-3.6s-1.6-3.4-3.5-3.4h-2c-2 0-3.5 1.5-3.5 3.4s1.6 3.6 3.5 3.6zm17 3.3h-2c-2 0-3.5 1.6-3.5 3.5s1.6 3.5 3.5 3.5h2c1.9 0 3.5-1.6 3.5-3.5s-1.6-3.5-3.5-3.5zm102.6 8.5h-6c-2 0-3.5 1.6-3.5 3.5s1.6 3.5 3.5 3.5h6c1.9 0 3.5-1.6 3.5-3.5s-1.6-3.5-3.5-3.5z"/><path d="M89.8 263.9h-5.5c-1.9 0-3.5 1.6-3.5 3.5s1.6 3.5 3.5 3.5h5.5c2 0 3.5-1.6 3.5-3.5s-1.6-3.5-3.5-3.5zm84.7 3h9c4.5 0 4.5-7 0-7h-9c-4.5 0-4.5 7 0 7zm33.4 25h16c4.5 0 4.5-7 0-7h-16c-4.5 0-4.5 7 0 7z"/><path d="M217.2 288h2c2 0 3.5-1.6 3.5-3.5s-1.6-3.5-3.5-3.5h-2c-1.9 0-3.5 1.6-3.5 3.5s1.6 3.5 3.5 3.5zm18.6-9.4h-6c-1.9 0-3.5 1.6-3.5 3.5s1.6 3.5 3.5 3.5h6c2 0 3.5-1.6 3.5-3.5s-1.6-3.5-3.5-3.5zm-98-6.7h-9c-4.4 0-4.4 7 0 7h9c4.6 0 4.6-7 0-7zm17-11.3h-16c-4.6 0-4.6 7 0 7h16c4.4 0 4.4-7 0-7zm-.4 11.2h-6c-1.9 0-3.5 1.6-3.5 3.5s1.6 3.5 3.5 3.5h6c2 0 3.5-1.6 3.5-3.5s-1.6-3.5-3.5-3.5z"/><path d="M141 265.8h-2c-1.8 0-3.4 1.6-3.4 3.5s1.6 3.5 3.5 3.5h2c1.9 0 3.5-1.6 3.5-3.5s-1.6-3.5-3.5-3.5zm5.9 26h6c2 0 3.5-1.6 3.5-3.5s-1.6-3.5-3.5-3.5h-6c-1.9 0-3.5 1.6-3.5 3.5s1.6 3.5 3.5 3.5zm-59-.2H103c4.5 0 4.5-7 0-7H87.8c-4.5 0-4.5 7 0 7z"/><path d="M126.6 271.8h6c1.9 0 3.5-1.6 3.5-3.5s-1.6-3.5-3.5-3.5h-6c-2 0-3.5 1.6-3.5 3.5s1.6 3.5 3.5 3.5zm53.6 4.8h9c4.6 0 4.6-7 0-7h-9c-4.5 0-4.5 7 0 7zm-18.6 15.2h16c4.5 0 4.5-7 0-7h-16c-4.5 0-4.5 7 0 7zm-4.7-8h6c2 0 3.5-1.6 3.5-3.5s-1.6-3.5-3.5-3.5h-6c-1.9 0-3.5 1.6-3.5 3.5s1.6 3.5 3.5 3.5z"/><path d="M175.3 287.6h2c1.8 0 3.4-1.6 3.4-3.5s-1.5-3.5-3.4-3.5h-2c-2 0-3.6 1.6-3.6 3.5s1.7 3.5 3.6 3.5zm-5.7-23h-11.2c-4.5 0-4.5 7 0 7h11.2c4.5 0 4.5-7 0-7zm24.4 14h-6c-1.9 0-3.5 1.6-3.5 3.5s1.6 3.5 3.5 3.5h6c1.9 0 3.5-1.6 3.5-3.5s-1.6-3.5-3.5-3.5zm-45.1 1.2h16c4.5 0 4.5-7 0-7h-16c-4.5 0-4.5 7 0 7zm-28.9-4.6h-9c-4.5 0-4.5 7 0 7h9c4.5 0 4.5-7 0-7zm5.6-14.7h-3.2c-2 0-3.5 1.6-3.5 3.5s1.6 3.5 3.5 3.5h3.2c2 0 3.5-1.6 3.5-3.5s-1.6-3.5-3.5-3.5zm-24 4.7h-6c-2 0-3.5 1.6-3.5 3.5s1.6 3.5 3.5 3.5h6c1.9 0 3.5-1.6 3.5-3.5s-1.6-3.5-3.5-3.5zM89.3 281h-5.5c-2 0-3.5 1.6-3.5 3.5s1.6 3.5 3.5 3.5h5.5c1.9 0 3.5-1.6 3.5-3.5s-1.6-3.5-3.5-3.5zm55.8 1h-2c-2 0-3.5 1.5-3.5 3.4s1.6 3.5 3.5 3.5h2c1.9 0 3.5-1.6 3.5-3.5S147 282 145 282z"/><path d="M148.8 271.7h-2c-1.9 0-3.5 1.6-3.5 3.5s1.6 3.5 3.5 3.5h2c2 0 3.5-1.6 3.5-3.5s-1.6-3.5-3.5-3.5zm-41.5 20h5.5c1.9 0 3.5-1.7 3.5-3.6s-1.6-3.5-3.5-3.5h-5.5c-2 0-3.5 1.6-3.5 3.5s1.6 3.5 3.5 3.5zm-33.8 0h2c2 0 3.5-1.7 3.5-3.6s-1.5-3.5-3.5-3.5h-2c-1.9 0-3.5 1.6-3.5 3.5s1.6 3.5 3.5 3.5zm21-9.7h2c2 0 3.6-1.6 3.6-3.6s-1.6-3.4-3.5-3.4h-2c-2 0-3.5 1.5-3.5 3.4s1.6 3.6 3.5 3.6z"/><path d="M105.8 272.9h-5.5c-1.9 0-3.5 1.6-3.5 3.5s1.6 3.5 3.5 3.5h5.5c2 0 3.5-1.6 3.5-3.5s-1.6-3.5-3.5-3.5zm147 10.4h2c2 0 3.5-1.6 3.5-3.5s-1.6-3.5-3.5-3.5h-2c-1.9 0-3.5 1.6-3.5 3.5s1.6 3.5 3.5 3.5zm-39.3-10.4h-11.2c-4.5 0-4.5 7 0 7h11.2c4.5 0 4.5-7 0-7zm-128.3-13h-9.9c-4.5 0-4.5 7 0 7h9.9c4.5 0 4.5-7 0-7zm57.3 20.7h-11.2c-4.5 0-4.5 7 0 7h11.2c4.5 0 4.5-7 0-7zm2.4-55.8h-9.8c-4.5 0-4.5 7 0 7h9.8c4.5 0 4.5-7 0-7zm-47.5 38h2c2 0 3.5-1.6 3.5-3.5s-1.6-3.5-3.5-3.5h-2c-1.9 0-3.5 1.6-3.5 3.5s1.6 3.5 3.5 3.5zm1.4-25H114c4.5 0 4.5-7 0-7H98.8c-4.5 0-4.5 7 0 7zm-13-18.3h-6c-2 0-3.5 1.6-3.5 3.5s1.6 3.5 3.5 3.5h6c1.9 0 3.5-1.6 3.5-3.5s-1.6-3.5-3.5-3.5zM78.5 247h2c2 0 3.5-1.6 3.5-3.5s-1.6-3.5-3.5-3.5h-2c-1.9 0-3.5 1.5-3.5 3.5s1.6 3.5 3.5 3.5zm11.3-14.1h-5.5c-2 0-3.5 1.6-3.5 3.5s1.6 3.5 3.5 3.5h5.5c1.9 0 3.5-1.6 3.5-3.5s-1.6-3.5-3.5-3.5zm48 8h-9c-4.5 0-4.5 7 0 7h9c4.5 0 4.5-7 0-7zm-21 .9h-16c-4.5 0-4.5 7 0 7h16c4.5 0 4.5-7 0-7zm37.5-1h-6c-1.9 0-3.5 1.6-3.5 3.5s1.6 3.5 3.5 3.5h6c2 0 3.5-1.6 3.5-3.5s-1.6-3.5-3.5-3.5z"/><path d="M141 234.8h-2c-2 0-3.5 1.6-3.5 3.5s1.6 3.5 3.5 3.5h2c1.9 0 3.5-1.6 3.5-3.5s-1.6-3.5-3.5-3.5z"/><path d="M126.5 240.8h6c1.9 0 3.5-1.6 3.5-3.5s-1.6-3.5-3.5-3.5h-6c-2 0-3.5 1.6-3.5 3.5s1.6 3.5 3.5 3.5z"/><path d="M130.9 227.5h-11.2c-4.5 0-4.5 7 0 7H131c4.5 0 4.5-7 0-7zm15.4 25h16c4.5 0 4.5-7 0-7h-16c-4.5 0-4.5 7 0 7zm5.4-19.6h-3.3c-1.9 0-3.5 1.6-3.5 3.5s1.6 3.5 3.5 3.5h3.3c1.9 0 3.5-1.6 3.5-3.5s-1.6-3.5-3.5-3.5zm-50.2 1.3h-6c-1.9 0-3.5 1.6-3.5 3.5s1.6 3.5 3.5 3.5h6c2 0 3.5-1.6 3.5-3.5s-1.6-3.5-3.5-3.5z"/><path d="M148.8 240.7h-2c-2 0-3.5 1.6-3.5 3.5s1.6 3.5 3.5 3.5h2c1.9 0 3.5-1.6 3.5-3.5s-1.6-3.5-3.5-3.5zM85 228h-9.8c-4.5 0-4.5 7 0 7H85c4.5 0 4.5-7 0-7zm15.3-9h-9.8c-4.5 0-4.5 7 0 7h9.8c4.5 0 4.5-7 0-7z"/><path d="M97.4 231.8h2c1.9 0 3.5-1.6 3.5-3.5s-1.6-3.5-3.5-3.5h-2c-2 0-3.5 1.6-3.5 3.5s1.6 3.5 3.5 3.5zm-21.7-16.7H91c4.5 0 4.5-7 0-7H75.7c-4.5 0-4.5 7 0 7zm15.8 27.7h-6c-1.9 0-3.5 1.6-3.5 3.5s1.6 3.5 3.5 3.5h6c2 0 3.5-1.6 3.5-3.5s-1.6-3.5-3.5-3.5zM88.3 264h2c2 0 3.5-1.6 3.5-3.5s-1.5-3.5-3.5-3.5h-2c-1.9 0-3.5 1.6-3.5 3.5s1.6 3.5 3.5 3.5z"/><path d="M94.7 202h-5.5c-2 0-3.5 1.6-3.5 3.5s1.6 3.5 3.5 3.5h5.5c1.9 0 3.5-1.6 3.5-3.5s-1.6-3.5-3.5-3.5zm20.1 16h-9c-4.5 0-4.5 7 0 7h9c4.5 0 4.5-7 0-7zm6.7-11.3h-16c-4.5 0-4.5 7 0 7h16c4.5 0 4.5-7 0-7zm9.8 11.3h-6c-1.9 0-3.5 1.5-3.5 3.4s1.6 3.5 3.5 3.5h6c2 0 3.5-1.5 3.5-3.5s-1.6-3.5-3.5-3.5z"/><path d="M118 212h-2c-2 0-3.5 1.6-3.5 3.5s1.6 3.5 3.5 3.5h2c1.9 0 3.5-1.6 3.5-3.5s-1.6-3.5-3.5-3.5z"/><path d="M103.5 218h6c1.9 0 3.5-1.6 3.5-3.5s-1.6-3.5-3.5-3.5h-6c-2 0-3.5 1.6-3.5 3.5s1.6 3.5 3.5 3.5zm15.6-20.2h-11.2c-4.5 0-4.5 7 0 7h11.2c4.5 0 4.5-7 0-7z"/><path d="M102.5 206.7h-3.2c-1.9 0-3.5 1.6-3.5 3.5s1.6 3.5 3.5 3.5h3.3c1.9 0 3.5-1.6 3.5-3.5s-1.6-3.5-3.5-3.5zm-22 5.6h-6c-1.9 0-3.5 1.6-3.5 3.5s1.6 3.5 3.5 3.5h6c1.9 0 3.5-1.6 3.5-3.5s-1.6-3.5-3.5-3.5zm45.3 5.6h-2c-2 0-3.5 1.6-3.5 3.5s1.5 3.5 3.5 3.5h2c1.9 0 3.5-1.6 3.5-3.5s-1.7-3.5-3.6-3.5zm-24.3 31.5h-9.8c-4.6 0-4.6 7 0 7h9.8c4.5 0 4.5-7 0-7zm-18.2-53.6h-8.2c-4.5 0-4.5 7 0 7h8.2c4.5 0 4.5-7 0-7z"/><path d="M73.4 209h2c1.9 0 3.5-1.6 3.5-3.5s-1.6-3.5-3.5-3.5h-2c-2 0-3.5 1.6-3.5 3.5s1.5 3.5 3.5 3.5zm15.1-23.3H73.3c-4.5 0-4.5 7 0 7h15.2c4.5 0 4.5-7 0-7zm19 17.3h6c1.9 0 3.5-1.6 3.5-3.5s-1.6-3.5-3.5-3.5h-6c-2 0-3.5 1.6-3.5 3.5s1.6 3.5 3.5 3.5zm-4-25.8h-2c-1.8 0-3.4 1.6-3.4 3.5s1.6 3.5 3.5 3.5h2c1.9 0 3.5-1.6 3.5-3.5s-1.6-3.5-3.5-3.5z"/><path d="M99.5 190.7h5.5c2 0 3.5-1.6 3.5-3.5s-1.6-3.5-3.5-3.5h-5.5c-1.9 0-3.5 1.6-3.5 3.5s1.6 3.5 3.5 3.5zm-13.4-22h9c4.5 0 4.5-7 0-7h-9c-4.5 0-4.5 7 0 7zm-12 13.5h10.1c4.5 0 4.5-7 0-7h-10c-4.6 0-4.6 7 0 7zm-.7-25.7h6c2 0 3.5-1.6 3.5-3.5s-1.6-3.5-3.5-3.5h-6c-1.9 0-3.5 1.6-3.5 3.5s1.6 3.5 3.5 3.5z"/><path d="M82.9 175h2c1.9 0 3.5-1.7 3.5-3.6s-1.6-3.5-3.5-3.5h-2c-2 0-3.5 1.6-3.5 3.5s1.6 3.5 3.5 3.5z"/><path d="M97.4 169h-6c-2 0-3.5 1.5-3.5 3.4s1.6 3.5 3.5 3.5h6c1.9 0 3.5-1.6 3.5-3.5s-1.6-3.5-3.5-3.5zm-22.1-8.3h11.2c4.5 0 4.5-7 0-7H75.3c-4.5 0-4.5 7 0 7z"/><path d="M98.3 180.2h3.3c1.9 0 3.5-1.6 3.5-3.5s-1.6-3.5-3.5-3.5h-3.3c-1.9 0-3.5 1.6-3.5 3.5s1.6 3.5 3.5 3.5zm-10.5 9.3h6c1.9 0 3.5-1.6 3.5-3.5s-1.6-3.5-3.5-3.5h-6c-2 0-3.5 1.5-3.5 3.5s1.6 3.5 3.5 3.5zM74 169h2c2 0 3.5-1.6 3.5-3.5S78 162 76.1 162h-2c-1.9 0-3.5 1.6-3.5 3.5s1.6 3.5 3.5 3.5zm25.2 29.8h9.8c4.5 0 4.5-7 0-7h-9.8c-4.5 0-4.5 7 0 7z"/><path d="M88.9 204.7h9.8c4.5 0 4.5-7 0-7h-9.8c-4.6 0-4.6 7 0 7zm29 48.1h-6c-1.9 0-3.5 1.6-3.5 3.5s1.6 3.5 3.5 3.5h6c2 0 3.5-1.6 3.5-3.5s-1.6-3.5-3.5-3.5zm60.3 0H167c-4.5 0-4.5 7 0 7h11.2c4.5 0 4.5-7 0-7zm-41.6-1.6h-9.9c-4.5 0-4.5 7 0 7h9.9c4.5 0 4.5-7 0-7z"/><path d="M133.5 264h2c1.9 0 3.5-1.5 3.5-3.4s-1.6-3.5-3.5-3.5h-2c-2 0-3.5 1.6-3.5 3.5s1.6 3.5 3.5 3.5zm33.1-5.9h6c2 0 3.5-1.6 3.5-3.5s-1.6-3.5-3.5-3.5h-6c-1.9 0-3.5 1.6-3.5 3.5s1.6 3.5 3.5 3.5zm-18.6 1.6h9.8c4.5 0 4.5-7 0-7H148c-4.5 0-4.5 7 0 7z"/><path d="M151 246.8h-2c-1.8 0-3.4 1.6-3.4 3.5s1.6 3.5 3.5 3.5h2c1.9 0 3.5-1.6 3.5-3.5s-1.6-3.5-3.5-3.5zm-32 5.7h2c2 0 3.5-1.6 3.5-3.5s-1.6-3.5-3.5-3.5h-2c-1.9 0-3.5 1.6-3.5 3.5s1.6 3.5 3.5 3.5zm-5.2-10.6h2c1.9 0 3.5-1.5 3.5-3.5s-1.6-3.5-3.5-3.5h-2c-2 0-3.5 1.6-3.5 3.5s1.6 3.5 3.5 3.5zm77.4 36.8h2c1.9 0 3.5-1.6 3.5-3.5s-1.6-3.5-3.5-3.5h-2c-2 0-3.5 1.6-3.5 3.5s1.6 3.5 3.5 3.5zm28 3.5h2c1.9 0 3.5-1.6 3.5-3.5s-1.6-3.5-3.5-3.5h-2c-1.9 0-3.5 1.6-3.5 3.5s1.6 3.5 3.5 3.5zm42.6 2.6h2c2 0 3.5-1.6 3.5-3.5s-1.6-3.5-3.5-3.5h-2c-1.9 0-3.5 1.6-3.5 3.5s1.6 3.5 3.5 3.5zm-19 0h2c1.8 0 3.4-1.6 3.4-3.5s-1.6-3.5-3.5-3.5h-2c-1.9 0-3.5 1.6-3.5 3.5s1.6 3.5 3.5 3.5zm-167-15h-2c-2 0-3.5 1.7-3.5 3.6s1.6 3.5 3.5 3.5h2c1.9 0 3.5-1.6 3.5-3.5s-1.6-3.5-3.5-3.5z"/><path d="M71.8 149c3.3-.2 11.1-.4 13.8 2.3 2.9 2.8 5.1 6.3 7.8 9.4 2.5 3 6 4 8 7.5 2.9 5 5.2 10.4 7.7 15.7 1.9 4 3.6 8.7 6.7 12 1.2 1.3 3 1.6 4.5 2.3 2.8 1.4 4.7 6.6 5.6 9.4.7 2.5.8 4.7 2.3 7a21.6 21.6 0 0 0 11 8.3c3.3 1 6.2 1.5 8.8 4.2 1.9 2 3.5 4.3 5.2 6.5 3 4 5.8 8.5 9.4 11.8 2.8 2.6 7.2 4 10.7 5.5l5.6 2.7c2.7 1.4 4 4.5 5.6 7 2.3 3.6 4.5 7.7 7.2 11.1 3 3.8 8.3 2.5 12.4 2 7.4-.8 14 3 21 4.4 3 .5 5.7 1.4 8.6 1.8 3.2.3 6.6-.2 9.8-.5a222 222 0 0 1 46.6.4c1.9.2 1.9-2.8 0-3a246.6 246.6 0 0 0-49.6-.1c-13.7 1.3-25.6-7.4-39.2-5.6-3.7.5-6.4.2-8.7-3.1-1.4-2-2.4-4.3-3.7-6.4-2.1-3.4-4.4-8-8-10.3-3.5-2.2-7.8-3.6-11.6-5.5-5-2.4-7.6-5.9-10.9-10.3-2.9-3.8-5.7-7.7-9-11.2a13.9 13.9 0 0 0-5.5-3.2c-4-1.5-7.1-2.1-10.5-5.3-5.7-5.2-4-14.9-10.7-19.5-2.4-1.7-4.5-1.7-6.3-4.5-1.2-1.8-2-3.9-3-5.8-2.6-5.4-5-10.8-7.7-16.1a22 22 0 0 0-7-9 34 34 0 0 1-7.3-7.4c-1.6-2-3.4-5-6-6a39.2 39.2 0 0 0-13.6-1.5c-2 0-2 3 0 3zm163 142.8h2c2 0 3.5-1.6 3.5-3.5s-1.6-3.5-3.5-3.5h-2c-1.9 0-3.5 1.6-3.5 3.5s1.6 3.5 3.5 3.5zm51.8 0h2c1.9 0 3.5-1.6 3.5-3.5s-1.6-3.5-3.5-3.5h-2c-2 0-3.5 1.6-3.5 3.5s1.6 3.5 3.5 3.5z"/><path d="M278 285.6h10.5c4.5 0 4.5-7 0-7H278c-4.5 0-4.5 7 0 7z"/></g><path d="M195 267.6h95c1.9 0 1.9-3 0-3h-95c-2 0-2 3 0 3zm-8-12.4h103c1.9 0 1.9-3 0-3H187c-2 0-2 3 0 3zm-20.8-12.4H290c1.9 0 1.9-3 0-3H166.1c-1.9 0-1.9 3 0 3zm-9.2-12.5h133c1.9 0 1.9-3 0-3H157c-2 0-2 3 0 3zM140.3 218H290c2 0 2-3 0-3H140.3c-1.9 0-1.9 3 0 3zm-6-12.4H290c2 0 2-3 0-3H134.3c-1.9 0-1.9 3 0 3zm0-12.4H290c2 0 2-3 0-3H134.3c-1.9 0-1.9 3 0 3zm1.4-12.4H290c1.9 0 1.9-3 0-3H135.6c-1.9 0-1.9 3 0 3zm-23 0h1c1.9 0 1.9-3 0-3h-1c-2 0-2 3 0 3z" fill="#fff"/></svg>