<svg xmlns="http://www.w3.org/2000/svg" width="361" height="361"><path d="M131 213c0-18 1-37 5-55 2-8 6-28 18-28 2 0 2-3 0-3-12 0-17 16-20 25a236 236 0 0 0-6 61c0 2 3 2 3 0z" fill="#fff"/><path d="M127 203a172 172 0 0 1 6-49c3-10 9-24 21-24 2 0 2-3 0-3-12 0-18 11-22 20-7 17-8 37-8 56 0 2 3 2 3 0zm-34-48c2-8 3-17 7-24 1-4 4-6 8-8 1-1 0-3-2-2l-8 7c-5 8-6 18-8 26 0 2 3 3 3 1z" fill="#fff"/><path d="M89 149c1-7 2-15 7-20 3-3 7-4 11-6 2 0 1-3-1-3l-12 6c-5 6-7 15-8 22-1 2 2 3 3 1zm-10-2c0-5 0-10-2-14a8 8 0 0 0-2-3 13 13 0 0 0-1 0c-1 0 0-1 0 0-1-2-4-2-3 0 0 2 1 2 2 3 4 3 3 10 3 14 0 2 3 2 3 0z" fill="#fff"/><path d="M83 147c-1-4-1-10-4-13l-6-5c-1-1-3 1-2 2l6 4 1 3 2 9c1 2 3 1 3-1z" fill="#fff"/><path d="M84 146c0-6 0-14-2-20l-6-8c-1-1-3 1-2 2l5 7c2 6 2 13 2 19 0 2 3 2 3 0z" fill="#fff"/><path d="M87 149c0-7 0-15-3-22-2-4-5-6-8-9-1-1-3 1-2 2l7 7c3 6 2 15 3 22 0 2 3 2 3 0zm33 46l-2-36c-1-6-1-13-5-18-1-1-4 0-3 2 4 5 5 13 5 19 2 11 2 22 2 33 0 2 3 2 3 0z" fill="#fff"/><path d="M124 198l-3-36c-1-7-3-16-8-21-2-1-4 1-2 2 5 5 6 13 7 19a203 203 0 0 1 3 36c0 2 3 2 3 0z" fill="#fff"/><g fill="#fff"><path d="M249 291h16c4 0 4-7 0-7h-16c-5 0-5 7 0 7zm-173-8h7c4 0 4-7 0-7h-7c-5 0-5 7 0 7zm26-3h8c4 0 4-7 0-7h-8c-4 0-4 7 0 7zm-3-11h15c5 0 5-7 0-7H99c-5 0-5 7 0 7zm25 23h6c2 0 4-2 4-4s-2-3-4-3h-6c-2 0-3 1-3 3s1 4 3 4z"/><path d="M276 282h-9c-4 0-4 7 0 7h9c5 0 5-7 0-7zM82 252h-6c-2 0-3 1-3 3s1 4 3 4h6c2 0 4-2 4-4s-2-3-4-3zm-3 21h2c1 0 3-2 3-4s-2-3-3-3h-2c-2 0-4 2-4 3s2 4 4 4zm17 3h-2c-2 0-4 2-4 4s2 3 4 3h2c1 0 3-1 3-3s-2-4-3-4zm102 9h-6c-2 0-3 1-3 3s1 4 3 4h6c2 0 4-2 4-4s-2-3-4-3z"/><path d="M90 264h-6c-2 0-3 1-3 3s1 4 3 4h6c2 0 3-2 3-4s-1-3-3-3zm85 3h9c4 0 4-7 0-7h-9c-5 0-5 7 0 7zm33 25h16c4 0 4-7 0-7h-16c-5 0-5 7 0 7z"/><path d="M217 288h2c2 0 4-2 4-3s-2-4-4-4h-2c-2 0-3 2-3 4s1 3 3 3zm19-9h-6c-2 0-4 1-4 3s2 4 4 4h6c2 0 3-2 3-4s-1-3-3-3zm-98-7h-9c-5 0-5 7 0 7h9c4 0 4-7 0-7zm17-11h-16c-5 0-5 7 0 7h16c4 0 4-7 0-7zm-1 11h-6c-2 0-3 1-3 3s1 4 3 4h6c2 0 4-2 4-4s-2-3-4-3z"/><path d="M141 266h-2c-2 0-3 1-3 3s1 4 3 4h2c2 0 4-2 4-4s-2-3-4-3zm6 26h6c2 0 3-2 3-4s-1-3-3-3h-6c-2 0-4 1-4 3s2 4 4 4zm-59 0h15c5 0 5-7 0-7H88c-5 0-5 7 0 7zm39-20h6c1 0 3-2 3-4s-2-3-3-3h-6c-2 0-4 1-4 3s2 4 4 4zm53 5h9c5 0 5-7 0-7h-9c-4 0-4 7 0 7zm-18 15h16c4 0 4-7 0-7h-16c-5 0-5 7 0 7zm-5-8h6c2 0 3-2 3-4s-1-3-3-3h-6c-2 0-4 1-4 3s2 4 4 4z"/><path d="M175 288h2c2 0 4-2 4-4s-2-3-4-3h-2c-2 0-3 1-3 3s1 4 3 4zm-5-23h-12c-4 0-4 7 0 7h12c4 0 4-7 0-7zm24 14h-6c-2 0-3 1-3 3s1 4 3 4h6c2 0 4-2 4-4s-2-3-4-3zm-45 1h16c4 0 4-7 0-7h-16c-5 0-5 7 0 7zm-29-5h-9c-4 0-4 7 0 7h9c5 0 5-7 0-7zm6-15h-4c-2 1-3 2-3 4s2 4 3 4h4c2 0 3-2 3-4s-1-3-3-3zm-24 5h-6c-2 0-4 2-4 4s2 3 4 3h6c2 0 3-1 3-3s-1-4-3-4zm-13 16h-5c-2 0-4 2-4 4s2 3 4 3h5c2 0 4-2 4-3s-2-4-4-4zm56 1h-2c-2 0-3 2-3 3s1 4 3 4h2c2 0 4-2 4-4s-2-3-4-3z"/><path d="M149 272h-2c-2 0-4 1-4 3s2 4 4 4h2c2 0 3-2 3-4s-1-3-3-3zm-42 20h6c2 0 3-2 3-4s-1-3-3-3h-6c-2 0-3 1-3 3s1 4 3 4zm-33 0h2c2 0 3-2 3-4s-1-3-3-3h-2c-2 0-4 1-4 3s2 4 4 4zm21-10h2c2 0 3-2 3-4s-1-3-3-3h-2c-2 0-4 2-4 3s2 4 4 4z"/><path d="M106 273h-6c-2 0-3 1-3 3s1 4 3 4h6c2 0 3-2 3-4s-1-3-3-3zm147 10h2c2 0 3-1 3-3s-1-4-3-4h-2c-2 0-4 2-4 4s2 3 4 3zm-39-10h-12c-4 0-4 7 0 7h12c4 0 4-7 0-7zM85 260H75c-4 0-4 7 0 7h10c5 0 5-7 0-7zm57 21h-11c-4 0-4 7 0 7h12c4 0 4-7 0-7zm3-56h-10c-4 0-4 7 0 7h10c4 0 4-7 0-7zm-48 38h2c2 0 4-2 4-4s-2-3-4-3h-2c-1 0-3 1-3 3s2 4 3 4zm2-25h15c5 0 5-7 0-7H99c-5 0-5 7 0 7zm-13-19h-6c-2 0-4 2-4 4s2 3 4 3h6c2 0 3-1 3-3s-1-4-3-4zm-7 28h2c2 0 3-2 3-3l-3-4h-2c-2 0-4 2-4 4s2 3 4 3zm11-14h-6c-2 0-3 2-3 3s1 4 3 4h6c2 0 3-2 3-4s-1-3-3-3zm48 8h-9c-5 0-5 7 0 7h9c4 0 4-7 0-7zm-21 1h-16c-5 0-5 7 0 7h16c4 0 4-7 0-7zm37-1h-6c-2 0-3 1-3 3s1 4 3 4h6c2 0 4-2 4-4s-2-3-4-3z"/><path d="M141 235h-2c-2 0-3 1-3 3s1 4 3 4h2c2 0 4-2 4-4s-2-3-4-3zm-14 6h6c1 0 3-2 3-4s-2-3-3-3h-6c-2 0-4 1-4 3s2 4 4 4z"/><path d="M131 228h-11c-5 0-5 7 0 7h11c5 0 5-7 0-7zm15 25h16c5 0 5-7 0-7h-16c-4 0-4 7 0 7zm6-20h-4l-3 3 3 4h4c2 0 3-2 3-4s-1-3-3-3zm-50 1h-6c-2 0-4 2-4 4s2 3 4 3h6c2 0 3-1 3-3s-2-4-3-4z"/><path d="M149 241h-2c-2 0-4 1-4 3s2 4 4 4h2c2 0 3-2 3-4s-1-3-3-3zm-64-13H75c-4 0-4 7 0 7h10c5 0 5-7 0-7zm15-9H90c-4 0-4 7 1 7h9c5 0 5-7 0-7z"/><path d="M97 232h2c2 0 4-2 4-4s-2-3-4-3h-2c-2 0-3 1-3 3s2 4 3 4zm-21-17h15c5 0 5-7 0-7H76c-5 0-5 7 0 7zm16 28h-6c-2 0-4 1-4 3s2 4 4 4h6c2 0 3-2 3-4s-2-3-3-3zm-4 21h2c2 0 4-2 4-3s-2-4-4-4h-2c-2 0-3 2-3 4s1 3 3 3z"/><path d="M95 202h-6c-2 0-3 2-3 4s1 3 3 3h6c2 0 3-2 3-3s-1-4-3-4zm20 16h-9c-5 0-5 7 0 7h9c4 0 4-7 0-7zm7-11h-16c-5 0-5 7 0 7h16c4 0 4-7 0-7zm9 11h-6c-2 0-3 2-3 3s1 4 3 4h6c2 0 4-2 4-4s-2-3-4-3z"/><path d="M118 212h-2c-2 0-3 2-3 4s1 3 3 3h2c2 0 4-2 4-3s-2-4-4-4zm-14 6h6l3-3-3-4h-6c-2 0-4 2-4 4s2 3 4 3zm15-20h-11c-5 0-5 7 0 7h11c5 0 5-7 0-7z"/><path d="M103 207h-4c-2 0-3 1-3 3s1 4 3 4h4c1 0 3-2 3-4s-2-3-3-3zm-22 5h-6c-2 0-4 2-4 4s2 3 4 3h6c1 0 3-1 3-3s-2-4-3-4zm45 6h-2c-2 0-4 1-4 3s2 4 4 4h2c2 0 3-2 3-4s-1-3-3-3zm-25 31h-9c-5 0-5 7 0 7h10c4 0 4-7 0-7zm-18-53h-8c-4 0-4 7 0 7h8c5 0 5-7 0-7z"/><path d="M73 209h2c2 0 4-2 4-3s-2-4-4-4h-2c-2 0-3 2-3 4s1 3 3 3zm16-23H73c-4 0-4 7 0 7h15c5 0 5-7 1-7zm19 17h6l3-3-3-4h-6c-2 0-4 2-4 4s2 3 4 3zm-4-26h-2c-2 0-4 2-4 4s2 3 4 3h2c1 0 3-1 3-3s-2-4-3-4zm-4 14h5c2 0 4-2 4-4s-2-3-4-3h-5c-2 0-4 1-4 3s2 4 4 4zm-14-22h9c5 0 5-7 0-7h-9c-4 0-4 7 0 7zm-12 13h10c5 0 5-7 0-7H74c-4 0-4 7 0 7zm-1-26h6c2 1 4-1 4-3s-2-3-4-3h-6c-2 0-3 1-3 3s1 4 3 4z"/><path d="M83 175h2c2 0 3-2 3-4s-1-3-3-3h-2c-2 0-4 2-4 3s2 4 4 4zm14-6h-6c-2 0-3 2-3 3l3 4h6c2 0 4-2 4-4s-2-3-4-3zm-22-8h12c4 0 4-7 0-7H75c-4 0-4 7 0 7z"/><path d="M98 180h4c1 0 3-1 3-3s-2-4-3-4h-4c-2 0-3 2-3 4s1 3 3 3zm-10 9h6c2 1 3-1 3-3s-1-3-3-3h-6c-2 0-4 1-4 3s2 4 4 4zm-14-20h2c2 0 4-2 4-3s-2-4-4-4h-2c-2 0-3 2-3 4s1 3 3 3zm25 30h10c5 0 5-7 0-7H99c-4 0-4 7 0 7z"/><path d="M89 205h10c4 0 4-7 0-7H89c-5 0-5 7 0 7zm29 48h-6c-2 0-4 1-4 3s2 4 4 4h6c2 0 3-2 3-4s-1-3-3-3zm60 0h-11c-4 0-4 7 0 7h11c5 0 5-7 0-7zm-41-2h-10c-5 0-5 7 0 7h10c4 0 4-7 0-7z"/><path d="M134 264h2c1 0 3-1 3-3s-2-4-3-4h-2c-2 0-4 2-4 4s2 3 4 3zm33-6h6c2 0 3-1 3-3s-2-4-3-4h-6c-2 0-4 2-4 4s2 3 4 3zm-19 2h10c4 0 4-7 0-7h-10c-4 0-4 7 0 7z"/><path d="M151 247h-2c-2 0-3 1-3 3s1 4 3 4h2c2 0 4-2 4-4s-2-3-4-3zm-32 6h2c2 0 4-2 4-4s-2-3-4-3h-2c-2 0-3 1-3 3s1 4 3 4zm-5-11h2c2 0 3-2 3-4s-1-3-3-3h-2c-2 0-4 2-4 3s2 4 4 4zm77 37h2c2 0 4-2 4-4s-2-3-4-3h-2c-2 0-3 1-3 3s1 4 3 4zm28 3h2c2 0 4-1 4-3s-2-4-4-4h-2c-2 0-3 2-3 4s1 3 3 3zm43 3h2c2 0 3-2 3-4s-1-3-3-3h-2c-2 0-4 1-4 3s2 4 4 4zm-19 0h2c2 0 3-2 3-4s-1-3-3-3h-2c-2 0-4 1-4 3s2 4 4 4zM76 270h-2c-2 0-4 2-4 3s2 4 4 4h2c2 0 3-2 3-4s-1-3-3-3z"/><path d="M72 149c3 0 11 0 14 2l7 10 8 7 8 16c2 4 4 9 7 12l4 2c3 2 5 7 6 10l2 7a22 22 0 0 0 11 8c3 1 6 1 9 4l5 7 10 11c2 3 7 4 10 6l6 3c3 1 4 4 5 7l8 11c3 4 8 2 12 2 7-1 14 3 21 4l9 2 9-1a222 222 0 0 1 47 1c2 0 2-3 0-3a247 247 0 0 0-50 0c-13 1-25-8-39-6-3 1-6 0-8-3l-4-6-8-11-12-5c-5-3-7-6-11-11l-9-11a14 14 0 0 0-5-3c-4-1-7-2-11-5-5-5-4-15-10-20-3-1-5-1-7-4l-3-6-7-16a22 22 0 0 0-7-9 34 34 0 0 1-8-8c-1-2-3-5-6-6a39 39 0 0 0-13-1c-2 0-2 3 0 3zm163 143h2c2 0 3-2 3-4s-1-3-3-3h-2c-2 0-4 1-4 3s2 4 4 4zm52 0h2c2 0 3-2 3-4s-1-3-3-3h-2c-2 0-4 1-4 3s2 4 4 4z"/><path d="M278 286h11c4 0 4-7 0-7h-11c-4 0-4 7 0 7z"/></g><path d="M195 268h95c2 0 2-3 0-3h-95c-2 0-2 3 0 3zm-8-13h103c2 0 2-3 0-3H187c-2 0-2 3 0 3zm-21-12h124c2 0 2-3 0-3H166c-2 0-2 3 0 3zm-9-13h133c2 0 2-3 0-3H157c-2 0-2 3 0 3z" fill="#fff"/></svg>