<svg xmlns="http://www.w3.org/2000/svg" width="361" height="361"><path d="M80.5 77.2H288c4.5 0 4.5-7 0-7H80.5c-4.5 0-4.5 7 0 7zm0 9h20.7c4.5 0 4.5-7 0-7H80.5c-4.5 0-4.5 7 0 7zm37.4 0h20.6c4.6 0 4.6-7 0-7H118c-4.5 0-4.5 7 0 7zm37.3 0H176c4.5 0 4.5-7 0-7h-20.7c-4.5 0-4.5 7 0 7zm37.4 0h20.7c4.5 0 4.5-7 0-7h-20.7c-4.5 0-4.5 7 0 7zm37.4 0h20.7c4.5 0 4.5-7 0-7H230c-4.5 0-4.5 7 0 7zM69.8 71.6V290c0 2 3 2 3 0V71.7c0-2-3-2-3 0z" fill="#fff"/><path d="M72.3 181.7h134.3c2 0 2-3 0-3H72.3c-1.9 0-1.9 3 0 3z" fill="#fff"/><path d="M78.2 181.8c3-9 6.5-17.8 10.3-26.4a179.6 179.6 0 0 1 25.1-44.4c4-4.7 9-9.6 15-11.3 5.5-1.5 10.8 1.7 14.7 5.1 12.4 10.7 20.2 27 27 41.4a325.3 325.3 0 0 1 14.5 35.6c1.4 4.2 8.2 2.4 6.8-1.9-8.3-24.6-19-50.4-35-71-7.4-9.4-18.6-20-31.7-15.4-13.7 4.9-22.8 20.4-29.6 32.3-9.8 17-17.6 35.5-23.9 54.1-1.4 4.3 5.3 6.1 6.8 1.9z" fill="#fff"/><path d="M74.9 269.4c13.9-.3 23.9-14.2 30.8-24.6 9.2-14 16.2-29.6 22.5-45 7.3-17.9 13-36.1 21.2-53.6 6.9-14.6 14.8-30.4 27-41.4 5.2-4.5 11.2-7 17.8-4 12.5 5.8 20.6 21.6 26.8 33.2 2.2 4 8.2.4 6-3.5-8-14.8-24.4-45.3-45.9-36.8-13.7 5.5-22.7 20.8-29.5 33a387.9 387.9 0 0 0-25.3 58.7c-5.6 15.2-12 30-19.7 44.2-4.3 7.9-9.1 15.6-15 22.4-4.3 4.8-10 10.2-16.7 10.4-4.5 0-4.5 7 0 7z" fill="#fff"/><path d="M73 181.8c8.2 24.5 18.9 50.4 35 70.9 7.3 9.5 18.5 20.1 31.5 15.5 13.8-5 22.9-20.4 29.7-32.3a388 388 0 0 0 25.7-59.2 339.7 339.7 0 0 1 17.3-40c6.6-12.7 15-29.1 28.5-36 6.3-3.2 12.5 0 17.5 4.1 8.9 7.5 15 18.3 20.5 28.4 2.2 4 8.2.4 6-3.6-8.2-15-24.8-44.8-46.3-35.5-13.6 5.9-22.4 21.3-29.3 33.5-10.3 18.6-17.6 38.5-25 58.3a334.7 334.7 0 0 1-18 40.9 143 143 0 0 1-13.5 21.7 39 39 0 0 1-15 13c-12.5 5-23.6-11.6-29.3-20.3a250 250 0 0 1-22.5-44.9 306.7 306.7 0 0 1-6.1-16.4c-1.4-4.2-8.2-2.4-6.8 1.9zM267.3 86H288c4.5 0 4.5-7 0-7h-20.7c-4.5 0-4.5 7 0 7z" fill="#fff"/><path d="M251.4 291c-13 0-22.7-3.7-29.1-11-6.5-7.3-9.7-19-9.7-34.8v-95.8h18v94.2a48 48 0 0 0 4.6 23.7c3 5.3 8.6 7.9 16.6 7.9 8.2 0 13.9-2.7 16.9-8.1s4.5-13.2 4.5-23.5v-94.2h18v95.8c0 15.6-3.4 27.1-10 34.6-6.7 7.5-16.6 11.2-29.8 11.2z" fill="#fff"/></svg>