<svg xmlns="http://www.w3.org/2000/svg" width="361" height="361"><path d="M256 179a74 74 0 0 0-28-57 74 74 0 0 0-64-14 74 74 0 0 0-48 40 74 74 0 0 0 1 65 74 74 0 0 0 83 37 74 74 0 0 0 55-71c1-6-9-6-9 0a64 64 0 0 1-32 55 64 64 0 0 1-64 0 64 64 0 0 1-31-55 64 64 0 0 1 31-55 64 64 0 0 1 64 0 64 64 0 0 1 31 55c1 7 11 7 11 0z" fill="#fff"/><path d="M162 112l-4-14c-2-4-9-2-7 2l5 14c1 4 8 2 6-2zm51 144l-4-11c-1-5-8-3-7 2l4 11c2 4 8 2 7-2z" fill="#fff"/><path d="M153 96a90 90 0 0 0-56 106 89 89 0 0 0 114 60c5-1 3-8-2-6a82 82 0 0 1-104-50 82 82 0 0 1 49-104c5-1 3-8-1-6z" fill="#fff"/><path d="M167 262v23c0 5 7 5 7 0v-23c0-4-7-4-7 0z" fill="#fff"/><path d="M140 292h61c6 0 6-10 0-10h-61c-7 0-7 10 0 10zm-29-107a143 143 0 0 0-31 21c-3 3-8 9-5 14 2 4 8 5 11 5a411 411 0 0 0 108-24c25-10 50-21 72-35a99 99 0 0 0 19-14c3-3 6-7 6-12-1-5-9-6-13-7-13-1-26 2-39 4-2 1-1 4 1 3a130 130 0 0 1 39-3c6 0 11 3 7 9-4 7-11 11-17 15-10 7-20 12-31 17a521 521 0 0 1-86 33 351 351 0 0 1-38 9 106 106 0 0 1-28 2c-6-1-12-3-7-10 3-5 8-9 13-12 6-5 13-9 21-13 1-1 0-3-2-2z" fill="#fff"/></svg>