<svg xmlns="http://www.w3.org/2000/svg" width="361" height="361"><path fill="#fff" d="M110 175l-36 35 13-49z"/><path d="M108 172l-36 35 6 4 12-49-5 2 23 14c4 2 8-4 4-6l-24-14c-2-1-5 0-5 2l-12 49c-1 3 3 6 6 3l36-34c3-4-2-9-5-6zm60 115v-94l-7 4 117 89 6 5 3-9H164c-7 0-7 10 0 10h123c5 0 6-7 2-9l-117-89-6-5c-3-3-8 1-8 4l1 94c0 6 10 6 10 0zm18-89l84 65c5 4 10-5 5-9l-84-64c-5-4-10 5-5 8z" fill="#fff"/><path d="M270 124a5 5 0 0 1-5 4h-25c-3 0-5-2-5-4V98c0-3 2-5 5-5h25c3 0 5 2 5 5v25z" fill="none" stroke="#fff" stroke-width="10" stroke-miterlimit="10"/><path d="M211 78l8 8a5 5 0 0 0 7 0 5 5 0 0 0 0-7l-8-8a5 5 0 0 0-7 0 5 5 0 0 0 0 7zm-35 37h37c7 0 7-10 0-10h-37c-6 0-6 10 0 10zm115 28l-7-6a5 5 0 0 0-7 0 5 5 0 0 0 0 7l7 6a5 5 0 0 0 7 0 5 5 0 0 0 0-7zm-34 43v-37c0-6-10-6-10 0v37c0 6 10 6 10 0zm-56-16l26-26c4-5-3-12-7-7l-26 26c-5 4 2 11 7 7zm-92-96l-30 52c-4 8 9 15 14 7l29-51c5-9-8-16-13-8z" fill="#fff"/><path d="M84 137l32 6c9 1 13-13 4-15l-32-6c-9-2-13 13-4 15z" fill="#fff"/><path d="M111 131l-30 52c-5 8 8 16 13 8l30-52c5-8-8-16-13-7z" fill="#fff"/></svg>