<svg xmlns="http://www.w3.org/2000/svg" width="361" height="361"><path d="M256 179a74 74 0 0 0-28-57 74 74 0 0 0-64-14 74 74 0 0 0-48 40 74 74 0 0 0 1 65 74 74 0 0 0 83 37 74 74 0 0 0 55-71c1-6-9-6-9 0a64 64 0 0 1-32 55 64 64 0 0 1-64 0 64 64 0 0 1-31-55 64 64 0 0 1 31-55 64 64 0 0 1 64 0 64 64 0 0 1 31 55c1 7 11 7 11 0z" fill="#fff"/><path d="M162 112l-4-14c-2-4-9-2-7 2l5 14c1 4 8 2 6-2zm51 144l-4-11c-1-5-8-3-7 2l4 11c2 4 8 2 7-2z" fill="#fff"/><path d="M153 96a90 90 0 0 0-56 106 89 89 0 0 0 114 60c5-1 3-8-2-6a82 82 0 0 1-104-50 82 82 0 0 1 49-104c5-1 3-8-1-6z" fill="#fff"/><path d="M167 262v23c0 5 7 5 7 0v-23c0-4-7-4-7 0z" fill="#fff"/><path d="M140 292h61c6 0 6-10 0-10h-61c-7 0-7 10 0 10z" fill="#fff"/></svg>