<svg xmlns="http://www.w3.org/2000/svg" width="361" height="361"><path d="M79 256l1-9a19 19 0 0 1 1-5 7 7 0 0 1 3-3 7 7 0 0 1 3-1l4 1a7 7 0 0 1 3 3 19 19 0 0 1 1 5 69 69 0 0 1-1 24 7 7 0 0 1-3 3 7 7 0 0 1-4 1 7 7 0 0 1-3-1 7 7 0 0 1-3-3 19 19 0 0 1-1-6l-1-9zm12 0v-7a27 27 0 0 0-1-4 5 5 0 0 0-1-3 2 2 0 0 0-2 0 2 2 0 0 0-1 0 5 5 0 0 0-2 3 103 103 0 0 0 0 23 5 5 0 0 0 2 2 2 2 0 0 0 1 1l2-1 1-2 1-5v-7zm35-14l-4 1a8 8 0 0 0-2 2 10 10 0 0 0-2 3 21 21 0 0 0-2 5 11 11 0 0 1 2-1 9 9 0 0 1 2 0c3 0 5 1 6 3l2 8-2 9c-1 2-3 3-6 3a8 8 0 0 1-4-1 6 6 0 0 1-2-3 16 16 0 0 1-2-5 43 43 0 0 1 0-15l3-6a14 14 0 0 1 4-5 13 13 0 0 1 7-2v4zm-7 14h-2a9 9 0 0 0-1 1v2a70 70 0 0 0 1 9 6 6 0 0 0 1 2l2 1 3-2 1-6a13 13 0 0 0-1-5 4 4 0 0 0-4-2zm16 14a16 16 0 0 0 3-1 8 8 0 0 0 3-1 10 10 0 0 0 2-4l2-5a10 10 0 0 1-4 1c-3 0-4-1-6-3s-2-4-2-8l2-8c1-2 3-3 6-3a8 8 0 0 1 4 0 7 7 0 0 1 2 3l2 5a43 43 0 0 1 0 15 21 21 0 0 1-3 6 14 14 0 0 1-4 5 13 13 0 0 1-7 2v-4zm7-13l3-1v-2a93 93 0 0 0 0-5 19 19 0 0 0 0-4 6 6 0 0 0-2-3 3 3 0 0 0-2-1l-3 2a17 17 0 0 0 0 6l1 6a4 4 0 0 0 3 2zm12-16c2-2 5-3 8-3s5 0 6 2c2 1 2 4 2 7v4a49 49 0 0 1-4 7 76 76 0 0 0-3 4 28 28 0 0 0-2 4 14 14 0 0 0-1 4h11v4h-16v-1l1-6a26 26 0 0 1 2-5 31 31 0 0 1 2-4 67 67 0 0 0 3-4 23 23 0 0 0 2-3l1-4-1-4a5 5 0 0 0-4-1 6 6 0 0 0-2 0 9 9 0 0 0-2 2l-3-3zm32 0c2-2 5-3 8-3 2 0 5 0 6 2l2 7a18 18 0 0 1-2 7l-3 4a76 76 0 0 0-2 4 28 28 0 0 0-2 4 14 14 0 0 0-1 4h11v4h-16v-1l1-6a26 26 0 0 1 2-5 31 31 0 0 1 2-4 67 67 0 0 0 3-3l2-4v-4c1-2 0-3-1-4l-3-1a6 6 0 0 0-2 0l-3 2-2-3zm23 15v-9l2-5a7 7 0 0 1 2-3 7 7 0 0 1 4-1l4 1a7 7 0 0 1 2 3l2 5a70 70 0 0 1 0 18 19 19 0 0 1-2 6 7 7 0 0 1-2 3 7 7 0 0 1-4 1 7 7 0 0 1-4-1 7 7 0 0 1-2-3 19 19 0 0 1-2-6v-9zm12 0v-7a27 27 0 0 0-1-4 5 5 0 0 0-1-3h-4l-1 3-1 4a97 97 0 0 0 1 19l1 2 2 1 2-1 1-2 1-5v-7zm10 0v-9l2-5a7 7 0 0 1 2-3 7 7 0 0 1 4-1l4 1a7 7 0 0 1 2 3l2 5a70 70 0 0 1 0 18 19 19 0 0 1-2 6 7 7 0 0 1-2 3 7 7 0 0 1-4 1 7 7 0 0 1-4-1 7 7 0 0 1-2-3 19 19 0 0 1-2-6 71 71 0 0 1 0-9zm12 0l-1-7a27 27 0 0 0 0-4 5 5 0 0 0-1-3h-4l-1 3-1 4a97 97 0 0 0 1 19l1 2 2 1 2-1 1-2a103 103 0 0 0 1-12zm15 12v2a21 21 0 0 1-1 6 29 29 0 0 1-2 6l-3-1 2-6v-5a27 27 0 0 0 0-2h4zm21-26l-3 1a8 8 0 0 0-3 2 10 10 0 0 0-2 3 21 21 0 0 0-1 5 11 11 0 0 1 2-1 9 9 0 0 1 2 0c2 0 4 1 5 3 2 2 2 5 2 8 0 4 0 6-2 8-1 3-3 4-6 4a8 8 0 0 1-3-1 6 6 0 0 1-3-3 16 16 0 0 1-2-5 44 44 0 0 1 1-15l2-6a14 14 0 0 1 4-5 13 13 0 0 1 7-2v4zm-7 14h-1a9 9 0 0 0-2 1v2a79 79 0 0 0 1 8 6 6 0 0 0 1 3l2 1c2 0 3-1 3-2l1-6-1-5a4 4 0 0 0-3-2z" fill="#fff"/><path d="M285 282c-1 5-14 3-17 3H79c-3 0-2-7-2-9v-43c0-2 0-5 3-5h202c3 0 3 5 3 6v48c0 5 7 5 7 0v-36c0-8 3-25-10-25H92c-5 0-12-1-16 1-6 2-6 8-6 14v43c0 5 1 12 8 13h204c6 0 9-4 10-10 0-4-7-4-7 0z" fill="#fff"/><path d="M96 286a2 2 0 0 1-2 2H82a2 2 0 0 1-2-2v-5a2 2 0 0 1 2-2h12a2 2 0 0 1 2 2v5zm31 0a2 2 0 0 1-2 2h-12a2 2 0 0 1-2-2v-5a2 2 0 0 1 2-2h12a2 2 0 0 1 2 2v5zm23 0a2 2 0 0 1-2 2h-12a2 2 0 0 1-2-2v-5a2 2 0 0 1 2-2h12a2 2 0 0 1 2 2v5zm23 0a2 2 0 0 1-2 2h-11a2 2 0 0 1-2-2v-5a2 2 0 0 1 2-2h11a2 2 0 0 1 2 2v5zm28 0a2 2 0 0 1-2 2h-11a2 2 0 0 1-2-2v-5a2 2 0 0 1 2-2h11a2 2 0 0 1 2 2v5zm23 0a2 2 0 0 1-2 2h-11a2 2 0 0 1-2-2v-5a2 2 0 0 1 2-2h11a2 2 0 0 1 2 2v5zm23 0a2 2 0 0 1-2 2h-11a2 2 0 0 1-2-2v-5a2 2 0 0 1 2-2h12a2 2 0 0 1 2 2v5zm34 0a2 2 0 0 1-2 2h-11a2 2 0 0 1-2-2v-5a2 2 0 0 1 2-2h11a2 2 0 0 1 2 2v5zM96 232a2 2 0 0 1-2 2H82a2 2 0 0 1-2-2v-5a2 2 0 0 1 2-2h12a2 2 0 0 1 2 2v5zm31 0a2 2 0 0 1-2 2h-12a2 2 0 0 1-2-2v-5a2 2 0 0 1 2-2h12a2 2 0 0 1 2 2v5zm23 0a2 2 0 0 1-2 2h-12a2 2 0 0 1-2-2v-5a2 2 0 0 1 2-2h12a2 2 0 0 1 2 2v5zm23 0a2 2 0 0 1-2 2h-12a2 2 0 0 1-2-2v-5a2 2 0 0 1 2-2h12a2 2 0 0 1 2 2v5zm28 0a2 2 0 0 1-2 2h-12a2 2 0 0 1-2-2v-5a2 2 0 0 1 2-2h12a2 2 0 0 1 2 2v5zm23 0a2 2 0 0 1-2 2h-11a2 2 0 0 1-2-2v-5a2 2 0 0 1 2-2h11a2 2 0 0 1 2 2v5zm23 0a2 2 0 0 1-2 2h-11a2 2 0 0 1-2-2v-5a2 2 0 0 1 2-2h11a2 2 0 0 1 2 2v5zm34 0a2 2 0 0 1-2 2h-12a2 2 0 0 1-2-2v-5a2 2 0 0 1 2-2h12a2 2 0 0 1 2 2v5zM146 86c1 11 19 8 27 8h66l10-1c4-1 6-5 6-9 1-3 1-7-1-10-3-4-8-4-12-4h-84c-3 0-5 0-8 2-5 2-4 9-4 13 0 5 7 5 7 0 0-3-2-8 3-8h84c2 0 9-1 9 3 0 3 1 7-4 7h-83c-2 0-9 1-10-3 0-4-7-2-6 2z" fill="#fff"/><path d="M173 91v17c0 5 7 5 7 0V91c0-5-7-5-7 0zm-14 0v18c0 5 7 5 7 0V91c0-4-7-4-7 0z" fill="#fff"/><path d="M272 153v42c0 3-7 2-9 2h-17c-4 0-3-3-3-6v-31a5 5 0 0 0-5-5h-36a5 5 0 0 0-5 5v4h-54v1l-1-5a5 5 0 0 0-5-5H91c-3 0-2-12-2-14 0-1-1-13 2-13h46v-10l5 5v-7h55v7a5 5 0 0 0 5 5h52c2 0 18-2 18 2v23c0 7 10 7 10 0v-26c-4-10-15-9-23-9h-57l5 5c0-4 1-10-2-14-3-3-6-3-9-3h-52c-3 0-6 0-9 2-4 4-3 11-3 15a5 5 0 0 0 5 5c7 0 7-10 0-10h-37c-5 0-11-1-15 2-7 4-6 13-6 19 0 7-1 15 2 20 3 6 10 6 16 6h40l-5-5c0 4 0 11 5 13l7 2h50l7-1c6-3 6-9 6-14l-5 5h36l-5-5v34c0 7 3 13 11 13h18c6 0 13 1 17-4 4-3 3-10 3-15v-35c0-7-10-7-10 0z" fill="#fff"/></svg>