<svg xmlns="http://www.w3.org/2000/svg" width="361" height="361"><path d="M231.4 274.9c0 2.5-.4 4.8-1.1 6.8a14.5 14.5 0 0 1-3.2 5.2 14.1 14.1 0 0 1-5.2 3.4 19.4 19.4 0 0 1-7 1.1 40.6 40.6 0 0 1-3.4-.1l-3.4-.4a49.3 49.3 0 0 1-3.3-.6 34.4 34.4 0 0 1-2.8-.7v-44l9-1.5v15.7a16 16 0 0 1 6.6-1.3c2.2 0 4.2.3 6 1.1 1.6.8 3 2 4.2 3.4a15 15 0 0 1 2.7 5.1c.6 2 .9 4.3.9 6.8zm-9.1-.2c0-5.8-2.2-8.7-6.4-8.7a10.6 10.6 0 0 0-5 1.3v16.2a25 25 0 0 0 4 .3c2.4 0 4.3-.8 5.5-2.5a11 11 0 0 0 1.9-6.7zm27.3-16.4c2.7 0 4.9.3 6.6.9 1.8.6 3.2 1.4 4.3 2.5s1.8 2.5 2.2 4.1c.4 1.6.7 3.4.7 5.4v18.6l-5.4 1a51.3 51.3 0 0 1-8.3.5c-2 0-3.8-.2-5.5-.5-1.7-.4-3.1-1-4.3-1.8s-2.1-1.9-2.8-3.2-1-3-1-4.9a8.9 8.9 0 0 1 4-7.7 13.4 13.4 0 0 1 4.4-1.6 23.9 23.9 0 0 1 10.3 0v-.9a5 5 0 0 0-1.4-3.6c-1-1-2.5-1.4-4.8-1.4a29.3 29.3 0 0 0-8.3 1.3l-1.2-7.2a29.3 29.3 0 0 1 4.5-1 70 70 0 0 1 6-.5zm.7 26.1a50.5 50.5 0 0 0 4.5-.2v-6.8l-1.6-.2a18.3 18.3 0 0 0-2-.1l-2.4.1c-.7.1-1.4.3-2 .6s-1 .6-1.3 1.1a3.2 3.2 0 0 0-.4 1.8c0 1.4.4 2.4 1.4 3 1 .5 2.2.7 3.8.7zm40.2-17.4l-2.8-.6a17.5 17.5 0 0 0-3.5-.3 16.3 16.3 0 0 0-3.8.5v24h-9v-29.8a57 57 0 0 1 5.7-1.6 32.2 32.2 0 0 1 9-.7 37.4 37.4 0 0 1 4.1.6l1.8.5-1.5 7.4zm-173.7-25.6l-14 14c-1.3 1.4.8 3.5 2.1 2.1l14-14c1.4-1.3-.7-3.4-2-2z" fill="#fff"/><path d="M129.1 229l-26.3 26.4c-1.4 1.4.8 3.5 2.1 2.1l26.3-26.4c1.4-1.3-.7-3.4-2-2zm-18.8-56.7l-37.8-3.4c-2-.2-2 2.8 0 3l37.8 3.3c1.9.2 1.9-2.8 0-3zm31.7-51.6l-21.8-31.2a243394941396656260 243394941396656260 0 0 1 21.8 31.2zm58.3-9.1l9.4-36.7c.5-1.9-2.4-2.7-2.9-.8l-9.4 36.7c-.4 1.8 2.5 2.6 3 .8zm78.5 21.5l-34.9 16c-1.7.7-.2 3.3 1.6 2.5l34.8-15.9c1.8-.8.2-3.4-1.5-2.6zm1.6 90.5L246 207.7c-1.7-.7-3.2 1.8-1.5 2.7L279 226c1.8.9 3.3-1.7 1.5-2.5zm-173.6 5.3L90.6 240c-1.6 1.1-.1 3.8 1.5 2.6l16.2-11.2c1.6-1.1.1-3.7-1.5-2.6zm-7.7-13.6l-18 8.3c-1.7.8-.2 3.4 1.5 2.6l18-8.3c1.8-.8.3-3.4-1.5-2.6zm-4.8-14.5l-19.1 5c-1.9.4-1 3.3.8 2.8l19.1-5c1.9-.4 1.1-3.3-.8-2.9zm-2.1-15l-19.7 1.6c-2 .2-2 3.2 0 3l19.7-1.7c1.9-.1 1.9-3.1 0-3z" fill="#fff"/><path d="M92.2 170.6l-19.8-1.7c-1.9-.2-1.9 2.8 0 3l19.7 1.7c2 .1 2-2.9 0-3zm3-15l-19.2-5c-1.9-.4-2.7 2.5-.8 3l19.1 5c1.9.4 2.7-2.5.8-3zm5.4-14.2l-18-8.3c-1.7-.8-3.2 1.8-1.5 2.6l18 8.3c1.8.8 3.3-1.8 1.5-2.6zm7.7-13.6l-16.2-11.2c-1.6-1.1-3.1 1.5-1.5 2.6l16.2 11.2c1.6 1.1 3.1-1.5 1.5-2.6zm10.6-12l-14-14c-1.3-1.4-3.5.7-2 2l14 14c1.3 1.4 3.4-.7 2-2zm12.6-10l-11.3-16.3c-1-1.6-3.7 0-2.6 1.5l11.3 16.3c1 1.6 3.7 0 2.6-1.5zM145 98l-8.2-18c-.8-1.8-3.4-.3-2.6 1.5l8.2 18c.8 1.7 3.4.2 2.6-1.5zm14.6-4.8l-5-19.2c-.5-1.8-3.4-1-2.9.8l5 19.2c.5 1.8 3.4 1 3-.8zm15-2.2L173 71.4c-.2-2-3.2-2-3 0l1.6 19.7c.2 1.9 3.2 2 3 0zm15.2 0l1.7-19.7c.1-2-2.9-2-3 0L186.8 91c-.2 2 2.8 1.9 3 0zm15 3l5-19.2c.4-1.9-2.5-2.7-3-.8l-5 19.2c-.5 1.8 2.4 2.6 3 .8zm14.2 5.5l8.2-18c.8-1.8-1.8-3.3-2.6-1.5l-8.2 18c-.8 1.7 1.8 3.2 2.6 1.5zm13.5 7.7L243.8 91c1.1-1.6-1.5-3-2.6-1.5L230 105.8c-1 1.6 1.5 3 2.6 1.5zm12.1 10.6l14-14c1.4-1.4-.7-3.5-2.1-2.2l-14 14c-1.4 1.4.8 3.5 2.1 2.2zm10 12.5l16.3-11.3c1.6-1 0-3.7-1.5-2.6L253 127.8c-1.6 1.1 0 3.7 1.5 2.6zm7.7 13.6l18-8.3c1.8-.8.2-3.4-1.5-2.6l-18 8.3c-1.8.8-.2 3.3 1.5 2.6zm4.8 14.5l19.1-5c2-.5 1.1-3.3-.8-2.9l-19.1 5c-1.9.5-1 3.4.8 3zm2.2 15L289 172c1.9-.2 2-3.2 0-3l-19.7 1.7c-2 .1-2 3.1 0 3zm0 15.2l19.7 1.7c2 .2 1.9-2.8 0-3l-19.7-1.7c-2-.1-2 2.9 0 3zm-3 15l19.1 5c2 .4 2.7-2.5.8-3l-19.1-5c-1.9-.4-2.7 2.5-.8 3zm-5.5 14.2l18 8.3c1.7.8 3.3-1.8 1.5-2.6l-18-8.3c-1.7-.8-3.3 1.8-1.5 2.6z" fill="#fff"/><path d="M224.4 192.8c-8.6-4.2-17 .6-24.8-5.2a3201.3 3201.3 0 0 0-7.6-5.6 12.5 12.5 0 0 0-15.3-11.4 1939.7 1939.7 0 0 1-69.5-54.6c-1.5-1.3-2.6-2-3.9-.5-1.2 1.5-.3 2.4 1.2 3.7 0 0 34.3 29.3 65.6 59.2a12.5 12.5 0 0 0 4.4 10.3 12.5 12.5 0 0 0 9.5 2.9l6.9 6.6c7 6.7 3.7 15.7 9.3 23.4 1.1 1.6 4.2 1.2 6 .3 5.7-2.9 7-2.9 12.5-9.3 5.4-6.4 5.4-8.6 7-14 .6-1.8.4-4.9-1.3-5.7z" fill="none" stroke="#fff" stroke-width="7" stroke-miterlimit="10"/></svg>