<svg xmlns="http://www.w3.org/2000/svg" width="361" height="361"><path d="M231 275l-1 7a15 15 0 0 1-3 5 14 14 0 0 1-5 3 19 19 0 0 1-7 1 41 41 0 0 1-3 0h-4a49 49 0 0 1-3-1 34 34 0 0 1-3 0v-44l9-2v16a16 16 0 0 1 7-2l6 2 4 3a15 15 0 0 1 2 5l1 7zm-9 0c0-6-2-9-6-9a11 11 0 0 0-5 1v17a25 25 0 0 0 4 0c2 0 4-1 5-3a11 11 0 0 0 2-6zm28-17l6 1 5 3c2 1 1 2 2 4v24l-5 1a51 51 0 0 1-8 0h-6l-4-2-3-3-1-5a9 9 0 0 1 4-8 13 13 0 0 1 5-1 24 24 0 0 1 10 0v-1a5 5 0 0 0-2-4l-4-1a29 29 0 0 0-9 1l-1-7a29 29 0 0 1 5-1 70 70 0 0 1 6-1zm0 26a51 51 0 0 0 5 0v-7h-2a18 18 0 0 0-2 0h-2l-2 1-1 1a3 3 0 0 0-1 2l1 3h4zm41-17l-3-1a18 18 0 0 0-4 0 16 16 0 0 0-4 1v24h-9v-30a57 57 0 0 1 6-2 32 32 0 0 1 9-1 37 37 0 0 1 4 1l2 1-1 7zm-174-26l-14 14c-1 2 1 4 2 3l14-14c1-2-1-4-2-2z" fill="#fff"/><path d="M129 229l-26 26c-2 2 1 4 2 3l26-27c2-1-1-3-2-2zm-19-57l-37-3c-2 0-2 3 0 3l37 3c2 0 2-3 0-3zm32-51l-22-31a243394941396656260 243394941396656260 0 0 1 22 31zm58-9l10-37c0-2-3-3-3-1l-10 37c0 2 3 2 3 1zm79 21l-35 16c-2 1 0 3 2 3l34-16c2-1 1-4-1-3zm1 91l-34-16c-2-1-3 1-1 2l34 16c2 1 3-2 2-2zm-173 5l-16 11c-2 1-1 4 1 3l16-12c2-1 0-3-1-2zm-8-14l-18 9c-2 0 0 3 2 2l18-8c1-1 0-3-2-3zm-5-14l-19 5c-2 0-1 3 1 3l19-5c2-1 1-4-1-3zm-2-15l-19 1c-2 1-2 4 0 3l19-1c2 0 2-3 0-3z" fill="#fff"/><path d="M92 171l-20-2v3l20 2c2 0 2-3 0-3zm3-15l-19-5c-2-1-3 2-1 3l19 5c2 0 3-3 1-3zm6-15l-18-8c-2-1-4 2-2 3l18 8c2 1 3-2 2-3zm7-13l-16-11c-1-1-3 1-1 2l16 11c1 2 3-1 1-2zm11-12l-14-14c-1-2-4 1-2 2l14 14c1 1 3-1 2-2zm13-10l-12-16c-1-2-3 0-2 1l11 16c1 2 4 0 3-1zm13-8l-8-18c-1-2-4 0-3 2l8 18c1 1 4 0 3-2zm15-5l-5-19c-1-2-4-1-3 1l5 19c0 2 3 1 3-1zm15-2l-2-20c0-2-3-2-3 0l2 20c0 2 3 2 3 0zm15 0l1-20c1-2-2-2-3 0l-1 20c0 2 3 2 3 0zm15 3l5-19c0-2-3-3-3-1l-5 19c-1 2 2 3 3 1zm14 6l8-18c1-2-2-4-2-2l-9 18c0 2 2 3 3 2zm13 7l12-16c1-2-2-3-3-1l-11 16c-1 1 2 3 3 1zm13 11l14-14c1-2-1-4-3-2l-14 14c-1 1 1 3 3 2zm10 12l16-11c1-1 0-4-2-3l-16 12c-2 1 0 3 2 2zm7 14l18-8c2-1 0-4-1-3l-18 8c-2 1 0 4 1 3zm5 14l19-5c2 0 1-3-1-2l-19 5c-2 0-1 3 1 3zm2 15l20-1c2 0 2-3 0-3l-20 2c-2 0-2 3 0 3zm0 16l20 1c2 0 2-3 0-3l-20-1c-2-1-2 2 0 3zm-3 15l19 5c2 0 3-3 1-3l-19-5c-2-1-3 2-1 3zm-5 14l18 8c1 1 3-2 1-3l-18-8c-1-1-3 2-1 3z" fill="#fff"/><path d="M224 193c-8-4-17 0-24-5a3201 3201 0 0 0-8-6 13 13 0 0 0-15-11 1940 1940 0 0 1-70-55c-1-1-2-2-4 0a1834 1834 0 0 0 67 63 13 13 0 0 0 4 10 13 13 0 0 0 10 3l7 6c7 7 4 16 9 24h6c6-3 7-3 13-9 5-7 5-9 7-14 0-2 0-5-2-6z" fill="none" stroke="#fff" stroke-width="7" stroke-miterlimit="10"/></svg>