<svg xmlns="http://www.w3.org/2000/svg" width="361" height="361"><path d="M255.5 179.2a74.2 74.2 0 0 0-27.8-57.5 74.3 74.3 0 0 0-63.2-13.8 73.8 73.8 0 0 0-48.8 40 74.3 74.3 0 0 0 1.1 64.9 74.2 74.2 0 0 0 82.8 37.6 74.1 74.1 0 0 0 55.9-71.2c0-6.5-10-6.5-10 0a64.3 64.3 0 0 1-31.4 54.7 63.8 63.8 0 0 1-64 0 63.9 63.9 0 0 1-31.4-54.7 63.8 63.8 0 0 1 31.4-54.8 63.8 63.8 0 0 1 64 0 63.9 63.9 0 0 1 31.4 54.8c0 6.4 10 6.4 10 0z" fill="#fff"/><path d="M162.3 111.8l-4.8-13.6c-1.5-4.3-8.3-2.4-6.8 1.8l4.9 13.7c1.5 4.2 8.2 2.4 6.7-1.9zm50.6 144l-4-11.2c-1.4-4.2-8.2-2.4-6.7 2l4 11c1.5 4.3 8.2 2.4 6.7-1.8z" fill="#fff"/><path d="M152.7 95.5a89.5 89.5 0 0 0-56.1 106 89.3 89.3 0 0 0 114.8 60.8c4.2-1.4 2.4-8.2-1.9-6.7a82.3 82.3 0 0 1-104.1-49.2 82.2 82.2 0 0 1 49.1-104.1c4.2-1.5 2.4-8.3-1.8-6.8z" fill="#fff"/><path d="M167.2 262.4v22.8c0 4.5 7 4.5 7 0v-22.8c0-4.5-7-4.5-7 0z" fill="#fff"/><path d="M139.8 292.2h60.7c6.5 0 6.5-10 0-10h-60.7c-6.5 0-6.5 10 0 10zm36-185.1c-6-10.7-12.5-21.8-21.4-30.3-3.3-3.1-9-7.1-13.4-3.8-3.8 2.9-4.3 8.7-4.6 13-.7 8.8.7 18 2.1 26.7a432.2 432.2 0 0 0 23.8 82.9 383 383 0 0 0 34 70.7 85.8 85.8 0 0 0 14.6 18.2c2.9 2.6 6.9 5.3 10.9 4 5.6-1.7 6-10 6.4-14.8.7-12.5-2-25.4-4.5-37.6-.4-2-3.3-1.1-2.9.8a139 139 0 0 1 4.2 39c-.4 5.7-2.7 12.5-9.2 8.6-6.3-3.8-11-10.9-15-16.8a255.6 255.6 0 0 1-17-29.9 517.9 517.9 0 0 1-33-86 360.2 360.2 0 0 1-9.2-38.6c-1.6-9.2-2.8-18.7-2.1-28 .4-6 2.4-13.2 9.5-8.9 4.5 2.8 8 7.6 11.2 11.8 4.9 6.4 9 13.5 13 20.5 1 1.7 3.5.2 2.6-1.5z" fill="#fff"/></svg>