<svg xmlns="http://www.w3.org/2000/svg" width="361" height="361"><path d="M255.5 179.2a74.2 74.2 0 0 0-27.8-57.5 74.3 74.3 0 0 0-63.2-13.8 73.8 73.8 0 0 0-48.8 40 74.3 74.3 0 0 0 1.1 64.9 74.2 74.2 0 0 0 82.8 37.6 74.1 74.1 0 0 0 55.9-71.2c0-6.5-10-6.5-10 0a64.3 64.3 0 0 1-31.4 54.7 63.8 63.8 0 0 1-64 0 63.9 63.9 0 0 1-31.4-54.7 63.8 63.8 0 0 1 31.4-54.8 63.8 63.8 0 0 1 64 0 63.9 63.9 0 0 1 31.4 54.8c0 6.4 10 6.4 10 0z" fill="#fff"/><path d="M162.3 111.8l-4.8-13.6c-1.5-4.3-8.3-2.4-6.8 1.8l4.9 13.7c1.5 4.2 8.2 2.4 6.7-1.9zm50.6 144l-4-11.2c-1.4-4.2-8.2-2.4-6.7 2l4 11c1.5 4.3 8.2 2.4 6.7-1.8z" fill="#fff"/><path d="M152.7 95.5a89.5 89.5 0 0 0-56.1 106 89.3 89.3 0 0 0 114.8 60.8c4.2-1.4 2.4-8.2-1.9-6.7a82.3 82.3 0 0 1-104.1-49.2 82.2 82.2 0 0 1 49.1-104.1c4.2-1.5 2.4-8.3-1.8-6.8z" fill="#fff"/><path d="M167.2 262.4v22.8c0 4.5 7 4.5 7 0v-22.8c0-4.5-7-4.5-7 0z" fill="#fff"/><path d="M139.8 292.2h60.7c6.5 0 6.5-10 0-10h-60.7c-6.5 0-6.5 10 0 10zM111 184.7a143 143 0 0 0-31 21.2c-3.5 3.4-8.2 8.9-5.5 14 2 4 8 4.7 11.8 5.1 8.5 1 17.3-.3 25.7-1.5 28-4.3 55.5-13 82-23 24.9-9.2 49.6-20 72.2-34a99 99 0 0 0 19.3-14.8c2.9-3 5.8-6.8 5.2-11.2-.8-5.5-8.7-6.5-13-7-12.6-1.2-26 1.5-38.3 4-1.9.4-1 3.3.8 3a130 130 0 0 1 38.5-3.9c6.2.7 11.4 3.4 7.4 9.7-4 6.3-11.3 11-17.4 15-9.7 6.5-20 12-30.4 17a520.8 520.8 0 0 1-86.2 33 350.5 350.5 0 0 1-38.3 8.8 106 106 0 0 1-27.5 2c-6.3-.6-12.2-3.2-7.7-10 3.2-4.9 8.5-8.7 13.1-12 6.6-4.8 13.7-8.9 20.9-12.8 1.7-1 .1-3.6-1.5-2.6z" fill="#fff"/></svg>