<svg xmlns="http://www.w3.org/2000/svg" width="361" height="361"><path d="M79 256.2c0-3.5.2-6.4.6-8.8a19 19 0 0 1 1.4-5.7 7 7 0 0 1 2.6-3 7.2 7.2 0 0 1 3.8-1c1.5 0 2.7.3 3.8 1a6.9 6.9 0 0 1 2.6 3 19.2 19.2 0 0 1 1.4 5.7 68.8 68.8 0 0 1-1.4 23.2 6.9 6.9 0 0 1-2.6 3.1 7.2 7.2 0 0 1-3.8 1 7.2 7.2 0 0 1-3.8-1 7 7 0 0 1-2.6-3 19.2 19.2 0 0 1-1.4-5.8c-.4-2.3-.5-5.2-.5-8.7zm12.1 0c0-2.8 0-5.1-.2-7a26.5 26.5 0 0 0-.6-4.5 5.3 5.3 0 0 0-1.2-2.4 2.4 2.4 0 0 0-1.7-.7 2.4 2.4 0 0 0-1.7.7 5.2 5.2 0 0 0-1.2 2.4 103 103 0 0 0 0 23 5.2 5.2 0 0 0 1.2 2.4 2.4 2.4 0 0 0 1.7.7c.7 0 1.3-.3 1.7-.8.5-.4.9-1.2 1.2-2.3.3-1.2.5-2.7.6-4.5l.2-7zm35-14.2l-3.6.8a8 8 0 0 0-2.9 1.9 9.7 9.7 0 0 0-2 3.3 20.7 20.7 0 0 0-1.3 5 10.8 10.8 0 0 1 2-.6 9.4 9.4 0 0 1 1.9-.2c2.4 0 4.3 1 5.7 2.9 1.3 1.9 2 4.6 2 8 0 3.5-.6 6.4-2 8.4s-3.2 3.1-6 3.1a7.9 7.9 0 0 1-3.6-.8 6.4 6.4 0 0 1-2.7-2.7 15.6 15.6 0 0 1-1.5-4.9 43.2 43.2 0 0 1 .2-14.8c.5-2.4 1.3-4.6 2.4-6.5a13.9 13.9 0 0 1 4.3-4.6 12.6 12.6 0 0 1 6.6-2l.5 3.7zm-7 13.8c-.5 0-1 0-1.6.2a9 9 0 0 0-1.5.7v2.6a70.3 70.3 0 0 0 .6 8.2 6.3 6.3 0 0 0 1.2 2.5c.5.7 1.2 1 2 1 1.4 0 2.3-.7 2.9-2.1.5-1.4.8-3.3.8-5.7a13 13 0 0 0-1-5.6 3.5 3.5 0 0 0-3.4-1.8zm15.6 14.4a15.6 15.6 0 0 0 3.6-.7 8 8 0 0 0 2.9-1.8 10 10 0 0 0 2.2-3.3c.6-1.3 1-3 1.3-5a9.8 9.8 0 0 1-3.8.8c-2.4 0-4.3-1-5.7-3s-2-4.5-2-7.9c0-3.6.6-6.4 1.8-8.5 1.3-2 3.3-3 6.1-3a8 8 0 0 1 3.7.7 6.5 6.5 0 0 1 2.6 2.7c.7 1.2 1.2 2.9 1.6 5a43 43 0 0 1-.2 14.8 20.6 20.6 0 0 1-2.5 6.5 13.7 13.7 0 0 1-4.4 4.6 13.3 13.3 0 0 1-6.8 1.9l-.4-3.8zm7.3-13.6c1 0 2-.3 3-1v-1.2a92.9 92.9 0 0 0 0-5.8 19 19 0 0 0-.5-3.7 6.4 6.4 0 0 0-1.2-2.6 2.6 2.6 0 0 0-2.2-1c-1.3 0-2.2.8-2.7 2.2a16.5 16.5 0 0 0-.8 5.6c0 2.6.4 4.5 1 5.7a3.6 3.6 0 0 0 3.4 1.8zm12.4-15.9c2-2 4.5-3 7.4-3 2.7 0 4.8.7 6.3 2.2 1.4 1.4 2.2 3.7 2.2 6.7 0 1.5-.3 2.8-.7 4.1a49 49 0 0 1-4.1 7.4 76.3 76.3 0 0 0-2.5 3.6 28 28 0 0 0-2 3.9 13.9 13.9 0 0 0-1.1 4.3h11v4h-15.7v-1c0-2.3.2-4.3.8-6a25.7 25.7 0 0 1 2-4.9 31.1 31.1 0 0 1 2.4-4 67 67 0 0 0 2.6-3.5 23.4 23.4 0 0 0 1.9-3.7c.5-1.2.8-2.6.8-4 0-1.9-.4-3.2-1-4a4.5 4.5 0 0 0-3.3-1.2 6 6 0 0 0-2.7.6 8.7 8.7 0 0 0-2.1 1.5l-2.2-3zm31.9 0c2-2 4.4-3 7.3-3 2.8 0 4.9.7 6.4 2.2 1.4 1.4 2.2 3.7 2.2 6.7a18.4 18.4 0 0 1-2.5 7.9l-2.4 3.6a75.5 75.5 0 0 0-2.4 3.6 28 28 0 0 0-2 3.9 13.9 13.9 0 0 0-1.2 4.3H203v4h-16v-1c0-2.3.2-4.3.7-6a25.6 25.6 0 0 1 2-4.9 31.1 31.1 0 0 1 2.5-4 67 67 0 0 0 2.5-3.5c.8-1.2 1.4-2.4 2-3.7s.8-2.6.8-4c0-1.9-.4-3.2-1.1-4-.7-.8-1.8-1.2-3.2-1.2a6 6 0 0 0-2.7.6c-.8.4-1.5 1-2.2 1.5l-2.1-3zm22.3 15.5c0-3.5.2-6.4.5-8.8.3-2.3.8-4.2 1.5-5.7a7 7 0 0 1 2.5-3 7.2 7.2 0 0 1 3.8-1c1.5 0 2.8.3 3.8 1a6.9 6.9 0 0 1 2.6 3c.7 1.5 1.2 3.4 1.5 5.7a70 70 0 0 1 0 17.5 19.2 19.2 0 0 1-1.5 5.7 6.9 6.9 0 0 1-2.6 3.1 7.2 7.2 0 0 1-3.8 1 7.2 7.2 0 0 1-3.8-1 7 7 0 0 1-2.5-3 19.2 19.2 0 0 1-1.5-5.8c-.3-2.3-.5-5.3-.5-8.7zm12 0l-.1-7a26.7 26.7 0 0 0-.7-4.5 5.3 5.3 0 0 0-1.1-2.4c-.5-.5-1-.7-1.8-.7s-1.2.2-1.7.7c-.5.5-.8 1.3-1.1 2.4s-.5 2.6-.7 4.5a96.8 96.8 0 0 0 .7 18.5c.3 1 .6 1.9 1.1 2.3.5.5 1 .8 1.7.8s1.3-.3 1.8-.8c.5-.4.8-1.2 1.1-2.4.3-1 .5-2.6.7-4.4l.2-7zm10 0c0-3.5.1-6.4.4-8.8.3-2.3.8-4.2 1.5-5.7a7 7 0 0 1 2.6-3 7.2 7.2 0 0 1 3.8-1c1.4 0 2.7.3 3.7 1a6.9 6.9 0 0 1 2.6 3c.7 1.5 1.2 3.4 1.5 5.7a70 70 0 0 1 0 17.5 19.2 19.2 0 0 1-1.5 5.7 6.9 6.9 0 0 1-2.6 3.1 7.2 7.2 0 0 1-3.7 1 7.2 7.2 0 0 1-3.8-1 7 7 0 0 1-2.6-3 19.2 19.2 0 0 1-1.5-5.8 71 71 0 0 1-.4-8.7zm12 0c0-2.8 0-5.1-.2-7a26.7 26.7 0 0 0-.6-4.5 5.3 5.3 0 0 0-1.2-2.4c-.5-.5-1-.7-1.7-.7s-1.3.2-1.8.7c-.4.5-.8 1.3-1.1 2.4s-.5 2.6-.6 4.5a96.8 96.8 0 0 0 .6 18.5c.3 1 .7 1.9 1.1 2.3.5.5 1 .8 1.8.8s1.2-.3 1.7-.8c.5-.4.9-1.2 1.2-2.4a103.4 103.4 0 0 0 .8-11.5zm15.7 11.9v1.5a21 21 0 0 1-1 6.3 29 29 0 0 1-2.4 5.8l-3.1-.9c.8-1.7 1.4-3.5 1.7-5.3.2-1.8.4-3.4.4-5a27 27 0 0 0-.1-2.4h4.5zm21.1-26.1l-3.5.8a8 8 0 0 0-3 1.9 9.7 9.7 0 0 0-2 3.3 20.7 20.7 0 0 0-1.3 5 10.8 10.8 0 0 1 2-.6 9.4 9.4 0 0 1 2-.2c2.4 0 4.3 1 5.6 2.9 1.4 1.9 2 4.6 2 8 0 3.5-.6 6.4-1.9 8.4-1.3 2.1-3.3 3.1-6 3.1a7.9 7.9 0 0 1-3.7-.8 6.4 6.4 0 0 1-2.6-2.7 15.6 15.6 0 0 1-1.6-4.9 44.4 44.4 0 0 1 .2-14.8c.5-2.4 1.3-4.6 2.4-6.5a13.9 13.9 0 0 1 4.3-4.6 12.6 12.6 0 0 1 6.6-2l.5 3.7zm-7 13.8c-.5 0-1 0-1.6.2a9 9 0 0 0-1.5.7v2.6a78.7 78.7 0 0 0 .6 8.2 6.3 6.3 0 0 0 1.2 2.5c.5.7 1.2 1 2.1 1 1.4 0 2.3-.7 2.8-2.1.5-1.4.8-3.3.8-5.7 0-2.5-.3-4.4-1-5.6a3.5 3.5 0 0 0-3.3-1.8z" fill="#fff"/><path d="M284.7 282.4c-.5 4.2-14.1 2.3-16.3 2.3H79.3c-3.8 0-2.6-6.6-2.6-8.6v-42.6c0-2.4.3-5 3.4-5h202c3.3 0 2.6 4.1 2.6 6v47.9c0 4.5 7 4.5 7 0v-36.5c0-8.3 2.9-24.5-9.8-24.5h-190c-5 0-11.5-1-16.4.7-6 2.2-5.8 8.4-5.8 13.6v42.9c0 5.6 1 12.1 8 13 5 .5 10.2 0 15.3 0h189c5.7 0 9-4 9.7-9.2.5-4.5-6.5-4.4-7 0z" fill="#fff"/><path d="M95.7 286a2 2 0 0 1-2 2H82.2a2 2 0 0 1-2-2v-5a2 2 0 0 1 2-2h11.5a2 2 0 0 1 2 2v5zm31.1 0a2 2 0 0 1-2 2h-11.5a2 2 0 0 1-2-2v-5a2 2 0 0 1 2-2h11.5a2 2 0 0 1 2 2v5zm23.1 0a2 2 0 0 1-2 2h-11.5a2 2 0 0 1-2-2v-5a2 2 0 0 1 2-2H148a2 2 0 0 1 2 2v5zm23.2 0a2 2 0 0 1-2 2h-11.5a2 2 0 0 1-2-2v-5a2 2 0 0 1 2-2H171a2 2 0 0 1 2 2v5zm28 0a2 2 0 0 1-2 2h-11.4a2 2 0 0 1-2-2v-5a2 2 0 0 1 2-2h11.5a2 2 0 0 1 2 2v5zm23.2 0a2 2 0 0 1-2 2h-11.5a2 2 0 0 1-2-2v-5a2 2 0 0 1 2-2h11.5a2 2 0 0 1 2 2v5zm23.1 0a2 2 0 0 1-2 2H234a2 2 0 0 1-2-2v-5a2 2 0 0 1 2-2h11.5a2 2 0 0 1 2 2v5zm33.8 0a2 2 0 0 1-2 2h-11.5a2 2 0 0 1-2-2v-5a2 2 0 0 1 2-2h11.5a2 2 0 0 1 2 2v5zM95.5 231.8a2 2 0 0 1-2 2H82a2 2 0 0 1-2-2v-5a2 2 0 0 1 2-2h11.5a2 2 0 0 1 2 2v5zm31.1 0a2 2 0 0 1-2 2h-11.5a2 2 0 0 1-2-2v-5a2 2 0 0 1 2-2h11.5a2 2 0 0 1 2 2v5zm23.2 0a2 2 0 0 1-2 2h-11.6a2 2 0 0 1-2-2v-5a2 2 0 0 1 2-2h11.6a2 2 0 0 1 2 2v5zm23 0a2 2 0 0 1-2 2h-11.4a2 2 0 0 1-2-2v-5a2 2 0 0 1 2-2h11.5a2 2 0 0 1 2 2v5zm28.2 0a2 2 0 0 1-2 2h-11.5a2 2 0 0 1-2-2v-5a2 2 0 0 1 2-2H199a2 2 0 0 1 2 2v5zm23.1 0a2 2 0 0 1-2 2h-11.5a2 2 0 0 1-2-2v-5a2 2 0 0 1 2-2h11.5a2 2 0 0 1 2 2v5zm23.2 0a2 2 0 0 1-2 2h-11.6a2 2 0 0 1-2-2v-5a2 2 0 0 1 2-2h11.6a2 2 0 0 1 2 2v5zm33.7 0a2 2 0 0 1-2 2h-11.5a2 2 0 0 1-2-2v-5a2 2 0 0 1 2-2H279a2 2 0 0 1 2 2v5zM145.6 86.1c1.6 10.7 19.9 7.7 27.3 7.7H239c3.4 0 7 .3 10.2-.7 3.9-1 6.3-4.7 6.3-8.6 0-3.4.6-7.6-1.7-10.4-3.2-4-7.7-3.9-12.3-3.9h-83.6c-2.9 0-5.4.3-8.2 1.6-5 2.5-4.2 8.8-4.2 13.4 0 4.5 7 4.5 7 0 0-3-1.3-8 3.1-8h84c2.8 0 8.9-1 8.9 3 0 3 1 6.6-3.3 6.6H162c-2.5 0-9 1-9.6-2.5-.7-4.5-7.4-2.6-6.8 1.8z" fill="#fff"/><path d="M172.6 90.7v17.5c0 4.5 7 4.5 7 0V90.7c0-4.5-7-4.5-7 0zm-13.5.7V109c0 4.5 7 4.5 7 0V91.4c0-4.5-7-4.5-7 0z" fill="#fff"/><path d="M271.8 152.7v42.6c0 2.8-6.7 1.5-8.6 1.5h-17.5c-3.7 0-2.6-2.8-2.6-6v-31.2a5 5 0 0 0-5-5h-36a5 5 0 0 0-5 5v3.6c0 2 .5 1.3-.3 1.3h-54c-1.1 0-.5-.2-.2.1-.9-1-.4-3.7-.4-5a5 5 0 0 0-5-5H91c-3.4 0-1.8-11.2-1.8-13.2 0-1.8-1.5-13.3 1.7-13.3h46.4v-10h-.1l5 5V117c0-1.5.9-1.4-.2-1.4h55.2c-.4 0 0 1.4 0 2.6v5a5 5 0 0 0 5 5h51.5c2.2 0 17.8-1.7 18 1.6.8 7.6 0 15.7 0 23.4 0 6.4 10 6.4 10 0v-12.7c0-4 1-9.4-.2-13.3-3.3-10.7-14.1-9-22.9-9h-56.5l5 5c0-4.7.6-9.8-2.4-13.8-2.3-3-5.5-3.8-9-3.8H144c-3.4 0-6 .5-8.7 2.8-4 3.4-3.2 10.1-3.2 14.8a5 5 0 0 0 5 5c6.5 0 6.5-10 0-10H100c-5.2 0-10.8-.7-15.4 1.8-6.9 3.7-5.4 13.1-5.4 19.5 0 6.3-1.3 14.2 1.8 19.9 3.2 6 10.2 5.3 16 5.3h40.2l-5-5c0 4.7.1 11.2 5.1 13.6 2.5 1.1 4.6 1.3 7.2 1.3h49.8c2.3 0 4.6.1 6.7-.9 5.6-2.6 6.1-8.5 6.1-14l-5 5h36l-5-5V194c0 6.6 3.3 13 10.7 13h18.5c5.9 0 12.3 1 16.8-3.7 3.6-3.8 2.7-10.3 2.7-15v-35.6c0-6.4-10-6.4-10 0z" fill="#fff"/></svg>