<svg xmlns="http://www.w3.org/2000/svg" width="361" height="361"><path d="M113 274h136c10 0 10-15 0-15H113c-10 0-10 15 0 15zm-7-17h150c10 0 10-15 0-15H106c-9 0-10 15 0 15zm-3-17h156c10 0 10-15 0-15H103c-9 0-10 15 0 15zm-2-17h160c10 0 10-15 0-15H101c-9 0-10 15 0 15zm-1-17h162c10 0 10-15 0-15H100c-9 0-10 15 0 15zm15 86h27c6 0 6-10 0-10h-27c-6 0-6 10 0 10zm106 0h26c7 0 7-10 0-10h-26c-6 0-6 10 0 10zm-53 0h27c6 0 6-10 0-10h-27c-6 0-6 10 0 10z" fill="#fff"/><path d="M178 98V81a6 6 0 0 1 6-6h41a6 6 0 0 1 6 6v17" fill="none" stroke="#fff" stroke-width="10"/><path d="M252 93H111c-5 0-8 1-12 5a52 52 0 0 0-11 22c-8 26-9 54-8 81 1 24 3 50 13 72 3 6 8 14 16 14h132c6 0 13 1 18-3 11-8 14-24 17-37 5-22 6-46 5-68a224 224 0 0 0-9-61c-3-9-8-24-20-25-7 0-7 10 0 10l4 3a33 33 0 0 1 5 10c4 10 6 21 8 33a292 292 0 0 1-1 88c-2 11-4 21-9 31a26 26 0 0 1-5 7l-3 2H110c-4 0-6-6-8-9-4-9-7-19-8-29a295 295 0 0 1-2-88c2-12 4-23 8-34 1-3 5-14 9-14h143c6 0 6-10 0-10zm-78-13h61c6 0 6-10 0-10h-61c-6 0-6 10 0 10z" fill="#fff"/></svg>