<svg xmlns="http://www.w3.org/2000/svg" width="361" height="361"><path d="M74.6 281.9H117c6.5 0 6.5-10 0-10H74.6c-6.5 0-6.5 10 0 10zm0-13.5h24.9c6.5 0 6.5-10 0-10H74.6c-6.5 0-6.5 10 0 10zm0-27h24.9c6.5 0 6.5-10 0-10H74.6c-6.5 0-6.5 10 0 10zm0-13.6h24.9c6.5 0 6.5-10 0-10H74.6c-6.5 0-6.5 10 0 10zm0-13.5h24.9c6.5 0 6.5-10 0-10H74.6c-6.5 0-6.5 10 0 10zm0-13.5h24.9c6.5 0 6.5-10 0-10H74.6c-6.5 0-6.5 10 0 10zm0-13.5H117c6.5 0 6.5-10 0-10H74.6c-6.5 0-6.5 10 0 10zm0-13.5h24.9c6.5 0 6.5-10 0-10H74.6c-6.5 0-6.5 10 0 10zm0-27h24.9c6.5 0 6.5-10 0-10H74.6c-6.5 0-6.5 10 0 10zm166.8 112.7c0 3-.4 5.6-1 8-.8 2.4-1.9 4.5-3.2 6.2s-3.2 3-5.2 4a16.7 16.7 0 0 1-7.2 1.4 19.2 19.2 0 0 1-7.9-1.6v14.2h-10.7v-49.9a42.2 42.2 0 0 1 3.3-.8 58.3 58.3 0 0 1 4-.7 78.5 78.5 0 0 1 4.1-.4 48.6 48.6 0 0 1 4-.2c3.2 0 6 .5 8.4 1.4 2.5 1 4.5 2.2 6.2 4a17 17 0 0 1 3.9 6.2 24 24 0 0 1 1.3 8.2zm-11 .3c0-3.3-.7-6-2.2-8-1.5-2-3.7-3-6.6-3l-2.7.1a22.9 22.9 0 0 0-2 .3v19.4c.7.4 1.6.8 2.7 1s2.1.5 3.2.5c5.1 0 7.7-3.5 7.7-10.3zm50-31.3h11.3v50h-11.2v-21.2h-18.9v21.1h-11.2v-49.9h11.2v19.1h18.9v-19zM74.7 160.2h24.9c6.5 0 6.5-10 0-10h-25c-6.5 0-6.5 10 0 10zm0-27h24.9c6.5 0 6.5-10 0-10h-25c-6.5 0-6.5 10 0 10zm0-13.5h24.9c6.5 0 6.5-10 0-10h-25c-6.5 0-6.5 10 0 10zm0-13.5h24.9c6.5 0 6.5-10 0-10h-25c-6.5 0-6.5 10 0 10zm0-13.5h42.5c6.5 0 6.5-10 0-10H74.6c-6.5 0-6.5 10 0 10zM162.1 275c0 5.6-1.1 9.9-3.2 12.9-2.2 3-5 4.4-8.8 4.4-3.8 0-6.7-1.5-8.9-4.4s-3.1-7.3-3.1-13c0-2.7.2-5.2.8-7.3a16.3 16.3 0 0 1 2.4-5.4 10.8 10.8 0 0 1 3.8-3.4 10.5 10.5 0 0 1 5-1.2c3.7 0 6.6 1.5 8.8 4.5A22 22 0 0 1 162 275zm-7.3 0c0-1.7-.1-3.2-.3-4.6a16.5 16.5 0 0 0-.7-3.5 5.5 5.5 0 0 0-1.5-2.3 3.3 3.3 0 0 0-2.2-.8c-1 0-1.7.3-2.3.8a5.8 5.8 0 0 0-1.4 2.3c-.4 1-.6 2.2-.8 3.5a41.5 41.5 0 0 0 .8 12.7 5.8 5.8 0 0 0 1.4 2.3 3.6 3.6 0 0 0 4.5 0 5.5 5.5 0 0 0 1.5-2.3 39.7 39.7 0 0 0 1-8.1zm-11.6-70.5c.2-2.4.6-4.8 1.3-7.3a69.6 69.6 0 0 1 2.2-7.5 62.8 62.8 0 0 1 3-6.9 42.5 42.5 0 0 1 3.2-5.5h-14.4V171h23.3v5.2a32.1 32.1 0 0 0-3.4 4.7 53.9 53.9 0 0 0-3.5 6.7 62.3 62.3 0 0 0-2.9 8.1 41.8 41.8 0 0 0-1.5 8.7h-7.3zM126.3 76a48.6 48.6 0 0 0 2.8-1.3 35.4 35.4 0 0 0 3-1.6 43 43 0 0 0 2.8-2 19 19 0 0 0 2.3-2h5v33.3H135v-24a21.7 21.7 0 0 1-3.2 1.8 41.7 41.7 0 0 1-3.5 1.3l-2.2-5.5zm46.2-7v20h3.5v6h-3.5v7.4h-7V95H151v-5.2l2.6-4.8a94.4 94.4 0 0 1 7.7-11 60 60 0 0 1 4.3-4.8h6.8zm-7 8.8a332.4 332.4 0 0 0-4 5.3 36.5 36.5 0 0 0-3.6 6h7.6V77.9zM74.6 255h24.9c6.4 0 6.4-10 0-10H74.6c-6.5 0-6.5 10 0 10z" fill="#fff"/></svg>