<svg xmlns="http://www.w3.org/2000/svg" width="361" height="361"><path d="M81 77h207c5 0 5-7 0-7H81c-5 0-5 7 0 7zm0 9h20c5 0 5-7 0-7H81c-5 0-5 7 0 7zm37 0h21c4 0 4-7 0-7h-21c-4 0-4 7 0 7zm37 0h21c5 0 5-7 0-7h-21c-4 0-4 7 0 7zm38 0h20c5 0 5-7 0-7h-20c-5 0-5 7 0 7zm37 0h21c4 0 4-7 0-7h-21c-4 0-4 7 0 7zM70 72v135h3V72c0-2-3-2-3 0zm197 14h21c5 0 5-7 0-7h-21c-4 0-4 7 0 7zM80 246a18 18 0 0 0 2-2 25 25 0 0 0 2-2 28 28 0 0 0 2-2 14 14 0 0 0 1-2h4v36h-5v-28a14 14 0 0 1-2 1 27 27 0 0 1-2 2l-2-3zm46-4l-3 1a8 8 0 0 0-3 2 10 10 0 0 0-2 3 21 21 0 0 0-2 5 11 11 0 0 1 2-1 9 9 0 0 1 2 0c3 0 5 1 6 3l2 8-2 9c-1 2-3 3-6 3a8 8 0 0 1-4-1 6 6 0 0 1-2-3 16 16 0 0 1-2-5 43 43 0 0 1 0-15l3-6a14 14 0 0 1 4-5 13 13 0 0 1 7-2v4zm-7 14h-2a9 9 0 0 0-1 1v2a70 70 0 0 0 1 9 6 6 0 0 0 1 2l2 1 3-2 1-6a13 13 0 0 0-1-5 4 4 0 0 0-4-2zm15-10a18 18 0 0 0 2-2 25 25 0 0 0 2-2 28 28 0 0 0 2-2 14 14 0 0 0 1-2h3v36h-4v-28a14 14 0 0 1-2 1 27 27 0 0 1-2 2l-2-3zm37 0l-1 6a19 19 0 0 1-4 4 17 17 0 0 1 4 4 9 9 0 0 1 2 5l-1 4a9 9 0 0 1-2 3l-3 2-3 1a9 9 0 0 1-3-1 8 8 0 0 1-3-2 8 8 0 0 1-2-3 10 10 0 0 1 0-3l1-6a15 15 0 0 1 4-5 11 11 0 0 1-5-9l1-4a8 8 0 0 1 2-2 7 7 0 0 1 3-2 9 9 0 0 1 2 0h3a7 7 0 0 1 3 2l2 2v4zm-4 19a7 7 0 0 0 0-2 9 9 0 0 0-1-2 12 12 0 0 0-2-2 23 23 0 0 0-2-2 12 12 0 0 0-2 4 10 10 0 0 0-1 4l1 5a4 4 0 0 0 6 0l1-5zm-7-19v3a8 8 0 0 0 2 4l2 1a14 14 0 0 0 2-3 9 9 0 0 0 1-4l-1-5a3 3 0 0 0-3-1h-1a3 3 0 0 0-1 1l-1 2v2zm27 10v-9l2-5a7 7 0 0 1 2-3 7 7 0 0 1 4-1l4 1a7 7 0 0 1 2 3l2 5a70 70 0 0 1 0 18 19 19 0 0 1-2 6 7 7 0 0 1-2 3 7 7 0 0 1-4 1 7 7 0 0 1-4-1 7 7 0 0 1-2-3 19 19 0 0 1-2-6 71 71 0 0 1 0-9zm12 0l-1-7a27 27 0 0 0 0-4 5 5 0 0 0-1-3h-4l-1 3v4a97 97 0 0 0 0 19 6 6 0 0 0 1 2l2 1 2-1 1-2a103 103 0 0 0 1-12zm20-1c2 0 3 2 4 3l1 6c0 3 0 6-2 8s-4 3-7 3a12 12 0 0 1-7-2l1-4 3 1 2 1 4-2 2-5-2-5c-1-2-2-2-5-2h-1v-4h1l5-1 1-5-1-4a4 4 0 0 0-3-1 6 6 0 0 0-3 0 8 8 0 0 0-2 1l-2-3a9 9 0 0 1 4-2 11 11 0 0 1 3 0c3 0 5 0 6 2l2 7a10 10 0 0 1-1 5 8 8 0 0 1-3 3zm22 0c2 0 3 2 4 3l1 6c0 3 0 6-2 8s-4 3-7 3a12 12 0 0 1-7-2l1-4 3 1 2 1 4-2 2-5-2-5c-1-2-3-2-5-2h-1v-4h1l4-1 2-5-1-4a4 4 0 0 0-3-1 6 6 0 0 0-3 0 8 8 0 0 0-2 1l-2-3a9 9 0 0 1 3-2 11 11 0 0 1 4 0c3 0 5 0 6 2l2 7a10 10 0 0 1-1 5 8 8 0 0 1-3 3zm17 13v2a21 21 0 0 1-1 6 29 29 0 0 1-2 6l-3-1a29 29 0 0 0 2-10 27 27 0 0 0 0-3h4zm8 2a16 16 0 0 0 4-1l3-1 2-4 1-5a10 10 0 0 1-4 1c-2 0-4-1-5-3l-2-8c0-3 0-6 2-8 1-2 3-3 6-3a8 8 0 0 1 3 0 7 7 0 0 1 3 3l1 5a44 44 0 0 1 0 15 21 21 0 0 1-2 6 14 14 0 0 1-5 5 13 13 0 0 1-6 2l-1-4zm7-13l3-1v-2a92 92 0 0 0 0-5 19 19 0 0 0 0-4 6 6 0 0 0-1-3 3 3 0 0 0-2-1c-2 0-3 1-3 2a17 17 0 0 0-1 6l1 6 3 2z" fill="#fff"/><path d="M285 282c-1 5-14 3-17 3H79c-3 0-2-7-2-9v-43c0-2 0-5 3-5h202c3 0 3 5 3 6v48c0 5 7 5 7 0v-36c0-8 3-25-10-25H92c-5 0-12-1-16 1-6 2-6 8-6 14v43c0 5 1 12 8 13h204c6 0 9-4 10-10 0-4-7-4-7 0z" fill="#fff"/><path d="M96 286a2 2 0 0 1-2 2H82a2 2 0 0 1-2-2v-5a2 2 0 0 1 2-2h12a2 2 0 0 1 2 2v5zm31 0a2 2 0 0 1-2 2h-12a2 2 0 0 1-2-2v-5a2 2 0 0 1 2-2h12a2 2 0 0 1 2 2v5zm23 0a2 2 0 0 1-2 2h-12a2 2 0 0 1-2-2v-5a2 2 0 0 1 2-2h12a2 2 0 0 1 2 2v5zm23 0a2 2 0 0 1-2 2h-11a2 2 0 0 1-2-2v-5a2 2 0 0 1 2-2h11a2 2 0 0 1 2 2v5zm28 0a2 2 0 0 1-2 2h-11a2 2 0 0 1-2-2v-5a2 2 0 0 1 2-2h11a2 2 0 0 1 2 2v5zm23 0a2 2 0 0 1-2 2h-11a2 2 0 0 1-2-2v-5a2 2 0 0 1 2-2h11a2 2 0 0 1 2 2v5zm23 0a2 2 0 0 1-2 2h-11a2 2 0 0 1-2-2v-5a2 2 0 0 1 2-2h12a2 2 0 0 1 2 2v5zm34 0a2 2 0 0 1-2 2h-11a2 2 0 0 1-2-2v-5a2 2 0 0 1 2-2h11a2 2 0 0 1 2 2v5zM96 232a2 2 0 0 1-2 2H82a2 2 0 0 1-2-2v-5a2 2 0 0 1 2-2h12a2 2 0 0 1 2 2v5zm31 0a2 2 0 0 1-2 2h-12a2 2 0 0 1-2-2v-5a2 2 0 0 1 2-2h12a2 2 0 0 1 2 2v5zm23 0a2 2 0 0 1-2 2h-12a2 2 0 0 1-2-2v-5a2 2 0 0 1 2-2h12a2 2 0 0 1 2 2v5zm23 0a2 2 0 0 1-2 2h-12a2 2 0 0 1-2-2v-5a2 2 0 0 1 2-2h12a2 2 0 0 1 2 2v5zm28 0a2 2 0 0 1-2 2h-12a2 2 0 0 1-2-2v-5a2 2 0 0 1 2-2h12a2 2 0 0 1 2 2v5zm23 0a2 2 0 0 1-2 2h-11a2 2 0 0 1-2-2v-5a2 2 0 0 1 2-2h11a2 2 0 0 1 2 2v5zm23 0a2 2 0 0 1-2 2h-11a2 2 0 0 1-2-2v-5a2 2 0 0 1 2-2h11a2 2 0 0 1 2 2v5zm34 0a2 2 0 0 1-2 2h-12a2 2 0 0 1-2-2v-5a2 2 0 0 1 2-2h12a2 2 0 0 1 2 2v5zM73 151h216c2 0 2-3 0-3H73c-2 0-2 3 0 3z" fill="#fff"/><g fill="#fff"><path d="M134 181c4 9 9 24 20 25 6 1 11-6 13-10a153 153 0 0 0 17-42l7-26c3-7 6-15 11-22 2-4 5-8 9-4 7 7 11 19 14 28a251 251 0 0 1 6 21c1 4 8 2 7-2-3-12-17-69-37-53a47 47 0 0 0-11 17 208 208 0 0 0-9 23l-6 23a159 159 0 0 1-12 31c-2 3-4 8-8 9-6 2-13-16-14-19-2-5-9-3-7 1z"/><path d="M168 180a55 55 0 0 1-11 18c-2 2-4 1-6-1-5-6-8-14-11-20a267 267 0 0 1-9-29c-3-13-20-74-40-49a97 97 0 0 0-14 29 252 252 0 0 0-6 21c-1 4 6 6 7 1 3-11 6-23 11-34 2-5 6-14 11-16 4-1 9 8 10 11 12 21 15 46 24 68 3 9 7 19 15 25 13 10 22-15 26-23 1-4-5-6-7-1zm73 1c4 9 10 26 22 25 7-1 11-10 14-15a190 190 0 0 0 15-41c1-4-6-6-7-2a239 239 0 0 1-10 31 55 55 0 0 1-10 18c-8 7-15-13-17-18-2-4-8-2-7 2z"/><path d="M275 179a55 55 0 0 1-10 18c-3 3-5 1-7-1-5-5-8-13-11-20a266 266 0 0 1-9-29c-3-12-20-73-40-48-7 8-10 19-14 29a251 251 0 0 0-6 20c-1 5 6 6 7 2 3-12 7-24 12-35 2-4 5-13 10-15 4-2 9 7 10 10 12 22 15 47 24 69 3 9 7 19 15 25 13 9 23-15 26-23 2-4-5-6-7-2z"/></g></svg>