<svg xmlns="http://www.w3.org/2000/svg" width="361" height="361"><path d="M113.1 274.2h136c9.7 0 9.8-15 .1-15h-136c-9.7 0-9.8 15 0 15zm2.1 18h26.5c6.5 0 6.5-10 0-10h-26.5c-6.4 0-6.4 10 0 10zm106 0h26.2c6.4 0 6.4-10 0-10h-26.2c-6.4 0-6.4 10 0 10zm-53 0h26.5c6.5 0 6.5-10 0-10h-26.5c-6.4 0-6.4 10 0 10z" fill="#fff"/><path d="M178.2 98.1v-17a6 6 0 0 1 6-6h40.5a6 6 0 0 1 6 6v17" fill="none" stroke="#fff" stroke-width="10"/><path d="M251.5 93.1c-20.8 1-41.8 0-62.6 0h-78c-4.6 0-8.1 1.4-11.6 4.8a52 52 0 0 0-11 21.7c-8 26-9.2 54.6-8.4 81.6.8 23.7 3 49.6 13.2 71.4 3 6 8.2 14 15.7 14h131.7c6 0 13.4 1.2 18.6-2.6 10.7-7.8 14.2-24.5 16.8-36.6 4.8-22.5 5.9-46 5.2-68.9a224 224 0 0 0-8.9-60.3c-3-9.6-8.6-24.6-20.7-25-6.4-.3-6.4 9.7 0 10 1 0 2.4 1 4 2.7a33 33 0 0 1 5.2 9.6c4.2 10.5 6.3 21.9 7.9 33a292.2 292.2 0 0 1-1 88.9c-1.7 10.3-4 20.9-8.5 30.4a25.8 25.8 0 0 1-5.1 7.5c-1.1 1.1-1.8 1.3-2.8 1.3H110c-3.9 0-6.3-5.3-7.8-8.2-4.7-9.1-6.8-19.7-8.6-29.7a295 295 0 0 1-1.5-88c1.4-11.5 3.8-23 7.7-34 1.1-2.9 5-13.6 9.2-13.6h120.3c7.4 0 14.8.4 22.2 0 6.4-.3 6.4-10.3 0-10zm-77.3-13.4h60.4c6.5 0 6.5-10 0-10h-60.4c-6.5 0-6.5 10 0 10z" fill="#fff"/></svg>