<svg xmlns="http://www.w3.org/2000/svg" width="361" height="361"><path d="M81 77h207c5 0 5-7 0-7H81c-5 0-5 7 0 7zm0 9h20c5 0 5-7 0-7H81c-5 0-5 7 0 7zm37 0h21c4 0 4-7 0-7h-21c-4 0-4 7 0 7zm37 0h21c5 0 5-7 0-7h-21c-4 0-4 7 0 7zm38 0h20c5 0 5-7 0-7h-20c-5 0-5 7 0 7zm37 0h21c4 0 4-7 0-7h-21c-4 0-4 7 0 7zM70 72v218c0 2 3 2 3 0V72c0-2-3-2-3 0z" fill="#fff"/><path d="M74 182h135c2 0 2-3 0-3H74c-2 0-2 3 0 3z" fill="#fff"/><path d="M78 182l11-27a180 180 0 0 1 25-44c4-5 9-10 15-11 5-2 10 1 14 5 13 10 20 27 27 41a325 325 0 0 1 15 36c1 4 8 2 7-2-9-25-19-51-35-71-8-10-19-20-32-16-14 5-23 21-30 33-10 17-17 35-24 54-1 4 6 6 7 2z" fill="#fff"/><path d="M75 269c14 0 24-14 31-24 9-14 16-30 22-45l21-54c7-14 15-30 27-41 6-5 12-7 18-4 13 6 21 21 27 33 2 4 8 0 6-3-8-15-24-46-46-37-14 5-23 21-29 33a388 388 0 0 0-26 58 336 336 0 0 1-34 67c-5 5-10 10-17 10-5 0-5 7 0 7z" fill="#fff"/><path d="M73 182c8 24 19 50 35 71 7 9 19 20 32 15s22-20 29-32a388 388 0 0 0 26-59 340 340 0 0 1 17-40c7-13 15-29 29-36 6-3 12 0 17 4 9 7 15 18 21 28 2 4 8 1 6-3-9-15-25-45-47-36-13 6-22 21-29 34-10 18-18 38-25 58a335 335 0 0 1-18 41 143 143 0 0 1-13 22 39 39 0 0 1-15 13c-13 5-24-12-30-21a250 250 0 0 1-22-45 307 307 0 0 1-6-16c-2-4-9-3-7 2zm194-96h21c5 0 5-7 0-7h-21c-4 0-4 7 0 7z" fill="#fff"/><path d="M242 153h18v139h-18V153z" fill="#fff"/></svg>