<svg xmlns="http://www.w3.org/2000/svg" width="361" height="361"><path d="M106.2 125.8a64 64 0 0 0 0 89.5c3.1 3.2 8-1.8 4.9-5a56.9 56.9 0 0 1 0-79.6c3.2-3.2-1.8-8.2-5-5z" fill="#fff"/><path d="M94 114.6a80.2 80.2 0 0 0 0 112.2c3.2 3.2 8.1-1.8 5-5a73.1 73.1 0 0 1 0-102.3c3.1-3.2-1.8-8.2-5-5zm161.8 101a64 64 0 0 0 0-89.5c-3.1-3.2-8 1.7-5 5a56.9 56.9 0 0 1 0 79.5c-3 3.3 1.9 8.2 5 5z" fill="#fff"/><path d="M268 226.8a80.2 80.2 0 0 0 0-112.2c-3.2-3.3-8.1 1.7-5 5a73.1 73.1 0 0 1 0 102.2c-3.1 3.3 1.8 8.2 5 5zm-58.9-29c.2 7.3-7.5 5.8-12.3 5.8h-39c-2.8 0-5.1-.5-6.2-3.8-1-2.7 1-7.2 1.6-9.9l3-9.2c2-5.6 4.2-11.3 6-17 1.4-4.8 1.7-9.8 3.4-14.5a35.9 35.9 0 0 1 6.1-11.3c1.8-2 4-1.2 6.8-1.2 2.3 0 7.5-.9 9.3.1 3 1.7 5 7.1 6.4 10.1 2 4.4 2.3 9.1 3.4 13.8 3.1 12.5 9.8 24.2 11.5 37.1.6 4.4 7.6 4.5 7 0-1.7-13-7.7-25-11.3-37.5-1.4-4.6-1.6-9.4-3.3-14a43 43 0 0 0-7-12.6c-3-3.6-5.8-4-10.4-4-5 0-12-1.6-16 2-6.9 6.2-9.4 15.5-11.1 24.1-2.6 13.1-9.3 25-12 38.2-1.6 8.4 2.4 16.6 11.8 16.6h48c6.9 0 11.5-6.3 11.3-12.8-.1-4.5-7.1-4.5-7 0z" fill="#fff"/><path d="M232.8 281.2a6 6 0 0 1-6 6.1h-93a6.1 6.1 0 0 1-6-6.1V81c0-3.4 2.7-6.2 6-6.2h93a6.1 6.1 0 0 1 6 6.2v200z" fill="none" stroke="#fff" stroke-width="10" stroke-miterlimit="10"/><path d="M129.8 186h10c6.5 0 6.5-10 0-10h-10c-6.4 0-6.4 10 0 10z" fill="#fff"/><path d="M231.2 280.3a6 6 0 0 0-6-6h-91.4a6 6 0 0 0-6 6v.6a6 6 0 0 0 6 6h91.3a6 6 0 0 0 6-6v-.6z" fill="none" stroke="#fff" stroke-width="10" stroke-miterlimit="10"/><path d="M129.8 186.3h10c4.5 0 4.5-7 0-7h-10c-4.5 0-4.5 7 0 7z" fill="#fff"/></svg>