<svg xmlns="http://www.w3.org/2000/svg" width="361" height="361"><path d="M102 209a13 13 0 0 1-12-8 42 42 0 0 1-4-20l1-12a31 31 0 0 1 3-9 16 16 0 0 1 6-5 12 12 0 0 1 6-2 13 13 0 0 1 4 0l3 1a12 12 0 0 1 3 3l-2 10-3-3a11 11 0 0 0-5-1 7 7 0 0 0-3 1 8 8 0 0 0-3 3 18 18 0 0 0-2 6 45 45 0 0 0 0 14l1 6a10 10 0 0 0 3 3l4 2h3a14 14 0 0 0 2-1 9 9 0 0 0 2-1l2-1 2 9-5 3-6 1zm37-1l-2-6-1-6h-12l-1 6-2 6h-7a1476 1476 0 0 1 3-16 859 859 0 0 1 4-14 747 747 0 0 1 3-13 402 402 0 0 1 3-12h7a616 616 0 0 1 6 25 862 862 0 0 1 3 14l4 16h-8zm-9-42l-1 3-1 5-1 6-2 7h10l-2-7a355 355 0 0 0-1-6l-1-5a228 228 0 0 0-1-3zm30 42a11 11 0 0 1-6-1l-4-5a23 23 0 0 1-2-6 45 45 0 0 1-1-9v-34h7v33l1 5 1 4 2 2a5 5 0 0 0 2 1c2 0 3-1 5-3a19 19 0 0 0 1-9v-33h7v43a23 23 0 0 1-3 6 12 12 0 0 1-4 5 11 11 0 0 1-6 1zm43-55v11h-10v44h-7v-44h-10v-11h27zm2 0h7v55h-7v-55zm41 28a51 51 0 0 1-1 12 29 29 0 0 1-3 8 15 15 0 0 1-5 6 12 12 0 0 1-13 0 16 16 0 0 1-5-6 27 27 0 0 1-3-8 53 53 0 0 1 0-24c0-4 2-6 3-9a16 16 0 0 1 5-5 12 12 0 0 1 6-2l7 2a16 16 0 0 1 5 5 30 30 0 0 1 3 9 51 51 0 0 1 1 12zm-24 0a30 30 0 0 0 2 12 10 10 0 0 0 3 4 6 6 0 0 0 3 1 6 6 0 0 0 4-1 9 9 0 0 0 3-4 21 21 0 0 0 1-5 37 37 0 0 0 0-14l-1-6a9 9 0 0 0-3-3 6 6 0 0 0-4-1l-3 1a10 10 0 0 0-3 3 21 21 0 0 0-2 6v7zm48 27a377 377 0 0 0-14-36v36h-8v-55h6a98 98 0 0 1 4 7l3 8a332 332 0 0 1 4 9 576 576 0 0 1 4 9v-33h7v55h-6zm19-117l-19-19c-7-7-18 4-11 11l19 19c7 7 18-4 11-11zm1 48l-67-67c-7-7-17 4-10 11l66 66c7 7 18-4 11-10zm-94 0l-67-67c-6-7-17 4-10 11l67 66c6 7 17-4 10-10zm-94-1l-19-19c-7-7-18 4-11 10l19 19c7 7 18-3 11-10zm141 1l-67-67c-6-7-17 4-10 11l66 66c7 7 18-4 11-10zm-95-1L84 72c-7-7-18 4-11 11l66 66c7 6 17-4 11-11zM84 243l20-20c7-7-4-17-11-11l-20 20c-7 7 4 18 11 11zm47 46l66-66c7-7-3-17-10-11l-66 66c-7 7 3 18 10 11zm47 0l66-66c7-7-4-17-11-11l-66 66c-6 7 4 18 11 11zm47 0l66-66c6-7-4-17-11-11l-66 66c-7 7 4 18 11 11zm47 0l19-19c7-7-4-18-11-11l-19 19c-7 7 4 18 10 11zm-187 0l65-66c7-7-4-17-11-11l-65 66c-7 7 4 18 10 11z" fill="#fff"/><path d="M282 283c1-2 4-2 2-2H78c-3 0 2 5 2 2V77c0-2 0 3-3 3h207c2 0-2-6-2-2v206c0 7 10 7 10 0V77c0-7-6-7-12-7H84c-6 0-14-1-14 7v207c0 9 9 7 14 7h194c5 0 12 1 14-5 1-7-8-9-10-3z" fill="#fff"/></svg>