<svg xmlns="http://www.w3.org/2000/svg" width="361" height="361"><path d="M287 281.3c0 3-2.8 5.6-6.2 5.6H81c-3.4 0-6.2-2.5-6.2-5.6V80.4c0-3 2.8-5.6 6.2-5.6h199.8c3.4 0 6.2 2.5 6.2 5.6v200.9z" fill="none" stroke="#fff" stroke-width="10" stroke-miterlimit="10"/><path d="M248 243.4c0 2-1.8 3.5-3.9 3.5h-125c-2.1 0-3.9-1.6-3.9-3.5V117.7c0-2 1.7-3.5 3.9-3.5h125c2.2 0 3.9 1.5 3.9 3.5v125.7z" fill="none" stroke="#fff" stroke-width="10" stroke-miterlimit="10"/><path d="M155 185.8c0 .1 0 .2-.2.2h-9.2c-.1 0-.3 0-.3-.2v-9.3l.3-.2h9.2c.2 0 .3 0 .3.2v9.3zm29.7 60.3l-.3.1h-8.1v-3.6l.3-.1h8.1v3.6z" fill="none" stroke="#fff" stroke-width="10" stroke-miterlimit="10"/><path fill="#fff" d="M117.8 139.8l-.2-23.6 23.6.1z"/><path d="M122.8 139.8l-.2-23.6-5 5 23.6.1-3.5-8.5-23.5 23.5c-4.5 4.5 2.5 11.6 7 7l23.6-23.4c3-3.1.8-8.6-3.6-8.6l-23.6-.1a5 5 0 0 0-5 5l.2 23.6c0 6.4 10 6.5 10 0zm100-23.5l23.7-.1-.1 23.6z" fill="#fff"/><path d="M222.9 121.3l23.6-.1-5-5-.1 23.6 8.5-3.5-23.5-23.5c-4.6-4.6-11.6 2.5-7 7l23.4 23.5c3.1 3.1 8.5.9 8.6-3.5v-23.6a5 5 0 0 0-5-5l-23.5.1c-6.5 0-6.5 10 0 10zm22.5 100.1v23.7l-23.5-.2z" fill="#fff"/><path d="M240.4 221.4v23.7l5-5-23.5-.2 3.5 8.6L249 225c4.6-4.6-2.5-11.6-7-7l-23.6 23.4c-3 3.1-.8 8.5 3.6 8.5l23.6.2a5 5 0 0 0 5-5l-.1-23.6c0-6.5-10-6.5-10 0z" fill="#fff"/><g fill="#fff"><path d="M141.2 245h-23.6l.1-23.5z"/><path d="M141.2 240h-23.6l5 5 .1-23.6-8.5 3.6 23.5 23.5c4.6 4.5 11.6-2.5 7-7.1l-23.4-23.5c-3.1-3-8.5-.8-8.6 3.5v23.7a5 5 0 0 0 5 5l23.5-.2c6.5 0 6.5-10 0-10z"/></g><path d="M217 185.8c0 .1 0 .2-.2.2h-9.2c-.1 0-.3 0-.3-.2v-9.3l.3-.2h9.2c.1 0 .3 0 .3.2v9.3zM185 118l-.2.1h-8.2v-3.6l.3-.1h8.1v3.6z" fill="none" stroke="#fff" stroke-width="10" stroke-miterlimit="10"/></svg>