<svg xmlns="http://www.w3.org/2000/svg" width="361" height="361"><path d="M106 126a64 64 0 0 0 0 89c3 4 8-1 5-5a57 57 0 0 1 0-79c3-3-2-8-5-5z" fill="#fff"/><path d="M94 115a80 80 0 0 0 0 112c3 3 8-2 5-5a73 73 0 0 1 0-102c3-4-2-9-5-5zm162 101a64 64 0 0 0 0-90c-3-3-8 2-5 5a57 57 0 0 1 0 80c-3 3 2 8 5 5z" fill="#fff"/><path d="M268 227a80 80 0 0 0 0-112c-3-4-8 1-5 5a73 73 0 0 1 0 102c-3 3 2 8 5 5zm-59-29c0 7-7 6-12 6h-39c-3 0-5-1-6-4s1-7 1-10l3-9 6-17 4-15a36 36 0 0 1 6-11c1-2 4-1 6-1h10c3 2 5 7 6 10l4 14c3 12 9 24 11 37 1 4 8 4 7 0-2-13-8-25-11-38-2-4-2-9-3-14a43 43 0 0 0-7-12c-3-4-6-4-11-4s-12-2-16 2c-7 6-9 15-11 24-3 13-9 25-12 38-2 8 2 17 12 17h48c7 0 11-7 11-13 0-5-7-5-7 0z" fill="#fff"/><path d="M233 281a6 6 0 0 1-6 6h-93a6 6 0 0 1-6-6V81c0-3 3-6 6-6h93a6 6 0 0 1 6 6v200z" fill="none" stroke="#fff" stroke-width="10" stroke-miterlimit="10"/><path d="M130 186h10c6 0 6-10 0-10h-10c-7 0-7 10 0 10z" fill="#fff"/><path d="M231 280a6 6 0 0 0-6-6h-91a6 6 0 0 0-6 6v1a6 6 0 0 0 6 6h91a6 6 0 0 0 6-6v-1z" fill="none" stroke="#fff" stroke-width="10" stroke-miterlimit="10"/><path d="M130 186h10c4 0 4-7 0-7h-10c-5 0-5 7 0 7z" fill="#fff"/></svg>