<svg xmlns="http://www.w3.org/2000/svg" width="361" height="361"><path d="M116 122a84 84 0 0 0 0 117c5 5 12-3 7-7a73 73 0 0 1 0-103c5-4-2-12-7-7z" fill="#fff"/><path d="M100 108a105 105 0 0 0-30 73 104 104 0 0 0 30 73c5 4 12-3 7-7a94 94 0 0 1 0-132c5-5-2-12-7-8zm146 131a84 84 0 0 0 0-117c-4-4-12 3-7 8a73 73 0 0 1 0 102c-4 5 3 12 7 7z" fill="#fff"/><path d="M262 254a105 105 0 0 0 30-73 104 104 0 0 0-30-73c-5-5-12 2-7 7 36 36 36 95 0 132-5 4 2 11 7 7zm-45-38c0 8-6 7-11 7h-58c-11 0 0-25 2-30 4-12 8-23 10-36a44 44 0 0 1 5-12 39 39 0 0 1 4-6l1-2h20c-1 0-1 0 0 0 3 3 6 8 7 12l4 12 5 18c4 12 9 24 11 37 1 6 11 6 10 0-2-13-7-25-11-38a133 133 0 0 1-5-18l-4-13c-3-7-8-19-17-20h-20c-4 1-8 4-10 7a61 61 0 0 0-10 26c-3 13-9 26-13 38-3 12-7 25 4 33 4 3 9 2 14 2h56a16 16 0 0 0 16-17c0-6-10-6-10 0z" fill="#fff"/></svg>