<svg xmlns="http://www.w3.org/2000/svg" width="361" height="361"><path d="M260.7 70.1h-148c-8 0-16.5-.8-24 2.3a30.7 30.7 0 0 0-18.8 24.3c-.5 3.5-.3 7.1-.3 10.6v79.5c0 17.5 13 31.4 30.7 31.9 7.8.2 15.8 0 23.7 0h68.8l-3.5-1.5 61.6 72.6c3.6 4.2 9-.5 8.3-4.9l-11-72.5-4.7 6.3h17.2a31 31 0 0 0 26-14.5c6.4-9.4 4.7-22.3 4.7-33.1v-47.4c0-10 1.3-21-1-30.9a31 31 0 0 0-29.7-22.7c-6.4-.1-6.4 9.9 0 10a21 21 0 0 1 20.7 20.7v86.7a21 21 0 0 1-12.9 19.7c-6.5 2.7-15 1.5-22 1.5h-3c-3.6 0-5.3 3.2-4.9 6.3l11 72.6 8.3-4.9-48.2-56.8-10.7-12.6c-1.8-2.1-3.3-4.6-6.4-4.6h-77.7c-11.2 0-23.8 1.8-31.4-8.5-6-8.3-4-22-4-31.6V121c0-9.9-1.9-22.7 3.4-31.5 5.8-9.8 16.3-9.5 26-9.5h151.8c6.5 0 6.5-10 0-10z" fill="#fff"/><path d="M180 115c-3 0-6 .4-8.7 1.2a50 50 0 0 0-9 3.7l-5.4-14.5a39.9 39.9 0 0 1 11.8-4.9 53.7 53.7 0 0 1 13.2-1.7c5.5 0 10 .7 13.5 2.2 3.5 1.4 6.3 3.2 8.4 5.5a18.8 18.8 0 0 1 4.3 7.2 26 26 0 0 1 1.2 7.6 19 19 0 0 1-1.1 6.6 27.1 27.1 0 0 1-2.8 5.5 34.2 34.2 0 0 1-3.8 4.9 215.4 215.4 0 0 1-4.2 4.3 239.6 239.6 0 0 0-3.2 3.3 31.3 31.3 0 0 0-5.2 7.6c-.6 1.4-1 2.9-1 4.3v1.5l.2 1.8h-16.9a18 18 0 0 1-.3-2.8 67.4 67.4 0 0 1 0-2.8c0-2.4.2-4.5.8-6.4a25.3 25.3 0 0 1 2.4-5.4 30.3 30.3 0 0 1 3.4-4.7 93.3 93.3 0 0 1 4-4.2 94.2 94.2 0 0 0 5.3-5.8 9.9 9.9 0 0 0 2.4-6.6c0-2-.7-3.8-2.3-5.2-1.6-1.5-4-2.2-7-2.2zm11.9 64.3a11 11 0 0 1-3.6 8.7 12.4 12.4 0 0 1-8.3 3c-3 0-5.8-1-8.2-3-2.5-2-3.7-5-3.7-8.7 0-3.8 1.3-6.7 3.7-8.7a12.4 12.4 0 0 1 8.2-3c3 0 5.8 1 8.3 3 2.4 2 3.6 5 3.6 8.7z" fill="#fff"/></svg>