<svg xmlns="http://www.w3.org/2000/svg" width="361" height="361"><path d="M228 241.7c0 5.2-21 26.2-26.3 26.2h-41.5c-5.2 0-26.2-21-26.2-26.2v-85.3c0-5.2 9.2-14.5 14.4-14.5h65.1c5.2 0 14.5 9.3 14.5 14.5v85.3z" fill="#fff"/><path d="M223 241.7c0-1-.6.7-1.1 1.5a37.6 37.6 0 0 1-3.1 4 103.1 103.1 0 0 1-10 10.2c-2 1.8-5 4.6-7.2 5.4-1 .5.8.1-.4.1h-40.9c.4 0 .3 0-.4-.3a25.8 25.8 0 0 1-3.8-2.6 96.5 96.5 0 0 1-10.1-9.6 48.3 48.3 0 0 1-6.7-8.4c-.6-1-.3.3-.3-1.5v-79c0-4.4-.2-6.3 2.9-9.9 3.9-4.4 6.5-4.7 11.7-4.7h59.2c3.7 0 10.2 6 10.2 9.8v85c0 6.4 10 6.4 10 0v-85.2c0-8-8.5-16.4-15.6-18.8-3.6-1.3-7.8-.8-11.6-.8h-57.3c-8.5 0-16.5 9.1-19.1 16.5-1 2.8-.4 6.7-.4 9.7v78c0 4.3 2.7 7.8 5.2 11a96.3 96.3 0 0 0 15.6 15.6c3.4 2.7 7 5.2 11.4 5.2h35.3c3.9 0 7 .2 10.6-1.7 6-3.3 11.3-8.8 16-13.7 4-4.2 9.3-9.7 9.9-15.8.5-6.5-9.5-6.4-10 0zM96 188.3h23c6.5 0 6.5-10 0-10H96c-6.5 0-6.5 10 0 10z" fill="#fff"/><path d="M78.3 199.2l20-11.5c5.6-3.3.6-12-5-8.7l-20 11.6c-5.6 3.2-.6 11.9 5 8.6zM96 239h23.2c6.4 0 6.4-10 0-10H96c-6.5 0-6.5 10 0 10z" fill="#fff"/><path d="M82.8 254l16.4-16.4c4.6-4.5-2.5-11.6-7-7l-16.4 16.3c-4.6 4.6 2.5 11.7 7 7zm20.7-121.4l20 11.6c5.7 3.2 10.7-5.5 5.1-8.7l-20-11.5c-5.6-3.3-10.6 5.4-5 8.6z" fill="#fff"/><path d="M90 110.7l11.6 20c3.3 5.6 12 .6 8.7-5l-11.6-20c-3.2-5.6-11.9-.6-8.6 5z" fill="#fff"/><g fill="#fff"><path d="M265.6 178.3h-23c-6.5 0-6.5 10 0 10h23c6.5 0 6.5-10 0-10z"/><path d="M288.3 190.6l-20-11.6c-5.6-3.2-10.6 5.4-5 8.7l20 11.5c5.6 3.3 10.6-5.4 5-8.6z"/></g><g fill="#fff"><path d="M265.6 229h-23c-6.5 0-6.5 10 0 10h23c6.5 0 6.5-10 0-10z"/><path d="M285.8 247l-16.3-16.4c-4.6-4.6-11.7 2.5-7 7l16.3 16.4c4.5 4.6 11.6-2.5 7-7z"/></g><g fill="#fff"><path d="M253 124l-20 11.5c-5.6 3.2-.6 11.9 5 8.7l20-11.6c5.6-3.2.6-11.9-5-8.6z"/><path d="M262.9 105.7l-11.6 20c-3.2 5.6 5.4 10.6 8.7 5l11.5-20c3.2-5.6-5.4-10.6-8.6-5z"/></g><path d="M212.2 127.9h-62.5v-18.1c0-4.4 13.6-8 18-8h26.5c4.4 0 18 3.6 18 8v18z" fill="#fff"/><path d="M212.2 122.9h-62.5l5 5v-17.1c0-.3.1-1.8-.1-.3-.1 1 1.2-.4 2-.8 7.4-4 16.3-3 24.4-3 8.4 0 16.5-.7 24.4 3 .5.3 2.4 1.9 2 .8-.5-1-.2-.4-.2.3v17c0 6.5 10 6.5 10 0v-13.6c0-5.3-.3-8.8-5-12.1-9-6.3-21-5.3-31.2-5.3-10.8 0-21.6-.6-31.2 5.3-4.9 3-5.1 7-5.1 12.1v13.7a5 5 0 0 0 5 5h62.5c6.5 0 6.5-10 0-10zm-50.4-31.5l7.7 7.7" fill="#fff"/><path d="M158.2 95l7.8 7.7a5 5 0 0 0 7 0 5 5 0 0 0 0-7.1l-7.7-7.7a5 5 0 0 0-7 0 5 5 0 0 0 0 7zm41.7-3.6l-7.8 7.7m4.2-11.2l-7.8 7.7a5 5 0 0 0 0 7 5 5 0 0 0 7.1 0l7.8-7.6a5 5 0 0 0 0-7.1 5 5 0 0 0-7 0z" fill="#fff"/></svg>