<svg xmlns="http://www.w3.org/2000/svg" width="361" height="361"><path d="M144 278l-60-60 2 5v-85l-2 5 60-59-6 2h86l-6-2 60 60-2-6v85l2-5-60 60 6-2h-85c-10 0-10 15-1 15h85c4 0 7-4 9-6l30-30 26-26c3-2 3-5 3-8v-79c0-4 0-7-2-10l-56-55c-2-2-5-6-9-6h-85c-4 0-7 3-10 6l-13 13-33 33-9 9c-3 3-3 6-3 9v79c0 4 0 6 3 9l9 9 33 33 17 17c7 7 18-3 11-10z" fill="#fff"/><path d="M111 195h4a7 7 0 0 0 2-1l1-2 1-2-2-4a31 31 0 0 0-8-3 56 56 0 0 1-4-2 17 17 0 0 1-5-3 13 13 0 0 1-3-3 12 12 0 0 1-1-6l1-6a13 13 0 0 1 4-4 16 16 0 0 1 5-3 29 29 0 0 1 16 0 29 29 0 0 1 5 2l-3 9a29 29 0 0 0-4-2 19 19 0 0 0-6-1l-5 1a4 4 0 0 0-2 3l1 2 1 2a96 96 0 0 0 6 3l7 2a17 17 0 0 1 4 3 11 11 0 0 1 3 4l1 6c0 5-2 8-5 10-3 3-8 4-14 4a39 39 0 0 1-10-1 17 17 0 0 1-3-1 25 25 0 0 1-3-2l3-8a27 27 0 0 0 13 3zm60-39v9h-14v38h-10v-38h-15v-9h39zm51 24l-2 10a22 22 0 0 1-5 8 20 20 0 0 1-8 4 27 27 0 0 1-9 2c-3 0-6 0-9-2a21 21 0 0 1-8-4 22 22 0 0 1-5-8 29 29 0 0 1-1-10c0-4 0-8 2-11a23 23 0 0 1 5-8 21 21 0 0 1 7-4 26 26 0 0 1 9-2l9 2a21 21 0 0 1 8 4 22 22 0 0 1 5 8 29 29 0 0 1 2 11zm-36 0v6a14 14 0 0 0 3 5 11 11 0 0 0 4 3 12 12 0 0 0 5 1l5-1a11 11 0 0 0 4-3 14 14 0 0 0 3-5 24 24 0 0 0 0-13 14 14 0 0 0-3-5 11 11 0 0 0-4-3 12 12 0 0 0-5-1 11 11 0 0 0-9 4 14 14 0 0 0-3 5 22 22 0 0 0 0 7zm59-25l16 4c3 3 5 7 5 12 0 6-2 10-5 13s-10 3-17 3h-3v16h-11v-46a60 60 0 0 1 8-1 99 99 0 0 1 7 0zm0 10h-4v13h3a18 18 0 0 0 9-1l2-6v-3a5 5 0 0 0-2-2 9 9 0 0 0-4-1l-4-1z" fill="#fff"/></svg>