<svg xmlns="http://www.w3.org/2000/svg" width="361" height="361"><path d="M212.2 283.3c0 2-1.8 3.6-4 3.6H79c-2.3 0-4-1.6-4-3.6V153.2c0-2 1.7-3.7 4-3.7h129.3c2.2 0 4 1.7 4 3.7v130z" fill="none" stroke="#fff" stroke-width="10" stroke-miterlimit="10"/><path d="M187 258.7c0 1.3-1.2 2.3-2.5 2.3h-81c-1.4 0-2.5-1-2.5-2.3v-81.3c0-1.3 1.1-2.3 2.5-2.3h81c1.3 0 2.5 1 2.5 2.3v81.3z" fill="none" stroke="#fff" stroke-width="10" stroke-miterlimit="10"/><path d="M126.8 221.4c0 .1 0 .2-.2.2h-6l-.1-.2v-6l.2-.1h6l.1.1v6zm19.2 39.1h-5.4v-2.3h5.4v2.3z" fill="none" stroke="#fff" stroke-width="10" stroke-miterlimit="10"/><path fill="#fff" d="M102.6 191.7v-15.3h15.2z"/><path d="M107.6 191.7v-15.3l-5 5h15.2l-3.5-8.5a218091.8 218091.8 0 0 1-15.2 15.2c-4.6 4.6 2.5 11.7 7 7l15.3-15.1c3-3.1.8-8.5-3.6-8.6h-15.3a5 5 0 0 0-5 5l.1 15.3c0 6.4 10 6.4 10 0zm63.1-15.2l15.3-.1v15.3z" fill="#fff"/><path d="M170.7 181.4H186l-5-5v15.3l8.4-3.6a218091.8 218091.8 0 0 0-15.2-15.2c-4.5-4.6-11.6 2.5-7 7l15.2 15.3c3 3 8.5.8 8.5-3.6l.1-15.2a5 5 0 0 0-5-5h-15.3c-6.4 0-6.4 10 0 10zm14.6 63.1v15.3H170z" fill="#fff"/><path d="M180.3 244.5v15.3l5-5h-15.2l3.5 8.5 15.2-15.2c4.6-4.6-2.5-11.7-7-7.1l-15.3 15.2c-3 3-.8 8.5 3.6 8.5l15.3.1a5 5 0 0 0 5-5l-.1-15.3c0-6.4-10-6.4-10 0zm-62.5 15.2l-15.3.1.1-15.3z" fill="#fff"/><path d="M117.8 254.7l-15.3.1 5 5 .1-15.3-8.5 3.6 15.2 15.2c4.6 4.5 11.6-2.5 7-7.1l-15-15.2c-3.1-3.1-8.6-.8-8.6 3.5v15.3a5 5 0 0 0 5 5h15.2c6.5-.1 6.5-10.1 0-10z" fill="#fff"/><path d="M167 221.4l-.2.2h-6s-.2 0-.2-.2v-6l.2-.1h6l.2.1v6zm-20.8-43.8h-5.4v-2.3h5.4v2.3z" fill="none" stroke="#fff" stroke-width="10" stroke-miterlimit="10"/><g fill="#fff"><path d="M285.2 125.5c-.5 9-9.1 8-15.5 8h-23.2c-5.4 0-13 1.4-16.7-3.6-2.7-3.8-1.3-11.8-1.3-16.1v-23c0-6-.2-14 8.1-14h37.8c5.2 0 10.8 1.6 10.8 8.1v40.6c0 4.5 7 4.5 7 0V88.8c0-6.8-1-12.4-7-16.7-4.5-3.2-11.2-2.3-16.3-2.3h-23.3c-5.4 0-10.8-.5-16 1.7-6.7 2.9-8 10.2-8 16.7V110c0 7.2-1.3 15.6 1.6 22.3 3.7 8.9 13.7 8.2 21.6 8.2h28.4c3 0 5.9 0 8.8-.8 6.3-1.9 9.8-8 10.2-14.2.3-4.5-6.7-4.5-7 0z"/><path d="M253.5 86.6v37.1c0 4.5 7 4.5 7 0v-37c0-4.6-7-4.6-7 0z"/></g></svg>