<svg xmlns="http://www.w3.org/2000/svg" width="361" height="361"><path d="M282 281a6 6 0 0 1-6 6H86a6 6 0 0 1-6-6V171a6 6 0 0 1 6-6h190a6 6 0 0 1 6 6v110z" fill="none" stroke="#fff" stroke-width="10" stroke-miterlimit="10"/><path d="M125 152H90c-2 0-10 1-10-2v-19c0-3-1-7 3-7h51c7 0 7-10 0-10H82c-8 0-12 6-12 13v21c0 7 4 14 12 14h43c6 0 6-10 0-10zm112-28h43c2 0 1 2 1 4v21c0 4-2 3-6 3h-58c-7 0-7 10 0 10h56c5 0 9 1 13-2 7-3 6-12 6-18l-1-19c-1-8-8-9-15-9h-39c-6 0-6 10 0 10zm-51 72c0 4-2 4-5 4s-5 0-6-4c0-3 3-4 6-4s5 0 5 4c0 2 3 2 3 0l-2-6-6-1-5 1c-3 1-3 4-4 6a7 7 0 0 0 3 6l6 1h5c2-1 3-4 3-7 0-2-3-2-3 0z" fill="#fff"/><path d="M132 165l-18-30a3 3 0 0 1 1-4l91-56a3 3 0 0 1 4 1l35 56c1 2 0 4-1 5l-46 29" fill="none" stroke="#fff" stroke-width="10" stroke-miterlimit="10"/><path d="M203 72l-29 58 4-3h-64l2 10 94-58c6-4 1-12-5-9l-94 58c-4 3-2 10 3 10l64-1a5 5 0 0 0 5-2l29-58c3-6-6-11-9-5z" fill="#fff"/></svg>