<svg xmlns="http://www.w3.org/2000/svg" width="361" height="361"><path d="M226.6 277h-92c4.1 0 6.2 2.8 7 5.3l-.1-.4c-.2-.5-.2-1-.3-1.6-.3-2.1 0 .2 0-.4l-.4-2.5-.7-7.4-1.7-19a7154.1 7154.1 0 0 1-7.5-102l-.2-2.2c-.2-3-6.3.7-3.4.7h106.9c.2 0-3.7-3.7-3.9-1a63.3 63.3 0 0 0 0 .5l-.3 3.1a11490.9 11490.9 0 0 1-4 56.5 4566 4566 0 0 1-4 51 950.5 950.5 0 0 1-1.7 18.1 260.8 260.8 0 0 1-.3 3.3c-.1.7-.6 4-.1 1a33.2 33.2 0 0 1-.3 1.7c-.4 2 1.2-2 1.6-2.4l3.4-2c-9.1 3.2-5.3 17.7 3.8 14.5 8.2-2.8 7-16.8 7.7-23.7 1.4-14.5 2.5-29 3.6-43.5 2-25.5 3.7-51 5.5-76.4.4-6.3-2-13.9-8.8-15.4-2.7-.6-5.6-.3-8.3-.3h-99.5c-7.4 0-12.4 5-12.8 12.5-.4 6.9.8 14 1.2 20.9 1 14.9 2.2 29.8 3.3 44.6a4390.6 4390.6 0 0 0 3.7 47c.8 9.3 1.1 19 3 28.1 1.4 7.3 8.7 6.5 14.3 6.5h85.1c9.7 0 9.8-15 .1-15z" fill="#fff"/><path d="M204.8 93.6c.3 1.8-1 3.6-3 4l-40 8c-2 .4-4-.7-4.3-2.5L154.2 87c-.3-1.8 1-3.6 3-4l40-8c2-.4 4 .7 4.3 2.5l3.3 16.2z" fill="none" stroke="#fff" stroke-width="8.2" stroke-miterlimit="10"/><path d="M124.4 119l116.8-24.5c9.7-2 5.7-16.8-4-14.8l-116.7 24.5c-9.7 2-5.7 16.8 4 14.8zm48.5 43.5l.4 101.1c0 9.7 15 9.8 15 .1l-.4-101c0-9.8-15-9.9-15-.2zm30.8 0l-3.2 101.1c-.3 9.7 14.7 9.8 15 .1l3.2-101c.3-9.8-14.7-9.8-15-.2zm-61 0l3.4 101.1c.3 9.7 15.3 9.8 15 .1l-3.4-101c-.4-9.7-15.4-9.9-15-.2z" fill="#fff"/></svg>