<svg xmlns="http://www.w3.org/2000/svg" width="361" height="361"><path d="M289 91l-19-19c-7-7-18 4-11 11l19 19c7 7 18-4 11-11zm1 48l-67-67c-7-7-17 4-10 11l66 66c7 7 18-4 11-10zm-94 0l-67-67c-6-7-17 4-10 11l67 66c6 7 17-4 10-10zm-94-1l-19-19c-7-7-18 4-11 10l19 19c7 7 18-3 11-10zm141 1l-67-67c-6-7-17 4-10 11l66 66c7 7 18-4 11-10zm-95-1L84 72c-7-7-18 4-11 11l66 66c7 6 17-4 11-11zM84 243l20-20c7-7-4-17-11-11l-20 20c-7 7 4 18 11 11zm47 46l66-66c7-7-3-17-10-11l-66 66c-7 7 3 18 10 11zm47 0l66-66c7-7-4-17-11-11l-66 66c-6 7 4 18 11 11zm47 0l66-66c6-7-4-17-11-11l-66 66c-7 7 4 18 11 11zm47 0l19-19c7-7-4-18-11-11l-19 19c-7 7 4 18 10 11zm-187 0l65-66c7-7-4-17-11-11l-65 66c-7 7 4 18 10 11z" fill="#fff"/><path d="M282 283c1-2 4-2 2-2H78c-3 0 2 5 2 2V77c0-2 0 3-3 3h207c2 0-2-6-2-2v206c0 7 10 7 10 0V77c0-7-6-7-12-7H84c-6 0-14-1-14 7v207c0 9 9 7 14 7h194c5 0 12 1 14-5 1-7-8-9-10-3z" fill="#fff"/><path d="M109 208a401 401 0 0 0-1-6l-1-6H95l-1 6a396 396 0 0 0-1 6h-7a1352 1352 0 0 1 6-31 826 826 0 0 1 3-12l3-12h6a674 674 0 0 1 6 24 949 949 0 0 1 3 15 1636 1636 0 0 1 3 16h-7zm-8-43a167 167 0 0 1-1 4l-1 5-1 6a612 612 0 0 0-1 6h8l-1-7-1-6a2700 2700 0 0 1-2-8zm29 45c-5 0-9-3-11-8-3-5-4-12-4-21l1-12a34 34 0 0 1 3-9 16 16 0 0 1 5-6 10 10 0 0 1 6-1h3l3 1a11 11 0 0 1 3 3l-2 10a13 13 0 0 0-3-3 9 9 0 0 0-4-1l-3 1a8 8 0 0 0-3 3 17 17 0 0 0-1 6 45 45 0 0 0 1 20 10 10 0 0 0 2 4 6 6 0 0 0 4 2l3-1a12 12 0 0 0 2-1 8 8 0 0 0 1-1l2-1 1 10a14 14 0 0 1-9 4zm29-57h7v55h-7v-23h-11v23h-7v-55h7v21h11v-21zm34 0v11h-9v44h-7v-44h-9v-11h25zm15 56a9 9 0 0 1-6-1 12 12 0 0 1-4-5 25 25 0 0 1-2-7 53 53 0 0 1 0-9v-34h6v33l1 6 1 4 1 2a4 4 0 0 0 3 1l4-3 1-10v-33h7v34l-1 9-2 7a12 12 0 0 1-4 5 9 9 0 0 1-5 1zm35-1a379 379 0 0 0-7-18 229 229 0 0 0-7-18v36h-6v-55h5l3 6a278 278 0 0 1 4 9 352 352 0 0 1 3 9l4 9v-33h6v55h-5zm24-45c-3 0-5 2-7 5a48 48 0 0 0-1 20l1 6a10 10 0 0 0 3 4l3 1h2a5 5 0 0 0 1 0v-19h7v27l-4 1a19 19 0 0 1-6 1 9 9 0 0 1-6-2 15 15 0 0 1-5-5 33 33 0 0 1-3-9 63 63 0 0 1-1-12l1-12 3-9 5-5a10 10 0 0 1 6-2 13 13 0 0 1 7 1 11 11 0 0 1 3 3l-2 10a15 15 0 0 0-3-3 8 8 0 0 0-4-1z" fill="#fff"/></svg>