<svg xmlns="http://www.w3.org/2000/svg" width="361" height="361"><path d="M171 82l-55-12a6 6 0 0 0-7 5L88 179a6 6 0 0 0 4 7l55 11a6 6 0 0 0 7-5l21-103a6 6 0 0 0-4-7zm-19 93l-56-12 15-69 1 1 54 11-14 69zm2-85v1l-1 1-24-5v-1l1-1 24 4v1zm-35 90l1-4a1 1 0 0 1 2-1l4 1a1 1 0 0 1 1 1l-1 5a1 1 0 0 1-2 1l-4-1a1 1 0 0 1-1-2z" fill="#fff"/><g fill="none" stroke="#fff" stroke-width="3" stroke-miterlimit="10"><circle cx="131" cy="135" r="24"/><ellipse cx="131" cy="135" rx="12" ry="24"/><path d="M107 136h49"/></g><g fill="none" stroke="#fff" stroke-width="3" stroke-miterlimit="10"><path d="M266 277a14 14 0 0 1-14 13h-31a14 14 0 0 1-14-13v-70a14 14 0 0 1 14-14h31a14 14 0 0 1 14 14v70zm9-72v77a8 8 0 0 0 15 0v-77a8 8 0 0 0-15 0zm-93 0v77a8 8 0 0 0 16 0v-77a8 8 0 0 0-16 0z"/><circle cx="237" cy="157" r="28"/></g></svg>