<svg xmlns="http://www.w3.org/2000/svg" width="361" height="361"><path d="M287 281c0 3-3 6-6 6H81c-3 0-6-3-6-6V80c0-3 3-5 6-5h200c3 0 6 2 6 5v201z" fill="none" stroke="#fff" stroke-width="10" stroke-miterlimit="10"/><path d="M248 243c0 2-2 4-4 4H119c-2 0-4-2-4-4V118c0-2 2-4 4-4h125c2 0 4 2 4 4v125z" fill="none" stroke="#fff" stroke-width="10" stroke-miterlimit="10"/><path d="M155 186h-10v-9l1-1h9v10zm30 60h-9v-3h9v3z" fill="none" stroke="#fff" stroke-width="10" stroke-miterlimit="10"/><path fill="#fff" d="M118 140v-24h23z"/><path d="M123 140v-24l-5 5h23l-3-8-24 23c-4 5 3 12 7 7l24-23c3-3 1-9-4-9h-23a5 5 0 0 0-5 5v24c0 6 10 6 10 0zm100-24h24l-1 24z" fill="#fff"/><path d="M223 121h24l-5-5-1 24 9-4-24-23c-4-5-11 2-7 7l24 23c3 3 8 1 8-3v-24a5 5 0 0 0-5-5h-23c-7 0-7 10 0 10zm22 100v24h-23z" fill="#fff"/><path d="M240 221v24l5-5h-23l3 9 24-24c5-5-2-12-7-7l-24 23c-3 4 0 9 4 9h24a5 5 0 0 0 5-5l-1-24c1-6-9-6-9 1z" fill="#fff"/><g fill="#fff"><path d="M141 245h-23v-23z"/><path d="M141 240h-23l5 5v-24l-9 4 24 24c4 4 11-3 7-8l-24-23c-3-3-8-1-8 3v24a5 5 0 0 0 5 5h23c7 0 7-10 0-10z"/></g><path d="M217 186h-10v-9l1-1h9v10zm-32-68h-8v-4h8v4z" fill="none" stroke="#fff" stroke-width="10" stroke-miterlimit="10"/></svg>