<svg xmlns="http://www.w3.org/2000/svg" width="361" height="361"><path d="M287 281c0 3-3 6-6 6H81c-3 0-6-3-6-6V80c0-3 3-5 6-5h200c3 0 6 2 6 5v201z" fill="none" stroke="#fff" stroke-width="10" stroke-miterlimit="10"/><path d="M160 130v1h-3v-4h3v3zm46 0v1h-3v-4h3v3zm-23 14h-4v-4h4v4z" fill="none" stroke="#fff" stroke-width="10" stroke-miterlimit="10"/><path d="M212 151h-62s2 1 0 0l-5-5a383 383 0 0 1-18-20v7a598 598 0 0 1 10-12c4-5 9-12 14-15l-1 1h62l-1-1 2 2 3 3 9 10a556 556 0 0 1 10 12v-7a581 581 0 0 1-11 12 253 253 0 0 1-9 9 77 77 0 0 1-3 3l-1 1c-7 1-4 11 3 10l6-5 9-9a506 506 0 0 0 13-14c2-2 2-5 0-7-8-10-16-21-26-28-2-2-6-1-9-1h-58c-5 0-9 6-12 9a427 427 0 0 0-18 19v8a395 395 0 0 0 20 21c2 2 6 7 10 7h63c7 0 7-10 0-10z" fill="#fff"/><path d="M148 225l1 2v1l-2 1h-1l-1-3 3-1zm-24-40h1l1 2-3 2-1-3 2-1zm24 13l1 3-3 2-1-3 3-2z" fill="none" stroke="#fff" stroke-width="10" stroke-miterlimit="10"/><path d="M139 169l27 47 5 7c-1 0-1-2-1 0l-2 6a383 383 0 0 1-8 27l6-4a595 595 0 0 1-15-3c-6-1-15-2-20-5l1 1-1-1-3-7-12-19-11-19-3-6-1-2v1l2-7 4-12a554 554 0 0 1 5-15l-6 4a580 580 0 0 1 16 3l12 3a77 77 0 0 1 5 1l1 1c4 5 11-2 7-7-1-2-5-3-7-4l-12-3a507 507 0 0 0-19-4c-3 0-5 1-6 4-5 11-10 23-12 36 0 3 2 6 4 9l10 18 18 31c3 5 10 6 15 7a426 426 0 0 0 25 5c3 0 6-1 7-4l8-27c1-4 3-9 1-13l-3-5-28-49c-3-6-12-1-9 5z" fill="#fff"/><path d="M214 225l-1 2v1l2 1 2-3-3-1zm23-40l-1 2 2 2 2-3-3-1zm-23 13l-2 3 3 2 2-3-3-2z" fill="none" stroke="#fff" stroke-width="10" stroke-miterlimit="10"/><path d="M214 164l-28 49-4 5c-2 4 0 9 1 13l9 27c1 3 3 4 6 4 12-2 26-4 37-9 3-1 5-5 6-7l11-19 18-31c2-4-1-12-2-16a443 443 0 0 0-9-24c-1-3-3-4-6-4a556 556 0 0 0-18 4l-13 3c-2 1-6 2-7 4-4 5 3 12 7 7-1 0 0 0 0 0l4-2a214 214 0 0 1 13-3 529 529 0 0 1 17-3l-6-4a602 602 0 0 1 5 14 350 350 0 0 1 3 12 137 137 0 0 1 2 7v1c1 2 1-1 1-1l-1 1-3 6-11 20-11 19-4 6-1 2 1-1c-4 3-14 4-19 5a551 551 0 0 1-16 3l6 4a435 435 0 0 1-8-26 91 91 0 0 1-2-7c-1-2 0-1-1 0l4-7 28-47c3-6-6-11-9-5z" fill="#fff"/></svg>