<svg xmlns="http://www.w3.org/2000/svg" width="361" height="361"><g fill="#fff"><circle cx="165" cy="259" r="33"/><path d="M116 108a6 6 0 0 0-6-6H71v100h39a6 6 0 0 0 6-6v-88z"/><path d="M71 226v33h57a37 37 0 0 1 75 0c7-1 9-4 9-12v-66a5 5 0 0 0-1-3l-27-47a5 5 0 0 0-4-2 6 6 0 0 0-1-1h-53a6 6 0 0 0-6 6v93l-49-1zm57-85a5 5 0 0 1 5-5h47c1 1 3 1 3 3l17 30 2 2c2 4-1 7-4 7h-65a5 5 0 0 1-5-5v-32z"/><path d="M116 211a6 6 0 0 0-6-6H71v17h39a6 6 0 0 0 6-5v-6z"/></g><path d="M257 266l29 25c3 3 8-2 5-5l-29-25c-4-3-9 2-5 5z" fill="#fff"/><path d="M252 268l18 22c3 4 8-1 5-5l-18-22c-3-3-8 2-5 5z" fill="#fff"/><path d="M247 267l6 21c2 4 8 3 7-2l-6-21c-1-4-8-2-7 2zm-12-6l-29 25c-4 3 1 8 5 5l29-25c3-3-2-8-5-5z" fill="#fff"/><path d="M240 263l-18 22c-3 4 2 9 4 5l18-22c3-3-2-8-4-5z" fill="#fff"/><path d="M242 265l-6 21c-1 5 6 7 7 2l6-21c1-4-5-6-7-2z" fill="#fff"/><path d="M262 264a4 4 0 0 1-4 4h-19a4 4 0 0 1-4-4v-3a4 4 0 0 1 4-4h19a4 4 0 0 1 4 4v3zm-49-43a4 4 0 0 1 4 4v28a4 4 0 0 1-4 4h-2a4 4 0 0 1-4-4v-28a4 4 0 0 1 4-4h2z" fill="#fff"/><path d="M212 237l47 18c5 2 6-5 2-7l-47-18c-4-2-6 5-2 7z" fill="#fff"/><path d="M236 258h24c7 0 7-10 0-10h-24c-7 0-7 10 0 10z" fill="#fff"/><path d="M215 247l24 9c4 2 6-5 2-6l-24-10c-4-1-6 6-2 7z" fill="#fff"/></svg>