<svg xmlns="http://www.w3.org/2000/svg" width="361" height="361"><path d="M219.1 90.7a2.8 2.8 0 0 1-2.8 2.9h-71a2.8 2.8 0 0 1-2.8-2.9V77.5a2.8 2.8 0 0 1 2.9-2.8h70.9a2.8 2.8 0 0 1 2.8 2.8v13.2z" fill="none" stroke="#fff" stroke-width="10" stroke-miterlimit="10"/><path d="M205.1 132a35.7 35.7 0 0 1-49.9 0c-1.4-1.4-3.5.7-2.1 2a38.8 38.8 0 0 0 54.1 0c1.4-1.3-.7-3.4-2-2zm-28.3 156.8a153 153 0 0 1-103-44c-1.3-1.3-3.4.8-2 2.1a156 156 0 0 0 105 44.8c2 .1 2-2.9 0-3zm28.8-195.2a25 25 0 0 1-24.8 24.7c-13.7.4-24.4-11.5-24.7-24.7-.1-4.5-7.1-4.5-7 0a32.2 32.2 0 0 0 31.7 31.7c17.6.4 31.4-14.8 31.8-31.7 0-4.5-7-4.5-7 0z" fill="#fff"/><path d="M193.5 97.8c-.2 7.5-3.5 18-12.5 18.3-1.9.1-1.9 3.1 0 3 10.7-.4 15.3-12 15.5-21.3 0-2-3-2-3 0z" fill="#fff"/><path d="M164.8 97.8c.2 9.6 5.3 20.9 16.2 21.3 2 .1 2-2.9 0-3-9.1-.3-13-10.4-13.2-18.3 0-2-3-2-3 0z" fill="#fff"/><path d="M179.3 97.8v19.8c0 2 3 2 3 0V97.8c0-2-3-2-3 0zM153 132.2a10920817.4 10920817.4 0 0 0-81.4 113c-1.1 1.5 1.5 3 2.6 1.4L155 134.4l.4-.6c1.2-1.6-1.4-3.1-2.6-1.6zm52.2 1.9l2.1 2.7c.5.6 1.6.5 2.2 0 .6-.7.5-1.5 0-2.2l-2.2-2.7c-.5-.6-1.6-.5-2 0-.7.7-.6 1.5 0 2.2z" fill="#fff"/><path d="M266.2 276.7a13.9 13.9 0 0 1-14 13.8h-31.5a13.9 13.9 0 0 1-14-13.8V207a13.9 13.9 0 0 1 14-13.8h31.6a14 14 0 0 1 14 13.8v69.7zm8.5-71.7v77a7.8 7.8 0 0 0 15.7 0v-77a7.8 7.8 0 0 0-15.6 0zm-92.2 0v77a7.8 7.8 0 0 0 15.6 0v-77a7.8 7.8 0 0 0-15.6 0z" fill="none" stroke="#fff" stroke-width="3" stroke-miterlimit="10"/><circle cx="236.5" cy="156.6" r="28" fill="none" stroke="#fff" stroke-width="3" stroke-miterlimit="10"/></svg>