<svg xmlns="http://www.w3.org/2000/svg" width="361" height="361"><path d="M212 283c0 2-2 4-4 4H79c-2 0-4-2-4-4V153c0-2 2-3 4-3h129c2 0 4 1 4 3v130z" fill="none" stroke="#fff" stroke-width="10" stroke-miterlimit="10"/><path d="M126 220v1h-5l-1-1v-5h6v5zm41 0v1h-5v-6h5v5zm-21 11h-5v-5h5v5z" fill="none" stroke="#fff" stroke-width="10" stroke-miterlimit="10"/><path d="M173 239h-58l-5-5a363 363 0 0 1-18-19v7a571 571 0 0 1 9-11l14-14h-1 58c4 2 9 9 13 13a528 528 0 0 1 10 12v-7a555 555 0 0 1-11 11 262 262 0 0 1-8 9 80 80 0 0 1-3 3l-1 1c-6 1-4 10 3 9 2 0 4-2 6-4l8-8a483 483 0 0 0 13-14c2-2 2-5 0-7a555 555 0 0 0-11-13c-4-5-9-11-14-14-3-2-8-1-11-1h-45c-3 0-8-1-11 1-5 3-10 10-14 14a515 515 0 0 0-11 13c-2 2-2 4 0 7a375 375 0 0 0 18 20c3 2 6 7 10 7h60c7 0 7-10 0-10zm112-114c0 9-9 8-15 8h-23c-6 1-13 2-17-3-3-4-1-12-1-16V91c0-6-1-14 8-14h38c5 0 10 1 10 8v41c0 4 7 4 7 0V89c0-7-1-13-7-17-4-3-11-2-16-2h-23c-6 0-11-1-16 1-7 3-8 11-8 17v22c0 7-1 16 1 22 4 9 14 9 22 9h28l9-1c6-2 10-8 10-15 1-4-6-4-7 0z" fill="#fff"/><path d="M254 87v37c0 4 7 4 7 0V87c0-5-7-5-7 0z" fill="#fff"/></svg>