<svg xmlns="http://www.w3.org/2000/svg" width="361" height="361"><path d="M203.8 150.4a14.2 14.2 0 0 1-14.2 14.2h-18.2a14.2 14.2 0 0 1-14.2-14.2V133a14.2 14.2 0 0 1 14.2-14.2h18.2a14.2 14.2 0 0 1 14.2 14.2v17.4z" fill="none" stroke="#fff" stroke-width="10" stroke-miterlimit="10"/><path d="M247.4 136.7H224c-6.5 0-6.5 10 0 10h23.3c6.4 0 6.4-10 0-10zM185.5 98V74.8c0-6.5-10-6.5-10 0v23.3c0 6.4 10 6.4 10 0zm-37.4 4l-16.5-16.4c-4.5-4.5-11.6 2.5-7 7l16.4 16.6c4.6 4.5 11.7-2.5 7-7.1zm71.9 7.2l16.5-16.5c4.5-4.6-2.5-11.6-7.1-7l-16.5 16.4c-4.5 4.6 2.5 11.6 7 7zm-34.5 99.3v-23.3c0-6.5-10-6.5-10 0v23.3c0 6.4 10 6.4 10 0zm-71.9-62H137c6.5 0 6.5-10 0-10h-23.3c-6.4 0-6.4 10 0 10zm99.3 34.6l16.5 16.4c4.6 4.6 11.6-2.5 7-7L220 174c-4.6-4.6-11.6 2.5-7 7zM141 174l-16.4 16.5c-4.6 4.5 2.5 11.6 7 7l16.5-16.4c4.6-4.6-2.5-11.7-7-7.1z" fill="#fff"/><g fill="#fff"><path d="M77.9 288.5c-6.7-.8-4.2-15.3-4.2-19v-20c0-7 11.4-5 15.4-5h194.4c3.1 0 6.2 1.6 6.2 5.4v20.5c0 3 2.3 18.1-4.2 18.1H78c-2 0-2 3 0 3h206.7c11.2 0 8-15.7 8-23v-19.3c0-4.4-3-7.7-7.5-7.7H78.7c-10.3 0-8 12.2-8 19.1v20.5c0 5.2 1 9.7 7.2 10.4 1.9.2 1.9-2.8 0-3z"/><path d="M80 254v25c0 6.4 10 6.4 10 0v-25c0-6.4-10-6.4-10 0zm14.7 0v25c0 6.4 10 6.4 10 0v-25c0-6.4-10-6.4-10 0zm14.7 0v25c0 6.4 10 6.4 10 0v-25c0-6.4-10-6.4-10 0zm14.7 0v25c0 6.4 10 6.4 10 0v-25c0-6.4-10-6.4-10 0zm14.8 0v25c0 6.4 10 6.4 10 0v-25c0-6.4-10-6.4-10 0zm14.7 0v25c0 6.4 10 6.4 10 0v-25c0-6.4-10-6.4-10 0zm14.8 0v25c0 6.4 10 6.4 10 0v-25c0-6.4-10-6.4-10 0zm14.7 0v25c0 6.4 10 6.4 10 0v-25c0-6.4-10-6.4-10 0zm14.7 0v25c0 6.4 10 6.4 10 0v-25c0-6.4-10-6.4-10 0z"/></g></svg>