<svg xmlns="http://www.w3.org/2000/svg" width="361" height="361"><path d="M219 91a3 3 0 0 1-3 3h-71a3 3 0 0 1-3-3V78a3 3 0 0 1 3-3h71a3 3 0 0 1 3 3v13z" fill="none" stroke="#fff" stroke-width="10" stroke-miterlimit="10"/><path d="M205 132a36 36 0 0 1-50 0c-1-1-3 1-2 2a39 39 0 0 0 54 0c2-1-1-3-2-2zm83 113a153 153 0 0 1-106 44c-41 1-80-16-108-44-1-2-4 1-2 2a156 156 0 0 0 108 45c41 1 81-16 110-45 2-1 0-4-2-2zM206 94a25 25 0 0 1-25 24c-14 1-25-11-25-24 0-5-7-5-7 0a32 32 0 0 0 32 31c17 1 31-15 32-31 0-5-7-5-7 0z" fill="#fff"/><path d="M194 98c-1 7-4 18-13 18-2 0-2 3 0 3 11 0 15-12 16-21 0-2-3-2-3 0z" fill="#fff"/><path d="M165 98c0 9 5 21 16 21 2 0 2-3 0-3-9 0-13-10-13-18 0-2-3-2-3 0z" fill="#fff"/><path d="M179 98v20c0 2 3 2 3 0V98c0-2-3-2-3 0zm-26 34a10920817 10920817 0 0 0-81 113c-2 2 1 3 2 2l81-113c2-2-1-3-2-2zm52 2l30 39c2 1 4-1 3-2l-31-39c-1-2-3 1-2 2zm73 100l10 13c2 2 4-1 2-2l-10-14c-1-1-3 1-2 2z" fill="#fff"/><path d="M276 228a50 50 0 0 1-35 47 50 50 0 0 1-56-20 50 50 0 0 1 4-60 50 50 0 0 1 59-12 50 50 0 0 1 28 45c0 9 15 9 15 0a66 66 0 0 0-33-57 65 65 0 0 0-67 3 65 65 0 0 0-29 59 65 65 0 0 0 38 53 65 65 0 0 0 62-5 65 65 0 0 0 29-54c0-9-15-9-15 0z" fill="#fff"/><path d="M191 273l81-81c7-6-4-17-10-10l-81 81c-7 6 3 17 10 10z" fill="#fff"/></svg>