<svg xmlns="http://www.w3.org/2000/svg" width="361" height="361"><g stroke="#fff" stroke-width="10" stroke-miterlimit="10"><path d="M287 258a6 6 0 0 1-7 7H82a6 6 0 0 1-6-7V133a6 6 0 0 1 6-6h198a6 6 0 0 1 7 6v125zm-78-136a4 4 0 0 1-5 5h-46a4 4 0 0 1-5-5v-21a4 4 0 0 1 5-5h46a4 4 0 0 1 5 5v21z" fill="none"/><path d="M177 203h-38a3 3 0 0 1-3-4v-7c0-2 1-3 3-3h38m6 0h39a3 3 0 0 1 4 3v7c0 2-2 4-4 4h-39" fill="#fff"/><path d="M187 203v35a3 3 0 0 1-3 3h-8a3 3 0 0 1-3-3v-36m0-13v-36c0-2 2-3 4-3h7a3 3 0 0 1 3 3v36" fill="#fff"/><path d="M187 202a6 6 0 0 1-6 6 6 6 0 0 1-6-6v-10a6 6 0 0 1 6-6 6 6 0 0 1 6 6v10z" fill="#fff"/></g></svg>