<svg xmlns="http://www.w3.org/2000/svg" width="361" height="361"><path d="M233 280H130c-2 0 4 1 4 3v-1a51 51 0 0 1 0-2c0-1 0 1 0 0l-1-14-8-91-2-36-1-8c0-2 1-3-1-3h121c-2 0-1 1-2 3v8a11431 11431 0 0 1-10 125l-1 14a186 186 0 0 1 0 2v1l-1 1c0 2 2-2 4-2-7 2-4 11 2 9 4-1 4-4 4-7l2-13 3-40 7-88c0-7 3-21-7-23H122c-7 0-10 7-10 12l2 22a7176 7176 0 0 0 10 126l1 8c2 3 5 4 8 4h100c6 0 6-10 0-10z" fill="#fff"/><path d="M182 187l19 8 2-2 3-20c0-1-2-2-3-1l-21 12c-2 1 0 4 2 3l21-13-2-1-3 20 2-1-19-8c-2-1-3 2-1 3z" fill="#fff"/><path d="M191 160c2 0 2 2 3 3l6 10a2 2 0 0 1-1 3l-12 7a2 2 0 0 1-2-1l-12-20c-1-1 1-3 2-2h16zm-14 17l-2 4-5 11a2 2 0 0 1-3 0l-12-6a2 2 0 0 1-1-3l12-20h3l8 14z" fill="none" stroke="#fff" stroke-width="3" stroke-miterlimit="10"/><path d="M198 218l-16 12v2l16 13 2-2v-24c0-2-3-2-3 0v24l2-1-16-12v2l16-12c2-1 0-4-1-3z" fill="#fff"/><path d="M217 239l-5 1h-11a2 2 0 0 1-2-2v-14a2 2 0 0 1 2-2h23c1 0 2 2 1 3l-8 14zm-9-21l-3-4-6-10a2 2 0 0 1 0-3l12-7a2 2 0 0 1 3 1l12 20c0 1-1 3-2 2l-16 1z" fill="none" stroke="#fff" stroke-width="3" stroke-miterlimit="10"/><path d="M163 216l-3-20-2-2-18 8c-1 1-2 2-1 3l22 12c1 1 3-1 1-2l-21-13v3l18-8-2-1 3 20c0 2 3 2 3 0z" fill="#fff"/><path d="M135 222l2-5 5-10a2 2 0 0 1 3-1l12 7a2 2 0 0 1 1 3l-12 20h-3l-8-14zm23 1l5-1h11a2 2 0 0 1 2 2l1 14a2 2 0 0 1-2 2h-24l-1-2 8-15z" fill="none" stroke="#fff" stroke-width="3" stroke-miterlimit="10"/><path d="M117 123h128c6 0 6-10 0-10H117c-6 0-6 10 0 10z" fill="#fff"/><path d="M204 114a4 4 0 0 1-4 4h-38a4 4 0 0 1-4-4v-5a4 4 0 0 1 4-4h38a4 4 0 0 1 4 4v5z" fill="none" stroke="#fff" stroke-width="8" stroke-miterlimit="10"/></svg>