<svg xmlns="http://www.w3.org/2000/svg" width="361" height="361"><path d="M287 267a6 6 0 0 1-6 6H81a6 6 0 0 1-6-6V142a6 6 0 0 1 6-6h200a6 6 0 0 1 6 6v125z" fill="none" stroke="#fff" stroke-width="10" stroke-miterlimit="10"/><path d="M287 133L184 70a5 5 0 0 0-5 0L75 133c-4 3-3 9 2 9h207c7 0 7-10 0-10H77l3 10 104-63h-5l103 63c6 3 11-6 5-9z" fill="#fff"/><path fill="#fff" d="M285 137l-104 63-104-63z"/><path d="M282 133l-104 63h5L80 133l-3 9h208c6 0 6-10 0-10H77c-5 0-6 7-2 10l103 63a5 5 0 0 0 5 0l104-63c6-4 1-12-5-9z" fill="#fff"/></svg>