<svg xmlns="http://www.w3.org/2000/svg" width="361" height="361"><path d="M143.8 277.7l-60.2-60 2.2 5.4v-84.9l-2.1 5.3 60.1-60-5.4 2.2h85.1l-5.2-2.2 60.1 60-2.2-5.4V223l2.2-5.2-60.2 60 5.4-2.2h-85c-9.8 0-9.8 15-.2 15h85c4 0 6.5-3.2 9-5.8l30-30 25.8-25.6c2.4-2.5 3-5.3 3-8.5v-79.2c0-3.5 0-6.5-2.7-9.2l-55.3-55.2c-2.7-2.6-5.5-6.4-9.6-6.4h-85c-4.1 0-6.8 3.5-9.4 6.1L116.1 90l-33.2 33-9.2 9.2c-2.6 2.6-2.9 5.4-2.9 8.7v79.3c0 3.4.3 6.3 3 8.9l9.2 9.2 33.1 33 17.1 17.1c6.9 6.8 17.4-3.8 10.6-10.7z" fill="#fff"/><path d="M111.1 195c1.5 0 2.8 0 3.7-.3a6.8 6.8 0 0 0 2.4-1c.6-.5 1-1 1.2-1.6.2-.5.3-1.2.3-2 0-1.5-.7-2.7-2.1-3.8a31 31 0 0 0-7.5-3.3 55.8 55.8 0 0 1-4.6-1.8 17 17 0 0 1-4.2-2.7 12.7 12.7 0 0 1-3-3.9 12.1 12.1 0 0 1-1.1-5.5c0-2.2.4-4.1 1.2-5.9a12.6 12.6 0 0 1 3.5-4.4 16 16 0 0 1 5.4-2.9 29.3 29.3 0 0 1 15.4 0 29.4 29.4 0 0 1 5.7 2.3l-3 8.4a29 29 0 0 0-4.4-1.8 19 19 0 0 0-5.8-.8c-2.6 0-4.4.3-5.5 1a3.7 3.7 0 0 0-1.7 3.3c0 .8.2 1.6.6 2.2l1.8 1.6a96.2 96.2 0 0 0 5.8 2.5c2.4.8 4.6 1.7 6.4 2.6a17.1 17.1 0 0 1 4.5 3.1 11.2 11.2 0 0 1 2.7 4.2c.6 1.5.9 3.5.9 5.7 0 4.4-1.6 7.8-4.6 10.3-3.1 2.4-7.8 3.6-14 3.6a38.7 38.7 0 0 1-10-1.3 17 17 0 0 1-3.4-1.1 25 25 0 0 1-2.4-1.2l3-8.4a26.9 26.9 0 0 0 12.8 3zm60.3-39v9h-14.2v38.2h-10.6V165h-14.2v-9h39zm50.2 23.6c0 4-.6 7.5-1.8 10.6a21.9 21.9 0 0 1-5 7.7 20.2 20.2 0 0 1-7.4 4.6 27 27 0 0 1-9.3 1.6c-3.2 0-6.3-.5-9.1-1.6a20.9 20.9 0 0 1-7.5-4.6 21.8 21.8 0 0 1-5-7.7 28.5 28.5 0 0 1-1.9-10.6c0-4 .7-7.6 2-10.7a22.7 22.7 0 0 1 5-7.7 21.1 21.1 0 0 1 7.6-4.7 25.7 25.7 0 0 1 8.9-1.5c3.2 0 6.3.5 9.1 1.5a20.7 20.7 0 0 1 7.5 4.7 22.1 22.1 0 0 1 5 7.7 28.5 28.5 0 0 1 1.9 10.7zm-36 0c0 2.3.3 4.4.8 6.2a14.3 14.3 0 0 0 2.5 4.8 10.8 10.8 0 0 0 3.9 3.1 12.3 12.3 0 0 0 5.3 1.1c2 0 3.7-.4 5.3-1a10.8 10.8 0 0 0 4-3.2 14.3 14.3 0 0 0 2.4-4.8 23.9 23.9 0 0 0 0-12.5 14.3 14.3 0 0 0-2.5-4.9 10.8 10.8 0 0 0-4-3 12.4 12.4 0 0 0-5.2-1.1 11.2 11.2 0 0 0-9.2 4.2 14.3 14.3 0 0 0-2.5 4.8 21.5 21.5 0 0 0-.8 6.3zm59-24.1c7 0 12.4 1.2 16.1 3.7 3.8 2.5 5.7 6.5 5.7 12.1 0 5.7-2 9.8-5.7 12.3s-9.3 3.8-16.4 3.8H241v15.8h-10.6v-46.5a60 60 0 0 1 7.3-1 99.3 99.3 0 0 1 6.8-.2zm.6 9l-2.3.1-1.9.1v13.6h3.3a18 18 0 0 0 8.3-1.5c1.9-1 2.8-2.8 2.8-5.5 0-1.3-.2-2.4-.7-3.3a5.4 5.4 0 0 0-2-2 9.2 9.2 0 0 0-3.3-1.2c-1.2-.2-2.6-.3-4.2-.3z" fill="#fff"/></svg>