<svg xmlns="http://www.w3.org/2000/svg" width="361" height="361"><path d="M219.1 90.7a2.8 2.8 0 0 1-2.8 2.9h-71a2.8 2.8 0 0 1-2.8-2.9V77.5a2.8 2.8 0 0 1 2.9-2.8h70.9a2.8 2.8 0 0 1 2.8 2.8v13.2z" fill="none" stroke="#fff" stroke-width="10" stroke-miterlimit="10"/><path d="M205.1 132a35.7 35.7 0 0 1-49.9 0c-1.4-1.4-3.5.7-2.1 2a38.8 38.8 0 0 0 54.1 0c1.4-1.3-.7-3.4-2-2zm83 112.8a153.1 153.1 0 0 1-106.4 44.4c-40.3.4-79.3-16.1-107.8-44.4-1.4-1.3-3.5.8-2.2 2.2a156.2 156.2 0 0 0 108.6 45.3c41 .3 81-16.6 110-45.4 1.4-1.3-.8-3.4-2.1-2zM205.7 93.6a25 25 0 0 1-24.8 24.7c-13.7.4-24.4-11.5-24.7-24.7-.1-4.5-7.1-4.5-7 0a32.2 32.2 0 0 0 31.7 31.7c17.6.4 31.4-14.8 31.8-31.7 0-4.5-7-4.5-7 0z" fill="#fff"/><path d="M193.5 97.8c-.2 7.5-3.5 18-12.5 18.3-1.9.1-1.9 3.1 0 3 10.7-.4 15.3-12 15.5-21.3 0-2-3-2-3 0z" fill="#fff"/><path d="M164.8 97.8c.2 9.6 5.3 20.9 16.2 21.3 2 .1 2-2.9 0-3-9.1-.3-13-10.4-13.2-18.3 0-2-3-2-3 0z" fill="#fff"/><path d="M179.3 97.8v19.8c0 2 3 2 3 0V97.8c0-2-3-2-3 0zM153 132.2a10920817.4 10920817.4 0 0 0-81.4 113c-1.1 1.5 1.5 3 2.6 1.4L155 134.4l.4-.6c1.2-1.6-1.4-3.1-2.6-1.6zm52 1.6a10875639.4 10875639.4 0 0 0 83 112.8c1.2 1.6 3.8 0 2.6-1.5l-82.4-112-.6-.9c-1.2-1.5-3.8 0-2.6 1.6z" fill="#fff"/></svg>