<svg xmlns="http://www.w3.org/2000/svg" width="361" height="361"><path d="M276 227.5a50.2 50.2 0 0 1-35.2 47.6 50 50 0 0 1-56-20.6 50 50 0 0 1 4.4-59.6 50 50 0 0 1 58.4-12.2 50.1 50.1 0 0 1 28.4 44.8c.1 9.7 15.1 9.8 15 .1a65.7 65.7 0 0 0-33.5-56.7 65 65 0 0 0-66.6 2.8A65 65 0 0 0 162 233a65 65 0 0 0 38 53.4 65.2 65.2 0 0 0 62-5 65.3 65.3 0 0 0 29-53.9c0-9.7-15-9.7-15 0z" fill="#fff"/><path d="M191.4 273.2l80.7-80.7c6.9-6.8-3.8-17.4-10.6-10.6l-80.8 80.8c-6.8 6.8 3.8 17.4 10.7 10.5zm-85.3-147.4a64 64 0 0 0 0 89.5c3.2 3.2 8.1-1.8 5-5a56.9 56.9 0 0 1 0-79.6c3.1-3.2-1.8-8.2-5-5z" fill="#fff"/><path d="M94 114.6a80.2 80.2 0 0 0 0 112.2c3.2 3.2 8.1-1.8 5-5a73.1 73.1 0 0 1 0-102.3c3.1-3.2-1.8-8.2-5-5zm178 73.7a64.3 64.3 0 0 0-16.2-62.2c-3.1-3.2-8 1.7-5 5a57.1 57.1 0 0 1 14.4 55.4c-1.2 4.3 5.5 6.2 6.7 1.8z" fill="#fff"/><path d="M283.2 205.5a80.4 80.4 0 0 0-15.2-91c-3.2-3.2-8.1 1.8-5 5a73.2 73.2 0 0 1 14.1 82.4c-1.9 4.1 4.2 7.6 6 3.6zm-111.6-2c-5.6 0-20.3 3-20-5.7.1-7.2 3.9-15 6.3-21.8 2.7-7.2 5.5-14.5 6.5-22.2.7-5 3.2-9.9 6-14.1 2-3 2.7-3 6.2-3 2.9 0 9.7-1.2 11.7.6a32 32 0 0 1 7.4 13.8c.9 2.8 1 6 1.7 8.9 1.2 4.7 2.9 9.3 4.5 13.9 1.5 4.2 8.3 2.4 6.8-1.9a141.3 141.3 0 0 1-5-15.6c-.7-3.4-1-6.7-2.2-10-2.1-5.7-5.3-12.9-10.8-16-3.3-1.8-8.6-.7-12.2-.7-3.4 0-7-.6-9.8 1.5-5.2 3.9-8.2 11.2-10.2 17.1-1.2 3.4-1.4 7-2.2 10.5-1.2 4.7-3 9.3-4.6 13.8-1.6 4.7-3.3 9.3-4.8 14-1.2 4-3 9.3-2.3 13.7 2 13.1 17.4 10.3 27 10.3 4.5 0 4.5-7 0-7z" fill="#fff"/><path d="M232.6 283a6 6 0 0 1-5.8 4.3h-93a6.1 6.1 0 0 1-6-6.1V81c0-3.4 2.7-6.2 6-6.2h93a6.1 6.1 0 0 1 6 6.2v92" fill="none" stroke="#fff" stroke-width="10" stroke-miterlimit="10"/><path d="M129.8 186h10c6.5 0 6.5-10 0-10h-10c-6.4 0-6.4 10 0 10z" fill="#fff"/><path d="M191 274.3h-57.2a6 6 0 0 0-6 6v.6a6 6 0 0 0 6 6h91.4a6 6 0 0 0 6-6" fill="none" stroke="#fff" stroke-width="10" stroke-miterlimit="10"/><path d="M129.8 186.3h10c4.5 0 4.5-7 0-7h-10c-4.5 0-4.5 7 0 7z" fill="#fff"/></svg>