<svg xmlns="http://www.w3.org/2000/svg" width="361" height="361"><path d="M111 115h138c6 0 6-10 0-10H111c-7 0-7 10 0 10zm0 23h138c6 0 6-10 0-10H111c-7 0-7 10 0 10zm0 24h138c6 0 6-10 0-10H111c-7 0-7 10 0 10zm0 23h69c6 0 6-10 0-10h-69c-7 0-7 10 0 10z" fill="#fff"/><path d="M261 70H113c-8 0-17-1-24 2a31 31 0 0 0-19 25v90c0 17 13 31 30 32h93l-4-2 62 73c4 4 9-1 8-5l-11-73-5 7h18a31 31 0 0 0 26-15c6-9 4-22 4-33v-47c0-10 2-21-1-31a31 31 0 0 0-29-23c-7 0-7 10 0 10a21 21 0 0 1 20 21v86a21 21 0 0 1-13 20c-6 3-14 2-21 2h-3c-4 0-6 3-5 6l11 73 8-5-48-57-11-13c-2-2-3-4-6-4h-78c-11 0-24 2-32-9-5-8-3-22-3-31v-48c0-10-2-23 3-31 6-10 16-10 26-10h152c6 0 6-10 0-10z" fill="#fff"/></svg>