<svg xmlns="http://www.w3.org/2000/svg" width="361" height="361"><path d="M170.9 81.5L116 70.2a6 6 0 0 0-6.9 4.8L87.8 178.8a6 6 0 0 0 4.5 7.1l54.8 11.3a6 6 0 0 0 7-4.8l21.2-103.8a6 6 0 0 0-4.4-7.1zm-18.7 93.3h-.2l-55.6-11.5L110.7 94l1.4.5 53.5 11h.8l-14.2 69.4zM154 90l-.3 1.4c0 .4-.3.5-.3.5l-24-4.9v-.6l.2-1.4c.1-.3.3-.4.4-.4l23.8 4.9s.2.2.2.5zm-35.1 90.2l1-4.5a1.4 1.4 0 0 1 1.6-1.1l4.5 1a1.4 1.4 0 0 1 1 1.5l-.9 4.6a1.4 1.4 0 0 1-1.6 1l-4.5-.9a1.4 1.4 0 0 1-1.1-1.6z" fill="#fff"/><g fill="none" stroke="#fff" stroke-width="3" stroke-miterlimit="10"><circle cx="131.3" cy="135.4" r="24"/><ellipse cx="131.3" cy="135.4" rx="11.9" ry="24"/><path d="M107 136h48.7"/></g><g fill="none" stroke="#fff" stroke-width="3" stroke-miterlimit="10"><path d="M266.2 276.7a13.9 13.9 0 0 1-14 13.8h-31.5a13.9 13.9 0 0 1-14-13.8V207a13.9 13.9 0 0 1 14-13.8h31.6a14 14 0 0 1 14 13.8v69.7zm8.5-71.7v77a7.8 7.8 0 0 0 15.7 0v-77a7.8 7.8 0 0 0-15.6 0zm-92.2 0v77a7.8 7.8 0 0 0 15.6 0v-77a7.8 7.8 0 0 0-15.6 0z"/><circle cx="236.5" cy="156.6" r="28"/></g></svg>