<svg xmlns="http://www.w3.org/2000/svg" width="361" height="361"><path d="M237.2 259.8a63.5 63.5 0 0 1-6.2 12.6 41.8 41.8 0 0 1-4.7 6.1c-.7.8-1.4 1.6-2.3 2.2-.7.5-2.6.9-.8.9h-80.5c2.8 0 1.5.2.2-.6a40 40 0 0 1-3-1.8 34 34 0 0 1-8.6-9.5 61.5 61.5 0 0 1-9.5-19.5c-3.6-13.7-1.6-28.7.5-42.5 1.3-9 2.4-18.2 5.3-26.8a81 81 0 0 1 12-21.5c6.3-8.6 14-16 21.9-23 4.7-4.1 8.3-10 11.9-15 2.3-3.2 5-6 3.7-10.1l-7.3-24.6-9.1 3.8 11.8 17.5c2.1 3.2 8.4 3.5 9.1-1.2l2.9-17.5-4.9 3.7h4.9l-4.8-3.7 3.5 9.8c1 2.9 4.5 5 7.3 3l11-7.6 2.3-1.6c2.2-1.5-2.5.1-1 .1h6.2l-3.6-8.5-22 25.4c-3.4 3.8 0 9.7 1.9 13.5 4.6 9.4 12.1 15.8 18.8 23.5a130 130 0 0 1 28.2 52.7 237.2 237.2 0 0 1 5.6 32.2c1 9 2 19.2-.7 28-2 6.2 7.7 8.8 9.6 2.7 4.2-13.5 1.6-29.3-.5-42.9a157.3 157.3 0 0 0-12.1-44.6 155.7 155.7 0 0 0-23.7-35.8c-7-8-16.9-15.9-18.9-27l-1.3 4.8 22.2-25.5c2.8-3.2 1-8.5-3.5-8.5-4.2 0-7.7-.5-11.3 2l-12.2 8.5 7.3 3-3.5-9.8c-.8-2.2-2.5-3.7-4.8-3.7h-4.9c-2 0-4.4 1.5-4.8 3.7l-2.8 17.5 9.1-1.2-11.8-17.5c-3-4.6-10.8-1.8-9.1 3.8l7.6 25.7.5-3.9c-4.1 6.2-8.3 13-13.8 18.1-4.2 4-8.5 7.7-12.5 12-7.3 7.7-14 16.3-19 25.7-6.3 11.5-8 23.7-10.1 36.4-2.2 13.7-4 27.8-2.2 41.6a72.2 72.2 0 0 0 16 35.4c3.4 4.3 10.5 11.3 16.4 11.3h68.5c4.3 0 9.6.8 13.8-.4 5.5-1.7 9.5-7 12.7-11.6a68.3 68.3 0 0 0 8.7-17.1c2.1-6.1-7.6-8.7-9.6-2.7z" fill="#fff"/><path d="M183.6 193.8l18.7 7.7c1 .5 1.8-.5 2-1.4l2.5-20.1c.2-1.2-1.3-1.8-2.2-1.3L183.3 191c-1.7 1-.2 3.6 1.5 2.6l21.3-12.3-2.2-1.3-2.7 20.1 2-1.5-18.8-7.8c-1.8-.7-2.5 2.2-.8 3z" fill="#fff"/><path d="M192.2 166.7c1.7.4 2.6 2.6 3 3.5l6 10.1a2 2 0 0 1-.8 2.7l-11.8 6.7a2 2 0 0 1-2.6-.7l-11.8-20c-.6-.8.7-2.6 1.8-2.3h16.2zm-14 17.3c.5 1.7-1 3.5-1.5 4.5l-5.7 10.1a2 2 0 0 1-2.6.8l-11.9-6.7a2 2 0 0 1-.7-2.6l11.1-20.4c.5-.9 2.7-.8 3 .5l8.3 13.8z" fill="none" stroke="#fff" stroke-width="3" stroke-miterlimit="10"/><path d="M199.3 224.4l-16.1 12.4c-1 .7-1 1.8 0 2.5l16 12.3c1 .7 2.3-.2 2.3-1.3v-24.6c0-2-3-2-3 0v24.6l2.3-1.3-16.1-12.3v2.6l16-12.3c1.6-1.1.1-3.7-1.4-2.6z" fill="#fff"/><path d="M218.1 245.6c-1.2 1.3-3.5 1-4.5 1h-11.7a2 2 0 0 1-2-2V231a2 2 0 0 1 2-2l23.1-.2c1.1 0 2 2 1.2 2.8l-8 14zm-9-21c-1.7-.5-2.6-2.6-3.1-3.5l-6-10a2 2 0 0 1 .7-2.8l11.7-6.9a2 2 0 0 1 2.7.7l12 19.8c.6 1-.7 2.7-1.8 2.4l-16.2.2z" fill="none" stroke="#fff" stroke-width="3" stroke-miterlimit="10"/><path d="M164.3 223l-2.6-20.2c-.1-.8-1-1.8-2-1.4l-18.6 7.8c-1.2.5-1.6 2-.4 2.7l21.3 12.3c1.7 1 3.2-1.6 1.5-2.5l-21.3-12.4-.3 2.8 18.7-7.8-2-1.5 2.7 20.1c.2 2 3.2 2 3 0z" fill="#fff"/><path d="M136.5 228.7c-.5-1.7 1-3.5 1.5-4.4l5.8-10.2a2 2 0 0 1 2.7-.7l11.8 6.8a2 2 0 0 1 .7 2.7L147.6 243c-.5 1-2.7.7-3-.5l-8.1-14zm23 1.7c1.3-1.3 3.5-1 4.6-1h11.7a2 2 0 0 1 2 1.8v13.6a2 2 0 0 1-1.8 2l-23.2.5c-1 0-2-2-1.1-2.8l7.8-14.1z" fill="none" stroke="#fff" stroke-width="3" stroke-miterlimit="10"/><path d="M197 118.3a4.7 4.7 0 0 1-4.8 4.7h-26.1a4.7 4.7 0 0 1-4.7-4.7V115a4.7 4.7 0 0 1 4.7-4.7h26.1a4.7 4.7 0 0 1 4.7 4.7v3.2z" fill="#fff"/></svg>