<svg xmlns="http://www.w3.org/2000/svg" width="361" height="361"><path d="M83.5 273.5l73.2-126.8L187.2 94h-13l73.2 126.8 30.5 52.8 6.5-11.3H77.1c-9.7 0-9.8 15-.1 15h207.3c5.8 0 9.4-6.3 6.5-11.3l-73.1-126.7-30.5-52.8a7.6 7.6 0 0 0-13 0L101 213.2 70.5 266c-4.8 8.4 8.2 15.9 13 7.5z" fill="#fff"/><path d="M192.6 228.5c0 3.6-1.2 6.4-3.6 8.4s-5 3-8 3-5.6-1-8-3-3.5-4.8-3.5-8.4 1.2-6.4 3.6-8.4a12 12 0 0 1 8-3c3 0 5.6 1 8 3 2.3 2 3.5 4.8 3.5 8.4zm-1.6-53.9c0 6.7-.3 13-.8 18.7a337.5 337.5 0 0 1-2 17.6h-14a390 390 0 0 1-2.1-17.6c-.6-5.7-.8-12-.8-18.7v-22.1h19.6v22.1z" fill="#fff"/></svg>