<svg xmlns="http://www.w3.org/2000/svg" width="361" height="361"><path d="M261 70H113c-8 0-17-1-24 2a31 31 0 0 0-19 25v90c0 17 13 31 30 32h93l-4-2 62 73c4 4 9-1 8-5l-11-73-5 7h18a31 31 0 0 0 26-15c6-9 4-22 4-33v-47c0-10 2-21-1-31a31 31 0 0 0-29-23c-7 0-7 10 0 10a21 21 0 0 1 20 21v86a21 21 0 0 1-13 20c-6 3-14 2-21 2h-3c-4 0-6 3-5 6l11 73 8-5-48-57-11-13c-2-2-3-4-6-4h-78c-11 0-24 2-32-9-5-8-3-22-3-31v-48c0-10-2-23 3-31 6-10 16-10 26-10h152c6 0 6-10 0-10z" fill="#fff"/><path d="M180 115l-9 1a50 50 0 0 0-9 4l-5-15a40 40 0 0 1 12-4 54 54 0 0 1 13-2c5 0 10 0 13 2 4 1 7 3 9 6a19 19 0 0 1 4 7 26 26 0 0 1 1 7 19 19 0 0 1-1 7 27 27 0 0 1-3 5 34 34 0 0 1-3 5 215 215 0 0 1-5 5 240 240 0 0 0-3 3 31 31 0 0 0-5 8l-1 4v3h-17a18 18 0 0 1 0-3 67 67 0 0 1 0-2l1-7a25 25 0 0 1 2-5 30 30 0 0 1 4-5 93 93 0 0 1 4-4 94 94 0 0 0 5-6 10 10 0 0 0 2-7c0-2 0-3-2-5l-7-2zm12 64a11 11 0 0 1-4 9 12 12 0 0 1-8 3c-3 0-6-1-8-3-3-2-4-5-4-9 0-3 1-6 4-8a12 12 0 0 1 8-3c3 0 6 1 8 3 3 2 4 5 4 8z" fill="#fff"/></svg>