<svg xmlns="http://www.w3.org/2000/svg" width="361" height="361"><g fill="#fff"><circle cx="237" cy="157" r="29"/><path d="M237 186a30 30 0 1 1 0-59 30 30 0 0 1 0 59zm0-58a28 28 0 0 0-29 29 28 28 0 0 0 29 28 28 28 0 0 0 28-28 28 28 0 0 0-28-29zm31 149c0 8-7 15-15 15h-33c-8 0-15-7-15-15v-71c0-8 7-15 15-15h33c8 0 14 7 14 15v71zm6-73v79c0 12 18 12 18 1v-80c0-11-18-11-18 0zm-92 0v79c0 12 17 12 17 1v-80c0-11-18-11-18 0z"/></g><path d="M171 82l-55-12a6 6 0 0 0-7 5L88 179a6 6 0 0 0 4 7l55 11a6 6 0 0 0 7-5l21-103a6 6 0 0 0-4-7zm-19 93l-56-12 15-69 1 1 54 11-14 69zm2-85v1l-1 1-24-5v-1l1-1 24 4v1zm-35 90l1-4a1 1 0 0 1 2-1l4 1a1 1 0 0 1 1 1l-1 5a1 1 0 0 1-2 1l-4-1a1 1 0 0 1-1-2z" fill="#fff"/><g fill="none" stroke="#fff" stroke-width="3" stroke-miterlimit="10"><circle cx="131" cy="135" r="24"/><ellipse cx="131" cy="135" rx="12" ry="24"/><path d="M107 136h49"/></g></svg>