<svg xmlns="http://www.w3.org/2000/svg" width="361" height="361"><g stroke="#fff" stroke-width="10" stroke-miterlimit="10"><path d="M286.7 258.4a6.3 6.3 0 0 1-6.3 6.3H81.8a6.3 6.3 0 0 1-6.3-6.3v-125a6.3 6.3 0 0 1 6.3-6.3h198.6a6.3 6.3 0 0 1 6.3 6.3v125zm-78-136a4.3 4.3 0 0 1-4.3 4.3h-46.7a4.3 4.3 0 0 1-4.4-4.4v-21.6a4.3 4.3 0 0 1 4.4-4.4h46.7a4.3 4.3 0 0 1 4.3 4.4v21.6z" fill="none"/><path d="M177.4 202.6h-38.1a3.3 3.3 0 0 1-3.4-3.2V192c0-1.8 1.5-3.2 3.4-3.2h38.1m5.4 0h39.5a3.3 3.3 0 0 1 3.4 3.2v7.3c0 1.8-1.5 3.2-3.4 3.2h-39.6" fill="#fff"/><path d="M186.9 202.5V238a3.3 3.3 0 0 1-3.3 3.3h-7.2a3 3 0 0 1-3.2-3.2v-35.7m0-13.5v-35.7c0-1.8 1.5-3.3 3.3-3.3h7.3a3.3 3.3 0 0 1 3.2 3.3V189" fill="#fff"/><path d="M187 202.2a6 6 0 0 1-6 6h-.4a6 6 0 0 1-6-6v-9.8a6 6 0 0 1 6-6h.5a6 6 0 0 1 6 6v9.8z" fill="#fff"/></g></svg>