<svg xmlns="http://www.w3.org/2000/svg" width="361" height="361"><path d="M219 91a3 3 0 0 1-3 3h-71a3 3 0 0 1-3-3V78a3 3 0 0 1 3-3h71a3 3 0 0 1 3 3v13z" fill="none" stroke="#fff" stroke-width="10" stroke-miterlimit="10"/><path d="M205 132a36 36 0 0 1-50 0c-1-1-3 1-2 2a39 39 0 0 0 54 0c2-1-1-3-2-2zm-28 157a153 153 0 0 1-103-44c-2-1-4 1-2 2a156 156 0 0 0 105 45c2 0 2-3 0-3zm29-195a25 25 0 0 1-25 24c-14 1-25-11-25-24 0-5-7-5-7 0a32 32 0 0 0 32 31c17 1 31-14 32-31 0-5-7-5-7 0z" fill="#fff"/><path d="M194 98c-1 7-4 18-13 18-2 0-2 3 0 3 11 0 15-12 16-21 0-2-3-2-3 0z" fill="#fff"/><path d="M165 98c0 9 5 21 16 21 2 0 2-3 0-3-9 0-13-10-13-18 0-2-3-2-3 0z" fill="#fff"/><path d="M179 98v20c0 2 3 2 3 0V98c0-2-3-2-3 0zm-26 34a10920817 10920817 0 0 0-81 113c-2 2 1 3 2 2l81-113c2-2-1-3-2-2zm52 2l2 3h2v-2l-2-3h-2v2zm73 100l10 13c2 2 4-1 2-2l-10-14c-1-1-3 1-2 2z" fill="#fff"/><g fill="#fff"><circle cx="237" cy="157" r="29"/><path d="M237 186a30 30 0 1 1 0-59 30 30 0 0 1 0 59zm0-58a28 28 0 0 0-29 29 28 28 0 0 0 29 28 28 28 0 0 0 28-28 28 28 0 0 0-28-29zm31 149c0 8-7 15-15 15h-33c-8 0-15-7-15-15v-71c0-8 7-15 15-15h33c8 0 14 7 14 15v71zm6-73v79c0 12 18 12 18 1v-80c0-11-18-11-18 0zm-92 0v79c0 12 17 12 17 1v-80c0-11-18-11-18 0z"/></g></svg>