<svg xmlns="http://www.w3.org/2000/svg" width="361" height="361"><path d="M95 96l1 1v32l-1 1h-6a1 1 0 0 1-1-1V97l1-1h6z" fill="none" stroke="#fff" stroke-width="10" stroke-miterlimit="10"/><path d="M96 104c12 1 12 18 0 18-4 1-4 8 0 8 10-1 16-7 17-17 0-9-8-15-17-16-4 0-4 7 0 7z" fill="#fff"/><path d="M86 96l2 2v49l-2 2h-9a2 2 0 0 1-2-2V98l2-2h9zm200 0l1 1v32l-1 1h-6a1 1 0 0 1-2-1V97l2-1h6z" fill="none" stroke="#fff" stroke-width="10" stroke-miterlimit="10"/><path d="M180 115h9c2 0 2-3 0-3h-9c-2 0-2 3 0 3zm-17 0h9c2 0 2-3 0-3h-9c-2 0-2 3 0 3zm-17 0h9c2 0 2-3 0-3h-9c-2 0-2 3 0 3zm-17 0h9c2 0 2-3 0-3h-9c-2 0-2 3 0 3zm-17 0h9c2 0 2-3 0-3h-9c-2 0-2 3 0 3z" fill="#fff"/><g fill="#fff"><path d="M145 287l71-123 2-3h-9l71 123 1 3 5-8H140c-6 0-6 10 0 10h146a5 5 0 0 0 4-7l-71-124-2-2a5 5 0 0 0-8 0l-71 123-2 3c-3 5 5 10 9 5z"/><path d="M208 195v45c0 6 10 6 10 0v-45c0-6-10-6-10 0zm0 65v5c0 3 2 5 5 5s5-2 5-5v-5c0-3-2-5-5-5s-5 2-5 5z"/></g><path d="M193 78l-41 69c-3 6 6 11 9 5l41-69c3-6-5-11-9-5zm17 0l-41 69c-3 6 6 11 9 5l41-69c3-6-5-11-9-5z" fill="#fff"/></svg>