<svg xmlns="http://www.w3.org/2000/svg" width="361" height="361"><path d="M287 266.6a6 6 0 0 1-6 6H81.1a6 6 0 0 1-6.1-6V142a6 6 0 0 1 6-6h200a6 6 0 0 1 6 6v124.6z" fill="none" stroke="#fff" stroke-width="10" stroke-miterlimit="10"/><path d="M287 133L183.6 70a5 5 0 0 0-5 0L74.7 133c-4.2 2.6-2.5 9.3 2.5 9.3h207.2c6.5 0 6.5-10 0-10H77.3l2.6 9.4 103.6-63.1h-5l103.5 63c5.5 3.4 10.6-5.2 5-8.6z" fill="#fff"/><path fill="#fff" d="M284.5 137.3l-103.6 63-103.6-63z"/><path d="M282 133l-103.6 63h5L80 133l-2.6 9.3h207.2c6.5 0 6.5-10 0-10H77.3c-5 0-6.7 6.7-2.5 9.3l103.6 63a5 5 0 0 0 5 0l103.6-63c5.5-3.4.5-12-5-8.7z" fill="#fff"/></svg>