<svg xmlns="http://www.w3.org/2000/svg" width="361" height="361"><path d="M95.2 96.1c.7 0 1.2.6 1.2 1.3v31.8c0 .7-.5 1.3-1.2 1.3h-6a1.3 1.3 0 0 1-1.3-1.3V97.4c0-.7.6-1.3 1.3-1.3h6z" fill="none" stroke="#fff" stroke-width="10" stroke-miterlimit="10"/><path d="M96.4 104.1c11.9.7 11.9 17.7 0 18.4-4.5.2-4.5 7.2 0 7 9.2-.5 15.7-7 16.2-16.2.5-9.1-7.8-15.7-16.2-16.2-4.5-.2-4.5 6.8 0 7z" fill="#fff"/><path d="M86 96.1c1 0 2 .9 2 2v49.2c0 1-1 2-2 2h-9.2a2 2 0 0 1-2-2V98c0-1.1 1-2 2-2H86zm199.7 0c.7 0 1.3.6 1.3 1.3v31.8c0 .7-.6 1.3-1.3 1.3h-6a1.3 1.3 0 0 1-1.2-1.3V97.4c0-.7.6-1.3 1.3-1.3h6z" fill="none" stroke="#fff" stroke-width="10" stroke-miterlimit="10"/><path d="M248.3 114.8h8.8c2 0 2-3 0-3h-8.9c-1.9 0-1.9 3 0 3zm-17 0h8.8c2 0 2-3 0-3h-8.8c-2 0-2 3 0 3zm-17 0h8.8c2 0 2-3 0-3h-8.8c-2 0-2 3 0 3zm-17 0h8.8c2 0 2-3 0-3h-8.8c-2 0-2 3 0 3zm-17 0h8.8c2 0 2-3 0-3h-8.8c-2 0-2 3 0 3zm-17 0h8.8c2 0 2-3 0-3h-8.8c-2 0-2 3 0 3zm-17 0h8.8c2 0 2-3 0-3h-8.8c-2 0-2 3 0 3zm-17 0h8.8c2 0 2-3 0-3h-8.8c-2 0-2 3 0 3zm-17 0h8.8c2 0 2-3 0-3h-8.8c-2 0-2 3 0 3zm153 0h8.8c2 0 2-3 0-3h-8.9c-1.9 0-1.9 3 0 3z" fill="#fff"/><g fill="#fff"><path d="M223.4 288.4l67.7-98c5.5-8-7.5-15.5-13-7.6L210.4 281c-5.5 8 7.5 15.4 13 7.5z"/><path d="M220.6 278.2l-29.3-21c-3.3-2.5-8.4-.6-10.3 2.7-2.2 3.8-.5 7.8 2.8 10.2l29.3 21c3.4 2.5 8.4.6 10.3-2.7 2.2-3.8.6-7.8-2.8-10.2z"/></g></svg>