<svg xmlns="http://www.w3.org/2000/svg" width="361" height="361"><path d="M288.8 91.1l-19-19c-7-6.8-17.5 3.8-10.6 10.7l19 19c6.8 6.8 17.4-3.8 10.6-10.7zm.7 47.6L223 72c-6.8-6.8-17.4 3.8-10.5 10.7l66.6 66.5c6.8 6.9 17.4-3.8 10.5-10.6zm-93.5 0L129.4 72c-6.8-6.8-17.4 3.8-10.5 10.7l66.6 66.5c6.8 6.9 17.4-3.8 10.5-10.6zm-94.3-.8l-19-19c-6.9-6.9-17.4 3.8-10.6 10.6l19 19c6.9 7 17.4-3.7 10.6-10.6zm141 .8L176.3 72c-6.8-6.8-17.4 3.8-10.6 10.7l66.6 66.5c6.8 6.9 17.4-3.8 10.6-10.6zm-94.2-.8L82.7 72.1c-6.9-6.8-17.4 3.8-10.6 10.7l65.9 65.8c6.8 6.8 17.4-3.8 10.6-10.7zM82.7 242.8l20-19.8c6.8-6.8-3.8-17.4-10.7-10.6l-20 19.8c-6.8 6.9 3.9 17.4 10.7 10.6zm47.6 46l66-65.8c7-6.8-3.7-17.4-10.6-10.6l-66.1 65.8c-6.9 6.9 3.8 17.4 10.7 10.6zm46.7 0l65.8-65.8c6.9-6.9-3.8-17.4-10.6-10.6l-65.8 65.8c-6.9 6.9 3.8 17.4 10.6 10.6zm46.8 0l65.8-65.8c6.8-6.9-3.8-17.4-10.7-10.6l-65.7 65.8c-6.9 6.8 3.8 17.4 10.6 10.5zm46.7 0l19-19c7-6.9-3.7-17.5-10.6-10.6l-19 19c-6.9 6.9 3.8 17.4 10.6 10.6zm-187 0l65.7-65.8c6.8-6.9-3.8-17.4-10.7-10.6l-65.7 65.8c-6.8 6.9 3.8 17.4 10.7 10.6z" fill="#fff"/><path d="M282 283c.5-1.9 4.4-1.6 2-1.6H77.8c-3 0 2 5 2 2v-206c0-2.7.2 2.2-3 2.2h207.3c2.2 0-2.3-5.2-2.3-1.6v206.4c0 6.5 10 6.5 10 0v-207c0-7.6-6.3-7.8-12-7.8H83.7c-5.5 0-13.8-.9-13.8 7.3v207.4c0 8.3 9 7 14.6 7h193.3c5.3 0 12.1 1.2 14-5.5 1.6-6.3-8-9-9.7-2.7z" fill="#fff"/><path d="M108.8 208.3a401 401 0 0 0-1-6l-1.2-6H95.2l-1.2 6a396.2 396.2 0 0 0-1 6h-7a1352 1352 0 0 1 6-31 825.5 825.5 0 0 1 2.9-12.7l2.9-11.8h6.2a674.4 674.4 0 0 1 5.7 24.6 949 949 0 0 1 3 14.3 1635.8 1635.8 0 0 1 3.1 16.6h-7zm-8-43a166.8 166.8 0 0 1-.6 3.4l-1 4.8-1.2 6a611.9 611.9 0 0 0-1.3 6.8h8.4l-1.3-6.9-1.2-6a2700.2 2700.2 0 0 1-1.7-8zm28.8 44.2c-4.8 0-8.4-2.5-11-7.4-2.4-5-3.7-12-3.7-21 0-4.6.4-8.6 1.2-12.1a33.5 33.5 0 0 1 3.1-9 15.6 15.6 0 0 1 4.8-5.6 10.4 10.4 0 0 1 6-1.9c1.2 0 2.3.2 3.3.6s2 .7 2.7 1.1a10.5 10.5 0 0 1 3 2.5l-1.9 10a13.2 13.2 0 0 0-3.1-2.3 8.7 8.7 0 0 0-4.1-1c-1 0-2 .3-3 1a8 8 0 0 0-2.6 3 17 17 0 0 0-1.8 5.4 44.9 44.9 0 0 0 1.2 20.7 9.8 9.8 0 0 0 2.6 3.7 5.8 5.8 0 0 0 3.9 1.4c1 0 1.8 0 2.6-.3a11.7 11.7 0 0 0 2-.8 8 8 0 0 0 1.6-1c.4-.3.9-.6 1.2-1l1.9 9.9a13.7 13.7 0 0 1-9.8 4zm29.4-56.7h6.6v55.5H159v-23.6h-11.1v23.6h-6.7v-55.5h6.7V174H159v-21.2zm33.6 0v10.7h-8.9v44.8h-6.6v-44.8h-8.9v-10.7h24.4zm15 56.6a8.8 8.8 0 0 1-5.4-1.7 12.3 12.3 0 0 1-3.7-4.5 25 25 0 0 1-2.2-7 53 53 0 0 1-.7-8.9v-34.5h6.6v33.5c0 2.2.2 4.1.4 5.7.3 1.6.7 2.8 1.1 3.8.5 1 1 1.7 1.7 2.1a4 4 0 0 0 2.2.7c1.6 0 3-1 4-2.8 1-1.9 1.4-5 1.4-9.5v-33.5h6.7v34.5c0 3.3-.3 6.2-.7 9s-1.3 5-2.2 7a12 12 0 0 1-3.8 4.5 9.2 9.2 0 0 1-5.5 1.6zm35-1.1a379.1 379.1 0 0 0-6.2-18.8 228.5 228.5 0 0 0-7-17.6v36.4h-6.6v-55.5h5.4c1 1.8 2 4 3 6.5a278.1 278.1 0 0 1 3.5 8.2 351.7 351.7 0 0 1 3.5 9l3.3 9v-32.7h6.6v55.5h-5.6zm24.2-45c-3.1 0-5.3 1.6-6.7 4.7a47.5 47.5 0 0 0-1.6 20.3c.4 2.2.9 4 1.6 5.7a9.8 9.8 0 0 0 2.5 3.6c1 .9 2.2 1.3 3.6 1.3h1.9a5 5 0 0 0 1.3-.4v-19h6.7v27c-.8.6-2 1.2-3.9 1.9a18.7 18.7 0 0 1-6.4 1 9 9 0 0 1-6-2 15.2 15.2 0 0 1-4.7-5.4 32.6 32.6 0 0 1-2.9-9 62.6 62.6 0 0 1-1-12c0-4.5.3-8.5 1.1-12 .8-3.6 1.8-6.6 3.1-9s3-4.3 4.7-5.5a9.8 9.8 0 0 1 5.8-2 12.9 12.9 0 0 1 6.6 1.8 10.7 10.7 0 0 1 3.1 2.4l-1.9 9.9a14.5 14.5 0 0 0-3-2.3 7.8 7.8 0 0 0-4-1z" fill="#fff"/></svg>