<svg xmlns="http://www.w3.org/2000/svg" width="361" height="361"><path d="M95 96l1 1v32l-1 1h-6a1 1 0 0 1-1-1V97l1-1h6z" fill="none" stroke="#fff" stroke-width="10" stroke-miterlimit="10"/><path d="M96 104c12 1 12 18 0 18-4 1-4 8 0 8 10-1 16-7 17-17 0-9-8-15-17-16-4 0-4 7 0 7z" fill="#fff"/><path d="M86 96l2 2v49l-2 2h-9a2 2 0 0 1-2-2V98l2-2h9zm200 0l1 1v32l-1 1h-6a1 1 0 0 1-2-1V97l2-1h6z" fill="none" stroke="#fff" stroke-width="10" stroke-miterlimit="10"/><path d="M248 115h9c2 0 2-3 0-3h-9c-2 0-2 3 0 3zm-17 0h9c2 0 2-3 0-3h-9c-2 0-2 3 0 3zm-17 0h9c2 0 2-3 0-3h-9c-2 0-2 3 0 3zm-17 0h9c2 0 2-3 0-3h-9c-2 0-2 3 0 3zm-17 0h9c2 0 2-3 0-3h-9c-2 0-2 3 0 3zm-17 0h9c2 0 2-3 0-3h-9c-2 0-2 3 0 3zm-17 0h9c2 0 2-3 0-3h-9c-2 0-2 3 0 3zm-17 0h9c2 0 2-3 0-3h-9c-2 0-2 3 0 3zm-17 0h9c2 0 2-3 0-3h-9c-2 0-2 3 0 3zm153 0h9c2 0 2-3 0-3h-9c-2 0-2 3 0 3z" fill="#fff"/><g fill="#fff"><path d="M223 288l68-98c6-8-7-15-13-7l-68 98c-5 8 8 15 13 8z"/><path d="M221 278l-30-21c-3-2-8 0-10 3-2 4-1 8 3 10l29 21c3 3 8 1 10-3 3-3 1-7-2-10z"/></g></svg>