<svg xmlns="http://www.w3.org/2000/svg" width="361" height="361"><path d="M227 277h-92c4 0 6 3 7 5h-1v-2c0-2 0 1 0 0v-3l-1-7-2-19a7154 7154 0 0 1-7-102v-2c0-3-7 1-4 1h107s-3-4-4-1v3a11491 11491 0 0 1-4 57 4566 4566 0 0 1-4 51 951 951 0 0 1-2 18 261 261 0 0 1 0 3v1a33 33 0 0 1 0 2l1-3 4-2c-10 4-6 18 3 15s7-17 8-24l4-43 5-77c1-6-2-14-9-15H129c-8 0-13 5-13 12-1 7 1 14 1 21l3 45a4391 4391 0 0 0 4 47c1 9 1 19 3 28 1 7 9 6 14 6h85c10 0 10-15 0-15z" fill="#fff"/><path d="M205 94l-3 4-40 8c-2 0-4-1-4-3l-4-16c0-2 1-4 3-4l40-8c2 0 4 1 4 3l4 16z" fill="none" stroke="#fff" stroke-width="8" stroke-miterlimit="10"/><path d="M124 119l117-24c10-2 6-17-4-15l-117 24c-9 2-5 17 4 15zm49 44v101c0 9 15 9 15 0V163c0-10-15-10-15 0zm31 0l-3 101c-1 9 14 9 15 0l3-101c0-10-15-10-15 0zm-61 0l3 101c0 9 15 9 15 0l-3-101c-1-10-16-10-15 0z" fill="#fff"/></svg>