<svg xmlns="http://www.w3.org/2000/svg" width="361" height="361"><g fill="#fff"><circle cx="165.3" cy="258.6" r="33.2"/><path d="M115.8 87.8a5.8 5.8 0 0 0-5.9-5.8H70.7v140H110a5.8 5.8 0 0 0 5.9-5.8V87.8z"/><path d="M70.7 226v32.6H128a37.4 37.4 0 0 1 74.8-.1c7.1-.5 9-3.4 9-12v-63.1c0-.6 0-1.8-.3-2.7a5.4 5.4 0 0 0-.7-2.8l-26.6-46.8a5.4 5.4 0 0 0-3.8-2.6 6.1 6.1 0 0 0-1.5-.2h-53a6.1 6.1 0 0 0-6.1 6.1v46.3l-.3 46.2-48.8-.9zm57.2-84.7a5.3 5.3 0 0 1 5.3-5.2h45.5c.5 0 1 0 1.4.2 1.3.2 2.5 1 3.2 2.2l17.1 30.1 1.4 2.4c2.2 4-.6 6.7-3.9 6.7h-64.7a5.3 5.3 0 0 1-5.3-5v-31.4z"/></g><path d="M282.6 284h-42.5c-1.6 0 3.4 4.1 3 2l-.3-2c-.7-6.4-1.2-12.8-1.7-19.2l-2.9-40.1v-1.2c0 .2-3 .4-1.4.4h49.4c-2 0-1.8-1-2 .5a6160.6 6160.6 0 0 1-1 14.5 3453.7 3453.7 0 0 1-2.1 29.6 830.5 830.5 0 0 1-1.1 12.6 172.9 172.9 0 0 1-.5 4.2v.6c-.3 1.4-.6 0 1.3-1.4-3.6 2.7 0 8.7 3.6 6 2.9-2 2.4-7.5 2.7-10.7.7-7.2 1.2-14.5 1.8-21.8a4623.8 4623.8 0 0 0 2.5-34.5c.4-6.8-5.6-6.6-10.2-6.6h-42.1c-4.5 0-8.3 1.5-8 7 1.5 20.5 2.4 41 4.9 61.4.3 2.6.6 5.8 4.1 5.8h42.5c4.5 0 4.5-7 0-7zM271 199c-.1 1.3-12.8 2.9-14.3 3.2-.4 0-4.6 1.2-4.7.6l-1.5-7.2c0-.2 13.3-2.8 14.3-3 1-.1 4.6-1.5 4.9-.3l1.4 7c.4 2 3.3 1.1 2.9-.7-.6-2.8-.7-6.1-2-8.7-1.2-2-4.7-.8-6.5-.5l-12.4 2.5c-2.6.6-5.2.7-5.6 4-.2 2 .8 6.4 1.8 8.2 1.5 2.8 4.3 1.8 6.7 1.3l12.4-2.5c2.7-.6 5.3-.7 5.6-4 .2-1.9-2.8-1.9-3 0z" fill="#fff"/><path d="M235.2 210.6l54.3-11.3c4.5-1 2.6-7.9-2-7l-54.2 11.4c-4.5 1-2.6 7.9 2 7zm22.5 20.3l.2 47c0 4.5 7 4.5 7 0l-.2-47c0-4.5-7-4.5-7 0zm14.3 0l-1.5 47c-.1 4.5 6.9 4.4 7 0l1.5-47c.1-4.5-6.9-4.5-7 0zm-28.3 0l1.5 47c.2 4.4 7.2 4.5 7 0l-1.5-47c-.2-4.5-7.2-4.5-7 0z" fill="#fff"/></svg>