<svg xmlns="http://www.w3.org/2000/svg" width="361" height="361"><path d="M228 242c0 5-21 26-26 26h-42c-5 0-26-21-26-26v-86c0-5 9-14 14-14h66c5 0 14 9 14 14v86z" fill="#fff"/><path d="M223 242l-1 1a38 38 0 0 1-3 4 103 103 0 0 1-10 10l-7 6h-42c1 0 1 0 0 0a26 26 0 0 1-4-3 97 97 0 0 1-10-10 48 48 0 0 1-7-8v-81c0-4 0-6 3-9 4-5 6-5 12-5h59c4 0 10 6 10 10v85c0 6 10 6 10 0v-86c0-8-8-16-16-18-3-2-7-1-11-1h-57c-9 0-17 9-20 16v88c0 4 3 8 5 11a96 96 0 0 0 16 16c3 2 7 5 11 5h35c4 0 8 0 11-2 6-3 11-9 16-14 4-4 9-9 10-15 1-7-9-7-10 0zM96 188h23c7 0 7-10 0-10H96c-6 0-6 10 0 10z" fill="#fff"/><path d="M78 199l20-11c6-4 1-12-5-9l-20 12c-5 3 0 11 5 8zm18 40h23c7 0 7-10 0-10H96c-6 0-6 10 0 10z" fill="#fff"/><path d="M83 254l16-16c5-5-2-12-7-7l-16 16c-5 5 2 12 7 7zm20-121l21 11c5 3 10-5 5-9l-20-11c-6-3-11 5-5 9z" fill="#fff"/><path d="M90 111l12 20c3 5 12 0 8-5l-11-20c-3-6-12-1-9 5z" fill="#fff"/><g fill="#fff"><path d="M266 178h-23c-7 0-7 10 0 10h23c6 0 6-10 0-10z"/><path d="M288 191l-20-12c-5-3-10 5-5 9l20 11c6 3 11-5 5-8z"/></g><g fill="#fff"><path d="M266 229h-23c-7 0-7 10 0 10h23c6 0 6-10 0-10z"/><path d="M286 247l-16-16c-5-5-12 2-7 7l16 16c4 5 11-2 7-7z"/></g><g fill="#fff"><path d="M253 124l-20 12c-6 3-1 11 5 8l20-11c6-4 1-12-5-9z"/><path d="M263 106l-12 20c-3 5 6 10 9 5l12-20c3-6-6-11-9-5z"/></g><path d="M212 128h-62v-18c0-5 13-8 18-8h26c5 0 18 3 18 8v18z" fill="#fff"/><path d="M212 123h-62l5 5v-17s0-2 0 0l2-1c7-4 16-3 24-3s17-1 24 3l2 1c0-1 0-1 0 0v17c0 6 10 6 10 0v-14c0-5 0-9-5-12-9-6-21-5-31-5-11 0-22-1-31 5-5 3-5 7-5 12v14a5 5 0 0 0 5 5h62c7 0 7-10 0-10zm-50-32l7 8" fill="#fff"/><path d="M158 95l8 8a5 5 0 0 0 7 0 5 5 0 0 0 0-7l-8-8a5 5 0 0 0-7 0 5 5 0 0 0 0 7zm42-4l-8 8m4-11l-8 8a5 5 0 0 0 0 7 5 5 0 0 0 8 0l7-8a5 5 0 0 0 0-7 5 5 0 0 0-7 0z" fill="#fff"/></svg>