<svg xmlns="http://www.w3.org/2000/svg" width="361" height="361"><path d="M212 283c0 2-2 4-4 4H79c-2 0-4-2-4-4V153c0-2 2-4 4-4h129c3 1 4 2 4 4v130z" fill="none" stroke="#fff" stroke-width="10" stroke-miterlimit="10"/><path d="M187 259l-2 2h-81c-2 0-3-1-3-2v-82c0-1 1-2 3-2h81l2 2v82z" fill="none" stroke="#fff" stroke-width="10" stroke-miterlimit="10"/><path d="M127 221v1h-6l-1-1v-6h7v6zm19 40h-5v-3h5v2z" fill="none" stroke="#fff" stroke-width="10" stroke-miterlimit="10"/><path fill="#fff" d="M103 192v-16h15z"/><path d="M108 192v-16l-5 5h15l-4-8a218092 218092 0 0 1-15 15c-5 5 3 12 7 7l15-15c3-3 1-9-3-9h-16a5 5 0 0 0-4 5v16c0 6 10 6 10 0zm63-16h15v16z" fill="#fff"/><path d="M171 181h15l-5-5v16l8-4a218092 218092 0 0 0-15-15c-4-5-11 2-7 7l15 15c3 3 9 1 9-3v-16a5 5 0 0 0-5-5h-15c-7 0-7 10 0 10zm14 64v15h-15z" fill="#fff"/><path d="M180 245v15l5-5h-15l4 8 15-15c4-4-3-12-7-7l-15 15c-3 3-1 9 3 9h15a5 5 0 0 0 5-5v-15c0-7-10-7-10 0zm-62 15h-15v-15z" fill="#fff"/><path d="M118 255h-16l6 5v-16l-9 4 15 15c5 5 12-2 7-7l-15-15c-3-3-8-1-8 3v16a5 5 0 0 0 5 5h15c6 0 6-10 0-10z" fill="#fff"/><path d="M167 221v1h-6v-7h6v6zm-21-43h-5v-3h5v3z" fill="none" stroke="#fff" stroke-width="10" stroke-miterlimit="10"/><g fill="#fff"><path d="M285 126c0 9-9 8-15 8h-24c-5 0-12 1-16-4-3-4-1-12-1-16V91c0-6-1-14 8-14h37c6 0 11 1 11 8v41c0 4 7 4 7 0V89c0-7-1-13-7-17-4-3-11-2-16-2h-23c-6 0-11-1-16 1-7 3-8 11-8 17v22c0 7-2 16 1 22 4 9 14 9 22 9h28l9-1c6-2 10-8 10-15 0-4-7-4-7 0z"/><path d="M254 87v37c0 4 7 4 7 0V87c0-5-7-5-7 0z"/></g></svg>