<svg xmlns="http://www.w3.org/2000/svg" width="361" height="361"><path d="M237 260a64 64 0 0 1-6 12 42 42 0 0 1-5 7l-2 2c-1 0-3 1-1 1h-80c2 0 1 0 0-1a40 40 0 0 1-3-2 34 34 0 0 1-9-9 62 62 0 0 1-9-20c-4-14-2-29 0-42 2-9 3-19 6-27a81 81 0 0 1 12-22l21-23c5-4 9-10 12-15 3-3 5-6 4-10l-7-24-9 3 11 18c3 3 9 3 10-1l2-18-4 4h4l-4-4 3 10c1 3 5 5 7 3l11-8 3-1c2-2-3 0-1 0h6l-4-9-22 26c-3 4 0 10 2 13 5 10 12 16 19 24a130 130 0 0 1 28 53 237 237 0 0 1 6 32c1 9 2 19-1 28-2 6 8 9 10 2 4-13 1-29-1-42a157 157 0 0 0-12-45 156 156 0 0 0-24-36c-6-8-16-16-18-27l-2 5 22-26c3-3 1-8-3-8s-8-1-11 2l-13 8 8 3-4-9c-1-3-2-4-5-4h-4c-2 0-5 1-5 4l-3 17 9-1-12-18c-3-4-11-1-9 4l8 26v-4c-4 6-8 13-14 18l-12 12c-7 8-14 16-19 26-6 11-8 24-10 36-2 14-4 28-2 42a72 72 0 0 0 16 35c3 5 10 12 16 12h69l13-1c6-2 10-7 13-11a68 68 0 0 0 9-18c2-6-8-8-10-2z" fill="#fff"/><path d="M184 194l18 8 2-2 3-20-2-1-22 12c-1 1 0 4 2 3l21-13-2-1-3 20 2-1-19-8c-1-1-2 2 0 3z" fill="#fff"/><path d="M192 167c2 0 3 2 3 3l6 10a2 2 0 0 1-1 3l-11 7a2 2 0 0 1-3-1l-12-20c0-1 1-3 2-2h16zm-14 17c1 2-1 4-1 5l-6 10a2 2 0 0 1-3 0l-11-6a2 2 0 0 1-1-3l11-20h3l8 14z" fill="none" stroke="#fff" stroke-width="3" stroke-miterlimit="10"/><path d="M199 224l-16 13v2l16 13 3-2v-24c0-2-3-2-3 0v24l2-1-16-12v2l16-12c1-1 0-4-2-3z" fill="#fff"/><path d="M218 246l-4 1h-12a2 2 0 0 1-2-2v-14a2 2 0 0 1 2-2h23c1 0 2 2 1 3l-8 14zm-9-21l-3-4-6-10a2 2 0 0 1 1-3l11-7a2 2 0 0 1 3 1l12 20c1 1-1 3-2 2h-16z" fill="none" stroke="#fff" stroke-width="3" stroke-miterlimit="10"/><path d="M164 223l-2-20-2-2-19 8v3l21 12c2 1 3-1 2-2l-22-13v3l19-8-2-1 2 20c0 2 3 2 3 0z" fill="#fff"/><path d="M137 229c-1-2 1-4 1-5l6-10a2 2 0 0 1 3-1l11 7a2 2 0 0 1 1 3l-11 20h-3l-9-14zm23 1l4-1h12a2 2 0 0 1 2 2v14a2 2 0 0 1-2 2h-23c-1 0-2-2-1-3l7-14z" fill="none" stroke="#fff" stroke-width="3" stroke-miterlimit="10"/><path d="M197 118a5 5 0 0 1-5 5h-26a5 5 0 0 1-5-5v-3a5 5 0 0 1 5-5h26a5 5 0 0 1 5 5v3z" fill="#fff"/></svg>