<svg xmlns="http://www.w3.org/2000/svg" width="361" height="361"><path d="M206.3 103c-1.5-1.5-3.1-2.4-3.6-1.9L188 116c-.5.5.4 2.1 1.9 3.6l53.4 53.5c1.5 1.5 3.1 2.3 3.6 1.9l14.8-14.9c.5-.4-.3-2-1.8-3.6L206.3 103z" fill="none" stroke="#fff" stroke-width="10" stroke-miterlimit="10"/><path d="M279.5 170.5l12.8-95.8c.3-2.4-2.5-5.3-5-5l-95.7 12.8c-4.1.6-7 5.2-3.6 8.6l83 82.9c4.6 4.6 11.6-2.5 7-7l-82.9-83-3.5 8.5 95.7-12.8-5-5-12.8 95.8c-.8 6.3 9.2 6.3 10 0zM70.7 185.3v101.4c0 6.4 10 6.4 10 0V185.3c0-6.4-10-6.4-10 0z" fill="#fff"/><path d="M285.8 281.7H75.7c-6.5 0-6.5 10 0 10h210.1c6.5 0 6.5-10 0-10zm-204.6-33l61.4-30.4c5.8-2.8.8-11.4-5-8.6L76.1 240c-5.7 2.8-.7 11.4 5 8.6z" fill="#fff"/><path d="M139 217.5l35.4 22c5.5 3.4 10.5-5.3 5-8.7l-35.4-22c-5.5-3.3-10.5 5.3-5 8.7zm52.8 6.4l10 26.6c2.1 6 11.8 3.4 9.6-2.7l-10-26.5c-2.2-6-11.9-3.4-9.6 2.6z" fill="#fff"/><path d="M209 253.5l43.5-32c5-3.8.1-12.5-5-8.7l-43.5 32c-5.1 3.8-.1 12.5 5 8.7zm-29.6-14l19.7-12.6c5.5-3.4.5-12-5-8.6l-19.7 12.5c-5.4 3.5-.4 12.1 5 8.7z" fill="#fff"/><path d="M248.6 222l36 8.5c6.3 1.5 9-8.2 2.7-9.7l-36-8.5c-6.3-1.5-9 8.2-2.7 9.6z" fill="#fff"/></svg>