<svg xmlns="http://www.w3.org/2000/svg" width="361" height="361"><path d="M95.2 96.1c.7 0 1.2.6 1.2 1.3v31.8c0 .7-.5 1.3-1.2 1.3h-6a1.3 1.3 0 0 1-1.3-1.3V97.4c0-.7.6-1.3 1.3-1.3h6z" fill="none" stroke="#fff" stroke-width="10" stroke-miterlimit="10"/><path d="M96.4 104.1c11.9.7 11.9 17.7 0 18.4-4.5.2-4.5 7.2 0 7 9.2-.5 15.7-7 16.2-16.2.5-9.1-7.8-15.7-16.2-16.2-4.5-.2-4.5 6.8 0 7z" fill="#fff"/><path d="M86 96.1c1 0 2 .9 2 2v49.2c0 1-1 2-2 2h-9.2a2 2 0 0 1-2-2V98c0-1.1 1-2 2-2H86zm199.7 0c.7 0 1.3.6 1.3 1.3v31.8c0 .7-.6 1.3-1.3 1.3h-6a1.3 1.3 0 0 1-1.2-1.3V97.4c0-.7.6-1.3 1.3-1.3h6z" fill="none" stroke="#fff" stroke-width="10" stroke-miterlimit="10"/><path d="M180.3 114.8h8.8c2 0 2-3 0-3h-8.8c-2 0-2 3 0 3zm-17 0h8.8c2 0 2-3 0-3h-8.8c-2 0-2 3 0 3zm-17 0h8.8c2 0 2-3 0-3h-8.8c-2 0-2 3 0 3zm-17 0h8.8c2 0 2-3 0-3h-8.8c-2 0-2 3 0 3zm-17 0h8.8c2 0 2-3 0-3h-8.8c-2 0-2 3 0 3z" fill="#fff"/><g fill="#fff"><path d="M144.7 286.8L216 163.6l1.5-2.7h-8.6l71 123.1 1.6 2.7 4.3-7.6H140.4c-6.5 0-6.5 10 0 10h145.4a5 5 0 0 0 4.3-7.5l-71.2-123.2-1.5-2.7a5 5 0 0 0-8.6 0L137.6 279l-1.5 2.7c-3.2 5.6 5.4 10.6 8.6 5z"/><path d="M208.2 195.2v44.7c0 6.4 10 6.4 10 0V195c0-6.4-10-6.4-10 0zm0 64.8v5c0 2.8 2.3 5 5 5s5-2.2 5-5v-5c0-2.7-2.3-5-5-5s-5 2.3-5 5z"/></g><path d="M193.4 77.7l-41 69.4c-3.4 5.6 5.3 10.6 8.6 5l41-69.3c3.3-5.6-5.4-10.6-8.6-5zm16.9 0l-41 69.4c-3.3 5.6 5.3 10.6 8.6 5l41-69.3c3.3-5.6-5.3-10.6-8.6-5z" fill="#fff"/></svg>