<svg xmlns="http://www.w3.org/2000/svg" width="361" height="361"><path d="M232.8 279.6H130.2c-1.8 0 3.6 1.8 4.3 3.4l-.2-.8a50.7 50.7 0 0 1-.3-2.2c-.2-.8 0 1.1-.1-.4-.6-4.4-1-8.9-1.4-13.3-2.8-30.4-5-60.9-7.1-91.3-1-12.1-1.8-24.3-2.6-36.4l-.6-7.9c0-1.4 1-2.9-1.1-2.9h120.4c-2 0-1 1.6-1.1 3l-.6 8.3a11431.4 11431.4 0 0 1-9.5 125.1l-1.4 13.8a186 186 0 0 1-.3 2.4l-.1.8-.2 1.2c-.3 1.5 1.7-2.2 3.2-2.6-6.2 1.9-3.6 11.5 2.6 9.6 3.4-1 3.9-4 4.3-7 .6-4.3 1-8.6 1.4-12.9 1.3-13.6 2.4-27.3 3.5-41 2.3-29 4.3-58.2 6.4-87.4.5-7.3 3.1-20.9-6.7-23.1-2.3-.5-4.9-.2-7.2-.2H121.5c-6.3 0-9.7 6.9-9.3 12.6l1.5 21.5a7176.2 7176.2 0 0 0 10 126.5c.3 2.3.3 5.2 1.2 7.4 1.6 3.7 4.6 3.8 8 3.8h99.9c6.4 0 6.4-10 0-10z" fill="#fff"/><path d="M182.3 186.8l18.7 7.8c1 .4 1.8-.6 2-1.5l2.5-20c.2-1.2-1.3-1.9-2.2-1.4L181.9 184c-1.6 1-.1 3.6 1.6 2.6l21.3-12.3-2.3-1.3-2.6 20.1 2-1.4-18.8-7.8c-1.8-.8-2.6 2.2-.8 2.9z" fill="#fff"/><path d="M190.9 159.7c1.7.5 2.5 2.6 3 3.5l5.9 10.2a2 2 0 0 1-.7 2.6l-11.8 6.8a2 2 0 0 1-2.7-.7L173 162c-.6-.9.6-2.7 1.8-2.3H191zm-14 17.4c.4 1.7-1 3.5-1.5 4.4l-5.7 10.2a2 2 0 0 1-2.7.7l-11.8-6.6a2 2 0 0 1-.8-2.7l11.2-20.3c.5-1 2.7-.8 3 .4l8.3 13.9z" fill="none" stroke="#fff" stroke-width="3" stroke-miterlimit="10"/><path d="M198 217.5l-16.2 12.3c-1 .7-1 1.9 0 2.6l16.2 12.3c.9.7 2.2-.3 2.2-1.3v-24.6c0-2-3-2-3 0v24.6l2.3-1.3-16.1-12.3v2.6l16-12.3c1.6-1.2 0-3.8-1.5-2.6z" fill="#fff"/><path d="M216.8 238.7c-1.2 1.2-3.5.9-4.6.9h-11.6a2 2 0 0 1-2-2V224a2 2 0 0 1 2-2l23.1-.2c1.1 0 2 2 1.1 2.8l-8 14zm-9-21.1c-1.7-.5-2.6-2.6-3.1-3.5l-6-10a2 2 0 0 1 .7-2.7l11.7-7a2 2 0 0 1 2.6.7l12 19.8c.6 1-.6 2.8-1.8 2.4l-16.1.3z" fill="none" stroke="#fff" stroke-width="3" stroke-miterlimit="10"/><path d="M163 216l-2.7-20.1c0-.9-.9-1.9-1.9-1.5l-18.7 7.8c-1.1.5-1.6 2-.3 2.8l21.3 12.3c1.7 1 3.2-1.6 1.5-2.6L141 202.4l-.4 2.7 18.7-7.8-1.9-1.4 2.6 20c.3 2 3.3 2 3 0z" fill="#fff"/><path d="M135.2 221.7c-.5-1.7 1-3.5 1.5-4.4l5.8-10.1a2 2 0 0 1 2.7-.7l11.7 6.8a2 2 0 0 1 .7 2.6l-11.3 20.2c-.6 1-2.7.8-3-.4l-8.1-14zm23 1.7c1.2-1.2 3.5-.9 4.6-1h11.6a2 2 0 0 1 2 1.9l.2 13.6a2 2 0 0 1-2 2l-23.1.5c-1.1 0-2-2-1.2-2.8l8-14.2z" fill="none" stroke="#fff" stroke-width="3" stroke-miterlimit="10"/><path d="M117.2 123h127.3c6.5 0 6.5-10 0-10H117.2c-6.5 0-6.5 10 0 10z" fill="#fff"/><path d="M204 114a4 4 0 0 1-4 4h-38a4 4 0 0 1-4-4v-4.7a4 4 0 0 1 4-4h38a4 4 0 0 1 4 4v4.7z" fill="none" stroke="#fff" stroke-width="8.2" stroke-miterlimit="10"/></svg>