<svg xmlns="http://www.w3.org/2000/svg" width="361" height="361"><g fill="#fff"><circle cx="165" cy="259" r="33"/><path d="M116 88a6 6 0 0 0-6-6H71v140h39a6 6 0 0 0 6-6V88z"/><path d="M71 226v33h57a37 37 0 0 1 75 0c7-1 9-4 9-12v-66a5 5 0 0 0-1-3l-27-47a5 5 0 0 0-4-2 6 6 0 0 0-1-1h-53a6 6 0 0 0-6 6v93l-49-1zm57-85a5 5 0 0 1 5-5h47c1 1 3 1 3 3l17 30 2 2c2 4-1 7-4 7h-65a5 5 0 0 1-5-5v-32z"/></g><path d="M283 284h-43c-1 0 4 4 3 2v-2l-2-19-3-40v-1h-1 49-2a6161 6161 0 0 1-1 15 3454 3454 0 0 1-2 30 831 831 0 0 1-1 12 173 173 0 0 1-1 4v1l2-1c-4 2 0 8 3 6s3-8 3-11l2-22a4624 4624 0 0 0 2-34c1-7-5-7-10-7h-42c-4 0-8 1-8 7 2 20 2 41 5 61 0 3 1 6 4 6h43c4 0 4-7 0-7zm-12-85l-14 3-5 1-1-7 14-3c1-1 4-2 5-1l1 7c0 2 3 1 3 0l-2-9c-1-2-5-1-7-1l-12 3c-3 1-5 1-6 4l2 8c2 3 5 2 7 1l12-2c3-1 6-1 6-4 0-2-3-2-3 0z" fill="#fff"/><path d="M235 211l54-12c5-1 3-8-1-7l-55 12c-4 1-2 8 2 7zm23 20v47c0 4 7 4 7 0v-47c0-5-7-5-7 0zm14 0l-1 47c-1 4 6 4 7 0l1-47c0-5-7-5-7 0zm-28 0l1 47c0 4 7 4 7 0l-1-47c-1-5-8-5-7 0z" fill="#fff"/></svg>