<svg xmlns="http://www.w3.org/2000/svg" width="361" height="361"><path d="M159 199a5 5 0 0 0-6-6h-14a5 5 0 0 0-5 6v82a5 5 0 0 0 5 5h14a5 5 0 0 0 5-5v-83z" fill="none" stroke="#fff" stroke-width="10" stroke-miterlimit="10"/><path d="M141 96v93c0 7 10 7 10 0V96c0-7-10-7-10 0z" fill="#fff"/><path d="M153 97a7 7 0 0 1-7 7h-1a7 7 0 0 1-7-7V77a7 7 0 0 1 7-7h1a7 7 0 0 1 7 7v20z" fill="#fff"/><path d="M225 144a6 6 0 0 1-9 0l-29-29a6 6 0 0 1 0-8l7-6a6 6 0 0 1 8 0l29 29a6 6 0 0 1 0 8l-6 6z" fill="#fff" stroke="#fff" stroke-width="10" stroke-miterlimit="10"/><path d="M217 71l-32 32c-5 5 2 12 7 7l32-32c4-5-3-12-7-7zm35 39l-27 28c-4 4 3 11 7 7l27-28c5-4-2-11-6-7z" fill="#fff"/><path d="M232 279c0 4-2 7-4 7h-14c-3 0-5-3-5-7V139c0-3 2-6 5-6h14c3 0 4 3 4 6v141z" fill="none" stroke="#fff" stroke-width="10" stroke-miterlimit="10"/><path d="M230 273a7 7 0 0 0-7-7h-5a7 7 0 0 0-7 6v6a7 7 0 0 0 7 6h5a7 7 0 0 0 7-6v-5zm-20-126h20" fill="none" stroke="#fff" stroke-width="10" stroke-miterlimit="10"/></svg>