<svg xmlns="http://www.w3.org/2000/svg" width="361" height="361"><path d="M282.4 281.1a6 6 0 0 1-6 6H85.8a6 6 0 0 1-6-6V170.7a6 6 0 0 1 6-6h190.6a6 6 0 0 1 6 6v110.4z" fill="none" stroke="#fff" stroke-width="10" stroke-miterlimit="10"/><path d="M124.8 152H89.6c-1.7 0-9.3 1.2-9.3-1.7v-19.1c0-3.2-1.3-7.7 2.7-7.7h51.1c6.5 0 6.5-10 0-10H82c-7.8 0-11.6 6.2-11.6 13.3V148c0 7.2 3.3 14 11.5 14h43c6.5 0 6.5-10 0-10zm112.3-28.5h42.8c2 0 1.5 2.6 1.5 4v21.1c0 4.2-2.5 3.4-6 3.4h-58.6c-6.4 0-6.4 10 0 10H273c4.6 0 9.1.5 13.3-1.8 6.5-3.5 5.2-12.4 5.2-18.6 0-6 .5-12.2-.1-18.1-.9-8.2-8.2-10-15-10H237c-6.5 0-6.5 10 0 10zm-50.7 72.8c-.2 3.4-2.3 4-5.2 4-3 0-5.5-.2-5.7-4-.2-3.5 2.5-4.1 5.2-4.1 3 0 5.5.2 5.7 4 .1 2 3.1 2 3 0-.1-2.2-.9-4.6-2.8-6-1.7-1-3.4-1-5.4-1-1.9 0-3.5-.1-5.3.7-2.4 1-3.3 4-3.4 6.4a7.2 7.2 0 0 0 2.8 6c1.7 1.1 3.4 1 5.4 1 1.9 0 3.5.2 5.3-.6 2.3-1.1 3.2-4 3.4-6.4.1-2-2.9-2-3 0z" fill="#fff"/><path d="M132.3 164.7L114 135.3a3.2 3.2 0 0 1 1-4.4l90.6-56a3.2 3.2 0 0 1 4.5 1l34.9 56.5c1 1.5.4 3.5-1 4.5l-46.4 28.6" fill="none" stroke="#fff" stroke-width="10" stroke-miterlimit="10"/><path d="M203.4 72l-29.3 57.6 4.3-2.5-64.6.4 2.5 9.3 94-58c5.4-3.4.4-12-5-8.6l-94 58c-4.2 2.6-2.6 9.3 2.5 9.3l64.6-.4a5 5 0 0 0 4.4-2.5L212 77c2.9-5.7-5.8-10.8-8.7-5z" fill="#fff"/></svg>