<svg xmlns="http://www.w3.org/2000/svg" width="361" height="361"><g fill="#fff"><circle cx="165.3" cy="258.6" r="33.2"/><path d="M115.8 107.8a5.8 5.8 0 0 0-5.9-5.8H70.7v100H110a5.8 5.8 0 0 0 5.9-5.8v-88.4z"/><path d="M70.7 226v32.6H128a37.4 37.4 0 0 1 74.8-.1c7.1-.5 9-3.4 9-12v-63.1c0-.6 0-1.8-.3-2.7a5.4 5.4 0 0 0-.7-2.8l-26.6-46.8a5.4 5.4 0 0 0-3.8-2.6 6.1 6.1 0 0 0-1.5-.2h-53a6.1 6.1 0 0 0-6.1 6.1v46.3l-.3 46.2-48.8-.9zm57.2-84.7a5.3 5.3 0 0 1 5.3-5.2h45.5c.5 0 1 0 1.4.2 1.3.2 2.5 1 3.2 2.2l17.1 30.1 1.4 2.4c2.2 4-.6 6.7-3.9 6.7h-64.7a5.3 5.3 0 0 1-5.3-5v-31.4z"/><path d="M115.6 211.2a5.8 5.8 0 0 0-5.8-5.9H70.5v17.1h39.3a5.8 5.8 0 0 0 5.8-5.8v-5.4z"/></g><path d="M256.9 265.6l29 25c3.4 3 8.3-2 4.9-5l-29-25c-3.4-2.8-8.4 2-5 5z" fill="#fff"/><path d="M251.9 268.2l18 22c3 3.4 7.9-1.6 5-5l-18-22c-3-3.5-7.9 1.5-5 5z" fill="#fff"/><path d="M247.4 267l6 21.2c1.3 4.3 8 2.5 6.8-1.8l-6-21.3c-1.3-4.3-8-2.5-6.8 1.9zm-12.9-6.3l-29 25c-3.4 3 1.6 7.9 5 5l29-25c3.4-3-1.6-8-5-5z" fill="#fff"/><path d="M239.5 263.2l-18 22c-3 3.4 2 8.4 4.9 5l18-22c2.9-3.5-2-8.5-4.9-5z" fill="#fff"/><path d="M242.2 265.1l-6.1 21.2c-1.3 4.4 5.5 6.3 6.7 2L249 267c1.3-4.4-5.4-6.2-6.7-1.9z" fill="#fff"/><path d="M261.6 263.9a4 4 0 0 1-4 4h-18.4a4 4 0 0 1-4-4V261a4 4 0 0 1 4-4h18.4a4 4 0 0 1 4 4v2.8zm-48.3-43a4 4 0 0 1 4 4v28.3a4 4 0 0 1-4 4h-2.8a4 4 0 0 1-4-4v-28.4a4 4 0 0 1 4-4h2.8z" fill="#fff"/><path d="M212.3 236.8l47.1 18.3c4.3 1.6 6-5.2 2-6.8L214.1 230c-4.2-1.6-6 5.2-1.9 6.8z" fill="#fff"/><path d="M235.6 258.2h24.7c6.5 0 6.5-10 0-10h-24.7c-6.5 0-6.5 10 0 10z" fill="#fff"/><path d="M215.3 247.1l23.5 9.2c4.3 1.6 6-5.2 2-6.8l-23.7-9.1c-4.2-1.7-6 5.1-1.8 6.7z" fill="#fff"/></svg>