<svg xmlns="http://www.w3.org/2000/svg" width="361" height="361"><path d="M287 281.3c0 3-2.8 5.6-6.2 5.6H81c-3.4 0-6.2-2.5-6.2-5.6V80.4c0-3 2.8-5.6 6.2-5.6h199.8c3.4 0 6.2 2.5 6.2 5.6v200.9z" fill="none" stroke="#fff" stroke-width="10" stroke-miterlimit="10"/><path d="M152 184.8c0 .1 0 .2-.2.2h-9.2c-.1 0-.3 0-.3-.2v-9.3l.3-.2h9.2c.2 0 .3 0 .3.2v9.3zm68 0c0 .1 0 .2-.2.2h-9.2c-.1 0-.3 0-.3-.2v-9.3l.3-.2h9.2c.1 0 .3 0 .3.2v9.3zm-34.2 19.4c0 .1-.1.2-.3.2h-9.2c-.1 0-.3 0-.3-.2v-9.3l.3-.2h9.2c.2 0 .3 0 .3.2v9.3z" fill="none" stroke="#fff" stroke-width="10" stroke-miterlimit="10"/><path d="M227 215.2h-92.7c.5 0 2.3.8 1 0a15 15 0 0 1-2.4-1.9c-11-9.7-20.7-21.4-30.4-32.5a604 604 0 0 1-3.2-3.8v7.1c7.9-9.4 16-18.7 24.3-27.6 3.6-4 8.3-9.6 12.3-11.7-1.3.7-2.2.3-.2.3h90.9c.6 0 .5.2-.6 0-1.8-.5.8.7.4.3 4.9 4 9 8.8 13.3 13.4a715.2 715.2 0 0 1 22.2 25.7v-7a829.1 829.1 0 0 1-16.1 18 411 411 0 0 1-12.9 13.5 107.6 107.6 0 0 1-5 4.7l-1.6 1.2c-1.3 1-.7.4.6.2-6.3.7-6.4 10.7 0 10 4.1-.4 7.2-3.5 10.1-6.2 4.6-4.2 8.8-8.8 13-13.3a755 755 0 0 0 19-21.1 5.1 5.1 0 0 0 0-7 701 701 0 0 0-24.3-28c-4.2-4.6-8.5-9.5-13.7-13-2.4-1.6-5.2-1.4-7.9-1.4h-82.6c-2.4 0-5.8-.5-8.2.4-5.5 2-10 7.7-13.8 11.8A611.3 611.3 0 0 0 92.2 177c-1.8 2.3-1.9 5 0 7.1 8 9.4 16.2 18.6 24.7 27.5 4.2 4.3 8.5 9.3 13.6 12.4 2.5 1.5 5.3 1.1 8 1.1H227c6.5 0 6.5-10 0-10z" fill="#fff"/></svg>