<svg xmlns="http://www.w3.org/2000/svg" width="361" height="361"><path d="M276 228a50 50 0 0 1-35 47 50 50 0 0 1-56-20 50 50 0 0 1 4-60 50 50 0 0 1 59-12 50 50 0 0 1 28 45c0 9 15 9 15 0a66 66 0 0 0-33-57 65 65 0 0 0-67 3 65 65 0 0 0-29 59 65 65 0 0 0 38 53 65 65 0 0 0 62-5 65 65 0 0 0 29-54c0-9-15-9-15 0z" fill="#fff"/><path d="M191 273l81-81c7-6-4-17-10-10l-81 81c-7 6 3 17 10 10zm-85-147a64 64 0 0 0 0 89c3 3 8-2 5-5a57 57 0 0 1 0-79c3-4-2-9-5-5z" fill="#fff"/><path d="M94 115a80 80 0 0 0 0 112c3 3 8-2 5-5a73 73 0 0 1 0-102c3-4-2-9-5-5zm178 73a64 64 0 0 0-16-62c-3-3-8 2-5 5a57 57 0 0 1 14 56c-1 4 6 6 7 1z" fill="#fff"/><path d="M283 206a80 80 0 0 0-15-91c-3-4-8 1-5 5a73 73 0 0 1 14 82c-2 4 4 8 6 4zm-111-2c-6 0-21 3-20-6 0-7 3-15 6-22s5-14 6-22c1-5 4-10 6-14 2-3 3-3 7-3h11a32 32 0 0 1 8 14l1 9 5 14c1 4 8 2 7-2a141 141 0 0 1-5-16l-3-10c-2-5-5-12-10-16h-13c-3 0-6-1-9 1-6 4-9 11-11 17l-2 11-4 14-5 14c-1 4-3 9-2 13 2 13 17 11 27 11 4 0 4-7 0-7z" fill="#fff"/><path d="M233 283a6 6 0 0 1-6 4h-93a6 6 0 0 1-6-6V81c0-3 2-6 6-6h93a6 6 0 0 1 6 6v92" fill="none" stroke="#fff" stroke-width="10" stroke-miterlimit="10"/><path d="M130 186h10c6 0 6-10 0-10h-10c-7 0-7 10 0 10z" fill="#fff"/><path d="M191 274h-57a6 6 0 0 0-6 6v1a6 6 0 0 0 6 6h91a6 6 0 0 0 6-6" fill="none" stroke="#fff" stroke-width="10" stroke-miterlimit="10"/><path d="M130 186h10c4 0 4-7 0-7h-10c-5 0-5 7 0 7z" fill="#fff"/></svg>