<svg xmlns="http://www.w3.org/2000/svg" width="361" height="361"><path d="M116 122a83.6 83.6 0 0 0 0 116.9c4.5 4.6 11.5-2.5 7-7a73.4 73.4 0 0 1 0-102.8c4.5-4.6-2.5-11.7-7-7z" fill="#fff"/><path d="M100.2 107.5a105 105 0 0 0-30.4 73.2 104.1 104.1 0 0 0 30.4 73.2c4.5 4.6 11.6-2.5 7-7.1a94.4 94.4 0 0 1 0-132.2c4.6-4.6-2.5-11.7-7-7.1zM246 239.3a83.6 83.6 0 0 0 0-116.9c-4.5-4.6-11.6 2.5-7 7.1a73.4 73.4 0 0 1 0 102.8c-4.5 4.6 2.5 11.6 7 7z" fill="#fff"/><path d="M261.8 253.8a105 105 0 0 0 30.3-73.1 104 104 0 0 0-30.3-73.2c-4.5-4.6-11.6 2.5-7 7 36 36.6 36 95.7 0 132.3-4.6 4.6 2.5 11.6 7 7zM217.1 216c.3 7.6-5.8 7-11 7h-57.6c-11.5 0-.8-24.6 1-29.7 4.3-12 8.2-23.7 10.7-36.3a44 44 0 0 1 4.8-12 39.3 39.3 0 0 1 3.5-5.6l1.9-2c1.2-1.3-1.4-.4 2-.4h17.5c-1.4 0-.7-.3 0 .3 3.5 3 5.6 8 7.5 12 1.8 3.9 2.7 7.7 3.3 11.9 1 6.1 3 12.2 5 18 4.1 12 9.7 24 11.4 36.8.8 6.3 10.8 6.3 10 0-1.7-13.2-6.8-25.4-11.2-37.9a132.6 132.6 0 0 1-5.3-18.1c-1-4.8-1.7-9-3.6-13.5-2.9-6.9-8-18.6-16.6-19.5-6.4-.6-14.1-.6-20.6 0-4.3.5-7.4 3.8-9.8 7.2a61 61 0 0 0-10.4 25.8c-2.3 13.2-8.2 25.6-12.4 38.3-3.6 11.2-7.7 24.7 3.7 32.6 4 2.7 9.4 2 14 2h56.5a16 16 0 0 0 15.7-17c-.3-6.4-10.3-6.4-10 0z" fill="#fff"/></svg>