<svg xmlns="http://www.w3.org/2000/svg" width="361" height="361"><path d="M219.1 90.7a2.8 2.8 0 0 1-2.8 2.9h-71a2.8 2.8 0 0 1-2.8-2.9V77.5a2.8 2.8 0 0 1 2.9-2.8h70.9a2.8 2.8 0 0 1 2.8 2.8v13.2z" fill="none" stroke="#fff" stroke-width="10" stroke-miterlimit="10"/><path d="M205.1 132a35.7 35.7 0 0 1-49.9 0c-1.4-1.4-3.5.7-2.1 2a38.8 38.8 0 0 0 54.1 0c1.4-1.3-.7-3.4-2-2zm83 112.8a153.1 153.1 0 0 1-106.4 44.4c-40.3.4-79.3-16.1-107.8-44.4-1.4-1.3-3.5.8-2.2 2.2a156.2 156.2 0 0 0 108.6 45.3c41 .3 81-16.6 110-45.4 1.4-1.3-.8-3.4-2.1-2zM205.7 93.6a25 25 0 0 1-24.8 24.7c-13.7.4-24.4-11.5-24.7-24.7-.1-4.5-7.1-4.5-7 0a32.2 32.2 0 0 0 31.7 31.7c17.6.4 31.4-14.8 31.8-31.7 0-4.5-7-4.5-7 0z" fill="#fff"/><path d="M193.5 97.8c-.2 7.5-3.5 18-12.5 18.3-1.9.1-1.9 3.1 0 3 10.7-.4 15.3-12 15.5-21.3 0-2-3-2-3 0z" fill="#fff"/><path d="M164.8 97.8c.2 9.6 5.3 20.9 16.2 21.3 2 .1 2-2.9 0-3-9.1-.3-13-10.4-13.2-18.3 0-2-3-2-3 0z" fill="#fff"/><path d="M179.3 97.8v19.8c0 2 3 2 3 0V97.8c0-2-3-2-3 0zM153 132.2a10920817.4 10920817.4 0 0 0-81.4 113c-1.1 1.5 1.5 3 2.6 1.4L155 134.4l.4-.6c1.2-1.6-1.4-3.1-2.6-1.6zm52.2 1.9l30.3 38.6c1.2 1.5 3.3-.6 2.2-2.1l-30.4-38.7c-1.2-1.5-3.3.7-2 2.2zm72.5 99.4l10.6 13.5c1.2 1.5 3.3-.7 2-2.2l-10.5-13.4c-1.2-1.6-3.3.6-2.1 2z" fill="#fff"/><path d="M276 227.5a50.2 50.2 0 0 1-35.2 47.6 50 50 0 0 1-56-20.6 50 50 0 0 1 4.4-59.6 50 50 0 0 1 58.4-12.2 50.1 50.1 0 0 1 28.4 44.8c.1 9.7 15.1 9.8 15 .1a65.7 65.7 0 0 0-33.5-56.7 65 65 0 0 0-66.6 2.8A65 65 0 0 0 162 233a65 65 0 0 0 38 53.4 65.2 65.2 0 0 0 62-5 65.3 65.3 0 0 0 29-53.9c0-9.7-15-9.7-15 0z" fill="#fff"/><path d="M191.4 273.2l80.7-80.7c6.9-6.8-3.8-17.4-10.6-10.6l-80.8 80.8c-6.8 6.8 3.8 17.4 10.7 10.5z" fill="#fff"/></svg>