<svg xmlns="http://www.w3.org/2000/svg" width="361" height="361"><path d="M219 91a3 3 0 0 1-3 3h-71a3 3 0 0 1-3-3V78a3 3 0 0 1 3-3h71a3 3 0 0 1 3 3v13z" fill="none" stroke="#fff" stroke-width="10" stroke-miterlimit="10"/><path d="M205 132a36 36 0 0 1-50 0c-1-1-3 1-2 2a39 39 0 0 0 54 0c2-1-1-3-2-2zm83 113a153 153 0 0 1-106 44c-41 1-80-16-108-44-1-2-4 1-2 2a156 156 0 0 0 108 45c41 1 81-16 110-45 2-1 0-4-2-2zM206 94a25 25 0 0 1-25 24c-14 1-25-11-25-24 0-5-7-5-7 0a32 32 0 0 0 32 31c17 1 31-15 32-31 0-5-7-5-7 0z" fill="#fff"/><path d="M194 98c-1 7-4 18-13 18-2 0-2 3 0 3 11 0 15-12 16-21 0-2-3-2-3 0z" fill="#fff"/><path d="M165 98c0 9 5 21 16 21 2 0 2-3 0-3-9 0-13-10-13-18 0-2-3-2-3 0z" fill="#fff"/><path d="M179 98v20c0 2 3 2 3 0V98c0-2-3-2-3 0zm-26 34a10920817 10920817 0 0 0-81 113c-2 2 1 3 2 2l81-113c2-2-1-3-2-2zm52 2a10875639 10875639 0 0 0 83 113c1 1 4 0 3-2l-83-112v-1c-2-1-4 0-3 2z" fill="#fff"/></svg>