<svg xmlns="http://www.w3.org/2000/svg" width="361" height="361"><path d="M287 281.3c0 3-2.8 5.6-6.2 5.6H81c-3.4 0-6.2-2.5-6.2-5.6V80.4c0-3 2.8-5.6 6.2-5.6h199.8c3.4 0 6.2 2.5 6.2 5.6v200.9z" fill="none" stroke="#fff" stroke-width="10" stroke-miterlimit="10"/><path d="M159.8 130.4l-.1.1h-3.2v-3.2h3.2v3.1zm46.2 0v.1h-3.3v-3.2h3.3v3.1zm-23.3 13.2l-.1.1h-3.2v-3.3h3.4v3.2z" fill="none" stroke="#fff" stroke-width="10" stroke-miterlimit="10"/><path d="M212.3 151h-62.6c.4 0 1.9 1 .6 0-1.8-1.5-3.4-3.2-5-4.8a382.7 382.7 0 0 1-18.6-20.6v7.1a597.6 597.6 0 0 1 9.9-11.5c4.2-4.8 9.7-11.7 14.2-14.8 1-.6-2.2.3-1.1.3h62.1c1.6 0-1.9-.8-1-.3l2 1.7 3.4 3.4c3 3 5.8 6.3 8.6 9.5a556 556 0 0 1 10.2 12v-7.1a580.9 580.9 0 0 1-11 12.1 253 253 0 0 1-8.8 9.2 77.1 77.1 0 0 1-3.4 3.2c-1 .9-1.4.8-.9.7-6.4 1-3.6 10.6 2.7 9.7 2.4-.3 4.6-2.7 6.3-4.3 3.2-2.9 6.2-6 9.1-9.2a506.2 506.2 0 0 0 13-14.4c1.9-2.3 1.8-4.9 0-7.1-7.8-9.4-15.7-20.3-25.5-27.6-2.9-2.1-6.3-1.6-9.6-1.6h-57.5c-5 0-9.5 6-12.6 9.3a426.9 426.9 0 0 0-17.3 19.6c-1.8 2.2-1.9 4.9 0 7.1a395.2 395.2 0 0 0 19.3 21.2c2.6 2.7 6.3 7.2 10.4 7.2h63c6.5 0 6.5-10 0-10z" fill="#fff"/><path d="M147.6 224.6a.1.1 0 0 1 .2 0l1.5 2.8v.1l-2.7 1.6h-.2l-1.5-2.8 2.7-1.7zm-23.1-40h.1l1.6 2.7v.2l-2.8 1.5-1.7-2.7v-.1l2.8-1.6zm23 13.6h.2l1.6 2.7v.2l-2.8 1.5h-.1l-1.6-2.7v-.1l2.8-1.6z" fill="none" stroke="#fff" stroke-width="10" stroke-miterlimit="10"/><path d="M139.2 168.8l27.2 47.2 4.2 7.1c-.3-.4-.2-2-.5-.5-.3 2.2-1 4.5-1.6 6.7a383.2 383.2 0 0 1-8.5 26.4l6.2-3.5a594.7 594.7 0 0 1-14.9-2.8c-6.2-1.3-15.1-2.6-20-5-1-.5 1.3 1.8.8.9l-.8-1.4-3.7-6.4-11.3-19.7-10.9-18.8-3.5-6-.9-1.6c-.8-1.3.3 2 .3 1s1.1-5 1.7-7.1c1.2-4.1 2.6-8.1 4-12.2a553.5 553.5 0 0 1 5.2-14.8l-6.2 3.5a580 580 0 0 1 16 3.3c4.2.9 8.3 1.9 12.5 3a76.5 76.5 0 0 1 4.4 1.3c1.2.5 1.4.8 1.1.4 4 5.1 11-2 7-7-1.4-2-4.6-2.7-6.8-3.4-4-1.4-8.3-2.3-12.5-3.3a507.3 507.3 0 0 0-19-4c-2.9-.5-5.1.8-6.1 3.5-4.3 11.5-9.8 23.8-11.2 36-.4 3.5 1.7 6.2 3.4 9l10.3 18 18.4 31.8c2.5 4.4 10 5.2 14.3 6.3a426.4 426.4 0 0 0 25.7 5.1c2.8.5 5.2-.7 6.2-3.5 3.1-9 6.2-18 8.7-27.2 1-3.7 3-9.1 1-12.7l-3.3-5.7-28.2-49c-3.3-5.5-11.9-.5-8.7 5.1z" fill="#fff"/><path d="M214.2 224.6a.1.1 0 0 0-.2 0l-1.5 2.8v.1l2.7 1.6h.2l1.5-2.8-2.7-1.7zm23-40l-1.6 2.7v.2l2.8 1.5 1.6-2.7v-.1l-2.7-1.6zm-23 13.6h-.1l-1.6 2.7v.2l2.8 1.5h.1l1.6-2.7v-.1l-2.8-1.6z" fill="none" stroke="#fff" stroke-width="10" stroke-miterlimit="10"/><path d="M214 163.8l-28.3 48.9-3.3 5.6c-2 3.7 0 9 1 12.7 2.4 9.3 5.6 18.3 8.7 27.3 1 2.8 3.3 4 6.2 3.5 12.1-2.1 25.5-3.6 36.8-8.6 3-1.3 4.5-5 6-7.7l10.6-18.3 18-31.1c2.5-4.4-.8-11.8-2-16.1a443 443 0 0 0-8.4-24.4c-1-2.7-3.3-4-6.2-3.5a556 556 0 0 0-18 3.8c-4.3 1-8.6 2-12.8 3.2-2.4.8-6 1.6-7.6 3.7-3.9 5 3.1 12.1 7 7-.2.4-.1.1.6-.2l4.2-1.3a213.9 213.9 0 0 1 12.3-3 528.5 528.5 0 0 1 17-3.5l-6.2-3.5a601.8 601.8 0 0 1 5 13.9 350 350 0 0 1 3.6 11.3 137.3 137.3 0 0 1 2 7.1c0 .2.4 2.5.3 1.4.2 1.7.4-.8.5-.9l-.7 1.3-3.5 6-11.2 19.4-11 19-3.7 6.4-1 1.7c-.8 1.4.3-.3.9-.7-4 2.7-13.7 3.8-19.3 5a551.2 551.2 0 0 1-15.9 3l6.2 3.5a434.9 434.9 0 0 1-8.3-25.6 91.4 91.4 0 0 1-1.7-7c-.4-1.9.1-1.2-.6.1l4.2-7.2 27.2-47.2c3.2-5.6-5.4-10.6-8.7-5z" fill="#fff"/></svg>