<svg xmlns="http://www.w3.org/2000/svg" width="361" height="361"><path d="M158.5 198.6a5.3 5.3 0 0 0-5.3-5.3h-14a5.3 5.3 0 0 0-5.4 5.3V281a5.3 5.3 0 0 0 5.3 5.2h14.1a5.3 5.3 0 0 0 5.3-5.3v-82.4z" fill="none" stroke="#fff" stroke-width="10" stroke-miterlimit="10"/><path d="M140.5 95.7v93.6c0 6.5 10 6.5 10 0V95.7c0-6.5-10-6.5-10 0z" fill="#fff"/><path d="M153.2 97.4a7 7 0 0 1-6.9 7h-1.5a7 7 0 0 1-7-7V76.6a7 7 0 0 1 7-7h1.5a7 7 0 0 1 7 7v20.8z" fill="#fff"/><path d="M224.7 144.4a6 6 0 0 1-8.5 0l-29-29a6 6 0 0 1 0-8.5l6.4-6.4a6 6 0 0 1 8.5 0l29 29a6 6 0 0 1 0 8.5l-6.4 6.4z" fill="#fff" stroke="#fff" stroke-width="10" stroke-miterlimit="10"/><path d="M216.7 70.8l-32 32.1c-4.6 4.6 2.4 11.6 7 7l32-32c4.6-4.6-2.4-11.6-7-7zm35.6 39.4L225 137.5c-4.5 4.6 2.5 11.7 7.1 7.1l27.4-27.4c4.6-4.5-2.5-11.6-7-7z" fill="#fff"/><path d="M232.3 279.4c0 3.7-2 6.7-4.4 6.7h-14.3c-2.4 0-4.4-3-4.4-6.7V139.3c0-3.7 2-6.6 4.4-6.6H228c2.5 0 4.4 3 4.4 6.6v140.2z" fill="none" stroke="#fff" stroke-width="10" stroke-miterlimit="10"/><path d="M229.9 272.5a6.9 6.9 0 0 0-6.9-6.8h-5.3a6.9 6.9 0 0 0-6.9 6.8v5a6.9 6.9 0 0 0 6.9 6.8h5.3a6.9 6.9 0 0 0 6.9-6.8v-5zm-20-125.6h20" fill="none" stroke="#fff" stroke-width="10" stroke-miterlimit="10"/></svg>