<svg xmlns="http://www.w3.org/2000/svg" width="361" height="361"><path d="M212.1 283.3c0 2-1.8 3.6-4 3.6H78.8c-2.2 0-4-1.6-4-3.6v-130c0-2 1.9-3.6 4-3.6h129.3c2.2 0 4 1.6 4 3.6v130z" fill="none" stroke="#fff" stroke-width="10" stroke-miterlimit="10"/><path d="M125.7 220.3l-.2.2h-5l-.2-.2v-5l.1-.2h5l.3.1v5.1zm41.4 0l-.2.2h-5c-.2 0-.2-.1-.2-.2v-5l.1-.2h5l.3.1v5.1zM146 231v.1h-5l-.2-.1v-5c0-.2 0-.2.2-.2h5l.2.1v5.1z" fill="none" stroke="#fff" stroke-width="10" stroke-miterlimit="10"/><path d="M173.3 238.7h-59.7c-.2 0 1.9.8 1 .2-1.7-1.4-3.3-3-5-4.7A363.2 363.2 0 0 1 92 214.6v7a571 571 0 0 1 9.3-10.8c4-4.5 9.3-11.1 13.6-14 .9-.7-1.9.1-1.3.1H173c1.2 0-2.1-.8-1.1-.2 4 2.5 9.1 9.3 12.8 13.5a528.4 528.4 0 0 1 10 11.7v-7a555.3 555.3 0 0 1-10.3 11.5 262 262 0 0 1-8 8.5 80 80 0 0 1-3.4 3.2c-1 .9-1.5.9-1 .8-6.3 1-3.6 10.5 2.7 9.6 2.4-.3 4.7-2.7 6.4-4.3 3-2.7 5.6-5.6 8.4-8.5a483.4 483.4 0 0 0 12.3-13.8c2-2.2 1.8-4.9 0-7a555.3 555.3 0 0 0-10.6-12.5c-4.4-5-9-11-14.6-14.5-2.9-1.8-7.7-1-10.8-1H121c-3.5 0-7.7-.6-10.8 1-5.7 2.8-10.5 9.7-14.6 14.3a515.4 515.4 0 0 0-10.7 12.4c-1.8 2.2-1.9 4.8 0 7a374.6 374.6 0 0 0 18.4 20.3c2.6 2.6 6.1 6.8 10.1 6.8h60c6.4 0 6.4-10 0-10zm112-113.2c-.4 9-9 8-15.4 8h-23.3c-5.3 0-13 1.4-16.6-3.6-2.7-3.8-1.3-11.8-1.3-16.1v-23c0-6-.3-14 8-14h37.9c5.2 0 10.8 1.6 10.8 8.1v40.6c0 4.5 7 4.5 7 0V88.8c0-6.8-1.1-12.4-7-16.7-4.5-3.2-11.2-2.3-16.3-2.3h-23.3c-5.5 0-10.8-.5-16 1.7-6.7 2.9-8 10.2-8 16.7V110c0 7.2-1.3 15.6 1.5 22.3 3.8 8.9 13.8 8.2 21.7 8.2h28.4c3 0 5.9 0 8.8-.8 6.3-1.9 9.8-8 10.2-14.2.2-4.5-6.8-4.5-7 0z" fill="#fff"/><path d="M253.7 86.6v37.1c0 4.5 7 4.5 7 0v-37c0-4.6-7-4.6-7 0z" fill="#fff"/></svg>