<svg xmlns="http://www.w3.org/2000/svg" width="361" height="361"><path d="M282.4 281.1a6 6 0 0 1-6 6H85.8a6 6 0 0 1-6-6V170.7a6 6 0 0 1 6-6h190.6a6 6 0 0 1 6 6v110.4zm4-123.4a6.3 6.3 0 0 1-6.3 6.3H81.5a6.3 6.3 0 0 1-6.2-6.3v-6a6.3 6.3 0 0 1 6.2-6.2h198.6a6.3 6.3 0 0 1 6.3 6.2v6z" fill="none" stroke="#fff" stroke-width="10" stroke-miterlimit="10"/><path d="M186.4 196.3c-.2 3.4-2.3 4-5.2 4-3 0-5.5-.2-5.7-4-.2-3.5 2.5-4.1 5.2-4.1 3 0 5.5.2 5.7 4 .1 2 3.1 2 3 0-.1-2.2-.9-4.6-2.8-6-1.7-1-3.4-1-5.4-1-1.9 0-3.5-.1-5.3.7-2.4 1-3.3 4-3.4 6.4a7.2 7.2 0 0 0 2.8 6c1.7 1.1 3.4 1 5.4 1 1.9 0 3.5.2 5.3-.6 2.4-1.1 3.3-4 3.4-6.4.1-2-2.9-2-3 0z" fill="#fff"/></svg>