<svg xmlns="http://www.w3.org/2000/svg" width="361" height="361"><path d="M101.7 208.5a13 13 0 0 1-12-7.2 42 42 0 0 1-4.1-20.6c0-4.4.4-8.3 1.3-11.8a30.6 30.6 0 0 1 3.4-8.8 16 16 0 0 1 5.2-5.4 12.3 12.3 0 0 1 6.6-1.9 13 13 0 0 1 3.7.5l3 1.2a12 12 0 0 1 3.2 2.4l-2 9.7c-1-.9-2.2-1.6-3.5-2.2a10.5 10.5 0 0 0-4.5-1 7 7 0 0 0-3.3 1 8.2 8.2 0 0 0-2.8 3 18 18 0 0 0-2 5.2 45.3 45.3 0 0 0-.3 14.8c.4 2 .9 4 1.6 5.5a9.7 9.7 0 0 0 2.9 3.6c1.1 1 2.6 1.4 4.2 1.4 1.1 0 2-.1 2.9-.3a13.9 13.9 0 0 0 2.2-.8 9.2 9.2 0 0 0 1.7-1l1.4-1 2 9.7c-1 1-2.5 2-4.3 2.8s-4 1.2-6.5 1.2zm37-.2l-1.2-6-1.2-6h-12.6l-1.2 6-1.1 6h-7.6a1476 1476 0 0 1 3.5-16.5 858.5 858.5 0 0 1 3.2-14.2 747 747 0 0 1 3-12.7 402.1 402.1 0 0 1 3.2-11.7h6.9a616 616 0 0 1 6.2 24.4 861.9 861.9 0 0 1 3.2 14.2l3.5 16.5h-7.8zm-8.7-42.6l-.7 3.2-1.1 4.8-1.3 6-1.5 6.8h9.2l-1.4-6.9a354.9 354.9 0 0 0-1.4-6l-1-4.7a228.2 228.2 0 0 0-.8-3.2zm30.2 42.6a11 11 0 0 1-5.8-1.6c-1.7-1.1-3-2.6-4.1-4.5a22.5 22.5 0 0 1-2.4-6.7 45.4 45.4 0 0 1-.7-8.7v-33.6h7.2v32.6c0 2.1.2 4 .5 5.5.3 1.6.7 2.8 1.2 3.8s1.1 1.6 1.8 2a4.8 4.8 0 0 0 2.4.7c1.8 0 3.2-1 4.3-2.8a19 19 0 0 0 1.7-9.2v-32.6h7.2v33.6c0 3.1-.2 6-.8 8.7a22.5 22.5 0 0 1-2.4 6.8 12.2 12.2 0 0 1-4.1 4.4 11 11 0 0 1-6 1.6zm42.9-55.1v10.6h-9.8v44.5h-7.2v-44.5h-9.7v-10.6H203zm2 0h7.3v55H205v-55zm41.3 27.6a51 51 0 0 1-1.2 11.9 29.4 29.4 0 0 1-3.4 8.6 15.1 15.1 0 0 1-5.1 5.2 12.3 12.3 0 0 1-12.6 0 15.6 15.6 0 0 1-5.1-5.2 27.1 27.1 0 0 1-3.4-8.6 52.5 52.5 0 0 1 0-23.9c.9-3.4 2-6.3 3.5-8.6a15.8 15.8 0 0 1 5.1-5.3 11.7 11.7 0 0 1 6.2-1.7c2.2 0 4.2.6 6.2 1.7a15.5 15.5 0 0 1 5.1 5.3 29.5 29.5 0 0 1 3.5 8.6 51 51 0 0 1 1.2 12zm-24.6 0a30.4 30.4 0 0 0 2.2 12.3 9.5 9.5 0 0 0 2.7 3.5 5.8 5.8 0 0 0 3.7 1.2 5.8 5.8 0 0 0 3.6-1.2 9.4 9.4 0 0 0 2.7-3.5 21.2 21.2 0 0 0 1.6-5.3 37.4 37.4 0 0 0 0-14c-.4-2.2-1-4-1.6-5.5a9.4 9.4 0 0 0-2.7-3.5 5.8 5.8 0 0 0-3.6-1.2c-1.4 0-2.6.4-3.7 1.3a9.9 9.9 0 0 0-2.6 3.5 21.1 21.1 0 0 0-1.7 5.4c-.4 2.1-.6 4.4-.6 7zm48.2 27.5c-2.1-6.3-4.4-12.6-6.8-18.7s-5-12-7.7-17.4v36h-7.2v-55h6a97.5 97.5 0 0 1 3.3 6.4l3.8 8.2a331.8 331.8 0 0 1 3.9 9 575.6 575.6 0 0 1 3.6 8.9v-32.5h7.2v55H270zM288.8 91l-19-19c-7-6.8-17.5 3.8-10.6 10.7l19 19c6.8 6.8 17.4-3.8 10.6-10.7zm.7 47.6L223 72c-6.8-6.8-17.4 3.8-10.5 10.7l66.6 66.5c6.8 6.9 17.4-3.8 10.5-10.6zm-93.5 0L129.4 72c-6.8-6.8-17.4 3.8-10.5 10.7l66.6 66.5c6.8 6.9 17.4-3.8 10.5-10.6zm-94.3-.8l-19-19c-6.9-6.9-17.4 3.8-10.6 10.6l19 19c6.9 7 17.4-3.7 10.6-10.6zm141 .8L176.3 72c-6.8-6.8-17.4 3.8-10.6 10.7l66.6 66.5c6.8 6.9 17.4-3.8 10.6-10.6zm-94.2-.8L82.7 72.1c-6.9-6.8-17.4 3.8-10.6 10.7l65.9 65.8c6.8 6.8 17.4-3.8 10.6-10.7zm-65.8 105l20-19.8c6.8-6.8-3.8-17.4-10.7-10.6l-20 19.8c-6.8 6.9 3.9 17.4 10.7 10.6zm47.6 46l66-65.8c7-6.8-3.7-17.4-10.6-10.6l-66.1 65.8c-6.9 6.9 3.8 17.4 10.7 10.6zm46.7 0l65.8-65.8c6.9-6.9-3.8-17.4-10.6-10.6l-65.8 65.8c-6.9 6.9 3.8 17.4 10.6 10.6zm46.8 0l65.8-65.8c6.8-6.9-3.8-17.4-10.7-10.6l-65.7 65.8c-6.9 6.8 3.8 17.4 10.6 10.5zm46.7 0l19-19c7-6.9-3.7-17.5-10.6-10.6l-19 19c-6.9 6.9 3.8 17.4 10.6 10.6zm-187 0l65.7-65.8c6.8-6.9-3.8-17.4-10.7-10.6l-65.7 65.8c-6.8 6.9 3.8 17.4 10.7 10.6z" fill="#fff"/><path d="M282 283c.5-1.9 4.4-1.6 2-1.6H77.8c-3 0 2 5 2 2v-206c0-2.7.2 2.2-3 2.2h207.3c2.2 0-2.3-5.2-2.3-1.6v206.4c0 6.5 10 6.5 10 0v-207c0-7.6-6.3-7.8-12-7.8H83.7c-5.5 0-13.8-.9-13.8 7.3v207.4c0 8.3 9 7 14.6 7h193.3c5.3 0 12.1 1.2 14-5.5 1.6-6.3-8-9-9.7-2.7z" fill="#fff"/></svg>