<svg xmlns="http://www.w3.org/2000/svg" width="361" height="361"><path d="M209 97c0-3-1-4-2-4h-20c-1 0-2 1-2 4v75l2 4h21l1-4V97z" fill="none" stroke="#fff" stroke-width="10" stroke-miterlimit="10"/><path d="M212 197l77-59c3-2 3-6 0-8l-77-59c-3-2-8 1-8 4v118c0 6 10 6 10 0V75l-7 5 77 58v-9l-77 59c-5 4 0 13 5 9zM71 185v102c0 6 10 6 10 0V185c0-6-10-6-10 0z" fill="#fff"/><path d="M286 282H76c-7 0-7 10 0 10h210c6 0 6-10 0-10zM81 249l62-31c5-3 0-11-5-8l-62 30c-6 3-1 11 5 9z" fill="#fff"/><path d="M139 218l35 22c6 3 11-6 5-9l-35-22c-5-3-10 5-5 9zm53 6l10 27c2 6 12 3 9-3l-10-27c-2-6-11-3-9 3z" fill="#fff"/><path d="M209 254l44-32c5-4 0-13-5-9l-44 32c-5 4 0 12 5 9zm-30-14l20-13c6-3 1-12-5-9l-20 13c-5 3 0 12 5 9z" fill="#fff"/><path d="M249 222l36 9c6 1 9-9 2-10l-36-9c-6-1-9 9-2 10z" fill="#fff"/></svg>