<svg xmlns="http://www.w3.org/2000/svg" width="361" height="361"><path d="M287 281c0 3-3 6-6 6H81c-3 0-6-3-6-6V80c0-3 3-5 6-5h200c3 0 6 2 6 5v201z" fill="none" stroke="#fff" stroke-width="10" stroke-miterlimit="10"/><path d="M152 185h-10v-9l1-1h9v10zm68 0h-10v-9l1-1h9v10zm-34 19h-10v-9h10v9z" fill="none" stroke="#fff" stroke-width="10" stroke-miterlimit="10"/><path d="M227 215h-93 1a15 15 0 0 1-2-2c-11-9-21-21-30-32a604 604 0 0 1-4-4v7l25-28c3-4 8-9 12-11-1 0-2 0 0 0h90c-2 0 1 1 0 0l14 14a715 715 0 0 1 22 26v-7a829 829 0 0 1-16 18 411 411 0 0 1-13 13 108 108 0 0 1-5 5l-2 1h1c-6 1-6 11 0 10 4 0 7-3 10-6l13-13a755 755 0 0 0 19-22 5 5 0 0 0 0-7 701 701 0 0 0-24-28l-14-13-8-1h-91c-5 2-10 8-13 12a611 611 0 0 0-27 30c-2 2-2 5 0 7l25 28c4 4 8 9 14 12 2 2 5 1 8 1h88c7 0 7-10 0-10z" fill="#fff"/></svg>