<svg xmlns="http://www.w3.org/2000/svg" width="361" height="361"><path d="M204 150a14 14 0 0 1-14 15h-19a14 14 0 0 1-14-15v-17a14 14 0 0 1 14-14h19a14 14 0 0 1 14 14v17z" fill="none" stroke="#fff" stroke-width="10" stroke-miterlimit="10"/><path d="M247 137h-23c-6 0-6 10 0 10h23c7 0 7-10 0-10zm-61-39V75c0-7-10-7-10 0v23c0 6 10 6 10 0zm-38 4l-16-16c-5-5-12 2-7 7l16 16c5 5 12-2 7-7zm72 7l17-16c4-5-3-12-8-7l-16 16c-5 5 2 12 7 7zm-34 100v-24c0-6-10-6-10 0v23c0 7 10 7 10 1zm-72-62h23c7 0 7-10 0-10h-23c-7 0-7 10 0 10zm99 34l16 16c5 5 12-2 7-6l-16-17c-5-5-12 3-7 7zm-72-7l-16 17c-5 4 2 11 7 7l16-17c5-5-2-12-7-7z" fill="#fff"/><g fill="#fff"><path d="M78 289c-7-1-4-16-4-19v-20c0-7 11-5 15-5h195c3 0 6 1 6 5v20c0 3 2 18-5 18H79c-2 1-2 4 0 4h207c11 0 8-16 8-23v-20c0-4-3-8-8-8H79c-11 1-8 13-8 20v20c0 5 1 10 7 11 2 0 2-3 0-3z"/><path d="M80 254v25c0 6 10 6 10 0v-25c0-6-10-6-10 0zm15 0v25c0 6 10 6 10 0v-25c0-6-10-6-10 0zm14 0v25c0 6 10 6 10 0v-25c0-6-10-6-10 0zm15 0v25c0 6 10 6 10 0v-25c0-6-10-6-10 0zm15 0v25c0 6 10 6 10 0v-25c0-6-10-6-10 0zm15 0v25c0 6 10 6 10 0v-25c0-6-10-6-10 0zm14 0v25c0 6 10 6 10 0v-25c0-6-10-6-10 0zm15 0v25c0 6 10 6 10 0v-25c0-6-10-6-10 0zm15 0v25c0 6 10 6 10 0v-25c0-6-10-6-10 0z"/></g></svg>