<svg xmlns="http://www.w3.org/2000/svg" width="361" height="361"><path d="M259.4 93.6c1.5-1.5 2.4-3 1.9-3.6l-14.8-14.8c-.5-.5-2.1.4-3.6 1.9l-53.5 53.4c-1.5 1.5-2.3 3.2-1.9 3.6l14.9 14.9c.4.4 2-.4 3.6-2l53.4-53.4z" fill="none" stroke="#fff" stroke-width="10" stroke-miterlimit="10"/><path d="M192 166.8l95.7 12.8c2.4.4 5.3-2.5 5-5L279.9 79c-.6-4-5.2-7-8.6-3.5l-82.9 82.9c-4.6 4.6 2.5 11.6 7 7l83-82.9L270 79l12.8 95.7 5-5-95.8-12.8c-6.3-.8-6.3 9.2 0 10zM70.6 185.3v101.4c0 6.4 10 6.4 10 0V185.3c0-6.4-10-6.4-10 0z" fill="#fff"/><path d="M285.8 281.7H75.7c-6.5 0-6.5 10 0 10h210.1c6.5 0 6.5-10 0-10zm-204.6-33l61.4-30.4c5.8-2.8.8-11.4-5-8.6L76.1 240c-5.7 2.8-.7 11.4 5 8.6z" fill="#fff"/><path d="M139 217.5l35.4 22c5.5 3.4 10.5-5.3 5-8.7l-35.4-22c-5.5-3.3-10.5 5.3-5 8.7zm52.8 6.4l10 26.6c2.1 6 11.8 3.4 9.6-2.7l-10-26.5c-2.2-6-11.9-3.4-9.6 2.6z" fill="#fff"/><path d="M209 253.5l43.5-32c5-3.8.1-12.5-5-8.7l-43.5 32c-5.1 3.8-.1 12.5 5 8.7zm-29.6-14l19.7-12.6c5.5-3.4.5-12-5-8.6l-19.7 12.5c-5.4 3.5-.4 12.1 5 8.7z" fill="#fff"/><path d="M248.6 222l36 8.5c6.3 1.5 9-8.2 2.7-9.7l-36-8.5c-6.3-1.5-9 8.2-2.7 9.6z" fill="#fff"/></svg>