<svg xmlns="http://www.w3.org/2000/svg" width="361" height="361"><path d="M260.7 70.1h-148c-8 0-16.5-.8-24 2.3a30.7 30.7 0 0 0-18.8 24.3c-.5 3.5-.3 7.1-.3 10.6v79.5c0 17.5 13 31.4 30.7 31.9 7.8.2 15.8 0 23.7 0h68.8l-3.5-1.5 61.6 72.6c3.6 4.2 9-.5 8.3-4.9l-11-72.5-4.7 6.3h17.2a31 31 0 0 0 26-14.5c6.4-9.4 4.7-22.3 4.7-33.1v-47.4c0-10 1.3-21-1-30.9a31 31 0 0 0-29.7-22.7c-6.4-.1-6.4 9.9 0 10a21 21 0 0 1 20.7 20.7v86.7a21 21 0 0 1-12.9 19.7c-6.5 2.7-15 1.5-22 1.5h-3c-3.6 0-5.3 3.2-4.9 6.3l11 72.6 8.3-4.9-48.2-56.8-10.7-12.6c-1.8-2.1-3.3-4.6-6.4-4.6h-77.7c-11.2 0-23.8 1.8-31.4-8.5-6-8.3-4-22-4-31.6V121c0-9.9-1.9-22.7 3.4-31.5 5.8-9.8 16.3-9.5 26-9.5h151.8c6.5 0 6.5-10 0-10z" fill="#fff"/><path d="M231 172l-28.3-28.2 28.3-28.3a9 9 0 0 0 0-12.7l-9.5-9.5a9 9 0 0 0-12.7 0l-28.3 28.3-28.3-28.3a9 9 0 0 0-12.7 0l-9.5 9.5a9 9 0 0 0 0 12.7l28.3 28.3-28.3 28.3a9 9 0 0 0 0 12.7l9.5 9.5a9 9 0 0 0 12.7 0l28.3-28.3 28.3 28.3a9 9 0 0 0 12.7 0l9.5-9.5a9 9 0 0 0 0-12.7z" fill="#fff"/></svg>