<svg xmlns="http://www.w3.org/2000/svg" width="361" height="361"><path d="M281 237.7c-15.7-3.2-34.1-4.6-49.7-5.9-9.3-.7-42.3-.8-49.7-.8H180c-7.4 0-40.4.1-49.7.8-15.6 1.3-34 2.7-49.7 5.9-3.1.6-5.9 2.2-5.9 4.8v39.1c0 2.7 2.7 4.9 5.9 4.9h44c12.8-1.3 9.4-16.3 15.8-21.8 2.2-1.8 7.3-1.6 10.4-1.6h59.8c3.1 0 8.3-.2 10.5 1.6 6.4 5.5 3 20.5 15.8 21.8h44c3.2 0 5.8-2.2 5.8-4.9v-39c0-2.7-2.7-4.3-5.8-5z" fill="none" stroke="#fff" stroke-width="10" stroke-miterlimit="10"/><path d="M74.8 211.7h212c6.5 0 6.5-10 0-10h-212c-6.4 0-6.4 10 0 10zm32.7-34.6l73.2 9.8c2.5.4 5.4-2.5 5-5l-9.7-73.2c-.6-4-5.2-7-8.6-3.5L104 168.6c-4.6 4.6 2.5 11.6 7 7l63.5-63.4-8.5-3.5 9.7 73.2 5-5-73.2-9.8c-6.4-.8-6.3 9.2 0 10zM92.8 79c2.4-1.7 7.4 5.4 9 6.9l8 8c1 1-13.8 14.7-15.4 16.4-1 1-14.7-13.8-16.4-15.4-.9-1 13.8-14.7 15.5-16.4 3.2-3.2-1.8-8.2-5-5L77.7 84.3c-4 4-9.6 8.6-5.2 14.7 3 4.2 7.7 7.8 11.4 11.5 4 4 8.6 9.6 14.7 5.2 4.2-3 7.8-7.7 11.5-11.4 4-4 9.6-8.5 5.2-14.7-3-4.2-7.7-7.8-11.4-11.5-4-4-8.5-9.6-14.7-5.2-3.6 2.6 0 8.7 3.6 6z" fill="#fff"/><path d="M128.3 114.5c2.4-1.8 7.4 5.3 9 6.8l8 8c1 1-13.8 14.7-15.4 16.4-1 1-14.7-13.8-16.3-15.4-1-1 13.7-14.7 15.4-16.4 3.2-3.2-1.8-8.1-5-5l-10.8 10.9c-4 4-9.6 8.6-5.2 14.7 3 4.2 7.7 7.8 11.4 11.5 4 4 8.6 9.6 14.7 5.2 4.3-3 7.8-7.7 11.5-11.4 4-4 9.6-8.5 5.2-14.7-3-4.2-7.7-7.8-11.4-11.5-4-4-8.5-9.6-14.6-5.2-3.7 2.6-.2 8.7 3.5 6z" fill="#fff"/></svg>