<svg xmlns="http://www.w3.org/2000/svg" width="361" height="361"><path d="M74.6 99.3C78 115 84 132.4 89.1 147.2c3 8.8 16 39.1 19 45.9a224.5 224.5 0 0 0 .6 1.4c3 6.8 16.2 37 20.6 45.2 7.3 13.8 16 30.2 25.1 43.3 1.9 2.6 4.4 4.5 6.8 3.4l35.9-15.6c2.4-1 3.4-4.3 2-7.3l-17.4-40.3c-6.3-11.2-18.7-2.2-26.3-5.8-2.6-1.3-4.5-6.1-5.7-9L138.2 182l-.8-2-11.5-26.4c-1.3-2.9-3.5-7.5-2.7-10.2 2.5-8 17.6-11 13.7-23.2l-17.5-40.4c-1.3-3-4.4-4.5-6.8-3.4L76.7 92c-2.4 1-2.7 4.1-2 7.3z" fill="none" stroke="#fff" stroke-width="10" stroke-miterlimit="10"/><path d="M214.4 89.5l73.2-9.8-5-5-9.8 73.3 8.6-3.6L217.9 81c-4.6-4.6-11.6 2.5-7 7l63.4 63.5c3.4 3.4 8 .5 8.5-3.5l9.8-73.3c.3-2.4-2.5-5.3-5-5l-73.2 9.8c-6.3.8-6.4 10.8 0 10zM196 183.8c5.8 4.2 10.2-.7 14-4.6l11.5-11.5c5.5-5.5 0-10.8-4-14.7l-11.4-11.5c-5.5-5.5-11 .1-14.8 4L179.9 157c-5.5 5.5.1 10.8 4 14.7l11.5 11.5c3.2 3.2 8.2-1.7 5-5l-15.5-15.4c-1-1 13.8-14.7 15.4-16.3 1-1 14.7 13.7 16.4 15.4.9 1-6.7 7.6-7.4 8.3-1.6 1.5-7.2 9.3-9.6 7.5-3.7-2.6-7.2 3.4-3.6 6z" fill="#fff"/><path d="M231.6 148.2c5.8 4.2 10.2-.6 14-4.5l11.6-11.5c5.4-5.5-.2-10.9-4-14.7L241.6 106c-5.5-5.5-10.9.1-14.8 4l-11.5 11.5c-5.4 5.4.2 10.8 4 14.7l11.5 11.5c3.2 3.2 8.2-1.8 5-5l-15.5-15.4c-1-1 13.8-14.7 15.4-16.3 1-1 14.7 13.7 16.4 15.4.9 1-6.7 7.6-7.4 8.2-1.6 1.6-7.2 9.3-9.6 7.6-3.7-2.6-7.2 3.4-3.6 6z" fill="#fff"/></svg>