<svg xmlns="http://www.w3.org/2000/svg" width="361" height="361"><path d="M214 89l74-9-5-5-10 73 8-4-63-63c-5-5-12 2-7 7l63 63c4 4 8 1 9-3l10-73c0-3-3-6-5-5l-74 9c-6 1-6 11 0 10z" fill="#fff"/><path d="M232 148c5 4 10-1 14-5l11-11c6-5 0-11-4-15l-11-11c-6-6-11 0-15 4l-12 11c-5 6 1 11 4 15l12 11c3 4 8-1 5-4l-16-16c-1-1 14-15 16-16 1-1 14 14 16 15 1 1-7 8-7 8-2 2-7 10-10 8-4-3-7 4-3 6z" fill="#fff"/><path d="M170 227l1-10c-5 0-11 3-16 0-2-1-4-6-5-9l-12-26-1-2-11-26c-1-3-4-8-3-11 3-8 18-11 14-23l-18-40c-1-3-4-5-6-4L77 92c-3 1-3 4-2 7 3 16 9 33 14 48l19 46a225 225 0 0 0 1 1l20 46c8 13 16 30 25 43 2 3 5 5 7 3l32-13a57 57 0 0 1-23-46z" fill="none" stroke="#fff" stroke-width="10" stroke-miterlimit="10"/><path d="M198 182a59 59 0 0 1 15-6l5-5c4-4 9-9 4-14l-11-10c-2-3-7-9-12-8-4 2-7 6-10 9-4 3-8 7-10 11-4 5 2 10 5 13l10 10c3 3 8-2 5-5l-14-14c-1-1 13-15 15-16 2-2 14 12 16 14s-3 5-5 7l-5 3a61 61 0 0 0-11 5c-4 3-1 9 3 6z" fill="#fff"/><path d="M277 227a50 50 0 0 1-35 48 50 50 0 0 1-56-21 50 50 0 0 1 4-59 50 50 0 0 1 59-13 50 50 0 0 1 28 45c0 10 15 10 15 0a66 66 0 0 0-33-56 65 65 0 0 0-67 2 65 65 0 0 0-29 60 65 65 0 0 0 38 53 65 65 0 0 0 62-5 65 65 0 0 0 29-54c0-9-15-9-15 0z" fill="#fff"/><path d="M193 273l80-81c7-7-4-17-11-10l-80 80c-7 7 4 18 11 11z" fill="#fff"/></svg>