<svg xmlns="http://www.w3.org/2000/svg" width="361" height="361"><path d="M281 207.7c-15.7-3.2-34.1-4.6-49.7-5.9-9.3-.7-42.3-.8-49.7-.8H180c-7.4 0-40.4.1-49.7.8-15.6 1.3-34 2.7-49.7 5.9-3.1.6-5.9 2.2-5.9 4.8v39.1c0 2.7 2.7 4.9 5.9 4.9h44c12.8-1.3 9.4-16.3 15.8-21.8 2.2-1.8 7.3-1.7 10.4-1.7h59.8c3.1 0 8.3-.1 10.5 1.7 6.4 5.5 3 20.5 15.8 21.8h44c3.2 0 5.8-2.2 5.8-4.9v-39c0-2.7-2.7-4.3-5.8-5z" fill="none" stroke="#fff" stroke-width="10" stroke-miterlimit="10"/><path d="M158.6 114.1a31.5 31.5 0 0 1-31 31 31.3 31.3 0 0 1-31.1-31 31.4 31.4 0 0 1 31-31 31.4 31.4 0 0 1 31.1 31c.2 6.4 10.2 6.5 10 0a41.6 41.6 0 0 0-41-41 41.5 41.5 0 0 0-41.1 41 41.5 41.5 0 0 0 41 41c22.7.5 40.7-19 41.1-41 .2-6.4-9.8-6.4-10 0zm107.5 0a31.5 31.5 0 0 1-31 31 31.3 31.3 0 0 1-31.1-31 31.3 31.3 0 0 1 31-31 31.4 31.4 0 0 1 31.1 31c.2 6.4 10.2 6.5 10 0a41.6 41.6 0 0 0-41-41 41.5 41.5 0 0 0-41.1 41 41.5 41.5 0 0 0 41 41c22.7.5 40.7-19 41.1-41 .2-6.4-9.8-6.4-10 0z" fill="#fff"/><path d="M127.6 155.2H235c6.4 0 6.4-10 0-10H127.6c-6.5 0-6.5 10 0 10z" fill="#fff"/></svg>