<svg xmlns="http://www.w3.org/2000/svg" width="361" height="361"><path d="M74.6 99.3C78 115 84 132.4 89.1 147.2c3 8.8 16 39.1 19 45.9a224.5 224.5 0 0 0 .6 1.4c3 6.8 16.2 37 20.6 45.2 7.3 13.8 16 30.2 25.1 43.3 1.9 2.6 4.4 4.5 6.8 3.4l35.9-15.6c2.4-1 3.4-4.3 2-7.3l-17.4-40.3c-6.3-11.2-18.7-2.2-26.3-5.8-2.6-1.3-4.5-6.1-5.7-9L138.2 182l-.8-2-11.5-26.4c-1.3-2.9-3.5-7.5-2.7-10.2 2.5-8 17.6-11 13.7-23.2l-17.5-40.4c-1.3-3-4.4-4.5-6.8-3.4L76.7 92c-2.4 1-2.7 4.1-2 7.3z" fill="none" stroke="#fff" stroke-width="10" stroke-miterlimit="10"/><path d="M205.7 82.6a21.1 21.1 0 0 0 3.7-1.9 15.4 15.4 0 0 0 3.4-3h2.2v23.6h-3V82.2l-1 .7-1.3.8-1.5.7-1.4.6-1-2.4zm44.6 1.2a6 6 0 0 1-.5 2.3c-.3.8-.8 1.6-1.3 2.3a22.8 22.8 0 0 1-1.8 2.2l-2 2-1.4 1.4-1.5 1.7a14 14 0 0 0-1.1 1.6 3 3 0 0 0-.5 1.3h10.9v2.7h-14.3a2.4 2.4 0 0 1 0-.4v-.4c0-1 .1-2 .5-3 .3-.8.8-1.7 1.4-2.5a18.5 18.5 0 0 1 1.9-2.3l2-2.1a55.9 55.9 0 0 0 1.7-1.7c.5-.5 1-1 1.3-1.6a7.9 7.9 0 0 0 1-1.6 4.6 4.6 0 0 0 .3-1.8 4 4 0 0 0-.3-1.7 3.4 3.4 0 0 0-.9-1.2 3.4 3.4 0 0 0-1.2-.7 5.3 5.3 0 0 0-1.6-.3 6 6 0 0 0-1.8.3 8.8 8.8 0 0 0-1.5.6 6 6 0 0 0-1 .8l-.7.6-1.6-2.3a8.5 8.5 0 0 1 2.4-1.7l1.9-.8a8.1 8.1 0 0 1 2.3-.3c2.4 0 4.3.6 5.5 1.7a6.3 6.3 0 0 1 1.9 4.9zM274 99c2 0 3.5-.4 4.4-1.2a4.1 4.1 0 0 0 1.3-3.2 4.1 4.1 0 0 0-.6-2.1 4.2 4.2 0 0 0-1.4-1.5 6.3 6.3 0 0 0-2-.7 13 13 0 0 0-2.5-.2h-.8v-2.6h1.2c.5 0 1.1 0 1.7-.2a5 5 0 0 0 1.7-.6 3.6 3.6 0 0 0 1.2-1.2c.3-.5.5-1.1.5-2 0-.6-.1-1-.4-1.6a3.3 3.3 0 0 0-.9-1 3.5 3.5 0 0 0-1.3-.7 6.2 6.2 0 0 0-1.5-.2c-1.1 0-2 .2-2.8.5l-2 1-1.1-2.4a11.1 11.1 0 0 1 2.4-1.2 13.5 13.5 0 0 1 1.7-.5 9.2 9.2 0 0 1 1.9-.2c1.2 0 2.3.2 3.2.5s1.7.7 2.3 1.3a5.3 5.3 0 0 1 1.3 2c.3.7.4 1.5.4 2.4a5 5 0 0 1-1 3.2 6.9 6.9 0 0 1-2.6 2c.6.1 1.2.4 1.8.7s1 .8 1.5 1.3a6.3 6.3 0 0 1 1.4 4.1c0 1-.2 2-.5 2.8-.4 1-1 1.7-1.7 2.3s-1.6 1.1-2.7 1.5-2.5.5-4 .5h-1.8a17.8 17.8 0 0 1-1.8-.4 19.6 19.6 0 0 1-1.4-.4 7.4 7.4 0 0 1-.9-.4l.6-2.7 2 .7c.9.3 2 .4 3.2.4zm-70 28.2l1.7-3.5a51 51 0 0 1 2.6-4.1 64 64 0 0 1 3-4.2 42.3 42.3 0 0 1 3.2-3.6h3v15h2.9v2.5h-2.8v6h-3.1v-6H204v-2.1zm10.5-11.7a33.8 33.8 0 0 0-2 2.4 54.5 54.5 0 0 0-4 5.8 42 42 0 0 0-1.5 3h7.5v-11.2zm26.8 5.3c3.4.2 6 1 7.5 2.3a6.9 6.9 0 0 1 2.4 5.5c0 1-.2 2-.5 3a6 6 0 0 1-1.6 2.2c-.7.6-1.6 1.1-2.7 1.5s-2.4.5-3.9.5h-1.8a16.2 16.2 0 0 1-1.7-.4 22 22 0 0 1-1.4-.4 7.4 7.4 0 0 1-.9-.4l.6-2.7 2 .7c.8.3 1.9.4 3.1.4 1 0 2 0 2.6-.3s1.3-.6 1.7-1c.4-.3.7-.8 1-1.3a5.6 5.6 0 0 0-.2-3.9 3.8 3.8 0 0 0-1.6-1.7 9.1 9.1 0 0 0-3-1 25.9 25.9 0 0 0-4.7-.4l.3-3 .2-3 .2-2.7.2-3h11.3v2.8h-8.6a120.6 120.6 0 0 1-.2 3.1l-.2 1.9a25.1 25.1 0 0 1-.1 1.3zm27.3 5c0-2.2.3-4.2 1-6a11.4 11.4 0 0 1 6.9-7.2c1.7-.6 3.5-1 5.6-1l.3 2.7a13.8 13.8 0 0 0-6.7 1.8c-1 .6-1.5 1.3-2.1 2.3-.6.9-1 2-1.3 3.4.6-.2 1.2-.5 2-.6a9.6 9.6 0 0 1 2.3-.3 9 9 0 0 1 3.4.6c.9.4 1.6 1 2.2 1.6a6 6 0 0 1 1.3 2.3 8.7 8.7 0 0 1 0 5.4 7.8 7.8 0 0 1-1.4 2.5 7 7 0 0 1-2.3 1.8 7 7 0 0 1-3.3.7c-2.6 0-4.5-.8-5.9-2.6-1.3-1.8-2-4.2-2-7.3zm7.6-2.3a10.4 10.4 0 0 0-4.2.8 16.6 16.6 0 0 0-.1 1.6 12.3 12.3 0 0 0 .9 5.1c.3.6.8 1.2 1.4 1.6a4 4 0 0 0 2.3.6 3.6 3.6 0 0 0 1.9-.4 4.2 4.2 0 0 0 1.3-1.3c.3-.5.6-1 .7-1.6a6.8 6.8 0 0 0 .2-1.7c0-1.5-.3-2.7-1-3.5-.8-.8-2-1.2-3.4-1.2zm-68 45.8a34 34 0 0 1 1-5.7 48.2 48.2 0 0 1 1.8-5.8 45.4 45.4 0 0 1 2.5-5.3c.9-1.6 1.7-3 2.6-4h-11.5v-2.7h15v2.6a42.7 42.7 0 0 0-5 8.6 45.2 45.2 0 0 0-2 6 31.8 31.8 0 0 0-1.2 6.3H208zm43.6-6c0 .9-.1 1.7-.5 2.5a5.9 5.9 0 0 1-1.4 2.1 6.6 6.6 0 0 1-2.5 1.4c-1 .4-2 .5-3.3.5-1.5 0-2.7-.2-3.7-.6a6.8 6.8 0 0 1-2.4-1.6 5.6 5.6 0 0 1-1.2-2 6.9 6.9 0 0 1-.4-2.2c0-.7.1-1.3.3-1.9a7.7 7.7 0 0 1 2-3.1 9.9 9.9 0 0 1 1.6-1.1 6.1 6.1 0 0 1-3.4-5.6c0-.9.2-1.7.5-2.5a6.2 6.2 0 0 1 1.5-2 7 7 0 0 1 2.2-1.4 8 8 0 0 1 3-.6 7.1 7.1 0 0 1 5.5 2.1c.6.6 1 1.2 1.3 2 .2.7.4 1.4.4 2a5.8 5.8 0 0 1-.3 2 6.8 6.8 0 0 1-.8 1.5 7.1 7.1 0 0 1-1.1 1.4l-1.3 1c2.6 1.3 4 3.3 4 6zm-12.2.1a3.4 3.4 0 0 0 1 2.5c.4.4.8.7 1.4 1 .5.2 1.3.3 2.1.3a5.5 5.5 0 0 0 2-.3 4.2 4.2 0 0 0 1.4-.9c.4-.3.7-.7.9-1.2a4.2 4.2 0 0 0-.2-3.3 4.2 4.2 0 0 0-1.1-1.4 7.1 7.1 0 0 0-1.9-1 16.3 16.3 0 0 0-2.4-.8 6.6 6.6 0 0 0-2.4 2.1 5.3 5.3 0 0 0-.8 3zm8.5-12c0-.4 0-.8-.2-1.2a3.4 3.4 0 0 0-.7-1.1 3.9 3.9 0 0 0-1.2-.9c-.5-.2-1.2-.3-1.9-.3s-1.3 0-1.8.3-1 .5-1.3.9a3.5 3.5 0 0 0-.9 2.4 4.4 4.4 0 0 0 1.1 2.8c.4.5 1 .9 1.5 1.2.7.3 1.4.6 2.3.8a7.7 7.7 0 0 0 2.2-2c.6-.7.9-1.7.9-3zm35.4 3.8c0 4.7-1.2 8.2-3.5 10.6-2.3 2.4-5.8 3.6-10.3 3.6l-.2-2.7c1.5 0 2.8 0 3.9-.4s2.1-.7 3-1.3a7.6 7.6 0 0 0 2.2-2.3 9 9 0 0 0 1.2-3.5 10.2 10.2 0 0 1-2 .7 10.4 10.4 0 0 1-5.7-.4 6.2 6.2 0 0 1-2.2-1.6 6 6 0 0 1-1.3-2.3 9.5 9.5 0 0 1-.4-2.7c0-.9.1-1.7.4-2.6a7.8 7.8 0 0 1 1.4-2.5 7 7 0 0 1 5.6-2.6c1.3 0 2.4.2 3.4.7s1.8 1.1 2.5 2a9 9 0 0 1 1.5 3.1c.3 1.3.5 2.6.5 4.2zm-7.6 2.3c.8 0 1.5 0 2.2-.2a10 10 0 0 0 2-.7v-1.4l-.1-2.8a7.5 7.5 0 0 0-.7-2.4 4.3 4.3 0 0 0-1.4-1.6 4 4 0 0 0-2.3-.6 3.6 3.6 0 0 0-1.9.5 4.3 4.3 0 0 0-1.3 1.2c-.3.5-.6 1-.7 1.6l-.2 1.7c0 1.5.3 2.7 1 3.5.8.8 1.9 1.2 3.4 1.2zM212.2 180c0 1-.1 2-.3 2.8l-.5 2.7c.8-.5 1.6-1 2.4-1.3a16.7 16.7 0 0 1 2.6-1.2h.2l1 2.8-.3.1c-1 .4-1.8.6-2.7.7a67 67 0 0 1-2.8.2 72.1 72.1 0 0 1 4 4v.2l-2.4 1.8-.1-.2a21.4 21.4 0 0 1-1.4-2.5l-1.2-2.5-1.2 2.5a21.6 21.6 0 0 1-1.5 2.5l-.1.2-2.5-1.8.2-.2a13.2 13.2 0 0 1 1.8-2.1 74.5 74.5 0 0 1 2.1-1.9 67 67 0 0 1-2.7-.2 11.3 11.3 0 0 1-2.8-.7h-.2l1-3 .1.1c1 .3 1.8.7 2.6 1.2l2.4 1.3-.5-2.7a14.3 14.3 0 0 1-.3-2.8v-.2h3v.2zm21 11.5c0-4 .8-7 2.2-9 1.4-2.2 3.3-3.3 5.8-3.3s4.4 1 5.8 3.2c1.4 2.2 2 5.2 2 9.1 0 4-.6 7-2 9.1-1.4 2.2-3.4 3.2-5.8 3.2s-4.4-1-5.8-3.2a16 16 0 0 1-2.1-9zm12.5 0c0-1.3 0-2.5-.2-3.6-.2-1.2-.4-2.2-.8-3s-.8-1.6-1.4-2.1a3.3 3.3 0 0 0-4.4 0 5.3 5.3 0 0 0-1.3 2c-.4.9-.6 2-.8 3a29 29 0 0 0-.2 3.7c0 1.3 0 2.5.2 3.7.2 1.2.4 2.2.8 3a5.3 5.3 0 0 0 1.4 2c.6.6 1.3.9 2.2.9s1.5-.3 2.1-.8a5.3 5.3 0 0 0 1.4-2c.4-1 .6-2 .8-3l.2-3.8zm27.4-5.5h5.5l1.2-6.2h2.9l-1.2 6.2h3v2.5H281l-1.2 6.1h4.7v2.5h-5.1l-1.2 6.2h-2.9l1.2-6.2H271l-1.2 6.2h-2.9l1.2-6.2h-3v-2.5h3.5l1.2-6H265V186h5.2l1.2-6.2h2.8L273 186zm-1.6 8.6h5.5l1.2-6h-5.5l-1.2 6z" fill="#fff"/><path d="M289.4 203c-.7 5.3-8.8 3.9-12 3.9h-75.3c-5 0-4.1-6-4.1-8.6V79.9c0-3 .2-6.7 4.7-6.7h77.5c2.9 0 9.2-1 9.2 4.1V203c0 2 3 2 3 0V90.9c0-6.4 2.4-17.9-5.4-20.6-2.5-.8-6.4-.1-9-.1h-65.5c-6.5 0-17.5-2-17.5 7.7v116.6c0 6.2-1.3 15.4 7.7 15.4h72.1c6.4 0 16.5 2 17.6-6.9.2-2-2.8-1.9-3 0z" fill="#fff"/><path d="M196.5 107.8h94.4c1.9 0 1.9-3 0-3h-94.4c-2 0-2 3 0 3zm0 33.7h93.3c2 0 2-3 0-3h-93.3c-2 0-2 3 0 3zm0 35.7h94.4c1.9 0 1.9-3 0-3h-94.4c-2 0-2 3 0 3z" fill="#fff"/><path d="M225.6 71.7v136.7c0 1.9 3 1.9 3 0V71.7c0-2-3-2-3 0zm33.7 0v136.7c0 1.9 3 1.9 3 0V71.7c0-2-3-2-3 0z" fill="#fff"/></svg>