<svg xmlns="http://www.w3.org/2000/svg" width="361" height="361"><path d="M75 99c3 16 9 33 14 48l19 46a225 225 0 0 0 1 1l20 46c8 13 16 30 25 43 2 3 5 5 7 3l36-15c2-1 3-5 2-8l-17-40c-7-11-19-2-27-6-2-1-4-6-5-9l-12-26-1-2-11-26c-1-3-4-8-3-11 3-8 18-11 14-23l-18-40c-1-3-4-5-6-4L77 92c-3 1-3 4-2 7z" fill="none" stroke="#fff" stroke-width="10" stroke-miterlimit="10"/><path d="M206 83a21 21 0 0 0 3-2 15 15 0 0 0 4-3h2v23h-3V82l-1 1-1 1h-2l-1 1-1-2zm44 1a6 6 0 0 1 0 2l-2 2a23 23 0 0 1-1 3l-2 2-2 1-1 2a14 14 0 0 0-1 1 3 3 0 0 0-1 2h11v2h-14v-4l2-2a19 19 0 0 1 2-2l2-2a56 56 0 0 0 1-2l2-2a8 8 0 0 0 1-1 5 5 0 0 0 0-2 4 4 0 0 0 0-2 3 3 0 0 0-1-1 3 3 0 0 0-2-1 5 5 0 0 0-1 0 6 6 0 0 0-2 0 9 9 0 0 0-1 1 6 6 0 0 0-1 1h-1l-2-2a9 9 0 0 1 3-2l2-1a8 8 0 0 1 2 0l5 2a6 6 0 0 1 2 5zm24 15l4-1a4 4 0 0 0 2-3 4 4 0 0 0-1-3 4 4 0 0 0-1-1 6 6 0 0 0-2-1 13 13 0 0 0-3 0h-1v-3h3a5 5 0 0 0 2 0 4 4 0 0 0 1-1l1-2-1-2a3 3 0 0 0-1-1 4 4 0 0 0-1-1 6 6 0 0 0-1 0l-3 1-2 1-1-3a11 11 0 0 1 2-1 14 14 0 0 1 2-1 9 9 0 0 1 2 0l3 1 2 1a5 5 0 0 1 1 2l1 2a5 5 0 0 1-1 4 7 7 0 0 1-3 2h2l2 2a6 6 0 0 1 1 4l-1 2-1 3-3 1-4 1h-2a18 18 0 0 1-2-1 20 20 0 0 1-1 0 7 7 0 0 1-1 0l1-3 2 1h3zm-70 28l2-3a51 51 0 0 1 2-4 64 64 0 0 1 3-5 42 42 0 0 1 3-3h3v15h3v2h-2v6h-4v-6h-10v-2zm11-11a34 34 0 0 0-2 2 55 55 0 0 0-4 6 42 42 0 0 0-2 3h8v-11zm26 5l8 2a7 7 0 0 1 2 6v3a6 6 0 0 1-2 2l-3 1-3 1h-2a16 16 0 0 1-2-1 22 22 0 0 1-1 0 7 7 0 0 1-1 0v-3l2 1h6l2-1 1-2a6 6 0 0 0-1-4 4 4 0 0 0-1-1 9 9 0 0 0-3-1 26 26 0 0 0-5-1l1-3v-8h11v2h-8a121 121 0 0 1 0 4l-1 1a25 25 0 0 1 0 2zm28 5l1-6a11 11 0 0 1 7-7l5-1v2a14 14 0 0 0-6 2l-2 2-2 4 2-1a10 10 0 0 1 3 0 9 9 0 0 1 3 1l2 1a6 6 0 0 1 1 2 9 9 0 0 1 1 6 8 8 0 0 1-2 2 7 7 0 0 1-2 2 7 7 0 0 1-3 1c-3 0-5-1-6-3-2-2-2-4-2-7zm7-3a10 10 0 0 0-4 1 17 17 0 0 0 0 2 12 12 0 0 0 1 5l1 2a4 4 0 0 0 2 0 4 4 0 0 0 2 0 4 4 0 0 0 2-2v-1a7 7 0 0 0 1-2l-1-3-4-2zm-68 46a34 34 0 0 1 1-5 48 48 0 0 1 2-6 45 45 0 0 1 3-5l2-4h-11v-3h15v2a43 43 0 0 0-5 9 45 45 0 0 0-2 6 32 32 0 0 0-2 6h-3zm44-6l-1 3a6 6 0 0 1-1 2 7 7 0 0 1-3 1l-3 1-4-1a7 7 0 0 1-2-1 6 6 0 0 1-1-2 7 7 0 0 1-1-3l1-1a8 8 0 0 1 2-4 10 10 0 0 1 1-1 6 6 0 0 1-3-5v-3a6 6 0 0 1 2-2 7 7 0 0 1 2-1 8 8 0 0 1 3-1 7 7 0 0 1 6 2l1 2v2a6 6 0 0 1 0 2 7 7 0 0 1-1 2 7 7 0 0 1-1 1l-1 1c2 2 4 4 4 6zm-12 0a3 3 0 0 0 1 3l1 1h2a6 6 0 0 0 2 0 4 4 0 0 0 2-1v-1a4 4 0 0 0 0-3 4 4 0 0 0-1-2 7 7 0 0 0-2-1 16 16 0 0 0-2-1 7 7 0 0 0-3 2 5 5 0 0 0 0 3zm8-12v-1a3 3 0 0 0-1-1 4 4 0 0 0-1-1h-4l-1 1a4 4 0 0 0-1 3 4 4 0 0 0 1 2l2 2h2a8 8 0 0 0 2-2l1-3zm36 4c0 5-2 8-4 11-2 2-6 3-10 3v-2l3-1 3-1a8 8 0 0 0 3-2 9 9 0 0 0 1-4 10 10 0 0 1-2 1 10 10 0 0 1-6-1 6 6 0 0 1-2-1 6 6 0 0 1-1-2 10 10 0 0 1-1-3l1-3a8 8 0 0 1 1-2 7 7 0 0 1 6-3l3 1 3 2a9 9 0 0 1 1 3l1 4zm-8 3l2-1a10 10 0 0 0 2 0v-5a8 8 0 0 0-1-2 4 4 0 0 0-1-2 4 4 0 0 0-2 0 4 4 0 0 0-2 0 4 4 0 0 0-2 2v3l1 3c0 1 1 2 3 2zm-64 22v3l-1 3 3-2a17 17 0 0 1 2-1h1l1 3h-1l-2 1a67 67 0 0 1-3 0 72 72 0 0 1 4 4l-3 2a21 21 0 0 1-1-3l-1-2-2 2a22 22 0 0 1-1 3l-3-2h1a13 13 0 0 1 1-2 75 75 0 0 1 2-2 67 67 0 0 1-2 0 11 11 0 0 1-3-1l1-3 2 1 3 1-1-2a14 14 0 0 1 0-3h3zm21 12l2-9c2-3 4-4 6-4s5 1 6 3l2 9-2 10c-1 2-3 3-6 3s-4-1-6-3a16 16 0 0 1-2-9zm13 0l-1-4v-3l-2-2a3 3 0 0 0-4 0 5 5 0 0 0-1 2l-1 3a29 29 0 0 0 0 4v3l1 3a5 5 0 0 0 1 2l2 1 2-1a5 5 0 0 0 2-2v-3l1-4zm27-6h6l1-6h3l-2 6h3v3h-3l-1 6h5v2h-6l-1 6h-3l2-6h-6l-1 6h-3l1-6h-3v-2h4l1-6h-5v-3h5l1-6h3l-1 6zm-2 9h6l1-6h-5l-2 6z" fill="#fff"/><path d="M289 203c0 5-8 4-12 4h-75c-5 0-4-6-4-9V80c0-3 0-7 5-7h77c3 0 9-1 9 4v126c0 2 3 2 3 0V91c0-6 3-18-5-21h-75c-6 0-17-2-17 8v117c0 6-1 15 8 15h72c6 0 16 2 17-7 1-2-2-2-3 0z" fill="#fff"/><path d="M197 108h94c2 0 2-3 0-3h-95c-2 0-2 3 0 3zm0 34h93c2 0 2-3 0-3h-93c-2 0-2 3 0 3zm0 35h94c2 0 2-3 0-3h-95c-2 0-2 3 0 3z" fill="#fff"/><path d="M226 72v136c0 2 3 2 3 0V72c0-2-3-2-3 0zm33 0v136c0 2 3 2 3 0V72c0-2-3-2-3 0z" fill="#fff"/></svg>