<svg xmlns="http://www.w3.org/2000/svg" width="361" height="361"><path d="M75 99c3 16 9 33 14 48l19 46a225 225 0 0 0 1 1l20 46c8 13 16 30 25 43 2 3 5 5 7 3l36-15c2-1 3-5 2-8l-17-40c-7-11-19-2-27-6-2-1-4-6-5-9l-12-26-1-2-11-26c-1-3-4-8-3-11 3-8 18-11 14-23l-18-40c-1-3-4-5-6-4L77 92c-3 1-3 4-2 7z" fill="none" stroke="#fff" stroke-width="10" stroke-miterlimit="10"/><path d="M231 223a31 31 0 0 1 0 43c-3 4 2 9 5 5a38 38 0 0 0 0-53c-3-3-8 2-5 5z" fill="#fff"/><path d="M250 215a44 44 0 0 1 0 62c-4 3 1 8 5 5a51 51 0 0 0 0-72c-4-3-9 2-5 5z" fill="#fff"/><path d="M269 206a56 56 0 0 1 0 78c-4 4 1 9 5 5a63 63 0 0 0 0-88c-4-3-9 2-5 5zM214 89l74-9-5-5-10 73 8-4-63-63c-5-5-12 2-7 7l63 63c4 4 8 1 9-3l10-73c0-3-3-6-5-5l-74 9c-6 1-6 11 0 10zm-18 95c6 4 10-1 14-5l12-11c5-6 0-11-4-15l-12-12c-5-5-11 0-15 4l-11 12c-6 5 0 11 4 15l11 11c3 3 8-2 5-5l-15-15c-1-1 14-15 15-17 1-1 15 14 17 16l-8 8c-1 2-7 9-9 8-4-3-8 3-4 6z" fill="#fff"/><path d="M232 148c5 4 10-1 14-5l11-11c6-5 0-11-4-15l-11-11c-6-6-11 0-15 4l-12 11c-5 6 1 11 4 15l12 11c3 4 8-1 5-4l-16-16c-1-1 14-15 16-16 1-1 14 14 16 15 1 1-7 8-7 8-2 2-7 10-10 8-4-3-7 4-3 6z" fill="#fff"/></svg>