<svg xmlns="http://www.w3.org/2000/svg" width="361" height="361"><path d="M75 99c3 16 9 33 14 48l19 46a225 225 0 0 0 1 1l20 46c8 13 16 30 25 43 2 3 5 5 7 3l36-15c2-1 3-5 2-8l-17-40c-7-11-19-2-27-6-2-1-4-6-5-9l-12-26-1-2-11-26c-1-3-4-8-3-11 3-8 18-11 14-23l-18-40c-1-3-4-5-6-4L77 92c-3 1-3 4-2 7z" fill="none" stroke="#fff" stroke-width="10" stroke-miterlimit="10"/><path d="M214 90l74-10-5-5-10 73 8-4-63-63c-5-5-12 3-7 7l63 64c4 3 8 0 9-4l10-73c0-3-3-6-5-5l-74 10c-6 0-6 10 0 10zm-18 94c6 4 10-1 14-5l12-11c5-6 0-11-4-15l-12-11c-5-6-11 0-15 4l-11 11c-6 6 0 11 4 15l11 11c4 3 9-2 5-5l-15-15c-1-1 14-15 15-17 1-1 15 14 17 16 1 1-7 7-8 8-1 2-7 9-9 8-4-3-7 3-4 6z" fill="#fff"/><path d="M232 148c5 4 10 0 14-4l11-12c6-5 0-11-4-15l-11-11c-6-5-11 0-15 4l-12 12c-5 5 0 10 4 14l12 12c3 3 8-2 5-5l-16-16c-1-1 14-14 16-16 1-1 14 14 16 15 1 1-7 8-7 9-2 1-8 9-10 7-4-2-7 4-4 6z" fill="#fff"/></svg>