<svg xmlns="http://www.w3.org/2000/svg" width="361" height="361"><path d="M74.6 99.3C78 115 84 132.4 89.1 147.2c3 8.8 16 39.1 19 45.9a224.5 224.5 0 0 0 .6 1.4c3 6.8 16.2 37 20.6 45.2 7.3 13.8 16 30.2 25.1 43.3 1.9 2.6 4.4 4.5 6.8 3.4l35.9-15.6c2.4-1 3.4-4.3 2-7.3l-17.4-40.3c-6.3-11.2-18.7-2.2-26.3-5.8-2.6-1.3-4.5-6.1-5.7-9L138.2 182l-.8-2-11.5-26.4c-1.3-2.9-3.5-7.5-2.7-10.2 2.5-8 17.6-11 13.7-23.2l-17.5-40.4c-1.3-3-4.4-4.5-6.8-3.4L76.7 92c-2.4 1-2.7 4.1-2 7.3z" fill="none" stroke="#fff" stroke-width="10" stroke-miterlimit="10"/><path d="M205.6 112.7a64 64 0 0 1 0 89.7c-4.6 4.6 2.5 11.7 7 7a74.3 74.3 0 0 0 0-103.8c-4.5-4.6-11.6 2.5-7 7.1z" fill="#fff"/><path d="M226.4 95.3a91.4 91.4 0 0 1 0 128c-4.5 4.5 2.5 11.6 7 7a102 102 0 0 0 29.5-70.4c.4-26.8-10.7-52.7-29.4-71.7-4.6-4.6-11.6 2.5-7.1 7z" fill="#fff"/><path d="M248.6 78.3a114.8 114.8 0 0 1 33.2 79.6 114 114 0 0 1-33.2 81c-4.6 4.6 2.5 11.6 7 7a125.2 125.2 0 0 0 36.2-86.6c.4-32.9-13.2-64.8-36.2-88-4.5-4.6-11.6 2.4-7 7z" fill="#fff"/></svg>