<svg xmlns="http://www.w3.org/2000/svg" width="361" height="361"><path d="M214.4 89.3l73.2-9.7-5-5-9.8 73.2 8.6-3.5-63.5-63.5c-4.6-4.6-11.6 2.5-7 7l63.4 63.5c3.4 3.4 8 .6 8.5-3.5l9.8-73.2c.3-2.5-2.5-5.4-5-5l-73.2 9.8c-6.3.8-6.4 10.8 0 10z" fill="#fff"/><path d="M231.6 148.1c5.8 4.2 10.2-.7 14-4.6l11.6-11.4c5.4-5.5-.2-11-4-14.8l-11.5-11.5c-5.5-5.5-10.9.1-14.8 4l-11.5 11.5c-5.4 5.5.2 10.9 4 14.8l11.5 11.4c3.2 3.2 8.2-1.7 5-4.9l-15.5-15.4c-1-1 13.8-14.7 15.4-16.4 1-1 14.7 13.8 16.4 15.4.9 1-6.7 7.6-7.4 8.3-1.6 1.6-7.2 9.3-9.6 7.5-3.7-2.6-7.2 3.5-3.6 6.1z" fill="#fff"/><path d="M170.4 227.3c0-3.4.3-6.7.9-10-5.5 0-11.5 2.2-15.9 0-2.6-1.2-4.5-6-5.7-8.9L138.2 182l-.8-2-11.5-26.4c-1.3-2.9-3.5-7.5-2.7-10.2 2.5-8 17.7-11 13.7-23.2l-17.5-40.4c-1.3-3-4.4-4.5-6.8-3.4L76.7 92c-2.4 1-2.7 4.1-2 7.3 3.2 15.6 9.3 33.1 14.4 47.9 3 8.8 16 39.1 19 45.9a224.5 224.5 0 0 0 .6 1.4c3 6.8 16.2 37 20.6 45.2 7.3 13.8 16 30.2 25.1 43.3 1.9 2.6 4.4 4.5 6.8 3.4l31.7-13.7a57 57 0 0 1-22.5-45.4z" fill="none" stroke="#fff" stroke-width="10" stroke-miterlimit="10"/><path d="M198.3 182.3a59 59 0 0 1 14.5-6.6c2-.6 3.8-3 5.2-4.5 3.9-3.9 8.9-9.1 3.6-14.4l-10.1-10.1c-3-3-7.3-9-12.3-7.4-4.3 1.4-7.4 5.6-10.5 8.7-3.4 3.4-7.3 6.7-10.1 10.6-3.6 5 2.3 10 5.4 13l10.1 10.2c3.2 3.2 8.2-1.8 5-5l-14.2-14.1c-1-1 13.5-14.5 15.1-16 1.6-1.6 13.9 12.3 15.7 14.1 2.4 2.4-2.8 5.6-4.6 7.4-1.7 1.8-2.4 1.4-5 2.4a61.1 61.1 0 0 0-11.3 5.7c-3.8 2.3-.3 8.4 3.5 6z" fill="#fff"/><path d="M277.1 227.2a50.2 50.2 0 0 1-35.3 47.6 50 50 0 0 1-56-20.7 50 50 0 0 1 4.4-59.6 50 50 0 0 1 58.5-12.1 50.1 50.1 0 0 1 28.4 44.8c.1 9.7 15.1 9.8 15 .1a65.7 65.7 0 0 0-33.5-56.7 65 65 0 0 0-66.7 2.8 65 65 0 0 0-28.7 59.4 65 65 0 0 0 38 53.4 65.2 65.2 0 0 0 61.9-5 65.3 65.3 0 0 0 29-53.9c.1-9.7-14.9-9.8-15 0z" fill="#fff"/><path d="M192.5 272.9l80.7-80.7c6.8-6.9-3.8-17.4-10.7-10.6l-80.7 80.7c-6.8 6.9 3.8 17.4 10.7 10.6z" fill="#fff"/></svg>