<svg xmlns="http://www.w3.org/2000/svg" width="361" height="361"><path d="M281 237.7c-15.7-3.2-34.1-4.6-49.7-5.9-9.3-.7-42.3-.8-49.7-.8H180c-7.4 0-40.4.1-49.7.8-15.6 1.3-34 2.7-49.7 5.9-3.1.6-5.9 2.2-5.9 4.8v39.1c0 2.7 2.7 4.9 5.9 4.9h44c12.8-1.3 9.4-16.3 15.8-21.8 2.2-1.8 7.3-1.6 10.4-1.6h59.8c3.1 0 8.3-.2 10.5 1.6 6.4 5.5 3 20.5 15.8 21.8h44c3.2 0 5.8-2.2 5.8-4.9v-39c0-2.7-2.7-4.3-5.8-5z" fill="none" stroke="#fff" stroke-width="10" stroke-miterlimit="10"/><path d="M148.3 79.5L75 69.7c-2.4-.3-5.3 2.5-5 5l9.8 73.3c.6 4 5.2 6.9 8.6 3.5L151.8 88c4.6-4.5-2.5-11.6-7-7l-63.5 63.4 8.5 3.6-9.7-73.3-5 5 73.2 9.8c6.4.8 6.3-9.2 0-10zm64.4 117.1c1.7 2.4-5.3 7.5-6.9 9l-8 8c-1 1-14.7-13.7-16.4-15.4-.9-.9 13.8-14.6 15.4-16.3 1-1 14.7 13.8 16.4 15.4 3.2 3.2 8.2-1.7 5-4.9l-10.9-10.8c-4-4-8.6-9.7-14.7-5.2-4.2 3-7.8 7.6-11.5 11.3-4 4-9.6 8.6-5.2 14.7 3 4.3 7.7 7.9 11.4 11.6 4 4 8.6 9.6 14.7 5.2 4.2-3 7.8-7.7 11.5-11.4 4-4 9.6-8.6 5.2-14.7-2.6-3.6-8.7-.1-6 3.5zm35.3-35.3c1.8 2.4-5.3 7.4-6.8 9l-8 8c-1 1-14.7-13.8-16.4-15.4-1-1 13.7-14.7 15.4-16.4 1-.9 14.7 13.8 16.4 15.5 3.2 3.2 8.1-1.8 5-5l-10.9-10.8c-4-4-8.6-9.6-14.7-5.2-4.3 3-7.8 7.7-11.5 11.4-4 4-9.6 8.6-5.2 14.7 3 4.2 7.6 7.8 11.3 11.5 4 4 8.6 9.6 14.7 5.2 4.3-3 7.9-7.7 11.6-11.4 4-4 9.6-8.6 5.2-14.7-2.6-3.6-8.7 0-6 3.6zm21.2-18.9c-2.4 1.8-7.5-5.3-9-6.8l-8-8c-1-1 13.7-14.7 15.4-16.4.9-1 14.6 13.7 16.3 15.4 1 1-13.8 14.7-15.5 16.4-3.2 3.2 1.8 8.1 5 5l10.8-11c4-4 9.6-8.5 5.2-14.6-3-4.3-7.7-7.8-11.4-11.5-4-4-8.5-9.6-14.7-5.2-4.2 3-7.8 7.6-11.5 11.3-4 4-9.6 8.6-5.2 14.7 3 4.3 7.7 7.9 11.4 11.6 4 4 8.6 9.6 14.7 5.2 3.6-2.6.1-8.7-3.5-6zM163 177.7c-2.4 1.7-7.4-5.3-9-6.8l-8-8.1c-1-1 13.8-14.7 15.4-16.3 1-1 14.7 13.7 16.3 15.4 1 1-13.7 14.7-15.4 16.3-3.2 3.2 1.7 8.2 5 5l10.8-10.8c4-4 9.6-8.6 5.2-14.7-3.1-4.3-7.7-7.9-11.4-11.6-4-4-8.6-9.6-14.7-5.2-4.3 3.1-7.8 7.7-11.5 11.4-4 4-9.6 8.6-5.2 14.7 3 4.3 7.6 7.8 11.3 11.5 4 4 8.6 9.6 14.7 5.2 3.7-2.6.2-8.7-3.5-6z" fill="#fff"/><path d="M127.5 142.2c-2.4 1.7-7.4-5.3-9-6.8l-8-8.1c-1-1 13.7-14.7 15.4-16.3 1-1 14.7 13.7 16.3 15.4 1 1-13.8 14.7-15.4 16.3-3.2 3.2 1.7 8.2 5 5l10.8-10.8c4-4 9.6-8.6 5.2-14.7-3.1-4.3-7.7-7.9-11.4-11.6-4-4-8.6-9.6-14.7-5.2-4.3 3.1-7.8 7.7-11.5 11.4-4 4-9.7 8.6-5.2 14.7 3 4.2 7.6 7.8 11.3 11.5 4 4 8.6 9.6 14.7 5.2 3.7-2.6.2-8.7-3.5-6z" fill="#fff"/></svg>