<svg xmlns="http://www.w3.org/2000/svg" width="361" height="361"><path d="M281 238c-16-4-34-5-50-6l-49-1h-2l-50 1c-15 1-34 2-49 6-3 0-6 2-6 4v40c0 2 2 5 6 5h44c12-2 9-17 15-22 3-2 8-2 11-2h60c3 0 8 0 10 2 7 5 3 20 16 21h44c3 1 6-2 6-4v-39c0-3-3-5-6-5z" fill="none" stroke="#fff" stroke-width="10" stroke-miterlimit="10"/><path d="M75 212h212c6 0 6-10 0-10H75c-7 0-7 10 0 10zM214 90l74-10-5-5-10 73 8-4-63-63c-5-5-12 3-7 7l63 64c4 3 8 0 9-4l10-73c0-3-3-6-5-5l-74 10c-6 0-6 10 0 10zm-18 94c6 4 10-1 14-5l12-11c5-6 0-11-4-15l-12-11c-5-6-11 0-15 4l-11 11c-6 6 0 11 4 15l11 11c4 3 9-2 5-5l-15-15c-1-1 14-15 15-17 1-1 15 14 17 16 1 1-7 7-8 8-1 2-7 9-9 8-4-3-7 3-4 6z" fill="#fff"/><path d="M232 148c5 4 10 0 14-4l11-12c6-5 0-11-4-15l-11-11c-6-5-11 0-15 4l-12 12c-5 5 0 10 4 14l12 12c3 3 8-2 5-5l-16-16c-1-1 14-14 16-16 1-1 14 14 16 15 1 1-7 8-7 9-2 1-8 9-10 7-4-2-7 4-4 6z" fill="#fff"/></svg>