<svg xmlns="http://www.w3.org/2000/svg" width="361" height="361"><path d="M281 238c-16-4-34-5-50-6l-49-1h-2l-50 1c-15 1-34 2-49 6-3 0-6 2-6 4v40c0 2 2 5 6 5h44c12-2 9-17 15-22 3-2 8-2 11-2h60c3 0 8 0 10 2 7 5 3 20 16 21h44c3 1 6-2 6-4v-39c0-3-3-5-6-5z" fill="none" stroke="#fff" stroke-width="10" stroke-miterlimit="10"/><path d="M214 90l74-10-5-5-10 73 8-4-63-63c-5-5-12 3-7 7l63 64c4 3 8 0 9-4l10-73c0-3-3-6-5-5l-74 10c-6 0-6 10 0 10zm-70 103c-4 6 1 10 5 14l11 12c6 5 11-1 15-4l11-12c6-5 0-11-4-15l-11-11c-6-6-11 0-15 4l-11 11c-4 4 1 9 5 5l15-15c1-1 15 14 16 15s-13 15-15 17c-1 1-8-7-8-8-2-1-10-7-8-9 3-4-3-7-6-4zm-35-35c-5 6 0 10 4 14l12 11c5 6 11 0 14-4l12-11c5-6 0-11-4-15l-12-11c-5-6-10 0-14 4l-12 11c-3 3 2 8 5 5l15-15c2-1 15 13 17 15 1 1-14 15-15 16s-8-6-9-7c-1-2-9-7-7-10s-4-7-6-3zm-19-9c6 4 10-1 14-5l12-11c5-6-1-11-4-15l-12-12c-5-5-11 0-15 4l-11 12c-6 5 0 11 4 14l11 12c3 3 8-2 5-5l-15-15c-1-1 13-15 15-17 1-1 15 14 17 16 1 1-7 7-8 8-1 2-7 9-9 8-4-3-8 3-4 6zm106 35c6 4 10-1 14-5l12-11c5-6 0-11-4-15l-12-11c-5-6-11 0-15 4l-11 11c-6 6 0 11 4 15l11 11c4 3 9-2 5-5l-15-15c-1-1 14-15 15-17 1-1 15 14 17 16 1 1-7 7-8 8-1 2-7 9-9 8-4-3-7 3-4 6z" fill="#fff"/><path d="M232 148c5 4 10 0 14-4l11-12c6-5 0-11-4-15l-11-11c-6-5-11 0-15 4l-12 12c-5 5 0 10 4 14l12 12c3 3 8-2 5-5l-16-16c-1-1 14-14 16-16 1-1 14 14 16 15 1 1-7 8-7 9-2 1-8 9-10 7-4-2-7 4-4 6z" fill="#fff"/></svg>