<svg xmlns="http://www.w3.org/2000/svg" width="361" height="361"><path d="M281 238c-16-4-34-5-50-6l-49-1h-2l-50 1c-15 1-34 2-49 6-3 0-6 2-6 4v40c0 2 2 5 6 5h44c12-2 9-17 15-22 3-2 8-2 11-2h60c3 0 8 0 10 2 7 5 3 20 16 21h44c3 1 6-2 6-4v-39c0-3-3-5-6-5z" fill="none" stroke="#fff" stroke-width="10" stroke-miterlimit="10"/><path d="M75 212h212c6 0 6-10 0-10H75c-7 0-7 10 0 10zm33-35l73 10c2 0 5-3 5-5l-10-73c-1-4-5-7-9-4l-63 64c-5 4 3 11 7 7l64-64-9-3 10 73 5-5-74-10c-6-1-6 9 0 10zM93 79c2-2 7 5 9 7l8 8c1 1-14 15-16 16-1 1-14-13-16-15-1-1 14-15 16-16 3-4-2-9-5-5L78 84c-4 4-10 9-5 15l11 12c4 4 9 9 15 5l11-12c4-4 10-8 5-14-3-5-7-8-11-12s-9-10-15-5c-3 2 0 9 4 6z" fill="#fff"/><path d="M128 115c3-2 8 5 9 6l8 8c1 1-13 15-15 17-1 1-15-14-16-16-1-1 13-14 15-16 3-3-2-8-5-5l-11 11c-4 4-9 8-5 15l11 11c4 4 9 10 15 5l12-11c4-4 9-9 5-15l-12-11c-4-4-8-10-14-6-4 3 0 9 3 6z" fill="#fff"/></svg>