<svg xmlns="http://www.w3.org/2000/svg" width="361" height="361"><path d="M281 238c-16-4-34-5-50-6l-49-1h-2l-50 1c-15 1-34 2-49 6-3 0-6 2-6 4v40c0 2 2 5 6 5h44c12-2 9-17 15-22 3-2 8-2 11-2h60c3 0 8 0 10 2 7 5 3 20 16 21h44c3 1 6-2 6-4v-39c0-3-3-5-6-5z" fill="none" stroke="#fff" stroke-width="10" stroke-miterlimit="10"/><path d="M148 80L75 70c-2-1-5 2-5 5l10 73c0 4 5 7 8 4l64-64c4-4-3-12-7-7l-64 63 9 4-10-73-5 5 73 10c7 0 7-10 0-10zm65 117c1 2-6 7-7 9l-8 8c-1 1-15-14-17-16l16-16c1-1 15 14 16 15 3 3 8-1 5-5l-11-10c-4-4-8-10-14-6-5 3-8 8-12 12s-9 8-5 14c3 5 8 8 11 12 4 4 9 10 15 5l12-11c4-4 9-9 5-15-3-4-9 0-6 4zm35-36c2 3-5 8-7 9l-8 8c-1 1-15-13-16-15-1-1 13-15 15-16 1-1 15 13 17 15 3 3 8-2 5-5l-11-11c-4-4-9-9-15-5l-11 11c-4 4-10 9-6 15l12 12c4 4 8 9 14 5 5-3 8-8 12-12s10-8 5-14c-3-4-9 0-6 3zm21-19c-2 2-7-5-9-6l-8-8c-1-1 14-15 16-17l16 16c1 1-14 14-16 16-3 3 2 8 5 5l11-11c4-4 10-8 5-15l-11-11c-4-4-8-10-15-5l-11 11c-4 4-10 9-5 15l11 11c4 4 9 10 15 5 3-2 0-8-4-6zm-106 36c-2 1-7-6-9-7l-8-8c-1-1 14-15 15-17 1-1 15 14 17 16 1 1-14 15-16 16-3 3 2 8 5 5l11-11c4-4 10-8 5-14-3-5-7-8-11-12s-9-10-15-5l-11 11c-4 4-10 9-5 15l11 12c4 4 8 9 15 5 3-3 0-9-4-6z" fill="#fff"/><path d="M128 142c-3 2-8-5-9-7l-8-8c-1-1 13-14 15-16 1-1 15 14 16 15s-14 15-15 17c-3 3 2 8 5 5l11-11c4-4 9-9 5-15l-12-11c-4-4-8-10-14-6-5 3-8 8-12 12s-9 8-5 14c3 5 8 8 11 12 4 4 9 10 15 5 4-2 0-9-3-6z" fill="#fff"/></svg>