<svg xmlns="http://www.w3.org/2000/svg" width="361" height="361"><path d="M287.3 99.3c-3.3 15.7-9.3 33.1-14.4 47.9a1204 1204 0 0 1-19 45.9l-.4.7-.3.7c-3 6.8-16.2 37-20.5 45.2-7.4 13.8-16 30.2-25.2 43.3-1.9 2.6-4.4 4.5-6.8 3.4l-35.8-15.6c-2.5-1-3.4-4.3-2.2-7.3l17.6-40.3c6.2-11.2 18.7-2.2 26.2-5.8 2.6-1.3 4.5-6.1 5.7-9l11.5-26.4.9-2 11.4-26.4c1.3-2.9 3.5-7.5 2.7-10.2-2.5-8-17.6-11-13.7-23.2l17.6-40.4c1.3-3 4.3-4.5 6.8-3.4L285.2 92c2.5 1 2.8 4.1 2.1 7.3z" fill="none" stroke="#fff" stroke-width="10" stroke-miterlimit="10"/><path d="M107.5 177.2l73.2 9.7c2.5.4 5.4-2.5 5-5l-9.7-73.2c-.6-4-5.2-7-8.6-3.5L104 168.6c-4.6 4.6 2.5 11.7 7 7l63.5-63.4-8.5-3.5 9.7 73.2 5-5-73.2-9.8c-6.4-.8-6.3 9.2 0 10zM92.8 78.9c2.3-1.7 7.4 5.4 9 6.9l8 8c1 1-13.8 14.7-15.4 16.4-1 1-14.7-13.8-16.4-15.4-1-1 13.8-14.7 15.5-16.4 3.2-3.2-1.8-8.2-5-5L77.7 84.3c-4 4-9.6 8.6-5.2 14.7 3 4.2 7.7 7.8 11.4 11.5 4 4 8.6 9.6 14.7 5.2 4.2-3 7.8-7.7 11.5-11.4 4-4 9.6-8.5 5.2-14.7-3-4.2-7.7-7.8-11.4-11.5-4-4-8.5-9.6-14.7-5.2-3.6 2.6 0 8.7 3.6 6z" fill="#fff"/><path d="M128.3 114.5c2.4-1.8 7.4 5.3 9 6.8l8 8c1 1-13.8 14.7-15.4 16.4-1 1-14.7-13.8-16.3-15.4-1-1 13.7-14.7 15.4-16.4 3.2-3.2-1.8-8.1-5-5l-10.8 10.9c-4 4-9.6 8.6-5.2 14.7 3 4.2 7.7 7.8 11.4 11.5 4 4 8.6 9.6 14.7 5.2 4.3-3 7.8-7.7 11.5-11.4 4-4 9.6-8.5 5.2-14.7-3-4.2-7.7-7.8-11.4-11.5-4-4-8.5-9.6-14.6-5.2-3.7 2.6-.2 8.7 3.5 6z" fill="#fff"/></svg>