<svg xmlns="http://www.w3.org/2000/svg" width="361" height="361"><path d="M287 99c-3 16-9 33-14 48a1204 1204 0 0 1-19 46v1h-1l-20 46c-8 13-16 30-25 43-2 3-5 5-7 3l-36-15c-3-1-3-5-2-8l17-40c7-11 19-2 27-6 2-1 4-6 5-9l12-26 1-2 11-26c1-3 4-8 3-11-3-8-18-11-14-23l18-40c1-3 4-5 6-4l36 16c3 1 3 4 2 7z" fill="none" stroke="#fff" stroke-width="10" stroke-miterlimit="10"/><path d="M108 177l73 10c2 0 5-3 5-5l-10-73c-1-4-5-7-9-4l-63 64c-5 4 3 11 7 7l64-64-9-3 10 73 5-5-74-10c-6-1-6 9 0 10zM93 79c2-2 7 5 9 7l8 8c1 1-14 15-16 16-1 1-14-14-16-15-1-1 14-15 16-17 3-3-2-8-5-5L78 84c-4 4-10 9-5 15l11 12c4 4 9 9 15 5l11-12c4-4 10-8 5-14-3-5-7-8-11-12s-9-10-15-5c-3 2 0 9 4 6z" fill="#fff"/><path d="M128 115c3-2 8 5 9 6l8 8c1 1-13 15-15 17-1 1-15-14-16-16-1-1 13-14 15-16 3-3-2-8-5-5l-11 11c-4 4-9 8-5 15l11 11c4 4 9 10 15 5l12-11c4-4 9-9 5-15l-12-11c-4-4-8-10-14-6-4 3 0 9 3 6z" fill="#fff"/></svg>