<svg xmlns="http://www.w3.org/2000/svg" width="361" height="361"><path d="M75 99c3 16 9 33 14 48l19 46a225 225 0 0 0 1 1l20 46c8 13 16 30 25 43 2 3 5 5 7 3l36-15c2-1 3-5 2-8l-17-40c-7-11-19-2-27-6-2-1-4-6-5-9l-12-26-1-2-11-26c-1-3-4-8-3-11 3-8 18-11 14-23l-18-40c-1-3-4-5-6-4L77 92c-3 1-3 4-2 7z" fill="none" stroke="#fff" stroke-width="10" stroke-miterlimit="10"/><path d="M206 113a64 64 0 0 1 0 89c-5 5 2 12 7 7a74 74 0 0 0 0-103c-5-5-12 2-7 7z" fill="#fff"/><path d="M226 95a91 91 0 0 1 0 128c-4 5 3 12 7 7a102 102 0 0 0 30-70c0-27-11-53-30-72-4-4-11 3-7 7z" fill="#fff"/><path d="M249 78a115 115 0 0 1 33 80 114 114 0 0 1-33 81c-5 4 2 11 7 7a125 125 0 0 0 36-87c0-33-13-65-36-88-5-4-12 3-7 7z" fill="#fff"/></svg>