<svg xmlns="http://www.w3.org/2000/svg" width="361" height="361"><path d="M281 237.7c-15.7-3.2-34.1-4.6-49.7-5.9-9.3-.7-42.3-.8-49.7-.8H180c-7.4 0-40.4.1-49.7.8-15.6 1.3-34 2.7-49.7 5.9-3.1.6-5.9 2.2-5.9 4.8v39.1c0 2.7 2.7 4.9 5.9 4.9h44c12.8-1.3 9.4-16.3 15.8-21.8 2.2-1.8 7.3-1.6 10.4-1.6h59.8c3.1 0 8.3-.2 10.5 1.6 6.4 5.5 3 20.5 15.8 21.8h44c3.2 0 5.8-2.2 5.8-4.9v-39c0-2.7-2.7-4.3-5.8-5z" fill="none" stroke="#fff" stroke-width="10" stroke-miterlimit="10"/><path d="M214.4 89.5l73.2-9.8-5-5-9.8 73.3 8.6-3.6L217.9 81c-4.6-4.6-11.6 2.5-7 7l63.4 63.5c3.4 3.4 8 .5 8.5-3.5l9.8-73.3c.3-2.4-2.5-5.3-5-5l-73.2 9.8c-6.3.8-6.4 10.8 0 10zm-70.5 103.6c-4.2 5.8.7 10.2 4.6 14l11.5 11.5c5.5 5.5 10.8-.1 14.7-4l11.5-11.5c5.5-5.4-.1-10.8-4-14.7l-11.5-11.5c-5.5-5.5-10.8.1-14.7 4l-11.5 11.5c-3.2 3.2 1.8 8.2 5 5l15.4-15.5c1-1 14.7 13.8 16.3 15.4 1 1-13.7 14.7-15.4 16.3-1 1-7.6-6.6-8.3-7.3-1.5-1.6-9.3-7.2-7.5-9.7 2.6-3.6-3.4-7.1-6-3.5zm-35.3-35.4c-4.2 5.9.7 10.2 4.6 14.1l11.4 11.5c5.5 5.4 10.9-.2 14.8-4l11.5-11.5c5.4-5.5-.2-10.9-4-14.8l-11.5-11.4c-5.5-5.5-10.9 0-14.8 4L109.1 157c-3.2 3.2 1.8 8.2 5 5l15.4-15.5c1-.9 14.7 13.8 16.4 15.4.9 1-13.8 14.7-15.4 16.4-1 1-7.6-6.7-8.3-7.4-1.6-1.5-9.3-7.2-7.6-9.6 2.7-3.7-3.4-7.2-6-3.5zM90 148.6c5.8 4.2 10.1-.7 14-4.6l11.5-11.5c5.5-5.5-.1-10.8-4-14.7L100 106.2c-5.5-5.5-10.9.1-14.8 4l-11.4 11.5c-5.5 5.5 0 10.9 4 14.7L89.3 148c3.2 3.2 8.1-1.7 5-5l-15.5-15.4c-1-1 13.7-14.7 15.4-16.3.9-1 14.6 13.7 16.3 15.4 1 1-6.7 7.6-7.3 8.3-1.6 1.5-7.3 9.3-9.7 7.5-3.7-2.6-7.1 3.5-3.5 6zm106 35.2c5.8 4.1 10.2-.7 14-4.6l11.5-11.5c5.5-5.5 0-10.9-4-14.7l-11.4-11.5c-5.5-5.5-11 .1-14.8 4L179.9 157c-5.5 5.5.1 10.8 4 14.7l11.5 11.5c3.2 3.2 8.2-1.7 5-5l-15.5-15.4c-1-1 13.8-14.7 15.4-16.3 1-1 14.7 13.7 16.4 15.4.9 1-6.7 7.6-7.4 8.3-1.6 1.5-7.2 9.3-9.6 7.5-3.7-2.6-7.2 3.4-3.6 6z" fill="#fff"/><path d="M231.6 148.2c5.8 4.2 10.2-.6 14-4.5l11.6-11.5c5.4-5.5-.2-10.9-4-14.7L241.6 106c-5.5-5.5-10.9.1-14.8 4l-11.5 11.5c-5.4 5.4.2 10.8 4 14.7l11.5 11.5c3.2 3.2 8.2-1.8 5-5l-15.5-15.4c-1-1 13.8-14.7 15.4-16.3 1-1 14.7 13.7 16.4 15.4.9 1-6.7 7.6-7.4 8.2-1.6 1.6-7.2 9.3-9.6 7.6-3.7-2.6-7.2 3.4-3.6 6z" fill="#fff"/></svg>