<svg xmlns="http://www.w3.org/2000/svg" width="361" height="361"><path d="M287.3 99.3c-3.3 15.7-9.3 33.1-14.4 47.9a1204 1204 0 0 1-19 45.9l-.4.7-.3.7c-3 6.8-16.2 37-20.5 45.2-7.4 13.8-16 30.2-25.2 43.3-1.9 2.6-4.4 4.5-6.8 3.4l-35.8-15.6c-2.5-1-3.4-4.3-2.2-7.3l17.6-40.3c6.2-11.2 18.7-2.2 26.2-5.8 2.6-1.3 4.5-6.1 5.7-9l11.5-26.4.9-2 11.4-26.4c1.3-2.9 3.5-7.5 2.7-10.2-2.5-8-17.6-11-13.7-23.2l17.6-40.4c1.3-3 4.3-4.5 6.8-3.4L285.2 92c2.5 1 2.8 4.1 2.1 7.3z" fill="none" stroke="#fff" stroke-width="10" stroke-miterlimit="10"/><path d="M125.6 218.5a38 38 0 0 0 0 52.9c3.1 3.2 8-1.7 5-5a30.8 30.8 0 0 1 0-43c3-3.2-1.9-8.2-5-5z" fill="#fff"/><path d="M107.3 209.8a51.4 51.4 0 0 0 0 71.9c3.1 3.2 8.1-1.7 5-5a44.3 44.3 0 0 1 0-61.9c3.1-3.2-1.8-8.2-5-5z" fill="#fff"/><path d="M88.4 201.5a63 63 0 0 0 0 88c3.1 3.2 8-1.8 5-5a55.8 55.8 0 0 1 0-78c3-3.3-1.9-8.3-5-5zm19-24.5l73.3 9.8c2.5.3 5.4-2.6 5-5l-9.7-73.3c-.6-4-5.2-6.9-8.6-3.5L104 168.5c-4.6 4.5 2.5 11.6 7 7l63.5-63.4-8.5-3.6 9.7 73.3 5-5-73.2-9.8c-6.4-.8-6.3 9.2 0 10zM92.9 78.8c2.4-1.7 7.4 5.3 9 6.8l8 8c1 1-13.8 14.8-15.4 16.4-1 1-14.7-13.7-16.4-15.4-.9-1 13.8-14.7 15.5-16.4 3.2-3.2-1.8-8.1-5-5l-10.8 11c-4 4-9.6 8.5-5.2 14.6 3 4.3 7.7 7.9 11.4 11.6 4 4 8.6 9.6 14.7 5.2 4.2-3.1 7.8-7.7 11.5-11.4 4-4 9.6-8.6 5.2-14.7-3-4.3-7.7-7.8-11.4-11.6-4-4-8.5-9.6-14.7-5.2-3.6 2.7 0 8.7 3.6 6z" fill="#fff"/><path d="M128.3 114.3c2.4-1.7 7.4 5.3 9 6.8l8 8.1c1 1-13.8 14.7-15.4 16.3-1 1-14.7-13.7-16.3-15.4-1-.9 13.7-14.7 15.4-16.3 3.2-3.2-1.8-8.2-5-5l-10.8 10.8c-4 4-9.6 8.6-5.2 14.7 3 4.3 7.7 7.9 11.4 11.6 4 4 8.6 9.6 14.7 5.2 4.3-3 7.8-7.7 11.5-11.4 4-4 9.6-8.6 5.2-14.7-3-4.3-7.7-7.8-11.4-11.5-4-4-8.5-9.7-14.6-5.2-3.7 2.6-.2 8.7 3.5 6z" fill="#fff"/></svg>