<svg xmlns="http://www.w3.org/2000/svg" width="361" height="361"><path d="M281 208c-16-4-34-5-50-6l-49-1h-2l-50 1c-15 1-34 2-49 6-3 0-6 2-6 4v40c0 2 2 4 6 4h44c12-1 9-16 15-21 3-2 8-2 11-2h60c3 0 8 0 10 2 7 5 3 20 16 21h44c3 1 6-2 6-4v-39c0-3-3-5-6-5z" fill="none" stroke="#fff" stroke-width="10" stroke-miterlimit="10"/><path d="M159 114a32 32 0 0 1-31 31 31 31 0 0 1-32-31 31 31 0 0 1 32-31 31 31 0 0 1 31 31c0 6 10 7 10 0a42 42 0 0 0-41-41 42 42 0 0 0-42 41 42 42 0 0 0 42 41c22 1 40-19 41-41 0-6-10-6-10 0zm107 0a32 32 0 0 1-31 31 31 31 0 0 1-31-31 31 31 0 0 1 31-31 31 31 0 0 1 31 31c0 6 10 7 10 0a42 42 0 0 0-41-41 42 42 0 0 0-41 41 42 42 0 0 0 41 41c23 1 41-19 41-41 0-6-10-6-10 0z" fill="#fff"/><path d="M128 155h107c6 0 6-10 0-10H128c-7 0-7 10 0 10z" fill="#fff"/></svg>