<svg xmlns="http://www.w3.org/2000/svg" width="361" height="361"><path d="M289.8 166.6a7.7 7.7 0 0 1-1.2 10.9L256.3 203a7.7 7.7 0 0 1-10.9-1.2L198.1 142a7.7 7.7 0 0 1 1.3-10.9l32.2-25.5a7.7 7.7 0 0 1 10.9 1.2l47.3 59.8z" fill="#fff" stroke="#fff" stroke-miterlimit="10"/><path d="M162.8 189.2l81.3 5.9c6.4.4 6.4-9.6 0-10l-81.3-5.9c-6.4-.4-6.4 9.6 0 10z" fill="#fff"/><path fill="#fff" d="M145.6 168l14 16-14.4 15.6z"/><path d="M142 171.5l14.1 16v-7L141.6 196l8.6 3.5.4-31.6c.1-6.5-9.9-6.4-10 0l-.4 31.6c-.1 4.3 5.5 6.8 8.5 3.6l14.5-15.6c2-2.1 1.8-5 0-7.1l-14-16c-4.3-4.9-11.3 2.2-7.1 7z" fill="#fff"/><ellipse transform="rotate(-31.1 262 130)" cx="261.9" cy="130.1" rx="17.7" ry="21.2" fill="none" stroke="#fff" stroke-width="10" stroke-miterlimit="10"/><path fill="#fff" stroke="#fff" stroke-miterlimit="10" d="M207.4 186.5l14.3-25.3 15 25.2z"/><path d="M132.4 176.7l-11 .6c-4.4.3-4.5 7.3 0 7l11-.6c4.5-.2 4.5-7.2 0-7zm-37.3 4.5l-11.8 5.5c-4.1 1.9-.5 7.9 3.5 6l11.8-5.4c4.1-2 .5-8-3.5-6zm-17.2 13.9l-6 6.9c-1.3 1.4-1.5 3.5 0 4.9 1.2 1.3 3.7 1.4 5 0l6-6.9a3.8 3.8 0 0 0 0-5c-1.4-1.2-3.8-1.4-5 0zm54.4-28.4h-18.7c-4.5 0-4.5 7 0 7h18.8c4.5 0 4.5-7 0-7zm-33.2 2.7l-12.5 5.5c-4.2 1.8-.6 7.8 3.5 6l12.5-5.5c4.1-1.8.6-7.8-3.5-6zm-21.2 10L71 185c-1.4 1.3-1.3 3.7 0 5 1.4 1.4 3.5 1.2 5 0l6.7-5.8c1.5-1.2 1.3-3.7 0-5-1.4-1.4-3.5-1.2-5 0zm54.5 8l-15.3 4.3c-4.3 1.2-2.5 8 2 6.7l15.2-4.2c4.3-1.2 2.5-8-1.9-6.8zm-25.7 11.4l-7.9 5c-3.8 2.4-.3 8.5 3.5 6l8-5c3.7-2.4.2-8.5-3.6-6zm-18.9 13.4l-5.5 6.5c-1.2 1.5-1.4 3.5 0 5 1.3 1.2 3.8 1.4 5 0l5.5-6.6c1.2-1.4 1.4-3.5 0-4.9-1.3-1.3-3.7-1.5-5 0zm-15.3 15l-1.7 3.7c-.8 1.7-.5 3.8 1.3 4.8 1.5.9 4 .5 4.8-1.3l1.7-3.7c.8-1.7.5-3.8-1.3-4.8-1.5-.9-4-.5-4.7 1.3zm60.1-28.2l-18.3 7.8c-4.2 1.7-.6 7.8 3.5 6l18.4-7.7c4-1.8.5-7.8-3.6-6zm-27 12.2l-7.6 7c-3.3 3 1.7 8 5 5l7.6-7c3.3-3.1-1.7-8-5-5zm-15 15l-5 7c-1.2 1.5-.3 3.9 1.2 4.8 1.8 1 3.7.2 4.8-1.3l5-7c1.1-1.6.3-3.9-1.3-4.8-1.7-1-3.6-.3-4.7 1.3zM79 241l-1.7 3.9c-.3.9-.6 1.7-.3 2.7a3.5 3.5 0 0 0 1.6 2c1.5 1 4 .6 4.8-1.2l1.7-3.9c.3-.9.6-1.7.3-2.7a3.5 3.5 0 0 0-1.6-2c-1.5-1-4-.6-4.8 1.2zm27.2-54l-8.7 3.5c-1.8.7-3 2.3-2.5 4.3.5 1.7 2.6 3.1 4.3 2.4l8.8-3.5c1.7-.7 3-2.3 2.4-4.3-.5-1.7-2.5-3.1-4.3-2.4zm-18 13.5l-6.6 5.4c-1.5 1.2-1.3 3.7 0 5 1.4 1.4 3.4 1.1 5 0l6.5-5.5c1.5-1.2 1.3-3.7 0-4.9-1.4-1.4-3.4-1.2-5 0zm-14.8 13.7l-2.4 3.4c-1.1 1.5-.3 3.9 1.3 4.7 1.7 1 3.6.3 4.8-1.2l2.4-3.4c1-1.5.2-3.9-1.3-4.8-1.7-1-3.7-.3-4.8 1.3zm38.7-38.3l-7.8 1.6c-2 .4-3 2.6-2.5 4.3.5 2 2.5 2.9 4.3 2.5l7.8-1.7c1.9-.4 3-2.5 2.5-4.3-.5-1.9-2.5-2.8-4.3-2.4z" fill="#fff"/></svg>