<svg xmlns="http://www.w3.org/2000/svg" width="361" height="361"><path d="M199 246c0-1 1 0 0 0h-15l1 1v-26l-1 2h15c-1 0-1-3-1-1v25c0 4 7 4 7 0v-27c-2-6-9-4-14-4s-11-2-13 4c-2 4 0 10 0 14v13c0 7 8 6 13 6s12 1 14-5c2-4-5-6-7-2zm28-1s2 0 0 0h-14v1-35 1h15-1v34c0 5 7 5 7 0v-34c0-7-6-7-11-7-6 0-15-2-17 5v35c0 6 5 7 10 7 6 0 16 3 18-5 1-4-6-6-7-2zm29 0s1 0 0 0h-15 1v-45h14c1 0 0 0 0 0v46c0 5 7 5 7 0v-37c0-4 1-11-2-14-2-2-5-2-8-2h-11c-6 0-7 5-7 10v41c0 7 4 8 9 8 6 0 17 3 18-5 1-5-5-6-6-2z" fill="#fff"/><path d="M284 245s2 0 0 0h-14v1-61c1 1-1 1 1 1h14-1v60c0 4 7 4 7 0v-55c0-4 1-11-4-12h-17c-6 0-6 6-6 10v43c0 6-2 16 3 20 3 2 10 0 13 0 5 0 10 1 11-5 1-5-6-6-7-2zm-85 46l-1-7h-10l-1 7h-8a284 284 0 0 1 5-17 1214 1214 0 0 1 5-14h8a392 392 0 0 1 5 14 297 297 0 0 1 5 17h-8zm-6-25a204 204 0 0 0-1 3l-1 4a80 80 0 0 0-1 3v3h6v-3a56 56 0 0 0-1-3 132 132 0 0 0-1-3l-1-4zm28 26a17 17 0 0 1-5-1 9 9 0 0 1-4-3 9 9 0 0 1-2-3 19 19 0 0 1 0-5v-20h7v25l2 1a8 8 0 0 0 5 0 3 3 0 0 0 1-1l1-2v-23h7v25a9 9 0 0 1-2 3 9 9 0 0 1-4 3 18 18 0 0 1-6 1zm41-32v5h-9v26h-7v-26h-9v-5h26zm4 16c0-6 1-10 3-12 2-3 5-4 9-4s7 1 10 4c2 2 3 6 3 12s-1 9-4 12c-2 2-5 4-9 4s-7-2-9-4a19 19 0 0 1-4-12zm7 0v7l2 2 3 1a5 5 0 0 0 3-1 5 5 0 0 0 2-2v-3a41 41 0 0 0 0-9v-3a6 6 0 0 0-2-2l-3-1-3 1-2 2v3a41 41 0 0 0-1 5zM131 75v45c0 7 10 7 10 0V75c0-6-10-6-10 0z" fill="#fff"/><path d="M120 84l13 8c6 3 11-6 5-9l-13-8c-6-3-11 6-5 9z" fill="#fff"/><path d="M146 75l-13 8c-6 3-1 12 5 8l13-7c6-3 1-12-5-9zm-52 26l39 23c5 3 11-5 5-9L99 93c-6-3-11 5-5 8z" fill="#fff"/><path d="M96 115l13-7c6-4 1-12-5-9l-13 8c-5 3 0 11 5 8z" fill="#fff"/><path d="M102 88v15c0 7 10 7 10 0V88c0-6-10-6-10 0z" fill="#fff"/><g fill="#fff"><path d="M99 147l39-23c6-3 1-12-5-9l-39 23c-6 3-1 12 5 9z"/><path d="M112 152v-16c0-6-10-6-10 0v15c0 7 10 7 10 1z"/><path d="M91 133l13 8c6 3 11-6 5-9l-13-8c-5-3-10 6-5 9z"/></g><g fill="#fff"><path d="M141 165v-45c0-6-10-6-10 0v45c0 7 10 7 10 0z"/><path d="M151 156l-13-7c-6-4-11 5-5 8l13 8c6 3 11-5 5-9z"/><path d="M125 165l13-8c6-3 1-12-5-8l-13 7c-6 4-1 12 5 9z"/></g><g fill="#fff"><path d="M177 138l-39-22c-5-3-10 5-5 8l39 23c6 3 11-5 5-9z"/><path d="M175 125l-13 7c-6 4-1 12 5 9l13-8c6-3 1-11-5-8z"/><path d="M169 152v-16c0-6-10-6-10 1v15c0 6 10 6 10 0z"/></g><g fill="#fff"><path d="M172 93l-39 23c-6 3-1 12 5 8l39-22c6-3 1-12-5-9z"/><path d="M159 88v16c0 6 10 6 10 0V88c0-6-10-6-10 0z"/><path d="M180 107l-13-8c-6-3-11 6-5 9l13 7c5 4 10-5 5-8z"/></g><g fill="#fff"><path d="M72 187l15-4c7-2 13 0 20 3 9 3 19 9 29 9 6 0 12-3 18-5l9-4a38 38 0 0 1 20-4l17 4c1 1 2-2 0-2a162 162 0 0 0-15-4c-7-2-12 0-18 2-10 3-21 10-31 10-7 0-14-3-19-6l-11-4a35 35 0 0 0-19-2 129 129 0 0 0-16 4c-2 0-1 3 1 2z"/><path d="M78 194a36 36 0 0 1 17-3c5 0 11 3 16 5 8 3 16 7 25 8 8 0 16-5 24-8a89 89 0 0 1 16-5c6-1 12 1 17 3 2 0 3-3 1-3l-15-4c-6 0-12 3-18 5-8 3-17 8-26 8-5 1-12-2-17-4l-8-4-17-5a40 40 0 0 0-16 4c-2 0-1 3 1 3zm0-17a36 36 0 0 1 17-3l16 5c8 3 16 7 25 8 8 0 16-5 24-8a89 89 0 0 1 16-5 36 36 0 0 1 17 3c2 0 3-3 1-3l-15-4c-6 0-12 3-17 5-9 3-17 8-26 9-6 0-12-3-18-5l-8-4c-6-2-11-4-17-4a40 40 0 0 0-16 3c-2 0-1 3 1 3z"/></g></svg>