<svg xmlns="http://www.w3.org/2000/svg" width="361" height="361"><path d="M99 290c0-19-1-50-27-51-2 0-2 3 0 3 24 1 24 31 24 48 0 2 3 2 3 0z" fill="#fff"/><path d="M105 290c0-22-6-50-33-51-2 0-2 3 0 3 25 1 30 28 30 48 0 2 3 2 3 0z" fill="#fff"/><path d="M85 290c0-10 0-20-3-29-1-5-4-7-8-11-1-1-3 1-2 3 3 3 6 5 7 9 3 9 3 19 3 28 0 2 3 2 3 0z" fill="#fff"/><path d="M91 290c0-10 0-21-5-29-2-5-8-8-12-11-2-1-3 2-1 3 4 3 8 5 11 9 4 8 4 19 4 28 0 2 3 2 3 0zm22 0c0-8-1-19 4-26 2-2 4-2 4-5 1-2-2-2-2 0l-5 5c-4 7-4 18-4 26 0 2 3 2 3 0z" fill="#fff"/><path d="M107 290c1-7 1-16 5-22l9-8c1-1-1-3-2-2l-9 8c-2 2-2 4-3 7l-3 17c0 2 3 2 3 0zm31 0c0-8 0-16 3-23 1-4 4-6 7-9 1-1-1-3-3-2l-7 9c-3 7-3 17-3 25 0 2 3 2 3 0z" fill="#fff"/><path d="M132 290c0-8 0-16 4-23 3-4 8-6 11-8 2-1 1-4-1-3-4 3-9 5-12 9-5 6-5 17-5 25 0 2 3 2 3 0zm16 0c0-7 0-16 5-22 1-1 4-2 4-4s-3-2-3 0l-5 4c-4 6-4 15-4 22 0 2 3 2 3 0z" fill="#fff"/><path d="M142 290c1-5 2-14 6-18 2-3 6-5 9-7 1-1-1-3-3-2l-9 7c-4 5-4 14-5 20-1 2 2 2 3 0zm-14 0c0-5 0-11-3-15a8 8 0 0 0-2-3h-1c0-2-3-2-3 0l3 3c4 3 3 11 3 15 0 2 3 2 3 0z" fill="#fff"/><path d="M132 290c-1-5-1-10-4-14l-7-6c-1-1-3 1-2 3 2 1 5 2 6 4l2 4 2 9c1 2 3 2 3 0zm39 0c0-7 0-16 4-23l9-8c1-1-1-3-2-2l-10 8c-4 7-4 17-4 25 0 2 3 2 3 0z" fill="#fff"/><path d="M165 290c0-8 0-17 6-23 3-4 8-5 13-7 1-1 0-4-2-3-5 3-10 4-14 8-6 7-6 17-6 25 0 2 3 2 3 0zm14 0c0-5-1-12 3-16 1-1 2-1 2-3 1-2-2-2-3 0l-3 3c-2 4-2 11-2 16 0 2 3 2 3 0z" fill="#fff"/><path d="M175 290c0-4 1-10 3-13l6-5c1-1-1-3-2-2l-6 5c-3 4-3 10-4 14-1 2 2 3 3 1zm-16 0c0-6 1-17-5-21-1-1-3 2-1 3l1 2c2 5 2 11 2 16 0 2 3 2 3 0z" fill="#fff"/><path d="M165 290c-1-5-1-11-4-15l-6-5c-2-2-4 0-3 2l6 4 2 4 2 10c0 2 3 1 3 0zm44 0c0-14 1-33 19-34 2 0 2-3 0-3-20 1-22 21-22 37 0 2 3 2 3 0z" fill="#fff"/><path d="M204 290c0-16 6-34 24-34 2 0 2-3 0-3-20 1-27 19-27 37 0 2 3 2 3 0z" fill="#fff"/><path d="M221 290c0-7-1-14 1-20 1-3 4-5 6-7 1-1-1-3-2-2-3 2-5 4-6 8-3 6-2 14-2 21 0 2 3 2 3 0z" fill="#fff"/><path d="M216 290c0-7-1-14 3-20 2-3 6-5 9-6 1-1 0-4-2-3-4 2-7 4-10 8-4 5-3 14-3 21 0 2 3 2 3 0zm-20 0c0-8 0-18-4-26a12 12 0 0 0-3-3l-1-2c0-2-3-2-3 0 0 3 2 3 4 5 5 6 4 18 4 26 0 2 3 2 3 0z" fill="#fff"/><path d="M202 290c-1-8-1-17-5-23l-10-9c-1-1-3 1-2 2l9 8 2 6c2 5 2 11 3 16 1 2 3 1 3 0zm41 0c0-8 0-17-2-25-2-4-5-6-8-9-2-1-4 1-2 2l7 8c3 7 2 16 2 24 0 2 3 2 3 0z" fill="#fff"/><path d="M249 290c0-8 0-18-4-25-3-4-8-6-12-9-2-1-4 2-2 3l11 7c5 7 4 16 4 24 0 2 3 2 3 0zm7 0c0-7 0-17 5-22 1-1 4-2 4-4s-3-2-3 0l-5 4c-4 6-4 15-4 22 0 2 3 2 3 0z" fill="#fff"/><path d="M250 290c1-5 2-14 6-18 2-3 6-5 9-7 1-1-1-4-3-2l-9 7c-4 5-4 13-5 19-1 2 2 3 2 1zm-14 0c0-5 0-11-3-15a8 8 0 0 0-2-3h-1c0-2-3-2-3 0l3 3c3 3 3 11 3 15 0 2 3 2 3 0z" fill="#fff"/><path d="M240 290c-1-5-1-11-4-14l-7-6c-1-1-3 1-2 3 2 1 5 2 6 4l2 4 2 9c0 2 3 1 3 0zm39 0c0-8 0-16 4-23l9-8c1-1-1-3-2-2l-10 8c-4 7-4 17-4 25 0 2 3 2 3 0z" fill="#fff"/><path d="M273 290c0-8 0-17 6-23 3-4 8-5 12-7 2-1 1-4-1-3-5 3-10 4-14 8-6 7-6 17-6 25 0 2 3 2 3 0zm14 0c0-5-1-12 2-16 2-1 3-1 3-3s-3-2-3 0l-3 3c-3 4-2 11-2 16 0 2 3 2 3 0z" fill="#fff"/><path d="M283 290c0-4 1-10 3-13l6-5c1-1-1-3-2-2l-7 5c-2 4-2 10-3 14-1 2 2 3 3 1zm-16 0c0-6 1-17-5-21-1-1-3 2-1 3l1 2c2 5 2 11 2 16 0 2 3 2 3 0z" fill="#fff"/><path d="M273 289c-1-4-1-10-4-14l-6-5c-2-2-4 0-2 2l5 4 2 4 2 10c0 2 3 1 3-1zm-84-67a2 2 0 0 1-2 2h-10a2 2 0 0 1-3-2v-8c0-2 1-2 3-2h10l2 2v8zm6-88l8-11c1-1 0-4-2-4-2-1-3-1-5 1l-7 10c-1 2-1 4 1 5s4 1 5-1zm27-8l7-6c2-1 2-3 1-4-1-2-3-3-4-2l-8 6c-1 1-2 3-1 4 1 2 3 3 5 2zm-28 38l9-20c2-4-4-8-6-3l-9 19c-2 4 4 8 6 4zm-10-5l6-16c1-4-6-6-7-2l-6 16c-1 4 5 6 7 2zm54-43l8-2c4-2 2-8-2-7l-8 2c-4 2-2 8 2 7zm-85 56l-12-10c-3-3-8 2-5 5l12 10c4 3 8-2 5-5zm-22-16l-7-3c-2-1-4 1-4 3-1 2 0 3 2 4l8 3 4-3c1-2-1-4-2-4zm-19-4h-8a4 4 0 0 0-3 3c0 2 1 3 3 4h7c3 0 4-2 4-4s-2-3-3-3zm-18 0l-3 1c-2 0-3 2-3 4a4 4 0 0 0 5 3l3-1c2-1 3-3 3-5a4 4 0 0 0-5-2zm53 27l-17-7c-4-2-6 5-2 7l17 6c4 2 6-5 2-6zm-28-10h-9c-4 0-4 7 0 7h9c5 0 5-7 0-7zm-21 2l-6 2c-1 1-2 3-1 5s3 2 5 1l6-2c2-1 2-4 1-5-1-2-3-2-5-1zm110-34l6-5c2-2 1-4 0-5-1-2-3-2-5 0l-6 5v5h5zm47-24h3c2 0 4-2 4-4s-2-3-3-3h-4a4 4 0 0 0-4 3c0 2 2 4 4 4zm14 1h2c2 1 4 0 4-2 1-2 0-4-2-4l-2-1a4 4 0 0 0-5 3l3 4zm-60 3l6-5c1-1 2-3 1-5-1-1-3-2-5-1l-6 5c-2 1-2 3-1 5 1 1 3 2 5 1zm15-9l3-1c2-1 3-3 3-5-1-2-3-3-5-2l-3 1c-2 1-3 2-3 4l4 3zm14-4l2-1c2 0 3-2 2-4a4 4 0 0 0-1-2 4 4 0 0 0-3-1l-2 1c-2 0-3 2-2 4a4 4 0 0 0 1 2l3 1z" fill="#fff"/><path d="M166 229h-1v-46l3 1v-1 46h-3c-4 0-4 7 0 7 6 0 10-2 10-8v-39c0-5 1-11-6-12-6-1-11 1-11 7v40c0 5 0 11 6 12 5 0 6-6 2-7zm97-48c-4 13 9 17 18 23 2 1 1 2 2 0l-4 1-18 2-16 4-6 6-8 2c-6 0-13-3-19-4a79 79 0 0 0-26-1c-6 0-6 10 0 10a76 76 0 0 1 26 1c7 2 14 4 21 4a26 26 0 0 0 17-9c3-3 11-3 15-3 8-1 27 0 27-12 0-6-5-9-10-12-3-2-11-4-9-9 1-6-8-9-10-3z" fill="#fff"/><path d="M154 185l6 4c1 1 3 0 4-2 1-1 1-3-1-4l-5-4c-2-1-4 0-5 1-1 2 0 4 1 5zm21 0l5-8c2-4-4-7-6-4l-5 9c-3 3 3 7 6 3zm-30 53h44c7 0 7-10 0-10h-44c-6 0-6 10 0 10zm134-120l2 1c2 0 4-1 4-3 1-1 0-3-2-4h-2a4 4 0 0 0-4 2c-1 2 0 4 2 4zm-28-15l2-1 2-1a4 4 0 0 0 0-5l-2-1-2 1-3 1a4 4 0 0 0 0 5l3 1zm13 0h2l2-1a4 4 0 0 0 0-5l-2-1h-2l-3 1a4 4 0 0 0 0 5l3 1zM80 157l-3 2a4 4 0 0 0-1 4 4 4 0 0 0 5 2l3-2c1-1 2-3 1-5a4 4 0 0 0-5-1zm3 21l-4 3c-1 1-2 3-1 4 1 2 3 3 5 2l4-3c1-1 2-3 1-5s-3-2-5-1zm-11 12l-2 4c-1 2-1 4 1 5s4 1 5-1l2-4c1-2 0-4-1-5-2-1-4 0-5 1z" fill="#fff"/></svg>