<svg xmlns="http://www.w3.org/2000/svg" width="361" height="361"><path d="M268.6 216c0 1.8-1.6 3.3-3.6 3.3h-13.4c-2 0-3.6-1.5-3.6-3.4v-93.4c0-1.8 1.6-3.4 3.6-3.4H265c2 0 3.6 1.6 3.6 3.4V216z" fill="none" stroke="#fff" stroke-width="10" stroke-miterlimit="10"/><path d="M274.1 244c0 2-1.3 3.7-2.8 3.7h-26c-1.5 0-2.8-1.7-2.8-3.7v-21c0-2 1.3-3.7 2.9-3.7h25.9c1.5 0 2.8 1.6 2.8 3.6V244z" fill="#fff" stroke="#fff" stroke-width="10" stroke-miterlimit="10"/><path d="M276.6 131.4h10.9c6.5 0 6.5-10 0-10h-11c-6.4 0-6.4 10 0 10zm0 24.4h10.9c6.5 0 6.5-10 0-10h-11c-6.4 0-6.4 10 0 10zm0 25h10.9c6.5 0 6.5-10 0-10h-11c-6.4 0-6.4 10 0 10zm0 26h10.9c6.5 0 6.5-10 0-10h-11c-6.4 0-6.4 10 0 10z" fill="#fff"/><path fill="#fff" stroke="#fff" stroke-width="10" stroke-miterlimit="10" d="M248 185.9h20.6v43H248z"/><path d="M166.3 203.8c.7.2.4-4.7.4-5.7V76.5c0-.7-2 .1-.8.1h6c2.5 0 .5-1 .5.5v127c0-.3 2-.4.8-.4h-7.8c-4.5 0-4.5 7 0 7 5.5 0 14 1.4 14-6.7V78.5c0-3.8-.8-8.9-5.7-8.9-5.5 0-14-1.3-14 6.7v113.4c0 5.6-2.3 18.8 4.8 20.9 4.3 1.2 6.2-5.5 1.8-6.8zm-75.4.3c.7.2.4-4.7.4-5.7V77c0-.8-2 0-.8 0h6c2.5 0 .5-1 .5.5v127c0-.3 2-.4.8-.4H90c-4.5 0-4.5 7 0 7 5.5 0 14 1.4 14-6.7V78.8c0-3.8-.8-8.9-5.7-8.9-5.5 0-14-1.3-14 6.7v113.5c0 5.5-2.4 18.8 4.8 20.8 4.3 1.2 6.2-5.5 1.8-6.8zm38 0c.7.2.4-4.7.4-5.7V77c0-.8-2 0-.7 0h5.9c2.5 0 .5-1 .5.5v127c0-.3 2-.4.8-.4H128c-4.5 0-4.5 7 0 7 5.5 0 14 1.4 14-6.7V78.8c0-3.8-.8-8.9-5.7-8.9-5.5 0-14-1.3-14 6.7v113.5c0 5.5-2.3 18.8 4.8 20.8 4.3 1.2 6.2-5.5 1.9-6.8z" fill="#fff"/><path d="M86.8 192.8c0 1.2-.1 2.2-.3 2.2H75.1c-.1 0-.3-1-.3-2.2v-8.3c0-1.2.2-2.2.3-2.2h11.4c.2 0 .3 1 .3 2.2v8.3z" fill="#fff"/><path d="M83.3 192.8c-.1 1 0 1.1.2.4l3-1.7H75.1l3 1.7c.6 1 .3-.8.3-1.3v-7.2c0-.6.3-1.5-.2-.6l-3 1.7h11.4l-3-1.7c-.7-1-.3.5-.3 1v7.7c0 4.5 7 4.5 7 0 0-4 1.7-14-4.2-14h-11c-3.2 0-3.7 3.2-3.7 5.7v7c0 3.2.1 7 4.2 7h11c3.2 0 3.7-3.2 3.7-5.7.1-4.5-6.9-4.5-7 0zm42-.2c0 1.2-.3 2.2-.6 2.2h-23.1c-.3 0-.6-1-.6-2.2v-8.3c0-1.2.3-2.2.6-2.2h23c.3 0 .6 1 .6 2.2v8.3z" fill="#fff"/><path d="M121.7 192.6v.4l3-1.7h-23.1l3 1.7a20 20 0 0 1 0-9.2l-3 1.8h23l-3-1.8c1.1 1.8.1 6.7.1 8.8 0 4.5 7 4.5 7 0 0-3 1-8.9-.6-11.6-2-3.2-5.4-2.4-8.6-2.4h-14.3c-4.5 0-7.1.4-7.7 5.7-.3 2.8-.9 9.1.7 11.6 2 3.1 5.3 2.4 8.5 2.4H121c4.5 0 7.1-.4 7.7-5.7.5-4.5-6.5-4.5-7 0zm41.4 0c0 1.3-.2 2.3-.5 2.3h-23c-.4 0-.6-1-.6-2.2v-8.3c0-1.2.2-2.2.5-2.2h23c.4 0 .6 1 .6 2.2v8.3z" fill="#fff"/><path d="M159.6 192.7v.4l3-1.7h-23l3 1.7c-.8-1.1-.8-8 0-9.1l-3 1.7h23l-3-1.8c1 1.8 0 6.7 0 8.8 0 4.5 7 4.5 7 0 0-3 1.1-8.9-.6-11.6-2-3.2-5.3-2.4-8.6-2.4h-14.3c-4.5 0-7 .4-7.6 5.7-.3 2.8-1 9.1.6 11.6 2 3.2 5.3 2.4 8.6 2.4H159c4.5 0 7-.4 7.6-5.7.5-4.5-6.5-4.4-7 0zm16.1-8.7c0-1.3.1-2.2.3-2.2h10.6c.1 0 .3 1 .3 2.2v8.3c0 1.2-.2 2.2-.3 2.2H176c-.1 0-.3-1-.3-2.2V184z" fill="#fff"/><path d="M179.2 184c.2-1 .1-1.2-.2-.5l-3 1.8h10.6l-3-1.8c-.6-1-.2.9-.2 1.3v6.3c0 .5-.3 2.4.2 1.6l3-1.7H176l3 1.7c.6 1 .2-.6.2-1V184c0-4.5-7-4.5-7 0 0 3.7-1.6 14 4 14h10.4c3.2 0 3.7-3.3 3.8-5.7v-7.1c0-3 0-7-4-7H176c-3.2 0-3.7 3.3-3.8 5.8 0 4.5 7 4.5 7 0zM86.8 96.9c0 1.2-.1 2.2-.3 2.2H75.1c-.1 0-.3-1-.3-2.2v-8.3c0-1.2.2-2.2.3-2.2h11.4c.2 0 .3 1 .3 2.2v8.3z" fill="#fff"/><path d="M83.3 96.9c-.1 1 0 1.1.2.4l3-1.7H75.1l3 1.7c.6 1 .3-.8.3-1.3v-7.2c0-.6.3-1.5-.2-.6l-3 1.7h11.4l-3-1.7c-.7-1-.3.5-.3 1v7.7c0 4.5 7 4.5 7 0 0-4 1.7-14-4.2-14h-11c-3.2 0-3.7 3.2-3.7 5.7v7.1c0 3.1.1 6.9 4.2 6.9h11c3.2 0 3.7-3.2 3.7-5.7.1-4.5-6.9-4.5-7 0z" fill="#fff"/><g fill="#fff"><path d="M125.2 96.7c0 1.2-.2 2.2-.5 2.2h-23.1c-.3 0-.6-1-.6-2.2v-8.3c0-1.2.3-2.2.6-2.2h23c.3 0 .6 1 .6 2.2v8.3z"/><path d="M121.7 96.7v.4l3-1.7h-23.1l3 1.7a20 20 0 0 1 0-9.1l-3 1.7h23l-3-1.7c1.1 1.7.1 6.6.1 8.7 0 4.5 7 4.5 7 0 0-3 1-8.9-.6-11.6-2-3.2-5.4-2.4-8.6-2.4h-14.3c-4.5 0-7.1.4-7.7 5.7-.3 2.8-.9 9.1.7 11.6 2 3.2 5.3 2.4 8.5 2.4H121c4.5 0 7.1-.4 7.7-5.7.5-4.5-6.5-4.5-7 0z"/></g><g fill="#fff"><path d="M163.1 96.8c0 1.2-.2 2.2-.5 2.2h-23c-.4 0-.6-1-.6-2.2v-8.3c0-1.2.2-2.2.5-2.2h23c.4 0 .6 1 .6 2.2v8.3z"/><path d="M159.6 96.8v.4l3-1.7h-23l3 1.7c-.8-1.1-.8-8 0-9.1l-3 1.7h23l-3-1.7c1 1.7 0 6.6 0 8.7 0 4.5 7 4.5 7 0 0-3 1.1-8.9-.6-11.6-2-3.2-5.3-2.4-8.6-2.4h-14.3c-4.5 0-7 .4-7.6 5.7-.3 2.8-1 9.1.6 11.6 2 3.2 5.3 2.4 8.6 2.4H159c4.5 0 7-.4 7.6-5.7.5-4.5-6.5-4.4-7 0z"/></g><path d="M205.4 96.7c-.1 1 0 1.1.2.5l3-1.8h-11.4l3 1.7c.6 1 .2-.8.2-1.2v-7.3c0-.6.4-1.5-.2-.6l-3 1.7h11.4l-3-1.7c-.6-1-.2.5-.2 1v7.7c0 4.5 7 4.5 7 0 0-4 1.7-14-4.2-14h-11c-3.2 0-3.7 3.3-3.8 5.7v7.1c0 3.1.2 7 4.3 7h11c3.2 0 3.6-3.3 3.7-5.8.1-4.5-6.9-4.5-7 0z" fill="#fff"/><g fill="#fff"><path d="M175.9 88.4c0-1.2.1-2.2.3-2.2h10.6c.1 0 .2 1 .2 2.2v8.3c0 1.3-.1 2.2-.2 2.2h-10.6c-.2 0-.3-1-.3-2.2v-8.3z"/><path d="M179.4 88.4c.1-1 0-1-.2-.4l-3 1.7h10.6l-3-1.7c-.6-1-.3.8-.3 1.3v6.2c0 .6-.3 2.5.2 1.7l3-1.8h-10.5l3 1.8c.6 1 .2-.6.2-1v-7.8c0-4.5-7-4.5-7 0 0 3.8-1.7 14 4 14h10.4c3.2 0 3.7-3.2 3.7-5.7v-7c0-3 0-7-4-7h-10.4c-3.2 0-3.7 3.3-3.7 5.7-.1 4.6 6.9 4.5 7 0z"/></g></svg>