<svg xmlns="http://www.w3.org/2000/svg" width="361" height="361"><path d="M108.6 193h143.3c6.4 0 6.4-10 0-10H108.6c-6.5 0-6.5 10 0 10z" fill="#fff"/><path d="M273.7 203a20.6 20.6 0 0 0-20.5-19.9c-6.5-.2-6.5 9.8 0 10 5.6.1 10.4 4 10.5 9.8.2 6.5 10.2 6.5 10 0zm-165.1 21.5h143.3c6.4 0 6.4-10 0-10H108.6c-6.5 0-6.5 10 0 10z" fill="#fff"/><path d="M263.7 204.6c-.1 5.8-5 9.7-10.5 9.8-6.5.2-6.5 10.2 0 10a20.6 20.6 0 0 0 20.5-19.9c.2-6.4-9.8-6.4-10 0zm-10.6 40.3H109.8c-6.4 0-6.4 10 0 10h143.3c6.5 0 6.5-10 0-10z" fill="#fff"/><path d="M88 235a20.6 20.6 0 0 0 20.5 19.9c6.5.1 6.5-9.9 0-10-5.6-.2-10.4-4.1-10.5-9.9-.2-6.4-10.2-6.5-10 0z" fill="#fff"/><path d="M98 234.3c.1-5.8 5-9.7 10.5-9.8 6.5-.2 6.5-10.2 0-10A20.6 20.6 0 0 0 88 234.3c-.2 6.5 9.8 6.4 10 0z" fill="#fff"/><path d="M286.9 267c0 3.5-2.8 6.4-6.1 6.4H81.4c-3.4 0-6-2.9-6-6.5v-98.8c0-3.5 2.6-6.4 6-6.4h199.4c3.3 0 6 2.9 6 6.4V267zM125.4 123.4c1.2 0 2 .3 2 .7V135c0 .3-.8.6-2 .6H86.1c-1 0-2-.3-2-.6v-11c0-.3 1-.6 2-.6h39.3z" fill="none" stroke="#fff" stroke-width="10" stroke-miterlimit="10"/><path d="M79.9 125.8l30.5-40h-8.7l30.5 40 4.4-7.5h-61c-6.5 0-6.5 10 0 10h61c3.4 0 6.7-4.4 4.3-7.6l-30.5-39.9c-2.5-3.2-6.2-3.2-8.7 0l-30.5 40c-3.9 5 4.8 10 8.7 5z" fill="#fff"/><path d="M200.4 123.5c1.2 0 2 .3 2 .7V135c0 .3-.8.6-2 .6h-39.3c-1 0-2-.3-2-.6v-11c0-.3 1-.6 2-.6h39.4z" fill="none" stroke="#fff" stroke-width="10" stroke-miterlimit="10"/><path d="M154.9 125.8l30.5-40h-8.7l30.5 40 4.4-7.5h-61c-6.5 0-6.5 10 0 10h61c3.4 0 6.7-4.4 4.3-7.6l-30.5-39.9c-2.5-3.2-6.2-3.2-8.7 0l-30.5 40c-3.9 5 4.8 10 8.7 5z" fill="#fff"/><path d="M275.4 123.5c1.2 0 2 .3 2 .7V135c0 .3-.8.6-2 .6h-39.3c-1 0-2-.3-2-.6v-11c0-.3 1-.6 2-.6h39.4z" fill="none" stroke="#fff" stroke-width="10" stroke-miterlimit="10"/><path d="M229.9 125.8l30.5-40h-8.7l30.5 40 4.4-7.5h-61c-6.5 0-6.5 10 0 10h61c3.4 0 6.7-4.4 4.3-7.6l-30.5-39.9c-2.5-3.2-6.2-3.2-8.7 0l-30.5 40c-3.9 5 4.8 10 8.7 5z" fill="#fff"/></svg>