<svg xmlns="http://www.w3.org/2000/svg" width="361" height="361"><path d="M241 229v-53c0-3 3-2 5-2 1 0 5 0 5 2v53c0 4 7 4 7 0v-53c0-6-5-9-11-9s-13 1-13 9v53c0 4 7 4 7 0z" fill="#fff"/><path d="M226 259v-70c0-3 5-1 8-1 2 0 0 0 0-2v56c0 5 7 5 7 0v-54c0-7-4-7-10-7-3 0-7-1-9 1-4 3-3 10-3 15v62c0 4 7 4 7 0zm32-20v-56l-1 1h3c5 0 6 1 6 5v50c0 4 7 4 7 0v-36c0-10 3-26-12-26-5 0-10 1-10 7v55c0 4 7 4 7 0z" fill="#fff"/><path d="M273 245v-46s-2 1 0 1h3c3 0 2 5 2 8v80c1 5 8 5 8 0v-83c0-3-1-7-3-9-3-3-6-3-10-3-6 0-7 5-7 10v42c0 5 7 5 7 0zm-60 43l-12-52c-1-4-2-5 2-7 1 0 5-2 6 0l1 5 9 26c1 4 8 2 6-2l-9-29c-2-6-6-8-12-7s-13 5-11 12l13 56c1 4 8 3 7-2z" fill="#fff"/><g fill="#fff"><path d="M131 75v45c0 7 10 7 10 0V75c0-6-10-6-10 0z"/><path d="M120 84l13 8c6 3 11-6 5-9l-13-8c-6-3-11 6-5 9z"/><path d="M146 75l-13 8c-6 3-1 12 5 8l13-7c6-3 1-12-5-9zm-52 26l39 23c6 3 11-5 5-9L99 93c-6-3-11 5-5 8z"/><path d="M96 115l13-7c6-4 1-12-5-9l-13 8c-5 3 0 11 5 8z"/><path d="M102 88v15c0 7 10 7 10 0V88c0-6-10-6-10 0zm-3 59l39-23c6-3 1-12-5-9l-39 23c-6 3-1 12 5 9z"/><path d="M112 152v-16c0-6-10-6-10 0v15c0 7 10 7 10 1z"/><path d="M91 133l13 8c6 3 11-6 6-9l-14-8c-5-3-10 6-5 9zm50 32v-45c0-6-10-6-10 0v45c0 7 10 7 10 0z"/><path d="M151 156l-13-7c-6-4-11 5-5 8l13 8c6 3 11-5 5-9z"/><path d="M125 165l13-8c6-3 1-12-5-8l-13 7c-6 4-1 12 5 9zm52-27l-39-22c-5-3-10 5-5 8l39 23c6 3 11-5 5-9z"/><path d="M175 125l-13 7c-6 4-1 12 5 9l13-8c6-3 1-11-5-8z"/><path d="M169 152v-16c0-6-10-6-10 1v15c0 6 10 6 10 0zm3-59l-39 23c-6 3-1 12 5 8l39-22c6-3 1-12-5-9z"/><path d="M159 88v16c0 6 10 6 10 0V88c0-6-10-6-10 0z"/><path d="M180 107l-13-8c-6-3-11 6-5 9l13 7c5 4 10-5 5-8z"/></g><g fill="#fff"><path d="M72 187l15-4c7-2 13 0 20 3 9 3 19 9 29 9 6 0 12-3 18-5l9-4a38 38 0 0 1 20-4l17 4c2 1 2-2 1-2a162 162 0 0 0-16-4c-7-2-12 0-18 2-10 3-21 10-31 10-6 0-13-3-19-6l-11-4a35 35 0 0 0-19-2 118 118 0 0 0-16 4c-2 0-1 3 1 2z"/><path d="M78 194a36 36 0 0 1 17-3c6 0 11 3 17 5 7 3 15 7 24 8 8 0 16-5 24-8a89 89 0 0 1 16-5c6-1 12 1 17 3 2 0 3-3 1-3l-15-4c-6 0-12 3-17 5-9 3-17 8-26 8-6 1-12-2-18-4l-8-4-17-5a40 40 0 0 0-16 4c-2 0-1 3 1 3zm0-17a36 36 0 0 1 17-3l17 5c7 3 15 7 24 8 8 0 17-5 24-8a89 89 0 0 1 17-5 36 36 0 0 1 17 3c1 0 2-3 0-3a51 51 0 0 0-15-4c-6 0-12 3-17 5-9 3-17 8-26 9-6 0-12-3-17-5l-9-4c-5-2-11-4-16-4a40 40 0 0 0-17 3c-2 0-1 3 1 3z"/></g></svg>