<svg xmlns="http://www.w3.org/2000/svg" width="361" height="361"><path d="M182.4 87.8c0-2.2-1.6-4-3.6-4h-17.1c-2 0-3.7 1.8-3.7 4v8.7c0 2.2 1.7 4 3.7 4h17c2.1 0 3.7-1.8 3.7-4v-8.7z" fill="#fff"/><path d="M185.3 81.4c0-2.4-1.2-4.4-2.7-4.4h-24.9c-1.5 0-2.7 2-2.7 4.4v1.2c0 2.5 1.2 4.4 2.7 4.4h24.9c1.5 0 2.7-2 2.7-4.4v-1.2zm21.9 15.2c7.4 0 13.4 6 13.4 13.5v56.6c0 7.5-6 13.5-13.4 13.5h-51.3c-7.4 0-13.4-6-13.4-13.5v-56.6c0-7.5 6-13.5 13.4-13.5h51.3z" fill="#fff"/><path d="M220.1 168.5c2.6 0 4.7 1.6 4.7 3.6v6.4c0 2-2.1 3.6-4.7 3.6h-78c-2.6 0-4.7-1.6-4.7-3.6v-6.4c0-2 2.1-3.6 4.7-3.6h78z" fill="#fff"/><path d="M204.7 178.2c6.5.4 7.3 5.8 7.3 10.9v81.3c0 4.4.4 9.3-4.7 11.3-4 1.6-10.1.4-14.3.4h-23.8c-4.5 0-9.9.8-14.3-.4-5.2-1.4-4.7-7.2-4.7-11.3V189c0-5.1.8-10.5 7.3-10.9 4.5-.2 9 0 13.4 0h33.8c6.4 0 6.4-10 0-10h-37.2c-5 0-10.4-.5-15.2.8-7.7 2.2-12.1 9.9-12.1 17.5v88.3c0 9.6 8 17.3 17.6 17.3H197c5.8 0 11 .4 16.4-2.3 6.2-3.2 8.5-10.2 8.5-16.7v-87.4c0-9.8-7.8-17-17.3-17.5-6.5-.3-6.4 9.7 0 10zm1.8-64.8c2.1 0 3.9-1.5 3.9-3.3V94.7c0-1.9-1.8-3.4-3.9-3.4h-8.4c-2.1 0-3.8 1.5-3.8 3.4V110c0 1.8 1.7 3.3 3.8 3.3h8.4z" fill="#fff"/><path d="M202.3 91.7c0-15 39.9-37.4 58.2 9.5 14.3 36.6 6.1 145.5 28.3 145.5" fill="none" stroke="#fff" stroke-width="7" stroke-linecap="round" stroke-miterlimit="10"/></svg>