<svg xmlns="http://www.w3.org/2000/svg" width="361" height="361"><path d="M228.4 134.5l-38.6 28.1 2.7-.3c-7.3-1.8-17.7-4.6-24.4-.4-4 2.6-5.2 6.9-6 11.3-.6 4.2-1.5 8.4-1.8 12.6l1.8-3a384903 384903 0 0 0-24.8 18c-6.4 4.6-24 13-16.5 23.3 7.8 10.7 20-2.4 27-7.4l25.2-18.4-2.7.4c7.3 1.5 17 4.3 23.7 0 6.8-4.2 7-15.8 7.8-23l-1.8 3 30-21.7c3.6-2.6 7.5-5 10.8-8 3.4-3.2 2.6-8.6.2-12-3-4.2-8-5-12.5-2.5-3.9 2.3-.4 8.3 3.6 6 2.3-1.2 5.7 2.2 3.4 3.9l-1.2.8-6.5 4.8-19.1 13.9-12 8.7c-2 1.4-1.9 3.5-2.2 5.7l-1.6 10c-1.5 9.1-13.6 4.8-19.5 3.8-4.3-.7-7 2.4-10.3 4.9l-32.5 23.6c-2.5 1.8-6.4-1.6-3.8-3.5l4.6-3.4 18.3-13.3 15-10.9c4-2.9 3.6-9.8 4.3-14.4.7-4.2 1.7-8.2 6.9-8.5 3.1-.1 6.6 1 9.7 1.5 2 .3 6.1 1.8 7.8.6l3.8-2.8 33.5-24.3 1.4-1c3.6-2.6.1-8.7-3.6-6zM75.2 106.2h211.6c6.5 0 6.5-10 0-10H75.2c-6.5 0-6.5 10 0 10zm-.4 159h211.7c6.4 0 6.4-10 0-10H74.8c-6.4 0-6.4 10 0 10z" fill="#fff"/></svg>