<svg xmlns="http://www.w3.org/2000/svg" width="361" height="361"><path d="M93.3 73.7v214.5c0 4.5 7 4.5 7 0V73.7c0-4.5-7-4.5-7 0zM168.8 282c.5 3.4 2.3 4.8 5.5 5.7 2.7.7 5.4 1 8 1.7 2.7.8 5.2 1.8 8 2.2 6.3.8 12.6.4 19 .1 7.6-.3 15.2-.2 22.8-.6a85 85 0 0 0 26.8-5.7c4.5-1.7 16.9-5.3 13.6-12.3-3.6-7.7-16.2-9.3-23.5-10.6-4.5-.8-9.1-1.9-13.7-.9-5.2 1.1-10 3.3-15.1 4.9-10.7 3.4-25.8-1.6-35.1 4.6-4.8 3.3-15.6 2.6-16.3 10.9-.2 2 2.8 2 3 0 .6-6.5 11.7-5.5 15.5-8.8 1.8-1.6 5.8-1.6 8.3-1.8 9-.8 17.9.4 26.5-2.4 4.4-1.3 8.6-3 13-4.2 5.3-1.5 11 .1 16.3 1.2 5 1 10 2.2 14.5 4.6a9.6 9.6 0 0 1 3.7 3.4c1.7 2.6-2.2 4.2-4 5.2-7.2 4-15.7 6.7-23.8 8-11.8 2-24.1 1.2-36 1.7-6 .2-11.9.5-17.7-.7-2.7-.6-5.2-1.8-7.8-2.4-2.3-.6-8-.5-8.5-3.8-.2-1.9-3.2-2-3 0z" fill="#fff"/><path d="M150 278.4c.2 3 1.6 5.3 4.6 6.4 5.4 2 11.1 2.3 16.5 4.4 11.3 4.3 25 2.3 36.6 1.8 13.4-.6 26.8 0 40-1.6 8.9-1.2 17.2-3.9 25.5-7a91.3 91.3 0 0 0 12.8-6c2.2-1.2 6.1-3.5 6-6.5-.4-7-7.2-10.4-12.8-12.7a88.8 88.8 0 0 0-16.4-4.5c-5.7-1.1-12.3-2.8-18.2-2.4-9.3.6-18.4 5.6-27.3 8.1-5.4 1.5-11 1-16.6 1.2-4.9 0-9.8.2-14.7.6-4 .3-8.5.5-12 2.3-2.5 1.2-2.4 1.6-5.5 2.5-6.5 2-18.1 5-18.6 13.3 0 2 3 2 3 0 .5-8.5 15.3-8.4 20.7-11.8 1.5-1 2.3-1.7 4.4-2.2 7.8-2 16.4-1.6 24.3-1.8 5 0 9.9.2 14.7-1 5.2-1.2 10.3-3.1 15.3-4.9 4.2-1.4 8.7-3 13.1-3.4 6.7-.4 14.7 2 21.3 3.4a64.8 64.8 0 0 1 15.4 5.2c2.5 1.3 9.1 5.7 6.1 9.3-3 3.7-9.3 5.8-13.6 7.5a155.8 155.8 0 0 1-13.5 4.8 114.1 114.1 0 0 1-31.3 4.1c-14.5.4-29.1 1.4-43.6 1a50.2 50.2 0 0 1-16.8-3.2c-4.3-1.6-15.9-1.1-16.5-7-.2-1.8-3.2-1.9-3 0zm39.5-113.6L240 77.1h-8.6l50.7 87.7 4.3-7.5H185.2c-6.5 0-6.5 10 0 10h101.3a5 5 0 0 0 4.3-7.5L240 72a5 5 0 0 0-8.6 0l-50.7 87.7c-3.2 5.6 5.5 10.6 8.7 5z" fill="#fff"/><path d="M232.4 100.2v31.2c0 4.5 7 4.5 7 0v-31.2c0-4.5-7-4.5-7 0zm0 45.2v3.6c0 1.9 1.6 3.5 3.5 3.5s3.5-1.6 3.5-3.5v-3.6c0-1.9-1.6-3.5-3.5-3.5s-3.5 1.6-3.5 3.5zm-160 66.8v2.2c0 .8.6 1.5 1.4 1.5.9 0 1.5-.7 1.5-1.5v-2.2c.1-.8-.6-1.5-1.4-1.5-.9 0-1.5.7-1.5 1.5z" fill="#fff"/><path d="M75.1 213l6.3-4.3c1.6-1.1 0-3.7-1.5-2.6l-6.3 4.4c-1.6 1.1 0 3.7 1.5 2.6z" fill="#fff"/><path d="M80.2 208.8l6 2.3c1.7.7 2.5-2.2.7-3L81 206c-1.8-.7-2.5 2.2-.8 3z" fill="#fff"/><path d="M88.3 211l7.6-11.3c1.1-1.6-1.5-3.1-2.6-1.5l-7.6 11.3c-1 1.6 1.6 3.1 2.6 1.5zM78 218.9l-2.5-4.2c-1-1.6-3.6-.1-2.6 1.6l2.5 4c1 1.7 3.6.2 2.5-1.4z" fill="#fff"/><path d="M75 219.1l-4.7 6.2c-1.1 1.5 1.5 3 2.6 1.5l4.6-6.2c1.2-1.5-1.4-3-2.6-1.5zm66.6-39.3l7.8-1c2-.3 3-2.7 2.5-4.4-.6-2-2.5-2.7-4.3-2.4l-8 1c-1.8.3-2.8 2.7-2.4 4.3.6 2 2.5 2.7 4.3 2.5zm19.2.5l3 1.7c1.7.9 3.9.4 4.9-1.3a3.5 3.5 0 0 0-1.3-4.8l-3-1.7a3.5 3.5 0 0 0-4.8 1.3 3.5 3.5 0 0 0 1.2 4.8zm13.1 10l2 3c1 1.5 3 2.2 4.8 1.2 1.5-.9 2.3-3.2 1.2-4.8l-2-2.9c-1-1.5-3-2.2-4.7-1.2-1.6.9-2.3 3.2-1.3 4.8zm8.8 16.8l1.4 3.2c.8 1.8 3.3 2.2 4.8 1.3a3.5 3.5 0 0 0 1.6-2.1c.3-1 0-1.8-.3-2.7l-1.5-3.2c-.7-1.7-3.2-2.1-4.7-1.2a3.5 3.5 0 0 0-1.6 2c-.3 1-.1 1.9.3 2.7zm5.7 17.9l.7 3.4c.3 1.9 2.5 3 4.3 2.5 2-.6 2.8-2.5 2.4-4.3l-.6-3.5c-.4-1.9-2.6-2.9-4.3-2.4-2 .5-2.8 2.4-2.5 4.3zm-64.1-37.5l7-3.8c4-2.2.4-8.2-3.6-6l-7 3.7c-4 2.2-.4 8.2 3.6 6zm65.9 56.1v3.5a3.5 3.5 0 0 0 3.5 3.5c1.9 0 3.6-1.6 3.5-3.5v-3.5a3.5 3.5 0 0 0-3.5-3.5 3.5 3.5 0 0 0-3.5 3.5zm-81.5-44l5.8-5.3c1.4-1.3 1.3-3.7 0-5a3.5 3.5 0 0 0-5 0l-5.7 5.4c-1.4 1.3-1.3 3.7 0 5a3.5 3.5 0 0 0 5 0z" fill="#fff"/></svg>