<svg xmlns="http://www.w3.org/2000/svg" width="361" height="361"><path d="M202.2 118.2l-21.1 41.4c-1 2-.3 0 0-.1l-5.3 1.7c-4.6 1.5-9.4 2.5-13 6-6.9 6.9-1.3 19.2 1.8 26.8l.4-2.7-16.8 32.9c-2 4-4.4 8-6 12.2-3.4 9.2 11.6 16 16.9 8 2.4-3.7 4.2-7.9 6.2-11.8l10.8-21.2 4-8 1.3-2.4c1-2 .4 0-.8.3 5.1-1.4 13.5-3 17.4-6.9 7.7-7.6 2.7-18.4-.5-27l-.4 2.7 16.7-32.8c2-4 4.4-8 6-12.2 1.6-4.4-1.8-8.7-5.4-10.6-4.7-2.4-9.4-.5-12.2 3.6-2.5 3.8 3.6 7.3 6 3.6 1.6-2.4 6-.4 4.7 2l-.7 1.4-3.6 7.1-10.8 21.1-6.7 13.2c-1 2 .1 4.2.8 6.2l3.1 9.7c2.8 8.5-10.4 10.2-16 12-3.9 1.3-5 5.6-6.7 9L154 239.3c-1.4 2.8-6.3 1.4-4.8-1.5l2.6-5.1 10.2-20.2 8.4-16.5c2.2-4.3-1.4-10.7-2.8-15-1.3-4-2.1-8.6 3-10.6 2.8-1.2 6-2 9-3 2-.6 6-1.1 7-3l2.1-4.2 18.8-37 .8-1.4c2-4-4-7.6-6-3.6zm-127-12h211.6c6.5 0 6.5-10 0-10H75.2c-6.5 0-6.5 10 0 10zm-.4 159h211.7c6.4 0 6.4-10 0-10H74.8c-6.4 0-6.4 10 0 10z" fill="#fff"/></svg>