<svg xmlns="http://www.w3.org/2000/svg" width="361" height="361"><g stroke="#fff" stroke-width="10" stroke-miterlimit="10"><path d="M218 286c-2 0-4-3-4-5V79c0-3 2-5 4-5h13c2 0 3 2 3 5v202c0 2-1 5-3 5h-13zm-119 0c-2 0-4-2-4-5V80c0-3 2-5 4-5h13c2 0 3 2 3 5v201c0 3-1 5-3 5H99zm60 0c-2 0-4-2-4-5V80c0-3 2-5 4-5h13c2 0 3 2 3 5v201c0 3-1 5-3 5h-13z" fill="none"/><path d="M94 263l-1 3H75v-20h18l1 4v13zm60 0l-1 3h-36l-1-3v-13l1-4h36l1 4v13zm60 0l-1 3h-36l-1-3v-13l1-4h36l1 4v13zm20-14v-3h17v20h-17v-17zM94 112l-1 3H75V95h18l1 4v13zm60-1l-1 4h-36l-1-4V98l1-3h36l1 3v13zm60 0l-1 4h-36l-1-4V98l1-3h36l1 3v13z" fill="#fff"/><path d="M286 111v4h-18V95h18v16z" fill="none"/><path d="M234 98l1-3h17v16l-1 4h-16l-1-4V98z" fill="#fff"/></g></svg>