<svg xmlns="http://www.w3.org/2000/svg" width="361" height="361"><path d="M244 161l-48 8 4 1-7-6-9-5c-9-3-14 3-19 10l-3 4v1l-5 1-22 3-19 3c-6 1-11 8-7 14 3 6 8 5 14 5l22-4 22-3-4-1c9 6 22 17 31 5l7-11c0 2-2 2-1 1h2l6-1 35-5c4-1 8-2 10-5 5-7-2-15-9-15-4 0-4 7 0 7s5 5 1 5h-1l-7 1-24 4-15 3c-2 0-3 2-4 4l-6 8c-5 7-15-3-19-6-3-2-8-1-11 0l-40 6c-3 1-5-4-1-5h5l22-4 19-3c4-1 7-7 10-11 2-3 5-6 10-4l8 5c2 2 4 5 7 4h4l41-7h2c5-1 3-8-1-7zM75 106h212c6 0 6-10 0-10H75c-6 0-6 10 0 10zm0 159h211c7 0 7-10 1-10H75c-7 0-7 10 0 10z" fill="#fff"/></svg>