<svg xmlns="http://www.w3.org/2000/svg" width="361" height="361"><path d="M240 152l-45 14 2 1c-6-4-15-10-23-8-7 2-12 14-14 20l2-2-29 9c-8 3-27 5-23 18 4 12 20 3 28 1l30-10h-3c9 5 24 13 31 0l3-6 2-4c1-2 1-1-1 0l9-3 34-11c3-1 8-3 9-7 2-8-4-14-12-13-4 1-2 8 2 7 3 0 5 4 2 5h-2l-7 3-23 7-14 5c-2 0-3 3-4 5l-4 9c-4 8-15 0-20-3-4-2-7 0-11 2l-38 12c-3 1-6-3-3-4l6-2 21-7 18-6c4-1 6-8 8-13 2-3 5-7 10-5l8 4c2 1 6 4 8 3l4-1 40-13 1-1c4-1 3-8-2-6zM75 106h212c6 0 6-10 0-10H75c-6 0-6 10 0 10zm0 159h211c7 0 7-10 1-10H75c-7 0-7 10 0 10z" fill="#fff"/></svg>