<svg xmlns="http://www.w3.org/2000/svg" width="361" height="361"><path d="M98.6 219.3s11.9.3 26.6.3h38.4c14.7 0 26.6-.3 26.6-.3V82c0-2.8-24.6-7-39.3-7h-13.1c-14.7 0-39.2 4.2-39.2 7v137.4z" fill="none" stroke="#fff" stroke-width="10" stroke-linejoin="round" stroke-miterlimit="10"/><path d="M105 284.6c1 6.3 6.4 6.6 11.5 6.6h59c6 0 8.1-4.3 8.5-9.7l2.1-25.6.5-5.6c.1-1.7 1.8-3.3 2.3-5 1.3-4 .8-9.3 1.2-13.4.5-6 2.8-17-6.8-17h-73c-4 0-7.6-.3-10.7 2.7-2.2 2.2-1.7 5.4-1.5 8.1l1.2 14.3c.1 1.6 0 3.7.5 5.3.6 1.7 2.2 3.3 2.3 5l1.1 13.4 1.6 20c.4 4.4 7.4 4.5 7 0l-1.6-20-1-12.6c-.1-1.6 0-3.3-1-4.8a12.2 12.2 0 0 1-2-6.3l-1-13.4c-.1-1.2-1.1-4.6.7-4.6h75.2c.4 0 2.8-.4 2.8.6l-1 10.5-.7 9.7c-.1 1.7-1.6 2.8-2 4.4-.5 1.3-.6 2.6-.7 4l-1.7 20.6c0 1-.3 12.4-1.5 12.4h-57.5c-2 0-6.7 1-7-1.5-.8-4.4-7.5-2.5-6.8 1.9zm85.2-159.1H98.6c-2 0-2 3 0 3h91.6c1.9 0 1.9-3 0-3zm0-28.3H98.6c-2 0-2 3 0 3h91.6c1.9 0 1.9-3 0-3z" fill="#fff"/><path d="M70.4 139c1.4 8.1 10.7 6.5 16.7 6.5s15 .9 15-7.7v-34.1c0-9-11-7.5-16.9-7.5-5.8 0-14.9-.9-14.9 7.6V138c0 4.5 7 4.5 7 0v-28.2c0-3.4-1.3-6.6 2.8-6.6h14.4c1.2 0 .6 26.2.6 28.7 0 3.4 1.3 6.6-2.8 6.6-2.6 0-14.6 1.6-15.1-1.4-.7-4.5-7.5-2.6-6.8 1.8z" fill="#fff"/><path d="M80.7 118.7a3 3 0 0 0 3 3h4a3 3 0 0 0 3-3v-8.4a3 3 0 0 0-3-3h-4a3 3 0 0 0-3 3v8.4zm2.6 15h4.3c2 0 3.5-1.6 3.5-3.5s-1.6-3.5-3.5-3.5h-4.3c-1.9 0-3.5 1.6-3.5 3.5s1.6 3.5 3.5 3.5zM198 211.6c0 4.7-1 17.4-7.8 17.8-2 .2-2 3.2 0 3 9-.6 10.7-14 10.8-20.8 0-2-3-2-3 0z" fill="#fff"/><path d="M187.2 211.8a3 3 0 0 0 3 3h6.6a3 3 0 0 0 3-3V195a3 3 0 0 0-3-3h-6.7a3 3 0 0 0-3 3v16.8z" fill="#fff"/><path d="M198.7 190.4l-1.6 21.3c-.2 1.9 2.8 1.9 3 0l1.6-21.3c.2-2-2.8-2-3 0zM88.1 211.6c0 6.8 1.7 20.2 10.8 20.8 2 .2 2-2.8 0-3-6.8-.4-7.8-13-7.8-17.8 0-2-3-2-3 0z" fill="#fff"/><path d="M101.8 211.8a3 3 0 0 1-3 3h-6.7a3 3 0 0 1-3-3V195a3 3 0 0 1 3-3h6.7a3 3 0 0 1 3 3v16.8z" fill="#fff"/><path d="M87.2 190.4l1.7 21.3c.2 1.9 3.2 1.9 3 0l-1.7-21.3c-.1-2-3.1-2-3 0zm173.6-29.1a30.3 30.3 0 0 0 29.8-29.8c0-2-3-2-3 0a27.2 27.2 0 0 1-26.8 26.8c-2 0-2 3 0 3zm0-14a16 16 0 0 0 15.8-15.8c0-2-3-2-3 0a13 13 0 0 1-12.8 12.8c-2 0-2 3 0 3z" fill="#fff"/><path d="M272.8 129c.9 6.4 8.5 4.7 13.1 4.7 6.4 0 5.4-6.3 5.4-10.8 0-6.3-9.2-4.7-13.1-4.7-6.3 0-5.4 6.4-5.4 10.9 0 2 3 2 3 0 0-1.9-1-7.9 2-7.9h8.9c2.5 0 2.7 9.5-.4 9.5-1.9 0-10 1.2-10.5-1.6-.2-2-3.2-2-3 0z" fill="#fff"/><path d="M290.6 131.5V71.2c0-2-3-2-3 0v60.3c0 1.9 3 1.9 3 0zm-14.1 0V71.2c0-2-3-2-3 0v60.3c0 1.9 3 1.9 3 0zM261 162c6-.8 4.2-9.2 4.2-13.4 0-6.1-6.7-5.1-10.8-5.1-6.3 0-4.7 9.2-4.7 13.1 0 6.4 6.4 5.4 10.9 5.4 2 0 2-3 0-3-1.9 0-7.9 1-7.9-2v-9c0-2.3 4.2-1.6 5.3-1.6 1.7 0 4.2-.5 4.2 2 0 2.6 1.3 10.1-2 10.6-2 .2-1.1 3.1.8 2.9z" fill="#fff"/><path d="M262.5 144.2H191c-2 0-2 3 0 3h71.5c2 0 2-3 0-3zm0 14.1H191c-2 0-2 3 0 3h71.5c2 0 2-3 0-3z" fill="#fff"/></svg>