<svg xmlns="http://www.w3.org/2000/svg" width="361" height="361"><path d="M291.8 287l.4-132.4c0-3.5-4.4-6.7-7.5-4.3l-115 87.2-59.5 45.1c-3.7 2.8-2.9 9.3 2.5 9.3h174.1c6.5 0 6.5-10 0-10H112.7l2.5 9.4L230.3 204l59.4-45-7.5-4.4-.4 132.3c0 6.5 10 6.5 10 0zm-41.6-133.8l-114.4 88.2-3.8 3c-5 3.8 0 12.5 5 8.5l114.5-88.2 3.7-3c5-3.8.1-12.5-5-8.5z" fill="#fff"/><path d="M92.8 123.5c0 2.5 2 4.5 4.4 4.5H123c2.5 0 4.5-2 4.5-4.5V97.8c0-2.5-2-4.5-4.5-4.5H97.2c-2.4 0-4.4 2-4.4 4.5v25.7z" fill="none" stroke="#fff" stroke-width="10" stroke-miterlimit="10"/><path d="M144.9 71.3l-8 7.9c-1.9 2-1.9 5.1 0 7s5.2 2 7.1 0l8-7.9c1.9-1.9 1.9-5.1 0-7s-5.2-2-7.1 0zm41.3 34h-36.8c-6.5 0-6.5 10 0 10h36.8c6.4 0 6.4-10 0-10zm-107.3 45l6.5-6.6c2-1.9 2-5.1 0-7s-5.1-2-7 0l-6.6 6.5c-2 2-2 5.2 0 7.1s5.1 2 7 0zm36.7 35.6v-36.8c0-6.5-10-6.5-10 0v36.8c0 6.5 10 6.5 10 0zm53.3-23.2l-26-26c-4.6-4.6-11.6 2.5-7 7l26 26c4.5 4.6 11.6-2.4 7-7z" fill="#fff"/></svg>