<svg xmlns="http://www.w3.org/2000/svg" width="361" height="361"><path d="M240.2 151.5l-45.4 14.8 2.7.3c-6.5-4-15.4-9.7-23.1-7.7-7.8 2-12 13.7-14.7 20.4l2.5-2.5-29 9.5c-7.8 2.5-26.8 5-22.8 17.2 4 12.5 20 3.7 28 1l29.8-9.6-2.7-.3c8.9 5 23.6 13.8 30.3.7l3.4-6.6 1.9-3.8c.9-1.7 1-1-1.1-.3l9.1-3 33.4-10.8c3.7-1.2 8-2.5 9.2-6.8 1.9-7.5-3.8-14-11.5-12.5-4.4.9-2.5 7.6 1.9 6.7 2.7-.5 4.4 4 1.7 4.8l-1.4.4-7.7 2.5-22.4 7.3-14.1 4.6c-2.2.7-2.9 3-3.8 4.9l-4.7 9.1c-4 8-14.5-.1-19.7-2.7-3.7-2-7.5.3-11.3 1.5L120.5 203c-2.9 1-5.4-3.5-2.2-4.5l5.4-1.8 21.6-7 17.6-5.7c4.5-1.5 6.4-8.5 8.5-12.6 2-3.8 4.6-7.6 9.6-5.5 2.8 1.2 5.6 2.9 8.4 4.3 1.9 1 5.1 3.5 7.3 2.8l4.4-1.5 39.4-12.8 1.6-.5c4.3-1.4 2.4-8.1-1.9-6.7zm-165-45.3h211.6c6.5 0 6.5-10 0-10H75.2c-6.5 0-6.5 10 0 10zm-.4 159h211.7c6.4 0 6.4-10 0-10H74.8c-6.4 0-6.4 10 0 10z" fill="#fff"/></svg>