<svg xmlns="http://www.w3.org/2000/svg" width="361" height="361"><path d="M202 118l-21 42v-1l-5 2c-5 2-10 3-13 6-7 7-2 19 2 27v-3l-17 33-6 12c-3 10 12 16 17 8l6-11 11-22 4-8 1-2c1-2 1 0 0 0 5-1 13-3 17-7 8-7 3-18 0-27l-1 3 17-33 6-12c1-4-2-9-6-10-4-3-9-1-12 3-2 4 4 7 6 4s6-1 5 2l-1 1-3 7-11 21-7 14c-1 2 0 4 1 6l3 9c3 9-10 11-16 12-4 2-5 6-7 9l-18 36c-1 3-6 2-5-1l3-5 10-20 8-17c3-4-1-11-2-15-2-4-3-9 3-11l9-3c2 0 6-1 7-3l2-4 18-37 1-1c2-4-4-8-6-4zM75 106h212c6 0 6-10 0-10H75c-6 0-6 10 0 10zm0 159h211c7 0 7-10 1-10H75c-7 0-7 10 0 10z" fill="#fff"/></svg>