<svg xmlns="http://www.w3.org/2000/svg" width="361" height="361"><path d="M220 128l-33 34 2-1c-8-1-18-2-24 3s-4 17-4 24l1-2-21 21c-6 6-22 17-12 26 9 9 19-6 25-12l22-22-2 1c7 0 17 2 23-4 6-5 4-16 4-23l-1 2 26-26c3-2 8-6 9-9a10 10 0 0 0-15-12c-3 3 2 8 5 5 4-3 5 3 3 5l-6 5-17 17-10 10c-2 2-1 5-1 7v10c0 9-14 6-19 6-4 0-7 4-9 7l-29 28c-2 2-6-1-4-3l4-4 16-16 13-13c4-4 2-11 2-15 0-5 1-9 6-9h10l8-1 3-4 29-29 1-1c4-3-1-8-5-5zM75 106h212c6 0 6-10 0-10H75c-6 0-6 10 0 10zm0 159h212c6 0 6-10 0-10H75c-7 0-7 10 0 10z" fill="#fff"/></svg>