<svg xmlns="http://www.w3.org/2000/svg" width="361" height="361"><path d="M243 283a4 4 0 0 1-4 4H89a4 4 0 0 1-4-4V110a4 4 0 0 1 4-4h150a4 4 0 0 1 4 4v173z" fill="none" stroke="#fff" stroke-width="10" stroke-miterlimit="10"/><path d="M153 218c-1 11-6 22-17 26-10 3-21-4-26-14a21 21 0 0 1-1-17l9-12c3-4 4-9 6-14 0-3 1-9 3-10l-3 1c-1-1-1-1 0 0l2 4c2 3 2 7 3 10 0 3 2 7 6 7 3 0 5-3 7-5l2-5 1-1c1-2 1 0-1 0l-3-1a44 44 0 0 1 12 31c0 5 7 5 7 0a52 52 0 0 0-13-34c-6-7-8 2-11 6l-2 2s3 2 2 0l-2-8c-1-4-3-9-6-12-7-7-11 12-12 15a48 48 0 0 1-6 14c-3 4-7 8-8 14-3 10 2 22 10 29a29 29 0 0 0 27 6c10-3 17-13 19-22a40 40 0 0 0 2-10c0-4-7-4-7 0z" fill="#fff"/><path d="M141 230c-1 6-4 12-10 14-6 1-12-5-14-10-1-6 4-10 6-15l3-6 2-7-3 1c-2-1-1 1 0 2l2 6c0 2 2 5 4 5 3 0 4-2 5-4a32 32 0 0 0 2-2c1-2 2-2 0-1l-4-1a25 25 0 0 1 6 18c1 4 8 4 7 0a32 32 0 0 0-8-23 4 4 0 0 0-4 0c-2 0-2 2-3 3a54 54 0 0 1-1 2 22 22 0 0 1 0 1h2c-1-4-1-11-6-13l-4 1c-2 2-3 6-3 8a35 35 0 0 1-6 12 18 18 0 0 0 0 22c5 6 14 10 21 7 8-3 12-12 12-20 1-5-6-5-6 0z" fill="#fff"/><path d="M234 102a4 4 0 0 1-4 4h-96a4 4 0 0 1-4-4V79a4 4 0 0 1 4-4h96a4 4 0 0 1 4 4v23z" fill="none" stroke="#fff" stroke-width="10" stroke-miterlimit="10"/><path d="M144 96h20c6 0 6-10 0-10h-20c-7 0-7 10 0 10zm34 0h4c2 0 5-3 5-5s-3-5-5-5h-4c-3 0-5 2-5 5s2 5 5 5zm25 32l-1 1h-29a2 2 0 0 1-1-1v-9l1-1h29l2 1v9zm22 43c0 6-9 5-13 5h-43c-5 0-9-1-9-7v-22c0-4-1-10 6-10h54c4 0 5 2 5 6v28c0 5 7 5 7 0v-17c0-6 1-13-1-18-2-6-9-6-14-6h-44c-4 0-9-1-13 1-7 3-7 10-7 16v22c0 8 5 14 13 14h55c7 0 11-6 11-12 1-4-6-4-7 0z" fill="#fff"/><path d="M246 167a6 6 0 0 1-6 6h-6a6 6 0 0 1-6-6v-22a6 6 0 0 1 6-5h6a6 6 0 0 1 6 6v21z" fill="#fff"/><path d="M234 184l-2 3h-4c-2 0-3-2-3-3v-54c0-2 1-3 2-3h4c2 0 3 1 3 3v54z" fill="#fff"/><path d="M229 145h-59c-2 0-2 3 0 3h59c2 0 2-3 0-3zm0 7h-59c-2 0-2 3 0 3h59c2 0 2-3 0-3zm0 6h-59c-2 0-2 3 0 3h59c2 0 2-3 0-3zm0 7h-59c-2 0-2 3 0 3h59c2 0 2-3 0-3zm-1-26h-56c-2 0-2 3 0 3h56c2 0 2-3 0-3zm0 32h-56c-2 0-2 3 0 3h56c2 0 2-3 0-3z" fill="#fff"/><g fill="#fff"><path d="M176 229l50-9c6-1 4-11-3-10l-50 9c-6 1-4 11 3 10z"/><path d="M226 228l-50-9c-7-1-9 9-3 10l50 9c7 1 9-9 3-10zm0 12l-50-9c-7-1-9 9-3 10l50 9c7 1 9-9 3-10zm0 12l-50-9c-7-1-9 9-3 10l50 9c7 1 9-9 3-10zm1-32h54c7 0 7-10 0-10h-54c-6 0-6 10 0 10z"/><path d="M227 262h54c7 0 7-10 0-10h-54c-6 0-6 10 0 10z"/></g><path fill="#fff" d="M281 169l-18 17 6-24z"/><path d="M279 167l-18 17 4 3 7-24-4 1 11 7c3 2 6-3 3-4l-12-7c-1-1-3 0-3 1l-6 24c-1 3 2 5 4 3l18-17c2-3-2-6-4-4zm2-48l-15 26c-2 4 4 7 6 3l15-25c2-4-4-8-6-4z" fill="#fff"/><path d="M268 150l15 3c5 0 7-6 2-7l-15-3c-5-1-7 6-2 7z" fill="#fff"/><path d="M281 147l-14 26c-3 4 3 7 6 3l14-25c3-4-4-7-6-4z" fill="#fff"/></svg>