<svg xmlns="http://www.w3.org/2000/svg" width="361" height="361"><path d="M269 216c0 2-2 3-4 3h-13c-2 0-4-1-4-3v-93c0-2 2-4 4-4h13c2 0 4 2 4 3v94z" fill="none" stroke="#fff" stroke-width="10" stroke-miterlimit="10"/><path d="M274 244c0 2-1 4-3 4h-26l-2-4v-21l2-4h26c2 0 3 2 3 4v21z" fill="#fff" stroke="#fff" stroke-width="10" stroke-miterlimit="10"/><path d="M277 131h11c6 0 6-10 0-10h-11c-7 0-7 10 0 10zm0 25h11c6 0 6-10 0-10h-11c-7 0-7 10 0 10zm0 25h11c6 0 6-10 0-10h-11c-7 0-7 10 0 10zm0 26h11c6 0 6-10 0-10h-11c-7 0-7 10 0 10z" fill="#fff"/><path fill="#fff" stroke="#fff" stroke-width="10" stroke-miterlimit="10" d="M248 186h21v43h-21z"/><path d="M131 75v45c0 7 10 7 10 0V75c0-6-10-6-10 0z" fill="#fff"/><path d="M120 84l13 8c6 3 11-6 5-9l-13-8c-6-3-11 6-5 9z" fill="#fff"/><path d="M146 75l-13 8c-6 3 0 12 5 9l13-8c6-3 1-12-5-9zm-52 26l39 23c6 3 11-5 5-9L99 93c-6-3-11 5-5 8z" fill="#fff"/><path d="M96 115l13-7c6-4 1-12-5-9l-13 8c-5 3 0 11 5 8z" fill="#fff"/><path d="M102 88v15c0 7 10 7 10 0V88c0-6-10-6-10 0z" fill="#fff"/><g fill="#fff"><path d="M99 147l39-23c6-3 1-12-5-9l-39 23c-6 3-1 12 5 9z"/><path d="M112 152v-16c0-6-10-6-10 0v15c0 7 10 7 10 1z"/><path d="M91 133l14 8c5 3 10-6 5-9l-14-8c-5-3-10 6-5 9z"/></g><g fill="#fff"><path d="M141 165v-45c0-6-10-6-10 0v45c0 7 10 7 10 0z"/><path d="M151 156l-13-7c-5-4-10 5-5 8l13 8c6 3 11-5 5-9z"/><path d="M125 165l13-8c6-3 1-12-5-8l-13 7c-5 4 0 12 5 9z"/></g><g fill="#fff"><path d="M178 138l-40-22c-5-3-10 5-5 8l39 23c6 3 11-5 6-9z"/><path d="M175 125l-13 7c-6 4-1 12 5 9l13-8c6-3 1-11-5-8z"/><path d="M170 152v-16c0-6-10-6-10 1v15c0 6 10 6 10 0z"/></g><g fill="#fff"><path d="M172 93l-39 23c-5 3 0 12 5 8l39-22c6-3 1-12-5-9z"/><path d="M159 88v16c0 6 10 6 10 0V88c0-6-10-6-10 0z"/><path d="M180 107l-13-8c-6-3-11 6-5 9l13 7c6 4 11-5 5-8z"/></g><g fill="#fff"><path d="M72 187l15-4c7-2 13 0 20 3 9 3 19 9 29 9 6 0 12-3 18-5l9-4a38 38 0 0 1 20-4 132 132 0 0 1 17 4c2 1 2-2 1-2a162 162 0 0 0-16-4c-6-2-12 0-18 2-10 3-21 10-31 10-6 0-13-3-19-6l-11-4a35 35 0 0 0-18-2 118 118 0 0 0-17 4c-2 0-1 3 1 2z"/><path d="M78 194a36 36 0 0 1 17-3c6 0 11 3 17 5 7 3 15 7 24 8 8 0 17-5 24-8a89 89 0 0 1 17-5c5-1 11 1 17 3 1 0 2-3 0-3l-15-4c-6 0-12 3-17 5-9 3-17 8-26 8-6 1-12-2-17-4l-9-4-16-5a40 40 0 0 0-17 4c-2 0-1 3 1 3zm0-17a36 36 0 0 1 17-3l17 5c7 3 15 7 24 8 8 0 17-5 24-8a89 89 0 0 1 17-5 36 36 0 0 1 17 3c1 0 2-3 0-3a51 51 0 0 0-15-4c-6 0-12 3-17 5-9 3-17 8-26 9-6 0-12-3-17-5l-9-4c-5-2-11-4-16-4a40 40 0 0 0-17 3c-2 0-1 3 1 3z"/></g></svg>