<svg xmlns="http://www.w3.org/2000/svg" width="361" height="361"><circle cx="218" cy="169" r="69" fill="none" stroke="#fff" stroke-width="10" stroke-miterlimit="10"/><path d="M243 98a8 8 0 0 1-8 7h-35a8 8 0 0 1-7-7V81a8 8 0 0 1 7-7h35a8 8 0 0 1 8 7v16zm0 161a8 8 0 0 1-8 7h-35a8 8 0 0 1-7-7v-17a8 8 0 0 1 7-7h35a8 8 0 0 1 8 7v16z" fill="#fff"/><path d="M249 271c0 4-3 8-6 8h-51c-3 0-5-4-5-9v-2c0-4 2-8 5-8h51c3 0 6 4 6 8v2z" fill="#fff"/><path d="M210 238H99a8 8 0 0 1-8-8V108a8 8 0 0 1 8-7h111" fill="none" stroke="#fff" stroke-width="10" stroke-miterlimit="10"/><path d="M72 100v138c0 7 10 7 10 0V100c0-6-10-6-10 0z" fill="#fff"/><g fill="#fff"><path d="M178 165a29 29 0 0 1 28-28c7 0 7-10 1-10a39 39 0 0 0-39 38c0 7 10 7 10 0z"/><path d="M200 121l14 15c5 4 12-3 7-7l-14-15c-5-5-12 2-7 7z"/><path d="M207 151l14-15c5-5-2-12-7-7l-14 15c-5 4 2 11 7 7z"/></g></svg>