<svg xmlns="http://www.w3.org/2000/svg" width="361" height="361"><path d="M243.5 161.2l-47.2 7.5 3.4.9c-2.2-2-4.7-3.6-7.1-5.4-2.6-1.8-5.4-4.5-8.5-5.4-9.3-2.9-14.2 3.6-19 10.3l-3.1 4.2c-1 1.2-1.2 1 .4.8l-5.1.8-22.1 3.5-18.9 3c-6.4 1-11.2 7.5-7.7 14 3.3 5.9 8.8 5 14.4 4.2l21.5-3.4 22.2-3.5-3.4-1c8.3 6.8 21.3 17.7 30.3 5.4l7.7-10.6c-.8 1-2.4 1-1 .8l1.8-.3 6.3-1 34.9-5.5c4.1-.6 7.3-1.2 10-5 4.6-6.3-2-14.7-8.9-14.4-4.5.2-4.5 7.2 0 7 3.1-.1 4.6 4.5 1 5l-1.2.2-7.6 1.2-23.2 3.7-15.4 2.4c-1.9.3-3 2.6-4 4l-6.2 8.7c-5.1 7-14.6-2.9-19-6.1-3.2-2.3-7.4-.8-11.2-.2l-40 6.4c-3 .5-4.5-4.5-.9-5l5.1-.8 22-3.5 19-3c4.5-.8 7.4-7.3 10-10.8 2.4-3.3 5.1-6.7 9.8-4.6 2.9 1.3 5.5 3.9 8 5.7 2.2 1.6 4.8 4.5 7.6 4l4-.6 41.2-6.5 2-.3c4.4-.7 2.5-7.5-1.9-6.8zm-168.3-55h211.6c6.5 0 6.5-10 0-10H75.2c-6.5 0-6.5 10 0 10zm-.4 159h211.7c6.4 0 6.4-10 0-10H74.8c-6.4 0-6.4 10 0 10z" fill="#fff"/></svg>