<svg xmlns="http://www.w3.org/2000/svg" width="361" height="361"><g fill="#fff"><path d="M223 86c0-2-2-4-3-4h-15c-1 0-3 2-3 4v7c0 2 2 3 3 3h14c2 0 3-1 3-3v-7z"/><path d="M225 80c0-2-1-3-2-3h-21c-1 0-2 1-2 3v1l2 4h21l2-4v-1zm-78 3a2 2 0 0 1-2 2h-38a2 2 0 0 1-2-2V72l2-2h38l2 2v11zm111 55a9 9 0 0 1-10 10h-59a9 9 0 0 1-10-10v-35a9 9 0 0 1 9-9h60a9 9 0 0 1 10 9v35z"/><path d="M186 156c0 3-1 4-3 4h-5c-2 0-3-1-3-4V86c0-2 1-4 3-4h5c2 0 4 2 4 4v70z"/><path d="M176 140c0 6-5 6-9 6h-67c-4 0-8 1-10-4V99c1-4 6-4 10-4h67c4 0 9 1 9 6v39c0 6 8 6 8 0v-31c0-4 1-8-1-12-1-7-8-10-14-10H96c-8 0-14 6-14 14v33c0 5-1 9 2 14 2 5 8 7 13 7h73c8 0 14-7 14-15 0-5-8-5-8 0z"/><path d="M181 106h-78c-4 0-4 5 0 5h78c3 0 3-6 0-6zm0 8h-78c-4 0-4 6 0 6h78c3 0 3-6 0-6zm0 8h-78c-4 0-4 6 0 6h78c3 0 3-6 0-6zm0 8h-78c-4 0-4 6 0 6h78c3 0 3-6 0-6zm-2-33h-73c-4 0-4 6 0 6h73c4 0 4-6 0-6zm0 42h-73c-4 0-4 5 0 5h73c4 1 4-5 0-5zm83 0c2 0 3-1 3-3v-12c0-2-1-3-3-3h-7c-2 0-3 1-3 3v12c0 2 1 3 3 3h7zm-85 32l-2 2h-44a2 2 0 0 1-2-2v-11l2-2h44a2 2 0 0 1 2 2v11z"/><path d="M168 150h9v21h-9z"/></g><path d="M243 248c0 12-9 21-21 22H104a22 22 0 0 1-21-18l-1-14v-42a23 23 0 0 1 12-20 26 26 0 0 1 13-3h113c8 0 15 3 19 10 4 5 4 11 4 17v48c0 6 10 6 10 0v-37c0-15 1-29-11-40-9-8-20-8-32-8h-88c-9 0-19-1-27 1a33 33 0 0 0-22 23l-1 16v42c0 19 13 35 32 35h111l15-1a33 33 0 0 0 23-31c0-7-10-7-10 0zm-130 43h23c7 0 7-10 0-10h-23c-6 0-6 10 0 10zm83 1h23c6 0 6-10 0-10h-23c-7 0-7 10 0 10z" fill="#fff"/><path d="M82 227c0 7-3 13-6 13-4 0-7-6-7-13v-11c0-7 3-12 7-12s6 5 6 12v11zm192-72c0 15-1 30-5 45a32 32 0 0 1-7 12 13 13 0 0 1-10 4c-10 0-10 15 0 15 36-1 36-51 37-76 0-10-15-10-15 0z" fill="#fff"/><path d="M257 244a5 5 0 0 1-10 0v-45a5 5 0 0 1 10 0v45zm32-94c-1-14-10-27-24-27-10 0-10 15-1 15 6 0 9 6 10 12 0 9 15 10 15 0z" fill="#fff"/><path d="M281 163c-5 0-10-3-10-5v-9c0-3 5-5 10-5s9 2 9 5v8c0 3-4 5-9 5z" fill="#fff"/></svg>