<svg xmlns="http://www.w3.org/2000/svg" width="361" height="361"><path d="M166.3 204c.7.2.4-4.8.4-5.7V76.7c0-.8-2 .1-.8.1h6c2.5 0 .5-1 .5.5v126.9c0-.2 2-.3.8-.3h-7.8c-4.5 0-4.5 7 0 7 5.5 0 14 1.3 14-6.7V78.7c0-3.8-.8-9-5.7-9-5.5 0-14-1.3-14 6.8v113.4c0 5.5-2.3 18.8 4.8 20.8 4.3 1.3 6.2-5.5 1.8-6.7zm-75.4.3c.7.2.4-4.8.4-5.7V77c0-.7-2 .1-.8.1h6c2.5 0 .5-1 .5.5v126.9c0-.2 2-.3.8-.3H90c-4.5 0-4.5 7 0 7 5.5 0 14 1.3 14-6.7V79c0-3.8-.8-8.9-5.7-8.9-5.5 0-14-1.4-14 6.7v113.4c0 5.6-2.4 18.8 4.8 20.9 4.3 1.2 6.2-5.5 1.8-6.8zm38 0c.7.2.4-4.8.4-5.7V77c0-.7-2 .1-.7.1h5.9c2.5 0 .5-1 .5.5v126.9c0-.2 2-.3.8-.3H128c-4.5 0-4.5 7 0 7 5.5 0 14 1.3 14-6.7V79c0-3.8-.8-8.9-5.7-8.9-5.5 0-14-1.4-14 6.7v113.4c0 5.6-2.3 18.8 4.8 20.9 4.3 1.2 6.2-5.5 1.9-6.8z" fill="#fff"/><path d="M86.8 193c0 1.2-.1 2.2-.3 2.2H75.1c-.1 0-.3-1-.3-2.2v-8.4c0-1.2.2-2.2.3-2.2h11.4c.2 0 .3 1 .3 2.2v8.3z" fill="#fff"/><path d="M83.3 193c-.1 1 0 1 .2.4l3-1.7H75.1l3 1.7c.6.9.3-.8.3-1.3v-7.3c0-.6.3-1.5-.2-.6l-3 1.7h11.4l-3-1.7c-.7-1-.3.6-.3 1v7.7c0 4.6 7 4.6 7 0 0-4 1.7-14-4.2-14h-11c-3.2 0-3.7 3.3-3.7 5.7v7.1c0 3.1.1 7 4.2 7h11c3.2 0 3.7-3.3 3.7-5.8.1-4.5-6.9-4.5-7 0zm42-.3c0 1.3-.3 2.2-.6 2.2h-23.1c-.3 0-.6-1-.6-2.2v-8.3c0-1.2.3-2.2.6-2.2h23c.3 0 .6 1 .6 2.2v8.3z" fill="#fff"/><path d="M121.7 192.7v.5l3-1.7h-23.1l3 1.7a20 20 0 0 1 0-9.2l-3 1.7h23l-3-1.7c1.1 1.8.1 6.7.1 8.7 0 4.6 7 4.6 7 0 0-3 1-8.8-.6-11.6-2-3.1-5.4-2.4-8.6-2.4h-14.3c-4.5 0-7.1.5-7.7 5.8-.3 2.7-.9 9 .7 11.6 2 3.1 5.3 2.4 8.5 2.4H121c4.5 0 7.1-.4 7.7-5.8.5-4.4-6.5-4.4-7 0zm41.4.1c0 1.3-.2 2.3-.5 2.3h-23c-.4 0-.6-1-.6-2.2v-8.4c0-1.2.2-2.2.5-2.2h23c.4 0 .6 1 .6 2.2v8.3z" fill="#fff"/><path d="M159.6 192.8v.5l3-1.7h-23l3 1.7a18 18 0 0 1 0-9.2l-3 1.7h23l-3-1.7c1 1.8 0 6.7 0 8.7 0 4.6 7 4.6 7 0 0-3 1.1-8.8-.6-11.6-2-3.1-5.3-2.4-8.6-2.4h-14.3c-4.5 0-7 .4-7.6 5.7-.3 2.8-1 9.2.6 11.7 2 3.1 5.3 2.4 8.6 2.4H159c4.5 0 7-.4 7.6-5.7.5-4.6-6.5-4.5-7 0zm16.1-8.7c0-1.2.1-2.2.3-2.2h10.6c.1 0 .3 1 .3 2.2v8.3c0 1.2-.2 2.2-.3 2.2H176c-.1 0-.3-1-.3-2.2v-8.3z" fill="#fff"/><path d="M179.2 184.1c.2-1 .1-1.1-.2-.4l-3 1.7h10.6l-3-1.7c-.6-1-.2.8-.2 1.3v6.2c0 .5-.3 2.5.2 1.7l3-1.8H176l3 1.8c.6 1 .2-.6.2-1V184c0-4.5-7-4.5-7 0 0 3.8-1.6 14 4 14h10.4c3.2 0 3.7-3.2 3.8-5.7v-7c0-3 0-7-4-7H176c-3.2 0-3.7 3.3-3.8 5.7 0 4.6 7 4.5 7 0zm-92.4-87c0 1.2-.1 2.2-.3 2.2H75.1c-.1 0-.3-1-.3-2.2v-8.3c0-1.3.2-2.3.3-2.3h11.4c.2 0 .3 1 .3 2.3V97z" fill="#fff"/><path d="M83.3 97c-.1 1 0 1.2.2.5l3-1.7H75.1l3 1.7c.6.9.3-.8.3-1.3v-7.3c0-.6.3-1.5-.2-.6l-3 1.7h11.4l-3-1.7c-.7-1-.3.6-.3 1V97c0 4.6 7 4.6 7 0 0-4 1.7-14-4.2-14h-11c-3.2 0-3.7 3.3-3.7 5.7v7.1c0 3.1.1 7 4.2 7h11c3.2 0 3.7-3.3 3.7-5.7.1-4.6-6.9-4.6-7 0z" fill="#fff"/><g fill="#fff"><path d="M125.2 96.8c0 1.3-.2 2.3-.5 2.3h-23.1c-.3 0-.6-1-.6-2.2v-8.4c0-1.2.3-2.2.6-2.2h23c.3 0 .6 1 .6 2.2v8.3z"/><path d="M121.7 96.8v.5l3-1.7h-23.1l3 1.7a20 20 0 0 1 0-9.2l-3 1.7h23l-3-1.7c1.1 1.8.1 6.7.1 8.7 0 4.6 7 4.6 7 0 0-3 1-8.8-.6-11.6-2-3.1-5.4-2.4-8.6-2.4h-14.3c-4.5 0-7.1.4-7.7 5.7-.3 2.8-.9 9.2.7 11.7 2 3.1 5.3 2.3 8.5 2.3H121c4.5 0 7.1-.4 7.7-5.7.5-4.5-6.5-4.4-7 0z"/></g><g fill="#fff"><path d="M163.1 97c0 1.2-.2 2.2-.5 2.2h-23c-.4 0-.6-1-.6-2.2v-8.3c0-1.3.2-2.2.5-2.2h23c.4 0 .6 1 .6 2.2V97z"/><path d="M159.6 97v.4l3-1.7h-23l3 1.7a18 18 0 0 1 0-9.2l-3 1.7h23l-3-1.7c1 1.8 0 6.7 0 8.8 0 4.5 7 4.5 7 0 0-3.1 1.1-9-.6-11.7-2-3.1-5.3-2.4-8.6-2.4h-14.3c-4.5 0-7 .5-7.6 5.8-.3 2.8-1 9 .6 11.6 2 3.1 5.3 2.4 8.6 2.4H159c4.5 0 7-.5 7.6-5.8.5-4.4-6.5-4.4-7 0z"/></g><path d="M205.4 96.9c-.1 1 0 1.1.2.4l3-1.7h-11.4l3 1.7c.6.9.2-.8.2-1.3v-7.3c0-.5.4-1.5-.2-.6l-3 1.8h11.4l-3-1.8c-.6-1-.2.6-.2 1V97c0 4.5 7 4.5 7 0 0-4 1.7-14-4.2-14h-11c-3.2 0-3.7 3.2-3.8 5.7v7c0 3.2.2 7 4.3 7h11c3.2 0 3.6-3.3 3.7-5.7.1-4.6-6.9-4.5-7 0z" fill="#fff"/><g fill="#fff"><path d="M175.9 88.6c0-1.2.1-2.2.3-2.2h10.6c.1 0 .2 1 .2 2.2v8.3c0 1.2-.1 2.2-.2 2.2h-10.6c-.2 0-.3-1-.3-2.2v-8.3z"/><path d="M179.4 88.6c.1-1 0-1.1-.2-.5l-3 1.8h10.6l-3-1.8c-.6-.9-.3.9-.3 1.3v6.3c0 .5-.3 2.5.2 1.6l3-1.7h-10.5l3 1.7c.6 1 .2-.6.2-1v-7.7c0-4.5-7-4.5-7 0 0 3.8-1.7 14 4 14h10.4c3.2 0 3.7-3.2 3.7-5.7v-7.1c0-3 0-7-4-7h-10.4c-3.2 0-3.7 3.3-3.7 5.8-.1 4.5 6.9 4.5 7 0z"/></g><g fill="#fff"><path d="M241.2 228.8V176c0-2.7 3.2-2 5.1-2 1.2 0 4.7-.5 4.7 1.5v53.3c0 4.5 7 4.5 7 0v-52.5c0-6.5-4.8-9.2-10.7-9.2-6.3 0-13 1-13 9v52.7c0 4.5 7 4.5 7 0z"/><path d="M225.5 258.8v-55c0-5-.4-10.3.4-15 .5-2.6 5.5-1.3 7.8-1.3 2.6 0 .5 0 .5-1.1v55.8c0 4.5 7 4.5 7 0V188c0-6.8-4.6-7.5-10.3-7.5-3 0-6.6-.6-9 1.5-3.9 3.4-3.4 9.7-3.4 14.5v62.3c0 4.5 7 4.5 7 0zm32.5-20.1v-56c0 .2-2 1.3-.7 1.3h2.2c5.4 0 6.6.5 6.6 5.4v49.3c0 4.5 7 4.5 7 0V203c0-10.3 3.1-26.1-11.8-26.1-5.7 0-10.3.7-10.3 7.5v54.2c0 4.5 7 4.5 7 0z"/><path d="M273.1 245v-46.2c0 .3-2 1.2-.6 1.2h3.4c3.4 0 2.6 5.4 2.6 8v80c0 4.5 7 4.5 7 0v-83.1c0-3.1-.5-6.8-2.6-9.2-2.6-3-6-2.6-9.7-2.6-6.6 0-7 4.7-7 9.9v42c0 4.6 7 4.6 7 0zm-60 43l-12.4-52.4c-.8-3.2-1.6-4.9 2.3-6.1 1.4-.5 5.1-2.1 5.7-.1l1.5 4.6 8.4 26c1.4 4.3 8.1 2.4 6.7-1.9l-9.3-29c-1.9-5.8-5.8-8.2-12-7.2-6 .9-12.6 4.9-11 11.8l13.3 56.2c1 4.4 7.8 2.6 6.8-1.8z"/></g></svg>