<svg xmlns="http://www.w3.org/2000/svg" width="361" height="361"><path d="M177 191c0 3-12 6-27 6h-47c-15 0-27-3-27-6V80c0-3 12-5 27-5h47c15 0 27 2 27 5v111z" fill="none" stroke="#fff" stroke-width="10" stroke-miterlimit="10"/><path d="M98 121l59-10c6-2 3-11-3-10l-59 10c-6 1-3 11 3 10z" fill="#fff"/><path d="M157 121l-59-10c-6-1-9 9-3 10l59 10c6 1 9-8 3-10zm0 14l-59-10c-6-1-9 9-3 10l59 10c6 1 9-9 3-10zm0 14l-59-10c-6-1-9 9-3 10l59 10c6 1 9-9 3-10zm0 14l-59-10c-6-1-9 9-3 10l59 10c6 1 9-9 3-10zm-2-52h107c6 0 6-10 0-10H155c-6 0-6 10 0 10zm13 117h82c2 0 2-3 0-3h-82c-2 0-2 3 0 3zm115 53h5c2 0 3-1 3-3s-1-4-3-4h-5c-2 0-3 2-3 4s1 3 3 3zm-26 10h16c4 0 4-7 0-7h-16c-5 0-5 7 0 7z" fill="#fff"/><path d="M271 285h6c2 0 4-1 4-3s-2-4-4-4h-6c-2 0-3 2-3 4s1 3 3 3zm15 6h3c2 0 3-1 3-3s-2-4-3-4h-2c-2 0-4 2-4 4s2 3 4 3zm0-63h-6c-2 0-3 1-3 3s1 4 3 4h6c2 0 4-2 4-4s-2-3-4-3zm-11 12h-2c-2 0-4 2-4 4s2 3 4 3h2c2 0 3-1 3-3s-1-4-3-4zm14 17h-14c-5 1-5 8 0 8h14c4 0 4-7 0-7zm-6 9h-8c-5 0-5 7 0 7h8c5 0 5-7 0-7z" fill="#fff"/><path d="M288 252h-6c-2 0-3 1-3 3s1 4 3 4h6c2 0 4-2 4-4s-2-3-4-3zm-4-16h-6c-2 0-3 1-3 3s1 4 3 4h6c2 0 4-2 4-4s-2-3-4-3zm-57 25h-6c-2 0-3 2-3 4s1 3 3 3h6c2 0 4-2 4-3s-2-4-4-4zm61 9h-1c-2 0-3 1-3 3s1 4 3 4h1c2 0 3-2 3-4s-1-3-3-3zM74 283h7c4 0 4-7 0-7h-7c-5 0-5 7 0 7zm95-50h8c4 0 4-7 0-7h-8c-5 0-5 7 0 7zm34 8h15c5 0 5-7 0-7h-15c-4 0-4 7 0 7zm-81 50h6c2 0 4-1 4-3s-2-4-4-4h-6c-2 0-3 2-3 4s1 3 3 3zm124-7h-9c-4 0-4 7 0 7h9c5 0 5-7 0-7zm-58-38h-16c-5 0-5 7 0 7h16c4 0 4-7 0-7zm-107 3h-6c-2 0-3 2-3 4s1 3 3 3h6c2 0 4-1 4-3s-2-4-4-4zm157 9h-3c-2 0-3 2-3 4s1 3 3 3h3c2 0 4-1 4-3s-2-4-4-4zm-50-15h2c2 0 4-1 4-3s-2-4-4-4h-2c-2 0-3 2-3 4s1 3 3 3zm-94 33h-2c-2 0-4 2-4 4s2 3 4 3h2c2 0 3-2 3-3l-3-4zm102 9h-6c-2 0-3 1-3 3s1 4 3 4h6c2 0 4-2 4-4s-2-3-4-3zM86 261h-6c-2 0-3 1-3 3s1 4 3 4h6c2 0 3-2 3-4s-1-3-3-3zm92 1h9c5 0 5-7 0-7h-9c-4 0-4 7 0 7zm28 30h16c4 0 4-7 0-7h-16c-5 0-5 7 0 7zm34-42h6c2 0 4-2 4-4s-2-3-4-3h-6c-2 0-3 1-3 3s1 4 3 4z" fill="#fff"/><path d="M284 249h2c2 0 4-2 4-4s-2-3-4-3h-2c-2 0-3 1-3 3s1 4 3 4zm-67 9h-6c-2 0-3 2-3 4s1 3 3 3h6c2 0 4-2 4-3s-2-4-4-4z" fill="#fff"/><path d="M219 252h-15c-4 0-4 7 0 7h15c5 0 5-7 0-7zm28 8h-6c-1 1-3 2-3 4s2 4 3 4h6c2 0 4-2 4-4s-2-3-4-3zm1-32h-9c-5 0-5 7 0 7h9c4 0 4-7 0-7zm-3 25h-16c-5 0-5 7 0 7h16c4 0 4-7 0-7zM80 231h-6c-2 0-4 2-4 4s2 3 4 3h6c2 0 3-1 3-3s-2-4-3-4zm134 13h-2c-2 0-4 1-4 3s2 4 4 4h2c2 0 3-2 3-4s-1-3-3-3zm-69 47h6c2 0 3-1 3-3s-1-4-3-4h-6c-2 0-4 2-4 4s2 3 4 3zm-59 0h15c5 0 5-7 0-7H86c-5 0-5 7 0 7zm-6-41h6c2 0 3-2 3-4s-1-3-3-3h-6c-2 0-4 1-4 3s2 4 4 4zm91 19h9c4 0 4-7 0-7h-9c-5 0-5 7 0 7zm-11 23h16c4 0 4-7 0-7h-16c-5 0-5 7 0 7zm64-42h6c2 0 4-2 4-4s-2-3-4-3h-6c-2 0-3 1-3 3s1 4 3 4zm-48-12h2c2 0 4-2 4-4s-2-3-4-3h-2c-2 0-3 1-3 3s1 4 3 4z" fill="#fff"/><path d="M180 236h-11c-5 0-5 7 0 7h11c4 0 4-7 0-7zm27 25h-12c-4 0-4 7 0 7h12c5 0 5-7 0-7zm23-30h-6c-2 0-3 1-3 3s1 4 3 4h6c2 0 4-2 4-4s-2-3-4-3zm-38 15h-9c-5 0-5 7 0 7h9c4 0 4-7 0-7z" fill="#fff"/><path d="M200 243h-4c-1 0-3 1-3 3s2 4 4 4h3c2 0 3-2 3-4s-1-3-3-3zM89 226h-6c-2 0-3 1-3 3s1 4 3 4h6c2 0 4-2 4-4s-2-3-4-3zm-2 55h-5c-2 0-4 1-4 3s2 4 4 4h5c2 0 4-2 4-4s-2-3-4-3zm99-14h6c5 0 5-7 0-7h-6c-4 0-4 7 0 7zm-47 16h-2c-2 0-4 1-4 3s2 4 4 4h2c2 0 3-2 3-4s-1-3-3-3zm77-55h-20c-5 0-5 7 0 7h20c5 0 5-7 0-7zm-111 63h6c2 0 3-1 3-3s-1-4-3-4h-6c-2 0-3 2-3 4s1 3 3 3z" fill="#fff"/><path d="M73 290h2c2 0 4-1 4-3s-2-4-4-4h-2c-2 0-3 2-3 4s1 3 3 3zm8-50h2c2 0 4-2 4-4s-2-3-4-3h-2c-2 0-3 1-3 3s1 4 3 4zm1 29h-5c-2 0-4 2-4 4s2 3 4 3h5c2 0 4-1 4-3s-2-4-4-4zm167-31h-11c-5 0-5 7 0 7h11c5 0 5-7 0-7zM83 257H73c-4 0-4 7 0 7h10c5 0 5-7 0-7zm36 23h-11c-4 0-4 7 0 7h11c5 0 5-7 0-7zm165-123a23 23 0 0 1-22 22c-13 0-22-10-23-22 0-12 11-22 22-22 13-1 22 10 23 22 0 4 7 4 7 0a30 30 0 0 0-29-29c-17-1-29 13-30 29 0 16 14 29 29 29 17 0 29-14 30-29 0-5-7-5-7 0z" fill="#fff"/><path d="M271 130a3 3 0 0 1-3 3h-13a3 3 0 0 1-3-3v-6a3 3 0 0 1 3-3h13a3 3 0 0 1 3 3v6zm0 60a3 3 0 0 1-3 3h-13a3 3 0 0 1-3-3v-6a3 3 0 0 1 3-3h13a3 3 0 0 1 3 3v6z" fill="#fff"/><path d="M273 194c0 2-1 3-2 3h-19c-1 0-2-1-2-3v-1l2-3h19l2 3v1zm-14-15h-41c-1 0 0 1 0 0v-44c0-1 0 0 0 0h41c4 0 4-7 0-7h-37c-5 0-11 0-11 7v39c0 5 0 12 7 12h41c4 0 4-7 0-7zm-57-48v51c0 5 7 5 7 0v-51c0-4-7-4-7 0zM98 243l59-10c6-1 3-11-3-10l-59 10c-6 2-3 11 3 10zm59 15l-59-10c-6-1-9 8-3 10l59 10c6 1 9-9 3-10zm0 14l-59-10c-6-1-9 8-3 10l59 10c6 1 9-9 3-10z" fill="#fff"/><path d="M159 282h103c6 0 6-10 0-10H159c-7 0-7 10 0 10zm-2-39l-59-10c-6-1-9 9-3 10l59 10c6 1 9-9 3-10zm-7-75v60c0 7 10 7 10 0v-60c0-6-10-6-10 0z" fill="#fff"/><path d="M257 192v85c0 6 10 6 10 0v-85c0-7-10-7-10 0zm-1-86v22c0 6 10 6 10 0v-22c0-6-10-6-10 0zm16 122h18c2 0 2-3 0-3h-18c-2 0-2 3 0 3zm-200 0h32c2 0 2-3 0-3H72c-2 0-2 3 0 3z" fill="#fff"/></svg>