<svg xmlns="http://www.w3.org/2000/svg" width="361" height="361"><path d="M106 138c1 6 7 7 11 7h62c4 0 11 0 12-6s0-14-8-14h-71c-6 2-7 7-7 12 1 5 8 5 8 0 0-2-1-5 1-5h69c2 0 2 6-1 6h-59c-1 0-10 1-11-2 0-4-7-2-6 2z" fill="#fff"/><path d="M126 142v13c0 5 7 5 7 0v-13c0-5-7-5-7 0zm-10 0v13c0 5 7 5 7 1v-14c0-4-7-4-7 0z" fill="#fff"/><path d="M202 189v33c0 1 1 0 0 0h-20v-28a5 5 0 0 0-5-5h-27a5 5 0 0 0-5 5v3h1-41v-3a5 5 0 0 0-5-5H79v-17l4-1h17v-10l5 5v-3c0-2 0-1-1-1h42c-2 0-1-1-1 1v3a5 5 0 0 0 5 5h52v18c0 7 10 7 10 0v-20c-4-8-11-8-18-8h-44l5 5c0-6-1-14-10-14h-40c-9 0-10 7-10 14a5 5 0 0 0 5 5c6 0 7-10 0-10H80c-11 0-11 11-11 19s-1 19 11 19h20l-5-5c0 7 3 13 10 13h39c8 0 11-6 11-13l-5 5h27l-5-5v27c0 13 15 11 24 11 5 0 9 0 13-3s3-8 3-12v-28c0-6-10-6-10 0z" fill="#fff"/><path d="M269 216c0 2-2 3-4 3h-13c-2 0-4-1-4-3v-93c0-2 2-4 4-4h13c2 0 4 2 4 3v94z" fill="none" stroke="#fff" stroke-width="10" stroke-miterlimit="10"/><path d="M274 244c0 2-1 4-3 4h-26l-2-4v-21l2-4h26c2 0 3 2 3 4v21z" fill="#fff" stroke="#fff" stroke-width="10" stroke-miterlimit="10"/><path d="M277 131h11c6 0 6-10 0-10h-11c-7 0-7 10 0 10zm0 25h11c6 0 6-10 0-10h-11c-7 0-7 10 0 10zm0 25h11c6 0 6-10 0-10h-11c-7 0-7 10 0 10zm0 26h11c6 0 6-10 0-10h-11c-7 0-7 10 0 10z" fill="#fff"/><path fill="#fff" stroke="#fff" stroke-width="10" stroke-miterlimit="10" d="M248 144h21v85h-21z"/></svg>