<svg xmlns="http://www.w3.org/2000/svg" width="361" height="361"><path d="M105.6 138.3c1 6 7 6.4 11.9 6.4h61.4c4.3 0 11.2.1 12.1-5.4 1.2-6.5 0-14.2-8.4-14.2h-64.2c-2 0-4.7-.4-6.6.2-6.2 2-6.3 6.5-6.3 12 0 4.6 7 4.6 7 0 0-2-1-5.3 1.8-5.3h68.5c2.5 0 2.5 5.7-.5 5.7h-59c-1.3 0-10.5 1.3-11-1.3-.7-4.4-7.5-2.5-6.7 1.9z" fill="#fff"/><path d="M126.2 141.6V155c0 4.5 7 4.5 7 0v-13.4c0-4.6-7-4.6-7 0zm-10.3.5v13.4c0 4.6 7 4.6 7 0v-13.4c0-4.5-7-4.5-7 0z" fill="#fff"/><path d="M201.8 189v32.6c0 1.1 1.3 0-.1 0h-18.9c-1.8 0-.6.6-.6.2v-27.5a5 5 0 0 0-5-5h-27.5a5 5 0 0 0-5 5v2.5c0 .8 2.1 0 .9 0h-41.3c-1.6 0 .6 0 .7.3v-2.8a5 5 0 0 0-5-5H83.6c-.6 0-4.3.4-4.3-.3v-17c0-1.3 2.5-.6 3.5-.6H100v-10l5 5V163c0-1.7.3-1.3-1.3-1.3h42.2c-1.5 0-1.2-.5-1.2 1.3v3.4a5 5 0 0 0 5 5c13-.3 26 0 38.9 0 .8 0 13.2-.3 13.2 0 .8 5.8 0 12.1 0 17.9 0 6.5 10 6.5 10 0v-9.4c0-3.1 1-8.2-.3-11.1-3.5-8.3-10.6-7.4-18-7.4-14.6 0-29.2-.3-43.8 0l5 5c0-6.9-1-14.7-9.7-14.7h-40c-8.8 0-10 7.5-10 14.7a5 5 0 0 0 5 5c6.4-.2 6.5-10 0-10H80c-11 0-10.7 10.6-10.7 18.5 0 7.8-.9 19.4 10.3 19.4H100l-5-5c0 7.1 2.8 12.6 10.4 12.6h38.8c7.7 0 10.5-5.5 10.5-12.6l-5 5h27.5l-5-5v26.8c0 13.2 14.8 10.5 23.7 10.5 4.9 0 9.2.6 13.2-2.7 3.5-2.8 2.7-8.4 2.7-12.3V189c0-6.5-10-6.5-10 0z" fill="#fff"/><path d="M268.6 216c0 1.8-1.6 3.3-3.6 3.3h-13.4c-2 0-3.6-1.5-3.6-3.4v-93.4c0-1.8 1.6-3.4 3.6-3.4H265c2 0 3.6 1.6 3.6 3.4V216z" fill="none" stroke="#fff" stroke-width="10" stroke-miterlimit="10"/><path d="M274.1 244c0 2-1.3 3.7-2.8 3.7h-26c-1.5 0-2.8-1.7-2.8-3.7v-21c0-2 1.3-3.7 2.9-3.7h25.9c1.5 0 2.8 1.6 2.8 3.6V244z" fill="#fff" stroke="#fff" stroke-width="10" stroke-miterlimit="10"/><path d="M276.6 131.4h10.9c6.5 0 6.5-10 0-10h-11c-6.4 0-6.4 10 0 10zm0 24.4h10.9c6.5 0 6.5-10 0-10h-11c-6.4 0-6.4 10 0 10zm0 25h10.9c6.5 0 6.5-10 0-10h-11c-6.4 0-6.4 10 0 10zm0 26h10.9c6.5 0 6.5-10 0-10h-11c-6.4 0-6.4 10 0 10z" fill="#fff"/><path fill="#fff" stroke="#fff" stroke-width="10" stroke-miterlimit="10" d="M248 144.4h20.6v84.4H248z"/></svg>