<svg xmlns="http://www.w3.org/2000/svg" width="361" height="361"><path d="M171.5 115.5v47.8l1-2.5c-5.2 4.3-14.3 11.6-14.3 19 0 8.3 8.3 15.1 14.3 20.2l-1-2.5v30.6c0 8.3-3.5 26.8 9.5 26.8s9.5-18.3 9.5-26.6v-31.2l-1 2.5c5-4.5 13.7-11.2 13.7-18.5 0-8.4-8-14.6-13.7-19.9l1 2.5v-36.9c0-3.9 1.1-9.7-.2-13.5a9.6 9.6 0 0 0-18.8 2.2c-.5 4.4 6.5 4.4 7 0s5-1.1 5 1.6v46.5c0 2.2 2.2 3.7 3.6 5l7.3 7.3c6.1 6.2-5.2 14.1-9.2 18.1-2.8 2.8-1.7 8.2-1.7 11.8v39.6c0 3.3-5 3.2-5 0v-47c0-4.4-7-9.2-10-12.2s-4.8-6.9-1.2-10.5l7.6-7.6c1.5-1.5 3.6-2.7 3.6-5v-47.8c0-4.5-7-4.5-7 0z" fill="#fff"/><path d="M75.2 106.2h211.6c6.5 0 6.5-10 0-10H75.2c-6.5 0-6.5 10 0 10zm-.4 159h211.7c6.4 0 6.4-10 0-10H74.8c-6.4 0-6.4 10 0 10z" fill="#fff"/></svg>