<svg xmlns="http://www.w3.org/2000/svg" width="361" height="361"><path d="M190.9 280.9c-.2 2-22.3.8-24.2.8h-83c-1.6 0-3.4.4-3.4-1.7V158.2c0-1.7 22.5-.7 24.2-.7h83c1.6 0 3.4-.5 3.4 1.6v121.8c0 6.4 10 6.4 10 0V169.3c0-8.4 1.6-21.9-10.9-21.9H82.5c-6.3 0-12.2 4-12.2 10.8v122c0 12 11.3 11.5 19.8 11.5h99.6c6.5 0 10.5-4.7 11.2-10.8.7-6.4-9.3-6.3-10 0z" fill="#fff"/><path d="M182.8 147.4H89.2l4.3 7.6 9.3-19.6-4.4 2.4h75.1l-4.3-2.4 9.2 19.6c2.8 5.8 11.4.7 8.7-5l-9.3-19.7c-.7-1.5-2.6-2.5-4.3-2.5h-75c-1.7 0-3.7 1-4.4 2.5L85 150c-1.6 3.4.3 7.6 4.3 7.6h93.5c6.5 0 6.5-10 0-10zM71.2 101.5h219.3c2 0 2-3 0-3H71.2c-2 0-2 3 0 3zm0 11.3h219.3c2 0 2-3 0-3H71.2c-2 0-2 3 0 3z" fill="#fff"/><path d="M206.6 109.6a4.3 4.3 0 0 1-4.3 4.3h-33a4.3 4.3 0 0 1-4.3-4.3V102a4.3 4.3 0 0 1 4.3-4.3h33a4.3 4.3 0 0 1 4.3 4.3v7.6z" fill="#fff"/><path d="M171.3 100.1l9.7 9.7a7.6 7.6 0 0 0 10.6 0 7.6 7.6 0 0 0 0-10.6l-9.8-9.7a7.6 7.6 0 0 0-10.6 0 7.6 7.6 0 0 0 0 10.6zm-17-14.6l13-13c1.3-1.3-.8-3.4-2.2-2l-12.9 12.9c-1.3 1.4.8 3.5 2.1 2.1z" fill="#fff"/><path d="M158.8 82l13.7 13.8c3.2 3.2 8.2-1.8 5-5l-13.7-13.7c-3.2-3.2-8.1 1.8-5 5zm71.7-9.1h18.3c2 0 2-3 0-3h-18.3c-2 0-2 3 0 3zm1.6 22.5v2.3a7.6 7.6 0 0 0 7.5 7.5 7.6 7.6 0 0 0 7.6-7.4v-2.3a7.6 7.6 0 0 0-7.5-7.5 7.6 7.6 0 0 0-7.6 7.5z" fill="#fff"/><path d="M236.2 73.6V93c0 4.5 7 4.5 7 0V73.6c0-4.5-7-4.5-7 0zm14.8 36a4.3 4.3 0 0 1-4.3 4.3h-14a4.3 4.3 0 0 1-4.3-4.3V102a4.3 4.3 0 0 1 4.2-4.3h14a4.3 4.3 0 0 1 4.4 4.3v7.6zM267 73h18.3c2 0 2-3 0-3H267c-2 0-2 3 0 3zm1.7 22.5v2.3a7.6 7.6 0 0 0 7.4 7.5 7.6 7.6 0 0 0 7.6-7.4v-2.3a7.6 7.6 0 0 0-7.5-7.5 7.6 7.6 0 0 0-7.6 7.5z" fill="#fff"/><path d="M272.6 73.6V93c0 4.5 7 4.5 7 0V73.6c0-4.5-7-4.5-7 0zm14.8 36a4.3 4.3 0 0 1-4.2 4.3h-14a4.3 4.3 0 0 1-4.3-4.3V102a4.3 4.3 0 0 1 4.2-4.3h14a4.3 4.3 0 0 1 4.3 4.3v7.6z" fill="#fff"/><path d="M266.5 109.6a4.3 4.3 0 0 1-4.2 4.3h-8a4.3 4.3 0 0 1-4.3-4.3V102a4.3 4.3 0 0 1 4.2-4.3h8a4.3 4.3 0 0 1 4.3 4.3v7.6z" fill="#fff"/><g fill="#fff"><path d="M235.5 113.7c-.1 23.6-3.3 47.7-11.9 69.8C219 195.3 210 214.7 195 215c-2 0-2 3 0 3 15.3-.4 24.6-17.6 30-29.6a188.2 188.2 0 0 0 13.6-74.7c0-2-3-2-3 0z"/><path d="M240.3 110.7c0 26.4-3 53.7-13.5 78.2-5.7 13.5-16.2 31-32.8 31.3-2 0-2 3 0 3 17-.3 28-16.7 34.4-30.5 11.8-25.3 14.8-54.5 15-82 0-2-3-2-3 0z"/></g><g fill="#fff"><path d="M272.6 112.2c-.2 28.4-6.7 57.2-22.3 81.2-12.3 19-31.9 34.5-55.4 34.8-2 0-2 3 0 3 23.9-.3 43.3-15.2 56.6-34.1 17.1-24.5 24-55.4 24-85 0-1.9-3-1.9-3 0z"/><path d="M277.6 110.7c-.1 30-6.6 60.8-23.2 86.2-13.4 20.4-34.5 35.8-59.5 36-2 0-2 3 0 3 61.8-.5 85.5-74.6 85.7-125.2 0-2-3-2-3 0z"/></g><path d="M107.7 236.7a168 168 0 0 0-7-11.3 115.1 115.1 0 0 0-8-10.5v21.8h-7.4v-33.3h6.1a59 59 0 0 1 3.5 3.9 143.3 143.3 0 0 1 4 5 172.8 172.8 0 0 1 4 5.3 281.4 281.4 0 0 1 3.6 5.4v-19.6h7.4v33.3h-6.2zm21.5-26c2.1 0 3.9.3 5.3.8a8.2 8.2 0 0 1 3.4 2 7.6 7.6 0 0 1 1.8 3.3c.3 1.3.5 2.7.5 4.3V236l-4.3.7a41.7 41.7 0 0 1-11 0 9.7 9.7 0 0 1-3.5-1.3 6.5 6.5 0 0 1-2.2-2.6 8.9 8.9 0 0 1-.7-4 8 8 0 0 1 .8-3.6 6.8 6.8 0 0 1 2.4-2.5c1-.6 2.2-1 3.4-1.3a19.2 19.2 0 0 1 4-.4 22.9 22.9 0 0 1 4.3.4v-.7a4 4 0 0 0-1.2-2.9c-.7-.7-2-1.1-3.8-1.1a25.4 25.4 0 0 0-6.7 1l-.9-5.7a23 23 0 0 1 3.6-.8 62.4 62.4 0 0 1 4.8-.4zm.6 21h2a13.5 13.5 0 0 0 1.5-.2V226l-1.3-.2a14.4 14.4 0 0 0-1.5-.1h-2a5 5 0 0 0-1.5.6c-.4.2-.8.5-1 .9s-.4.8-.4 1.4c0 1.1.3 1.9 1.1 2.3.7.5 1.8.7 3.1.7zm31.5 5.6c-5.4 0-9.5-1.5-12.3-4.5s-4.3-7.2-4.3-12.8c0-2.7.5-5.2 1.3-7.4a14.9 14.9 0 0 1 9-8.8 19.4 19.4 0 0 1 6.7-1.2 22.4 22.4 0 0 1 6.9 1 15 15 0 0 1 3.4 1.6l-2.2 6a17 17 0 0 0-8.2-2c-1.1 0-2.2.3-3.4.6s-2 1-2.9 1.9a9.2 9.2 0 0 0-2 3.3 13.8 13.8 0 0 0-.8 4.9c0 1.5.2 3 .5 4.3a9.1 9.1 0 0 0 1.6 3.4 7.8 7.8 0 0 0 3 2.3c1.2.5 2.7.8 4.4.8a20.1 20.1 0 0 0 5.2-.6 11.9 11.9 0 0 0 1.8-.6l1.4-.7 2 6a17.5 17.5 0 0 1-4.4 1.8 26.1 26.1 0 0 1-6.7.7zm24.6-.2a17.8 17.8 0 0 1-5-.6 7 7 0 0 1-3.2-1.8 5.8 5.8 0 0 1-1.5-2.7 15 15 0 0 1-.4-3.6v-27.8l7.2-1.2v29.3l.6 1.3c.3.3.7.6 1.2.8.5.2 1.2.4 2 .4l-1 6z" fill="#fff"/></svg>