<svg xmlns="http://www.w3.org/2000/svg" width="361" height="361"><path d="M240 138c0-2-2-4-4-4h-17c-2 0-3 2-3 4v9c0 2 1 4 3 4h17c2 0 4-2 4-4v-9z" fill="#fff"/><path d="M243 132c0-3-1-5-3-5h-25c-1 0-2 2-2 5v1l2 4h25c2 0 3-2 3-4v-1zm-94 3a2 2 0 0 1-3 2h-45a2 2 0 0 1-3-2v-13a2 2 0 0 1 3-2h45a2 2 0 0 1 3 2v13zm35 69c-1 7-6 7-11 7H92c-5 0-10 1-12-4v-53c2-5 7-5 12-5h81c5 0 10 1 11 8v47c0 6 10 6 10 0v-37l-1-15c-2-8-10-12-18-12H87c-9 0-17 8-17 17v39c0 6 0 11 2 17 3 6 10 8 17 8h87c10 0 17-8 18-17 0-6-10-6-10 0z" fill="#fff"/><path d="M282 202a11 11 0 0 1-11 11h-72a11 11 0 0 1-11-11v-43a11 11 0 0 1 11-11h72a11 11 0 0 1 11 11v43z" fill="#fff"/><path d="M197 223c0 3-2 5-4 5h-7c-2 0-3-2-3-5v-85c0-2 1-4 3-4h7c2 0 4 2 4 4v85z" fill="#fff"/><path d="M190 162H96c-5 0-5 7 0 7h94c4 0 4-7 0-7zm0 10H96c-5 0-5 7 0 7h94c4 0 4-7 0-7zm0 10H96c-5 0-5 7 0 7h94c4 0 4-7 0-7zm0 10H96c-5 0-5 7 0 7h94c4 0 4-7 0-7zm-3-40H99c-4 0-4 7 0 7h88c5 0 5-7 0-7zm0 50H99c-4 0-4 7 0 7h88c5 0 5-7 0-7zm101 0c2 0 3-1 3-3v-15c0-2-1-4-4-4h-8c-2 0-4 2-4 4v15c0 2 2 3 4 3h9zm-103 39a3 3 0 0 1-2 2h-54a3 3 0 0 1-2-3v-12a3 3 0 0 1 2-2h54a3 3 0 0 1 2 2v13z" fill="#fff"/><path fill="#fff" d="M174 215h12v26h-12z"/></svg>