<svg xmlns="http://www.w3.org/2000/svg" width="361" height="361"><path d="M166 204l1-6V77h-1 6c2 0 0-1 0 0v127h1-8c-4 0-4 7 0 7 6 0 14 1 14-7V79c0-4 0-9-5-9-6 0-14-2-14 7v113c0 5-3 19 5 21 4 1 6-6 1-7zm-75 0V77c0-1-2 0 0 0h6c2 0 0-1 0 1v127l1-1h-8c-4 0-4 7 0 7 6 0 14 1 14-7V80c0-4-1-9-6-9s-14-1-14 7v113c0 6-2 19 5 21 4 1 6-5 2-7zm38 0V77c0-1-2 0 0 0h6c2 0 0-1 0 1v127l1-1h-8c-4 0-4 7 0 7 6 0 14 1 14-7V80c0-4-1-9-6-9s-14-1-14 7v113c0 6-2 19 5 21 4 1 6-5 2-7z" fill="#fff"/><path d="M87 193l-1 2H76v-13h11l1 3v8z" fill="#fff"/><path d="M83 193c0 1 0 1 0 0l4-1H75l3 1v-9l-3 2h12l-3-2c-1-1-1 1-1 1v8c0 4 7 4 7 0s2-14-4-14H75c-3 0-4 3-4 6v7c0 3 0 7 5 7h11c3 0 3-4 3-6 0-5-7-5-7 0zm42 0v2h-23l-1-2v-9l1-2h23v11z" fill="#fff"/><path d="M122 193l3-2h-23l3 2a20 20 0 0 1 0-9l-3 2h23l-3-2v9c0 4 7 4 7 0 0-3 1-9-1-12s-5-2-9-2h-14c-4 0-7 0-7 5v12c2 3 6 2 9 2h14c5 1 7 0 8-5 0-5-7-5-7 0zm41 0v2h-23l-1-2v-8l1-3h23v11z" fill="#fff"/><path d="M160 193l3-1h-23l3 1a18 18 0 0 1 0-9l-3 2h23l-3-2v9c0 4 7 4 7 0 0-3 1-9-1-12s-5-2-9-2h-14c-4 0-7 0-8 6l1 11c2 3 5 3 9 3h14c5 0 7-1 8-6 0-5-7-5-7 0zm16-9v-2h11v13h-11v-11z" fill="#fff"/><path d="M179 184c0-1 0-1 0 0l-3 1h11l-3-1c-1-1-1 0-1 1v6c0 1 0 3 1 2l3-2h-11l3 2v-9c0-4-7-4-7 0s-1 14 4 14h11c3 0 3-3 3-6v-7c0-3 0-7-4-7h-10c-3 0-4 4-4 6 0 5 7 5 7 0zM87 97l-1 2H75V86h11l1 3v8z" fill="#fff"/><path d="M83 97v1l4-2H75l3 1v-9l-3 2h12l-3-2c-1-1-1 1-1 1v8c0 5 7 5 7 0 0-4 2-14-4-14H75c-3 0-4 3-4 6v7c0 3 0 7 5 7h11c3 0 3-4 3-6 0-5-7-5-7 0z" fill="#fff"/><g fill="#fff"><path d="M125 97v2h-23l-1-2v-9l1-2h23v11z"/><path d="M122 97l3-1h-23l3 1a20 20 0 0 1 0-9l-3 2h23l-3-2v9c0 4 7 4 7 0 0-3 1-9-1-12s-5-2-9-2h-14c-4 0-7 0-7 5v12c2 3 6 3 9 3h14c5 0 7-1 8-6 0-5-7-5-7 0z"/></g><g fill="#fff"><path d="M163 97v2h-23l-1-2v-8l1-2h23v10z"/><path d="M160 97l3-1h-23l3 1a18 18 0 0 1 0-9l-3 2h23l-3-2v9c0 5 7 5 7 0 0-3 1-9-1-12s-5-2-9-2h-14c-4 0-7 0-8 6l1 11c2 3 5 3 9 3h14c5 0 7-1 8-6 0-5-7-5-7 0z"/></g><path d="M205 97h1l3-1h-12l3 1v-9l-3 2h12l-3-2c-1-1-1 1-1 1v8c0 5 7 5 7 0 0-4 2-14-4-14h-11c-3 0-3 3-4 6v7c0 3 1 7 5 7h11c3 0 3-4 3-6 1-5-6-4-7 0z" fill="#fff"/><g fill="#fff"><path d="M176 89v-3h11v13h-11V89z"/><path d="M179 89v-1l-3 2h11l-3-2v9l3-1h-11l3 1v-8c0-5-7-5-7 0 0 3-1 14 4 14h11c3 0 3-4 3-6v-7c0-3 0-7-4-7h-10c-3 0-4 3-4 6 0 4 7 4 7 0z"/></g><path d="M199 246c0-1 1 0 0 0h-15l1 1v-26l-1 2h15c-1 0-1-3-1-1v25c0 4 7 4 7 0v-27c-2-6-9-4-14-4s-11-2-13 4c-2 4 0 10 0 14v13c0 7 8 6 13 6s12 1 14-5c2-4-5-6-7-2zm28-1s2 0 0 0h-14v1-35 1h15-1v34c0 5 7 5 7 0v-34c0-7-6-7-11-7-6 0-15-2-17 5v35c0 6 5 7 10 7 6 0 16 3 18-5 1-4-6-6-7-2zm29 0s1 0 0 0h-15 1v-45h14c1 0 0 0 0 0v46c0 5 7 5 7 0v-37c0-4 1-11-2-14-2-2-5-2-8-2h-11c-6 0-7 5-7 10v41c0 7 4 8 9 8 6 0 17 3 18-5 1-5-5-6-6-2z" fill="#fff"/><path d="M284 245s2 0 0 0h-14v1-61c1 1-1 1 1 1h14-1v60c0 4 7 4 7 0v-55c0-4 1-11-4-12h-17c-6 0-6 6-6 10v43c0 6-2 16 3 20 3 2 10 0 13 0 5 0 10 1 11-5 1-5-6-6-7-2zm-85 46l-1-7h-10l-1 7h-8a284 284 0 0 1 5-17 1214 1214 0 0 1 5-14h8a392 392 0 0 1 5 14 297 297 0 0 1 5 17h-8zm-6-25a204 204 0 0 0-1 3l-1 4a80 80 0 0 0-1 3v3h6v-3a56 56 0 0 0-1-3 132 132 0 0 0-1-3l-1-4zm28 26a17 17 0 0 1-5-1 9 9 0 0 1-4-3 9 9 0 0 1-2-3 19 19 0 0 1 0-5v-20h7v25l2 1a8 8 0 0 0 5 0 3 3 0 0 0 1-1l1-2v-23h7v25a9 9 0 0 1-2 3 9 9 0 0 1-4 3 18 18 0 0 1-6 1zm41-32v5h-9v26h-7v-26h-9v-5h26zm4 16c0-6 1-10 3-12 2-3 5-4 9-4s7 1 10 4c2 2 3 6 3 12s-1 9-4 12c-2 2-5 4-9 4s-7-2-9-4a19 19 0 0 1-4-12zm7 0v7l2 2 3 1a5 5 0 0 0 3-1 5 5 0 0 0 2-2v-3a41 41 0 0 0 0-9v-3a6 6 0 0 0-2-2l-3-1-3 1-2 2v3a41 41 0 0 0-1 5z" fill="#fff"/></svg>