<svg xmlns="http://www.w3.org/2000/svg" width="361" height="361"><path d="M177 281.4c0 2.9-12.2 5.3-27.3 5.3H103c-15.2 0-27.4-2.4-27.4-5.3V79.9c0-3 12.2-5.3 27.4-5.3h46.7c15.1 0 27.4 2.4 27.4 5.3v201.5z" fill="none" stroke="#fff" stroke-width="10" stroke-miterlimit="10"/><path d="M98 217l58.8-10c6.3-1 3.6-10.6-2.7-9.6l-58.8 10c-6.3 1.1-3.6 10.7 2.7 9.7z" fill="#fff"/><path d="M156.8 217.9l-58.8-10c-6.3-1-9 8.6-2.7 9.7l58.8 10c6.3 1 9-8.6 2.7-9.7zm0 14l-58.8-10c-6.3-1.1-9 8.5-2.7 9.6l58.8 10c6.3 1 9-8.6 2.7-9.6zm0 14l-58.8-10c-6.3-1.1-9 8.5-2.7 9.6l58.8 10c6.3 1 9-8.6 2.7-9.7zm0 13.9l-58.8-10c-6.3-1-9 8.6-2.7 9.7l58.8 10c6.3 1 9-8.6 2.7-9.7zm1.7-52.5h41.2c6.4 0 6.4-10 0-10h-41.2c-6.5 0-6.5 10 0 10z" fill="#fff"/><path d="M158.5 269.9h41.2c6.4 0 6.4-10 0-10h-41.2c-6.5 0-6.5 10 0 10z" fill="#fff"/><path d="M268.6 216c0 1.8-1.6 3.3-3.6 3.3h-13.4c-2 0-3.6-1.5-3.6-3.4v-93.4c0-1.8 1.6-3.4 3.6-3.4H265c2 0 3.6 1.6 3.6 3.4V216z" fill="none" stroke="#fff" stroke-width="10" stroke-miterlimit="10"/><path d="M274.1 244c0 2-1.3 3.7-2.8 3.7h-26c-1.5 0-2.8-1.7-2.8-3.7v-21c0-2 1.3-3.7 2.9-3.7h25.9c1.5 0 2.8 1.6 2.8 3.6V244z" fill="#fff" stroke="#fff" stroke-width="10" stroke-miterlimit="10"/><path d="M276.6 131.4h10.9c6.5 0 6.5-10 0-10h-11c-6.4 0-6.4 10 0 10zm0 24.4h10.9c6.5 0 6.5-10 0-10h-11c-6.4 0-6.4 10 0 10zm0 25h10.9c6.5 0 6.5-10 0-10h-11c-6.4 0-6.4 10 0 10zm0 26h10.9c6.5 0 6.5-10 0-10h-11c-6.4 0-6.4 10 0 10z" fill="#fff"/><path fill="#fff" stroke="#fff" stroke-width="10" stroke-miterlimit="10" d="M248 185.9h20.6v43H248z"/></svg>