<svg xmlns="http://www.w3.org/2000/svg" width="361" height="361"><g fill="#fff"><path d="M193 221c0-2 1-3 2-3h12c2 0 3 1 3 3v6c0 2-1 3-3 3h-12c-1 0-2-1-2-3v-6z"/><path d="M191 216c0-1 0-3 2-3h17l2 3v1c0 2-1 3-2 3h-17c-1 0-2-1-2-3v-1zm40 2l2 2h33a2 2 0 0 0 2-2v-10l-2-1h-33a2 2 0 0 0-2 1v10zm-45 49a8 8 0 0 0 8 9h18a8 8 0 0 0 8-9v-31a8 8 0 0 0-9-9h-17a8 8 0 0 0-8 9v31z"/><path d="M213 283c0 2 2 4 3 4h5c1 0 3-2 3-4v-63c0-2-2-3-3-3h-5c-1 0-3 1-3 3v63z"/><path d="M223 269c0 5 4 5 8 5h45c3 0 7 1 8-3l1-11v-17l-1-11c-1-4-5-3-8-3h-45c-4 0-8 0-8 5v35c0 5-8 5-8 0v-28l1-11c2-6 7-9 13-9h50a13 13 0 0 1 13 13v29c0 5 0 9-2 12-2 5-7 7-12 7h-50c-7 0-12-6-13-13 0-5 7-5 8 0z"/><path d="M219 238h54c3 0 3 5 0 5h-54c-4 0-4-5 0-5zm0 7h54c3 0 3 6 0 6h-54c-4 0-4-6 0-6zm0 8h54c3 0 3 5 0 5h-54c-4 0-4-5 0-5zm0 7h54c3 0 3 5 0 5h-54c-4 0-4-5 0-5zm1-30h50c3 0 3 6 0 6h-50c-3 0-3-6 0-6zm0 38h50c3 0 3 5 0 5h-50c-3 0-3-5 0-5zm-35 0c-1 0-2-1-2-3v-11l2-2h7l2 2v11c0 2-1 3-2 3h-7zm37 22l2 2h30a2 2 0 0 0 2-2v-3a2 2 0 0 0-2-2h-30a2 2 0 0 0-2 2v3z"/><path d="M222 278h8v12h-9z"/></g><path d="M209 217c0-26-1-54-10-80-6-18-19-34-40-34-9 0-9 15 0 15 15 0 22 13 27 27 7 23 8 48 8 72 0 10 15 10 15 0z" fill="#fff"/><path d="M146 140c12 1 22 9 22 21l1 8v84l-1 10a22 22 0 0 1-22 18h-38c-8 0-14-1-20-6a23 23 0 0 1-6-18v-95a22 22 0 0 1 22-22h42c7 0 7-10 0-10h-37a45 45 0 0 0-19 4 32 32 0 0 0-18 26v102c1 11 8 21 17 26a41 41 0 0 0 20 3h37c19 0 33-16 33-34v-94c0-18-15-32-33-33-6 0-6 10 0 10z" fill="#fff"/><path d="M71 178h108c2 0 2-3 0-3H71c-2 0-2 3 0 3zm0 68h108c2 0 2-3 0-3H71c-2 0-2 3 0 3zm71-115a6 6 0 0 1-6 6h-22a6 6 0 0 1-6-6V93a6 6 0 0 1 6-6h22a6 6 0 0 1 6 6v38z" fill="#fff"/><path d="M160 115a4 4 0 0 1-4 4h-18a4 4 0 0 1-4-4v-9a4 4 0 0 1 4-5h18a4 4 0 0 1 4 5v9zm-26-30c-1-5-6-9-11-11a85 85 0 0 0-30-4c-5 0-5 7 0 7 7 0 15 0 22 2 2 1 11 3 12 6 0 5 7 5 7 0z" fill="#fff"/><path d="M129 89a4 4 0 0 1-4 4h-2a4 4 0 0 1-4-4v-7a4 4 0 0 1 4-4h2a4 4 0 0 1 4 4v7zm-12 26a4 4 0 0 1-4 4H95a4 4 0 0 1-4-4v-9a4 4 0 0 1 4-5h18a4 4 0 0 1 4 5v9z" fill="#fff"/><path d="M148 122c0 4-3 7-8 7h-30c-4 0-8-3-8-7V99c0-4 4-7 8-7h30c4 0 8 3 8 7v23z" fill="#fff"/></svg>