<svg xmlns="http://www.w3.org/2000/svg" width="361" height="361"><path d="M204 287v-94c1-3-4-7-7-4L80 278l-7 5c-3 2-3 9 3 9h123c7 0 7-10 0-10H76l3 9 116-88 7-5-7-5-1 94c0 6 10 6 10 0zm-32-97l-84 65c-5 3 0 12 5 8l84-64c5-4 0-13-5-9z" fill="#fff"/><path d="M93 124a5 5 0 0 0 4 4h26c3 0 5-2 5-4V98c0-3-2-5-5-5H97c-2 0-4 2-4 5v25z" fill="none" stroke="#fff" stroke-width="10" stroke-miterlimit="10"/><path d="M145 71l-8 8c-2 2-2 5 0 7s5 2 7 0l8-8c2-2 2-5 0-7s-5-2-7 0zm41 34h-36c-7 0-7 10 0 10h36c7 0 7-10 0-10zM79 150l7-6a5 5 0 0 0 0-7 5 5 0 0 0-7 0l-7 6a5 5 0 0 0 0 7 5 5 0 0 0 7 0zm37 36v-37c0-6-10-6-10 0v37c0 7 10 7 10 0zm53-23l-26-26c-5-5-12 2-7 7l26 26c5 4 12-3 7-7z" fill="#fff"/><path d="M269 216c0 2-2 3-4 3h-13c-2 0-4-1-4-3v-93c0-2 2-4 4-4h13c2 0 4 2 4 3v94z" fill="none" stroke="#fff" stroke-width="10" stroke-miterlimit="10"/><path d="M274 244c0 2-1 4-3 4h-26l-2-4v-21l2-4h26c2 0 3 2 3 4v21z" fill="#fff" stroke="#fff" stroke-width="10" stroke-miterlimit="10"/><path d="M277 131h11c6 0 6-10 0-10h-11c-7 0-7 10 0 10zm0 25h11c6 0 6-10 0-10h-11c-7 0-7 10 0 10zm0 25h11c6 0 6-10 0-10h-11c-7 0-7 10 0 10zm0 26h11c6 0 6-10 0-10h-11c-7 0-7 10 0 10z" fill="#fff"/><path fill="#fff" stroke="#fff" stroke-width="10" stroke-miterlimit="10" d="M248 186h21v43h-21z"/></svg>