<svg xmlns="http://www.w3.org/2000/svg" width="361" height="361"><path d="M268.6 216c0 1.8-1.6 3.3-3.6 3.3h-13.4c-2 0-3.6-1.5-3.6-3.4v-93.4c0-1.8 1.6-3.4 3.6-3.4H265c2 0 3.6 1.6 3.6 3.4V216z" fill="none" stroke="#fff" stroke-width="10" stroke-miterlimit="10"/><path d="M274.1 244c0 2-1.3 3.7-2.8 3.7h-26c-1.5 0-2.8-1.7-2.8-3.7v-21c0-2 1.3-3.7 2.9-3.7h25.9c1.5 0 2.8 1.6 2.8 3.6V244z" fill="#fff" stroke="#fff" stroke-width="10" stroke-miterlimit="10"/><path d="M276.6 131.4h10.9c6.5 0 6.5-10 0-10h-11c-6.4 0-6.4 10 0 10zm0 24.4h10.9c6.5 0 6.5-10 0-10h-11c-6.4 0-6.4 10 0 10zm0 25h10.9c6.5 0 6.5-10 0-10h-11c-6.4 0-6.4 10 0 10zm0 26h10.9c6.5 0 6.5-10 0-10h-11c-6.4 0-6.4 10 0 10z" fill="#fff"/><path fill="#fff" stroke="#fff" stroke-width="10" stroke-miterlimit="10" d="M248 185.9h20.6v43H248z"/><path d="M130.7 75v45.3c0 6.4 10 6.4 10 0V75c0-6.5-10-6.5-10 0z" fill="#fff"/><path d="M120 84l13.2 7.5c5.6 3.3 10.6-5.4 5-8.6l-13.1-7.6c-5.6-3.2-10.7 5.4-5 8.6z" fill="#fff"/><path d="M146.2 75.3L133 82.9c-5.6 3.3-.5 11.9 5 8.7l13.2-7.6c5.6-3.3.6-12-5-8.7zm-52.3 26.2L133 124c5.6 3.2 10.6-5.4 5-8.7L99 92.8c-5.7-3.2-10.7 5.4-5.1 8.7z" fill="#fff"/><path d="M96.3 115.2l13.1-7.7c5.6-3.2.6-11.8-5-8.6l-13.2 7.6c-5.6 3.2-.5 11.9 5 8.7z" fill="#fff"/><path d="M101.8 88.2v15.2c0 6.4 10 6.4 10 0V88.2c0-6.5-10-6.5-10 0z" fill="#fff"/><g fill="#fff"><path d="M99 146.7l39.2-22.6c5.6-3.3.5-12-5-8.7L94 138c-5.6 3.3-.6 11.9 5 8.7z"/><path d="M112 151.5v-15.3c0-6.4-10-6.4-10 0v15.3c0 6.4 10 6.4 10 0z"/><path d="M91.4 133.1l13.2 7.6c5.6 3.3 10.6-5.4 5-8.6l-13.2-7.6c-5.6-3.2-10.6 5.4-5 8.6z"/></g><g fill="#fff"><path d="M140.7 165.1V120c0-6.5-10-6.5-10 0v45.2c0 6.5 10 6.5 10 0z"/><path d="M151.3 156.3l-13.2-7.7c-5.5-3.2-10.6 5.4-5 8.7l13.2 7.6c5.6 3.2 10.6-5.4 5-8.6z"/><path d="M125.2 164.9l13.1-7.6c5.6-3.2.6-11.9-5-8.7l-13.2 7.7c-5.6 3.2-.5 11.8 5 8.6z"/></g><g fill="#fff"><path d="M177.5 138.4l-39.2-22.6c-5.6-3.3-10.6 5.4-5 8.6l39.1 22.6c5.6 3.2 10.7-5.4 5.1-8.6z"/><path d="M175 124.7l-13.1 7.6c-5.6 3.2-.6 11.9 5 8.6l13.2-7.6c5.6-3.2.6-11.8-5-8.6z"/><path d="M169.5 151.7v-15.2c0-6.5-10-6.5-10 0v15.2c0 6.4 10 6.4 10 0z"/></g><g fill="#fff"><path d="M172.3 93.2l-39.1 22.6c-5.6 3.2-.6 11.9 5 8.6l39.2-22.6c5.6-3.2.6-11.8-5-8.6z"/><path d="M159.3 88.4v15.2c0 6.5 10 6.5 10 0V88.4c0-6.5-10-6.5-10 0z"/><path d="M180 106.7l-13.2-7.6c-5.6-3.2-10.7 5.4-5 8.7l13.1 7.6c5.6 3.2 10.6-5.5 5-8.7z"/></g><g fill="#fff"><path d="M71.7 186.5c5-1.5 10.2-2.9 15.5-3.9 7-1.3 13.2.8 19.9 3.2 9.2 3.3 18.7 8.9 28.7 9.2 6 .3 12.5-2.9 18-5l9.6-3.8a38.4 38.4 0 0 1 19.8-3.8 132 132 0 0 1 16.6 4.1c2 .6 2.7-2.3.8-2.9a161.8 161.8 0 0 0-15.5-3.9c-6.5-1.2-11.9 0-18.2 2-10 3.4-20.5 10-31.1 10.3-6.2.3-13.2-3.3-18.8-5.5l-11.3-4.4a35.1 35.1 0 0 0-18.2-2.5 118 118 0 0 0-16.6 4c-1.9.6-1 3.5.8 2.9z"/><path d="M78 193.7a36.4 36.4 0 0 1 17-3c5.6.8 11.3 3.2 16.6 5.3 7.7 3 15.8 7.2 24.2 7.5 8 .3 16.8-4.5 24.2-7.5a89.2 89.2 0 0 1 16.6-5.3c5.4-1 11.8 1.1 17 3 1.7.6 2.5-2.3.7-3-5-1.7-10.2-3-15.5-3.2-5.7-.2-12 2.7-17.1 4.6-8.3 3.2-17 8-26 8.4-5.6.3-12-2.9-17.1-4.9-3-1-5.8-2.3-8.7-3.5-5.3-2-10.7-4-16.3-4.6a39.7 39.7 0 0 0-16.4 3.3c-1.8.6-1 3.5.8 2.9zm.1-17a36.3 36.3 0 0 1 17-3c5.7.9 11.3 3.3 16.6 5.4 7.7 3 15.8 7.2 24.2 7.5 8 .3 16.8-4.5 24.2-7.5a89.2 89.2 0 0 1 16.6-5.4 36 36 0 0 1 17 3c1.7.7 2.5-2.2.7-2.8a51 51 0 0 0-15.5-3.4c-5.7-.1-12 2.7-17.1 4.7-8.3 3.2-17 8-26 8.4-5.6.2-12-2.9-17.1-4.9l-8.7-3.5c-5.3-2-10.7-4-16.3-4.6a39.8 39.8 0 0 0-16.4 3.3c-1.8.6-1 3.5.8 2.9z"/></g></svg>