<svg xmlns="http://www.w3.org/2000/svg" width="361" height="361"><path d="M99 290c0-19.3-1.4-50.2-27-50.6-2 0-2 3 0 3 23.5.4 24 30.3 24 47.5 0 2 3 2 3 0z" fill="#fff"/><path d="M105 290c-.2-21.7-6.5-50.2-33-50.6-2 0-2 3 0 3 24.7.4 29.8 27.7 30 47.5 0 2 3 2 3 0z" fill="#fff"/><path d="M84.7 290c0-9.6.5-20.1-2.6-29.3-1.5-4.3-4.6-7.1-7.7-10.2-1.4-1.4-3.5.7-2.1 2.1 3 3 5.7 5.5 7 9.5 3 8.6 2.3 18.9 2.4 27.8 0 2 3 2 3 0z" fill="#fff"/><path d="M90.6 290c0-9.6.3-20.7-4.4-29.3-2.6-4.9-7.7-7.5-12-10.5-1.7-1-3.2 1.6-1.6 2.6 4 2.8 8.4 5 11 9.4 4.6 7.8 4 19 4 27.7 0 2 3 2 3 0zm22.3 0c0-7.8-.6-19 4.4-25.6 1.5-1.9 4-2.6 4.2-5.2.1-2-2.9-1.9-3 0-.1 1-3.9 3.7-4.5 4.9-4.4 7.2-4 17.7-4 25.8 0 2 3 2 3 0z" fill="#fff"/><path d="M106.9 290.3c1.1-6.9 1.4-16 5.2-22.1 2-3.2 6.4-5.2 9-8 1.3-1.3-.9-3.5-2.2-2-2.8 3-6.7 4.9-9.2 8.1-1.3 1.8-2 4.1-2.5 6.2-1.5 5.6-2.3 11.4-3.2 17-.3 2 2.6 2.7 3 .8zm31.4-.4c0-7.6-.3-15.8 2.2-23.2 1.2-3.7 4.3-5.8 7.2-8.3 1.4-1.2-.7-3.3-2.2-2-3 2.4-6 4.7-7.5 8.4-3.2 7.6-2.7 17-2.7 25.1 0 2 3 2 3 0z" fill="#fff"/><path d="M132.3 290c0-7.6-.2-16.5 3.9-23.2 2.4-4 7.3-5.9 11.2-8.1 1.6-1 .1-3.6-1.6-2.6-4.3 2.5-8.8 4.5-11.9 8.6-4.9 6.8-4.5 17.4-4.6 25.2 0 2 3 2 3 0zm16.1 0c0-6.7-.4-16.4 4.6-21.7 1.4-1.6 3.7-2 4-4.4.2-2-2.8-2-3 0 0 .1-4 3.2-4.6 4-4.1 6-4 15.2-4 22 0 2 3 2 3 0z" fill="#fff"/><path d="M142.4 290.3c1-5.5 1.5-14.1 5.2-18.7 2.3-2.7 6.3-4.3 9-6.7 1.4-1.3-.7-3.4-2.2-2-2.8 2.4-6.8 4-9.2 6.9-4 5-4.5 13.7-5.7 19.7-.3 2 2.6 2.7 3 .8zM128 290c0-5 0-10.9-2.6-15.4a8.2 8.2 0 0 0-2.3-2.6c-.7-.5-1.2-1.2-1.2-.5-.2-1.9-3.2-2-3 0 .2 1.8 1.6 2.2 2.8 3.2 3.8 3.3 3.3 11 3.3 15.3 0 2 3 2 3 0z" fill="#fff"/><path d="M132.1 289.6c-.8-4.4-1.2-10.1-4-13.9-1.6-2.3-4.6-3.4-6.7-5.3-1.4-1.2-3.6.9-2.1 2.2 1.9 1.7 4.3 2.7 6.1 4.5 1 .9 1.3 2.3 1.7 3.5 1 3.2 1.5 6.5 2.1 9.8.4 2 3.3 1.1 3-.8zm38.7.4c0-7.5 0-16.4 4-23 2.2-3.4 6-5.2 9-7.7 1.5-1.2-.6-3.4-2-2.1-3.4 2.7-7 4.6-9.5 8.3-4.7 6.7-4.5 16.8-4.5 24.5 0 2 3 2 3 0z" fill="#fff"/><path d="M164.8 290c.1-7.7.3-17 5.9-23 3.4-3.6 8.6-5 12.8-7.5 1.7-1 .2-3.5-1.5-2.6-4.8 2.8-10 4.5-14 8.6-5.8 6.3-6.1 16.4-6.2 24.5 0 2 3 2 3 0zm13.8-.2c0-4.6-.4-11.6 2.9-15.4 1-1.2 2.6-1.5 2.8-3.4.2-2-2.8-2-3 0 0-.6-2.6 2-3 2.7-2.8 4.5-2.7 11-2.7 16 0 2 3 2 3 0z" fill="#fff"/><path d="M174.6 290.2c.7-4.2 1-9.8 3.4-13.4 1.2-2 4.2-3.2 5.8-4.8 1.4-1.3-.7-3.4-2-2-2 1.7-4.7 3-6.2 5-2.9 3.8-3.1 10-3.9 14.4-.3 1.9 2.6 2.7 2.9.8zm-15.8-.3c0-6.2 1.3-16.4-4.5-20.5-1.6-1-3.1 1.5-1.6 2.6 1 .6 1.2.6 1.7 1.8 1.8 4.9 1.4 11 1.4 16 0 2 3 2 3 0z" fill="#fff"/><path d="M164.8 289.5c-.8-4.6-1.1-10.4-3.8-14.4-1.5-2.3-4.5-3.5-6.4-5.4-1.4-1.4-3.5.7-2.2 2 1.8 1.8 4.2 3 5.9 4.7.9 1 1.2 2.5 1.6 3.8.9 3.3 1.4 6.7 2 10 .3 2 3.2 1.2 2.9-.7zm44.2.4c.1-13.7 1.3-33.3 19-33.7 1.9 0 1.9-3 0-3-19.7.4-21.9 21.1-22 36.7 0 1.9 3 1.9 3 0z" fill="#fff"/><path d="M204.3 289.9c.1-15.7 5.2-33.4 23.7-33.7 1.9 0 1.9-3 0-3-20.2.4-26.6 19.3-26.7 36.7 0 1.9 3 1.9 3 0z" fill="#fff"/><path d="M220.5 289.9c0-6.5-.3-13.5 1.8-19.8 1-3 3.4-4.7 5.6-6.7 1.4-1.3-.7-3.4-2.1-2.1-2.5 2.2-5 4.2-6.2 7.4-2.5 6.6-2 14.3-2.1 21.2 0 1.9 3 1.9 3 0z" fill="#fff"/><path d="M215.7 289.9c0-6.4-.2-14 3.2-19.7 1.9-3.2 5.7-4.7 8.7-6.6 1.6-1 .1-3.6-1.5-2.6-3.7 2.2-7.4 4-9.8 7.7-3.9 5.8-3.5 14.5-3.6 21.2 0 1.9 3 1.9 3 0zm-19.4 0c0-8.3 0-17.8-3.8-25.4a11.9 11.9 0 0 0-3-3.8c-.4-.3-1.7-1-1.8-1.6-.1-1.9-3.1-1.9-3 0 .2 2.5 2.4 3.3 3.9 4.9 5.5 6 4.7 18.4 4.7 25.9 0 1.9 3 1.9 3 0z" fill="#fff"/><path d="M202.2 289.5c-1.1-7.2-1.5-16.5-5.5-23-2.2-3.4-6.6-5.5-9.4-8.4-1.3-1.4-3.5.7-2.1 2.1 2.5 2.7 6.4 4.6 8.7 7.6 1.4 1.7 1.9 4.2 2.4 6.3 1.4 5.3 2.1 10.8 3 16.1.3 2 3.2 1.2 2.9-.7zm41 .4c-.1-8 .3-17-2.6-24.6-1.5-4-4.6-6.4-7.7-9-1.5-1.3-3.6.8-2.1 2 2.7 2.4 5.5 4.4 7 7.8 3 7.1 2.3 16.2 2.3 23.8 0 1.9 3 1.9 3 0z" fill="#fff"/><path d="M249 289.9c0-8.1.2-17.5-4.1-24.7-2.8-4.5-8-6.6-12.3-9.2-1.7-1-3.2 1.6-1.5 2.6 3.8 2.2 8.1 4 10.8 7.6 4.6 6.3 4.1 16.2 4.2 23.6 0 2 3 2 3 0zm7.4 0c0-6.6-.4-16.4 4.5-21.6 1.5-1.6 3.8-2 4-4.5.3-2-2.7-1.9-3 0 0 .1-3.9 3.2-4.5 4.1-4.1 6-4 15.1-4 22 0 1.9 3 1.9 3 0z" fill="#fff"/><path d="M250.4 290.3c1-5.6 1.4-14.2 5.2-18.8 2.2-2.7 6.3-4.3 9-6.6 1.4-1.3-.8-3.4-2.2-2.1-2.8 2.5-6.8 4-9.2 7-4 5-4.6 13.6-5.7 19.7-.3 1.9 2.6 2.7 2.9.8zm-14.5-.3c0-5.1-.1-10.9-2.7-15.5a8.2 8.2 0 0 0-2.2-2.5c-.7-.5-1.3-1.2-1.2-.5-.2-2-3.2-2-3 0 .2 1.8 1.6 2.1 2.8 3.2 3.7 3.3 3.3 10.9 3.3 15.3 0 1.9 3 1.9 3 0z" fill="#fff"/><path d="M240 289.6c-.7-4.4-1.1-10.2-3.8-14-1.7-2.2-4.8-3.4-6.8-5.2-1.5-1.3-3.6.8-2.2 2.1 2 1.7 4.4 2.8 6.2 4.5 1 .9 1.3 2.4 1.7 3.6 1 3.2 1.5 6.5 2.1 9.8.3 1.9 3.2 1 2.9-.8zm38.8.4c0-7.6-.1-16.4 4-23 2.1-3.5 6-5.3 9-7.8 1.5-1.2-.6-3.3-2.1-2-3.3 2.7-7 4.6-9.5 8.2-4.6 6.8-4.4 16.8-4.4 24.6 0 1.9 3 1.9 3 0z" fill="#fff"/><path d="M272.8 290c0-7.7.3-17 5.9-23 3.4-3.6 8.6-5.1 12.8-7.5 1.7-1 .2-3.6-1.5-2.6-4.8 2.7-10.1 4.4-14 8.5-5.8 6.3-6.1 16.5-6.2 24.6 0 1.9 3 1.9 3 0zm13.8-.3c0-4.6-.4-11.5 2.8-15.3 1.1-1.3 2.7-1.6 2.8-3.5.2-1.9-2.8-1.9-3 0 .1-.5-2.5 2.1-3 2.8-2.8 4.5-2.6 11-2.6 16 0 2 3 2 3 0z" fill="#fff"/><path d="M282.6 290.1c.7-4.1 1-9.7 3.3-13.4 1.3-1.9 4.3-3.1 5.9-4.7 1.4-1.4-.7-3.5-2.1-2.1-1.9 1.8-4.6 3-6.2 5-2.8 3.8-3 10-3.8 14.4-.3 2 2.5 2.7 2.9.8zm-15.8-.3c0-6.2 1.2-16.4-4.6-20.4-1.6-1.1-3 1.5-1.5 2.6 1 .6 1.2.5 1.7 1.7 1.8 5 1.3 11 1.4 16.1 0 2 3 2 3 0z" fill="#fff"/><path d="M272.8 289.4c-.8-4.5-1.2-10.4-3.8-14.3-1.5-2.3-4.5-3.6-6.5-5.5-1.4-1.3-3.5.8-2 2.1 1.7 1.8 4 3 5.8 4.7.9 1 1.2 2.5 1.5 3.7 1 3.3 1.5 6.7 2 10.1.4 2 3.3 1.1 3-.8zm-83.5-67.1a2.2 2.2 0 0 1-2.2 2.1h-10.6a2.2 2.2 0 0 1-2.2-2.1v-8.6c0-1.2 1-2.1 2.2-2.1h10.7c1.2 0 2.1 1 2.1 2.1v8.6zm5.4-88.3l7.8-10.6c1-1.6.2-4-1.3-4.8-1.8-1-3.7-.3-4.8 1.2l-7.8 10.6c-1 1.6-.2 4 1.3 4.8 1.8 1 3.7.3 4.8-1.2zm27-8.2l7.3-5.4c1.6-1.1 2.3-3 1.3-4.8-1-1.5-3.3-2.3-4.8-1.2l-7.4 5.3c-1.5 1.1-2.3 3-1.3 4.8 1 1.5 3.3 2.4 4.8 1.3zM194 163.5l9.3-19.5c1.9-4-4.1-7.6-6-3.5L188 160c-1.9 4 4.1 7.6 6 3.5zm-10-4.5l5.7-16.1c1.5-4.3-5.3-6.1-6.8-1.9l-5.6 16.1c-1.6 4.3 5.2 6 6.7 1.9zm54.1-42.9l7.6-2.3c4.3-1.3 2.5-8-1.9-6.8l-7.6 2.4c-4.2 1.3-2.4 8 2 6.7zm-85 55.7l-12-10.2c-3.4-2.8-8.4 2-5 5l12 10.1c3.5 3 8.4-2 5-5zm-21.6-16l-7.4-2.7c-1.8-.7-3.8.7-4.3 2.4-.6 2 .6 3.7 2.4 4.3l7.5 2.7c1.8.6 3.8-.7 4.3-2.4.5-2-.7-3.7-2.5-4.3zm-20-4l-7.2-.3a3.6 3.6 0 0 0-3.5 3.5c0 2 1.6 3.4 3.5 3.5l7.2.3c2 .1 3.5-1.6 3.5-3.5 0-2-1.6-3.4-3.5-3.5zm-17.2.2l-3.4.8c-1.8.4-3 2.5-2.4 4.3a3.5 3.5 0 0 0 4.3 2.4l3.4-.8c1.9-.4 3-2.5 2.4-4.3a3.5 3.5 0 0 0-4.3-2.4zm52.8 26.7l-17-6.6c-4.3-1.7-6 5-2 6.7l17 6.6c4.3 1.7 6.1-5.1 2-6.7zm-27.9-9.4l-8.7-.2c-4.5 0-4.5 7 0 7l8.7.2c4.5 0 4.5-7 0-7zm-20.7 1.3l-6 2.5c-1.7.7-2 3.3-1.2 4.8 1 1.8 3 2 4.8 1.2l6-2.5c1.7-.7 2-3.3 1.2-4.8-1-1.8-3-2-4.8-1.2zm109.7-33.8l6-5.2c1.5-1.3 1.3-3.7 0-5-1.4-1.4-3.5-1.2-5 0l-6 5.2c-1.4 1.3-1.2 3.7 0 5 1.5 1.4 3.5 1.2 5 0zm46.6-24.1h3.7c1.9.1 3.5-1.5 3.5-3.4 0-2-1.6-3.5-3.5-3.5l-3.7-.1a3.5 3.5 0 0 0-3.5 3.5c0 2 1.6 3.4 3.5 3.5zm14.1 1l2 .6c1.8.4 3.8-.6 4.3-2.5.5-1.8-.6-3.8-2.5-4.3l-2-.5a3.5 3.5 0 0 0-4.2 2.5c-.5 1.8.6 3.8 2.4 4.3zm-60.3 3.1l6.2-4.6c1.5-1.1 2.3-3 1.2-4.8-.9-1.5-3.2-2.4-4.8-1.2l-6.1 4.6c-1.6 1.1-2.3 3-1.3 4.8.9 1.5 3.3 2.4 4.8 1.2zm15-9.1l3.6-1.2c1.8-.6 3-2.4 2.4-4.3-.4-1.8-2.5-3.1-4.3-2.5l-3.6 1.2c-1.8.7-3 2.4-2.5 4.3.5 1.8 2.5 3.1 4.3 2.5zm14.4-4.2l2-.3c2-.4 3-2.6 2.5-4.3a3.5 3.5 0 0 0-1.6-2.1 3.7 3.7 0 0 0-2.7-.4l-2 .4c-2 .3-3 2.6-2.5 4.3a3.5 3.5 0 0 0 1.6 2c.9.6 1.7.6 2.7.4z" fill="#fff"/><path d="M166 228.9c-1-.2-.8.9-.8 0v-45.8c0 .8 2 .5 2.7.5.3 0 .3-1 .3-.2v45.9c0-1-2.4-.6-3.1-.6-4.5 0-4.5 7 0 7 5.8 0 10-1.7 10-8v-39.2c0-5 .6-10.7-5.9-11.8-5.7-1-11 1.3-11 7.6v39.6c0 5-.5 10.6 6 11.7 4.4.8 6.2-6 1.8-6.7zm97-47.7c-3.8 13 9.4 17 17.8 22.8 1.8 1.1.9 1.8 1.7.3.4-.7.5-.5 0-.2l-3.6 1c-5.7 1.2-11.8 1.3-17.6 2-5.5.7-11 1.6-16 4.2-2.5 1.4-4.2 3.7-6.6 5.3-2.4 1.5-5 2-7.7 2-6.3 0-12.6-2.2-18.6-3.5a78.8 78.8 0 0 0-26.2-1.6c-6.4.8-6.4 10.8 0 10a76 76 0 0 1 26 1.8c6.8 1.5 13.7 3.6 20.7 3.2a26 26 0 0 0 16.8-8.1c3.5-3.3 11.4-3.3 15.8-3.8 7.8-.8 26.5 0 26.8-11.5.1-5.8-5.8-9.6-10.3-12-3.3-2-10.8-4.3-9.4-9.2 1.8-6.2-7.8-8.8-9.7-2.6z" fill="#fff"/><path d="M154.4 185.3l5.2 3.4c1.6 1 3.9.3 4.8-1.3 1-1.7.3-3.7-1.3-4.8l-5.1-3.4c-1.6-1-3.9-.3-4.8 1.3-1 1.7-.3 3.7 1.3 4.8zm20.1-.3l5.3-8.2c2.5-3.8-3.6-7.3-6-3.5l-5.3 8.2c-2.5 3.8 3.6 7.3 6 3.5zm-29.3 53.3h44c6.5 0 6.5-10 0-10h-44c-6.4 0-6.4 10 0 10zm134-120l1.9.5c1.8.4 3.8-.6 4.3-2.5.5-1.8-.6-3.8-2.4-4.3l-2-.5a3.5 3.5 0 0 0-4.3 2.5c-.5 1.8.6 3.8 2.4 4.3zm-28.6-15.6l2-.3c1 0 1.8-.3 2.5-1a3.5 3.5 0 0 0 0-5c-.6-.6-1.6-1-2.5-1l-2 .3c-1 0-1.7.3-2.4 1a3.5 3.5 0 0 0 0 5c.6.5 1.6 1 2.4 1zm13.2.4l2-.3c1 0 1.7-.3 2.5-1a3.5 3.5 0 0 0 0-5c-.6-.5-1.6-1-2.5-1l-2 .3c-1 0-1.8.3-2.5 1a3.5 3.5 0 0 0 0 5c.6.5 1.6 1 2.5 1zM80 156.8l-3 1.8a3.5 3.5 0 0 0-1.3 4.8 3.5 3.5 0 0 0 4.8 1.3l3-1.9c1.6-1 2.2-3 1.3-4.8a3.6 3.6 0 0 0-4.8-1.2zm3.2 20.8l-4.2 3c-1.5 1-2.2 3-1.2 4.7.9 1.5 3.2 2.4 4.8 1.3l4-3c1.6-1 2.4-3 1.3-4.8-.9-1.5-3.2-2.3-4.7-1.2zm-11.3 12.7l-2 4c-.8 1.7-.5 3.7 1.3 4.7 1.5 1 3.9.5 4.8-1.2l2-4c.8-1.7.4-3.8-1.3-4.8-1.6-.9-4-.4-4.8 1.3z" fill="#fff"/></svg>