<svg xmlns="http://www.w3.org/2000/svg" width="361" height="361"><path d="M99 233c0-11-1-22-6-32-4-7-12-10-21-11-2 0-2 3 0 3 8 1 15 4 19 11 5 8 5 19 5 29 0 2 3 2 3 0z" fill="#fff"/><path d="M105 233a51 51 0 0 0-9-31 31 31 0 0 0-24-11c-2 0-2 3 0 3 9 0 17 3 23 10a49 49 0 0 1 7 29c0 2 3 2 3 0z" fill="#fff"/><path d="M85 233c0-8 0-17-3-25-1-3-4-6-8-8-1-1-3 1-2 2 3 2 6 4 7 8 3 7 3 16 3 23 0 2 3 2 3 0z" fill="#fff"/><path d="M91 233c0-8 0-17-5-24-2-5-8-7-12-9-2-1-3 1-1 2 3 2 8 4 10 8 5 6 5 16 5 23 0 2 3 2 3 0zm22 0c0-7-1-16 5-21 1-2 3-2 3-5 1-2-2-2-2 0l-5 5c-4 6-4 14-4 21 0 2 3 2 3 0z" fill="#fff"/><path d="M107 233c1-5 1-14 5-18 2-3 6-4 9-7 2-1-1-3-2-2-3 3-7 4-9 7-4 5-5 14-6 20 0 2 3 2 3 0zm20 0c0-5 0-10 2-14 0-3 2-4 4-5 2-2-1-4-2-3l-5 6c-2 5-2 11-2 16 0 2 3 2 3 0z" fill="#fff"/><path d="M123 233c0-5 0-10 3-14 1-3 4-4 7-5 1-1 0-4-2-3-3 2-6 3-8 6-3 4-3 11-3 16 0 2 3 2 3 0zm16 0c0-7 0-16 5-22 1-1 4-2 4-4s-3-2-3 0l-5 4c-4 6-4 15-4 22 0 2 3 2 3 0z" fill="#fff"/><path d="M133 233c1-5 2-14 6-18 2-3 6-5 9-7 1-1-1-3-3-2l-9 7c-4 5-4 14-5 20-1 2 2 2 3 0zm29 0c0-6 0-14 4-19 2-3 6-4 9-6 1-1 0-4-2-3l-10 7c-4 6-4 14-4 21 0 2 3 2 3 0z" fill="#fff"/><path d="M156 233c0-7 0-14 6-19 3-3 8-4 13-6 1-1 0-4-2-3l-14 7c-6 5-6 14-6 21 0 2 3 2 3 0zm14 0c0-5-1-12 3-16 1-1 2-1 2-3 1-2-2-2-3 0l-3 3c-2 4-2 11-2 16 0 2 3 2 3 0z" fill="#fff"/><path d="M166 233c0-4 1-10 3-13l6-5c1-1-1-3-2-2l-6 5c-3 4-3 10-4 14-1 2 2 3 3 1zm-16 0c0-6 1-17-5-21-1-1-3 2-1 3l1 2c2 5 2 11 2 16 0 2 3 2 3 0z" fill="#fff"/><path d="M156 233c-1-5-1-11-4-15l-6-5c-2-2-4 0-3 2l6 4 2 4 2 10c0 2 3 1 3-1zm61 0c0-14 3-29 19-29 2 0 2-3 0-3-7 0-13 2-17 8-5 6-5 16-5 24 0 2 3 2 3 0z" fill="#fff"/><path d="M212 233c0-15 7-29 24-29 2 0 2-3 0-3-7 0-14 2-19 8-6 6-8 16-8 24 0 2 3 2 3 0z" fill="#fff"/><path d="M229 233c0-6-1-12 1-17 1-3 4-4 6-6 1-1-1-3-2-2-3 2-5 3-6 6-3 6-2 13-2 19 0 2 3 2 3 0z" fill="#fff"/><path d="M224 233c0-6 0-12 3-17 2-3 6-4 9-6 1-1 0-3-2-2-4 2-7 3-10 6-4 5-3 13-3 19 0 2 3 2 3 0zm-18 0c0-5 0-11-3-16a9 9 0 0 0-2-3h-2c0-2-3-2-3 0l3 3c4 3 4 11 4 16 0 2 3 2 3 0z" fill="#fff"/><path d="M210 233c-1-5-1-11-4-15l-7-5c-2-2-4 0-2 2l6 4c3 4 4 11 4 14 1 2 4 1 3-1zm35 0c1-7 1-14-1-21l-5-7c-1-2-3 0-2 2 6 7 5 17 5 26 1 2 4 2 4 0z" fill="#fff"/><path d="M249 233c0-7 0-14-2-21l-8-7c-1-1-4 1-2 2l7 6c3 6 2 14 2 20 0 2 3 2 3 0zm7 0c0-6 0-14 5-19 2-1 4-1 4-4 0-2-3-2-3 0l-5 4c-3 5-4 13-4 19 0 2 3 2 3 0z" fill="#fff"/><path d="M250 233c1-5 2-12 6-16l9-6c1-1-1-3-2-2l-10 6c-4 5-4 12-6 17 0 2 3 3 4 1zm-13 0c0-4 0-8-2-11a7 7 0 0 0-2-2h-1c0-1 0 0 0 0 0-2-3-2-3 0l3 3c2 2 2 7 2 10 0 2 3 2 3 0z" fill="#fff"/><path d="M240 233c0-4-1-8-3-10l-5-4c-1-1-4 1-2 2l5 3 1 3 1 6c1 2 3 1 3 0zm39 0c0-7 0-14 4-20 2-3 6-4 9-6 1-1 0-4-2-3-3 2-7 4-9 7-5 6-5 15-5 22 0 2 3 2 3 0z" fill="#fff"/><path d="M273 233c0-7 0-15 6-20 4-3 8-4 13-6 1-1 0-4-2-3-5 2-10 4-14 8-6 5-6 14-6 21 0 2 3 2 3 0zm14 0c0-5-1-12 2-16 2-1 3-1 3-3s-3-2-3 0l-3 3c-3 4-2 11-2 16 0 2 3 2 3 0z" fill="#fff"/><path d="M283 233c0-4 1-10 3-13l6-5c1-1-1-3-2-2l-7 5c-2 4-2 10-3 14-1 2 2 3 3 1zm-16 0c0-6 1-17-5-21-1-1-3 2-1 3l1 2c2 5 2 11 2 16 0 2 3 2 3 0z" fill="#fff"/><path d="M273 232c-1-4-1-10-4-14l-6-5c-2-2-4 0-2 2l5 4 2 4 2 10c0 2 3 1 3-1zm-93 36l-5 1h-6c-2 0-1-8-1-10h11c2 0 1 8 1 9 0 2 3 2 3 0 0-3 2-12-4-12h-8c-3 0-6 0-6 3v8c0 2 0 5 4 5h8c2 0 5 0 6-4 0-1-3-2-3 0z" fill="#fff"/><g fill="#fff"><path d="M249 291h16c4 0 4-7 0-7h-16c-5 0-5 7 0 7zm-173-8h7c4 0 4-7 0-7h-7c-5 0-5 7 0 7zm26-1h8c4 0 4-7 0-7h-8c-4 0-4 7 0 7zm22 10h6c2 0 3-2 3-4s-1-3-3-3h-6c-2 0-4 2-4 3s2 4 4 4z"/><path d="M276 282h-9c-5 0-5 7 0 7h9c4 0 4-7 0-7zm-181-6h-2c-1 0-3 2-3 4s2 3 3 3h2c2 0 4-1 4-3s-2-4-4-4zm103 9h-6c-2 0-3 2-3 4s1 3 3 3h6c2 0 4-1 4-3s-2-4-4-4zm10 7h16c4 0 4-7 0-7h-16c-5 0-5 7 0 7zm9-7h2c2 0 4-1 4-3s-2-4-4-4h-2c-2 0-3 2-3 4s1 3 3 3zm19-7h-6c-2 0-4 1-4 3s2 4 4 4h6c2 0 3-2 3-4s-1-3-3-3zm-98-4h-9c-5 0-5 7 0 7h9c4 0 4-7 0-7zm16 0h-6c-2 0-3 1-3 3s1 4 3 4h6c2 0 4-2 4-4s-2-3-4-3zm-7 18h6c2 0 3-2 3-4s-1-3-3-3h-6c-2 0-4 2-4 3s2 4 4 4zm-59 0h15c4 0 4-7 0-7H88c-5 0-5 7 0 7zm83-7h9c4 0 4-7 0-7h-9c-5 0-5 7 0 7zm-10 7h17c4 0 4-7 0-7h-16c-5 0-5 7 0 7z"/><path d="M157 284h6c2 0 3-2 3-4s-1-3-3-3h-6c-2 0-4 2-4 3s2 4 4 4zm18 4h2c2 0 4-2 4-4s-2-3-4-3h-2c-2 0-3 1-3 3s1 4 3 4zm19-9h-6c-2 0-4 1-4 3s2 4 4 4h6c2 0 3-2 3-4s-1-3-3-3z"/><path d="M149 282h16c4 0 4-7 0-7h-16c-5 0-5 7 0 7zm-29-6h-9c-5 0-5 7 0 7h9c4 0 4-7 0-7zm-31 5h-5c-2 0-4 2-4 4s2 3 4 3h5c2 0 4-1 4-3s-2-4-4-4zm56 1h-2c-2 0-3 2-3 4s1 3 3 3h2c2 0 4-2 4-3s-2-4-4-4z"/><path d="M149 274h-2c-2 0-4 1-4 3s2 4 4 4h2c2 0 3-2 3-4s-1-3-3-3zm-42 18h6c2 0 3-2 3-4s-2-3-3-3h-6c-2 0-3 1-3 3s1 4 3 4zm-34 0h2c2 0 4-2 4-4s-2-3-4-3h-2c-2 0-3 1-3 3s1 4 3 4zm21-9h2c2 0 4-2 4-3s-2-4-4-4h-2c-2 0-3 2-3 4s1 3 3 3z"/><path d="M106 275h-6c-2 0-3 2-3 4s1 3 3 3h6c2 0 3-1 3-3s-1-4-3-4zm147 8h2c2 0 3-2 3-4s-1-4-3-4h-2c-2 1-4 2-4 4s2 3 4 3zm-40-8h-11c-4 0-4 7 0 7h11c5 0 5-7 0-7zm-71 6h-11c-4 0-4 7 0 7h11c5 0 5-7 0-7zm142-7h-15c-5 0-5 7 0 7h15c5 0 5-7 0-7z"/><path d="M219 280h2c2 0 4-1 4-3s-2-4-4-4h-2c-2 0-3 2-3 4s1 3 3 3zm43 5h2c2 0 3-2 3-4s-1-3-3-3h-2c-2 0-4 2-4 3s2 4 4 4zm-19-1h2c2 0 3-2 3-4s-2-3-3-3h-2c-2 0-4 2-4 3s2 4 4 4zM76 274h-2c-1 0-3 2-3 4s2 3 3 3h2c2 0 4-1 4-3s-2-4-4-4zm159 18h2c2 0 3-2 3-3s-1-4-3-4h-2c-2 0-4 2-4 4s2 3 4 3zm52 0h2l3-3c0-1-2-4-4-4h-1c-2 0-4 2-4 4s2 3 3 3z"/><path d="M278 286h10c5 0 5-7 0-7h-10c-4 0-4 7 0 7z"/></g><path d="M99 236H89c-4 0-4 7 0 7h10c4 0 4-7 0-7zm-19 20h2c2 0 3-2 3-3s-1-4-3-4h-2c-2 0-4 2-4 4s2 3 4 3zm72-8h-2c-2 0-4 2-4 4s2 3 4 3h2c2 0 3-1 3-3s-1-4-3-4zm-56 4h15c5 0 5-7 0-7H96c-4 0-4 7 0 7zm-16-17h-6c-5 0-5 7 0 7h6c4 0 4-7 0-7z" fill="#fff"/><path d="M91 247h-6c-2 0-3 2-3 4s1 3 3 3h6c2 0 3-2 3-3s-1-4-3-4zm60-3h-16c-4 0-4 7 0 7h16c5 0 5-7 0-7z" fill="#fff"/><path d="M127 255h6c4 0 4-7 0-7h-6c-5 0-5 7 0 7zm39-10h-11c-4 0-4 7 0 7h11c5 0 5-7 0-7z" fill="#fff"/><path d="M123 244h-4c-2 0-3 1-3 3s1 4 3 4h3c3 0 4-2 4-4s-2-3-3-3zm-21 4h-6c-4 0-4 7 0 7h6c5 0 5-7 0-7zm-19-5H73c-4 0-4 7 0 7h10c5 0 5-7 0-7zm12 3h2c2 0 4-2 4-4s-2-3-4-3h-2c-2 0-3 2-3 3s1 4 3 4z" fill="#fff"/><path d="M86 247h2c2 0 3-2 3-3s-1-4-3-4h-2c-2 0-4 2-4 4s2 3 4 3zm29-11h-6c-4 0-4 7 0 7h6c4 0 4-7 0-7zm55 2h-11c-4 0-4 7 0 7h11c4 0 4-7 0-7zm-37-4h-9c-5 0-5 7 0 7h9c5 0 5-7 0-7z" fill="#fff"/><path d="M130 247h2c2 0 4-2 4-3s-2-4-4-4h-2c-2 0-3 2-3 4s1 3 3 3zm31-6h6c4 0 4-7 0-7h-6c-5 0-5 7 0 7z" fill="#fff"/><path d="M144 243h10c5 0 5-7 0-7h-10c-4 0-4 7 0 7zm-73-8h102c2 0 2-3 0-3H71c-2 0-2 3 0 3z" fill="#fff"/><g fill="#fff"><path d="M206 241h9c4 0 4-7 0-7h-9c-5 0-5 7 0 7zm16 5h15c5 0 5-7 0-7h-15c-4 0-4 7 0 7z"/><path d="M241 233h-5c-2 0-4 1-4 3s2 4 4 4h5c2 0 4-2 4-4s-2-3-4-3zm26 3h-15c-5 0-5 7 0 7h15c5 0 5-7 0-7zm-3 9h-2c-2 0-4 1-4 3s2 4 4 4h2c2 0 3-2 3-4s-1-3-3-3z"/><path d="M250 250h6c4 0 4-7 0-7h-6c-5 0-5 7 0 7z"/><path d="M247 246h-11c-5 0-5 7 0 7h11c4 0 4-7 0-7zm2-9h-4c-1 0-3 2-3 4s2 3 4 3h3c2 0 3-1 3-3s-1-4-3-4zm-22 6h-6c-4 0-4 7 0 7h6c5 0 5-7 0-7zm-7-3h2c2 0 3-2 3-4s-1-3-3-3h-2c-2 0-3 1-3 3s1 4 3 4z"/><path d="M214 254h6c5 0 5-7 0-7h-6c-4 0-4 7 0 7zm67-11h9c4 0 4-7 0-7h-9c-5 0-5 7 0 7z"/><path d="M268 241h6c5 0 5-7 0-7h-6c-4 0-4 7 0 7zm7 13h2c2 0 3-2 3-3s-1-4-3-4h-2c-2 0-4 2-4 4s2 3 4 3z"/><path d="M289 246h-6c-5 0-5 7 0 7h6c4 0 4-7 0-7z"/><path d="M275 248h11c5 0 5-7 0-7h-11c-4 0-4 7 0 7zm-6 8h2c2 0 3-1 3-3s-1-4-3-4h-2c-2 0-4 2-4 4s2 3 4 3zm-65-6h10c4 0 4-7 0-7h-10c-4 0-4 7 0 7zm-2-15h89c2 0 2-3 0-3h-89c-2 0-2 3 0 3z"/></g><path d="M72 262h94c2 0 2-3 0-3H72c-2 0-2 3 0 3zm138 0h81v-3h-81c-2 0-2 3 0 3z" fill="#fff"/><path d="M208 268l-5 1h-6c-2 0-1-8-1-9 0-2 10-1 11-1 2 0 1 8 1 9 0 2 3 2 3 0 0-3 2-12-4-12h-8c-3 0-6 0-6 3v8c0 2 0 5 4 5h8c3 0 5 0 6-4 0-1-3-2-3 0zm-136 0h94c2 0 2-3 0-3H72c-2 0-2 3 0 3z" fill="#fff"/><path d="M209 268h81c2 0 2-3 0-3h-81c-2 0-2 3 0 3z" fill="#fff"/><g fill="#fff"><path d="M187 268c-1 0-1 1-1-1v-32l3 1v32h-3c-5 0-5 7 0 7 4 0 10-1 10-7v-29c0-5-1-9-6-10s-11 1-11 6v30c0 5 0 9 6 10 4 1 6-6 2-7z"/><path d="M176 235h23c4 0 4-7 0-7h-23c-5 0-5 7 0 7z"/></g></svg>