<svg xmlns="http://www.w3.org/2000/svg" width="361" height="361"><path d="M166.3 204c.7.2.4-4.8.4-5.7V76.7c0-.8-2 .1-.8.1h6c2.5 0 .5-1 .5.5v126.9c0-.2 2-.3.8-.3h-7.8c-4.5 0-4.5 7 0 7 5.5 0 14 1.3 14-6.7V78.7c0-3.8-.8-9-5.7-9-5.5 0-14-1.3-14 6.8v113.4c0 5.5-2.3 18.8 4.8 20.8 4.3 1.3 6.2-5.5 1.8-6.7zm-75.4.3c.7.2.4-4.8.4-5.7V77c0-.7-2 .1-.8.1h6c2.5 0 .5-1 .5.5v126.9c0-.2 2-.3.8-.3H90c-4.5 0-4.5 7 0 7 5.5 0 14 1.3 14-6.7V79c0-3.8-.8-8.9-5.7-8.9-5.5 0-14-1.4-14 6.7v113.4c0 5.6-2.4 18.8 4.8 20.9 4.3 1.2 6.2-5.5 1.8-6.8zm38 0c.7.2.4-4.8.4-5.7V77c0-.7-2 .1-.7.1h5.9c2.5 0 .5-1 .5.5v126.9c0-.2 2-.3.8-.3H128c-4.5 0-4.5 7 0 7 5.5 0 14 1.3 14-6.7V79c0-3.8-.8-8.9-5.7-8.9-5.5 0-14-1.4-14 6.7v113.4c0 5.6-2.3 18.8 4.8 20.9 4.3 1.2 6.2-5.5 1.9-6.8z" fill="#fff"/><path d="M86.8 193c0 1.2-.1 2.2-.3 2.2H75.1c-.1 0-.3-1-.3-2.2v-8.4c0-1.2.2-2.2.3-2.2h11.4c.2 0 .3 1 .3 2.2v8.3z" fill="#fff"/><path d="M83.3 193c-.1 1 0 1 .2.4l3-1.7H75.1l3 1.7c.6.9.3-.8.3-1.3v-7.3c0-.6.3-1.5-.2-.6l-3 1.7h11.4l-3-1.7c-.7-1-.3.6-.3 1v7.7c0 4.6 7 4.6 7 0 0-4 1.7-14-4.2-14h-11c-3.2 0-3.7 3.3-3.7 5.7v7.1c0 3.1.1 7 4.2 7h11c3.2 0 3.7-3.3 3.7-5.8.1-4.5-6.9-4.5-7 0zm42-.3c0 1.3-.3 2.2-.6 2.2h-23.1c-.3 0-.6-1-.6-2.2v-8.3c0-1.2.3-2.2.6-2.2h23c.3 0 .6 1 .6 2.2v8.3z" fill="#fff"/><path d="M121.7 192.7v.5l3-1.7h-23.1l3 1.7a20 20 0 0 1 0-9.2l-3 1.7h23l-3-1.7c1.1 1.8.1 6.7.1 8.7 0 4.6 7 4.6 7 0 0-3 1-8.8-.6-11.6-2-3.1-5.4-2.4-8.6-2.4h-14.3c-4.5 0-7.1.5-7.7 5.8-.3 2.7-.9 9 .7 11.6 2 3.1 5.3 2.4 8.5 2.4H121c4.5 0 7.1-.4 7.7-5.8.5-4.4-6.5-4.4-7 0zm41.4.1c0 1.3-.2 2.3-.5 2.3h-23c-.4 0-.6-1-.6-2.2v-8.4c0-1.2.2-2.2.5-2.2h23c.4 0 .6 1 .6 2.2v8.3z" fill="#fff"/><path d="M159.6 192.8v.5l3-1.7h-23l3 1.7a18 18 0 0 1 0-9.2l-3 1.7h23l-3-1.7c1 1.8 0 6.7 0 8.7 0 4.6 7 4.6 7 0 0-3 1.1-8.8-.6-11.6-2-3.1-5.3-2.4-8.6-2.4h-14.3c-4.5 0-7 .4-7.6 5.7-.3 2.8-1 9.2.6 11.7 2 3.1 5.3 2.4 8.6 2.4H159c4.5 0 7-.4 7.6-5.7.5-4.6-6.5-4.5-7 0zm16.1-8.7c0-1.2.1-2.2.3-2.2h10.6c.1 0 .3 1 .3 2.2v8.3c0 1.2-.2 2.2-.3 2.2H176c-.1 0-.3-1-.3-2.2v-8.3z" fill="#fff"/><path d="M179.2 184.1c.2-1 .1-1.1-.2-.4l-3 1.7h10.6l-3-1.7c-.6-1-.2.8-.2 1.3v6.2c0 .5-.3 2.5.2 1.7l3-1.8H176l3 1.8c.6 1 .2-.6.2-1V184c0-4.5-7-4.5-7 0 0 3.8-1.6 14 4 14h10.4c3.2 0 3.7-3.2 3.8-5.7v-7c0-3 0-7-4-7H176c-3.2 0-3.7 3.3-3.8 5.7 0 4.6 7 4.5 7 0zm-92.4-87c0 1.2-.1 2.2-.3 2.2H75.1c-.1 0-.3-1-.3-2.2v-8.3c0-1.3.2-2.3.3-2.3h11.4c.2 0 .3 1 .3 2.3V97z" fill="#fff"/><path d="M83.3 97c-.1 1 0 1.2.2.5l3-1.7H75.1l3 1.7c.6.9.3-.8.3-1.3v-7.3c0-.6.3-1.5-.2-.6l-3 1.7h11.4l-3-1.7c-.7-1-.3.6-.3 1V97c0 4.6 7 4.6 7 0 0-4 1.7-14-4.2-14h-11c-3.2 0-3.7 3.3-3.7 5.7v7.1c0 3.1.1 7 4.2 7h11c3.2 0 3.7-3.3 3.7-5.7.1-4.6-6.9-4.6-7 0z" fill="#fff"/><g fill="#fff"><path d="M125.2 96.8c0 1.3-.2 2.3-.5 2.3h-23.1c-.3 0-.6-1-.6-2.2v-8.4c0-1.2.3-2.2.6-2.2h23c.3 0 .6 1 .6 2.2v8.3z"/><path d="M121.7 96.8v.5l3-1.7h-23.1l3 1.7a20 20 0 0 1 0-9.2l-3 1.7h23l-3-1.7c1.1 1.8.1 6.7.1 8.7 0 4.6 7 4.6 7 0 0-3 1-8.8-.6-11.6-2-3.1-5.4-2.4-8.6-2.4h-14.3c-4.5 0-7.1.4-7.7 5.7-.3 2.8-.9 9.2.7 11.7 2 3.1 5.3 2.3 8.5 2.3H121c4.5 0 7.1-.4 7.7-5.7.5-4.5-6.5-4.4-7 0z"/></g><g fill="#fff"><path d="M163.1 97c0 1.2-.2 2.2-.5 2.2h-23c-.4 0-.6-1-.6-2.2v-8.3c0-1.3.2-2.2.5-2.2h23c.4 0 .6 1 .6 2.2V97z"/><path d="M159.6 97v.4l3-1.7h-23l3 1.7a18 18 0 0 1 0-9.2l-3 1.7h23l-3-1.7c1 1.8 0 6.7 0 8.8 0 4.5 7 4.5 7 0 0-3.1 1.1-9-.6-11.7-2-3.1-5.3-2.4-8.6-2.4h-14.3c-4.5 0-7 .5-7.6 5.8-.3 2.8-1 9 .6 11.6 2 3.1 5.3 2.4 8.6 2.4H159c4.5 0 7-.5 7.6-5.8.5-4.4-6.5-4.4-7 0z"/></g><path d="M205.4 96.9c-.1 1 0 1.1.2.4l3-1.7h-11.4l3 1.7c.6.9.2-.8.2-1.3v-7.3c0-.5.4-1.5-.2-.6l-3 1.8h11.4l-3-1.8c-.6-1-.2.6-.2 1V97c0 4.5 7 4.5 7 0 0-4 1.7-14-4.2-14h-11c-3.2 0-3.7 3.2-3.8 5.7v7c0 3.2.2 7 4.3 7h11c3.2 0 3.6-3.3 3.7-5.7.1-4.6-6.9-4.5-7 0z" fill="#fff"/><g fill="#fff"><path d="M175.9 88.6c0-1.2.1-2.2.3-2.2h10.6c.1 0 .2 1 .2 2.2v8.3c0 1.2-.1 2.2-.2 2.2h-10.6c-.2 0-.3-1-.3-2.2v-8.3z"/><path d="M179.4 88.6c.1-1 0-1.1-.2-.5l-3 1.8h10.6l-3-1.8c-.6-.9-.3.9-.3 1.3v6.3c0 .5-.3 2.5.2 1.6l3-1.7h-10.5l3 1.7c.6 1 .2-.6.2-1v-7.7c0-4.5-7-4.5-7 0 0 3.8-1.7 14 4 14h10.4c3.2 0 3.7-3.2 3.7-5.7v-7.1c0-3 0-7-4-7h-10.4c-3.2 0-3.7 3.3-3.7 5.8-.1 4.5 6.9 4.5 7 0z"/></g><path d="M198.5 246c.2-.7 1.3-.5.2-.5H184c-.9 0 .6 2.1.6 1v-25.3c0 1.5-1.6 1.4-.3 1.4h15c-1 0-1-2.3-1-.6v24.9c0 4.5 7 4.5 7 0v-13.4c0-3.9 1.1-9.5 0-13.2-2-6-8.8-4.7-13.8-4.7s-11.8-1.4-13.7 4.7c-1.3 3.7-.2 9.3-.2 13.2V247c0 6.7 8.5 5.6 13 5.6 5.1 0 12.6 1.5 14.6-4.7 1.4-4.3-5.3-6.2-6.7-1.9zm28.6-.8c0 .3 1.5.3-.3.3h-14.2c-.3 0 .7 1 .7 0v-34.3c0 .7-1.7.6.2.6h14.4c-1.1 0-.9-1.1-.9.2v34.1c0 4.5 7 4.5 7 0v-34c0-7.1-5.6-7.3-11-7.3-5.5 0-15.3-2-16.6 5.4-.8 4.8-.1 10.2-.1 15v19.7c0 6.6 4.5 7.6 10 7.6 5.7 0 16.2 2.2 17.6-5.5.7-4.4-6-6.3-6.8-1.8zm28.7 0c.7.2.8.3.3.2h-14.9c.9 0 .7 1.1.7 0v-45.8c0 .9-1 .6 1.1.6h12.8c1.2 0-.1.1-.1-.6V246c0 4.5 7 4.5 7 0v-37.3c0-3.8 1.2-10.7-1.8-13.8-2.2-2.1-5-1.8-7.8-1.8h-11.2c-6.3 0-7 5.1-7 10v41.2c0 6.3 4 8 9.6 8 5.7 0 16.6 2.3 18-5.4.9-4.4-5.9-6.3-6.7-1.9z" fill="#fff"/><path d="M284.4 245.2c0 .2 1.3.2 0 .2h-14c-1.3 0 .1 0 .1.6v-60.6c0 .4-1.4.6.3.6H285c-.9 0-.7-1.3-.7 0v60c0 4.5 7 4.5 7 0v-55.4c0-3.7.8-10.3-4.2-11.4-5.5-1.2-11.7-.4-17.3-.4-6 0-6.3 5.8-6.3 10.1v43.6c0 5.7-2 15.3 3.4 19.1 3 2 10.1.7 13.3.7 4.6 0 9.9.4 11-5.4.8-4.4-6-6.3-6.8-1.8zm-85.1 45.7l-1.7-7h-9.3l-1.6 7h-7.3a284 284 0 0 1 5-16.5 1213.7 1213.7 0 0 1 5-14.1h7.6a391.8 391.8 0 0 1 5 14.2 297 297 0 0 1 4.7 16.4h-7.4zm-6.3-24.7a204.2 204.2 0 0 0-1 3.3l-1 3a79.5 79.5 0 0 0-.7 3.1l-.7 3.2h6.8l-.7-3.2a56 56 0 0 0-.7-3 132 132 0 0 0-1-3.1l-1-3.3zm28.3 25.4a17 17 0 0 1-5.7-.9 8.6 8.6 0 0 1-3.6-2.3 8.9 8.9 0 0 1-2-3.7 19.3 19.3 0 0 1-.5-4.9v-19.5h7v19.1c0 1.3 0 2.4.2 3.3.2.8.4 1.5.8 2 .3.6.8 1 1.5 1.2a7.5 7.5 0 0 0 4.9 0 3 3 0 0 0 1.5-1.2c.4-.5.6-1.2.8-2l.2-3.3v-19.1h7v19.5c0 1.8-.2 3.4-.6 4.9a8.6 8.6 0 0 1-2 3.7 9 9 0 0 1-3.7 2.3 17.7 17.7 0 0 1-5.8.9zm41.2-31.3v5h-9.2V291h-7v-25.6H237v-5h25.5zm3 15.3c0-5.3 1-9.3 3.3-12 2.2-2.7 5.3-4 9.3-4 4 0 7.2 1.3 9.4 4 2.1 2.7 3.2 6.7 3.2 12s-1.1 9.2-3.3 12c-2.2 2.6-5.3 4-9.3 4-4 0-7.2-1.4-9.4-4a19 19 0 0 1-3.3-12zm7 0c0 1.5 0 2.8.2 4.2.1 1.3.4 2.4.8 3.3s1 1.8 1.7 2.3c.7.6 1.7.9 2.9.9a4.6 4.6 0 0 0 2.8-.9 5.3 5.3 0 0 0 1.7-2.3c.4-1 .7-2 .8-3.4a41.4 41.4 0 0 0 0-8.3c-.1-1.3-.4-2.5-.8-3.4a5.5 5.5 0 0 0-1.7-2.3c-.7-.6-1.6-.8-2.8-.8s-2.2.2-3 .8c-.7.6-1.2 1.3-1.6 2.3s-.7 2.1-.8 3.4a40.9 40.9 0 0 0-.2 4.2z" fill="#fff"/></svg>