<svg xmlns="http://www.w3.org/2000/svg" width="361" height="361"><path d="M177 191.4c0 2.9-12.2 5.3-27.3 5.3H103c-15.2 0-27.4-2.4-27.4-5.3V79.9c0-3 12.2-5.3 27.4-5.3h46.7c15.1 0 27.4 2.4 27.4 5.3v111.5z" fill="none" stroke="#fff" stroke-width="10" stroke-miterlimit="10"/><path d="M98 120.6l58.8-10c6.3-1.1 3.6-10.7-2.7-9.7l-58.8 10c-6.3 1-3.6 10.7 2.7 9.7z" fill="#fff"/><path d="M156.8 121.4l-58.8-10c-6.3-1-9 8.5-2.7 9.6l58.8 10c6.3 1.1 9-8.5 2.7-9.6zm0 14l-58.8-10c-6.3-1.1-9 8.5-2.7 9.6l58.8 10c6.3 1 9-8.6 2.7-9.6zm0 14l-58.8-10c-6.3-1.2-9 8.5-2.7 9.6l58.8 10c6.3 1 9-8.6 2.7-9.7zm0 13.9l-58.8-10c-6.3-1.1-9 8.5-2.7 9.6l58.8 10c6.3 1 9-8.5 2.7-9.6zm-1.4-52.5h106.2c6.4 0 6.4-10 0-10H155.4c-6.4 0-6.4 10 0 10zM167.6 228H250c2 0 2-3 0-3h-82.3c-2 0-2 3 0 3zm115.7 53.3h4.6c2 0 3.5-1.6 3.5-3.5s-1.6-3.5-3.5-3.5h-4.6c-1.9 0-3.5 1.6-3.5 3.5s1.6 3.5 3.5 3.5zm-26.7 10h16c4.5 0 4.5-7 0-7h-16c-4.5 0-4.5 7 0 7z" fill="#fff"/><path d="M271.2 285.4h6c1.9 0 3.5-1.6 3.5-3.5s-1.6-3.5-3.5-3.5h-6c-2 0-3.5 1.6-3.5 3.5s1.6 3.5 3.5 3.5zm15.3 6h2c2 0 3.5-1.6 3.5-3.5s-1.6-3.5-3.5-3.5h-2c-1.9 0-3.5 1.6-3.5 3.5s1.6 3.5 3.5 3.5zm-.4-63.6h-6c-1.9 0-3.5 1.5-3.5 3.5s1.6 3.5 3.5 3.5h6c2 0 3.5-1.6 3.5-3.5s-1.6-3.5-3.5-3.5zm-11.3 12.7h-2c-2 0-3.5 1.5-3.5 3.5s1.6 3.5 3.5 3.5h2c1.9 0 3.5-1.6 3.5-3.5s-1.6-3.5-3.5-3.5zm14 17h-14c-4.5 0-4.5 7 0 7h14c4.5 0 4.5-7 0-7zm-5.5 8h-8.5c-4.5 0-4.5 7 0 7h8.5c4.5 0 4.5-7 0-7z" fill="#fff"/><path d="M288.1 251.6h-6c-1.9 0-3.5 1.5-3.5 3.5s1.6 3.5 3.5 3.5h6c2 0 3.5-1.7 3.5-3.6s-1.6-3.4-3.5-3.4zm-4-15.8h-6c-1.9 0-3.5 1.5-3.5 3.4s1.6 3.6 3.5 3.6h6c2 0 3.5-1.6 3.5-3.6s-1.6-3.4-3.5-3.4zm-57 25.2h-6c-1.9 0-3.5 1.6-3.5 3.5s1.6 3.5 3.5 3.5h6c2 0 3.5-1.6 3.5-3.5s-1.6-3.5-3.5-3.5zm60.7 8.5h-.7c-1.9 0-3.5 1.6-3.5 3.5s1.6 3.5 3.5 3.5h.7c1.9 0 3.5-1.6 3.5-3.5s-1.6-3.5-3.5-3.5zm-214.1 13h7c4.5 0 4.5-7 0-7h-7c-4.5 0-4.5 7 0 7zm95.2-49.7h7.8c4.5 0 4.5-7 0-7h-7.8c-4.5 0-4.5 7 0 7zm34.2 7.7h15.2c4.5 0 4.5-7 0-7h-15.2c-4.5 0-4.5 7 0 7zM122 291.4h6c1.9 0 3.5-1.6 3.5-3.5s-1.6-3.5-3.5-3.5h-6c-1.9 0-3.5 1.6-3.5 3.5s1.6 3.5 3.5 3.5zm124.2-7.5h-9c-4.5 0-4.5 7 0 7h9c4.5 0 4.5-7 0-7zm-58.4-38.2h-16c-4.6 0-4.6 7 0 7h16c4.5 0 4.5-7 0-7zm-106.6 3.4h-6c-2 0-3.5 1.6-3.5 3.5s1.6 3.5 3.5 3.5h6c1.9 0 3.5-1.6 3.5-3.5s-1.6-3.5-3.5-3.5zm157.2 9h-3.2c-2 0-3.5 1.6-3.5 3.5s1.6 3.5 3.5 3.5h3.2c2 0 3.5-1.6 3.5-3.5s-1.6-3.5-3.5-3.5zm-50-14.7h2c1.9 0 3.5-1.6 3.5-3.5s-1.6-3.5-3.5-3.5h-2c-2 0-3.5 1.6-3.5 3.5s1.5 3.5 3.5 3.5zM93.5 276h-2c-1.9 0-3.5 1.6-3.5 3.5s1.6 3.5 3.5 3.5h2c2 0 3.5-1.6 3.5-3.5s-1.6-3.5-3.5-3.5zm102.6 8.5h-6c-2 0-3.5 1.6-3.5 3.5s1.6 3.5 3.5 3.5h6c1.9 0 3.5-1.6 3.5-3.5s-1.6-3.5-3.5-3.5zm-110.3-24h-5.5c-2 0-3.5 1.7-3.5 3.6s1.6 3.5 3.5 3.5h5.5c1.9 0 3.5-1.6 3.5-3.5s-1.6-3.5-3.5-3.5zm92.4 1.1h9c4.5 0 4.5-7 0-7h-9c-4.5 0-4.5 7 0 7zm27.7 30h16c4.5 0 4.5-7 0-7h-16c-4.6 0-4.6 7 0 7zm34.5-41.8h6c2 0 3.5-1.6 3.5-3.5s-1.6-3.5-3.5-3.5h-6c-1.9 0-3.5 1.6-3.5 3.5s1.6 3.5 3.5 3.5z" fill="#fff"/><path d="M284.1 248.5h2c2 0 3.5-1.6 3.5-3.5s-1.6-3.5-3.5-3.5h-2c-1.9 0-3.5 1.6-3.5 3.5s1.6 3.5 3.5 3.5zm-67 9.5h-6c-2 0-3.5 1.6-3.5 3.5s1.5 3.5 3.5 3.5h6c1.9 0 3.5-1.6 3.5-3.5S219 258 217 258z" fill="#fff"/><path d="M219.1 252.1H204c-4.5 0-4.5 7 0 7h15c4.6 0 4.6-7 0-7zm28.3 8.4h-6c-1.9 0-3.5 1.6-3.5 3.5s1.6 3.5 3.5 3.5h6c2 0 3.5-1.6 3.5-3.5s-1.6-3.5-3.5-3.5zm.5-32.7h-9c-4.5 0-4.5 7 0 7h9c4.5 0 4.5-7 0-7zm-3.3 25h-16c-4.5 0-4.5 7 0 7h16c4.5 0 4.5-7 0-7zm-165-21.5h-6c-2 0-3.6 1.6-3.6 3.5s1.6 3.5 3.5 3.5h6c2 0 3.5-1.6 3.5-3.5s-1.6-3.5-3.5-3.5zm134.3 12.4h-2c-2 0-3.5 1.7-3.5 3.6s1.6 3.4 3.5 3.4h2c1.9 0 3.5-1.5 3.5-3.4s-1.6-3.6-3.5-3.6zm-69 47.7h6c1.9 0 3.4-1.6 3.4-3.5s-1.5-3.5-3.5-3.5h-6c-1.9 0-3.5 1.6-3.5 3.5s1.6 3.5 3.5 3.5zm-59.1-.2H101c4.5 0 4.5-7 0-7H85.8c-4.5 0-4.5 7 0 7zm-6.1-41.5h6c2 0 3.5-1.5 3.5-3.5s-1.6-3.5-3.5-3.5h-6c-1.9 0-3.5 1.6-3.5 3.5s1.6 3.5 3.5 3.5zm90.9 18.8h9c4.5 0 4.5-7 0-7h-9c-4.5 0-4.5 7 0 7zm-11 23h16c4.4 0 4.4-7 0-7h-16c-4.6 0-4.6 7 0 7zm64.5-41.8h6c2 0 3.5-1.5 3.5-3.5s-1.6-3.5-3.5-3.5h-6c-1.9 0-3.5 1.6-3.5 3.5s1.6 3.5 3.5 3.5zm-48-12h2c1.9 0 3.5-1.5 3.5-3.5s-1.6-3.5-3.5-3.5h-2c-2 0-3.5 1.6-3.5 3.5s1.6 3.5 3.5 3.5z" fill="#fff"/><path d="M179.8 236.4h-11.2c-4.5 0-4.5 7 0 7h11.2c4.5 0 4.5-7 0-7zm27.2 24.8h-11.7c-4.6 0-4.6 7 0 7H207c4.5 0 4.5-7 0-7zm23.3-30.4h-6c-1.9 0-3.5 1.5-3.5 3.5s1.6 3.5 3.5 3.5h6c2 0 3.5-1.6 3.5-3.5s-1.6-3.5-3.5-3.5zm-38.6 15h-9c-4.5 0-4.5 7 0 7h9c4.5 0 4.5-7 0-7z" fill="#fff"/><path d="M199.7 242.8h-3.2c-2 0-3.5 1.5-3.5 3.4s1.6 3.6 3.5 3.6h3.2c2 0 3.5-1.7 3.5-3.6s-1.6-3.4-3.5-3.4zm-110.5-17h-6c-1.9 0-3.5 1.5-3.5 3.4s1.6 3.6 3.5 3.6h6c2 0 3.5-1.6 3.5-3.6s-1.6-3.4-3.5-3.4zm-2 54.8h-5.5c-1.9 0-3.5 1.6-3.5 3.5s1.6 3.5 3.5 3.5h5.5c2 0 3.5-1.6 3.5-3.5s-1.6-3.5-3.5-3.5zm99.2-14.1h5.8c4.5 0 4.5-7 0-7h-5.8c-4.6 0-4.6 7 0 7zm-47.4 16h-2c-1.9 0-3.5 1.6-3.5 3.5s1.6 3.5 3.5 3.5h2c2 0 3.5-1.6 3.5-3.5s-1.6-3.5-3.5-3.5zm77.4-54.7h-20.6c-4.5 0-4.5 7 0 7h20.6c4.5 0 4.5-7 0-7zm-111.2 63.4h5.5c2 0 3.5-1.6 3.5-3.5s-1.6-3.5-3.5-3.5h-5.5c-1.9 0-3.5 1.6-3.5 3.5s1.6 3.5 3.5 3.5z" fill="#fff"/><path d="M73.3 290.3h2c1.9 0 3.5-1.6 3.5-3.5s-1.6-3.5-3.5-3.5h-2c-2 0-3.5 1.6-3.5 3.5s1.6 3.5 3.5 3.5zm8-50.5h2c1.9 0 3.5-1.6 3.5-3.5s-1.6-3.5-3.5-3.5h-2c-2 0-3.5 1.5-3.5 3.5s1.6 3.5 3.5 3.5zm1 29.3h-5.5c-2 0-3.5 1.6-3.5 3.5s1.6 3.5 3.5 3.5h5.5c1.9 0 3.5-1.6 3.5-3.5s-1.6-3.5-3.5-3.5zM249 238.4h-11.2c-4.5 0-4.5 7 0 7H249c4.5 0 4.5-7 0-7zM83.1 256.6h-9.8c-4.5 0-4.5 7 0 7H83c4.5 0 4.5-7 0-7zm36 23H108c-4.5 0-4.5 7 0 7h11.2c4.5 0 4.5-7 0-7zm164.6-122.8a22.5 22.5 0 0 1-22.1 22.2c-12.4.3-21.9-10.4-22.2-22.2-.3-12.3 10.3-21.8 22.1-22.1 12.4-.4 21.9 10.3 22.2 22.1.1 4.5 7.1 4.5 7 0a29.6 29.6 0 0 0-29.1-29.1c-16.2-.5-28.8 13.6-29.2 29.1-.4 16.2 13.6 28.8 29.1 29.2 16.2.4 28.8-13.6 29.2-29.2.1-4.5-6.9-4.5-7 0z" fill="#fff"/><path d="M270.8 130.3a2.8 2.8 0 0 1-2.8 2.7h-13a2.8 2.8 0 0 1-2.8-2.8v-6a2.8 2.8 0 0 1 2.8-2.8h13a2.8 2.8 0 0 1 2.8 2.8v6zm0 59.5a2.8 2.8 0 0 1-2.8 2.8h-13a2.8 2.8 0 0 1-2.8-2.8v-6a2.8 2.8 0 0 1 2.8-2.8h13a2.8 2.8 0 0 1 2.8 2.8v6z" fill="#fff"/><path d="M273 194.3c0 1.6-1 3-2 3h-19c-1.2 0-2.1-1.4-2.1-3v-.9c0-1.7 1-3 2-3h19c1.1 0 2 1.3 2 3v.8zm-14.4-15.6h-40.9c-.5 0 .4 1.2.4.3v-44.1c0-1.2 0 0-.5 0h41c4.5 0 4.5-7 0-7h-37.1c-4.7 0-10.4.3-10.4 6.6v39.3c0 4.7-.5 12 6.4 12h41c4.6 0 4.6-7 0-7zM202 131.3v51c0 4.5 7 4.5 7 0v-51c0-4.5-7-4.5-7 0zM98 243.1l58.8-10c6.3-1.1 3.6-10.7-2.7-9.7l-58.8 10c-6.3 1.1-3.6 10.7 2.7 9.7zm58.8 14.7l-58.8-10c-6.3-1-9 8.6-2.7 9.7l58.8 10c6.3 1 9-8.6 2.7-9.7zm0 14l-58.8-10c-6.3-1-9 8.6-2.7 9.7l58.8 10c6.3 1 9-8.6 2.7-9.7z" fill="#fff"/><path d="M158.5 281.9h103.1c6.5 0 6.5-10 0-10H158.5c-6.5 0-6.5 10 0 10zm-1.7-38.5l-58.8-10c-6.3-1-9 8.6-2.7 9.7l58.8 10c6.3 1 9-8.6 2.7-9.7zm-6.4-75.3v60.2c0 6.4 10 6.4 10 0V168c0-6.5-10-6.5-10 0z" fill="#fff"/><path d="M256.6 191.8v85c0 6.5 10 6.5 10 0v-85c0-6.4-10-6.4-10 0zm-.2-85.7V128c0 6.4 10 6.4 10 0v-22c0-6.4-10-6.4-10 0zm15.4 122h18c2 0 2-3 0-3h-18c-2 0-2 3 0 3zm-200.2 0h32.6c2 0 2-3 0-3H71.6c-2 0-2 3 0 3z" fill="#fff"/></svg>