<svg xmlns="http://www.w3.org/2000/svg" width="361" height="361"><path d="M142 112c2 12 17 9 25 9h82c6 0 11-1 13-7v-9c0-5-4-8-8-9H149c-7 2-7 10-7 16 0 5 7 5 7 0 0-3-1-8 2-9h101c5 0 3 6 3 9s-8 2-10 2h-82c-2 0-13 1-14-2 0-4-7-4-7 0z" fill="#fff"/><path d="M172 118v19c0 5 7 5 7 0v-19c0-4-7-4-7 0zm-15 1v19c0 5 7 5 7 0v-19c0-5-7-5-7 0z" fill="#fff"/><path d="M281 186v47c0 4-8 2-10 2h-20c-4 0-2-4-2-7v-34a5 5 0 0 0-5-5h-40a5 5 0 0 0-5 5c0 1 1 6-1 6h-59c-2 0-1-5-1-6a5 5 0 0 0-5-5H82c-5 0-3-12-3-15 0-2-2-15 3-15h51v-10l5 5v-9h61v9a5 5 0 0 0 5 5h70c2 0 7-1 7 2v26c0 6 10 6 10 0v-30c-3-10-17-8-25-8h-62l5 5c0-5 1-10-2-15-2-3-6-4-10-4h-57c-3 0-7 0-9 3-4 4-3 11-3 16a5 5 0 0 0 5 5c6 0 6-10 0-10H82c-9 0-13 7-13 15v21c0 8 5 14 13 14h51l-5-5c0 6 0 11 5 15l8 1h55l6-1c7-3 7-9 7-15l-5 5h40l-5-5v37c0 7 2 13 11 14h17c5 0 13 2 18-1 6-3 6-9 6-15v-43c0-6-10-6-10 0z" fill="#fff"/></svg>