<svg xmlns="http://www.w3.org/2000/svg" width="361" height="361"><path d="M240 138c0-2.3-1.7-4-3.7-4h-17c-2.1 0-3.7 1.7-3.7 4v8.7c0 2.2 1.6 4 3.6 4h17.1c2 0 3.7-1.8 3.7-4V138z" fill="#fff"/><path d="M242.8 131.6c0-2.5-1.2-4.4-2.6-4.4h-25c-1.4 0-2.6 2-2.6 4.4v1.2c0 2.4 1.2 4.4 2.7 4.4H240c1.5 0 2.7-2 2.7-4.4v-1.2zm-94.1 3.4a2.4 2.4 0 0 1-2.4 2.4h-45.6a2.4 2.4 0 0 1-2.4-2.4v-13a2.4 2.4 0 0 1 2.4-2.3h45.6a2.4 2.4 0 0 1 2.4 2.3v13zm35 69c-.3 6.5-5.7 7.3-10.8 7.3H91.6c-4.4 0-9.3.3-11.3-4.8-1.6-4-.5-10-.5-14.2v-23.9c0-4.5-.7-9.8.5-14.2 1.4-5.2 7.1-4.8 11.3-4.8h81.3c5 0 10.5.8 10.8 7.4.3 4.4 0 9 0 13.4v33.7c0 6.5 10 6.5 10 0v-37.2c0-5 .6-10.3-.8-15.2-2-7.7-9.8-12-17.4-12H87.2c-9.6 0-17.4 8-17.4 17.5v39.4c0 5.7-.3 11 2.4 16.3 3.2 6.2 10.2 8.6 16.7 8.6h87.4c9.8 0 17-7.9 17.4-17.4.4-6.4-9.6-6.4-10 0z" fill="#fff"/><path d="M282.4 201.7a11.2 11.2 0 0 1-11.2 11.2H199a11.2 11.2 0 0 1-11.2-11.2V159a11.2 11.2 0 0 1 11.2-11.2h72.2a11.2 11.2 0 0 1 11.2 11.2v42.7z" fill="#fff"/><path d="M196.5 223.4c0 2.6-1.6 4.7-3.6 4.7h-6.5c-2 0-3.6-2-3.6-4.7v-85c0-2.6 1.6-4.7 3.6-4.7h6.5c2 0 3.6 2.1 3.6 4.7v85z" fill="#fff"/><path d="M189.5 162h-94c-4.6 0-4.6 7 0 7h94c4.5 0 4.5-7 0-7zm0 10h-94c-4.6 0-4.6 7 0 7h94c4.5 0 4.5-7 0-7zm0 10h-94c-4.6 0-4.6 7 0 7h94c4.5 0 4.5-7 0-7zm0 10h-94c-4.6 0-4.6 7 0 7h94c4.5 0 4.5-7 0-7zm-2.4-40H99.3c-4.6 0-4.6 7 0 7H187c4.5 0 4.5-7 0-7zm0 50H99.3c-4.6 0-4.6 7 0 7H187c4.5 0 4.5-7 0-7zm100.4.4c2.1 0 3.9-1.5 3.9-3.3v-15.5c0-1.8-1.7-3.3-3.9-3.3h-8.4c-2.1 0-3.9 1.5-3.9 3.3v15.5c0 1.8 1.8 3.3 4 3.3h8.3zm-102.3 38.1a2.6 2.6 0 0 1-2.5 2.6h-53.3a2.6 2.6 0 0 1-2.6-2.6v-12.2a2.6 2.6 0 0 1 2.6-2.6h53.3a2.6 2.6 0 0 1 2.5 2.6v12.2z" fill="#fff"/><path fill="#fff" d="M173.9 215.4h11.6v25.4h-11.6z"/></svg>