<svg xmlns="http://www.w3.org/2000/svg" width="361" height="361"><path d="M269 216c0 2-2 3-4 3h-13c-2 0-4-1-4-3v-93c0-2 2-4 4-4h13c2 0 4 2 4 3v94z" fill="none" stroke="#fff" stroke-width="10" stroke-miterlimit="10"/><path d="M274 244c0 2-1 4-3 4h-26l-2-4v-21l2-4h26c2 0 3 2 3 4v21z" fill="#fff" stroke="#fff" stroke-width="10" stroke-miterlimit="10"/><path d="M277 131h11c6 0 6-10 0-10h-11c-7 0-7 10 0 10zm0 25h11c6 0 6-10 0-10h-11c-7 0-7 10 0 10zm0 25h11c6 0 6-10 0-10h-11c-7 0-7 10 0 10zm0 26h11c6 0 6-10 0-10h-11c-7 0-7 10 0 10z" fill="#fff"/><path fill="#fff" stroke="#fff" stroke-width="10" stroke-miterlimit="10" d="M248 144h21v85h-21z"/><path d="M76 114l21-3c6-2 3-11-3-10l-20 3c-7 1-4 11 2 10zm21 7l-21-3c-6-1-9 8-2 10l20 3c6 1 9-8 3-10zm0 14l-21-3c-6-1-9 8-2 10l20 3c6 1 9-9 3-10zm0 14l-21-3c-6-1-9 8-2 9l20 4c6 1 9-9 3-10zm0 14l-21-3c-6-1-9 8-2 9l20 4c6 1 9-8 3-10z" fill="#fff"/><path d="M97 111h55c6 0 6-10 0-10H97c-7 0-7 10 0 10zm0 62h41c6 0 6-10 0-10H97c-7 0-7 10 0 10zm82-62h20c7 0 7-10 0-10h-20c-7 0-7 10 0 10z" fill="#fff"/><path d="M151 89l27 20v-6l-27 20 6 3V86c0-5-7-5-7 0v40c0 2 3 5 5 3l26-20c2-2 2-4 0-6l-26-20c-4-3-7 3-4 6z" fill="#fff"/><path d="M70 75h17c15 0 27 2 27 5v201c0 3-12 6-27 6H70" fill="none" stroke="#fff" stroke-width="10" stroke-miterlimit="10"/></svg>