<svg xmlns="http://www.w3.org/2000/svg" width="361" height="361"><path d="M181.9 114.4l-7.4 46.3c-.3 2 .6-.7 0-.2l-5 3.7c-3.9 2.7-8.5 5.3-10.2 9.9-3.3 9.2 5 18.2 10.6 24.8l-.9-3.4-5.8 36.5c-.6 4.4-1.7 9-2 13.4-.3 9.8 16 12 18.6 2.8 1.2-4.2 1.5-8.8 2.2-13.1a164731.1 164731.1 0 0 1 5.1-32.4l.5-2.7c.3-2 .4-.3-.8.5 4.9-3.2 11.1-7 14.5-11.9 6.2-8.9-3.9-19.6-9.2-26.2l.9 3.4 5.8-36.4c.7-4.4 1.7-9 2-13.4.1-4.6-4.2-8-8.3-8.6a9.2 9.2 0 0 0-10.6 7c-1.2 4.4 5.5 6.2 6.7 1.9.7-2.6 5.6-2.6 5.2.1l-.3 1.5-1.2 8-3.7 23.3-2.4 14.7c-.3 2.4 1.2 3.8 2.6 5.7l6 8.2c5.3 7.4-6.5 13-11.2 16.4-3.5 2.5-3.2 6.6-3.8 10.6l-6.3 39.7c-.5 3.1-5.7 3.5-5.2.4l.9-5.7 3.5-22.4 2.9-18.2c.8-5-4.4-9.6-7.2-13.4-2.5-3.4-4.5-7-1-10.8 2-2.3 5.4-4 7.9-5.9 1.6-1.1 5.5-3 5.8-5l.8-4.7 6.5-40.9.2-1.6c.7-4.4-6-6.3-6.7-1.9zm-106.7-8.2h211.6c6.5 0 6.5-10 0-10H75.2c-6.5 0-6.5 10 0 10z" fill="#fff"/><path d="M74.8 265.2h211.7c6.4 0 6.4-10 0-10H74.8c-6.4 0-6.4 10 0 10z" fill="#fff"/></svg>