<svg xmlns="http://www.w3.org/2000/svg" width="361" height="361"><path d="M234.6 142.8L192 164.4l2.7-.3c-5.5-2.3-12.6-5.3-18.6-5.2-9.4.2-11.8 9.2-14.2 16.4l-1.4 4.6c-.5 1.5.8.2.8.2l-5.1 2.6L136 193l-16.5 8.4c-6.6 3.4-7.5 11.2-2.1 16.3 4.6 4.3 10.1 1 14.6-1.3l19.8-10 19-9.8-2.6.3c4.2 1.6 8.6 2.9 12.9 4.3 7.3 2.4 14.1-1.7 16.9-8.6 1.6-4 2.7-8.4 4-12.5-.3 1-2.1 1.7-.8 1l1.6-.8 5.7-2.9 31.5-16c3.7-1.9 6.7-3.4 8-7.7 2.5-7.4-6-13.7-12.6-11.3-4.2 1.6-2.3 8.3 1.9 6.8 4.3-1.6 4.7 3.3 1.7 4.9l-6.8 3.4-21 10.7-13.9 7c-1.8 1-2 3.2-2.7 5l-3.3 10.2c-2.7 8.4-14.4 2-19.8.3-3.9-1.3-7.1 1.4-10.6 3.1l-36.2 18.5c-2.6 1.3-6-2.7-2.7-4.4l4.6-2.3 20-10.2 17-8.6c4.2-2.2 5-9 6.3-13.3 1.3-3.9 2.5-7.5 7.4-7.6 3-.1 7 2 9.8 3 2.3.7 6.1 2.8 8.4 1.6l3.7-1.9 37.1-18.9 1.8-.9c4-2 .5-8-3.5-6zM75.2 106.2h211.6c6.5 0 6.5-10 0-10H75.2c-6.5 0-6.5 10 0 10zm-.4 159h211.7c6.4 0 6.4-10 0-10H74.8c-6.4 0-6.4 10 0 10z" fill="#fff"/></svg>