<svg xmlns="http://www.w3.org/2000/svg" width="361" height="361"><path d="M243 283.4a3.8 3.8 0 0 1-3.7 3.8H88.6a3.8 3.8 0 0 1-3.8-3.8V109.6a3.8 3.8 0 0 1 3.8-3.8h150.7a3.8 3.8 0 0 1 3.8 3.8v173.8z" fill="none" stroke="#fff" stroke-width="10" stroke-miterlimit="10"/><path d="M152.5 218.1c-.3 10.7-5.3 22-16.1 25.7-10.7 3.5-21.9-4-26.5-13.3a21 21 0 0 1-.5-17c2-4.6 6-8.4 8.7-12.6 2.6-4.1 4-9.1 5.4-13.7.9-2.7 1.6-8.7 3.8-10.5l-3.4.9c-1.2-.2-.6-.2.2.9l1.7 3c1.8 3.4 2.5 7 3.1 10.6.5 2.7 2.4 7.2 6 6.8 3.1-.4 5-2.5 6.7-5 1-1.5 1.8-3 2.6-4.5l.9-1.7c1-2 .7 0-1.2.2l-3.4-.9a44.3 44.3 0 0 1 12 31.1c0 4.5 7 4.5 7 0a52 52 0 0 0-12.2-34.1c-6.3-7-8.6 1.6-11.8 6.3-.3.6-.7 1-1.1 1.5-.5.5 2.4 2 1.8.4-1-2.5-1-5.4-1.8-8-1.2-4.2-3.4-9-6.6-12.2-6.6-6.6-10.4 11.5-11.4 14.6a48.4 48.4 0 0 1-6.6 14.1c-3.3 4.5-6.5 8.4-8 13.9-3 10.6 1.8 22.3 9.7 29.4a29 29 0 0 0 27.9 6.1c9.9-3.3 16.3-12.7 18.9-22.4a40 40 0 0 0 1.2-9.6c0-4.5-7-4.5-7 0z" fill="#fff"/><path d="M140.5 229.7c-.2 6.2-3.1 12.4-9.5 14-6.3 1.7-12.1-4.2-13.6-9.6-1.7-6.2 3.3-10 6-14.8 1.1-2 1.8-4.5 2.6-6.7.5-1.6.9-5.2 2.1-6.3l-3.4.9c-2-.8-.2.8.5 2 .9 1.9 1.2 4 1.5 6 .4 2 2.2 4.8 4.7 4.6 2.3-.2 3.8-1.5 5-3.3a31.6 31.6 0 0 0 1.7-2.6c.8-1.5 2-2.1 0-1l-4.2-.5a25 25 0 0 1 6.6 17.3c.1 4.5 7.1 4.5 7 0a32.3 32.3 0 0 0-8.7-22.3 3.5 3.5 0 0 0-4.2-.5c-1.2.6-1.7 1.8-2.3 2.8a53.8 53.8 0 0 1-1 2 22.4 22.4 0 0 1-.7 1c-1.3 1.2-.3 1.4 2.9.6-1.3-4.3-2-11-7-12.9-1.1-.4-2.5.1-3.4 1-2 2-2.7 5.4-3.5 8a34.5 34.5 0 0 1-5.7 11.4 18.2 18.2 0 0 0 .3 22.5c5 6.2 13.4 9.3 21 6.4 8.2-3 12-11.8 12.3-20 .1-4.5-6.9-4.5-7 0z" fill="#fff"/><path d="M234.2 101.8a4 4 0 0 1-4 4h-95.9a4 4 0 0 1-4-4V79.2a4 4 0 0 1 4-4h96a4 4 0 0 1 4 4v22.6z" fill="none" stroke="#fff" stroke-width="10" stroke-miterlimit="10"/><path d="M143.5 95.5H164c6.4 0 6.4-10 0-10h-20.4c-6.4 0-6.4 10 0 10zm34.1 0h4c2.7 0 5-2.3 5-5s-2.3-5-5-5h-4c-2.7 0-5 2.3-5 5s2.3 5 5 5zm25.9 32.1c0 .9-.7 1.5-1.5 1.5h-29a1.5 1.5 0 0 1-1.5-1.5v-8.2c0-.8.7-1.5 1.5-1.5h29c.8 0 1.5.7 1.5 1.5v8.2zm21.9 43.8c-.5 5.8-9 4.3-13 4.3h-43.8c-4.7 0-8.5-.5-8.5-6.3v-22c0-4.7-.7-10.3 5.8-10.3h53.7c4.1 0 5.8 2.4 5.8 6.3v28c0 4.5 7 4.5 7 0v-17.5c0-5.8 1-12.4-1.4-17.8-2.4-5.8-8.8-6-14-6h-44c-4 0-9-.7-12.9.9-7.2 3-7 9.9-7 16.5v21.9c0 7.9 4.6 13.3 12.7 13.3H221c6.5 0 10.8-5.2 11.3-11.3.4-4.6-6.6-4.5-7 0z" fill="#fff"/><path d="M245.9 167.2a5.7 5.7 0 0 1-5.7 5.7H234a5.7 5.7 0 0 1-5.7-5.7v-21.7a5.7 5.7 0 0 1 5.7-5.6h6.2a5.7 5.7 0 0 1 5.7 5.6v21.7z" fill="#fff"/><path d="M233.8 183.7c0 1.7-1 3-2.3 3h-4c-1.3 0-2.3-1.3-2.3-3v-53.9c0-1.6 1-3 2.2-3h4.1c1.3 0 2.3 1.4 2.3 3v54z" fill="#fff"/><path d="M229.4 145.4h-59.7c-2 0-2 3 0 3h59.7c1.9 0 1.9-3 0-3zm0 6.4h-59.7c-2 0-2 3 0 3h59.7c1.9 0 1.9-3 0-3zm0 6.4h-59.7c-2 0-2 3 0 3h59.7c1.9 0 1.9-3 0-3zm0 6.3h-59.7c-2 0-2 3 0 3h59.7c1.9 0 1.9-3 0-3zm-1.5-25.4h-55.7c-2 0-2 3 0 3h55.7c1.9 0 1.9-3 0-3zm0 31.8h-55.7c-2 0-2 3 0 3h55.7c1.9 0 1.9-3 0-3z" fill="#fff"/><g fill="#fff"><path d="M175.5 228.6L226 220c6.3-1 3.6-10.7-2.7-9.6l-50.5 8.6c-6.3 1-3.6 10.7 2.7 9.6z"/><path d="M226 228l-50.5-8.6c-6.3-1-9 8.6-2.7 9.6l50.5 8.6c6.3 1.1 9-8.5 2.7-9.6zm0 12l-50.5-8.6c-6.3-1-9 8.6-2.7 9.6l50.5 8.6c6.3 1.1 9-8.5 2.7-9.6zm0 12l-50.5-8.6c-6.3-1-9 8.6-2.7 9.6l50.5 8.6c6.3 1.1 9-8.5 2.7-9.6zm1.3-31.7h54c6.4 0 6.4-10 0-10h-54c-6.5 0-6.5 10 0 10z"/><path d="M227.3 262h54c6.4 0 6.4-10 0-10h-54c-6.5 0-6.5 10 0 10z"/></g><path fill="#fff" d="M280.7 168.8l-17.7 17 6-23.8z"/><path d="M279 167l-17.8 17 4.3 2.6 6-24-3.7 1.6 11.6 6.8c2.9 1.6 5.5-2.8 2.6-4.5l-11.6-6.7c-1.5-.8-3.4-.1-3.8 1.5l-6 23.9c-.7 2.5 2.4 4.3 4.2 2.5l17.7-17.1c2.4-2.3-1.2-6-3.6-3.7zm1.5-47.8l-14.7 25.3c-2.3 4 3.8 7.5 6 3.6l14.7-25.3c2.3-4-3.8-7.5-6-3.6z" fill="#fff"/><path d="M267.9 149.7l15.4 2.9c4.4.8 6.3-6 1.9-6.8l-15.4-2.9c-4.5-.8-6.4 6-2 6.8z" fill="#fff"/><path d="M281.2 147.4l-14.6 25.3c-2.3 4 3.8 7.5 6 3.6l14.7-25.3c2.3-4-3.8-7.5-6-3.6z" fill="#fff"/></svg>