<svg xmlns="http://www.w3.org/2000/svg" width="361" height="361"><path d="M113 138.5l50.6-8.6c6.3-1 3.6-10.7-2.7-9.6l-50.5 8.6c-6.4 1-3.7 10.7 2.6 9.6z" fill="#fff"/><path d="M163.6 137.9l-50.6-8.6c-6.3-1-9 8.6-2.6 9.6l50.5 8.6c6.3 1.1 9-8.5 2.7-9.6zm0 12l-50.6-8.6c-6.3-1-9 8.6-2.6 9.6l50.5 8.6c6.3 1.1 9-8.5 2.7-9.6zm0 12l-50.6-8.6c-6.3-1-9 8.6-2.6 9.6l50.5 8.6c6.3 1.1 9-8.5 2.7-9.6zm1.2-31.7h54c6.5 0 6.5-10 0-10h-54c-6.4 0-6.4 10 0 10z" fill="#fff"/><path d="M164.8 172h54c6.5 0 6.5-10 0-10h-54c-6.4 0-6.4 10 0 10z" fill="#fff"/><path d="M268.6 216c0 1.8-1.6 3.3-3.6 3.3h-13.4c-2 0-3.6-1.5-3.6-3.4v-93.4c0-1.8 1.6-3.4 3.6-3.4H265c2 0 3.6 1.6 3.6 3.4V216z" fill="none" stroke="#fff" stroke-width="10" stroke-miterlimit="10"/><path d="M274.1 244c0 2-1.3 3.7-2.8 3.7h-26c-1.5 0-2.8-1.7-2.8-3.7v-21c0-2 1.3-3.7 2.9-3.7h25.9c1.5 0 2.8 1.6 2.8 3.6V244z" fill="#fff" stroke="#fff" stroke-width="10" stroke-miterlimit="10"/><path d="M276.6 131.4h10.9c6.5 0 6.5-10 0-10h-11c-6.4 0-6.4 10 0 10zm0 24.4h10.9c6.5 0 6.5-10 0-10h-11c-6.4 0-6.4 10 0 10zm0 25h10.9c6.5 0 6.5-10 0-10h-11c-6.4 0-6.4 10 0 10zm0 26h10.9c6.5 0 6.5-10 0-10h-11c-6.4 0-6.4 10 0 10z" fill="#fff"/><path fill="#fff" stroke="#fff" stroke-width="10" stroke-miterlimit="10" d="M248 185.9h20.6v43H248z"/><path d="M204 283.4a3.8 3.8 0 0 1-3.7 3.8H78.6a3.8 3.8 0 0 1-3.8-3.8V109.6a3.8 3.8 0 0 1 3.8-3.8h121.7a3.8 3.8 0 0 1 3.8 3.8v173.8z" fill="none" stroke="#fff" stroke-width="10" stroke-miterlimit="10"/><path d="M167.2 233.7c0 19.5-13 35.3-29 35.3s-32.4-13.6-31.7-33c.4-11.7 7.3-16.2 12.4-24.7 5.4-8.8 8.8-27.8 11.6-29.3.7-.4 7.1 8.1 8.6 18.5 2.4 17.8 12.2-7 12.8-6.4 2 2 4.7 5 6.3 7.4a60.6 60.6 0 0 1 9 32.2z" fill="none" stroke="#fff" stroke-width="10" stroke-miterlimit="10"/><path d="M153 247.4c0 11.5-7.6 20.8-17 20.8a19 19 0 0 1-18.8-19.5c.3-6.9 4.4-9.5 7.4-14.5 3.1-5.2 5.2-16.4 6.8-17.3.4-.3 4.2 4.8 5 10.9 1.5 10.5 7.3-4.1 7.7-3.8a29.2 29.2 0 0 1 3.7 4.4 35.8 35.8 0 0 1 5.3 19zm11.2-145.6a4 4 0 0 1-4 4H94.3a4 4 0 0 1-4-4V79.2a4 4 0 0 1 4-4h66a4 4 0 0 1 4 4v22.6z" fill="none" stroke="#fff" stroke-width="10" stroke-miterlimit="10"/><path d="M103.5 95.5H124c6.4 0 6.4-10 0-10h-20.4c-6.4 0-6.4 10 0 10zm44.1 0h4c2.7 0 5-2.3 5-5s-2.3-5-5-5h-4c-2.7 0-5 2.3-5 5s2.3 5 5 5z" fill="#fff"/></svg>