<svg xmlns="http://www.w3.org/2000/svg" width="361" height="361"><g fill="#fff"><path d="M192.7 220.9c0-1.6 1.2-2.9 2.6-2.9h12c1.5 0 2.7 1.3 2.7 2.9v6.1c0 1.6-1.2 2.9-2.6 2.9h-12.1c-1.5 0-2.6-1.3-2.6-2.9v-6z"/><path d="M190.7 216.3c0-1.7.8-3 1.9-3h17.6c1 0 1.9 1.3 1.9 3v1c0 1.6-.9 3-2 3h-17.5c-1 0-2-1.4-2-3v-1zm40.2 1.6c0 1 .8 1.8 1.8 1.8h33.8a1.8 1.8 0 0 0 1.7-1.8v-9.6c0-1-.8-1.7-1.8-1.7h-33.7a1.8 1.8 0 0 0-1.8 1.7v9.6zm-45.3 49.4a8.3 8.3 0 0 0 8.3 8.3h17.7a8.3 8.3 0 0 0 8.2-8.3v-31.7a8.3 8.3 0 0 0-8.3-8.2H194a8.3 8.3 0 0 0-8.3 8.2v31.7z"/><path d="M213.4 283.4c0 1.9 1.2 3.5 2.7 3.5h4.8c1.4 0 2.6-1.6 2.6-3.5v-63c0-1.9-1.2-3.4-2.7-3.4h-4.7c-1.5 0-2.7 1.5-2.7 3.4v63z"/><path d="M222.8 269c.3 4.8 4.3 5.4 8 5.4h45c3.3 0 7 .2 8.4-3.6 1.2-3 .4-7.4.4-10.5v-17.7c0-3.3.5-7.2-.4-10.5-1-3.8-5.3-3.5-8.3-3.5h-45c-3.8 0-7.8.6-8 5.4-.2 3.3 0 6.7 0 10v25c0 4.7-7.4 4.7-7.4 0v-27.6c0-3.7-.4-7.7.6-11.3 1.5-5.7 7.3-9 12.9-9h50a13 13 0 0 1 12.9 13.1v29.1c0 4.3.3 8.2-1.8 12.1-2.4 4.6-7.5 6.4-12.3 6.4h-49.5c-7.3 0-12.6-5.8-13-12.9-.2-4.7 7.2-4.7 7.5 0z"/><path d="M218.6 237.9H273c3.4 0 3.4 5.2 0 5.2h-54.4c-3.3 0-3.3-5.2 0-5.2zm0 7.4H273c3.4 0 3.4 5.2 0 5.2h-54.4c-3.3 0-3.3-5.2 0-5.2zm0 7.4H273c3.4 0 3.4 5.2 0 5.2h-54.4c-3.3 0-3.3-5.2 0-5.2zm0 7.4H273c3.4 0 3.4 5.2 0 5.2h-54.4c-3.3 0-3.3-5.2 0-5.2zm1.8-29.7h49.8c3.3 0 3.3 5.2 0 5.2h-49.8c-3.4 0-3.4-5.2 0-5.2zm0 37.2h49.8c3.3 0 3.3 5.1 0 5.1h-49.8c-3.4 0-3.4-5.1 0-5.1zm-35 .2c-1.6 0-2.9-1-2.9-2.4v-11.5c0-1.3 1.3-2.4 2.9-2.4h6.2c1.6 0 2.8 1 2.8 2.4v11.5c0 1.3-1.2 2.4-2.8 2.4h-6.2zm36.3 22c0 1 .9 1.9 2 1.9H254a1.9 1.9 0 0 0 2-2V287a1.9 1.9 0 0 0-2-1.9h-30.5a1.9 1.9 0 0 0-1.9 1.9v2.8z"/><path d="M221.5 277.5h8.6V290h-8.6z"/></g><path d="M208.8 217c0-26.4-.8-54.4-9.7-79.6-6.4-18.2-19-34.3-39.9-34.6-9.7-.1-9.7 14.9 0 15 14.5.2 22.2 13.2 26.6 26.9 7.5 23 8 48.3 8 72.2 0 9.7 15 9.8 15 .1z" fill="#fff"/><path d="M146.4 140.3c11.6.3 21.2 9 22 20.7.3 2.8.1 5.6.1 8.4v83.8c0 3.3.2 6.8-.4 10a22.3 22.3 0 0 1-21.8 18h-38.6c-7.4 0-14-1-19.6-6.5a23 23 0 0 1-6.5-17.5v-94.7a22.3 22.3 0 0 1 22.3-22.2h42.5c6.4 0 6.4-10 0-10H109a45 45 0 0 0-19.5 3.4 32.4 32.4 0 0 0-17.7 26c-1.2 8.8-.2 18.3-.2 27.2v47.7c0 9-.5 18.3.2 27.3.8 11.1 7.8 21 17.7 26a41.3 41.3 0 0 0 19.5 3.3h37.4c18.9 0 32.1-15.8 32.1-34v-94.4c0-18-14.4-32-32.1-32.5-6.5-.2-6.5 9.8 0 10z" fill="#fff"/><path d="M70.8 178.2h107.9c2 0 2-3 0-3H70.8c-1.9 0-1.9 3 0 3zm.3 68H179c2 0 2-3 0-3H71.1c-1.9 0-1.9 3 0 3zm70.8-115a6 6 0 0 1-6 6h-22.3a6 6 0 0 1-6-6V93a6 6 0 0 1 6-6H136a6 6 0 0 1 6 6v38.3z" fill="#fff"/><path d="M160.3 115a4.3 4.3 0 0 1-4.3 4.3h-17.6a4.3 4.3 0 0 1-4.4-4.3v-9.3a4.3 4.3 0 0 1 4.4-4.4H156a4.3 4.3 0 0 1 4.3 4.4v9.3zm-26.7-29.6c-.5-5.9-5.7-9-10.7-11a84.8 84.8 0 0 0-30.3-4.8c-4.5 0-4.5 7 0 7 7.5 0 15 .7 22.3 2.5 2.5.7 11.4 2.7 11.7 6.3.3 4.4 7.3 4.5 7 0z" fill="#fff"/><path d="M129 89.2a4 4 0 0 1-4 4h-2a4 4 0 0 1-4-4v-7.6a4 4 0 0 1 4-4h2a4 4 0 0 1 4 4v7.6zM117.3 115a4.3 4.3 0 0 1-4.3 4.3H95.4A4.3 4.3 0 0 1 91 115v-9.3a4.3 4.3 0 0 1 4.4-4.4H113a4.3 4.3 0 0 1 4.3 4.4v9.3z" fill="#fff"/><path d="M147.8 121.7c0 3.8-3.3 6.9-7.5 6.9h-30.5c-4.1 0-7.5-3-7.5-6.9V99c0-3.8 3.4-6.8 7.5-6.8h30.6c4 0 7.4 3 7.4 6.8v22.8z" fill="#fff"/></svg>