<svg xmlns="http://www.w3.org/2000/svg" width="361" height="361"><path d="M289.8 141.6a7.7 7.7 0 0 1-1.2 10.9L256.3 178a7.7 7.7 0 0 1-10.9-1.2L198.1 117a7.7 7.7 0 0 1 1.3-10.9l32.2-25.5a7.7 7.7 0 0 1 10.9 1.2l47.3 59.8z" fill="#fff" stroke="#fff" stroke-miterlimit="10"/><path d="M162.8 164.2l81.3 5.9c6.4.4 6.4-9.6 0-10l-81.3-5.9c-6.4-.4-6.4 9.6 0 10z" fill="#fff"/><path fill="#fff" d="M145.6 143l14 16-14.4 15.6z"/><path d="M142 146.5l14.1 16v-7L141.6 171l8.6 3.5.4-31.6c.1-6.5-9.9-6.5-10 0l-.4 31.6c-.1 4.3 5.5 6.8 8.5 3.6l14.5-15.6c2-2.1 1.8-5 0-7.1l-14-16c-4.3-4.9-11.3 2.2-7.1 7z" fill="#fff"/><ellipse transform="rotate(-31.1 262 105)" cx="261.9" cy="105" rx="17.7" ry="21.2" fill="none" stroke="#fff" stroke-width="10" stroke-miterlimit="10"/><path fill="#fff" stroke="#fff" stroke-miterlimit="10" d="M207.4 161.5l14.3-25.3 15 25.2z"/><path d="M132.4 151.7l-11 .6c-4.4.3-4.5 7.3 0 7l11-.6c4.5-.3 4.5-7.3 0-7zm-37.3 4.5l-11.8 5.5c-4.1 1.9-.5 7.9 3.5 6l11.8-5.5c4.1-1.9.5-7.9-3.5-6zm-17.2 13.9l-6 6.9c-1.3 1.4-1.5 3.5 0 4.9 1.2 1.3 3.7 1.4 5 0l6-6.9a3.8 3.8 0 0 0 0-5c-1.4-1.2-3.8-1.4-5 0zm54.4-28.4h-18.7c-4.5 0-4.5 7 0 7h18.8c4.5 0 4.5-7 0-7zm-33.2 2.7l-12.5 5.5c-4.2 1.8-.6 7.8 3.5 6l12.5-5.5c4.1-1.8.6-7.8-3.5-6zm-21.2 10L71 160c-1.4 1.3-1.3 3.7 0 5 1.4 1.4 3.5 1.2 5 0l6.7-5.8c1.5-1.2 1.3-3.7 0-5-1.4-1.4-3.5-1.2-5 0zm54.5 8l-15.3 4.3c-4.3 1.2-2.5 8 2 6.7l15.2-4.2c4.3-1.2 2.5-8-1.9-6.8zm-25.7 11.4l-7.9 5c-3.8 2.4-.3 8.5 3.5 6l8-5c3.7-2.4.2-8.5-3.6-6zM88 187.2l-5.5 6.5c-1.3 1.4-1.5 3.5 0 5 1.2 1.2 3.7 1.4 5 0l5.4-6.6c1.2-1.4 1.4-3.5 0-5-1.3-1.2-3.7-1.4-5 0zm-15.3 15l-1.8 3.7c-.8 1.7-.5 3.8 1.3 4.8 1.5.9 4 .5 4.8-1.3l1.7-3.7c.8-1.8.5-3.8-1.2-4.8-1.6-1-4-.5-4.8 1.2zm60-28.2l-18.3 7.8c-4.2 1.7-.6 7.7 3.5 6l18.4-7.8c4.1-1.7.5-7.7-3.6-6zm-27 12.2l-7.5 7c-3.4 3 1.6 8 4.9 5l7.6-7c3.3-3.1-1.7-8-5-5zm-15 15l-5 7c-1.1 1.5-.3 3.8 1.2 4.7 1.8 1 3.7.3 4.8-1.2l5-7c1.1-1.6.3-4-1.2-4.8-1.8-1-3.7-.3-4.8 1.2zM79 216a6566.2 6566.2 0 0 0-1.6 3.9c-.4.9-.7 1.7-.4 2.7a3.5 3.5 0 0 0 1.6 2c1.5 1 4 .6 4.8-1.2a6566.2 6566.2 0 0 0 1.7-4c.4-.8.6-1.6.3-2.6a3.5 3.5 0 0 0-1.6-2.1c-1.5-.9-4-.5-4.8 1.3zm27.2-54l-8.7 3.4c-1.8.7-3 2.3-2.5 4.3.5 1.7 2.6 3.2 4.3 2.5l8.8-3.5c1.7-.7 3-2.3 2.4-4.3-.5-1.7-2.5-3.1-4.3-2.5zm-18 13.5l-6.6 5.3c-1.5 1.2-1.3 3.7 0 5 1.4 1.4 3.5 1.2 5 0l6.6-5.4c1.4-1.2 1.2-3.7 0-5-1.5-1.4-3.5-1.1-5 0zm-14.8 13.7l-2.4 3.3c-1.1 1.6-.3 4 1.3 4.8 1.7 1 3.6.3 4.8-1.2l2.4-3.4c1-1.5.3-3.9-1.3-4.8-1.7-1-3.6-.3-4.8 1.3zm38.7-38.4l-7.8 1.7c-1.9.4-3 2.5-2.5 4.3.6 2 2.5 2.8 4.3 2.4l7.8-1.6c2-.4 3-2.5 2.5-4.3-.5-2-2.5-2.8-4.3-2.5z" fill="#fff"/><g fill="#fff"><path d="M201.5 251c.3-.9 1.4-.7.2-.7h-14.2c.7 0 .8 2.8.8-.2v-20.8c0 1.7-1.8 1.5-.4 1.5h14.2c-.7 0-.8-2.8-.8.2v20.9c0 4.5 7 4.5 7 0v-11.8c0-4 1-9-.4-12.8-1.7-4.9-9.6-3.5-13.6-3.5-4.8 0-11-1.1-13 4.5-1.2 3.5 0 9 0 12.7 0 4-1 9 .4 12.8 1.8 4.9 9.7 3.5 13.6 3.5 4.8 0 11 1.1 13-4.5 1.4-4.2-5.3-6-6.8-1.8z"/><path d="M229.2 250.3c0-.1 1.5 0-.2 0h-13.7c-.8 0 .7 1.5.7.6v-30.5c0 1-1.7.9.2.9h13.7c.8 0-.8-1.6-.8-.6v30.5c0 4.5 7 4.5 7 0V221c0-6.8-6-6.6-11-6.6-5.6 0-14.1-1.9-16 5-1 4.3 0 9.7 0 14v17.3c0 6.8 6 6.7 11 6.7 5.6 0 14 1.8 15.9-5.1 1.1-4.4-5.6-6.3-6.8-2z"/><path d="M257 250.3h.5-13.9c-1.3 0 .2 1.1.2.6v-40.8c0 1.2-1.3.9 1 .9h12.7c.5 0-.6-1.6-.6-.5v40.7c0 4.5 7 4.5 7 0V214c0-4.9-.4-10.1-6.8-10.1h-10c-2.9 0-6.2-.5-8.5 1.8-3.1 3.1-1.8 10.4-1.8 14.3v23.5c0 3.9-1.3 12.2 4.2 13.3 5.4 1 11.3.3 16.8.3 3 0 5.4-2.2 6-5 1-4.5-5.8-6.4-6.8-2zm27.8 0c0-.2 1.3 0 0 0h-12.4c-2.3 0-.8-.1-.8.7v-53.4c0 .5-1.6.8.2.8h12.6c1.8 0 .3.2.3-1v53.8c0 4.6 7 4.6 7 0v-53c0-7.3-6.8-6.8-12.1-6.8-5.1 0-15-1.6-15 6.2V251c0 6.5 6.5 6.2 11.1 6.2 5.5 0 13.9 1.8 15.8-5 1.2-4.4-5.5-6.2-6.7-1.9zM202.3 291l-1.6-6.3h-9l-1.5 6.3h-7a234.3 234.3 0 0 1 4.8-14.6l4.8-12.5h7.3a327.8 327.8 0 0 1 4.8 12.6c1.6 4.5 3.2 9.3 4.7 14.5h-7.3zm-6-21.9a176.4 176.4 0 0 0-1.9 5.6l-.8 2.7a91.7 91.7 0 0 0-.6 2.8h6.6l-.7-2.8-.7-2.7a134 134 0 0 0-2-5.6zm27.4 22.4c-2.2 0-4-.2-5.5-.7a8.5 8.5 0 0 1-3.6-2c-.8-1-1.5-2-1.8-3.3a15.6 15.6 0 0 1-.6-4.3v-17.3h6.8v17c0 1 .1 2 .3 2.8.1.8.4 1.4.7 1.8.3.5.8.8 1.5 1s1.4.4 2.3.4c1 0 1.8-.1 2.4-.3a3 3 0 0 0 1.5-1c.3-.6.6-1.2.7-2 .2-.7.2-1.7.2-2.8v-17h6.8v17.4c0 1.5-.2 3-.5 4.3a7.4 7.4 0 0 1-2 3.2c-.9 1-2.1 1.6-3.6 2.1s-3.4.7-5.6.7zm40-27.6v4.4h-9V291h-6.8v-22.7h-9v-4.4h24.7zm2.8 13.5c0-4.7 1-8.2 3.2-10.6 2.2-2.4 5.2-3.5 9-3.5 4 0 7 1.1 9.1 3.5 2.1 2.4 3.2 6 3.2 10.6s-1 8.2-3.2 10.6a11.5 11.5 0 0 1-9 3.6c-4 0-7-1.2-9.2-3.6-2-2.4-3.1-6-3.1-10.6zm6.9 0l.1 3.7c.2 1.1.4 2.1.8 3a4.9 4.9 0 0 0 1.6 2c.7.5 1.7.8 2.8.8 1.2 0 2-.3 2.8-.8a4.8 4.8 0 0 0 1.7-2c.3-.9.6-1.9.7-3l.2-3.7-.2-3.7a10 10 0 0 0-.7-3 4.9 4.9 0 0 0-1.7-2c-.7-.5-1.6-.8-2.8-.8s-2 .3-2.8.8c-.7.5-1.2 1.2-1.6 2-.4.9-.6 1.9-.8 3a33 33 0 0 0-.2 3.7z"/></g></svg>