<svg xmlns="http://www.w3.org/2000/svg" width="361" height="361"><path d="M93 74v214c0 5 7 5 7 0V74c0-5-7-5-7 0zm76 208c0 3 2 5 5 6l8 1 8 3h19l23-1a85 85 0 0 0 27-6c4-1 17-5 14-12-4-8-17-9-24-11h-14l-15 4c-10 4-26-1-35 5-5 3-15 3-16 11 0 2 3 2 3 0 0-7 12-6 15-9l9-2c9 0 18 1 26-2l13-4c5-2 11 0 16 1s10 2 15 5a10 10 0 0 1 4 3c1 3-3 4-4 5-8 4-16 7-24 8-12 2-24 1-36 2l-18-1-8-2c-2-1-8-1-8-4 0-2-3-2-3 0z" fill="#fff"/><path d="M150 278c0 3 2 6 5 7l16 4c11 4 25 2 37 2 13-1 26 0 40-2 9-1 17-4 25-7a91 91 0 0 0 13-6c2-1 6-3 6-6 0-7-7-11-13-13a89 89 0 0 0-16-4l-18-3c-10 1-19 6-28 8-5 2-11 1-16 2h-15l-12 2-5 3c-7 2-19 5-19 13 0 2 3 2 3 0 0-8 15-8 21-12l4-2c8-2 16-1 24-2 5 0 10 1 15-1l15-4 13-4c7 0 15 2 22 4a65 65 0 0 1 15 5c3 1 9 5 6 9s-9 6-13 8a156 156 0 0 1-14 4 114 114 0 0 1-31 4l-44 2a50 50 0 0 1-17-4c-4-1-15-1-16-7 0-1-3-2-3 0zm40-113l50-88h-9l51 88 4-8H185c-6 0-6 10 0 10h101a5 5 0 0 0 5-7l-51-88a5 5 0 0 0-9 0l-50 88c-4 5 5 10 8 5z" fill="#fff"/><path d="M232 100v31c0 5 7 5 7 0v-31c0-4-7-4-7 0zm0 45v4c0 2 2 4 4 4s3-2 3-4v-4c0-1-1-3-3-3s-4 2-4 3zM72 212v2l2 2 1-2v-2l-1-1-2 1z" fill="#fff"/><path d="M75 213l6-4c2-1 0-4-1-3l-6 4c-2 2 0 4 1 3z" fill="#fff"/><path d="M80 209l6 2c2 1 3-2 1-3l-6-2c-2-1-2 2-1 3z" fill="#fff"/><path d="M88 211l8-11c1-2-2-3-3-2l-7 11c-1 2 1 4 2 2zm-10 8l-2-4c-1-2-4 0-3 1l2 4c1 2 4 1 3-1z" fill="#fff"/><path d="M75 219l-5 6c-1 2 2 3 3 2l4-6c2-2-1-3-2-2zm67-39l7-1c2 0 3-3 3-5-1-2-3-2-4-2l-8 1c-2 0-3 3-3 4l4 3zm19 0l3 2c1 1 4 0 5-1a4 4 0 0 0-2-5l-3-2a4 4 0 0 0-4 1 4 4 0 0 0 1 5zm13 10l2 3c1 2 3 3 5 2 1-1 2-4 1-5l-2-3c-1-2-3-2-5-1-1 0-2 3-1 4zm9 17l1 3c1 2 3 3 5 2a4 4 0 0 0 2-2l-1-3-1-3c-1-2-4-2-5-2a4 4 0 0 0-2 2l1 3zm5 18l1 3c0 2 3 3 4 3l3-4-1-4c0-2-2-3-4-2-2 0-3 2-3 4zm-64-37l7-4c4-2 1-8-3-6l-7 3c-4 3-1 9 3 6zm66 56v3a4 4 0 0 0 4 4c2 0 3-2 3-4v-3a4 4 0 0 0-3-4 4 4 0 0 0-4 4zm-81-44l5-6c2-1 2-3 0-5a4 4 0 0 0-5 0l-5 6c-2 1-2 3 0 5a4 4 0 0 0 5 0z" fill="#fff"/></svg>