<svg xmlns="http://www.w3.org/2000/svg" width="361" height="361"><path d="M182 114l-7 47v-1l-5 4c-4 3-9 5-11 10-3 9 5 18 11 25l-1-3-6 36-2 13c0 10 16 12 19 3l2-13a164731 164731 0 0 1 5-32l1-3c0-2 0 0-1 1 5-4 11-7 14-12 6-9-4-20-9-27l1 4 6-37 2-13c0-5-4-8-9-9a9 9 0 0 0-10 7c-1 5 5 7 7 2 0-2 5-2 5 0l-1 2-1 8-3 23-3 15 3 6 6 8c5 7-7 13-11 16s-4 7-4 11l-7 40c0 3-5 3-5 0l1-6 4-22 3-18c0-5-5-10-8-14-2-3-4-7-1-11l8-5c2-2 6-3 6-5l1-5 6-41 1-2c0-4-6-6-7-2zm-107-8h212c6 0 6-10 0-10H75c-6 0-6 10 0 10z" fill="#fff"/><path d="M75 265h212c6 0 6-10 0-10H75c-7 0-7 10 0 10z" fill="#fff"/></svg>