<svg xmlns="http://www.w3.org/2000/svg" width="361" height="361"><path d="M142.1 112c1.6 11.7 16.8 9.1 25.3 9.1h82c5.6 0 10.5-1.5 12.7-7 1-2.5.3-6.4.3-9 0-4.8-4-7.9-8.4-9-2.3-.5-5-.2-7.2-.2h-89.5c-2.8 0-5.5 0-8.2.6-7.6 1.8-7 9.5-7 15.5 0 4.6 7 4.6 7 0 0-2.5-1.2-7.5 1.9-8.8 1-.4 2.5-.3 3.7-.3h97c5.1 0 3.7 5.8 3.7 9.1 0 3-8.6 2.1-10.1 2.1h-82c-1.9 0-13.7 1.3-14.2-2-.6-4.5-7.6-4.5-7 0z" fill="#fff"/><path d="M171.8 118v19.3c0 4.5 7 4.5 7 0v-19.2c0-4.5-7-4.5-7 0zm-14.8.8v19.4c0 4.5 7 4.5 7 0v-19.4c0-4.5-7-4.5-7 0z" fill="#fff"/><path d="M281.1 186.2v47.3c0 3.3-8.4 1.8-10.5 1.8h-19.5c-3.7 0-2.5-4.6-2.5-7.5V194a5 5 0 0 0-5-5H204a5 5 0 0 0-5 5c0 1 .6 5.8-.7 5.8h-59.7c-1.8 0-1-4.4-1-5.8a5 5 0 0 0-5-5H81.8c-4.3 0-2.5-12-2.5-14.6 0-2.4-1.8-15.5 2.3-15.5h51v-10l5 5c0-.7-.1-9 .2-9h61c.4 0 .2 8.2.2 9a5 5 0 0 0 5 5c19-.2 38 0 57 0h13.3c2.1 0 6.5-.9 6.8 2.2.8 8.4 0 17.2 0 25.7 0 6.4 10 6.4 10 0v-14.3c0-5 .7-10.5-.6-15.3-2.9-10.5-16.4-8.4-24.6-8.4H204l5 5c0-5 .6-10-2.2-14.4-2.2-3.6-6-4.5-10-4.5h-56.6c-3.7 0-6.9.6-9.6 3.5-3.8 4.1-3 10.3-3 15.4a5 5 0 0 0 5 5c6.5 0 6.5-10 0-10h-51c-8.7 0-12.3 7.5-12.3 15.1V185c0 7.5 4.6 14 12.6 14h50.7l-5-5c0 5.8.5 10.8 5.7 14.5 2.1 1.5 5.3 1.2 7.8 1.2h54.4c2.3 0 4.5.2 6.7-.7 6.3-2.6 6.8-9.1 6.8-15l-5 5h39.6l-5-5v36.5c0 7.6 2.6 13.9 11 14.8 5.7.6 11.6 0 17.2 0 5 0 13.4 1.5 18.1-1.2 6.2-3.5 6.2-9.4 6.2-15.5v-42.4c0-6.5-10-6.5-10 0z" fill="#fff"/></svg>