<svg xmlns="http://www.w3.org/2000/svg" width="361" height="361"><path d="M109 193h143c6 0 6-10 0-10H109c-7 0-7 10 0 10z" fill="#fff"/><path d="M274 203a21 21 0 0 0-21-20c-6 0-6 10 0 10s11 4 11 10 10 6 10 0zm-165 22h143c6 0 6-10 0-10H109c-7 0-7 10 0 10z" fill="#fff"/><path d="M264 205c0 5-5 9-11 9-6 1-6 11 0 10a21 21 0 0 0 21-19c0-7-10-7-10 0zm-11 40H110c-7 0-7 10 0 10h143c7 0 7-10 0-10z" fill="#fff"/><path d="M88 235a21 21 0 0 0 21 20c6 0 6-10 0-10s-11-4-11-10-10-6-10 0z" fill="#fff"/><path d="M98 234c0-5 5-9 11-9 6-1 6-11 0-10a21 21 0 0 0-21 19c0 7 10 7 10 0z" fill="#fff"/><path d="M287 267c0 4-3 6-6 6H81c-3 0-6-3-6-6v-99c0-3 3-6 6-6h200c3 0 6 3 6 6v99zM125 123l2 1v11l-2 1H86l-2-1v-11l2-1h39z" fill="none" stroke="#fff" stroke-width="10" stroke-miterlimit="10"/><path d="M80 126l30-40h-8l30 40 5-8H76c-7 0-7 10 0 10h61c3 0 6-4 4-7l-31-40c-2-3-6-3-8 0l-31 40c-4 5 5 10 9 5z" fill="#fff"/><path d="M200 124h2v11l-2 1h-39l-2-1v-11l2-1h40z" fill="none" stroke="#fff" stroke-width="10" stroke-miterlimit="10"/><path d="M155 126l30-40h-8l30 40 5-8h-61c-7 0-7 10 0 10h61c3 0 6-4 4-7l-31-40c-2-3-6-3-8 0l-31 40c-4 5 5 10 9 5z" fill="#fff"/><path d="M275 124h2v11l-2 1h-39l-2-1v-11l2-1h39z" fill="none" stroke="#fff" stroke-width="10" stroke-miterlimit="10"/><path d="M230 126l30-40h-8l30 40 5-8h-61c-7 0-7 10 0 10h61c3 0 6-4 4-7l-31-40c-2-3-6-3-8 0l-31 40c-4 5 5 10 9 5z" fill="#fff"/></svg>