<svg xmlns="http://www.w3.org/2000/svg" width="361" height="361"><path d="M99 233c0-10.7-.6-22.2-6-31.6-4.4-7.7-12.5-10.8-21-11-2 0-2 3 0 3 8 .2 14.7 3.2 18.9 10.4 4.9 8.5 5 19.6 5 29.1 0 2 3 2 3 0z" fill="#fff"/><path d="M105 233a50.7 50.7 0 0 0-8.7-31.5 30.5 30.5 0 0 0-24.4-11c-1.9 0-1.9 3 0 3 9 .1 17.2 3.3 22.7 10.7a49 49 0 0 1 7.3 28.7c0 2 3 2 3 0z" fill="#fff"/><path d="M84.7 233c0-8 .4-17-2.6-24.6-1.6-3.8-4.6-6-7.7-8.6-1.5-1.2-3.6.9-2.1 2.1 2.8 2.4 5.7 4.4 7 8 3 7 2.3 15.7 2.4 23 0 2 3 2 3 0z" fill="#fff"/><path d="M90.6 233c0-8 0-17.3-4.2-24.3-2.8-4.5-7.9-6.6-12.3-9.1-1.7-1-3.2 1.6-1.5 2.6 3.8 2.1 8.1 3.8 10.8 7.4 4.6 6.2 4.2 16 4.2 23.3 0 2 3 2 3 0zm22.3 0c0-6.6-.4-16.4 4.7-21.5 1.5-1.5 3.6-1.8 3.9-4.2.2-2-2.8-2-3 0 0 .1-4.1 3.3-4.8 4.2-3.9 6-3.7 14.7-3.8 21.4 0 2 3 2 3 0z" fill="#fff"/><path d="M106.9 233.3c1-5.4 1.4-13.9 5.2-18.4 2.2-2.7 6.3-4.2 9-6.6 1.4-1.2-.7-3.4-2.2-2-2.8 2.4-6.8 3.9-9.2 6.8-4 4.9-4.6 13.5-5.7 19.4-.4 2 2.5 2.7 3 .8zm20.3-.4c0-4.7-.2-9.7 1.3-14.3.8-2.3 2.8-3.6 4.5-5 1.5-1.3-.6-3.4-2-2.2-2 1.7-4 3.1-5 5.6-2.2 4.8-1.8 10.8-1.8 16 0 1.9 3 1.9 3 0z" fill="#fff"/><path d="M123.3 233c0-4.7 0-10.1 2.4-14.3 1.5-2.4 4.6-3.6 7-5 1.7-.9.2-3.5-1.5-2.5-2.8 1.5-6 2.8-7.8 5.6-3 4.5-3 10.8-3 16.1 0 2 3 2 3 0zm16.1 0c0-6.7-.4-16.4 4.6-21.7 1.4-1.6 3.7-2 4-4.4.2-2-2.8-2-3 0 0 .1-4 3.1-4.6 4-4.1 6-4 15.2-4 22 0 2 3 2 3 0z" fill="#fff"/><path d="M133.4 233.3c1-5.5 1.5-14.1 5.2-18.7 2.3-2.7 6.3-4.3 9-6.7 1.4-1.3-.7-3.4-2.2-2-2.8 2.4-6.8 4-9.2 6.9-4 5-4.5 13.7-5.7 19.7-.3 2 2.6 2.7 3 .8zm28.4-.3c0-6.3 0-14.1 4.3-19.3 2.2-2.7 5.7-4 8.4-6 1.6-1 .1-3.6-1.5-2.5-3.3 2.3-7.3 3.8-9.7 7.2-4.3 5.8-4.5 13.8-4.5 20.6 0 2 3 2 3 0z" fill="#fff"/><path d="M155.8 233c.1-6.7.6-14.2 6-19 3.4-3.2 8.6-4.3 12.7-6.2 1.8-.9.3-3.5-1.5-2.6-4.8 2.2-10 3.6-14 7.2-5.6 5-6 13.7-6.2 20.6 0 2 3 2 3 0zm13.8-.2c0-4.6-.4-11.6 2.9-15.4 1-1.2 2.6-1.5 2.8-3.4.2-2-2.8-2-3 0 0-.6-2.6 2-3 2.8-2.8 4.4-2.7 11-2.7 16 0 2 3 2 3 0z" fill="#fff"/><path d="M165.6 233.2c.7-4.2 1-9.8 3.4-13.4 1.2-2 4.2-3.2 5.8-4.8 1.4-1.3-.7-3.4-2-2-2 1.7-4.7 3-6.2 5-2.9 3.8-3.1 10-3.9 14.4-.3 1.9 2.6 2.7 2.9.8zm-15.8-.3c0-6.2 1.3-16.4-4.5-20.5-1.6-1-3.1 1.5-1.6 2.6 1 .6 1.2.6 1.7 1.8 1.8 4.9 1.4 11 1.4 16 0 2 3 2 3 0z" fill="#fff"/><path d="M155.8 232.5c-.8-4.6-1.1-10.4-3.8-14.4-1.5-2.3-4.5-3.5-6.4-5.4-1.4-1.4-3.5.7-2.2 2 1.8 1.8 4.2 3 5.9 4.7.9 1 1.2 2.5 1.6 3.8.9 3.3 1.4 6.7 2 10 .3 2 3.2 1.2 2.9-.7zm61.2.4c.1-13.6 2.5-28.8 19-29.1 1.9 0 1.9-3 0-3-6.8 0-12.7 2.2-16.8 7.8-4.8 6.7-5.1 16.4-5.2 24.3 0 2 3 1.9 3 0z" fill="#fff"/><path d="M212.3 232.9c.1-15.4 6.7-28.8 23.7-29.1 1.9 0 1.9-3 0-3-7.5 0-14.3 2.3-19.4 8-5.9 6.4-7.2 15.7-7.3 24 0 2 3 2 3 0z" fill="#fff"/><path d="M228.5 232.9c0-5.6-.2-11.5 1.6-16.8 1-2.8 3.6-4.4 5.8-6.1 1.5-1.2-.6-3.3-2.1-2.2-2.5 2-4.8 3.6-6.2 6.5-2.5 5.5-2 12.7-2.1 18.6 0 2 3 2 3 0z" fill="#fff"/><path d="M223.7 232.9c0-5.6 0-12.2 3.2-17 1.9-2.9 5.8-4.2 8.7-5.7 1.7-.9.2-3.5-1.5-2.6-3.6 2-7.3 3.4-9.8 6.7-3.8 5-3.5 12.8-3.6 18.6 0 2 3 1.9 3 0zm-18 0c0-5.3 0-11.3-2.7-16a8.5 8.5 0 0 0-2.4-2.7c-.6-.4-1.3-1.2-1.2-.5-.3-2-3.3-2-3 0 .2 1.8 1.6 2.2 2.8 3.3 4 3.4 3.6 11.3 3.6 15.9 0 1.9 3 1.9 3 0z" fill="#fff"/><path d="M210.2 232.5c-.9-4.6-1.3-10.8-4.3-14.6-1.7-2.3-4.8-3.4-7-5.3-1.4-1.3-3.6.8-2 2.1 2 1.8 4.6 3 6.5 4.8 3 3 3.2 10 3.9 13.8.4 1.8 3.3 1 2.9-.9zm35.3.4c0-6.8.2-14-1.5-20.6-.9-3-2.8-5.3-4.9-7.6-1.2-1.5-3.3.6-2 2.1 6.2 7.4 5.4 16.7 5.4 26 0 2 3 2 3 0z" fill="#fff"/><path d="M249 232.9c0-6.8.2-14.2-2.5-20.6-1.5-3.4-4.6-5.4-7.3-7.6-1.5-1.2-3.7.9-2.2 2.1 2.5 2 5 3.6 6.6 6.4 3 5.6 2.5 13.6 2.5 19.7 0 1.9 3 1.9 3 0zm7.4 0c0-5.9-.2-14.4 4.6-18.7 1.5-1.4 3.7-1.6 4-4 .2-2-2.8-1.9-3 0 0-.3-4 2.8-4.6 3.5-3.8 5.3-4 12.9-4 19.2 0 2 3 1.9 3 0z" fill="#fff"/><path d="M250.4 233.3c1-4.9 1.6-12.7 5.3-16.4 2.4-2.3 6.2-3.6 8.8-5.6 1.6-1.2-.6-3.3-2-2.2-3 2.3-7 3.5-9.4 6.3-3.8 4.2-4.5 11.8-5.6 17-.4 2 2.5 2.8 3 .9zM237 233c0-3.7-.2-7.8-2-11a6.8 6.8 0 0 0-2-2l-.6-.4c-.6-.3 0 0 0 .5-.2-1.9-3.2-2-3 0 .2 1.5 1.2 1.7 2.2 2.6 2.6 2.1 2.3 7.3 2.4 10.3 0 1.9 3 1.9 3 0z" fill="#fff"/><path d="M240 232.6c-.5-3.2-1-7.4-3-10-1.3-1.6-3.5-2.3-5-3.6-1.5-1.2-3.6 1-2.2 2.2 1.5 1.2 3.4 1.9 4.7 3.2.7.5.9 1.5 1.1 2.3.7 2.2 1.1 4.4 1.6 6.7.4 1.9 3.3 1 2.9-.8zm38.8.4c0-6.6 0-14 3.8-19.7 2.1-3.1 6-4.6 8.9-6.7 1.6-1.1 0-3.7-1.5-2.6-3.2 2.4-7 4-9.5 7.2-4.6 6-4.7 14.6-4.7 21.8 0 1.9 3 1.9 3 0z" fill="#fff"/><path d="M272.8 233c0-7.1.5-15.2 6.2-20.2 3.5-3 8.4-4.2 12.5-6.2 1.7-.9.2-3.5-1.5-2.6-5 2.4-10.3 3.9-14.3 7.8-5.4 5.3-5.8 14.1-5.9 21.2 0 1.9 3 1.9 3 0zm13.8-.3c0-4.6-.4-11.5 2.8-15.3 1.1-1.3 2.7-1.6 2.8-3.5.2-1.9-2.8-1.9-3 0 .1-.5-2.5 2.1-3 2.8-2.8 4.5-2.6 11-2.6 16 0 2 3 2 3 0z" fill="#fff"/><path d="M282.6 233.1c.7-4.1 1-9.7 3.3-13.4 1.3-1.9 4.3-3.1 5.9-4.7 1.4-1.4-.7-3.5-2.1-2.1-1.9 1.8-4.6 3-6.2 5-2.8 3.8-3 10-3.8 14.4-.3 2 2.5 2.7 2.9.8zm-15.8-.3c0-6.2 1.2-16.4-4.6-20.4-1.6-1.1-3 1.5-1.5 2.6 1 .6 1.2.5 1.7 1.7 1.8 5 1.3 11 1.4 16.1 0 2 3 2 3 0z" fill="#fff"/><path d="M272.8 232.4c-.8-4.5-1.2-10.4-3.8-14.3-1.5-2.3-4.5-3.6-6.5-5.5-1.4-1.3-3.5.8-2 2.1 1.7 1.8 4 3 5.8 4.7.9 1 1.2 2.5 1.5 3.7 1 3.3 1.5 6.8 2 10.1.4 2 3.3 1.1 3-.8zm-93 35.3c-.2 1.7-3.4 1-4.6 1h-6.1c-2.4 0-1.3-7.4-1.3-9.2 0-1.4 9.7-.7 11-.7 1.9 0 1 7.8 1 9.2 0 2 3 2 3 0 0-3.4 1.7-12.2-3.9-12.2h-8.2c-2.6 0-5.4 0-5.9 3.3-.4 2.4 0 5 0 7.4 0 2.4.5 5.2 3.7 5.2h8.4c2.5 0 5.3 0 5.8-3.3.3-1.8-2.6-2.6-2.9-.7zm-2.5-124.4l-8.7-12.2c-2.6-3.6-8.6-.1-6 3.5l8.7 12.2c2.6 3.7 8.6.2 6-3.5zm-33.8-7.7l-8.3-5c-3.9-2.4-7.4 3.6-3.6 6l8.3 5c3.9 2.4 7.4-3.6 3.6-6zm32.3 38.2l-7.5-15.4c-2-4-8-.5-6 3.5l7.4 15.5c2 4 8 .5 6-3.6zm9.3.8l-3.1-17.8c-.8-4.4-7.6-2.5-6.8 1.9l3.2 17.7c.8 4.5 7.5 2.6 6.7-1.8zM123.4 126l-8.4-2c-4.4-1-6.2 5.7-1.8 6.8l8.3 2c4.4 1 6.3-5.7 1.9-6.8zm36.4 21.7l-6.2-5.7a3.5 3.5 0 0 0-5 0c-1.2 1.3-1.3 3.7 0 5l6.2 5.7a3.5 3.5 0 0 0 5 0c1.3-1.3 1.4-3.7 0-5zm-56.6-24.6a24216032237788104 24216032237788104 0 0 0-7.5 3.8 24216032237788104 24216032237788104 0 0 0 11-.3c0-1.8-1.6-3.6-3.5-3.5zm-17.2 2l-2.1.7a3.5 3.5 0 0 0-2.4 4.3 3.5 3.5 0 0 0 4.3 2.4l2-.6a3.5 3.5 0 0 0 2.5-4.3 3.5 3.5 0 0 0-4.3-2.4zm73-4.2l-7-5.3c-1.6-1.2-4-.3-4.8 1.2-1 1.8-.3 3.7 1.2 4.8l7 5.3c1.6 1.2 4 .3 4.8-1.2 1-1.8.3-3.7-1.2-4.8zm-19-11.3l-4-1.6c-1.8-.6-3.9.7-4.3 2.5-.6 2 .6 3.7 2.4 4.3l4.2 1.4c1.7.6 3.8-.7 4.2-2.4.6-2-.6-3.7-2.4-4.3zm-16.5-4.9l-2.4-.4a3.7 3.7 0 0 0-2.7.4 3.5 3.5 0 0 0-1.6 2c-.5 1.8.6 4 2.5 4.4l2.4.4c1 .2 1.8.1 2.7-.4a3.5 3.5 0 0 0 1.6-2c.4-1.8-.6-4-2.5-4.4zm-49.4 25.5l-2 1a3.5 3.5 0 0 0-1.2 4.9 3.5 3.5 0 0 0 4.8 1.2l1.9-1a3.5 3.5 0 0 0 1.2-4.8 3.5 3.5 0 0 0-4.7-1.3zm33-27h-2.3c-2-.2-3.5 1.6-3.5 3.4a108641141710991800 108641141710991800 0 0 0 5.7-3.3zm-15 .5h-2.4a3.5 3.5 0 0 0-3.5 3.5c0 2 1.6 3.5 3.5 3.5H92a3.5 3.5 0 0 0 3.5-3.5c0-2-1.6-3.5-3.5-3.5z" fill="#fff"/><g fill="#fff"><path d="M248.5 291h16c4.5 0 4.5-7 0-7h-16c-4.5 0-4.5 7 0 7zm-172.9-8h7c4.5 0 4.5-7 0-7h-7c-4.5 0-4.5 7 0 7zm26.5-1h7.8c4.5 0 4.5-7 0-7H102c-4.5 0-4.5 7 0 7zm21.8 10h6c2 0 3.5-1.7 3.5-3.6s-1.6-3.4-3.5-3.4h-6c-1.9 0-3.5 1.5-3.5 3.4s1.6 3.6 3.5 3.6z"/><path d="M276 282h-9c-4.6 0-4.6 7 0 7h9c4.4 0 4.4-7 0-7zm-180.6-5.6h-2c-1.9 0-3.5 1.6-3.5 3.5s1.6 3.5 3.5 3.5h2c2 0 3.5-1.6 3.5-3.5s-1.6-3.5-3.5-3.5zM198 285h-6c-1.9 0-3.5 1.6-3.5 3.5s1.6 3.5 3.5 3.5h6c2 0 3.5-1.5 3.5-3.5S200 285 198 285zm9.8 7h16c4.5 0 4.5-7 0-7h-16c-4.5 0-4.5 7 0 7z"/><path d="M217 285.2h2c2 0 3.6-1.6 3.6-3.5s-1.6-3.5-3.5-3.5h-2c-2 0-3.5 1.6-3.5 3.5s1.6 3.5 3.5 3.5zm18.7-7.5h-6c-1.9 0-3.5 1.6-3.5 3.6s1.6 3.4 3.5 3.4h6c1.9 0 3.5-1.5 3.5-3.4s-1.6-3.6-3.5-3.6zm-98-3.6h-9c-4.5 0-4.5 7 0 7h9c4.6 0 4.6-7 0-7zm16.6-.2h-6c-2 0-3.5 1.6-3.5 3.6s1.6 3.4 3.5 3.4h6c1.9 0 3.5-1.5 3.5-3.4s-1.6-3.6-3.5-3.6zm-7.5 18h6c1.9 0 3.5-1.5 3.5-3.4s-1.6-3.6-3.5-3.6h-6c-2 0-3.5 1.7-3.5 3.6s1.6 3.4 3.5 3.4zm-59.1-.1h15.2c4.6 0 4.6-7 0-7H87.7c-4.5 0-4.5 7 0 7zm83-7h9c4.4 0 4.4-7 0-7h-9c-4.6 0-4.6 7 0 7zm-9.2 7.2h16c4.5 0 4.5-7 0-7h-16c-4.6 0-4.6 7 0 7z"/><path d="M156.8 284h6c1.9 0 3.5-1.7 3.5-3.6s-1.6-3.4-3.5-3.4h-6c-2 0-3.5 1.5-3.5 3.4s1.6 3.6 3.5 3.6zm18.3 3.7h2c2 0 3.5-1.5 3.5-3.4s-1.6-3.6-3.5-3.6h-2c-1.9 0-3.5 1.6-3.5 3.6s1.6 3.4 3.5 3.4zm18.8-9h-6c-2 0-3.5 1.6-3.5 3.6s1.6 3.4 3.5 3.4h6c1.9 0 3.5-1.5 3.5-3.4s-1.6-3.6-3.5-3.6z"/><path d="M148.8 282h16c4.5 0 4.5-7 0-7h-16c-4.6 0-4.6 7 0 7zm-29-5.6h-9c-4.4 0-4.4 7 0 7h9c4.6 0 4.6-7 0-7zm-30.7 4.8h-5.5c-1.9 0-3.5 1.6-3.5 3.5s1.6 3.5 3.5 3.5h5.5c2 0 3.5-1.6 3.5-3.5s-1.6-3.5-3.5-3.5zm55.9.9h-2c-2 0-3.5 1.6-3.5 3.5s1.6 3.5 3.5 3.5h2c1.9 0 3.5-1.6 3.5-3.5s-1.6-3.5-3.5-3.5z"/><path d="M148.7 273.9h-2c-1.9 0-3.5 1.6-3.5 3.5s1.6 3.5 3.5 3.5h2c1.9 0 3.5-1.6 3.5-3.5s-1.6-3.5-3.5-3.5zm-41.6 17.9h5.5c2 0 3.5-1.6 3.5-3.5s-1.6-3.5-3.5-3.5h-5.5c-1.9 0-3.5 1.6-3.5 3.5s1.6 3.5 3.5 3.5zm-33.7 0h2c2 0 3.5-1.6 3.5-3.5s-1.6-3.5-3.5-3.5h-2c-1.9 0-3.5 1.6-3.5 3.5s1.6 3.5 3.5 3.5zm21-8.7h2c2 0 3.5-1.6 3.5-3.5s-1.6-3.5-3.5-3.5h-2c-1.9 0-3.5 1.6-3.5 3.5s1.6 3.5 3.5 3.5z"/><path d="M105.7 275h-5.5c-1.9 0-3.5 1.7-3.5 3.6s1.6 3.4 3.5 3.4h5.5c1.9 0 3.5-1.5 3.5-3.4s-1.6-3.6-3.5-3.6zm147 7.5h2c1.9 0 3.5-1.6 3.5-3.6s-1.6-3.4-3.5-3.4h-2c-1.9 0-3.5 1.5-3.5 3.4s1.6 3.6 3.5 3.6zm-39.3-7.5h-11.2c-4.5 0-4.5 7 0 7h11.2c4.5 0 4.5-7 0-7zm-71 5.8h-11.2c-4.5 0-4.5 7 0 7h11.1c4.5 0 4.5-7 0-7zm141.6-7h-15.3c-4.5 0-4.5 7 0 7H284c4.5 0 4.5-7 0-7z"/><path d="M219 280.4h2c2 0 3.6-1.6 3.6-3.5s-1.6-3.5-3.5-3.5h-2c-2 0-3.5 1.6-3.5 3.5s1.6 3.5 3.5 3.5zm42.7 4.6h2c1.9 0 3.5-1.7 3.5-3.6s-1.6-3.4-3.5-3.4h-2c-1.9 0-3.5 1.5-3.5 3.4s1.6 3.6 3.5 3.6zm-19.1-1h2c2 0 3.5-1.7 3.5-3.6s-1.6-3.4-3.5-3.4h-2c-1.9 0-3.5 1.5-3.5 3.4s1.6 3.6 3.5 3.6zM76.4 274h-2c-1.9 0-3.5 1.7-3.5 3.6s1.6 3.5 3.5 3.5h2c2 0 3.5-1.6 3.5-3.5s-1.6-3.5-3.5-3.5zm158.3 18h2c1.9 0 3.5-1.6 3.5-3.5s-1.6-3.5-3.5-3.5h-2c-1.9 0-3.5 1.6-3.5 3.5s1.6 3.5 3.5 3.5zm51.8 0h2c1.8 0 3.4-1.6 3.4-3.5s-1.5-3.5-3.4-3.5h-2c-2 0-3.6 1.6-3.6 3.5s1.7 3.5 3.6 3.5z"/><path d="M278 285.8h10.3c4.5 0 4.5-7 0-7H278c-4.5 0-4.5 7 0 7z"/></g><path d="M98.9 236.4h-9.6c-4.5 0-4.5 7 0 7h9.6c4.5 0 4.5-7 0-7zM79.7 256h2c1.9 0 3.5-1.6 3.5-3.5s-1.6-3.5-3.5-3.5h-2c-1.9 0-3.5 1.6-3.5 3.5s1.6 3.5 3.5 3.5zm72.1-7.8h-2c-1.8 0-3.4 1.6-3.4 3.5s1.6 3.5 3.5 3.5h2c1.8 0 3.4-1.6 3.4-3.5s-1.6-3.5-3.5-3.5zM96.3 252h15c4.4 0 4.4-7 0-7h-15c-4.5 0-4.5 7 0 7zm-16.6-17.3h-5.9c-4.5 0-4.5 7 0 7h5.9c4.5 0 4.5-7 0-7z" fill="#fff"/><path d="M90.8 247h-5.4c-2 0-3.5 1.7-3.5 3.6s1.6 3.5 3.5 3.5h5.3c2 0 3.5-1.6 3.5-3.5s-1.6-3.5-3.5-3.5zm60.2-3.5h-15.7c-4.5 0-4.5 7 0 7H151c4.5 0 4.5-7 0-7z" fill="#fff"/><path d="M126.7 255h5.9c4.5 0 4.5-7 0-7h-6c-4.4 0-4.4 7 0 7zm39.5-10.4h-10.9c-4.5 0-4.5 7 0 7h11c4.4 0 4.4-7 0-7z" fill="#fff"/><path d="M122.5 243.5h-3.2c-1.9 0-3.5 1.6-3.5 3.5s1.6 3.5 3.5 3.5h3.2c2 0 3.5-1.6 3.5-3.5s-1.6-3.5-3.5-3.5zm-20.3 4.8h-5.8c-4.5 0-4.5 7 0 7h5.8c4.6 0 4.6-7 0-7zM83 243h-9.6c-4.5 0-4.5 7 0 7H83c4.5 0 4.5-7 0-7zm12 3h2c1.9 0 3.5-1.7 3.5-3.6s-1.6-3.5-3.5-3.5h-2c-1.9 0-3.5 1.6-3.5 3.5s1.6 3.5 3.5 3.5z" fill="#fff"/><path d="M86 247.1h1.9c1.9 0 3.5-1.6 3.5-3.5s-1.6-3.5-3.5-3.5h-2c-1.9 0-3.5 1.6-3.5 3.5s1.6 3.5 3.5 3.5zm29-11.3h-6c-4.5 0-4.5 7 0 7h5.9c4.5 0 4.5-7 0-7zm55 2h-10.9c-4.5 0-4.5 7 0 7h11c4.4 0 4.4-7 0-7zm-36.8-3.6h-9.6c-4.6 0-4.6 7 0 7h9.6c4.5 0 4.5-7 0-7z" fill="#fff"/><path d="M130.2 247h2c1.9 0 3.5-1.6 3.5-3.5s-1.6-3.5-3.5-3.5h-2c-1.9 0-3.5 1.6-3.5 3.5s1.6 3.5 3.5 3.5zm30.4-6h6c4.4 0 4.4-7 0-7h-6c-4.5 0-4.5 7 0 7z" fill="#fff"/><path d="M144.4 242.7h9.6c4.5 0 4.5-7 0-7h-9.6c-4.5 0-4.5 7 0 7zm-73.2-7.5h101.6c2 0 2-3 0-3H71.2c-2 0-2 3 0 3zm134.6 5.9h8.8c4.5 0 4.5-7 0-7h-8.8c-4.5 0-4.5 7 0 7zm16.6 4.6h15c4.5 0 4.5-7 0-7h-15c-4.5 0-4.5 7 0 7z" fill="#fff"/><path d="M241 232.7h-5.4c-1.9 0-3.5 1.6-3.5 3.5s1.6 3.5 3.5 3.5h5.4c1.9 0 3.5-1.6 3.5-3.5s-1.6-3.5-3.5-3.5zm26.3 3.7h-15.7c-4.5 0-4.5 7 0 7h15.7c4.5 0 4.5-7 0-7zm-3.4 8.2h-2c-1.9 0-3.5 1.6-3.5 3.5s1.6 3.5 3.5 3.5h2c1.9 0 3.5-1.6 3.5-3.5s-1.6-3.5-3.5-3.5z" fill="#fff"/><path d="M249.7 249.6h5.9c4.5 0 4.5-7 0-7h-6c-4.5 0-4.5 7 0 7z" fill="#fff"/><path d="M246.5 246.1h-11c-4.5 0-4.5 7 0 7h11c4.5 0 4.5-7 0-7zm2.2-8.7h-3.2c-1.9 0-3.5 1.6-3.5 3.5s1.6 3.5 3.5 3.5h3.2c2 0 3.5-1.6 3.5-3.5s-1.6-3.5-3.5-3.5zm-21.6 5.6h-6c-4.4 0-4.4 7 0 7h6c4.5 0 4.5-7 0-7zm-7-3.3h2c1.8 0 3.4-1.6 3.4-3.5s-1.6-3.5-3.5-3.5h-2c-1.8 0-3.4 1.6-3.4 3.5s1.6 3.5 3.5 3.5z" fill="#fff"/><path d="M214.1 254.4h5.9c4.5 0 4.5-7 0-7h-6c-4.4 0-4.4 7 0 7zm66.7-11.6h8.8c4.5 0 4.5-7 0-7h-8.9c-4.5 0-4.5 7 0 7z" fill="#fff"/><path d="M268.3 240.6h5.9c4.5 0 4.5-7 0-7h-6c-4.4 0-4.4 7 0 7zm6.3 13.4h2c1.9 0 3.5-1.6 3.5-3.5s-1.6-3.5-3.5-3.5h-2c-1.9 0-3.5 1.6-3.5 3.5s1.6 3.5 3.5 3.5z" fill="#fff"/><path d="M288.9 246h-6c-4.4 0-4.4 7 0 7h6c4.5 0 4.5-7 0-7z" fill="#fff"/><path d="M275.3 247.6h11c4.4 0 4.4-7 0-7h-11c-4.5 0-4.5 7 0 7zm-6.3 8.5h2c1.8 0 3.4-1.6 3.4-3.5s-1.6-3.5-3.5-3.5h-2c-1.8 0-3.4 1.6-3.4 3.5s1.6 3.5 3.5 3.5zm-65-6h9.7c4.5 0 4.5-7 0-7h-9.6c-4.5 0-4.5 7 0 7zm-2-15h88.7c2 0 2-3 0-3H202c-2 0-2 3 0 3zM71.5 262.4h94.7c2 0 2-3 0-3H71.5c-2 0-2 3 0 3zm138 0h81c1.9 0 1.9-3 0-3h-81c-2 0-2 3 0 3z" fill="#fff"/><path d="M208 267.6c-.3 1.8-3.5 1.1-4.7 1.1h-6.2c-2.3 0-1.2-7.4-1.2-9.2 0-1.4 9.7-.7 11-.7 1.9 0 1 7.8 1 9.2 0 2 3 2 3 0 0-3.4 1.7-12.2-3.9-12.2h-8.2c-2.6 0-5.4 0-5.9 3.3-.4 2.4 0 5 0 7.4 0 2.4.5 5.2 3.6 5.2h8.4c2.6 0 5.4 0 6-3.3.2-1.8-2.7-2.6-3-.7zm-136.5.7h94.7c2 0 2-3 0-3H71.5c-2 0-2 3 0 3z" fill="#fff"/><path d="M209.4 268.3h81c2 0 2-3 0-3h-81c-2 0-2 3 0 3z" fill="#fff"/><g fill="#fff"><path d="M186.6 268.2c-1-.1-.8 1-.8 0v-80.6c0 .3 1.8.4 2.8.4.3 0 .2-1 .2 0v79.4c0 2-1 .7-3.1.7-4.5 0-4.5 7 0 7 5.7 0 10-1.7 10-8v-77.5c0-5.8-3-8.7-8.9-8.7-6 0-8 3.9-8 9v75.4c0 4.5.5 8.7 6 9.7 4.4.8 6.3-6 1.8-6.8z"/><path d="M175.9 187.2h22.8c4.5 0 4.5-7 0-7h-22.8c-4.5 0-4.5 7 0 7z"/></g><path d="M171.6 151.5l-10.1-13c-1.2-1.4-3.8-1.1-5 0-1.5 1.6-1.2 3.5 0 5l10.2 13c1.2 1.5 3.7 1.2 5 0 1.4-1.5 1.1-3.5 0-5zm7.9 23l-3.3-12.6c-1.1-4.4-7.9-2.5-6.7 1.8l3.2 12.6c1.2 4.4 8 2.5 6.8-1.8zm-27.4-45l-7.2-5c-1.5-1-3.9-.3-4.8 1.3-1 1.7-.3 3.7 1.3 4.8l7.2 5c1.6 1.1 3.9.3 4.8-1.2 1-1.8.3-3.7-1.3-4.8zm-19.3-10.7l-4.2-1.4c-1.8-.5-3.8.7-4.3 2.5a3.5 3.5 0 0 0 2.4 4.3l4.3 1.4c1.8.5 3.8-.7 4.3-2.5a3.5 3.5 0 0 0-2.5-4.3zm-16.8-4.6l-2.5-.4a3.8 3.8 0 0 0-2.7.4 3.5 3.5 0 0 0-1.6 2 3.5 3.5 0 0 0 .4 2.8c.4.7 1.2 1.4 2 1.6l2.5.4c1 .1 1.8.1 2.7-.4a3.5 3.5 0 0 0 1.6-2 3.5 3.5 0 0 0-.3-2.8 4.1 4.1 0 0 0-2.1-1.6zm-17-1.5l-2.3.1c-1.9.2-3.5 1.6-3.5 3.6 0 1.8 1.6 3.6 3.5 3.5l2.3-.2c2-.1 3.5-1.5 3.5-3.5 0-1.8-1.5-3.6-3.5-3.5zM82.8 115l-2.2.7A3.5 3.5 0 0 0 78 120c.5 1.8 2.5 3 4.3 2.5l2.3-.8a3.5 3.5 0 0 0 2.4-4.3c-.5-1.7-2.5-3-4.3-2.4z" fill="#fff"/></svg>