<svg xmlns="http://www.w3.org/2000/svg" width="361" height="361"><path d="M220.4 127.9l-33.8 33.8 2.4-1c-7.6-.7-17.8-1.7-24 3.7-5.7 5-4.3 17.1-3.7 24l1-2.5-21.6 21.6c-5.8 5.9-21.3 16.5-12.2 25.7 9.2 9.1 19.7-6.2 25.5-12l22.1-22.1-2.4 1c7.6.4 17.2 1.5 23.2-3.8 5.8-5 4.2-16.5 3.9-23.3l-1 2.5 26-26.1c2.8-2.7 7.7-6 9.4-9.7a9.6 9.6 0 0 0-14.8-11.8c-3.6 2.8 1.4 7.7 5 5 3.4-2.8 4.3 2.8 2.4 4.7l-5.7 5.7-16.8 16.7-10.4 10.5c-1.6 1.5-1.1 4.1-1.1 6.1v10.2c0 8.8-13.4 6.4-19 6.4-4 0-6.6 4-9.3 6.6l-28.4 28.4c-2 2-6.4-.7-3.8-3.3l4-4 16-16 13.1-13.1c3.3-3.3 1.8-10.8 1.8-15.2 0-4.3.8-8.7 6.2-9 3.1-.3 6.3 0 9.5 0 2.2 0 6 .7 7.6-1l3.4-3.3 29.3-29.3 1.1-1.1c3.2-3.2-1.7-8.2-5-5zM75.2 106.2h211.6c6.5 0 6.5-10 0-10H75.2c-6.5 0-6.5 10 0 10zm-.4 159h211.7c6.4 0 6.4-10 0-10H74.8c-6.4 0-6.4 10 0 10z" fill="#fff"/></svg>