<svg xmlns="http://www.w3.org/2000/svg" width="361" height="361"><path d="M198.5 246c.2-.7 1.3-.5.2-.5H184c-.9 0 .6 2.1.6 1v-25.3c0 1.5-1.6 1.4-.3 1.4h15c-1 0-1-2.3-1-.6v24.9c0 4.5 7 4.5 7 0v-13.4c0-3.9 1.1-9.5 0-13.2-2-6-8.8-4.7-13.8-4.7s-11.8-1.4-13.7 4.7c-1.3 3.7-.2 9.3-.2 13.2V247c0 6.7 8.5 5.6 13 5.6 5.1 0 12.6 1.5 14.6-4.7 1.4-4.3-5.3-6.2-6.7-1.9zm28.6-.8c0 .3 1.5.3-.3.3h-14.2c-.3 0 .7 1 .7 0v-34.3c0 .7-1.7.6.2.6h14.4c-1.1 0-.9-1.1-.9.2v34c0 4.6 7 4.6 7 0v-34c0-7-5.6-7.2-11-7.2-5.5 0-15.3-2-16.6 5.4-.8 4.8-.1 10.2-.1 15v19.6c0 6.7 4.5 7.7 10 7.7 5.7 0 16.2 2.2 17.6-5.5.7-4.4-6-6.3-6.8-1.8zm28.7 0c.7.2.8.3.3.2h-14.9c.9 0 .7 1.1.7 0v-45.8c0 .9-1 .6 1.1.6h12.8c1.2 0-.1.1-.1-.6V246c0 4.5 7 4.5 7 0v-37.3c0-3.8 1.2-10.7-1.8-13.8-2.2-2.1-5-1.8-7.8-1.8h-11.2c-6.3 0-7 5.1-7 10v41.2c0 6.3 4 8 9.6 8 5.7 0 16.6 2.3 18-5.4.9-4.4-5.9-6.3-6.7-1.9z" fill="#fff"/><path d="M284.4 245.2c0 .2 1.3.2 0 .2h-14c-1.3 0 .1 0 .1.6v-60.6c0 .4-1.4.6.3.6H285c-.9 0-.7-1.3-.7 0v60c0 4.5 7 4.5 7 0v-55.4c0-3.7.8-10.3-4.2-11.4-5.5-1.2-11.7-.4-17.3-.4-6 0-6.3 5.8-6.3 10.1v43.6c0 5.7-2 15.3 3.4 19.1 3 2 10.1.7 13.3.7 4.6 0 9.9.4 11-5.4.8-4.4-6-6.3-6.8-1.8zm-85.1 45.7l-1.7-7h-9.3l-1.6 7h-7.3a284 284 0 0 1 5-16.5 1213.7 1213.7 0 0 1 5-14.1h7.6a391.8 391.8 0 0 1 5 14.2 297 297 0 0 1 4.7 16.4h-7.4zm-6.3-24.7a204.2 204.2 0 0 0-1 3.3l-1 3a79.5 79.5 0 0 0-.7 3.1l-.7 3.2h6.8l-.7-3.2a56 56 0 0 0-.7-3 132 132 0 0 0-1-3.1l-1-3.3zm28.3 25.4a17 17 0 0 1-5.7-.9 8.6 8.6 0 0 1-3.6-2.3 8.9 8.9 0 0 1-2-3.7 19.3 19.3 0 0 1-.5-4.9v-19.5h7v19.1c0 1.3 0 2.4.2 3.3.2.8.4 1.5.8 2 .3.6.8 1 1.5 1.2a7.5 7.5 0 0 0 4.9 0 3 3 0 0 0 1.5-1.2c.4-.5.6-1.2.8-2l.2-3.3v-19.1h7v19.5c0 1.8-.2 3.4-.6 4.9a8.6 8.6 0 0 1-2 3.7 9 9 0 0 1-3.7 2.3 17.7 17.7 0 0 1-5.8.9zm41.2-31.3v5h-9.2V291h-7v-25.6H237v-5h25.5zm3 15.3c0-5.3 1-9.3 3.3-12 2.2-2.7 5.3-4 9.3-4 4 0 7.2 1.3 9.4 4 2.1 2.7 3.2 6.7 3.2 12s-1.1 9.2-3.3 12c-2.2 2.6-5.3 4-9.3 4-4 0-7.2-1.4-9.4-4a19 19 0 0 1-3.3-12zm7 0c0 1.5 0 2.8.2 4.2.1 1.3.4 2.4.8 3.3s1 1.8 1.7 2.3c.7.6 1.7.9 2.9.9a4.6 4.6 0 0 0 2.8-.9 5.3 5.3 0 0 0 1.7-2.3c.4-1 .7-2 .8-3.4a41.4 41.4 0 0 0 0-8.3c-.1-1.3-.4-2.5-.8-3.4a5.5 5.5 0 0 0-1.7-2.3c-.7-.6-1.6-.8-2.8-.8s-2.2.2-3 .8c-.7.6-1.2 1.3-1.6 2.3s-.7 2.1-.8 3.4a40.9 40.9 0 0 0-.2 4.2zM130.5 75v45.2c0 6.4 10 6.4 10 0V75c0-6.5-10-6.5-10 0z" fill="#fff"/><path d="M119.8 84l13.2 7.5c5.6 3.3 10.6-5.4 5-8.6l-13-7.6c-5.6-3.2-10.7 5.4-5 8.6z" fill="#fff"/><path d="M146 75.3l-13.2 7.6c-5.6 3.2-.5 11.9 5 8.6L151 84c5.6-3.2.6-11.8-5-8.6zm-52.3 26.2l39.1 22.6c5.6 3.2 10.7-5.4 5-8.7l-39-22.6c-5.6-3.2-10.6 5.4-5 8.7z" fill="#fff"/><path d="M96 115.2l13.3-7.7c5.5-3.2.5-11.8-5-8.6L91 106.5c-5.5 3.2-.5 11.9 5 8.7z" fill="#fff"/><path d="M101.6 88.2v15.2c0 6.4 10 6.4 10 0V88.2c0-6.5-10-6.5-10 0z" fill="#fff"/><g fill="#fff"><path d="M98.8 146.7L138 124c5.6-3.3.5-12-5-8.7L93.7 138c-5.6 3.3-.6 11.9 5 8.7z"/><path d="M111.8 151.5v-15.3c0-6.4-10-6.4-10 0v15.3c0 6.4 10 6.4 10 0z"/><path d="M91.2 133.1l13.2 7.6c5.6 3.3 10.6-5.4 5-8.6l-13.1-7.6c-5.6-3.2-10.7 5.4-5.1 8.6z"/></g><g fill="#fff"><path d="M140.5 165.1V120c0-6.5-10-6.5-10 0v45.2c0 6.5 10 6.5 10 0z"/><path d="M151.1 156.3l-13.1-7.7c-5.6-3.2-10.7 5.4-5 8.7l13.1 7.6c5.6 3.2 10.6-5.4 5-8.6z"/><path d="M125 164.9l13.2-7.6c5.5-3.2.5-11.9-5-8.7l-13.3 7.7c-5.6 3.2-.5 11.8 5 8.6z"/></g><g fill="#fff"><path d="M177.3 138.4l-39.2-22.6c-5.6-3.3-10.6 5.4-5 8.6l39.2 22.6c5.5 3.2 10.6-5.4 5-8.6z"/><path d="M174.9 124.7l-13.2 7.6c-5.6 3.2-.5 11.9 5 8.6l13.2-7.6c5.6-3.2.6-11.8-5-8.6z"/><path d="M169.3 151.7v-15.2c0-6.5-10-6.5-10 0v15.2c0 6.4 10 6.4 10 0z"/></g><g fill="#fff"><path d="M172.2 93.2L133 115.8c-5.6 3.2-.6 11.9 5 8.6l39.2-22.6c5.6-3.2.6-11.8-5-8.6z"/><path d="M159.2 88.4v15.2c0 6.5 10 6.5 10 0V88.4c0-6.5-10-6.5-10 0z"/><path d="M179.8 106.7l-13.2-7.6c-5.6-3.2-10.7 5.4-5 8.7l13.1 7.6c5.6 3.2 10.6-5.5 5-8.7z"/></g><g fill="#fff"><path d="M71.5 186.5c5-1.5 10.3-2.9 15.5-3.9 7-1.3 13.2.8 19.9 3.2 9.2 3.3 18.7 8.9 28.7 9.2 6 .3 12.5-2.9 18-5l9.6-3.8a38.4 38.4 0 0 1 19.8-3.8c5.6 1 11.2 2.5 16.7 4.1 1.8.6 2.6-2.3.8-2.9a161.8 161.8 0 0 0-15.5-3.9c-6.6-1.2-12 0-18.2 2-10 3.4-20.5 10-31.2 10.3-6.2.3-13.2-3.3-18.8-5.5l-11.3-4.4a35.2 35.2 0 0 0-18.2-2.5 129 129 0 0 0-16.6 4c-1.9.6-1 3.5.8 2.9z"/><path d="M77.8 193.7a36.3 36.3 0 0 1 17-3c5.7.8 11.3 3.2 16.6 5.3 7.7 3 15.8 7.2 24.2 7.5 8 .3 16.8-4.5 24.2-7.5a89 89 0 0 1 16.6-5.3c5.4-1 11.8 1.1 17 3 1.7.6 2.5-2.3.7-3-5-1.7-10.2-3-15.5-3.2-5.7-.2-12 2.7-17.1 4.6-8.3 3.2-17 8-26 8.4-5.6.3-12-2.9-17.1-4.9-3-1-5.8-2.3-8.7-3.5-5.3-2-10.7-4-16.3-4.6a39.8 39.8 0 0 0-16.4 3.3c-1.8.6-1 3.5.8 2.9zm.1-17a36.3 36.3 0 0 1 17-3c5.7.9 11.3 3.3 16.6 5.4 7.7 3 15.8 7.2 24.2 7.5 8 .3 16.8-4.5 24.2-7.5a88.7 88.7 0 0 1 16.6-5.4 36 36 0 0 1 17 3c1.7.7 2.5-2.2.7-2.8-5-1.8-10.2-3.2-15.5-3.4-5.7-.1-12 2.7-17.1 4.7-8.3 3.2-17 8-26 8.4-5.6.2-12-2.9-17.1-4.9l-8.7-3.5c-5.3-2-10.7-4-16.3-4.6a39.8 39.8 0 0 0-16.4 3.3c-1.8.6-1 3.5.8 2.9z"/></g></svg>