<svg xmlns="http://www.w3.org/2000/svg" width="361" height="361"><path d="M269 216c0 2-2 3-4 3h-13c-2 0-4-1-4-3v-93c0-2 2-4 4-4h13c2 0 4 2 4 3v94z" fill="none" stroke="#fff" stroke-width="10" stroke-miterlimit="10"/><path d="M274 244c0 2-1 4-3 4h-26l-2-4v-21l2-4h26c2 0 3 2 3 4v21z" fill="#fff" stroke="#fff" stroke-width="10" stroke-miterlimit="10"/><path d="M277 131h11c6 0 6-10 0-10h-11c-7 0-7 10 0 10zm0 25h11c6 0 6-10 0-10h-11c-7 0-7 10 0 10zm0 25h11c6 0 6-10 0-10h-11c-7 0-7 10 0 10zm0 26h11c6 0 6-10 0-10h-11c-7 0-7 10 0 10z" fill="#fff"/><path fill="#fff" stroke="#fff" stroke-width="10" stroke-miterlimit="10" d="M248 186h21v43h-21z"/><path d="M166 204l1-6V77h-1 6c2 0 0-1 0 0v127h1-8c-4 0-4 7 0 7 6 0 14 1 14-7V79c0-4 0-9-5-9-6 0-14-2-14 6v114c0 5-3 18 5 21 4 1 6-6 1-7zm-75 0V77c0-1-2 0 0 0h6c2 0 0-1 0 1v127l1-1h-8c-4 0-4 7 0 7 6 0 14 1 14-7V79c0-4-1-9-6-9s-14-1-14 7v113c0 6-2 19 5 21 4 1 6-6 2-7zm38 0V77c0-1-2 0 0 0h6c2 0 0-1 0 1v127l1-1h-8c-4 0-4 7 0 7 6 0 14 1 14-7V79c0-4-1-9-6-9s-14-1-14 7v113c0 6-2 19 5 21 4 1 6-6 2-7z" fill="#fff"/><path d="M87 193l-1 2H76v-13h11l1 3v8z" fill="#fff"/><path d="M83 193c0 1 0 1 0 0l4-1H75l3 1v-9l-3 2h12l-3-2c-1-1-1 1-1 1v8c0 4 7 4 7 0s2-14-4-14H75c-3 0-4 3-4 6v7c0 3 0 7 5 7h11c3 0 3-4 3-6 0-5-7-5-7 0zm42 0v2h-23l-1-2v-9l1-2h23v11z" fill="#fff"/><path d="M122 193l3-2h-23l3 2a20 20 0 0 1 0-9l-3 2h23l-3-2v9c0 4 7 4 7 0 0-3 1-9-1-12s-5-2-9-2h-14c-4 0-7 0-7 5v12c2 3 6 2 9 2h14c5 0 7 0 8-5 0-5-7-5-7 0zm41 0v2h-23l-1-2v-9l1-2h23v11z" fill="#fff"/><path d="M160 193l3-2h-23l3 2v-9l-3 2h23l-3-2v9c0 4 7 4 7 0 0-3 1-9-1-12s-5-2-9-2h-14c-4 0-7 0-8 5l1 12c2 3 5 2 9 2h14c5 0 7 0 8-5 0-5-7-5-7 0zm16-9v-2h11v13h-11v-11z" fill="#fff"/><path d="M179 184c0-1 0-1 0 0l-3 1h11l-3-1c-1-1-1 0-1 1v6c0 1 0 3 1 2l3-2h-11l3 2v-9c0-4-7-4-7 0s-1 14 4 14h11c3 0 3-3 3-6v-7c0-3 0-7-4-7h-10c-3 0-4 4-4 6 0 5 7 5 7 0zM87 97l-1 2H76V86h11l1 3v8z" fill="#fff"/><path d="M83 97c0 1 0 1 0 0l4-1H75l3 1v-9l-3 2h12l-3-2c-1-1-1 1-1 1v8c0 4 7 4 7 0s2-14-4-14H75c-3 0-4 3-4 6v7c0 3 0 7 5 7h11c3 0 3-4 3-6 0-5-7-5-7 0z" fill="#fff"/><g fill="#fff"><path d="M125 97v2h-23l-1-2v-9l1-2h23v11z"/><path d="M122 97l3-2h-23l3 2a20 20 0 0 1 0-9l-3 2h23l-3-2v9c0 4 7 4 7 0 0-3 1-9-1-12s-5-2-9-2h-14c-4 0-7 0-7 5v12c2 3 6 2 9 2h14c5 0 7 0 8-5 0-5-7-5-7 0z"/></g><g fill="#fff"><path d="M163 97v2h-23l-1-2v-9l1-2h23v11z"/><path d="M160 97l3-1h-23l3 1v-9l-3 2h23l-3-2v9c0 4 7 4 7 0 0-3 1-9-1-12s-5-2-9-2h-14c-4 0-7 0-8 6l1 11c2 3 5 3 9 3h14c5 0 7-1 8-6 0-5-7-5-7 0z"/></g><path d="M205 97h1l3-2h-12l3 2v-9l-3 2h12l-3-2c-1-1-1 1-1 1v8c0 4 7 4 7 0s2-14-4-14h-11c-3 0-3 3-4 5v8c0 3 1 7 5 7h11c3 0 3-4 3-6 1-5-6-5-7 0z" fill="#fff"/><g fill="#fff"><path d="M176 88v-2h11v13h-11V88z"/><path d="M179 88c1-1 0-1 0 0l-3 2h11l-3-2v9l3-2h-11l3 2v-9c0-4-7-4-7 0s-1 14 4 14h11c3 0 3-3 3-5v-7c0-3 0-7-4-7h-10c-3 0-4 3-4 5 0 5 7 5 7 0z"/></g></svg>