<svg xmlns="http://www.w3.org/2000/svg" width="361" height="361"><path d="M228 135l-38 28 3-1c-8-2-18-4-25 0-4 2-5 7-6 11l-2 13 2-3a384903 384903 0 0 0-25 18c-6 4-24 13-16 23 8 11 20-2 27-7l25-19-3 1c8 1 17 4 24 0 7-5 7-16 8-23l-2 3 30-22 11-8c3-3 2-9 0-12-3-4-8-5-13-2-3 2 0 8 4 6 2-2 6 2 3 3l-1 1-6 5-19 14-12 9c-2 1-2 3-3 5l-1 10c-2 9-14 5-20 4-4-1-7 3-10 5l-32 24c-3 1-7-2-4-4l4-3 19-14 15-10c4-3 3-10 4-15 1-4 2-8 7-8 3-1 7 1 10 1 2 0 6 2 7 1l4-3 34-24 1-1c4-3 0-9-3-6zM75 106h212c6 0 6-10 0-10H75c-6 0-6 10 0 10zm0 159h212c6 0 6-10 0-10H75c-7 0-7 10 0 10z" fill="#fff"/></svg>