<svg xmlns="http://www.w3.org/2000/svg" width="361" height="361"><circle cx="218" cy="169" r="69.3" fill="none" stroke="#fff" stroke-width="10" stroke-miterlimit="10"/><path d="M243 97.5a7.5 7.5 0 0 1-7.6 7.5h-35.2a7.5 7.5 0 0 1-7.6-7.5V81a7.5 7.5 0 0 1 7.6-7.5h35.2A7.5 7.5 0 0 1 243 81v16.4zm0 161a7.5 7.5 0 0 1-7.6 7.5h-35.2a7.5 7.5 0 0 1-7.6-7.5V242a7.5 7.5 0 0 1 7.6-7.5h35.2a7.5 7.5 0 0 1 7.5 7.5v16.4z" fill="#fff"/><path d="M248.8 270.5c0 4.5-2.5 8.2-5.5 8.2H192c-3 0-5.5-3.7-5.5-8.2v-2.3c0-4.6 2.4-8.3 5.5-8.3h51.3c3 0 5.5 3.7 5.5 8.3v2.3z" fill="#fff"/><path d="M210 238H98.6a7.6 7.6 0 0 1-7.6-7.6V108.2a7.6 7.6 0 0 1 7.6-7.7H210" fill="none" stroke="#fff" stroke-width="10" stroke-miterlimit="10"/><path d="M72.3 100.3V238c0 6.5 10 6.5 10 0V100.3c0-6.4-10-6.4-10 0z" fill="#fff"/><g fill="#fff"><path d="M178.2 165.3a28.7 28.7 0 0 1 28.3-28.3c6.4-.1 6.5-10.1 0-10a38.9 38.9 0 0 0-38.3 38.3c-.2 6.5 9.8 6.5 10 0z"/><path d="M199.6 120.9l14.7 14.6c4.6 4.6 11.6-2.5 7-7l-14.6-14.7c-4.6-4.6-11.6 2.5-7 7z"/><path d="M206.7 150.5l14.7-14.6c4.5-4.6-2.5-11.7-7.1-7.1l-14.7 14.7c-4.5 4.5 2.5 11.6 7.1 7z"/></g></svg>