<svg xmlns="http://www.w3.org/2000/svg" width="361" height="361"><path d="M241.2 228.8V176c0-2.7 3.2-2 5.1-2 1.2 0 4.7-.5 4.7 1.5v53.3c0 4.5 7 4.5 7 0v-52.5c0-6.5-4.8-9.2-10.7-9.2-6.3 0-13 1-13 9v52.7c0 4.5 7 4.5 7 0z" fill="#fff"/><path d="M225.5 258.8v-55c0-5-.4-10.3.4-15 .5-2.6 5.5-1.3 7.8-1.3 2.6 0 .5 0 .5-1.1v55.8c0 4.5 7 4.5 7 0V188c0-6.8-4.6-7.5-10.3-7.5-3 0-6.6-.6-9 1.5-3.9 3.4-3.4 9.7-3.4 14.5v62.3c0 4.5 7 4.5 7 0zm32.5-20.1v-56c0 .2-2 1.3-.7 1.3h2.2c5.4 0 6.6.5 6.6 5.4v49.3c0 4.5 7 4.5 7 0V203c0-10.3 3.1-26.1-11.8-26.1-5.7 0-10.3.7-10.3 7.5v54.2c0 4.5 7 4.5 7 0z" fill="#fff"/><path d="M273.1 245v-46.2c0 .3-2 1.2-.6 1.2h3.4c3.4 0 2.6 5.4 2.6 8v80c0 4.5 7 4.5 7 0v-83.1c0-3.1-.5-6.8-2.6-9.2-2.6-3-6-2.6-9.7-2.6-6.6 0-7 4.7-7 9.9v42c0 4.6 7 4.6 7 0zm-60 43l-12.4-52.4c-.8-3.2-1.6-4.9 2.3-6.1 1.4-.5 5.1-2.1 5.7-.1l1.5 4.6 8.4 26c1.4 4.3 8.1 2.4 6.7-1.9l-9.3-29c-1.9-5.8-5.8-8.2-12-7.2-6 .9-12.6 4.9-11 11.8l13.3 56.2c1 4.4 7.8 2.6 6.8-1.8z" fill="#fff"/><g fill="#fff"><path d="M130.6 75v45.3c0 6.4 10 6.4 10 0V75c0-6.5-10-6.5-10 0z"/><path d="M120 84l13.1 7.5c5.6 3.3 10.6-5.4 5-8.6L125 75.3c-5.6-3.2-10.7 5.4-5 8.6z"/><path d="M146.1 75.3l-13.2 7.6c-5.6 3.2-.5 11.9 5 8.6l13.2-7.6c5.6-3.2.6-11.8-5-8.6zm-52.3 26.2l39.1 22.6c5.6 3.2 10.7-5.4 5-8.7L99 92.8c-5.7-3.2-10.7 5.4-5.1 8.7z"/><path d="M96.2 115.2l13.2-7.7c5.5-3.2.5-11.8-5-8.6L91 106.5c-5.5 3.2-.5 11.9 5 8.7z"/><path d="M101.7 88.2v15.2c0 6.4 10 6.4 10 0V88.2c0-6.5-10-6.5-10 0zM99 146.7l39.2-22.6c5.6-3.3.5-12-5-8.7L93.8 138c-5.6 3.3-.6 11.9 5 8.7z"/><path d="M111.9 151.5v-15.3c0-6.4-10-6.4-10 0v15.3c0 6.4 10 6.4 10 0z"/><path d="M91.3 133.1l13.2 7.6c5.6 3.3 10.6-5.4 5-8.6l-13.2-7.6c-5.6-3.2-10.6 5.4-5 8.6zm49.3 32V120c0-6.5-10-6.5-10 0v45.2c0 6.5 10 6.5 10 0z"/><path d="M151.2 156.3l-13.1-7.7c-5.6-3.2-10.7 5.4-5 8.7l13 7.6c5.7 3.2 10.7-5.4 5.1-8.6z"/><path d="M125 164.9l13.2-7.6c5.6-3.2.6-11.9-5-8.7l-13.2 7.7c-5.6 3.2-.5 11.8 5 8.6zm52.4-26.5l-39.2-22.6c-5.6-3.3-10.6 5.4-5 8.6l39.2 22.6c5.6 3.2 10.6-5.4 5-8.6z"/><path d="M175 124.7l-13.2 7.6c-5.6 3.2-.5 11.9 5 8.6l13.2-7.6c5.6-3.2.6-11.8-5-8.6z"/><path d="M169.4 151.7v-15.2c0-6.5-10-6.5-10 0v15.2c0 6.4 10 6.4 10 0zm2.9-58.5L133 115.8c-5.6 3.2-.6 11.9 5 8.6l39.2-22.6c5.6-3.2.6-11.8-5-8.6z"/><path d="M159.3 88.4v15.2c0 6.5 10 6.5 10 0V88.4c0-6.5-10-6.5-10 0z"/><path d="M179.9 106.7l-13.2-7.6c-5.6-3.2-10.6 5.4-5 8.7l13.1 7.6c5.6 3.2 10.6-5.5 5-8.7z"/></g><g fill="#fff"><path d="M71.6 186.5c5-1.5 10.3-2.9 15.5-3.9 7-1.3 13.2.8 19.9 3.2 9.2 3.3 18.7 8.9 28.7 9.2 6 .3 12.5-2.9 18-5l9.6-3.8a38.4 38.4 0 0 1 19.8-3.8c5.6 1 11.2 2.5 16.7 4.1 1.8.6 2.6-2.3.8-2.9a161.8 161.8 0 0 0-15.5-3.9c-6.6-1.2-12 0-18.2 2-10 3.4-20.5 10-31.2 10.3-6.2.3-13.2-3.3-18.8-5.5l-11.3-4.4a35.2 35.2 0 0 0-18.2-2.5 118 118 0 0 0-16.6 4c-1.9.6-1 3.5.8 2.9z"/><path d="M78 193.7a36.3 36.3 0 0 1 16.9-3c5.7.8 11.3 3.2 16.6 5.3 7.7 3 15.8 7.2 24.2 7.5 8 .3 16.8-4.5 24.2-7.5a88.7 88.7 0 0 1 16.6-5.3c5.4-1 11.8 1.1 17 3 1.7.6 2.5-2.3.7-3-5-1.7-10.2-3-15.5-3.2-5.7-.2-12 2.7-17.1 4.6-8.3 3.2-17 8-26 8.4-5.6.3-12-2.9-17.1-4.9-3-1-5.8-2.3-8.7-3.5-5.3-2-10.7-4-16.3-4.6a39.7 39.7 0 0 0-16.4 3.3c-1.8.6-1 3.5.8 2.9zm0-17a36.3 36.3 0 0 1 17-3c5.6.9 11.2 3.3 16.6 5.4 7.7 3 15.8 7.2 24.2 7.5 8 .3 16.8-4.5 24.2-7.5a89.2 89.2 0 0 1 16.6-5.4 36 36 0 0 1 17 3c1.7.7 2.5-2.2.7-2.8a51 51 0 0 0-15.5-3.4c-5.7-.1-12 2.7-17.1 4.7-8.3 3.2-17 8-26 8.4-5.6.2-12-2.9-17.1-4.9l-8.7-3.5c-5.3-2-10.7-4-16.3-4.6a39.7 39.7 0 0 0-16.4 3.3c-1.8.6-1 3.5.8 2.9z"/></g></svg>