<svg xmlns="http://www.w3.org/2000/svg" width="361" height="361"><path d="M292 287V155c0-4-4-7-7-5l-115 87-60 46c-4 2-3 9 3 9h174c6 0 6-10 0-10H113l2 9 115-87 60-45-8-4v132c0 6 10 6 10 0zm-42-134l-114 88-4 3c-5 4 0 13 5 9l115-88 3-3c5-4 0-13-5-9z" fill="#fff"/><path d="M93 124c0 2 2 4 4 4h26c3 0 5-2 5-4V98c0-3-2-5-5-5H97c-2 0-4 2-4 5v25z" fill="none" stroke="#fff" stroke-width="10" stroke-miterlimit="10"/><path d="M145 71l-8 8c-2 2-2 5 0 7s5 2 7 0l8-8c2-2 2-5 0-7s-5-2-7 0zm41 34h-37c-6 0-6 10 0 10h37c7 0 7-10 0-10zM79 150l6-6c2-2 2-5 0-7s-5-2-7 0l-6 6c-2 2-2 5 0 7s5 2 7 0zm37 36v-37c0-6-10-6-10 0v37c0 6 10 6 10 0zm53-23l-26-26c-5-5-12 2-7 7l26 26c4 4 11-3 7-7z" fill="#fff"/></svg>