<svg xmlns="http://www.w3.org/2000/svg" width="361" height="361"><path d="M211.4 122.7l-28 38.6 3-1.7c-7.5.6-18.3 1-23.3 7-5.2 6.4-2 18-.3 25.2l.4-2.7-18 24.7c-5 7-18.3 19.3-7.5 27.2 10.1 7.3 18.5-10 23.2-16.4l18.3-25.3-3 1.8c7.3-.8 17.6-1 22.6-7 5.2-6.4 2-17.3.4-24.5l-.3 2.7 21.6-29.8c2.4-3.2 6.5-7.2 7.7-11.1 2.8-9.6-9.3-17-16.2-9.4-3 3.3 1.9 8.3 5 5 2-2.3 6.3 0 4.2 2.8l-.8 1-4.4 6.1-13.9 19-9.1 12.7c-1.2 1.6-.3 3.9 0 5.7l1.6 10.6c1.4 8.4-12.4 8.2-17.7 9-3.8.7-5.7 4.7-8 7.8l-23.8 32.8c-1.8 2.5-6.4 0-4.2-2.9l3-4.2 13.2-18 11.2-15.5c2.7-3.7.1-10.5-.5-14.8-.7-4-1.1-8.3 3.7-10.2 3-1 6.7-1 9.7-1.6 2.6-.4 6.6-.2 8.2-2.4l2.4-3.3 24.5-33.7 1.2-1.7c2.6-3.6-3.4-7.1-6-3.5zM75.2 106.2h211.6c6.5 0 6.5-10 0-10H75.2c-6.5 0-6.5 10 0 10zm-.4 159h211.7c6.4 0 6.4-10 0-10H74.8c-6.4 0-6.4 10 0 10z" fill="#fff"/></svg>