<svg xmlns="http://www.w3.org/2000/svg" width="361" height="361"><path d="M290 142a8 8 0 0 1-1 10l-33 26a8 8 0 0 1-11-1l-47-60a8 8 0 0 1 1-11l33-25a8 8 0 0 1 11 1l47 60z" fill="#fff" stroke="#fff" stroke-miterlimit="10"/><path d="M163 164l81 6c7 0 7-10 0-10l-81-6c-7 0-7 10 0 10z" fill="#fff"/><path fill="#fff" d="M146 143l14 16-15 16z"/><path d="M142 147l14 16v-7l-14 15 8 4 1-32c0-7-10-7-10 0l-1 32c0 4 6 6 9 3l14-16c2-2 2-4 0-7l-14-16c-4-4-11 3-7 7z" fill="#fff"/><ellipse transform="rotate(-31 262 105)" cx="262" cy="105" rx="18" ry="21" fill="none" stroke="#fff" stroke-width="10" stroke-miterlimit="10"/><path fill="#fff" stroke="#fff" stroke-miterlimit="10" d="M207 162l15-26 15 25z"/><path d="M132 152h-11c-4 1-4 8 0 7h11c5-1 5-8 0-7zm-37 4l-12 6c-4 2 0 8 4 6l12-6c4-2 0-8-4-6zm-17 14l-6 7c-1 1-2 4 0 5h5l6-7a4 4 0 0 0 0-5h-5zm54-28h-18c-5 0-5 7 0 7h18c5 0 5-7 0-7zm-33 2l-12 6c-5 2-1 8 3 6l13-6c4-1 0-7-4-6zm-21 10l-7 6v5h5l7-6v-5h-5zm54 8l-15 5c-4 1-2 8 2 6l15-4c5-1 3-8-2-7zm-25 12l-8 5c-4 2-1 8 3 6l8-5c4-3 0-9-3-6zm-19 13l-5 7c-2 1-2 3 0 5h5l5-7v-5h-5zm-15 15l-2 4c-1 2-1 4 1 5s4 0 5-2l2-3c1-2 0-4-1-5-2-1-4-1-5 1zm60-28l-19 8c-4 2 0 8 4 6l18-8c4-2 1-8-3-6zm-27 12l-8 7c-3 3 2 8 5 5l8-7c3-3-2-8-5-5zm-15 15l-5 7c-1 2-1 4 1 5s4 0 5-1l5-7c1-2 0-4-2-5-1-1-3 0-4 1zm-12 15a6566 6566 0 0 0-2 4v3a4 4 0 0 0 2 2c1 1 4 0 4-2a6566 6566 0 0 0 2-4v-2a4 4 0 0 0-1-2c-2-1-4-1-5 1zm27-54l-8 3c-2 1-3 3-3 5 1 1 3 3 4 2l9-3c2-1 3-3 2-5 0-1-2-3-4-2zm-18 14l-6 5c-2 1-2 4 0 5h5l6-6c2-1 1-3 0-5h-5zm-15 13l-2 3c-1 2 0 5 1 5 2 1 4 1 5-1l2-3c2-2 1-4-1-5-1-1-3 0-5 1zm39-38l-8 1c-2 1-3 3-2 5 0 2 2 3 4 2l8-1c2-1 3-3 2-5 0-2-2-3-4-2z" fill="#fff"/><g fill="#fff"><path d="M245 241v-38c0-4 0-3 4-3s3 0 3 4v37c0 5 7 5 7 0v-41c0-6-5-7-10-7s-11 1-11 7v41c0 5 7 5 7 0z"/><path d="M232 264v-52c0-2-1-2 1-2h4c3 0 1 0 1-2v43c0 5 7 5 7 0v-43c0-6-10-6-14-5-7 1-6 9-6 14v47c0 5 7 5 7 0zm27-15v-43c0 2-3 1 1 1h3l2 1v41c0 4 7 4 7 0v-41c0-6-7-8-12-8-4 0-8 1-8 6v43c0 4 7 4 7 0z"/><path d="M272 254v-36c0 1-3 2 0 2h3v67c0 5 7 5 7 0v-64c0-5-2-10-7-11-6 0-10 1-10 7v34c0 5 7 5 7 0zm-51 33l-10-40c-1-3-2-4 1-5h4l1 3 7 20c2 4 9 3 7-2l-8-23a9 9 0 0 0-10-5c-5 1-11 3-10 9 0 7 4 15 5 22l6 22c1 5 8 3 7-2z"/></g></svg>