<svg xmlns="http://www.w3.org/2000/svg" width="361" height="361"><g fill="#fff"><path d="M222.5 85.6c0-1.8-1.4-3.3-3-3.3h-14.2c-1.7 0-3 1.5-3 3.3v7.2c0 1.9 1.3 3.4 3 3.4h14.1c1.7 0 3-1.5 3-3.4v-7.2z"/><path d="M224.8 80.3c0-2-1-3.6-2.2-3.6H202c-1.3 0-2.3 1.6-2.3 3.6v1c0 2 1 3.7 2.3 3.7h20.6c1.2 0 2.2-1.6 2.2-3.6v-1zm-78 2.9a2 2 0 0 1-2 2h-37.7a2 2 0 0 1-2-2V72.4c0-1 1-2 2-2h37.8c1 0 2 1 2 2v10.8zm110.7 55.2a9.3 9.3 0 0 1-9.2 9.3h-59.8a9.3 9.3 0 0 1-9.3-9.3V103a9.3 9.3 0 0 1 9.3-9.2h59.8a9.3 9.3 0 0 1 9.2 9.2v35.4z"/><path d="M186.4 156.4c0 2.2-1.3 3.9-3 3.9h-5.3c-1.6 0-3-1.7-3-3.9V86c0-2.1 1.4-3.9 3-3.9h5.4c1.6 0 3 1.8 3 4v70.3z"/><path d="M175.9 140.3c-.3 5.4-4.8 6-9 6H99.6c-3.7 0-7.7.3-9.4-3.9-1.3-3.3-.4-8.4-.4-11.8v-19.8c0-3.7-.6-8 .4-11.7 1.2-4.3 6-4 9.4-4h67.3c4.2 0 8.7.7 9 6.1.2 3.7 0 7.4 0 11.1v28c0 5.3 8.3 5.3 8.3 0v-30.9c0-4 .4-8.5-.7-12.5-1.8-6.4-8.2-10-14.5-10H96c-8 0-14.4 6.6-14.4 14.5V134c0 4.8-.3 9.1 2 13.5 2.6 5.2 8.3 7.1 13.7 7.1h72.4c8.1 0 14-6.5 14.5-14.3.3-5.4-8-5.3-8.3 0z"/><path d="M180.6 105.5h-77.8c-3.8 0-3.8 5.8 0 5.8h77.8c3.8 0 3.8-5.8 0-5.8zm0 8.3h-77.8c-3.8 0-3.8 5.8 0 5.8h77.8c3.8 0 3.8-5.8 0-5.8zm0 8.3h-77.8c-3.8 0-3.8 5.8 0 5.8h77.8c3.8 0 3.8-5.8 0-5.8zm0 8.3h-77.8c-3.8 0-3.8 5.8 0 5.8h77.8c3.8 0 3.8-5.8 0-5.8zm-2-33.2H106c-3.7 0-3.7 5.8 0 5.8h72.8c3.7 0 3.7-5.8 0-5.8zm0 41.5H106c-3.7 0-3.7 5.8 0 5.8h72.8c3.7 0 3.7-5.8 0-5.8zm83.2.3c1.8 0 3.2-1.2 3.2-2.7v-12.8c0-1.5-1.4-2.8-3.2-2.8h-7c-1.7 0-3.1 1.3-3.1 2.8v12.8c0 1.5 1.4 2.7 3.2 2.7h6.9zm-84.7 31.6c0 1.1-1 2-2.1 2h-44.1a2.1 2.1 0 0 1-2.1-2v-10.2c0-1.1 1-2 2-2H175a2.1 2.1 0 0 1 2.1 2v10.2z"/><path d="M167.7 149.8h9.6v21h-9.6z"/></g><path d="M243.2 247.8c-.3 11.7-9 21.2-20.8 22.1-2.4.2-4.9 0-7.3 0H104.4a22.4 22.4 0 0 1-21.8-18c-1-4.3-.3-9.6-.3-14v-41.5A23 23 0 0 1 94 175.7a26 26 0 0 1 13.4-2.6h112.8c7.6 0 14.5 3.2 19 9.5 3.9 5.3 4 11.3 4 17.6v47.6c0 6.5 10 6.5 10 0v-36.5c0-14.9 1.2-29.7-11.4-40.6-9.2-8-20.2-7.6-31.5-7.6h-88.4c-8.7 0-18.5-1-27 1.4A32.5 32.5 0 0 0 73.4 187c-1.4 5-1 10.6-1 15.8v42.6C72.3 264 85 280 104.3 280H215c5.2 0 10.2 0 15.3-1.4a32.5 32.5 0 0 0 22.8-30.8c.1-6.4-9.9-6.4-10 0zm-130 43.6h23.2c6.4 0 6.4-10 0-10h-23.2c-6.4 0-6.4 10 0 10zm82.4.3h23.2c6.4 0 6.4-10 0-10h-23.2c-6.5 0-6.5 10 0 10z" fill="#fff"/><path d="M81.9 226.8c0 7-2.9 12.7-6.4 12.7-3.5 0-6.3-5.7-6.3-12.7v-10.5c0-7 2.8-12.7 6.3-12.7s6.4 5.7 6.4 12.7v10.5zm191.6-72.2c0 15-.6 30.4-5 45a32.1 32.1 0 0 1-6.5 12.1 12.8 12.8 0 0 1-10 4.4c-9.6.2-9.7 15.2 0 15 35.6-.7 36.4-51.2 36.5-76.4 0-9.7-15-9.8-15-.1z" fill="#fff"/><path d="M256.8 243.9a4.8 4.8 0 0 1-9.6 0v-44.7a4.8 4.8 0 0 1 9.6 0v44.7zm31.7-94.1c-.3-13.8-9.5-26.5-24-27-9.8-.3-9.8 14.7-.2 15 6 .2 9 6.4 9.2 11.9.3 9.7 15.3 9.8 15 0z" fill="#fff"/><path d="M280.8 162.6c-5.3 0-9.5-2.3-9.5-5V149c0-2.8 4.2-5 9.5-5 5.2 0 9.4 2.2 9.4 5v8.4c0 2.8-4.2 5-9.4 5z" fill="#fff"/></svg>