<svg xmlns="http://www.w3.org/2000/svg" width="361" height="361"><path d="M204.2 287l.3-93.8c0-3.5-4.4-6.7-7.5-4.3L80 277.5l-6.6 5.1c-3.8 2.8-3 9.3 2.5 9.3h123.3c6.5 0 6.5-10 0-10H76l2.5 9.4 116.9-88.7 6.7-5.1-7.5-4.3-.3 93.7c0 6.5 10 6.5 10 0zm-32.6-97.1l-83.8 64.6c-5 3.9 0 12.6 5 8.6l83.8-64.6c5-3.8 0-12.5-5-8.6z" fill="#fff"/><path d="M93 123.5a4.5 4.5 0 0 0 4.4 4.5h25.7c2.5 0 4.5-2 4.5-4.5V97.8c0-2.5-2-4.5-4.5-4.5H97.4c-2.5 0-4.5 2-4.5 4.5v25.7z" fill="none" stroke="#fff" stroke-width="10" stroke-miterlimit="10"/><path d="M145 71.3l-7.9 7.9c-2 2-2 5.1 0 7s5.1 2 7 0l8-7.9c2-1.9 2-5.1 0-7s-5.1-2-7 0zm41.3 34h-36.8c-6.4 0-6.4 10 0 10h36.8c6.5 0 6.5-10 0-10zM79 150.4l6.6-6.6a5 5 0 0 0 0-7 5 5 0 0 0-7 0l-6.6 6.5a5 5 0 0 0 0 7.1 5 5 0 0 0 7 0zm36.8 35.6v-36.8c0-6.5-10-6.5-10 0V186c0 6.5 10 6.5 10 0zm53.3-23.2l-26-26c-4.6-4.6-11.7 2.5-7 7l26 26c4.5 4.6 11.6-2.4 7-7z" fill="#fff"/><path d="M268.6 216c0 1.8-1.6 3.3-3.6 3.3h-13.4c-2 0-3.6-1.5-3.6-3.4v-93.4c0-1.8 1.6-3.4 3.6-3.4H265c2 0 3.6 1.6 3.6 3.4V216z" fill="none" stroke="#fff" stroke-width="10" stroke-miterlimit="10"/><path d="M274.1 244c0 2-1.3 3.7-2.8 3.7h-26c-1.5 0-2.8-1.7-2.8-3.7v-21c0-2 1.3-3.7 2.9-3.7h25.9c1.5 0 2.8 1.6 2.8 3.6V244z" fill="#fff" stroke="#fff" stroke-width="10" stroke-miterlimit="10"/><path d="M276.6 131.4h10.9c6.5 0 6.5-10 0-10h-11c-6.4 0-6.4 10 0 10zm0 24.4h10.9c6.5 0 6.5-10 0-10h-11c-6.4 0-6.4 10 0 10zm0 25h10.9c6.5 0 6.5-10 0-10h-11c-6.4 0-6.4 10 0 10zm0 26h10.9c6.5 0 6.5-10 0-10h-11c-6.4 0-6.4 10 0 10z" fill="#fff"/><path fill="#fff" stroke="#fff" stroke-width="10" stroke-miterlimit="10" d="M248 185.9h20.6v43H248z"/></svg>