<svg xmlns="http://www.w3.org/2000/svg" width="361" height="361"><path d="M268.6 216c0 1.8-1.6 3.3-3.6 3.3h-13.4c-2 0-3.6-1.5-3.6-3.4v-93.4c0-1.8 1.6-3.4 3.6-3.4H265c2 0 3.6 1.6 3.6 3.4V216z" fill="none" stroke="#fff" stroke-width="10" stroke-miterlimit="10"/><path d="M274.1 244c0 2-1.3 3.7-2.8 3.7h-26c-1.5 0-2.8-1.7-2.8-3.7v-21c0-2 1.3-3.7 2.9-3.7h25.9c1.5 0 2.8 1.6 2.8 3.6V244z" fill="#fff" stroke="#fff" stroke-width="10" stroke-miterlimit="10"/><path d="M276.6 131.4h10.9c6.5 0 6.5-10 0-10h-11c-6.4 0-6.4 10 0 10zm0 24.4h10.9c6.5 0 6.5-10 0-10h-11c-6.4 0-6.4 10 0 10zm0 25h10.9c6.5 0 6.5-10 0-10h-11c-6.4 0-6.4 10 0 10zm0 26h10.9c6.5 0 6.5-10 0-10h-11c-6.4 0-6.4 10 0 10z" fill="#fff"/><path fill="#fff" stroke="#fff" stroke-width="10" stroke-miterlimit="10" d="M248 144.4h20.6v84.4H248z"/><path d="M76.2 114l20.6-3.4c6.3-1.1 3.6-10.7-2.7-9.7l-20.6 3.5c-6.3 1.1-3.6 10.7 2.7 9.7zm20.6 7.4l-20.6-3.5c-6.3-1-9 8.5-2.7 9.6l20.6 3.5c6.3 1.1 9-8.5 2.7-9.6zm0 14l-20.6-3.6c-6.3-1-9 8.6-2.7 9.7l20.6 3.5c6.3 1 9-8.6 2.7-9.6zm0 14l-20.6-3.6c-6.3-1-9 8.6-2.7 9.6l20.6 3.5c6.3 1.1 9-8.5 2.7-9.6zm0 13.9l-20.5-3.5c-6.3-1-9 8.6-2.6 9.6L94 173c6.3 1 9-8.5 2.7-9.6z" fill="#fff"/><path d="M96.5 110.8h55c6.4 0 6.4-10 0-10h-55c-6.5 0-6.5 10 0 10zm0 62.5h41.2c6.4 0 6.4-10 0-10H96.5c-6.5 0-6.5 10 0 10zm82-62.5h20.8c6.5 0 6.5-10 0-10h-20.8c-6.5 0-6.5 10 0 10z" fill="#fff"/><path d="M151.4 88.7l26.2 20.1v-6l-26.2 20 5.2 3v-40c0-4.6-7-4.6-7 0v40c0 2.5 3.1 4.8 5.3 3l26.3-20c2.2-1.7 2.2-4.3 0-6l-26.3-20.1c-3.6-2.8-7 3.3-3.5 6z" fill="#fff"/><path d="M70 74.6h16.7c15.1 0 27.4 2.4 27.4 5.3v201.5c0 3-12.3 5.3-27.4 5.3H70" fill="none" stroke="#fff" stroke-width="10" stroke-miterlimit="10"/></svg>