<svg xmlns="http://www.w3.org/2000/svg" width="361" height="361"><path d="M113 139l51-9c6-1 3-11-3-10l-51 9c-6 1-3 11 3 10z" fill="#fff"/><path d="M164 138l-51-9c-6-1-9 9-3 10l51 9c6 1 9-9 3-10zm0 12l-51-9c-6-1-9 9-3 10l51 9c6 1 9-9 3-10zm0 12l-51-9c-6-1-9 9-3 10l51 9c6 1 9-9 3-10zm1-32h54c6 0 6-10 0-10h-54c-7 0-7 10 0 10z" fill="#fff"/><path d="M165 172h54c6 0 6-10 0-10h-54c-7 0-7 10 0 10z" fill="#fff"/><path d="M269 216c0 2-2 3-4 3h-13c-2 0-4-1-4-3v-93c0-2 2-4 4-4h13c2 0 4 2 4 3v94z" fill="none" stroke="#fff" stroke-width="10" stroke-miterlimit="10"/><path d="M274 244c0 2-1 4-3 4h-26l-2-4v-21l2-4h26c2 0 3 2 3 4v21z" fill="#fff" stroke="#fff" stroke-width="10" stroke-miterlimit="10"/><path d="M277 131h11c6 0 6-10 0-10h-11c-7 0-7 10 0 10zm0 25h11c6 0 6-10 0-10h-11c-7 0-7 10 0 10zm0 25h11c6 0 6-10 0-10h-11c-7 0-7 10 0 10zm0 26h11c6 0 6-10 0-10h-11c-7 0-7 10 0 10z" fill="#fff"/><path fill="#fff" stroke="#fff" stroke-width="10" stroke-miterlimit="10" d="M248 186h21v43h-21z"/><path d="M204 283a4 4 0 0 1-4 4H79a4 4 0 0 1-4-4V110a4 4 0 0 1 4-4h121a4 4 0 0 1 4 4v173z" fill="none" stroke="#fff" stroke-width="10" stroke-miterlimit="10"/><path d="M167 234c0 19-13 35-29 35s-32-14-32-33c1-12 8-16 13-25 5-8 9-27 11-29 1 0 8 8 9 19 2 17 12-7 13-7l6 7a61 61 0 0 1 9 33z" fill="none" stroke="#fff" stroke-width="10" stroke-miterlimit="10"/><path d="M153 247c0 12-8 21-17 21a19 19 0 0 1-19-19c1-7 5-10 8-15s5-16 6-17c1 0 5 5 5 11 2 10 8-4 8-4a29 29 0 0 1 4 4 36 36 0 0 1 5 19zm11-145a4 4 0 0 1-4 4H94a4 4 0 0 1-4-4V79a4 4 0 0 1 4-4h66a4 4 0 0 1 4 4v23z" fill="none" stroke="#fff" stroke-width="10" stroke-miterlimit="10"/><path d="M104 96h20c6 0 6-10 0-10h-20c-7 0-7 10 0 10zm44 0h4c2 0 5-3 5-5s-3-5-5-5h-4c-3 0-5 2-5 5s2 5 5 5z" fill="#fff"/></svg>