<svg xmlns="http://www.w3.org/2000/svg" width="361" height="361"><g stroke="#fff" stroke-width="10" stroke-miterlimit="10"><path d="M217.8 285.7c-2 0-3.5-2.3-3.5-5V79.1c0-2.8 1.5-5 3.5-5h13c2 0 3.5 2.2 3.5 5v201.6c0 2.7-1.5 5-3.5 5h-13zm-119 .5c-2 0-3.5-2.3-3.5-5V79.6c0-2.8 1.5-5 3.5-5h13c2 0 3.5 2.2 3.5 5v201.6c0 2.7-1.5 5-3.5 5h-13zm60 0c-2 0-3.5-2.3-3.5-5V79.6c0-2.8 1.5-5 3.5-5h13c2 0 3.5 2.2 3.5 5v201.6c0 2.7-1.5 5-3.5 5h-13z" fill="none"/><path d="M93.8 263c0 1.9-.2 3.4-.5 3.4h-18c-.2 0-.4-1.5-.4-3.5v-13c0-2 .2-3.6.4-3.6h18c.3 0 .5 1.6.5 3.5V263zm60.6-.4c0 2-.5 3.5-1 3.5h-36.3c-.5 0-1-1.6-1-3.5v-13c0-2 .5-3.6 1-3.6h36.3c.5 0 1 1.6 1 3.5v13zm59.8.2c0 1.9-.4 3.5-1 3.5H177c-.5 0-.9-1.6-.9-3.5v-13.1c0-2 .4-3.5 1-3.5h36.3c.5 0 .9 1.6.9 3.5v13zM234 249c0-2 .1-3.5.4-3.5h16.7c.2 0 .4 1.6.4 3.5v13c0 2-.2 3.6-.4 3.6h-16.7c-.3 0-.5-1.6-.5-3.5v-13zM93.8 111.6c0 2-.2 3.5-.5 3.5h-18c-.2 0-.4-1.6-.4-3.5v-13c0-2 .2-3.6.4-3.6h18c.3 0 .5 1.6.5 3.5v13zm60.6-.3c0 1.9-.5 3.5-1 3.5h-36.3c-.5 0-1-1.6-1-3.5V98.2c0-2 .5-3.5 1-3.5h36.3c.5 0 1 1.6 1 3.5v13zm59.8.1c0 2-.4 3.5-1 3.5H177c-.5 0-.9-1.6-.9-3.5v-13c0-2 .4-3.6 1-3.6h36.3c.5 0 .9 1.6.9 3.5v13.1z" fill="#fff"/><path d="M286.4 111.3c0 2-.2 3.5-.4 3.5h-18c-.3 0-.5-1.6-.5-3.5v-13c0-2 .2-3.6.5-3.6h18c.2 0 .4 1.6.4 3.5v13.1z" fill="none"/><path d="M234.3 98.3c0-2 .2-3.5.4-3.5h16.8c.2 0 .4 1.5.4 3.5v13c0 2-.2 3.5-.5 3.5h-16.7c-.2 0-.4-1.5-.4-3.5v-13z" fill="#fff"/></g></svg>