<svg xmlns="http://www.w3.org/2000/svg" width="361" height="361"><path d="M191 281c0 2-22 1-24 1H84c-2 0-4 0-4-2V158c0-2 23-1 25-1h83c1 1 3 0 3 2v122c0 6 10 6 10 0V169c0-8 2-22-11-22H83c-7 0-13 4-13 11v122c0 12 12 12 20 12h100c6 0 10-5 11-11s-9-6-10 0z" fill="#fff"/><path d="M183 147H89l5 8 9-20-5 3h75l-4-3 9 20c3 6 12 1 9-5l-9-20-5-2H98l-4 2-9 20c-2 3 0 8 4 8h94c6 0 6-10 0-10zM71 102h220c2 0 2-3 0-3H71c-2 0-2 3 0 3zm0 11h220c2 0 2-3 0-3H71c-2 0-2 3 0 3z" fill="#fff"/><path d="M207 110a4 4 0 0 1-5 4h-33a4 4 0 0 1-4-4v-8a4 4 0 0 1 4-4h33a4 4 0 0 1 5 4v8z" fill="#fff"/><path d="M171 100l10 10a8 8 0 0 0 11 0 8 8 0 0 0 0-11l-10-9a8 8 0 0 0-11 0 8 8 0 0 0 0 10zm-17-15l13-12c2-2 0-4-2-2l-13 12c-1 2 1 4 2 3z" fill="#fff"/><path d="M159 82l14 14c3 3 8-2 5-5l-14-14c-3-3-8 2-5 5zm72-9h18c2 0 2-3 0-3h-18c-2 0-2 3 0 3zm1 22v3a8 8 0 0 0 8 7 8 8 0 0 0 7-7v-3a8 8 0 0 0-7-7 8 8 0 0 0-8 8z" fill="#fff"/><path d="M236 74v19c0 5 7 5 7 0V74c0-5-7-5-7 0zm15 36a4 4 0 0 1-4 4h-14a4 4 0 0 1-5-4v-8a4 4 0 0 1 5-4h14a4 4 0 0 1 4 4v8zm16-37h18c2 0 2-3 0-3h-18c-2 0-2 3 0 3zm2 23v2a8 8 0 0 0 7 7 8 8 0 0 0 8-7v-2a8 8 0 0 0-8-8 8 8 0 0 0-7 8z" fill="#fff"/><path d="M273 74v19c0 5 7 5 7 0V74c0-5-7-5-7 0zm14 36a4 4 0 0 1-4 4h-14a4 4 0 0 1-4-4v-8a4 4 0 0 1 4-4h14a4 4 0 0 1 4 4v8z" fill="#fff"/><path d="M267 110a4 4 0 0 1-5 4h-8a4 4 0 0 1-4-4v-8a4 4 0 0 1 4-4h8a4 4 0 0 1 4 4v8z" fill="#fff"/><g fill="#fff"><path d="M236 114c-1 23-4 47-12 70-5 11-14 31-29 31-2 0-2 3 0 3 15 0 25-18 30-30a188 188 0 0 0 14-74c0-2-3-2-3 0z"/><path d="M240 111c0 26-3 53-13 78-6 13-16 31-33 31-2 0-2 3 0 3 17 0 28-16 34-30 12-26 15-55 15-82 0-2-3-2-3 0z"/></g><g fill="#fff"><path d="M273 112c-1 29-7 57-23 81-12 19-32 35-55 35-2 0-2 3 0 3 24 0 43-15 57-34 17-24 24-55 24-85 0-2-3-2-3 0z"/><path d="M278 111c0 30-7 61-24 86a74 74 0 0 1-59 36c-2 0-2 3 0 3 62-1 85-75 86-125 0-2-3-2-3 0z"/></g><path d="M108 237a168 168 0 0 0-7-12 115 115 0 0 0-8-10v22h-8v-34h6a59 59 0 0 1 4 4 143 143 0 0 1 4 5 173 173 0 0 1 4 6 281 281 0 0 1 3 5v-20h8v34h-6zm21-26h5a8 8 0 0 1 4 3 8 8 0 0 1 2 3v19l-4 1a42 42 0 0 1-11 0 10 10 0 0 1-4-2 7 7 0 0 1-2-2 9 9 0 0 1 0-4 8 8 0 0 1 0-4 7 7 0 0 1 3-2l3-2a19 19 0 0 1 4 0 23 23 0 0 1 4 0 4 4 0 0 0-1-3l-4-1a25 25 0 0 0-6 1l-1-6a23 23 0 0 1 3-1 62 62 0 0 1 5 0zm1 21h2a14 14 0 0 0 1-1v-5h-1a14 14 0 0 0-2 0h-2a5 5 0 0 0-1 0l-1 1v2l1 2 3 1zm31 5c-5 0-9-1-12-4s-4-7-4-13l1-7a15 15 0 0 1 9-9 19 19 0 0 1 7-1 22 22 0 0 1 7 1 15 15 0 0 1 3 1l-2 6a17 17 0 0 0-8-2l-4 1-3 2a9 9 0 0 0-2 3 14 14 0 0 0-1 5l1 4a9 9 0 0 0 2 4 8 8 0 0 0 3 2l4 1a20 20 0 0 0 5-1 12 12 0 0 0 2 0l1-1 2 6a18 18 0 0 1-4 2 26 26 0 0 1-7 0zm25 0a18 18 0 0 1-5-1 7 7 0 0 1-3-1 6 6 0 0 1-2-3 15 15 0 0 1 0-4v-27l7-2v30l1 1 1 1h2l-1 6z" fill="#fff"/></svg>