<svg xmlns="http://www.w3.org/2000/svg" width="361" height="361"><path d="M99 219l26 1h39l26-1V82c0-3-24-7-39-7h-13c-15 0-39 4-39 7v137z" fill="none" stroke="#fff" stroke-width="10" stroke-linejoin="round" stroke-miterlimit="10"/><path d="M105 285c1 6 6 6 12 6h59c6 0 8-4 8-9l2-26 1-6 2-5 1-13c1-6 3-17-7-17h-73c-4 0-7 0-10 3-3 2-2 5-2 8l1 14 1 5 2 5 1 14 2 20c0 4 7 4 7 0l-2-20-1-13-1-5a12 12 0 0 1-2-6l-1-13c0-2-1-5 1-5h75l3 1-1 10-1 10-2 4-1 4-1 21c0 1 0 12-2 12h-57c-2 0-7 1-7-1-1-5-8-3-7 2zm85-159H99c-2 0-2 3 0 3h91c2 0 2-3 0-3zm0-29H99c-2 0-2 3 0 3h91c2 0 2-3 0-3z" fill="#fff"/><path d="M70 139c2 8 11 7 17 7s15 0 15-8v-34c0-9-11-8-17-8s-15-1-15 8v34c0 5 7 5 7 0v-28c0-4-1-7 3-7h15v29c0 3 1 7-3 7-2 0-14 1-15-2 0-4-7-3-7 2z" fill="#fff"/><path d="M81 119a3 3 0 0 0 3 3h4a3 3 0 0 0 3-3v-9a3 3 0 0 0-3-3h-4a3 3 0 0 0-3 3v9zm2 15h5c2 0 3-2 3-4s-2-3-3-3h-5c-2 0-3 1-3 3s1 4 3 4zm115 78c0 4-1 17-8 17-2 1-2 4 0 3 9 0 11-14 11-20 0-2-3-2-3 0z" fill="#fff"/><path d="M187 212a3 3 0 0 0 3 3h7a3 3 0 0 0 3-3v-17a3 3 0 0 0-3-3h-7a3 3 0 0 0-3 3v17z" fill="#fff"/><path d="M199 190l-2 22c0 2 3 2 3 0l2-22c0-2-3-2-3 0zM88 212c0 6 2 20 11 20 2 1 2-2 0-3-7 0-8-13-8-17 0-2-3-2-3 0z" fill="#fff"/><path d="M102 212a3 3 0 0 1-3 3h-7a3 3 0 0 1-3-3v-17a3 3 0 0 1 3-3h7a3 3 0 0 1 3 3v17z" fill="#fff"/><path d="M87 190l2 22c0 2 3 2 3 0l-2-22c0-2-3-2-3 0zm174-29a30 30 0 0 0 30-29c0-2-3-2-3 0a27 27 0 0 1-27 26c-2 0-2 3 0 3zm0-14a16 16 0 0 0 16-15c0-2-3-2-3 0a13 13 0 0 1-13 12c-2 0-2 3 0 3z" fill="#fff"/><path d="M273 129c1 6 8 5 13 5 6 0 5-7 5-11 0-6-9-5-13-5-6 0-5 7-5 11 0 2 3 2 3 0s-1-8 2-8h9c2 0 2 10-1 10-2 0-10 1-10-2 0-2-3-2-3 0z" fill="#fff"/><path d="M291 132V71c0-2-3-2-3 0v61h3zm-14 0V71c0-2-3-2-3 0v61h3zm-16 30c6-1 4-9 4-13 0-7-7-6-11-6-6 1-4 10-4 14 0 6 6 5 11 5 2 0 2-3 0-3s-8 1-8-2v-9c0-2 4-2 5-2 2 0 4 0 4 2 0 3 1 11-2 11-2 0-1 3 1 3z" fill="#fff"/><path d="M263 144h-72c-2 0-2 3 0 3h72c2 0 2-3 0-3zm0 14h-72c-2 0-2 3 0 3h72c2 0 2-3 0-3zm-87 121a4 4 0 0 1-4 4h-56a4 4 0 0 1-3-4l-3-31-2-4c0-5 9-9 9-9 0-2 4-1 6-1l5-1 7-3c1 0 5-2 7 0h9l14 4c5 0 16 7 15 10l-2 4-2 31zm34 11l41-71h-6l41 71 3-6h-82c-5 0-5 7 0 7h82a4 4 0 0 0 3-5l-41-71a4 4 0 0 0-6 0l-41 71c-2 4 4 7 6 4z" fill="#fff"/><path d="M244 237v26c0 4 7 4 7 0v-26c0-4-7-4-7 0zm0 37v3c0 2 2 3 4 3s3-1 3-3v-3c0-2-1-3-3-3s-4 1-4 3z" fill="#fff"/></svg>