<svg xmlns="http://www.w3.org/2000/svg" width="361" height="361"><path d="M289.8 141.6a7.7 7.7 0 0 1-1.2 10.9L256.3 178a7.7 7.7 0 0 1-10.9-1.2L198.1 117a7.7 7.7 0 0 1 1.3-10.9l32.2-25.5a7.7 7.7 0 0 1 10.9 1.2l47.3 59.8z" fill="#fff" stroke="#fff" stroke-miterlimit="10"/><path d="M162.8 164.2l81.3 5.9c6.4.4 6.4-9.6 0-10l-81.3-5.9c-6.4-.4-6.4 9.6 0 10z" fill="#fff"/><path fill="#fff" d="M145.6 143l14 16-14.4 15.6z"/><path d="M142 146.5l14.1 16v-7L141.6 171l8.6 3.5.4-31.6c.1-6.5-9.9-6.5-10 0l-.4 31.6c-.1 4.3 5.5 6.8 8.5 3.6l14.5-15.6c2-2.1 1.8-5 0-7.1l-14-16c-4.3-4.9-11.3 2.2-7.1 7z" fill="#fff"/><ellipse transform="rotate(-31.1 262 105)" cx="261.9" cy="105" rx="17.7" ry="21.2" fill="none" stroke="#fff" stroke-width="10" stroke-miterlimit="10"/><path fill="#fff" stroke="#fff" stroke-miterlimit="10" d="M207.4 161.5l14.3-25.3 15 25.2z"/><path d="M132.4 151.7l-11 .6c-4.4.3-4.5 7.3 0 7l11-.6c4.5-.3 4.5-7.3 0-7zm-37.3 4.5l-11.8 5.5c-4.1 1.9-.5 7.9 3.5 6l11.8-5.5c4.1-1.9.5-7.9-3.5-6zm-17.2 13.9l-6 6.9c-1.3 1.4-1.5 3.5 0 4.9 1.2 1.3 3.7 1.4 5 0l6-6.9a3.8 3.8 0 0 0 0-5c-1.4-1.2-3.8-1.4-5 0zm54.4-28.4h-18.7c-4.5 0-4.5 7 0 7h18.8c4.5 0 4.5-7 0-7zm-33.2 2.7l-12.5 5.5c-4.2 1.8-.6 7.8 3.5 6l12.5-5.5c4.1-1.8.6-7.8-3.5-6zm-21.2 10L71 160c-1.4 1.3-1.3 3.7 0 5 1.4 1.4 3.5 1.2 5 0l6.7-5.8c1.5-1.2 1.3-3.7 0-5-1.4-1.4-3.5-1.2-5 0zm54.5 8l-15.3 4.3c-4.3 1.2-2.5 8 2 6.7l15.2-4.2c4.3-1.2 2.5-8-1.9-6.8zm-25.7 11.4l-7.9 5c-3.8 2.4-.3 8.5 3.5 6l8-5c3.7-2.4.2-8.5-3.6-6zM88 187.2l-5.5 6.5c-1.3 1.4-1.5 3.5 0 5 1.2 1.2 3.7 1.4 5 0l5.4-6.6c1.2-1.4 1.4-3.5 0-5-1.3-1.2-3.7-1.4-5 0zm-15.3 15l-1.8 3.7c-.8 1.7-.5 3.8 1.3 4.8 1.5.9 4 .5 4.8-1.3l1.7-3.7c.8-1.8.5-3.8-1.2-4.8-1.6-1-4-.5-4.8 1.2zm60-28.2l-18.3 7.8c-4.2 1.7-.6 7.7 3.5 6l18.4-7.8c4.1-1.7.5-7.7-3.6-6zm-27 12.2l-7.5 7c-3.4 3 1.6 8 4.9 5l7.6-7c3.3-3.1-1.7-8-5-5zm-15 15l-5 7c-1.1 1.5-.3 3.8 1.2 4.7 1.8 1 3.7.3 4.8-1.2l5-7c1.1-1.6.3-4-1.2-4.8-1.8-1-3.7-.3-4.8 1.2zM79 216a6566.2 6566.2 0 0 0-1.6 3.9c-.4.9-.7 1.7-.4 2.7a3.5 3.5 0 0 0 1.6 2c1.5 1 4 .6 4.8-1.2a6566.2 6566.2 0 0 0 1.7-4c.4-.8.6-1.6.3-2.6a3.5 3.5 0 0 0-1.6-2.1c-1.5-.9-4-.5-4.8 1.3zm27.2-54l-8.7 3.4c-1.8.7-3 2.3-2.5 4.3.5 1.7 2.6 3.2 4.3 2.5l8.8-3.5c1.7-.7 3-2.3 2.4-4.3-.5-1.7-2.5-3.1-4.3-2.5zm-18 13.5l-6.6 5.3c-1.5 1.2-1.3 3.7 0 5 1.4 1.4 3.5 1.2 5 0l6.6-5.4c1.4-1.2 1.2-3.7 0-5-1.5-1.4-3.5-1.1-5 0zm-14.8 13.7l-2.4 3.3c-1.1 1.6-.3 4 1.3 4.8 1.7 1 3.6.3 4.8-1.2l2.4-3.4c1-1.5.3-3.9-1.3-4.8-1.7-1-3.6-.3-4.8 1.3zm38.7-38.4l-7.8 1.7c-1.9.4-3 2.5-2.5 4.3.6 2 2.5 2.8 4.3 2.4l7.8-1.6c2-.4 3-2.5 2.5-4.3-.5-2-2.5-2.8-4.3-2.5z" fill="#fff"/><g fill="#fff"><path d="M244.8 241v-37.7c0-4 0-3.8 4.2-3.8 3.6 0 3 .5 3 4v37.4c0 4.6 7 4.6 7 0v-41.1c0-5.6-5.3-7.3-10-7.3-5 0-11.2 1-11.2 7.5v41c0 4.5 7 4.5 7 0z"/><path d="M231.5 264.1c0-17.4-.7-35 .1-52.4.1-1.7-.2-1.9 1.2-1.9h4.6c3.1 0 .4.3.4-1.6v43c0 4.6 7 4.6 7 0V208c0-6.5-9.9-5.7-14.2-5-6.6 1-6 9.2-6 14.2v47c0 4.4 7 4.4 7 0zm27.5-15.5v-43.1c0 2-2.7 1.6.5 1.6h3.4c1.1 0 1.8 1.7 1.8.9v40.6c0 4.5 7 4.5 7 0V208c0-6.2-6.3-8-11.2-8-4.3 0-8.5.7-8.5 6v42.5c0 4.5 7 4.5 7 0z"/><path d="M271.7 253.5V218c0 .6-2.6 1.5.2 1.5h2.7c1.2 1.5.6 5.8.6 7.5v60.4c0 4.6 7 4.6 7 0v-64.3c0-5.3-1.7-9.9-7.5-10.6-5.4-.7-10 1-10 6.9v34.1c0 4.5 7 4.5 7 0zm-50.7 33l-10.3-40c-.6-2.3-1.7-3.4 1-4.1 1-.3 4.3-1.6 4.6-.8l1.2 3.5 7 20.1c1.6 4.3 8.3 2.4 6.8-1.8l-8-23a8.5 8.5 0 0 0-10.5-5.6c-4.9 1.2-10.4 3-10 9.1.7 7.2 3.8 14.8 5.6 21.7l5.8 22.8c1.2 4.3 8 2.5 6.8-1.9z"/></g></svg>