<svg xmlns="http://www.w3.org/2000/svg" width="361" height="361"><path d="M235 143l-43 21h3c-6-2-13-5-19-5-9 0-12 9-14 16l-1 5c-1 1 0 0 0 0l-5 3-20 10-16 8c-7 4-8 12-3 17 5 4 11 1 15-2l20-10 19-9h-3l13 4c7 3 14-1 17-8l4-13-1 1 2-1 6-3 31-16c4-1 7-3 8-7 3-8-6-14-13-12-4 2-2 9 2 7 5-1 5 4 2 5l-7 4-21 10-14 7c-2 1-2 3-2 5l-4 10c-2 9-14 2-20 1-3-2-7 1-10 3l-36 18c-3 2-6-2-3-4l5-2 20-11 17-8c4-2 5-9 6-13s2-8 7-8l10 3c2 1 6 3 8 2l4-2 37-19 2-1c4-2 1-8-3-6zM75 106h212c6 0 6-10 0-10H75c-6 0-6 10 0 10zm0 159h212c6 0 6-10 0-10H75c-7 0-7 10 0 10z" fill="#fff"/></svg>