<svg xmlns="http://www.w3.org/2000/svg" width="361" height="361"><path d="M192 116l-14.7 45.4 2.4-2.5c-6.5 2.7-17.1 6.5-19.9 13.5-3.2 8 3 17.6 7.2 24.3l-.3-2.7-11.4 35.1c-1.3 3.8-4 9-4 13 .4 9.8 14 13.7 18.3 4.3 1.8-3.9 2.8-8.3 4-12.3l7.4-22.6 2.8-8.6.9-2.6c.7-2.2.3.2-.6.6 5-2.2 12.7-5 16-9.6 6.3-8.6-.7-18.8-5.1-26.6l.3 2.7 11.4-35c1.3-3.8 4-9 4-13-.4-9.8-14-13.7-18.3-4.3-1.9 4 4.2 7.6 6 3.5 2-4.1 5.8-1 4.7 2.2l-2.3 7.3-7.3 22.4-4.8 14.8c-.7 2 .7 3.8 1.6 5.4l4.8 9.6c4 7.8-8.8 11.6-13.8 14.2-3.6 1.9-4 6-5.3 9.7l-12.5 38.6c-.9 2.7-6.1 2.5-5-1a9398.4 9398.4 0 0 1 1.6-5l7-21.3 5.8-18.1c1.5-4.6-2.9-10-4.9-14-1.9-3.6-3.6-7-.1-10.6 2.1-2.2 6.4-3.5 9-4.8 2.2-1.1 6.3-2.3 7.1-4.8l1.3-3.9 12.9-39.6.6-1.9c1.4-4.3-5.4-6.1-6.8-1.9zm-116.8-9.8h211.6c6.5 0 6.5-10 0-10H75.2c-6.5 0-6.5 10 0 10zm-.4 159h211.7c6.4 0 6.4-10 0-10H74.8c-6.4 0-6.4 10 0 10z" fill="#fff"/></svg>