<svg xmlns="http://www.w3.org/2000/svg" width="361" height="361"><path d="M211 123l-28 38 3-1c-7 0-18 1-23 7s-2 18 0 25v-3l-18 25c-5 7-18 19-7 27 10 7 18-10 23-16l18-26-3 2c7-1 18-1 23-7s2-17 0-24v2l21-30c3-3 7-7 8-11 3-9-9-17-16-9-3 3 2 8 5 5 2-2 6 0 4 3l-1 1-4 6-14 19-9 13v5l2 11c1 8-13 8-18 9-4 1-6 5-8 8l-24 32c-2 3-6 0-4-2l3-5 13-18 11-15c3-4 0-11 0-15-1-4-1-8 3-10l10-2c3 0 7 0 8-2l3-3 24-34 1-2c3-3-3-7-6-3zM75 106h212c6 0 6-10 0-10H75c-6 0-6 10 0 10zm0 159h212c6 0 6-10 0-10H75c-7 0-7 10 0 10z" fill="#fff"/></svg>