<svg xmlns="http://www.w3.org/2000/svg" width="361" height="361"><path d="M177 281c0 3-12 6-27 6h-47c-15 0-27-3-27-6V80c0-3 12-5 27-5h47c15 0 27 2 27 5v201z" fill="none" stroke="#fff" stroke-width="10" stroke-miterlimit="10"/><path d="M98 217l59-10c6-1 3-11-3-10l-59 10c-6 2-3 11 3 10z" fill="#fff"/><path d="M157 218l-59-10c-6-1-9 9-3 10l59 10c6 1 9-9 3-10zm0 14l-59-10c-6-1-9 8-3 10l59 10c6 1 9-9 3-10zm0 14l-59-10c-6-1-9 8-3 10l59 10c6 1 9-9 3-10zm0 14l-59-10c-6-1-9 8-3 10l59 10c6 1 9-9 3-10zm2-53h41c6 0 6-10 0-10h-42c-6 0-6 10 1 10z" fill="#fff"/><path d="M159 270h41c6 0 6-10 0-10h-42c-6 0-6 10 1 10z" fill="#fff"/><path d="M269 216c0 2-2 3-4 3h-13c-2 0-4-1-4-3v-93c0-2 2-4 4-4h13c2 0 4 2 4 3v94z" fill="none" stroke="#fff" stroke-width="10" stroke-miterlimit="10"/><path d="M274 244c0 2-1 4-3 4h-26l-2-4v-21l2-4h26c2 0 3 2 3 4v21z" fill="#fff" stroke="#fff" stroke-width="10" stroke-miterlimit="10"/><path d="M277 131h11c6 0 6-10 0-10h-11c-7 0-7 10 0 10zm0 25h11c6 0 6-10 0-10h-11c-7 0-7 10 0 10zm0 25h11c6 0 6-10 0-10h-11c-7 0-7 10 0 10zm0 26h11c6 0 6-10 0-10h-11c-7 0-7 10 0 10z" fill="#fff"/><path fill="#fff" stroke="#fff" stroke-width="10" stroke-miterlimit="10" d="M248 186h21v43h-21z"/></svg>