<svg xmlns="http://www.w3.org/2000/svg" width="361" height="361"><path d="M175.9 75v75.8c0 6.5 10 6.5 10 0V75.1c0-6.5-10-6.5-10 0z" fill="#fff"/><path d="M156.3 87l22 12.8c5.7 3.2 10.7-5.5 5.1-8.7l-22-12.7c-5.6-3.3-10.7 5.4-5 8.6z" fill="#fff"/><path d="M200.1 78.4l-22 12.7c-5.6 3.2-.6 11.9 5 8.7l22-12.8c5.7-3.2.6-11.9-5-8.6zm-87.6 38l65.6 37.8c5.6 3.3 10.6-5.4 5-8.6l-65.6-37.9c-5.6-3.2-10.6 5.5-5 8.7z" fill="#fff"/><path d="M113.1 139.3l22.1-12.8c5.6-3.2.6-11.8-5-8.6L108 130.6c-5.6 3.3-.6 12 5 8.7z" fill="#fff"/><path d="M127.5 97v25.5c0 6.5 10 6.5 10 0V97c0-6.4-10-6.4-10 0zm-9.8 95l65.6-37.8c5.6-3.2.6-11.9-5-8.6l-65.6 37.8c-5.6 3.3-.6 11.9 5 8.7z" fill="#fff"/><path d="M137.8 203v-25.5c0-6.4-10-6.4-10 0V203c0 6.5 10 6.5 10 0z" fill="#fff"/><path d="M108.4 169.4l22 12.7c5.7 3.3 10.7-5.4 5.1-8.6l-22-12.8c-5.7-3.2-10.7 5.5-5.1 8.7z" fill="#fff"/><g fill="#fff"><path d="M185.8 225.9V150c0-6.4-10-6.4-10 0v76c0 6.4 10 6.4 10 0z"/><path d="M205.3 214l-22-12.8c-5.6-3.2-10.7 5.4-5 8.6l22 12.8c5.6 3.2 10.6-5.4 5-8.7z"/><path d="M161.5 222.6l22.1-12.8c5.6-3.2.6-11.8-5-8.6l-22.1 12.7c-5.6 3.3-.6 11.9 5 8.7z"/></g><g fill="#fff"><path d="M249.2 184l-65.6-37.9c-5.6-3.2-10.7 5.4-5 8.7l65.5 37.8c5.6 3.3 10.6-5.4 5-8.6z"/><path d="M248.5 161.1l-22 12.7c-5.6 3.3-.6 12 5 8.7l22-12.8c5.7-3.2.6-11.8-5-8.6z"/><path d="M234.1 203.4v-25.5c0-6.5-10-6.5-10 0v25.5c0 6.4 10 6.4 10 0z"/></g><g fill="#fff"><path d="M244 108.3l-65.6 37.9c-5.6 3.2-.6 11.8 5 8.6L249 117c5.6-3.2.5-11.8-5-8.6z"/><path d="M223.8 97.4v25.5c0 6.4 10 6.4 10 0V97.4c0-6.5-10-6.5-10 0z"/><path d="M253.3 131l-22-12.8c-5.7-3.2-10.7 5.5-5.1 8.7l22 12.7c5.6 3.3 10.7-5.4 5-8.6z"/></g><path d="M74 262.6c14.2-4.3 29.8-9.7 44.6-5.8 13.8 3.7 24.6 9 37.4 13.8 8 3 17 6.6 25.7 6.3 9-.2 18.1-4 26.3-7 12.6-4.8 23.8-10.2 37.5-13.6 8.3-2.1 16.2-.4 24.4 1.5a291 291 0 0 1 18.1 4.8c4.4 1.3 6.2-5.4 1.9-6.7-13.8-4.1-29.7-9.8-44.1-6.9-13.4 2.7-26 8.9-37.7 13.3-8.3 3.2-17.4 7-26.3 7.6-8.6.6-18.2-4-26-6.8-12-4.5-24-10.2-37.5-13.6-15.1-3.8-31.7 2-46.2 6.4-4.4 1.3-2.5 8 1.8 6.7z" fill="#fff"/><path d="M84.5 274.7c8.1-3 17.4-5.9 26-5.3 9 .6 18.3 4.7 26.5 7.9l11.6 4.7c8.5 3.4 17.2 6.6 26.2 8.5a47 47 0 0 0 24.5-3.4 237.9 237.9 0 0 0 19.4-7.3c4.3-1.8 12.2-4.8 17.8-6.7a96 96 0 0 1 13-3.5c5.5-1 11.3.4 16.5 1.6 3.9 1 7.7 2.1 11.4 3.5 4.3 1.5 6-5.3 1.9-6.8-8.4-3-17.4-5.4-26.3-5.6-8.8-.2-18 3.8-26 6.8-12.8 4.7-23.7 10-37.5 13.7a42 42 0 0 1-25-2.4 256 256 0 0 1-17.8-6.7c-14.9-6.3-30.7-13.2-47-10.4a98.2 98.2 0 0 0-17 4.6c-4.2 1.5-2.4 8.3 1.8 6.8z" fill="#fff"/><path d="M84.7 246.3a67 67 0 0 1 26-5.3c9 .6 18.2 4.8 26.5 8l11.5 4.6c8.5 3.4 17.2 6.7 26.2 8.5a48 48 0 0 0 24.6-3.3 237.9 237.9 0 0 0 19.4-7.4 294 294 0 0 1 17.8-6.6 96 96 0 0 1 13-3.5 41 41 0 0 1 16.5 1.6c3.8 1 7.7 2 11.4 3.4 4.2 1.6 6-5.2 1.8-6.7-8.3-3-17.3-5.4-26.3-5.6-8.7-.2-18 3.8-26 6.7-12.7 4.7-23.7 10-37.4 13.7-9 2.4-16.4.5-25-2.4a255.6 255.6 0 0 1-17.8-6.6c-14.9-6.4-30.7-13.2-47-10.5a98.1 98.1 0 0 0-17 4.7c-4.3 1.5-2.5 8.3 1.8 6.7z" fill="#fff"/></svg>