<svg xmlns="http://www.w3.org/2000/svg" width="361" height="361"><path d="M176 75v76c0 6 10 6 10 0V75c0-6-10-6-10 0z" fill="#fff"/><path d="M156 87l22 13c6 3 11-6 5-9l-22-13c-5-3-10 6-5 9z" fill="#fff"/><path d="M200 78l-22 13c-6 3-1 12 5 9l22-13c6-3 1-12-5-9zm-87 38l65 38c6 3 11-5 5-8l-65-38c-6-4-11 5-5 8z" fill="#fff"/><path d="M113 139l22-12c6-4 1-12-5-9l-22 13c-6 3-1 12 5 8z" fill="#fff"/><path d="M128 97v26c0 6 10 6 10 0V97c0-6-10-6-10 0zm-10 95l65-38c6-3 1-12-5-8l-65 37c-6 4-1 12 5 9z" fill="#fff"/><path d="M138 203v-25c0-7-10-7-10 0v25c0 7 10 7 10 0z" fill="#fff"/><path d="M108 169l22 13c6 3 11-5 6-9l-22-12c-6-4-11 5-6 8z" fill="#fff"/><g fill="#fff"><path d="M186 226v-76c0-6-10-6-10 0v76c0 6 10 6 10 0z"/><path d="M205 214l-22-13c-5-3-10 6-5 9l22 13c6 3 11-6 5-9z"/><path d="M162 223l22-13c5-3 0-12-5-9l-23 13c-5 3 0 12 6 9z"/></g><g fill="#fff"><path d="M249 184l-65-38c-6-3-11 5-5 9l65 38c6 3 11-6 5-9z"/><path d="M249 161l-22 13c-6 3-1 12 5 8l22-12c5-4 0-12-5-9z"/><path d="M234 203v-25c0-7-10-7-10 0v25c0 7 10 7 10 0z"/></g><g fill="#fff"><path d="M244 108l-66 38c-5 3 0 12 5 9l66-38c6-3 1-12-5-9z"/><path d="M224 97v26c0 6 10 6 10 0V97c0-6-10-6-10 0z"/><path d="M253 131l-22-13c-5-3-10 6-5 9l22 13c6 3 11-6 5-9z"/></g><path d="M74 263c14-5 30-10 45-6l37 14c8 3 17 6 26 6s18-4 26-7c13-5 24-10 38-14 8-2 16 0 24 2a291 291 0 0 1 18 5c4 1 6-6 2-7-14-4-30-10-44-7s-26 9-38 13c-8 4-17 7-26 8s-18-4-26-7c-12-4-24-10-38-13-15-4-31 2-46 6-4 1-2 8 2 7z" fill="#fff"/><path d="M85 275c8-3 17-6 26-6 9 1 18 5 26 8l12 5c8 3 17 7 26 8a47 47 0 0 0 24-3 238 238 0 0 0 20-7l17-7a96 96 0 0 1 14-3c5-1 11 0 16 1l11 4c5 1 6-6 2-7-8-3-17-6-26-6s-18 4-26 7c-13 5-24 10-38 14a42 42 0 0 1-25-3 256 256 0 0 1-17-6c-15-7-31-14-47-11a98 98 0 0 0-17 5c-5 1-3 8 1 7z" fill="#fff"/><path d="M85 246a67 67 0 0 1 26-5c9 1 18 5 26 8l12 5 26 8a48 48 0 0 0 24-3 238 238 0 0 0 20-8 294 294 0 0 1 18-6 96 96 0 0 1 13-4 41 41 0 0 1 16 2l12 3c4 2 6-5 1-6-8-3-17-6-26-6s-18 4-26 7c-13 4-24 10-37 13-9 3-17 1-25-2a256 256 0 0 1-18-7c-15-6-31-13-47-10a98 98 0 0 0-17 5c-4 1-3 8 2 6z" fill="#fff"/></svg>