<svg xmlns="http://www.w3.org/2000/svg" width="361" height="361"><path d="M192 116l-15 45 3-2c-7 3-17 6-20 13-3 8 3 18 7 25v-3l-12 35c-1 4-4 9-4 13 1 10 14 14 19 4l4-12 7-22 3-9 1-3c0-2 0 1-1 1 5-2 13-5 16-10 6-8-1-18-5-26v2l12-35c1-3 4-9 4-13-1-9-14-13-19-4-1 4 5 8 6 4 2-4 6-1 5 2l-2 7-7 23-5 14c-1 2 0 4 1 6l5 9c4 8-9 12-14 15-3 1-4 6-5 9l-13 39c0 3-6 2-5-1a9398 9398 0 0 1 2-5l7-21 6-19c1-4-3-10-5-14-2-3-4-7 0-10l9-5c2-1 6-2 7-5l1-4 13-39 1-2c1-4-6-6-7-2zM75 106h212c6 0 6-10 0-10H75c-6 0-6 10 0 10zm0 159h212c6 0 6-10 0-10H75c-7 0-7 10 0 10z" fill="#fff"/></svg>