<svg xmlns="http://www.w3.org/2000/svg" width="361" height="361"><path d="M246.2 171.2h-47.8l2.4 1c-4.3-5.1-11.5-14.2-18.9-14.2-8.4 0-15.2 8.2-20.3 14.2l2.5-1h-30.6c-8.3 0-26.7-3.4-26.7 9.5 0 13 18.2 9.6 26.5 9.6h31.2l-2.4-1c4.4 4.9 11.2 13.7 18.5 13.7 8.3 0 14.6-8 19.8-13.8l-2.5 1h36.9c3.9 0 9.7 1.2 13.5-.2a9.6 9.6 0 0 0-2.2-18.8c-4.4-.5-4.4 6.5 0 7s1.1 5-1.6 5H198c-2.1 0-3.7 2.3-5 3.7l-7.3 7.2c-6.2 6.2-14.1-5.2-18.1-9.2-2.8-2.7-8.2-1.6-11.8-1.6h-39.6c-3.2 0-3.2-5 0-5h47c4.4 0 9.2-7.1 12.2-10 3-3 7-4.9 10.5-1.3l7.6 7.6c1.5 1.5 2.8 3.6 5.1 3.6h47.6c4.5 0 4.5-7 0-7zm-171-65h211.6c6.5 0 6.5-10 0-10H75.2c-6.5 0-6.5 10 0 10zm-.4 159h211.7c6.4 0 6.4-10 0-10H74.8c-6.4 0-6.4 10 0 10z" fill="#fff"/></svg>