<svg xmlns="http://www.w3.org/2000/svg" width="361" height="361"><path d="M182 88c0-2-1-4-3-4h-17c-2 0-4 2-4 4v8c0 3 2 5 4 5h17c2 0 3-2 3-4v-9z" fill="#fff"/><path d="M185 81l-2-4h-25c-2 0-3 2-3 4v2c0 2 1 4 3 4h25l2-4v-2zm22 16c8 0 14 6 14 13v57c0 7-6 13-14 13h-51c-7 0-13-6-13-13v-57c0-7 6-13 13-13h51z" fill="#fff"/><path d="M220 169c3 0 5 1 5 3v6c0 3-2 4-5 4h-78c-3 0-5-2-5-4v-6c0-2 3-4 5-4h78z" fill="#fff"/><path d="M205 178c6 1 7 6 7 11v81c0 5 0 10-5 12h-52c-5-2-5-8-5-12v-81c0-5 1-10 7-11h48c6 0 6-10 0-10h-38l-15 1c-7 2-12 10-12 17v89c0 9 8 17 18 17h39c6 0 11 0 16-2 7-4 9-11 9-17v-87c0-10-8-17-17-18-7 0-7 10 0 10zm1-65c3 0 4-1 4-3V95c0-2-1-4-3-4h-9c-2 0-4 2-4 4v15c0 2 2 3 4 3h8z" fill="#fff"/><path d="M202 92c0-15 40-38 59 9 14 37 6 146 28 146" fill="none" stroke="#fff" stroke-width="7" stroke-linecap="round" stroke-miterlimit="10"/></svg>