<svg xmlns="http://www.w3.org/2000/svg" width="361" height="361"><path d="M290 142a8 8 0 0 1-1 10l-33 26a8 8 0 0 1-11-1l-47-60a8 8 0 0 1 1-11l33-25a8 8 0 0 1 11 1l47 60z" fill="#fff" stroke="#fff" stroke-miterlimit="10"/><path d="M163 164l81 6c7 0 7-10 0-10l-81-6c-7 0-7 10 0 10z" fill="#fff"/><path fill="#fff" d="M146 143l14 16-15 16z"/><path d="M142 147l14 16v-7l-14 15 8 4 1-32c0-7-10-7-10 0l-1 32c0 4 6 6 9 3l14-16c2-2 2-4 0-7l-14-16c-4-4-11 3-7 7z" fill="#fff"/><ellipse transform="rotate(-31 262 105)" cx="262" cy="105" rx="18" ry="21" fill="none" stroke="#fff" stroke-width="10" stroke-miterlimit="10"/><path fill="#fff" stroke="#fff" stroke-miterlimit="10" d="M207 162l15-26 15 25z"/><path d="M132 152h-11c-4 1-4 8 0 7h11c5-1 5-8 0-7zm-37 4l-12 6c-4 2 0 8 4 6l12-6c4-2 0-8-4-6zm-17 14l-6 7c-1 1-2 4 0 5h5l6-7a4 4 0 0 0 0-5h-5zm54-28h-18c-5 0-5 7 0 7h18c5 0 5-7 0-7zm-33 2l-12 6c-5 2-1 8 3 6l13-6c4-1 0-7-4-6zm-21 10l-7 6v5h5l7-6v-5h-5zm54 8l-15 5c-4 1-2 8 2 6l15-4c5-1 3-8-2-7zm-25 12l-8 5c-4 2-1 8 3 6l8-5c4-3 0-9-3-6zm-19 13l-5 7c-2 1-2 3 0 5h5l5-7v-5h-5zm-15 15l-2 4c-1 2-1 4 1 5s4 0 5-2l2-3c1-2 0-4-1-5-2-1-4-1-5 1zm60-28l-19 8c-4 2 0 8 4 6l18-8c4-2 1-8-3-6zm-27 12l-8 7c-3 3 2 8 5 5l8-7c3-3-2-8-5-5zm-15 15l-5 7c-1 2-1 4 1 5s4 0 5-1l5-7c1-2 0-4-2-5-1-1-3 0-4 1zm-12 15a6566 6566 0 0 0-2 4v3a4 4 0 0 0 2 2c1 1 4 0 4-2a6566 6566 0 0 0 2-4v-2a4 4 0 0 0-1-2c-2-1-4-1-5 1zm27-54l-8 3c-2 1-3 3-3 5 1 1 3 3 4 2l9-3c2-1 3-3 2-5 0-1-2-3-4-2zm-18 14l-6 5c-2 1-2 4 0 5h5l6-6c2-1 1-3 0-5h-5zm-15 13l-2 3c-1 2 0 5 1 5 2 1 4 1 5-1l2-3c2-2 1-4-1-5-1-1-3 0-5 1zm39-38l-8 1c-2 1-3 3-2 5 0 2 2 3 4 2l8-1c2-1 3-3 2-5 0-2-2-3-4-2z" fill="#fff"/><g fill="#fff"><path d="M202 251v-1h-15c1 0 1 3 1 0v-21 2h14c-1 0-1-3-1 0v21c0 4 7 4 7 0v-25c-2-5-10-3-14-3-5 0-11-1-13 4v13c0 4-1 9 1 13 1 5 9 3 13 3 5 0 11 1 13-4 2-4-5-6-7-2zm27-1s2 0 0 0h-14l1 1v-31c0 1-2 1 0 1h13v30c0 5 7 5 7 0v-30c0-7-6-7-11-7-6 0-14-1-16 5v32c0 7 6 6 11 6 6 0 14 2 16-5 1-4-6-6-7-2z"/><path d="M257 250h1-14c-2 0 0 1 0 1v-41c0 1-2 1 1 1h12c1 0 0-2 0 0v40c0 5 7 5 7 0v-37c0-5-1-10-7-10h-10c-3 0-6-1-8 2-4 3-2 10-2 14v24c0 3-2 12 4 13h17c3 0 5-2 6-5 1-4-6-6-7-2zm28 0s1 0 0 0h-13c-2 0 0 0 0 1v-53s-2 0 0 0h12c2 0 1 1 1-1v54c0 5 7 5 7 0v-53c0-7-7-7-12-7s-15-1-15 7v53c0 7 6 6 11 6s14 2 16-5c1-4-6-6-7-2zm-83 41l-1-6h-9l-2 6h-7a234 234 0 0 1 5-15l5-12h7a328 328 0 0 1 5 12l5 15h-8zm-6-22a176 176 0 0 0-2 6v2a92 92 0 0 0-1 3h7l-1-3-1-2a134 134 0 0 0-2-6zm28 23l-6-1a9 9 0 0 1-3-2l-2-3a16 16 0 0 1-1-5v-17h7v20l1 1 2 2h4a3 3 0 0 0 2-1v-2l1-3v-17h6v21a7 7 0 0 1-2 4l-4 2h-5zm40-28v4h-9v23h-7v-23h-9v-4h25zm3 13c0-4 1-8 3-10 2-3 5-4 9-4s7 1 9 4c2 2 3 6 3 10s-1 9-3 11a12 12 0 0 1-9 4c-4 0-7-2-9-4s-3-6-3-11zm6 0l1 4v3a5 5 0 0 0 2 2l3 1 3-1a5 5 0 0 0 1-2l1-3v-7a10 10 0 0 0-1-3 5 5 0 0 0-1-2l-3-1-3 1-2 2v3a33 33 0 0 0-1 3z"/></g></svg>