<svg xmlns="http://www.w3.org/2000/svg" width="361" height="361"><path d="M257.9 176.4l28.1 7.5c6.3 1.7 9-8 2.7-9.6l-28.2-7.6c-6.2-1.7-8.8 8-2.6 9.7z" fill="#fff"/><path d="M254.3 170.4l-2.5 9.3c-1.6 6.2 8 8.9 9.7 2.7l2.5-9.4c1.7-6.2-8-8.9-9.7-2.6z" fill="#fff"/><path d="M240.1 183.2l29.3 7.8c6.2 1.7 8.8-8 2.6-9.6l-29.2-7.8c-6.2-1.7-8.9 8-2.7 9.6z" fill="#fff"/><path d="M236.5 177.5l-1.2 4.4a5 5 0 0 0 3.5 6.2 5 5 0 0 0 6.2-3.5l1.2-4.5a5 5 0 0 0-3.5-6.1 5 5 0 0 0-6.2 3.5zm29.3 8l-1.2 4.5a5 5 0 0 0 3.5 6.2 5 5 0 0 0 6.1-3.5l1.2-4.5a5 5 0 0 0-3.5-6.1 5 5 0 0 0-6.1 3.5zm-13.4 18l-2.7 10c-1.2 4.4 5.6 6.3 6.8 2l2.6-10c1.2-4.4-5.6-6.3-6.7-2zM242 201l-2 7.6c-1.2 4.4 5.5 6.2 6.7 1.8l2-7.6c1.2-4.3-5.5-6.2-6.7-1.8z" fill="#fff"/><path d="M237.9 216.1l-3.7 13.8c-1.2 4.4 5.6 6.2 6.7 1.9l3.7-13.8c1.2-4.4-5.6-6.2-6.7-1.9zm10.1 4.7l-3.7 14c-1.2 4.4 5.5 6.3 6.7 2l3.8-14.2c1.2-4.3-5.6-6.2-6.8-1.8zm11.7-8.6l-2.7 10.4c-1.2 4.3 5.5 6.2 6.7 1.8l2.8-10.3c1.2-4.4-5.6-6.3-6.8-2zm-5.3 19.6l-.8 3c-.5 2 .6 3.9 2.5 4.4 1.8.5 3.7-.6 4.2-2.5l.9-3c.5-2-.6-3.9-2.4-4.4-1.9-.5-3.9.6-4.4 2.5zm-23-28.4l-2.8 10.3c-1.1 4.4 5.6 6.3 6.8 1.9l2.8-10.4c1.1-4.3-5.6-6.2-6.8-1.8zm-5.2 19.5l-3.2 12c-1.2 4.3 5.5 6.1 6.7 1.8l3.2-12c1.2-4.3-5.6-6.2-6.8-1.8zm29.3-30.4l-1.2 4.4c-.5 1.9.6 3.8 2.4 4.3 1.9.6 3.9-.5 4.3-2.4l1.2-4.5c.5-1.8-.6-3.8-2.4-4.3-1.8-.5-3.8.6-4.3 2.5zm-10-3.3l-1.2 4.4a3.5 3.5 0 0 0 6.8 1.9l1.2-4.5a3.5 3.5 0 0 0-6.7-1.9z" fill="#fff"/><path d="M262.5 202.3l-.7 2.7a3.5 3.5 0 0 0 6.8 1.9l.7-2.8a3.5 3.5 0 0 0-6.7-1.9zm-28-8.9l-.7 2.8a3.5 3.5 0 1 0 6.8 1.9l.7-2.8a3.5 3.5 0 0 0-6.8-1.9zm-69.2 98.3h8.7c2.7 0 5-2.3 5-5s-2.3-5-5-5h-8.7a5 5 0 1 0 0 10zm97.7 0h8.7c2.7 0 5-2.3 5-5s-2.3-5-5-5H263a5 5 0 0 0 0 10z" fill="#fff"/><path d="M277.7 277.5c-.8 2.5.5.5.6.5H159c1.3 0 1.7 1.4.8-.5l-.7-1.3-2.7-6.2-11-25.3.5 3.9c.1-.6-1.2-.5.6-.5h136.2c.6 0 0-3.7-.5-.5l-1.6 10.7-3 19.2c-1 6.3 8.7 9 9.7 2.7l2.5-16.3c.8-5.4 2.5-11.2 2.5-16.7 0-11.4-14.5-9.1-22-9.1h-122c-4 0-8.6.1-10.6 4.2-3 5.9 1 11.5 3.4 17l8.7 20c2 4.7 4.1 8.7 9.8 8.7H273c6.6 0 11.7-.3 14.3-7.8 2-6.1-7.6-8.7-9.7-2.7z" fill="#fff"/><path d="M282.4 180.7v66.5c0 6.5 10 6.5 10 0v-66.5c0-6.5-10-6.5-10 0zM83.2 160.1c.6 8.5 6.4 11 13.9 11h37.6c7.5 0 12.5-5.7 16.7-11.2 7.3-9.3 26.3-46.8 2.5-46.8H96c-7.3 0-12.7 3.1-12.7 11v36c0 6.4 10 6.4 10 0v-35.4l.1-2c-.2 1.2 0 .4 1.2.4h49.8c1 0 11.6-1.1 11.3 1.3a66.3 66.3 0 0 1-12 29.3c-2.5 3.6-5.7 7.4-10.4 7.4h-35c-1.5 0-4.9.7-5-1-.4-6.4-10.4-6.4-10 0zm5-48.9h73.4c6.5 0 6.5-10 0-10H88.2c-6.4 0-6.4 10 0 10z" fill="#fff"/><g fill="#fff"><path d="M245 111.9a4.4 4.4 0 0 1-4.3 4.4h-43.3a4.4 4.4 0 0 1-4.4-4.4V84.2a4.4 4.4 0 0 1 4.4-4.3h43.2a4.4 4.4 0 0 1 4.4 4.3V112z"/><path d="M189.2 101.8H251c4.6 0 4.6-7 0-7h-61.8c-4.5 0-4.5 7 0 7z"/><path d="M184.2 93v10c0 4.6 7 4.6 7 0V93c0-4.5-7-4.5-7 0zm5.3-16.2H251c4.6 0 4.6-7 0-7h-61.5c-4.5 0-4.5 7 0 7z"/><path d="M254.5 98.3v-25c0-4.5-7-4.5-7 0v25c0 4.5 7 4.5 7 0z"/></g><path d="M80.3 197.1v-121c0-6.4-10-6.4-10 0v121c0 6.5 10 6.5 10 0z" fill="#fff"/></svg>