<svg xmlns="http://www.w3.org/2000/svg" width="361" height="361"><path d="M245 125l41 11c6 1 9-8 3-10l-41-11c-7-2-9 8-3 9z" fill="#fff"/><path d="M241 119l-3 13c-2 6 8 9 9 3l4-14c2-6-8-9-10-2z" fill="#fff"/><path d="M219 134l43 12c6 2 8-8 2-10l-42-11c-6-2-9 8-3 9z" fill="#fff"/><path d="M216 129l-2 6a5 5 0 0 0 3 7 5 5 0 0 0 6-4l2-6a5 5 0 0 0-3-7 5 5 0 0 0-6 4zm42 12l-2 6a5 5 0 0 0 4 6 5 5 0 0 0 6-3l2-7a5 5 0 0 0-4-6 5 5 0 0 0-6 4zm-16 26l-4 14c-1 5 6 6 7 2l4-14c1-5-6-7-7-2zm-9-13l-3 12c-1 5 5 7 7 2l3-12c1-5-6-6-7-2zm-6 24l-6 21c-1 4 6 6 7 2l5-21c1-4-5-6-6-2zm-8-17l-4 14c-1 4 6 6 7 2l4-15c1-4-6-6-7-1zm-7 25l-5 21c-2 4 5 6 6 2l6-21c1-4-6-6-7-2zm24 6l-6 20c-1 5 6 6 7 2l6-20c1-5-6-7-7-2zm15-13l-4 15c-1 5 6 7 7 2l4-15c1-4-5-6-7-2zm-7 29l-1 4c-1 2 0 4 2 5 2 0 4-1 4-3l1-4c1-2 0-4-2-5-2 0-4 1-4 3zm-39-42l-4 15c-1 5 5 7 6 2l4-15c2-4-5-6-6-2zm-8 29l-5 17c-1 4 6 6 7 2l5-17c1-5-6-7-7-2zm50-44l-2 6c-1 4 5 6 7 2l1-7c2-4-5-6-6-1zm-23-7l-2 7c-1 4 6 6 7 2l2-7c1-4-6-6-7-2zm31 21l-1 4c0 2 1 4 3 4 2 1 4-1 4-2l1-4c1-2 0-4-2-5-2 0-4 1-5 3zm-46-13l-1 4c0 2 1 4 3 4 2 1 4 0 4-2l1-4c1-2 0-4-2-5-2 0-4 1-5 3zm-99 140h13c6 0 6-10 0-10h-13c-6 0-6 10 0 10zm142 0h13c6 0 6-10 0-10h-13c-6 0-6 10 0 10z" fill="#fff"/><path d="M275 274c-1 3-1 3-4 3H102c-2 0-2-3-3-5l-8-16-9-22-2-6-1-1c1 3 0 2 2 2h201v2l-7 43c-1 7 9 9 10 3l6-37c0-4 2-11 0-15-2-5-6-6-11-6H89c-9 0-18-1-19 11l1 4 4 8 9 22 6 14c3 5 6 9 11 9h173c6 0 9-4 11-10s-8-9-10-3zm-57-65l-1 3c0 2 1 4 3 5l4-3 1-3c0-2-1-4-3-5l-4 3z" fill="#fff"/><path d="M282 133v97c0 6 10 6 10 0v-97c0-6-10-6-10 0z" fill="#fff"/></svg>