<svg xmlns="http://www.w3.org/2000/svg" width="361" height="361"><path d="M114.3 287.3c0 2.4-1.4 4.4-3.1 4.4h-9c-1.8 0-3.2-2-3.2-4.4V206c0-2.4 1.4-4.3 3.2-4.3h9c1.7 0 3.1 2 3.1 4.3v81.3z" fill="#fff"/><path d="M113 241.7l22.9-27.8c4-5-3-12-7.1-7.1L106 234.6c-4 5 3 12 7 7.1zm50-49.5c0 2.6-2 4.7-4.5 4.7H98.7a4.6 4.6 0 0 1-4.5-4.7v-30.9c0-2.5 2-4.6 4.5-4.6h59.8a4.6 4.6 0 0 1 4.5 4.6v31z" fill="#fff"/><path d="M155.2 169.5a3.9 3.9 0 0 1-3.9 4h-48.6a3.9 3.9 0 0 1-3.9-4v-22a3.9 3.9 0 0 1 4-3.8h48.5a3.9 3.9 0 0 1 4 3.9v22z" fill="#fff"/><path d="M127.7 164.6c0 1.5-1.5 2.6-3.4 2.6h-33c-2 0-3.5-1.1-3.5-2.6V133c0-1.4 1.6-2.6 3.5-2.6h33c1.9 0 3.4 1.2 3.4 2.6v31.6z" fill="#fff"/><path d="M144 153.7a6 6 0 0 1-6 6h-9.8a6 6 0 0 1-6-6v-19.4a6 6 0 0 1 6-6h9.9a6 6 0 0 1 6 6v19.4zm-35 41.7a6 6 0 0 1-6 6H87.2a6 6 0 0 1-6-6v-15.7a6 6 0 0 1 6-6H103a6 6 0 0 1 6 6v15.7zm-7.4-31.7c0 3.3-3.5 6-7.8 6H80.6c-4.3 0-7.8-2.7-7.8-6v-22.8c0-3.3 3.5-6 7.8-6h13.2c4.3 0 7.8 2.7 7.8 6v22.8z" fill="#fff"/><path d="M91.8 191.7a6 6 0 0 1-6 6h-10a6 6 0 0 1-6-6v-40.4a6 6 0 0 1 6-6h10a6 6 0 0 1 6 6v40.4z" fill="#fff"/><path d="M155.2 206a6 6 0 0 1-6 6H78.8a6 6 0 0 1-6-6v-8a6 6 0 0 1 6-6h70.4a6 6 0 0 1 6 6v8z" fill="#fff"/><path d="M108 211.7a4.8 4.8 0 0 1-4.7 4.7h-12a4.8 4.8 0 0 1-4.7-4.7 4.8 4.8 0 0 1 4.7-4.8h12a4.8 4.8 0 0 1 4.8 4.8zm148-90.4l9.5-11.8c1.7-2.1 2-5 0-7-1.8-1.8-5.4-2.2-7.1 0l-9.4 11.8c-1.7 2-2.1 5 0 7 1.8 1.8 5.4 2.2 7 0z" fill="#fff"/><path d="M262.3 109.6l15-1.5c2.8-.3 5-2 5-5 0-2.5-2.2-5.3-5-5l-15 1.5c-2.7.3-5 2-5 5 0 2.5 2.3 5.3 5 5zm-9 3.8l-14.8-3.4c-6.2-1.5-8.9 8.2-2.6 9.6l14.7 3.5c6.3 1.4 9-8.2 2.7-9.7z" fill="#fff"/><path d="M233 110l-12.8 8c-5.5 3.4-.5 12.1 5 8.6l12.8-8c5.4-3.5.4-12.1-5-8.7zm-18.7 99L194 164l92.7 45z" fill="#fff"/><path d="M218.6 206.4l-20.2-45-6.8 6.9 92.7 45 2.5-9.3h-72.5c-6.5 0-6.5 10 0 10h72.5c4.8 0 7.2-7.1 2.5-9.4l-92.7-45c-4.7-2.2-8.9 2.3-6.8 6.9l20.2 45c2.6 5.9 11.2.8 8.6-5z" fill="#fff"/><path d="M277 281.4c-.5 4-8.6 3.2-12 3.2h-93c-1.7 0-7-.3-7-3v-72.4c0-2.4 5.6-2.7 7.2-2.7h93.6c4 0 11.1-.9 11.1 4.3v71.5c0 4.5 7 4.5 7 0v-71.5c0-11.3-11.8-11.3-20.5-11.3H179c-8.5 0-21-.3-21 11v71.8c0 10.6 15.3 9.3 22.7 9.3h78.6c7.6 0 23 1.9 24.5-8.4.7-4.4-6.1-6.3-6.7-1.8z" fill="#fff"/><path fill="#fff" d="M213.7 209l-19.9-45-52.7 45z"/><path d="M218 206.4l-19.8-45c-1.4-3.1-5.7-2.9-7.9-1l-52.7 45c-3.4 3-.6 8.6 3.5 8.6h72.6c6.4 0 6.4-10 0-10H141l3.6 8.5 52.7-45-7.9-1 19.9 45c2.5 5.9 11.2.8 8.6-5zm47 39.4c-.7 2.8-12.3 1.3-14 1.3h-18.2c-1 0-3.7.4-3.7-1.3v-23c0-1.8 29.2-.9 32-.9 1.2 0 3.8-.3 3.8 1.4v23c0 1.9 3 1.9 3 0V228c0-4.1.7-9-5-9H243c-4.5 0-11.3-1.4-15.4.8-1.7 1-1.6 3-1.6 4.7v11c0 3-2 13.6 2.9 14.4 5.2.8 10.8.2 16 .2h18.3c2.3 0 4-1.3 4.6-3.5.4-1.8-2.4-2.6-3-.8z" fill="#fff"/><path d="M245.5 220.4v28.2c0 2 3 2 3 0v-28.2c0-1.9-3-1.9-3 0z" fill="#fff"/><path d="M227.6 236h38.8c2 0 2-3 0-3h-38.8c-2 0-2 3 0 3zm-27 47.5c-.5 2.8-5.8 1.7-7.7 1.7h-12.1c-1.4 0-5.2.7-5.2-1.7v-49.4c0-1.8-1.4-11 1.8-11h20c4.7 0 3.2 5.5 3.2 8.8v52c0 2 3 2 3 0v-55c0-3.4.6-8.8-4.3-8.8h-18.5c-4 0-8.2 0-8.2 5.1v55.3c0 3.4-.2 6.8 4 7.7 4.7 1 10.5 0 15.4 0 4 0 10.5 1.4 11.6-4 .3-1.8-2.6-2.6-3-.7z" fill="#fff"/><path d="M195.6 252.2h3.3c2 0 2-3 0-3h-3.3c-2 0-2 3 0 3zm.9-10.7c-.4 1.4-14.3.4-16.3.4-.9 0-.5-12.9-.5-14.7h16.5c.4 0 .2 13.1.2 14.7 0 2 3 2 3 0v-10.7c0-2.5.7-7-3-7H185c-2.8 0-7.2-1-8.2 2.5-.8 3 0 7.3 0 10.4 0 2.5-1 7.8 3 7.8H191c3 0 7.3 1 8.3-2.6.5-1.9-2.4-2.7-3-.8z" fill="#fff"/><path d="M186.6 225.7v17.7c0 1.9 3 1.9 3 0v-17.7c0-2-3-2-3 0z" fill="#fff"/><path d="M178.2 236H198c2 0 2-3 0-3h-19.7c-1.9 0-1.9 3 0 3zm-88 54c0-7.5-.3-15.8 2.1-23 1.3-3.8 4.4-6 7.2-8.4 1.5-1.3-.6-3.4-2-2.1-3 2.5-6 4.8-7.6 8.5-3.2 7.6-2.7 17-2.7 25 0 2 3 2 3 0z" fill="#fff"/><path d="M84.2 290c0-7.5-.2-16.3 3.8-23 2.5-4 7.3-6 11.2-8.2 1.7-1 .2-3.5-1.5-2.6-4.3 2.6-8.8 4.6-11.9 8.7-5 6.8-4.5 17.3-4.6 25.2 0 2 3 2 3 0zm16.1 0c0-6.5-.4-16.2 4.5-21.5 1.5-1.6 3.8-2 4-4.5.3-1.9-2.7-1.9-3 0 0 .2-3.9 3.2-4.5 4.1-4.2 6-4 15.1-4 22 0 2 3 2 3 0z" fill="#fff"/><path d="M94.3 290.5c1-5.6 1.4-14.1 5.2-18.7 2.2-2.8 6.3-4.3 9-6.7 1.4-1.3-.8-3.4-2.2-2.1-2.8 2.5-6.8 4-9.2 7-4.1 5-4.6 13.7-5.7 19.7-.4 1.9 2.5 2.7 2.9.8zm-14.5-.3c0-5.1-.1-10.9-2.7-15.5a8.2 8.2 0 0 0-2.2-2.5c-.7-.5-1.3-1.2-1.2-.5-.2-2-3.2-2-3 0 .2 1.8 1.6 2.2 2.8 3.2 3.7 3.3 3.3 10.9 3.3 15.3 0 2 3 2 3 0z" fill="#fff"/><path d="M84 289.8c-.8-4.4-1.2-10.2-4-14-1.6-2.2-4.7-3.3-6.7-5.2-1.5-1.3-3.6.8-2.2 2.1 2 1.7 4.4 2.8 6.2 4.5 1 1 1.3 2.4 1.7 3.6 1 3.2 1.5 6.5 2 9.8.4 1.9 3.3 1 3-.8zm48.7.4c0-7.6-.1-16.4 4-23 2.1-3.4 6-5.2 9-7.7 1.5-1.3-.7-3.4-2.1-2.2-3.3 2.8-7 4.7-9.5 8.3-4.6 6.8-4.4 16.8-4.4 24.6 0 2 3 2 3 0z" fill="#fff"/><path d="M126.7 290.2c0-7.7.3-17 5.9-23 3.3-3.6 8.6-5.1 12.8-7.5 1.7-1 .2-3.5-1.5-2.6-4.8 2.7-10.1 4.4-14 8.5-5.9 6.3-6.1 16.5-6.2 24.6 0 2 3 2 3 0zm13.8-.3c0-4.5-.4-11.5 2.8-15.3 1.1-1.2 2.6-1.6 2.8-3.5.2-1.9-2.8-1.9-3 0 0-.5-2.5 2.1-3 2.8-2.8 4.5-2.6 11-2.6 16 0 2 3 2 3 0z" fill="#fff"/><path d="M136.5 290.4c.7-4.2 1-9.8 3.3-13.4 1.3-2 4.3-3.2 5.9-4.8 1.4-1.3-.7-3.5-2.1-2.1-1.9 1.8-4.6 3-6.2 5-2.8 3.9-3 10-3.8 14.5-.4 1.9 2.5 2.7 2.9.8zm-15.8-.3c0-6.2 1.2-16.4-4.6-20.5-1.6-1.1-3 1.5-1.5 2.6.9.6 1.2.6 1.7 1.8 1.8 4.9 1.4 11 1.4 16 0 2 3 2 3 0z" fill="#fff"/><path d="M126.6 289.7c-.7-4.6-1-10.4-3.7-14.4-1.5-2.3-4.5-3.6-6.5-5.5-1.4-1.3-3.5.8-2.1 2.2 1.8 1.7 4.1 2.8 5.8 4.6 1 1 1.3 2.5 1.6 3.7 1 3.4 1.5 6.8 2 10.2.4 1.9 3.3 1 3-.8z" fill="#fff"/></svg>