<svg xmlns="http://www.w3.org/2000/svg" width="361" height="361"><path d="M258 176l28 8c6 2 9-8 3-10l-29-7c-6-2-8 8-2 9z" fill="#fff"/><path d="M254 170l-2 10c-2 6 8 9 10 2l2-9c2-6-8-9-10-3z" fill="#fff"/><path d="M240 183l29 8c7 2 9-8 3-10l-29-7c-6-2-9 8-3 9z" fill="#fff"/><path d="M237 178l-2 4a5 5 0 0 0 4 6 5 5 0 0 0 6-3l1-5a5 5 0 0 0-3-6 5 5 0 0 0-7 4zm29 8l-1 4a5 5 0 0 0 3 6 5 5 0 0 0 6-3l1-5a5 5 0 0 0-3-6 5 5 0 0 0-6 4zm-14 18l-2 10c-1 4 5 6 7 2l2-10c1-5-5-7-7-2zm-10-3l-2 8c-1 4 6 6 7 1l2-7c1-4-6-6-7-2z" fill="#fff"/><path d="M238 216l-4 14c-1 4 6 6 7 2l4-14c1-4-6-6-7-2zm10 5l-4 14c-1 4 6 6 7 2l4-14c1-5-6-7-7-2zm12-9l-3 11c-1 4 6 6 7 1l2-10c2-4-5-6-6-2zm-6 20v3c-1 2 0 4 2 4 2 1 4 0 4-2l1-3c1-2 0-4-2-5-2 0-4 1-5 3zm-23-29l-2 11c-2 4 5 6 6 2l3-11c1-4-5-6-7-2zm-5 20l-3 12c-1 4 6 6 7 2l3-12c1-5-6-7-7-2zm29-31l-1 5c0 2 1 4 3 4 2 1 4 0 4-2l1-5c1-2 0-4-2-4-2-1-4 1-4 2zm-9-3l-2 5a4 4 0 0 0 7 1l1-4a4 4 0 0 0-6-2z" fill="#fff"/><path d="M263 202l-1 3a4 4 0 0 0 7 2v-3a4 4 0 0 0-6-2zm-28-9l-1 3a4 4 0 1 0 7 2v-3a4 4 0 0 0-6-2zm-70 99h9c3 0 5-3 5-5s-2-5-5-5h-9a5 5 0 1 0 0 10zm98 0h9c2 0 5-3 5-5s-3-5-5-5h-9a5 5 0 0 0 0 10z" fill="#fff"/><path d="M278 278c-1 2 0 0 0 0H159h1l-1-2-3-6-11-25 1 4c0-1-1-1 1-1h136s0-4-1 0l-1 10-3 20c-1 6 8 9 9 2l3-16 2-17c0-11-14-9-22-9H148c-4 0-8 0-10 4-3 6 1 12 3 17l9 20c2 5 4 9 10 9h113c7 0 12 0 14-8 2-6-7-9-9-3z" fill="#fff"/><path d="M282 181v66c0 7 10 7 10 0v-66c0-7-10-7-10 0zM83 160c1 9 7 11 14 11h38c7 0 12-6 16-11 8-9 27-47 3-47H96c-7 0-13 3-13 11v36c0 7 10 7 10 0v-37h51c1 0 12-1 12 1a66 66 0 0 1-12 30c-3 3-6 7-11 7H98c-1 0-5 1-5-1 0-6-10-6-10 0zm5-49h74c6 0 6-10 0-10H88c-6 0-6 10 0 10z" fill="#fff"/><g fill="#fff"><path d="M245 112a4 4 0 0 1-4 4h-44a4 4 0 0 1-4-4V84a4 4 0 0 1 4-4h44a4 4 0 0 1 4 4v28z"/><path d="M189 102h62c5 0 5-7 0-7h-62c-4 0-4 7 0 7z"/><path d="M184 93v10c0 5 7 5 7 0V93c0-4-7-4-7 0zm5-16h62c5 0 5-7 0-7h-61c-5 0-5 7 0 7z"/><path d="M255 98V73c0-4-7-4-7 0v25c0 5 7 5 7 0z"/></g><path d="M80 197V76c0-6-10-6-10 0v121c0 7 10 7 10 0z" fill="#fff"/></svg>