<svg xmlns="http://www.w3.org/2000/svg" width="361" height="361"><path d="M287 181h-90c-4 0-4 7 0 7h90c5 0 5-7 0-7z" fill="#fff"/><path d="M282 281c0 2-26 1-29 1h-44l-8-1V171c0-1 0-4 2-4h76c1 0 3 0 3 2v112c0 6 10 6 10 0V172c0-4 1-8-2-11-4-4-8-4-13-4h-75c-12 0-11 14-11 23v88c0 9-2 24 11 24h79c7 0 11-5 11-11 1-7-9-7-10 0z" fill="#fff"/><path d="M239 177h11c5 0 5-7 0-7h-11c-5 0-5 7 0 7zm24 0h8c4 0 4-7 0-7h-8c-4 0-4 7 0 7zm8 64a29 29 0 0 1-58 0 29 29 0 0 1 29-29 29 29 0 0 1 29 29c0 5 7 5 7 0a37 37 0 0 0-36-36c-20 0-36 17-36 36a36 36 0 0 0 36 36c20 1 36-17 36-36 0-4-7-4-7 0z" fill="#fff"/><path d="M261 241a19 19 0 0 1-19 19c-10 0-18-9-19-19 0-10 9-18 19-19 11 0 19 9 19 19 0 5 7 5 7 0a26 26 0 0 0-26-26c-14 0-25 12-26 26 0 14 12 25 26 26 14 0 25-12 26-26 0-4-7-4-7 0zm26-139a911 911 0 0 1-142-9l-45-10a61 61 0 0 1-24-12c-3-3-8 2-5 5a66 66 0 0 0 25 13 890 890 0 0 0 192 21c4-1 4-8 0-8z" fill="#fff"/><path d="M187 96v11c0 5 7 5 7 0V96c0-4-7-4-7 0zm-34-3v12c0 4 7 4 7 0V93c0-4-7-4-7 0zm-42-10v12c0 4 7 4 7 0V83c0-4-7-4-7 0zm-23-5v11c0 5 7 5 7 0V77c0-4-7-4-7 0z" fill="#fff"/><path d="M196 111c0-5-6-6-10-6h-30c-6 0-8 4-8 9v13c-1 3-3 11 1 12l15 1c5 0 4-5 4-9l-1 1h10l-1-1c0 4-1 9 4 9h10l6-1c3-3 1-10 1-13v-15c0-2-3-2-3 0v21c0 1 1 5-1 5h-13c-2 0-1-5-1-6l-2-2h-10l-1 2v4c0 2-4 2-5 2-2 0-12 1-11-2l1-21c0-5 2-6 6-6h26c3 0 10-1 11 4 0 2 3 1 3-1z" fill="#fff"/><path d="M176 114c2 1 1 4 1 5v8c0 2-1 2-3 2h-6c-2 0-1-11-1-13 0-3 7-2 9-2s2-3 0-3c-4 0-12-1-12 5v10c0 3 0 6 3 6h9c2 0 4-1 4-4v-11c0-2 0-5-3-6-2 0-3 3-1 3z" fill="#fff"/><path d="M149 114h46c2 0 2-3 0-3h-46c-2 0-2 3 0 3zm-46 6c0 3-3 5-5 3l-1-1-5-4c-2-2-3-3-3-6V93c0-2 5-2 5-1a144 144 0 0 0 0 11c0 3 0 6 2 8 2 3 6 6 7 10 1 2 4 1 3-1-1-4-5-8-8-11l-1-8v-8c0-5-3-5-6-5-4 0-5 2-5 6v15c0 3-1 6 1 8l9 8c5 4 10 2 10-5 0-2-3-2-3 0zm24 6c0 3-3 5-6 3l-1-1-4-4c-2-2-4-3-4-6V99c0-3 6-2 6-1a155 155 0 0 0 0 11c0 3 0 6 2 8 2 3 6 6 7 10 0 1 3 1 3-1l-8-12c-2-1-1-5-1-7v-9c0-4-4-4-7-4-4 0-5 2-5 6v15c0 3 0 6 2 8l9 8c4 4 10 2 10-5 0-2-3-2-3 0z" fill="#fff"/><g fill="#fff"><path d="M145 261c0 4-4 3-6 1l-3-4c-1-2-4-5-3-7l4-18c1-2 6 0 6 1l-3 11a11 11 0 0 0 1 6c1 4 4 7 4 11 0 2 3 2 3 0 0-4-3-9-5-12-2-4 1-11 2-16 2-4-3-4-6-5s-4 2-5 5l-3 14c-1 3-2 5 0 9l8 10c4 3 8-1 9-5 0-2-2-2-3-1zm5-11c0 4 2 7 6 7 3 0 6-4 8-6s6-4 6-7v-9c0-3 1-5-3-6-2-1-6 0-8 1v3c0 3-1 5-3 7-2 3-5 6-6 10-1 1 2 2 3 0 1-4 6-7 8-11l1-7c0 1 5-1 5 1 0 4 2 10-2 13l-4 4-2 2c-3 2-6 2-6-2 0-2-3-2-3 0z"/><path d="M136 264l1 21c0 4 7 4 7 0l-1-18c0-4-2-2-7-4zm17-28v12l-1 7-1 31c-1 4 6 4 7 0l1-31c1-4-7 2-6-3 0-6 8-15 8-16 0-4-7-4-7 0zm-62 1a2275880076188540400 2275880076188540400 0 0 0 10 50l-3-50c-1-5-8-5-7 0zm31 0v50c0 5 7 5 7 0v-50c0-5-7-5-7 0zm-15 0v49c0 5 7 5 7 0v-49c0-5-7-5-7 0z"/><path d="M144 234l-1 5h17v-1l1-6h-19 1a2 2 0 0 1 1 2z"/><path d="M174 232h-5v7h5l-7 37a209 209 0 0 1-2 7v2H86a72 72 0 0 1-1-2 1046 1046 0 0 1-6-34 1904 1904 0 0 1-2-8v-2h57l2-7H79c-4 0-8 0-9 5-1 3 1 9 2 12l4 24 4 16c1 3 4 3 7 3h81a3 3 0 0 0 2-1c2-3 3-8 3-11a689 689 0 0 0 5-23 1774 1774 0 0 0 3-17c1-5-2-8-7-8z"/></g></svg>