<svg xmlns="http://www.w3.org/2000/svg" width="361" height="361"><path d="M179 210v27c0 2 3 2 3 0v-27c0-2-3-2-3 0zm22 0l3-9c0-2-3-3-3-1l-3 9c-1 2 2 3 3 1zm-7 27l3-17c1-1-2-2-3 0l-3 16c0 2 3 3 3 1zm21-44l2 1 2-1-1-2-2-1a2 2 0 0 0-2 1l1 2zm6 6l1 2h2l1-2-1-1a2 2 0 0 0-2-1l-1 2zm-13-5l2-1v-2h-2l-2 1v2h2zm-45 15l-3-9c0-2-3-1-3 1l3 9c1 2 4 1 3-1zm7 27l-3-16c-1-2-4-1-3 0l3 17c0 2 3 1 3-1zm-25-46l-2 1a2 2 0 0 0-1 1 2 2 0 0 0 2 1h2a2 2 0 0 0 1-2 2 2 0 0 0-2-1zm-8 8l-1 1 1 2h2l1-2-1-2a2 2 0 0 0-2 1zm18-6l-2-1h-2v2l2 1h2v-2zm37-19l1-10c1-2-2-2-3 0l-1 10c0 2 3 2 3 0zm-3 28l2-18c0-2-3-2-3 0l-2 18c0 2 3 2 4 0zm8-46l1 1 2-1-1-2h-3l1 2zm2 7v1l2 1a2 2 0 0 0 1-2v-1a2 2 0 0 0-2-1 2 2 0 0 0-1 2zm-4-5l1-2-1-2-2 1v3h2zm-24 16l-1-10c0-2-3-2-3 0l1 10c1 2 4 2 3 0zm3 28l-1-18c0-2-3-2-3 0l1 18c0 2 3 2 3 0zm-12-48h-1v2l2 1 1-1v-2h-2zm-3 8l-1 1 1 2 2-1v-1c1-1 0-2-1-2a2 2 0 0 0-1 1z" fill="#fff"/><path d="M168 155l-1-1-2-1v4h2l1-2zm61 111c0-10-6-15-15-15h-22l4 4c-2-17-29-17-31 0l4-4h-20c-9 0-15 5-15 15 0 4 7 4 7 0 0-9 7-8 13-8h15c2 0 3-1 4-3 0-7 15-7 16 0 0 2 1 3 3 3h16c6 0 14-1 14 7 0 5 7 5 7 1zm54 16h5c2 0 3-1 3-3s-1-4-3-4h-5c-1 0-3 2-3 4s2 3 3 3zm-26 10h16c4 0 4-7 0-7h-16c-5 0-5 7 0 7z" fill="#fff"/><path d="M268 286h6c2 0 4-1 4-3s-2-4-4-4h-6c-2 0-3 2-3 4s1 3 3 3zm19 6h2c2 0 3-1 3-3s-1-4-3-4h-2c-2 0-4 2-4 4s2 3 4 3zm-19-20h-6c-2 0-4 1-4 3s2 4 4 4h6c2 0 3-2 3-4s-1-3-3-3zm21-14h-12c-4 0-4 7 0 7h12c4 0 4-7 0-7zm-4 8h-7c-4 0-4 7 0 7h7c4 0 4-7 0-7z" fill="#fff"/><path d="M288 252h-6c-2 0-3 2-3 4s1 3 3 3h6c2 0 4-1 4-3s-2-4-4-4z" fill="#fff"/><path d="M284 250h-6c-2 0-3 2-3 3s1 4 3 4h6c2 0 4-2 4-4s-2-3-4-3zm4 20h-1c-2 0-3 2-3 4s1 3 3 3h1c2 0 3-1 3-3s-1-4-3-4zM74 283h7c4 0 4-7 0-7h-7c-5 0-5 7 0 7zm26-3h8c5 0 5-7 0-7h-8c-4 0-4 7 0 7zm22 12h6c2 0 4-2 4-3s-2-4-4-4h-6c-2 0-3 2-3 4s1 3 3 3zm124-8h-9c-4 0-4 7 0 7h9c5 0 5-7 0-7zm13-9h-16c-4 0-4 7 0 7h16c5 0 5-7 0-7zM80 250h-6c-2 0-4 2-4 4s2 3 4 3h6c2 0 3-2 3-3s-1-4-3-4zm-3 23h2c2 0 3-1 3-3s-1-4-3-4h-2c-2 0-4 2-4 4s2 3 4 3z" fill="#fff"/><path d="M94 277h-2c-2 0-4 1-4 3s2 4 4 4h2c2 0 3-2 3-4s-1-3-3-3zm102 8h-6c-2 0-3 2-3 4s1 3 3 3h6c2 0 4-1 4-3s-2-4-4-4zM88 264h-5c-2 0-4 2-4 4s2 3 4 3h5c2 0 4-1 4-3s-2-4-4-4zm118 28h16c5 0 5-7 0-7h-16c-4 0-4 7 0 7zm16-14h6c2 0 3-2 3-4s-2-3-3-3h-6c-2 0-4 1-4 3s2 4 4 4z" fill="#fff"/><path d="M215 288h2c2 0 4-1 4-3s-2-4-4-4h-2c-2 0-3 2-3 4s1 3 3 3zm19-9h-6c-2 0-4 2-4 3s2 4 4 4h6c2 0 3-2 3-4s-1-3-3-3zm-98-7h-9c-5 0-5 7 0 7h9c5 0 5-7 0-7zm17 0h-6c-2 0-4 2-4 4s2 3 4 3h6c1 0 3-1 3-3s-2-4-3-4zm-8 20h6c2 0 4-1 4-3s-2-4-4-4h-6c-2 0-3 2-3 4s1 3 3 3zm-59 0h15c5 0 5-7 0-7H86c-4 0-4 7 0 7zm92-15h9c5 0 5-7 0-7h-9c-4 0-4 7 0 7zm-18 15h16c4 0 4-7 0-7h-16c-5 0-5 7 0 7z" fill="#fff"/><path d="M155 284h6c2 0 4-1 4-3s-2-4-4-4h-6c-2 0-3 2-3 4s1 3 3 3zm18 4h2c2 0 4-2 4-4s-2-3-4-3h-2c-2 0-3 1-3 3s1 4 3 4zm38-20h-12c-4 0-4 7 0 7h12c4 0 4-7 0-7zm-19 11h-6c-2 0-3 1-3 3s1 4 3 4h6c2 0 4-2 4-4s-2-3-4-3z" fill="#fff"/><path d="M147 280h16c5 0 5-7 0-7h-16c-5 0-5 7 0 7zm-29-4h-9c-4 0-4 7 0 7h9c5 0 5-7 0-7zm-31 5h-5c-2 0-4 2-4 4s2 3 4 3h5c2 0 4-1 4-3s-2-4-4-4zm56 1h-2c-2 0-3 2-3 4s1 3 3 3h2c2 0 4-1 4-3s-2-4-4-4z" fill="#fff"/><path d="M147 272h-2c-2 0-4 2-4 4s2 3 4 3h2c2 0 3-2 3-3s-1-4-3-4zm-42 20h6c2 0 3-2 3-4s-1-3-3-3h-6c-2 0-3 1-3 3s1 4 3 4zm-32-1h2c2 0 4-2 4-4s-2-3-4-3h-2c-2 0-3 1-3 3s2 4 3 4zm20-9h2c2 0 3-1 3-3s-1-4-3-4h-2c-2 0-4 2-4 4s2 3 4 3z" fill="#fff"/><path d="M104 273h-6c-2 0-3 2-3 4s2 3 3 3h6c2 0 3-1 3-3s-1-4-3-4zm147 11h2c2 0 3-2 3-4s-1-3-3-3h-2c-2 0-4 1-4 3s2 4 4 4zm-39-11h-12c-4 0-4 7 0 7h12c4 0 4-7 0-7zM83 256H73c-4 0-4 7 0 7h10c5 0 5-7 0-7zm58 25h-12c-4 0-4 7 0 7h12c4 0 4-7 0-7z" fill="#fff"/><path d="M75 248h9c4 0 3 4 3 7l1 10c1 6 7 9 12 9h158c8 0 15-2 17-10v-13c0-4 9-3 12-3 6 0 6-10 0-10-8 0-16-1-21 7l-1 10c0 3 1 9-3 9H100c-4 0-3-7-3-10 0-6-2-12-8-15-4-2-9-1-14-1-6 0-6 10 0 10zm104-93v19c0 2 3 2 3 0v-19c0-2-3-2-3 0zm9-26l1-7c0-2-3-3-3-1l-1 7c0 2 3 3 3 1zm-2 19l1-12c0-2-3-2-3 0l-1 12c0 2 3 2 3 0zm5-31h3l-1-2v-1l-2 1v2zm2 4v1a2 2 0 0 0 2 1 2 2 0 0 0 1-2v-1a2 2 0 0 0-2-1 2 2 0 0 0-1 2z" fill="#fff"/><path d="M190 117l1-1c1-1-2-3-3-1v1c-1 2 1 3 2 1zm-15 11l-1-6c0-2-3-2-3 0l1 7c1 2 3 1 3-1zm2 20l-1-12c0-2-3-2-3 0l1 12c1 2 4 2 3 0zm-10-34l-1 2 2 1h1v-2l-2-1zm-3 6v1l1 2 2-1v-1a2 2 0 0 0-1-2l-2 1z" fill="#fff"/><path d="M172 116v-1c-1-2-4 0-3 2l1 1c1 1 3 0 2-2zM96 250h171c2 0 2-3 0-3H96c-2 0-2 3 0 3z" fill="#fff"/></svg>