<svg xmlns="http://www.w3.org/2000/svg" width="361" height="361"><path d="M273 273s2 13-32 13H120c-34 0-32-13-32-13h185z" fill="none" stroke="#fff" stroke-width="10" stroke-linecap="round" stroke-linejoin="round" stroke-miterlimit="10"/><path d="M246 216a43 43 0 0 1-43 43h-43a43 43 0 0 1-44-43v-61c0-24 2-21 26-21h79c23 0 25-3 25 21v61zm24-62a17 17 0 0 1 17 17v16a17 17 0 0 1-17 17h-14c-9 0-9-1-9-10v-30c0-10 0-10 9-10h14z" fill="none" stroke="#fff" stroke-width="10" stroke-miterlimit="10"/><path d="M180 76c2 2 4 7 3 12 0 3-3 6-4 8-6 8-7 15-3 24 2 4 8 0 6-4-4-10 3-15 7-23 3-8 0-16-5-22-2-4-7 1-5 5zm18 4a17 17 0 0 1 4 9l-2 7-2 2a20 20 0 0 0-3 21c2 5 8 1 6-3-3-8 3-13 6-19 3-7 1-14-3-20-3-4-9 0-6 3zm-39 0a17 17 0 0 1 4 9 15 15 0 0 1-2 7l-1 2a20 20 0 0 0-3 21c2 5 8 1 6-3-4-8 2-13 5-19 3-7 2-14-3-20-2-4-9 0-6 3z" fill="#fff"/></svg>