<svg xmlns="http://www.w3.org/2000/svg" width="361" height="361"><path d="M179.3 163v19c0 1.9 3 1.9 3 0v-19c0-2-3-2-3 0zm18.2 0l2.3-6.5c.7-1.8-2.2-2.6-2.9-.8l-2.3 6.6c-.6 1.8 2.3 2.6 3 .8zm-5.2 19.1l2.4-11.8c.3-1.9-2.5-2.7-3-.8l-2.3 11.8c-.3 2 2.6 2.7 3 .8zm16.5-31l1.4.5a1.5 1.5 0 0 0 1.9-1 1.5 1.5 0 0 0-1-2l-1.5-.3a1.5 1.5 0 0 0-1.9 1c-.2.8.3 1.7 1 1.9zm4.8 4.4l.7 1c.5.6 1.3 1 2 .5.7-.4 1-1.4.6-2a631.4 631.4 0 0 0-.7-1c-.5-.7-1.3-1-2.1-.6-.6.4-1 1.4-.5 2zm-10.6-3.2l1.3-.9c.7-.4 1-1.3.5-2-.4-.7-1.3-1-2-.6l-1.3 1c-.7.4-1 1.2-.6 2 .4.7 1.4 1 2 .5zm-35.7 10l-2.3-6.6c-.6-1.8-3.5-1-3 .8l2.4 6.6c.6 1.8 3.5 1 2.9-.8zm5.2 19l-2.3-11.8c-.4-1.9-3.3-1-3 .8l2.4 11.8c.4 2 3.3 1.1 2.9-.8zm-20.1-33l-1.5.4a1.5 1.5 0 0 0-1 1.8 1.5 1.5 0 0 0 1.8 1l1.5-.3a1.5 1.5 0 0 0 1-1.9 1.5 1.5 0 0 0-1.8-1zm-6.6 5.6l-.8 1c-.4.7 0 1.7.6 2 .7.5 1.6.2 2-.4l.8-1c.5-.7 0-1.7-.6-2.1-.7-.4-1.5-.1-2 .5zm14.7-4.2l-1.4-.9c-.6-.4-1.6 0-2 .6-.4.7-.1 1.6.5 2l1.3 1c.7.4 1.7 0 2-.6.5-.7.2-1.6-.4-2z" fill="#fff"/><g fill="#fff"><path d="M188.6 137l1-6.9c.2-1.9-2.7-2.7-3-.8l-1 6.8c-.2 2 2.7 2.7 3 .8zm-2.1 19.2l1-12.2c0-2-3-1.9-3 0l-1 12.2c-.2 2 2.8 2 3 0zm5.4-31.7l.6.4c.7.5 1.6.1 2-.5.5-.8.2-1.6-.5-2l-.6-.5c-.7-.5-1.7-.1-2 .5-.5.8-.2 1.6.5 2.1zm1.7 4.2l.3 1a1.5 1.5 0 0 0 1.8 1.1 1.5 1.5 0 0 0 1-1.9l-.2-1a1.5 1.5 0 0 0-1.9-1 1.5 1.5 0 0 0-1 1.8z"/><path d="M191 125.3l.6-1c1-1.6-1.7-3.1-2.6-1.4l-.6.9c-1 1.7 1.6 3.2 2.6 1.5z"/></g><g fill="#fff"><path d="M175.9 136.1l-1-6.8c-.2-1.9-3.1-1-2.9.8l1 6.8c.3 2 3.2 1.1 2.9-.8zm2.2 20.1l-1-12.2c-.1-1.9-3.1-2-3 0l1 12.2c.2 2 3.2 2 3 0zm-9.9-34.3l-.6.4c-.7.5-1 1.3-.5 2 .4.7 1.3 1 2 .6l.6-.4c.7-.5 1-1.3.6-2s-1.4-1-2-.6zm-3 6l-.4 1c-.2.8.3 1.7 1 1.9.9.2 1.7-.3 2-1l.2-1a1.5 1.5 0 0 0-1-2c-.8-.2-1.6.3-1.9 1.1z"/><path d="M173.2 123.8l-.6-1c-1-1.6-3.6-.1-2.6 1.6l.6.9c1 1.7 3.5.2 2.6-1.5z"/></g><path d="M281.6 276.8c-.5 6.5-12.7 4.4-17 4.4H96.8c-3.9 0-16.4 2-16.4-4.4v-38c0-4.8-.7-10.1 5.8-10.1h184c4 0 11-1.3 11.4 4.3 1 14.5 0 29.3 0 43.8 0 6.4 10 6.4 10 0v-37.3c0-6.4.2-12.1-4.7-17-5.3-5.4-14.7-3.8-21.5-3.8H102.7c-6.4 0-12.9-.4-19.3 0-8.8.7-13 8.6-13 16.6v40.1c0 8.3 5.6 15.8 14.4 15.8H277c8.3 0 14-6.4 14.6-14.4.4-6.4-9.6-6.4-10 0z" fill="#fff"/><path d="M251.3 218.5c-.6-7.3-5.7-13-13.3-13h-12.5l5 5c0-10.4-6.9-15.6-16.8-15.6h-21.6l5 5c-1.8-18.5-31.4-18.5-33.1 0l5-5h-20.1c-9.8 0-16.3 5.5-16.3 15.6l5-5h-12.8c-7.7 0-12.8 5.7-13.4 13-.5 6.5 9.5 6.4 10 0 .4-5 12.7-3 16.2-3a5 5 0 0 0 5-5c0-7 6-5.6 11.2-5.6H169c2.9 0 4.7-2.3 5-5 .5-5.4 12.6-5.4 13.1 0 .3 2.7 2 5 5 5h15.7c5.4 0 12.7-1.8 12.7 5.6a5 5 0 0 0 5 5c3.5 0 15.4-2 15.8 3 .5 6.4 10.5 6.5 10 0z" fill="#fff"/></svg>