<svg xmlns="http://www.w3.org/2000/svg" width="361" height="361"><path d="M287 263c0 1-3 3-6 3H81c-4 0-6-2-6-3v-17c0-2 2-3 6-3h200c3 0 6 1 6 3v17z" fill="#fff" stroke="#fff" stroke-width="10" stroke-miterlimit="10"/><path d="M214 239c0 3-3 6-6 6H88c-3 0-6-3-6-6v-25c0-3 3-6 6-6h120c3 0 6 3 6 6v25zm21 3a6 6 0 0 0 6 6h31a6 6 0 0 0 6-6v-16a6 6 0 0 0-6-6h-31a6 6 0 0 0-6 6v16z" fill="#fff" stroke="#fff" stroke-width="10" stroke-miterlimit="10"/><path d="M70 222v65c0 6 10 6 10 0v-65c0-6-10-6-10 0zm212-27v93c0 6 10 6 10 0v-93c0-7-10-7-10 0zM83 141a41 41 0 0 1 15-56c4-2 0-8-3-6a49 49 0 0 0-18 65c2 4 8 1 6-3z" fill="#fff"/><path d="M138 156a41 41 0 0 1-55-16c-3-3-9 0-6 4a49 49 0 0 0 65 18c4-3 0-9-4-6zm-44-23a52 52 0 0 1-5-25c0-8 2-18 9-23 4-2 0-9-4-6-17 11-15 42-6 58 2 4 8 0 6-4z" fill="#fff"/><path d="M138 156c-7 4-17 0-24-4a54 54 0 0 1-20-19c-2-4-8 0-6 4 9 15 35 35 54 25 4-2 0-9-4-6z" fill="#fff"/><path d="M120 96a2 2 0 1 1-3 0 2 2 0 0 1 3 0zm12-23a3 3 0 0 1-6 0 3 3 0 0 1 6 0zm12 24a3 3 0 0 1-2 3h-1a3 3 0 0 1-2-3v-1a3 3 0 0 1 2-2h1a3 3 0 0 1 2 3z" fill="#fff" stroke="#fff" stroke-miterlimit="10"/><path d="M189 139c0 2-2 4-4 4h-30c-3 0-4-2-4-4v-31c0-3 1-5 4-5h30c2 0 4 2 4 5v31z" fill="#fff" stroke="#fff" stroke-width="10" stroke-miterlimit="10"/><path d="M132 128a4 4 0 0 0 4 5h20a4 4 0 0 0 4-5v-12a4 4 0 0 0-4-4h-20a4 4 0 0 0-4 4v12z" fill="#fff" stroke="#fff" stroke-width="10" stroke-miterlimit="10"/><path d="M123 128a4 4 0 0 1 4-4h25a4 4 0 0 1 4 4v7a4 4 0 0 1-4 5h-25a4 4 0 0 1-4-5v-7zm51 7a4 4 0 0 0 4 5h21a4 4 0 0 0 4-5v-12a4 4 0 0 0-4-4h-21a4 4 0 0 0-4 4v12z" fill="#fff" stroke="#fff" stroke-width="10" stroke-miterlimit="10"/></svg>