<svg xmlns="http://www.w3.org/2000/svg" width="361" height="361"><circle cx="245" cy="131" r="21" fill="#fff" stroke="#fff"/><path d="M251 175c-2-4-1-9 2-10l2-1c3-1 7 1 9 6l27 63c2 5 1 9-2 10l-3 2c-3 1-7-2-9-6l-26-64zm-101 51l-42 45c-10 10 6 26 16 16l42-45c10-10-6-26-16-16z" fill="#fff"/><path d="M164 229l-21 44c-2 5-1 12 4 15s13 1 16-4l21-44c3-6 1-12-4-16-5-2-13-1-16 5z" fill="#fff"/><path d="M255 160c-9-6-23-3-29 7l-23 47-4 8h-41c-13 1-13 23 0 23h76l29-57c5-10 2-22-8-28z" fill="#fff"/><path fill="none" d="M199 238h41v11h-41z"/><path d="M287 249h-97c-6 0-6 10 0 10h97c6 0 6-10 0-10z" fill="#fff"/><g fill="#fff"><path d="M155 177a56 56 0 0 0-23 0l-19 3c-6 1-12-2-18-3a58 58 0 0 0-23 0c-2 0-1 3 0 3 9-2 16-1 24 0 6 2 11 3 17 3 6 1 11-1 17-2a56 56 0 0 1 24-1c2 0 3-3 1-3z"/><path d="M135 180c8-2 15-1 23 1l18 2c5 1 11-1 16-2a56 56 0 0 1 24-1c2 0 3-3 1-3a56 56 0 0 0-22 0l-19 3c-6 1-13-2-19-3-8-1-15-2-23 0-2 0-1 3 1 3z"/><path d="M197 180l10-2c2 0 2-3 0-3a63 63 0 0 0-11 2c-2 0-1 3 1 3z"/></g><path d="M291 177a40 40 0 0 0-20 0c-2 0-1 3 1 3 6-2 12-2 18 0 2 0 2-3 1-3zM82 207c-1 3-9 3-9 0v-21c0-2 9-2 9 0v21c0 2 3 2 3 0v-20c0-7-13-8-15-1v21c0 7 13 7 15 1 0-2-3-3-3-1z" fill="#fff"/><path d="M85 198h7c2 0 2-3 0-3h-7c-2 0-2 3 0 3zm11 0h5c2 0 2-3 0-3h-5c-2 0-2 3 0 3zm10 0h5c2 0 2-3 0-3h-5c-2 0-2 3 0 3zm10 0h5c2 0 2-3 0-3h-5c-2 0-2 3 0 3zm10 0h5c2 0 2-3 0-3h-5c-2 0-2 3 0 3zm11 0h3c2 0 2-3 0-3h-3c-2 0-2 3 0 3zm10 0h3c2 0 2-3 0-3h-3c-2 0-2 3 0 3zm10 0h3l1-2-1-1h-3l-1 1 1 2zm10 0h3c2 0 2-3 0-3h-3c-2 0-2 3 0 3zm-84-4h5c2 0 2-3 0-3h-5c-2 0-2 3 0 3zm9 0l6-1v-3l-6 1c-2 0-2 3 0 3zm10-1h5c2-1 2-4 0-3h-5c-2 0-2 3 0 3zm10-1h5c2 0 2-3 0-3h-5c-2 0-2 3 0 3zm10 0l5-1c2 0 2-3 0-3l-5 1c-2 0-2 3 0 3zm11-1h3l2-2-2-1h-3l-2 1 2 2zm10-1h3l1-2-1-1h-3l-2 2 2 1zm10-1h3l1-1-1-2h-3l-1 2 1 1zm10 0h2l2-2c0-1-1-2-2-1h-2l-1 1 1 2zm-80 12h5c2 0 2-3 0-3h-5c-2 0-2 3 0 3zm9 0l5 1c2 0 2-3 0-3l-5-1c-2 0-2 3 0 3zm10 1h5c2 1 2-2 0-3h-5c-2 0-2 3 0 3zm10 1h5c2 0 2-3 0-3h-5c-2 0-2 3 0 3zm10 1h5c2 0 2-3 0-3h-5c-2-1-2 2 0 3zm11 0h3c1 1 2 0 2-1l-2-2h-3l-2 2 2 1zm10 1h3l1-1-1-2h-3l-2 1 2 2zm10 1h3l1-2-1-1h-3l-1 1 1 2zm10 0h2l2-1-2-2h-2l-1 2 1 1zm-81 66c-1 3-9 3-9 1v-21c0-3 9-3 9 0v21c0 2 3 2 3 0v-21c0-7-13-7-15-1v21c0 7 13 7 15 1 0-2-3-3-3-1z" fill="#fff"/><path d="M85 263h7c2 0 2-3 0-3h-7c-2 0-2 3 0 3zm11 0h6c2 0 2-3 0-3h-6c-2 0-2 3 0 3zm10 0h5c2 0 2-3 0-3h-5c-2 0-2 3 0 3zm10 0h5c2 0 2-3 0-3h-5c-2 0-2 3 0 3zm11 0h4c2 0 2-3 0-3h-5c-2 0-2 3 0 3zm10 0h3c2 0 2-3 1-3h-4c-2 0-2 3 0 3zm10 0h3c2 0 2-3 0-3h-3c-2 0-2 3 0 3zm10 0h3l1-1-1-2h-3l-1 2 1 1zm11 0h2c2 0 2-3 0-3h-3c-1 0-1 3 1 3zm-84-3l4-1c2 0 2-3 0-3l-4 1c-2 0-2 3 0 3zm8-1h6v-3h-6c-2 0-2 3 0 3zm10-1h5c2 0 2-3 0-3h-5c-2 1-2 4 0 3zm10 0l5-1c2 0 2-3 0-3l-5 1c-2 0-2 3 0 3zm11-1h4c2-1 2-4 0-3h-4c-2 0-2 3 0 3zm-39 9h4c2 1 2-2 0-2a5421 5421 0 0 0-4-1c-2 0-2 3 0 3zm8 1h6v-3h-6c-2 0-2 3 0 3zm10 1h5c2 0 2-3 0-3l-5-1c-2 0-2 3 0 4zm10 0h5c2 1 2-2 0-2l-5-1c-2 0-2 3 0 3zm31 2l3 1 2-2-2-1-3-1-2 2 2 1zm20 2h3l1-2-1-1h-3l-1 1 1 2z" fill="#fff"/></svg>