<svg xmlns="http://www.w3.org/2000/svg" width="361" height="361"><path d="M143 215v72c0 7 10 7 10 0v-72c0-6-10-6-10 0zm16 0v72c0 7 10 7 10 0v-72c0-6-10-6-10 0zm15 0v72c0 7 10 7 10 0v-72c0-6-10-6-10 0zm15 0v72c0 7 10 7 10 0v-72c0-6-10-6-10 0zm15 0v72c0 7 10 7 10 0v-72c0-6-10-6-10 0zm15 0v72c0 7 10 7 10 0v-72c0-6-10-6-10 0zm15 0v72c0 7 10 7 10 0v-72c0-6-10-6-10 0zm15 0v72c0 7 10 7 10 0v-72c0-6-10-6-10 0zm16 0v72c0 7 10 7 10 0v-72c0-6-10-6-10 0z" fill="#fff"/><path d="M143 234h135c7 0 7-10 0-10H143c-7 0-7 10 0 10zm-1 44h137c6 0 6-10 0-10H142c-6 0-6 10 0 10zm-23 9c0 2-1 4-3 4h-9c-2 0-3-2-3-4V175c0-2 1-4 3-4h9c2 0 3 2 3 4v112z" fill="#fff"/><path d="M118 211l23-28c4-5-3-12-7-7l-23 28c-4 5 3 12 7 7zm50-50c0 3-2 5-4 5h-60a5 5 0 0 1-5-5v-31c0-2 2-4 5-4h60a5 5 0 0 1 4 4v31z" fill="#fff"/><path d="M160 139a4 4 0 0 1-4 4h-48a4 4 0 0 1-4-4v-22a4 4 0 0 1 4-4h48a4 4 0 0 1 4 4v22z" fill="#fff"/><path d="M133 134l-4 2H96c-2 0-3-1-3-2v-32c0-1 1-3 3-3h33c2 0 4 2 4 3v32z" fill="#fff"/><path d="M149 123a6 6 0 0 1-6 6h-10a6 6 0 0 1-6-6v-20a6 6 0 0 1 6-6h10a6 6 0 0 1 6 6v20zm-35 41a6 6 0 0 1-6 6H92a6 6 0 0 1-6-6v-15a6 6 0 0 1 6-6h16a6 6 0 0 1 6 6v15zm-7-31c0 3-4 6-8 6H86c-5 0-8-3-8-6v-23c0-3 3-6 8-6h13c4 0 8 3 8 6v23z" fill="#fff"/><path d="M92 161a6 6 0 0 1-6 6H76a6 6 0 0 1-6-6v-41a6 6 0 0 1 6-6h10a6 6 0 0 1 6 6v41z" fill="#fff"/><path d="M160 175a6 6 0 0 1-6 6H84a6 6 0 0 1-6-6v-8a6 6 0 0 1 6-6h70a6 6 0 0 1 6 6v8z" fill="#fff"/><path d="M113 181a5 5 0 0 1-5 4H96a5 5 0 0 1-4-4 5 5 0 0 1 4-5h12a5 5 0 0 1 5 5zm145-44l9-12c2-2 2-5 0-7s-5-2-7 0l-10 12c-1 2-2 5 0 7s6 2 7 0z" fill="#fff"/><path d="M264 125l15-1c3-1 5-2 5-5s-2-6-5-5l-15 1c-3 0-5 2-5 5s2 5 5 5zm-9 4l-15-3c-6-2-9 8-3 9l15 4c6 1 9-9 3-10z" fill="#fff"/><path d="M235 125l-13 9c-6 3-1 12 5 8l13-8c5-3 0-12-5-9z" fill="#fff"/></svg>