<svg xmlns="http://www.w3.org/2000/svg" width="361" height="361"><path d="M234 276c-1 6-6 5-10 5h-92c-3-2-3-6-3-9V168c0-6-2-18 6-18h80c6 0 19-2 19 6v120c0 7 10 7 10 0V156c0-9-7-16-15-16h-91c-5 0-9 0-13 4-8 6-6 17-6 26v90c0 8-2 20 4 26 7 8 20 6 30 6h74c9 0 16-6 17-16 0-6-10-6-10 0z" fill="#fff"/><path d="M218 161v39c0 4 7 4 7 0v-39c0-4-7-4-7 0zm16-26c-1 6-6 6-10 6h-83l-9-1c-4-2-3-10-3-14V85c0-5 4-6 8-6h91c6 0 6 6 6 10v46c0 7 10 7 10 0V84c0-8-7-15-16-15h-78c-10 0-24-2-29 9-2 4-2 10-2 15v41c0 9 6 16 15 17h93c9 0 16-6 17-16 0-6-10-6-10 0z" fill="#fff"/><path d="M218 90v39c0 5 7 5 7 0V91c0-5-7-5-7 0zm-41 100v33c0 5 7 5 7 0v-33c0-4-7-4-7 0z" fill="#fff"/><path d="M169 197l9 5c4 2 8-4 4-6l-10-6c-4-2-7 4-3 7z" fill="#fff"/><path d="M188 190l-10 6c-4 2 0 8 4 6l9-5c4-3 1-9-3-6zm-38 19l28 17c4 2 8-4 4-6l-29-17c-4-2-7 4-3 6z" fill="#fff"/><path d="M151 219l10-5c4-2 0-9-4-6l-9 5c-4 3-1 9 3 6z" fill="#fff"/><path d="M156 200v11c0 5 7 5 7 0v-11c0-5-7-5-7 0z" fill="#fff"/><g fill="#fff"><path d="M153 242l29-16c4-2 0-8-4-6l-28 16c-4 3-1 9 3 6z"/><path d="M163 246v-11c0-5-7-5-7 0v11c0 5 7 5 7 0z"/><path d="M148 232l10 6c3 2 7-4 3-6l-10-6c-4-2-7 4-3 6z"/></g><g fill="#fff"><path d="M184 256v-33c0-5-7-5-7 0v33c0 5 7 5 7 0z"/><path d="M192 250l-10-6c-4-2-8 4-4 6l10 6c4 2 7-4 4-6z"/><path d="M172 256l10-6c4-2 0-8-3-6l-10 6c-4 2-1 8 3 6z"/></g><g fill="#fff"><path d="M211 237l-29-17c-4-2-7 4-4 6l29 17c4 2 7-4 4-6z"/><path d="M209 227l-10 5c-4 2 0 8 4 6l10-5c4-3 0-9-4-6z"/><path d="M205 246v-11c0-5-7-5-7 0v11c0 5 7 5 7 0z"/></g><g fill="#fff"><path d="M207 204l-29 16c-4 2 0 8 4 6l29-16c4-3 0-9-4-6z"/><path d="M198 200v11c0 5 7 5 7 0v-11c0-5-7-5-7 0z"/><path d="M212 213l-9-5c-4-2-8 4-4 6l10 6c4 2 7-4 3-6z"/></g></svg>