<svg xmlns="http://www.w3.org/2000/svg" width="361" height="361"><path d="M275 153l-2 2a44 44 0 0 1-6 6 62 62 0 0 1-22 10c-9 3-19 4-28 2-5 0-12-2-14-7-1-4 7-9 10-10 8-5 17-7 26-7 8-1 16 0 24 1a43 43 0 0 1 9 3l3 1v-1c-2 6 8 9 9 3 4-17-31-17-40-17a85 85 0 0 0-34 7c-7 3-16 9-17 18-1 22 33 20 46 19a72 72 0 0 0 32-13 36 36 0 0 0 13-14c3-6-7-9-9-3z" fill="#fff"/><path d="M185 193c0-13 18-20 27-23a205 205 0 0 1 66-11c7 0 7-10 0-10a208 208 0 0 0-73 13c-13 6-30 15-30 31 0 6 10 6 10 0zm-91-70l1-1 3-1a48 48 0 0 1 9-2c9-1 18 0 27 3a71 71 0 0 1 22 10c3 2 7 6 6 10-1 5-10 4-13 4a69 69 0 0 1-25-5 98 98 0 0 1-20-12 48 48 0 0 1-7-5 14 14 0 0 1-2-3c-1-1 0 1-1 2 4-5-3-12-7-7-15 17 64 58 83 33 11-16-14-29-25-34a78 78 0 0 0-37-6c-7 1-15 2-21 7-5 4 2 11 7 7z" fill="#fff"/><path d="M184 163c0-13-15-22-25-27a227 227 0 0 0-59-18c-7-1-9 8-3 9 18 4 35 8 51 15 6 3 13 6 19 11 3 2 7 6 7 10 0 7 10 7 10 0zm5-85c4 4 2 13 1 18-1 3-6 16-10 15-3 0 2-15 3-17a49 49 0 0 1 6-10 33 33 0 0 1 3-4c2-2 1 1-2-1 5 4 12-4 7-8-9-6-17 7-21 14-5 9-11 25-3 33 9 9 19-3 23-10a46 46 0 0 0 5-21c0-4 0-11-3-15-4-5-13 0-9 5z" fill="#fff"/><path d="M174 119v86c0 7 10 7 10 0v-86c0-6-10-6-10 0zm45 102l-5 35-3 19v4c0 3-3 2-4 2h-55c-3 0-3-10-3-12l-7-48-5 7h87c7 0 7-10 0-10h-87c-4 0-6 3-5 6l5 35 3 19c1 7 4 13 12 13h36c10 0 30 4 33-10l8-57c1-6-9-9-10-3z" fill="#fff"/><path d="M230 214c0 4-6 3-9 3h-86c-5 0-5-6 0-6h87c3 0 7-1 8 3 0 6 10 6 10 0-1-8-7-13-15-13h-90c-11 0-16 10-12 19 2 6 9 7 14 7h89c8 0 13-6 14-13 0-6-10-6-10 0z" fill="#fff"/></svg>