<svg xmlns="http://www.w3.org/2000/svg" width="361" height="361"><path d="M165 257l-66-14c-5-1-7 2-8 6l-4 16c-1 7 6 8 11 9 6 1 13 5 16-2l-1 1 25 5-1-1c0 7 7 7 12 8 4 1 11 4 14 0l4-14c1-5 4-12-2-14-2-1-3 2-1 3 4 1-1 16-2 19-1 6-6 4-11 3-3 0-11 0-11-5l-1-2-25-5-2 1c-2 5-13 0-17-1-3-1-5-3-4-7l1-4c0-2 1-14 5-14l8 2 59 13c2 0 2-3 1-3z" fill="#fff"/><path d="M121 266l4 1 2-1-1-2-4-1-2 1 1 2zm8 2l4 1 2-1-1-2-4-1-2 1 1 2zm16-4h1-1s-1 0 0 0c0 0 0 1 0 0h-1 2s0 1 0 0h-1c0 2 3 3 3 1v-2a3 3 0 0 0-2-1 508 508 0 0 0-1-1 3 3 0 0 0-3 2c0 2 0 3 2 4h1c2 0 3 0 3-2 1-2-2-2-3-1zm10 2h1-2l1 1s1 0 0 0v-1c0 3 3 3 3 1v-2a3 3 0 0 0-2-1 508 508 0 0 0-1-1 3 3 0 0 0-3 2c-1 2 0 3 2 4h1c1 0 3 0 3-2 1-1-2-2-3 0zm-9 7s0-1 0 0l-1-1v1-1l-1 1h2v-1 1c-1 2 2 3 3 1v-3a3 3 0 0 0-2-1h-2a3 3 0 0 0-3 1l2 4h2c1 1 2 0 3-1 0-2-3-3-3-1zm10 2l-1-1s-1 0 0 0v1-1l-1 1h2s0-1 0 0c-1 2 2 3 2 1v-3a3 3 0 0 0-2-1h-1a3 3 0 0 0-3 2c0 1 0 3 2 3h1c2 1 3 0 3-1 1-2-2-3-3-1zm-23-24c2-10-5-17-14-20-2 0-3 3-1 3 7 2 13 8 12 16-1 2 2 3 3 1zm-22 6l-3-1 1 2c1-3 2-6-2-7s-5 2-6 5l2-1c-3 0-6-1-7 3s2 4 5 5l-1-2c0 3-1 6 3 7s5-2 5-5l-2 1c3 1 5 2 7-1 1-2 1-5-2-6-2-1-3 2-1 3v2l-3-1-2 1c0 1 0 4-1 3-2 0-1-2-1-3l-1-2-3-1c1-2 2-1 3-1l2-1c0-1 0-3 2-3s1 2 0 3l1 2 3 1c2 0 3-3 1-3z" fill="#fff"/><g fill="#fff"><path d="M225 290c2 2 3 2 5 2l36-4 4-1 21-20c2-2 1-4-3-4l-75 8c-3 0-4 2-2 4l14 15zm28-26l35-3c1 0 2-2 1-3l-40-44c-1-1-3 0-2 1l5 48c0 2 3 2 3 0l-5-48-3 1 39 44 1-2-34 3c-2 1-2 4 0 3z"/><path d="M239 213l5 52c1 4 8 4 7 0l-5-52c-1-4-8-4-7 0zm3 50l-20 2 1 2 15-50h-3l5 47c0 2 3 2 3 0l-5-47c0-2-2-2-3-1l-14 50c-1 1 0 2 1 2l20-2v-3z"/></g><g fill="#fff"><path d="M79 192c0 1 2 3 4 3h130c2 0 4-1 4-3v-14c0-2-2-3-4-3H83c-2 0-4 1-4 3v14z" stroke="#fff" stroke-width="10" stroke-miterlimit="10"/><path d="M124 173a4 4 0 0 0 4 4h76a4 4 0 0 0 4-4v-18a4 4 0 0 0-4-4h-76a4 4 0 0 0-4 4v18z" stroke="#fff" stroke-width="10" stroke-miterlimit="10"/><path d="M213 141v72c0 6 10 6 10 0v-72c0-6-10-6-10 0zm-143-6v78c0 7 10 7 10 0v-78c0-7-10-7-10 0z"/><path d="M84 167l2 2h24l1-2v-6l-1-1H86l-2 1v6z" stroke="#fff" stroke-width="10" stroke-miterlimit="10"/></g><path d="M195 77h94c4 0 4-7 0-7h-94c-5 0-5 7 0 7z" fill="#fff"/><path fill="none" stroke="#fff" stroke-width="7" stroke-miterlimit="10" d="M280 153h-85m47-66v64"/><path d="M239 113h7c4 0 4-7 0-7h-7c-4 0-4 7 0 7zm38-37c0 4-9 6-12 6a104 104 0 0 1-46 1c-3-1-12-3-12-7l-2 1h74c2 0 2-3 0-3h-74l-1 2c0 5 5 7 9 8 9 3 20 4 29 4 10 0 20-1 29-4 4-1 9-3 10-8 0-2-3-2-3 0z" fill="#fff"/><path d="M193 78h10c2 2 2 6 2 8v11l-1 25c-1 5-4 17-11 17l2 2a9991 9991 0 0 1 0-65c0-2-3-2-3 0a9991 9991 0 0 0 0 65l1 1c7 0 10-8 12-14 4-10 3-21 3-31V83l-2-7c-3-3-9-1-13-1-2-1-2 2 0 3zm97-4c-3 0-9-1-12 2l-2 7v13c0 11 0 22 3 32 1 6 5 13 11 14l2-2a9991 9991 0 0 0 0-64c0-2-3-2-3 0a9991 9991 0 0 1 0 64l2-1c-7-1-10-12-11-18-2-8-1-16-1-25 0-5-1-13 1-18l10-1c2 0 2-3 0-3z" fill="#fff"/><path d="M291 184h-10l-2-1v-5a92 92 0 0 1 2-23c1-4 4-12 9-13l-1-1v45c0 2 3 2 3 0v-45l-1-1c-6 0-9 5-11 10a77 77 0 0 0-4 28c0 3-1 8 3 9h12v-3zm-98 3h12c4-1 3-6 3-9 0-10 0-19-4-29-2-4-5-9-11-9l-1 1v45c0 2 3 2 3 0v-45l-2 2c6 0 8 8 10 13 2 7 2 14 2 22v5l-2 1h-10c-2 0-2 3 0 3z" fill="#fff"/></svg>