<svg xmlns="http://www.w3.org/2000/svg" width="361" height="361"><path d="M159 166.7h9.9c1.9 0 1.9-3 0-3h-10c-1.9 0-1.9 3 0 3zm0-14h9.9c1.9 0 1.9-3 0-3h-10c-1.9 0-1.9 3 0 3zm0-6.9h9.9c1.9 0 1.9-3 0-3h-10c-1.9 0-1.9 3 0 3zm0 14h9.9c1.9 0 1.9-3 0-3h-10c-1.9 0-1.9 3 0 3z" fill="#fff"/><path d="M248.3 137.2A67 67 0 0 0 153.4 77c-20.1 9-35 27.6-38.6 49.4-1.6 9.2-1 19-1 28.4v119a14 14 0 0 0 9.2 13.8c2.6 1 6.5.6 9.3.6h86c8.2 0 22.2 2.4 27.3-5.8 4-6.3 2.2-16.8 2.2-24 0-40.3-.2-80.8.5-121.2.2-6.4-9.8-6.4-10 0-.8 46-.5 92-.5 138 0 3.9-5.5 3-8 3h-100c-2.5 0-6 .4-6-3.2V135.8a55.7 55.7 0 0 1 10.4-30.9 58.4 58.4 0 0 1 64.5-21 56.7 56.7 0 0 1 39.6 53.3c.1 6.5 10.1 6.5 10 0z" fill="#fff"/><path d="M232.4 261.4V152.7c0-3.8.4-7.6.4-11.4a58.7 58.7 0 0 0-7.7-29.8 51.3 51.3 0 0 0-93.3 13.3c-3 10.3-2.3 21.3-2.3 31.9v104.7c0 1.9 3 1.9 3 0V151.7c0-14 .6-27.3 8-39.7a48.7 48.7 0 0 1 61.8-17.6 47.8 47.8 0 0 1 22.5 23.2c2.5 5.2 4 11 4.7 16.9.5 4.6-.1 9-.1 13.6v113.3c0 2 3 2 3 0z" fill="#fff"/><path d="M138.5 260.3a8 8 0 0 0-8-8h-6.7a8 8 0 0 0-8 8v23.4a8 8 0 0 0 8 8h6.7a8 8 0 0 0 8-8v-23.4zm107.3 0a8 8 0 0 0-8-8h-6.6a8 8 0 0 0-8 8v23.4a8 8 0 0 0 8 8h6.6a8 8 0 0 0 8-8v-23.4zM114 167.2h33c4.6 0 4.6-7 0-7h-33c-4.5 0-4.5 7 0 7zm0-10h33c4.6 0 4.6-7 0-7h-33c-4.5 0-4.5 7 0 7zm0-10h33c4.6 0 4.6-7 0-7h-33c-4.5 0-4.5 7 0 7zm100.7 20h33c4.5 0 4.5-7 0-7h-33c-4.5 0-4.5 7 0 7zm0-10h33c4.5 0 4.5-7 0-7h-33c-4.5 0-4.5 7 0 7zm0-10h33c4.5 0 4.5-7 0-7h-33c-4.5 0-4.5 7 0 7z" fill="#fff"/><path d="M142.3 143.6v21.2c0 6.5 10 6.5 10 0v-21.2c0-6.5-10-6.5-10 0zm67.3 0v21.2c0 6.5 10 6.5 10 0v-21.2c0-6.5-10-6.5-10 0zm-33.8 0v21.2c0 6.5 10 6.5 10 0v-21.2c0-6.5-10-6.5-10 0zm17.1 23h10c1.9 0 1.9-3 0-3h-10c-1.9 0-1.9 3 0 3zm0-13.8h10c1.9 0 1.9-3 0-3h-10c-1.9 0-1.9 3 0 3zm0-7h10c1.9 0 1.9-3 0-3h-10c-1.9 0-1.9 3 0 3zm0 14h10c1.9 0 1.9-3 0-3h-10c-1.9 0-1.9 3 0 3zM147.2 237a33.6 33.6 0 0 0 47.7 29.6 32.6 32.6 0 0 0 18.5-25.5c.7-6 .3-12.2.3-18.2V204c0-7.2-6.3-8.8-12.1-8.8h-42c-3.2 0-6.8-.2-9.2 2.2-3.3 3.4-3 7.3-3 11.6 0 9.3.2 18.6-.2 27.9-.2 6.4 9.8 6.4 10 0 .3-6.3.3-12.5.3-18.8v-13.6c0-1.6-2.1.7-1 .7H205c-1.4 0-1.2-2.4-1.2 0v21.3c0 6.5.7 13.6-2 19.6a23.7 23.7 0 0 1-28 12.6 23.1 23.1 0 0 1-16.5-21.8c-.1-6.5-10.1-6.5-10 0zm17-163.2l6.8 18c1.6 4.1 8.4 2.3 6.8-1.9l-7-18c-1.5-4.1-8.3-2.3-6.7 2zm27.5-1.8l-6.9 17.9c-1.6 4.2 5.2 6 6.8 1.9l6.9-18c1.6-4.2-5.2-6-6.8-1.8zm-39.2 121h55.8c6.5 0 6.5-10 0-10h-55.8c-6.5 0-6.5 10 0 10z" fill="#fff"/></svg>