<svg xmlns="http://www.w3.org/2000/svg" width="361" height="361"><path d="M281 163h-21.3c-3.2 0-5.9 3.5-5.9 7.7v11.2l-145.7.2v-11.4c0-4.2-2.6-7.6-6-7.6H80.9c-3.2 0-5.9 3.4-5.9 7.6v19.8c0 4.2 2.7 7.6 6 7.6h10.4v17.4c0 7.4 4.7 13.4 10.4 13.4h158.1c5.8 0 10.4-6 10.4-13.4V198h10.9c3.2 0 5.9-3.4 5.9-7.5v-19.8c0-4.2-2.7-7.6-6-7.6z" fill="none" stroke="#fff" stroke-width="10" stroke-linejoin="round" stroke-miterlimit="10"/><path d="M256.3 152.8v-16.5c-.3-5.6-4.2-10-9-10H113.5c-5 0-9 4.7-9 10.6v16" fill="none" stroke="#fff" stroke-width="10" stroke-miterlimit="10"/><path d="M104 230.8v3.9c0 2.7 2.3 5 5 5s5-2.3 5-5v-3.9a5 5 0 1 0-10 0zm143.6 0v3.9c0 2.7 2.3 5 5 5s5-2.3 5-5v-3.9c0-2.7-2.3-5-5-5s-5 2.3-5 5z" fill="#fff"/></svg>