<svg xmlns="http://www.w3.org/2000/svg" width="361" height="361"><path d="M268.6 261.7c.4 4.3 2.9 8.1 7.5 8.6 3 .4 7.9.9 10.5-.8 3.8-2.4 4.7-5.8 4.7-9.9V107.1c0-1.8.4-4.5-.2-6.3-1.4-3.9-4.4-6.6-8.8-6.6-3.5 0-8-.6-10.7 2.2-4.7 4.7-3 14-3 20.1v145.2c0 4.5 7 4.5 7 0V104.5c0-4.4 8.7-4.6 8.7-1.5v158.6c0 2.8-8.4 2.9-8.8 0-.4-4.4-7.5-4.4-7 0zm-81-182h99.2c6.5 0 6.5-10 0-10h-99.2c-6.5 0-6.5 10 0 10zm-112.4 0h15.3c6.5 0 6.5-10 0-10H75.2c-6.4 0-6.4 10 0 10z" fill="#fff"/><path d="M84.3 76.7H197c4.5 0 4.5-7 0-7H84.3c-4.5 0-4.5 7 0 7z" fill="#fff"/><path d="M94.4 84.3H187c6.4 0 6.4-10 0-10H94.4c-6.4 0-6.4 10 0 10z" fill="#fff"/></svg>