<svg xmlns="http://www.w3.org/2000/svg" width="361" height="361"><path d="M118 93a50 50 0 0 0-47 38c-3 12-1 26-1 39 0 12-2 26 0 38a50 50 0 0 0 44 42h72a49 49 0 0 0 45-31c5-12 3-27 3-40v-36a51 51 0 0 0-36-49c-11-3-24-1-36-1h-44c-7 0-7 10 0 10h68c22 0 38 19 38 40v36c0 13 2 28-4 40a39 39 0 0 1-25 20l-14 1h-45c-13 0-25 2-37-5-25-14-20-47-20-71l1-29c4-18 19-32 38-32 6 0 6-10 0-10z" fill="#fff"/><path d="M132 94l-17 6a49 49 0 0 0-24 23 53 53 0 0 0-4 33l3 14 13 41a53 53 0 0 0 37 36 86 86 0 0 0 23 3c7 0 7-10 0-10-20 0-43-8-50-29l-10-36c-5-13-10-26-6-41 3-11 11-19 20-24l18-6c6-2 3-12-3-10z" fill="#fff"/><path d="M83 235c14 18 32 31 55 34 12 1 23-2 34-2 7 1 14 3 19 6s9 6 14 7c7 2 13 1 19-1 19-5 43-2 59 11 5 4 12-3 7-7a76 76 0 0 0-59-15c-7 1-14 4-21 3-4 0-8-3-12-5-15-9-31-10-48-8-23 3-45-10-58-28-4-5-13 0-9 5z" fill="#fff"/><path d="M159 94c-9 4-17 7-24 13a50 50 0 0 0-15 29c-2 14 3 28 7 42l11 34c7 22 28 38 50 38a41 41 0 0 0 13-2c6-2 3-12-3-10-20 7-41-8-49-26l-4-11-6-21c-4-11-9-23-9-35a41 41 0 0 1 10-28c6-7 13-10 21-13 6-3 4-12-2-10z" fill="#fff"/><path d="M148 94l-17 6a49 49 0 0 0-24 23 53 53 0 0 0-4 33l4 14 12 41c6 18 19 28 37 34l23 4c6 0 6-10 0-10-19-2-43-8-49-28l-11-35c-4-13-9-26-6-41a40 40 0 0 1 21-25c5-3 11-4 17-6s3-12-3-10z" fill="#fff"/><path d="M75 201l6 16a49 49 0 0 0 22 24 46 46 0 0 0 32 4c5-1 9-3 14-6l38-18a52 52 0 0 0 28-66c-3-6-12-4-10 2 8 21 0 45-21 54l-32 16c-12 6-23 12-38 8a38 38 0 0 1-23-20l-7-17c-2-6-12-3-10 3z" fill="#fff"/><path d="M70 165l6 17a49 49 0 0 0 23 24c9 5 21 6 31 3l15-6 38-18a52 52 0 0 0 31-43c1-7 0-14-3-21-2-5-12-3-9 3 7 21-3 42-22 51l-33 16c-13 6-24 12-39 8-17-5-23-21-28-36-3-6-12-4-10 2z" fill="#fff"/><path d="M73 184l7 16a49 49 0 0 0 22 24 46 46 0 0 0 31 4l15-6 38-18a52 52 0 0 0 27-66c-2-6-11-4-9 2 7 21-1 45-21 54l-32 15c-12 6-24 13-38 9a38 38 0 0 1-24-20l-6-17c-2-6-12-3-10 3z" fill="#fff"/><path d="M232 135c-12-9-24-19-37-25-27-11-53 9-68 30-4 5 5 10 9 5 13-19 36-36 59-24l16 11 16 12c5 3 10-5 5-9z" fill="#fff"/><path d="M232 177l-44-32c-8-5-15-11-24-14-17-5-32 4-42 18-3 6 5 11 9 5a32 32 0 0 1 17-14c7-2 15 1 21 5l17 11 41 29c5 4 10-5 5-8z" fill="#fff"/><path d="M232 155l-38-27a47 47 0 0 0-67 12c-3 5 5 10 9 5a37 37 0 0 1 33-17 42 42 0 0 1 23 10l35 26c5 3 10-5 5-9zm-63 95c11-6 23-10 33-18a53 53 0 0 0 14-58c-2-6-12-3-10 3a43 43 0 0 1-13 50l-15 7-14 7c-6 3-1 11 5 9z" fill="#fff"/></svg>