<svg xmlns="http://www.w3.org/2000/svg" width="361" height="361"><path d="M164.6 256.8l-66-14.2c-5-1-6.8 2.2-7.7 6.5l-3.4 16c-1.5 7 6 7.8 11 8.9 5.2 1.1 12.9 4.5 16-1.7l-1.6.7 25 5.3-1.1-1.4c.3 6.6 6.9 6.8 12 7.9 3.9.8 11.3 3.9 14.3-.3 2.4-3.5 2.7-9.1 3.5-13.3 1-4.9 4.3-12-2-14.4-1.8-.7-2.5 2.2-.8 2.9 4 1.5-1.2 16-2 19.6-1.2 6-6.2 3.9-10.3 3-3-.7-11.5-.8-11.7-5.4 0-.7-.4-1.3-1.1-1.5l-25-5.3c-.6-.2-1.4 0-1.7.7-2.4 4.7-13.4.2-17-.6-3.4-.8-4.9-3-4-6.7l1-4.8c.4-2 1.4-14.1 5-13.4l8.4 1.8 58.4 12.6c2 .4 2.7-2.5.8-3z" fill="#fff"/><path d="M121.4 266.3l3.2.7c.8.2 1.7-.2 1.9-1 .2-.8-.3-1.7-1-1.9l-3.3-.7c-.8-.1-1.6.3-1.8 1-.2.8.2 1.7 1 2zm8 1.7l3.3.7c.8.2 1.6-.2 1.8-1 .2-.8-.2-1.7-1-1.9l-3.3-.7c-.8-.1-1.6.3-1.8 1-.2.9.2 1.8 1 2zm16-3.6c.1-.3.4-.4.7-.3h-.3l-.9-.3c-.2 0-.5-.2-.2 0 .2.3 0 .9.1.4l.1-.3c0 .3-.4.4-.7.3h.3l1 .3c.1 0 .5.2.2 0-.2-.2-.1-.8-.2-.4v.3c-.5 2 2.4 2.7 2.8.8.2-.7.4-1.5 0-2.3a2.7 2.7 0 0 0-2-1.3 507.7 507.7 0 0 0-1.3-.3 2.5 2.5 0 0 0-3 1.8c-.5 1.7.3 3.2 2 3.6l1.3.3c1.4.3 2.6-.5 3-1.8.6-1.8-2.3-2.6-2.9-.8zm9.8 2.1c0-.3.4-.4.7-.3h-.3l-1-.3c-.1 0-.5-.2-.2 0 .3.3.1.9.2.4v-.3c0 .3-.3.4-.6.3h.3l.9.3c.2 0 .5.2.2 0-.2-.2 0-.9-.1-.4l-.1.3c-.4 2 2.5 2.7 2.9.8.1-.7.3-1.5-.1-2.3a2.7 2.7 0 0 0-1.9-1.3 507.7 507.7 0 0 0-1.3-.3 2.5 2.5 0 0 0-3 1.8c-.6 1.7.2 3.2 2 3.6l1.3.3c1.3.3 2.6-.5 3-1.8.6-1.8-2.3-2.6-3-.8zm-9.5 6.3c0-.3.4-.4.7-.3h-.3l-1-.3c-.1 0-.5-.2-.2 0s.1.9.2.4v-.3c0 .3-.3.4-.6.3h.3l.9.3c.2 0 .6.2.3 0-.3-.3-.1-.9-.2-.4l-.1.3c-.4 1.9 2.5 2.7 2.9.8.1-.8.3-1.5 0-2.3a2.7 2.7 0 0 0-2-1.3l-1.3-.3a2.5 2.5 0 0 0-3 1.8c-.6 1.6.2 3.2 2 3.6l1.3.3c1.4.3 2.6-.5 3-1.8.6-1.8-2.3-2.6-3-.8zm9.8 2.1c0-.3.3-.4.6-.3h-.3l-.9-.3c-.2 0-.5-.2-.2 0 .2.2 0 .8.2.4v-.3c0 .3-.4.4-.6.3h.3l.9.3c.1 0 .5.2.2 0-.2-.3 0-.9-.2-.5v.4c-.5 1.9 2.4 2.7 2.8.8.2-.8.4-1.5 0-2.3a2.7 2.7 0 0 0-2-1.3l-1.3-.3a2.5 2.5 0 0 0-3 1.8c-.5 1.6.3 3.2 2 3.6l1.3.3c1.4.3 2.6-.5 3-1.8.6-1.8-2.3-2.6-2.9-.8zm-22.9-24.3c2-9.4-5-17-13.7-19.3-1.8-.6-2.6 2.3-.8 2.8 7 2 13.3 8 11.6 15.7-.4 1.8 2.5 2.7 3 .8zm-21.8 6.1l-2.5-.5 1 1.8c.7-3 1.2-6-2.6-6.9-3.8-.8-4.7 2-5.4 5l1.9-1c-3-.6-6.2-1.2-7 2.6-.8 3.9 2 4.7 5 5.4l-1-1.9c-.6 3-1.2 6.2 2.6 7 3.9.8 4.8-2 5.4-5l-1.8 1c2.2.5 5 1.4 6.4-1.1 1.4-2.4.7-5.3-2-6.4-1.8-.7-2.6 2.2-.8 3 .8.2.5 2.3-.4 2.1l-2.4-.5c-.8-.2-1.7.2-1.9 1-.2 1-.1 3.3-1.7 3-1.6-.4-.7-2-.5-3.3.2-.7-.2-1.6-1-1.8-1-.2-3.3-.2-3-1.7.4-1.6 2-.8 3.3-.5.7.1 1.6-.2 1.8-1 .2-1 .2-3.3 1.7-3 1.6.3.8 2 .5 3.2-.1.8.2 1.7 1 1.9l2.6.5c2 .4 2.7-2.5.8-2.9z" fill="#fff"/><g fill="#fff"><path d="M225.2 289.5c1.9 2 2.7 2.3 4.6 2.1l35.8-3.8c.5 0 2.8 0 4-1.2l21.3-19.7c1.8-1.6 1-4.4-3-4l-74.5 8c-3.6.3-4.3 2.5-2.7 4.3l14.5 14.3zm28-25.1l34.4-3.7c1.3-.1 2-1.5 1-2.5l-39.4-44c-.8-.9-2.7-.2-2.5 1.1l5 47.6c.3 1.9 3.3 2 3 0l-5-47.6-2.6 1 39.4 44 1-2.6-34.3 3.7c-1.8.2-1.9 3.2 0 3z"/><path d="M238.6 213.3l5.4 51.4c.5 4.5 7.5 4.5 7 0l-5.4-51.4c-.5-4.4-7.5-4.5-7 0zm3 49.3l-19.7 2.1 1.5 2 14.5-49.8-2.9-.4 5 47.6c.3 2 3.3 2 3 0l-5-47.6c-.2-1.6-2.4-2-3-.4l-14.5 49.7c-.3.9.4 2 1.4 2l19.7-2.2c1.9-.2 1.9-3.2 0-3z"/></g><g fill="#fff"><path d="M78.8 192.1c0 1.4 1.9 2.5 4 2.5h130c2.3 0 4.1-1 4.1-2.5v-14.4c0-1.4-1.8-2.5-4-2.5h-130c-2.3 0-4 1.1-4 2.5v14.4z" stroke="#fff" stroke-width="10" stroke-miterlimit="10"/><path d="M124 173.3a4.1 4.1 0 0 0 4 4.1h76.1a4.1 4.1 0 0 0 4.2-4.1V155a4.1 4.1 0 0 0-4.2-4.2h-76a4.1 4.1 0 0 0-4.2 4.2v18.3z" stroke="#fff" stroke-width="10" stroke-miterlimit="10"/><path d="M213 141.3v71.2c0 6.5 10 6.5 10 0v-71.2c0-6.4-10-6.4-10 0zm-143.2-6.5v78.5c0 6.4 10 6.4 10 0v-78.5c0-6.5-10-6.5-10 0z"/><path d="M84.3 167.3c0 .8.6 1.4 1.3 1.4H110c.7 0 1.3-.6 1.3-1.4v-6.2c0-.8-.6-1.4-1.3-1.4H85.6c-.7 0-1.3.6-1.3 1.4v6.2z" stroke="#fff" stroke-width="10" stroke-miterlimit="10"/></g><path d="M195 77.3h93.9c4.5 0 4.5-7 0-7h-94c-4.4 0-4.4 7 0 7z" fill="#fff"/><path fill="none" stroke="#fff" stroke-width="7" stroke-miterlimit="10" d="M280.3 152.8H195M242 87v63.8"/><path d="M239.2 112.8h6.6c4.5 0 4.5-7 0-7h-6.6c-4.6 0-4.6 7 0 7zm38.3-37c-.4 4.3-9.3 6-12.4 6.7-7.5 1.8-15.3 2.2-23 2.3-7.8 0-15.5-.7-23-2.3-3.2-.7-12-2.5-12.4-6.6l-1.5 1.5H279c2 0 2-3 0-3h-73.8c-.8 0-1.6.7-1.5 1.5.4 4.7 5.7 6.7 9.5 8 9 3.3 19.4 3.8 28.9 3.9 9.6 0 19.7-.8 28.9-3.8 3.8-1.3 9-3.5 9.5-8.1.1-2-2.9-2-3 0z" fill="#fff"/><path d="M193.4 77.6c1.8 0 9.4-.5 10 .6 1.4 2.1 1.2 5.6 1.3 8 .2 3.5.2 7 .2 10.5 0 8.3.3 16.7-1.2 25-1 5.2-3.5 17-10.3 17.4l1.5 1.5a9990.9 9990.9 0 0 1 0-64.5c0-2-3-2-3 0a9990.9 9990.9 0 0 0 0 64.5c0 .8.7 1.6 1.5 1.5 6.8-.5 10-8.1 11.8-13.8 3.3-10.1 2.7-21 2.7-31.6 0-4.6 0-9.3-.4-13.9-.2-2-.4-5.1-2-6.8-2.2-2.5-9-1.3-12.1-1.4-2-.1-2 2.9 0 3zm97-3.3c-3 .1-9.8-1-12.1 1.4-1.6 1.7-1.6 4.7-1.9 6.9-.5 4.5-.5 9.2-.5 13.8 0 10.7-.2 21.3 2.8 31.7 1.6 5.6 5 13.3 11.8 13.7.8 0 1.5-.7 1.5-1.5a9990.9 9990.9 0 0 0 0-64.5c0-2-3-2-3 0a9990.9 9990.9 0 0 1 0 64.5l1.5-1.5c-7-.5-9.3-12.2-10.3-17.4-1.7-8.2-1.3-16.7-1.3-25 0-5.6-.9-13.2 1.5-18.5.4-1 8.5-.6 10-.6 2-.1 2-3.1 0-3z" fill="#fff"/><path d="M290.5 184l-9.3-.4-2.2-.1c-.2 0 0-5.2 0-5.5a92 92 0 0 1 2.2-22.6c1.1-4.3 3.8-12.6 9.3-13L289 141v44.6c0 2 3 2 3 0V141c0-.7-.7-1.5-1.5-1.5-5.4.4-8.6 5.4-10.4 10a77 77 0 0 0-4.2 28.6c0 2.6-1 8.1 3 8.5 3.8.3 7.7.3 11.6.5 1.9 0 1.9-3 0-3zm-97.1 3.1c3.8-.2 7.7-.2 11.6-.5 3.9-.4 3-5.9 3-8.5-.2-9.8-.5-19.4-4.2-28.6-1.9-4.5-5-9.6-10.4-10-.8 0-1.5.8-1.5 1.6v44.5c0 2 3 2 3 0v-44.5l-1.5 1.5c5.6.4 8 8.6 9.3 13 2.1 7.3 2.1 14.9 2.2 22.5 0 1.7.2 3.6 0 5.4-.1.2-1.7.2-2.2.2l-9.3.4c-2 0-2 3 0 3z" fill="#fff"/></svg>