<svg xmlns="http://www.w3.org/2000/svg" width="361" height="361"><path d="M268.5 280c-.2 2.3-14.8 1-16.4 1H95.4c-1.6 0-2.2-.4-2.2-2V179c0-1.8-1.5-17 1.3-17h172.9c2.3 0 1 17.6 1 19.3V280c0 6.5 10 6.5 10 0V163c0-6.5-5.4-11-11.6-11H94.2c-12.9 0-11 14.5-11 23v89c0 6.9-2.5 21.2 5 25.3 5.6 3 13.6 1.7 19.7 1.7h142.3c10.1 0 26.9 3.2 28.3-11 .7-6.4-9.4-6.4-10 0z" fill="#fff"/><path d="M274.6 146.8c-2.4 5-14.2-1.3-17.7-2.4l-36.5-12-90-29.6-28.6-9.3-4.7-1.6c-3.2-1 0-7.6.6-9.4.7-2 1.7-3.9 4.3-3l59 19.3 81.2 26.7 26.7 8.8 6 2c4 1.3.2 8.7-.7 11.3-1.4 4.3 5.4 6.1 6.8 1.9 2.2-6.9 5.9-15.4-2.9-19.5-1.4-.6-3-1-4.6-1.5l-27.2-9L156.6 90l-53.2-17.4c-9.4-3.1-12.1 7.1-14.3 13.7-1.8 5.6 1.3 10.8 6.8 12.6l20.5 6.7 151.2 49.7c5.2 1.7 10.5.4 13-5 1.9-4-4.2-7.6-6-3.5z" fill="#fff"/><path fill="#fff" stroke="#fff" stroke-miterlimit="10" d="M107.5 95.1l-12-3.9 14-9 12 3.9zm25.3 8.4l-12-4 14-9 12 3.9zm24.6 8.4l-12-4 14-9 12 3.9zm25.4 8l-11.9-4 14-9 12 3.9zm24.6 7.9l-11.9-4 14-9 11.9 3.9zM233 136l-12-4 14-9 12 4zm27.6 9.3l-11.9-4 14-9 12 3.9z"/><path d="M271 173c-.4 3.4-4.3 2.6-6.4 2.6H95c-4.8 0-3.7-6.4-3.7-9.7 0-4 2.8-3.6 5.5-3.6h171.8c3.8 0 2.5 8.7 2.5 10.8 0 4.5 7 4.5 7 0 0-6.6 1-16.6-8-17.7-1.7-.2-3.5-.1-5.4-.1H104c-7.4 0-16.4-1.7-19.4 7.2-1 2.7-.2 6.6-.2 9.5 0 4 1.6 8.3 5.7 9.9 2.3.8 4.6.7 7 .7h160.3c6.8 0 15.5 1.7 19.6-5.1.8-1.3 1-3 1.1-4.4.5-4.5-6.5-4.4-7 0z" fill="#fff"/><path fill="#fff" stroke="#fff" stroke-miterlimit="10" d="M100 175.4H87.4l10.4-13h12.6zm26.6 0h-12.5l10.4-13h12.6zm26 .3h-12.5l10.4-13h12.6zm26.7-.3h-12.5l10.4-13h12.5zm25.8-.2h-12.5l10.4-13h12.6zm26.9-.1h-12.6l10.4-13h12.6zm29.1.2h-12.5l10.4-13h12.6z"/></svg>