<svg xmlns="http://www.w3.org/2000/svg" width="361" height="361"><path d="M258 115H104c-6 0-6 10 0 10h154c6 0 6-10 0-10z" fill="#fff"/><path d="M253 276c-1 8-17 5-22 5H114c-7 0-6-8-6-13V85c0-7 16-5 21-5h118c7 0 6 8 6 13v183c0 7 10 7 10 0V94c0-9 0-18-9-22-6-4-17-2-23-2H114c-9 0-15 7-16 15v190c0 7 3 12 9 15 3 2 7 1 10 1h130c9 0 15-6 16-15 0-6-10-6-10 0z" fill="#fff"/><path d="M170 102h26c9 0 9-15 0-15h-26c-10 0-10 15 0 15zm68-4h5c3 0 5-3 5-5s-2-5-5-5h-5c-3 0-5 2-5 5s2 5 5 5zm-103 13h10c2 0 2-3 0-3h-10c-2 0-2 3 0 3zm26 0h10v-3h-10c-2 0-2 3 0 3zm26 0h9c3 0 3-3 1-3h-10c-2 0-2 3 0 3zm25 0h10c2 0 2-3 0-3h-10v3zm-77-12h10c2 0 2-3 0-3h-10c-2 0-2 3 0 3zm95 145h-98v-98h98v97c0 7 10 7 10 1v-92l-1-10c-3-9-19-6-27-6h-79c-12 0-11 11-11 20v83c0 5 0 9 3 12s7 3 11 3h84c9 0 19 1 20-11 1-6-9-6-10 1z" fill="#fff"/></svg>