<svg xmlns="http://www.w3.org/2000/svg" width="361" height="361"><path d="M111 257v11c0 6 5 11 10 11h104c5 0 10-5 10-11v-11H111z" fill="#fff"/><path d="M235 259V81c0-6-5-11-10-11H122c-6 0-11 5-11 11v178h124zM129 91a5 5 0 0 1 5-5h78a5 5 0 0 1 5 5v47a5 5 0 0 1-5 5h-78a5 5 0 0 1-5-5V91z" fill="#fff"/><path d="M223 285c0 4-7 3-9 3h-84c-3 0-7 1-7-4v-20c0-5 5-3 7-3h91c4 0 2 9 2 11v14c0 3 4 3 4 0v-18c0-5 1-11-6-11h-92c-4 0-7-1-10 3v18c0 5-1 14 6 14h91c3 0 7 0 9-2a7 7 0 0 0 2-4c1-2-3-3-4-1zm0-119a4 4 0 0 1-4-4v-56a4 4 0 0 1 4-4h16a4 4 0 0 1 4 4v56a4 4 0 0 1-4 4h-16z" fill="#fff"/><path d="M243 151a2 2 0 0 1-3-1l-12-30a2 2 0 0 1 1-4l8-3a2 2 0 0 1 4 1l12 30a2 2 0 0 1-1 3l-9 4z" fill="#fff"/><path d="M235 127s37 107 36 119c0 11-8 20-18 20s-18-9-18-21v1-106" fill="none" stroke="#fff" stroke-width="10" stroke-miterlimit="10"/></svg>