<svg xmlns="http://www.w3.org/2000/svg" width="361" height="361"><path d="M259.1 176h12.4c4.5 0 4.5-7 0-7H259c-4.5 0-4.5 7 0 7zm-5.6-76.2l7.3 26c1.3 4.3 8 2.4 6.8-2L260.3 98c-1.2-4.3-8-2.5-6.8 1.9z" fill="#fff"/><path d="M261.4 88.3v84.3c0 4.5 7 4.5 7 0V88.3c0-4.5-7-4.5-7 0z" fill="#fff"/><path d="M287 70.2L263.6 85h3.6l-23.6-14.7-1.7 6.6h47c4.6 0 4.6-7 0-7h-47c-3.6 0-4.7 4.7-1.8 6.5L263.6 91c1 .7 2.5.7 3.6 0l23.5-14.6c3.8-2.4.3-8.5-3.5-6zm-38.4 42l10.8-10.6c3.2-3.1-1.7-8-5-4.9l-10.7 10.6c-3.2 3.2 1.7 8.1 5 5z" fill="#fff"/><path d="M243.8 113.6l7.5-4.3-4.8-4.8-3.4 8 5.5-.8-4-3.6c-3.4-3-8.4 2-5 5l4 3.6c1.6 1.3 4.6 1.5 5.6-.7l3.3-8c.7-1.4.7-3-.5-4.2a3.5 3.5 0 0 0-4.3-.5l-7.4 4.2c-4 2.3-.4 8.3 3.5 6z" fill="#fff"/><path d="M281.7 222.7h-19c-3 0-5.3 3-5.3 6.8v10l-139.5.2v-10.2c0-3.7-2.4-6.8-5.3-6.8h-19c-3 0-5.3 3-5.3 6.8v17.7c0 3.7 2.3 6.8 5.2 6.8h9.4v15.5c0 6.6 4.2 12 9.3 12h150.5c5.2 0 9.3-5.4 9.3-12V254h9.7c3 0 5.3-3 5.3-6.8v-17.7c0-3.7-2.4-6.8-5.3-6.8zm-22.1-9.1v-14.8c-.3-5-3.8-9-8-9h-129c-4.4 0-8 4.3-8 9.5v14.3" fill="none" stroke="#fff" stroke-width="10" stroke-miterlimit="10"/><path d="M113.7 283.3v3.4c0 2.7 2.3 5 5 5s5-2.3 5-5v-3.4c0-2.8-2.3-5-5-5s-5 2.2-5 5zm137.6 0v3.4c0 2.7 2.3 5 5 5s5-2.3 5-5v-3.4c0-2.8-2.3-5-5-5s-5 2.2-5 5z" fill="#fff"/><g fill="#fff"><path d="M156.6 123.9H81.3a4.5 4.5 0 0 1-4.5-4.5V74.1a4.5 4.5 0 0 1 4.5-4.5h75.3a4.5 4.5 0 0 1 4.4 4.5v45.3a4.5 4.5 0 0 1-4.4 4.5zM81.3 73.4a.7.7 0 0 0-.7.7v45.3c0 .4.3.7.7.7h75.3c.3 0 .6-.3.6-.7V74.1a.7.7 0 0 0-.6-.7H81.3z"/><path d="M158.8 119.4c0 .7-1 1.2-2.4 1.2H81.2c-1.3 0-2.4-.5-2.4-1.2V118c0-.6 1-1.2 2.4-1.2h75.2c1.3 0 2.4.6 2.4 1.2v1.4z"/><path d="M156.4 122.5H81.2c-2.5 0-4.3-1.3-4.3-3.1V118c0-1.9 1.8-3.2 4.3-3.2h75.2c2.5 0 4.3 1.3 4.3 3.2v1.3c0 1.8-1.8 3.1-4.3 3.1zm-75.2-3.8h75.2-75.2z"/><path d="M121 129a2.3 2.3 0 0 1-2.3 2.2h-.2a2.3 2.3 0 0 1-2.3-2.2v-7.3a2.3 2.3 0 0 1 2.3-2.2h.2a2.3 2.3 0 0 1 2.3 2.3v7.2z"/><path d="M118.7 133.1h-.2a4.2 4.2 0 0 1-4.2-4.1v-7.3a4.2 4.2 0 0 1 4.2-4.1h.2a4.2 4.2 0 0 1 4.2 4.2v7.2a4.2 4.2 0 0 1-4.2 4.1zm-.2-11.7a.4.4 0 0 0-.4.3v7.3c0 .2.2.3.4.3h.2a.4.4 0 0 0 .4-.3v-7.3a.4.4 0 0 0-.4-.3h-.2z"/><path d="M92.3 133.3h53c2.4 0 2.4-3.8 0-3.8h-53c-2.4 0-2.4 3.8 0 3.8z"/></g><path d="M186 154c-.6 5-7.3 3.8-10.3 3.8H77.9c-6.8 0-5-9.7-5-13.9 0-5.4 3.2-6.6 7.5-6.6h101.7c5.9 0 3.8 13.7 3.8 16.7 0 2 3 2 3 0 0-5 1.5-12.5-1.3-17-2-3-5.7-2.7-8.8-2.7H80c-3 0-6.8-.3-8.8 2.8-2.8 4.4-1.3 11.9-1.3 17 0 4.9 4.3 6.7 8.5 6.7h98.2c2.7 0 5.7.4 8.3-.5 2.6-1 3.7-3.7 4-6.2.2-2-2.8-2-3 0z" fill="#fff"/><path d="M180 150.1c-.7 3.4-7 2.1-9.3 2.1H86.5c-3.9 0-7.6 1.1-7.6-4.1 0-5.9 2.6-5.1 7-5.1h91.9c3 0 2.1 5.6 2.1 7.5 0 2 3 2 3 0 0-4.2.9-10.5-5.1-10.5h-94c-3.5 0-7 0-7.9 4.3-.8 4-.5 10.9 5 10.9h87.4c4.6 0 13.4 1.8 14.6-4.3.4-1.9-2.5-2.7-2.9-.8z" fill="#fff"/></svg>