<svg xmlns="http://www.w3.org/2000/svg" width="361" height="361"><path d="M74.8 185.5h212c6.5 0 6.5-10 0-10h-212c-6.4 0-6.4 10 0 10z" fill="#fff"/><path d="M108.1 139.8a9.5 9.5 0 0 0-9.5 9.5V212a9.5 9.5 0 0 0 9.5 9.5h14.8a9.5 9.5 0 0 0 9.5-9.5v-62.7a9.5 9.5 0 0 0-9.5-9.5h-14.8zm-24.8 19.7a7.8 7.8 0 0 0-7.8 7.9V194a7.8 7.8 0 0 0 7.8 7.8h6.2a7.8 7.8 0 0 0 7.9-7.8v-26.6a7.8 7.8 0 0 0-7.8-7.9h-6.2zm171 62a9.5 9.5 0 0 0 9.5-9.5v-62.7a9.5 9.5 0 0 0-9.6-9.5h-14.8a9.5 9.5 0 0 0-9.5 9.5V212a9.5 9.5 0 0 0 9.5 9.5h14.8zm24.7-19.7a7.8 7.8 0 0 0 7.8-7.8v-26.6a7.8 7.8 0 0 0-7.8-7.9h-6.2a7.8 7.8 0 0 0-7.8 7.9v26.5a7.8 7.8 0 0 0 7.8 7.9h6.2z" fill="#fff"/></svg>