<svg xmlns="http://www.w3.org/2000/svg" width="361" height="361"><path d="M278 163.5L252.6 134l-16.3-18.8c-4.3-5-6.6-8-13.8-8.6v10a8.9 8.9 0 0 0 1.6-.2c3.5-.8 5.1-6 2.3-8.4-3.3-2.7-10.8-2.3-14.5-.8-3.8 1.7-6.3 5.9-8.6 9-7.5 10.5-17.5 18.3-31 13.5-10.4-3.6-12.4-15.2-20.2-21.5-4.2-3.5-10.2-2.5-15.3-1.7-5.4.9-5.2 8.3-.4 10v-9.7c-4.7.6-7.3 4.7-10.3 8l-13 15-27.8 32c-3.9 4.5-7.4 10.4-2.6 15.8 4.1 4.5 9.4 8.3 14 12.2 5 4.2 11 11.4 18.1 7.9 5.4-2.7 9.9-8.8 14-13l7.3-7.2-8.5-3.5v105.8c0 6 3.4 11.8 10.1 11.8h84.7c12.5 0 10.2-15.3 10.2-23.5V172l-8.6 3.6 13.4 13.2c5.3 5.1 11 12.2 19 7 5.4-3.4 10-8.5 14.8-12.6 5.7-4.9 13.2-10.3 7.7-18.7-3.5-5.4-12.1-.4-8.6 5 1.3 2-7.8 8-9 9.2l-7.2 6c-1 1-3 3.4-3.8 2.7-6.7-6-12.8-12.6-19.2-18.9-3-3-8.5-.8-8.5 3.5v107c0 2 .5 2.7-1.6 2.7h-78.7c-1 0-4.7.7-4.7-.7V174a5 5 0 0 0-8.5-3.5l-11.5 11.3-6 6c-1.3 1.2-1.3.6-2.8-.7l-15.5-13.3c-.3-.3-2.9-2.6-3-2.5l2.4-2.7 26.2-30.2 13.1-15.1c1.6-1.8 4.5-6.5 7-6.9 5.3-.7 4.3-8.2 0-9.6a4.9 4.9 0 0 1 3 2.2v5c-1.7 3-2.3 2.1-3 2.2l3.9-.2c.8 0 4.6.5 2.4-.5l1 .8c2.4 2.6 4 6 6.1 9a34.6 34.6 0 0 0 26.7 15.9c11.4.7 21.4-5.4 28.4-14 2.5-3 4.6-6.5 7.2-9.5 1-1.2 2.3-1.4 1-1.3h5.2c2.8.2 1 .8-1.6-1.3l2.2-8.3 1-.2c-6.5.3-6.4 9.4 0 10 3.7.4 6.2 5 8.5 7.7l15.8 18.3 24.3 27.9c4.2 4.8 11.3-2.3 7-7.1z" fill="#fff"/><path d="M183.9 111.7c1.8-11.4-11.3-17.1-11.6-27.8-.3-6.4-10-6.5-10 0v1.6c0 6.5 9.6 6.4 10 0 .2-3.8 3.2-5.9 6.8-6l-5-5c0 3 2.3 4.8 5 5 3.4.3 7 4 6.1 7.6-1.5 6.2 8.1 8.9 9.6 2.6 2.5-10.1-5.8-19.4-15.7-20.2l5 5c0-2.7-2.3-5.2-5-5-9.3.4-16.3 6.6-16.8 16h10v-1.6h-10c.2 5.5 2.3 10.3 5.4 14.9 1.4 2 7 7.4 6.5 10.2-1 6.3 8.7 9 9.7 2.7z" fill="#fff"/><path d="M152.6 119.7a120 120 0 0 1 28-3c6.5 0 6.5-10 0-10A139 139 0 0 0 150 110c-6.3 1.5-3.6 11.1 2.7 9.7z" fill="#fff"/><path d="M212 110c-9.8-1.6-19.7-3-29.6-3.1-6.5 0-6.5 10 0 10 9 0 18 1.3 27 2.7 6.2 1 9-8.6 2.6-9.6z" fill="#fff"/></svg>