<svg xmlns="http://www.w3.org/2000/svg" width="361" height="361"><path d="M111.3 257.2v11.3c0 5.6 4.6 10.2 10.2 10.2h103.1c5.7 0 10.2-4.6 10.2-10.2v-11.3H111.3z" fill="#fff"/><path d="M234.8 259.2v-178c0-6-4.6-10.9-10.2-10.9h-103c-5.7 0-10.3 5-10.3 11v177.9h123.5zM129.4 90.9a4.7 4.7 0 0 1 4.6-4.7h78.1a4.7 4.7 0 0 1 4.7 4.7v47a4.7 4.7 0 0 1-4.7 4.7h-78a4.7 4.7 0 0 1-4.7-4.6V90.9z" fill="#fff"/><path d="M223.3 285.4c-.6 4-7.2 2.6-9.7 2.6h-83.7c-3.2 0-7 .8-7-3.8v-20.4c0-4.4 4.7-3.3 7.5-3.3H221c3.8 0 2.4 9.7 2.4 11.8v13.6c0 2.6 4 2.6 4 0v-18.1c0-4.7.4-11.3-6.2-11.3h-92.5c-3.8 0-7.2-.2-9.3 3.7-.8 1.7-.4 4.2-.4 6V278c0 4.8-1.4 13.9 6 13.9h91.3c2.6 0 6.8.6 8.8-1.4a6.8 6.8 0 0 0 2.2-4.1c.4-2.6-3.5-3.6-3.9-1.1zm-.4-119.1a4 4 0 0 1-4.1-4.1v-56.3a4 4 0 0 1 4-4h16.5a4 4 0 0 1 4 4v56.3a4 4 0 0 1-4 4h-16.4z" fill="#fff"/><path d="M243 150.8a2.4 2.4 0 0 1-3.2-1.2l-12.3-30a2.4 2.4 0 0 1 1.2-3.2l8.8-3.6a2.4 2.4 0 0 1 3 1.3l12.4 30a2.4 2.4 0 0 1-1.2 3.1l-8.8 3.6z" fill="#fff"/><path d="M235 126.5s36.7 107 36.2 119.4c0 11.4-8 20.1-18 20.1s-18-9.2-18-20.7v.6-106" fill="none" stroke="#fff" stroke-width="10" stroke-miterlimit="10"/></svg>