<svg xmlns="http://www.w3.org/2000/svg" width="361" height="361"><path d="M286.8 262.7c0 1.7-2.6 3-5.8 3H80.6c-3.2 0-5.8-1.3-5.8-3v-17.1c0-1.6 2.6-3 5.8-3H281c3.2 0 5.8 1.4 5.8 3v17.1z" fill="#fff" stroke="#fff" stroke-width="10" stroke-miterlimit="10"/><path d="M214.1 239c0 3.2-2.9 5.8-6.5 5.8H88.3c-3.5 0-6.4-2.6-6.4-5.7v-25.2c0-3.2 2.9-5.7 6.4-5.7h119.3c3.6 0 6.5 2.5 6.5 5.7V239zm20.7 2.7a6.1 6.1 0 0 0 6.2 6.2h30.7a6.1 6.1 0 0 0 6.1-6.2v-15.9a6.1 6.1 0 0 0-6.1-6.1H241a6.1 6.1 0 0 0-6.2 6.1v16z" fill="#fff" stroke="#fff" stroke-width="10" stroke-miterlimit="10"/><path d="M69.8 222.4v64.5c0 6.5 10 6.5 10 0v-64.5c0-6.5-10-6.5-10 0zm212-27.7v93.1c0 6.5 10 6.5 10 0v-93.1c0-6.5-10-6.5-10 0zm-199-54.1A41.3 41.3 0 0 1 98 84.9c3.9-2.3.3-8.4-3.5-6A48.5 48.5 0 0 0 76.8 144c2.2 4 8.2.5 6-3.5z" fill="#fff"/><path d="M138.4 155.6a41.3 41.3 0 0 1-55.7-15.2c-2.3-3.8-8.3-.3-6 3.6a48.5 48.5 0 0 0 65.3 17.7c4-2.2.4-8.3-3.6-6zM94 133.3a51.5 51.5 0 0 1-5.5-25.4c0-8.2 2-18.4 9.6-23 3.8-2.4.3-8.5-3.6-6.1-18 11-15.4 42-6.5 58 2.2 4 8.2.4 6-3.6z" fill="#fff"/><path d="M138.4 155.6c-7.8 4.2-17.5 0-24.6-3.9a53.7 53.7 0 0 1-19.9-18.5c-2.3-4-8.3-.4-6 3.5 9.4 15.8 35 35 54 25 4-2.1.5-8.2-3.5-6z" fill="#fff"/><path d="M120.3 95.7a1.5 1.5 0 1 1-3 0 1.5 1.5 0 0 1 3 0zM132 73.4a2.9 2.9 0 0 1-5.7 0 2.9 2.9 0 0 1 5.7 0zm12.4 23.9a2.5 2.5 0 0 1-2.5 2.4h-.8a2.5 2.5 0 0 1-2.5-2.5v-.8A2.5 2.5 0 0 1 141 94h.8a2.5 2.5 0 0 1 2.5 2.5v.8z" fill="#fff" stroke="#fff" stroke-miterlimit="10"/><path d="M188.6 139.1c0 2.4-1.7 4.3-3.9 4.3h-30c-2.2 0-4-2-4-4.3v-31.3c0-2.4 1.8-4.4 4-4.4h30c2.2 0 3.9 2 3.9 4.4V139z" fill="#fff" stroke="#fff" stroke-width="10" stroke-miterlimit="10"/><path d="M131.7 128.3a4.3 4.3 0 0 0 4.3 4.3h20.2a4.3 4.3 0 0 0 4.3-4.3V116a4.3 4.3 0 0 0-4.3-4.3H136a4.3 4.3 0 0 0-4.3 4.3v12.3z" fill="#fff" stroke="#fff" stroke-width="10" stroke-miterlimit="10"/><path d="M123 128.3a4.3 4.3 0 0 1 4.3-4.3h24.9a4.3 4.3 0 0 1 4.3 4.3v6.8a4.3 4.3 0 0 1-4.3 4.4h-24.9a4.3 4.3 0 0 1-4.3-4.4v-6.8zm51.2 6.8a4.3 4.3 0 0 0 4.3 4.4h20.2a4.3 4.3 0 0 0 4.3-4.4V123a4.3 4.3 0 0 0-4.3-4.3h-20.2a4.3 4.3 0 0 0-4.3 4.3v12z" fill="#fff" stroke="#fff" stroke-width="10" stroke-miterlimit="10"/></svg>