<svg xmlns="http://www.w3.org/2000/svg" width="361" height="361"><path d="M138.8 157.4L185.3 77h-8.6l46.5 80.5 4.3-7.5h-93c-6.5 0-6.5 10 0 10h93a5 5 0 0 0 4.3-7.5l-46.5-80.6a5 5 0 0 0-8.6 0l-46.5 80.6c-3.3 5.6 5.4 10.6 8.6 5z" fill="#fff"/><path d="M193.9 280.5c0 3.1-3 5.7-6.5 5.7h-14.7c-3.6 0-6.5-2.6-6.5-5.7v-8c0-3.1 3-5.7 6.5-5.7h14.7c3.6 0 6.5 2.5 6.5 5.7v8z" fill="none" stroke="#fff" stroke-width="10" stroke-miterlimit="10"/><path d="M116.9 217.2l34.5-59.7-4.4 2.5h68l-4.4-2.5 34.5 59.7 4.3-7.5H112.6c-6.5 0-6.5 10 0 10h136.8a5 5 0 0 0 4.3-7.6l-34.3-59.4c-2-3.4-6.1-2.7-9.5-2.7H147a5 5 0 0 0-4.3 2.5L108.3 212c-3.3 5.6 5.4 10.7 8.6 5z" fill="#fff"/><path d="M98.5 269.4l30.2-52.2-4.3 2.5h111.2l-4.3-2.5 30.1 52.2 4.4-7.5H94.2c-6.4 0-6.4 10 0 10h171.6a5 5 0 0 0 4.3-7.5l-17.3-30-10.4-18c-1.7-2.9-3-6.7-7-6.7H124.2a5 5 0 0 0-4.3 2.5L90 264.4c-3.2 5.6 5.4 10.6 8.6 5z" fill="#fff"/></svg>