<svg xmlns="http://www.w3.org/2000/svg" width="361" height="361"><path d="M245 276c-1 5-5 5-9 5H110c-7 0-5-12-5-16V97c0-4-2-16 5-17h126c3 0 7 0 9 4v192c0 7 10 7 10 0V94c0-9 0-18-9-22-3-2-7-2-10-2H110c-9 0-15 7-15 16v190a15 15 0 0 0 15 15h127c9 0 17-4 18-15 0-6-10-6-10 0z" fill="#fff"/><path d="M220 135c-1 5-7 5-11 5h-74c-7 0-5-12-5-16v-19c0-6 5-5 9-5h66c6 0 15-2 15 6v29c0 6 10 6 10 0v-18c0-6 1-13-2-19-6-11-21-8-32-8h-46c-11 0-29-2-30 13v18c0 6-1 13 1 19 4 13 21 10 31 10h47c11 0 27 2 30-13l1-2c0-7-10-7-10 0zm-21 133c2-3 7-5 10-3l8 6c7 3 15 0 18-6 3-4-3-8-6-4-2 4-7 6-11 3-2-2-4-5-7-6a15 15 0 0 0-18 7c-2 3 4 7 6 3zm-23 3l60-60c3-4-2-9-5-5l-60 60c-3 3 2 8 5 5zm-3-60h32c5 0 5-7 0-7h-32c-5 0-5 7 0 7zm0 9h11c4 0 4-7 0-7h-11c-5 0-5 7 0 7zm21 0h11c5 0 5-7 0-7h-11c-4 0-4 7 0 7zm57 13h13c6 0 6-10 0-10h-13c-7 0-7 10 0 10zm0 13h13c6 0 6-10 0-10h-13c-7 0-7 10 0 10zm0 19h13c6 0 6-10 0-10h-13c-7 0-7 10 0 10zm0 13h13c6 0 6-10 0-10h-13c-7 0-7 10 0 10z" fill="#fff"/></svg>