<svg xmlns="http://www.w3.org/2000/svg" width="361" height="361"><path d="M88 214l18-4c6-1 3-11-3-10l-17 4c-7 2-4 11 2 10z" fill="#fff"/><path d="M103 210l14 5c6 2 9-8 3-10l-14-5c-6-2-9 8-3 10z" fill="#fff"/><path d="M129 215l18-4c6-1 3-11-3-10l-17 4c-7 2-4 11 2 10z" fill="#fff"/><path d="M144 211l14 5c6 2 9-8 3-10l-14-5c-7-2-9 8-3 10z" fill="#fff"/><path d="M170 216l18-4c6-1 3-11-3-10l-17 4c-7 2-4 11 2 10z" fill="#fff"/><path d="M185 212l14 5c6 2 9-8 3-10l-14-5c-7-2-9 8-3 10z" fill="#fff"/><path d="M211 216l18-4c6-1 3-11-3-10l-17 4c-7 2-4 11 2 10z" fill="#fff"/><path d="M226 212l14 5c6 2 9-8 3-10l-14-5c-7-2-9 8-3 10z" fill="#fff"/><path d="M251 216l18-4c6-1 3-11-3-10l-17 4c-7 2-4 11 2 10z" fill="#fff"/><path d="M266 212l14 5c6 2 9-8 3-10l-14-5c-7-2-9 8-3 10zM76 234l18-4c6-1 3-11-3-10l-18 4c-6 2-3 11 3 10z" fill="#fff"/><path d="M91 230l14 5c6 2 9-8 3-10l-14-5c-6-2-9 8-3 10z" fill="#fff"/><path d="M117 235l18-4c6-1 3-11-3-10l-17 4c-7 2-4 11 2 10z" fill="#fff"/><path d="M132 231l14 5c6 2 9-8 3-10l-14-5c-7-2-9 8-3 10z" fill="#fff"/><path d="M158 236l18-4c6-1 3-11-3-10l-17 4c-7 2-4 11 2 10z" fill="#fff"/><path d="M173 232l14 5c6 2 9-8 3-10l-14-5c-7-2-9 8-3 10z" fill="#fff"/><path d="M199 236l18-4c6-1 3-11-3-10l-17 4c-7 2-4 11 2 10z" fill="#fff"/><path d="M214 232l14 5c6 2 9-8 3-10l-14-5c-7-2-9 8-3 10z" fill="#fff"/><path d="M239 236l18-4c6-1 3-11-3-10l-17 4c-7 2-4 11 2 10z" fill="#fff"/><path d="M254 232l14 5c6 2 9-8 3-10l-14-5c-7-2-9 8-3 10zm-115-43l39-32 39 32z" fill="#fff"/><path d="M142 192l39-32h-7l39 32 4-8h-79c-6 0-6 10 1 10h78c4 0 7-6 3-9l-39-32c-2-2-5-2-7 0l-39 32c-5 4 2 11 7 7z" fill="#fff"/><circle cx="214" cy="151" r="21" fill="#fff" stroke="#fff"/><path d="M163 137c4-2 8-1 10 3l1 2c1 3-1 7-5 8l-58 25c-4 1-8 0-9-3l-1-2c-1-3 1-7 5-9l57-24z" fill="#fff"/><path d="M161 148c-1-1 1-3 4-4l2-1 6-2 8 14c0 1-2 3-5 4l-2 2-6 1-7-14z" fill="#fff"/></svg>