<svg xmlns="http://www.w3.org/2000/svg" width="361" height="361"><path d="M206.9 103.7a2.7 2.7 0 0 1-3.8 0l-13-13a2.7 2.7 0 0 1 0-3.8l2.9-2.8a2.7 2.7 0 0 1 3.7 0l13 13a2.7 2.7 0 0 1 0 3.7l-2.8 2.9z" fill="#fff"/><path d="M205.1 100.6s.8 1-.2 0a30014.3 30014.3 0 0 0-7.4-7.5l-4.2-4.2c-1.1-1 0-.2-.6.4l2.6-2.6c-.6.5-1.5-.6-.4.5l1.8 1.8 5.6 5.6 4.5 4.5c.8.8.6-1 0-.3l-2.4 2.4c-3.2 3.2 1.7 8.1 5 5 2.7-2.8 5.1-5 4.3-9.2-.5-2.3-3.8-4.8-5.4-6.3-4-4-10.6-14-17.1-9.7-3.3 2.2-5.9 5.7-5 9.7.4 2.4 3.7 4.8 5.3 6.3 4 4 10.6 14 17.1 9.7 3.8-2.5.3-8.6-3.5-6z" fill="#fff"/><path d="M202.4 69.9L188 84.2c-3.2 3.2 1.8 8.2 5 5l14.3-14.4c3.2-3.2-1.7-8.1-5-5zm16 17.6L206 99.7c-3.2 3.2 1.7 8.2 5 5l12.2-12.3c3.2-3.2-1.8-8.1-5-5z" fill="#fff"/><path d="M206.9 163.1c0 .5 2.4.4 0 .4h-4.8c1.4 0 1.3 1 1.3.4v-62.2c0-.5-2.5.2-.1.2h4.8c-1.5 0-1.3-1-1.3.2v62c0 4.5 7 4.5 7 0v-55.6c0-3.7.9-9.3-2-12.2-2.2-2.1-6.5-1.4-9.2-1.4-3.7 0-6.2 3-6.2 6.6v56.7c0 3.4-.5 7.2 1.5 10.2 1.8 2.6 5.4 2.1 8.1 2.1 4 0 6.9-1.1 7.7-5.5.8-4.4-6-6.3-6.8-1.9z" fill="#fff"/><path d="M212.7 161a6.7 6.7 0 0 0-4.4-6.2c-1.4-.5-3-.4-4.5-.4a6.7 6.7 0 0 0-6.2 4.3c-.6 1.4-.4 3-.4 4.5a6.6 6.6 0 0 0 4.3 6.1c1.4.6 3 .4 4.5.4 2.8 0 5.3-1.7 6.3-4.3.5-1.4.4-3 .4-4.4 0-4.5-7-4.5-7 0v1.7c0 .9-.1 0 .4 0h-2c-.8 0 0 0 0 .5v-1.8c0-.8.2 0-.4 0h2c.8 0 0 .1 0-.4.1 1.9 1.5 3.5 3.5 3.5 1.8 0 3.6-1.6 3.5-3.5zm-12.5-52.7h9c4.5 0 4.5-7 0-7h-9c-4.5 0-4.5 7 0 7z" fill="#fff"/><g fill="#fff"><path d="M266.3 163.3c-.1.9 2 .7-.2.7H261c-1.4 0 .6.2.6.1V94c0-.6-2-.1 0-.1h5.8c-1.7 0-1.1.6-1.1 2.3v68c0 4.6 7 4.6 7 0V94.4c0-8-6.4-7.5-12.3-7.5-5.7 0-6.4 5.3-6.4 9.8v66.7c0 3.6 1.7 7.7 6 7.7 5.2 0 11.6 1 12.6-5.9.6-4.4-6.2-6.3-6.8-1.8z"/><path d="M284.8 85c-.4 2-6.6 1.1-7.6 1.1H243c-2.6 0-1.6 0 .5-1.4 4.8-3.3 9.2-6.9 15.2-7.2 3.6-.1 7.2 0 10.7 0h12.9c1.8 0 2.3.2 2.3 2.1V86c0 4.5 7 4.5 7 0 0-5.1 1.3-12.7-5-14.7-5-1.6-11.1-.7-16.2-.7-5.3 0-10.7-.4-16 .6a24 24 0 0 0-9.2 4c-3.2 2.1-9 4.6-10.5 8.4-5 13.1 20 9.6 25.9 9.6h19c5 0 10.8-.4 11.8-6.3.8-4.4-5.9-6.3-6.7-1.8z"/></g><g fill="#fff"><path d="M167.1 127c-1.6-6-9.2-5.9-14.1-4.5-4.7 1.2-3.8 7.6-3.8 11.2v31c0 7 9.6 6.8 14.3 5.5 4.7-1.3 3.7-7.6 3.7-11.2v-31c0-4.5-7-4.5-7 0v34.8c0 2.8-.3 1 1 1h-6c1.4 0 1 1.8 1-1V130c0-2.8.4-1-1-1h4.8c1.9 0 .5.2.4-.2 1.2 4.4 8 2.5 6.7-1.8z"/><path d="M154.4 81.9v41.9c0 4.5 7 4.5 7 0v-42c0-4.4-7-4.4-7 0z"/><path d="M153 74.7v12.5c0 6.5 10 6.5 10 0V74.7c0-6.4-10-6.4-10 0z"/></g><path d="M86.6 202.4v84.8c0 6.4 10 6.4 10 0v-84.8c0-6.5-10-6.5-10 0z" fill="#fff"/><path d="M85.3 292.2h12.6c6.5 0 6.5-10 0-10H85.3c-6.5 0-6.5 10 0 10zm1-49.3h112.5c4.6 0 4.6-7 0-7H86.2c-4.5 0-4.5 7 0 7zm-11.5-42.7h211.4c6.4 0 6.4-10 0-10H74.8c-6.4 0-6.4 10 0 10z" fill="#fff"/><path d="M264.4 195v92c0 6.4 10 6.4 10 0v-92c0-6.5-10-6.5-10 0z" fill="#fff"/><path d="M262.6 292h13.7c6.4 0 6.4-10 0-10h-13.7c-6.5 0-6.5 10 0 10zm-2.6-71.8c-.7 2.3-11.2 1-13 1h-37.2c-2.5 0-1.3-13.5-1.3-15.8 0-1.4 33.2-.7 35.8-.7h14.4c2.5 0 1.3 13.5 1.3 15.9 0 1.9 3 1.9 3 0 0-5.2 1.2-11.8-.4-16.7-1.1-3.3-8.4-2.2-10.8-2.2h-41c-5.7 0-5.3 4.3-5.3 8.8 0 3.8-2 13.6 4.2 13.6h38.2c4 0 13.4 2 15-3.2.7-1.8-2.2-2.6-2.8-.8zm0 24.6c-.7 2.4-11.2 1-13 1h-37.2c-2.5 0-1.3-13.5-1.3-15.8 0-1.4 33.2-.7 35.8-.7h14.4c2.5 0 1.3 13.5 1.3 15.9 0 1.9 3 1.9 3 0 0-5.2 1.2-11.8-.4-16.7-1.1-3.3-8.4-2.2-10.8-2.2h-41c-5.7 0-5.3 4.3-5.3 8.8 0 3.8-2 13.7 4.2 13.7h38.2c4 0 13.4 1.8 15-3.3.7-1.8-2.2-2.6-2.8-.7zm0 24.8c-.7 2.4-11.2 1-13 1h-37.2c-2.5 0-1.3-13.4-1.3-15.7 0-1.4 33.2-.7 35.8-.7h14.4c2.5 0 1.3 13.5 1.3 15.8 0 2 3 2 3 0 0-5.1 1.2-11.8-.4-16.7-1.1-3.3-8.4-2.1-10.8-2.1h-41c-5.7 0-5.3 4.3-5.3 8.8 0 3.7-2 13.6 4.2 13.6h38.2c4 0 13.4 1.9 15-3.2.7-1.8-2.2-2.6-2.8-.8zm9-26.6h5.5c2 0 3.5-1.6 3.5-3.5s-1.5-3.5-3.5-3.5H269c-2 0-3.5 1.6-3.5 3.5s1.6 3.5 3.5 3.5z" fill="#fff"/><path d="M223.2 211.5h22c2 0 2-3 0-3h-22c-2 0-2 3 0 3zm0 24.2h22c2 0 2-3 0-3h-22c-2 0-2 3 0 3zm0 24.2h22c2 0 2-3 0-3h-22c-2 0-2 3 0 3z" fill="#fff"/><path d="M265 274c-.7 3.3-10.6 1.7-12.8 1.7h-43.7c-3.3 0-5.2.2-5.2-3.5v-74.7c0-3 8-1.7 9.6-1.7h44.4c2.3 0 7.5-1.2 7.5 2.3v76.3c0 2 3 2 3 0v-72.9c0-2.5.8-7.7-2.7-8.4-3.7-.8-7.6-.3-11.3-.3h-44.2c-3.6 0-8.3-.8-9.2 3.9-.6 2.7-.1 6-.1 8.8v64c0 3.3-.7 6.7 2.4 8.8 2.4 1.6 8.4.4 11 .4h44.2c3.8 0 9 1 9.9-3.9.4-1.8-2.5-2.7-2.9-.8z" fill="#fff"/></svg>