<svg xmlns="http://www.w3.org/2000/svg" width="361" height="361"><path d="M287 258a6 6 0 0 1-7 7H82a6 6 0 0 1-6-7V133a6 6 0 0 1 6-6h198a6 6 0 0 1 7 6v125zm-78-134c0 2-2 3-5 3h-46c-3 0-5-1-5-3v-16c0-1 2-3 5-3h46c3 0 5 2 5 3v16z" fill="none" stroke="#fff" stroke-width="10" stroke-miterlimit="10"/><path d="M97 131v129c0 10 15 10 15 0V131c0-10-15-10-15 0zm153-1v129c0 10 15 10 15 0V130c0-10-15-10-15 0zm-84 39c2 6-6 6-10 8l-16 5c-2 1-4 2-6 0l-3-6-4-14c-2-6 7-7 10-8l17-5c2-1 3-2 5 0 2 1 2 4 3 6l4 14c2 4 9 2 7-2-3-10-6-30-21-25l-20 7c-7 2-13 4-12 13 0 6 4 12 5 18 3 7 8 12 15 9l20-6c6-2 13-4 14-11a14 14 0 0 0-1-5c-1-5-8-3-7 2z" fill="#fff"/></svg>