<svg xmlns="http://www.w3.org/2000/svg" width="361" height="361"><path d="M257.7 115.3H104.2c-6.5 0-6.5 10 0 10h153.5c6.4 0 6.4-10 0-10z" fill="#fff"/><path d="M252.7 276.2c-.5 8-16.4 5.2-21.5 5.2H114c-7.3 0-5.8-8.5-5.8-13.4V85.3c0-7.8 16.2-5.2 20.8-5.2h117.7c7.4 0 6 8 6 13v183.1c0 6.5 10 6.5 10 0V94c0-8.7.6-17.8-8.7-22.5-6.4-3.1-16.7-1.4-23.5-1.4H113.9c-8.9 0-15.1 6.6-15.7 15.1v190.1c0 6.3 3 11.8 8.7 14.6 3.2 1.7 6.7 1.5 10.2 1.5h130c8.8 0 15-6.6 15.6-15.2.4-6.4-9.6-6.4-10 0z" fill="#fff"/><path d="M179.6 102.2h26.2c9.7 0 9.7-15 0-15h-26c-9.7 0-9.8 15-.2 15zm53.6 94.2a52.6 52.6 0 0 1-37 49.8 52.4 52.4 0 0 1-58.7-21.7 52.4 52.4 0 0 1 4.7-62.5 52.4 52.4 0 0 1 61.4-12.5 52.5 52.5 0 0 1 29.6 47c0 6.4 10 6.4 10 0A63 63 0 0 0 211 142a62.5 62.5 0 0 0-64 2.7 62.5 62.5 0 0 0-27.5 57.2 62.3 62.3 0 0 0 36.7 51 62.5 62.5 0 0 0 59.3-5 62.6 62.6 0 0 0 27.7-51.6c0-6.4-10-6.4-10 0z" fill="#fff"/><path d="M216.6 196.4a35.9 35.9 0 0 1-35.4 35.4c-19.5.4-35-16.3-35.4-35.4a35.7 35.7 0 0 1 35.4-35.4 35.7 35.7 0 0 1 35.4 35.4c.1 4.5 7.1 4.5 7 0a43 43 0 0 0-39.6-42.3 42.7 42.7 0 0 0-44.8 36.8 42.9 42.9 0 0 0 34.2 47.2 42.9 42.9 0 0 0 50.2-41.7c.1-4.5-6.9-4.5-7 0zM156.2 75.1v45.2c0 6.4 10 6.4 10 0V75c0-6.5-10-6.5-10 0zm82 22.5h4.6c2.8 0 5-2.3 5-5s-2.2-5-5-5h-4.6c-2.7 0-5 2.3-5 5s2.3 5 5 5zm-2.8 79.4v38.9c0 6.4 10 6.4 10 0v-39c0-6.4-10-6.4-10 0zm-60.7-66.3h10c1.9 0 1.9-3 0-3h-10c-1.9 0-1.9 3 0 3zm16 0h9.9c2 0 2-3 0-3h-10c-1.9 0-1.9 3 0 3zm15.9 0h9.9c2 0 2-3 0-3h-10c-1.9 0-1.9 3 0 3zm15.9 0h10c1.8 0 1.8-3 0-3h-10c-2 0-2 3 0 3zm-83.7 158.8c-.6 5.6-8.1 4.2-11.5 4.2s-10.8 1.4-11.5-4.2c-.5-5 0-10.5 0-15.7 0-5.5 8.7-4.1 11.5-4.1 3.4 0 10.9-1.4 11.5 4.1.6 5.1 0 10.6 0 15.7 0 2 3 2 3 0v-13.2c0-4-.9-9-5.8-9.5-4.6-.5-9.4-.1-14-.1-5 0-8.6 1.9-9.2 7.1-.5 4.3 0 9 0 13.2 0 4 1 9 5.9 9.5 4.6.5 9.4.2 14 .2 5 0 8.5-2 9.1-7.2.2-2-2.8-1.9-3 0z" fill="#fff"/></svg>