<svg xmlns="http://www.w3.org/2000/svg" width="361" height="361"><path d="M286 219a4 4 0 0 1-4 4H80a4 4 0 0 1-5-4v-17a4 4 0 0 1 4-4h203a4 4 0 0 1 4 4v17z" fill="none" stroke="#fff" stroke-width="10" stroke-miterlimit="10"/><path d="M124 198a3 3 0 0 1-3-3l40-40V77a3 3 0 0 1 3-3h34a3 3 0 0 1 3 3v78l40 40a3 3 0 0 1-3 3H124z" fill="none" stroke="#fff" stroke-width="10" stroke-linecap="round" stroke-linejoin="round" stroke-miterlimit="10"/><path d="M179 248c2 2 5 5 6 9 0 4-4 8-6 10-8 6-11 15-5 23 2 4 9 1 6-3-4-6-2-10 3-15a40 40 0 0 0 6-7c5-8 1-17-5-22-4-3-9 2-5 5zm26 5c2 2 5 5 5 8s-3 6-5 8c-7 6-9 14-4 21 2 4 8 1 6-3-3-5-1-9 3-13a39 39 0 0 0 5-6c5-7 1-15-5-20-3-3-8 2-5 5zm-54 0l5 8c0 3-3 6-6 8-6 6-8 14-3 21 2 4 8 1 6-3-4-5-2-9 2-13a39 39 0 0 0 5-6c5-7 1-15-4-20-4-3-9 2-5 5zm16-39h14c5 0 5-7 0-7h-14c-4 0-4 7 0 7zm33 0h2c2 0 4-1 4-3s-2-4-4-4h-2c-2 0-4 2-4 4s2 3 4 3zm12 0h3c2 0 3-1 3-3s-1-4-3-4h-3c-2 0-3 2-3 4s1 3 3 3z" fill="#fff"/></svg>