<svg xmlns="http://www.w3.org/2000/svg" width="361" height="361"><path d="M257 284c-1 2-10 1-12 1h-43c-3 0-3-1-3-4l-3-73h57c1 0 7-1 7 1l-3 74v1c-1 5 6 5 7 0l3-72c0-5-1-10-7-11h-56l-12 1c-4 2-3 8-3 11l2 44 1 20 1 10c3 5 8 5 12 5h46c5 0 11 0 13-7 0-4-6-6-7-2zM122 75v186c0 6 10 6 10 0V75c0-6-10-6-10 0z" fill="#fff"/><path d="M96 269h63c10 0 10-15 0-15H96c-10 0-10 15 0 15z" fill="#fff"/><path d="M96 267l-1 23c0 2 3 2 3 0l1-23c0-2-3-2-3 0zm11 0v23c0 2 3 2 3 0v-23c0-2-3-2-3 0zm-6 0v23c0 2 3 2 3 0v-23c0-2-3-2-3 0zm11 0v23c0 2 3 2 3 0v-23c0-2-3-2-3 0zm11 0v23c0 2 3 2 3 0v-23c0-2-3-2-3 0zm-5 0v23c0 2 3 2 3 0v-23c0-2-3-2-3 0zm11 0v23c0 2 3 2 3 0v-23c0-2-3-2-3 0zm11 0v23c0 2 3 2 3 0v-23c0-2-3-2-3 0zm-6 0v23c0 2 3 2 3 0v-23c0-2-3-2-3 0zm11 0v23c0 2 3 2 3 0v-23c0-2-3-2-3 0zm11 0l1 23c0 2 3 2 3 0l-1-23c0-2-3-2-3 0zm-6 0v23c0 2 3 2 3 0v-23c0-2-3-2-3 0zm11 0l3 23c0 2 3 2 3 0l-3-23c0-2-3-2-3 0zm-71 0l-3 23c0 2 3 2 3 0l3-23c1-2-2-2-3 0zm100-55l3-37v-5c1-6 4-11 9-14 6-4 14-3 21-3 14 0 39-3 40 17l3 39v3c0 2 3 2 3 0l-2-37c-1-6-1-11-4-16a25 25 0 0 0-21-9h-21c-6 0-12 0-18 2a21 21 0 0 0-13 18l-1 18-2 24c0 2 3 2 3 0z" fill="#fff"/></svg>