<svg xmlns="http://www.w3.org/2000/svg" width="361" height="361"><path d="M178.8 210.2V237c0 1.9 3 1.9 3 0v-26.8c0-2-3-2-3 0zm22 0l2.9-9.4c.5-1.8-2.4-2.6-3-.8l-2.8 9.3c-.6 1.9 2.3 2.7 2.9.8zm-6.5 26.8l3-16.7c.2-1.8-2.6-2.7-3-.7l-2.9 16.7c-.3 1.8 2.6 2.7 2.9.7zm21-44.1l1.7.6c.8.2 1.7-.3 1.9-1 .2-.9-.3-1.7-1-2l-1.9-.5a1.5 1.5 0 0 0-1.8 1c-.2.9.2 1.7 1 1.9zm6.1 6.3l1 1.4c.4.7 1.3 1 2 .6s1-1.4.5-2l-.9-1.5a1.5 1.5 0 0 0-2-.5c-.7.4-1 1.3-.6 2zm-13.4-4.8l1.7-1.3c.6-.5.5-1.6 0-2.2-.6-.6-1.5-.5-2.1 0l-1.7 1.3c-.6.5-.5 1.6 0 2.2.7.6 1.5.5 2.1 0zm-44.9 15l-2.9-9.4c-.5-1.8-3.4-1-2.9.8l3 9.3c.5 1.9 3.4 1 2.8-.8zm6.5 26.8l-3-16.6c-.3-2-3.2-1.1-2.8.8l2.9 16.6c.3 2 3.2 1.1 2.9-.8zM145 190l-1.8.6a1.5 1.5 0 0 0-1 1.8 1.5 1.5 0 0 0 1.8 1l1.8-.5a1.5 1.5 0 0 0 1-1.8 1.5 1.5 0 0 0-1.8-1zm-8 7.7l-1 1.4c-.4.7 0 1.7.6 2 .7.5 1.6.2 2-.5l1-1.4c.4-.7.1-1.6-.6-2a1.5 1.5 0 0 0-2 .5zm18-5.5l-1.6-1.3c-.6-.5-1.5-.6-2 0-.6.6-.7 1.7 0 2.2l1.5 1.3c.7.5 1.5.6 2.2 0 .5-.6.6-1.7 0-2.2zm37.2-19.4l1.2-9.6c.2-1.9-2.8-1.9-3 0l-1.2 9.6c-.3 2 2.7 2 3 0zm-2.7 27.8l1.2-17.2c.1-2-2.9-2-3 0l-1.2 17.2c-.2 2 2.8 2 3 0zm7.3-45.3l.7.5c.7.5 1.7.1 2-.5.5-.8.2-1.6-.5-2l-.7-.6c-.7-.5-1.7-.1-2 .5-.5.8-.2 1.6.5 2zm2.2 6.3l.4 1.5c.2.8 1 1.2 1.9 1a1.5 1.5 0 0 0 1-1.8l-.4-1.5a1.5 1.5 0 0 0-1.8-1 1.5 1.5 0 0 0-1 1.8z" fill="#fff"/><path d="M195.2 156.7l.7-1.4c.3-.7.2-1.6-.6-2-.6-.4-1.6-.2-2 .5l-.7 1.3c-.4.8-.2 1.7.5 2 .7.5 1.7.3 2-.4zm-23.8 16.1l-1.2-9.6c-.2-1.9-3.2-1.9-3 0l1.2 9.6c.2 2 3.2 2 3 0zm2.7 27.8l-1.2-17.2c-.1-2-3.1-2-3 0l1.2 17.2c.1 2 3.1 2 3 0zm-11.8-48l-.8.7c-.6.5-1 1.2-.5 2 .4.7 1.4 1 2 .5l.8-.5c.7-.5 1-1.3.6-2s-1.4-1.1-2-.6zm-3.7 8.2l-.3 1.5c-.2.8.2 1.6 1 1.8.8.2 1.6-.2 1.8-1l.4-1.5c.2-.8-.2-1.6-1-1.8a1.5 1.5 0 0 0-1.9 1z" fill="#fff"/><path d="M168 155.1l-.7-1.3c-.4-.7-1.4-1-2-.5-.8.4-1 1.3-.6 2l.7 1.3c.4.8 1.4 1 2 .6.8-.4 1-1.3.6-2zm61 110.4c0-9.6-6.2-14.1-15.3-14.1h-21.6l3.5 3.5c-1.6-16.6-28.5-16.6-30.1 0l3.5-3.5h-20c-9 0-15 4.8-15 14.1 0 4.5 7 4.5 7 0 0-8.2 6.8-7.1 12.8-7.1H169c2 0 3.3-1.6 3.5-3.5.7-7.3 15.4-7.3 16.1 0 .2 1.9 1.5 3.5 3.5 3.5h15.7c6.3 0 14.2-1.6 14.2 7.1 0 4.5 7 4.5 7 0zm54.4 16.6h4.7c1.8 0 3.4-1.6 3.4-3.5s-1.5-3.5-3.4-3.5h-4.7c-1.8 0-3.4 1.6-3.4 3.5s1.5 3.5 3.4 3.5zm-26.7 10h16c4.5 0 4.5-7 0-7h-16c-4.5 0-4.5 7 0 7z" fill="#fff"/><path d="M268.3 286h6c2 0 3.5-1.5 3.5-3.4s-1.6-3.5-3.5-3.5h-6c-1.9 0-3.5 1.6-3.5 3.5s1.6 3.5 3.5 3.5zm18.3 6h2c2 0 3.5-1.5 3.5-3.4s-1.6-3.5-3.5-3.5h-2c-1.9 0-3.5 1.6-3.5 3.5s1.6 3.5 3.5 3.5zm-18.9-20.2h-6c-1.9 0-3.5 1.5-3.5 3.5s1.6 3.5 3.5 3.5h6c2 0 3.5-1.6 3.5-3.5s-1.6-3.5-3.5-3.5zm21.2-13.6h-11.6c-4.5 0-4.5 7 0 7h11.6c4.5 0 4.5-7 0-7zm-4 8h-6.6c-4.5 0-4.5 7 0 7h6.6c4.5 0 4.5-7 0-7z" fill="#fff"/><path d="M288.2 252.2h-6c-1.9 0-3.5 1.6-3.5 3.5s1.6 3.5 3.5 3.5h6c2 0 3.5-1.6 3.5-3.5s-1.6-3.5-3.5-3.5z" fill="#fff"/><path d="M284.3 250h-6c-2 0-3.5 1.5-3.5 3.4s1.6 3.5 3.5 3.5h6c1.9 0 3.5-1.6 3.5-3.5s-1.6-3.5-3.5-3.5zm3.6 20.2h-.7c-1.9 0-3.5 1.6-3.5 3.5s1.6 3.5 3.5 3.5h.7c1.9 0 3.5-1.6 3.5-3.5s-1.6-3.5-3.5-3.5zm-214.1 13h7c4.5 0 4.5-7 0-7h-7c-4.5 0-4.5 7 0 7zm26.5-3h7.8c4.5 0 4.5-7 0-7h-7.8c-4.5 0-4.5 7 0 7zm21.8 11.9h6c2 0 3.5-1.6 3.5-3.5s-1.6-3.5-3.5-3.5h-6c-1.9 0-3.5 1.5-3.5 3.5s1.6 3.5 3.5 3.5zm124.2-7.6h-9c-4.5 0-4.5 7 0 7h9c4.5 0 4.5-7 0-7zm13-9h-16c-4.5 0-4.5 7 0 7h16c4.5 0 4.5-7 0-7zM79.9 250h-6c-1.9 0-3.5 1.6-3.5 3.5s1.6 3.5 3.5 3.5h6c2 0 3.5-1.6 3.5-3.5s-1.6-3.5-3.5-3.5zm-3.3 23.3h2c2 0 3.5-1.6 3.5-3.5s-1.6-3.5-3.5-3.5h-2c-1.9 0-3.5 1.6-3.5 3.5s1.6 3.5 3.5 3.5z" fill="#fff"/><path d="M93.7 276.6h-2c-2 0-3.5 1.5-3.5 3.5s1.5 3.5 3.5 3.5h2c1.9 0 3.5-1.6 3.5-3.5s-1.6-3.5-3.5-3.5zm102.5 8.5h-6c-1.9 0-3.5 1.6-3.5 3.5s1.6 3.5 3.5 3.5h6c2 0 3.5-1.6 3.5-3.5s-1.6-3.5-3.5-3.5zM88 264h-5.5c-2 0-3.5 1.7-3.5 3.6s1.6 3.5 3.5 3.5H88c1.9 0 3.5-1.6 3.5-3.5s-1.6-3.5-3.5-3.5zm118 28h16c4.6 0 4.6-7 0-7h-16c-4.4 0-4.4 7 0 7zm15.5-14.1h6c2 0 3.5-1.6 3.5-3.5s-1.6-3.5-3.5-3.5h-6c-1.9 0-3.5 1.6-3.5 3.5s1.6 3.5 3.5 3.5z" fill="#fff"/><path d="M215.3 288.3h2c1.9 0 3.5-1.6 3.5-3.5s-1.6-3.5-3.5-3.5h-2c-2 0-3.5 1.6-3.5 3.5s1.6 3.5 3.5 3.5zm18.6-9.4h-6c-2 0-3.5 1.6-3.5 3.5s1.6 3.5 3.5 3.5h6c1.9 0 3.5-1.6 3.5-3.5s-1.6-3.5-3.5-3.5zm-98-6.7h-9c-4.5 0-4.5 7 0 7h9c4.6 0 4.6-7 0-7zm16.6-.1h-6c-2 0-3.5 1.6-3.5 3.5s1.6 3.5 3.5 3.5h6c1.9 0 3.5-1.6 3.5-3.5s-1.6-3.5-3.5-3.5zm-7.5 20h6c1.9 0 3.5-1.6 3.5-3.5s-1.6-3.5-3.5-3.5h-6c-2 0-3.5 1.6-3.5 3.5s1.6 3.5 3.5 3.5zm-59.1-.2H101c4.6 0 4.6-7 0-7H86c-4.5 0-4.5 7 0 7zm92.4-15h9c4.5 0 4.5-7 0-7h-9c-4.5 0-4.5 7 0 7zM159.6 292h16c4.6 0 4.6-7 0-7h-16c-4.5 0-4.5 7 0 7z" fill="#fff"/><path d="M155 284h6c1.9 0 3.5-1.5 3.5-3.4s-1.6-3.5-3.5-3.5h-6c-2 0-3.5 1.6-3.5 3.5s1.6 3.5 3.5 3.5zm18.3 3.9h2c2 0 3.5-1.6 3.5-3.5s-1.6-3.5-3.5-3.5h-2c-1.9 0-3.5 1.6-3.5 3.5s1.6 3.5 3.5 3.5zm37.4-19.8H199c-4.5 0-4.5 7 0 7h11.7c4.5 0 4.5-7 0-7zm-18.6 10.8h-6c-2 0-3.5 1.6-3.5 3.5s1.6 3.5 3.5 3.5h6c1.9 0 3.5-1.6 3.5-3.5s-1.6-3.5-3.5-3.5z" fill="#fff"/><path d="M147 280h16c4.5 0 4.5-7 0-7h-16c-4.6 0-4.6 7 0 7zm-29-4.5h-9c-4.4 0-4.4 7 0 7h9c4.6 0 4.6-7 0-7zm-30.7 5.8h-5.5c-1.9 0-3.5 1.6-3.5 3.5s1.6 3.5 3.5 3.5h5.5c2 0 3.5-1.6 3.5-3.5s-1.6-3.5-3.5-3.5zm55.8.9h-2c-1.9 0-3.5 1.6-3.5 3.5s1.6 3.5 3.5 3.5h2c2 0 3.5-1.6 3.5-3.5s-1.6-3.5-3.5-3.5z" fill="#fff"/><path d="M146.9 272h-2c-2 0-3.5 1.6-3.5 3.5s1.6 3.5 3.5 3.5h2c1.9 0 3.5-1.6 3.5-3.5s-1.6-3.5-3.5-3.5zm-41.6 19.9h5.5c2 0 3.5-1.6 3.5-3.5s-1.6-3.5-3.5-3.5h-5.5c-1.9 0-3.5 1.6-3.5 3.5s1.6 3.5 3.5 3.5zm-31.9-1h2c1.9 0 3.5-1.5 3.5-3.5s-1.6-3.5-3.5-3.5h-2c-2 0-3.5 1.6-3.5 3.5s1.6 3.5 3.5 3.5zm19.3-8.7h2c1.9 0 3.5-1.6 3.5-3.5s-1.6-3.5-3.5-3.5h-2c-2 0-3.5 1.6-3.5 3.5s1.5 3.5 3.5 3.5z" fill="#fff"/><path d="M103.9 273.2h-5.5c-2 0-3.5 1.6-3.5 3.5s1.6 3.5 3.5 3.5h5.5c1.9 0 3.5-1.6 3.5-3.5s-1.6-3.5-3.5-3.5zm147 10.4h2c1.9 0 3.5-1.6 3.5-3.5s-1.6-3.5-3.5-3.5h-2c-2 0-3.5 1.6-3.5 3.5s1.6 3.5 3.5 3.5zm-39.3-10.4h-11.2c-4.5 0-4.5 7 0 7h11.2c4.5 0 4.5-7 0-7zm-128.4-17h-9.8c-4.5 0-4.5 7 0 7h9.8c4.5 0 4.5-7 0-7zm57.3 24.7h-11.1c-4.6 0-4.6 7 0 7h11.1c4.5 0 4.5-7 0-7z" fill="#fff"/><path d="M75.1 248.1h8.6c4 0 3.4 4 3.4 6.8 0 3.4-.2 6.9.6 10.2 1.4 5.7 7 8.7 12.3 9 5.8.6 11.8 0 17.6 0h140.7c7.4 0 14.3-2 16.3-10.2 1-4 .3-8.8.3-12.9 0-4.5 9.2-2.9 12-2.9 6.4 0 6.4-10 0-10-7.9 0-15.7-.9-20.4 6.8-1.9 3-1.6 6.6-1.6 10 0 2.8 1.3 9-2.9 9.3-5.8.5-11.8 0-17.6 0H100.1c-4.4 0-3-7.4-3-10.2 0-6.2-1.6-12-7.9-14.8-4.2-1.8-9.5-1-14-1-6.5 0-6.5 10 0 10zm103.4-93v18.8c0 2 3 2 3 0V155c0-2-3-2-3 0zm9.4-26l1-6.9c.2-1.9-2.7-2.7-3-.8l-1 6.8c-.2 2 2.7 2.7 3 .8zm-2.2 19.1l1-12.1c.2-2-2.8-2-3 0l-1 12.1c-.1 2 2.9 2 3 0zm5.5-31.6l.6.4c.7.5 1.7.1 2-.5.5-.8.2-1.6-.5-2l-.6-.5c-.7-.4-1.6-.1-2 .6-.4.7-.2 1.6.5 2zm1.7 4.2l.3 1a1.5 1.5 0 0 0 1.9 1.1 1.5 1.5 0 0 0 1-1.9l-.3-1a1.5 1.5 0 0 0-1.8-1 1.5 1.5 0 0 0-1 1.8z" fill="#fff"/><path d="M190.3 117.4l.6-1c1-1.6-1.6-3.1-2.6-1.4l-.6.9c-1 1.7 1.7 3.2 2.6 1.5zm-15.2 10.8l-1-6.7c-.3-2-3.2-1.1-2.9.8l1 6.7c.3 2 3.2 1.1 2.9-.8zm2.2 20l-1-12.1c-.1-2-3.1-2-3 0l1 12.2c.2 1.9 3.2 1.9 3 0zm-10-34.2l-.6.4c-.7.5-1 1.3-.5 2 .4.8 1.4 1 2 .6l.7-.4c.6-.4 1-1.3.5-2-.4-.7-1.4-1-2-.6zm-3 6l-.4 1c-.2.8.3 1.7 1 1.9.9.2 1.7-.3 2-1l.2-1a1.5 1.5 0 0 0-1-2c-.8-.1-1.6.3-1.8 1.1z" fill="#fff"/><path d="M172.3 115.9l-.5-1c-1-1.6-3.6 0-2.6 1.6l.5 1c1 1.6 3.6 0 2.6-1.6zm-76.8 134h171.2c2 0 2-3 0-3H95.5c-2 0-2 3 0 3z" fill="#fff"/></svg>