<svg xmlns="http://www.w3.org/2000/svg" width="361" height="361"><path d="M250.8 215.4c-5.6 5.1-11.7 9.5-17.2 14.8a38.6 38.6 0 0 0-11.8 19.7c-1.4 9 1 18.3-.6 27.2 0-.2-.8 2.6-.3 1.5.6-1.4 5.7-1.6 2.6-1.6H217a6241.6 6241.6 0 0 1-37.7.2 3812.7 3812.7 0 0 1-14.1 0h-3c2.4 0 4 1 4.7 2.8-1.9-6 1-15.4-.7-22.6-2.6-10.8-16.8-10.2-25.4-10.2l-9.9.1c-2.6.1 3.8 7.2 3.8 3.4l.1-6v-16.4c0 4-5.2 4.2-3.2 4l7.3.2c4.8 0 10.1-.4 13.8-3.8 3.5-3.1 4.4-8 4.4-12.4 0-9.3-3.8-18.7-7.3-27a156.7 156.7 0 0 0-3.5-7.7l-.1-.2c-.5-1.2-.1-.6-.2 0 0 .5-2 1-.6 1 23.7-.4 47.4 0 71 0H257c.7 0 2.3.4 1.2-.1-.8-.4-1-3-.9-1.8.3 1.7-.2-1.8 0-.1l.5 5.8c.5 9.7 0 21.7-7 29.2-6.7 7 4 17.6 10.6 10.5 12.2-12.8 13-32.9 10.4-49.5-1-6.3-9-9-14.5-9H157.1c-10.2 0-25.3-1.6-26 12.8-.4 5.6 3.3 11 5.3 15.7 2.6 6.4 6.8 16.5 5.5 22.5-.3 1.3 2.3-1.2.3-1-2.2.2-4.4.1-6.6 0-5.3-.1-10.6-.1-14 4.7-2.6 3.8-1.9 8.6-1.9 13v14.2c0 4.4.7 8.5 4.6 11.2 3.2 2.1 6.6 1.8 10.2 1.7a188.7 188.7 0 0 1 17.4.6c1.6.3.5.4-.3-1.5.7 1.8 0-1 .2.8.4 7-.9 14 .3 21 1.8 10.5 12.6 9 20.6 9a5182 5182 0 0 0 45.3 0c4 0 8.4.4 12-1.7 6.8-4.1 6.6-14.2 6.5-21.1 0-3.5-.3-7-.2-10.4 0-2 0-4.1.2-6.2-.1 1 1-2.7.2-1 5-11 15.5-17.2 24.7-25.8 7-6.6-3.6-17.1-10.6-10.5zm-111.1-50.6h128c9.8 0 9.9-15 .2-15H139.8c-9.7 0-9.8 15-.1 15z" fill="#fff"/><path d="M85.1 169.6c-.6 13.2 4.8 23.7 17.4 28.4 12.2 4.5 27 2.3 39.8 2.3 9.7 0 9.7-15 0-15-10.1 0-20.8 1.2-31-.6-9-1.5-11.6-5.8-11.2-15 .5-9.7-14.5-9.7-15 0z" fill="#fff"/><path d="M106.4 160.6c-.2 1.7-16.5.6-18.2.6-2.8 0-8.4 1.6-8.4-2.2V82.2c0-3.7 3.1-2.5 6.3-2.5h22.8c.7 0 5.3-.7 5.5.6.4 3.4 0 7.1 0 10.5V101c0 1.3-.7 2.8.3 1.6-1 1.2-3.3 1.8-4.5 3a11.4 11.4 0 0 0-3.6 6.1c-.8 3.8-.3 8.3-.3 12.2v16a8408.5 8408.5 0 0 0 0 20.8c.1 6.4 10.1 6.4 10 0v-44.3c0-1-.3-2.8.6-3.5 1.4-1 3-1.6 4.4-2.8 3.4-2.9 3-7 3-11V85.2c0-3.1.6-7.2-1.2-10-4.1-6.5-10.7-5.6-17.4-5.6H83.3c-6.7 0-13.5 2.8-13.5 10.8v76.7c0 2.7-.2 6 1.3 8.4 3.6 5.6 8.7 5.6 14.5 5.6h17.9c7 0 12-3.2 12.9-10.6.7-6.4-9.3-6.4-10 0z" fill="#fff"/></svg>