<svg xmlns="http://www.w3.org/2000/svg" width="361" height="361"><path d="M113 229.1c0-12.6-.4-132.4.5-132.4h56c2.6 0 3.2-.4 3.2 2.2v130.2c0 4.5 7 4.5 7 0v-112c0-6.7 1-14.2 0-21-1.1-6.4-6.7-6.4-11.8-6.4h-44c-3.7 0-7.7-.5-11.4 0-8.9 1.5-6.4 14.8-6.4 21.2v118.2c0 4.6 7 4.6 7 0z" fill="#fff"/><path d="M168.8 165.1h6.4c4.5 0 4.5-7 0-7h-6.4c-4.5 0-4.5 7 0 7zM71 233.5h219.5c2 0 2-3 0-3H71c-2 0-2 3 0 3zm105.3-6.3h114.5c2 0 2-3 0-3H176.2c-1.9 0-1.9 3 0 3zm-105.3 0h39.8c2 0 2-3 0-3H71c-2 0-2 3 0 3zm32.3 25.5H213c2 0 2-3 0-3H103.3c-1.9 0-1.9 3 0 3zm7.7 39.1h116.2c1.9 0 1.9-3 0-3H111c-2 0-2 3 0 3zM90.2 257h9.5c1.9 0 1.9-3 0-3h-9.5c-2 0-2 3 0 3z" fill="#fff"/><path d="M90.2 252.7h9.5c1.9 0 1.9-3 0-3h-9.5c-2 0-2 3 0 3zm2 13h9.5c1.9 0 1.9-3 0-3h-9.5c-2 0-2 3 0 3zm0-4.3h9.5c1.9 0 1.9-3 0-3h-9.5c-2 0-2 3 0 3zm0 13h9.5c1.9 0 1.9-3 0-3h-9.5c-2 0-2 3 0 3zm1-4.3h9.5c1.9 0 1.9-3 0-3h-9.5c-2 0-2 3 0 3zm2 13h9.5c1.9 0 1.9-3 0-3h-9.5c-2 0-2 3 0 3zm-2-4.3h9.5c1.9 0 1.9-3 0-3h-9.5c-2 0-2 3 0 3zm4 13h9.5c1.9 0 1.9-3 0-3h-9.5c-2 0-2 3 0 3zm-1-4.3h9.5c1.9 0 1.9-3 0-3h-9.5c-2 0-2 3 0 3zM219.3 257h9.5c2 0 2-3 0-3h-9.5c-1.9 0-1.9 3 0 3zm-2-4.3h9.5c2 0 2-3 0-3h-9.5c-1.9 0-1.9 3 0 3zm6 13h9.5c2 0 2-3 0-3h-9.5c-1.9 0-1.9 3 0 3zm-1-4.3h9.5c2 0 2-3 0-3h-9.5c-1.9 0-1.9 3 0 3zm4 13h9.5c2 0 2-3 0-3h-9.5c-1.9 0-1.9 3 0 3zm-2-4.3h9.5c2 0 2-3 0-3h-9.5c-1.9 0-1.9 3 0 3zm5 13h9.5c2 0 2-3 0-3h-9.5c-1.9 0-1.9 3 0 3zm-2-4.3h9.5c2 0 2-3 0-3h-9.5c-1.9 0-1.9 3 0 3zm4 13h9.5c2 0 2-3 0-3h-9.5c-1.9 0-1.9 3 0 3zm-1-4.3h9.5c2 0 2-3 0-3h-9.5c-1.9 0-1.9 3 0 3zM70.7 72.5h219.6c1.9 0 1.9-3 0-3H70.7c-1.9 0-1.9 3 0 3zm209.6 100.2c-.9 3.2-12.7 1.5-15.2 1.5H242c-3.9 0-6.7 1-6.7-3.5v-57.5c0-3.3 8.5-1.9 10.6-1.9h23.7c2.8 0 10.6-1.7 10.6 2.4v59.4c0 2 3 2 3 0v-55.2c0-3.7 1-8.2-3.5-9.5-3.9-1.2-9.7 0-13.7 0h-23.3c-3.4 0-10.4-1.3-10.4 4v57.9c0 2-.4 5.7 2.3 6.5 2.6.7 5.4.4 8.1.4H276c3.3 0 6.2.2 7.1-3.7.5-1.9-2.4-2.7-2.9-.8z" fill="#fff"/><path d="M270.1 154.2l4 12.8c.6 1.9 3.5 1 3-.8l-4-12.8c-.7-1.8-3.6-1-3 .8zm-33 4.1l9.3-10.3c1.3-1.4-.8-3.5-2.1-2.1l-9.4 10.3c-1.3 1.4.8 3.6 2.1 2.1zm14.6-7.5l3.7 7.6c.8 1.8 3.4.3 2.6-1.5l-3.7-7.7c-.8-1.7-3.4-.2-2.6 1.6z" fill="#fff"/><path d="M257.6 162.7l6.6-10c1-1.7-1.6-3.2-2.6-1.6l-6.6 10c-1 1.7 1.5 3.2 2.6 1.6zm6.1-15.5l6.6 8.1c1.3 1.5 3.4-.6 2.2-2.1l-6.6-8.2c-1.2-1.5-3.4.7-2.2 2.2zm-23 3l7.3-4.8c1.6-1 0-3.7-1.5-2.6l-7.2 4.8c-1.6 1-.1 3.7 1.5 2.6zm9.2-24.8l9.4-1.6c1.9-.4 1-3.3-.8-3l-9.4 1.7c-2 .3-1.1 3.2.8 2.9z" fill="#fff"/><path d="M258.9 122.9l6.5 3.6c1.6 1 3.2-1.6 1.5-2.6l-6.5-3.6c-1.7-1-3.2 1.6-1.5 2.6zm5.7 6.5l-.1 3c0 .8.7 1.5 1.5 1.5s1.4-.7 1.5-1.5v-3c.1-.8-.6-1.5-1.4-1.5-.9 0-1.5.7-1.5 1.5zm-29.1 29.8h5.2c1.9 0 1.9-3 0-3h-5.2c-2 0-2 3 0 3z" fill="#fff"/><path d="M236 160.4l13 4.5c1.9.6 2.7-2.3.9-2.9l-13.2-4.5c-1.8-.6-2.6 2.3-.8 3zm0 10.4h7.3c2 0 2-3 0-3H236c-2 0-2 3 0 3z" fill="#fff"/><path d="M252 166.4h5.7c2 0 2-3 0-3H252c-1.9 0-1.9 3 0 3zm-10.3 4.4h5.5c2 0 2-3 0-3h-5.5c-2 0-2 3 0 3zm21.6-33c-.5 4.2-12 4-12-.3v-9.8c0-4.2 12-4.2 12 .2v9.9c0 2 3 2 3 0 0-4.8 1.6-12.2-3-15.3-2.1-1.4-6.3-.6-8.6-.6-3.7 0-6 2.1-6.4 5.8-.3 2.6 0 5.4 0 8 0 3 .4 5.4 3 7.2 2.2 1.4 6.3.6 8.6.6 3.7 0 6-2 6.4-5.7.2-2-2.8-2-3 0z" fill="#fff"/><path d="M252.5 141.4l2 .7c.8.3 1.6-.3 1.8-1 .3-.9-.2-1.5-1-1.8l-2-.8c-.7-.3-1.6.3-1.8 1-.3.9.3 1.6 1 1.9zm-14.9-24h41c2 0 2-3 0-3h-41c-2 0-2 3 0 3zm1.4 4.5h8.2c2 0 2-3 0-3H239c-1.9 0-1.9 3 0 3zm31.3 0h5.3c2 0 2-3 0-3h-5.3c-2 0-2 3 0 3zm-31.9 7.5h6.1c2 0 2-3 0-3h-6c-2 0-2 3 0 3zm33.9 1.5h6c2 0 2-3 0-3h-6c-2 0-2 3 0 3zm-33.6 4.8h7.2c2 0 2-3 0-3h-7.2c-2 0-2 3 0 3zm.1 6.1h6.6c1.9 0 1.9-3 0-3h-6.6c-2 0-2 3 0 3zm31.1-.4h7.3c2 0 2-3 0-3h-7.3c-1.9 0-1.9 3 0 3zm2.3-5.7h3.7c2 0 2-3 0-3h-3.7c-2 0-2 3 0 3zm.4 12.8h3c2 0 2-3 0-3h-3c-2 0-2 3 0 3z" fill="#fff"/><path d="M283 176.7c-.7 3.6-11.7 1.9-14.2 1.9H245c-1.6 0-13.3 1.3-13.3-1.6v-68.6c0-2.8 11.7-1.5 13.3-1.5h33.3c2.3 0 4.6-.4 4.6 2.6v67.6c0 2 3 2 3 0v-68.4c0-4.5-3.7-4.8-7-4.8h-42c-3.4 0-8.2-.3-8.2 4.5v68.3c0 4 2.9 4.9 6.1 4.9H276c3.9 0 9 1 10-4 .3-2-2.5-2.8-2.9-.9z" fill="#fff"/></svg>