<svg xmlns="http://www.w3.org/2000/svg" width="361" height="361"><path d="M255 160c3 9 2 17 2 26l2-2h-59l1 2c0-9 1-18-2-26l-1 2h59c2 0 2-3 0-3h-59l-2 1c3 9 2 17 2 26l2 1h59l1-1c0-9 1-18-2-26 0-2-3-1-3 0zm16-79c9 1 10 16 11 22a59 59 0 0 1-2 18c-1 5-3 12-10 12h-61c-11 0-22 1-33-1-13-3-24-8-36-12a159 159 0 0 0-39-8c-1 0-3 0-3-2v-3c-1-3 0-4 3-4l21-4 37-12c10-3 20-6 31-6h81c2 0 2-3 0-3h-83c-11 0-22 4-33 7-12 4-24 9-37 12l-10 2-10 1c-3 1-3 4-3 6-1 3 0 6 1 8l5 1 13 1 39 12c10 4 21 7 33 8h85c12 0 14-20 14-28 0-9-2-29-14-30-2 0-2 3 0 3z" fill="#fff"/><path d="M91 102c1 0 4 0 4 2v6c0 2-3 3-4 3l-4-2v-7c0-2 2-2 4-2s2-3 0-3c-3 0-6 1-7 3v10c0 3 4 4 7 4 2 0 5-1 6-4l1-4-1-5c0-3-4-4-6-4s-2 3 0 3zm-7 9v-7c0-2-3-2-3 0v7c0 2 3 2 3 0zm9 33h195c5 0 5-7 0-7H93c-4 0-4 7 0 7zm0 74h195c5 1 5-6 0-6H93c-4 0-4 7 0 7zm0 74h195c5 0 5-7 0-7H93c-4 0-4 7 0 7z" fill="#fff"/><path d="M285 75v214c0 4 7 4 7 0V75c0-4-7-4-7 0zm-65 20a45 45 0 0 1 2 7c0 2 3 2 3 0a48 48 0 0 0-2-8c-1-2-3-1-3 1zm2 12a45 45 0 0 1 0 7c-1 2 2 3 3 1v-8c0-2-3-2-3 0zm-1 11a44 44 0 0 1-1 2c0 2 3 3 3 1l1-2c0-2-3-3-3-1zm7-20l1 6c0 2 3 2 3-1a55 55 0 0 0-1-6c0-2-3-1-3 1zm1 12a52 52 0 0 1-2 13c-1 2 2 3 3 1a55 55 0 0 0 2-14c0-2-3-2-3 0zm8-17a62 62 0 0 1 1 8c1 3 4 3 3 0a65 65 0 0 0-1-9c-1-3-4-2-3 1zm2 14a61 61 0 0 1 0 4c0 2 2 2 3 0a64 64 0 0 0 0-4c0-3-3-3-3 0zm-1 11a61 61 0 0 1-2 8c-1 3 2 4 3 1a65 65 0 0 0 2-9c0-3-3-3-3 0zm11-6a72 72 0 0 1-3 17c-1 3 2 4 3 1a75 75 0 0 0 3-18c1-3-2-3-3 0z" fill="#fff"/><path d="M254 81c3 1 5 7 5 10 2 5 2 11 2 16a73 73 0 0 1-2 17c0 2-2 9-5 9-2 0-2 3 0 3 4 0 6-3 7-7a64 64 0 0 0 3-22c0-7-1-15-3-22-1-3-3-6-7-7-2 0-2 3 0 3zm-54 0c4 1 5 7 6 10l1 16a73 73 0 0 1-1 17c-1 2-2 9-6 9-1 0-1 3 1 3 3 0 5-3 6-7 3-7 3-14 3-22 0-7 0-15-3-22-1-3-3-6-7-7-1 0-1 3 1 3z" fill="#fff"/><g fill="#fff"><path d="M270 162c8 0 9 15 9 21a49 49 0 0 1-2 19c-2 6-6 7-11 7h-64l-12-1c-12-1-23-6-35-10s-24-8-38-9c-3 0-5 0-5-4s2-4 6-4l20-4c19-5 38-15 59-15h73c2 0 2-3 0-3h-72c-19 0-36 7-54 13a176 176 0 0 1-18 5l-12 1c-1 0-3 0-4 2l-1 8c1 5 5 4 8 4 26 2 48 17 73 19 11 2 22 1 33 1h43c3 0 6 0 9-2 6-5 7-14 7-21 1-9 0-30-12-30-2 0-2 3 0 3z"/><path d="M106 180l3 2v6c0 2-2 2-3 2s-4 0-4-2v-6l4-2c2 0 2-3 0-3-3 1-6 1-7 4v8c1 3 4 4 7 4 2 0 5-1 6-3v-9c0-3-4-3-6-4-2 0-2 3 0 3z"/><path d="M100 188v-6c0-2-3-2-3 0v6c0 2 3 2 3 0z"/></g><g fill="#fff"><path d="M269 228c9 0 10 15 11 21a62 62 0 0 1-1 17c-1 6-3 17-10 17h-86c-12 0-23-4-34-8-13-4-25-9-38-12a131 131 0 0 0-19-3c-3 0-5 0-5-3s-1-6 2-7a173 173 0 0 0 39-8c18-6 37-14 57-14h84c2 0 2-3 0-3h-74c-13 0-25 0-37 4l-36 11a200 200 0 0 1-18 5l-11 2-7 1c-3 2-4 13 1 14l7 1 11 2a178 178 0 0 1 21 5c19 6 38 15 58 15h79c3 1 8 1 11-1 7-3 8-15 9-22a67 67 0 0 0-1-20c-1-7-4-17-13-17-2 0-2 3 0 3z"/><path d="M80 249c1 0 4 1 4 3v6c0 2-3 3-5 3-1 0-4 0-4-2v-7c0-2 3-2 4-3 3 0 3-3 1-3-3 1-6 1-7 4l-1 5v5c1 3 5 4 7 4 3 0 6-1 7-4l1-5v-5c-1-3-5-4-8-4v3z"/><path d="M73 259v-8c0-2-3-2-3 0v8c0 2 3 2 3 0z"/></g><path d="M266 243v23c0 3-1 16-6 17-2 0-2 3 0 3 5-1 7-9 8-13a79 79 0 0 0 1-30c-1-2-4-2-3 0zm-54 0a87 87 0 0 1 0 23c0 3-1 16-6 17-2 0-2 3 0 3 5-1 7-8 8-12a78 78 0 0 0 1-31c-1-2-4-2-3 0z" fill="#fff"/><path d="M213 244h54c2 0 2-3 0-3h-54c-2 0-2 3 0 3zm5-83a24 24 0 0 1 2 7c1 2 4 2 3 0a27 27 0 0 0-3-8c-1-2-3 0-2 1zm3 12a26 26 0 0 1 0 2c-1 1 0 2 1 2l2-2v-2l-2-2-1 2zm6-9a33 33 0 0 1 1 12c-1 3 2 3 3 0a36 36 0 0 0-2-14c-1-2-3 0-2 2zm10 0a42 42 0 0 1 1 11c-1 3 2 2 3-1a45 45 0 0 0-2-12c-1-3-3-1-3 2zm0 91v8c0 2 3 3 3 0a53 53 0 0 0 0-8c-1-3-4-2-3 0zm-1 13a48 48 0 0 1-1 7c-1 2 2 4 2 2a51 51 0 0 0 2-8c0-2-2-3-3-1zm-3 11a48 48 0 0 1 0 2v2c1 1 2 0 2-1l1-1-1-2h-2zm11-19a57 57 0 0 1 0 6c-1 2 2 3 3 1v-6c0-3-3-3-3-1zm-1 13a54 54 0 0 1-5 12c-1 2 2 4 3 2a57 57 0 0 0 4-13c1-3-2-4-2-1zm10-15v9c0 3 3 4 3 1l1-10c-1-3-4-3-4 0zm0 14a65 65 0 0 1-1 4l1 3 2-2v-4c1-1 0-2-1-2l-1 1zm-3 11a63 63 0 0 1-3 6c-1 2 2 4 3 2a67 67 0 0 0 2-7c1-2-1-4-2-1z" fill="#fff"/></svg>