<svg xmlns="http://www.w3.org/2000/svg" width="361" height="361"><path d="M244.6 276.3c-.3 5-4.7 5-8.4 5H109.7c-7 0-5-12.2-5-16.6V97.4c0-4.8-2.2-16.6 5-17.1 7-.5 14.2 0 21.2 0h104.9c3.4 0 7.2-.5 8.7 3.6.5 1.5.1 3.7.1 5.2v187.2c0 6.4 10 6.4 10 0V94c0-8.6.7-17.6-8.6-22.3-3.2-1.6-6.7-1.4-10.2-1.4H109.6c-8.4 0-15 7-15 15.3v190.5a15.2 15.2 0 0 0 15 15.2h127c9.4 0 17.3-4.6 18-15 .5-6.5-9.5-6.4-10 0z" fill="#fff"/><path d="M219.6 134.7c-.4 5.8-6.2 5-10.3 5h-74.6c-7 0-5-11.3-5-15.6v-19.3c0-5.6 5.4-5.1 9.3-5.1h66c5.8 0 14.6-1.8 14.6 6.4v28.6c0 6.4 10 6.4 10 0v-17.5c0-5.8 1.2-13.6-1.4-19-5.8-11.4-21.1-8.5-31.7-8.5h-47c-11 0-28.7-2.2-29.8 13.6-.4 6 0 12 0 17.9 0 5.9-1 13 .9 18.7 4.4 12.6 20.9 9.8 31.3 9.8H199c11.3 0 27.3 2.4 30.4-12.4l.2-2.6c.5-6.5-9.5-6.4-10 0zM199.4 268c2-3.4 6.2-5.2 9.9-3.4 3.1 1.5 4.5 5.2 7.8 6.8 6.7 3 14.8-.5 18.3-6.6 2.2-3.9-3.8-7.4-6-3.5-2.2 3.7-7.5 5.7-11 2.6-2.7-2.2-4-5.2-7.6-6.3a15 15 0 0 0-17.4 6.9c-2.3 3.9 3.8 7.4 6 3.5zm-23.6 2.6l60-60.1c3.3-3.2-1.7-8.2-4.9-5l-60 60.1c-3.3 3.2 1.7 8.2 4.9 5zm-3-60h32.5c4.5 0 4.5-7 0-7h-32.6c-4.5 0-4.5 7 0 7zm0 9h11c4.5 0 4.5-7 0-7h-11c-4.6 0-4.6 7 0 7zm21.5 0h11c4.5 0 4.5-7 0-7h-11c-4.6 0-4.6 7 0 7zm56.3 13h13c6.4 0 6.4-10 0-10h-13c-6.5 0-6.5 10 0 10zm0 13.5h13c6.4 0 6.4-10 0-10h-13c-6.5 0-6.5 10 0 10zm0 18.5h13c6.4 0 6.4-10 0-10h-13c-6.5 0-6.5 10 0 10zm0 13.5h13c6.4 0 6.4-10 0-10h-13c-6.5 0-6.5 10 0 10z" fill="#fff"/></svg>