<svg xmlns="http://www.w3.org/2000/svg" width="361" height="361"><path d="M198 104l44-5-3-1 26 37 5-5-70-33c-4-2-8 4-4 6l70 33c3 1 7-2 5-5l-26-37c0-1-1-2-3-2l-44 5c-4 0-4 7 0 7z" fill="#fff"/><path d="M229 117l-13 26c-3 4 4 8 6 4l13-26c2-4-4-8-6-4zm-87-11l36 104c2 6 12 3 10-3l-37-103c-2-6-11-4-9 2zm98-13l-18 13c-3 3 0 9 4 6l17-13c4-2 1-8-3-6z" fill="#fff"/><path d="M248 121l-1-20c0-4-7-4-7 0l1 20c0 5 7 5 7 0zm-64 100l-45-78-4 7h90l-4-7-45 78c-3 5 5 10 8 5l45-78a5 5 0 0 0-4-8h-90a5 5 0 0 0-4 8l45 78c3 5 12 0 8-5zm41 61h-90l1 10 22-4 15-3 6-1c2-1 3 0-1-1l46 9c6 1 9-9 2-10l-45-9-8 1-16 3-23 5c-6 1-4 10 1 10h90c7 0 7-10 0-10z" fill="#fff"/><path d="M175 220v56c0 6 10 6 10 0v-56c0-6-10-6-10 0zM147 99L84 79c-7-1-9 8-3 10l64 20c6 2 8-8 2-10z" fill="#fff"/></svg>