<svg xmlns="http://www.w3.org/2000/svg" width="361" height="361"><path d="M103.2 160.4l9.7 3.7c1.2.4 1.6.4 2.8-.3 3.2-1.9 6.9-3 10.4-4.2a48.9 48.9 0 0 1 23.6-1.6c5.9 1 18 4 18.5 11.5.5 6.9-12.2 10-16.9 11.2-8.5 2-16.8 1.2-25-1.3a61.5 61.5 0 0 1-9.6-3.7c-1.2-.6-2-1.4-3.3-1l-10.2 4 2 1.4V159c0-2-3-2-3 0v21c0 1 1 1.9 1.8 1.5l4.9-1.8 3.5-1.4a9.2 9.2 0 0 1 1.9-.5c6.3 3.7 14.3 6 21.6 6.8 10 1.1 34.3-1.2 35.3-15.1.4-5.4-6-9.2-10-11.1a47 47 0 0 0-25.3-4c-7.2.7-14.4 3.2-20.8 6.3-1.3.7-.3 1-1.4.5l-4-1.5-5.7-2.2c-1.8-.7-2.6 2.2-.8 3z" fill="#fff"/><path d="M149.2 163.6c.2 1.4 1 2.5 2.4 2.6h3.4c1.5 0 2.4-1.2 2.6-2.6.2-1.3-1.2-2.4-2.4-2.5h-3.4c-1.5 0-2.4 1.1-2.6 2.5 0 .9.8 1.5 1.5 1.5 1 0 1.4-.7 1.5-1.5 0 .5-.7.4 0 .4h2.7c.4 0-.2 0-.3-.4 0-.4.8-.4 0-.4H152c-.4 0 .2 0 .3.4-.2-.8-.7-1.5-1.6-1.5-.7 0-1.5.7-1.4 1.5zm-1-9.1c-2.7-2.2-4.3-4-7.7-4.4l-12-1c-1.3-.2-2 1.7-1 2.5 1.9 1.8 4.2 5.5 7 5.5h12.6c1.9 0 1.9-3 0-3H134c.5 0 1 .6 0-.5l-4.4-4-1 2.5 10.7 1 2.5.1c1.5.2-.6-.6 0 0l4.2 3.4c1.5 1.2 3.6-.9 2.1-2.1zm-5.3 27.8l-3 2.9c-1.1 1 1 0 .2 0l-1.8.2-9 1 1 2.5 2.9-3 1.3-1.4c-.5.5-1.5.4-.7.4H144c2 0 2-3 0-3h-10c-2.4 0-4.2 3.2-5.8 4.8-.8 1-.3 2.7 1.1 2.6l9.5-1c.9 0 2 0 2.7-.6l3.5-3.3c1.5-1.3-.7-3.4-2-2z" fill="#fff"/><path d="M288.8 248c-.7 6.9-13.4 4.7-18 4.7h-192c-7.6 0-5.5-11-5.5-16v-121c0-3.2.3-7 5-7H284c5.3 0 4.8 5 4.8 8.4V248c0 1.9 3 1.9 3 0V113.4c0-8.5-8.8-7.7-14.6-7.7H82c-6 0-11.8 1.1-11.8 8.6V233c0 6-2.1 17 3.1 21.3 3.5 2.9 11.8 1.5 15.8 1.5H280c5.6 0 11-.7 11.8-7.7.2-2-2.8-2-3 0z" fill="#fff"/><path d="M100.1 248c1.5-8.1 2.8-16.9 6.5-24.3 1.8-3.6 4.8-5.5 8-7.7 1.6-1 0-3.7-1.5-2.6-3.3 2.3-6.4 4.2-8.5 7.7-4.7 7.4-5.8 17.6-7.3 26-.4 2 2.5 2.7 2.8.8z" fill="#fff"/><path d="M95.8 241.7c1.2-6.7 2.5-14.7 7-20 3-3.3 7.5-4.2 11.4-5.5 1.8-.7 1-3.6-.8-3-4.3 1.6-8.7 2.7-12.2 5.9-5.6 5.2-7 14.7-8.3 21.8-.4 2 2.5 2.7 2.9.8zm-11.5-3c0-4.7-.1-10-2.5-14.2a7.6 7.6 0 0 0-2.1-2.3 12.8 12.8 0 0 0-.9-.6c-.4-.3-.2-.3 0 .2-.3-1.9-3.3-2-3 0 .1 1.7 1.3 2 2.5 3 3.4 3 3 10 3 14 0 1.8 3 1.8 3 0z" fill="#fff"/><path d="M88 238.3c-.7-4-1-9.3-3.5-12.7-1.5-2.1-4.3-3.1-6.2-4.8-1.5-1.3-3.6.8-2.1 2 1.7 1.6 3.9 2.6 5.6 4.2.8.8 1.1 2.1 1.5 3.2.8 2.9 1.3 6 1.9 9 .3 1.8 3.2 1 2.9-.9z" fill="#fff"/><path d="M90.7 242.2c0-6.8.4-14.3-1.9-20.8-1-3.1-3.3-5.2-5.6-7.4-1.4-1.3-3.5.8-2 2.2 2 2 4 3.7 5 6.6 2 6 1.5 13.2 1.5 19.4 0 2 3 2 3 0z" fill="#fff"/><path d="M93.7 244.8c0-7.1.3-15.5-2.6-22.2-1.7-3.8-4.7-6-7.9-8.6-1.4-1.2-3.6 1-2 2.2 2.4 2 5.1 3.8 6.7 6.8 3.4 6.2 2.7 15 2.8 21.9 0 1.9 3 1.9 3 0z" fill="#fff"/><g fill="#fff"><path d="M249.3 252.8H265c4.5 0 4.5-7 0-7h-15.7c-4.5 0-4.5 7 0 7zM79 249h6.9c4.5 0 4.5-7 0-7h-7c-4.5 0-4.5 7 0 7zm26-3h7.7c4.5 0 4.5-7 0-7h-7.6c-4.5 0-4.5 7 0 7zm21.5 7.8h6c4.5 0 4.5-7 0-7h-6c-4.5 0-4.5 7 0 7z"/><path d="M276.3 244h-9c-4.4 0-4.4 7 0 7h9c4.5 0 4.5-7 0-7zm-194.6-.8h2c2 0 3.5-1.6 3.5-3.5s-1.6-3.5-3.5-3.5h-2c-1.9 0-3.5 1.6-3.5 3.5s1.6 3.5 3.5 3.5zm16.8-.8h-2c-1.9 0-3.5 1.6-3.5 3.5s1.6 3.5 3.5 3.5h2c1.9 0 3.5-1.6 3.5-3.5s-1.6-3.5-3.5-3.5zm101 4.4h-5.9c-4.5 0-4.5 7 0 7h6c4.4 0 4.4-7 0-7zm9.6 7H225c4.5 0 4.5-7 0-7h-16c-4.5 0-4.5 7 0 7z"/><path d="M218.3 250.1h2c1.9 0 3.4-1.6 3.4-3.5s-1.5-3.5-3.4-3.5h-2c-2 0-3.5 1.6-3.5 3.5s1.6 3.5 3.5 3.5zm18.3-5.4h-5.9c-4.5 0-4.5 7 0 7h6c4.4 0 4.4-7 0-7zm-96.5-6.6h-8.8c-4.5 0-4.5 7 0 7h8.8c4.6 0 4.6-7 0-7zm16.3-.1h-5.9c-4.5 0-4.5 7 0 7h6c4.4 0 4.4-7 0-7z"/><path d="M143.3 236h-2c-1.9 0-3.5 1.7-3.5 3.6s1.6 3.5 3.5 3.5h2c1.9 0 3.5-1.6 3.5-3.5s-1.6-3.5-3.5-3.5zm5.7 17.8h6c4.5 0 4.5-7 0-7h-6c-4.5 0-4.5 7 0 7zm-58.2-.2h15c4.6 0 4.6-7 0-7h-15c-4.5 0-4.5 7 0 7zm91-6.8h9c4.5 0 4.5-7 0-7h-9c-4.4 0-4.4 7 0 7z"/><path d="M163.5 253.8h15.8c4.5 0 4.5-7 0-7h-15.8c-4.5 0-4.5 7 0 7z"/><path d="M158.9 249.9h5.9c4.5 0 4.5-7 0-7h-6c-4.4 0-4.4 7 0 7zm18-.3h2c2 0 3.5-1.5 3.5-3.4s-1.6-3.5-3.5-3.5h-2c-1.9 0-3.4 1.5-3.4 3.5s1.5 3.5 3.5 3.5zm18.5-5h-5.9c-4.5 0-4.5 7 0 7h6c4.4 0 4.4-7 0-7z"/><path d="M151 246h15.8c4.5 0 4.5-7 0-7H151c-4.5 0-4.5 7 0 7zm-28.4-4.7h-9c-4.4 0-4.4 7 0 7h9c4.5 0 4.5-7 0-7zm-30.3 1.8h-5.5c-1.9 0-3.5 1.6-3.5 3.5s1.6 3.5 3.5 3.5h5.5c1.9 0 3.5-1.6 3.5-3.5s-1.6-3.5-3.5-3.5z"/><path d="M147.2 244h-2c-1.8 0-3.4 1.6-3.4 3.5s1.6 3.5 3.5 3.5h2c1.8 0 3.4-1.6 3.4-3.5s-1.6-3.5-3.5-3.5z"/><path d="M151 238h-2c-2 0-3.5 1.5-3.5 3.4s1.6 3.5 3.5 3.5h2c1.8 0 3.4-1.6 3.4-3.5s-1.6-3.5-3.5-3.5zm-41 15.6h5.4c2 0 3.5-1.6 3.5-3.5s-1.6-3.5-3.5-3.5H110c-2 0-3.5 1.6-3.5 3.5s1.6 3.5 3.5 3.5zm-33.2 0h2c1.9 0 3.5-1.6 3.5-3.5s-1.6-3.5-3.5-3.5h-2c-2 0-3.5 1.6-3.5 3.5s1.6 3.5 3.5 3.5zm20.7-5.5h2c1.9 0 3.5-1.6 3.5-3.5s-1.6-3.5-3.5-3.5h-2c-1.9 0-3.5 1.6-3.5 3.5s1.6 3.5 3.5 3.5z"/><path d="M108.6 239h-5.4c-2 0-3.5 1.7-3.5 3.6s1.6 3.5 3.5 3.5h5.4c1.9 0 3.5-1.6 3.5-3.5s-1.6-3.5-3.5-3.5zm144.8 10.4h2c1.8 0 3.4-1.6 3.4-3.5s-1.5-3.5-3.5-3.5h-2c-1.8 0-3.4 1.6-3.4 3.5s1.6 3.5 3.5 3.5zm-38.8-10.3h-11c-4.5 0-4.5 7 0 7h11c4.5 0 4.5-7 0-7zm-70 3.5h-11c-4.5 0-4.5 7 0 7h11c4.6 0 4.6-7 0-7zm35 4.1h6c1.8 0 3.4-1.6 3.4-3.5s-1.6-3.5-3.5-3.5h-6c-1.9 0-3.5 1.6-3.5 3.5s1.6 3.5 3.5 3.5zm-4-25.9h-2c-2 0-3.5 1.6-3.5 3.5s1.6 3.5 3.5 3.5h2c1.9 0 3.5-1.6 3.5-3.5s-1.6-3.5-3.5-3.5z"/><path d="M171.6 234.4h5.5c1.9 0 3.5-1.6 3.5-3.5s-1.6-3.5-3.5-3.5h-5.5c-2 0-3.5 1.6-3.5 3.5s1.6 3.5 3.5 3.5zm-13-4.9h-9c-4.5 0-4.5 7 0 7h9c4.5 0 4.5-7 0-7zm12 13.4h-10.2c-4.5 0-4.5 7 0 7h10.1c4.5 0 4.5-7 0-7z"/><path d="M161.8 235.7h-2c-2 0-3.6 1.6-3.6 3.5s1.7 3.5 3.6 3.5h2c1.8 0 3.4-1.6 3.4-3.5s-1.5-3.5-3.4-3.5z"/><path d="M147.3 243.7h6c1.8 0 3.4-1.6 3.4-3.5s-1.5-3.5-3.4-3.5h-6c-2 0-3.6 1.6-3.6 3.5s1.7 3.5 3.6 3.5zm22-22.2h-11.1c-4.5 0-4.5 7 0 7h11.2c4.5 0 4.5-7 0-7z"/><path d="M170.4 223.8h3.2c2 0 3.5-1.6 3.5-3.5s-1.6-3.5-3.5-3.5h-3.2c-2 0-3.5 1.6-3.5 3.5s1.6 3.5 3.5 3.5zm1 18.7h9.7c4.6 0 4.6-7 0-7h-9.8c-4.5 0-4.5 7 0 7zm21.2 2.4h2c1.9 0 3.5-1.6 3.5-3.5s-1.6-3.5-3.5-3.5h-2c-1.9 0-3.5 1.6-3.5 3.5s1.6 3.5 3.5 3.5zm27.7 3.5h2c1.8 0 3.4-1.6 3.4-3.5s-1.6-3.5-3.5-3.5h-2c-1.8 0-3.4 1.5-3.4 3.5s1.5 3.5 3.4 3.5zm42 2.5h1.9c2 0 3.5-1.6 3.5-3.5s-1.6-3.5-3.5-3.5h-2c-1.9 0-3.5 1.6-3.5 3.5s1.6 3.5 3.5 3.5zm-18.9 0h2c1.9 0 3.5-1.6 3.5-3.5s-1.6-3.5-3.5-3.5h-2c-1.9 0-3.5 1.6-3.5 3.5s1.6 3.5 3.5 3.5zM79 240h-2c-2 0-3.5 1.6-3.5 3.5s1.6 3.5 3.5 3.5h2c1.9 0 3.5-1.6 3.5-3.5S80.9 240 79 240z"/><path d="M235.6 253.8h2c2 0 3.5-1.6 3.5-3.5s-1.6-3.5-3.5-3.5h-2c-1.9 0-3.5 1.6-3.5 3.5s1.6 3.5 3.5 3.5zm45 0h2c1.9 0 3.5-1.6 3.5-3.5s-1.6-3.5-3.5-3.5h-2c-1.9 0-3.5 1.6-3.5 3.5s1.6 3.5 3.5 3.5z"/><path d="M278.2 247.7h10.3c4.5 0 4.5-7 0-7h-10.3c-4.5 0-4.5 7 0 7z"/></g><path d="M258.5 244.8c0-18.2 1-36.6 4.8-54.4 1.9-9 5.9-28.3 17.8-28.8 2 0 2-3 0-3-12.2.5-16.9 16-19.4 25.6a236.3 236.3 0 0 0-6.2 60.6c0 2 3 2 3 0z" fill="#fff"/><path d="M254.4 234.7c0-16.4 1.4-33.1 6.1-49 3-9.6 8.7-23.7 20.6-24 2-.1 2-3.1 0-3-11.3.3-17.5 10.8-21.3 20.2-7.1 17.3-8.3 37.3-8.4 55.8 0 2 3 2 3 0zm-4.2 12.2c0-12-.4-24-1.8-35.9-.8-5.8-1.5-13-5-18-1.2-1.5-3.8 0-2.7 1.5 3.8 5.2 4.3 13 5 19.1 1.2 11 1.4 22.2 1.5 33.3 0 1.9 3 1.9 3 0z" fill="#fff"/><path d="M254.3 250a209 209 0 0 0-3-36.5c-1.2-6.9-3-15.7-8.2-20.8-1.4-1.3-3.5.8-2.1 2.2 4.9 4.6 6.2 13 7.4 19.3a191 191 0 0 1 2.9 35.7c0 2 3 2 3 0zm-10-5c0-4.8 0-10-2.4-14.2a7.6 7.6 0 0 0-2.1-2.4 12.8 12.8 0 0 0-.9-.6c-.4-.3-.1-.3 0 .2-.3-1.9-3.3-1.9-3 0 .1 1.7 1.3 2 2.5 3 3.4 3 3 10 3 14 0 1.9 3 1.9 3 0z" fill="#fff"/><path d="M248.2 244.5c-.8-4-1.1-9.3-3.6-12.7-1.5-2.1-4.3-3.1-6.2-4.8-1.5-1.3-3.6.8-2.2 2 1.8 1.6 4 2.6 5.7 4.2.8.8 1.1 2.1 1.5 3.2.8 3 1.3 6 1.9 9 .3 1.8 3.2 1 2.9-.9zM71.8 137.2c7.8.8 15.1.9 23 .2 9.6-.8 19 1.3 28.7.5 4.3-.3 8.6-.9 13-.6 4.4.3 8.8.9 13.2.9 10.4 0 20.8.2 31.2-.4 10-.5 19.6-.5 29.5 0 10 .5 19.7-1 29.6-.5l15.2.8c4.8.2 9.6-.5 14.3-.9 6.9-.4 13.9 0 20.8 0 1.9 0 1.9-3 0-3-6.5 0-13-.2-19.5 0-4.9 0-9.7 1-14.5 1-5.4-.1-10.9-.7-16.3-1-9.4-.4-18.7 1.1-28 .7a293.4 293.4 0 0 0-31 0c-10 .5-20 .3-30 .3-4.4 0-8.8-.5-13.2-.8-4.8-.4-9.5.1-14.3.5-9.2.8-18.3-1.3-27.4-.6-8.3.6-16 .8-24.3-.1-2-.2-2 2.8 0 3z" fill="#fff"/><g fill="#fff"><path d="M184.5 190.7l7.4 5c.5.4 1.1.4 1.5 0 3-1.7 5.7-3.4 9-4.4 4.1-1.3 9.2-.4 13.4.6 3.5.9 7.6 2.4 9.7 5.5 2.2 3.1-1.7 6.4-4 7.7-6 3.4-15 3-21.6 1.6-2.8-.7-4.1-2.7-6.4-4.2a1.5 1.5 0 0 0-1.5 0l-7.5 5.1 2.2 1.3v-19.5c0-2-3-2-3 0v19.5c0 1 1.3 2 2.3 1.3l3.7-2.6 2.3-1.5c1.7-1.1 1.1-.3.4-.7 2 1.2 3 2.8 5.3 3.7a37 37 0 0 0 17 1c4.4-.4 10.1-2.2 12.8-6.2 6.5-10-8.8-15-16-15.8a26 26 0 0 0-17.6 3.9c-1.2.7-.7 1-.9 1l-2.5-1.8-4.5-3.1c-1.6-1-3.1 1.5-1.5 2.6z"/><path d="M211.5 196.1c.1 1.2.8 2.1 2 2.3h2.5c1.4 0 2.1-1 2.3-2.3.1-1.2-1-2.1-2.1-2.3h-2.4c-1.4 0-2.2 1-2.3 2.3-.1.8.7 1.5 1.5 1.5.9 0 1.4-.7 1.5-1.5-.1.8-1.2.7-.5.7h1.9c.5 0-.5 0-.6-.7-.1-.8 1.2-.7.4-.7H214c-.5 0 .5 0 .6.7-.1-.8-.6-1.5-1.5-1.5-.8 0-1.6.7-1.5 1.5zm5.8-7.6a35 35 0 0 0-9.8-13c-2-1.3-5.7-1.3-5.8 1.8 0 2.1.9 4 .9 6.1 0 1.8-.4 3.7-.8 5.4-.3 1 .4 2 1.4 2H216c2 0 2-3 0-3h-12.8l1.4 1.8a20 20 0 0 0 .8-8.1c-.1-.7-1-3.9-.8-3.9 1 0 2 1 2.7 1.6 3.1 3 5.4 7 7.4 10.8 1 1.7 3.5.2 2.6-1.5zm-3.8 21.2a38.4 38.4 0 0 1-3.4 7.4c-1.3 2.2-5.5 1.6-7.8 1.5l1.4 1.9 1.9-10-1.5 1.1H215c2 0 2-3 0-3h-11c-.6 0-1.3.5-1.4 1.1l-1.8 10c-.2 1 .4 1.8 1.4 1.9 2.9.1 7.2.5 9.4-1.7 2.4-2.3 3.6-6.3 4.7-9.4.7-1.8-2.2-2.6-2.9-.8z"/></g><path d="M76.2 152.5l5-.3c1.9-.1 2-3.1 0-3l-5 .3c-1.9.2-2 3.2 0 3zm186 6.4l4.4.3c2 .2 2-2.8 0-3l-4.4-.3c-1.9-.2-1.9 2.8 0 3zm-149.8 71.3h3c2 0 2-3 0-3h-3c-1.9 0-1.9 3 0 3zm0 4.6l6.6-.6c2-.1 2-3.1 0-3l-6.5.6c-2 .2-2 3.2 0 3zm115.8-92.2l5-.3c2-.1 2-3.1 0-3l-5 .3c-1.9.2-1.9 3.2 0 3zM85 205.1h6.4c2 0 2-3 0-3H85c-2 0-2 3 0 3z" fill="#fff"/></svg>