<svg xmlns="http://www.w3.org/2000/svg" width="361" height="361"><circle cx="244.9" cy="130.8" r="21.1" fill="#fff" stroke="#fff"/><path d="M250.6 175.4c-1.8-4.4-.9-9 2.2-10.3l2.3-1c3-1.3 7 1.2 8.9 5.6l26.9 63.5c1.8 4.4.9 9-2.2 10.3l-2.3 1c-3 1.3-7-1.3-8.9-5.7l-26.9-63.4zm-101 51l-41.9 44.4c-9.9 10.5 6 26.4 16 15.8l42-44.5c9.9-10.5-6-26.4-16-15.8z" fill="#fff"/><path d="M164.4 228.6l-21 44.1c-2.7 5.5-1.6 12.1 4 15.4 5 2.9 12.8 1.4 15.4-4.1l21-44.1c2.7-5.6 1.6-12.2-4-15.4-5-2.9-12.8-1.4-15.4 4.1z" fill="#fff"/><path d="M255 159.7c-9.5-5.5-23.4-2.5-28.6 7.7l-23.8 46.3-4 8.4c-15.4 0-35 .2-40.2.3-13.2.5-13.4 23-.2 22.5 11.6-.3 64 .5 75.6.2l29-56.7c5.2-10.2 2.5-22.8-7.7-28.7z" fill="#fff"/><path fill="none" d="M199 237.7h41.2v11.5H199z"/><path d="M286.8 249.3h-96.4c-6.4 0-6.4 10 0 10h96.4c6.5 0 6.5-10 0-10z" fill="#fff"/><g fill="#fff"><path d="M154.6 176.6a55.7 55.7 0 0 0-22.4.4c-6.4 1.2-12.7 3.1-19.1 3.3-6 .2-12.3-1.9-18.1-3.1a58 58 0 0 0-23.5-.6c-1.9.4-1 3.3.8 3 8.3-1.7 15.5-1 23.6.8 5.6 1.3 11.4 2.8 17.2 3 5.4.1 11.2-1.6 16.5-2.8a56.4 56.4 0 0 1 24.2-1c1.9.3 2.7-2.6.8-3z"/><path d="M134.8 179.5c8.3-1.6 15.4-.8 23.6 1 5.6 1.1 11.3 2.7 17.1 2.8 5.5.2 11.2-1.5 16.5-2.7a56.4 56.4 0 0 1 24.3-1c1.9.3 2.7-2.6.8-3a55.6 55.6 0 0 0-22.5.4c-6.3 1.2-12.6 3.1-19 3.3-6 .2-12.3-1.9-18.2-3.1-8-1.7-15.2-2.1-23.4-.6-1.9.4-1.1 3.3.8 3z"/><path d="M197 179.5c3.4-.7 6.9-1.1 10.4-1.2 1.9 0 1.9-3 0-3a63 63 0 0 0-11.2 1.3c-1.9.4-1 3.3.8 3z"/></g><path d="M290.6 176.6a40 40 0 0 0-19.7 0c-2 .4-1.1 3.3.8 3 6-1.2 12.2-2 18.1 0 1.9.5 2.6-2.4.8-3zM81.7 207c-.5 2.7-8.4 3-8.4.2v-21c0-2.4 8.4-2.5 8.4.1v21.1c0 2 3 2 3 0v-20.8c0-7-13-7.1-14.3-.9-.6 2.7 0 6 0 8.7v12.5c0 7 13 7.1 14.2 1 .4-2-2.5-2.8-2.9-.9z" fill="#fff"/><path d="M85.3 197.6h6.4c1.9 0 1.9-3 0-3h-6.4c-2 0-2 3 0 3zm10.3 0h5.8c2 0 2-3 0-3h-5.8c-2 0-2 3 0 3zm10.2 0h5.3c2 0 2-3 0-3h-5.3c-1.9 0-1.9 3 0 3zm10.3 0h4.8c2 0 2-3 0-3H116c-2 0-2 3 0 3zm10.3 0h4.2c2 0 2-3 0-3h-4.2c-2 0-2 3 0 3zm10.2 0h3.8c1.9 0 1.9-3 0-3h-3.8c-2 0-2 3 0 3zm10.3 0h3.2c2 0 2-3 0-3h-3.2c-2 0-2 3 0 3zm10.3 0h2.6c.9 0 1.5-.7 1.5-1.5s-.6-1.5-1.5-1.5h-2.7c-.8 0-1.5.7-1.5 1.5s.7 1.5 1.5 1.5zm10.2 0h2.2c2 0 2-3 0-3h-2.2c-2 0-2 3 0 3zm-84.2-3.4l4.5-.3c2-.1 2-3.1 0-3l-4.5.3c-2 .2-2 3.2 0 3zm8.5-.6l5.8-.4c1.9-.1 1.9-3.1 0-3l-5.8.4c-2 .2-2 3.2 0 3zm10.2-.7l5.3-.3c1.9-.2 2-3.2 0-3l-5.3.3c-2 .2-2 3.2 0 3zm10.2-.7l4.8-.3c2-.2 2-3.2 0-3l-4.8.3c-1.9.1-1.9 3.1 0 3zm10.3-.7l4.2-.3c2-.1 2-3.1 0-3l-4.2.3c-2 .1-2 3.1 0 3zm10.2-.7l3.7-.3c.8 0 1.5-.6 1.5-1.5 0-.8-.7-1.5-1.5-1.5l-3.7.3c-.8 0-1.5.6-1.5 1.5 0 .7.7 1.5 1.5 1.5zm10.2-.7l3.2-.3c.9 0 1.5-.6 1.5-1.5 0-.7-.6-1.5-1.5-1.5l-3.2.3c-.8 0-1.5.6-1.5 1.5 0 .7.7 1.5 1.5 1.5zm10.3-.7l2.7-.3c.8 0 1.5-.6 1.5-1.4 0-.8-.7-1.6-1.5-1.5l-2.7.2c-.8 0-1.5.6-1.5 1.4 0 .8.7 1.6 1.5 1.5zm10.2-.8l2.2-.1c.8 0 1.5-.7 1.5-1.5s-.7-1.6-1.5-1.5l-2.2.1c-.8 0-1.5.7-1.5 1.5s.7 1.6 1.5 1.5zm-80.1 12.1l4.5.3c2 .2 2-2.8 0-3l-4.5-.3c-2-.1-2 2.9 0 3zm8.5.6l5.8.4c1.9.2 1.9-2.8 0-3l-5.8-.4c-2-.1-2 2.9 0 3zm10.2.7l5.3.4c2 .1 1.9-2.9 0-3l-5.3-.4c-2-.1-2 2.9 0 3zm10.2.7l4.8.4c2 .1 2-2.9 0-3l-4.8-.3c-1.9-.2-1.9 2.8 0 3zm10.3.8l4.2.3c2 .1 2-2.9 0-3l-4.2-.3c-2-.2-2 2.8 0 3zm10.2.7l3.7.2c.8.1 1.5-.7 1.5-1.5s-.7-1.4-1.5-1.5l-3.7-.2c-.8 0-1.5.7-1.5 1.5s.7 1.4 1.5 1.5zm10.2.7l3.2.2c.9 0 1.5-.7 1.5-1.5s-.6-1.4-1.5-1.5l-3.2-.2c-.8 0-1.5.7-1.5 1.5 0 .9.7 1.4 1.5 1.5zm10.3.7l2.7.2c.8 0 1.5-.7 1.5-1.5 0-.9-.7-1.4-1.5-1.5l-2.7-.2c-.8 0-1.5.7-1.5 1.5 0 .9.7 1.5 1.5 1.5zm10.2.7l2.2.2c.8 0 1.5-.7 1.5-1.5 0-.9-.7-1.5-1.5-1.5l-2.2-.2c-.8 0-1.5.8-1.5 1.5 0 .9.7 1.5 1.5 1.5zm-81.5 66.1c-.5 2.6-8.4 3-8.4.2v-21c0-2.5 8.4-2.5 8.4 0v21.2c0 2 3 2 3 0V252c0-7-13-7.1-14.3-1-.6 2.8 0 6 0 8.7v12.6c0 7 13 7.1 14.2.9.4-1.9-2.5-2.7-2.9-.8z" fill="#fff"/><path d="M85.4 263h6.4c1.9 0 1.9-3 0-3h-6.4c-2 0-2 3 0 3zm10.3 0h5.8c2 0 2-3 0-3h-5.8c-2 0-2 3 0 3zm10.3 0h5.2c2 0 2-3 0-3H106c-1.9 0-1.9 3 0 3zm10.2 0h4.8c2 0 2-3 0-3h-4.8c-2 0-2 3 0 3zm10.3 0h4.2c2 0 2-3 0-3h-4.2c-2 0-2 3 0 3zm10.2 0h3.8c1.9 0 1.9-3 0-3h-3.8c-2 0-2 3 0 3zm10.3 0h3.2c2 0 2-3 0-3H147c-2 0-2 3 0 3zm10.3 0h2.6c.9 0 1.5-.6 1.5-1.4s-.6-1.6-1.5-1.6h-2.7c-.8 0-1.4.7-1.4 1.6s.6 1.4 1.4 1.4zm10.2 0h2.2c2 0 2-3 0-3h-2.2c-2 0-2 3 0 3zm-83.7-3.3l4-.3c2-.1 2-3.1 0-3l-4 .3c-1.9.1-1.9 3.1 0 3zm8-.6l5.8-.4c1.9-.1 1.9-3.1 0-3l-5.8.4c-2 .1-2 3.1 0 3zm10.2-.7l5.3-.4c1.9-.1 2-3.1 0-3l-5.3.4c-2 .1-2 3.1 0 3zm10.2-.7l4.8-.3c2-.2 2-3.2 0-3l-4.8.3c-1.9.1-1.9 3.1 0 3zm10.3-.7l4.2-.3c2-.2 2-3.2 0-3l-4.2.3c-2 .1-2 3.1 0 3zm-38.7 9.2l4 .3c2 .1 2-2.9 0-3a5421 5421 0 0 0-4-.3c-1.9-.1-1.9 2.9 0 3zm8 .6l5.8.4c1.9.1 1.9-2.9 0-3l-5.8-.4c-2-.2-2 2.8 0 3zm10.2.7l5.3.4c2 .1 1.9-2.9 0-3l-5.3-.4c-2-.1-2 2.9 0 3zm10.2.7l4.8.3c2 .2 2-2.8 0-3l-4.8-.3c-1.9-.1-1.9 2.9 0 3zm30.7 2.2l3.2.2c.9 0 1.5-.7 1.5-1.5 0-.9-.6-1.5-1.5-1.5l-3.2-.2c-.8 0-1.5.7-1.5 1.5s.7 1.4 1.5 1.5zm20.5 1.4l2.2.1c.8.1 1.5-.7 1.5-1.5s-.7-1.4-1.5-1.5l-2.2-.1c-.8 0-1.5.7-1.5 1.5 0 .9.7 1.4 1.5 1.5z" fill="#fff"/></svg>