<svg xmlns="http://www.w3.org/2000/svg" width="361" height="361"><path d="M91 221a78 78 0 0 1 28-105c6-4 1-12-5-9a88 88 0 0 0-32 119c3 5 12 0 9-5z" fill="#fff"/><path d="M196 249a78 78 0 0 1-105-29c-4-5-12 0-9 5 24 41 77 56 119 32 5-3 0-11-5-8zm-85-42a96 96 0 0 1-10-50c1-15 5-33 18-41 6-4 1-12-5-9-16 10-22 30-23 48a105 105 0 0 0 12 57c3 6 12 1 8-5z" fill="#fff"/><path d="M196 249c-15 8-33 0-46-7-15-8-30-20-39-35-3-6-12-1-8 5a113 113 0 0 0 44 40c16 9 37 15 54 5 5-3 0-11-5-8z" fill="#fff"/><path d="M161 137a3 3 0 1 1-5 0 3 3 0 1 1 5 0zm22-41a5 5 0 0 1-11 0 5 5 0 0 1 11 0zm23 44a5 5 0 0 1-5 4h-1a5 5 0 0 1-5-4v-2a5 5 0 0 1 5-4h1a5 5 0 0 1 5 4v2z" fill="#fff" stroke="#fff" stroke-miterlimit="10"/><path d="M287 217c0 4-3 8-7 8h-55c-4 0-8-4-8-8v-58c1-4 4-8 8-8h55c4 0 7 4 7 8v58z" fill="#fff" stroke="#fff" stroke-width="10" stroke-miterlimit="10"/><path d="M182 197a8 8 0 0 0 8 8h38a8 8 0 0 0 8-8v-23a8 8 0 0 0-8-8h-38a8 8 0 0 0-8 8v23z" fill="#fff" stroke="#fff" stroke-width="10" stroke-miterlimit="10"/><path d="M166 197a8 8 0 0 1 8-8h46a8 8 0 0 1 8 8v13a8 8 0 0 1-8 8h-46a8 8 0 0 1-8-8v-13z" fill="#fff" stroke="#fff" stroke-width="10" stroke-miterlimit="10"/></svg>