<svg xmlns="http://www.w3.org/2000/svg" width="361" height="361"><path d="M236 282H131c-7 0-7 10 0 10h105c7 0 7-10 0-10z" fill="#fff"/><path d="M236 278h-31c-7 0-7 10 0 10h31c7 0 7-10 0-10z" fill="#fff"/><path d="M231 75v209c0 7 10 7 10 0V75c0-7-10-7-10 0zm-87 203h-13c-7 0-7 10 0 10h13c6 0 6-10 0-10z" fill="#fff"/><path d="M126 283v4c0 3 2 5 5 5s5-2 5-5v-4c0-3-2-5-5-5s-5 2-5 5zm67-200l41 11c6 1 9-8 3-10l-41-11c-7-1-9 8-3 10z" fill="#fff"/><path d="M189 77l-3 13c-2 7 8 9 9 3l4-14c2-6-8-8-10-2z" fill="#fff"/><path d="M167 93l43 11c6 2 9-8 2-10l-42-11c-6-2-9 8-3 10z" fill="#fff"/><path d="M164 87l-2 7a5 5 0 0 0 3 6 5 5 0 0 0 6-4l2-6a5 5 0 0 0-3-6 5 5 0 0 0-6 3zm42 12l-2 6a5 5 0 0 0 4 7 5 5 0 0 0 6-4l2-6a5 5 0 0 0-4-7 5 5 0 0 0-6 4zm-16 26l-4 15c-1 4 6 6 7 1l4-14c1-5-6-6-7-2zm-9-13l-3 13c-1 4 5 6 6 1l4-12c1-4-6-6-7-2zm-6 24l-6 21c-1 4 6 6 7 2l5-21c1-4-5-6-7-2zm-8-17l-4 14c-1 5 6 7 7 2l4-14c1-5-6-7-7-2zm-7 25l-5 21c-2 4 5 6 6 2l6-21c1-4-6-6-7-2zm24 6l-6 20c-1 5 6 7 7 2l6-20c1-5-6-6-7-2zm15-13l-4 15c-1 5 6 7 7 2l4-15c1-4-5-6-7-2zm-7 29l-6 20c-1 5 6 7 7 2l5-20c2-5-5-6-6-2zm-39-41l-4 15c-1 4 5 6 6 2l4-15c2-5-5-7-6-2zm-8 28l-5 21c-2 4 5 6 6 1l6-20c1-4-6-6-7-2zm50-44l-2 6c-1 5 5 6 7 2l1-6c1-5-5-7-6-2zm-23-6l-2 6c-1 4 6 6 7 2l2-6c1-5-6-7-7-2zm-7 66l-4 15c-1 5 5 7 7 2l4-15c1-4-6-6-7-2zm38-46l-1 4c0 2 1 4 3 4 2 1 4 0 4-2l1-4c1-2 0-4-2-4-2-1-4 0-5 2zm-46-13l-1 4c0 2 1 4 3 4 1 1 3 0 4-2l1-4c1-2-1-4-2-4-2-1-4 0-5 2z" fill="#fff"/></svg>