<svg xmlns="http://www.w3.org/2000/svg" width="361" height="361"><path d="M214 197c0 3-3 6-6 6H88c-3 0-6-3-6-6v-25c0-3 3-6 6-6h120c3 0 6 3 6 6v25zm73 42c0 1-3 3-6 3H81c-4 0-6-2-6-3v-17c0-2 2-3 6-3h200c3 0 6 1 6 3v17z" fill="#fff" stroke="#fff" stroke-width="10" stroke-miterlimit="10"/><path d="M70 98v165c0 6 10 6 10 0V98c0-7-10-7-10 0zm212 0v166c0 6 10 6 10 0V98c0-7-10-7-10 0zm-60 71v28c0 10 15 10 15 0v-28c0-10-15-10-15 0z" fill="#fff"/><path d="M263 190h-33c-10 0-10 15 0 15h33c9 0 9-15 0-15z" fill="#fff"/><circle cx="254" cy="173" r="14" fill="#fff"/><path d="M215 138c0 3-3 6-7 6H89c-4 0-6-3-6-6v-25c0-3 3-6 6-6h119c4 0 7 3 7 6v25z" fill="#fff" stroke="#fff" stroke-width="10" stroke-miterlimit="10"/><g fill="#fff"><path d="M223 110v28c0 10 15 10 15 0v-28c0-10-15-10-15 0z"/><path d="M264 131h-33c-10 0-10 15 0 15h33c9 0 9-15 0-15z"/><circle cx="255" cy="114" r="14"/></g><path d="M207 146H90c-11 0-9-12-9-20 0-7-3-18 7-21h119c11 0 10 12 10 19 0 9 2 21-10 22-2 0-2 3 0 3 8-1 13-6 13-14v-20c0-7-6-13-13-13H90c-8 0-13 6-13 13v21c0 7 5 13 13 13h117c2 0 2-3 0-3zm0 59H89c-11 0-9-12-9-20 0-7-2-18 7-20l8-1h112c11 0 9 12 9 19 0 9 2 21-9 22-2 0-2 3 0 3 7-1 12-6 12-14v-20c0-7-5-13-12-13H89c-7 0-12 6-12 13v21c0 7 5 13 12 13h118c2 0 2-3 0-3z" fill="#fff"/></svg>