<svg xmlns="http://www.w3.org/2000/svg" width="361" height="361"><path d="M198 103.6l44.4-4.1-3-1.7 25.4 36.7 4.8-4.8L199.8 97c-4.1-1.9-7.7 4.2-3.6 6l69.9 32.6c2.8 1.4 7-1.6 4.7-4.8l-25.4-36.7c-.7-1-1.8-1.8-3-1.7L198 96.6c-4.5.5-4.5 7.5 0 7z" fill="#fff"/><path d="M228.6 117.1l-13 26c-2.1 4.1 4 7.7 6 3.6l13-26c2-4.1-4-7.6-6-3.6zm-86.8-10.7L178 209.9c2.1 6 11.8 3.4 9.6-2.7l-36.2-103.5c-2.1-6-11.8-3.4-9.6 2.7zm98-12.9l-17.6 13c-3.6 2.6 0 8.6 3.6 6l17.6-13c3.6-2.6.1-8.7-3.5-6z" fill="#fff"/><path d="M247.7 121.1l-1-19.7c-.1-4.5-7.1-4.5-7 0l1 19.7c.2 4.5 7.2 4.5 7 0zm-63.3 99.5l-45-78-4.3 7.5h90l-4.3-7.5-45 78c-3.2 5.6 5.4 10.6 8.6 5l45-78a5 5 0 0 0-4.3-7.5h-90a5 5 0 0 0-4.3 7.5l45 78c3.2 5.6 11.9.6 8.6-5zm40.8 61.3h-90l1.2 9.8 21.9-4.1 15.2-3 5.5-1c2.2-.4 2.9.2-.6-.4l45.4 8.5c6.3 1.2 9-8.4 2.7-9.6l-45.5-8.6c-2.5-.4-5.6.6-8 1l-15.5 3-23.7 4.6c-5.7 1-4.2 9.8 1.3 9.8h90c6.5 0 6.5-10 0-10z" fill="#fff"/><path d="M175 220.3v55.5c0 6.4 10 6.4 10 0v-55.5c0-6.4-10-6.4-10 0zM147.2 99L83.5 79.4c-6.2-1.9-8.8 7.8-2.7 9.7l63.7 19.5c6.2 2 8.8-7.7 2.7-9.6z" fill="#fff"/></svg>