<svg xmlns="http://www.w3.org/2000/svg" width="361" height="361"><path d="M159 167h10c2 0 2-3 0-3h-10c-2 0-2 3 0 3zm0-14h10c2 0 2-3 0-3h-10c-2 0-2 3 0 3zm0-7h10c2 0 2-3 0-3h-10c-2 0-2 3 0 3zm0 14h10c2 0 2-3 0-3h-10c-2 0-2 3 0 3z" fill="#fff"/><path d="M248 137a67 67 0 0 0-95-60c-20 9-35 28-38 49-2 10-1 19-1 29v119a14 14 0 0 0 9 14h95c9 0 23 3 28-6 4-6 2-16 2-24V137c1-6-9-6-10 0v138c0 4-6 3-8 3H130c-3 0-6 1-6-3V136a56 56 0 0 1 10-31 58 58 0 0 1 65-21 57 57 0 0 1 39 53c0 7 10 7 10 0z" fill="#fff"/><path d="M232 261V153l1-12a59 59 0 0 0-8-30 51 51 0 0 0-93 14c-3 10-2 21-2 32v104c0 2 3 2 3 0V152c0-14 0-28 8-40a49 49 0 0 1 61-18 48 48 0 0 1 23 24l5 16-1 14v113c0 2 3 2 3 0z" fill="#fff"/><path d="M139 260a8 8 0 0 0-8-8h-7a8 8 0 0 0-8 8v24a8 8 0 0 0 8 8h6a8 8 0 0 0 9-8v-24zm107 0a8 8 0 0 0-8-8h-7a8 8 0 0 0-8 8v24a8 8 0 0 0 8 8h7a8 8 0 0 0 8-8v-24zm-132-93h33c5 0 5-7 0-7h-33c-4 0-4 7 0 7zm0-10h33c5 0 5-7 0-7h-33c-4 0-4 7 0 7zm0-10h33c5 0 5-7 0-7h-33c-4 0-4 7 0 7zm101 20h33c4 0 4-7 0-7h-33c-5 0-5 7 0 7zm0-10h33c4 0 4-7 0-7h-33c-5 0-5 7 0 7zm0-10h33c4 0 4-7 0-7h-33c-5 0-5 7 0 7z" fill="#fff"/><path d="M142 144v21c0 6 10 6 10 0v-21c0-7-10-7-10 0zm68 0v21c0 6 10 6 10 0v-21c0-7-10-7-10 0zm-34 0v21c0 6 10 6 10 0v-21c0-7-10-7-10 0zm17 23h10c2 0 2-3 0-3h-10c-2 0-2 3 0 3zm0-14h10c2 0 2-3 0-3h-10c-2 0-2 3 0 3zm0-7h10c2 0 2-3 0-3h-10c-2 0-2 3 0 3zm0 14h10c2 0 2-3 0-3h-10c-2 0-2 3 0 3zm-46 77a34 34 0 0 0 48 30 33 33 0 0 0 18-26l1-18v-19c0-7-7-9-12-9h-42c-4 0-7 0-10 2-3 4-3 8-3 12v28c0 6 10 6 10 0l1-19v-14c0-1-3 1-1 1h48c-1 0-1-2-1 0v21c0 7 1 14-2 20a24 24 0 0 1-28 13 23 23 0 0 1-17-22c0-7-10-7-10 0zm17-163l7 18c2 4 8 2 7-2l-7-18c-2-4-8-2-7 2zm28-2l-7 18c-2 4 5 6 7 2l6-18c2-4-5-6-6-2zm-40 121h56c7 0 7-10 0-10h-55c-7 0-7 10 0 10z" fill="#fff"/></svg>