<svg xmlns="http://www.w3.org/2000/svg" width="361" height="361"><path d="M165.7 168.7h30.2c9.7 0 9.7-15 0-15h-30.1c-9.7 0-9.8 15-.1 15zm13.3-93c3.4 3 6.4 6.8 7.6 11.3 1.5 5.2-4 11.1-7.6 14.4a37.9 37.9 0 0 0-7.8 9.9c-3.6 6.6-2 13.3 2 19.3 2.6 3.7 8.6.2 6.1-3.6-2.7-4-4.1-7.7-2-12.2 1.3-2.8 3.3-5.2 5.5-7.4 2.4-2.4 4.7-4.8 6.8-7.5 7.6-10.2 3-21.4-5.7-29.1-3.4-3-8.3 2-5 5zm33.7 6.6c3.1 2.8 6.5 6.7 6.8 11 .2 4.2-4 8.6-6.8 11-8.1 7.3-11.4 16.8-5.1 26.3 2.5 3.7 8.6.2 6-3.6-4.3-6.4-2.2-11.3 2.8-16.5 2.2-2.3 4.5-4.5 6.4-7 6.7-9.2 2.5-19.2-5.2-26.1-3.3-3-8.3 2-5 5zm-69.3 0c3.1 2.8 6.4 6.7 6.7 11 .4 4.2-3.9 8.6-6.7 11-8.1 7.3-11.5 16.8-5.1 26.3 2.5 3.7 8.5.2 6-3.6-4.3-6.4-2.2-11.3 2.8-16.5 2.2-2.3 4.5-4.5 6.4-7 6.7-9.2 2.5-19.2-5.2-26.1-3.3-3-8.3 2-5 5z" fill="#fff"/><g fill="#fff"><path d="M101.5 192.8c0-3.3 3.7-5.6 6.2-7.1a66.6 66.6 0 0 1 18-7 213 213 0 0 1 55.1-6c4.5-.1 4.5-7.1 0-7a213 213 0 0 0-62 7.7c-9 2.7-23.9 8-24.3 19.4-.2 4.5 6.8 4.5 7 0z"/><path d="M267.2 192.8c-.5-11.5-15.4-16.6-24.4-19.4a208.5 208.5 0 0 0-62-7.8c-4.5 0-4.5 7 0 7a223 223 0 0 1 55.2 6.1c6 1.6 11.8 3.5 17.2 6.5 2.7 1.5 6.9 4 7 7.6.2 4.5 7.2 4.5 7 0z"/></g><path d="M282.6 208.2h-12.9a7.6 7.6 0 0 0-7.5 7.4 7.6 7.6 0 0 0 7.4 7.6h12.9a7.6 7.6 0 0 0 7.5-7.5 7.6 7.6 0 0 0-7.4-7.5z" fill="#fff"/><path d="M264.6 281a5.5 5.5 0 0 1-5.6 5.5H102.5A5.5 5.5 0 0 1 97 281v-77.6a5.5 5.5 0 0 1 5.5-5.5H259a5.5 5.5 0 0 1 5.6 5.5V281z" fill="none" stroke="#fff" stroke-width="10" stroke-miterlimit="10"/><path d="M91.8 202.9h177.9c6.4 0 6.4-10 0-10H91.8c-6.4 0-6.4 10 0 10zm0 5.3H79a7.6 7.6 0 0 0-7.5 7.4 7.6 7.6 0 0 0 7.4 7.6h12.9a7.6 7.6 0 0 0 7.5-7.5 7.6 7.6 0 0 0-7.4-7.5z" fill="#fff"/></svg>