<svg xmlns="http://www.w3.org/2000/svg" width="361" height="361"><path d="M286.4 219.2a4.2 4.2 0 0 1-4.2 4.2H79.5a4.2 4.2 0 0 1-4.2-4.2v-17.3a4.2 4.2 0 0 1 4.2-4.2h202.7a4.2 4.2 0 0 1 4.2 4.2v17.3z" fill="none" stroke="#fff" stroke-width="10" stroke-miterlimit="10"/><path d="M123.5 197.8a2.5 2.5 0 0 1-2.5-2.4l40-40.7v-78a2.5 2.5 0 0 1 2.5-2.5h34.7a2.5 2.5 0 0 1 2.5 2.5v78l40 40.7a2.5 2.5 0 0 1-2.5 2.4H123.5z" fill="none" stroke="#fff" stroke-width="10" stroke-linecap="round" stroke-linejoin="round" stroke-miterlimit="10"/><path d="M178.5 247.6c2.8 2.4 5.7 5.8 6 9.5.2 3.6-3.6 7.5-6 9.7-7.4 6.5-10.2 15-4.5 23.6 2.4 3.8 8.5.3 6-3.5-4-6-1.6-10.4 3.1-15a39.6 39.6 0 0 0 5.9-6.8c5.1-8 .9-16.7-5.5-22.5-3.4-3-8.3 2-5 5zm26.5 5.2c2.3 2 4.8 4.9 5 8 .3 3.1-3 6.4-5.1 8.3-6.6 5.9-9 13.7-4 21.3 2.4 3.8 8.5.3 6-3.5-3.3-5-1.3-8.7 2.6-12.6a38.5 38.5 0 0 0 5-5.9c5-7.2 1.4-15.2-4.6-20.6-3.3-3-8.3 2-5 5zm-54.4 0c2.3 2 4.9 4.9 5.1 8 .3 3.1-3 6.4-5.2 8.3-6.5 5.9-9 13.7-4 21.3 2.5 3.8 8.6.3 6-3.5-3.3-5-1.3-8.7 2.7-12.6a38.5 38.5 0 0 0 5-5.9c5-7.2 1.3-15.2-4.6-20.6-3.4-3-8.3 2-5 5zm16.5-38.8H181c4.5 0 4.5-7 0-7h-14c-4.4 0-4.4 7 0 7zm32.7 0h2.5c2 0 3.5-1.5 3.5-3.4s-1.6-3.5-3.5-3.5h-2.5c-1.9 0-3.5 1.5-3.5 3.5s1.6 3.5 3.5 3.5zm12.5 0h2.3c1.9 0 3.5-1.5 3.5-3.4s-1.6-3.5-3.5-3.5h-2.3c-1.9 0-3.5 1.5-3.5 3.5s1.6 3.5 3.5 3.5z" fill="#fff"/></svg>