<svg xmlns="http://www.w3.org/2000/svg" width="361" height="361"><path d="M168 264H98v-59h70c1 0 0-1 0 0v60c0 4 7 4 7 0v-56c0-5 0-11-7-11H98c-5 0-7 4-7 8v57c0 11 17 8 24 8h45c6 0 13 1 15-6 0-4-6-6-7-2z" fill="#fff"/><path d="M157 250c0 13-13 23-24 13a15 15 0 0 1-3-18l7-12 2-6 1-3h-2l2 2 2 8 2 3c1 1 3 0 4-1l2-3 1-2-2-1a29 29 0 0 1 8 20c0 2 3 2 3 0a32 32 0 0 0-9-22h-1a25 25 0 0 0-4 6l-2-5a23 23 0 0 0-2-4c0-2-1-3-3-4l-1 1c-2 1-2 4-3 7-2 5-3 9-7 13a17 17 0 0 0 1 22c5 5 13 8 19 5 8-3 12-11 12-19 0-2-3-2-3 0z" fill="#fff"/><path d="M150 258c-1 4-3 9-8 9-6 1-10-7-8-12l4-6c1-2 1-5 3-7l-2 1c2 1 1 8 4 8 3-1 3-4 4-5h-2c3 3 4 7 5 11 0 3 3 3 3 1a20 20 0 0 0-6-14h-2l-1 1a24 24 0 0 1 0 2c-1-3-2-6-4-7a2 2 0 0 0-1 0l-2 5a25 25 0 0 1-4 8c-3 3-3 9 0 13 8 8 19 2 20-9 0-1-3-1-3 1z" fill="#fff"/><path d="M128 262c-6 9-18-2-12-11a17 17 0 0 0 3-4l2-6h-2c3 2 1 7 4 8 2 1 3 0 5-1 1 0 1-3-1-3a3 3 0 0 0-1 1c-2 1-2-1-2-3l-3-5a2 2 0 0 0-2 0l-4 11c-3 4-5 7-3 12 3 9 14 9 19 2 1-1-1-3-3-1z" fill="#fff"/><path d="M130 241c-7 1-6-8-9-11h-2c-2 1-3 7-4 10a18 18 0 0 0-3-5h-2a25 25 0 0 0-6 26c4 8 11 10 19 7 2-1 1-3-1-3-7 3-12 1-15-7-3-7 0-16 5-21h-2l2 3a6 6 0 0 0 3 3c4 2 4-10 6-11h-2l4 8c1 3 4 5 7 4 2 0 2-3 0-3z" fill="#fff"/><path d="M137 231l-5-12c-1-2-1-5-3-7h-1c-4 1-6 9-6 13-1 2-3-2-3-3l-2-3h-2c-6 6-9 14-9 23 0 2 3 2 3 0a30 30 0 0 1 8-21h-2l1 3a17 17 0 0 0 3 4c2 1 4 1 5-1 1-3 1-7 3-10a14 14 0 0 1 2-3c-2 0-2 0-1 1v2c2 5 4 11 7 15 1 2 3 0 2-1zm27 2v13c0 2 3 2 3 0v-13c0-2-3-2-3 0z" fill="#fff"/><path d="M166 234h2c2 0 2-3 0-3h-2c-2 0-2 3 0 3z" fill="#fff"/><path d="M278 283c0-1 3-1 1-1H78c2 0 2 4 2 2V78c0 2-3 2 0 2h22l-4-3 10 13 5 7c2 3 6 3 9 3h23l2 1c1 0 2 1 0 0l2 1 32 25 2 1-1-1 5 9c0 2-1-3-1 0v6l1 45v20c0 3-1 8 1 10s5 6 8 6h84c1 0-2-4-2-2v63c0 7 10 7 10 0v-56c0-4 1-9-2-12-2-4-7-3-11-3h-79l3 1-4-4 2 4-1-74c0-8-2-16-9-21l-33-25a23 23 0 0 0-14-4h-23l5 2-11-14-4-5c-2-3-4-3-7-3H80c-6 0-9 3-9 8v206c0 10 10 8 17 8h176c7 0 22 3 24-6 1-7-9-9-10-3z" fill="#fff"/><path d="M195 217h92c6 0 6-10 0-10h-92c-7 0-7 10 0 10zm-56-85c-1 4-6 2-9 2h-9c-3 0-2-15-2-17 0-5 15-3 18-3s2 16 2 18 3 2 3 0v-12c0-4 0-9-5-9h-12c-5 0-8 1-9 6v12c0 3 0 8 5 8h12c5 0 8 0 9-5 0-2-3-2-3 0zm26 15c0 4-6 3-8 3h-9c-4 0-2-16-2-18 0-5 14-3 17-3 4 1 2 16 2 18s3 2 3 0v-12c0-3 0-8-4-8h-13c-4 0-7 0-8 5v12c0 4 0 9 5 9h12c5 0 8-1 8-6 1-2-2-2-3 0zm-29 23c-1 5-7 3-9 3h-9c-3 0-2-16-2-18 0-4 15-2 18-2s1 16 1 18 4 2 4 0v-13c0-3-1-8-5-8h-13c-4 0-7 0-8 6v12c0 3 0 8 5 8h12c4 0 8 0 8-6 1-1-2-1-3 1z" fill="#fff"/></svg>