<svg xmlns="http://www.w3.org/2000/svg" width="361" height="361"><path d="M284.2 154.5c-1.2 2.4-5 0-6.6-.4l-14-4.6-43-14.2-64-21c-1.1-.3 1-7.8 2.7-7.3l1.7.6 10.8 3.5 40.1 13.2 72.4 23.8c2.9 1 .2 5.2-.5 7.3-1.4 4.3 5.4 6.1 6.8 1.8 1.8-5.6 4.3-13-3.5-15.5l-6.6-2.2-35.9-11.8-79.2-26c-2.5-.8-4.9-1.9-7.5-1.7-5.9.5-11.3 12.2-7.9 17.3 3.8 5.5 14.4 7 20.3 8.9l86.3 28.3 19.5 6.4c5.2 1.7 11 3.6 14.1-2.8 2-4-4-7.6-6-3.6z" fill="#fff"/><path fill="#fff" stroke="#fff" stroke-miterlimit="10" d="M163.8 117.6l-8.6-2.9 10.1-6.6 8.6 2.9zm18.4 6l-8.7-2.8 10.2-6.6 8.6 2.8zm17.8 6.1l-8.6-2.8 10.1-6.6 8.7 2.8zm18.5 5.8l-8.7-2.8L220 126l8.6 2.8zm17.8 5.8l-8.6-2.9 10.1-6.6 8.6 2.9zm18.5 5.9l-8.6-2.8 10.1-6.6 8.7 2.8zm20 6.7l-8.6-2.8 10.2-6.6 8.6 2.8z"/><g fill="#fff"><path d="M279.2 251.6c.2-1 1-.6-.8-.6H154.2c.9 0 .6.9.6-1.1v-82.7c0-.5-1.2.2 0 .2h124.7c.8 0-.3-1.1-.3 0v84.2c0 6.5 10 6.5 10 0v-74.4c0-8.2 1.4-19.8-10.3-19.8H154.3c-6 0-9.5 5-9.5 10.6v78.6c0 3.8-.6 9 2.7 11.7 3.4 2.6 6.3 2.7 10.2 2.7H272c7.7 0 16 .7 17.3-9.4.9-6.3-9.1-6.2-10 0z"/><path d="M281.6 173.2c-.5 2.9-4.6 1.7-6.8 1.7h-121c-1.4 0-1.2-7.7-.1-7.7h127c1.4 0 .8 6 .8 6.9 0 4.5 7 4.5 7 0 0-5.8.2-13.9-7.9-13.9H155.1c-5.1 0-9 3-9 8.5 0 5.8 0 13.2 8 13.2h115.4c6.6 0 17.4 2 18.8-6.9.7-4.4-6-6.3-6.7-1.8z"/><path stroke="#fff" stroke-miterlimit="10" d="M161.3 175.8h-9l7.5-9.4h9.1zm19.4 0h-9.1l7.6-9.4h9zm18.9.2h-9.1l7.5-9.4h9.1zm19.3-.2h-9.1l7.6-9.4h9zm18.7-.1h-9l7.5-9.5h9.1zm19.5-.2H248l7.6-9.4h9zm18.1.2h-9l7.5-9.5h9.1z"/></g><g fill="#fff"><path d="M99.9 254l17.3 34c1.4 2.6 5.8 2.1 6.4-.8l7.4-37.5c.6-2.8-1.6-4.7-4.3-4.3l-24.7 3.4c-4.5.7-2.6 7.4 1.8 6.8l24.8-3.5-4.3-4.3-7.4 37.5 6.4-.8-17.4-34c-2-4-8-.5-6 3.5z"/><path d="M94.5 245.3c1 4.9 4.4 8.3 9.3 9.6 2.9.8 6.6-.2 9.5-.7 7.4-1 16.2-.7 19.7-8.6 2.4-5.5-.4-14.8-1.2-20.4l-12.3-87.9L111 76c-1.1-8.2-9.9-7.3-16-6.4-5.8.8-15.9.5-20.5 4.5-5.1 4.4-2 14.5-1.1 20.2l21 150.7v.3c.7 4.4 7.4 2.5 6.8-1.9L80.6 95.9 79 84.1c-.5-3.5-1.3-4.7 3.3-5.7 5.7-1.2 11.7-1.8 17.5-2.5 4.6-.5 4.4 1.9 4.9 5.2l10.6 75.7 9.5 68.5 2.1 15c.8 5.3-5 5.8-8.8 6.3-5.3.7-15.2 4.3-16.9-3.2-1-4.4-7.7-2.5-6.7 1.9zm17.5 24l8.1 16 3.5-17.6z"/><path d="M109 271.1l8 15.9c1.4 2.6 6 2.1 6.5-.8l3.4-17.5c.6-2.8-1.6-4.7-4.3-4.3l-11.5 1.6c-4.5.6-2.6 7.4 1.8 6.7l11.6-1.6-4.3-4.3-3.5 17.5 6.4-.8-8-16c-2.1-4-8.2-.4-6.1 3.6z"/></g></svg>