<svg xmlns="http://www.w3.org/2000/svg" width="361" height="361"><path d="M273 272.7s2.4 13.7-31.6 13.7H120c-34 0-31.6-13.7-31.6-13.7H273z" fill="none" stroke="#fff" stroke-width="10" stroke-linecap="round" stroke-linejoin="round" stroke-miterlimit="10"/><path d="M246 215.6a43.3 43.3 0 0 1-43.3 43.3h-43a43.3 43.3 0 0 1-43.2-43.3v-60.7c0-24 1.6-20.6 25.5-20.6h78.5c23.9 0 25.5-3.3 25.5 20.6v60.7zm23.8-61.7a16.7 16.7 0 0 1 16.7 16.7v16.6a16.7 16.7 0 0 1-16.7 16.7h-13.4c-9.3 0-9.9-.7-9.9-10v-30.2c0-9.2.6-9.8 9.9-9.8h13.4z" fill="none" stroke="#fff" stroke-width="10" stroke-miterlimit="10"/><path d="M179.5 75.8c2 2.5 4.4 7.7 3.7 11.9-.6 3.2-2.9 6.6-4.3 8.5-5.4 7.3-6.5 15-2.8 23.3 2 4 8 .5 6-3.6-4.3-9.6 3.2-15 6.6-22.7 3.4-7.9.8-15.8-4.2-22.3-2.8-3.6-7.7 1.4-5 5zm18.2 4.6a17 17 0 0 1 3.9 9c.1 2.1-1 4.4-2 6.2-.2.4-2.3 3.3-1.4 2.3a19.7 19.7 0 0 0-3 21.6c1.8 4 7.9.5 6-3.6-3.6-8.1 2.6-12.7 5.6-19.1 3.2-6.8 1.4-14.1-3-20-2.8-3.4-8.8 0-6 3.6zm-38.5 0a17 17 0 0 1 4 9 15 15 0 0 1-2 6.2c-.3.4-2.4 3.3-1.5 2.3a19.7 19.7 0 0 0-3 21.6c1.9 4 8 .5 6-3.6-3.6-8.1 2.6-12.7 5.6-19.1 3.2-6.8 1.5-14.1-3-20-2.7-3.4-8.8 0-6 3.6z" fill="#fff"/></svg>