<svg xmlns="http://www.w3.org/2000/svg" width="361" height="361"><path d="M232 206c0 3-6 2-8 2h-94v-86c0-2 5-1 6-1h85c3 0 11-2 11 2v84c0 5 7 5 7 0v-75c0-7 2-18-9-18h-97c-3 0-9 1-10 6-2 9 0 19 0 29v46c0 8-3 20 8 20h96c4 0 9 0 11-3a10 10 0 0 0 1-4c1-4-6-6-7-2z" fill="#fff"/><path d="M252 278c0 5-3 9-8 9H118a9 9 0 0 1-9-9V103c0-5 4-8 9-8h126c5 0 8 3 8 8v175z" fill="none" stroke="#fff" stroke-width="10" stroke-miterlimit="10"/><path d="M216 187c0 10-4 19-13 23-8 5-19 1-25-6a21 21 0 0 1 0-27 65 65 0 0 0 10-20l1-5 1-2c1-2 0 0-1-1 3 3 4 8 5 12 1 2 2 9 6 7 3-2 5-7 7-10l-1 1a48 48 0 0 1 2 2 30 30 0 0 1 4 8 46 46 0 0 1 4 18c0 2 3 2 3 0 0-11-4-22-11-30-4-4-6 4-8 6 0 2-1 3-2 1l-2-9c-1-3-3-7-5-8-4-3-8 13-8 15a43 43 0 0 1-7 13 23 23 0 0 0-6 12c-1 10 4 19 13 25a23 23 0 0 0 24 0c8-5 12-16 12-25 0-2-3-2-3 0z" fill="#fff"/><path d="M205 197c0 7-4 14-11 15-7 0-12-6-13-12s4-9 6-14l4-11h-1c3 2 1 12 6 12l3-2a30 30 0 0 0 1-3l1-1h-2a24 24 0 0 1 6 16c0 2 3 2 3 0a27 27 0 0 0-7-18l-2-1-3 5c-1-3-2-9-5-10h-2l-2 6a32 32 0 0 1-5 11c-5 5-5 12-1 18 4 5 10 8 17 6s10-10 10-17c0-2-3-2-3 0z" fill="#fff"/><path d="M175 204c-9 12-27 0-21-12l6-9c1-3 1-8 4-10h-2c4 2 1 10 5 12 3 2 4-1 6-1 2-1 1-3-1-3l-1 1c-3 2-3-2-4-4 0-2-2-7-4-8l-2 1-2 4a35 35 0 0 1-4 10c-3 6-6 10-4 17 2 5 7 9 12 10 6 1 11-2 14-7 2-1-1-3-2-1z" fill="#fff"/><path d="M176 175c-6 1-8-7-10-12 0-1-2-6-4-5l-4 5a29 29 0 0 0-1 4l-2 6c-2-2-2-7-5-8l-1 1a35 35 0 0 0-8 35 22 22 0 0 0 9 12c6 3 11 1 16-1 2-1 1-4-1-3-6 3-12 3-18-3s-6-15-4-23c0-4 2-7 4-11l2-2c1-1 1-2-1-2l1 1c1 3 3 6 5 7 3 1 4-2 5-4l3-10h1c1-1 0-2-1-1l1 2c2 6 5 16 13 15 2 0 2-3 0-3z" fill="#fff"/><path d="M186 160l-7-16c-1-4-1-8-4-11-1-2-3 1-4 2-4 5-4 11-6 17-1 2-5-5-5-6-1-1-2-4-4-4l-5 5a46 46 0 0 0-8 28c0 2 3 2 3 0a45 45 0 0 1 4-19 38 38 0 0 1 6-9v-2 1c2 3 5 11 9 9 3 0 3-4 3-6a35 35 0 0 1 4-10l1-3v-1c3 4 3 9 5 13 1 5 3 9 6 13 1 2 3 0 2-2zm38 98c-1-16-20-12-31-12h-41c-7 0-14 3-14 11v19c0 7 3 15 12 15h60c7 0 14-5 14-13v-20c0-5-7-5-7 0v19c0 3-1 7-5 7h-62c-7 0-5-12-5-17 0-6-2-14 6-14h47c5 0 18-3 19 5 0 4 7 4 7 0zm1-96v19c0 2 3 2 3 0v-19c0-2-3-2-3 0z" fill="#fff"/><path d="M228 163h3c2 0 2-3 0-3h-3c-2 0-2 3 0 3zm-27-71a3 3 0 0 1-3 3h-35a3 3 0 0 1-3-3V72a3 3 0 0 1 3-3h35a3 3 0 0 1 3 3v20z" fill="#fff"/></svg>