<svg xmlns="http://www.w3.org/2000/svg" width="361" height="361"><path d="M100.8 256.7c.4 9.5 6.8 17.8 16.5 19.2 2.6.4 5.3.3 8 .3h71.3l7.1-.1c10.4-.5 17.5-9.6 18-19.4.2-6.5-9.8-6.5-10 0-.6 10.5-10.6 9.5-18 9.5h-64.3c-7.6 0-18.2 1.2-18.7-9.5-.3-6.5-10.3-6.5-10 0z" fill="#fff"/><path d="M212 280.7c-.3 2.5-23.2 1-25.3 1h-75c-2.1 0-1-14.1-1-15.4V104.7c0-1-.6-4.5 1-4.7 2.4-.2 5 0 7.4 0h85c1.6 0 6.1-.9 7.6.3.8.7.2 3.9.2 4.7v175.7c0 6.5 10 6.5 10 0V103.8c0-3.1 0-5.8-1.7-8.7-2.5-4.7-7.8-5.1-12.4-5.1H124c-8.7 0-23.4-2-23.4 11v177.7c0 4 .7 7.7 4 10.5 3.4 2.8 7.4 2.5 11.4 2.5h82.4c9.4 0 22.1 2 23.4-11 .7-6.4-9.3-6.3-10 0z" fill="#fff"/><path d="M110 126.8h102.4c2 0 2-3 0-3H110c-1.9 0-1.9 3 0 3zm111 18.4l16.2-3.5 10.8-2.4 3.7-.8c1.5-.4 2.1.2.4-.1 4 .7 3.3 5.1 3.3 8V229c0 2.6.7 6.5-1.2 8.6-1.3 1.5-3.7 1-5.6 1h-29.5c-9.7 0-9.8 15 0 15 11.1 0 22.5.7 33.6 0a19.2 19.2 0 0 0 17.7-19.3v-91c0-13.7-11.6-21.7-24.2-19l-29 6.5c-9.5 2-5.6 16.5 3.8 14.5z" fill="#fff"/><path d="M212 90.7a8.2 8.2 0 0 0-8.1-7.3h-6.8a8.1 8.1 0 0 0-5.4-2h-9.6l-1.5.1a8.2 8.2 0 0 0-8.1-7.6h-20.3a8.2 8.2 0 0 0-8.1 6.8c-1.2-.7-2.8-.7-6.8-1h-18.6c-4.6 0-7.7 4.1-7.8 11h-1v34.6h102.5V90.7h-.4z" fill="#fff" stroke="#fff" stroke-miterlimit="10"/></svg>