<svg xmlns="http://www.w3.org/2000/svg" width="361" height="361"><path d="M218 77l-47 141-4 13c-3 9 11 13 14 4l47-141 5-13c3-9-12-13-15-4z" fill="#fff"/><path d="M223 84l48 31c8 5 15-8 7-13l-48-31c-8-5-16 8-7 13zM118 261c1 8 5 14 13 16l8 1h60l7-1c8-1 13-8 14-16 0-7-10-7-10 0-1 8-9 7-14 7h-53c-6 0-14 1-15-7 0-7-10-7-10 0zm93-27c1 5-6 5-8 5l-12 2c-6 2-6-12-7-16s18-6 20-7c6-1 7 13 8 17 0 2 3 1 2-1l-2-13c-1-4-3-7-8-6l-15 3c-4 1-8 2-8 7s2 9 3 14c1 4 3 6 7 5l15-3c4 0 9-1 8-7h-3z" fill="#fff"/><path d="M131 262c-4-1-1-8-1-10l2-12c1-5 14-1 18 0 5 1-1 19-1 22-1 5-14 1-18 0-2 0-3 3-1 3l14 2c4 1 7-1 8-5l2-16c1-4 1-7-3-9-5-2-10-2-14-2-4-1-7 0-8 5l-2 15c-1 4-2 8 3 10 2 0 3-2 1-3zm71-3c1 4-6 4-8 5l-11 3c-6 2-7-11-8-15s17-7 20-8c5-1 6 12 7 16 1 1 4 1 3-1-1-6-2-20-11-18l-14 4c-4 1-9 2-8 7l3 12c1 4 3 8 8 6l14-4c4-1 9-2 8-7 0-2-3-2-3 0z" fill="#fff"/><path d="M154 263c-4-1-1-8-1-10l3-12c1-5 14-1 17 0 5 1-1 19-1 22-1 5-14 1-18 0-2 0-3 2-1 3l14 2c4 1 7 0 8-4l3-16c0-4 1-8-4-10l-14-2c-4-1-7 0-7 4l-3 16c-1 4-2 8 3 10 2 0 3-2 1-3z" fill="#fff"/><path d="M156 221c0-3 6-4 8-5l9-3c5-2 7 10 8 13 2 4-15 8-17 9-5 1-7-11-8-14-1-2-3-1-3 1 2 5 4 18 12 16l13-5c4-1 7-3 6-7 0-4-3-8-4-12-1-3-3-5-7-4l-13 5c-4 1-7 2-7 7 1 2 3 1 3-1z" fill="#fff"/><path d="M128 226c-3-3 1-8 3-10a48639 48639 0 0 0 5-10c4-5 14 4 18 6 3 2-8 17-9 20-4 5-14-4-17-6-2-1-4 1-2 2l11 7c4 2 7 3 10-1l8-13c2-4 4-8 0-11l-11-7c-4-2-7-3-10 1l-8 13c-2 4-4 8 0 11 1 1 3-1 2-2z" fill="#fff"/><path d="M210 282h-83V132h83v150c0 6 10 6 10 0V132c0-7-6-10-12-10h-78c-7 0-13 2-13 10v150c0 10 11 10 18 10h66c8 0 17 1 19-10 1-7-9-7-10 0z" fill="#fff"/><path d="M128 176h85c2 0 2-3 0-3h-85c-2 0-2 3 0 3z" fill="#fff"/></svg>