<svg xmlns="http://www.w3.org/2000/svg" width="361" height="361"><path d="M193 166h-50c-6 0-6 10 0 10h50c7 0 7-10 0-10z" fill="#fff"/><path d="M290 228c-16-31-42-56-77-56H103l5 7 10-47-5 3h73c5 0 11-1 12-7 3-8 2-18-6-21h-89c-2-1-5 1-7 2l-3 6-16 75-7 33c-1 6 0 12 6 15 8 3 15 3 23 3h174c8 0 21-1 17-12-1-6-11-4-9 3-1-2 1-1-1-1H104c-4 0-25 1-24-4l15-72 7-34 1-3c0-2 0-1 2-1h84v8h-76c-2 0-5 2-5 4l-10 47c-1 3 2 6 5 6h109c10 0 21 2 30 7 18 9 30 26 39 44 3 5 12 0 9-5zM90 252h197c7 0 7-10 0-10H90c-6 0-6 10 0 10z" fill="#fff"/></svg>