<svg xmlns="http://www.w3.org/2000/svg" width="361" height="361"><path d="M269 262c0 4 3 8 7 8h11c3-3 4-6 4-10V101c-1-4-4-7-9-7-3 0-8 0-10 2-5 5-3 14-3 21v145c0 4 7 4 7 0V105c0-5 8-5 8-2v159c0 2-8 3-8 0-1-5-8-5-7 0zm-80-117l52-22c1-1 0-4-2-3l-51 22c-2 1 0 4 1 3zm-2 19l44 38c1 1 3-1 2-2l-44-38c-2-1-4 1-3 2zm-16-5c-1 3-6 2-8 2-3-1-4-3-4-6l2-12c0-3 6-2 7-2 3 1 4 3 4 6l-1 12c-1 2 2 2 3 0l1-9c0-3 1-6-1-9-1-3-5-3-8-3-4 0-7 1-8 5l-1 8c-1 4-2 7 0 10s6 3 8 3c4 0 7 0 9-5 0-1-3-2-3 0z" fill="#fff"/><path d="M169 140l-3 23c0 2 3 2 3 0l3-23c0-2-3-2-3 0zm-84 31l7 1c3 0 5-3 5-5 0-3-2-5-5-5l-7-1c-2 0-5 3-5 5 0 3 3 5 5 5zm50 7l7 1c3 0 5-3 5-5 0-3-2-5-5-5l-7-1c-3-1-5 2-5 5s2 4 5 5z" fill="#fff"/><path d="M153 166c-1 4-9 1-11 1l-22-3-39-5c-5-1-3-7-2-10l2-19c0-4 30 2 32 2l40 6c5 0 3 7 2 10l-2 19c-1 4 6 4 7 0l2-18c1-6 3-14-4-17-3-2-8-2-11-2l-21-3-40-5c-6-1-11 2-12 8l-2 19c-1 3-2 8-1 11 2 4 5 5 9 6l27 3 33 5c8 1 17 3 20-6 1-5-6-7-7-2z" fill="#fff"/><path d="M85 140l33 4c2 0 2-3 0-3l-33-4c-2-1-2 2 0 3zm1-5l32 4c2 0 2-3 0-3l-32-4c-2 0-2 3 0 3zm-1 10l32 4c2 0 2-3 0-3l-32-4c-2-1-2 2 0 3zm22-46v29c0 5 7 5 7 1V99c0-4-7-4-7 0z" fill="#fff"/><path d="M100 101h21c4 0 4-7 0-7h-21c-5 0-5 7 0 7zm-19 71l65 9v-3l-65-9c-2 0-2 3 0 3z" fill="#fff"/></svg>