<svg xmlns="http://www.w3.org/2000/svg" width="361" height="361"><path d="M123.5 216.6v-66.1c0-4.5-.3-8.7-4.1-12-4.6-3.7-12.3-2.4-17.9-2.4-5.6 0-12.6-1.1-17.8 1.7-6.4 3.5-5 12.2-5 18.3 0 6.4 10 6.4 10 0 0-2-1.4-10 1.4-10h16.2c1.8 0 7.2-1.1 7.2 1.7v68.8c0 6.4 10 6.4 10 0z" fill="#fff"/><path d="M149.2 186.7v-66.2c0-4.5-.3-8.7-4.1-11.9-4.6-3.7-12.4-2.4-17.9-2.4-5.7 0-12.6-1.1-17.8 1.7-6.5 3.5-5.1 12.2-5.1 18.3 0 6.4 10 6.4 10 0 0-2-1.3-10 1.5-10h16.1c1.9 0 7.3-1.2 7.3 1.6v68.9c0 6.4 10 6.4 10 0z" fill="#fff"/><path d="M72.4 219.1l42.8-61 7.2-10.5a15.2 15.2 0 0 1 7.5-5.7c1.5-.5 11-1.3 10.5 1.5-.4 2.1-3.2 5-4.3 6.7l-9.1 13-57 81.4c-1.2 1.6 1.4 3.1 2.5 1.5l39.9-56.9 23.9-34.1c2.6-3.7 13.1-16.4 2-16.4-6.3 0-10.8 0-15.9 4.4-1.6 1.4-2.8 3.5-4 5.3l-16.8 24-31.8 45.3c-1.1 1.6 1.5 3 2.6 1.5z" fill="#fff"/><g fill="#fff"><path d="M165.6 244.6a55.4 55.4 0 0 0-22.4.4c-6.4 1.2-12.7 3.1-19.1 3.3-6 .2-12.3-1.9-18.1-3.1a58 58 0 0 0-23.5-.6c-1.9.4-1 3.3.8 3 8.3-1.7 15.5-1 23.6.8 5.6 1.3 11.4 2.8 17.2 3 5.4 0 11.2-1.6 16.5-2.8a56.5 56.5 0 0 1 24.2-1c1.9.3 2.7-2.6.8-3z"/><path d="M145.8 247.5c8.3-1.6 15.4-.8 23.6 1 5.6 1.1 11.3 2.7 17.1 2.8 5.5.2 11.2-1.5 16.5-2.7a56.6 56.6 0 0 1 24.3-1c1.9.3 2.7-2.6.8-3a56 56 0 0 0-22.5.4c-6.3 1.2-12.6 3.1-19 3.3-6 .2-12.3-1.9-18.2-3.1-8-1.7-15.3-2.1-23.4-.6-1.9.4-1.1 3.3.8 3z"/><path d="M208 247.5a56 56 0 0 1 23.6.9c5.6 1.2 11.4 2.7 17.2 3 5.4 0 11.2-1.7 16.5-2.9a56.5 56.5 0 0 1 24.2-1c1.9.4 2.7-2.5.8-2.9a55.7 55.7 0 0 0-22.4.3c-6.4 1.3-12.7 3.2-19.1 3.4-6 .2-12.3-2-18.1-3.1a56.4 56.4 0 0 0-23.5-.6c-1.9.4-1 3.3.8 3z"/></g><g fill="#fff"><path d="M180.6 227.1a55.4 55.4 0 0 0-22.4.4c-6.4 1.2-12.7 3.1-19.1 3.3-6 .2-12.3-1.9-18.1-3.1a58 58 0 0 0-23.5-.6c-1.9.4-1 3.3.8 3 8.3-1.7 15.5-1 23.6.8 5.6 1.3 11.4 2.8 17.2 3 5.4 0 11.2-1.6 16.5-2.8a56.5 56.5 0 0 1 24.2-1c1.9.3 2.7-2.6.8-3z"/><path d="M160.8 230c8.3-1.6 15.4-.8 23.6 1 5.6 1.1 11.3 2.7 17.1 2.8 5.5.2 11.2-1.5 16.5-2.7a56.6 56.6 0 0 1 24.3-1c1.9.3 2.7-2.6.8-3a56 56 0 0 0-22.5.4c-6.3 1.2-12.6 3.1-19 3.3-6 .2-12.3-1.9-18.2-3.1-8-1.7-15.3-2.1-23.4-.6-1.9.4-1.1 3.3.8 3z"/><path d="M223 230c11.5-2.2 21.7.8 32.9 2.8 11.8 2.2 22.4-2 34-3.6 1.9-.2 1.9-3.2 0-3-5.3.7-10.4 2-15.6 3a49.3 49.3 0 0 1-21 0l-13.3-2.6a48 48 0 0 0-17.8.5c-1.9.4-1 3.3.8 3z"/></g><g fill="#fff"><path d="M189.2 209.8a61 61 0 0 0-25.8 1c-8.3 1.8-16 3.6-24.5 1.5-1.9-.5-2.7 2.4-.8 2.9 8.6 2.1 16.6.7 25-1.3a57 57 0 0 1 25.3-1.2c1.9.3 2.7-2.6.8-3z"/><path d="M169.4 212.7c8.2-1.6 15.4-1 23.5.9 5.7 1.2 11.4 2.7 17.2 2.9 5.5.1 11.2-1.6 16.5-2.8a56.5 56.5 0 0 1 24.3-1c1.9.3 2.7-2.6.8-3a55.7 55.7 0 0 0-22.5.4c-6.3 1.2-12.6 3.2-19 3.4-6 .1-12.3-2-18.2-3.2a56 56 0 0 0-23.4-.5c-2 .3-1.1 3.2.8 2.9z"/><path d="M231.6 212.6c10.3-2 19.4.1 29.4 2.2 5 1 10 2 15 1.3 4.9-.7 9.6-1.9 14.3-3.1 1.9-.5 1-3.4-.8-3a173 173 0 0 1-13.2 3c-5.8 1-11.5-.4-17.2-1.7a67.3 67.3 0 0 0-28.3-1.6c-1.9.4-1 3.3.8 3z"/></g><g fill="#fff"><path d="M236.6 153.7a55.6 55.6 0 0 0-22.5.4c-6.3 1.2-12.6 3.2-19 3.3-6 .2-12.3-1.9-18.1-3.1a58.1 58.1 0 0 0-23.5-.6c-1.9.4-1 3.3.8 3 8.3-1.7 15.4-1 23.6.8 5.6 1.3 11.3 2.8 17.1 3 5.5.1 11.3-1.6 16.6-2.8a56.7 56.7 0 0 1 24.2-1c1.9.3 2.7-2.6.8-3z"/><path d="M216.8 156.6a53 53 0 0 1 21.8.6c4.9 1 9.7 2.1 14.6 2.8 11.7 1.8 23-4.2 34.7-4.6 2 0 2-3 0-3-12.3.4-23.9 6.4-36.3 4.4-5.2-.9-10.3-2.2-15.4-3.2a51.5 51.5 0 0 0-20.2.1c-2 .4-1.1 3.3.8 3z"/><path d="M279 156.6a51.5 51.5 0 0 1 10.3-1.2c2 0 2-3 0-3a57 57 0 0 0-11 1.3c-2 .4-1.2 3.3.7 3z"/></g><g fill="#fff"><path d="M221.8 171.4c-10.5-2-19.7-.2-30 2-5.8 1.2-11.2 2-17.2 1.3l-15-2c-1.8-.3-2.6 2.6-.7 2.9 9.8 1.4 19.4 3.3 29.3 1.6 4-.7 8-1.7 12-2.5a50.6 50.6 0 0 1 20.8-.4c2 .4 2.7-2.5.8-2.9z"/><path d="M202 174.3c8.3-1.6 15.5-.8 23.6 1 5.6 1.1 11.4 2.6 17.2 2.8 5.4.2 11.2-1.6 16.5-2.7a56.7 56.7 0 0 1 24.2-1c1.9.3 2.7-2.6.8-3a55.8 55.8 0 0 0-22.4.4c-6.3 1.2-12.7 3.1-19.1 3.3-6 .2-12.3-2-18.1-3.1a58 58 0 0 0-23.5-.6c-1.9.4-1 3.3.8 3z"/><path d="M264.3 174.3c8.7-1.7 16.5-.7 25.1 1.3 1.9.4 2.7-2.5.8-3-9.2-2-17.4-3-26.7-1.2-2 .4-1.1 3.3.8 3z"/></g><g fill="#fff"><path d="M208 190.2c-9-1.8-16.9-1-25.8 1-8.7 2-16.6 3.5-25.5 1.3-1.8-.4-2.6 2.5-.8 2.9 9 2.1 17 1 25.8-1s16.6-3 25.5-1.3c2 .3 2.7-2.5.8-3z"/><path d="M188.2 193a56 56 0 0 1 23.6 1c5.6 1.2 11.3 2.7 17.1 2.9 5.5.1 11.3-1.6 16.6-2.8a56.5 56.5 0 0 1 24.2-1c1.9.3 2.7-2.6.8-3a55.6 55.6 0 0 0-22.4.4c-6.4 1.3-12.7 3.2-19.1 3.4-6 .1-12.3-2-18.1-3.2a56.4 56.4 0 0 0-23.5-.5c-1.9.3-1 3.2.8 2.9z"/><path d="M250.4 193c8-1.5 15-.9 22.8.8 5.5 1.1 11 2.9 16.7 3 2 .1 2-2.9 0-3-6-.1-12-2.1-17.8-3.3a55 55 0 0 0-22.5-.3c-1.9.3-1 3.2.8 2.9z"/></g></svg>