<svg xmlns="http://www.w3.org/2000/svg" width="361" height="361"><path d="M215 143l18-3c8-2 9 11 10 17l4 26 1 7c1 6-4 8-9 8l-1 2 6 30 7 43c1 6 2 11-6 12-5 1-11 2-12-4l-1-4-7-41-5-32-2-2-5 1c-2 0-1 3 1 3l5-1-2-1 5 29 7 43c1 4 1 8 4 11 4 4 15 2 19-2 4-3 3-7 2-11l-3-18-6-36-4-20-1 1c4 0 9-1 11-6v-9l-5-29c-1-6-1-17-8-20-4-1-8 0-12 1l-11 2c-2 0-2 3 0 3z" fill="#fff"/><path d="M233 214l5 26c0 2 3 1 3 0l-5-27c0-2-3-1-3 1zm-4 6l7 38c0 2 3 1 3-1l-7-38c0-2-3-1-3 1z" fill="#fff"/><path d="M223 218a5 5 0 0 0 5 4 5 5 0 0 0 4-5 5 5 0 0 0-5-4 5 5 0 0 0-4 5c0 2 3 2 3 0l1-2c1-1 2 0 2 1 1 2-3 3-3 0-1-2-4-1-3 1zm12 27a5 5 0 0 0 6 4 5 5 0 0 0 4-6 5 5 0 0 0-5-4 5 5 0 0 0-5 5c0 2 3 2 3 0 0-1 0-2 2-2 1-1 2 0 2 1 1 3-3 4-4 1 0-2-3-1-3 1zm-3 17a5 5 0 0 0 5 4 5 5 0 0 0 5-6 5 5 0 0 0-6-4 5 5 0 0 0-4 5c0 2 3 2 3 0-1-1 0-2 1-2l3 1c1 3-4 4-4 1-1-2-4-1-3 1zm6 14a4 4 0 0 0 4 4c2-1 3-3 3-5a4 4 0 0 0-4-3 4 4 0 0 0-3 4l1 2 2-2v-1l1 1h-1c-1-2-4-1-3 0z" fill="#fff"/><path d="M237 265l2 9c0 2 3 1 3-1l-2-9c-1-2-3-1-3 1zm3 15l1 7c1 2 4 1 3-1l-1-7c0-2-3-1-3 1zm-1-32l7 38c0 2 3 1 3-1l-7-38c0-2-3-1-3 1z" fill="#fff"/><g fill="#fff"><path d="M229 143l-20-5c-7-1-14-1-16 7l-5 23c-1 7-1 15 8 16l-1-2c-2 4-2 7-1 10l1 4c1 2 2-1 0 0l-4 5a2 2 0 0 0 0 1l1 5 1 4c1 1 2-2 0 0s-5 6-4 9l2 6c0 1 0 2 1 1l-2 4c-2 4 1 8 3 11l2 1c3-2 8-4 8-8v-5c0-1-1 1 0 0l5-5c2-3 1-7 0-10-1-2 0-2-1-1l2-2 5-5v-1l-2-6c-1-2-1 0 0 0l2-3c3-3 3-6 4-10l-2 1c5 2 12 1 14-5l3-13c1-8 8-24-4-27-2-1-3 2-1 3 6 1 5 6 4 11l-2 12-2 11c-1 6-6 7-11 6-1-1-2 0-2 1v2l-1 3a25575 25575 0 0 0-5 6v1l2 6v1l-3 3-3 4c-1 2 1 5 1 6v4a24221 24221 0 0 0-5 5l-1 6c0 3-4 5-6 6l2 1-4-7 2-6-2-6v-5l4-5v-4l-2-5v-1h-1l5-5 1-1c-2-6-3-7-2-13 1-1 0-2-1-2-9-1-5-10-4-16l4-19c1-8 10-5 16-4l16 3c2 1 3-2 1-2z"/><path d="M217 149c4 2 2 8-2 8l-5-1c-4-1-2-8 2-8l5 1c2 1 3-2 1-3-3 0-7-2-10 0-4 3-3 11 2 12 3 1 7 2 10 1 4-3 3-11-2-13-2 0-3 3-1 3z"/></g><g fill="#fff"><path d="M119 146H97c-8 0-16 3-16 12v24c0 8-1 16 7 19l-1-1v78l3 6 1 1 6-1c2-2 6-3 7-5v-8l1-3 2-3v-7l-3-3c-1-1 0 1 0 0l1-2c1-1 3-5 2-7l-3-7v2c2-2 7-6 7-9v-7l-4-7v2c2-2 6-4 6-7v-14l-1 2c7 0 15 1 18-7 2-4 1-11 1-15 0-11 4-32-12-33-2 0-2 3 0 3 8 1 9 7 9 13v28a10 10 0 0 1-1 5c-3 4-6 3-9 3h-6l-2 1v15l-5 4v2l3 6v6l-2 2-4 5-1 1 4 8c-1-1 0-2-1-1l-1 3-2 4 1 2 2 3c0 4 0 5-2 8l-1 7v3c0 2 0 1 1 0l-5 3-2 2h-3c-2 0 1 1 0 0l-1-3h-1v-79l-1-2c-7-2-5-13-5-19v-21c0-10 9-9 16-9h19c2 0 2-3 0-3z"/><path d="M93 201v82c0 2 3 2 3 0v-82c0-2-3-2-3 0zm9-35c0 6-11 5-11-1v-6c0-6 11-5 11 1v6c0 2 3 2 3 0 0-4 1-9-2-12-5-5-14-2-15 5 0 4 0 9 3 12 5 4 13 1 14-5 0-2-3-2-3 0z"/></g><path fill="#fff" d="M195 188h-65v-10h59l3 3 3 3z"/><path d="M84 177c-5-2-4-7-4-11v-65c0-7-3-21 7-21h189c6 1 6 7 6 11v79c0 6-4 8-9 8h-25c-3 0 0 3 0 5v5h18c8 0 15 1 21-5 7-7 5-22 5-31v-47c0-11 2-25-7-32-6-4-14-3-21-3H97c-7 0-15-1-21 4-9 7-6 21-6 31v47c0 12-3 27 8 34l4 2 1-5v-6z" fill="#fff"/><path d="M121 108l-37 17c-6 2-1 11 5 8l37-16c5-3 0-11-5-9zm59 0l-37 17c-6 2-1 11 5 8l37-16c6-3 0-11-5-9zm59 0l-37 17c-6 2-1 11 5 8l37-16c6-3 0-11-5-9z" fill="#fff"/><path d="M92 147a50 50 0 0 1-1-16c1-3 4-17 8-10 3 5 3 12 3 18 0 2-1 18-7 15-1-1-3 1-1 2 6 4 9-4 10-9a41 41 0 0 0-2-27c-3-5-8-5-10 0-5 7-4 20-2 28 0 2 3 1 2-1zm118-8a26 26 0 0 1 1-16c3-6 8-6 12-1 3 5 3 12 2 17-1 6-6 13-12 7-1-1-3 1-2 2 5 5 10 4 14-1 5-7 4-18 1-25-2-5-8-9-13-5-7 5-7 15-6 23 1 2 3 1 3-1z" fill="#fff"/></svg>