<svg xmlns="http://www.w3.org/2000/svg" width="361" height="361"><path d="M246 134a66 66 0 0 0-33-55 65 65 0 0 0-64 0 65 65 0 0 0-33 55v119c0 9 7 16 15 19h77c9 0 23 2 31-4 8-7 7-18 7-28V134c-1-7-11-7-10 0v110c0 8 1 18-10 18h-81c-8 0-19 1-19-10V138c0-16 5-30 16-42a55 55 0 0 1 63-10 55 55 0 0 1 31 48c0 6 10 6 10 0z" fill="#fff"/><path d="M175 280h-24l1 1-5-15-1 2h34l-2-2-5 15c-1 2 2 3 3 1l5-15-1-2h-34l-2 2 5 15 2 1h24c2 0 2-3 0-3z" fill="#fff"/><path d="M154 284h19l-2-2 1 8 2-2h-25l1 3 5-8c1-2-1-3-2-2l-5 8c-1 1 0 2 1 2h25l1-1-1-8-1-1h-19c-2 0-2 3 0 3zm32 0h24l1-2 5-15-1-2h-34l-2 2 5 15c1 2 4 1 3 0l-5-15-1 1h34l-2-1-5 15 1-2h-23c-2 0-2 3 0 3z" fill="#fff"/><path d="M207 281h-19l-2 1-1 8 2 2h25c1 0 2-2 1-3l-5-7c-1-2-4 0-3 1l5 8 2-2h-25l1 1 1-8-1 2h19c2 0 2-3 0-3zm-46-77l-37-34c-4-3-9 2-5 5l36 34c4 3 9-2 6-5z" fill="#fff"/><path d="M241 228h-32c-2 0-2 1-2-1v-9l1-14-1-2h-27c-2 0-2 3 0 3h1c2 0 2-3 0-3h-26l-2 2a174 174 0 0 1 2 13v9c0 3 0 2-3 2h-31c-2 0-2 3 0 3h34c6 1 2-24 1-28l-1 2h26c2 0 2-3 0-3h-1c-2 0-2 3 0 3h27l-2-2c0 4-5 29 2 28h33c3 0 3-3 1-3z" fill="#fff"/><path d="M206 209l37-34c3-3-2-8-5-5l-37 34c-3 3 2 8 5 5zm-85-27c-12 0-19 11-24 20-7 16-10 35-10 52 0 7 10 7 10 0 0-14 2-29 7-43 3-7 8-19 17-19 7 0 7-10 0-10z" fill="#fff"/><path d="M87 253c-3 5-10 16-4 21 5 4 12-3 7-7a3 3 0 0 1 1 2v-3l5-7c3-6-5-11-9-5z" fill="#fff"/><path d="M88 253c-4 7-3 15 3 20 2 2 6 1 7-2 2-2 1-5-2-6-2-2 0-6 1-7 3-6-6-11-9-5z" fill="#fff"/><path d="M88 254c-2 2 1 5 3 7l8 7c2 1 6 0 7-2 1-3 0-5-2-7a65 65 0 0 1-5-4 28 28 0 0 1-2-2s-1-1 0 0v3c1-2-1-5-3-6-3-1-6 1-7 4z" fill="#fff"/><path d="M84 252l-1 11c0 4 4 7 8 7s7-3 7-7l1-11c1-4-3-8-7-8s-7 4-8 8z" fill="#fff"/><g fill="#fff"><path d="M282 136a53 53 0 0 1-2 8 16 16 0 0 1-2 3l2-1c-6 0-6 10 0 10 8 1 11-12 12-17 1-7-9-9-10-3z"/><path d="M282 153a18 18 0 0 0-2-20c-1-2-4-3-6-2-3 1-4 5-2 7 2 3 3 7 1 10-3 5 6 10 9 5z"/><path d="M283 152c1-3-1-5-3-7a66 66 0 0 0-9-7c-2-1-5 0-7 2a5 5 0 0 0 2 7 73 73 0 0 1 5 4 29 29 0 0 1 2 2h1-1v-4c-1 3 1 6 4 7 2 0 5-1 6-4z"/><path d="M237 193c5 7 13 15 22 17a19 19 0 0 0 22-12c6-16 2-35 7-51 2-6-8-9-10-2-4 13-2 27-4 40-1 6-2 12-8 14-8 4-16-5-21-11-3-6-12-1-8 5z"/><path d="M272 147l1 11a8 8 0 0 0 7 8c4 0 8-4 8-8l-1-11a8 8 0 0 0-7-7c-4 0-8 3-8 7z"/></g><path d="M200 175a27 27 0 0 1-38 0c-2-1-4 1-2 2a30 30 0 0 0 42 0c2-1-1-3-2-2z" fill="#fff"/><g fill="#fff"><path d="M179 133a26 26 0 0 1-25 26c-14 0-25-12-26-26 0-14 12-24 26-25 14 0 24 12 25 25 0 2 3 2 3 0a29 29 0 0 0-28-28c-16 0-28 13-29 28 0 16 13 28 28 29 16 0 28-14 29-29h-3z"/><path d="M154 115a18 18 0 1 0 0 37 18 18 0 0 0 0-37zm-7 23a8 8 0 1 1 0-14 8 8 0 0 1 0 15zm86-4a26 26 0 0 1-25 25c-14 0-25-12-25-25 0-14 12-25 25-26 14 0 25 12 25 25 0 2 3 2 3 1a29 29 0 0 0-28-29c-15 0-28 13-28 28 0 16 13 28 28 29 16 0 28-13 28-28 0-2-3-2-3 0z"/><path d="M208 115a18 18 0 1 0 0 37 18 18 0 0 0 0-37zm-7 23a8 8 0 1 1 0-14 8 8 0 0 1 0 15zm-84 0h10v-10h-10c-7 0-7 10 0 10zm128 0h-11v-10h11c6 0 6 10 0 10z"/></g></svg>