<svg xmlns="http://www.w3.org/2000/svg" width="361" height="361"><path d="M218.3 76.8l-47.1 140.8-4.4 13.2c-3.1 9.2 11.4 13 14.4 4L228.4 94l4.4-13.3c3-9.2-11.4-13-14.5-4z" fill="#fff"/><path d="M222.5 84l48 30.7c8.2 5.2 15.7-7.8 7.6-13L230 71c-8.2-5.2-15.6 7.8-7.5 13zM118 260.7c.5 8 5 14.2 12.8 16.5 2.4.7 5.4.5 8 .5h59.8c2.4 0 4.9.1 7.2-.3 8.4-1.5 13.6-8.4 14-16.7.5-6.5-9.5-6.4-10 0-.4 8-8.4 7-14 7h-53c-5.8 0-14.3 1.3-14.8-7-.4-6.4-10.4-6.5-10 0zm93.4-26.2c.2 4-6 4-8.5 4.5l-11.8 2.4c-6 1.3-6.4-12.6-7.2-16.5-.9-4.3 17.8-6.1 20.4-6.6 6-1.3 6.4 12.7 7.2 16.6.4 1.9 3.3 1 2.9-.8l-2.7-13.1c-.8-3.9-3-6.7-7.3-5.8l-15.3 3.2c-4.1.8-8.4 1.5-8.2 6.8.2 4.4 1.9 9.2 2.8 13.5.8 3.9 3 6.7 7.3 5.8l15.3-3.1c4.1-.9 8.4-1.6 8.1-7 0-1.8-3-1.8-3 0z" fill="#fff"/><path d="M131.1 262c-3.7-1.2-1.3-7.7-.9-10.2l1.9-11.5c1-5.6 14-1.1 17.8-.5 4.6.7-.5 18.7-1 21.7-1 5.6-14 1.1-17.8.5-1.9-.3-2.7 2.6-.8 3l13.8 2.2c4 .6 7-.8 7.7-5l2.6-15.7c.7-4.2 1.1-8-3.7-9.6-4.3-1.5-9.4-1.6-13.9-2.3-3.9-.6-7 .8-7.6 5l-2.6 15.7c-.7 4.2-1.1 8 3.7 9.6 1.8.6 2.6-2.3.8-2.9zm71.2-3c.4 4-6 4.4-8.4 5l-11 3c-5.8 1.6-7-11.3-8-15.3s17.3-7 19.9-7.7c5.2-1.4 6.6 12 7.5 15.5.5 1.9 3.4 1 3-.8-1.5-5.4-2.5-20-11-17.7l-14.4 3.9c-4 1-8.5 2-8 7.2.5 4 2.2 8.2 3.3 12.2 1 3.6 2.8 7.2 7.3 6l14.8-4c4-1.1 8.5-2 8-7.2-.2-2-3.2-2-3 0z" fill="#fff"/><path d="M154 262.8c-3.7-1.3-1-7.9-.6-10.2l2.1-11.5c1.1-5.5 14.2-.7 17.9 0 4.5.8-1 18.8-1.6 21.6-1 5.6-14.2.8-17.8.1-1.9-.3-2.7 2.6-.8 3l13.8 2.5c3.9.8 7-.7 7.7-4.8l3-15.7c.8-4.1 1.3-8-3.5-9.7-4.3-1.5-9.4-1.7-13.8-2.6-3.9-.7-7 .7-7.8 4.8l-3 15.8c-.7 4-1.2 7.9 3.6 9.6 1.8.7 2.6-2.2.8-2.9z" fill="#fff"/><path d="M156 221.2c-.4-3.3 5.8-4.2 7.8-5l9.4-3.3c4.8-1.7 6.9 10.3 8 13.5 1.3 3.6-14.8 7.5-17.1 8.3-4.8 1.7-6.9-10.3-8-13.5-.7-1.8-3.6-1-3 .8 1.8 4.7 3.8 18.4 11.4 15.7l13.1-4.6c3.9-1.4 7.2-2.6 6.5-7.5-.5-3.8-2.8-8-4-11.5-1.2-3.3-3.6-5.5-7.3-4.2l-13.1 4.6c-3.9 1.4-7.2 2.6-6.5 7.5.3 1.9 3.2 1 2.9-.8z" fill="#fff"/><path d="M127.8 225.8c-3.2-2.7 1.6-7.8 2.9-10a48639.1 48639.1 0 0 0 5.8-9.6c3.2-5.2 13.5 3.8 17 6 3.7 2.2-7.6 17-9 19.4-3.2 5.2-13.5-3.9-17-6-1.7-1-3.2 1.6-1.5 2.6l11.4 7c3.3 2 7 2.5 9.2-1.3l8.1-13.4c2.2-3.6 4.7-7.2.6-10.7-3.3-2.8-8-4.9-11.7-7.2-3.3-2-7-2.5-9.2 1.4l-8.1 13.3c-2.2 3.6-4.7 7.2-.6 10.7 1.4 1.2 3.6-.9 2-2.2z" fill="#fff"/><path d="M209.9 281.7c0 .6-27.4 0-29.2 0H127v-150h82.9v150c0 6.4 10 6.4 10 0v-150c0-7-6.1-10-12.2-10h-78.2c-6.1 0-12.5 2.7-12.5 10v150c0 10.5 10.7 10 18 10h65.6c8.4 0 17.8 1 19.3-10 .8-6.4-9.2-6.3-10 0z" fill="#fff"/><path d="M127.5 175.7H213c2 0 2-3 0-3h-85.5c-2 0-2 3 0 3z" fill="#fff"/></svg>