<svg xmlns="http://www.w3.org/2000/svg" width="361" height="361"><path d="M90.9 220.5a77.6 77.6 0 0 1 28.5-104.8c5.6-3.3.5-12-5-8.7a87.8 87.8 0 0 0-32.2 118.6c3.2 5.6 11.8.5 8.7-5z" fill="#fff"/><path d="M195.5 248.7a77.6 77.6 0 0 1-104.8-28.5c-3.3-5.6-12-.5-8.6 5 24 41.2 77 55.5 118.5 32.2 5.6-3.2.6-11.8-5-8.7zM111.4 207a95.7 95.7 0 0 1-10.4-49.6c.5-15 4.5-33.5 18.4-41.7 5.5-3.3.5-12-5-8.7-16.6 9.8-22 30-23.2 48a104.5 104.5 0 0 0 11.6 57c3.1 5.7 11.8.7 8.6-5z" fill="#fff"/><path d="M195.5 248.7c-14.4 8-32.7.7-46-6.6-15-8.3-29.4-20.4-38.1-35.3-3.3-5.6-12-.6-8.7 5a112.6 112.6 0 0 0 44.2 40.2c16 8.6 36.7 14.7 53.7 5.4 5.6-3.1.6-11.8-5-8.7z" fill="#fff"/><path d="M161.3 137a2.8 2.8 0 1 1-5.5 0 2.8 2.8 0 1 1 5.5 0zm21.5-41.3a5.3 5.3 0 0 1-10.5 0 5.3 5.3 0 0 1 10.5 0zm23 44a4.6 4.6 0 0 1-4.6 4.6h-1.5a4.6 4.6 0 0 1-4.6-4.5v-1.6a4.6 4.6 0 0 1 4.6-4.5h1.5a4.6 4.6 0 0 1 4.6 4.5v1.6z" fill="#fff" stroke="#fff" stroke-miterlimit="10"/><path d="M287.3 217c0 4.4-3.2 8-7.1 8h-55.5c-4 0-7.2-3.6-7.2-8v-58c0-4.4 3.2-8 7.2-8h55.5c4 0 7.1 3.6 7.1 8v58z" fill="#fff" stroke="#fff" stroke-width="10" stroke-miterlimit="10"/><path d="M182.3 197a8 8 0 0 0 8 8h37.2a8 8 0 0 0 8-8v-22.6a8 8 0 0 0-8-8h-37.2a8 8 0 0 0-8 8V197z" fill="#fff" stroke="#fff" stroke-width="10" stroke-miterlimit="10"/><path d="M166.3 197a8 8 0 0 1 8-8h45.9a8 8 0 0 1 8 8v12.7a8 8 0 0 1-8 8h-45.9a8 8 0 0 1-8-8V197z" fill="#fff" stroke="#fff" stroke-width="10" stroke-miterlimit="10"/></svg>