<svg xmlns="http://www.w3.org/2000/svg" width="361" height="361"><path d="M278.9 284.7c-.7 5.3-8.2 3.8-11.8 3.8h-64.9c-2.7 0-10.7 1-9-4.1l7-19.7c.8-2.5 1.1-6 4.4-6H283c4.8 0 3.9 3.2 3 5.8l-7.1 20.2c-.7 1.9 2.2 2.6 2.9.8l6-17.3 2-5.7c1.3-3.5-3.4-6.8-6.3-6.8h-73.8c-3.6 0-6.8-.4-9.9 2-1.7 1.2-1.8 4.2-2.5 6.2a45878 45878 0 0 0-3.8 10.7c-1.3 3.7-4 8.2-3.4 12.2.5 3.8 4.6 4.7 7.7 4.7h65.8c5.9 0 17 2.2 18.2-6 .2-1.9-2.7-2.7-3-.8z" fill="#fff"/><path d="M269.8 275c0-.3 0-.6.2-1l.2-1.3.3-1.5.3-1.7a73.6 73.6 0 0 0-1 2.3 532.4 532.4 0 0 1-2.3 5.2 82.4 82.4 0 0 1-1 2.6h-2.7l1.7-3.3a390.8 390.8 0 0 1 1.7-3.4 232 232 0 0 1 1.7-3.3 162.3 162.3 0 0 1 1.7-3h2.1c0 .9-.2 1.8-.4 2.8l-.4 3 2.3-3a893.3 893.3 0 0 0 2.3-2.8h2.1a99.8 99.8 0 0 1-1.1 3 208 208 0 0 1-2.7 6.7 372.5 372.5 0 0 1-1.5 3.3H271l1.3-2.6 1.3-2.6 1.2-2.6a176.1 176.1 0 0 0 1.1-2.3l-1.1 1.4a147.3 147.3 0 0 0-2.3 3l-.8 1h-1.9zm-1.8-8.4l-6 13h-7.9l1-2.2h5.3l1.4-2.9h-4.6l1-2.1h4.6l1.7-3.7h-5.8l1-2.1h8.4zm-18.8 0h8.2l-6 13h-2.7l5-10.9h-5.5l1-2.1zm-7-.3c2 0 3 .6 3.5 1.8.4 1.2 0 2.8-1 5a13.7 13.7 0 0 1-1.7 2.9 12 12 0 0 1-2.2 2.1 9.5 9.5 0 0 1-2.5 1.3 7.8 7.8 0 0 1-2.6.5 5.5 5.5 0 0 1-1.2-.1 5.2 5.2 0 0 1-.9-.3 2.3 2.3 0 0 1-.5-.3l-.3-.3 1.6-2c.2.2.5.4 1 .5a4.2 4.2 0 0 0 2.7 0 6.2 6.2 0 0 0 2.7-2.1c.5-.6 1-1.3 1.3-2.1.7-1.5 1-2.7.8-3.5-.1-.8-.8-1.1-2-1.1-.6 0-1.2 0-1.7.2l-1.3.5.3-2c.5-.3 1-.5 1.8-.7a9 9 0 0 1 2.3-.3zm-8 6.8a14.5 14.5 0 0 1-3.5 5 6.5 6.5 0 0 1-4.3 1.8c-1.5 0-2.4-.6-2.7-1.7s.1-2.9 1.2-5.1c1-2.2 2.2-4 3.6-5s2.7-1.8 4.2-1.8 2.4.6 2.7 1.7c.3 1.2-.1 2.9-1.1 5zm-2.6 0l.8-1.8.4-1.4c0-.4 0-.7-.2-1-.2-.2-.5-.3-1-.3-.3 0-.7 0-1.1.3l-1.1 1a9.6 9.6 0 0 0-1 1.4 27.3 27.3 0 0 0-.9 1.8 26.6 26.6 0 0 0-.7 1.8 6 6 0 0 0-.4 1.4l.1 1c.2.2.5.3 1 .3.4 0 .8 0 1.2-.3l1-1 1-1.4a27 27 0 0 0 1-1.8zm-13.7 6.5l.2-1.1.2-1.5.2-1.7.3-1.5-1.3 1.6-1.3 1.6-1.1 1.5a34.6 34.6 0 0 1-1 1h-2l1.2-3.2a144.2 144.2 0 0 1 2.6-6.4l1.4-3.3h2.4l-4.8 10 4.1-5.4h2l-1.1 5.5 4.6-10.1h2.4a1193.3 1193.3 0 0 1-3.5 6.7 202.5 202.5 0 0 1-3.4 6.3h-2zm-2.4-13l-6 13h-8l1-2.2h5.4l1.3-2.9h-4.6l1-2.1h4.6l1.7-3.7h-5.7l1-2.1h8.3z" fill="#fff"/><path d="M286.9 241.8a5 5 0 0 1-5 5h-75.2a5 5 0 0 1-4.9-5V79.7a5 5 0 0 1 5-5H282a5 5 0 0 1 4.9 5v162z" fill="none" stroke="#fff" stroke-width="10" stroke-miterlimit="10"/><path d="M203.4 165.6h8.1c2.8 0 5-2.3 5-5s-2.2-5-5-5h-8a5 5 0 0 0 0 10zm88.4 74.5c-.9-6.3-6.3-7.4-11.6-7.4H207a8.5 8.5 0 0 0-8.5 7.4c-.6 4.6 2.1 7.9 6.2 9.5 2.7 1.2 7.4.3 10.2.3h58c7 0 19.1 1.8 19.1-8.9 0-4.5-7-4.5-7 0 0 3.2-7.9 2-9.5 2h-68.1c-2.6 0-2-3.3.1-3.3h71.4c2.2 0 5.8-1 6.2 2.3.6 4.4 7.4 2.5 6.8-1.9z" fill="#fff"/><path d="M203.4 165.6h8.2c4.5 0 4.5-7 0-7h-8.2c-4.5 0-4.5 7 0 7zm48.9-52.5c-.4 1.3-13.5.3-15.6.3-.3 0-.1-13.3-.1-14.9h15.6v15c0 1.9 3 1.9 3 0v-10.7c0-2.4.8-7.3-3-7.3h-10.7c-2.8 0-7-.9-7.9 2.6-.8 3 0 7.2 0 10.4 0 2.8-1 7 2.6 7.9 3 .8 7.2 0 10.4 0 2.9 0 7.6 1 8.6-2.6.5-1.8-2.4-2.6-3-.8zm0 33.9c-.4 1.3-13.5.3-15.6.3-.3 0-.1-13.3-.1-14.9h15.6v15c0 1.9 3 1.9 3 0v-10.7c0-2.4.8-7.3-3-7.3h-10.7c-2.8 0-7-.9-7.9 2.6-.8 3 0 7.2 0 10.4 0 2.8-1 7 2.6 7.9 3 .8 7.2 0 10.4 0 2.9 0 7.6 1 8.6-2.5.5-2-2.4-2.7-3-.8zm0 32c-.4 1.2-13.5.3-15.6.3-.3 0-.1-13.4-.1-15h15.6v15c0 2 3 2 3 0v-10.6c0-2.4.8-7.3-3-7.3h-10.7c-2.8 0-7-1-7.9 2.5-.8 3.1 0 7.3 0 10.4 0 2.8-1 7 2.6 8 3 .8 7.2 0 10.4 0 2.9 0 7.6 1 8.6-2.6.5-1.8-2.4-2.6-3-.8zm0 33.8c-.4 1.3-13.5.4-15.6.4-.3 0-.1-13.3-.1-14.9h15.6v15c0 1.9 3 1.9 3 0v-10.7c0-2.4.8-7.3-3-7.3h-10.7c-2.8 0-7-1-7.9 2.6-.8 3 0 7.2 0 10.3 0 2.8-1 7 2.6 8 3 .8 7.2 0 10.4 0 2.9 0 7.6 1 8.6-2.6.5-1.8-2.4-2.6-3-.8zm-142.5-21l28-25.8c1.5-1.2-.6-3.4-2-2l-28.1 25.6c-1.5 1.3.7 3.5 2 2.1zm-3.4 15.2l42.2-40.1c1.4-1.3-.7-3.5-2.1-2.1l-42.2 40c-1.4 1.4.7 3.5 2 2.2zm9.2 3.8l29.4-27.9c1.4-1.3-.7-3.4-2.2-2.1l-29.3 27.9c-1.4 1.3.7 3.4 2.1 2zm-14.2-96l21-20c1.5-1.3-.7-3.4-2-2.1l-21.1 20c-1.4 1.3.7 3.4 2.1 2zm.6 13.8l32.8-31.1c1.4-1.4-.7-3.5-2.1-2.1l-32.8 31.1c-1.4 1.3.7 3.5 2.1 2.1zm13.2 0l22.8-21.7c1.4-1.3-.7-3.4-2.1-2.1L113 126.4c-1.4 1.4.7 3.5 2 2.2z" fill="#fff"/><path d="M154 218.1c-.6 6.2-9.8 4.5-14 4.5H95.3c-3.7 0-11.8 1.4-11.8-4.6V103.5c0-4.2-2.7-21.9 4.7-21.9h57.1c3.8 0 8.8-.4 8.8 5.2V218c0 2 3 2 3 0V91c0-2 .4-4.7-.2-6.6-1.6-5.3-5.8-5.9-10.6-5.9H88.4c-9.4 0-8 9.8-8 16.2v120.6c0 3.4.1 6.3 3 8.8 2.8 2.2 7.8 1.4 11.1 1.4h44.8c6.7 0 16.8 1.8 17.7-7.5.2-1.9-2.8-1.9-3 0z" fill="#fff"/><path d="M160 225.7c-.4 3.8-7.9 2.5-10.4 2.5H85.3c-2.2 0-8 1-8-2.7v-133c0-3-2-16.3 3.1-16.3h75.1c2.6 0 4.5.9 4.5 3.7v145.8c0 4.5 7 4.5 7 0V82.4c0-2.5.3-5.5-1-7.8-2.7-5-7.1-5.4-12-5.4H79.9c-10.8 0-9.6 11.5-9.6 18.8v126.7c0 7-1.8 19.3 8.3 20.3 5.1.6 10.4.2 15.5.2H152c7 0 14-.7 15-9.5.4-4.5-6.6-4.5-7 0z" fill="#fff"/></svg>