<svg xmlns="http://www.w3.org/2000/svg" width="361" height="361"><path d="M244 140l7 105c0 4 7 4 7 0l-7-105c0-4-7-4-7 0zm-7 107a159477959 159477959 0 0 1-139-6c-6 0-6 10 0 10a159477959 159477959 0 0 0 139 6c7 0 7-10 0-10z" fill="#fff"/><path d="M233 240l-72-4c-9 0-9 15 0 15l71 4c10 0 10-15 1-15z" fill="#fff"/><path d="M83 240c1 21 17 37 38 38s37-18 37-38a38 38 0 0 0-37-37 38 38 0 0 0-38 37c0 2 3 2 3 0a35 35 0 0 1 35-34 35 35 0 0 1 34 34c1 19-16 34-34 35-19 0-34-16-35-35 0-2-3-2-3 0z" fill="#fff"/><path d="M93 274a50 50 0 0 1-16-36 44 44 0 0 1 14-30c20-18 52-13 66 9 1 2 4 2 6 0l-4 1 65 22 42 14 12 5c3 1 7 1 7 5v10c0 3 1 7-1 9-1 2-4 1-6 1H102c-5 0-5 7 0 7h177l7-1c7-4 6-12 6-19s1-15-8-18l-6-2-35-12-82-28a3 3 0 0 0-3 1v1h5a51 51 0 0 0-75-12 51 51 0 0 0-18 35c-2 16 7 32 18 43 4 3 9-2 5-5z" fill="#fff"/><path d="M268 283a9 9 0 0 0 5 7c2 2 4 1 7 1h7c3-2 5-5 5-8s-2-6-5-8l-7-1-6 1c-4 1-5 4-6 8 0 4 7 4 7 0 1-3 3-2 5-2 1 0 5-1 5 2 0 2-3 1-5 1-1 0-4 1-5-1 0-5-7-5-7 0zm-186 0a9 9 0 0 0 5 8l6 1 7-1c4-1 5-4 5-8 1-3-2-6-4-8l-7-1-7 1c-3 2-5 5-5 8 0 5 7 5 7 0 0-2 3-2 4-2 2 0 5 0 5 2 1 2-3 2-4 2s-5 0-5-2c0-4-7-4-7 0z" fill="#fff"/><g fill="#fff"><path d="M243 253l16-50a526 526 0 0 0 11-42c2-10 5-22 4-34-1-6-11-6-10 0 1 11-2 22-4 32a512 512 0 0 1-10 41 878 878 0 0 1-17 50c-2 6 8 9 10 3z"/><path d="M264 73l-5 17c-2 6-5 12-6 19a27 27 0 0 0 3 15c3 4 7 6 10 8 6 3 11-6 5-9-2-1-5-2-6-5a17 17 0 0 1-2-12l6-15 4-15c2-6-8-9-9-3z"/></g><g fill="#fff"><path d="M266 246a899 899 0 0 0-9-52 526 526 0 0 0-11-41 122 122 0 0 0-12-32c-4-6-13-1-9 5a117 117 0 0 1 12 29l10 41a878 878 0 0 1 9 52c1 7 11 4 10-2z"/><path d="M199 78c2 7 4 13 4 19l3 18 10 11c4 2 9 2 13 2 7 0 7-10 0-10-3 0-6 1-8-1a18 18 0 0 1-7-11l-2-15-3-15c-2-6-11-4-10 2z"/></g><path d="M229 152l32-13c6-3 3-12-3-10l-32 13c-6 2-3 12 3 10z" fill="#fff"/></svg>