<svg xmlns="http://www.w3.org/2000/svg" width="361" height="361"><path d="M257.7 115.3H104.2c-6.5 0-6.5 10 0 10h153.5c6.4 0 6.4-10 0-10z" fill="#fff"/><path d="M252.7 276.2c-.5 8-16.4 5.2-21.5 5.2H114c-7.3 0-5.8-8.5-5.8-13.4V85.3c0-7.8 16.2-5.2 20.8-5.2h117.7c7.4 0 6 8 6 13v183.1c0 6.5 10 6.5 10 0V94c0-8.7.6-17.8-8.7-22.5-6.4-3.1-16.7-1.4-23.5-1.4H113.9c-8.9 0-15.1 6.6-15.7 15.1v190.1c0 6.3 3 11.8 8.7 14.6 3.2 1.7 6.7 1.5 10.2 1.5h130c8.8 0 15-6.6 15.6-15.2.4-6.4-9.6-6.4-10 0z" fill="#fff"/><path d="M167.6 87.2h26.2c9.7 0 9.7-15 0-15h-26c-9.7 0-9.8 15-.2 15zm-44.9 23.5h10c1.9 0 1.9-3 0-3h-10c-2 0-2 3 0 3zm0-19.9h10c1.9 0 1.9-3 0-3h-10c-2 0-2 3 0 3zm104.7 19.9h10c1.9 0 1.9-3 0-3h-10c-1.9 0-1.9 3 0 3zM122.7 104h10c1.9 0 1.9-3 0-3h-10c-2 0-2 3 0 3zm0-6.7h10c1.9 0 1.9-3 0-3h-10c-2 0-2 3 0 3zm78 2c-.5 2-5.6 1.1-7 1.1h-31.8c-1.5 0-1-4-1-5 0-1.9 20.9-.9 22.9-.9h16c1.4 0 .9 4.4.9 5.2 0 2 3 2 3 0 0-3.4.6-8.2-4.2-8.2h-33c-3.3 0-7.4-.8-8.5 3.3-.9 3.1-.3 8.6 4 8.6h33c3.4 0 7.5.8 8.6-3.3.5-1.8-2.4-2.6-2.9-.8zm-82.2 173.8h124.3c4.5 0 4.5-7 0-7H118.5c-4.5 0-4.5 7 0 7z" fill="#fff"/><path d="M115 237.7v32c0 4.5 7 4.5 7 0v-32c0-4.6-7-4.6-7 0zm131.3 32v-32c0-4.6-7-4.6-7 0v32c0 4.5 7 4.5 7 0z" fill="#fff"/><path d="M236 238a21.3 21.3 0 0 1-21.2 20.9H195c-9 0-17-1.9-22.2-10-4-6.4-3-14.5-3-21.6 0-6.8-1-14.2 1.1-20.7 3-9.7 12.7-14 22-14h20.9c10.4 0 19 6.3 21.6 16.5 1.2 4.7.5 10.4.5 15.2V238c0 4.5 7 4.5 7 0 0-12.8 2.6-28.6-4.7-39.8-9.8-15.1-28.5-12.4-44-12.4-8.2 0-15.3 1.5-21.9 6.9a28.7 28.7 0 0 0-9.6 22.8c0 15-2.8 32.4 9.6 43.6 10.4 9.4 26.2 6.9 39 6.9 7 0 13.3-1 19.2-4.8a28 28 0 0 0 12.4-23.2c.2-4.5-6.8-4.5-7 0z" fill="#fff"/><path d="M223 233.5c-.7 15.1-16.7 13-27.4 13-15.1 0-13-17.2-13-27.4 0-15.2 17.2-13 27.4-13 15.2 0 13 17.2 13 27.4 0 2 3 2 3 0V219c0-9-7.3-15.6-16-16-4.8-.2-9.6 0-14.4 0-9 0-15.5 7.3-16 16-.2 4.8 0 9.6 0 14.4 0 9 7.3 15.5 16 16 4.8.2 9.6 0 14.4 0 9 0 15.6-7.3 16-16 .1-2-2.9-2-3 0zM167.1 260c-5.4-4.8-11.7-9-13.4-16.4l-3.1-15-3.2-15.1c-1.5-7.5 2.4-13.6 5.5-20.3 1.8-4-4.2-7.6-6-3.5-3.3 7-8 14.7-6.8 22.7 1 5.8 2.4 11.5 3.5 17.1l3.5 16.7c1.9 8.3 9 13.4 15 18.8 3.4 3 8.4-2 5-5z" fill="#fff"/><path d="M153.5 260.1c-5.4-4.8-11.8-9-13.4-16.4l-3.2-15-3.1-15.1c-1.6-7.5 2.3-13.6 5.4-20.3 1.9-4-4.2-7.6-6-3.5-3.3 7-8 14.7-6.7 22.7 1 5.8 2.3 11.5 3.5 17.1l3.5 16.7c1.8 8.3 9 13.4 15 18.8 3.4 3 8.3-2 5-5z" fill="#fff"/><path d="M140.8 260.1c-5.4-4.8-11.7-9-13.4-16.4l-3.1-15-3.2-15.1c-1.5-7.5 2.4-13.6 5.4-20.3 2-4-4.1-7.6-6-3.5-3.2 7-8 14.7-6.7 22.7 1 5.8 2.4 11.5 3.5 17.1l3.5 16.7c1.9 8.3 9 13.4 15 18.8 3.4 3 8.4-2 5-5zm-16.2-110h110.3c2 0 2-3 0-3H124.6c-2 0-2 3 0 3z" fill="#fff"/><path d="M186.3 148.7c-.3 3-3.6 2.3-5.7 2.3-2 0-6 .7-6.3-2.3-.3-3 4-2.4 5.7-2.4 2.1 0 6-.7 6.3 2.4.2 1.9 3.2 1.9 3 0-.5-5.1-4.6-5.4-8.7-5.4-4.2 0-8.7 0-9.3 5.4-.5 5 5.3 5.3 8.7 5.3 4.3 0 8.8 0 9.3-5.3.2-2-2.8-2-3 0zm-46.5 5.3l1.2 7.2c.3 1.9 3.2 1.1 2.9-.8l-1.3-7.2c-.3-1.9-3.2-1-2.8.8zM129 165l-1.3 5.6c-.4 1.9 2.5 2.7 3 .8l1.2-5.7c.4-1.8-2.5-2.6-2.9-.8zm13 .9l1.3 7c.3 2 3.2 1.1 2.9-.8l-1.3-7c-.3-2-3.2-1.1-2.9.8zm-9.9-12.7l-1.8 7.7c-.4 1.9 2.5 2.7 3 .8l1.7-7.7c.4-2-2.5-2.7-3-.8zm-5.5 22.8l-1.7 7.7c-.5 1.9 2.4 2.7 2.8.8l1.8-7.7c.4-1.9-2.5-2.7-3-.8zm17.5 1.6l.7 4.2c.2.8 1.1 1.3 1.9 1 .8-.1 1.2-1 1-1.8l-.7-4.2c-.2-.8-1.1-1.2-1.9-1-.8.2-1.2 1-1 1.8zm-4.8 2V174c0-2-3-2-3 0v5.6c0 2 3 2 3 0zm-.3-10.4V162c0-1.9-3-1.9-3 0v7.2c0 2 3 2 3 0zm0-12V153c0-2-3-2-3 0v4.3c0 2 3 2 3 0zm.4 45.8v-8.4c0-2-3-2-3 0v8.4c0 2 3 2 3 0zm0-13v-4.1c-.1-2-3.1-2-3 0v4c0 2 3 2 3 0zm6.6-3.6l.7 4.2c.2.8 1.1 1.3 1.9 1 .8-.1 1.2-1 1-1.8l-.7-4.2c-.2-.8-1.1-1.2-1.9-1-.8.2-1.1 1-1 1.8zm1.5 8.8l1.2 7c.4 2 3.2 1.2 3-.7l-1.3-7c-.4-2-3.2-1.2-3 .7zm-24.1-6.5l-1.3 5.7c-.4 1.8 2.4 2.6 2.9.8l1.2-5.7c.5-1.9-2.4-2.7-2.9-.8zm-2.8 11l-.7 3c-.2.7.2 1.6 1 1.8.8.2 1.7-.3 2-1l.6-3c.2-.8-.2-1.7-1-1.9-.8-.2-1.7.3-2 1z" fill="#fff"/><path d="M134.5 151.2h5.6c1.9 0 3.5-1.6 3.5-3.5s-1.6-3.5-3.5-3.5h-5.6c-1.9 0-3.5 1.6-3.5 3.5s1.6 3.5 3.5 3.5zm82.6 2l-1.2 7.2c-.3 1.9 2.5 2.7 2.9.8l1.2-7.1c.4-2-2.5-2.7-2.9-.8zm10.8 12.6l1.3 5.6c.4 1.9 3.3 1.1 2.9-.8l-1.3-5.7c-.5-1.8-3.3-1-3 .8zm-13-.7l-1.3 7c-.3 2 2.6 2.7 3 .8l1.1-7c.4-2-2.5-2.7-2.8-.8zm9.9-11.1l1.7 7.7c.5 2 3.4 1.1 3-.8l-1.8-7.7c-.4-2-3.3-1.1-3 .8zm5.5 22.8l1.7 7.7c.4 1.9 3.3 1 3-.8l-1.8-7.7c-.4-1.9-3.3-1-2.9.8zm-17.5 0l-.7 4.3c-.2.8.2 1.6 1 1.8.8.2 1.7-.2 1.9-1l.7-4.3c.1-.8-.2-1.6-1-1.8-.8-.2-1.7.2-1.9 1zm10.6 2.8V174c0-2-3-2-3 0v5.6c0 2 3 2 3 0zm.3-10.4v-7.1c0-2-3-2-3 0v7.1c0 2 3 2 3 0zm.1-12V153c0-2-3-2-3 0v4.3c0 2 3 2 3 0zm-.4 45.8v-8.4c0-2-3-2-3 0v8.4c0 2 3 2 3 0zm0-13v-4.1c0-2-3-2-3 0v4c0 2 3 2 3 0zm-12.5-4.4l-.7 4.3c-.2.8.2 1.6 1 1.8.7.2 1.7-.2 1.8-1l.8-4.3c.1-.8-.2-1.6-1-1.8-.8-.2-1.8.2-1.9 1zm-1.5 8.9l-1.2 7c-.4 1.9 2.5 2.7 2.9.8l1.2-7c.3-2-2.6-2.7-2.9-.8zm24.1-5l1.3 5.7c.4 1.9 3.3 1 3-.8l-1.4-5.7c-.4-1.9-3.3-1-2.9.8zm2.8 11l.7 3c.1.7 1 1.2 1.8 1 .8-.2 1.2-1 1-1.8l-.6-3c-.2-.8-1-1.3-1.9-1-.8.2-1.2 1-1 1.8z" fill="#fff"/><path d="M220 151.2h5.5c2 0 3.5-1.6 3.5-3.5s-1.6-3.5-3.5-3.5H220c-2 0-3.5 1.6-3.5 3.5s1.6 3.5 3.5 3.5zm-28-40.5h9.8c2 0 2-3 0-3H192c-2 0-2 3 0 3zm-23.3 0h9.9c2 0 2-3 0-3h-10c-1.8 0-1.8 3 0 3zm-23.3 0h10c1.9 0 1.9-3 0-3h-10c-1.9 0-1.9 3 0 3z" fill="#fff"/></svg>