<svg xmlns="http://www.w3.org/2000/svg" width="361" height="361"><path d="M88.2 214l17.5-4c6.2-1.4 3.6-11-2.7-9.7l-17.5 4c-6.3 1.5-3.6 11.1 2.7 9.7z" fill="#fff"/><path d="M103 210l14 4.5c6.2 2 8.8-7.7 2.7-9.7l-14-4.5c-6.2-2-8.8 7.7-2.7 9.7z" fill="#fff"/><path d="M129.2 215l17.5-4c6.3-1.4 3.6-11-2.7-9.7l-17.5 4c-6.3 1.5-3.6 11.1 2.7 9.7z" fill="#fff"/><path d="M144 211l14 4.5c6.2 2 8.8-7.7 2.7-9.7l-14-4.5c-6.2-2-8.8 7.7-2.7 9.7z" fill="#fff"/><path d="M170.2 216l17.5-4c6.3-1.4 3.6-11-2.7-9.7l-17.5 4c-6.3 1.5-3.6 11.1 2.7 9.7z" fill="#fff"/><path d="M185 212l14 4.5c6.2 2 8.8-7.7 2.7-9.7l-14-4.5c-6.2-2-8.8 7.7-2.7 9.7z" fill="#fff"/><path d="M211.2 216l17.5-4c6.3-1.4 3.6-11-2.7-9.7l-17.5 4c-6.3 1.5-3.6 11.1 2.7 9.7z" fill="#fff"/><path d="M226 212l14 4.5c6.2 2 8.8-7.7 2.7-9.7l-14-4.5c-6.2-2-8.8 7.7-2.7 9.7z" fill="#fff"/><path d="M251.2 216l17.5-4c6.2-1.4 3.6-11-2.7-9.7l-17.5 4c-6.3 1.5-3.6 11.1 2.7 9.7z" fill="#fff"/><path d="M266 212l14 4.5c6.2 2 8.8-7.7 2.7-9.7l-14-4.5c-6.2-2-8.8 7.7-2.7 9.7zM76.2 234l17.5-4c6.2-1.4 3.6-11-2.7-9.7l-17.5 4c-6.3 1.5-3.6 11.1 2.7 9.7z" fill="#fff"/><path d="M91 230l14 4.5c6.2 2 8.8-7.7 2.7-9.7l-14-4.5c-6.2-2-8.8 7.7-2.7 9.7z" fill="#fff"/><path d="M117.2 235l17.5-4c6.3-1.4 3.6-11-2.7-9.7l-17.5 4c-6.3 1.5-3.6 11.1 2.7 9.7z" fill="#fff"/><path d="M132 231l14 4.5c6.2 2 8.8-7.7 2.7-9.7l-14-4.5c-6.2-2-8.8 7.7-2.7 9.7z" fill="#fff"/><path d="M158.2 236l17.5-4c6.3-1.4 3.6-11-2.7-9.7l-17.5 4c-6.3 1.5-3.6 11.1 2.7 9.7z" fill="#fff"/><path d="M173 232l14 4.5c6.2 2 8.8-7.7 2.7-9.7l-14-4.5c-6.2-2-8.8 7.7-2.7 9.7z" fill="#fff"/><path d="M199.2 236l17.5-4c6.3-1.4 3.6-11-2.7-9.7l-17.5 4c-6.3 1.5-3.6 11.1 2.7 9.7z" fill="#fff"/><path d="M214 232l14 4.5c6.2 2 8.8-7.7 2.7-9.7l-14-4.5c-6.2-2-8.8 7.7-2.7 9.7z" fill="#fff"/><path d="M239.2 236l17.5-4c6.2-1.4 3.6-11-2.7-9.7l-17.5 4c-6.3 1.5-3.6 11.1 2.7 9.7z" fill="#fff"/><path d="M254 232l14 4.5c6.2 2 8.8-7.7 2.7-9.7l-14-4.5c-6.2-2-8.8 7.7-2.7 9.7zm-115.5-43.3l39.2-32 39.1 32z" fill="#fff"/><path d="M142 192.2l39.2-32h-7l39.1 32 3.5-8.5h-78.3c-6.5 0-6.5 10 0 10h78.3c4 0 7-5.7 3.6-8.6l-39.2-32c-2.3-1.8-4.8-1.8-7 0l-39.2 32c-5 4.1 2 11.2 7 7.1z" fill="#fff"/><circle cx="214" cy="150.5" r="21.1" fill="#fff" stroke="#fff"/><path d="M163 137c4-1.7 8.3-.6 9.6 2.5l1 2.3c1.3 3-.9 6.9-4.9 8.6l-57.2 24.2c-4 1.7-8.2.5-9.5-2.5l-1-2.3c-1.3-3 .9-6.9 4.9-8.6L163 137z" fill="#fff"/><path d="M160.5 148.3c-.5-1 1.5-3 4.4-4.6l2.2-1.2c2.9-1.6 5.7-2.1 6.2-1.2l7.3 13.5c.5 1-1.4 3-4.3 4.6l-2.2 1.2c-3 1.6-5.7 2.1-6.2 1.2l-7.4-13.5z" fill="#fff"/></svg>