<svg xmlns="http://www.w3.org/2000/svg" width="361" height="361"><path d="M244.5 132.7V276c0 6.5 10 6.5 10 0V132.7c0-6.5-10-6.5-10 0zm37 46.3v97c0 6.5 10 6.5 10 0v-97c0-6.5-10-6.5-10 0zm-24.3-46.6v37c0 6.4 10 6.4 10 0v-37c0-6.5-10-6.5-10 0zm-25.7-.4v37c0 6.4 10 6.4 10 0v-37c0-6.5-10-6.5-10 0z" fill="#fff"/><path d="M273.2 189.7a6 6 0 0 0 6 6h6a6 6 0 0 0 6-6v-55.4a6 6 0 0 0-6-6h-6a6 6 0 0 0-6 6v55.4z" fill="#fff" stroke="#fff" stroke-miterlimit="10"/><path d="M236.5 175.3h25c6.5 0 6.5-10 0-10h-25c-6.5 0-6.5 10 0 10z" fill="#fff"/><path d="M117.2 104.5a4 4 0 0 1-4.1 4H87.6a4 4 0 0 1-4.1-4V91.4a4 4 0 0 1 4-4.1h25.6a4 4 0 0 1 4 4v13.2z" fill="none" stroke="#fff" stroke-width="10" stroke-miterlimit="10"/><path d="M119.2 103h95c6.4 0 6.4-10 0-10h-95c-6.5 0-6.5 10 0 10z" fill="#fff"/><path d="M220.5 227.6a48.8 48.8 0 0 1-48.8 48.8h-48.4a48.8 48.8 0 0 1-48.8-48.8V179a48.8 48.8 0 0 1 48.8-48.7h48.4a48.8 48.8 0 0 1 48.8 48.7v48.5z" fill="none" stroke="#fff" stroke-width="10" stroke-miterlimit="10"/><path d="M187.3 218.7a25.9 25.9 0 0 1-20.9 25c-6 1.3-12.9.4-18.9.4-6.2 0-12.8.6-18.9-.4-12.2-2-20.6-13-20.9-25v-17.3c0-6.6-.6-13.5 1.5-19.9a25.6 25.6 0 0 1 24.3-16.9h19.7c5.8 0 11.5-.3 17.1 1.4a25.6 25.6 0 0 1 17 24c.2 9.6 0 19.1 0 28.7 0 4.5 7 4.5 7 0v-17.3c0-6.4.4-12.9-1-19.1a32.2 32.2 0 0 0-19.9-22.6c-6.6-2.4-13.3-2.1-20.2-2.1-16 0-33-2-44.7 11.4-10.5 12-7.8 29.7-7.8 44.5 0 11.5 2.3 21.9 11.5 29.9 8.6 7.5 18.9 7.7 29.6 7.7 9 0 18.9 1 27.8-1a32.7 32.7 0 0 0 24.6-31.4c.1-4.5-6.9-4.5-7 0z" fill="#fff"/></svg>