<svg xmlns="http://www.w3.org/2000/svg" width="361" height="361"><path d="M195 77.3h93.9c4.5 0 4.5-7 0-7h-94c-4.4 0-4.4 7 0 7z" fill="#fff"/><path fill="none" stroke="#fff" stroke-width="7" stroke-miterlimit="10" d="M280.3 152.8h-76.9M242 87v63.8"/><path d="M239.2 112.8h6.6c4.5 0 4.5-7 0-7h-6.6c-4.6 0-4.6 7 0 7zm38.3-37c-.4 4.3-9.3 6-12.4 6.7-7.5 1.8-15.3 2.2-23 2.3-7.8 0-15.5-.7-23-2.3-3.2-.7-12-2.5-12.4-6.6l-1.5 1.5H279c2 0 2-3 0-3h-73.8c-.8 0-1.6.7-1.5 1.5.4 4.7 5.7 6.7 9.5 8 9 3.3 19.4 3.8 28.9 3.9 9.6 0 19.7-.8 28.9-3.8 3.8-1.3 9-3.5 9.5-8.1.1-2-2.9-2-3 0z" fill="#fff"/><path d="M193.4 77.6c1.8 0 9.4-.5 10 .6 1.4 2.1 1.2 5.6 1.3 8 .2 3.5.2 7 .2 10.5 0 8.3.3 16.7-1.2 25-1 5.2-3.5 17-10.3 17.4l1.5 1.5a9990.9 9990.9 0 0 1 0-64.5c0-2-3-2-3 0a9990.9 9990.9 0 0 0 0 64.5c0 .8.7 1.6 1.5 1.5 6.8-.5 10-8.1 11.8-13.8 3.3-10.1 2.7-21 2.7-31.6 0-4.6 0-9.3-.4-13.9-.2-2-.4-5.1-2-6.8-2.2-2.5-9-1.3-12.1-1.4-2-.1-2 2.9 0 3zm97-3.3c-3 .1-9.8-1-12.1 1.4-1.6 1.7-1.6 4.7-1.9 6.9-.5 4.5-.5 9.2-.5 13.8 0 10.7-.2 21.3 2.8 31.7 1.6 5.6 5 13.3 11.8 13.7.8 0 1.5-.7 1.5-1.5a9990.9 9990.9 0 0 0 0-64.5c0-2-3-2-3 0a9990.9 9990.9 0 0 1 0 64.5l1.5-1.5c-7-.5-9.3-12.2-10.3-17.4-1.7-8.2-1.3-16.7-1.3-25 0-5.6-.9-13.2 1.5-18.5.4-1 8.5-.6 10-.6 2-.1 2-3.1 0-3z" fill="#fff"/><path d="M290.5 184l-9.3-.4-2.2-.1c-.2 0 0-5.2 0-5.5a92 92 0 0 1 2.2-22.6c1.1-4.3 3.8-12.6 9.3-13L289 141v44.6c0 2 3 2 3 0V141c0-.7-.7-1.5-1.5-1.5-5.4.4-8.6 5.4-10.4 10a77 77 0 0 0-4.2 28.6c0 2.6-1 8.1 3 8.5 3.8.3 7.7.3 11.6.5 1.9 0 1.9-3 0-3zm-97.1 3.1c3.8-.2 7.7-.2 11.6-.5 3.9-.4 3-5.9 3-8.5-.2-9.8-.5-19.4-4.2-28.6-1.9-4.5-5-9.6-10.4-10-.8 0-1.5.8-1.5 1.6v44.5c0 2 3 2 3 0v-44.5l-1.5 1.5c5.6.4 8 8.6 9.3 13 2.1 7.3 2.1 14.9 2.2 22.5 0 1.7.2 3.6 0 5.4-.1.2-1.7.2-2.2.2l-9.3.4c-2 0-2 3 0 3z" fill="#fff"/><g fill="#fff"><path d="M115 235.6h55.7c7.7 0 9.3 3.3 9.3 6.1v3.7c0 2.8-1.6 6.2-9.3 6.2H98.1"/><path d="M170 187.7V275c0 7.2 11.1 7.2 11.1 0v-87.3c0-7.2-11.1-7.2-11.1 0zM69.8 256.2V275c0 7.2 11.2 7.2 11.2 0v-20.2"/><path d="M71.8 141.7l37.2.5c2.7 0 8.8-1.1 9.7 1.3 2.2 6.1 1.4 14.1 1.3 20.6-.1 17.2-.8 34.6-1.9 51.8a41.6 41.6 0 0 1-12.6 29 46.8 46.8 0 0 1-26.5 9.8c-2.4.3-5 .4-7.4.4l1.5 1.5c0-38.8 0-77.6.2-116.4 0-1.9-3-1.9-3 0L70 256.6c0 .8.7 1.5 1.5 1.5 18.3-.4 36.7-5.7 45-23.4 4.3-9 4.6-18.6 4.8-28.3.2-8.1.7-16.2 1-24.3.5-9 .8-18 .6-27.1-.1-4 .4-11.4-2.7-14.7-1.8-2-6.6-1-9-1l-23.2-.4-16.3-.2c-2 0-2 3 0 3z"/><path d="M120.6 194.4v43.2c0 2 3 2 3 0v-43.2c0-2-3-2-3 0zm17.1 0v43.2c0 2 3 2 3 0v-43.2c0-2-3-2-3 0zm17.2 0v43.2c0 2 3 2 3 0v-43.2c0-2-3-2-3 0zm8.6 0v43.2c0 2 3 2 3 0v-43.2c0-2-3-2-3 0zm-34.3 0v43.2c0 2 3 2 3 0v-43.2c0-2-3-2-3 0zm17.1 0v43.2c0 2 3 2 3 0v-43.2c0-2-3-2-3 0z"/><path d="M122 195.9h48.6c2 0 2-3 0-3h-48.5c-2 0-2 3 0 3zm-46.6 95.5c6.5 0 6.5-10 0-10s-6.5 10 0 10zm100.2 0c6.4 0 6.4-10 0-10s-6.5 10 0 10zm-96-52.6a4.2 4.2 0 0 1-8.4 0 4.2 4.2 0 1 1 8.4 0zm5.5-61.3a4.2 4.2 0 1 1-8.3 0 4.2 4.2 0 0 1 8.3 0zm36.4-24.9a4.2 4.2 0 1 1-8.3 0 4.2 4.2 0 0 1 8.3 0zM88 161a4.2 4.2 0 1 1-8.3 0 4.2 4.2 0 1 1 8.3 0zm-7-14.2a4.2 4.2 0 1 1-8.3 0 4.2 4.2 0 1 1 8.4 0zm24-2.4a4.2 4.2 0 1 1-8.3 0 4.2 4.2 0 1 1 8.3 0zm5.7 66.7a4.2 4.2 0 1 1-8.3 0 4.2 4.2 0 0 1 8.3 0zm6.8-42a4.2 4.2 0 1 1-8.4 0 4.2 4.2 0 1 1 8.4 0zm-27.8 80.5a4.2 4.2 0 0 1-8.4 0 4.2 4.2 0 1 1 8.4 0zm-5.9-59a4.2 4.2 0 0 1-8.3 0 4.2 4.2 0 1 1 8.3 0zm16.8 48.6a4.2 4.2 0 0 1 5.5 2 4.2 4.2 0 0 1-2 5.6 4.2 4.2 0 0 1-5.5-2.1 4.2 4.2 0 0 1 2-5.5zm11-14.5a4.2 4.2 0 0 1 5.5 2 4.2 4.2 0 0 1-7.6 3.5 4.2 4.2 0 0 1 2-5.5zm-19.8-2.3a4.2 4.2 0 0 1-4.3 7.2 4.2 4.2 0 0 1 4.3-7.2zm-14.1-19a4.2 4.2 0 1 1-4.4 7 4.2 4.2 0 1 1 4.4-7zm33.6-20.5a4.2 4.2 0 0 1 1.4 5.8 4.2 4.2 0 0 1-7.2-4.4 4.2 4.2 0 0 1 5.8-1.4zm-12.4-17.4a4.2 4.2 0 1 1-4.4 7.1 4.2 4.2 0 0 1 4.4-7.1zm-1 29.5a4.2 4.2 0 0 1 1.5 5.7 4.2 4.2 0 1 1-7.2-4.3A4.2 4.2 0 0 1 98 195z"/></g></svg>