<svg xmlns="http://www.w3.org/2000/svg" width="361" height="361"><path d="M78.8 189.1c0 1.4 1.9 2.5 4 2.5h130c2.3 0 4.1-1 4.1-2.5v-14.4c0-1.4-1.8-2.5-4-2.5h-130c-2.3 0-4 1.1-4 2.5v14.4z" fill="#fff" stroke="#fff" stroke-width="10" stroke-miterlimit="10"/><path d="M124 170.3a4.1 4.1 0 0 0 4 4.1h76.1a4.1 4.1 0 0 0 4.2-4.1V152a4.1 4.1 0 0 0-4.2-4.2h-76a4.1 4.1 0 0 0-4.2 4.2v18.3z" fill="#fff" stroke="#fff" stroke-width="10" stroke-miterlimit="10"/><path d="M213 148.5v51.7c0 6.5 10 6.5 10 0v-51.7c0-6.4-10-6.4-10 0zm-143.2-4.7v57c0 6.4 10 6.4 10 0v-57c0-6.5-10-6.5-10 0z" fill="#fff"/><path d="M84.3 164.3c0 .8.6 1.4 1.3 1.4H110c.7 0 1.3-.6 1.3-1.4v-6.2c0-.8-.6-1.4-1.3-1.4H85.6c-.7 0-1.3.6-1.3 1.4v6.2z" fill="#fff" stroke="#fff" stroke-width="10" stroke-miterlimit="10"/><path d="M195 77.3h93.9c4.5 0 4.5-7 0-7h-94c-4.4 0-4.4 7 0 7z" fill="#fff"/><path fill="none" stroke="#fff" stroke-width="7" stroke-miterlimit="10" d="M280.3 152.8H195m47-79v77"/><path d="M239.2 112.8h6.6c4.5 0 4.5-7 0-7h-6.6c-4.6 0-4.6 7 0 7zM289 74.4V193c0 2 3 2 3 0V74.4c0-2-3-2-3 0zm-5.8 2v112.3c0 1.9 3 1.9 3 0V76.4c0-2-3-2-3 0zm-6-1.2v112.2c0 2 3 2 3 0V75.2c0-2-3-2-3 0zm-85.5-.8V193c0 2 3 2 3 0V74.4c0-2-3-2-3 0zm5.8 2v112.3c0 1.9 3 1.9 3 0V76.4c0-2-3-2-3 0zm6-1.2v112.2c0 2 3 2 3 0V75.2c0-2-3-2-3 0z" fill="#fff"/><path d="M131.6 274.6a2 2 0 0 1-1 2.7l-32.4 12.6c-1 .4-2.1-.2-2.5-1.3l-23.8-61.2c-.5-1 0-2.3 1-2.6l32.4-12.6c1-.4 2.1.1 2.5 1.2l23.8 61.2z" fill="none" stroke="#fff" stroke-width="3.3" stroke-miterlimit="10"/><path d="M109.4 218.4c.3.8-.3 1.7-1.2 2l-31.5 12.3c-1 .4-1.9 0-2.2-.7l-2-5.4c-.4-.7.1-1.6 1-2l31.6-12.3c1-.3 1.9 0 2.2.8l2 5.3zm-9.8.2a2 2 0 0 0-2.4-1.2l-14 5.5c-1 .4-1.4 1.5-1 2.5l.3.8c.4 1 1.5 1.6 2.4 1.2l14-5.4c1-.4 1.4-1.5 1-2.5l-.3-.9z" fill="#fff" stroke="#fff" stroke-width="2.9" stroke-miterlimit="10"/><path d="M127.5 268.7l-33 12.8c-1 .4-1.5 1.3-1.2 2l2.1 5.5c.3.8 1.3 1.1 2.3.7l33-12.8c1-.4 1.5-1.3 1.2-2l-2.2-5.5c-.2-.7-1.3-1-2.2-.7zm-11.7 11.2a.9.9 0 0 1-.5 1.1l-2.7 1a.9.9 0 0 1-1-.4l-1.1-2.7a.9.9 0 0 1 .5-1.1l2.6-1a.9.9 0 0 1 1.2.4l1 2.7z" fill="#fff"/><path d="M254.2 288.4c0 1-.8 1.7-1.7 1.7H204a1.7 1.7 0 0 1-1.8-1.7v-22.5c0-1 .8-1.8 1.8-1.8h48.4c1 0 1.7.8 1.7 1.7v22.6z" fill="none" stroke="#fff" stroke-width="2.9" stroke-miterlimit="10"/><path d="M216.7 280a1.2 1.2 0 1 1-2.4 0 1.2 1.2 0 1 1 2.4 0zm-7.5-8.2h2.7c2 0 2-3 0-3h-2.7c-2 0-2 3 0 3zm13.3 8.2a1.2 1.2 0 1 1-2.4 0 1.2 1.2 0 1 1 2.4 0zm5.7 0a1.2 1.2 0 1 1-2.4 0 1.2 1.2 0 1 1 2.4 0zm5.8 0a1.2 1.2 0 1 1-2.4 0 1.2 1.2 0 1 1 2.4 0zm5.7 0a1.2 1.2 0 1 1-2.3 0 1.2 1.2 0 1 1 2.3 0zm8-6c-.2 3.1-4.9 3.1-5 0-.2-3.3 4.8-3.3 5 0 0 1.8 3 1.8 3 0a5.6 5.6 0 0 0-5.6-5.6c-3-.1-5.3 2.7-5.5 5.5-.1 3.1 2.7 5.4 5.5 5.5 3.1.2 5.4-2.6 5.5-5.5.1-2-2.9-2-3 0zm-38.5 10.3c0-.8 1-.8 1.1 0 0 .7-1 .7-1 0 0 .8.6 1.5 1.4 1.5.8 0 1.6-.7 1.5-1.5a2.5 2.5 0 0 0-2.4-2.5c-1.4 0-2.4 1.2-2.5 2.5 0 1.4 1.2 2.3 2.5 2.4 1.4.1 2.3-1.2 2.4-2.4 0-.9-.7-1.5-1.5-1.5s-1.4.6-1.5 1.5z" fill="#fff"/><path d="M168 290.1a1.7 1.7 0 0 1-1.6-1.7V250c0-1 .7-1.8 1.7-1.8h27.5c1 0 1.8.8 1.8 1.8v38.4c0 1-.8 1.7-1.8 1.7h-27.5z" fill="none" stroke="#fff" stroke-width="2.9" stroke-miterlimit="10"/><path d="M191.5 274.1c-.6 12.5-18.7 12.5-19.3 0-.3-5.5 4.6-9.4 9.7-9.7 5.4-.3 9.4 4.7 9.6 9.7.1 2 3.1 2 3 0-.8-16.3-24.5-16.3-25.3 0-.4 7.2 6 12.3 12.7 12.7 7.1.4 12.3-6 12.6-12.7.1-2-2.9-2-3 0z" fill="#fff"/><circle cx="181.8" cy="274.1" r="3.7" fill="#fff" stroke="#fff" stroke-miterlimit="10"/><path d="M182.8 255.8c0 1.2-1.9 1.2-2 0 0-1.3 2-1.3 2 0 .1 1.9 3.1 1.9 3 0a4.1 4.1 0 0 0-4-4c-2.2-.2-3.8 1.9-4 4 0 2.2 2 3.8 4 4 2.3 0 4-2 4-4 .1-2-2.9-2-3 0z" fill="#fff"/><path d="M261 290.1a1.7 1.7 0 0 1-1.8-1.7V250c0-1 .8-1.8 1.8-1.8h27.5c1 0 1.7.8 1.7 1.8v38.4c0 1-.8 1.7-1.7 1.7H261z" fill="none" stroke="#fff" stroke-width="2.9" stroke-miterlimit="10"/><path d="M284.4 274.1c-.7 12.5-18.7 12.5-19.4 0-.3-5.5 4.7-9.4 9.7-9.7 5.5-.3 9.4 4.7 9.7 9.7.1 2 3.1 2 3 0-.9-16.3-24.5-16.3-25.4 0-.4 7.2 6.1 12.3 12.7 12.7 7.2.4 12.3-6 12.7-12.7.1-2-2.9-2-3 0z" fill="#fff"/><circle cx="274.7" cy="274.1" r="3.7" fill="#fff" stroke="#fff" stroke-miterlimit="10"/><path d="M275.7 255.8c0 1.2-2 1.2-2 0 0-1.3 2-1.3 2 0 .1 1.9 3.1 1.9 3 0a4.1 4.1 0 0 0-4-4c-2.2-.2-3.9 1.9-4 4-.1 2.2 2 3.8 4 4 2.3 0 4-2 4-4 .1-2-2.9-2-3 0z" fill="#fff"/></svg>