<svg xmlns="http://www.w3.org/2000/svg" width="361" height="361"><path d="M287 239c0 1-3 3-6 3H81c-4 0-6-2-6-3v-17c0-2 2-3 6-3h200c3 0 6 1 6 3v17z" fill="#fff" stroke="#fff" stroke-width="10" stroke-miterlimit="10"/><path d="M70 98v165c0 6 10 6 10 0V98c0-7-10-7-10 0zm212 0v166c0 6 10 6 10 0V98c0-7-10-7-10 0z" fill="#fff"/><path d="M207 146H90c-11 0-9-12-9-20 0-7-3-18 7-21h119c11 0 10 12 10 19 0 9 2 21-10 22-2 0-2 3 0 3 8-1 13-6 13-14v-20c0-7-6-13-13-13H90c-8 0-13 6-13 13v21c0 7 5 13 13 13h117c2 0 2-3 0-3zm0 59H89c-11 0-9-12-9-20 0-7-2-18 7-20l8-1h112c11 0 9 12 9 19 0 9 2 21-9 22-2 0-2 3 0 3 7-1 12-6 12-14v-20c0-7-5-13-12-13H89c-7 0-12 6-12 13v21c0 7 5 13 12 13h118c2 0 2-3 0-3zm59-59h-26c-6 0-13-1-13-9-1-7 1-14 9-15h26c6 0 12 1 13 9 1 7-1 14-9 15-2 0-2 3 0 3 8-1 12-6 12-14s-2-14-11-16h-31c-8 0-12 6-12 14s2 14 11 15l15 1h16c2 0 2-3 0-3zm0 59h-26c-6 0-13-1-13-9-1-7 1-14 9-15h26c6 0 12 1 13 9 1 7-1 14-9 15-2 0-2 3 0 3 8-1 12-6 12-14s-2-14-11-16h-31c-8 0-12 6-12 14s2 14 11 16h31c2 0 2-3 0-3z" fill="#fff"/></svg>