<svg xmlns="http://www.w3.org/2000/svg" width="361" height="361"><path d="M281 163h-21c-4 0-6 4-6 8v11H108v-11c0-5-3-8-6-8H81c-3 0-6 3-6 8v19c0 5 3 8 6 8h10v17c0 8 5 14 11 14h158c6 0 10-6 10-14v-17h11c3 0 6-3 6-7v-20c0-5-3-8-6-8z" fill="none" stroke="#fff" stroke-width="10" stroke-linejoin="round" stroke-miterlimit="10"/><path d="M256 153v-17c0-5-4-10-9-10H114c-5 0-9 5-9 11v16" fill="none" stroke="#fff" stroke-width="10" stroke-miterlimit="10"/><path d="M104 231v4c0 2 2 5 5 5s5-3 5-5v-4a5 5 0 1 0-10 0zm144 0v4c0 2 2 5 5 5s5-3 5-5v-4c0-3-3-5-5-5s-5 2-5 5z" fill="#fff"/></svg>