<svg xmlns="http://www.w3.org/2000/svg" width="361" height="361"><path d="M250 247c2 13-10 23-23 23l-46-5a794 794 0 0 0-46 5c-13 0-25-10-24-23 2-11 11-30 12-43 1-12 11-23 23-23 7 0 25-11 35-11s28 11 35 11c12 0 22 11 23 23 1 13 10 32 11 43zm-81-139c-2-15-11-19-21-17-10 1-19 6-18 21 2 14 13 32 23 31s17-21 16-35zm63 4c1-15-8-20-18-21s-19 2-21 17 6 34 16 35 21-17 23-31zm-118 19c-3-15-13-17-23-15s-18 8-15 23c3 14 16 30 26 28 9-2 15-22 12-36zm172 8c3-14-5-21-15-23s-20 0-23 15c-3 14 3 34 12 36 10 2 23-14 26-28z" fill="none" stroke="#fff" stroke-width="10" stroke-linecap="round" stroke-linejoin="round" stroke-miterlimit="10"/></svg>