<svg xmlns="http://www.w3.org/2000/svg" width="361" height="361"><path d="M236.2 282H130.9c-6.5 0-6.5 10 0 10h105.3c6.4 0 6.4-10 0-10z" fill="#fff"/><path d="M236.2 278h-31.5c-6.5 0-6.5 10 0 10h31.5c6.4 0 6.4-10 0-10z" fill="#fff"/><path d="M231.2 74.7v209.5c0 6.4 10 6.4 10 0V74.7c0-6.5-10-6.5-10 0zM144 277.9h-13.2c-6.5 0-6.5 10 0 10H144c6.4 0 6.4-10 0-10z" fill="#fff"/><path d="M125.9 283v4c0 2.8 2.3 5 5 5s5-2.2 5-5v-4c0-2.8-2.3-5-5-5s-5 2.2-5 5zm67-200.2l41 11c6.2 1.6 8.8-8 2.6-9.7l-40.9-11c-6.2-1.6-8.9 8-2.7 9.7z" fill="#fff"/><path d="M189.4 76.8l-3.6 13.6c-1.7 6.2 8 8.9 9.6 2.6l3.6-13.5c1.7-6.2-8-8.9-9.6-2.7z" fill="#fff"/><path d="M167.2 92.7l42.4 11.4c6.3 1.7 9-8 2.7-9.7l-42.5-11.3c-6.2-1.7-8.9 8-2.6 9.6z" fill="#fff"/><path d="M163.5 87.2l-1.7 6.4a5 5 0 0 0 3.5 6.2 5 5 0 0 0 6.1-3.5l1.8-6.5a5 5 0 0 0-3.5-6.1 5 5 0 0 0-6.2 3.5zM206 98.9l-1.7 6.5a5 5 0 0 0 3.5 6.1 5 5 0 0 0 6.1-3.5l1.7-6.4a5 5 0 0 0-3.5-6.2A5 5 0 0 0 206 99zm-16 26l-3.9 14.6c-1.1 4.3 5.6 6.2 6.8 1.8l3.9-14.5c1.2-4.4-5.6-6.2-6.8-1.9zm-9-12.7l-3.3 12.3c-1.1 4.4 5.6 6.2 6.8 1.9l3.3-12.3c1.1-4.4-5.6-6.3-6.8-1.9zm-6.4 24.1L169 157c-1.2 4.3 5.5 6.2 6.7 1.8l5.5-20.5c1.2-4.4-5.6-6.2-6.8-1.9zm-7.7-17.6l-4 14.5c-1.1 4.4 5.6 6.3 6.8 1.9l3.9-14.5c1.2-4.4-5.6-6.2-6.7-1.9zm-7 25.7l-5.4 20.6c-1.2 4.3 5.6 6.2 6.7 1.8l5.5-20.5c1.2-4.4-5.6-6.2-6.7-1.9zm23.8 5.5l-5.5 20.5c-1.1 4.4 5.6 6.2 6.8 1.9l5.5-20.5c1.2-4.4-5.6-6.3-6.8-2zm15.6-12.5l-4 15c-1.2 4.5 5.6 6.3 6.8 2l4-15.1c1.2-4.4-5.6-6.2-6.8-1.9zm-7.6 28.5l-5.5 20.5c-1.2 4.4 5.5 6.2 6.7 1.9l5.5-20.6c1.2-4.3-5.6-6.2-6.7-1.8zm-39-41.3l-4 15c-1.2 4.5 5.5 6.3 6.7 2l4-15.1c1.2-4.4-5.5-6.2-6.7-1.9zM145 153l-5.5 20.5c-1.1 4.4 5.6 6.2 6.8 1.9l5.5-20.6c1.1-4.3-5.6-6.2-6.8-1.8zm49.6-44.2l-1.8 6.5c-1.2 4.4 5.6 6.2 6.8 1.9l1.7-6.6c1.2-4.3-5.6-6.2-6.7-1.8zm-22.8-6.2l-1.7 6.5c-1.2 4.4 5.5 6.2 6.7 1.9l1.8-6.5c1.1-4.4-5.6-6.3-6.8-2zm-6.8 66.8l-4 15c-1.2 4.4 5.5 6.3 6.7 1.9l4-15c1.2-4.4-5.5-6.3-6.7-2zm38.4-46.4l-1 4c-.5 1.8.6 3.8 2.4 4.3 1.8.5 3.8-.6 4.3-2.5l1-4c.6-1.8-.5-3.7-2.4-4.2-1.8-.5-3.8.6-4.3 2.4zm-46.2-12.8l-1 4c-.5 1.8.6 3.8 2.4 4.3 1.8.5 3.8-.6 4.3-2.5l1-4c.6-1.8-.5-3.7-2.4-4.2-1.8-.5-3.8.6-4.3 2.4z" fill="#fff"/></svg>