<svg xmlns="http://www.w3.org/2000/svg" width="361" height="361"><path d="M287.3 181.2H197c-4.5 0-4.5 7 0 7h90.4c4.5 0 4.5-7 0-7z" fill="#fff"/><path d="M282.3 280.7c-.2 2.5-26.7 1-29.2 1h-44.3c-1 0-7.5.8-7.5-1V171.3c0-1.6-.6-4.2 1.6-4.2h75.8c1.7 0 3.6-.5 3.6 1.7v111.8c0 6.4 10 6.4 10 0V172c0-3.9.2-7.6-2.5-10.8-3.4-4.2-8-4.1-12.8-4.1h-74.6c-12.8 0-11 14.2-11 22.8v88.2c0 8.6-2 23.5 11 23.5h78.9c6.4 0 10.4-5 11-11 .7-6.5-9.3-6.4-10 0z" fill="#fff"/><path d="M238.6 177.2H250c4.5 0 4.5-7 0-7h-11.5c-4.5 0-4.5 7 0 7zm24.7 0h7.5c4.6 0 4.6-7 0-7h-7.5c-4.5 0-4.5 7 0 7zm8 63.9c-.4 16.1-13 28.8-29.2 29s-28.7-13.4-29-29a29 29 0 0 1 29-29 29.2 29.2 0 0 1 29.1 29c.1 4.5 7.1 4.5 7 0a36.6 36.6 0 0 0-36-36c-20-.5-35.8 16.7-36.2 36a36.3 36.3 0 0 0 36.1 36c20 .5 35.7-16.7 36.1-36 .1-4.5-6.9-4.5-7 0z" fill="#fff"/><path d="M260.9 241.1a19 19 0 0 1-18.8 18.8c-10.4.3-18.4-8.8-18.7-18.8-.4-10.4 8.7-18.4 18.7-18.7 10.5-.4 18.5 8.7 18.8 18.7.1 4.5 7.1 4.5 7 0a26.2 26.2 0 0 0-25.8-25.7c-14.3-.5-25.3 12-25.7 25.7-.5 14.3 12 25.4 25.7 25.8 14.4.4 25.4-12.1 25.8-25.8.1-4.5-6.9-4.5-7 0zm26.6-139a911 911 0 0 1-143-9.4c-15-2.4-30-5.4-44.5-10a61 61 0 0 1-23.7-11.8c-3.3-3-8.2 1.9-5 5a65.5 65.5 0 0 0 24.5 12.7c14.8 5 30.3 8.1 45.7 10.6 48 8 97.2 10 146 10 4.5 0 4.5-7 0-7z" fill="#fff"/><path d="M187 97v11.4c0 4.5 7 4.5 7 0V97c0-4.5-7-4.5-7 0zm-41-3.8v11.5c0 4.5 7 4.5 7 0V93.2c0-4.6-7-4.6-7 0zM111.2 83v11.5c0 4.6 7 4.6 7 0V83c0-4.5-7-4.5-7 0zM88 77.5V89c0 4.5 7 4.5 7 0V77.4c0-4.5-7-4.5-7 0zm169 36.8c-.9-5-6-5.7-10.3-5.7h-30.3c-5.8 0-8.3 3.4-8.3 8.6 0 4.5.6 9.3 0 13.7-.3 2.7-2.9 11.2 1.7 12 4.6 1 9.8.3 14.5.3 5.4 0 4.8-5 4.8-9l-1.5 1.6h10l-1.5-1.5c0 4-.6 9 4.8 9h9.5c2.1 0 4.2.2 6.1-1 3.4-2.3.5-9.5.5-12.7v-15c0-1.9-3-1.9-3 0 0 7-.2 14 .6 20.8.2 1.7 1.2 4.8-1.4 4.8h-12.7c-2.2 0-1.4-4.6-1.4-6 0-.7-.7-1.4-1.5-1.4h-10c-.8 0-1.5.7-1.5 1.5v4.6c0 2-3.7 1.3-4.7 1.3-1.6 0-11.5 1.2-11.2-1.6.9-7.2 1-14.1 1-21.4 0-4.3 2.8-5.7 6.8-5.7h25.4c3.3 0 10-.9 10.7 3.6.3 1.9 3.2 1 2.9-.8z" fill="#fff"/><path d="M236.3 117.8c2.2.4 1.4 3.7 1.4 5.1v7.2c0 2.4-1 2.7-3.2 2.7h-6.1c-2.2 0-1.2-11.2-1.2-12.7 0-3.6 6.9-2.2 9.5-2.2 2 0 2-3 0-3-4.4 0-12.5-1.7-12.5 4.8v10c0 2.7.3 5.5 3.7 6 2.6.5 5.5.1 8.2.1 2.7 0 4.7-1.7 4.7-4.5v-10.2c0-2.8-.3-5.6-3.7-6.2-2-.3-2.7 2.6-.8 3z" fill="#fff"/><path d="M209.5 117.7h46c1.9 0 1.9-3 0-3h-46c-1.9 0-1.9 3 0 3zm-106.3 2.7c.1 3-3.1 4.6-5.4 2.5l-1.2-1-4.1-3.7c-2-1.8-3.8-3.2-3.8-6.1V92.7c0-2.2 5.5-1.6 5.5-.5a144 144 0 0 0 0 11.2c.2 2.9.3 5.5 2 7.8 2.3 3 6 6 7 9.6.6 1.8 3.5 1 3-.8-1.3-4.2-5.6-7.9-8.1-11.4-1.3-1.8-.9-5.4-1-7.5v-8.5c.2-4.2-3.2-4.2-6.5-4.2-3.8 0-4.9 1.8-4.9 5.4v15.1c0 2.8-.6 6.5 1.7 8.6 2.8 2.7 5.6 5.5 8.7 7.9 4.7 3.6 10.3 1.3 10.1-5 0-2-3-2-3 0zm23.6 5.9c.1 3-3.1 4.6-5.4 2.5l-1.2-1-4.1-3.7c-2-1.8-3.8-3.3-3.8-6.1V98.6c0-2.2 5.6-1.6 5.5-.5v11.2c.2 2.9.4 5.5 2.1 7.8 2.2 3 6 6 7 9.6.5 1.8 3.4 1 2.9-.8-1.3-4.2-5.6-7.9-8.1-11.4-1.3-1.8-.9-5.4-1-7.5l.1-8.5c.1-4.2-3.3-4.2-6.6-4.2-3.8 0-4.9 1.8-4.9 5.3v15.2c0 2.8-.6 6.5 1.7 8.6 2.8 2.7 5.6 5.5 8.7 7.8 4.7 3.7 10.3 1.5 10.1-5 0-1.8-3-1.8-3 0zm18.5 135.1c-.7 3.7-4.8 3-6.4.6l-3-4.4c-1.4-2-3.6-4.2-3-6.8l4.1-17.5c.6-2.5 5.7 0 5.6.3-1 3.6-1.8 7.2-2.4 10.9a11 11 0 0 0 .6 6.8c1.4 3.2 4.2 7 4.5 10.5 0 2 3 2 3 0-.3-4-3.3-8.4-5-12-1.8-4.3 1-11.1 2.2-15.4 1-4-3.7-4.5-6.3-5.1-3.5-.9-4.6 1.4-5.3 4.3l-3.3 13.9c-.8 3.5-1.4 5.7.8 9 2.4 3.3 4.6 7.6 7.8 10.2 3.8 3.2 8.3-.5 9-4.5.4-1.9-2.5-2.7-3-.8zm4.5-11.4c-.2 3.7 1.9 6.7 5.8 7 3 .1 6.2-3.7 8.3-5.6 2.2-2 5.6-4.2 6.3-7.3.6-2.7 0-6 0-8.8 0-2.8.3-5.4-3-6.3-2.2-.6-6-.4-7.7 1.4-.9.8-.7 2-.6 3 0 2.9-.9 4.7-2.5 6.7-2.2 2.8-5.6 6-6.6 9.5-.5 1.8 2.4 2.6 3 .8 1.2-4.4 6.1-7.3 8-11.4 1-1.9 1.3-4.8 1-6.9 0 .5 5.4-1.2 5.4.7 0 4 1.4 10.2-1.8 13.2l-4.4 4-2.3 2c-2.2 2-6.1 1.6-6-2 .1-2-2.9-2-3 0z" fill="#fff"/><path d="M136.4 263.5l.3 21.2c0 3.9 7 3.9 7 0l-.3-17.6c0-3.9-2.1-2.5-7-4.3v.7zm17-27.1l-.6 11.6-.4 6.6-1.8 31.2c-.3 4.2 6.7 4.1 7 0l1.8-30.6c.2-4.4-7.1 1.5-6.9-2.9.4-6.3 8-15 8-16 .2-4.2-6.8-4.1-7 0zm-62.9.3a2275880076188540400 2275880076188540400 0 0 0 10.1 50.5l-3-50.5c-.4-4.5-7.4-4.5-7 0zm31-.2l.4 50.5c0 4.5 7 4.6 7 0l-.3-50.5c0-4.5-7-4.5-7 0zm-14.4 0l.3 49.9c0 4.5 7 4.5 7 0l-.3-49.9c0-4.5-7-4.5-7 0z" fill="#fff"/><g fill="#fff"><path d="M144 234l-1.1 4.7h16.7l.3-.4c1.1-3.9.7-6 .7-6l.1-.6h-18.3.2a1.9 1.9 0 0 1 1.5 2.3z"/><path d="M173.9 231.7h-5l.2.7v6.3h4.8c-2.1 12.5-4.3 25-6.9 37.3a209.3 209.3 0 0 1-1.6 7.1l-.4 1.8H85.7a72.1 72.1 0 0 1-.6-2.4 1045.8 1045.8 0 0 1-6.5-33.5 1904.1 1904.1 0 0 1-1.5-8.5l-.3-1.8h57.4l1.6-6.6a1.9 1.9 0 0 1 .1-.4H79.3c-4 0-8.4.2-9.6 5-1 3.5 1.2 9.1 1.8 12.5l4.3 23.4c1 5.2 1.8 11 3.8 16.1 1.3 3.4 4 3.2 7 3.2h79.8l1.6-.1a3 3 0 0 0 2-1.3c2.3-2.5 2.7-7.5 3.3-10.3a689 689 0 0 0 4.4-23 1774.4 1774.4 0 0 0 3.1-17.5c.8-4.7-2-8-7-8z"/></g><g fill="#fff"><path d="M170.3 128.2a21 21 0 0 0-21-20.4c-2 0-2 3 0 3a18 18 0 0 1 18 17.4c.1 1.9 3.1 1.9 3 0z"/><path d="M167.3 128.2c0 1.9 1.3 3.7 3.4 3.8.8 0 1.5-.7 1.5-1.5 0-.9-.7-1.5-1.5-1.5-.2 0-.2 0 0 0-.1 0-.1 0 0 0a1.9 1.9 0 0 1-.2-.1c.3.2 0 0 0-.1 0 .1 0 .1 0 0-.2-.4 0 .2 0-.2a3 3 0 0 1-.1-.2v-.2a1.5 1.5 0 0 0-1.5-1.5c-.8 0-1.6.7-1.5 1.5zM146.8 109h23.9c2 0 2-3 0-3h-24c-1.9 0-1.9 3 0 3z"/><path d="M145.3 107.5c0 .1 0 .6 0 0l-.1.7c0 .5 0 1 .3 1.3.6 1.2 2.3 1.2 3.4 1.2 2 0 2-3 0-3a13.8 13.8 0 0 1-.8 0 7.7 7.7 0 0 1-.2 0c.3 0 0 0 0 0a2.5 2.5 0 0 1-.2 0c-.3-.1.3 0 0 0l.2.1c-.2-.1.2.4.1.2l.1.2c.2.4 0 .4 0 .2 0-.1.1-.5 0 0l.2-.9c0-.8-.7-1.5-1.5-1.5-.9 0-1.5.7-1.5 1.5zm28.6 20.7a18 18 0 0 1 18-17.4c2 0 2-3 0-3a21 21 0 0 0-21 20.4c0 1.9 3 1.9 3 0z"/><path d="M170.9 128.2v.3c0-.2 0-.2 0 0a2.5 2.5 0 0 1-.1.3c0-.3 0 0-.1 0 .1 0 .1 0 0 0-.3.4.2 0 0 .2-.2 0-.2 0 0 0h-.1c-.8 0-1.5.6-1.5 1.5 0 .8.7 1.5 1.5 1.5 2-.1 3.3-2 3.3-3.8 0-.8-.7-1.5-1.5-1.5s-1.5.7-1.5 1.5zm23.6-22.2h-24c-1.8 0-1.8 3 0 3h24c2 0 2-3 0-3z"/><path d="M193 107.5v1c.1.1 0-.5 0-.1 0 .3.1-.3 0-.2l.5-.6c-.2.2.4 0 0 0h-.2c-.3.2.4 0 0 .1a10 10 0 0 1-1 0c-2 0-2 3 0 3 1.2 0 2.7 0 3.4-1.2.3-.3.4-.8.4-1.2l-.1-.7v.2a2.4 2.4 0 0 1 0-.3 1.5 1.5 0 0 0-1.5-1.5c-.8 0-1.5.7-1.5 1.5z"/></g><path d="M246 99.3v11.5c0 4.5 7 4.5 7 0V99.3c0-4.5-7-4.5-7 0zm-34.2-.8V110c0 4.6 7 4.6 7 0V98.5c0-4.5-7-4.5-7 0z" fill="#fff"/></svg>