<svg xmlns="http://www.w3.org/2000/svg" width="361" height="361"><path d="M124 217v-66c0-5-1-9-5-12-4-4-12-3-17-3-6 0-13-1-18 2-7 3-5 12-5 18s10 6 10 0c0-2-2-10 1-10h16c2 0 8-1 8 2v69c0 6 10 6 10 0z" fill="#fff"/><path d="M149 187v-67c0-4 0-8-4-11-5-4-12-3-18-3s-12-1-18 2-5 12-5 18c0 7 10 7 10 0 0-2-1-10 2-10h16c2 0 7-1 7 2v69c0 6 10 6 10 0z" fill="#fff"/><path d="M72 219l43-61 7-10a15 15 0 0 1 8-6c1-1 11-1 10 1 0 3-3 5-4 7l-9 13-57 82c-1 1 1 3 3 1l39-57 24-34c3-4 13-16 2-16-6 0-10 0-16 4l-4 5-16 24-32 46c-1 1 1 3 2 1z" fill="#fff"/><g fill="#fff"><path d="M166 245a55 55 0 0 0-23 0l-19 3c-6 1-12-2-18-3a58 58 0 0 0-23 0c-2 0-1 3 0 3 9-2 16-1 24 0 6 2 11 3 17 3l17-2a57 57 0 0 1 24-1c2 0 3-3 1-3z"/><path d="M146 248c8-2 15-1 23 1l18 2c5 1 11-1 16-2a57 57 0 0 1 24-1c2 0 3-3 1-3a56 56 0 0 0-22 0l-19 3c-6 1-13-2-19-3-8-1-15-2-23 0-2 0-1 3 1 3z"/><path d="M208 248a56 56 0 0 1 24 0c5 2 11 3 17 3l16-2a57 57 0 0 1 24-1c2 0 3-3 1-3a56 56 0 0 0-22 0l-19 3c-6 1-13-2-18-3a56 56 0 0 0-24 0c-2 0-1 3 1 3z"/></g><g fill="#fff"><path d="M181 227a55 55 0 0 0-23 0c-6 2-13 4-19 4l-18-3a58 58 0 0 0-23-1c-2 1-1 3 0 3 9-2 16-1 24 1 6 1 11 3 17 3l17-3a57 57 0 0 1 24-1c2 0 2-2 1-3z"/><path d="M161 230c8-2 15-1 23 1l18 3 16-3a57 57 0 0 1 24-1c2 0 3-2 1-3a56 56 0 0 0-22 1l-19 3-19-3c-8-2-15-2-23-1-2 1-1 3 1 3z"/><path d="M223 230c12-2 22 1 33 3 12 2 22-2 34-4 2 0 2-3 0-3l-16 3a49 49 0 0 1-21 0l-13-2a48 48 0 0 0-18 0c-2 1-1 3 1 3z"/></g><g fill="#fff"><path d="M189 210a61 61 0 0 0-26 1c-8 2-16 3-24 1-2 0-3 3-1 3 9 2 17 1 25-1a57 57 0 0 1 25-1c2 0 3-3 1-3z"/><path d="M169 213c9-2 16-1 24 1l17 2c6 1 11-1 17-2a57 57 0 0 1 24-1c2 0 3-3 1-3a56 56 0 0 0-23 0c-6 1-12 3-19 3-6 1-12-1-18-3a56 56 0 0 0-23 0c-2 0-1 3 0 3z"/><path d="M232 213c10-2 19 0 29 2 5 1 10 2 15 1l14-3c2 0 1-3 0-3a173 173 0 0 1-14 3c-5 1-11 0-17-2a67 67 0 0 0-28-1c-2 0-1 3 1 3z"/></g><g fill="#fff"><path d="M237 154a56 56 0 0 0-23 0l-19 3c-6 1-12-1-18-3a58 58 0 0 0-23 0c-2 0-1 3 0 3 9-2 16-1 24 1l17 3c6 0 11-2 17-3a57 57 0 0 1 24-1c2 0 2-3 1-3z"/><path d="M217 157a53 53 0 0 1 22 0l14 3c12 2 23-4 35-5 2 0 2-3 0-3-12 1-24 7-36 5l-16-3a52 52 0 0 0-20 0c-2 0-1 3 1 3z"/><path d="M279 157a52 52 0 0 1 10-2c2 0 2-3 0-3a57 57 0 0 0-11 2c-2 0-1 3 1 3z"/></g><g fill="#fff"><path d="M222 171c-11-2-20 0-30 2-6 2-11 2-17 2l-15-2c-2-1-3 2-1 3 10 1 19 3 29 1l12-2a51 51 0 0 1 21-1c2 1 3-2 1-3z"/><path d="M202 174c8-1 16 0 24 1 5 1 11 3 17 3 5 0 11-1 16-3a57 57 0 0 1 24-1c2 1 3-2 1-3a56 56 0 0 0-22 1l-19 3-18-3a58 58 0 0 0-24-1c-2 1-1 4 1 3z"/><path d="M264 174c9-1 17 0 25 2 2 0 3-3 1-3-9-2-17-3-26-2-2 1-2 4 0 3z"/></g><g fill="#fff"><path d="M208 190c-9-2-17-1-26 1s-16 4-25 1c-2 0-3 3-1 3 9 3 17 1 26-1s16-3 25-1c2 0 3-2 1-3z"/><path d="M188 193a56 56 0 0 1 24 1c5 1 11 3 17 3l16-3a57 57 0 0 1 25-1c2 0 2-3 0-3a56 56 0 0 0-22 0c-6 2-13 4-19 4l-18-3a56 56 0 0 0-24-1c-1 1-1 3 1 3z"/><path d="M250 193c8-1 15-1 23 1 6 1 11 3 17 3 2 0 2-3 0-3l-18-3a55 55 0 0 0-22-1c-2 0-1 3 0 3z"/></g></svg>