<svg xmlns="http://www.w3.org/2000/svg" width="361" height="361"><path d="M256 271a4 4 0 0 1-4 4H110a4 4 0 0 1-5-4V79a4 4 0 0 1 5-4h142a4 4 0 0 1 4 4v192z" fill="none" stroke="#fff" stroke-width="10" stroke-miterlimit="10"/><path d="M180 185c3 4 2 7-1 11a10 10 0 0 0-1 10c1 2 4 1 3-1-2-5 2-8 3-12 2-3 0-7-2-9-1-2-3 0-2 1zm9 3c2 3 2 6-1 9a9 9 0 0 0 0 9c0 2 3 1 2-1-2-4 2-7 3-10s0-7-2-9c-1-1-3 0-2 2zm-19 0c3 3 2 6 0 9a9 9 0 0 0-1 9c1 2 3 1 3-1-2-4 1-7 3-10 1-3 0-7-2-9-1-1-4 0-3 2zm23-84h13c5 0 5-7 0-7h-14c-4 0-4 7 0 7zm30 5h-3c-2 0-3 2-3 4s1 3 3 3h3c1 0 3-1 3-3s-2-4-3-4zm-3-5h2c2 0 4-1 4-3s-2-4-4-4h-2c-2 0-3 2-3 4s1 3 3 3zM115 292h132c7 0 7-10 0-10H115c-7 0-7 10 0 10zm105-136c-1 3-28 1-30 1h-46c-2 0-2-4-2-5 1-1-1-14 2-14h71c3 0 5-1 5 2v16c0 7 10 7 10 0v-17c0-7-6-11-13-11h-73c-8 0-12 6-12 14 0 6-1 14 2 20 4 6 13 5 19 5h65c7 0 11-5 11-11 1-6-9-6-10 0z" fill="#fff"/><path d="M159 175c1 0 1 2 1 0v-10c0-1-3 1-1 1h5c-1 0-1-2-1 0v10c0-1 2-1 0-1h-5c-4 0-4 7 0 7h7c4-1 5-4 5-7 0-5 2-14-5-15l-7-1c-4 0-5 4-5 7 0 5-2 15 4 16 5 0 7-6 2-7zm39 0s0 2 0 0v-10c0-1-2 1 0 1h5c-2 0-1-2-1 0v10c0-1 2-1 0-1h-5c-5 0-5 7 0 7h7c4-1 5-4 5-7 0-5 1-14-5-15l-7-1c-4 0-6 4-6 7 0 5-2 15 5 16 4 0 6-6 2-7zm-53 102h71c7 0 7-10 0-10h-71c-6 0-6 10 0 10zm51-28c0 9-10 7-16 7s-15 2-19-3l-1-7v-10c0-5-2-12-1-17 0 1-1 1 1 1h4a79 79 0 0 0 3 0h31c-1 0-1-2-1 0v12l-1 17c0 7 10 7 10 0l1-17c0-6 2-14-2-18-4-6-13-4-19-4h-20c-8 0-17 0-17 10l1 20c0 7-1 14 4 20s13 6 21 6h14c10 0 17-8 17-17 0-6-10-6-10 0z" fill="#fff"/><path d="M150 246c-9-1-9-15 0-16 6 0 6-10 0-10-22 1-22 34 0 36 6 0 6-10 0-10zm56-137h-14c-4 0-4 7 0 7h14c5 0 5-7 0-7zm-62 5h31c9 0 9-15 0-15h-31c-10 0-10 15 0 15z" fill="#fff"/></svg>