<svg xmlns="http://www.w3.org/2000/svg" width="361" height="361"><path d="M213.2 180.9v107.5c0 4.5 7 4.5 7 0V180.9c0-4.5-7-4.5-7 0zm70.8 0v107.5c0 4.5 7 4.5 7 0V180.9c0-4.5-7-4.5-7 0zM69.5 81.5v206.9c0 4.5 7 4.5 7 0V81.5c0-4.5-7-4.5-7 0zm99.8 0v206.9c0 4.5 7 4.5 7 0V81.5c0-4.5-7-4.5-7 0z" fill="#fff"/><path d="M169.4 84.2H73.9c-4.6 0-4.6 7 0 7h95.5c4.5 0 4.5-7 0-7zm0 54.8H73.9c-4.6 0-4.6 7 0 7h95.5c4.5 0 4.5-7 0-7zm0 54.8H73.9c-4.6 0-4.6 7 0 7h95.5c4.5 0 4.5-7 0-7zm0 72H73.9c-4.6 0-4.6 7 0 7h95.5c4.5 0 4.5-7 0-7z" fill="#fff"/><path d="M128.4 190.4c.1-.3.8-.2 0-.2h-18c-.4 0 .3 1 .3.1v-22.4c0 .7-1 .6 0 .6h18c.3 0-.4-1-.4-.1v22.4c0 2 3 2 3 0v-13c0-2.4 1.4-9.5-.7-11.6-1-1-2.5-.7-3.7-.7H118c-3 0-9-1.4-10.4 2-.4 1 0 3 0 4.2v9.1c0 2.5-1.4 9.6.7 11.7 1 1 2.6.7 3.8.7h8.8c2.9 0 8.9 1.4 10.3-2 .7-1.8-2.2-2.6-3-.8zM109.2 163h20.6c2 0 2-3 0-3h-20.6c-2 0-2 3 0 3zm-8.1 27.4c0-.3.8-.2 0-.2H83c-.4 0 .3 1 .3.1v-22.4c0 .7-1 .6 0 .6h18c.4 0-.3-1-.3-.1v22.4c0 2 3 2 3 0v-13c0-2.4 1.4-9.5-.7-11.6-1-1-2.6-.7-3.8-.7h-8.8c-3 0-8.9-1.4-10.3 2-.5 1 0 3 0 4.2v9.1c0 2.5-1.4 9.6.6 11.7 1 1 2.6.7 3.8.7h8.8c3 0 9 1.4 10.3-2 .8-1.8-2.1-2.6-2.9-.8zM81.8 163h20.7c2 0 2-3 0-3H81.8c-1.9 0-1.9 3 0 3zm72 27.6l-.3.5 1-1c-1.5.6-4.4 0-6.2 0-1.9 0-5.1.7-6.9 0l1 1c-.7-2 0-5.5 0-7.7 0-2.3-.8-6.2 0-8.3l-1 1c1.6-.6 4.5 0 6.3 0 1.9 0 5.2-.6 6.9 0l-1-1c.7 2 0 5.6 0 7.7v8.2c0 2 3 2 3 0v-9c0-1.8 1-6.8-.6-8.3-1.6-1.7-7-.7-9-.7-2.4 0-6.5-1-7.6 1.8-.3.8 0 2.2 0 3v6.3c0 2-1 6.9.6 8.4 1.6 1.7 7 .7 9 .7 2.4 0 6.5 1 7.6-1.8.8-1.7-2.2-2.5-2.9-.8zm-13-19.4h14.4c2 0 2-3 0-3h-14.4c-1.9 0-1.9 3 0 3zm19.8-37.5c0 3.8-5.5 2.4-8.2 2.4-1.5 0-1-8-1-8.6v-11.6c0-3.7 1.5-6.3 3.1-9.6a16.6 16.6 0 0 0 1.5-5.2c0-.3-.2-3 0-1.3.1 1.5.5 3 1 4.4 1.2 3.8 3.6 6.6 3.6 10.8v18.7c0 2 3 2 3 0v-12.1c0-4.2.5-8.8-1.2-12.8-1.1-2.7-2.6-5-3.3-7.9-.6-2.9 0-4.3-3-4.7-2.5-.3-2.8 1.7-3 3.5 0 3.8-2.2 6.8-3.7 10.1-1.4 3.3-1 7.3-1 10.9v13c0 5.3 2.5 5.4 7.1 5.4 4.8 0 8.1.4 8-5.4 0-2-3-2-3 0z" fill="#fff"/><path d="M155 97.2h2c2 0 2-3 0-3h-2c-1.9 0-1.9 3 0 3zm-12.3 36.5c0 3.8-5.5 2.4-8.2 2.4-1.5 0-1-8-1-8.6v-11.6c0-3.7 1.6-6.3 3.1-9.6a16.6 16.6 0 0 0 1.6-5.2l-.1-1.3c.1 1.5.5 3 1 4.4 1.2 3.8 3.6 6.6 3.6 10.8v18.7c0 2 3 2 3 0v-12.1c0-4.2.5-8.8-1.1-12.8-1.2-2.7-2.6-5-3.3-7.9-.7-2.9 0-4.3-3.2-4.7-2.3-.3-2.7 1.7-2.8 3.5-.1 3.8-2.3 6.8-3.8 10.1-1.4 3.3-1 7.3-1 10.9v13c0 5.3 2.6 5.4 7.2 5.4 4.8 0 8 .4 8-5.4 0-2-3-2-3 0z" fill="#fff"/><path d="M137.2 97.2h1.9c2 0 2-3 0-3h-1.9c-2 0-2 3 0 3zm-46.5 37.6c0 2-5.4 2-5.4 0v-13c0-2.6 1.3-4.3 2.2-6.7.5-1.3 1-2.6 1-4-.8-.3-1.1-.2-1 .4l1 3.5c1 2.4 2.2 4.2 2.2 6.9v13c0 1.9 3 1.9 3 0 0-5.4 1.3-12.7-.8-17.7-1-2.6-2.2-4.7-2.6-7.7a2 2 0 0 0-2-1.8c-1 0-2.3.2-2.6 1.4-.9 3-1.3 5.4-2.6 8.3-1.2 2.5-.8 5.5-.8 8.2V136c0 3.4 3.3 3 5.7 3 3.5 0 5.7 0 5.7-4.2 0-2-3-2-3 0z" fill="#fff"/><path d="M87.3 109.3h1.3c2 0 2-3 0-3h-1.3c-2 0-2 3 0 3zm16.2 25.5c0 2-5.4 2-5.4 0v-13c0-2.6 1.4-4.3 2.3-6.7.4-1.3.9-2.6 1-4-1-.3-1.2-.2-1 .4a19 19 0 0 0 1 3.5c1 2.4 2 4.2 2 6.9v13c0 1.9 3 1.9 3 0 0-5.4 1.5-12.7-.6-17.7-1.2-2.6-2.3-4.7-2.6-7.7a2 2 0 0 0-2-1.8c-1 0-2.4.2-2.7 1.4-.8 3-1.3 5.4-2.6 8.3-1.1 2.5-.8 5.5-.8 8.2V136c0 3.4 3.3 3 5.7 3 3.5 0 5.7 0 5.7-4.2 0-2-3-2-3 0z" fill="#fff"/><path d="M100.1 109.3h1.4c1.9 0 1.9-3 0-3H100c-1.9 0-1.9 3 0 3zm187.4 69.3h-70.8c-4.5 0-4.5 7 0 7h70.8c4.6 0 4.6-7 0-7zm0 97.6h-70.8c-4.5 0-4.5 7 0 7h70.8c4.6 0 4.6-7 0-7zm-70.8-73.7c4.5 0 4.5-7 0-7s-4.5 7 0 7zm70.8 0c4.6 0 4.6-7 0-7s-4.5 7 0 7zM115 259.9c-.5 4.7-5.9 3.7-8.7 3.7H94c-5 0-12.2 1.3-12.2-6v-40.5c0-7.2 8.5-5.5 13.2-5.5 3 0 20-2.4 20 3.8v44.5c0 2 3 2 3 0v-37.4c0-3.8 1-10.1-2.7-12.5-4.5-2.9-12.4-1.4-17.4-1.4-4 0-13.4-1.7-16.7 1.6-3.4 3.4-2.4 8.7-2.4 13v23.6c0 4.7-.4 9.6.1 14.3 1 8 14.8 5.5 20 5.5 6.5 0 18 2.4 19.1-6.7.2-2-2.8-2-3 0zm14.7 2.9c-4.2-.7-2.4-11.4-2.4-14.2v-5.3c0-2.7 3.6-2.1 5-2.1h27.2c3.6 0 2 13 2 15 0 1.4.9 6.5-2 6.5h-30.2c-1.9 0-1.9 3 0 3h15.1c5 0 10.6.8 15.5 0 6.3-1 4.7-8.7 4.7-13.3 0-4.6 1.8-13.1-4.7-14.2-4.6-.7-9.8 0-14.5 0h-16c-6.7 0-5.1 9.1-5.1 13.3 0 4.6-1.8 13.1 4.6 14.2 2 .3 2.7-2.6.8-3z" fill="#fff"/><path d="M132.7 238.2c-4.2-.7-2.4-11.4-2.4-14.1v-5.4c0-2.7 3.6-2.1 5-2.1h27.2c3.6 0 2 13 2 15 0 1.5.9 6.6-2 6.6h-30.2c-1.9 0-1.9 3 0 3h15.1c5 0 10.6.7 15.5 0 6.3-1 4.7-8.8 4.7-13.3 0-4.7 1.8-13.2-4.7-14.3-4.6-.7-9.8 0-14.5 0h-16c-6.7 0-5.1 9.1-5.1 13.3 0 4.7-1.8 13.2 4.6 14.2 2 .3 2.7-2.6.8-2.9zm113.5-40a9 9 0 0 0-8.8-8.8c-5-.3-8.6 4.2-8.9 8.8-.2 5 4.3 8.6 8.9 8.9 5 .2 8.6-4.3 8.8-8.9.1-1.9-2.9-1.9-3 0-.4 7.6-11.2 7.6-11.7 0-.4-7.5 11.3-7.4 11.7 0 .1 2 3.1 2 3 0zm19 0a9 9 0 0 0-8.8-8.8c-5-.3-8.6 4.2-8.8 8.8-.3 5 4.2 8.6 8.8 8.9 5 .2 8.6-4.3 8.8-8.9.1-1.9-2.9-1.9-3 0-.4 7.6-11.2 7.6-11.6 0-.4-7.5 11.2-7.4 11.6 0 .1 2 3.1 2 3 0zm19 0a9 9 0 0 0-8.8-8.8c-5-.3-8.6 4.2-8.8 8.8-.3 5 4.2 8.6 8.8 8.9 5 .2 8.6-4.3 8.9-8.9 0-1.9-3-1.9-3 0-.4 7.6-11.3 7.6-11.7 0-.4-7.5 11.3-7.4 11.7 0 0 2 3 2 3 0zm-46.8 22.3a9 9 0 0 0-8.8-8.9c-5-.2-8.6 4.3-8.9 8.9-.2 5 4.3 8.6 8.9 8.8 5 .3 8.5-4.3 8.8-8.8 0-2-3-2-3 0-.4 7.5-11.3 7.5-11.7 0-.4-7.6 11.3-7.5 11.7 0 0 1.9 3 1.9 3 0zm19 0a9 9 0 0 0-8.8-8.9c-5-.2-8.6 4.3-8.9 8.9-.2 5 4.3 8.6 8.9 8.8 5 .3 8.6-4.3 8.8-8.8.1-2-2.9-2-3 0-.4 7.5-11.3 7.5-11.7 0-.4-7.6 11.3-7.5 11.7 0 .1 1.9 3.1 1.9 3 0zm19 0a9 9 0 0 0-8.8-8.9c-5-.2-8.6 4.3-8.8 8.9-.3 5 4.2 8.6 8.8 8.8 5 .3 8.6-4.3 8.8-8.8.1-2-2.9-2-3 0-.4 7.5-11.2 7.5-11.6 0-.4-7.6 11.2-7.5 11.6 0 .1 1.9 3.1 1.9 3 0zm-28.6 22a9 9 0 0 0-8.8-8.8c-5-.3-8.6 4.3-8.9 8.8-.2 5 4.3 8.6 8.9 8.9 5 .2 8.5-4.3 8.8-8.9.1-1.9-2.9-1.9-3 0-.4 7.6-11.3 7.6-11.7 0-.4-7.5 11.3-7.4 11.7 0 .1 2 3.1 2 3 0zm19 0a9 9 0 0 0-8.8-8.8c-5-.3-8.6 4.3-8.9 8.8-.2 5 4.3 8.6 8.9 8.9 5 .2 8.6-4.3 8.8-8.9.1-1.9-2.9-1.9-3 0-.4 7.6-11.2 7.6-11.7 0-.4-7.5 11.3-7.4 11.7 0 .1 2 3.1 2 3 0zm19 0a9 9 0 0 0-8.8-8.8c-5-.3-8.6 4.3-8.8 8.8-.3 5 4.2 8.6 8.8 8.9 5 .2 8.6-4.3 8.8-8.9.1-1.9-2.9-1.9-3 0-.4 7.6-11.2 7.6-11.6 0-.4-7.5 11.2-7.4 11.6 0 .1 2 3.1 2 3 0zM238 264.8a9 9 0 0 0-8.9-8.9c-5-.2-8.6 4.3-8.8 8.9-.3 5 4.2 8.5 8.8 8.8 5 .3 8.6-4.3 8.9-8.8 0-2-3-2-3 0-.4 7.5-11.3 7.5-11.7 0-.4-7.6 11.3-7.5 11.7 0 0 1.9 3 1.9 3 0zm19 0a9 9 0 0 0-8.8-8.9c-5-.2-8.6 4.3-8.9 8.9-.2 5 4.3 8.5 8.9 8.8 5 .3 8.5-4.3 8.8-8.8 0-2-3-2-3 0-.4 7.5-11.3 7.5-11.7 0-.4-7.6 11.3-7.5 11.7 0 0 1.9 3 1.9 3 0zm19 0a9 9 0 0 0-8.8-8.9c-5-.2-8.6 4.3-8.9 8.9-.2 5 4.3 8.5 8.9 8.8 5 .3 8.6-4.3 8.8-8.8.1-2-2.9-2-3 0-.4 7.5-11.3 7.5-11.7 0-.4-7.6 11.3-7.5 11.7 0 .1 1.9 3.1 1.9 3 0zm2.1-92.8l-.4 1 2.4-2.5c-1.1.5-3 .3-4.5.3h-20.9c-1.7 0-3.9.3-5.2-.3l2.4 2.5c-1.4-3.5-.3-10-.3-13.9 0-4.2-1.2-11.2.3-14.9l-2.4 2.5c1.1-.5 3-.3 4.5-.3h21c1.6 0 3.8-.3 5.1.3l-2.4-2.5c1.4 3.5.3 10 .3 14v14.7c0 4.5 7 4.5 7 0v-17.7c0-5.3 1.8-13.3-4-15.7-1.4-.6-3.9-.1-5.3-.1h-22.4c-2.3 0-4.5-.3-6.5.9-4 2.4-2.2 13.2-2.2 16.8v11.1c0 2.2-.3 4.6.6 6.6 2 4.9 11.7 3 15.7 3h19c2.7 0 4-1.7 5-4 1.7-4.1-5-6-6.8-1.8z" fill="#fff"/><path d="M280 133.8c.6-1 2.3-.7.2-.7h-30.7c-2.8 0 .7 2.7.7 1 0 2.3-3.4 2-.7 2h31c2.3 0-1-3.5-1-.6 0 4.6 7 4.6 7 0 0-4.2-2-6.4-6.3-6.4h-28.5c-3.2 0-7.3-.3-8.4 3.7-2.7 10 13.4 7.3 18.6 7.3h15.5c3.3 0 6.7.5 8.6-2.8 2.3-3.9-3.8-7.4-6-3.5zm-63.3 77.4h70.8c2 0 2-3 0-3h-70.8c-2 0-2 3 0 3zm-.2 22h70.8c2 0 2-3 0-3h-70.8c-2 0-2 3 0 3zm.2 21.6h70.8c2 0 2-3 0-3h-70.8c-2 0-2 3 0 3z" fill="#fff"/></svg>