<svg xmlns="http://www.w3.org/2000/svg" width="361" height="361"><path d="M274.7 153c.4-1.1-1.3 1.6-1.8 2.2a43.9 43.9 0 0 1-6.2 5.8 61.7 61.7 0 0 1-21.7 10.4c-9 2.4-19 3.3-28.2 2-4.5-.6-12-2-13.5-7-1.5-4.9 6.2-9 9.4-10.8 8-4.4 17.6-6.2 26.6-6.8 7.9-.5 16 0 23.7 1.4a43 43 0 0 1 9 2.6c1 .4 1.9 1 2.8 1.5 1 .7-.4 0-.1-1.3-1.6 6.3 8 9 9.6 2.7 4.1-16.6-31.8-17-40.7-17a85 85 0 0 0-33.4 7c-7.6 3.3-16.4 9.8-17 18.8-1.2 21.6 32.3 20 45.6 18.3a72 72 0 0 0 32-12.5 36.2 36.2 0 0 0 13.5-14.6c2.4-6-7.3-8.6-9.6-2.7z" fill="#fff"/><path d="M184.9 192.7c0-12.2 18-19.2 27.2-22.6a205 205 0 0 1 66-11.2c6.5-.2 6.5-10.2 0-10a208 208 0 0 0-73.5 13.5c-12.6 5.2-29.7 14.5-29.7 30.3 0 6.4 10 6.4 10 0zm-90.8-70c-1 .9.7-.3 1-.5l2.6-1a48 48 0 0 1 9.2-2c9.3-1.3 18.4 0 27.3 2.7a71 71 0 0 1 21.5 10.3c2.9 2.1 7.4 6 6.3 10.1-1.1 4.3-10 4.2-13.1 4.2a69 69 0 0 1-25.4-5.8 98 98 0 0 1-20-11.2 47.8 47.8 0 0 1-6.7-5.7 13.8 13.8 0 0 1-1.8-2.3c-.6-1-.1.3-1 1.2 4.3-4.8-2.8-11.9-7-7-15.2 17.2 63.7 58.3 82.7 33.2 11.7-15.6-14-29.3-25-33.9a77.9 77.9 0 0 0-36.4-6c-7 .6-15.8 2-21.3 6.7-5 4.2 2.2 11.2 7 7z" fill="#fff"/><path d="M183.8 163.2c-.3-13.6-14.6-21.8-25.3-27.1a227 227 0 0 0-58.7-18.3c-6.3-1.2-9 8.5-2.6 9.7 17.3 3.3 34.6 7.7 50.9 14.7 6.4 2.8 13 6 18.5 10.4 3.3 2.6 7.1 6.1 7.2 10.6.2 6.4 10.2 6.4 10 0zm5.3-85.6c3.7 4.8 2.2 13.5.7 18.7-.8 3-5.7 15.4-9.4 14.8-3.8-.5 1.3-15.5 2.2-17.4a49 49 0 0 1 6-9.9 32.8 32.8 0 0 1 3.1-3.4c2-2 1.2.5-1.8-1.8 5 4 12.1-3.1 7-7.1-8.6-6.8-17.3 7-21 13.3-5.2 8.9-10.8 24.8-2.5 33.6 8.5 8.8 18.9-3.7 22.5-10.6a46 46 0 0 0 5.3-20.8c0-4.4-.6-10.8-3.5-14.5-3.8-5-12.5 0-8.6 5z" fill="#fff"/><path d="M174.2 119.3v86c0 6.5 10 6.5 10 0v-86c0-6.4-10-6.4-10 0zm45.1 102.1l-5.1 35.1-2.8 18.9-.6 3.9c-.2 2.4-2.5 2-4.2 2h-54.4c-2.8 0-3.2-9.9-3.5-11.8l-7-48.1-4.9 6.3h87.4c6.4 0 6.4-10 0-10h-87.4c-3.5 0-5.3 3.2-4.8 6.4l5.2 35 2.8 19c1 7 4.1 12.5 12.2 13.2 11.7 1 24 0 35.7 0 10.6 0 30.6 3.8 32.7-10.7L229 224c1-6.3-8.7-9-9.7-2.7z" fill="#fff"/><path d="M229.8 214c-.3 4.4-6 3.3-9 3.3h-86c-4.4 0-4.9-6.3-.3-6.6 9-.8 18.4 0 27.5 0h59.7c3 0 7.8-.9 8.1 3.3.5 6.4 10.5 6.4 10 0-.6-8-6.4-13.3-14.4-13.3h-90.7c-10.7 0-15.8 10.6-12 19.7 2.5 5.7 9 7 14.4 7h89.3c7.7 0 12.8-6.1 13.4-13.4.5-6.4-9.5-6.4-10 0z" fill="#fff"/></svg>