<svg xmlns="http://www.w3.org/2000/svg" width="361" height="361"><path d="M277 156H95c-8 0-17-1-22 7-4 5-3 11-3 18v36c0 7-1 14 4 20 4 6 10 7 17 7h22c14 0 34 3 37-15l-5 4h72l-5-4c3 18 24 15 37 15h22c7 0 14-1 18-8 4-6 3-13 3-20v-36c0-7 1-13-3-18-3-4-7-6-12-6-6 0-6 10 0 10 7 1 5 8 5 13v47c0 6-5 8-11 8h-37c-6 0-11-1-12-8 0-2-3-3-5-3h-72c-2 0-4 1-4 3-2 8-8 8-15 8H88c-9 0-8-10-8-17v-35c0-4-2-14 4-16h193c7 0 7-10 0-10z" fill="#fff"/><path d="M165 208h9c5 0 5-7 0-7h-9c-5 0-5 7 0 7zm23 0h9c5 0 5-7 0-7h-9c-5 0-5 7 0 7zm42-18v-1h-4 1s0 1 0 0v-1c0 1-2 1 0 1h3c1 0 1 0 0 0 0-1 0-1 0 0v1c0 4 7 4 7 0l-1-6c-2-2-4-2-6-2h-4c-4 0-6 3-6 6-1 5 2 8 7 8h4c3 0 6-3 6-6 0-2-2-4-4-4s-3 2-3 4zm28 0v-1h-4 1s0 1 0 0v-1c0 1-2 1 0 1h3c1 0 1 0 0 0 0-1 0-1 0 0v1c0 4 7 4 7 0l-1-6c-2-2-4-2-6-2h-4c-4 0-6 3-6 6-1 5 2 8 7 8h4c3 0 5-3 6-6 0-2-2-4-4-4s-3 2-3 4zm-22 22c0-1 1 0 0 0h-4c-1 0 0-1 0 0 1 0 0 1 0 0v-1 1a2202 2202 0 0 1 4 0v-1h-1v1c0 5 7 5 7 0l-1-5c-1-2-3-2-6-2h-3c-4 0-6 2-7 6 0 4 3 7 7 8h4c4 0 6-3 6-7 1-1-1-3-3-3s-3 2-3 3zm28 0c0-1 1 0 0 0h-4c-1 0 0-1 0 0 1 0 0 1 0 0v-1c0 1-1 1 1 1h3v-1c-1 0 0-1 0 0v1c0 5 7 5 7 0l-2-5c-1-2-3-2-6-2h-3c-4 0-6 2-7 6 0 4 3 8 7 8h4c4 0 6-3 7-7 0-1-2-3-4-3s-3 2-3 3zM73 73c2 32 33 49 62 48 5 0 5-7 0-7-25 1-53-13-55-41 0-4-7-4-7 0z" fill="#fff"/><path d="M185 159c1-27-24-43-48-44-5-1-5 6 0 7 20 1 42 14 41 37 0 4 7 4 7 0zm-55 30h-8l4 4v-9c-1-5-6-8-11-8s-9 2-11 7v10l4-4h-9c-5 1-8 6-8 11s2 9 7 11h10l-4-4v9c1 5 5 8 10 8 6 0 9-2 11-7l1-10-4 4c6 0 12 1 16-5a14 14 0 0 0 0-10c-1-4-4-6-8-7s-5 7 0 7c3 1 2 8-1 8h-7a4 4 0 0 0-3 3c0 3 1 10-4 10s-4-6-4-10c0-2-2-3-3-3-3 0-10 1-10-4s5-4 10-4c2 0 3-1 3-3 0-3-1-10 3-10 6 0 5 6 5 10 0 2 1 3 3 3h8c4 0 4-7 0-7z" fill="#fff"/></svg>