<svg xmlns="http://www.w3.org/2000/svg" width="361" height="361"><path d="M155 154l7 20c2 4 9 3 7-2l-7-20c-2-4-9-3-7 2zm-27-40l20 28c2 3 8 0 6-4l-20-28c-3-3-9 0-6 4zm45 106v24c0 5 7 5 7 0v-24c0-5-7-5-7 0zm7 64v-21c0-4-7-4-7 0v21c0 5 7 5 7 1zm-14-98l5 23c0 4 7 2 6-2l-4-23c-1-4-7-2-7 2zm20-29l7 21c2 4 9 2 7-2l-7-21c-2-4-8-2-7 2zm-29-43l25 34c2 4 8 0 6-3l-25-34c-3-4-9-1-6 3zm46 117l1 19c0 4 7 4 7 0l-1-19c0-4-7-4-7 0zm8 45v-12c0-4-7-4-7 0v12c0 5 7 5 7 0zm-13-81l4 22c0 5 7 3 6-2l-4-22c-1-5-7-3-6 2zm17-33l7 16c2 4 8 1 7-3a76831 76831 0 0 1-8-16c-2-4-8-1-6 3zm-27-48l22 37c2 4 8 0 6-3l-22-37c-2-4-8-1-6 3zm45 113l1 17c0 5 7 5 7 0l-1-17c0-5-7-5-7 0zm7 49v-11c1-5-6-5-6 0v11c0 5 7 5 7 0zm-13-83l4 23c1 4 7 2 7-2l-5-23c0-4-7-2-6 2zm-57-38l8 21c1 4 8 2 7-2l-8-21c-1-4-8-2-7 2zm-28-41l23 31c2 3 8 0 6-4l-23-31c-2-3-8 0-6 4zm46 110l1 29c1 4 8 4 7 0l-1-29c-1-5-8-5-7 0zm9 56v-14c0-4-7-4-7 0v14c0 4 7 4 7 0zm-14-92l3 16c1 4 7 2 7-2l-3-16c-1-4-8-2-7 2zm14-35l10 23c2 4 8 0 6-4l-10-22c-1-5-7-1-6 3zm-24-39l18 28c3 4 9 0 6-3l-18-29c-2-3-8 0-6 4zm44 112l1 22c1 5 8 5 7 0l-1-22c0-5-7-5-7 0zm9 55v-13c0-5-7-5-7 0v13c0 5 7 5 7 0zm-15-91l4 20c1 5 8 3 7-2l-4-20c-1-5-7-3-7 2zm15-33l10 20c2 4 8 0 6-4l-10-20c-2-4-8 0-6 4zm-25-43l21 31c2 3 8 0 6-4l-21-31c-2-3-8 0-6 4zm46 119l1 13c1 4 8 4 7 0l-1-13c0-4-7-4-7 0zm8 46v-21c0-5-7-5-7 0v21c0 4 7 4 7 0zm-16-86l5 27c1 5 8 3 7-2l-5-27c-1-5-8-3-7 2zm6-30l8 21c1 4 8 2 6-2l-7-21c-1-4-8-2-7 2zm-28-49l23 37c2 3 8 0 6-4l-23-37c-2-3-8 0-6 4zm44 111l1 22c0 5 7 5 7 0l-1-22c0-5-7-5-7 0zm10 57l-1-23c0-5-7-5-7 0l1 23c0 5 7 5 7 0zm-16-85l3 15c1 4 8 2 7-2l-3-15c-1-4-8-2-7 2z" fill="#fff"/><path d="M277 70h-33c-9 0-10 7-10 14v23c0 2 1 6-2 6H127V80c0-10-10-10-18-10H93c-9 0-16-1-21 8-2 4-2 11-2 16v23l1 16c3 6 9 9 15 9h191c9 0 15-7 15-15V84c0-8-7-14-15-14-6-1-6 9 0 10 6 0 5 10 5 14v23c0 4 1 13-3 15H86c-3 0-6-1-6-5V87l1-4c1-4 5-3 8-3h27c2 0 1 1 1 3v22c0 6-1 13 6 17 2 2 6 1 9 1h99c6 0 10-2 13-7V80h33c7 0 7-10 0-10z" fill="#fff"/><g fill="#fff"><path d="M159 284a63 63 0 0 0-24 1c-7 1-13 3-20 3s-13-2-20-3c-8-2-16-2-24-1-2 1-1 4 1 3 9-1 16-1 25 1l18 3 18-3a62 62 0 0 1 25-1c2 1 3-2 1-3z"/><path d="M138 287a62 62 0 0 1 25 1l18 3 18-3a62 62 0 0 1 25-1c2 1 3-2 1-3a63 63 0 0 0-24 1l-20 3c-7 0-14-2-20-3-8-2-16-2-24-1-2 1-1 4 1 3z"/><path d="M203 287c9-1 17-1 25 1l18 3 18-3a62 62 0 0 1 25-1c2 1 3-2 1-3a63 63 0 0 0-24 1c-6 1-13 3-20 3l-19-3c-9-2-16-2-24-1-2 1-2 4 0 3z"/></g><g fill="#fff"><path d="M165 277c-9-2-17-1-26 0l-21 4c-7 0-14-2-21-4-9-1-17-2-26 0-2 0-1 3 1 3 9-2 18-1 27 1l19 3c7 0 13-2 19-3a73 73 0 0 1 28-1c2 0 2-3 0-3z"/><path d="M143 280c9-2 18-1 27 1l19 3c7 0 13-2 19-3a73 73 0 0 1 28-1c2 0 2-3 0-3a71 71 0 0 0-26 0l-21 4c-7 0-14-2-21-4a72 72 0 0 0-26 0c-2 0-1 3 1 3z"/><path d="M214 280a65 65 0 0 1 22 0l15 3c13 2 26-3 39-4 2 0 2-3 0-3l-18 3a64 64 0 0 1-24 0l-15-3c-7-1-13 0-20 1-2 0-1 3 1 3z"/></g><g fill="#fff"><path d="M72 270l13 1c2 0 3-3 1-3l-15-2c-1 1-1 4 1 4z"/><path d="M73 270c16 0 31 6 47 4l19-3a91 91 0 0 1 29 0c2 0 2-3 1-3a90 90 0 0 0-26 0l-22 3c-16 2-32-4-48-5-2 1-2 4 0 4z"/></g><path d="M275 273c5-2 10-2 15-2 2 1 2-2 0-3-5 0-10 0-15 2-2 0-1 3 0 3zM132 116h96c5 0 5-7 0-7h-96c-4 0-4 7 0 7z" fill="#fff"/></svg>