<svg xmlns="http://www.w3.org/2000/svg" width="361" height="361"><path d="M157.5 204c6.5 0 6.5-10 0-10s-6.5 10 0 10z" fill="#fff"/><path d="M133.2 152.3c.7 18 23 23.7 37.5 23.9v-10h-.2c-6.5 0-6.5 10 0 10h63l-5-5c0 33.4 3.1 71.2-21.5 97.6a34.5 34.5 0 0 1-46.7 5.4c-18.9-13.4-26-40.5-27.3-62.4l-.2-6.6c0-6.5-10-6.5-10 0 .2 24.2 6.4 49 22 68a45.8 45.8 0 0 0 48.4 16.1c20.4-6 32.8-26.6 39.3-45.6 6-17.8 6-36.2 6-54.8v-17.7a5 5 0 0 0-5-5h-63c-6.5 0-6.5 10 0 10h.2c6.4 0 6.4-10 0-10-8.2-.2-27-2.6-27.5-13.9-.3-6.4-10.3-6.4-10 0z" fill="#fff"/><path d="M204.5 204c6.4 0 6.4-10 0-10s-6.5 10 0 10zM181 115.6h35.3a5 5 0 0 0 4.8-3.6l9.7-32.4c1.3-4.2-3.6-8-7.3-5.7l-28 17.4 6 .8-9.2-10.9c-2.5-3-6.9-10.8-11.4-10.8-4.4 0-8.5 7.2-10.9 10l-9.8 11.7 6-.8-28-17.4c-3.7-2.3-8.6 1.5-7.3 5.7l9.6 32.4a5 5 0 0 0 4.9 3.6h35.3c6.4 0 6.4-10 0-10h-35.3l4.8 3.7-9.7-32.4-7.3 5.7 28 17.3c1.8 1.1 4.6 1 6-.7l17.2-20.3-3.6 1.5-3.5-1.5 17.2 20.3c1.4 1.6 4.2 1.9 6 .7l28-17.3-7.3-5.7-9.7 32.4 4.8-3.7H181c-6.5 0-6.5 10 0 10z" fill="#fff"/><path d="M145.5 261.3H80.2c1-46 13.5-95.8 46-129.8a93.6 93.6 0 0 1 19.9-15.9h-.7a5 5 0 0 1-4.9-3.7l-1.1-3.9c-20.6 12.6-35.8 33.1-46.5 54.4-16 32-22.6 68.3-22.7 104a5 5 0 0 0 5 5h70.3c6.5 0 6.5-10 0-10zm102.8-131.5a106.2 106.2 0 0 0-25.8-22.2l-1.3 4.4a5 5 0 0 1-4.8 3.6 85.9 85.9 0 0 1 6 3.8c20.1 14 34 36.2 43.3 58.4 11 26.4 16 55 16.7 83.5h-64.9c-6.5 0-6.5 10 0 10h70a5 5 0 0 0 5-5c-.2-48-12.4-99.1-44.2-136.5z" fill="#fff"/></svg>