<svg xmlns="http://www.w3.org/2000/svg" width="361" height="361"><path d="M103 201zm175-15a4 4 0 0 0-1-2l-20-35a4 4 0 0 0-2-2 5 5 0 0 0-1-1h-20a5 5 0 0 0-5 5v29l-18 31h-66a28 28 0 0 1 11 23h60a28 28 0 0 1 55 0c6-1 7-3 7-9v-39zm-12-4h-28a4 4 0 0 1-4-4v-24a4 4 0 0 1 4-4h14l1 1 2 1 13 23 1 1c1 3-1 6-3 6zM94 212l-1 3v15l1 2a4 4 0 0 0 2 2h5c0-10 4-18 11-23H96l-2 1z" fill="#fff"/><path d="M103 234c1 13 11 24 25 24 14 1 24-11 25-24 0-14-12-25-25-25-14 0-24 12-25 25 0 6 10 6 10 0a15 15 0 0 1 15-15c8 0 14 7 15 15 0 8-7 14-15 14-8 1-15-6-15-14 0-7-10-7-10 0zm103-40H98l4 4-22-68-5 6h187l-1-10-41 10a5 5 0 0 0-4 5v31l-1 2-5 9-8 14c-4 5 5 10 8 5l8-14c3-4 8-9 8-14v-33l-4 5 41-10c6-2 4-10-1-10H76c-4 0-6 3-5 6l22 69a5 5 0 0 0 5 3h108c6 0 6-10 0-10zm13 40c0 13 11 24 25 24 13 1 24-11 24-24 1-14-11-25-25-25-13 0-24 12-24 25 0 6 10 6 10 0a15 15 0 0 1 15-15c8 0 14 7 14 15s-7 14-15 14c-8 1-14-7-14-14s-10-7-10 0z" fill="#fff"/><path d="M103 149h83c5 0 5-7 0-7h-83c-5 0-5 7 0 7zm179 42v37c0 7 10 7 10 0v-37c0-7-10-7-10 0z" fill="#fff"/></svg>