<svg xmlns="http://www.w3.org/2000/svg" width="361" height="361"><path d="M158 179h-6l3 4c0-7 0-15-9-15-4 0-8 1-10 5v10l3-4c-7 0-15 1-15 10 0 4 1 8 5 9 3 2 7 1 10 1l-3-3c0 7 0 14 9 14 4 0 8-1 9-5 2-3 1-6 1-9l-3 3c5 0 11 1 14-5 2-6 0-14-7-14-4-1-6 6-2 6 3 1 4 6 1 6h-6a4 4 0 0 0-4 4c0 2 1 7-2 7-5 0-3-4-3-7 0-2-2-4-4-4s-8 1-8-2c0-2 1-3 3-3h5c2 0 4-2 4-4s-2-8 2-8c5 0 3 5 3 8 0 2 2 3 4 3h6c5 0 5-7 0-7zm-28-31c-1 15-23 15-24 0 0-7 6-12 12-12 7-1 12 5 12 12 0 4 7 4 7 0a19 19 0 0 0-19-19c-11-1-19 9-19 19s9 18 19 19c11 0 19-9 19-19 0-5-7-5-7 0z" fill="#fff"/><path d="M278 143c-2-8-4-19-9-26a42 42 0 0 0-16-11c-5-2-12-2-18-2l-15 2a17 17 0 0 0-11 7l-1 2c0-1-1 0 0 0l-6 1h-24c-7 0-16 1-22-1l-2-1c1 1 0 0 0 0l-3-4c-4-4-11-5-17-5-11-1-23-1-32 6-5 3-9 6-12 11l-7 24a587 587 0 0 0-9 44 226 226 0 0 0-3 27 48 48 0 0 0 2 20c4 10 14 19 25 20 8 0 17-9 24-14l25-17c7-4 15-3 23-3 13 0 26-1 38 1 8 1 16 7 22 11l23 18c14 10 31-2 36-16 4-10 3-22 2-31-3-21-8-42-13-63-1-6-11-3-9 3l8 38a273 273 0 0 1 4 27v21a26 26 0 0 1-7 10c-5 5-10 6-16 2l-23-17c-6-5-14-11-22-13-9-2-18-1-27-1-12 0-26-1-38 2-8 2-16 8-23 13l-22 17c-9 6-20-7-22-14v-22a372 372 0 0 1 10-51l4-16c1-6 3-15 8-20l6-5c5-3 12-3 18-3a53 53 0 0 1 16 2l1 1c1 1 0-1 0 0l1 1 1 2a13 13 0 0 0 6 4c6 3 14 2 20 2h26c6 0 12 0 16-4l3-4 2-1c5-4 16-3 22-2a30 30 0 0 1 20 8c4 5 6 16 8 23 1 6 11 4 9-3z" fill="#fff"/><path d="M226 189c-1 16-23 16-24 0 0-6 6-11 12-12 7 0 12 6 12 12 0 5 7 5 7 0a19 19 0 0 0-19-19 19 19 0 1 0 0 38c11 1 19-9 19-19 0-4-7-4-7 0z" fill="#fff"/><circle cx="228" cy="149" r="6" fill="#fff"/><circle cx="255" cy="149" r="6" fill="#fff"/><g fill="#fff"><circle cx="241" cy="135" r="6"/><circle cx="241" cy="163" r="6"/></g><path d="M96 131c3-10 19-9 28-9 4 0 8 0 11 4l5 11c3 5 6 9 12 9h59c6 0 10-8 12-13 2-4 3-8 6-10l6-1h9c7 0 19 1 21 9 1 2 4 1 3-1-2-7-11-9-18-10h-15c-3 0-6 0-9 2-5 5-6 14-11 19-2 2-4 2-7 2a6264 6264 0 0 0-52 0h-7c-4-1-6-7-7-10-3-6-6-13-13-13-11-1-31-3-36 10 0 2 2 3 3 1z" fill="#fff"/></svg>