<svg xmlns="http://www.w3.org/2000/svg" width="361" height="361"><path d="M252 95a35 35 0 0 0-36 35 35 35 0 1 0-71 0 52 52 0 0 0 8 26l3 4a35 35 0 0 1 60 25c0 9-3 19-7 26l-7 10c6 7 12 11 14 11 9 0 50-55 64-76a52 52 0 0 0 7-26 35 35 0 0 0-35-35z" fill="#fff"/><path d="M252 90c-22 0-42 18-41 40l5-5 5 5a41 41 0 0 0-53-38 41 41 0 0 0-26 27c-4 15 1 31 9 44 2 2 6 3 8 1a31 31 0 0 1 47 3c5 7 6 16 5 25a66 66 0 0 1-13 27c-2 1-1 4 0 6 5 4 13 15 21 12 5-2 10-7 13-11a431 431 0 0 0 35-44c12-15 25-31 25-52 1-22-19-40-40-40-7 0-7 10 0 10a31 31 0 0 1 30 37c-3 15-14 28-23 40-10 13-19 26-30 38l-11 11-2 1s-1 0 0 0l-3-2-8-8 1 6a75 75 0 0 0 15-34 41 41 0 0 0-9-30c-15-19-43-19-60-3l8 1c-7-9-11-21-9-32a31 31 0 0 1 18-23c20-9 42 7 42 28a5 5 0 0 0 5 5c3 0 5-2 5-5 0-17 15-30 31-30 6 0 6-10 0-10z" fill="#fff"/><path d="M213 214a51 51 0 0 0 6-42 41 41 0 0 0-26-25 41 41 0 0 0-52 38l5-5 5 5a41 41 0 0 0-42-40c-24 0-41 22-39 45 2 20 17 37 28 53 11 15 22 30 36 43 5 4 10 8 17 5 7-5 13-13 19-19a551 551 0 0 0 43-58c4-6-5-11-8-5a587 587 0 0 1-33 44 308 308 0 0 1-17 21 83 83 0 0 1-7 7l-2 1h-1a16 16 0 0 1-3-2 85 85 0 0 1-7-7 302 302 0 0 1-18-22 726 726 0 0 1-18-25l-15-21c-9-19-3-43 18-49 19-6 38 10 38 29a5 5 0 0 0 5 5 5 5 0 0 0 5-5c0-21 21-34 40-29a31 31 0 0 1 20 20c3 11 0 23-5 33-4 5 5 10 8 5z" fill="#fff"/></svg>