<svg xmlns="http://www.w3.org/2000/svg" width="361" height="361"><path d="M245 124.5l41 11c6.1 1.6 8.8-8 2.6-9.7l-41-11c-6.2-1.6-8.8 8-2.6 9.7z" fill="#fff"/><path d="M241.4 118.6l-3.6 13.5c-1.7 6.3 8 9 9.6 2.7l3.7-13.6c1.6-6.2-8-8.8-9.7-2.6z" fill="#fff"/><path d="M219.2 134.4l42.5 11.4c6.2 1.7 8.8-8 2.6-9.6L222 124.8c-6.3-1.7-9 8-2.7 9.7z" fill="#fff"/><path d="M215.6 128.9l-1.8 6.5a5 5 0 0 0 3.5 6.1 5 5 0 0 0 6.2-3.5l1.7-6.4a5 5 0 0 0-3.5-6.2 5 5 0 0 0-6.1 3.5zm42.4 11.8l-1.7 6.4a5 5 0 0 0 3.5 6.2 5 5 0 0 0 6.2-3.5l1.7-6.5a5 5 0 0 0-3.5-6.1 5 5 0 0 0-6.2 3.5zm-16 26l-3.8 14.5c-1.2 4.4 5.6 6.2 6.7 1.9l4-14.6c1-4.3-5.7-6.2-6.8-1.8zm-9-12.7l-3.2 12.3c-1.2 4.3 5.5 6.2 6.7 1.8l3.3-12.3c1.2-4.4-5.6-6.2-6.7-1.8zm-6.4 24l-5.5 20.6c-1.2 4.4 5.6 6.2 6.7 1.9l5.5-20.5c1.2-4.4-5.6-6.3-6.7-2zm-7.7-17.5l-4 14.5c-1 4.4 5.7 6.2 6.8 1.9l4-14.6c1.1-4.3-5.7-6.2-6.8-1.8zm-7 25.7l-5.4 20.5c-1.2 4.4 5.6 6.2 6.7 1.9l5.5-20.5c1.2-4.4-5.5-6.3-6.7-2zm23.9 5.4l-5.5 20.6c-1.2 4.3 5.6 6.2 6.7 1.8l5.5-20.5c1.2-4.4-5.6-6.2-6.7-1.9zm15.6-12.4l-4 15c-1.2 4.4 5.5 6.3 6.7 1.9l4-15c1.2-4.4-5.6-6.3-6.7-2zm-7.7 28.4l-1.2 4.6c-.5 1.8.6 3.8 2.4 4.3 1.8.5 3.8-.6 4.3-2.5l1.2-4.5c.5-1.9-.6-3.8-2.4-4.3-1.8-.5-3.8.6-4.3 2.4zm-39-41.2l-4 15c-1.2 4.4 5.6 6.3 6.7 1.9l4-15c1.2-4.4-5.5-6.3-6.7-2zm-7.6 28.3l-4.7 17.4c-1.2 4.3 5.6 6.2 6.8 1.8l4.6-17.3c1.2-4.4-5.6-6.2-6.7-1.9zm49.5-44.2l-1.8 6.5c-1.1 4.4 5.6 6.3 6.8 1.9l1.7-6.5c1.2-4.4-5.5-6.2-6.7-1.9zm-22.8-6.2l-1.7 6.6c-1.2 4.3 5.6 6.2 6.7 1.8l1.8-6.5c1.2-4.4-5.6-6.2-6.8-1.9zm31.6 20.4l-1 4c-.5 1.9.6 3.8 2.4 4.3 1.9.5 3.8-.6 4.3-2.4l1.1-4c.5-1.8-.6-3.8-2.4-4.3-1.9-.5-3.9.6-4.4 2.4zM209.3 152l-1 4c-.5 1.8.6 3.7 2.4 4.2 1.9.5 3.8-.6 4.3-2.4l1.1-4c.5-1.8-.6-3.8-2.4-4.3-1.9-.5-3.9.6-4.3 2.5zm-99.4 140h12.7c6.5 0 6.5-10 0-10h-12.7c-6.4 0-6.4 10 0 10zm142 0h12.7c6.5 0 6.5-10 0-10h-12.7c-6.4 0-6.4 10 0 10z" fill="#fff"/><path d="M275.4 274.3c-1 3-1.8 2.4-4.6 2.4H102.2c-2.5 0-2.5-2.4-3.5-4.7l-7.2-16.5-9.2-21.2-2.7-6-.4-1.1c1.3 3 .3 1.5 1.8 1.5h200.2l1.2-.1-.4 2.8-6.6 43c-1 6.2 8.7 9 9.7 2.6l5.6-36.9c.7-4.5 2.7-11 .4-15.3-2.4-4.4-6.5-6.1-11.3-6.1H88.7c-8.5 0-17.7-.3-18.9 11-.1 1.4 1.1 3.4 1.7 4.7l3.4 7.9 9.5 21.8 6 13.9c2.3 5.2 5.2 8.7 11.1 8.7h172.3c6.3 0 9.4-4.1 11.3-9.7 2-6.2-7.7-8.8-9.7-2.7zM218 208.6l-1 3.8c-.5 1.8.6 3.8 2.5 4.3 1.8.5 3.8-.6 4.3-2.5l1-3.7c.5-1.9-.6-3.8-2.5-4.3-1.8-.5-3.8.6-4.3 2.4z" fill="#fff"/><path d="M282.2 133v96.7c0 6.4 10 6.4 10 0V133c0-6.5-10-6.5-10 0z" fill="#fff"/></svg>