<svg xmlns="http://www.w3.org/2000/svg" width="361" height="361"><path d="M271.3 199.8l1.2-1.2 5.8-.8c2.5 1 3 2.2 1.8 1l-2.4-2.5-3.7-3.7 2.2 5.4c1-8.4 2.7-23.8-7.5-27.2-4.4-1.5-10.3-.6-14.9-.4-5.8.1-11.7.4-17.6.4a39 39 0 0 0-33.8 19.9c-4.3 8.3-6.9 17.9-8.8 27l7.3-5.4h-110c-2.4 0 4.3 6.9 4.3 4v-19.1c0-1-.5 2.5 0 0l1-3.4c5.4-15 20.3-25.4 35.2-29.4 13-3.5 26.3-6.1 39.6-8.8a4411.3 4411.3 0 0 1 102.4-19.3h-3.9c-2.5-.5-2.6-6.2-2.5-3.6l.2 2.3.4 7.7 1.4 23.7 2 35.3c.6 9.6 15.6 9.8 15 .1l-4-69.2c-.4-7.3-6-12-13.2-10.6a6352 6352 0 0 0-50.2 9.1c-30.4 5.7-61.2 10.9-91.1 18.8a68 68 0 0 0-42 31.7 39.5 39.5 0 0 0-5.3 20.3c0 6.4-2 17.3 3 22.3 5 4.8 15.2 3 21.4 3h96.2c3.2 0 6.6-2.2 7.3-5.5a79 79 0 0 1 9.2-26.8 28 28 0 0 1 14.4-8.9c6-1.3 13.5-.4 19.6-.6a460.4 460.4 0 0 1 12.6-.1h1.4c-1 0-2.5 0-3.8-2.2 1.1 2 .2 10-.1 13.6-.5 5.2 3.8 8.3 7 11.6 2.2 2.2 4.5 4.2 7.8 4.2 4.9 0 8.7-4.3 9.5-8.8 1.7-9.4-12.7-13.4-14.4-4z" fill="#fff"/><path d="M276 160.4l.7 18.5c.3 9.7 15.3 9.8 15 .1l-.6-18.5c-.3-9.7-15.3-9.8-15-.1z" fill="#fff"/><g fill="#fff"><path d="M273 203.8l-1.8-.5a36 36 0 0 0-2.3-8.2l1.5-1.4a36.7 36.7 0 0 0-4.4-7.6l-2 .6a35.4 35.4 0 0 0-6-6l.6-2a36.7 36.7 0 0 0-7.6-4.3l-1.3 1.4a36 36 0 0 0-8.3-2.3l-.4-1.8a37.1 37.1 0 0 0-4.4-.3c-1.5 0-3 .1-4.4.3l-.4 1.6a32.3 32.3 0 0 0-8.5 2.3l-1.2-1.2a36.7 36.7 0 0 0-7.5 4.4l.5 1.8a36.2 36.2 0 0 0-6 6.1l-2-.6a36.7 36.7 0 0 0-4.3 7.6l1.5 1.4a36.8 36.8 0 0 0-2.3 8.2l-1.9.5a37.1 37.1 0 0 0 0 8.7l1.7.5a32.2 32.2 0 0 0 2.2 8.4l-1.2 1.2a36.7 36.7 0 0 0 4.4 7.6l1.8-.5a36.2 36.2 0 0 0 6.1 6l-.5 1.9a36.7 36.7 0 0 0 7.5 4.4l1.5-1.5a36.7 36.7 0 0 0 8.2 2.3l.4 1.8a37.1 37.1 0 0 0 8.8 0l.4-1.6a32.3 32.3 0 0 0 8.5-2.3l1.2 1.3a36.8 36.8 0 0 0 7.5-4.4l-.5-1.8a36.1 36.1 0 0 0 6-6.2l1.9.6a36.7 36.7 0 0 0 4.4-7.6l-1.5-1.4a36.8 36.8 0 0 0 2.3-8.2l1.9-.5a37 37 0 0 0 0-8.7zm-36.4 21.4a17 17 0 1 1 0-34 17 17 0 0 1 0 34z"/><circle cx="236.6" cy="208.2" r="14.3"/></g><path d="M193.1 230.5c.2-.5 1.5-.4.3-.4h-74c1 0 1 2.1 1 .5v-10.8c0-1.7 0 .4-1 .4h74c1.4 0-.4-2-.4-.4v11.6c0 4.5 7 4.5 7 0 0-4.8 2-14.5-3-17.4-2.6-1.6-7.5-.8-10.4-.8h-63.2c-4.1 0-10 0-10 5.7 0 4.8-2 14.5 2.9 17.4 2.7 1.6 7.5.8 10.4.8h62.8c4.3 0 8.8.4 10.4-4.8 1.3-4.3-5.5-6.2-6.8-1.8z" fill="#fff"/><path d="M156.7 216.8c.2-12.8 11.1-21.6 21.4-27.1a108 108 0 0 1 50.4-11.1c4.5 0 4.5-7 0-7-19.3.1-39.1 3.7-56.2 13.3-11.7 6.6-22.4 17.6-22.6 31.9-.1 4.5 6.9 4.4 7 0z" fill="#fff"/><circle cx="104.9" cy="231.7" r="12.4" fill="#fff"/><path d="M99 290c0-19.3-1.4-50.2-27-50.6-2 0-2 3 0 3 23.5.4 24 30.3 24 47.5 0 2 3 2 3 0z" fill="#fff"/><path d="M105 290c-.2-21.7-6.5-50.2-33-50.6-2 0-2 3 0 3 24.7.4 29.8 27.7 30 47.5 0 2 3 2 3 0z" fill="#fff"/><path d="M84.7 290c0-9.6.5-20.1-2.6-29.3-1.5-4.3-4.6-7.1-7.7-10.2-1.4-1.4-3.5.7-2.1 2.1 3 3 5.7 5.5 7 9.5 3 8.6 2.3 18.9 2.4 27.8 0 2 3 2 3 0z" fill="#fff"/><path d="M90.6 290c0-9.6.3-20.7-4.4-29.3-2.6-4.9-7.7-7.5-12-10.5-1.7-1-3.2 1.6-1.6 2.6 4 2.8 8.4 5 11 9.4 4.6 7.8 4 19 4 27.7 0 2 3 2 3 0zm22.3 0c0-7.8-.6-19 4.4-25.6 1.5-1.9 4-2.6 4.2-5.2.1-2-2.9-1.9-3 0-.1 1-3.9 3.7-4.5 4.9-4.4 7.2-4 17.7-4 25.8 0 2 3 2 3 0z" fill="#fff"/><path d="M106.9 290.3c1.1-6.9 1.4-16 5.2-22.1 2-3.2 6.4-5.2 9-8 1.3-1.3-.9-3.5-2.2-2-2.8 3-6.7 4.9-9.2 8.1-1.3 1.8-2 4.1-2.5 6.2-1.5 5.6-2.3 11.4-3.2 17-.3 2 2.6 2.7 3 .8zm31.4-.4c0-7.6-.3-15.8 2.2-23.2 1.2-3.7 4.3-5.8 7.2-8.3 1.4-1.2-.7-3.3-2.2-2-3 2.4-6 4.7-7.5 8.4-3.2 7.6-2.7 17-2.7 25.1 0 2 3 2 3 0z" fill="#fff"/><path d="M132.3 290c0-7.6-.2-16.5 3.9-23.2 2.4-4 7.3-5.9 11.2-8.1 1.6-1 .1-3.6-1.6-2.6-4.3 2.5-8.8 4.5-11.9 8.6-4.9 6.8-4.5 17.4-4.6 25.2 0 2 3 2 3 0zm16.1 0c0-6.7-.4-16.4 4.6-21.7 1.4-1.6 3.7-2 4-4.4.2-2-2.8-2-3 0 0 .1-4 3.2-4.6 4-4.1 6-4 15.2-4 22 0 2 3 2 3 0z" fill="#fff"/><path d="M142.4 290.3c1-5.5 1.5-14.1 5.2-18.7 2.3-2.7 6.3-4.3 9-6.7 1.4-1.3-.7-3.4-2.2-2-2.8 2.4-6.8 4-9.2 6.9-4 5-4.5 13.7-5.7 19.7-.3 2 2.6 2.7 3 .8zM128 290c0-5 0-10.9-2.6-15.4a8.2 8.2 0 0 0-2.3-2.6c-.7-.5-1.2-1.2-1.2-.5-.2-1.9-3.2-2-3 0 .2 1.8 1.6 2.2 2.8 3.2 3.8 3.3 3.3 11 3.3 15.3 0 2 3 2 3 0z" fill="#fff"/><path d="M132.1 289.6c-.8-4.4-1.2-10.1-4-13.9-1.6-2.3-4.6-3.4-6.7-5.3-1.4-1.2-3.6.9-2.1 2.2 1.9 1.7 4.3 2.7 6.1 4.5 1 .9 1.3 2.3 1.7 3.5 1 3.2 1.5 6.5 2.1 9.8.4 2 3.3 1.1 3-.8zm38.7.4c0-7.5 0-16.4 4-23 2.2-3.4 6-5.2 9-7.7 1.5-1.2-.6-3.4-2-2.1-3.4 2.7-7 4.6-9.5 8.3-4.7 6.7-4.5 16.8-4.5 24.5 0 2 3 2 3 0z" fill="#fff"/><path d="M164.8 290c.1-7.7.3-17 5.9-23 3.4-3.6 8.6-5 12.8-7.5 1.7-1 .2-3.5-1.5-2.6-4.8 2.8-10 4.5-14 8.6-5.8 6.3-6.1 16.4-6.2 24.5 0 2 3 2 3 0zm13.8-.2c0-4.6-.4-11.6 2.9-15.4 1-1.2 2.6-1.5 2.8-3.4.2-2-2.8-2-3 0 0-.6-2.6 2-3 2.7-2.8 4.5-2.7 11-2.7 16 0 2 3 2 3 0z" fill="#fff"/><path d="M174.6 290.2c.7-4.2 1-9.8 3.4-13.4 1.2-2 4.2-3.2 5.8-4.8 1.4-1.3-.7-3.4-2-2-2 1.7-4.7 3-6.2 5-2.9 3.8-3.1 10-3.9 14.4-.3 1.9 2.6 2.7 2.9.8zm-15.8-.3c0-6.2 1.3-16.4-4.5-20.5-1.6-1-3.1 1.5-1.6 2.6 1 .6 1.2.6 1.7 1.8 1.8 4.9 1.4 11 1.4 16 0 2 3 2 3 0z" fill="#fff"/><path d="M164.8 289.5c-.8-4.6-1.1-10.4-3.8-14.4-1.5-2.3-4.5-3.5-6.4-5.4-1.4-1.4-3.5.7-2.2 2 1.8 1.8 4.2 3 5.9 4.7.9 1 1.2 2.5 1.6 3.8.9 3.3 1.4 6.7 2 10 .3 2 3.2 1.2 2.9-.7z" fill="#fff"/><g fill="none" stroke="#fff" stroke-width="7"><path d="M76.7 126.6a3 3 0 0 1-3-3V76.9a3 3 0 0 1 3-3H165a3 3 0 0 1 3 3v46.9a3 3 0 0 1-3 3H76.7z"/><path d="M167.7 91h6.9a3 3 0 0 1 3 3v12.5a3 3 0 0 1-3 3h-6.9"/></g><path d="M83.5 119.3a3 3 0 0 1-3-3V84.2a3 3 0 0 1 3-3h3a3 3 0 0 1 2.8 3l9.9 32.1a3 3 0 0 1-3 3H83.5z" fill="#fff" stroke="#fff" stroke-width="3"/><path d="M154 114.8l-22.3-6.9-4 4.2a3.5 3.5 0 0 1-5 .2l-22.4-21a3.5 3.5 0 0 1 3.4-6l22.4 7 4-4.3a3.5 3.5 0 0 1 5-.1l22.4 21a3.5 3.5 0 0 1 .6 4.3 3.5 3.5 0 0 1-4 1.6z" fill="#fff"/></svg>