<svg xmlns="http://www.w3.org/2000/svg" width="361" height="361"><path d="M179 163v19c0 2 3 2 3 0v-19c0-2-3-2-3 0zm19 0l2-6c1-2-2-3-3-1l-2 6c-1 2 2 3 3 1zm-6 19l3-12c0-2-3-2-3-1l-3 12c0 2 3 3 3 1zm17-31l1 1a2 2 0 0 0 2-1 2 2 0 0 0-1-2l-1-1a2 2 0 0 0-2 1l1 2zm5 4v2h2l1-2a631 631 0 0 0-1-1l-2-1v2zm-11-3l1-1 1-2h-2l-1 1-1 2h2zm-36 10l-2-6c-1-2-3-1-3 1l2 6c1 2 4 1 3-1zm6 19l-3-11c0-2-3-1-3 0l3 12c0 2 3 1 2-1zm-21-33l-1 1a2 2 0 0 0-1 2 2 2 0 0 0 2 1l1-1a2 2 0 0 0 1-2 2 2 0 0 0-2-1zm-6 6l-1 1 1 2h2v-4l-2 1zm15-4l-2-1h-2l1 2 1 1h2v-2z" fill="#fff"/><g fill="#fff"><path d="M189 137l1-7c0-2-3-3-3-1l-1 7c-1 2 2 3 3 1zm-3 19l2-12c0-2-3-2-3 0l-1 12c-1 2 2 2 3 0zm6-32l1 1 2-1-1-2h-3l1 2zm2 5v1a2 2 0 0 0 2 1 2 2 0 0 0 1-2v-1a2 2 0 0 0-2-1 2 2 0 0 0-1 2z"/><path d="M191 125l1-1c1-1-2-3-3-1l-1 1c-1 1 2 3 3 1z"/></g><g fill="#fff"><path d="M176 136l-1-7c0-2-3-1-3 1l1 7c0 2 3 1 3-1zm2 20l-1-12c0-2-3-2-3 0l1 12c0 2 3 2 3 0zm-10-34l-1 2 2 1 1-1v-2h-2zm-3 6v1l1 2 2-1v-1a2 2 0 0 0-1-2l-2 1z"/><path d="M173 124v-1c-1-2-4 0-3 1l1 1c1 2 3 0 2-1z"/></g><path d="M282 277c-1 6-13 4-17 4H97c-4 0-17 2-17-4v-38c0-5 0-10 6-10h184c4 0 11-2 12 4v44c0 6 10 6 10 0v-37c0-7 0-13-5-17-5-6-15-4-22-4H83c-8 0-13 8-13 16v40c0 9 6 16 15 16h192c8 0 14-6 15-14 0-7-10-7-10 0z" fill="#fff"/><path d="M251 219c0-8-5-13-13-13h-12l5 5c0-11-7-16-17-16h-22l5 5c-2-19-31-19-33 0l5-5h-20c-10 0-16 5-16 16l5-5h-13c-8 0-13 5-14 13 0 6 10 6 10 0 1-5 13-3 17-3a5 5 0 0 0 5-5c0-7 6-6 11-6h15c3 0 5-2 5-5 1-5 13-5 13 0 0 3 2 5 5 5h16c5 0 12-2 12 6a5 5 0 0 0 5 5c4 0 16-2 16 3 1 6 11 6 10 0z" fill="#fff"/></svg>