<svg xmlns="http://www.w3.org/2000/svg" width="361" height="361"><path d="M164 176c0 14-20 14-21 0s21-14 21 0c1 5 8 5 7 0a18 18 0 0 0-17-18c-10 0-18 9-18 18 0 10 8 17 18 18 10 0 17-9 17-18 1-4-6-4-7 0z" fill="#fff"/><circle cx="228" cy="145" r="6" fill="#fff"/><circle cx="255" cy="145" r="6" fill="#fff"/><circle cx="241" cy="131" r="6" fill="#fff"/><circle cx="241" cy="159" r="6" fill="#fff"/><path d="M218 176c-1 14-21 14-22 0 0-14 21-14 22 0 0 5 7 5 7 0a18 18 0 0 0-18-18c-10 0-17 9-18 18 0 10 9 17 18 18 10 0 17-9 18-18 0-4-7-4-7 0z" fill="#fff"/><path d="M292 219a462 462 0 0 0-6-46 222 222 0 0 0-11-43c-5-12-14-25-28-26-12-1-29-2-36 10l5-2h-68l4 2c-5-9-16-10-25-11-10 0-19 0-26 7-14 13-18 34-22 52a486 486 0 0 0-6 34c-1 11-3 21-2 32 0 9 2 18 9 24a30 30 0 0 0 25 5c15-3 19-16 25-28l12-28h-8c8 13 32 13 42 1l-5 3h21l-4-3c9 12 33 12 41-1h-8l10 22c4 9 7 18 12 25 9 12 25 13 37 6 13-7 13-23 12-35 0-6-10-6-10 0 1 10 2 23-9 28a19 19 0 0 1-16 0c-6-3-8-9-11-15l-17-36c-1-4-6-3-8 0-4 6-13 6-19 4l-4-2c-2 0-2-2-4-3h-24c-2 0-3 2-4 3l-4 2c-6 2-16 2-20-4-2-3-7-4-8 0l-15 33c-4 7-6 14-13 18-7 3-18 1-22-5-5-8-3-20-3-28a443 443 0 0 1 5-33 372 372 0 0 1 7-33 71 71 0 0 1 9-22c2-4 5-9 9-11s10-1 14-1l13 1c4 1 5 7 10 7h68c4 0 5-5 9-7 5-2 10-1 15-1 3 0 8-1 12 1s7 8 10 12l7 15 6 25a428 428 0 0 1 7 52c1 7 11 7 10 0z" fill="#fff"/><path d="M217 143a3 3 0 0 1-3 3h-65a3 3 0 0 1-3-3v-24a3 3 0 0 1 3-3h64a3 3 0 0 1 3 3v24z" fill="none" stroke="#fff" stroke-width="3" stroke-miterlimit="10"/><g fill="#fff"><circle cx="106" cy="145" r="6"/><circle cx="133" cy="145" r="6"/><circle cx="119" cy="131" r="6"/><circle cx="119" cy="159" r="6"/></g></svg>