<svg xmlns="http://www.w3.org/2000/svg" width="361" height="361"><path d="M113 229l1-132h56c2 0 3-1 3 2v130c0 5 7 5 7 0V96c-1-6-7-6-12-6h-56c-8 1-6 14-6 21v118c0 5 7 5 7 0z" fill="#fff"/><path d="M169 165h6c5 0 5-7 0-7h-6c-5 0-5 7 0 7zm-98 69h220c2 0 2-3 0-3H71c-2 0-2 3 0 3zm105-7h115c2 0 2-3 0-3H176c-2 0-2 3 0 3zm-105 0h40c2 0 2-3 0-3H71c-2 0-2 3 0 3zm32 26h110c2 0 2-3 0-3H103c-2 0-2 3 0 3zm8 39h116c2 0 2-3 0-3H111c-2 0-2 3 0 3zm-21-35h10c2 0 2-3 0-3H90c-2 0-2 3 0 3z" fill="#fff"/><path d="M90 253h10c2 0 2-3 0-3H90c-2 0-2 3 0 3zm2 13h10c2 0 2-3 0-3H92c-2 0-2 3 0 3zm0-5h10c2 0 2-3 0-3H92c-2 0-2 3 0 3zm0 13h10c2 0 2-3 0-3H92c-2 0-2 3 0 3zm1-4h10c2 0 2-3 0-3H93c-2 0-2 3 0 3zm2 13h10c2 0 2-3 0-3H95c-2 0-2 3 0 3zm-2-4h10c2 0 2-3 0-3H93c-2 0-2 3 0 3zm4 13h10c2 0 2-3 0-3H97c-2 0-2 3 0 3zm-1-5h10c2 0 2-3 0-3H96c-2 0-2 3 0 3zm123-30h10c2 0 2-3 0-3h-10c-2 0-2 3 0 3zm-2-4h10c2 0 2-3 0-3h-10c-2 0-2 3 0 3zm6 13h10c2 0 2-3 0-3h-10c-2 0-2 3 0 3zm-1-5h10c2 0 2-3 0-3h-10c-2 0-2 3 0 3zm4 13h10c2 0 2-3 0-3h-10c-2 0-2 3 0 3zm-2-4h10c2 0 2-3 0-3h-10c-2 0-2 3 0 3zm5 13h10c2 0 2-3 0-3h-10c-2 0-2 3 0 3zm-2-4h10c2 0 2-3 0-3h-10c-2 0-2 3 0 3zm4 13h10c2 0 2-3 0-3h-10c-2 0-2 3 0 3zm-1-5h10c2 0 2-3 0-3h-10c-2 0-2 3 0 3zM71 73h219c2 0 2-3 0-3H71c-2 0-2 3 0 3zm209 100c-1 3-12 1-15 1h-23c-4 0-7 1-7-3v-58c0-3 9-2 11-2h24c2 0 10-1 10 3v59c0 2 3 2 3 0v-55c0-4 1-8-3-10h-37c-4 0-11-1-11 4v58c0 2 0 6 3 7h41c3 0 6 0 7-4 1-1-2-2-3 0z" fill="#fff"/><path d="M270 154l4 13c1 2 4 1 3-1l-4-13c-1-1-3-1-3 1zm-33 4l9-10c2-1 0-4-2-2l-9 10c-1 2 1 4 2 2zm15-7l3 7c1 2 4 1 3-1l-4-8c0-2-3 0-2 2z" fill="#fff"/><path d="M258 163l6-10c1-2-1-4-2-2l-7 10c-1 2 2 3 3 2zm6-16l6 8c2 2 4 0 3-2l-7-8c-1-1-3 1-2 2zm-23 3l7-5c2-1 0-3-1-2l-8 5c-1 1 0 3 2 2zm9-25l9-1c2-1 1-4 0-3l-10 1c-2 1-1 4 1 3z" fill="#fff"/><path d="M259 123l6 4c2 1 4-2 2-3l-7-4c-1-1-3 2-1 3zm6 6l-1 3 2 2 1-2v-3l-1-1-1 1zm-30 30h6c2 0 2-3 0-3h-6c-2 0-2 3 0 3z" fill="#fff"/><path d="M236 160l13 5c2 1 3-2 1-3l-13-4c-2-1-3 2-1 3zm0 11h7c2 0 2-3 0-3h-7c-2 0-2 3 0 3z" fill="#fff"/><path d="M252 166h6c2 0 2-3 0-3h-6c-2 0-2 3 0 3zm-10 5h5c2 0 2-3 0-3h-5c-2 0-2 3 0 3zm21-33c0 4-12 4-12 0v-10c0-4 12-4 12 0v10c0 2 3 2 3 0 0-5 2-12-3-15-2-2-6-1-8-1-4 0-6 2-7 6v8c0 3 1 5 3 7l9 1c4 0 6-2 6-6 1-2-2-2-3 0z" fill="#fff"/><path d="M253 141l2 1 1-1c1-1 0-1-1-2l-2-1-1 1c-1 1 0 2 1 2zm-15-24h41c2 0 2-3 0-3h-41c-2 0-2 3 0 3zm1 5h8c2 0 2-3 0-3h-8c-2 0-2 3 0 3zm31 0h6c2 0 2-3 0-3h-6c-2 0-2 3 0 3zm-32 7h7c2 0 2-3 0-3h-6c-2 0-2 3 0 3zm34 2h6c2 0 2-3 0-3h-6c-2 0-2 3 0 3zm-33 5h7c2 0 2-3 0-3h-7c-2 0-2 3 0 3zm0 6h6c2 0 2-3 0-3h-6c-2 0-2 3 0 3zm31-1h7c2 0 2-3 0-3h-7c-2 0-2 3 0 3zm2-5h4c2 0 2-3 0-3h-4c-2 0-2 3 0 3zm1 13h3c2 0 2-3 0-3h-3c-2 0-2 3 0 3z" fill="#fff"/><path d="M283 177c-1 3-12 2-14 2h-24c-2 0-13 1-13-2v-69c0-2 11-1 13-1h33c3 0 5 0 5 3v67c0 2 3 2 3 0v-68c0-5-4-5-7-5h-42c-3 0-8 0-8 4v69c0 4 3 5 6 5h41c4 0 9 1 10-4 0-2-2-3-3-1z" fill="#fff"/></svg>