<svg xmlns="http://www.w3.org/2000/svg" width="361" height="361"><path d="M284 155c-1 2-5 0-6-1l-14-5-43-14-64-21c-2 0 1-7 2-7l2 1 11 3 40 13 72 24c3 1 0 5 0 7-2 5 5 7 7 2 1-5 4-13-4-15l-7-2-35-12-80-26-7-2c-6 1-11 12-8 17 4 6 14 7 20 9l87 29 19 6c5 2 11 4 14-3 2-4-4-7-6-3z" fill="#fff"/><path fill="#fff" stroke="#fff" stroke-miterlimit="10" d="M164 118l-9-3 10-7 9 3zm18 6l-8-3 10-7 8 3zm18 6l-9-3 11-7 8 3zm19 5l-9-2 10-7 9 3zm17 6l-8-3 10-6 8 3zm19 6l-9-3 10-6 9 3zm20 7l-9-3 10-7 9 3z"/><g fill="#fff"><path d="M279 252c0-1 1-1-1-1H154c1 0 1 1 1-1v-83s-1 0 0 0h124c1 0 0-1 0 0v85c0 6 10 6 10 0v-75c0-8 2-20-10-20H154c-6 0-9 5-9 11v79c0 3-1 9 3 11 3 3 6 3 10 3h114c8 0 16 1 17-9 1-7-9-7-10 0z"/><path d="M282 173c-1 3-5 2-7 2H154c-2 0-1-8 0-8h127l1 7c0 5 7 5 7 0 0-6 0-14-8-14H155c-5 0-9 3-9 9 0 5 0 13 8 13h116c6 0 17 2 18-7 1-4-6-6-6-2z"/><path stroke="#fff" stroke-miterlimit="10" d="M161 176h-9l8-10h9zm20 0h-9l7-10h9zm19 0h-9l7-9h9zm19 0h-9l7-10h9zm19 0h-9l7-10h9zm19 0h-9l8-10h9zm18 0h-9l8-10h9z"/></g><g fill="#fff"><path d="M100 254l17 34c2 3 6 2 7-1l7-37c1-3-2-5-4-5l-25 4c-4 0-3 7 2 7l25-4-5-4-7 37 6-1-17-34c-2-4-8 0-6 4z"/><path d="M95 245c1 5 4 9 9 10 3 1 6 0 9-1 8-1 16 0 20-8 2-6 0-15-1-21l-12-88-9-61c-1-8-10-7-16-6-6 0-16 0-20 4-6 4-2 15-2 20l21 151c1 5 8 3 7-2L81 96l-2-12c0-3-1-5 3-6l18-2c4-1 4 2 5 5l10 76 10 68 2 15c1 6-5 6-9 7-5 0-15 4-17-4-1-4-8-2-7 2zm17 24l8 16 4-17z"/><path d="M109 271l8 16c1 3 6 2 7-1l3-17c1-3-2-5-4-5l-12 2c-4 1-2 7 2 7l12-2-5-4-3 17 6-1-8-16c-2-4-8 0-6 4z"/></g></svg>