<svg xmlns="http://www.w3.org/2000/svg" width="361" height="361"><path d="M286 267c-1-46-9-93-31-134-16-28-42-55-76-55-5 0-7 7-2 9l3-9c-5 0-8 0-11-4-3-3-7-4-11-4a5 5 0 0 0-5 5c0 4-1 10-3 13s-6 2-9 4a64 64 0 0 0-20 14c-8 8-10 19-16 29a144 144 0 0 1-19 24c-5 6-11 11-14 17a9 9 0 0 0-2 7v-1l1 4a24 24 0 0 0 3 7c3 5 15 20 22 14a83 83 0 0 1 30-15c7-2 15-2 22-3a54 54 0 0 0 23-10 51 51 0 0 0 19-41l-9 2c2 3 2 7 2 11l1 18-2 36c-1 12-4 23-6 34a246 246 0 0 0-5 46c0 7 10 7 10 0a240 240 0 0 1 5-46c2-11 5-23 6-35a720 720 0 0 0 2-38l-1-18c0-5-1-9-4-13-2-4-9-3-9 3a43 43 0 0 1-9 27 42 42 0 0 1-24 14l-14 1-15 4a89 89 0 0 0-29 16l5-1c-6-2-12-10-14-16v-4 2l3-4c11-12 22-23 30-36a86 86 0 0 0 7-12c2-4 2-9 5-12 4-7 11-11 17-15a63 63 0 0 1 4-1v-1l9-3c6-6 7-14 7-22l-4 5c3 0 4 1 6 4 5 3 10 4 16 4 5 0 7-7 2-9v-1l-3 10c31 0 54 26 68 52 21 38 28 83 29 127 0 6 10 6 10 0z" fill="#fff"/><path d="M144 127c7 0 7-10 0-10s-6 10 0 10z" fill="#fff"/></svg>