<svg xmlns="http://www.w3.org/2000/svg" width="361" height="361"><path d="M284 189.6c-.2 1.6-1.8 1-3.3 1h-49c-.7 0-.3-4.4-.3-5.2V77.2H284v113.3c0 4.6 7 4.6 7 0V82c0-3 .3-5.8-1.1-8.6-2.2-4.2-8.9-3.1-12.8-3.1h-42.8c-4.7 0-9.8 1.3-9.8 7v112.6c0 8.1 7.4 7.7 13.2 7.7h33c6.1 0 18.9 2.5 20.2-6 .7-4.4-6-6.3-6.7-1.9z" fill="#fff"/><path d="M229 138.3h5.7c2 0 3.5-1.7 3.5-3.6s-1.6-3.4-3.5-3.4h-5.6c-2 0-3.5 1.5-3.5 3.4s1.6 3.6 3.5 3.6zm33.8-33.4c0-.1.6 0 .1 0h-10.6c-.4 0 .4.6.4.3V94.9c0 .5-.8.4-.2.4H263c-.5 0-.4-.8-.4-.2v10.2c0 2 3 2 3 0v-7.4c0-2 .5-5.6-2.5-5.6h-7.5c-2.2 0-5.2-.6-6 2.1-.6 2.2 0 5.2 0 7.4s-.6 5.2 2.1 6c2.2.6 5.2 0 7.4 0 2.3 0 5.7.7 6.4-2.1.6-1.9-2.3-2.7-2.8-.8zm0 23.7c0-.1.6 0 .1 0h-10.6c-.4 0 .4.6.4.3v-10.3c0 .5-.8.4-.2.4H263c-.5 0-.4-.8-.4-.2V129c0 2 3 2 3 0v-7.5c0-2 .5-5.5-2.5-5.5h-7.5c-2.2 0-5.2-.6-6 2.1-.6 2.2 0 5.2 0 7.4s-.6 5.2 2.1 6c2.2.6 5.2 0 7.4 0 2.3 0 5.7.7 6.4-2.1.6-1.9-2.3-2.7-2.8-.8zm0 22.3c0-.1.6 0 .1 0h-10.6c-.4 0 .4.7.4.3v-10.3c0 .5-.8.4-.2.4H263c-.5 0-.4-.8-.4-.2v10.2c0 2 3 2 3 0v-7.4c0-2 .5-5.6-2.5-5.6h-7.5c-2.2 0-5.2-.6-6 2.1-.6 2.2 0 5.2 0 7.4s-.6 5.2 2.1 6c2.2.6 5.2 0 7.4 0 2.3 0 5.7.7 6.4-2.1.6-1.9-2.3-2.7-2.8-.8zm0 23.7c0-.1.6 0 .1 0h-10.6c-.4 0 .4.6.4.3v-10.3c0 .5-.8.4-.2.4H263c-.5 0-.4-.8-.4-.2V175c0 2 3 2 3 0v-7.4c0-2 .5-5.6-2.5-5.6h-7.5c-2.2 0-5.2-.6-6 2.1-.6 2.2 0 5.2 0 7.4s-.6 5.2 2.1 6c2.2.6 5.2 0 7.4 0 2.3 0 5.7.7 6.4-2.1.6-1.9-2.3-2.7-2.8-.8zm-107 86c-.4-6.2-7.8-4.3-11.9-3.5l2 1.4v-1c0-.7-.5-1.4-1-1.5-4-.6-9.1-2.4-13.2-1.7-2.5.4-7.5 2.2-7.2 5.6.7 7.4 12 7.5 17.3 8.7.9.2 1.6-.3 1.9-1l.3-1-1.8 1c3 1.2 6.9 3.7 10.2 3 2.8-.7 3-7.5 3.4-9.5.3-2-2.6-2.7-2.9-.8-.2 1.3-.8 7.5-2.2 7.3-2.6-.5-5.2-1.9-7.7-2.9-.8-.3-1.6.3-1.9 1l-.3 1 1.8-1c-4-.9-10.7-1-13.8-3.8-3-2.8 1.2-4.4 3.7-4.7 3.6-.4 8 1.2 11.5 1.7l-1-1.4-.2 1c0 1 1 1.7 2 1.5 1.7-.4 7.8-2.5 8 .7.2 2 3.2 2 3 0zm121.8-40.8c-.7 3.6-11.3 1.9-13.6 1.9h-36.8c-3.3 0 .2-6.5.6-7.8l2.7-7.6c1.3-3.7 10.8-1.9 13.7-1.9H281c3.2 0-.3 6.5-.7 7.8l-2.7 7.6c-.6 1.8 2.3 2.6 3 .8l2.6-7.6c.7-2 2.8-5.4 2.3-7.5-1-5-6.3-4-10.3-4h-41.5c-5.4 0-6 3.7-7.5 8-1.5 4.2-7.1 13.6.5 15.1 3.8.8 8.6 0 12.5 0H263c4.6 0 16.1 2.4 17.4-4 .4-2-2.5-2.7-2.9-.8z" fill="#fff"/><path d="M272.5 213.9l.2-.6.1-.8.2-1 .2-1-.7 1.4a340 340 0 0 1-.6 1.6l-.7 1.6-.7 1.6h-1.6a894.5 894.5 0 0 0 2-4 127.7 127.7 0 0 1 2.2-4h1.3a38.8 38.8 0 0 1-.2 1.7 63.3 63.3 0 0 0-.3 1.8 165.3 165.3 0 0 0 2.8-3.5h1.3a61 61 0 0 1-.7 1.9 131.4 131.4 0 0 1-1.7 4.1 258.2 258.2 0 0 1-.8 2h-1.5l.7-1.6.8-1.6.8-1.6.7-1.4-.7.9-.7 1-.7.8-.5.7h-1.2zm-1-5.2l-3.8 8H263l.6-1.3h3.3l.8-1.8h-2.8l.6-1.3h2.8l1-2.3h-3.5l.6-1.3h5.2zm-11.7 0h5l-3.7 8h-1.6l3.2-6.7h-3.5l.6-1.3zm-4.3-.2c1.2 0 1.9.4 2.1 1.1.3.7.1 1.8-.5 3.1a8.5 8.5 0 0 1-1.1 1.8c-.4.5-.9 1-1.4 1.3a5.9 5.9 0 0 1-1.5.8 4.8 4.8 0 0 1-1.6.3h-.8a3.4 3.4 0 0 1-.5-.2 1.4 1.4 0 0 1-.3-.2 9.1 9.1 0 0 0-.2-.2l1-1.2.5.3a2.6 2.6 0 0 0 1.7 0l.9-.5.8-.8.9-1.3c.4-1 .6-1.7.5-2.2-.1-.5-.5-.7-1.2-.7l-1.1.1-.8.3.1-1.2a6.4 6.4 0 0 1 2.5-.6zm-5 4.2a9 9 0 0 1-2.2 3.2 4 4 0 0 1-2.6 1c-1 0-1.5-.3-1.6-1-.2-.7 0-1.8.7-3.2a9.1 9.1 0 0 1 2.2-3.1 4 4 0 0 1 2.6-1c1 0 1.5.3 1.7 1 .2.7 0 1.7-.7 3.1zm-1.5 0l.4-1a3.7 3.7 0 0 0 .3-1 1 1 0 0 0-.1-.6l-.6-.2c-.3 0-.5 0-.8.2l-.6.6-.6 1a17.3 17.3 0 0 0-1 2.1l-.3 1 .1.5.6.2c.3 0 .5 0 .7-.2.3-.1.5-.3.7-.6l.6-.9a17.1 17.1 0 0 0 .6-1zm-8.5 4v-.7l.2-.9a132.6 132.6 0 0 1 .3-2l-.8 1-.8 1a133.3 133.3 0 0 0-1.2 1.6h-1.4l.8-2a93.9 93.9 0 0 1 .8-2 162.8 162.8 0 0 1 1.7-4h1.5l-3 6.2 2.6-3.4h1.1l-.6 3.4 2.8-6.2h1.5a944.9 944.9 0 0 1-2.1 4.2l-1 2a77 77 0 0 1-1.1 1.8h-1.3zm-1.5-8l-3.8 8h-4.8l.6-1.3h3.3l.8-1.8h-2.8l.6-1.3h2.8l1-2.3h-3.5l.6-1.3h5.2zm-99-79.8c5-2.1 10.6-2.2 15.9-2 5.2 0 11.5.4 16.2 2.9 2.4 1.2 2.6 4.6 3 7l2.5 11.8c2.9 14.7 5.9 29.3 8.7 44a145.2 145.2 0 0 1 2 14.8c0 .4.9-.4-.5.2a19 19 0 0 1-4.7 1.4c-2.6.3-4.4-12.8-4.7-14.5-1.4-8-2.5-16-3.5-24-.7-4.6-.9-9.7-2.2-14.3-1-3.3-3.5-.7-3.4 1.6.5 7 1.6 14 2.5 21l2.6 20.3c.9 6.3-20.5 4.5-23.7 4.2-2-.1-2 2.9 0 3 6 .4 11.8.3 17.7-.4 2-.3 5.8-.4 7.3-1.9 3.2-3.2 1.2-8.8.7-12.9a1750.4 1750.4 0 0 1-4-32.4l-.1-2c0 2.5-2.8-1.3-2.2 1.4 2.8 13.4 3.4 27.2 6 40.6.8 3.6 1.5 10.2 4.8 12.7 3 2.2 10.3-.6 10.4-4.5.4-8.7-2.6-18.2-4.5-26.7-2-9.2-3.6-18.5-5.5-27.8a6020.2 6020.2 0 0 0-3.1-15.8c-.7-3.2-.9-6.3-3.4-8.6-3.6-3.3-10.1-3.4-14.6-3.9a44 44 0 0 0-21 1.9c-1.7.7-1 3.6.8 2.9z" fill="#fff"/><path d="M155 123.5c-2.7-.3-2-8.4-1.8-10.1h-3v.6c0 2 2.8 2 3 0 .1-1.6 1.1-2.7 2.8-2.9l-1.5-1.5c0 1 .7 1.5 1.5 1.6 1.7.2 2.8 2 2.6 3.6-.4 1.9 2.5 2.7 2.9.8a6.2 6.2 0 0 0-5.5-7.4l1.5 1.5c0-.8-.7-1.6-1.5-1.6-3.4.3-5.5 2.5-5.8 6h3v-.7c0-2-2.8-1.9-3 0-.4 4-.7 12.5 4.7 13.1 2 .2 2-2.8 0-3zm-28.6 6.4c8-3 16.7-.5 23.2 4.6 3.9 3 4.2 10.9 5.2 15.3 2 8.4 4 16.9 5.6 25.4.6 3 1.4 6.4 1.4 9.6 0 2-6.4 1.8-8.1 2l1.4 1.2-2.6-17.4c-.6-4.3-2-9-2-13.4l-2.7.8.5 4 1.3 11 2.7 23 .6 5c.3 3-6.6 2.4-8 2.5l-19 .8c-1.9 0-1.9 3 0 3l21.4-1c5.2-.2 9-1.4 8.3-7.4a8350.7 8350.7 0 0 0-3-25 1864.6 1864.6 0 0 0-1.4-12.5c-.2-1.4-.1-3.6-.8-5-.8-1.3-2.8-.6-2.8.8-.2 3.9 1.1 8.2 1.7 12l3 19.6c0 .5.8 1.1 1.4 1 2.5-.2 7.3 0 9.4-1.4 2.8-1.8 1.7-6 1.1-8.8a666.4 666.4 0 0 0-6.2-29.5c-1.5-6.2-1.8-14.2-7.2-18.4-7-5.4-16.8-8-25.2-4.7-1.8.7-1 3.6.8 2.9z" fill="#fff"/><path d="M156.2 141.4c-.5-3.4-4.9-4.5-7.6-5.2-7.1-1.8-14.7-2-22-2-2 0-2 3 0 3 5 0 9.8.3 14.7.8 2.4.2 11.5.8 12 4.2.3 2 3.2 1.1 3-.8zM133 125.6c-2.4-.3-1.4-8.3-1.3-9.8h-3v.6c0 2 2.9 2 3 0 .2-1.7 1.2-2.7 2.9-2.9L133 112c0 1 .7 1.5 1.5 1.5 1.8.2 3.3 2 3 3.7-.3 2 2.6 2.7 2.9.8.7-3.8-2-7-5.9-7.5l1.5 1.5c0-.8-.6-1.6-1.5-1.5-3.4.3-5.5 2.5-5.8 6h3v-.7c0-2-2.8-1.9-3 0-.4 3.8-1.2 12.2 4.3 12.8 1.9.2 1.8-2.8 0-3z" fill="#fff"/><path d="M80 232.1c-3.8-.4-2.9-5.4-2.9-8v-118c0-3.1.8-5.4 4.5-5.4h21.1c2.6 0 15.8-1.8 15.8 2.9V227c0 3-1 5-4.5 5H80c-4.5 0-4.5 7 0 7h35c11.6 0 10.5-11.4 10.5-19.4V104c0-5.9-4.5-10.3-10.4-10.3H95.8c-9.4 0-25.6-3-25.6 11v119.9c0 7 1.1 13.6 9.8 14.5 4.5.5 4.4-6.5 0-7z" fill="#fff"/><path d="M122.2 119.7l43.9-5.6c1.8-.2 1.9-3.2 0-3l-43.9 5.6c-1.9.3-2 3.3 0 3zm28.3 129.5c-.2-2.3-.9-4.2-3.1-5-1-.4-1.8.5-2 1.4l-.2 2.5 1.5-1.5-8.2.3 1.5 1.5v-2.8a1.5 1.5 0 0 0-1.4-1.5c-6 .2-19.1.7-19.1 9.4 0 .8.6 1.5 1.5 1.5h28c.8 0 1.5-.7 1.5-1.5v-4.3c0-2-3-2-3 0v4.3l1.5-1.5h-28l1.5 1.5c0-6.2 12.2-6.2 16.1-6.4l-1.5-1.5-.1 2.8c0 .8.7 1.5 1.5 1.5l8.2-.3c.9 0 1.4-.7 1.5-1.5l.3-2.5-2 1.5 1 2c.2 2 3.2 2 3 0zm-7.7 8.2l-1.3 7.7c-.3 1.9 2.6 2.7 2.9.8l1.3-7.7c.3-1.9-2.6-2.7-3-.8z" fill="#fff"/><g fill="#fff"><path d="M107.8 289.1l-1-9.3c-.2-2-3.2-2-3 0l1 9.3c.2 1.9 3.2 2 3 0z"/><path d="M108 273.7c-.2 6.9-8 5-12.2 8.4-2.8 2.2-4.4 5-8 6.2-3.1 1.2-7.3.5-10.6.4-2 0-2 3 0 3 3.8.1 7.7.5 11.4-.5 3.6-.9 6.1-3.8 8.6-6.4 2.9-3 7.6-2.3 11-4.4 2.5-1.4 2.7-4.3 2.8-6.7 0-2-3-2-3 0z"/><path d="M108.4 273c-1.5 1.7-3.2 3.2-5.8 2.9-1.2-.2-1.4-1.4-2-2a3.6 3.6 0 0 0-2.8-1.4c-3.1 0-6.5 4-8.6 5.7a40 40 0 0 1-7.9 5.3c-2 1-4.7 1-6 2.9-1.7 2.2-1.4 5.4 1.9 5.3 1.9-.1 2-3.1 0-3a5 5 0 0 1 2.9-1.5l2.7-1.1a29.3 29.3 0 0 0 5.4-3.3c2.8-2 5.2-4.5 8-6.5 2-1.3 1.9 0 3.2 1a6.3 6.3 0 0 0 3.4 1.6c3 .4 5.9-1.6 7.7-3.8 1.3-1.5-.9-3.6-2.1-2.1z"/><path d="M107.7 289.5l2.4-11.7c.4-2-2.5-2.7-2.9-.8l-2.4 11.7c-.4 1.9 2.5 2.7 3 .8z"/></g><g fill="#fff"><path d="M115.9 277.3l-1-9.3c-.2-1.9-3.2-1.9-3 0l1 9.3c.2 2 3.2 2 3 0zm-25.1-.2l-5.5-.2c-2 0-2 3 0 3l5.5.2c2 0 1.9-3 0-3z"/><path d="M116.1 262c0 4.2-2.3 4.9-6.2 5.8-2 .4-3.7.7-5.3 2-2 1.6-3.5 3.5-5.4 5.1-1.5 1.3.6 3.4 2 2.2 2.4-2 4.3-5.1 7.4-6 2.3-.7 4.7-1 7-2 3-1.3 3.5-4.3 3.5-7.2 0-2-3-2-3 0z"/><path d="M116.5 261.2c-1.5 1.8-3.2 3.3-5.8 2.9-1.2-.2-1.4-1.3-2-2a3.6 3.6 0 0 0-2.8-1.3c-3-.1-6.5 4-8.6 5.7-2.4 2-5 3.8-7.9 5.2-1.9 1-4.6 1-6 3-1.6 2.1-1.4 5.4 2 5.2 1.8 0 1.8-3 0-3a5 5 0 0 1 2.8-1.5l2.8-1.1a29.4 29.4 0 0 0 5.3-3.3c2.8-2 5.3-4.5 8.1-6.5 1.9-1.3 1.8 0 3.1 1.1a6.3 6.3 0 0 0 3.4 1.5c3.1.5 5.9-1.6 7.8-3.8 1.2-1.4-.9-3.6-2.2-2z"/><path d="M115.8 277.7l2.5-11.7c.4-1.9-2.5-2.7-3-.8l-2.4 11.7c-.3 2 2.5 2.7 3 .8z"/></g></svg>