<svg xmlns="http://www.w3.org/2000/svg" width="361" height="361"><path d="M245 133v143c0 7 10 7 10 0V133c0-7-10-7-10 0zm37 46v97c0 7 10 7 10 0v-97c0-6-10-6-10 0zm-25-47v37c0 7 10 7 10 0v-37c0-6-10-6-10 0zm-26 0v37c1 6 11 6 11 0v-37c0-6-10-6-10 0z" fill="#fff"/><path d="M273 190a6 6 0 0 0 6 6h6a6 6 0 0 0 6-6v-56a6 6 0 0 0-6-6h-6a6 6 0 0 0-6 6v56z" fill="#fff" stroke="#fff" stroke-miterlimit="10"/><path d="M237 175h25c6 0 6-10 0-10h-25c-7 0-7 10 0 10z" fill="#fff"/><path d="M117 105a4 4 0 0 1-4 4H88a4 4 0 0 1-5-4V91a4 4 0 0 1 5-4h25a4 4 0 0 1 4 4v14z" fill="none" stroke="#fff" stroke-width="10" stroke-miterlimit="10"/><path d="M119 103h95c7 0 7-10 0-10h-95c-6 0-6 10 0 10z" fill="#fff"/><path d="M221 228a49 49 0 0 1-49 48h-49a49 49 0 0 1-49-48v-49a49 49 0 0 1 49-49h49a49 49 0 0 1 48 49v49z" fill="none" stroke="#fff" stroke-width="10" stroke-miterlimit="10"/><path d="M187 219a26 26 0 0 1-21 25h-37c-13-2-21-13-21-25v-18c0-6-1-13 1-20a26 26 0 0 1 24-16h20c6 0 12-1 17 1a26 26 0 0 1 17 24v29c0 4 7 4 7 0v-18c0-6 1-13-1-19a32 32 0 0 0-20-22c-6-3-13-2-20-2-16 0-33-2-45 11-10 12-7 30-7 44 0 12 2 22 11 30s19 8 30 8c9 0 19 1 28-1a33 33 0 0 0 24-31c0-5-7-5-7 0z" fill="#fff"/></svg>