<svg xmlns="http://www.w3.org/2000/svg" width="361" height="361"><path d="M284 190l-3 1h-49l-1-6V77h53v114c0 4 7 4 7 0V82l-1-9c-2-4-9-3-13-3h-43c-4 0-10 2-10 7v113c0 8 8 8 14 8h33c6 0 19 2 20-6 1-5-6-7-7-2z" fill="#fff"/><path d="M229 138h6c2 0 3-1 3-3s-1-4-3-4h-6c-2 0-3 2-3 4s1 3 3 3zm34-33h-11 1V95s-1 0 0 0h10v10c0 2 3 2 3 0v-7c0-2 0-6-3-6h-7c-3 0-6 0-6 2v8c0 2-1 5 2 6h7c2 0 6 1 7-2 0-2-3-3-3-1zm0 24c0-1 0 0 0 0h-11 1v-10s-1 0 0 0h10s0-1 0 0v10c0 2 3 2 3 0v-7c0-2 0-6-3-6h-7c-3 0-6-1-6 2v7c0 3-1 6 2 7h7c2 0 6 0 7-3 0-1-3-2-3 0zm0 22h-11 1v-10s-1 0 0 0h10v10c0 2 3 2 3 0v-7c0-2 0-6-3-6h-7c-3 0-6 0-6 2v8c0 2-1 5 2 6h7c2 0 6 1 7-2 0-2-3-3-3-1zm0 24c0-1 0 0 0 0h-11 1v-10s-1 0 0 0h10s0-1 0 0v10c0 2 3 2 3 0v-7c0-2 0-6-3-6h-7c-3 0-6-1-6 2v7c0 3-1 6 2 7h7c2 0 6 0 7-3 0-1-3-2-3 0zm-107 86c-1-7-8-5-12-4l2 2v-1l-1-2-13-2c-3 1-8 3-7 6 0 7 12 7 17 9l2-1v-1l-2 1 10 3c3-1 3-8 4-10 0-2-3-3-3-1l-2 8-8-3c-1-1-2 0-2 1v1l2-1c-4-1-11-1-14-4s1-4 4-5l11 2-1-1v1l2 1c2 0 8-2 8 1 0 2 3 2 3 0zm122-41c-1 3-12 2-14 2h-37c-3 0 0-7 1-8l2-8c2-3 11-2 14-2h37c3 0 0 7-1 8l-2 8c-1 2 2 2 3 1l2-8 3-7c-1-5-7-4-11-4h-41c-6 0-6 3-8 8-1 4-7 13 1 15h36c5 0 16 2 17-4 1-2-2-3-3-1z" fill="#fff"/><path d="M273 214v-3l-1 1a340 340 0 0 1 0 2l-1 1-1 2h-1a895 895 0 0 0 2-4 128 128 0 0 1 2-4h1a39 39 0 0 1 0 1 63 63 0 0 0 0 2 165 165 0 0 0 3-3h1a61 61 0 0 1-1 2 131 131 0 0 1-1 4 258 258 0 0 1-1 2h-2l1-2 1-2 1-1v-1l-1 1-1 1v1h-1zm-1-5l-4 8h-5l1-2h3l1-1h-3l1-2h2l1-2h-3v-1h6zm-12 0h5l-4 8h-1l3-7h-4l1-1zm-4 0l2 1-1 3a9 9 0 0 1-1 2l-1 1a6 6 0 0 1-2 1 5 5 0 0 1-2 0 3 3 0 0 1-1 0 9 9 0 0 0 0-1l1-1a3 3 0 0 0 2 0h1l1-1v-1l1-2-1-1h-2v-1a6 6 0 0 1 3 0zm-5 4a9 9 0 0 1-3 3 4 4 0 0 1-2 1l-2-1 1-3a9 9 0 0 1 2-3 4 4 0 0 1 3-1l1 1v3zm-2 0v-1a4 4 0 0 0 1-1 1 1 0 0 0 0-1h-2v1l-1 1a17 17 0 0 0-1 2v2l1-1h1v-1a17 17 0 0 0 1-1zm-8 4v-2a133 133 0 0 1 0-2l-1 1-1 1a133 133 0 0 0-1 2h-1l1-2a94 94 0 0 1 0-2 163 163 0 0 1 2-4h2l-3 6 2-3h1v3l2-6h2a945 945 0 0 1-2 4l-1 2a77 77 0 0 1-1 2h-1zm-2-8l-4 8h-5l1-2h3l1-1h-3l1-2h3l1-2h-4l1-1h5zm-99-80c5-2 11-2 16-2s11 0 16 3c2 1 3 4 3 7l3 12 8 44a145 145 0 0 1 2 14v1a19 19 0 0 1-5 1c-3 0-4-13-5-14l-3-24-2-15c-1-3-4 0-4 2l3 21 2 20c1 6-20 5-23 4-2 0-2 3 0 3h17c2 0 6 0 8-2 3-3 1-9 0-13a1750 1750 0 0 1-4-32v-2c0 2-2-2-2 1l6 41c1 3 2 10 5 12 3 3 10 0 10-4 1-9-2-18-4-27l-6-28a6020 6020 0 0 0-3-15c0-4-1-7-3-9-4-3-10-3-15-4a44 44 0 0 0-21 2c-1 1-1 4 1 3z" fill="#fff"/><path d="M155 124c-3-1-2-9-2-11h-3v1c0 2 3 2 3 0s1-3 3-3l-1-1 1 1c2 0 3 2 3 4-1 2 2 2 2 1a6 6 0 0 0-5-8l2 2-2-2c-3 0-5 3-6 6h3v-1c0-2-3-2-3 0 0 4-1 13 5 13 2 1 2-2 0-3zm-29 6c8-3 17-1 24 5 3 3 4 10 5 15l5 25 2 10c0 2-7 2-8 2l1 1-3-17-1-14-3 1v4l2 11 2 23 1 5c0 3-7 2-8 3h-19c-2 0-2 3 0 3l21-1c6 0 9-1 9-7a8351 8351 0 0 0-3-25 1865 1865 0 0 0-2-13l-1-5-2 1c-1 4 1 8 1 12l3 20 2 1c2 0 7 0 9-2 3-1 2-6 1-8a666 666 0 0 0-6-30c-1-6-2-14-7-18-7-6-17-8-25-5-2 1-1 4 0 3z" fill="#fff"/><path d="M156 141c0-3-5-4-7-5-8-2-15-2-22-2-2 0-2 3 0 3l14 1c3 0 12 1 12 4 1 2 3 1 3-1zm-23-15c-2-1-1-9-1-10h-3c0 2 3 2 3 0l3-3-2-1 2 2 3 3c-1 2 2 3 2 1 1-4-2-7-5-7l1 1-1-1c-4 0-6 2-6 6h3v-1c0-2-3-2-3 0-1 4-2 12 4 13 2 0 2-3 0-3z" fill="#fff"/><path d="M80 232c-4 0-3-5-3-8V106c0-3 1-5 5-5h21c2 0 15-2 15 3v123c0 3-1 5-4 5H80c-4 0-4 7 0 7h35c12 0 11-11 11-19V104c0-6-5-10-11-10H96c-10 0-26-3-26 11v120c0 7 1 13 10 14 4 1 4-6 0-7z" fill="#fff"/><path d="M122 120l44-6c2 0 2-3 0-3l-44 6c-2 0-2 3 0 3zm29 129c-1-2-1-4-4-5l-2 2v2l2-1h-8l1 1v-2a2 2 0 0 0-1-2c-6 0-19 1-19 9l1 2h28l2-1v-5c0-2-3-2-3 0v4l1-1h-28l2 2c0-7 12-7 16-7l-2-1v2l2 2h8l1-2 1-2-2 1 1 2c0 2 3 2 3 0zm-8 8l-1 8c-1 2 2 3 2 1l2-8c0-2-3-3-3-1z" fill="#fff"/><g fill="#fff"><path d="M108 289l-1-9c0-2-3-2-3 0l1 9c0 2 3 2 3 0z"/><path d="M108 274c0 7-8 5-12 8l-8 6-11 1c-2 0-2 3 0 3l12-1 8-6c3-3 8-3 11-5 3-1 3-4 3-6s-3-2-3 0z"/><path d="M108 273c-1 2-3 3-5 3s-2-2-2-2a4 4 0 0 0-3-2l-9 6a40 40 0 0 1-8 5l-6 3c-1 3-1 6 2 6 2 0 2-3 0-3a5 5 0 0 1 3-2l3-1a29 29 0 0 0 5-3l8-7c2-1 2 0 3 1a6 6 0 0 0 4 2c3 0 6-2 8-4 1-1-1-4-3-2z"/><path d="M108 290l2-12c1-2-2-3-3-1l-2 12c-1 2 2 2 3 0z"/></g><g fill="#fff"><path d="M116 277l-1-9c0-2-3-2-3 0l1 9c0 2 3 2 3 0zm-25 0h-6c-2 0-2 3 0 3h6c2 0 2-3 0-3z"/><path d="M116 262c0 4-2 5-6 6l-5 2-6 5c-1 1 1 3 2 2 3-2 4-5 8-6l7-2c3-1 3-4 3-7 0-2-3-2-3 0z"/><path d="M117 261l-6 3-2-2a4 4 0 0 0-3-1c-3 0-7 4-9 5l-8 6-6 3c-1 2-1 5 2 5 2 0 2-3 0-3a5 5 0 0 1 3-2l3-1a29 29 0 0 0 5-3l8-7c2-1 2 0 3 2a6 6 0 0 0 4 1c3 1 6-2 8-4 1-1-1-3-3-2z"/><path d="M116 278l2-12c1-2-2-3-3-1l-2 12c0 2 2 3 3 1z"/></g></svg>