<svg xmlns="http://www.w3.org/2000/svg" width="361" height="361"><path d="M258 115H104c-6 0-6 10 0 10h154c6 0 6-10 0-10z" fill="#fff"/><path d="M253 276c-1 8-17 5-22 5H114c-7 0-6-8-6-13V85c0-7 16-5 21-5h118c7 0 6 8 6 13v183c0 7 10 7 10 0V94c0-9 0-18-9-22-6-4-17-2-23-2H114c-9 0-15 7-16 15v190c0 7 3 12 9 15 3 2 7 1 10 1h130c9 0 15-6 16-15 0-6-10-6-10 0z" fill="#fff"/><path d="M168 87h26c9 0 9-15 0-15h-26c-10 0-10 15 0 15zm-45 24h10c2 0 2-3 0-3h-10c-2 0-2 3 0 3zm0-20h10c2 0 2-3 0-3h-10c-2 0-2 3 0 3zm104 20h10c2 0 2-3 0-3h-10c-2 0-2 3 0 3zm-104-7h10c2 0 2-3 0-3h-10c-2 0-2 3 0 3zm0-7h10c2 0 2-3 0-3h-10c-2 0-2 3 0 3zm78 2c-1 2-6 1-7 1h-32c-2 0-1-4-1-5 0-2 21-1 23-1h16l1 6c0 2 3 2 3 0 0-4 0-9-5-9h-32c-4 0-8 0-9 4-1 3 0 8 4 8h33c3 0 8 1 9-3 0-2-3-3-3-1zm-83 174h125c4 0 4-7 0-7H119c-5 0-5 7 0 7z" fill="#fff"/><path d="M115 238v32c0 4 7 4 7 0v-32c0-5-7-5-7 0zm131 32v-32c0-5-7-5-7 0v32c0 4 7 4 7 0z" fill="#fff"/><path d="M236 238a21 21 0 0 1-21 21h-20c-9 0-17-2-22-10-4-7-3-15-3-22s-1-14 1-20c3-10 13-14 22-14h21c10 0 19 6 21 16 2 5 1 10 1 15v14c0 5 7 5 7 0 0-13 3-29-5-40-10-15-28-12-44-12-8 0-15 1-22 7a29 29 0 0 0-9 22c0 16-3 33 9 44 11 10 27 7 39 7 7 0 14-1 20-5a28 28 0 0 0 12-23c0-4-7-4-7 0z" fill="#fff"/><path d="M223 234c-1 15-17 13-27 13-16 0-13-18-13-28 0-15 17-13 27-13 15 0 13 17 13 27 0 3 3 3 3 1v-15c0-9-7-16-16-16h-14c-9 0-16 7-16 16v14c0 9 7 16 16 16h14c9 0 16-7 16-16 0-2-3-2-3 0zm-56 26c-5-5-12-9-13-16l-3-15-4-16c-1-7 3-13 6-20 2-4-4-7-6-3-3 7-8 14-7 22l4 17 3 17c2 8 9 14 15 19 3 3 8-2 5-5z" fill="#fff"/><path d="M154 260c-6-5-12-9-14-16l-3-15-3-15c-2-8 2-14 5-21 2-4-4-7-6-3-3 7-8 15-6 23l3 17 4 16c1 9 9 14 15 19 3 3 8-2 5-5z" fill="#fff"/><path d="M141 260c-6-5-12-9-14-16l-3-15-3-15c-1-8 3-14 6-21 2-4-5-7-6-3-4 7-8 15-7 23l3 17 4 16c2 9 9 14 15 19 3 3 8-2 5-5zm-16-110h110c2 0 2-3 0-3H125c-2 0-2 3 0 3z" fill="#fff"/><path d="M186 149c0 3-3 2-5 2s-6 1-7-2c0-3 4-3 6-3s6 0 6 3c1 2 4 2 3 0 0-5-4-6-8-6-5 0-9 0-10 6 0 5 6 5 9 5 4 0 9 0 9-5 1-2-2-2-3 0zm-46 5l1 7c0 2 3 1 3-1l-1-7c-1-2-4-1-3 1zm-11 11l-1 6c-1 1 2 2 3 0l1-5c0-2-3-3-3-1zm13 1l1 7c1 2 4 1 3-1l-1-7c0-2-3-1-3 1zm-10-13l-2 8c0 2 3 3 3 1l2-8c0-2-3-3-3-1zm-5 23l-2 8c-1 2 2 2 3 1l1-8c1-2-2-3-2-1zm17 2l1 4 2 1 1-2-1-4-2-1-1 2zm-5 2v-6c0-2-3-2-3 0v6c0 2 3 2 3 0zm0-11v-7c0-2-3-2-3 0v7c0 2 3 2 3 0zm0-12v-4c0-2-3-2-3 0v4c0 2 3 2 3 0zm0 46v-8c0-2-3-2-3 0v8c0 2 3 2 3 0zm0-13v-4c0-2-3-2-3 0v4c0 2 3 2 3 0zm7-4l1 5 2 1 1-2-1-4c0-1-1-2-2-1l-1 1zm1 9l2 7c0 2 3 1 3 0l-2-7c0-2-3-2-3 0zm-24-6l-1 5c0 2 2 3 3 1l1-5c1-2-2-3-3-1zm-2 11l-1 3 1 2 2-1v-3c1-1 0-2-1-2l-2 1zm14-49h5c2 0 4-1 4-3s-2-4-4-4h-6c-1 0-3 2-3 4s2 3 4 3zm82 2l-1 7c0 2 2 3 3 1l1-7c0-2-2-3-3-1zm11 13l1 5c1 2 4 1 3 0l-1-6c-1-2-3-1-3 1zm-13-1l-1 7c-1 2 2 3 3 1l1-7c0-2-3-3-3-1zm10-11l2 8c0 2 3 1 3-1l-2-8c-1-2-4-1-3 1zm5 23l2 8c0 1 3 1 3-1l-2-8c0-2-3-1-3 1zm-17 0l-1 4 1 2 2-1 1-4-1-2-2 1zm10 3v-6c0-2-3-2-3 0v6c0 2 3 2 3 0zm1-11v-7c0-2-3-2-3 0v7c0 2 3 2 3 0zm0-12v-4c0-2-3-2-3 0v4c0 2 3 2 3 0zm-1 46v-8c0-2-3-2-3 0v8c0 2 3 2 3 0zm0-13v-4c0-2-3-2-3 0v4c0 2 3 2 3 0zm-12-4l-1 4 1 2 2-1 1-5-1-1c-1-1-2 0-2 1zm-2 8l-1 8c0 1 3 2 3 0l1-7c1-2-2-2-3 0zm25-4l1 5c0 2 3 1 3-1l-2-5c0-2-3-1-2 0zm2 11l1 3 2 1 1-2-1-3c0-1-1-2-2-1l-1 1zm-16-50h6c2 0 3-1 3-3s-2-4-3-4h-6c-2 0-3 2-3 4s1 3 3 3zm-28-40h10c2 0 2-3 0-3h-10c-2 0-2 3 0 3zm-23 0h10c2 0 2-3 0-3h-10c-2 0-2 3 0 3zm-24 0h10c2 0 2-3 0-3h-10c-2 0-2 3 0 3z" fill="#fff"/></svg>