<svg xmlns="http://www.w3.org/2000/svg" width="361" height="361"><path d="M218.2 148.3h53.3c1.9 0 1.9-3 0-3h-53.3c-2 0-2 3 0 3zm-9.8 9.9h63c2 0 2-3 0-3h-63c-1.9 0-1.9 3 0 3zm-10.7 9.9h73.8c1.9 0 1.9-3 0-3h-73.7c-2 0-2 3 0 3zm0 9.8h73.8c1.9 0 1.9-3 0-3h-73.7c-2 0-2 3 0 3zm0 10h73.8c1.9 0 1.9-3 0-3h-73.7c-2 0-2 3 0 3zm0 9.8h73.8c1.9 0 1.9-3 0-3h-73.7c-2 0-2 3 0 3zm0 9.9h73.8c1.9 0 1.9-3 0-3h-73.7c-2 0-2 3 0 3zm0 9.8h73.8c1.9 0 1.9-3 0-3h-73.7c-2 0-2 3 0 3z" fill="#fff"/><path d="M280.5 241.5h-200c-6 0-11-5-11-11v-100c0-6 5-11 11-11h200c6 0 11 5 11 11v100c0 6-5 11-11 11zm-200-112a1 1 0 0 0-1 1v100a1 1 0 0 0 1 1h200a1 1 0 0 0 1-1v-100a1 1 0 0 0-1-1h-200z" fill="#fff"/><g fill="#fff"><path d="M144.6 156.5c-.3 7-10.5 7-10.9 0-.3-7 10.6-7 11 0 0 2 3 2 3 0a8.6 8.6 0 0 0-8.5-8.4c-4.8-.3-8.2 4-8.5 8.4-.2 4.8 4.1 8.2 8.5 8.4 4.8.3 8.2-4 8.4-8.4.1-2-2.9-2-3 0zm59.1-20c4.2.3 4.2 6.2 0 6.4-4 .3-4-6.1 0-6.3 2-.1 2-3.1 0-3-3.5.1-6 2.7-6.2 6.2-.1 3.4 3 6 6.2 6.1 3.5.2 6-3 6.2-6.2.2-3.5-3-6-6.2-6.2-1.9 0-1.9 3 0 3z"/><path d="M205.4 144.5l-.4-9.4c-.1-2-3.1-2-3 0l.4 9.4c0 2 3 2 3 0zm-11.6-3.2v-.1c.2-2-.8-4-2.2-5.4a7.5 7.5 0 0 0-5.2-2.2 7.5 7.5 0 0 0-5.4 2.3l-1.1 1.5a7.5 7.5 0 0 0-1 3.7c-.2 2 .8 4.1 2.2 5.5a7.5 7.5 0 0 0 5.2 2.1 7.5 7.5 0 0 0 5.4-2.2l1.1-1.5a7.5 7.5 0 0 0 1-3.7z"/><path d="M185.4 167.5c-3.7-.8-2-12.5-2-15v-8.7c0-3 .5-4.3 4-4.3 3.4 0 1.8 14 1.8 16v8.2c0 3-1.2 3.7-4.2 3.7-2 0-2 3 0 3 3.1 0 7.2-.2 7.2-4.5v-22.7c0-3.2-.4-6-4-6.7-9-1.8-7.7 7.3-7.7 13v14.2c0 3.2.4 6 4 6.7 2 .4 2.8-2.5.9-3zm-12.8-6.7l-3.5 3.5v45.4c-.4 8.4-7.6 9-14 9h-44.2c-4.3 0-9.7.8-13.7-1.3-5.4-2.8-4.4-9.6-4.4-14.7v-44.4c0-5.5-.9-11.3 4.4-14.8 3.2-2 8.7-1.2 12.3-1.2h42.3c4 0 9.1-.7 12.9 1.2 4.3 2.3 4.5 7 4.5 11.3l6.4-6.5a15.7 15.7 0 0 0-5.6-9.5c-4.4-3.6-9.7-3.5-15-3.5h-44c-4.3 0-8.6-.2-12.8.4-15.4 2.5-12.4 22.1-12.4 33.2v40c0 8.3 5.4 15.2 13.7 16.6 4 .6 8.2.2 12.2.2h44c2.7 0 5.3 0 8-.4 7.5-1.3 12-8.6 12.4-15.6v-52.4l-3.5 3.5z"/><path d="M181 149.4l-16.1 16-12.4 12.4-2.5 2.6c-2 1.9-3.7-1.6-2.5-2.9l1-1 21.4-21.3 11.6-11.6c1.3-1.4 4.9-6.6 7.3-4.2 1.4 1.4 3.5-.7 2.1-2-3-3.2-5.9-1.6-8.4 1l-12 12-25 25c-4 3.9.2 9.1 4.9 8.2 1.2-.2 2.5-2 3.4-2.8l7-7 22.2-22.3c1.4-1.3-.7-3.4-2-2z"/></g></svg>