<svg xmlns="http://www.w3.org/2000/svg" width="361" height="361"><path d="M256.4 271.2a4.2 4.2 0 0 1-4.2 4.2H109.5a4.2 4.2 0 0 1-4.3-4.2V78.9a4.2 4.2 0 0 1 4.3-4.2h142.7a4.2 4.2 0 0 1 4.2 4.2v192.3z" fill="none" stroke="#fff" stroke-width="10" stroke-miterlimit="10"/><path d="M179.8 185.1c2.9 3.9 2 7.2-.5 10.9a10 10 0 0 0-.9 10.3c.8 1.8 3.4.3 2.6-1.5-2-4.7 1.7-7.8 3.4-11.7 1.3-3.2 0-7-2-9.5-1.2-1.5-3.8 0-2.6 1.5zm9 2.6c2.5 3.3 1.7 6.2-.5 9.3a9 9 0 0 0-.8 9.3c.8 1.8 3.4.3 2.6-1.5-1.7-4 1.6-6.8 3-10.2 1.2-2.8 0-6.2-1.8-8.5-1.1-1.5-3.7 0-2.6 1.6zm-18.5 0c2.6 3.3 1.8 6.2-.4 9.3a9 9 0 0 0-.8 9.3c.8 1.8 3.4.3 2.6-1.5-1.7-4 1.6-6.8 3-10.2 1.2-2.8 0-6.2-1.8-8.5-1.1-1.5-3.7 0-2.6 1.6zm22.2-83.5h13.9c4.5 0 4.5-7 0-7h-14c-4.4 0-4.4 7 0 7zm30 5.2h-2.4c-2 0-3.5 1.6-3.5 3.5s1.6 3.5 3.5 3.5h2.5c1.9 0 3.5-1.6 3.5-3.5s-1.6-3.5-3.5-3.5zm-2.5-5.2h2.3c1.9 0 3.5-1.6 3.5-3.5s-1.6-3.5-3.5-3.5H220c-1.9 0-3.5 1.6-3.5 3.5s1.6 3.5 3.5 3.5zM114.8 291.7h132.5c6.4 0 6.4-10 0-10H114.8c-6.5 0-6.5 10 0 10zm104.7-135.5c-.2 2.5-27.5 1-30 1h-45.8c-1.8 0-1.2-3.7-1.2-4.7 0-2-1.3-14.8 1.3-14.8h71.1c2.6 0 4.6-.7 4.6 2.5v16c0 6.4 10 6.4 10 0v-17.3c0-7-5.7-11.2-12.3-11.2h-73.4c-8.2 0-11.3 6.8-11.3 13.9 0 6.3-1.4 14.7 1.7 20.4 3.6 6.5 12.6 5.2 18.7 5.2h65.5c6.4 0 10.5-5 11.1-11 .7-6.4-9.3-6.4-10 0z" fill="#fff"/><path d="M159.2 174.9c.6 0 .5 2 .5.3v-9.8c0-1-2.3 1-.8 1h5.4c-1.5 0-1.4-2.3-1.4-.4v10c0-1 2.4-1.3.4-1.3h-5c-4.6 0-4.6 7 0 7 2.3 0 4.7.3 7 0 3.5-.6 4.6-3.7 4.6-6.8 0-4.7 1.9-14.3-4.6-15.3-2.3-.4-4.7-.1-7-.1-3.8 0-5.6 3.2-5.6 6.5 0 4.6-2 14.6 4.6 15.6 4.4.7 6.3-6 1.9-6.7zm38.6 0c.7 0 .5 2 .5.3v-9.8c0-1-2.3 1-.7 1h5.3c-1.5 0-1.3-2.3-1.3-.4v10c0-1 2.4-1.3.3-1.3h-5c-4.5 0-4.5 7 0 7 2.3 0 4.8.3 7 0 3.6-.6 4.7-3.7 4.7-6.8 0-4.7 1.8-14.3-4.7-15.3-2.2-.4-4.7-.1-7-.1-3.7 0-5.6 3.2-5.6 6.5 0 4.6-1.9 14.6 4.7 15.6 4.4.7 6.3-6 1.8-6.7zm-52.4 101.8h70.9c6.4 0 6.4-10 0-10h-71c-6.4 0-6.4 10 0 10zm50.8-27.6c-.5 8.7-10.5 7-16.5 7-5.5 0-15 1.8-18.5-3.5-1.3-1.9-1-4.5-1.1-6.7l-.4-10.4c-.1-5-1.4-11.3-.4-16.4-.2 1.3-1.1.8.8.8h3.5a78.5 78.5 0 0 0 3.4.1h9.2c6.3 0 12.6.1 19-.1h2.6c-1.1-.1-.5-1.9-.6.2v2l-.4 9.5-.6 17.4c-.2 6.5 9.8 6.5 10 0l.6-17.4c.2-5.2 1.8-13.2-1.4-17.8-4-6-13.5-3.8-19.7-3.8h-19.4c-7.9 0-17.5-.3-17 10.4l.6 20c.2 6.6-.4 13.8 4 19.3 5.5 6.7 13 6.3 20.9 6.3h14.4c9.6 0 16.5-7.7 17-17 .3-6.4-9.7-6.4-10 0z" fill="#fff"/><path d="M149.8 245.7c-9.3-.5-9.3-15 0-15.5 6.4-.3 6.5-10.3 0-10-22.2 1.2-22.2 34.3 0 35.5 6.5.3 6.4-9.7 0-10zm56.6-136.3h-14c-4.4 0-4.4 7 0 7h14c4.5 0 4.5-7 0-7zm-62.9 5.1h31.1c9.7 0 9.8-15 .2-15h-31.2c-9.7 0-9.8 15 0 15z" fill="#fff"/></svg>