<svg xmlns="http://www.w3.org/2000/svg" width="361" height="361"><circle cx="244.9" cy="130.8" r="21.1" fill="#fff" stroke="#fff"/><path d="M250.6 175.4c-1.8-4.4-.9-9 2.2-10.3l2.3-1c3-1.3 7 1.2 8.9 5.6l26.9 63.5c1.8 4.4.9 9-2.2 10.3l-2.3 1c-3 1.3-7-1.3-8.9-5.7l-26.9-63.4zm-101 51l-41.9 44.4c-9.9 10.5 6 26.4 16 15.8l42-44.5c9.9-10.5-6-26.4-16-15.8z" fill="#fff"/><path d="M164.4 228.6l-21 44.1c-2.7 5.5-1.6 12.1 4 15.4 5 2.9 12.8 1.4 15.4-4.1l21-44.1c2.7-5.6 1.6-12.2-4-15.4-5-2.9-12.8-1.4-15.4 4.1z" fill="#fff"/><path d="M244.8 269.5h-48.3l1.5 1.5-3.5-28c-.1-1-1-1.7-1.5-2.5l-5.5-7.3-9.2-12-1 2.1c6.7-2.2 13.2-4.8 20-6.7 4.6-1.3 5.5-1 9.6.6l28.5 10.8 4.5 1.6 1.2.5c1 .4-.3 0-.2.2a54.4 54.4 0 0 1 2.1 14.9l.3 25.8c0 2 3 2 3 0l-.3-27.2a57 57 0 0 0-2.6-15.4c-.5-1.6-4.6-2.4-5.9-2.8l-29.8-11.3c-3.4-1.3-4.7-2-8.3-1.3-7.9 1.7-15.2 4.9-22.8 7.4-.8.3-1.5 1.4-.9 2.2l8 10.6 5.5 7.2 1.8 2.4c.6.8.6 1 .5.4L195 271c.1.8.6 1.5 1.5 1.5h48.3c2 0 2-3 0-3z" fill="#fff"/><path d="M255 159.7c-9.5-5.5-23.4-2.5-28.6 7.7l-23.8 46.3v.2l39.4 15 20.7-40.5c5.3-10.2 2.6-22.8-7.6-28.7zM175.8 222l-17.3.5c-13.2.5-13.4 23-.2 22.5l34.8-1.1-17.3-22zm18.9 27.3h-4c-6.5 0-6.5 10 0 10h4.5l-.5-10zm92.7 0H245v10h42.4c6.4 0 6.4-10 0-10z" fill="#fff"/><path fill="none" d="M199 237.7h41.2v11.5H199z"/><path d="M74.8 215.7h64.5c6.5 0 6.5-10 0-10H74.8c-6.4 0-6.4 10 0 10zm32.4-27.1l4.5-14c1.4-4.3-5.4-6.1-6.7-1.9l-4.5 14c-1.4 4.3 5.3 6.2 6.7 1.9z" fill="#fff"/><path d="M111.2 170.2l-4-17.5c-1-4.4-7.8-2.5-6.7 1.9l4 17.5c1 4.4 7.7 2.5 6.7-1.9z" fill="#fff"/><path d="M107.2 154.6l4.5-14c1.4-4.3-5.4-6.1-6.7-1.9l-4.5 14c-1.4 4.3 5.3 6.2 6.7 1.9z" fill="#fff"/><path d="M111.2 136.2l-4-17.5c-1-4.4-7.8-2.5-6.7 1.9l4 17.5c1 4.4 7.7 2.5 6.7-1.9z" fill="#fff"/><path d="M107.2 120.6l4.5-14c1.4-4.3-5.4-6.1-6.7-1.9l-4.5 14c-1.4 4.3 5.3 6.2 6.7 1.9zm24.5 76.1l-4.5-14c-1.4-4.2-8.1-2.4-6.7 1.9l4.5 14c1.3 4.3 8 2.5 6.7-1.9z" fill="#fff"/><path d="M127.7 182.1l4-17.5c1-4.4-5.7-6.3-6.7-1.9l-4 17.5c-1 4.4 5.7 6.3 6.7 1.9z" fill="#fff"/><path d="M131.7 162.7l-4.5-14c-1.4-4.2-8.1-2.4-6.7 1.9l4.5 14c1.3 4.3 8 2.5 6.7-1.9z" fill="#fff"/><path d="M127.7 148.1l4-17.5c1-4.4-5.7-6.3-6.7-1.9l-4 17.5c-1 4.4 5.7 6.3 6.7 1.9z" fill="#fff"/><path d="M131.7 128.7l-4.5-14c-1.4-4.2-8.1-2.4-6.7 1.9l4.5 14c1.3 4.3 8 2.5 6.7-1.9zM88.2 199l4.5-14c1.4-4.3-5.4-6.1-6.7-1.9l-4.5 14c-1.4 4.3 5.3 6.2 6.7 1.9z" fill="#fff"/><path d="M92.2 180.5l-4-17.5c-1-4.4-7.8-2.5-6.7 1.9l4 17.5c1 4.4 7.7 2.5 6.7-1.9z" fill="#fff"/><path d="M88.2 164.9l4.5-14c1.4-4.3-5.4-6.1-6.7-1.9l-4.5 14c-1.4 4.3 5.3 6.2 6.7 1.9z" fill="#fff"/><path d="M92.2 146.5l-4-17.5c-1-4.4-7.8-2.5-6.7 1.9l4 17.5c1 4.4 7.7 2.5 6.7-1.9z" fill="#fff"/><path d="M88.2 130.9l4.5-14c1.4-4.3-5.4-6.1-6.7-1.9l-4.5 14c-1.4 4.4 5.3 6.2 6.7 1.9z" fill="#fff"/></svg>