<svg xmlns="http://www.w3.org/2000/svg" width="361" height="361"><path d="M251.7 94.8a35.4 35.4 0 0 0-35.4 35.4 35.4 35.4 0 1 0-70.8 0 52 52 0 0 0 7.7 26.2l2.4 3.7a35.4 35.4 0 0 1 60.7 24.8c0 8.7-3 19-7.4 25.9-1.9 2.9-4.2 6.4-7 10.3 6.4 6.9 11.6 11.3 14.4 11.3 9 0 49.7-55 63.4-76.3a51.9 51.9 0 0 0 7.4-25.9 35.4 35.4 0 0 0-35.4-35.4z" fill="#fff"/><path d="M251.7 89.8c-21.3.5-41.4 18.2-40.4 40.5l5-5 5 5A40.8 40.8 0 0 0 167.7 92a41 41 0 0 0-25.7 27.4c-4.4 14.8 1.1 30.8 9.3 43.2 1.8 2.6 5.5 3.3 7.9 1a30.7 30.7 0 0 1 46.6 3.7c5 7 6.3 15.7 5 24.2a66.2 66.2 0 0 1-13.2 27c-1.3 1.9-.6 4.5.8 6 4.5 4.9 12.9 15.3 20.8 12.2 5.2-2 9.4-6.6 13.2-10.6a431 431 0 0 0 35-43.6c11.6-16 24.3-31.7 24.7-52.4.4-22.3-18.8-40-40.4-40.4-6.5 0-6.5 10 0 10a31 31 0 0 1 29.8 37c-2.5 15.4-13.9 28.5-22.8 40.8-9.3 12.8-19 25.4-29.4 37.2-3.4 3.8-7.3 8.2-11.2 11.2-.6.5-1.3 1-2 1.3-.2 0-.8.1.2 0-.7.1-2.9-2-3.4-2.4-2.7-2.2-5-4.8-7.4-7.3l.8 6a74.7 74.7 0 0 0 14.7-34 41 41 0 0 0-9-30.4c-14.6-19-43.4-18.7-59.9-2.6l7.9 1c-6.5-9.6-11-21-9-32.9a31 31 0 0 1 18-22.5c19.7-9.2 42.3 7.3 42.3 28a5 5 0 0 0 5 5c2.6 0 5.1-2.2 5-5-.7-16.8 14.4-30 30.4-30.4 6.4 0 6.4-10 0-10z" fill="#fff"/><path d="M213.2 213.6a50.8 50.8 0 0 0 5.8-41.7 41 41 0 0 0-26-25.3 40.7 40.7 0 0 0-52.5 38.6l5-5 5 5a40.8 40.8 0 0 0-41.8-40.4C85 145.3 67.8 167.1 70 190c2 20.2 16.7 37.1 28.3 53 10.8 14.7 22 30.2 35.4 42.7 4.9 4.5 10.5 8.7 17 5 7.5-4.3 13.6-12.2 19-18.7a550.6 550.6 0 0 0 43.5-58.4c3.5-5.4-5.2-10.5-8.6-5a586.6 586.6 0 0 1-32.2 44.5 308.4 308.4 0 0 1-17.8 21 82.9 82.9 0 0 1-6.8 6.5l-2.1 1.5c-.2 0-1.5.6-.3.2-1.2.4.1 0 .8.1-.9 0 0 .2-1.4-.6a16.4 16.4 0 0 1-2.4-1.7 85.1 85.1 0 0 1-7.7-7.6 301.8 301.8 0 0 1-18-21.7 726 726 0 0 1-18-24.5c-5-7-10.3-14-14.2-21.4-9.7-18.7-3.8-42.7 17.6-49 19-5.7 38.4 9.8 38.4 29.3a5 5 0 0 0 5 5 5 5 0 0 0 5-5c-.4-20.8 20.7-34.6 39.8-29a30.5 30.5 0 0 1 19.5 19.6c3.6 10.7.5 23.4-5.2 32.7-3.4 5.6 5.2 10.6 8.6 5z" fill="#fff"/></svg>