<svg xmlns="http://www.w3.org/2000/svg" width="361" height="361"><path d="M101 257c0 9 7 17 16 19h87c10 0 17-10 18-19 0-7-10-7-10 0-1 10-11 9-18 9h-65c-7 0-18 1-18-9-1-7-11-7-10 0z" fill="#fff"/><path d="M212 281c0 2-23 1-25 1h-75c-2 0-1-14-1-16V105c0-1-1-5 1-5h100v181c0 6 10 6 10 0V104c0-3 0-6-2-9-2-5-8-5-12-5h-84c-9 0-23-2-23 11v178c0 4 0 7 4 10 3 3 7 3 11 3h82c10 0 23 2 24-11 1-7-9-7-10 0z" fill="#fff"/><path d="M110 127h102c2 0 2-3 0-3H110c-2 0-2 3 0 3zm111 18l16-3 11-3 4-1c1 0 2 1 0 0 4 1 3 5 3 8v83c0 3 1 7-1 9l-5 1h-30c-10 0-10 15 0 15h34a19 19 0 0 0 17-20v-91c0-13-11-21-24-19l-29 7c-9 2-5 16 4 14z" fill="#fff"/><path d="M212 91a8 8 0 0 0-8-8h-7a8 8 0 0 0-5-2h-10l-1 1a8 8 0 0 0-9-8h-20a8 8 0 0 0-8 7l-7-1h-18c-5 0-8 4-8 11h-1v34h102V91z" fill="#fff" stroke="#fff" stroke-miterlimit="10"/></svg>