<svg xmlns="http://www.w3.org/2000/svg" width="361" height="361"><path d="M110 153a3 3 0 0 1-3 4l-6 1a3 3 0 0 1-4-2L81 75a3 3 0 0 1 2-4l6-2a3 3 0 0 1 4 3l17 81z" fill="#fff"/><path d="M90 120l-10 56c-1 4 6 6 7 2l9-56c1-5-6-7-7-2z" fill="#fff"/><path d="M79 183h33c4 0 4-7 0-7H79c-5 0-5 7 0 7zm57-12l42 7c2 1 2-2 1-2l-42-7c-2-1-3 2-1 2z" fill="#fff"/><path d="M137 170l5 1c2 0 3-3 1-3l-5-1c-2 0-3 3-1 3zm9 2l6 1c2 0 2-3 0-3l-5-1c-2-1-2 2 0 3z" fill="#fff"/><path d="M155 173l5 1c2 0 3-3 1-3l-5-1c-2 0-3 3-1 3z" fill="#fff"/><path d="M164 175h5c1 1 2-2 0-2l-5-1c-2-1-2 2 0 3zm8 1l5 1c2 0 3-3 1-3l-5-1c-2 0-3 3-1 3zm-34-4l-1 5c0 2 3 2 3 0l1-5c0-2-3-2-3 0z" fill="#fff"/><g fill="#fff"><path d="M217 222h61c6 0 6-10 0-10h-62c-6 0-6 10 0 10z"/><path d="M244 217v48c0 7 10 7 10 0v-48c0-7-10-7-10 0z"/><path d="M249 263l-36 13c-4 1-2 8 2 7l36-13c4-2 2-9-2-7z"/><path d="M248 270l35 12c5 2 6-5 2-6l-35-13c-5-1-7 5-2 7zm29-149l-7 56c0 6 10 6 10 0l8-56c0-7-10-7-10 0z"/><path d="M270 179l3 23c1 6 11 6 10 0l-3-23c0-6-10-6-10 0zm8-91l4 18c1 6 11 3 9-3l-3-18c-2-6-11-3-10 3zm-50 102h37c5 0 5-7 0-7h-37c-5 0-5 7 0 7z"/><path d="M253 188l1 28c0 3 3 3 3 1l-1-29c0-2-3-2-3 0zm-39 97h-2c-2 0-3 1-3 3s1 4 3 4h2c2 0 4-2 4-4s-2-3-4-3zm71 0h-2c-2 0-3 1-3 3s2 4 3 4h2c2 0 4-2 4-4s-2-3-4-3z"/></g><g fill="#fff"><path d="M75 188h106c6 0 6-10 0-10H75c-6 0-6 10 0 10z"/><path d="M104 186v98c0 7 10 7 10 0v-98c0-6-10-6-10 0zm-28 0v98c0 7 10 7 10 0v-98c0-6-10-6-10 0z"/><path d="M75 292h69c6 0 6-10 0-10H75c-6 0-6 10 0 10z"/></g></svg>