<svg xmlns="http://www.w3.org/2000/svg" width="361" height="361"><path d="M269 280c-1 2-15 1-17 1H95c-1 0-2 0-2-2V179c0-2-1-17 2-17h172c3 0 1 18 1 19v99c0 7 10 7 10 0V163c0-6-5-11-11-11H94c-13 0-11 15-11 23v89c0 7-2 21 5 25 6 3 14 2 20 2h142c10 0 27 3 28-11 1-6-9-6-9 0z" fill="#fff"/><path d="M275 147c-3 5-15-1-18-3l-37-12-90-29-28-9-5-2c-3-1 0-8 1-9 0-2 1-4 4-3l59 19 81 27 27 8 6 2c4 2 0 9-1 12-1 4 6 6 7 2 2-7 6-16-3-20l-4-1-28-9-89-30-54-17c-9-4-12 7-14 13s1 11 7 13l20 7 152 49c5 2 10 1 13-5 1-4-5-7-6-3z" fill="#fff"/><path fill="#fff" stroke="#fff" stroke-miterlimit="10" d="M108 95l-12-4 14-9 12 4zm25 8l-12-3 14-9 12 3zm24 9l-12-4 14-9 12 4zm26 8l-12-4 14-9 12 4zm24 8l-11-4 14-9 11 4zm26 8l-12-4 14-9 12 4zm28 9l-12-4 14-9 12 4z"/><path d="M271 173c0 3-4 3-6 3H95c-5 0-4-7-4-10 0-4 3-4 6-4h172c3 0 2 9 2 11 0 5 7 5 7 0 0-6 1-16-8-18H104c-7 0-16-1-19 8l-1 9c0 4 2 8 6 10l7 1h160c7 0 16 1 20-5l1-5c1-4-6-4-7 0z" fill="#fff"/><path fill="#fff" stroke="#fff" stroke-miterlimit="10" d="M100 175H87l11-13h12zm27 0h-13l10-13h13zm26 1h-13l10-13h13zm26-1h-12l10-13h13zm26 0h-12l10-13h13zm27 0h-13l11-13h12zm29 0h-12l10-13h13z"/></svg>