<svg xmlns="http://www.w3.org/2000/svg" width="361" height="361"><path d="M103 160l10 4h3l10-4a49 49 0 0 1 24-2c6 1 18 4 18 12 1 6-12 10-17 11-8 2-16 1-25-2a62 62 0 0 1-9-3c-1-1-2-2-4-1l-10 4 2 1v-21c0-2-3-2-3 0v21l2 2 5-2 3-2a9 9 0 0 1 2 0c7 3 15 6 22 7 10 1 34-2 35-16 1-5-6-9-10-11a47 47 0 0 0-25-4c-7 1-14 4-21 7h-1l-4-1-6-2c-2-1-3 2-1 3z" fill="#fff"/><path d="M149 164c0 1 1 2 3 2h3c2 0 2-1 3-2 0-2-2-3-3-3h-3c-2 0-3 1-3 3l2 1 1-1s-1 0 0 0h3v-1h-3v1l-1-2-2 2zm-1-10l-8-4-11-1c-2 0-2 2-1 3s4 5 7 5h12c2 0 2-3 0-3h-13c1 0 1 1 0 0l-4-4-1 2 10 1h3c1 0-1 0 0 0l4 4c1 1 4-1 2-3zm-5 28l-3 3c-1 1 1 0 0 0h-2l-9 1 1 3 3-3 1-1s-1 0 0 0h10c2 0 2-3 0-3h-10c-2 0-4 3-6 5-1 1 0 2 1 2l10-1h2l4-4c1-1-1-3-2-2z" fill="#fff"/><path d="M289 248c-1 7-14 5-18 5H79c-8 0-6-11-6-16V116c0-4 1-7 5-7h206c5 0 5 5 5 8v131c0 2 3 2 3 0V113c0-8-9-7-15-7H82c-6 0-12 1-12 8v119c0 6-2 17 3 21 4 3 12 2 16 2h191c6 0 11-1 12-8 0-2-3-2-3 0z" fill="#fff"/><path d="M100 248c2-8 3-17 7-24 1-4 4-6 8-8 1-1 0-4-2-3l-8 8c-5 7-6 18-8 26 0 2 3 3 3 1z" fill="#fff"/><path d="M96 242c1-7 2-15 7-20 3-4 7-5 11-6 2-1 1-3-1-3l-12 6c-5 5-7 15-8 22 0 2 2 3 3 1zm-12-3c0-5 0-10-2-15a8 8 0 0 0-2-2 13 13 0 0 0-1 0c-1-1 0-1 0 0-1-2-4-2-3 0l2 3c4 3 3 10 3 14 0 2 3 2 3 0z" fill="#fff"/><path d="M88 238c-1-4-1-9-3-12l-7-5c-1-1-3 1-2 2l6 4 1 3 2 9c1 2 3 1 3-1z" fill="#fff"/><path d="M91 242c0-7 0-14-2-21-1-3-4-5-6-7-1-1-3 1-2 2l5 7c2 6 2 13 2 19 0 2 3 2 3 0z" fill="#fff"/><path d="M94 245c0-7 0-16-3-22-2-4-5-6-8-9-1-1-3 1-2 2l7 7c3 6 3 15 3 22 0 2 3 2 3 0z" fill="#fff"/><g fill="#fff"><path d="M249 253h16c5 0 5-7 0-7h-16c-4 0-4 7 0 7zm-170-4h7c4 0 4-7 0-7h-7c-5 0-5 7 0 7zm26-3h8c4 0 4-7 0-7h-8c-4 0-4 7 0 7zm22 8h6c4 0 4-7 0-7h-6c-5 0-5 7 0 7z"/><path d="M276 244h-9c-4 0-4 7 0 7h9c5 0 5-7 0-7zm-194-1h2c2 0 3-1 3-3s-1-4-3-4h-2c-2 0-4 2-4 4s2 3 4 3zm17-1h-2c-2 0-4 2-4 4s2 3 4 3h2c1 0 3-1 3-3s-2-4-3-4zm101 5h-6c-5 0-5 7 0 7h6c4 0 4-7 0-7zm9 7h16c5 0 5-7 0-7h-16c-4 0-4 7 0 7z"/><path d="M218 250h2c2 0 4-2 4-3s-2-4-4-4h-2c-2 0-3 2-3 4s1 3 3 3zm19-5h-6c-5 0-5 7 0 7h6c4 0 4-7 0-7zm-97-7h-9c-4 0-4 7 0 7h9c5 0 5-7 0-7zm16 0h-5c-5 0-5 7 0 7h6c4 0 4-7 0-7z"/><path d="M143 236h-2c-2 0-3 2-3 4s1 3 3 3h2c2 0 4-2 4-3s-2-4-4-4zm6 18h6c5 0 5-7 0-7h-6c-4 0-4 7 0 7zm-58 0h15c4 0 4-7 0-7H91c-5 0-5 7 0 7zm91-7h9c4 0 4-7 0-7h-9c-5 0-5 7 0 7z"/><path d="M164 254h15c5 0 5-7 0-7h-15c-5 0-5 7 0 7z"/><path d="M159 250h6c4 0 4-7 0-7h-6c-5 0-5 7 0 7zm18 0h2c2 0 3-2 3-4s-1-3-3-3h-2c-2 0-3 1-3 3s1 4 3 4zm18-5h-5c-5 0-5 7 0 7h6c4 0 4-7 0-7z"/><path d="M151 246h16c4 0 4-7 0-7h-16c-4 0-4 7 0 7zm-28-5h-9c-5 0-5 7 0 7h9c4 0 4-7 0-7zm-31 2h-5c-2 0-4 2-4 4s2 3 4 3h5c2 0 4-1 4-3s-2-4-4-4z"/><path d="M147 244h-2c-2 0-3 2-3 4s1 3 3 3h2c2 0 4-2 4-3s-2-4-4-4z"/><path d="M151 238h-2c-2 0-3 2-3 3s1 4 3 4h2c2 0 3-2 3-4s-1-3-3-3zm-41 16h5c2 0 4-2 4-4s-2-3-4-3h-5c-2 0-3 1-3 3s1 4 3 4zm-33 0h2c2 0 3-2 3-4s-1-3-3-3h-2c-2 0-4 1-4 3s2 4 4 4zm20-6h3l3-3-3-4h-2c-2 0-4 2-4 4s2 3 4 3z"/><path d="M109 239h-6c-2 0-3 2-3 4s1 3 3 3h6l3-3-3-4zm144 10h2c2 0 4-1 4-3s-2-4-4-4h-2c-1 0-3 2-3 4s2 3 3 3zm-38-10h-11c-5 0-5 7 0 7h11c4 0 4-7 0-7zm-70 4h-11c-5 0-5 7 0 7h11c4 0 4-7 0-7zm35 4h6c1 0 3-2 3-4s-2-3-3-3h-6c-2 0-4 1-4 3s2 4 4 4zm-4-26h-2c-2 0-4 1-4 3s2 4 4 4h2c2 0 3-2 3-4s-1-3-3-3z"/><path d="M172 234h5c2 0 4-1 4-3s-2-4-4-4h-5c-2 0-4 2-4 4s2 3 4 3zm-13-4h-9c-5 0-5 7 0 7h9c4 0 4-7 0-7zm12 13h-11c-4 0-4 7 0 7h11c4 0 4-7 0-7z"/><path d="M162 236h-2c-2 0-4 1-4 3s2 4 4 4h2c2 0 3-2 3-4s-1-3-3-3z"/><path d="M147 244h6c2 0 4-2 4-4s-2-3-4-3h-6c-2 0-3 1-3 3s1 4 3 4zm22-23h-11c-4 1-4 8 0 8h11c5 0 5-7 0-7z"/><path d="M170 224h4c2 0 3-2 3-4s-2-3-3-3h-4c-2 0-3 1-3 3s2 4 3 4zm1 19h10c5 0 5-7 0-7h-10c-4 0-4 7 0 7zm22 2h2c1 0 3-2 3-4s-2-3-3-3h-2c-2 0-4 2-4 3s2 4 4 4zm27 3h2c2 0 4-1 4-3s-2-4-4-4h-2c-2 0-3 2-3 4s1 3 3 3zm42 3h2c2 0 4-2 4-4s-2-3-4-3h-2c-2 0-3 2-3 3s1 4 3 4zm-19 0h2c2 0 4-2 4-4s-2-3-4-3h-2c-2 0-3 2-3 3s1 4 3 4zM79 240h-2c-2 0-3 2-3 4s1 3 3 3h2c2 0 4-2 4-3s-2-4-4-4z"/><path d="M236 254h2c2 0 3-2 3-4s-2-3-3-3h-2c-2 0-4 1-4 3s2 4 4 4zm45 0h2c2 0 3-2 3-4s-1-3-3-3h-2c-2 0-4 1-4 3s2 4 4 4z"/><path d="M278 248h10c5 0 5-7 1-7h-11c-4 0-4 7 0 7z"/></g><path d="M259 245c0-18 1-37 4-55 2-9 6-28 18-28 2 0 2-3 0-3-12 0-17 16-19 25a236 236 0 0 0-6 61c0 2 3 2 3 0z" fill="#fff"/><path d="M254 235c0-17 2-33 7-49 3-10 8-24 20-24 2 0 2-3 0-3-11 0-17 10-21 20-7 17-8 37-9 56 0 2 3 2 3 0zm-4 12c0-12 0-24-2-36 0-6-1-13-5-18-1-2-3 0-2 1 4 6 4 13 5 20l1 33c0 2 3 2 3 0z" fill="#fff"/><path d="M254 250a209 209 0 0 0-3-36c-1-7-3-16-8-21-1-2-3 0-2 2 5 4 6 13 7 19a191 191 0 0 1 3 36c0 2 3 2 3 0zm-10-5c0-5 0-10-2-14a8 8 0 0 0-2-3 13 13 0 0 0-1 0c0-2-3-2-3 0s1 2 2 3c4 3 3 10 3 14 0 2 3 2 3 0z" fill="#fff"/><path d="M248 245c-1-4-1-10-3-13l-7-5c-1-1-3 1-2 2l6 4 1 3 2 9c1 2 4 1 3-1zM72 137h23c9 0 19 2 29 1l13-1 13 1h60l30-1 15 1 14-1h21c2 0 2-3 0-3h-19l-15 1-16-1-28 1a293 293 0 0 0-31 0h-30l-13-1-15 1c-9 1-18-1-27-1H72c-2 0-2 3 0 3z" fill="#fff"/><g fill="#fff"><path d="M185 191l7 5h1l9-5c5-1 10 0 14 1 3 1 7 2 10 5 2 3-2 7-4 8-6 3-15 3-22 2-3-1-4-3-6-5a2 2 0 0 0-2 0l-7 6 2 1v-20c0-2-3-2-3 0v20c0 1 1 2 2 1l4-2 2-2c2-1 1 0 0-1l6 4a37 37 0 0 0 17 1c4 0 10-2 13-6 6-10-9-15-16-16a26 26 0 0 0-18 4l-1 1-2-2-5-3c-2-1-3 2-1 3z"/><path d="M212 196c0 1 0 2 2 2h2l2-2-2-2h-2c-2 0-2 1-2 2-1 1 0 2 1 2l2-2-1 1h2l-1-1 1-1h-2l1 1-2-1c-1 0-2 0-1 1zm5-8a35 35 0 0 0-9-12c-2-2-6-2-6 1l1 6-1 6c-1 1 0 2 1 2h13c2 0 2-3 0-3h-13l2 2a20 20 0 0 0 0-8v-4l2 1 8 11c1 2 3 0 2-1zm-3 22a38 38 0 0 1-4 7c-1 2-5 2-8 2l2 1 2-9-2 1h11c2 0 2-3 0-3h-11l-1 1-2 10 1 2c3 0 7 0 10-2 2-2 3-6 4-9 1-2-2-3-3-1z"/></g><path d="M76 153l5-1c2 0 2-3 0-3h-5c-2 1-2 4 0 4zm186 6h5c2 0 2-3 0-3h-5c-2 0-2 3 0 3zm-150 71h3c2 0 2-3 0-3h-3c-2 0-2 3 0 3zm0 5l7-1c2 0 2-3 0-3l-7 1c-2 0-2 3 0 3zm116-92l5-1c2 0 2-3 0-3l-5 1c-2 0-2 3 0 3zM85 205h6c2 0 2-3 0-3h-6c-2 0-2 3 0 3z" fill="#fff"/></svg>