<svg xmlns="http://www.w3.org/2000/svg" width="361" height="361"><path d="M256.7 283.5c-.4 2.5-10 1.2-12 1.2h-42.6c-3.3 0-2.8-.6-2.9-3.8l-2.7-72.7h56.4c1.5 0 6.8-1 6.8 1l-3 74.2-.1 1c-.2 4.6 6.8 4.5 7 0l3-72.4c.1-4.7-.4-9.7-6.2-10.6-3.6-.6-7.4-.2-11-.2h-45c-4 0-8.4-.6-12 1.2-4 2.1-3.1 7.4-3 11l1.8 43.3.8 20.5c.2 2.9-.4 7.5 1 10.2 2.6 5 7.6 4.3 12.3 4.3h45.3c5.2 0 11.7.5 12.9-6.3.7-4.4-6-6.3-6.8-1.9zM122.2 75.3v185.2c0 6.5 10 6.5 10 0V75.3c0-6.4-10-6.4-10 0z" fill="#fff"/><path d="M95.5 269h63.3c9.7 0 9.7-15 0-15H95.7c-9.6 0-9.7 15 0 15z" fill="#fff"/><path d="M95.7 267.3l-1 22.4c-.1 1.9 2.9 1.9 3 0l1-22.4c0-2-3-2-3 0zm11 0v22.4c0 1.9 3 1.9 3 0v-22.4c0-2-3-2-3 0zm-5.6 0v22.4c0 1.9 3 1.9 3 0v-22.4c0-2-3-2-3 0zm11 0v22.4c0 1.9 3 1.9 3 0v-22.4c0-2-3-2-3 0zm11 0v22.4c0 1.9 3 1.9 3 0v-22.4c0-2-3-2-3 0zm-5.5 0v22.4c0 1.9 3 1.9 3 0v-22.4c0-2-3-2-3 0zm11 0v22.4c0 1.9 3 1.9 3 0v-22.4c0-2-3-2-3 0zm10.9 0v22.4c0 1.9 3 1.9 3 0v-22.4c0-2-3-2-3 0zm-5.5 0v22.4c0 1.9 3 1.9 3 0v-22.4c0-2-3-2-3 0zm11 0v22.4c0 1.9 3 1.9 3 0v-22.4c0-2-3-2-3 0zm11 0l1 22.4c0 1.9 3 1.9 3 0l-1-22.4c-.2-2-3.2-2-3 0zm-5.6 0v22.4c0 1.9 3 1.9 3 0v-22.4c0-2-3-2-3 0zm10.8 0l3 22.3c.2 1.9 3.2 1.9 3 0l-3-22.2c-.2-2-3.2-2-3 0zm-71 0l-2.9 22.3c-.2 1.9 2.8 1.9 3 0l3-22.2c.2-2-2.8-2-3 0zm100-55.1l2.6-36.9.4-5.5c.4-6.1 3.8-10.5 8.9-13.8 6.2-4 13.8-3.1 20.9-3.1 14.2 0 38.9-3.3 40.3 17.1l2.7 39 .3 3.2c0 1.9 3 2 3 0l-2.6-36.9c-.4-5.8-.5-11-4.2-16a25 25 0 0 0-20.3-9.4h-21c-6.4 0-12.2-.3-18.2 2.3a20.8 20.8 0 0 0-12.8 18l-1.3 18.2-1.7 23.8c-.1 2 2.9 1.9 3 0z" fill="#fff"/></svg>