<svg xmlns="http://www.w3.org/2000/svg" width="361" height="361"><path d="M271 200l2-1 5-1 2 1-2-3-4-3 2 5c1-8 3-24-7-27-5-2-11-1-15-1l-18 1a39 39 0 0 0-34 20c-4 8-6 18-8 27l7-6H91c-2 0 4 7 4 4v-19c0-1 0 3 0 0l1-3c6-15 21-26 35-30l40-8a4411 4411 0 0 1 102-20h-3c-3 0-3-6-3-3v2l1 8 1 23 2 36c1 9 16 9 15 0l-4-69c0-8-6-12-13-11a6352 6352 0 0 0-50 9c-31 6-62 11-91 19a68 68 0 0 0-42 32 40 40 0 0 0-6 20c0 6-2 17 3 22s15 3 22 3h96c3 0 6-2 7-5a79 79 0 0 1 9-27 28 28 0 0 1 15-9l19-1a460 460 0 0 1 13 0h1c-1 0-2 0-3-2 1 2 0 10-1 14 0 5 4 8 7 11 3 2 5 4 8 4 5 0 9-4 10-8 1-10-13-14-15-4z" fill="#fff"/><path d="M276 160l1 19c0 10 15 10 15 0l-1-18c0-10-15-10-15-1z" fill="#fff"/><g fill="#fff"><path d="M273 204l-2-1a36 36 0 0 0-2-8l1-1a37 37 0 0 0-4-8l-2 1a35 35 0 0 0-6-6l1-2a37 37 0 0 0-8-5l-1 2a36 36 0 0 0-9-2v-2a37 37 0 0 0-4-1l-5 1v1a32 32 0 0 0-9 3l-1-2a37 37 0 0 0-7 5v2a36 36 0 0 0-6 6l-2-1a37 37 0 0 0-4 8l1 1a37 37 0 0 0-2 8l-2 1a37 37 0 0 0 0 9h2a32 32 0 0 0 2 8l-1 2a37 37 0 0 0 4 7h2a36 36 0 0 0 6 6v2a37 37 0 0 0 7 4l2-1a37 37 0 0 0 8 2v2a37 37 0 0 0 9 0v-2a32 32 0 0 0 9-2l1 1a37 37 0 0 0 8-4l-1-2a36 36 0 0 0 6-6h2a37 37 0 0 0 4-7l-1-2a37 37 0 0 0 2-8h2a37 37 0 0 0 0-9zm-36 21a17 17 0 1 1 0-34 17 17 0 0 1 0 34z"/><circle cx="237" cy="208" r="14"/></g><path d="M193 231c0-1 2-1 0-1h-74l1 1v-11c0-2 0 0-1 0h74c2 0 0-2 0 0v11c0 5 7 5 7 0 0-4 2-14-3-17-3-2-7-1-10-1h-64c-4 0-10 0-10 6 0 5-2 14 3 17 3 2 8 1 11 1h63c4 0 8 0 10-5 1-4-6-6-7-2z" fill="#fff"/><path d="M157 217c0-13 11-22 21-27a108 108 0 0 1 50-11c5 0 5-7 1-7-20 0-40 3-57 13-11 7-22 18-22 32 0 4 7 4 7 0z" fill="#fff"/><circle cx="105" cy="232" r="12" fill="#fff"/><path d="M99 290c0-19-1-50-27-51-2 0-2 3 0 3 24 1 24 31 24 48 0 2 3 2 3 0z" fill="#fff"/><path d="M105 290c0-22-6-50-33-51-2 0-2 3 0 3 25 1 30 28 30 48 0 2 3 2 3 0z" fill="#fff"/><path d="M85 290c0-10 0-20-3-29-1-5-4-7-8-11-1-1-3 1-2 3 3 3 6 5 7 9 3 9 3 19 3 28 0 2 3 2 3 0z" fill="#fff"/><path d="M91 290c0-10 0-21-5-29-2-5-8-8-12-11-2-1-3 2-1 3 4 3 8 5 11 9 4 8 4 19 4 28 0 2 3 2 3 0zm22 0c0-8-1-19 4-26 2-2 4-2 4-5 1-2-2-2-2 0l-5 5c-4 7-4 18-4 26 0 2 3 2 3 0z" fill="#fff"/><path d="M107 290c1-7 1-16 5-22l9-8c1-1-1-3-2-2l-9 8c-2 2-2 4-3 7l-3 17c0 2 3 2 3 0zm31 0c0-8 0-16 3-23 1-4 4-6 7-9 1-1-1-3-3-2l-7 9c-3 7-3 17-3 25 0 2 3 2 3 0z" fill="#fff"/><path d="M132 290c0-8 0-16 4-23 3-4 8-6 11-8 2-1 1-4-1-3-4 3-9 5-12 9-5 6-5 17-5 25 0 2 3 2 3 0zm16 0c0-7 0-16 5-22 1-1 4-2 4-4s-3-2-3 0l-5 4c-4 6-4 15-4 22 0 2 3 2 3 0z" fill="#fff"/><path d="M142 290c1-5 2-14 6-18 2-3 6-5 9-7 1-1-1-3-3-2l-9 7c-4 5-4 14-5 20-1 2 2 2 3 0zm-14 0c0-5 0-11-3-15a8 8 0 0 0-2-3h-1c0-2-3-2-3 0l3 3c4 3 3 11 3 15 0 2 3 2 3 0z" fill="#fff"/><path d="M132 290c-1-5-1-10-4-14l-7-6c-1-1-3 1-2 3 2 1 5 2 6 4l2 4 2 9c1 2 3 2 3 0zm39 0c0-7 0-16 4-23l9-8c1-1-1-3-2-2l-10 8c-4 7-4 17-4 25 0 2 3 2 3 0z" fill="#fff"/><path d="M165 290c0-8 0-17 6-23 3-4 8-5 13-7 1-1 0-4-2-3-5 3-10 4-14 8-6 7-6 17-6 25 0 2 3 2 3 0zm14 0c0-5-1-12 3-16 1-1 2-1 2-3 1-2-2-2-3 0l-3 3c-2 4-2 11-2 16 0 2 3 2 3 0z" fill="#fff"/><path d="M175 290c0-4 1-10 3-13l6-5c1-1-1-3-2-2l-6 5c-3 4-3 10-4 14-1 2 2 3 3 1zm-16 0c0-6 1-17-5-21-1-1-3 2-1 3l1 2c2 5 2 11 2 16 0 2 3 2 3 0z" fill="#fff"/><path d="M165 290c-1-5-1-11-4-15l-6-5c-2-2-4 0-3 2l6 4 2 4 2 10c0 2 3 1 3 0z" fill="#fff"/></svg>