<svg xmlns="http://www.w3.org/2000/svg" width="361" height="361"><path d="M117.7 92.6A49.5 49.5 0 0 0 70.9 131c-3 12.2-1.4 26.4-1.4 38.9 0 12.4-1.3 25.6.7 37.9a50 50 0 0 0 43.5 42.2c11 1.3 22.7.2 33.8.2h38a48.8 48.8 0 0 0 45-30.7c5.2-12.9 3.9-27.2 3.9-40.8v-35.4a51 51 0 0 0-36.5-49.2c-11-3.1-24.3-1.5-35.7-1.5h-44.5c-6.5 0-6.5 10 0 10H186c22.2 0 38 19.5 38.4 40.7v35.4c0 13.6 1.5 28-4.8 40.5a39.1 39.1 0 0 1-24.3 19.8c-4.8 1.4-9.8 1.2-14.7 1.2H136c-12.6 0-25.5 1.4-36.9-5.1-25-14.3-19.6-46.9-19.6-71 0-9.5-1-19.8.8-29.2 3.4-18 18.9-32 37.4-32.3 6.4-.1 6.4-10.1 0-10z" fill="#fff"/><path d="M132 94c-5.8 2-11.7 3.7-17.2 6.1a48.7 48.7 0 0 0-23.5 22.5 52.8 52.8 0 0 0-4.7 33c.7 4.8 2.5 9.5 3.9 14l12.6 41.2a52.7 52.7 0 0 0 37 36 85.8 85.8 0 0 0 23 3.4c6.5.2 6.5-9.8 0-10-20.3-.5-43-8.2-49.6-29.6l-10.8-35.3c-4.3-13.8-9.4-26.8-5.3-41.4 3-10.5 10.4-19 20-24 5.3-2.8 11.5-4.2 17.2-6.2 6-2 3.5-11.7-2.7-9.6z" fill="#fff"/><path d="M83 235c13.6 18.2 32.2 31.4 55.2 33.6 11.4 1.1 22.7-2 34.1-1.2 6.8.6 13.3 2.8 19.2 6 4.6 2.6 9 5.5 14 7 6.1 2 12.2.6 18.2-1 19.5-5.5 43.4-2.7 59.2 10.5 5 4 12-3 7-7.1a75.8 75.8 0 0 0-59-15c-6.7 1-13.5 4-20.4 3.5-4.2-.3-8.3-3.3-12-5.4-15.2-8.8-31-9.6-48.1-7.5-23.7 3-45-10-58.7-28.5-3.8-5.1-12.5-.1-8.7 5z" fill="#fff"/><path d="M158.6 94c-8.4 3.5-16.3 6.6-23.1 12.8a50.2 50.2 0 0 0-15.2 28.9c-2.4 14.6 3 28.2 7.2 41.9 3.6 11.6 7 23.3 10.7 34.9 6.8 21 28 37 50 37.3a41 41 0 0 0 12.6-2c6-2 3.5-11.6-2.7-9.6-20.1 6.4-41-7.8-49.2-25.8-1.7-3.6-2.7-7.8-3.8-11.6l-6.5-21.2c-3.3-11-8.5-22.8-9-34.4a41.4 41.4 0 0 1 10.2-28.5c5.8-6.8 13.5-9.7 21.5-13 5.9-2.4 3.3-12-2.7-9.6z" fill="#fff"/><path d="M148.2 94c-5.7 2-11.6 3.7-17.1 6.1a48.7 48.7 0 0 0-23.6 22.5 52.9 52.9 0 0 0-4.7 33c.8 4.8 2.5 9.5 4 14l12.5 41.2c5.5 17.9 18.5 28.4 36.2 33.7 7.4 2.3 15.3 3.4 23 4 6.5.7 6.4-9.3 0-10-18.7-1.7-42.5-7.3-48.8-27.8l-10.5-34.5c-4.2-13.6-9.5-26.6-5.9-41a39.6 39.6 0 0 1 20.3-25.3c5.4-2.8 11.6-4.3 17.3-6.2 6-2 3.4-11.7-2.7-9.6z" fill="#fff"/><path d="M74.5 201c2 5.5 4 11 6.3 16.4a49.2 49.2 0 0 0 22.3 24 45.8 45.8 0 0 0 31.5 3.8c5-1.2 9.8-3.7 14.4-6l38.1-18.5a52.4 52.4 0 0 0 27.6-66c-2.2-6-11.8-3.4-9.6 2.7 7.5 20.5-.5 44.5-21 53.7-10.7 4.8-21.2 10.3-31.8 15.4-12.5 6-23.7 12.5-38.2 8.6a38.3 38.3 0 0 1-23.5-20.2c-2.6-5.2-4.4-11-6.5-16.5-2.3-6-12-3.4-9.6 2.7z" fill="#fff"/><path d="M70 165.3c2.1 5.5 4 11 6.4 16.4a49.2 49.2 0 0 0 22.2 24c9.7 5 20.9 6.1 31.5 3.7 5.1-1.1 9.8-3.7 14.5-6l38-18.4a51.9 51.9 0 0 0 31.6-42.9c.6-7-.7-14-3-20.6-2.2-6-12-3.4-9.7 2.7 7.7 21.1-2.2 41.7-22 51.2L147 191.2c-12.7 6.1-23.9 12.3-38.6 7.8-17.2-5.2-23-21.2-28.7-36.3-2.3-6-12-3.4-9.7 2.6z" fill="#fff"/><path d="M73.3 183.9c2.1 5.4 4 11 6.3 16.3a49.2 49.2 0 0 0 22.3 24 45.8 45.8 0 0 0 31.5 3.8c5.1-1.2 9.8-3.7 14.5-6l38-18.4a52.4 52.4 0 0 0 27.6-66c-2.2-6-11.8-3.4-9.6 2.6 7.5 20.5-.5 44.5-21 53.7-10.7 4.9-21.2 10.3-31.8 15.4-12.5 6.1-23.7 12.6-38.2 8.6a38.3 38.3 0 0 1-23.5-20.1c-2.6-5.2-4.4-11-6.5-16.6-2.2-6-11.9-3.3-9.6 2.7z" fill="#fff"/><path d="M231.7 134.8c-11.6-8.4-23.2-19-36.5-24.6-27.1-11.4-52.9 8.8-68 29.6-3.9 5.2 4.8 10.2 8.6 5 13.5-18.4 36-35.6 59.3-23.7 5.6 2.9 10.7 7.2 15.7 10.9l15.8 11.5c5.3 3.8 10.3-5 5.1-8.7z" fill="#fff"/><path d="M231.9 176.6L188 145.3c-7.6-5.4-14.9-11-23.8-14-17.3-5.7-32.3 3.9-41.7 18-3.6 5.3 5 10.3 8.6 5a31.5 31.5 0 0 1 17-14c7.4-2 15 .8 21.4 4.4 5.8 3.3 11.2 7.7 16.7 11.6l40.5 28.9c5.3 3.8 10.3-5 5-8.6z" fill="#fff"/><path d="M232 155l-37.6-27.4a46.6 46.6 0 0 0-67.2 12.2c-3.6 5.3 5 10.3 8.6 5A37.2 37.2 0 0 1 169 128a42 42 0 0 1 22.5 9.9l35.5 25.7c5.2 3.8 10.2-4.8 5-8.6zm-63.3 94.5c11-5.3 23.4-9.8 33-17.6a53 53 0 0 0 14.5-58c-2.2-6-11.9-3.4-9.7 2.6a43.1 43.1 0 0 1-14 50c-4.5 3.1-10 5.2-14.8 7.6l-14 6.8c-5.8 2.8-.8 11.4 5 8.6z" fill="#fff"/></svg>