<svg xmlns="http://www.w3.org/2000/svg" width="361" height="361"><path d="M250.3 247.2c1.6 12.6-10.4 23-23.1 23 0 0-37.8-4.7-46.5-4.7a794 794 0 0 0-46.2 4.8c-12.8 0-24.7-10.5-23.1-23.1 1.4-11 10.7-30 11.7-43 1.1-12.7 10.4-23.1 23.1-23.1 6.5 0 24.9-11.4 34.5-11.4 9.8 0 28.3 11.4 34.8 11.4 12.7 0 22 10.4 23 23 1.1 13.1 10.4 32.2 11.8 43zm-81.5-139.7c-1.5-14.4-11.2-18.1-21.3-17-10 1-18.7 6.7-17.2 21 1.5 14.5 12.6 32.2 22.7 31.1 10.1-1 17.3-20.7 15.8-35zm62.8 4c1.5-14.3-7.2-20-17.3-21s-19.8 2.6-21.3 17 5.7 34 15.8 35.1c10.1 1 21.3-16.6 22.8-31zm-118.1 19.1c-3-14.1-13-16.8-23-14.7-10 2-18 8.6-15 22.8 3 14.2 16 30.6 26 28.5 9.9-2.1 15-22.4 12-36.6zm172.8 8c3-14-5-20.6-15-22.7-9.9-2.1-20 .6-23 14.7-3 14.2 2.2 34.5 12.1 36.6 10 2 22.9-14.3 25.9-28.5z" fill="none" stroke="#fff" stroke-width="10" stroke-linecap="round" stroke-linejoin="round" stroke-miterlimit="10"/></svg>