<svg xmlns="http://www.w3.org/2000/svg" width="361" height="361"><path d="M243.8 140.3l7 104.4c.3 4.5 7.3 4.5 7 0l-7-104.3c-.3-4.5-7.3-4.6-7 0zM237 246.8a159477958.7 159477958.7 0 0 1-138.8-5.5c-6.4-.2-6.4 9.8 0 10a159477958.8 159477958.8 0 0 0 138.8 5.6c6.5.2 6.5-9.8 0-10z" fill="#fff"/><path d="M232.5 239.5l-71.2-3.2c-9.7-.4-9.7 14.6 0 15l71 3.2c9.8.5 9.8-14.5.2-15z" fill="#fff"/><path d="M83.3 240.1c.4 20.7 16.8 37.1 37.5 37.5s37.1-17.4 37.5-37.5a37.9 37.9 0 0 0-37.5-37.5 37.9 37.9 0 0 0-37.5 37.5c0 2 3 2 3 0a35 35 0 0 1 34.5-34.5 35 35 0 0 1 34.5 34.5c.3 19-16 34.2-34.5 34.5-19 .4-34.2-16-34.5-34.5 0-2-3-2-3 0z" fill="#fff"/><path d="M93.3 274.4a50 50 0 0 1-16.7-36.7 44 44 0 0 1 14.6-30c19.7-18 51.5-12.6 66 9.1 1 1.8 3.9 2.5 5.4.7l.2-.2-3.4 1 64.2 21.8 42 14.3 12.5 4.3c2.8 1 6.8 1.7 6.8 5.2V274c0 2.5.9 7.2-.9 9.4-1.1 1.4-4.4.9-6 .9H101.6c-4.6 0-4.6 7 0 7H279c2.4 0 5.1.2 7.3-1 7-4 5.6-12.3 5.6-19.2 0-7.1.7-15.3-8-17.9l-6-2-34.9-11.9-81.7-27.8a3.4 3.4 0 0 0-3.4.9l-.2.2 5.5.7a51.4 51.4 0 0 0-75-12.2 51 51 0 0 0-18.5 35.3c-1.7 16.1 7.5 31.9 18.7 42.9 3.2 3.2 8.1-1.8 5-5z" fill="#fff"/><path d="M268.4 282.6a9.2 9.2 0 0 0 4.5 7.6c2 1.3 4.6 1 7 1 2.2 0 4.5.2 6.7-.7 3.3-1.4 5-4.4 5.3-7.9.2-3.1-2-6-4.5-7.6-2-1.2-4.7-1-7-1s-4.6-.2-6.7.7c-3.4 1.4-5 4.5-5.3 8-.3 4.4 6.7 4.4 7 0 .2-2.3 3-1.7 4.4-1.7 1.6 0 4.9-.7 5 1.6.2 2.2-3.1 1.7-4.4 1.7-1.5 0-4.8.6-5-1.7-.3-4.4-7.3-4.5-7 0zM82 283a9.2 9.2 0 0 0 4.5 7.6c2 1.2 4.6 1 6.9 1 2.3 0 4.6.2 6.8-.7 3.3-1.4 5-4.4 5.2-8 .3-3-2-6-4.5-7.5-2-1.3-4.6-1-6.9-1-2.3 0-4.6-.2-6.8.7-3.3 1.4-5 4.4-5.2 7.9-.4 4.5 6.6 4.5 7 0 .2-2.2 2.9-1.7 4.4-1.7 1.6 0 4.8-.6 5 1.7.2 2.2-3.1 1.6-4.4 1.6-1.5 0-4.8.7-5-1.6-.4-4.5-7.4-4.5-7 0z" fill="#fff"/><g fill="#fff"><path d="M242.8 252.7c6-16.5 11.5-33.2 16.5-50a526.1 526.1 0 0 0 10.7-41.2c2.4-11 4.7-22.8 3.9-34.1-.5-6.4-10.5-6.5-10 0 .8 10.5-1.4 21.2-3.5 31.4a512.2 512.2 0 0 1-10.8 41.2 877.7 877.7 0 0 1-16.4 50c-2.2 6.1 7.4 8.7 9.6 2.7z"/><path d="M263.8 73.3c-1.6 5.5-2.5 11.1-4.6 16.5-2.4 6.4-5.6 11.9-6.5 18.8a27 27 0 0 0 3.8 15.3c2.2 3.8 6.2 5.8 9.8 7.8 5.7 3 10.7-5.6 5-8.7-2.4-1.3-5.2-2.4-6.6-4.9a17 17 0 0 1-1.4-12.1c1.3-5.2 4.2-10 6.1-14.9 1.8-4.9 2.6-10.1 4-15.1 1.7-6.2-8-8.9-9.6-2.7z"/></g><g fill="#fff"><path d="M265.8 245.6a899 899 0 0 0-9.3-51.8 525.5 525.5 0 0 0-10.2-41.3 121.7 121.7 0 0 0-12.8-31.8c-3.5-5.4-12.2-.4-8.7 5a117 117 0 0 1 11.9 29.4c4 13.6 7.2 27.5 10.1 41.3a878.3 878.3 0 0 1 9.4 51.9c1 6.3 10.6 3.6 9.6-2.7z"/><path d="M199 78.4c1.5 6.2 3.5 12.1 4 18.4.4 6 .5 12.6 3.3 18 2.2 4.5 6 8.4 10 11.1 3.7 2.5 8.6 2.3 12.8 2.3 6.5 0 6.5-10 0-10-2.7 0-6 .5-8.4-1.3a18 18 0 0 1-6.8-10.7c-1.1-5-.9-10.4-1.6-15.6-.7-5-2.5-10-3.6-14.9-1.5-6.2-11.1-3.6-9.7 2.7z"/></g><path d="M228.7 151.6l32.3-12.8c6-2.4 3.4-12-2.6-9.7L226 142c-6 2.4-3.4 12 2.6 9.7z" fill="#fff"/></svg>