<svg xmlns="http://www.w3.org/2000/svg" width="361" height="361"><path d="M143.4 214.9V287c0 6.5 10 6.5 10 0v-72c0-6.5-10-6.5-10 0zm15.1 0v72.3c0 6.5 10 6.5 10 0V215c0-6.5-10-6.5-10 0zm15.2 0v72.3c0 6.5 10 6.5 10 0V215c0-6.5-10-6.5-10 0zm15.2 0v72.3c0 6.5 10 6.5 10 0V215c0-6.5-10-6.5-10 0zm15.1 0V287c0 6.5 10 6.5 10 0v-72c0-6.5-10-6.5-10 0zm15.2 0v72.3c0 6.5 10 6.5 10 0V215c0-6.5-10-6.5-10 0zm15.1 0v72.3c0 6.5 10 6.5 10 0V215c0-6.5-10-6.5-10 0zm15.2 0v72.3c0 6.5 10 6.5 10 0V215c0-6.5-10-6.5-10 0zm15.1 0V287c0 6.5 10 6.5 10 0v-72c0-6.5-10-6.5-10 0z" fill="#fff"/><path d="M142.5 234h135.7c6.4 0 6.4-10 0-10H142.5c-6.4 0-6.4 10 0 10zm-.4 43.8h136.4c6.4 0 6.4-10 0-10H142c-6.5 0-6.5 10 0 10zm-22.8 9c0 2.4-1.4 4.4-3.1 4.4h-9c-1.8 0-3.2-2-3.2-4.4V175.1c0-2.5 1.4-4.4 3.2-4.4h9c1.7 0 3.1 2 3.1 4.4v111.7z" fill="#fff"/><path d="M118 210.7l22.9-27.8c4-5-3-12-7.1-7.1L111 203.6c-4 5 3 12 7 7.1zm50-49.5c0 2.6-2 4.7-4.5 4.7h-59.8a4.6 4.6 0 0 1-4.5-4.7v-30.9c0-2.5 2-4.6 4.5-4.6h59.8a4.6 4.6 0 0 1 4.5 4.6v31z" fill="#fff"/><path d="M160.2 138.5a3.9 3.9 0 0 1-3.9 4h-48.6a3.9 3.9 0 0 1-3.9-4v-22a3.9 3.9 0 0 1 4-3.8h48.5a3.9 3.9 0 0 1 4 3.9v22z" fill="#fff"/><path d="M132.7 133.6c0 1.5-1.5 2.6-3.4 2.6h-33c-2 0-3.5-1.1-3.5-2.6V102c0-1.4 1.6-2.6 3.5-2.6h33c1.9 0 3.4 1.2 3.4 2.6v31.6z" fill="#fff"/><path d="M149 122.7a6 6 0 0 1-6 6h-9.8a6 6 0 0 1-6-6v-19.4a6 6 0 0 1 6-6h9.9a6 6 0 0 1 6 6v19.4zm-35 41.7a6 6 0 0 1-6 6H92.2a6 6 0 0 1-6-6v-15.7a6 6 0 0 1 6-6H108a6 6 0 0 1 6 6v15.7zm-7.4-31.7c0 3.3-3.5 6-7.8 6H85.6c-4.3 0-7.8-2.7-7.8-6v-22.8c0-3.3 3.5-6 7.8-6h13.2c4.3 0 7.8 2.7 7.8 6v22.8z" fill="#fff"/><path d="M91.8 160.7a6 6 0 0 1-6 6h-10a6 6 0 0 1-6-6v-40.4a6 6 0 0 1 6-6h10a6 6 0 0 1 6 6v40.4z" fill="#fff"/><path d="M160.2 175a6 6 0 0 1-6 6H83.8a6 6 0 0 1-6-6v-8a6 6 0 0 1 6-6h70.4a6 6 0 0 1 6 6v8z" fill="#fff"/><path d="M113 180.7a4.8 4.8 0 0 1-4.7 4.7h-12a4.8 4.8 0 0 1-4.7-4.7 4.8 4.8 0 0 1 4.7-4.8h12a4.8 4.8 0 0 1 4.8 4.8zm144.7-43.9L267 125c1.7-2.1 2-5 0-7-1.8-1.8-5.4-2.2-7.1 0l-9.4 11.8c-1.7 2-2 5 0 7 1.8 1.8 5.4 2.2 7 0z" fill="#fff"/><path d="M264 125.1l15-1.5c2.7-.3 5-2 5-5 0-2.5-2.3-5.3-5-5l-15 1.5c-2.8.3-5 2-5 5 0 2.5 2.2 5.3 5 5zm-9.1 3.8l-14.8-3.4c-6.2-1.5-8.9 8.2-2.6 9.6l14.7 3.5c6.3 1.4 9-8.2 2.7-9.7z" fill="#fff"/><path d="M234.6 125.4l-12.8 8.1c-5.5 3.4-.4 12.1 5 8.6l12.8-8c5.4-3.5.4-12.1-5-8.7z" fill="#fff"/></svg>