<svg xmlns="http://www.w3.org/2000/svg" width="361" height="361"><circle cx="245" cy="131" r="21" fill="#fff" stroke="#fff"/><path d="M251 175c-2-4-1-9 2-10l2-1c3-1 7 1 9 6l27 63c2 5 1 9-2 10l-3 2c-3 1-7-2-9-6l-26-64zm-101 51l-42 45c-10 10 6 26 16 16l42-45c10-10-6-26-16-16z" fill="#fff"/><path d="M164 229l-21 44c-2 5-1 12 4 15s13 1 16-4l21-44c3-6 1-12-4-16-5-2-13-1-16 5z" fill="#fff"/><path d="M245 270h-48l1 1-3-28-2-2-5-8-10-12-1 2 20-6c5-2 6-1 10 0l28 11 5 2h1c1 0 0 0 0 0a54 54 0 0 1 2 15v26c0 2 3 2 3 0v-27a57 57 0 0 0-3-16l-5-2-30-12c-4-1-5-2-9-1l-22 7c-1 1-2 2-1 3l8 10 5 7 2 3c1 1 1 1 0 0l4 28 2 2h48c2 0 2-3 0-3z" fill="#fff"/><path d="M255 160c-9-6-23-3-29 7l-23 47 39 15 21-41c5-10 2-22-8-28zm-79 62l-17 1c-14 0-14 23-1 22l35-1-17-22zm19 27h-4c-7 0-7 10 0 10h4v-10zm92 0h-42v10h42c7 0 7-10 0-10z" fill="#fff"/><path fill="none" d="M199 238h41v11h-41z"/><path d="M75 216h64c7 0 7-10 0-10H75c-7 0-7 10 0 10zm32-27l5-14c1-5-6-7-7-2l-5 14c-1 4 6 6 7 2z" fill="#fff"/><path d="M111 170l-4-17c-1-5-8-3-6 2l4 17c1 4 7 3 6-2z" fill="#fff"/><path d="M107 155l5-14c1-5-6-7-7-2l-4 14c-2 4 5 6 6 2z" fill="#fff"/><path d="M111 136l-4-17c-1-5-8-3-6 2l4 17c1 4 7 3 6-2z" fill="#fff"/><path d="M107 121l5-14c1-5-6-7-7-2l-4 14c-2 4 5 6 6 2zm25 76l-5-14c-1-5-8-3-7 2l5 14c1 4 8 2 7-2z" fill="#fff"/><path d="M128 182l4-17c1-5-6-7-7-2l-4 17c-1 5 6 6 7 2z" fill="#fff"/><path d="M132 163l-5-14c-1-5-8-3-7 2l5 14c1 4 8 2 7-2z" fill="#fff"/><path d="M128 148l4-17c1-5-6-7-7-2l-4 17c-1 5 6 6 7 2z" fill="#fff"/><path d="M132 129l-5-14c-1-5-8-3-7 2l5 14c1 4 8 2 7-2zm-44 70l5-14c1-4-6-6-7-2l-4 14c-2 4 5 6 6 2z" fill="#fff"/><path d="M92 181l-4-18c-1-4-8-2-6 2l4 17c1 5 7 3 6-1z" fill="#fff"/><path d="M88 165l5-14c1-4-6-6-7-2l-4 14c-2 4 5 6 6 2z" fill="#fff"/><path d="M92 147l-4-18c-1-4-8-2-6 2l4 17c1 5 7 3 6-1z" fill="#fff"/><path d="M88 131l5-14c1-4-6-6-7-2l-4 14c-2 4 5 6 6 2z" fill="#fff"/></svg>