<svg xmlns="http://www.w3.org/2000/svg" width="361" height="361"><path d="M85 282c-7.4-.5-5.2-12.4-5.2-17.3V97.3c0-4.5-2-16.8 5.2-16.8h182.7c4.7 0 13.4-1.5 13.4 5.6v185.2c0 5.2.2 10.7-6.7 10.7H85c-6.5 0-6.5 10 0 10h182.2c8.7 0 17.8.6 22.4-8.7 2.7-5.3 1.5-13.4 1.5-19.1V96.8c0-6.8 1.2-15.4-3.6-20.9-5.7-6.5-13.9-5.4-21.7-5.4H98.6c-5.8 0-12-.6-17.7.5-11.2 2.3-11.1 13.7-11.1 22.5v183.3c0 8.6 6.9 14.6 15.1 15.2 6.5.4 6.4-9.6 0-10z" fill="#fff"/><path d="M162.3 133.8a32 32 0 0 1-31.5 31.5c-17.4.4-31.1-14.6-31.5-31.5a31.9 31.9 0 0 1 31.5-31.5 31.7 31.7 0 0 1 31.5 31.5c0 2 3 2 3 0a35 35 0 0 0-34.5-34.5c-19-.4-34 16-34.5 34.5-.4 19 16 34.1 34.5 34.5 19.1.4 34.1-16 34.5-34.5 0-2-3-2-3 0zm-8 88.9a23.8 23.8 0 0 1-23.5 23.4c-13 .4-23-11-23.4-23.4-.4-13 11-23.1 23.4-23.5 13-.3 23.2 11 23.5 23.5 0 1.9 3 1.9 3 0a26.9 26.9 0 0 0-26.5-26.5c-14.7-.4-26 12.4-26.4 26.5-.4 14.7 12.3 26 26.4 26.4 14.7.4 26.1-12.3 26.5-26.4 0-2-3-2-3 0z" fill="#fff"/><path d="M138.8 133.8c-.5 10.3-15.4 10.3-16 0-.5-10.3 15.5-10.3 16 0 .1 2 3.1 2 3 0a11.2 11.2 0 0 0-11-11c-6.2-.3-10.7 5.3-11 11-.3 6.2 5.3 10.7 11 11 6.2.3 10.7-5.3 11-11 .1-2-2.9-2-3 0zm124.3 0a23.6 23.6 0 0 1-23.3 23.3c-12.9.3-22.9-10.9-23.2-23.3-.4-13 10.8-22.9 23.2-23.3 13-.3 23 11 23.3 23.3 0 2 3 2 3 0a26.7 26.7 0 0 0-26.3-26.3c-14.6-.3-25.8 12.3-26.2 26.3-.4 14.6 12.3 25.9 26.2 26.3 14.6.4 25.9-12.3 26.3-26.3 0-2-3-2-3 0zm.5 88.9c-.3 17.4-14 31-31.4 31.4s-31-14.6-31.4-31.4a31.8 31.8 0 0 1 31.4-31.4c17.4-.4 31 14.5 31.4 31.4 0 1.9 3 1.9 3 0-.4-19-15.3-34-34.4-34.4s-34 16-34.4 34.4c-.4 19 16 34 34.4 34.4 19 .4 34-16 34.4-34.4 0-2-3-2-3 0z" fill="#fff"/><path d="M247.8 133.8c-.5 10.3-15.4 10.3-16 0-.5-10.3 15.5-10.3 16 0 .1 2 3.1 2 3 0a11.2 11.2 0 0 0-11-11c-6.2-.3-10.7 5.3-11 11-.3 6.2 5.3 10.7 11 11 6.3.3 10.7-5.3 11-11 .1-2-2.9-2-3 0zm-7.9 88.9c-.5 9.9-14.8 9.9-15.4 0-.5-10 14.9-10 15.4 0 .1 1.9 3.1 1.9 3 0a11 11 0 0 0-10.7-10.7c-6-.3-10.4 5.1-10.7 10.7-.3 6 5.2 10.4 10.7 10.7 6 .3 10.4-5.2 10.7-10.7.1-2-2.9-2-3 0zm-101.5 0c-.5 9.8-14.7 9.8-15.2 0-.5-9.9 14.7-9.8 15.2 0 .1 1.9 3.1 1.9 3 0-.3-6-4.6-10.3-10.6-10.6-6-.4-10.3 5-10.6 10.6-.3 6 5.1 10.3 10.6 10.6 6 .3 10.3-5.1 10.6-10.6.1-2-2.9-2-3 0zM207 157a23.6 23.6 0 0 1-23.2-23.3c-.4-13 10.8-22.9 23.3-23.3 1.9 0 1.9-3 0-3a26.7 26.7 0 0 0-26.3 26.3c-.4 14.6 12.3 25.9 26.3 26.3 1.9 0 1.9-3 0-3z" fill="#fff"/><path d="M207 110.5h14c2 0 2-3 0-3h-14c-2 0-2 3 0 3zm0 49.5h14c2 0 2-3 0-3h-14c-2 0-2 3 0 3zm-70.6 110h7.5c2 0 2-3 0-3h-7.5c-1.9 0-1.9 3 0 3zm19.4 0h51.1c2 0 2-3 0-3h-51.1c-2 0-2 3 0 3zm62.5 0h7.4c2 0 2-3 0-3h-7.4c-2 0-2 3 0 3z" fill="#fff"/></svg>