<svg xmlns="http://www.w3.org/2000/svg" width="361" height="361"><g stroke="#fff" stroke-miterlimit="10"><circle cx="181" cy="181" r="106" fill="none" stroke-width="10"/><path d="M195 100a186 186 0 0 0-6-22c10-1 14-1 20 4a3515 3515 0 0 1 26 11c7 1 10 4 16 12l-20 11a839 839 0 0 0-36-16zm-97 71a476 476 0 0 1 1-38 295 295 0 0 1 28-25 380 380 0 0 1 35 11l5 41a1997 1997 0 0 0-36 27 832 832 0 0 1-33-16zm114 50a2001 2001 0 0 0-5-44l33-25a378 378 0 0 1 32 18v39a482 482 0 0 1-26 26 833 833 0 0 1-35-14zm-96 44l-7-17 27-18a1004 1004 0 0 0 40 17l5 33-14 5c-5 2-49-17-51-20z" fill="#fff" stroke-width="7" stroke-linecap="round" stroke-linejoin="round"/></g></svg>