<svg xmlns="http://www.w3.org/2000/svg" width="361" height="361"><path d="M85 282c-7 0-5-12-5-17V97c0-4-2-16 5-16h183c4 0 13-2 13 5v185c0 6 0 11-7 11H85c-6 0-6 10 0 10h182c9 0 18 1 23-9 2-5 1-13 1-19V97c0-7 1-16-4-21-5-7-13-5-21-5H81c-11 2-11 14-11 23v183c0 8 7 14 15 15 6 0 6-10 0-10z" fill="#fff"/><path d="M162 134a32 32 0 0 1-31 31c-18 1-31-14-32-31a32 32 0 0 1 32-32 32 32 0 0 1 31 32c0 2 3 2 3 0a35 35 0 0 0-34-35c-19 0-34 16-35 35 0 19 16 34 35 34 19 1 34-16 34-34 0-2-3-2-3 0zm-8 89a24 24 0 0 1-23 23c-13 1-23-11-24-23 0-13 11-23 24-24 13 0 23 11 23 24 0 2 3 2 3 0a27 27 0 0 0-26-27c-15 0-26 13-27 27 0 14 13 26 27 26 15 1 26-12 26-26 0-2-3-2-3 0z" fill="#fff"/><path d="M139 134c-1 10-16 10-16 0-1-10 15-10 16 0 0 2 3 2 3 0a11 11 0 0 0-11-11c-6 0-11 5-11 11s5 11 11 11 11-5 11-11c0-2-3-2-3 0zm124 0a24 24 0 0 1-23 23c-13 0-23-11-23-23-1-13 10-23 23-23 13-1 23 11 23 23 0 2 3 2 3 0a27 27 0 0 0-26-26c-15-1-26 12-26 26-1 14 12 26 26 26 14 1 26-12 26-26 0-2-3-2-3 0zm1 89c-1 17-14 31-32 31s-31-14-31-31a32 32 0 0 1 31-32c18 0 31 15 32 32 0 2 3 2 3 0-1-19-16-34-35-35s-34 16-34 35c-1 19 16 34 34 34 19 1 34-16 35-34 0-2-3-2-3 0z" fill="#fff"/><path d="M248 134c-1 10-16 10-16 0-1-10 15-10 16 0 0 2 3 2 3 0a11 11 0 0 0-11-11c-6 0-11 5-11 11s5 11 11 11 11-5 11-11c0-2-3-2-3 0zm-8 89c-1 10-15 10-15 0-1-10 14-10 15 0 0 2 3 2 3 0a11 11 0 0 0-11-11c-6 0-10 5-10 11-1 6 5 10 10 10 6 1 11-5 11-10 0-2-3-2-3 0zm-102 0c0 10-14 10-15 0 0-10 15-10 15 0 1 2 4 2 3 0 0-6-4-11-10-11s-10 5-11 11c0 6 5 10 11 10 6 1 10-5 10-10 1-2-2-2-3 0zm69-66a24 24 0 0 1-23-23c-1-13 11-23 23-24 2 0 2-3 0-3a27 27 0 0 0-26 27c-1 14 12 26 26 26 2 0 2-3 0-3z" fill="#fff"/><path d="M207 111h14c2 0 2-3 0-3h-14c-2 0-2 3 0 3zm0 49h14c2 0 2-3 0-3h-14c-2 0-2 3 0 3zm-71 110h8c2 0 2-3 0-3h-8v3zm20 0h51c2 0 2-3 0-3h-51c-2 0-2 3 0 3zm62 0h8c2 0 2-3 0-3h-8c-2 0-2 3 0 3z" fill="#fff"/></svg>