<svg xmlns="http://www.w3.org/2000/svg" width="361" height="361"><path d="M79 189c0 1 2 3 4 3h130c2 0 4-1 4-3v-14c0-2-2-3-4-3H83c-2 0-4 1-4 3v14z" fill="#fff" stroke="#fff" stroke-width="10" stroke-miterlimit="10"/><path d="M124 170a4 4 0 0 0 4 4h76a4 4 0 0 0 4-4v-18a4 4 0 0 0-4-4h-76a4 4 0 0 0-4 4v18z" fill="#fff" stroke="#fff" stroke-width="10" stroke-miterlimit="10"/><path d="M213 149v51c0 7 10 7 10 0v-52c0-6-10-6-10 1zm-143-5v57c0 6 10 6 10 0v-57c0-7-10-7-10 0z" fill="#fff"/><path d="M84 164l2 2h24l1-2v-6l-1-1H86l-2 1v6z" fill="#fff" stroke="#fff" stroke-width="10" stroke-miterlimit="10"/><path d="M195 77h94c4 0 4-7 0-7h-94c-5 0-5 7 0 7z" fill="#fff"/><path fill="none" stroke="#fff" stroke-width="7" stroke-miterlimit="10" d="M280 153h-85m47-79v77"/><path d="M239 113h7c4 0 4-7 0-7h-7c-4 0-4 7 0 7zm50-39v119c0 2 3 2 3 0V74c0-2-3-2-3 0zm-6 2v113c0 2 3 2 3 0V76c0-2-3-2-3 0zm-6-1v112c0 2 3 2 3 0V75c0-2-3-2-3 0zm-85-1v119c0 2 3 2 3 0V74c0-2-3-2-3 0zm5 2v113c1 2 4 2 4 0V76c0-2-3-2-3 0zm7-1v112c0 2 3 2 3 0V75c0-2-3-2-3 0z" fill="#fff"/><path d="M132 275a2 2 0 0 1-1 2l-33 13-2-1-24-62c-1-1 0-2 1-2l32-13 3 1 24 62z" fill="none" stroke="#fff" stroke-width="3" stroke-miterlimit="10"/><path d="M109 218c1 1 0 2-1 2l-31 13-2-1-2-5c-1-1 0-2 1-2l31-13 2 1 2 5zm-9 1a2 2 0 0 0-3-2l-14 6-1 2 1 1c0 1 1 2 2 1l14-5 1-2v-1z" fill="#fff" stroke="#fff" stroke-width="3" stroke-miterlimit="10"/><path d="M128 269l-33 12-2 3 2 5 3 1 33-13 1-2-2-6h-3zm-12 11a1 1 0 0 1-1 1l-2 1a1 1 0 0 1-1 0l-2-3a1 1 0 0 1 1-1l3-1a1 1 0 0 1 1 0l1 3z" fill="#fff"/><path d="M254 288l-2 2h-48a2 2 0 0 1-2-2v-22l2-2h48l2 2v22z" fill="none" stroke="#fff" stroke-width="3" stroke-miterlimit="10"/><path d="M217 280a1 1 0 1 1-3 0 1 1 0 1 1 3 0zm-8-8h3c2 0 2-3 0-3h-3c-2 0-2 3 0 3zm13 8a1 1 0 1 1-2 0 1 1 0 1 1 2 0zm6 0a1 1 0 1 1-2 0 1 1 0 1 1 2 0zm6 0a1 1 0 1 1-2 0 1 1 0 1 1 2 0zm6 0a1 1 0 1 1-3 0 1 1 0 1 1 3 0zm8-6c-1 3-5 3-5 0-1-3 4-3 5 0 0 2 3 2 3 0a6 6 0 0 0-6-6c-3 0-5 3-5 6-1 3 2 5 5 5 3 1 5-2 6-5 0-2-3-2-3 0zm-39 10l2 2 1-2a3 3 0 0 0-2-2c-2 0-3 1-3 2 0 2 1 3 3 3l2-3-1-1-2 1z" fill="#fff"/><path d="M168 290a2 2 0 0 1-2-2v-38l2-2h28l1 2v38l-1 2h-28z" fill="none" stroke="#fff" stroke-width="3" stroke-miterlimit="10"/><path d="M192 274c-1 13-19 13-20 0 0-5 5-9 10-10 5 0 9 5 9 10 1 2 4 2 3 0 0-16-24-16-25 0 0 7 6 12 13 13 7 0 12-6 12-13 1-2-2-2-3 0z" fill="#fff"/><circle cx="182" cy="274" r="4" fill="#fff" stroke="#fff" stroke-miterlimit="10"/><path d="M183 256h-2 2c0 2 3 2 3 0a4 4 0 0 0-4-4c-2 0-4 2-4 4s2 4 4 4 4-2 4-4-3-2-3 0z" fill="#fff"/><path d="M261 290a2 2 0 0 1-2-2v-38l2-2h28l1 2v38l-2 2h-27z" fill="none" stroke="#fff" stroke-width="3" stroke-miterlimit="10"/><path d="M284 274c0 13-18 13-19 0 0-5 5-9 10-10 5 0 9 5 9 10 0 2 3 2 3 0-1-16-24-16-25 0 0 7 6 12 13 13 7 0 12-6 12-13 0-2-3-2-3 0z" fill="#fff"/><circle cx="275" cy="274" r="4" fill="#fff" stroke="#fff" stroke-miterlimit="10"/><path d="M276 256h-2 2c0 2 3 2 3 0a4 4 0 0 0-4-4c-3 0-4 2-4 4s2 4 4 4 4-2 4-4-3-2-3 0z" fill="#fff"/></svg>