<svg xmlns="http://www.w3.org/2000/svg" width="361" height="361"><path d="M286 132H75c-2 0-2 3 0 3h211c2 0 2-3 0-3zM103 241c1 7 13 5 18 5h132c4 0 5-5 5-8v-74c0-8-11-6-16-6H116c-5 1-13-1-13 7v75c0 2 3 2 3 0v-72c0-3 0-7 3-7h143c4 1 3 7 3 9v64c0 2 1 9-3 9H116c-2 0-10 1-10-3-1-2-3-1-3 0zm122-120h10c2 0 2-3 0-3h-10c-2 0-2 3 0 3zm0-5h10c2 0 2-3 0-3h-10c-2 0-2 3 0 3zm0 10h10c2 0 2-3 0-3h-10c-2 0-2 3 0 3z" fill="#fff"/><path d="M147 133h10c2 0 2-3 0-3h-10c-2 0-2 3 0 3zm29 0h9c2 0 2-3 0-3h-10v3zm29 0h9c2 0 2-3 0-3h-10v3zm8-10c-1 2-9 1-11 1h-51c-3 0-2-1-2-3v-6h63l1 9c0 2 3 2 3 0 0-3 2-12-3-12h-58c-4 0-8-1-9 2v9c0 2 1 4 3 4h57c4 0 8 1 10-3 0-2-2-2-3-1zm-86-2h10c2 0 2-3 0-3h-10c-2 0-2 3 0 3zm0-5h10c2 0 2-3 0-3h-10c-2 0-2 3 0 3zm0 10h10c2 0 2-3 0-3h-10c-2 0-2 3 0 3zm-5 26h117c7 0 7-10 0-10H122c-7 0-7 10 0 10zm104 80h-90v1l-2-3-2-7-1 3h99l-1-3-4 10c-2 4 5 6 7 2 2-6 8-15-2-16H130c-9 1-3 10-1 16s12 4 17 4h68c4 0 15 2 18-4 1-4-5-7-6-3z" fill="#fff"/><path d="M85 253c-8 0-5-16-5-21V114c0-7 8-6 13-6h183c8 1 5 17 5 21v118c0 7-8 6-13 6H85c-6 0-6 10 0 10h182c9 0 18 1 23-9 3-6 1-16 1-23V114c0-9-6-15-15-15H86c-6 0-12 3-15 8l-1 10v130c0 9 7 15 15 16 7 0 7-10 0-10z" fill="#fff"/><path d="M178 170c5 7 5 14 0 21a22 22 0 0 0-3 23c2 5 8 1 6-3-4-9 2-14 6-22s2-16-3-23c-3-4-9 0-6 4zm18 5c5 6 5 12 0 18a20 20 0 0 0-2 21c1 5 8 1 6-3-4-8 2-13 5-19 3-7 2-15-3-21-2-3-9 0-6 4zm-38 0c5 6 5 12 0 18a20 20 0 0 0-2 21c1 5 8 1 6-3-4-8 2-13 5-19 3-7 2-15-3-21-2-3-9 0-6 4z" fill="#fff"/></svg>