<svg xmlns="http://www.w3.org/2000/svg" width="361" height="361"><path d="M102.5 200.5zm175.3-15a4 4 0 0 0-.5-2l-19.9-34.9a4 4 0 0 0-2.8-2 4.5 4.5 0 0 0-1.1-.1H234a4.6 4.6 0 0 0-4.6 4.6v28.6c0 .3-18.1 31.3-18.1 31.3h-66.6a27.8 27.8 0 0 1 11.6 22.5h59.3a27.9 27.9 0 0 1 55.7 0c5.3-.4 6.7-2.6 6.7-8.9v-37l-.2-2zm-12-4h-28.2a4 4 0 0 1-4-3.7v-23.4a4 4 0 0 1 4-4h13.9l1 .2c1 .2 1.8.8 2.4 1.7l12.8 22.4 1 1.8c1.6 2.9-.5 5-3 5zm-172 30.8c-1 1.2-.8 2.6-.8 2.6l-.1 15s0 1.5.6 2.4a3.7 3.7 0 0 0 2.3 1.3h4.7c0-9.3 4.6-17.6 11.6-22.6H96.3s-1.6 0-2.5 1.3z" fill="#fff"/><path d="M103.1 233.7c.5 13.8 11 24.3 24.8 24.8 13.7.4 24.2-11.7 24.7-24.8.4-13.7-11.7-24.2-24.8-24.7-13.7-.4-24.2 11.7-24.7 24.7-.2 6.5 9.8 6.5 10 0A15 15 0 0 1 128 219c8.2-.3 14.4 7 14.7 14.7.2 8.3-7 14.5-14.8 14.8-8.2.2-14.4-7-14.7-14.8-.2-6.4-10.2-6.4-10 0zm102.7-39.4H97.5l4.8 3.7-22-68.3-4.8 6.3h186.3l-1.3-9.8-41 10a5 5 0 0 0-3.7 4.8l-.3 33c0 1.8 1-2.6.6-1.9l-1.2 2-5 8.6-8.4 14.1c-3.3 5.6 5.4 10.6 8.7 5l8.3-14c2-3.6 7-9 7-13.4l.3-33.4-3.6 4.8 41-10c5.5-1.3 4.2-9.8-1.4-9.8H75.5c-3.1 0-5.8 3.2-4.8 6.3l22 68.4a5 5 0 0 0 4.8 3.6h108.3c6.5 0 6.5-10 0-10zm13 39.4c.5 13.8 11 24.3 24.7 24.8 13.8.4 24.3-11.7 24.7-24.8.5-13.7-11.6-24.2-24.7-24.7-13.8-.5-24.3 11.6-24.7 24.7-.2 6.5 9.8 6.5 10 0a15 15 0 0 1 14.7-14.7c8.3-.3 14.5 6.9 14.7 14.7.3 8.3-6.9 14.5-14.7 14.7-8.2.3-14.4-6.9-14.7-14.7-.2-6.4-10.2-6.4-10 0z" fill="#fff"/><path d="M102.8 148.8h83.4c4.5 0 4.5-7 0-7h-83.4c-4.5 0-4.5 7 0 7zm178.7 41.9V228c0 6.5 10 6.5 10 0v-37.3c0-6.5-10-6.5-10 0z" fill="#fff"/></svg>