<svg xmlns="http://www.w3.org/2000/svg" width="361" height="361"><path d="M181 194c0-1 1 0 0 0h-77c1 0 1 2 1 0v-11c0-2 0 0-1 0h77c2 0 0-2 0 0v12c0 4 7 4 7 0 0-5 2-15-3-18-3-2-8-1-11-1h-66c-4 0-11 0-11 6 0 5-2 15 4 18 2 2 7 1 10 1h66c5 0 9 0 11-5 1-5-6-7-7-2zm72 2a18 18 0 1 1-36 0h36z" fill="#fff"/><path d="M282 196H107c-2 0-2 0-2-2l3-21 2-17 4-1h164c2 0 1 8 1 9a109983 109983 0 0 0 3 32c0 6 10 6 10 0l-3-37c0-7-2-14-11-14H111c-8 0-10 7-11 14l-5 37c-1 6 6 10 11 10h168c8 0 17 0 18-10 1-7-9-7-10 0z" fill="#fff"/><path d="M110 209h21c5 0 5-7 0-7h-21c-5 0-5 7 0 7z" fill="#fff"/><path d="M111 208c0 3-11 4-13 4l-25 2c-2 0-2 3 0 3 10 0 21-1 31-3 3-1 9-2 10-7 0-2-3-2-3 0z" fill="#fff"/><path d="M110 207c0 3-10 6-12 7l-25 5c-2 0-1 3 1 3a142 142 0 0 0 30-7c3-1 9-4 9-8 0-2-3-2-3 0z" fill="#fff"/><path d="M111 207c0 3-9 7-11 8a157 157 0 0 1-24 9c-2 0-1 3 1 3l28-11c3-2 9-5 9-10-1-2-3-1-3 1zm11 1c2 1-5 23-6 24 0 2 2 3 3 1 1-3 11-27 3-27-2 0-2 3 0 3z" fill="#fff"/><path d="M124 210c3 0-1 21-2 23 0 2 3 2 3 0 1-3 7-26-1-26-2 0-2 3 0 3z" fill="#fff"/><path d="M125 212c3-1 3 19 2 21 0 2 3 2 4 0 0-4 2-26-7-24-2 0-1 3 1 3zm7-3c8-1 17 4 22 9 1 2 3 0 2-2-6-6-16-11-25-10-2 0-1 3 1 3z" fill="#fff"/><path d="M132 209c10-1 21 4 30 8 2 1 3-2 1-3-9-4-21-10-32-8-2 1-1 4 1 3z" fill="#fff"/><path d="M131 209c5-1 11 0 16 1a151 151 0 0 1 22 5c2 0 2-3 1-3a161 161 0 0 0-24-5 45 45 0 0 0-16-1c-2 1-1 4 1 3zm-29-27h182c2 1 2-2 0-2H102c-2 0-2 3 0 3zm23-32h57c5 0 5-7 0-7h-57c-5 0-5 7 0 7z" fill="#fff"/></svg>