<svg xmlns="http://www.w3.org/2000/svg" width="361" height="361"><path d="M255.4 160.4c2.4 8.4 2 16.7 1.8 25.3l1.5-1.5h-59l1.5 1.5c.2-9 .7-17.5-1.9-26.1l-1.4 1.9h59c1.9 0 1.9-3 0-3h-59c-1 0-1.8 1-1.5 1.9 2.5 8.3 2 16.7 1.8 25.3 0 .8.7 1.5 1.5 1.5h59c.8 0 1.5-.7 1.5-1.5.2-9 .6-17.4-2-26.1-.4-1.9-3.3-1-2.8.8zm16-79.1c8.4.4 9.6 15.4 10.2 21.5a58.6 58.6 0 0 1-1.4 18c-1.2 5.5-3.5 12.5-10 12.5h-60.7c-11.4 0-22.9.7-34-1.7-12.1-2.5-23.7-7.3-35.4-11.3a158.7 158.7 0 0 0-38.7-8.6c-1.5-.1-3 .4-3.5-1.3-.3-1-.3-2-.3-3-.1-3.5.4-4.3 3.9-4.7 6.8-.6 13.6-2 20.4-3.7 12.5-3 24.6-7.7 36.9-11.7 10-3.3 20.2-6 30.7-6h81.9c2 0 2-3 0-3H188c-11.2.1-22.2 3.5-32.8 7-12.4 4-24.6 8.6-37.4 11.6-3.2.8-6.5 1.4-9.9 2-3.2.5-7.3.2-10.3 1.2-2.6.8-2.8 4-3 6.3-.2 2.3 0 6 1.9 7.6 1.2 1 3.4.6 4.9.7 4.3.2 8.6.9 13 1.7 13 2.4 25.6 7 38.2 11.4 10.7 3.8 21.6 7.4 33 8.4 3.5.2 7 0 10.6 0h75.1c11.9 0 13.3-20 13.5-28.4.2-8.9-1.5-28.9-13.4-29.5-2-.2-2 2.8 0 3z" fill="#fff"/><path d="M90.6 101.9c1.3 0 4 .3 4 2v6.4c0 2-2.4 2.3-4 2.4-1.3 0-4-.4-4-2.1v-6.3c0-2 2.4-2.3 4-2.4 2 0 2-3 0-3-2.6.1-5.6.8-6.7 3.4-.6 1.4-.3 3.3-.3 4.7 0 1.6-.1 3.3.1 5 .4 2.8 4.7 3.6 6.9 3.7 2.5 0 5.7-1 6.7-3.4.6-1.4.3-3.3.3-4.8l-.1-4.9c-.4-2.8-4.7-3.6-7-3.7-1.9 0-1.8 3 0 3z" fill="#fff"/><path d="M84.4 110.8v-7c0-2-3-2-3 0v7c0 2 3 2 3 0zm9 33.4h195c4.5 0 4.5-7 0-7h-195c-4.6 0-4.6 7 0 7zm0 74.3h195c4.5 0 4.5-7 0-7h-195c-4.6 0-4.6 7 0 7zm-.3 73.7h195c4.5 0 4.5-7 0-7h-195c-4.5 0-4.5 7 0 7z" fill="#fff"/><path d="M284.8 75.2v213.5c0 4.5 7 4.5 7 0V75.2c0-4.5-7-4.5-7 0zm-64.5 19.7a45 45 0 0 1 1.6 7.3c.2 2 3.2 1.7 3-.4A48 48 0 0 0 223 94c-.6-2-3.4-1-2.8.9zM222 107a44.8 44.8 0 0 1-.4 7.2c-.3 1.9 2.7 2.5 3 .4.3-2.6.5-5.1.4-7.7 0-2-3-1.8-3 0zm-1.2 11.3a44.2 44.2 0 0 1-.4 1.7c-.6 1.9 2.3 2.8 2.9.8l.4-1.8c.5-2-2.5-2.6-2.9-.7zm7.4-20.2l.8 5.5c.1 2.3 3.1 2.2 3-.2a55.2 55.2 0 0 0-.9-5.9c-.5-2.4-3.4-1.6-3 .6zm1 12a52 52 0 0 1-2.3 13.1c-.7 2.2 2.1 3.2 2.8 1a55 55 0 0 0 2.4-14c0-2.4-3-2.3-3 0zm7.5-17.4a61.5 61.5 0 0 1 1.6 8.8c.3 2.6 3.3 2.5 3-.4a64.6 64.6 0 0 0-1.7-9.1c-.7-2.8-3.6-1.8-2.9.7z" fill="#fff"/><path d="M238.7 106.6a61 61 0 0 1 0 4c-.1 2.6 2.8 2.9 3 0a64 64 0 0 0 0-4c0-2.9-3-2.6-3 0zm-.7 11a61.4 61.4 0 0 1-2 8.4c-.8 2.6 2 3.6 3 .9a64.6 64.6 0 0 0 2-8.8c.4-2.8-2.6-3-3-.4zm11.4-5.4a72.3 72.3 0 0 1-3 17c-1 3 1.8 4 2.8.8a75.2 75.2 0 0 0 3.2-17.7c.1-3.3-2.9-3.3-3-.1z" fill="#fff"/><path d="M254.2 81.2c3.3.4 4.6 7.2 5.2 9.6 1.4 5.4 1.6 11 1.7 16.5a72.5 72.5 0 0 1-1.7 16.4c-.6 2.5-2 9.3-5.3 9.6-1.9.2-1.9 3.2 0 3 3.6-.4 5.5-3.7 6.6-6.8a64 64 0 0 0 3.4-22.2c0-7.4-.7-15.2-3.3-22.2-1.2-3.1-3-6.5-6.6-6.9-2-.2-2 2.8 0 3zm-53.7 0c3.3.4 4.6 7.2 5.2 9.6 1.4 5.4 1.7 11 1.7 16.5a72.5 72.5 0 0 1-1.7 16.4c-.5 2.5-2 9.3-5.2 9.6-2 .2-2 3.2 0 3 3.5-.4 5.4-3.7 6.6-6.8 2.6-7 3.2-14.7 3.3-22.2 0-7.4-.7-15.2-3.3-22.2-1.2-3.1-3-6.5-6.6-6.9-2-.2-2 2.8 0 3z" fill="#fff"/><g fill="#fff"><path d="M270 161.6c8 .5 9 15.5 9.3 21.3a48.6 48.6 0 0 1-2.7 19.2c-2.1 5.8-5.5 6.6-10.7 6.6h-63.5c-4 0-8 0-12-.3-12-1-23.8-6-35.1-10-12.4-4.2-24.8-8-38-9.2-3.5-.4-5 0-5.2-4-.1-4 2-3.9 5.4-4.3 6.8-.7 13.4-2.2 20-4 19.6-5.3 38.6-15.3 59.3-15.3H270c2 0 2-3 0-3h-72.2c-18.8 0-36 7.6-53.6 13.2a175.9 175.9 0 0 1-18.7 4.9c-3.8.7-7.6 1.2-11.4 1.6-1.4.1-3 0-3.8 1.4-1.5 2.6-1.3 5.8-.9 8.7.7 4.3 4.4 3.5 8 3.8 25.4 2 47.8 16.4 73 19.2 10.6 1.2 21.8.3 32.5.3h43c3.5 0 6.5.2 9.4-2.1 5.4-4.3 6.3-14 6.9-20.2.8-9 0-30-12.2-30.8-1.9 0-1.9 3 0 3z"/><path d="M105.6 180.4c1.1 0 3.5.2 3.5 1.7v5.8c0 1.7-2 2-3.5 2-1 0-3.5-.3-3.5-1.7v-5.8c0-1.7 2.1-2 3.5-2 2 0 2-3 0-3-2.3.1-5.2.7-6.2 3.1-.6 1.3-.3 3-.3 4.4l.1 4.5c.4 2.7 4.3 3.4 6.4 3.5 2.3.1 5.3-.9 6.3-3.1.5-1.3.2-3 .2-4.4 0-1.5.1-3-.1-4.5-.4-2.7-4.3-3.4-6.4-3.5-2 0-2 3 0 3z"/><path d="M100.1 188.4v-6.5c0-1.9-3-1.9-3 0v6.5c0 2 3 2 3 0z"/></g><g fill="#fff"><path d="M269.4 227.7c8.5.5 10 15.2 10.6 21.5a62 62 0 0 1-.7 17.3c-1 5.5-3 16-10.3 16h-85.7c-12 0-23.5-3.8-34.6-7.6-12.5-4.3-24.8-9-37.7-12a130.5 130.5 0 0 0-18.6-3c-3.4-.3-5.2.5-5.6-3.3-.2-2.2-.5-6 2.2-6.1a173 173 0 0 0 38.7-8.6c18.7-6 37.1-14.2 57-14.2h84.7c2 0 2-3 0-3h-74.5c-12.8 0-24.7.7-37.1 4.2-12 3.3-23.5 7.9-35.4 11.6a200 200 0 0 1-18.7 4.8c-3.7.8-7.5 1.4-11.2 1.8-2 .3-5.1-.2-6.7 1-2.6 2.3-3.6 13.2.7 14.4 2.3.6 5.2.4 7.6.6 3.8.3 7.5 1 11.2 1.7a178 178 0 0 1 20.5 5.4c19 6 38 15.3 58.4 15.3h78.6c3.6 0 7.7.6 11-1.2 7-3.7 8.3-15.1 9.1-22a67 67 0 0 0-.9-20c-1.3-7-4.2-17-12.6-17.6-2 0-2 3 0 3z"/><path d="M79.5 249.4c1.5 0 4.3.3 4.3 2.2v6.7c0 2.1-2.5 2.5-4.3 2.5-1.4.1-4.2-.3-4.2-2.2V252c0-2.2 2.5-2.5 4.2-2.6 2 0 2-3 0-3-2.6.1-5.8.8-7 3.5-.6 1.5-.2 3.5-.2 5 0 1.7-.1 3.4.1 5 .4 3 4.8 3.9 7.1 4 2.6 0 6-1 7-3.6.6-1.4.3-3.4.3-4.9 0-1.7.1-3.4-.1-5.1-.4-3-4.9-3.8-7.2-3.9-1.9 0-1.9 3 0 3z"/><path d="M73 258.9v-7.5c0-2-3-2-3 0v7.5c0 1.9 3 1.9 3 0z"/></g><path d="M265.7 243.3c1.3 7.3 1.1 15.1.4 22.5-.3 3.5-1.5 16.5-6.5 17-1.9.2-1.9 3.2 0 3 5.8-.6 7.5-8.7 8.5-13.2a79.3 79.3 0 0 0 .5-30.1c-.3-2-3.2-1.1-2.9.8zm-53.9 0a86.7 86.7 0 0 1 .6 22.5c-.3 3.5-1.5 16.5-6.5 17-1.9.2-1.9 3.2 0 3 5.4-.6 7.1-7.5 8.2-11.8a78 78 0 0 0 .6-31.5c-.3-2-3.2-1.1-2.9.8z" fill="#fff"/><path d="M213.3 244.4h53.9c2 0 2-3 0-3h-54c-1.9 0-1.9 3 0 3zm4.5-83a24.4 24.4 0 0 1 2.4 7c.3 2 3.3 1.5 3-.9a27.4 27.4 0 0 0-2.8-7.8c-1.1-1.9-3.5 0-2.6 1.6zm2.8 11.5a26 26 0 0 1 0 2c-.2.9.5 1.7 1.3 1.7s1.6-.9 1.7-2v-2c0-1-.8-1.8-1.6-1.6-.8.2-1.4 1-1.4 2zm6-9a32.7 32.7 0 0 1 1 12.2c-.3 2.8 2.8 2.6 3.1-.5a35.6 35.6 0 0 0-1.4-13.1c-1-2.7-3.5-1-2.7 1.4zm9.9-.2a42.4 42.4 0 0 1 1 10.8c-.3 3.5 2.9 2.7 3-1a45.3 45.3 0 0 0-1.3-11.6c-1-3.4-3.5-1.4-2.8 1.8zm0 91.1c.3 2.8.4 5.5.3 8.2 0 2 2.9 2.7 3 .4a53.2 53.2 0 0 0-.3-8.5c-.3-2.4-3.4-2.3-3 0zm-.3 13.2a48 48 0 0 1-1.6 7.3c-.6 2 2.1 3.2 2.8 1.2a51.2 51.2 0 0 0 1.7-7.7c.3-2.2-2.6-2.8-2.9-.7zm-3 11.4a47.6 47.6 0 0 1-.7 1.6c-.4.7-.2 1.6.5 2 .7.5 1.7.3 2.1-.6l.7-1.6c.4-.9.1-1.8-.6-2.2-.7-.3-1.7 0-2 .8zm10.7-19.1a56.8 56.8 0 0 1-.3 5.8c-.2 2.4 2.7 3.3 3 .9.2-2 .3-4.1.3-6.2 0-2.6-3-3-3-.5zm-1.3 12.5a54.4 54.4 0 0 1-4.3 12.6c-1 2 1.4 3.9 2.5 1.7a57.4 57.4 0 0 0 4.7-13.1c.5-2.5-2.4-3.5-2.9-1.2zm10.8-15.1c.1 3 0 6.1-.2 9.2-.2 2.7 2.6 3.8 3 1 .3-3.1.4-6.3.3-9.6-.2-3-3.3-3.4-3.1-.6zm-.9 14.4a64.8 64.8 0 0 1-.7 3.8c-.3 1.1 0 2.3.7 2.8.7.3 1.7-.2 2-1.4.4-1.3.6-2.6.9-4 .2-1.2-.2-2.4-1-2.7-.8-.3-1.7.3-1.9 1.5zm-2.8 10.7a63.4 63.4 0 0 1-2.3 5.8c-1.2 2.3 1.2 4.4 2.4 2a66.8 66.8 0 0 0 2.6-6.1c.9-2.7-1.8-4.2-2.6-1.7z" fill="#fff"/></svg>