<svg xmlns="http://www.w3.org/2000/svg" width="361" height="361"><path d="M285.5 267.7c-.1-43.5-7.7-89-30.7-126.7-16.4-26.9-42.9-49.1-75.6-49.3-4.8 0-7.1 7-2.6 9.3l.7.3 2.5-9.3c-4.4 0-7.5-.4-10.5-3.6-3.2-3.3-7.3-4.3-11.8-4.4a5 5 0 0 0-5 5c0 4.4-.1 9.8-3 13.5-2 2.5-5.4 2-8.2 3.3a64 64 0 0 0-20.4 13.9c-7.9 8-9.7 19.6-15.5 29a144.3 144.3 0 0 1-19.9 24.8c-4.8 5.1-10.5 10.1-14 16.2a9 9 0 0 0-1.3 7c1.2 4 0-2.3 0-.7 0 1.2.2 2.3.4 3.5a24 24 0 0 0 3.5 7.7c3 5 15.2 20.2 22.3 14a83 83 0 0 1 29.5-14.9c7.5-2.3 14.9-2.4 22.5-3.7A54 54 0 0 0 171 193a50.6 50.6 0 0 0 19.2-41.3l-9.4 2.5c2.2 2.9 2.4 7 2.7 10.6.5 6 .4 12.2.2 18.3a691 691 0 0 1-1.8 36.1c-.7 9.1-3.7 17.8-6 26.6a162.2 162.2 0 0 0-4.4 40.5c0 6.5 10 6.5 10 0 0-13.4 1.1-26.6 4.5-39.6 2.6-9.5 5.2-18.7 6-28.6 1-12.5 1.5-25.1 1.8-37.7.1-6.2 0-12.5-.6-18.7-.5-4.2-1.1-9.1-3.7-12.5-2.9-3.8-9.3-2.9-9.3 2.5a43.2 43.2 0 0 1-8.7 27.2 42.3 42.3 0 0 1-24.5 13.8c-4.6 1-9.4 1-14 1.6-5.2.8-10.2 2.4-15 4.2A88.6 88.6 0 0 0 89.3 214l4.9-1.2c-6.1-1.8-12.4-10.3-14-16.1-.3-1.3-.1-2.4-.7-3.7.3 1.9.5 2.3.4 1.4 0 1.5.4-.3 0 .7.7-1.7 2-3.2 3.3-4.6 10.3-11.8 21.6-22.4 30.2-35.6a85.5 85.5 0 0 0 6.3-12c1.8-4 2.7-8.5 5-12.2 4-6.5 11-11 17.6-14.5a62.8 62.8 0 0 1 3.2-1.5l.6-.3c2.6-1 6.2-1 9-3.6 6.2-5.4 7.4-14.1 7.4-21.9l-5 5c3.7.1 4.2 1.3 6.8 3.6 4.3 3.7 10 4.3 15.5 4.4 4.8 0 7-7 2.6-9.3l-.7-.3-2.5 9.3c29.8.2 52.9 21.2 67.6 45.4 21.8 35.7 28.6 79.4 28.7 120.6 0 6.4 10 6.4 10 0z" fill="#fff"/><path d="M144.2 140.7c6.4 0 6.4-10 0-10s-6.5 10 0 10zm-6-29.2l-13.4-37.2c-2.2-6-11.9-3.5-9.7 2.6l13.4 37.3c2.1 6 11.8 3.4 9.6-2.7z" fill="#fff"/><path d="M116.4 79.1l25.6 28.5c4.4 4.8 11.4-2.3 7.1-7.1L123.5 72c-4.3-4.8-11.4 2.3-7.1 7z" fill="#fff"/></svg>