<svg xmlns="http://www.w3.org/2000/svg" width="361" height="361"><path d="M279 285c-1 5-8 3-12 3h-65c-3 1-11 2-9-4l7-19c1-3 1-6 5-6h78c5 0 4 3 3 5l-7 21c-1 2 2 2 3 0l6-17 2-6c1-3-4-6-7-6h-73c-4 0-7-1-10 2-2 1-2 4-3 6a45878 45878 0 0 0-4 11c-1 3-4 8-3 12s5 4 8 4h66c5 0 17 3 18-6 0-1-3-2-3 0z" fill="#fff"/><path d="M270 275v-4l1-2a74 74 0 0 0-1 3 532 532 0 0 1-2 5 82 82 0 0 1-1 3h-3l2-4a391 391 0 0 1 1-3 232 232 0 0 1 2-3 162 162 0 0 1 2-3h2l-1 2v3l2-3a893 893 0 0 0 3-2h2a100 100 0 0 1-1 3 208 208 0 0 1-3 6 373 373 0 0 1-2 4h-2l1-3 2-3 1-2a176 176 0 0 0 1-3l-1 2a147 147 0 0 0-2 3l-1 1h-2zm-2-8l-6 13h-8l1-3h5l2-2h-5l1-3h5l1-3h-5l1-2h8zm-19 0h8l-6 13h-2l5-11h-6l1-2zm-7-1l4 2-1 5a14 14 0 0 1-2 3 12 12 0 0 1-2 2 10 10 0 0 1-3 1 8 8 0 0 1-2 1 6 6 0 0 1-1 0 5 5 0 0 1-1 0 2 2 0 0 1-1-1l1-2h1a4 4 0 0 0 3 0 6 6 0 0 0 3-2l1-2 1-3-2-1h-3v-2h2a9 9 0 0 1 2-1zm-8 7a15 15 0 0 1-3 5 7 7 0 0 1-5 2l-2-2 1-5 3-5 5-2c2 0 2 1 2 2 1 1 0 3-1 5zm-2 0v-2l1-1v-1h-2l-2 1a10 10 0 0 0-1 1 27 27 0 0 0 0 2 27 27 0 0 0-1 2 6 6 0 0 0-1 1l1 1 1 1 1-1 1-1 1-1a27 27 0 0 0 1-2zm-14 7v-5l1-1-2 1-1 2-1 2a35 35 0 0 1-1 1h-2l1-4a144 144 0 0 1 3-6l1-3h3l-5 10 4-6h2l-1 6 4-10h3a1193 1193 0 0 1-4 6 203 203 0 0 1-3 7h-2zm-2-13l-6 13h-8l1-3h5l1-2h-4l1-3h4l2-3h-6l1-2h9z" fill="#fff"/><path d="M287 242a5 5 0 0 1-5 5h-75a5 5 0 0 1-5-5V80a5 5 0 0 1 5-5h75a5 5 0 0 1 5 5v162z" fill="none" stroke="#fff" stroke-width="10" stroke-miterlimit="10"/><path d="M203 166h9c2 0 5-3 5-5s-3-5-5-5h-8a5 5 0 0 0 0 10zm89 74c-1-6-6-7-12-7h-73a9 9 0 0 0-8 7c-1 5 2 8 6 10h68c7 0 19 2 19-9 0-4-7-4-7 0 0 3-8 2-9 2h-69c-2 0-2-3 1-3h71c2 0 6-1 6 2 1 4 7 3 7-2z" fill="#fff"/><path d="M203 166h9c4 0 4-7 0-7h-9c-4 0-4 7 0 7zm49-53h-15V98h15v15c0 2 3 2 3 0v-10c0-3 1-8-3-8h-10c-3 0-7 0-8 3v10c0 3-1 7 2 8h11c3 0 7 1 8-2 1-2-2-3-3-1zm0 34h-15v-15h15v15c0 2 3 2 3 0v-10c0-3 1-8-3-8h-10c-3 0-7 0-8 3v10c0 3-1 7 2 8h11c3 0 7 1 8-2 1-2-2-3-3-1zm0 32h-15v-15h15v15c0 2 3 2 3 0v-10c0-3 1-8-3-8h-10c-3 0-7-1-8 3v10c0 3-1 7 2 8h11c3 0 7 1 8-2 1-2-2-3-3-1zm0 34h-15v-15h15v15c0 2 3 2 3 0v-10c0-3 1-8-3-8h-10c-3 0-7-1-8 3v10c0 3-1 7 2 8h11c3 0 7 1 8-2 1-2-2-3-3-1zm-142-21l28-26c1-1-1-3-2-2l-28 26c-2 1 0 3 2 2zm-4 15l43-40c1-1-1-4-2-2l-43 40c-1 1 1 3 2 2zm10 4l29-28c1-1-1-3-2-2l-29 28c-2 1 0 3 2 2zm-15-96l21-20c2-1 0-4-2-2l-21 20c-1 1 1 3 2 2zm1 14l33-31c1-2-1-4-2-3l-33 32c-1 1 1 3 2 2zm13 0l23-22c1-1-1-3-2-2l-23 21c-1 2 1 4 2 3z" fill="#fff"/><path d="M154 218c-1 6-10 5-14 5H95c-3 0-12 1-12-5V104c1-5-2-22 5-22h57c4 0 9-1 9 5v131c0 2 3 2 3 0V84c-2-5-6-5-11-5H88c-9 0-8 9-8 16v120c0 4 1 7 3 9 3 2 8 2 12 2h44c7 0 17 1 18-8 0-2-3-2-3 0z" fill="#fff"/><path d="M160 226c0 3-8 2-10 2H85c-2 0-8 1-8-3V94c0-3-2-17 3-17h75c3 0 5 1 5 4v146c0 4 7 4 7 0V82l-1-7c-3-5-7-6-12-6H80c-11 0-10 12-10 19v127c0 7-1 19 9 20h73c7 0 14-1 15-9 0-5-7-5-7 0z" fill="#fff"/></svg>