<svg xmlns="http://www.w3.org/2000/svg" width="361" height="361"><path d="M273 175a7 7 0 0 1-7 8h-74a7 7 0 0 1-7-8v-47a7 7 0 0 1 7-7h74a7 7 0 0 1 7 7v47z" fill="#fff" stroke="#fff" stroke-width="10" stroke-miterlimit="10"/><path fill="none" stroke="#fff" stroke-width="10" stroke-miterlimit="10" d="M172 152h114"/><path d="M168 143v17c0 7 10 7 10 0v-17c0-6-10-6-10 0zm10-41h108c7 0 7-10 0-10H178c-6 0-6 10 0 10zm-80-5v190c0 6 10 6 10 0V97c0-6-10-6-10 0z" fill="#fff"/><path d="M77 222h54c4 0 4-7 0-7H77c-5 0-5 7 0 7zm-3 17h59c5 0 5-7 0-7H74c-5 0-5 7 0 7zm0 9h59c5 0 5-7 0-7H74c-5 0-5 7 0 7zm0 9h59c4 0 4-7 0-7H75c-5 0-5 7 0 7zm3 9h53c4 0 4-7 0-7H77c-4 0-4 7 0 7zm9 17h35c5 0 5-7 0-7H86c-4 0-4 7 0 7zm25-162a4 4 0 0 1-4 4h-8a4 4 0 0 1-4-4V74a4 4 0 0 1 4-4h8a4 4 0 0 1 4 4v47zM74 231h59c5 0 5-7 0-7H74c-5 0-5 7 0 7zm7 43h46c4 0 4-7 0-7H81c-5 0-5 7 0 7zm13 18h19c4 0 4-7 0-7H94c-4 0-4 7 0 7zM281 97v55c0 7 10 7 10 0V97c0-7-10-7-10 0z" fill="#fff"/></svg>