<svg xmlns="http://www.w3.org/2000/svg" width="361" height="361"><circle cx="139.4" cy="102.3" r="19.6" fill="#fff"/><path d="M90.4 179.5l38.8 31.1c3.1 2.6 7.5 3.1 10.6 0 2.6-2.7 3.1-8 0-10.6l-38.9-31.1c-3.2-2.6-7.5-3.1-10.6 0-2.6 2.7-3.1 8 0 10.6z" fill="#fff"/><path d="M112.7 138L89 169.9c-2.4 3.3-.4 8.4 2.8 10.3 3.8 2.2 7.8.5 10.2-2.8l23.8-32c2.5-3.2.5-8.3-2.7-10.2-3.9-2.2-7.8-.5-10.3 2.8zm109.6 87l7.8 41.9c1.8 9.5 16.3 5.5 14.5-4l-7.8-41.8c-1.8-9.5-16.3-5.6-14.6 3.9z" fill="#fff"/><path d="M237.3 274l46.3 3.3c9.7.7 9.7-14.3.1-15l-46.3-3.4c-9.7-.6-9.7 14.4 0 15z" fill="#fff"/><circle cx="258.6" cy="212.2" r="18.3" fill="#fff"/><ellipse transform="rotate(14.7 207.2 239.6)" cx="207.2" cy="239.6" rx="9.3" ry="13.2" fill="#fff"/><path d="M119 209.5l18.7 59.4c4.4 13.8 26.1 8 21.8-5.9l-18.8-59.3c-4.4-13.8-26.1-8-21.7 5.8z" fill="#fff"/><path d="M104.4 277l43.6-.6c14.5-.3 14.7-22.8.2-22.5l-43.7.6c-14.5.3-14.6 22.8-.1 22.5zm15.4-33l47-26.8c12.5-7.2 1.2-26.6-11.5-19.4l-46.9 26.8c-12.5 7.1-1.2 26.6 11.4 19.4z" fill="#fff"/><path d="M127.8 126.2a18.9 18.9 0 0 0-18.9 18.8v63a18.9 18.9 0 1 0 37.8 0v-63a18.9 18.9 0 0 0-19-18.8z" fill="#fff"/><path d="M141.9 206.6a18 18 0 0 0 13.6 21.7l59.8 15.3a18 18 0 0 0 22.3-12.5 18.1 18.1 0 0 0-13.6-21.6l-59.8-15.3a18 18 0 0 0-22.3 12.4zm-67.4 16.2l32.9 22.4c5 3.5 12.4 1 15.3-4 3.2-5.7 1-12-4.1-15.4l-32.9-22.5c-5-3.5-12.4-.9-15.3 4.1-3.3 5.6-1 12 4.1 15.4z" fill="#fff"/></svg>