<svg xmlns="http://www.w3.org/2000/svg" width="361" height="361"><path d="M158 204c6 0 6-10 0-10s-7 10 0 10z" fill="#fff"/><path d="M133 152c1 18 23 24 38 24v-10h-1c-6 0-6 10 1 10h63l-5-5c0 34 3 71-22 98a35 35 0 0 1-47 5c-19-13-26-40-27-62v-7c0-6-10-6-10 0 0 24 6 49 22 68a46 46 0 0 0 48 16c21-6 33-26 40-45 6-18 6-36 6-55v-18a5 5 0 0 0-5-5h-63c-7 0-7 10 0 10 6 0 6-10 0-10-9 0-27-2-28-14 0-6-10-6-10 0z" fill="#fff"/><path d="M205 204c6 0 6-10 0-10s-7 10 0 10zm-24-88h35a5 5 0 0 0 5-4l10-32c1-5-4-8-7-6l-28 17 6 1-10-11c-2-3-7-11-11-11s-9 8-11 10l-10 12 6-1-28-17c-4-2-8 1-7 6l9 32a5 5 0 0 0 5 4h36c6 0 6-10 0-10h-36l5 3-10-32-7 6 28 17c2 1 5 1 6-1l17-20-3 1-4-1 17 20c2 2 5 2 6 1l28-17-7-6-10 32 5-3h-35c-6 0-6 10 0 10z" fill="#fff"/><path d="M146 261H80c1-46 14-95 46-129a94 94 0 0 1 20-16h-1a5 5 0 0 1-4-4l-2-4c-20 13-35 33-46 54-16 32-23 69-23 104a5 5 0 0 0 5 5h71c6 0 6-10 0-10zm102-131a106 106 0 0 0-25-22l-2 4a5 5 0 0 1-5 4 86 86 0 0 1 6 3c20 14 34 37 44 59 11 26 16 55 16 83h-65c-6 0-6 10 0 10h70a5 5 0 0 0 6-5c-1-48-13-99-45-136z" fill="#fff"/></svg>