<svg xmlns="http://www.w3.org/2000/svg" width="361" height="361"><path d="M139 157l46-80h-8l46 81 5-8h-93c-7 0-7 10 0 10h93a5 5 0 0 0 4-7l-47-81a5 5 0 0 0-8 0l-47 81c-3 5 6 10 9 5z" fill="#fff"/><path d="M194 281c0 3-3 5-7 5h-14c-4 0-7-2-7-6v-7c0-4 3-6 7-6h14c4 0 7 2 7 6v8z" fill="none" stroke="#fff" stroke-width="10" stroke-miterlimit="10"/><path d="M117 217l34-60-4 3h68l-4-2 34 59 4-7H113c-7 0-7 10 0 10h136a5 5 0 0 0 5-8l-35-59c-2-4-6-3-9-3h-63a5 5 0 0 0-4 3l-35 59c-3 6 6 11 9 5z" fill="#fff"/><path d="M99 269l30-52-5 3h112l-5-3 30 52 5-7H94c-6 0-6 10 0 10h172a5 5 0 0 0 4-8l-17-30-11-18c-1-3-3-6-7-6H124a5 5 0 0 0-4 2l-30 52c-3 6 5 11 9 5z" fill="#fff"/></svg>