<svg xmlns="http://www.w3.org/2000/svg" width="361" height="361"><g stroke="#fff" stroke-miterlimit="10"><circle cx="181.3" cy="180.8" r="106" fill="none" stroke-width="10"/><path d="M194.5 100.1a185.6 185.6 0 0 0-6-22.3c10.4-1.2 14.8-.5 20.6 3.8a3515.1 3515.1 0 0 1 25.5 11c7.1 1.3 10.6 4 16.8 12.4-5.9 2.6-10.2 5-20.4 11a839 839 0 0 0-36.5-15.9zM98 170.7a476 476 0 0 1 .9-37.2 295.4 295.4 0 0 1 28.3-26 380.3 380.3 0 0 1 35.2 11.1l4.3 41.2a1996.7 1996.7 0 0 0-35.4 26.9 832.2 832.2 0 0 1-33.3-16zm113.6 50.7a2000.5 2000.5 0 0 0-4.6-44.2c11-8.3 22-16.6 32.8-25a377.6 377.6 0 0 1 32.2 18c1 12.8 1.1 25.6.4 38.4a481.5 481.5 0 0 1-26.4 26.1 832.8 832.8 0 0 1-34.5-13.3zM116 264.9c-2.6-5.2-4.7-10.7-6.9-16.4l27.3-18.9a1003.8 1003.8 0 0 0 39.8 17.3l5 32.7c-5 2-9.7 4-14.6 5.6-4.3 1.5-49-16.9-50.6-20.2z" fill="#fff" stroke-width="7" stroke-linecap="round" stroke-linejoin="round"/></g></svg>