<svg xmlns="http://www.w3.org/2000/svg" width="361" height="361"><path d="M127 146l139-57 23-9c6-2 3-12-3-9l-138 56-23 9c-6 3-4 12 2 10zm150 140a6 6 0 0 1-6 6H144a6 6 0 0 1-6-6v-12a6 6 0 0 1 6-6h127a6 6 0 0 1 6 6v12zm-38-73l-6 28c-1 7 8 9 10 3l5-28c2-7-8-9-9-3z" fill="#fff"/><path d="M232 244v24c0 7 10 7 10 0v-24c0-6-10-6-10 0z" fill="#fff"/><path d="M237 239h-29c-6 0-6 10 0 10h29c7 0 7-10 0-10z" fill="#fff"/><path d="M205 247l-3 22c0 6 10 6 10 0l3-22c1-7-9-7-10 0zm-50-10v30c0 6 10 6 10 0v-30c0-6-10-6-10 0z" fill="#fff"/><path d="M141 237h55c6 0 6-10 0-10h-55c-7 0-7 10 0 10zm25 44H75c-7 0-7 10 0 10h91c6 0 6-10 0-10z" fill="#fff"/><path d="M173 236v30c0 6 10 6 10 0v-30c0-6-10-6-10 0z" fill="#fff"/><path fill="none" stroke="#fff" stroke-width="10" d="M269 87v184"/></svg>