<svg xmlns="http://www.w3.org/2000/svg" width="361" height="361"><path d="M269 262c0 4 3 8 7 8h11c3-3 4-6 4-10V101c-1-4-4-7-9-7-3 0-8 0-10 2-5 5-3 14-3 21v145c0 4 7 4 7 0V105c0-5 8-5 8-2v159c0 2-8 3-8 0-1-5-8-5-7 0zm-59-129l51-21c2 0 1-3 0-3l-52 21c-2 1-1 4 0 3zm-3 19l53 34c2 1 3-2 2-3l-54-34c-1-1-3 2-1 3zm-16-5c-1 4-5 3-8 3s-4-2-4-4v-13c0-4 6-3 8-2 4 0 4 2 4 5v12c-1 2 2 2 3 0v-9c0-3 1-7-1-9-2-3-6-3-9-3-4 0-7 1-8 5v18c4 5 16 5 17-2 1-2-2-3-2-1z" fill="#fff"/><path d="M187 129l-1 23c0 2 3 2 3 0l1-23c0-2-3-2-3 0zm-13 27c-1 4-8 2-11 2l-22-1-40-1c-5 0-3-6-3-10v-18c1-4 10-2 11-2l22 1 40 1c5 0 3 6 3 10l-1 18c0 5 7 5 7 0l1-17c0-6 2-14-5-17l-11-1-22-1-40-1c-6-1-11 2-11 9l-1 18c0 4-1 9 1 12s5 5 9 5l26 1 34 1c7 0 18 2 19-8 1-4-6-6-6-1z" fill="#fff"/><path d="M104 137l32 1c2 0 2-3 0-3l-32-2c-2 1-2 4 0 4zm0-5l32 1c2 0 2-3 0-3l-32-1c-2 0-2 3 0 3zm0 10l32 1c2 0 2-3 0-3l-32-2c-2 0-2 3 0 3zm84-62h99c6 0 6-10 0-10h-99c-7 0-7 10 0 10zM87 172l89 20c6 2 9-8 3-9l-89-21c-7-1-9 9-3 10zM75 80h16c6 0 6-10 0-10H75c-6 0-6 10 0 10z" fill="#fff"/><path d="M84 77h113c5 0 5-7 0-7H84c-4 0-4 7 0 7z" fill="#fff"/></svg>