<svg xmlns="http://www.w3.org/2000/svg" width="361" height="361"><path d="M273.5 176.3c7.5 0 13.7-6.2 13.7-13.7V146c0-7.5-6.1-13.7-13.7-13.7H252a13.7 13.7 0 0 0-13.6 13.7v16.7c0 .2-2.2 0-3.4 0H126c-1.1 0-3.3.2-3.3 0V146c0-7.5-6.1-13.6-13.6-13.6H87.6A13.7 13.7 0 0 0 73.9 146v16.7c0 7.6 6.1 13.7 13.7 13.7v8.8a13.7 13.7 0 0 0-13.7 13.7v16.7c0 7.5 6.1 13.6 13.7 13.6h21.6c7.5 0 13.6-6 13.6-13.6v-16.7c0-.3 2.2-.3 3.3-.3h108.7c1.3 0 3.4 0 3.4.2v16.7c0 7.6 6.2 13.7 13.7 13.7h21.6c7.5 0 13.7-6.1 13.7-13.7v-16.7c0-7.5-6.2-13.6-13.7-13.6v-8.9z" fill="none" stroke="#fff" stroke-width="10" stroke-linecap="round" stroke-linejoin="round" stroke-miterlimit="10"/></svg>