<svg xmlns="http://www.w3.org/2000/svg" width="361" height="361"><path d="M213 181v107c0 5 7 5 7 0V181c0-5-7-5-7 0zm71 0v107c0 5 7 5 7 0V181c0-5-7-5-7 0zM70 82v206c0 5 7 5 7 0V82c0-5-7-5-7 0zm99 0v206c0 5 7 5 7 0V82c0-5-7-5-7 0z" fill="#fff"/><path d="M169 84H74c-5 0-5 7 0 7h95c5 0 5-7 0-7zm0 55H74c-5 0-5 7 0 7h95c5 0 5-7 0-7zm0 55H74c-5 0-5 7 0 7h95c5 0 5-7 0-7zm0 72H74c-5 0-5 7 0 7h95c5 0 5-7 0-7z" fill="#fff"/><path d="M128 190c1 0 1 0 0 0h-18 1v-22 1h18l-1-1v23c0 2 3 2 3 0v-13c0-3 2-10 0-12h-13c-3 0-9-2-10 2v13c0 2-2 9 0 12h13c3 0 9 2 10-2 1-2-2-2-3-1zm-19-27h21c2 0 2-3 0-3h-21c-2 0-2 3 0 3zm-8 27s1 0 0 0H83s0 1 0 0v-22 1h18v-1 23c0 2 3 2 3 0v-13c0-3 1-10-1-12H91c-3 0-9-2-11 2v13c0 2-1 9 1 12h13c3 0 9 2 10-2 1-2-2-2-3-1zm-19-27h20c3 0 3-3 1-3H82c-2 0-2 3 0 3zm72 28l1-1h-14l1 1v-16l-1 1h14l-1-1v16c0 2 3 2 3 0v-9c0-2 1-7-1-8-2-2-7-1-9-1s-6-1-8 2v9c0 2-1 7 1 8 2 2 7 1 9 1s7 1 8-2c0-1-3-2-3 0zm-13-20h14c2 0 2-3 0-3h-14c-2 0-2 3 0 3zm20-37c0 3-6 2-9 2l-1-9v-11c0-4 2-6 4-10a17 17 0 0 0 1-5v-1l1 4c1 4 4 7 4 11v19c0 2 3 2 3 0v-12c0-5 0-9-2-13l-3-8c0-3 0-4-3-5-2 0-3 2-3 4 0 4-2 7-4 10l-1 11v13c0 5 3 5 8 5 4 0 8 1 8-5 0-2-3-2-3 0z" fill="#fff"/><path d="M155 97h2c2 0 2-3 0-3h-2c-2 0-2 3 0 3zm-12 37c0 3-6 2-9 2v-20c0-4 1-6 3-10a17 17 0 0 0 1-5v-1l1 4c1 4 4 7 4 11v19c0 2 3 2 3 0v-12l-1-13-4-8c0-3 0-4-3-5-2 0-3 2-3 4 0 4-2 7-4 10l-1 11v13c0 5 3 5 8 5 4 0 8 1 8-5 0-2-3-2-3 0z" fill="#fff"/><path d="M137 97h2c2 0 2-3 0-3h-2c-2 0-2 3 0 3zm-46 38c0 2-6 2-6 0v-13l2-7 1-4-1 1 1 3c1 2 3 4 3 7v13c0 2 3 2 3 0 0-5 1-13-1-18l-3-7a2 2 0 0 0-2-2l-2 1-3 8-1 9v10c0 3 4 3 6 3 4 0 6 0 6-4 0-2-3-2-3 0z" fill="#fff"/><path d="M87 109h2c2 0 2-3 0-3h-2c-2 0-2 3 0 3zm16 26c1 2-5 2-5 0v-13l2-7 1-4-1 1a19 19 0 0 0 1 3l2 7v13c0 2 3 2 3 0 0-5 2-13 0-18-1-2-3-4-3-7a2 2 0 0 0-2-2l-2 1-3 8-1 9v10c0 3 3 3 6 3s6 0 6-4c0-2-3-2-3 0z" fill="#fff"/><path d="M100 109h1c2 0 2-3 1-3h-2c-2 0-2 3 0 3zm188 70h-71c-5 0-5 7 0 7h70c5 0 5-7 1-7zm0 97h-71c-5 0-5 7 0 7h70c5 0 5-7 1-7zm-71-74c4 1 4-6 0-6s-5 7 0 7zm70 1c5 0 5-7 1-7s-5 7 0 7zm-172 57c0 5-6 4-9 4H94c-5 0-12 1-12-6v-41c0-7 8-5 13-5 3 0 20-3 20 3v45c0 2 3 2 3 0v-38c0-3 1-10-3-12-4-3-12-1-17-1-4 0-13-2-17 1-3 4-2 9-2 13v38c1 8 15 6 20 6 6 0 18 2 19-7 0-2-3-2-3 0zm15 3c-5-1-3-12-3-14v-6c0-2 4-2 5-2h27c4 0 2 13 2 15s1 7-2 7h-30c-2 0-2 3 0 3h31c6-1 5-9 5-14 0-4 1-13-5-14h-31c-6 0-5 9-5 13 0 5-2 14 5 15 2 0 3-3 1-3z" fill="#fff"/><path d="M133 238c-5-1-3-11-3-14v-5c0-3 4-2 5-2h27c4 0 2 13 2 15 0 1 1 6-2 6h-30c-2 0-2 3 0 3h31c6-1 5-9 5-13 0-5 1-13-5-14h-31c-6 0-5 9-5 13 0 5-2 13 5 14 2 0 3-3 1-3zm113-40a9 9 0 0 0-9-9c-5 0-8 5-9 9 0 5 5 9 9 9 5 0 9-4 9-9 0-2-3-2-3 0 0 8-11 8-12 0 0-7 12-7 12 0 0 2 3 2 3 0zm19 0a9 9 0 0 0-9-9c-5 0-8 5-8 9-1 5 4 9 8 9 5 0 9-4 9-9 0-2-3-2-3 0 0 8-11 8-11 0-1-7 11-7 11 0 0 2 3 2 3 0zm19 0a9 9 0 0 0-9-9c-5 0-8 5-8 9-1 5 4 9 8 9 5 0 9-4 9-9 0-2-3-2-3 0 0 8-11 8-11 0-1-7 11-7 11 0 0 2 3 2 3 0zm-47 22a9 9 0 0 0-8-8c-5-1-9 4-9 8-1 6 4 9 9 9 5 1 8-4 8-8 0-2-3-2-3 0 0 7-11 7-11 0-1-8 11-8 11 0h3zm19 1a9 9 0 0 0-8-9c-5-1-9 4-9 8-1 6 4 9 9 9 5 1 8-4 8-8 0-2-3-2-3 0 0 7-11 7-11 0-1-8 11-8 11 0h3zm19 0a9 9 0 0 0-8-9c-5-1-9 4-9 8-1 6 4 9 9 9 5 1 8-4 8-8 0-2-3-2-3 0 0 7-11 7-11 0-1-8 11-8 11 0h3zm-28 22a9 9 0 0 0-9-9c-5-1-9 4-9 8 0 6 4 9 9 9 5 1 8-4 9-8 0-2-3-2-3 0-1 7-12 7-12 0 0-8 11-8 12 0 0 2 3 2 3 0zm19 0a9 9 0 0 0-9-9c-5-1-9 4-9 8 0 6 4 9 9 9 5 1 9-4 9-8 0-2-3-2-3 0-1 7-11 7-12 0 0-8 11-8 12 0 0 2 3 2 3 0zm19 0a9 9 0 0 0-9-9c-5-1-9 4-9 8 0 6 4 9 9 9 5 1 9-4 9-8 0-2-3-2-3 0-1 7-11 7-12 0 0-8 11-8 12 0 0 2 3 2 3 0zm-47 22a9 9 0 0 0-9-9c-5 0-9 4-9 9s4 8 9 9c5 0 9-5 9-9 0-2-3-2-3 0 0 7-11 7-12 0 0-8 12-8 12 0 0 2 3 2 3 0zm19 0a9 9 0 0 0-9-9c-5 0-8 4-9 9 0 5 5 8 9 9 5 0 9-5 9-9 0-2-3-2-3 0 0 7-11 7-12 0 0-8 12-8 12 0 0 2 3 2 3 0zm19 0a9 9 0 0 0-9-9c-5 0-8 4-9 9 0 5 5 8 9 9 5 0 9-5 9-9 0-2-3-2-3 0 0 7-11 7-12 0 0-8 12-8 12 0 0 2 3 2 3 0zm2-93v1l2-2h-30l2 2v-14c0-4-2-11 0-15l-2 3 4-1h21l5 1-2-3v29c0 4 7 4 7 0v-18c0-5 2-13-4-16h-28l-6 1c-4 3-2 14-2 17v18c2 5 12 3 16 3h19c3 0 4-2 5-4 2-4-5-6-7-2z" fill="#fff"/><path d="M280 134c1-1 2-1 0-1h-31c-2 0 1 3 1 1 0 2-3 2-1 2h32c2 0-1-3-1 0 0 4 7 4 7 0 0-5-2-7-7-7h-28c-4 0-8 0-9 4-2 10 14 7 19 7h15c4 0 7 1 9-3s-4-7-6-3zm-63 77h70c3 0 3-3 1-3h-71c-2 0-2 3 0 3zm-1 22h71c2 0 2-3 0-3h-70c-2 0-2 3 0 3zm1 22h70c3 0 3-3 1-3h-71c-2 0-2 3 0 3z" fill="#fff"/></svg>