<svg xmlns="http://www.w3.org/2000/svg" width="361" height="361"><path d="M286.8 238.7c0 1.7-2.6 3-5.8 3H80.6c-3.2 0-5.8-1.4-5.8-3v-17.1c0-1.6 2.6-3 5.8-3H281c3.2 0 5.8 1.4 5.8 3v17.1z" fill="#fff" stroke="#fff" stroke-width="10" stroke-miterlimit="10"/><path d="M69.8 97.7v165.2c0 6.5 10 6.5 10 0V97.7c0-6.5-10-6.5-10 0zm212 0v166.1c0 6.5 10 6.5 10 0V97.7c0-6.5-10-6.5-10 0z" fill="#fff"/><path d="M214.8 138c0 3.2-3 5.8-6.5 5.8H89c-3.6 0-6.5-2.6-6.5-5.7v-25.2c0-3.2 3-5.7 6.5-5.7h119.3c3.6 0 6.5 2.5 6.5 5.7V138z" fill="#fff" stroke="#fff" stroke-width="10" stroke-miterlimit="10"/><path d="M223 110.1v28c0 9.7 15 9.8 15 .1v-28c0-9.7-15-9.7-15 0z" fill="#fff"/><path d="M263.6 130.7h-33c-9.7 0-9.8 15-.1 15h33c9.6 0 9.7-15 0-15z" fill="#fff"/><circle cx="254.8" cy="114.3" r="13.7" fill="#fff"/><path d="M206.6 204.7H89.4c-11.2 0-9.5-11.7-9.5-19.2 0-7.6-2.2-18.3 7.2-21 2.4-.7 5.7-.3 8.2-.3h111.2c11.2 0 9.6 11.8 9.6 19.3 0 8.2 2.2 20.6-9.5 21.2-2 .1-2 3.1 0 3 7.7-.4 12.5-5.6 12.5-13.2V174c0-7.2-5.2-12.8-12.5-12.8H89.4c-7.8 0-12.5 6-12.5 13.3V195c0 7.1 5.1 12.7 12.5 12.7h117.2c2 0 2-3 0-3zm59 0h-25.4c-6 0-12.8-.9-13.3-8.5-.5-7 .7-14.5 9.4-15 8.4-.4 17 0 25.4 0 6 0 12.8 1 13.3 8.5.5 7.1-.7 14.5-9.5 15-1.9.1-2 3.1 0 3 8.2-.4 12.5-6 12.5-13.8 0-7.7-2-14-10.7-15.5-4.9-.9-10.4-.2-15.4-.2h-15.6c-8.2 0-12.4 6.3-12.4 13.8 0 7.7 2 14.1 10.7 15.6 4.9.8 10.4.1 15.3.1h15.6c2 0 2-3 0-3z" fill="#fff"/></svg>