<svg xmlns="http://www.w3.org/2000/svg" width="361" height="361"><path d="M157 71l-13 14c-5 4 2 11 7 7l13-14c5-5-2-12-7-7zm35 39h-36c-7 0-7 10 0 10h36c6 0 6-10 0-10zM80 162l13-14c5-5-2-12-7-7l-13 14c-5 4 2 11 7 7zm43 27v-36c0-6-10-6-10 0v36c0 6 10 6 10 0zm52-23l-25-25c-5-5-12 2-7 7l25 25c5 5 12-2 7-7z" fill="#fff"/><path d="M192 110h-36c-7 0-7 10 0 10h36c6 0 6-10 0-10zm-69 79v-36c0-6-10-6-10 0v36c0 6 10 6 10 0zm52-23l-25-25c-5-5-12 2-8 7l26 25c5 5 12-2 7-7zm-11-75l-10 4c-2 1-4 4-3 6 0 3 3 5 6 4l10-4c2-1 4-4 3-6 0-3-3-5-6-4zm3 40l-10-4c-3-1-6 1-7 3 0 4 1 6 4 7l10 4c3 1 6-1 6-3 1-3-1-6-3-7zm-25 30l-4-10c-1-3-3-4-6-3-2 0-5 3-4 6l5 10c1 2 3 4 6 3 2 0 4-3 3-6zm-38 3l4-10c1-3-1-6-4-7-3 0-5 2-6 4l-4 10c-1 3 1 6 3 6 3 1 6-1 7-3zm29-91l-3 6c-1 2 1 5 4 6s5-1 6-4l2-5c1-3-1-6-3-7-3 0-5 1-7 4zm-56 65l6-2c2-1 4-4 3-7 0-2-3-4-6-3l-6 2c-2 1-4 4-3 7 1 2 4 4 6 3z" fill="#fff"/><path d="M92 124c0 8 7 15 15 15h19c8 0 15-7 15-15v-18c0-8-7-15-15-15h-19a15 15 0 0 0-15 15v18z" fill="none" stroke="#fff" stroke-width="10" stroke-miterlimit="10"/><path d="M120 254l13-16c2-3 2-5 0-7s-5-3-7 0l-13 16c-2 2-2 5 0 7 1 2 5 2 7 0z" fill="#fff"/><path d="M130 238l21-2c7-1 7-11 0-10l-21 2c-6 1-6 11 0 10zm-13 9l-21-5c-7-2-9 8-3 9l21 5c6 2 9-8 3-10z" fill="#fff"/><path d="M91 242l-19 12c-5 3 0 12 5 8l19-11c5-3 0-12-5-9zm88 21l11-9c2-2 1-5 0-7a5 5 0 0 0-7 0l-11 9c-2 2-2 6 0 7 2 2 5 2 7 0z" fill="#fff"/><path d="M186 255l14 3c6 2 9-8 2-9l-14-4c-6-2-9 8-3 10zm-9 1l-13-6c-3-1-6-1-7 2-2 2-1 6 1 7l14 5c2 2 5 1 7-1 1-2 0-6-2-7z" fill="#fff"/><path d="M158 251l-12 8c-2 2-3 5-1 7 1 2 4 4 6 2l12-9c2-2 3-4 2-7-1-2-5-3-7-2z" fill="#fff"/><g fill="#fff" stroke="#fff" stroke-width="10" stroke-miterlimit="10"><path d="M250 222c0 2-2 3-4 3h-35c-2 0-4-1-4-3v-26c0-2 2-4 4-4h35c2 0 4 2 4 4v26z"/><path d="M187 207a6 6 0 0 0 6 6h28a6 6 0 0 0 6-6v-17a6 6 0 0 0-6-6h-28a6 6 0 0 0-6 6v17z"/><path d="M176 207a6 6 0 0 1 5-6h34a6 6 0 0 1 6 6v9a6 6 0 0 1-6 6h-34a6 6 0 0 1-6-6v-9z"/><path d="M265 208a6 6 0 0 0-6-5h-33a6 6 0 0 0-6 6v9a6 6 0 0 0 6 6h33a6 6 0 0 0 6-6v-10z"/></g><g fill="#fff" stroke="#fff" stroke-width="10" stroke-miterlimit="10"><path d="M287 152c0-2-2-4-4-4h-27a5 5 0 0 0-5 4v8c0 3 2 5 5 5h27a5 5 0 0 0 4-5v-8z"/><path d="M241 155c0 3 2 4 5 4h22c2 0 4-1 4-4v-10c0-2-2-4-4-4h-22c-3 0-5 2-5 4v10z"/><path d="M263 151a4 4 0 0 0-4-4h-23a4 4 0 0 0-4 4v7a4 4 0 0 0 4 4h23a4 4 0 0 0 4-4v-7z"/></g></svg>