<svg xmlns="http://www.w3.org/2000/svg" width="361" height="361"><path d="M158.2 179.4h-6.4l3.5 3.5c0-7-.2-14.7-9.4-14.7-3.9 0-7.7 1-9.4 5-1.3 3-.8 6.6-.8 9.8l3.5-3.6c-7 0-14.7.3-14.7 9.4 0 4 1 7.8 5 9.5 3 1.2 6.5.8 9.7.8l-3.5-3.5c0 7 .3 14.7 9.4 14.7 4 0 7.8-1 9.4-5 1.3-3 .8-6.6.8-9.7l-3.5 3.5c5.5 0 11.6.7 14.1-5.3 2.4-5.7-.3-13.4-6.8-14.2-4.4-.6-6.3 6.1-1.9 6.7 2.6.4 3.6 5.8.8 5.8h-6.2a3.5 3.5 0 0 0-3.5 3.5c0 2.4 1.2 7.7-2.4 7.7-4.4 0-3.2-4.4-3.2-7.7 0-2-1.6-3.5-3.5-3.5-2.4 0-7.7 1.2-7.7-2.4 0-2.1.3-3.2 2.7-3.2h5c2 0 3.5-1.7 3.5-3.6 0-2.4-1.2-7.7 2.4-7.7 4.5 0 3.2 4.4 3.2 7.7 0 2 1.6 3.5 3.5 3.5h6.4c4.5 0 4.5-7 0-7zM130 147.5c-.7 15.5-23.3 15.5-24 0-.3-6.8 5.7-11.7 12-12 6.8-.3 11.7 5.7 12 12 .2 4.5 7.2 4.5 7 0a19.4 19.4 0 0 0-19-19c-10.7-.5-18.6 9-19 19-.5 10.7 9 18.6 19 19 10.7.5 18.6-9 19-19 .2-4.5-6.8-4.5-7 0z" fill="#fff"/><path d="M278.1 143.4c-2-8.6-3.7-19-9.5-26a42.1 42.1 0 0 0-15.6-11c-5.5-2.3-12.3-2-18.2-2-4.9 0-9.8.2-14.6 1.2a17 17 0 0 0-11.4 7.3l-1 1.6c.6-.9-.5.3-.1 0-.9.6-3.6 1-6 1-7.9.3-15.9 0-23.8 0-7 0-15.6 1.3-22.3-.5-1.3-.3-.3.1-1.5-.7.8.6-.4-.6 0 0-1-1.5-1.8-3-3-4.2-4.3-4.5-11.4-5.1-17.2-5.5-11-.8-23-.8-32.2 6-4.6 3.4-8.8 6.3-11.3 11.6-3.5 7.4-5 15.7-7 23.6a586.7 586.7 0 0 0-9.6 44.1 226 226 0 0 0-3.2 27 48 48 0 0 0 2 20c4 9.8 14.4 19.2 25.1 19.9 8.6.5 17.5-9 23.8-13.8 8-6 16.2-12.3 25.1-17.1 6.9-3.7 15.8-3 23.4-3.1 12.6-.2 25.8-1 38.3.8 8.1 1.2 15.3 7 21.8 11.7 7.9 5.6 15.5 11.6 23.2 17.3 13.6 10.1 30.6-2 36.1-15.7 3.9-9.5 2.3-21.4 1.2-31.3-2.4-21-7.5-41.6-12.4-62.2-1.5-6.3-11.2-3.6-9.7 2.6 3 12.6 6.1 25 8.6 37.7a273 273 0 0 1 4 27.2c.6 6.9 1.2 14.3-.5 21a26 26 0 0 1-6.8 9.7c-4.8 5-9.7 6.6-15.5 2.4-7.7-5.7-15.3-11.7-23.1-17.3-6.7-4.8-14.3-10.7-22.5-12.4-8.6-1.8-17.7-1.6-26.4-1.5-12.7 0-26-1.2-38.4 1.8-8.4 2-16.3 8.7-23.1 13.6-7.5 5.4-14.7 11.2-22.2 16.6-8.7 6.3-19.6-6.5-21.4-14.1-1.6-7-.7-14.8 0-21.9a372 372 0 0 1 9.5-51.2l3.8-15.2c1.6-6.6 3.2-15.8 8-20 1-1 4.6-3.5 6.6-4.9 5.3-3.5 12.1-3 18.2-3.1a53.2 53.2 0 0 1 15.4 1.8c1.5.8.6.2 1.6 1.2.8.9-.7-.9 0 0l.5.9 1 1.5a13 13 0 0 0 5.8 4.4c6.1 2.5 14.1 1.4 20.5 1.4H198c5.5 0 11.8.2 16.3-3.7 1.1-1 2-2.2 2.8-3.4 1-1.5.8-1.3 1.5-1.8 5.4-3.6 16.2-2.4 22.8-2.1a30 30 0 0 1 19.2 8.7c4.7 4.7 6.3 16 8 22.7 1.4 6.3 11 3.6 9.5-2.6z" fill="#fff"/><path d="M226 189.3c-.7 15.4-23.3 15.4-24 0-.3-6.8 5.7-11.8 12-12 6.8-.3 11.7 5.6 12 12 .2 4.5 7.2 4.5 7 0a19.4 19.4 0 0 0-19-19c-10.7-.5-18.6 9-19 19-.5 10.6 9 18.5 19 19 10.7.4 18.6-9 19-19 .2-4.6-6.8-4.5-7 0z" fill="#fff"/><circle cx="227.6" cy="149.2" r="6.3" fill="#fff"/><circle cx="255.1" cy="149.2" r="6.3" fill="#fff"/><g fill="#fff"><circle cx="241.3" cy="135.4" r="6.3"/><circle cx="241.3" cy="162.9" r="6.3"/></g><path d="M96 131.2c3.3-10.1 19.3-9 27.7-8.8 4.5.1 8.2-.4 11 3.6 2.3 3.4 3.8 7.4 5.7 11.1 2.6 5 6 9 11.8 8.9h58.6c6.7 0 10.1-8.4 12.5-13.4 1.5-3.2 3-7.2 6.1-9.3 1.6-1.1 4.3-.7 6-.8 2.9-.1 5.6-.2 8.4-.1 7.3 0 19 .5 21.6 8.8.6 1.9 3.5 1 2.9-.8-2.6-7.9-11-9.9-18.3-10.7-4.8-.5-9.7-.4-14.5-.2-3.5.1-6.3 0-9 2.2-5.9 5-6.5 14-11.9 19.5-1.9 2-4 1.8-6.5 1.8a6263.5 6263.5 0 0 0-52.5 0c-2 0-4.1.2-6.1-.2-4-.9-6.3-6.6-7.9-9.9-2.7-5.5-5.1-13-12.3-13.3-11-.4-31.7-2.8-36.1 10.8-.6 1.9 2.3 2.7 2.9.8z" fill="#fff"/></svg>