<svg xmlns="http://www.w3.org/2000/svg" width="361" height="361"><path d="M193.4 166h-50.3c-6.4 0-6.4 10 0 10h50.3c6.5 0 6.5-10 0-10z" fill="#fff"/><path d="M290 227.7c-15.6-30.2-41.6-55.3-77.4-55.3H103l4.8 6.3 9.9-47-4.9 3.6 72.7-.2c5.3 0 11-.9 12.8-7 2.3-7.6 1.2-17.9-6.8-21.2-2.6-1.1-7.1-.3-9.8-.3h-19.8l-46.2.1h-11.2c3.5 0-1.2 0-1.6-.1-2.3-.3-4.8 1.4-6.5 2.7-1.8 1.4-3 4-3.4 6.2L77.3 190l-6.8 32.8c-1.3 6-.4 12.5 5.9 15.3 7.2 3.2 14.7 3 22.4 2.7 18.3-.6 36.8 0 55.1 0h119.5c7.5 0 20.3-.7 17-12-1.7-6.2-11.3-3.5-9.6 2.7-.5-1.8 1-.7-.5-.7H104c-4.4 0-25.3 1.5-24.3-3.6l15-72 7.3-34.7.5-2.6c.4-2 .6-1.2 2-1.2H115l46-.2h25.8c1.4 0 2-.5 2 .8.2 1.6 0 3.2 0 4.8v3h-76.1c-2 .1-4.3 1.6-4.8 3.8l-9.8 47c-.7 3.2 1.4 6.4 4.8 6.4h108.6c10.7 0 21.3 2 30.8 7 17.6 9.1 30.1 26 39 43.4 3 5.7 11.6.6 8.7-5zm-200 24h197.3c6.5 0 6.5-10 0-10H90c-6.4 0-6.4 10 0 10z" fill="#fff"/></svg>