<svg xmlns="http://www.w3.org/2000/svg" width="361" height="361"><path d="M286.7 258.4a6.3 6.3 0 0 1-6.3 6.3H81.8a6.3 6.3 0 0 1-6.3-6.3v-125a6.3 6.3 0 0 1 6.3-6.3h198.6a6.3 6.3 0 0 1 6.3 6.3v125zm-78-134.4c0 1.8-2 3.2-4.3 3.2h-46.7c-2.4 0-4.4-1.4-4.4-3.2v-15.5c0-1.8 2-3.2 4.4-3.2h46.7c2.4 0 4.3 1.4 4.3 3.2V124z" fill="none" stroke="#fff" stroke-width="10" stroke-miterlimit="10"/><path d="M97.3 130.6V260c0 9.6 15 9.7 15 0V130.8c0-9.7-15-9.7-15 0zm153-1V259c0 9.6 15 9.7 15 0V129.8c0-9.7-15-9.7-15 0zm-84 39.2c1.5 5.8-6.3 6.6-10.2 8l-16.5 5.4c-1.9.6-3.6 1.4-5.5-.1-1.6-1.3-2-4.3-2.7-6l-4.6-14c-1.9-5.7 6.7-6.8 10.3-8l16.5-5.4c1.9-.6 3.6-1.4 5.5.1 1.6 1.2 2 4.2 2.6 6l4.7 14c1.4 4.3 8.1 2.4 6.7-1.9-3.3-10-6-30-21-25.1l-20.1 6.7c-6.6 2.2-13 4.8-12.4 13.2.4 6 4 12.7 5.8 18.4 2.2 6.6 7.4 11.7 14.9 9.2l19.3-6.4c6-2 13.2-3.5 14-11a14 14 0 0 0-.5-5c-1-4.4-7.8-2.5-6.7 1.9z" fill="#fff"/></svg>