<svg xmlns="http://www.w3.org/2000/svg" width="361" height="361"><path d="M259 176h13c4 0 4-7 0-7h-13c-4 0-4 7 0 7zm-5-76l7 26c1 4 8 2 7-2l-8-26c-1-4-8-2-6 2z" fill="#fff"/><path d="M261 88v85c0 4 7 4 7 0V88c0-4-7-4-7 0z" fill="#fff"/><path d="M287 70l-23 15h3l-23-15-2 7h47c5 0 5-7 0-7h-47c-4 0-5 5-2 6l24 15h3l24-15c4-2 0-8-4-6zm-38 42l10-10c4-3-1-8-5-5l-10 10c-4 3 1 8 5 5z" fill="#fff"/><path d="M244 114l7-5-4-5-4 9 6-1-4-4c-4-3-9 2-5 5l4 4c1 1 4 1 5-1l3-8v-4a4 4 0 0 0-4-1l-8 4c-4 3 0 9 4 7z" fill="#fff"/><path d="M282 223h-19c-3 0-6 3-6 6v11H118v-11c0-3-3-6-5-6H94c-3 0-6 3-6 6v18c0 4 3 7 5 7h10v16c0 6 4 12 9 12h151c5 0 9-6 9-12v-16h10c3 0 5-3 5-7v-18c0-3-2-6-5-6zm-22-9v-15c-1-5-4-9-8-9H123c-5 0-8 4-8 9v15" fill="none" stroke="#fff" stroke-width="10" stroke-miterlimit="10"/><path d="M114 283v4c0 2 2 5 5 5s5-3 5-5v-4c0-2-3-5-5-5s-5 3-5 5zm137 0v4c0 2 3 5 5 5s5-3 5-5v-4c0-2-2-5-5-5s-5 3-5 5z" fill="#fff"/><g fill="#fff"><path d="M157 124H81a5 5 0 0 1-4-5V74a5 5 0 0 1 4-4h76a5 5 0 0 1 4 4v45a5 5 0 0 1-4 5zM81 73a1 1 0 0 0 0 1v46h76V74a1 1 0 0 0 0-1H81z"/><path d="M159 119c0 1-1 2-3 2H81l-2-2v-1l2-1h75l3 1v1z"/><path d="M156 123H81c-2 0-4-2-4-4v-1c0-2 2-3 4-3h75c3 0 5 1 5 3v1c0 2-2 3-5 3zm-75-4h75-75z"/><path d="M121 129a2 2 0 0 1-2 2 2 2 0 0 1-3-2v-7a2 2 0 0 1 3-2 2 2 0 0 1 2 2v7z"/><path d="M119 133a4 4 0 0 1-5-4v-7a4 4 0 0 1 4-4h1a4 4 0 0 1 4 4v7a4 4 0 0 1-4 4zm0-12l-1 1v7h1v-8z"/><path d="M92 133h53c3 0 3-3 0-3H92c-2 0-2 3 0 3z"/></g><path d="M186 154c-1 5-7 4-10 4H78c-7 0-5-10-5-14 0-5 3-7 7-7h102c6 0 4 14 4 17 0 2 3 2 3 0 0-5 1-12-1-17-2-3-6-3-9-3H80c-3 0-7 0-9 3-3 5-1 12-1 17s4 7 8 7h99l8-1c3-1 4-3 4-6 0-2-3-2-3 0z" fill="#fff"/><path d="M180 150c-1 3-7 2-9 2H87c-4 0-8 1-8-4 0-6 3-5 7-5h92c3 0 2 6 2 8s3 2 3 0c0-5 1-11-5-11H84c-4 0-7 0-8 4s-1 11 5 11h87c5 0 14 2 15-4 0-2-3-3-3-1z" fill="#fff"/></svg>