<svg xmlns="http://www.w3.org/2000/svg" width="361" height="361"><path d="M241 258V104.5c0-6.4-10-6.4-10 0V258c0 6.5 10 6.5 10 0z" fill="#fff"/><path d="M85 253c-8-.5-5.2-16.4-5.2-21.5V114.3c0-7.3 8.5-5.8 13.4-5.8H276c7.8 0 5.2 16.2 5.2 20.8V247c0 7.4-8 6-13 6H85c-6.4 0-6.4 10 0 10h182.3c8.7 0 17.8.6 22.4-8.7 3.2-6.4 1.5-16.7 1.5-23.5V114.2c0-8.9-6.6-15.1-15.2-15.7H86c-6.3 0-11.8 3-14.6 8.7-1.7 3.2-1.5 6.7-1.5 10.2v130c0 8.8 6.6 15 15.2 15.6 6.4.4 6.4-9.6 0-10z" fill="#fff"/><path d="M91.7 230.4c1.2 8.6 14 6 20.2 6h88.3c5.3 0 18.2 2.3 18.2-6.1v-93.6c0-2.1.6-6.4-.8-8.3-2.3-3-5-3-8.3-3H107.4c-5.6 0-15.7-1.8-15.7 6.6v98.4c0 2 3 2 3 0v-92.1c0-2.5-1.2-9.9 3-9.9h109.6c2.2 0 8.1-1 8.1 3.1v93.6c0 2.1 1 8.3-3 8.3H102.7c-2.4 0-7.6 1-8-3-.3-1.9-3.3-2-3 0zm144.2 12h50.2c6.5 0 6.5-10 0-10H236c-6.4 0-6.4 10 0 10zm28.1-70.9h10c1.9 0 1.9-3 0-3h-10c-2 0-2 3 0 3zm-17.3 0h10c1.9 0 1.9-3 0-3h-10c-2 0-2 3 0 3zm17.3 7.1h10c1.9 0 1.9-3 0-3h-10c-2 0-2 3 0 3zm-17.3 0h10c1.9 0 1.9-3 0-3h-10c-2 0-2 3 0 3zm0 33.6h10c1.9 0 1.9-3 0-3h-10c-2 0-2 3 0 3zm0-19.4h10c1.9 0 1.9-3 0-3h-10c-2 0-2 3 0 3zm17.3 19.4h10c1.9 0 1.9-3 0-3h-10c-2 0-2 3 0 3zm9-58.4c-.5 1.3-6 .5-7.2.5h-13c-2.7 0-3.8.8-3.8-2.1v-10.8c0-.4 18.5-.2 20.2-.2 3.3 0 3.8-.6 3.8 2.9v10.1c0 2 3 2 3 0v-12.1c0-3.6-2.6-4-5.5-4h-16.1c-3.4 0-6.9-.8-8.4 2.8-.5 1.3 0 3.6 0 5v7.5c0 3.6 2.5 4 5.4 4h16.2c3.3 0 6.9.8 8.3-2.8.8-1.8-2.1-2.6-2.8-.8z" fill="#fff"/><path d="M195.8 159a45 45 0 0 1-18.1 8.4c-8.7 1.8-17.9-3-24.7-8a60 60 0 0 0-13.2-7.4 35.1 35.1 0 0 0-29 1.7c-4 1.9-.5 7.9 3.6 6 10.5-5 20-3.5 29.8 2.2 4 2.3 7.4 5.2 11.5 7.5a36.8 36.8 0 0 0 25.3 4.5c6.5-1.4 13-4.8 18.3-8.8 3.5-2.8 0-8.8-3.5-6.1z" fill="#fff"/><path d="M195.8 178.2a45 45 0 0 1-18.1 8.4c-8.6 1.8-17.9-3.1-24.7-8a60 60 0 0 0-13.2-7.4 35.1 35.1 0 0 0-29 1.6c-4 2-.5 8 3.6 6 10.5-4.8 20-3.4 29.8 2.3 4 2.3 7.4 5.2 11.5 7.4a36.3 36.3 0 0 0 25.3 4.6c6.5-1.4 13-4.9 18.3-8.9 3.5-2.7 0-8.8-3.5-6z" fill="#fff"/><path d="M195.8 196.6a45 45 0 0 1-18.1 8.4c-8.6 1.8-17.9-3.1-24.7-8a60 60 0 0 0-13.2-7.4 35.1 35.1 0 0 0-29 1.6c-4 2-.5 8 3.6 6 10.5-4.8 20-3.4 29.8 2.3 4 2.3 7.4 5.2 11.5 7.4a36.3 36.3 0 0 0 25.3 4.6c6.5-1.4 13-4.9 18.3-8.9 3.5-2.7 0-8.8-3.5-6z" fill="#fff"/></svg>