<svg xmlns="http://www.w3.org/2000/svg" width="361" height="361"><path d="M241 258V105c0-7-10-7-10 0v153c0 7 10 7 10 0z" fill="#fff"/><path d="M85 253c-8 0-5-16-5-21V114c0-7 8-6 13-6h183c8 1 5 17 5 21v118c0 7-8 6-13 6H85c-6 0-6 10 0 10h182c9 0 18 1 23-9 3-6 1-16 1-23V114c0-9-6-15-15-15H86c-6 0-12 3-15 8l-1 10v130c0 9 7 15 15 16 7 0 7-10 0-10z" fill="#fff"/><path d="M92 230c1 9 14 6 20 6h88c5 0 18 3 18-6V128c-3-3-5-3-9-3H107c-5 0-15-1-15 7v98c0 2 3 2 3 0v-92c0-2-1-10 3-10h109c3 0 8-1 8 4v93c0 2 1 8-3 8H103c-3 0-8 1-8-3-1-1-4-2-3 0zm144 12h50c7 0 7-10 0-10h-50c-6 0-6 10 0 10zm28-70h10c2 0 2-3 0-3h-10c-2 0-2 3 0 3zm-17 0h10c2 0 2-3 0-3h-10c-2 0-2 3 0 3zm17 7h10c2 0 2-3 0-3h-10c-2 0-2 3 0 3zm-17 0h10c2 0 2-3 0-3h-10c-2 0-2 3 0 3zm0 33h10c2 0 2-3 0-3h-10c-2 0-2 3 0 3zm0-19h10c2 0 2-3 0-3h-10c-2 0-2 3 0 3zm17 19h10c2 0 2-3 0-3h-10c-2 0-2 3 0 3zm9-58h-20c-3 0-4 1-4-2v-11h20c3 0 4 0 4 3v10c0 2 3 2 3 0v-12c0-4-3-4-5-4h-17c-3 0-6-1-8 3v12c0 4 3 4 5 4h17c3 0 7 1 8-2 1-2-2-3-3-1z" fill="#fff"/><path d="M196 159a45 45 0 0 1-18 8c-9 2-18-3-25-8a60 60 0 0 0-13-7 35 35 0 0 0-29 2c-4 2-1 8 3 6 11-5 20-4 30 2l12 7a37 37 0 0 0 25 5c7-2 13-5 18-9 4-3 0-9-3-6z" fill="#fff"/><path d="M196 178a45 45 0 0 1-18 9c-9 1-18-4-25-8a60 60 0 0 0-13-8 35 35 0 0 0-29 2c-4 2-1 8 3 6 11-5 20-4 30 2l12 7a36 36 0 0 0 25 5c7-1 13-5 18-9 4-3 0-9-3-6z" fill="#fff"/><path d="M196 197a45 45 0 0 1-18 8c-9 2-18-3-25-8a60 60 0 0 0-13-7 35 35 0 0 0-29 1c-4 2-1 8 3 6 11-5 20-3 30 2l12 8a36 36 0 0 0 25 5c7-2 13-5 18-9 4-3 0-9-3-6z" fill="#fff"/></svg>