<svg xmlns="http://www.w3.org/2000/svg" width="361" height="361"><path d="M269 262c0 4 3 8 7 8h11c3-3 4-6 4-10V101c-1-4-4-7-9-7-3 0-8 0-10 2-5 5-3 14-3 21v145c0 4 7 4 7 0V105c0-5 8-5 8-2v159c0 2-8 3-8 0-1-5-8-5-7 0zM188 80h99c6 0 6-10 0-10h-99c-7 0-7 10 0 10zM75 80h16c6 0 6-10 0-10H75c-6 0-6 10 0 10z" fill="#fff"/><path d="M84 77h113c5 0 5-7 0-7H84c-4 0-4 7 0 7zm50 200c0 9-9 8-15 8H96c-6 0-13 1-17-4-3-4-1-12-1-16v-23c0-6 0-14 8-14h38c5 0 10 1 10 8v40c0 5 7 5 7 0v-36c0-7-1-13-7-17-4-3-11-2-16-2H95c-6 0-11-1-16 1-7 3-8 11-8 17v22c0 7-2 16 1 22 4 9 14 8 22 8h37c7-2 10-8 10-15 1-4-6-4-7 0z" fill="#fff"/><path d="M103 238v37c0 4 7 4 7 0v-37c0-5-7-5-7 0zM94 84h93c6 0 6-10 0-10H94c-6 0-6 10 0 10z" fill="#fff"/></svg>