<svg xmlns="http://www.w3.org/2000/svg" width="361" height="361"><path d="M167.9 263.5c-.2.6-.6.4-2.2.4H98.3c-1 0-.1 1-.1-.5V206c0-1.7-.7-.8.1-.8h69.3c1 0 .1-1 .1.3v59c0 4.4 7 4.4 7 0V209c0-4.6 0-10.9-6.4-10.9h-70c-5 0-7.1 3.7-7.1 8.2v57.2c0 10.5 17 7.3 23.6 7.3h45.6c5.2 0 12.8 1.3 14.2-5.6.9-4.4-5.9-6.3-6.7-1.8z" fill="#fff"/><path d="M157 250.2c-.4 13-12.7 22.8-24 13.2a14.5 14.5 0 0 1-3.4-17.9c2.5-4.3 5.5-7.5 7.1-12.3.8-2 1.3-4 2-6l1-3h-1.2l1.4 2.1c1.4 2.4 2 5.1 2.4 7.8.2 1 .7 2.3 1.6 3 1.5 1 3 0 4.1-1.2 1-1 1.6-2.1 2.2-3.3.4-.6 1.7-2.4 1-2l-1.8-.3a28.7 28.7 0 0 1 7.6 20c0 1.9 3 1.9 3 0a31.8 31.8 0 0 0-8.5-22.1c-.5-.5-1.2-.6-1.8-.3a25 25 0 0 0-4 6.6c-1-1.2-1-4-1.4-5.5a23.1 23.1 0 0 0-1.8-4.2c-.7-1.3-1.6-3-3-3.5-.5-.2-1.1 0-1.5.4-1.8 1.7-2.3 4.8-3 7-1.5 5-3.3 9.1-6.5 13.3a17 17 0 0 0 .5 21.7c4.7 5.3 12.6 8.7 19.5 5.7 7.7-3.3 11.3-11.2 11.5-19.2 0-1.9-3-1.9-3 0z" fill="#fff"/><path d="M149.5 257.5c-.2 4.6-2.5 9.1-7.6 9.5-6 .5-10-6.7-7.5-11.8 1-2.1 2.8-3.7 3.8-6 .8-1.9 1-5.3 2.4-6.9l-1.8.3c2.4 1.6.9 8 4.6 8 2.4-.1 2.6-3.2 4-4.4h-2.2c3 3.2 4.2 7 4.3 11.3.1 2 3.1 2 3 0a20 20 0 0 0-5.2-13.5c-.6-.6-1.5-.5-2.1 0-.4.4-.5.8-.8 1.2a24 24 0 0 1-.7 1.5c-.5-2.3-1.3-5.3-3.4-6.7a1.5 1.5 0 0 0-1.8.2c-1 1.2-1.4 3-2 4.4a25 25 0 0 1-4 8.1c-2.8 3.7-2.6 9.6.6 13 8 8.8 18.8 2.4 19.4-8.2.1-2-2.9-2-3 0z" fill="#fff"/><path d="M128.3 261.9c-6.8 9-18.3-2-12-10.4a16.9 16.9 0 0 0 2.6-4.4c.7-1.8 1-5 2.3-6.5l-1.8.2c2.7 1.9 1 6.9 3.9 8.6 1.8 1 2.9-.4 4.3-1 1.8-.7 1-3.6-.8-2.9a3.2 3.2 0 0 0-.8.5c-1.8 1.3-1.8-1.2-2-2.6-.5-1.8-1.6-4.1-3.1-5.2a1.5 1.5 0 0 0-1.8.3c-2.5 2.8-2.5 7.4-4.6 10.5-2.7 4.1-4.3 7-2.6 12 3 8.8 14 9 19 2.4 1.2-1.5-1.4-3-2.6-1.5z" fill="#fff"/><path d="M129.6 241.4c-6.3.4-5.1-8.4-8.3-11.6-.5-.5-1.2-.5-1.8-.2-3 1.6-4 7.2-4.5 10a18 18 0 0 0-3-4.7c-.6-.4-1.5-.3-1.9.2a25.2 25.2 0 0 0-5.6 25.4c3 8.1 10.8 10.9 18.4 7.7 1.8-.7 1-3.6-.8-2.9-7 3-12.5.2-15.1-6.9-2.6-7 .3-16 5.2-21.2l-1.8.2c-.5-.3 1.1 2.4 1.5 3a5.6 5.6 0 0 0 2.9 2.7c4 1.4 3.8-9.7 6.2-10.9l-1.8-.2c1.7 1.7 2.2 6.2 3.5 8.4 1.5 2.6 4 4.2 7 4 1.9 0 1.9-3 0-3z" fill="#fff"/><path d="M137 230.8c-2.4-3.6-3.6-7.8-4.9-12-.6-2.1-1.2-5.2-3-6.9-.3-.3-.9-.5-1.4-.4-4 1.4-5.5 9.6-6 13-.6 2.7-2.3-1.5-3-2.6-.4-1-1-2.7-2-3.2-.6-.3-1.3-.3-1.8.2-6 6.3-9 14.1-9.1 22.7-.1 2 2.9 2 3 0a30 30 0 0 1 8.3-20.5l-1.9.2c-.6-.3 1 2 1.3 2.7a17.1 17.1 0 0 0 2.7 3.8c1.6 1.6 4 1.1 4.8-1 1.3-3 1.4-6.4 2.9-9.5a14.4 14.4 0 0 1 1.8-2.9c-1.4-.3-1.7 0-.8 1l.6 2c1.7 5.1 3 10.4 6 14.9 1 1.6 3.6 0 2.6-1.5zm26.7 1.7V246c0 1.9 3 1.9 3 0v-13.4c0-1.9-3-1.9-3 0z" fill="#fff"/><path d="M165.9 234h2.4c2 0 2-3 0-3H166c-2 0-2 3 0 3z" fill="#fff"/><path d="M278 283c.2-1 3.2-.8 1-.8H78.3c1.9 0 2.1 3.4 2.1 1.5V77.5c0 2.5-3.7 2.2-.4 2.2h22.4L98 77.2l9.5 12.6 5.4 7.2c2.4 3.2 5.6 2.7 9.2 2.7h21.4c1.9 0-1.6-.6 1 .3l2.6 1c.9.3 1.7 1.1.2 0l1.4 1 32.7 24.8 2.1 1.6c1.6 1.2-.3.4-1-1.1l4.1 9c.8 1.7-.3-3.6-.3 0v6l.4 45v19.8c.1 3.2-.7 7.9 1.7 10.2 2 2 4.3 5.4 7.5 5.4h83.7c1.6 0-1.8-3.4-1.8-1.9v63.5c0 6.5 10 6.5 10 0v-56c0-3.9.8-9-1.5-12.3-2.6-4-7.3-3.3-11.4-3.3h-79l3.5 1.4-4-4 1.4 3.6-.4-73.6c0-8-2.6-16.4-9.1-21.3l-32.9-24.9a23.2 23.2 0 0 0-14.8-4.2h-22.3l4.4 2.4-10.4-13.7-4.3-5.8c-2-2.6-4-3-7-3H79.5c-5.1 0-9 3.2-9 8.5v206.2c0 9.4 10.8 7.9 17 7.9h176.2c6.9 0 22.2 2.8 24-6.5 1.3-6.3-8.3-9-9.6-2.7z" fill="#fff"/><path d="M194.8 216.7h92c6.5 0 6.5-10 0-10h-92c-6.4 0-6.4 10 0 10zm-56.1-84.8c-.5 4-6.2 2.6-8.8 2.6h-8.7c-3.4 0-2-15.7-2-17.7 0-4.7 14.6-2.6 17.6-2.6 3.3 0 1.9 15.7 1.9 17.7 0 1.9 3 1.9 3 0v-12.2c0-3.4-.2-8.5-4.8-8.5h-12.2c-4.5 0-7.7.4-8.4 5.6-.5 4 0 8.2 0 12.2 0 3.3.2 8.5 4.8 8.5h12.2c4.4 0 7.7-.4 8.4-5.6.2-2-2.8-2-3 0zm26.6 15.3c-.5 4-6.2 2.6-8.8 2.6h-8.7c-3.4 0-1.9-15.7-1.9-17.7 0-4.6 14.5-2.6 17.5-2.6 3.4 0 1.9 15.7 1.9 17.7s3 2 3 0V135c0-3.3-.2-8.5-4.8-8.5h-12.2c-4.5 0-7.7.4-8.4 5.6-.5 4 0 8.3 0 12.2 0 3.4.2 8.5 4.8 8.5H160c4.5 0 7.7-.4 8.4-5.6.2-2-2.8-1.9-3 0zm-29.8 23.3c-.5 4-6.2 2.7-8.8 2.7H118c-3.4 0-2-15.7-2-17.7 0-4.7 14.6-2.7 17.6-2.7 3.3 0 1.9 15.7 1.9 17.7s3 2 3 0v-12.1c0-3.4-.2-8.6-4.8-8.6h-12.2c-4.5 0-7.7.5-8.4 5.7-.5 3.9 0 8.2 0 12.1 0 3.4.2 8.6 4.8 8.6h12.2c4.4 0 7.7-.5 8.4-5.7.2-1.9-2.8-1.9-3 0z" fill="#fff"/></svg>