<svg xmlns="http://www.w3.org/2000/svg" width="361" height="361"><path d="M287 213c0 1-3 3-6 3H81c-4 0-6-2-6-3v-17c0-2 2-3 6-3h200c3 0 6 1 6 3v17zm-73-29c0 3-3 6-6 6H88c-3 0-6-3-6-6v-25c0-3 3-6 6-6h120c3 0 6 3 6 6v25z" fill="#fff" stroke="#fff" stroke-width="10" stroke-miterlimit="10"/><path d="M70 172v65c0 6 10 6 10 0v-65c0-6-10-6-10 0zm212-27v93c0 6 10 6 10 0v-93c0-7-10-7-10 0zm-60 11v28c0 10 15 10 15 0v-28c0-10-15-10-15 0z" fill="#fff"/><path d="M263 176h-28c-10 0-10 15 0 15h28c9 0 9-15 0-15z" fill="#fff"/><circle cx="254" cy="160" r="14" fill="#fff"/></svg>