<svg xmlns="http://www.w3.org/2000/svg" width="361" height="361"><path d="M232.1 206.3c-.4 3-6 1.6-8.1 1.6h-93.6c-1.7 0-.8-26.6-.8-28.7v-57.1c0-1.8 5.5-1 6.5-1H221c2.9 0 11-1.8 11 2.2v83.9c0 4.5 7 4.5 7 0v-74.9c0-7.6 1.6-18.2-9.3-18.2h-96.2c-4 0-9.7.4-10.5 5.5-1.6 9.4-.4 19.7-.4 29.3v46.4c0 7.4-2.1 19.6 8.8 19.6h96c3.6 0 8.3.4 10.3-3.4a9.7 9.7 0 0 0 1.2-3.4c.7-4.4-6-6.3-6.8-1.9z" fill="#fff"/><path d="M252.3 278.4c0 4.8-3.8 8.6-8.5 8.6h-126a8.5 8.5 0 0 1-8.5-8.6V103.2c0-4.7 3.8-8.5 8.5-8.5h126c4.7 0 8.5 3.8 8.5 8.5v175.2z" fill="none" stroke="#fff" stroke-width="10" stroke-miterlimit="10"/><path d="M215.8 187c-.2 9.5-4.2 18.8-13 23.4-8.3 4.5-18.6.2-24.5-6.2a21 21 0 0 1-.8-27 64.8 64.8 0 0 0 10-20.6l1.4-4.3.8-2.1c.8-1.9.6-.1-.8-1.2 3.1 2.5 4.5 7.9 5.4 11.5.6 2.8 1.3 9.7 6 7 3-1.7 4.6-6.2 6.3-9.1.4-.7.1-.5-1 .6a47.7 47.7 0 0 1 2 2.2 30 30 0 0 1 4.5 7.4 46 46 0 0 1 3.7 18.3c0 2 3 2 3 0-.2-11-3.4-21.9-11-30-3.7-4-5.8 3.8-7.5 6.3-.8 1.3-1.7 2.5-2.4.4-.9-2.8-1.1-5.7-2.1-8.5-1-2.7-2.7-7.1-5.3-8.6-4-2.3-7.2 13.6-7.9 15.4a42.7 42.7 0 0 1-7 12.7A23.4 23.4 0 0 0 170 187c-.7 10.2 4 19.1 12.5 24.5a22.8 22.8 0 0 0 24.1.3c8.4-5.2 12.1-15.5 12.3-24.9 0-1.9-3-1.9-3 0z" fill="#fff"/><path d="M205.1 197.3c-.2 6.8-4 13.8-11.5 14.3-6.6.4-12-5.7-12.6-11.9-.6-5.6 4.2-9 6.3-13.6 1.4-3 1.7-8.6 4-10.9l-1.8.2c3.7 1.7 1.3 11.4 6 11.4 1.3 0 2.4-1.2 3-2.1a30.4 30.4 0 0 0 1.6-2.6c.2-.3 1.2-1.7.5-1.2l-1.9-.3a24.1 24.1 0 0 1 6.4 16.7c0 2 3 2 3 0a27.3 27.3 0 0 0-7.2-18.8c-.5-.4-1.3-.6-1.9-.2-.8.5-3.3 5-3.3 4.9-1-2.9-1.4-8.9-4.7-10.4-.7-.2-1.3-.2-1.8.3-1.5 1.5-2 4-2.6 6a31.9 31.9 0 0 1-5 10.5c-4.2 5.5-5 12.8-.6 18.5 4 5 10.4 7.6 16.7 5.8 7-2 10.2-10 10.4-16.6.1-2-2.9-2-3 0z" fill="#fff"/><path d="M174.8 203.9c-8.5 11.6-26.6.2-20.4-12.4 1.5-3 4-5.1 5.3-8.2 1.2-2.9 1.7-8.5 3.8-10.6l-1.8.3c4.2 1.8 1.5 9.9 5.4 12 2.8 1.6 3.6-.8 6-1.3 1.8-.3 1-3.2-.9-2.9-.5.1-1 .6-1.4 1-2.5 1.8-3-2.1-3.4-3.8-.4-2.1-2-6.6-4.2-7.6-.6-.3-1.3-.3-1.8.2-1.3 1.2-1.7 3.3-2.2 4.9a35 35 0 0 1-4 9.6c-3.5 5.6-6.3 9.5-4 16.5 1.6 5.3 6.6 9 11.9 10.2 5.8 1.3 11-1.8 14.2-6.4 1.2-1.6-1.4-3-2.5-1.5z" fill="#fff"/><path d="M176 175c-6.1.6-8.4-7-10-11.7-.5-1.4-1.6-6.8-4.3-5.2-1.6 1-2.5 3.3-3.3 4.8a29 29 0 0 0-1.7 4.3c-.1.4-1.4 5.8-1.5 5.7-2-1.8-2.5-6.5-5.1-7.5-.5-.2-1.2 0-1.5.4a35.2 35.2 0 0 0-7.8 35.5 21.6 21.6 0 0 0 9.6 11.2c5.3 3 10.6 1.7 15.9-.5 1.7-.7 1-3.6-.8-2.9-6.9 3-12.6 2.9-18-2.7-6-6-6.3-15.4-4.8-23.1.8-4 2.4-7.7 4.5-11.2l1.5-2c1.5-.9 1.4-1.7-.2-2.3l1 1.6c1 2.1 2.6 5.9 5 6.6 2.6.8 3.7-1.6 4.2-3.7 1-3.6 1.5-6.7 3.4-10l.5-.8c1-.9.8-1.2-.9-1 .4.6.6 1.5.9 2.2 2.2 6.2 5.1 16 13.4 15.3 2-.2 2-3.2 0-3z" fill="#fff"/><path d="M186.1 159.5c-3.3-4.8-5-10.2-6.7-15.8-1-3.5-1.8-7.8-4.2-10.8-1.6-2-3.5.8-4.4 2-3.7 5.1-4.2 11-6 16.8-.8 2.8-4.6-4.5-5.2-5.6-.6-1.2-1.5-4.4-3.4-3.8-1.9.5-3.8 3.7-5 5.1a46.2 46.2 0 0 0-8.7 27.2c0 2 3 2 3 0a45 45 0 0 1 4.4-18.9 38.4 38.4 0 0 1 5.6-8.7c1.6-1.8.5-1.4.2-1.9l.7 1.3c1.4 2.7 4.8 10.8 9 9 2.3-.8 2.7-4 3-6a34.5 34.5 0 0 1 3.2-10l1.8-3c1-1.6-.4-1.5 0-.9 2.2 3.7 3 8.7 4.3 12.7 1.4 4.5 3.2 8.8 5.8 12.8 1 1.6 3.7 0 2.6-1.5zm37.9 98.3c-1.3-15.4-19.7-12-30.6-12h-41.8c-6.5 0-13.2 3.3-13.8 10.7-.5 6.4-.1 12.9-.1 19.3 0 7.4 3.5 14.7 12 14.7H210c7.4 0 14-4.2 14-12.3v-20.4c0-4.5-7-4.5-7 0v18.7c0 3.3-.8 7-5 7h-62c-7.5 0-5.3-12-5.3-16.8 0-5.3-1.6-13.9 6-13.9h47.2c5 0 18.5-2.4 19.1 5 .4 4.5 7.4 4.5 7 0zm1.3-96.1v19c0 2 3 2 3 0v-19c0-2-3-2-3 0z" fill="#fff"/><path d="M227.8 163.2h3.5c2 0 2-3 0-3h-3.5c-1.9 0-1.9 3 0 3zm-27.2-71a2.9 2.9 0 0 1-2.9 2.8h-34.4a2.9 2.9 0 0 1-2.9-2.8v-20a2.9 2.9 0 0 1 3-2.9h34.3a2.9 2.9 0 0 1 2.9 2.9v20z" fill="#fff"/></svg>