<svg xmlns="http://www.w3.org/2000/svg" width="361" height="361"><path d="M121 193l-40-57c-3-5-12 0-8 5l39 57c4 6 12 1 9-5z" fill="#fff"/><path d="M115 193l-31 32c-3 3 2 8 5 5l31-32c3-3-1-8-5-5zm148 4l20 32c3 4 9 1 6-3l-20-32c-3-4-9 0-6 3z" fill="#fff"/><path d="M192 201h94c7 0 7-10 0-10h-94v10zm-74 0h23l-3-10h-20c-7 0-7 10 0 10z" fill="#fff"/><g fill="#fff"><path d="M125 183l-34-51c-3-3-9 0-6 4l34 50c3 4 9 1 6-3zm64 5h94c5 0 5-7 0-7h-94v7z"/><path d="M124 188h14l-3-7h-11c-5 0-5 7 0 7z"/></g><path d="M193 221h-48l1 2-3-26c-1-6-5-12-8-18l-1 2c7-1 16-2 23-1l30 2-1-1 5 13v29c0 2 3 2 3 0v-29l-5-14a2 2 0 0 0-2-1l-29-2c-8-1-16 0-24 1-1 0-2 1-1 2l5 11 2 4v3l3 25 2 1h48c2 0 2-3 0-3z" fill="#fff"/></svg>