<svg xmlns="http://www.w3.org/2000/svg" width="361" height="361"><circle cx="139" cy="102" r="20" fill="#fff"/><path d="M90 180l39 31c3 2 8 3 11 0 2-3 3-8 0-11l-39-31c-3-3-8-3-11 0-2 3-3 8 0 11z" fill="#fff"/><path d="M113 138l-24 32c-2 3 0 8 3 10 4 2 8 1 10-3l24-32c2-3 0-8-3-10-4-2-8 0-10 3zm109 87l8 42c2 9 16 5 15-4l-8-42c-2-9-16-6-15 4z" fill="#fff"/><path d="M237 274l47 3c9 1 9-14 0-15l-47-3c-9-1-9 14 0 15z" fill="#fff"/><circle cx="259" cy="212" r="18" fill="#fff"/><ellipse transform="rotate(15 207 240)" cx="207" cy="240" rx="9" ry="13" fill="#fff"/><path d="M119 210l19 59c4 14 26 8 21-6l-18-59c-5-14-26-8-22 5z" fill="#fff"/><path d="M104 277l44-1c15 0 15-22 0-22h-44c-14 1-14 23 0 23zm16-33l47-27c12-7 1-26-12-19l-47 27c-12 7-1 26 12 19z" fill="#fff"/><path d="M128 126a19 19 0 0 0-19 19v63a19 19 0 1 0 38 0v-63a19 19 0 0 0-19-19z" fill="#fff"/><path d="M142 207a18 18 0 0 0 14 21l59 16a18 18 0 0 0 23-13 18 18 0 0 0-14-22l-60-15a18 18 0 0 0-22 13zm-67 16l32 22c5 4 13 1 16-4 3-6 1-12-4-15l-33-23c-5-3-13-1-16 4-3 6-1 12 5 16z" fill="#fff"/></svg>