<svg xmlns="http://www.w3.org/2000/svg" width="361" height="361"><path d="M154.9 153.7l7.4 20.6c1.5 4.2 8.2 2.4 6.7-1.9l-7.4-20.6c-1.5-4.2-8.3-2.4-6.7 1.9zm-27-39.8l19.6 27.9c2.6 3.6 8.6.1 6-3.6L134 110.4c-2.6-3.7-8.7-.2-6 3.5zm45.3 105.8V244c0 4.5 7 4.5 7 0v-24.4c0-4.5-7-4.5-7 0zm6.9 64.8l-.5-21.1c0-4.5-7-4.5-7 0l.5 21.1c0 4.5 7 4.5 7 0zM166.4 186l4.2 22.5c.9 4.4 7.6 2.6 6.8-1.8l-4.2-22.5c-.9-4.5-7.6-2.6-6.8 1.8zm19.6-29l7.4 20.6c1.5 4.2 8.3 2.4 6.8-1.9l-7.4-20.5c-1.6-4.3-8.3-2.4-6.8 1.8zm-29.2-43l24.8 34.1c2.6 3.6 8.7.1 6-3.5l-24.8-34c-2.6-3.7-8.7-.2-6 3.4zm46.4 117.2l.4 18.4c0 4.5 7 4.5 7 0l-.4-18.4c0-4.5-7-4.6-7 0zm7.6 44.8l.4-12c0-4.5-7-4.5-7 0l-.4 12c0 4.5 7 4.5 7 0zm-13.3-81.3l4.2 22.5c.8 4.4 7.6 2.5 6.8-1.9l-4.2-22.5c-.9-4.4-7.6-2.5-6.8 1.9zm17.7-32.4l7.3 15.9c1.8 4 7.9.5 6-3.6a76831.1 76831.1 0 0 1-7.3-15.9c-1.9-4-8-.5-6 3.6zm-27-48.3l22 37c2.2 3.9 8.3.4 6-3.5l-21.9-37c-2.3-3.9-8.3-.4-6 3.5zm45 113l.4 17.4c.2 4.5 7.2 4.5 7 0l-.4-17.5c-.2-4.5-7.2-4.5-7 0zm7.3 49v-11.4c0-4.5-7-4.5-7 0V276c0 4.5 7 4.5 7 0zm-13.9-83l4.2 22.5c.8 4.4 7.6 2.5 6.8-1.9l-4.2-22.5c-.9-4.4-7.6-2.5-6.8 1.9zm-56.2-37.7l7.4 20.6c1.5 4.2 8.3 2.4 6.8-1.9l-7.4-20.6c-1.5-4.2-8.3-2.4-6.8 1.9zm-28.1-41.4l22.4 30.8c2.7 3.6 8.7 0 6-3.6l-22.4-30.7c-2.6-3.6-8.7-.1-6 3.5zm45.5 109.8l1.7 29.1c.2 4.5 7.2 4.6 7 0l-1.7-29c-.3-4.5-7.3-4.6-7 0zm8.8 56V266c0-4.5-7-4.5-7 0v13.7c0 4.5 7 4.5 7 0zM182.9 188l3 15.6c.8 4.4 7.5 2.5 6.7-1.9l-3-15.6c-.7-4.4-7.5-2.5-6.7 1.9zm14.4-35l9.5 22.5c1.8 4.2 7.8.6 6-3.5l-9.4-22.5c-1.8-4.1-7.8-.6-6 3.6zm-24-39l18 28.2c2.5 3.8 8.6.3 6.1-3.6l-18-28.1c-2.5-3.8-8.5-.3-6 3.5zm43.9 111.8l1.1 22.4c.3 4.5 7.3 4.5 7 0l-1.1-22.4c-.2-4.5-7.2-4.5-7 0zm8.7 55.6l.3-13.7c0-4.5-7-4.5-7 0l-.3 13.7c0 4.5 7 4.5 7 0zm-14.6-91.9l4 20.5c1 4.5 7.7 2.6 6.8-1.8l-4-20.6c-.9-4.4-7.6-2.5-6.8 2zm15-33l9.7 20.4c2 4 8 .5 6-3.5l-9.6-20.4c-2-4-8-.5-6 3.5zM201.2 114l20.5 30.7c2.5 3.8 8.6.3 6-3.5l-20.5-30.7c-2.5-3.7-8.6-.2-6 3.5zm46.2 119l.9 12.9c.3 4.5 7.3 4.5 7 0l-.9-13c-.3-4.4-7.3-4.4-7 0zm8 45.7l-.5-21.1c0-4.5-7-4.5-7 0l.4 21c0 4.6 7 4.6 7 0zm-16.2-86l5 27.5c.7 4.4 7.5 2.5 6.7-1.9l-5-27.5c-.8-4.4-7.5-2.5-6.7 1.9zm6.2-29.5l7.4 20.6c1.5 4.2 8.3 2.4 6.7-1.9l-7.4-20.5c-1.5-4.3-8.2-2.4-6.7 1.8zM216.9 114l22.8 36.5c2.3 3.8 8.4.3 6-3.5L223 110.4c-2.4-3.8-8.5-.3-6 3.5zm44.5 110.7l.9 22.7c.2 4.5 7.2 4.5 7 0l-.9-22.7c-.1-4.5-7.1-4.5-7 0zm9.5 57.6l-.5-23.4c0-4.5-7-4.5-7 0l.5 23.4c.1 4.5 7.1 4.5 7 0zM255.2 197l3.2 14.7c1 4.4 7.7 2.6 6.8-1.8L262 195c-1-4.4-7.8-2.5-6.8 1.9z" fill="#fff"/><path d="M277.2 69.7h-33.3c-8.5 0-10.3 7.5-10.3 14.2l.1 22.7c0 2.1 1.4 6.6-1.3 6.6h-105c-.4 0-.1-14.7 0-15.8V80c0-10.5-10.6-10.2-18-10.2H92.6c-8.1 0-16-.4-20.6 7.9-2.5 4.4-1.6 11.1-1.6 16v23.7c0 5-.7 11 1 15.8 2.4 6 8.2 9 14.4 9h191.4c8.6 0 14.4-7.2 14.4-15.3V84.3c0-8.3-6.4-14-14.4-14.6-6.5-.5-6.4 9.5 0 10 6.1.4 4.4 9.8 4.4 14v23.6c0 3.9 1.6 12.9-3 14.6-1.5.6-3.7.3-5.2.3H86.3c-3.2 0-5.9-1.4-5.9-5.1V87.3c0-1.6-.1-3.1.2-4.6.9-3.7 5.6-3 8.4-3h27.3c1.7 0 1 1.6 1 3V105c0 6.4-1 13 5.3 17 2.7 1.7 6.8 1.2 9.8 1.2h98.9c5.6 0 10-2 12.2-7.7.6-1.7.3-4.2.3-6l-.1-11-.1-18.5c0-.7 12.4-.3 14-.3h19.6c6.4 0 6.4-10 0-10z" fill="#fff"/><g fill="#fff"><path d="M158.7 284.4a62.5 62.5 0 0 0-24 .4c-6.6 1.2-13.1 3.1-19.8 3.3-6.6.2-13.3-2-19.8-3.3-8.2-1.6-15.7-2-24-.4-1.9.3-1.1 3.2.8 2.9 8.7-1.6 16.4-.9 25 1 6 1.1 12 2.6 18 2.8 6 .1 12.1-1.7 18-2.9a62.3 62.3 0 0 1 25-1c1.9.4 2.7-2.5.8-2.8z"/><path d="M137.8 287.3a62 62 0 0 1 25 .9c6 1.2 12 2.7 18 2.9 6 .1 12.1-1.7 17.9-2.9a62 62 0 0 1 25-1c2 .4 2.8-2.5.9-2.8a62.6 62.6 0 0 0-24 .4c-6.6 1.2-13.2 3-19.8 3.3-6.6.1-13.4-2-19.8-3.3-8.2-1.6-15.7-2-24-.4-2 .3-1.1 3.2.8 2.9z"/><path d="M203.4 287.3c8.8-1.7 16.5-.9 25 .9 6 1.2 12 2.7 18 2.9 6 .1 12.1-1.7 18-3a62.3 62.3 0 0 1 25-.9c1.9.4 2.7-2.5.8-2.8a62.5 62.5 0 0 0-24 .4c-6.6 1.2-13.1 3-19.8 3.3-6.5.1-13.3-2-19.7-3.3-8.3-1.6-15.7-2-24-.4-2 .3-1.2 3.2.7 2.9z"/></g><g fill="#fff"><path d="M165.4 276.9c-9-1.6-17.2-1.1-26.2.5-7 1.2-13.9 3-21 3.2-6.9.1-14-2-20.8-3.2-9-1.7-17.2-2-26.3-.5-1.9.3-1.1 3.2.8 2.9 9.4-1.6 17.9-.9 27.2 1 6.3 1.1 12.7 2.6 19.2 2.8 6.3.1 12.9-1.7 19.1-2.9a73 73 0 0 1 27.2-1c2 .4 2.7-2.5.8-2.8z"/><path d="M143 279.8c9.4-1.6 17.8-.9 27.2 1 6.3 1.1 12.7 2.6 19.1 2.8 6.4.1 13-1.7 19.1-2.9a73 73 0 0 1 27.3-1c1.9.4 2.7-2.5.8-2.8a70.5 70.5 0 0 0-26.3.5c-6.9 1.2-13.8 3-20.9 3.2-7 .1-14-2-21-3.2a72 72 0 0 0-26.2-.5c-1.9.3-1 3.2.8 2.9z"/><path d="M213.7 279.8a64.6 64.6 0 0 1 22.5 0c5 .9 9.8 2 14.7 2.8 13.5 2.1 25.7-2.2 38.9-3.7 1.9-.2 2-3.2 0-3-6 .8-12 2.1-17.9 3.2a63.8 63.8 0 0 1-23.6 0c-5-.9-10-2-14.9-2.7-7-1.1-13.6-.7-20.5.5-1.9.3-1 3.2.8 2.9z"/></g><g fill="#fff"><path d="M71.5 269.5c4.6 0 9.2.5 13.8 1.2 1.9.3 2.7-2.6.8-3-4.8-.6-9.7-1.2-14.6-1.2-2 0-2 3 0 3z"/><path d="M73.4 269.5c15.6.2 30.8 6.2 46.5 4.5 6.3-.7 12.6-1.8 18.9-2.8a91 91 0 0 1 29-.5c1.8.2 2.6-2.6.7-3a90.2 90.2 0 0 0-26-.1c-7.2 1-14.3 2.4-21.4 3.3-16.2 2-31.7-4.1-47.7-4.4-2 0-2 3 0 3z"/></g><path d="M275.3 272.6c4.9-1.4 9.5-1.5 14.5-1.2 2 .2 2-2.8 0-3-5.3-.3-10.2-.2-15.3 1.3-1.9.6-1 3.5.8 3zM132 115.6h96.2c4.5 0 4.5-7 0-7H132c-4.5 0-4.5 7 0 7z" fill="#fff"/></svg>