<svg xmlns="http://www.w3.org/2000/svg" width="361" height="361"><path d="M277.2 156.2H94.5c-7.8 0-16.8-1.2-21.9 6.4-3.6 5.3-2.8 11.8-2.8 18v36c0 7.2-.8 14.8 4 20.7 4.5 5.6 10.7 6.6 17.5 6.6H113c13.5 0 34 3.2 37-15l-4.8 3.7H217l-4.8-3.6c3 18.1 23.5 15 37 15h21.7c7 0 14-1.3 18.3-7.8 4-6 3.1-13.2 3.1-20.1v-36.4c0-6.2.9-13.1-3.5-18.1-3.1-3.5-7-5.1-11.6-5.4-6.4-.5-6.4 9.5 0 10 6.5.4 5.1 8.2 5.1 12.6v46.8c0 6.8-5.4 8.3-10.9 8.3H234c-5.8 0-11-.5-12.1-7.6-.4-2.1-2.8-3.7-4.8-3.7h-71.8c-2 0-4.5 1.6-4.8 3.7-1.4 8-7.8 7.6-14.2 7.6H87.7c-9.2 0-7.9-10.2-7.9-16.5v-35c0-4.6-1.8-14.1 3.8-16 1.4-.6 3.6-.2 5-.2h188.6c6.5 0 6.5-10 0-10z" fill="#fff"/><path d="M164.7 208h9.3c4.5 0 4.5-7 0-7h-9.3c-4.5 0-4.5 7 0 7zm23 0h9.3c4.5 0 4.5-7 0-7h-9.3c-4.5 0-4.5 7 0 7zm42.3-18.4c0-1 1.4-.9-.1-.9h-3.5c-.5 0-.2-.1.2.3.4.3.3 1 .3-.1v-1c0 1-1.5.8 0 .8h3.5c.6 0 .3.2-.2-.2-.4-.3-.2-1-.2 0v1c0 4.6 7 4.6 7 0 0-2 0-3.9-1.5-5.6-1.5-1.7-3.5-2.1-5.6-2.2H226c-3.6 0-5.9 2.8-6.2 6.2-.5 4.6 2.5 7.8 7 7.8h3.8c3.6 0 6-2.8 6.3-6.1.2-2-1.8-3.5-3.5-3.5-2 0-3.3 1.6-3.5 3.5zm28 0c.1-1 1.4-.9-.1-.9h-3.4c-.6 0-.3 0 .1.3.5.3.3 1 .3 0v-1.1c0 1-1.5.9 0 .9h3.5c.6 0 .3 0-.2-.3-.4-.3-.2-1-.2 0v1.1c0 4.5 7 4.5 7 0 0-2 0-4-1.5-5.6-1.5-1.8-3.5-2.2-5.6-2.2H254c-3.6 0-5.9 2.7-6.2 6-.5 4.7 2.5 8 7 8h3.9c3.6 0 5.8-2.9 6.2-6.2.2-1.9-1.7-3.5-3.5-3.5-2 0-3.3 1.6-3.5 3.5zm-22.4 22.8c.2-1 1.4-.8 0-.8H232c-.6 0-.3-.2.2.2.4.3.2 1 .2 0v-1c0 1-1.4.8.1.8a2201.6 2201.6 0 0 1 3.5 0c.5 0 .2 0-.2-.3s-.3-1-.3 0v1.1c0 4.5 7 4.5 7 0 0-2 0-4-1.4-5.6-1.5-1.7-3.5-2.2-5.7-2.2h-3.7c-3.6 0-6 2.8-6.3 6.1-.5 4.6 2.6 7.8 7.1 7.9h3.8c3.6 0 5.9-2.8 6.2-6.2.3-1.9-1.7-3.5-3.4-3.5-2.1 0-3.3 1.6-3.5 3.5zm28 0c.2-1 1.4-.8 0-.8H260c-.6 0-.2-.1.2.2.4.3.2 1 .2 0v-1c0 1-1.4.8.2.8h3.4c.6 0 .3.1-.2-.2-.4-.4-.2-1-.2 0v1c0 4.6 7 4.6 7 0 0-2-.1-4-1.5-5.6-1.5-1.7-3.5-2.2-5.6-2.2h-3.8c-3.6 0-5.9 2.8-6.2 6.1-.5 4.6 2.5 7.9 7 7.9h3.8c3.6 0 6-2.8 6.3-6.2.2-1.9-1.8-3.5-3.5-3.5-2.1 0-3.3 1.6-3.5 3.5zM73.2 73.4c1.6 31.4 33.1 48.8 61.9 48 4.5 0 4.5-7 0-7-24.7.7-53.5-13.5-54.9-41-.2-4.6-7.2-4.6-7 0z" fill="#fff"/><path d="M185.3 158.5c.4-26.3-24.4-42.9-48.5-44-4.5-.2-4.5 6.8 0 7 20.4 1 41.8 14.6 41.5 37 0 4.5 7 4.5 7 0zm-55.8 30.7h-7.3l3.5 3.5c0-2.9.2-5.8-.2-8.6-.6-5.3-5.3-7.9-10.2-7.9-5.3 0-9.1 1.7-11 7-1 2.7-.3 6.7-.3 9.5l3.5-3.5c-2.9 0-5.8-.2-8.7.2-5.2.6-7.8 5.3-7.8 10.2 0 5.3 1.7 9.1 7 11 2.7 1 6.6.3 9.5.3l-3.5-3.5c0 2.9-.2 5.8.1 8.6.6 5.3 5.4 8 10.2 8 5.3 0 9.2-1.8 11-7 1-2.8.4-6.8.4-9.6l-3.5 3.5c6 0 11.8.8 15.4-5a14 14 0 0 0 .8-9.7c-1.5-4.3-4.4-6.5-8.9-7s-4.4 6.5 0 7c3.5.4 2.9 7.7-.5 7.7h-6.8a3.5 3.5 0 0 0-3.5 3.5c0 3 1.4 9.5-3.4 9.5-5.7 0-4.3-5.4-4.3-9.5 0-2-1.6-3.5-3.5-3.5-3 0-9.5 1.4-9.5-3.4 0-5.6 5.4-4.3 9.5-4.3 2 0 3.5-1.6 3.5-3.5 0-3-1.4-9.5 3.3-9.5 5.7 0 4.4 5.4 4.4 9.5 0 2 1.6 3.5 3.5 3.5h7.3c4.5 0 4.5-7 0-7z" fill="#fff"/></svg>