<svg xmlns="http://www.w3.org/2000/svg" width="361" height="361"><path d="M203.3 183.7c5.3-4.3 5.7 5.5 5.8 8.3l.7 13.1c.2 4.7.5 9.3.6 14 .1 2.3 1.3 7.3-.7 8.3l2.3 1.3-.5-14.3c0-2.4-.9-8.3-.4-9.7l-2.9-.4c.4 7 .4 13.9.6 20.8l.3 11.4v2.2c0 1.9.5 1.4-1.2 1.7l-2.6.5c-2 .4-1.1 3.3.8 3 3.7-.8 6.1-.7 6-5.2l-.2-9.8c-.2-8.2-.2-16.4-.7-24.6-.1-1.7-2.3-2-3-.4-.9 2.4.2 7 .3 9.4l.5 15.4a1.5 1.5 0 0 0 2.3 1.3c3.7-2 2.3-6.3 2.2-10-.2-7-.6-14-1-21-.2-4.3-.2-8.7-1-13-.8-5.8-5.9-8-10.3-4.5-1.6 1.2.6 3.4 2 2.2z" fill="#fff"/><path d="M212.2 192.7c-.1-4.5-4.2-7.9-8.5-8-2 0-2 3 0 3 2.6 0 5.4 2.2 5.5 5 0 1.9 3 2 3 0z" fill="#fff"/><path d="M285.3 280.7c-.6 6.1-13.3 4-17.3 4H81c-6.1 0-4.2-11.4-4.2-15.1V81.3c0-6 10-4.3 13.8-4.3h189.9c6.3 0 4.9 7.6 4.9 12v191.7c0 4.5 7 4.5 7 0V81c0-11.1-10.8-11-18.6-11H82.4c-8.2 0-12.7 5.4-12.7 13.3v191.4c0 7.7.8 17 11.2 17H268c9.5 0 23 2.2 24.3-11 .4-4.5-6.6-4.4-7 0z" fill="#fff"/><path d="M105 73.5v214.7c0 4.5 7 4.5 7 0V73.5c0-4.5-7-4.5-7 0zm115 0v214.7c0 4.5 7 4.5 7 0V73.5c0-4.5-7-4.5-7 0z" fill="#fff"/><path d="M108.5 160.4h115c4.5 0 4.5-7 0-7h-115c-4.5 0-4.5 7 0 7zm0 100.4h115c4.5 0 4.5-7 0-7h-115c-4.5 0-4.5 7 0 7zm-34-18h34c4.6 0 4.6-7 0-7h-34c-4.5 0-4.5 7 0 7zm149-20h62.3c4.5 0 4.5-7 0-7h-62.3c-4.5 0-4.5 7 0 7zm-115-49h115c1.9 0 1.9-3 0-3h-115c-1.9 0-1.9 3 0 3zM76.6 147h29.9c4.5 0 4.5-7 0-7H76.6c-4.5 0-4.5 7 0 7zm0-38.6h29.9c4.5 0 4.5-7 0-7H76.6c-4.5 0-4.5 7 0 7zM224.4 147h64.4c4.5 0 4.5-7 0-7h-64.4c-4.5 0-4.5 7 0 7zm0-38.6h64.4c4.5 0 4.5-7 0-7h-64.4c-4.5 0-4.5 7 0 7zM98.7 224.6c-.3 2.8-7.3 1.6-9.1 1.6-2.6 0-8.3 1.4-8.3-2.4 0-1.5 8-1 8.9-1 1.8 0 8.5-1 8.5 1.8 0 2 3 2 3 0 0-6-6.3-4.8-10.7-4.8-3.5 0-12.7-1.5-12.7 4 0 6.6 5.6 5.4 10.5 5.4 4.7 0 12.2 1.8 12.9-4.6.2-1.9-2.8-1.9-3 0z" fill="#fff"/><path d="M81.9 216c.3-2.8 7.2-1.6 9-1.6 2.7 0 8.3-1.4 8.3 2.5 0 1.4-8 .9-8.8.9-1.9 0-8.5 1-8.5-1.8 0-2-3-2-3 0 0 6.1 6.3 4.8 10.7 4.8 3.5 0 12.6 1.5 12.6-4 0-6.5-5.6-5.4-10.4-5.4-4.8 0-12.3-1.8-13 4.6-.1 2 2.9 1.9 3 0zm.5 14.1c.3-2 7.2-1 8.3-1 1.2 0 8.8-1 9 1 .3 1.7-6.8 1.1-8 1.1-1.1 0-9.3.8-9.3-1 0-2-3-2-3 0 0 5.4 7 4 10.8 4 3.3 0 12.6 1.6 12.6-3.6 0-6-7.3-4.4-11.3-4.4-4.1 0-11.3-1.7-12 4-.3 1.8 2.7 1.8 3 0z" fill="#fff"/><path d="M81.9 208.8c.2-2 7.1-1 8.2-1 1.3 0 8.9-1 9.1 1 .3 1.6-6.8 1-8 1-1.2 0-9.3.9-9.3-1 0-2-3-2-3 0 0 5.5 6.9 4 10.7 4 3.4 0 12.6 1.6 12.6-3.6 0-6-7.2-4.4-11.2-4.4-4.2 0-11.4-1.7-12.1 4-.3 1.9 2.7 1.8 3 0zm197.7-11.3c-.5 4.8-6 3.9-9.2 3.9H242c-3.2 0-9.2 1-9.2-4.2 0-5 7.2-4 10.8-4H270c3.8 0 9.6-.9 9.6 4.3 0 2 3 2 3 0 0-6.5-4.3-7.2-10.1-7.2h-29.9c-4.8 0-12.8-.3-12.8 6.2 0 5.5 3.2 7.9 8.5 7.9h35c5 0 8.8-1.3 9.3-6.9.1-2-2.9-1.9-3 0zm-45.4-15c.4-4.9 6-3.9 9.2-3.9h28.3c3.3 0 9.2-1 9.2 4.2 0 4.9-7.2 3.9-10.8 3.9h-26.4c-3.7 0-9.5 1-9.5-4.3 0-1.9-3-1.9-3 0 0 6.5 4.3 7.3 10 7.3h30c4.8 0 12.7.3 12.7-6.2 0-5.6-3.1-7.9-8.4-7.9h-35c-5 0-8.8 1.3-9.3 6.8-.2 2 2.8 2 3 0z" fill="#fff"/><path d="M232.8 207.1c.5-3.7 6.7-2.8 9.2-2.8h28.4c2.6 0 9.2-.9 9.2 3.2 0 3.7-8 2.7-10.8 2.7h-26.4c-3.3 0-9.6 1.2-9.6-3.1 0-2-3-2-3 0 0 6 5.2 6 10.2 6h29.7c4.6 0 12.9.8 12.9-5.6 0-5.2-4.6-6.2-8.9-6.2h-34.1c-4.5 0-9.1.4-9.8 5.8-.2 1.9 2.8 1.9 3 0zm0-37.3c.5-3.7 6.7-2.8 9.2-2.8h28.4c2.6 0 9.2-.9 9.2 3.2 0 3.7-8 2.7-10.8 2.7h-26.4c-3.3 0-9.6 1.2-9.6-3.1 0-2-3-2-3 0 0 6 5.2 6 10.2 6h29.7c4.6 0 12.9.8 12.9-5.6 0-5.2-4.6-6.2-8.9-6.2h-34.1c-4.5 0-9.1.4-9.8 5.8-.2 1.9 2.8 1.9 3 0zm-46 105c-.4 5.5-6.9 4.3-10.7 4.3-1.7 0-3.2.2-4.8-.6-2.4-1.1-2.2-4-2.2-6.2 0-5.5 7.3-4.3 10.9-4.3 1.6 0 3.2-.2 4.7.6 2.5 1.1 2.2 4 2.2 6.2 0 2 3 2 3 0 0-6.9-3.2-9.8-10-9.8-6 0-13-.6-13.7 7.3-.7 6.9 3.6 9.8 9.9 9.8 6 0 13 .6 13.8-7.3.1-2-2.9-2-3 0zm25 0c-.5 5.5-7 4.3-10.8 4.3-1.7 0-3.2.2-4.8-.6-2.4-1.1-2.2-4-2.2-6.2 0-5.5 7.3-4.3 10.8-4.3 1.7 0 3.3-.2 4.8.6 2.5 1.1 2.2 4 2.2 6.2 0 2 3 2 3 0 0-6.9-3.2-9.8-10-9.8-6 0-13-.6-13.8 7.3-.6 6.9 3.7 9.8 10 9.8 6 0 13 .6 13.8-7.3.1-2-2.9-2-3 0zM159 143.6c-.5 2.8-4.6 3.2-6.9 4a44.9 44.9 0 0 1-31.8-1.5c-4.4-2.3.3-5.6 2.5-6.2l1.6-.7c5-1.8 10.4-2.3 15.7-2.3 3 0 18.9 1.5 18.9 7.1 0 2 3 2 3 0 0-8.3-16.4-10-21.9-10-6-.3-24.4.6-24.4 9.7 0 1.7.8 3.3 2.2 4.3 1.2 1 3.4 1.3 3.8 1.7 3.3 2.4 8.2 2.7 12 3 6.7.5 14-.2 20.3-2.6 3-1.2 7.1-1.7 8-5.6.3-2-2.6-2.7-3-.8z" fill="#fff"/><path d="M159.2 128c-1.1 3.9-15.4 5-18.3 5.1-5 .4-10.2.2-15-1.1-1.6-.5-2.3-1.3-3.4-1.4-8.2-1-1.5-5 .8-6a40.8 40.8 0 0 1 17-2.4c2 0 18.8 1.1 18.8 6.1 0 2 3 2 3 0 0-7.4-15.3-8.8-20.2-9-6.3-.4-13.2.2-19.2 2.4-3.2 1-7 1.8-7 6 0 4.4 4 4.4 6.3 5.9 3.7 2.4 9.2 2.4 13.4 2.6 6.2.2 12.8-.3 18.7-2.3 3-1 7-1.4 8-5.2.4-1.9-2.5-2.6-3-.8zm-20 53.2c.7.2.2-.2 0-.8l-.3-3a54.4 54.4 0 0 1 0-6.3h-3v.7c0 1.9 3 1.9 3 0 0-.4 0-2.7.8-3l-2-1.4c0 .7.5 1.3 1.2 1.5.8.3.7 3.3.6 4-.1 2 2.9 2 3 0 .2-2.3-.2-6-2.8-6.9l1 1.5c0-1-.9-1.8-1.8-1.5-2.5.6-2.9 3.6-3 5.8h3v-.7c0-2-2.9-1.9-3 0-.1 2.8-1.2 11.9 2.5 13 1.9.5 2.7-2.4.8-3z" fill="#fff"/><path d="M137.3 184.7c0 .4-.8.8-.6.8.3-.1.1 0 .4 0a13.5 13.5 0 0 1 2.7 0h.5c-.3-.1-.6-.4-.7-.8.5 1.9 3.4 1.1 3-.8-.5-1.6-2.9-1.5-4.1-1.5-1.3 0-3.7-.1-4.1 1.5-.4 1.9 2.5 2.7 2.9.8zm-10.7-3.5c.6.2.2-.2 0-.8l-.3-3a54.6 54.6 0 0 1 0-6.3h-3v.7c0 1.9 2.9 1.9 3 0 0-.4 0-2.7.7-3l-1.9-1.4c0 .7.5 1.3 1.1 1.5.9.3.7 3.3.6 4 0 2 3 2 3 0 .2-2.3-.1-6-2.8-6.9l1.1 1.5c0-1-1-1.8-1.9-1.5-2.5.6-2.8 3.6-3 5.8h3v-.7c0-2-2.9-1.9-3 0 0 2.8-1.2 11.9 2.6 13 1.8.5 2.6-2.4.8-3z" fill="#fff"/><path d="M124.6 184.7c0 .4-.7.8-.5.8h.3a13.5 13.5 0 0 1 2.8 0c.5 0-.2-.1.2 0h.3c-.4-.1-.6-.4-.7-.8.4 1.9 3.3 1.1 2.9-.8-.4-1.6-2.8-1.5-4.1-1.5-1.3 0-3.7-.1-4 1.5-.5 1.9 2.4 2.7 2.8.8zm-6-3.5c.6.2.1-.2 0-.8l-.4-3a54.6 54.6 0 0 1 0-6.3h-3v.7c0 1.9 3 1.9 3 0 0-.4 0-2.7.8-3l-2-1.4c0 .7.5 1.3 1.2 1.5.8.3.6 3.3.6 4-.1 2 2.9 2 3 0 .2-2.3-.2-6-2.8-6.9l1 1.5c0-1-.9-1.8-1.8-1.5-2.5.6-2.9 3.6-3 5.8h3v-.7c0-2-2.9-1.9-3 0-.1 2.8-1.2 11.9 2.5 13 1.9.5 2.7-2.4.8-3z" fill="#fff"/><path d="M116.6 184.7c-.1.4-.8.8-.6.8.3-.1.1 0 .4 0a13.5 13.5 0 0 1 2.7 0h.5c-.3-.1-.6-.4-.7-.8.4 1.9 3.3 1.1 3-.8-.5-1.6-2.9-1.5-4.2-1.5-1.2 0-3.6-.1-4 1.5-.4 1.9 2.4 2.7 2.9.8zm77 .7c4-4.9 7.2 1.7 7.4 5.6a3881.7 3881.7 0 0 1 1.4 28c.1 2.5 1.5 10.6-.6 11.9l2.3 1.3c-.3-8.6-.7-17.2-.8-25.8L202 208l-1.8-1.5c.3 7 .3 14.2.5 21.3l.3 12.4v2.6c.1 2 .6 1.5-1.1 1.9l-2.6.5c-2 .4-1.2 3.3.7 2.9 4-.8 6.2-.7 6-5.4l-.2-10.1c-.2-8.7-.1-17.4-.6-26-.1-1-1-1.8-2-1.5-.6.1-1 .8-1 1.4 0 8.6.5 17.2.8 25.7a1.5 1.5 0 0 0 2.2 1.3c4.1-2.3 2.3-8.2 2.2-12.3l-1-22.4c-.2-3.7.4-9.4-1.5-12.8-2.8-5-7.1-8-11.5-2.6-1.2 1.4.9 3.6 2.1 2zm-38.2-1.8c-2.2-2.7-5.2-2.2-7.6 0-1.5 1.4-1.4 4-1.5 5.9l-1.1 23.5-1 18.5c0 3.5-2.4 13 2.2 14.8.6.3 1.3-.2 1.7-.7 1-1.4.7-4.1.8-5.7l.6-12.8.4-13.7a928.4 928.4 0 0 1 .3-7c0-1.3.2 0-.7.4l-2.2-.9c.3 1.2-.1 5.3-.2 7.3l-.5 15.6c-.1 5.3-2.2 14.7 6.1 13.5 2-.3 1.1-3.2-.8-3-3.5.6-2.5-3.4-2.4-5.6l.3-11.7c.2-5.2 1.5-11.7.4-16.9-.2-1-1.4-1.2-2.2-.9-1.2.5-.9 3.4-1 4.4a914.8 914.8 0 0 1-1 27.5c0 1.9.2 6.9-.5 8l1.7-.7c-1.3-.5 0-11.6.1-13l.7-12.4 1-19.9.3-7.6v-1.6c0-.6.6-7.3 4-3.1 1.1 1.5 3.2-.6 2-2.1z" fill="#fff"/><path d="M151 185.8c3.2-4.2 3.7 2.4 3.8 3v1.7l.4 7.6 1 19.9.6 12.4c0 1.4 1.4 12.5.2 13l1.7.7c-.7-1-.5-5.5-.6-7.2l-.6-14.6-.4-13.1c0-1 .4-4.4-1-5-.8-.3-2-.1-2.1 1-1.1 5 .2 11.6.3 16.8l.4 11.7c0 2.2 1 6.2-2.5 5.7-1.9-.3-2.7 2.6-.8 2.9 8.4 1.2 6.3-8.2 6.1-13.5l-.4-14.7c-.1-2.2-.6-6.7-.3-8.2l-2.2.9c-1.1-.5-.7-1.4-.6.8l.2 5a3042.3 3042.3 0 0 0 1 26.6c.2 1.7-.1 4.9.9 6.4.4.5 1 1 1.7.7 4.4-1.7 2.3-10.4 2.1-13.8L159 214l-1.2-24.2c0-2 0-4.3-1.3-6-2-2.7-5.6-2.9-7.7-.2-1.2 1.5 1 3.6 2.1 2zm56.6-4.6c.6.1.2-.3 0-.8l-.3-3a54.4 54.4 0 0 1 0-6.3h-3v.7c0 1.9 2.8 1.9 3 0 0-.5 0-2.7.7-3l-1.9-1.4c0 .7.5 1.3 1.1 1.5.9.3.7 3.3.6 4-.1 2 2.9 2 3 0 .2-2.3-.2-6-2.8-6.9l1.1 1.4c0-1-1-1.7-1.9-1.4-2.5.6-2.8 3.6-3 5.8h3v-.7c0-2-2.9-1.9-3 0 0 2.8-1.2 11.9 2.6 13 1.8.5 2.6-2.4.8-3zm-31.7 3.3c1-1.3 3.9-.5 5.1-.2 1.8.5 1.6 2.5 1.6 4l.3 6.1.7 21.1.5 13.3c0 1.6 1.6 13.3.1 14.1l2 .5c-.5-1-.2-5.4-.3-7.1l-.5-14.7c0-4.4-.2-8.7-.3-13 0-1.3.5-4.3-.9-5-.7-.5-2-.1-2.2.8-.8 5.1.1 10.8.3 16 0 1 1.3 18.7-1.1 18.3-1.9-.3-2.7 2.6-.8 2.9 7.3 1.1 5.1-9 5-13.4l-.3-14.7c0-2.4-.4-6.7-.2-8.3l-2.2 1c-1.2-.8-.7-1.3-.6.8l.1 5 .3 13.5.5 13c0 2-.2 4.7.7 6.5.3.7 1.3.9 2 .5 1.6-.8 1.8-2.7 1.8-4.2 0-3.9-.2-7.7-.4-11.5l-.7-20.8-.8-21c-.1-3.3-.6-5.3-3.8-6.6-2.7-1-6.7-1-8.5 1.6-1.1 1.6 1.5 3.1 2.6 1.5z" fill="#fff"/><path d="M187.8 184.2c1-2 1.9 3.8 2 4.9l.2 7.6.7 21.6c0 4.5.5 8.8.9 13.3.2 1.9 2.5 14.4 1 15.3l2 .6c-.4-1.1-.4-5.1-.5-6.8l-.8-14.4-.8-13.7c-.1-2 .1-4.4-.5-6.2-.4-1-1.7-1.5-2.5-.7-1 1-.5 3.5-.5 4.6l.3 14 .3 13.6.1 4v.6c1.2 1.2 1.2 1.7 0 1.6a6 6 0 0 1-2.8-.5c-1.8-.6-2.6 2.3-.8 2.9 4.3 1.4 6.7.5 6.6-4.1l-.2-10.3a8240.9 8240.9 0 0 1-.5-22.4 377.6 377.6 0 0 1 0-1.8c0-1.2.3-.8-.4 0l-2.5-.7c.5 1.4.4 4.8.5 6.8l.8 14.2.8 14c.2 2 0 4.9.9 6.8.3.7 1.4.9 2 .5 1.6-1 1.8-2.8 1.7-4.4-.2-3.8-.7-7.7-1-11.5a306.3 306.3 0 0 1-1.3-19.6l-.8-25c0-2.1 0-4.4-1-6.4-1.6-3.2-5-2.7-6.5 0-1 1.8 1.6 3.3 2.6 1.6zm-19.4 1.2c3.8-3.4 5.6 2.2 5.8 4.5a6238.2 6238.2 0 0 1 1.8 25.2c.7 8.8 1.6 17.5 1.8 26.2 0 1 1 3.9.5 1.9l-.6-4.7-1-15.3-.7-14c0-1.3.4-4.7-1.4-5.1-.8-.3-1.6.2-1.8 1-.5 1.4 0 3.4 0 5a6079.3 6079.3 0 0 0 1.2 24.2c.2 4 0 5.6-5.3 5-1.9-.2-1.9 2.8 0 3 4.3.5 8-.4 8.4-5 .3-2.7-.3-5.7-.4-8.5l-.7-14.7c-.1-2.2-.8-6.6-.3-8.2l-1.9 1c-1.2-.3-1-1.7-1-.1.2.8.2 1.6.2 2.4l.4 7.5 1 18.6c.3 3 0 7.5 1.5 10.2 1 1.7 3 .4 3.9-.5 1.3-1.1 1-2.7 1-4.3-.3-12-1.6-23.9-2.5-35.8l-1.2-16.2c-.4-5.3-6.2-9.7-10.8-5.5-1.4 1.3.7 3.5 2.1 2.2z" fill="#fff"/><path d="M158.7 185.8c3.2-3.1 8.2-1.4 8.6 3.1l.4 5.3L169 213c.7 9.2 1.6 18.4 2 27.6v2.1c0 .4.8 2 .5.7-.4-1.6-.5-3.4-.7-5l-1-15.3-.7-14c0-1.3.4-4.6-1.4-5.1-.8-.3-1.6.2-1.8 1-.5 1.4 0 3.5 0 5a5324 5324 0 0 0 1.2 24.2c.2 4 0 5.6-5.3 5-1.9-.2-1.9 2.8 0 3 4.3.5 8-.3 8.4-5 .3-2.7-.3-5.7-.4-8.5l-.7-14.7c-.1-2.2-.8-6.6-.3-8.2l-1.9 1c-1.2-.3-1-1.7-1-.1l.2 2.4.4 7.5 1.1 19.4c.2 2.4-.2 8 1.7 9.8 1.3 1.2 3.8-.4 4.3-1.7.7-1.5.3-3.5.3-5-.6-12.6-1.8-25.2-2.8-37.8-.3-5 0-10.9-1.5-15.7-1.8-5.5-9.6-5.5-13.1-2-1.4 1.3.7 3.5 2 2.1zm39.8-4.6c.7.2.2-.2 0-.8l-.3-3a54.1 54.1 0 0 1 0-6.3h-3v.7c0 1.9 3 1.9 3 0 0-.4 0-2.7.8-3l-2-1.4c0 .7.5 1.3 1.2 1.5.8.3.6 3.3.6 4-.1 2 2.9 2 3 0 .2-2.3-.2-6-2.8-6.9l1 1.5c0-1-.9-1.8-1.8-1.5-2.5.6-2.9 3.6-3 5.8h3v-.7c0-2-2.9-1.9-3 0-.1 2.8-1.2 11.9 2.5 13 1.9.5 2.7-2.4.8-3zm-11 0c.7.2.3-.2.2-.8-.3-1-.3-2-.4-3a54.4 54.4 0 0 1 0-6.3h-3v.7c0 1.9 2.9 1.9 3 0 0-.4 0-2.7.7-3l-1.9-1.4c0 .7.5 1.3 1.1 1.5.9.3.7 3.3.7 4-.2 2 2.8 2 3 0 .1-2.3-.2-6-2.9-6.9l1.1 1.5c0-1-1-1.8-1.9-1.5-2.4.6-2.8 3.6-3 5.8h3v-.7c0-2-2.8-1.9-3 0 0 2.8-1.1 11.9 2.6 13 1.9.5 2.6-2.4.8-3z" fill="#fff"/><path d="M185.7 184.7c-.1.4-.8.8-.6.8h.3a13.5 13.5 0 0 1 2.8 0c.5 0-.2-.1.2 0h.3c-.4-.1-.6-.4-.7-.8.4 1.9 3.3 1.1 2.9-.8-.4-1.6-2.8-1.5-4-1.5-1.4 0-3.8-.1-4.1 1.5-.5 1.9 2.4 2.7 2.9.8zm-5.6-4.4c.6.2.2 0 0-.7l-.3-2.8v-5.9h-3v.6c0 2 3 2 3 0 0-.4 0-2.4.8-2.6l-2-1.5c0 .7.5 1.3 1.2 1.5.8.2.6 3.2.6 3.7-.2 2 2.8 2 3 0 .2-2.3-.3-5.8-2.8-6.6l1 1.5c0-1-.9-1.8-1.8-1.5-2.4.6-2.9 3.4-3 5.5h3v-.6c0-2-2.9-2-3 0-.1 2.6-1.1 11.3 2.5 12.3 1.9.5 2.7-2.4.8-3zm-9.4.9c.6.2.2-.2 0-.8l-.3-3a54.6 54.6 0 0 1 0-6.3h-3v.7c0 1.9 2.9 1.9 3 0 0-.4 0-2.7.8-3l-2-1.4c0 .7.5 1.3 1.2 1.5.8.3.6 3.3.6 4-.2 2 2.8 2 3 0 .1-2.3-.2-6-2.9-6.9l1.1 1.5c0-1-.9-1.8-1.9-1.5-2.4.6-2.8 3.6-3 5.8h3v-.7c0-2-2.8-1.9-3 0 0 2.8-1.1 11.9 2.6 13 1.9.5 2.7-2.4.8-3zm-8.4-.4c.7.2.2-.1 0-.8l-.3-3a51.8 51.8 0 0 1 0-6h-3v.6c0 2 3 2 3 0 0-.4 0-2.5.8-2.7l-2-1.5c0 .7.5 1.3 1.2 1.5.8.2.6 3.2.6 3.9-.1 1.9 2.9 1.9 3 0 .2-2.3-.2-6-2.8-6.8l1 1.4c0-1-.9-1.7-1.8-1.4-2.5.6-2.9 3.5-3 5.6h3v-.6c0-1.9-2.9-1.9-3 0-.1 2.7-1.2 11.7 2.5 12.7 1.9.5 2.7-2.4.8-3zm-9.8.4c.6.2.2-.2 0-.8l-.3-3a54.4 54.4 0 0 1 0-6.3h-3v.7c0 1.9 2.9 1.9 3 0 0-.4 0-2.7.7-3l-1.9-1.4c0 .7.5 1.3 1.1 1.5.9.3.7 3.3.6 4-.1 2 2.9 2 3 0 .2-2.3-.1-6-2.8-6.9l1.1 1.5c0-1-1-1.8-1.9-1.5-2.5.6-2.8 3.6-3 5.8h3v-.7c0-2-2.9-1.9-3 0 0 2.8-1.2 11.9 2.6 13 1.8.5 2.6-2.4.8-3zm60.7-35.9c-.5 3.5-6.3 2.7-8.4 2.7H193c-2.9 0-19.2 2.2-19.2-3.3 0-2.3 17.6-1.5 19.4-1.5h11.4c2.7 0 8.5-1 8.5 2.5 0 2 3 2 3 0 0-5.3-4.3-5.5-8.8-5.5H194c-4 0-23.3-2.3-23.3 4 0 4.5 2.3 6.8 6.8 6.8h29.7c3.9 0 8-.2 8.7-4.9.3-1.9-2.6-2.7-2.9-.8z" fill="#fff"/><path d="M175 135.5c.4-3.6 6.2-2.7 8.3-2.7h11.8c2.9 0 19.2-2.2 19.2 3.3 0 2.3-17.6 1.5-19.4 1.5h-11.4c-2.7 0-8.5 1-8.5-2.5 0-2-3-2-3 0 0 5.3 4.3 5.5 8.8 5.5H194c4 0 23.3 2.2 23.3-4.1 0-4.4-2.3-6.7-6.8-6.7h-29.7c-3.9 0-8 .2-8.7 4.9-.3 1.9 2.6 2.7 2.9.8z" fill="#fff"/><path d="M175 126.5c.6-3.7 16.7-2 19.1-2 6 0 12.8-.8 18.8.3 5 1-1.3 2.9-1.5 2.9l-3.4.1h-13c-2 0-20 1.1-20-1.7 0-2-3-2-3 0 0 5 5 4.7 9 4.7h13c4.3 0 23.3 2.4 23.3-4.1 0-7.8-16.4-5.1-21.2-5.1h-15.3c-3.5 0-8-.1-8.8 4.1-.3 1.9 2.6 2.7 3 .8zm58.3-10c.2-2.7 1-2.2 2.8-2.2h10.7c2 0 2.3 1 2.3 3.1s-7.8 1.3-8.8 1.3c-2.5 0-7 1-7-2.3 0-2-3-2-3 0 0 6.4 5.2 5.3 10 5.3 3.8 0 11.8 1.4 11.8-4.3 0-2.5-.3-5.6-3.3-6-2.1-.3-4.4 0-6.5 0h-8.1c-3 0-3.7 2.5-3.9 5-.1 2 2.9 2 3 0z" fill="#fff"/><path d="M248.6 126.5c-.2 2.6-1.1 2-2.8 2H235c-2 0-2.3-.8-2.3-3 0-2 7.8-1.3 8.8-1.3 2.4 0 7-1 7 2.3 0 2 3 2 3 0 0-6.4-5.2-5.3-10-5.3-3.8 0-11.8-1.4-11.8 4.3 0 2.5.3 5.6 3.3 6 2 .3 4.4 0 6.5 0h8c3 0 3.8-2.5 4-5 0-2-3-2-3 0z" fill="#fff"/><path d="M248.6 135c-.3 2.5-6.6 1.3-8.3 1.3-2.5 0-7.5 1.3-7.5-2.1 0-1.3 7.3-.8 8-.8 1.7 0 7.8-1 7.8 1.6 0 1.9 3 1.9 3 0 0-5.8-5.9-4.6-10-4.6-3.4 0-11.8-1.4-11.8 3.8 0 6.2 5.2 5.1 9.8 5.1 4.5 0 11.3 1.7 12-4.3.2-2-2.8-2-3 0zm11-17.2c.1-2.6 1-2 2.8-2H273c2 0 2.3.8 2.3 3 0 2.1-7.8 1.4-8.7 1.4-2.5 0-7 1-7-2.4 0-2-3-2-3 0 0 6.4 5.2 5.4 10 5.4 3.7 0 11.7 1.4 11.7-4.4 0-2.5-.3-5.6-3.3-6-2-.3-4.3 0-6.4 0h-8.1c-3 0-3.8 2.6-4 5 0 2 3 2 3 0z" fill="#fff"/><path d="M274.8 126.5c-.2 2.6-1 2.1-2.8 2.1h-10.7c-2 0-2.2-.9-2.2-3 0-2.2 7.8-1.4 8.7-1.4 2.5 0 7-1 7 2.3 0 2 3 2 3 0 0-6.3-5.2-5.3-10-5.3-3.8 0-11.7-1.4-11.7 4.3 0 2.5.3 5.6 3.3 6 2 .3 4.3.1 6.4.1h8.1c3 0 3.8-2.6 4-5 0-2-3-2-3 0z" fill="#fff"/><path d="M274.8 135c-.3 2.5-6.5 1.4-8.2 1.4-2.5 0-7.5 1.3-7.5-2.2 0-1.2 7.3-.8 8-.8 1.7 0 7.7-1 7.7 1.6 0 2 3 2 3 0 0-5.8-5.8-4.6-10-4.6-3.3 0-11.7-1.4-11.7 3.8 0 6.2 5.1 5.2 9.7 5.2 4.5 0 11.4 1.7 12-4.4.2-2-2.8-2-3 0zM85.5 115.9c.1-2.2.3-2 2-2h9.3c1.7 0 1.3 1.7 1.3 3.2 0 1.9-5.9 1.1-7 1.1h-4.2c-1.6 0-1.4-1-1.4-2.3 0-2-3-2-3 0 0 2.3.2 4.3 2.5 5.2 1.5.6 4 .1 5.5.1 3.6 0 10.6 1.3 10.6-4.2 0-1.8 0-5.7-2.5-6-2-.3-4-.2-5.9-.2H86c-2.8 0-3.4 2.9-3.5 5.1 0 2 3 2 3 0z" fill="#fff"/><path d="M97.7 126c-.2 2.2-.3 2-2.1 2h-9.3c-1.7 0-1.2-1.8-1.2-3.2 0-1.9 5.8-1.1 7-1.1h4.2c1.5 0 1.4 1 1.4 2.3 0 2 3 2 3 0 0-2.3-.2-4.3-2.5-5.2-1.5-.6-4-.2-5.5-.2-3.6 0-10.6-1.2-10.6 4.2 0 1.9 0 5.8 2.5 6.1 1.9.3 4 .2 5.9.2h6.7c2.8 0 3.3-2.9 3.5-5.1 0-2-3-2-3 0z" fill="#fff"/><path d="M97.7 134.4c-.2 1.8-.8 1.4-2.1 1.4h-8.9c-1.6 0-1.6-.5-1.6-2.2 0-1.2 6.5-.7 7-.7h4c1.2 0 1.6.3 1.6 1.5 0 2 3 2 3 0 0-5.3-4.6-4.5-8.6-4.5-3.3 0-10-1.2-10 3.7 0 2.2.3 4.8 2.9 5.2 1.8.2 3.7 0 5.5 0 4.2 0 9.8 1.4 10.2-4.4 0-1.9-3-1.9-3 0zm160.7 148.2l-.4-9.7c0-1.9-3-2-3 0l.4 9.7c.1 2 3.1 2 3 0z" fill="#fff"/><path d="M256.9 266.6c0 2 .2 4.5-1.7 5.8-1.3.9-2.4 1.1-3.3 2.4-1 1.5-1.6 3.5-2.3 5.1-1.3 2.6-3 2.5-5.6 2.3-2-.1-2 2.9 0 3 2.4.2 4.4.4 6.4-1.2 1.8-1.5 2.5-4.4 3.5-6.6 1-2 3.3-2.2 4.6-4 1.4-2 1.3-4.5 1.4-6.8 0-2-3-2-3 0z" fill="#fff"/><path d="M256.9 266.6c-1.5 4-1.7-2.7-4.6-.9-2 1.3-3 4.5-4 6.5a24.8 24.8 0 0 1-3.1 4.7c-1 1.1-2.3 1.6-2.8 3-.8 1.8-1.2 6 2 5.3 1.9-.4 1-3.3-.8-3l-.3.1 1.4.4c-.7-.6 3.8-5.2 4.4-6 1.5-2.3 2.6-5 4-7.3.1-.4.3-.7.6-1h-1.2l.4 1.3c.3 1 1 2 2 2.2 2.8.8 4.2-2.6 4.9-4.5.7-1.8-2.2-2.6-2.9-.8z" fill="#fff"/><path d="M258.4 282.6l1.1-12.2c.2-2-2.8-1.9-3 0l-1 12.2c-.3 2 2.7 1.9 3 0zm-14-.5l-.4-9.6c-.1-2-3.1-2-3 0l.4 9.6c0 2 3 2 3 0z" fill="#fff"/><path d="M242.8 266.1c0 2 .3 4.5-1.6 5.8-1.3.9-2.4 1.2-3.3 2.5-1.1 1.5-1.6 3.5-2.3 5-1.3 2.7-3.1 2.5-5.6 2.4-2-.2-2 2.8 0 3 2.4.1 4.4.4 6.3-1.2 2-1.6 2.6-4.5 3.6-6.6.9-2 3.3-2.3 4.6-4 1.4-2 1.3-4.6 1.3-6.9 0-1.9-3-1.9-3 0z" fill="#fff"/><path d="M242.9 266.1c-1.5 4.1-1.7-2.7-4.7-.8-2 1.3-3 4.4-4 6.4a24.9 24.9 0 0 1-3 4.8c-1 1-2.3 1.5-2.8 3-.8 1.7-1.2 5.9 2 5.2 1.8-.4 1-3.3-.9-2.9h-.3l1.5.5c-.8-.7 3.8-5.2 4.4-6 1.5-2.4 2.6-5 4-7.4.1-.3.3-.7.6-1h-1.2l.3 1.3c.3 1 1.1 2 2.2 2.3 2.6.7 4.1-2.7 4.8-4.6.6-1.8-2.3-2.6-3-.8z" fill="#fff"/><path d="M244.4 282.1l1.1-12.1c.2-2-2.8-2-3 0l-1.1 12.1c-.2 2 2.8 2 3 0z" fill="#fff"/><g fill="#fff"><path d="M280.1 281.1l-.2-11.7c0-1.9-3-1.9-3 0l.2 11.7c0 2 3 2 3 0z"/><path d="M278.3 248.5a82 82 0 0 1-4.8 32.5c-2-.3-2.7 2.6-.8 3 6.3 1 5-8.6 6.5-12.5 2.8-6.7 2-15.8 2.1-23 0-2-3-2-3 0z"/><path d="M280.2 247c-2.1-.3-4.4-.2-4.6 2.4-.5 4-.3 8-.7 12-.5 4.6-1 9.3-2.4 13.7-.8 2.6-1.9 5-1.2 7.8.2.8 1.1 1.3 1.9 1h.1c1.9-.5 1.1-3.4-.8-2.9h-.1l1.8 1.1c-.5-2.2.5-4.2 1.2-6.2 1-3 1.4-6.2 1.9-9.3.4-2.8.7-5.7.9-8.6 0-1.3-.2-8.3 1.2-8 2 .3 2.7-2.6.8-3z"/><path d="M280.1 281.9l.5-15.5c0-2-3-2-3 0l-.5 15.5c0 1.9 3 1.9 3 0z"/></g><g fill="#fff"><path d="M270.4 280.3l-.2-11.6c0-2-3-2-3 0l.2 11.6c0 2 3 2 3 0z"/><path d="M268.8 247.7c0 6.5-.3 13.2-1.5 19.5-.4 1.8-1.4 3.1-1.8 4.8-.5 1.8-.7 8.6-2.8 8.2-2-.3-2.7 2.6-.8 3 7.2 1.2 4.5-8.2 7.2-12.1 1.7-2.3 1.6-6.3 2-9 .5-4.7.7-9.6.7-14.4 0-1.9-3-1.9-3 0z"/><path d="M270.7 246.3c-7.6-1.2-5.3 8-5.9 13.2-.5 4.7-1.2 9.5-2.6 14-1 3-2.7 5.4-1.7 8.6a1.5 1.5 0 0 0 1.8 1h.2c1.9-.4 1.1-3.3-.8-2.9h-.2l1.9 1.1c-.7-2.3.6-4.1 1.4-6.1 1-3 1.6-6.2 2.2-9.3.4-3 .8-5.8 1-8.7.2-1.6-.4-8.4 1.9-8 1.9.3 2.7-2.6.8-3z"/><path d="M270.4 281l.6-15.4c0-2-3-1.9-3 0l-.6 15.5c0 2 3 2 3 0z"/></g><g fill="#fff"><path d="M100 282.2l-.2-4c0-2-3-2-3 0l.2 4c.1 2 3.1 2 3 0z"/><path d="M98.2 270.8c0 2.1-.2 4.6-1.3 6.5-.4.6-1.1 1-1.5 1.7-.7 1.3-.7 2.3-2.5 2.2-1.9-.2-1.9 2.8 0 3 1.5 0 2.6 0 3.7-1 1-1.1 1.3-2.6 2.2-3.5 2.1-2.1 2.4-6 2.4-9 0-1.8-3-1.8-3 0z"/><path d="M99.7 269.3c-1.4-.1-3-.3-4 .9-.7 1-.4 2.6-.6 3.7-.4 1.9-1.1 4-2.4 5.4-1 1-2.2 2-1.5 3.8.2.6.7 1 1.4 1h.2c2 .2 2-2.8 0-3h-.2l1.5 1.2c-.1-.3 1.6-2 1.9-2.4a13 13 0 0 0 1.5-3.6c.4-1 .6-2.2.8-3.3v-1.4c-.6.6-.6.8 0 .6h1.4c2 .2 2-2.8 0-3z"/><path d="M100 282.5l.5-5.4c.2-2-2.8-2-3 0l-.5 5.4c-.2 1.9 2.8 1.9 3 0z"/></g><g fill="#fff"><path d="M90.3 282l-.3-4.2c0-1.9-3-1.9-3 0l.3 4.1c0 2 3 2 3 0z"/><path d="M88.7 270.5c0 1.8-.2 5.8-2 6.8a4 4 0 0 0-1.5 1.7l-.7 1.3c-.5.9-1.5.6-2.4.6-1.9-.1-1.9 2.9 0 3 1.7.1 2.9 0 4.1-1 1.2-1 1.5-2.5 2.6-3.4 2.4-2 2.8-6.1 2.9-9 0-2-3-2-3 0z"/><path d="M90.2 269c-1.4 0-3.3-.4-4.4.7-.9 1-.6 2.7-.8 3.8-.5 2-1.4 4.4-3 5.6-1.5 1-2.3 2.3-1.5 4 .2.5.8.8 1.3.8h.2c2 .1 2-2.9 0-3h-.2l1.3.7c.2.6 2.2-1.7 2.3-1.9a17.5 17.5 0 0 0 2.8-7.4c.1-1.2.1-.4-.4-.3h2.4c1.9.1 1.9-2.9 0-3z"/><path d="M90.3 282.2l.5-5.4c.2-2-2.8-2-3 0l-.5 5.4c-.2 2 2.8 1.9 3 0z"/></g><path d="M212.6 116.1c-.5 3.5-6.2 2.7-8.3 2.7h-11.8c-3 0-19.2 2.2-19.2-3.4 0-2.3 17.6-1.5 19.4-1.5H204c2.7 0 8.6-.9 8.6 2.6 0 2 3 2 3 0 0-5.3-4.3-5.5-8.8-5.5h-13.2c-4 0-23.3-2.3-23.3 4 0 4.5 2.3 6.8 6.8 6.8h29.7c3.9 0 8-.2 8.7-4.9.3-1.9-2.6-2.7-2.9-.8z" fill="#fff"/><path d="M174.4 106.3c.5-3.6 6.3-2.7 8.4-2.7h11.8c2.9 0 19.2-2.2 19.2 3.3 0 2.3-17.7 1.5-19.4 1.5H183c-2.7 0-8.5 1-8.5-2.6 0-1.9-3-1.9-3 0 0 5.3 4.3 5.6 8.8 5.6h13.2c4 0 23.3 2.2 23.3-4.1 0-4.5-2.3-6.7-6.8-6.7h-29.7c-3.9 0-8 .2-8.7 4.8-.3 2 2.6 2.7 2.8.8z" fill="#fff"/><path d="M174.4 97.3c.7-3.7 16.8-2 19.2-2 6 0 12.8-.8 18.8.3 4.9 1-1.3 2.9-1.5 2.9l-3.4.1h-13c-2 0-20 1.1-20-1.7 0-2-3-2-3 0 0 5 5 4.7 9 4.7h13c4.3 0 23.3 2.4 23.3-4.1 0-7.8-16.4-5.1-21.2-5.1h-15.4c-3.4 0-7.9-.1-8.7 4-.3 2 2.6 2.8 3 .9zM74.1 186.7h34c4.5 0 4.5-7 0-7h-34c-4.5 0-4.5 7 0 7z" fill="#fff"/></svg>