<svg xmlns="http://www.w3.org/2000/svg" width="361" height="361"><path d="M177.5 81.7v206.8c0 4.5 7 4.5 7 0V81.7c0-4.5-7-4.5-7 0zm81.8 0v206.8c0 4.5 7 4.5 7 0V81.7c0-4.5-7-4.5-7 0z" fill="#fff"/><path d="M259.4 84.3h-77.5c-4.6 0-4.6 7 0 7h77.5c4.5 0 4.5-7 0-7zm0 54.9h-77.5c-4.6 0-4.6 7 0 7h77.5c4.5 0 4.5-7 0-7zm0 54.8h-77.5c-4.6 0-4.6 7 0 7h77.5c4.5 0 4.5-7 0-7zm-54.7-3.6c-5.5-.5-4-6-4-9.5v-11.6c0-6.2 8.2-4.7 12.2-4.7h38.3c5.2 0 4.1 4.7 4.1 7.7v12c0 3 .4 6.1-4.4 6.1h-46.2c-2 0-2 3 0 3h36.8c3.5 0 10.1 1.2 13.4-.7 5.3-3.2 3.4-11.4 3.4-16.7 0-4.9 1.7-13.5-5.5-14.3-4.6-.4-9.3-.1-13.9-.1h-23.6c-4.4 0-9.6-.8-13.8.6-6 1.9-3.8 12.3-3.8 16.8 0 6.4-1.5 13.6 7 14.4 1.9.2 1.9-2.8 0-3z" fill="#fff"/><g fill="#fff"><path d="M242.3 134.4a5 5 0 0 1-5 5h-9.5a5 5 0 0 1-5.1-5v-12.5a5 5 0 0 1 5-5.1h9.6a5 5 0 0 1 5 5v12.6zm-33.5 0a5 5 0 0 1-5 5h-9.6a5 5 0 0 1-5-5v-12.6a5 5 0 0 1 5-5h9.5a5 5 0 0 1 5.1 5v12.5z"/><path d="M203 113.5a5 5 0 0 1 0-7.1l6.8-6.8a5 5 0 0 1 7.2 0l8.8 8.9a5 5 0 0 1 0 7.2l-6.7 6.7a5 5 0 0 1-7.2 0l-8.8-8.8z"/></g><g fill="#fff"><path d="M107.8 98.4V265c0 4.5 7 4.5 7 0V98.5c0-4.6-7-4.6-7 0z"/><path d="M84.7 270.8h53c6.5 0 6.5-10 0-10h-53c-6.5 0-6.5 10 0 10z"/><path d="M87.3 270l-1 20.1c0 2 3 2 3 0l1-20c0-2-3-2-3 0zm9.8 0v20.1c0 2 3 2 3 0v-20c0-2-3-2-3 0zm-4.9 0v20.1c0 2 3 2 3 0v-20c0-2-3-2-3 0zm9.8 0v20.1c0 2 3 2 3 0v-20c0-2-3-2-3 0zm5 0v20.1c0 2 3 2 3 0v-20c0-2-3-2-3 0zm9.8 0v20.1c0 2 3 2 3 0v-20c0-2-3-2-3 0zm-5 0v20.1c0 2 3 2 3 0v-20c0-2-3-2-3 0zm9.9 0v20.1c0 2 3 2 3 0v-20c0-2-3-2-3 0zm9.8 0l1 20.1c0 2 3 2 3 0l-1-20c0-2-3-2-3 0zm-4.9 0v20.1c0 2 3 2 3 0v-20c0-2-3-2-3 0zm9.7.1l2.6 20c.2 1.8 3.2 1.9 3 0l-2.6-20c-.2-1.9-3.3-1.9-3 0zm-54 0l-2.5 20c-.3 1.9 2.7 1.8 3 0l2.6-20c.2-1.9-2.8-1.9-3 0z"/></g><g fill="#fff"><path d="M236.2 285.6c.2-.6 2-.4-.1-.4h-32.2c1.4 0 1.3 2.2 1.2.3l-.1-2.7-.4-10-1-23.4-.3-6.8c0-2 .2.3-1.3.3h36.4c1.7 0-.5-1-.5-1l-.7 16.3-1.1 28.3c-.2 4.5 6.8 4.5 7 0l1.5-37.1c.1-3.8 1.8-11.7-3.4-13-4.8-1.4-10.7-.5-15.7-.5H204c-4.8 0-7.9 2.3-7.7 7.4L198 284c.2 3.7 1 8.3 5.8 8.3h28.9c4.3 0 8.8.4 10.2-4.8 1.2-4.3-5.5-6.2-6.7-1.8z"/><path d="M196.9 249.3l1.7-24.2c.4-6.1 2.4-10.6 8.8-12.8 4-1.4 9.3-.6 13.4-.6 4 0 8.1-.4 12 .2a38475715972627870 38475715972627870 0 0 0 14.9 37.4l-2-27a14.1 14.1 0 0 0-9.5-12.5c-4.9-1.7-10.3-1.1-15.4-1.1-4.7 0-9.6-.5-14.2.7a14.3 14.3 0 0 0-10.8 12.9l-2 27c0 1.9 3 1.9 3 0z"/></g><path d="M170.1 219.6l-13.5 67.2c-1 4.4 5.8 6.3 6.7 1.9l13.6-67.2c.9-4.4-5.9-6.3-6.8-1.9z" fill="#fff"/></svg>