<svg xmlns="http://www.w3.org/2000/svg" width="361" height="361"><path d="M286.1 132.2H74.8c-2 0-2 3 0 3H286c2 0 2-3 0-3zM102.8 240.5c1.2 7.4 13 5.1 18.4 5.1h131.4c4.7 0 5.6-4.2 5.6-7.8v-73.6c0-7.7-11.3-5.7-16.2-5.7H116.3c-5.6 0-13.6-1.4-13.6 6.6v75c0 1.9 3 1.9 3 0v-72.5c0-2.7-.1-6.1 3.6-6.1h143c4 0 2.9 6.5 2.9 8.7V234c0 2.2 1 8.6-3 8.6h-136c-2.7 0-9.8 1.5-10.5-3-.4-1.8-3.2-1-3 .9zM225 120.9h10c1.9 0 1.9-3 0-3h-10c-2 0-2 3 0 3zm0-5h10c1.9 0 1.9-3 0-3h-10c-2 0-2 3 0 3zm0 10h10c1.9 0 1.9-3 0-3h-10c-2 0-2 3 0 3z" fill="#fff"/><path d="M147.3 133.2h10c1.9 0 1.9-3 0-3h-10c-2 0-2 3 0 3zm28.2 0h9.9c2 0 2-3 0-3h-10c-1.8 0-1.8 3 0 3zm29 0h9.9c1.9 0 1.9-3 0-3h-10c-1.9 0-1.9 3 0 3zm8.4-9.7c-.6 1.5-9.3.5-10.9.5h-51.5c-2.1 0-1.7-.5-1.7-2.7 0-.9-.5-6.5.4-6.5h63.2c1 0 .4 7.9.4 9 0 2 3 2 3 0 0-3 1.8-12-3.3-12h-57.7c-3.4 0-7.4-1-9 2.7-.8 2.1 0 6 0 8.3 0 2 .8 4.2 3.2 4.2h57.2c3.5 0 8 1 9.6-2.7.7-1.8-2.2-2.6-2.9-.8zm-85.5-2.6h9.9c2 0 2-3 0-3h-10c-1.9 0-1.9 3 0 3zm0-5h9.9c2 0 2-3 0-3h-10c-1.9 0-1.9 3 0 3zm0 10h9.9c2 0 2-3 0-3h-10c-1.9 0-1.9 3 0 3zm-5.7 26.1h117.5c6.4 0 6.4-10 0-10H121.7c-6.4 0-6.4 10 0 10zm103.8 79.8c-.5 1.1-15 0-16.4 0h-73.5c-.5 0-.3 0 0 .7l-1.2-3-2.7-6.7-.4 2.7c.5-1 14 0 15.4 0h67.5c1.2 0 14.8-1 15.3 0l-.4-2.7-4 9.8c-1.7 4.2 5 6 6.8 1.9 2.1-5.3 8-14.4-1.5-15.9-2.5-.4-5.3-.1-7.8-.1h-84.4c-2.5 0-5.3-.3-7.8.1-9.4 1.5-3.6 10.6-1.5 15.9 2.5 6 11.6 4.3 17 4.3h67.7c4.7 0 15.5 1.9 18-3.5 1.8-4-4.2-7.6-6.1-3.5z" fill="#fff"/><path d="M85 253c-8-.5-5.2-16.4-5.2-21.5V114.3c0-7.3 8.5-5.8 13.4-5.8H276c7.8 0 5.2 16.2 5.2 20.8V247c0 7.4-8 6-13 6H85c-6.4 0-6.4 10 0 10h182.3c8.7 0 17.8.6 22.4-8.7 3.2-6.4 1.5-16.7 1.5-23.5V114.2c0-8.9-6.6-15.1-15.2-15.7H86c-6.3 0-11.8 3-14.6 8.7-1.7 3.2-1.5 6.7-1.5 10.2v130c0 8.8 6.6 15 15.2 15.6 6.4.4 6.4-9.6 0-10z" fill="#fff"/><path d="M177.7 169.6c5.3 7 5.3 14.3 0 21.2a22.1 22.1 0 0 0-2.8 23.6c1.8 4.2 7.9.6 6-3.5-4-9 2.3-14.3 5.9-21.7 3.9-7.8 2.1-16.3-3-23.1-2.7-3.6-8.8-.1-6 3.5zm18.5 5.3c4.6 6 4.6 12.3 0 18.3a20 20 0 0 0-2.5 21.2c1.8 4.2 7.9.6 6-3.5-3.4-8 2.6-12.8 5.6-19.4 3-6.9 1.4-14.2-3-20.1-2.7-3.5-8.8 0-6 3.5zm-38 0c4.6 6 4.6 12.3 0 18.3a20 20 0 0 0-2.5 21.2c1.8 4.2 7.9.6 6-3.5-3.4-8 2.6-12.8 5.6-19.4 3-6.9 1.4-14.2-3-20.1-2.7-3.5-8.8 0-6 3.5z" fill="#fff"/></svg>