<svg xmlns="http://www.w3.org/2000/svg" width="361" height="361"><path d="M233.7 276.2c-.4 5.8-5.7 5.2-9.8 5.2H141c-2.8 0-6.6.6-9.2-.7-3.2-1.6-2.6-6-2.6-9v-104c0-5.6-2.3-17.5 6-17.5H215c5.9 0 18.8-2.6 18.8 6.2v120c0 6.4 10 6.4 10 0V155.7c0-8.9-6.6-15.2-15.2-15.7-8.8-.6-18 0-26.8 0h-63.6c-4.8 0-9.6.1-13.5 3.5-7.3 6.5-5.4 17.8-5.4 26.6V260c0 7.7-2 19.8 3.6 26.1 6.9 7.8 20.4 5.4 29.8 5.4h74c9.3 0 16.5-5.5 17.1-15.2.4-6.4-9.6-6.4-10 0z" fill="#fff"/><path d="M218 161v38.9c0 4.5 7 4.5 7 0v-39c0-4.4-7-4.4-7 0zm15.7-25.7c-.4 5.7-5.7 5.2-9.8 5.2H141c-2.8 0-6.6.6-9.2-.7-4-2-2.6-10.3-2.6-13.8V85.2c0-4.8 3.4-6 7.4-6h91.7c6 0 5.4 6 5.4 10.2v46c0 6.4 10 6.4 10 0v-51c0-8.6-7-15.3-15.5-15.3h-78c-10.3 0-24-2.4-29.5 8.7-2.2 4.4-1.5 10.3-1.5 15v41.3c0 9.1 6 15.8 15.2 16.4 8.8.6 18 0 26.8 0h66c9.1 0 15.9-6 16.5-15.2.4-6.4-9.6-6.4-10 0z" fill="#fff"/><path d="M218 90.4v38.8c0 4.6 7 4.6 7 0V90.5c0-4.6-7-4.6-7 0zm-41.4 99.8v33c0 4.5 7 4.5 7 0v-33c0-4.6-7-4.6-7 0z" fill="#fff"/><path d="M168.8 196.5l9.6 5.6c3.9 2.2 7.4-3.8 3.5-6l-9.6-5.6c-4-2.3-7.5 3.8-3.6 6z" fill="#fff"/><path d="M187.9 190.4l-9.7 5.6c-3.9 2.3-.3 8.3 3.6 6l9.6-5.5c4-2.3.4-8.3-3.5-6zm-38.3 19l28.7 16.4c3.9 2.3 7.4-3.8 3.5-6l-28.6-16.5c-4-2.3-7.5 3.8-3.6 6z" fill="#fff"/><path d="M151.2 219.3l9.7-5.6c3.9-2.2.4-8.3-3.6-6l-9.6 5.6c-3.9 2.2-.4 8.3 3.5 6z" fill="#fff"/><path d="M155.5 199.7V211c0 4.5 7 4.5 7 0v-11.2c0-4.5-7-4.5-7 0z" fill="#fff"/><g fill="#fff"><path d="M153.2 242.3l28.7-16.5c3.9-2.2.3-8.3-3.6-6l-28.6 16.5c-3.9 2.2-.4 8.3 3.5 6z"/><path d="M162.7 246v-11.1c0-4.6-7-4.6-7 0v11c0 4.6 7 4.6 7 0z"/><path d="M147.8 232.4l9.7 5.6c3.9 2.3 7.4-3.8 3.5-6l-9.6-5.6c-4-2.3-7.5 3.8-3.6 6z"/></g><g fill="#fff"><path d="M183.6 256v-33c0-4.6-7-4.6-7 0v33c0 4.5 7 4.5 7 0z"/><path d="M191.5 249.6l-9.7-5.5c-3.9-2.3-7.4 3.7-3.5 6l9.6 5.6c4 2.2 7.5-3.8 3.6-6z"/><path d="M172.4 255.7l9.6-5.6c3.9-2.3.4-8.3-3.5-6l-9.7 5.5c-3.9 2.3-.4 8.3 3.6 6z"/></g><g fill="#fff"><path d="M210.6 236.5L182 220c-4-2.2-7.5 3.8-3.6 6l28.7 16.6c3.9 2.2 7.4-3.8 3.5-6z"/><path d="M209 226.6l-9.6 5.5c-4 2.3-.4 8.3 3.5 6l9.6-5.5c4-2.3.4-8.3-3.5-6z"/><path d="M204.7 246.1v-11c0-4.6-7-4.6-7 0v11c0 4.5 7 4.5 7 0z"/></g><g fill="#fff"><path d="M207 203.5L178.4 220c-4 2.3-.4 8.3 3.5 6l28.6-16.4c4-2.3.4-8.3-3.5-6z"/><path d="M197.6 199.9V211c0 4.5 7 4.5 7 0v-11.1c0-4.5-7-4.5-7 0z"/><path d="M212.4 213.4l-9.6-5.6c-4-2.2-7.5 3.8-3.6 6.1l9.7 5.6c3.9 2.2 7.4-3.8 3.5-6z"/></g></svg>