<svg xmlns="http://www.w3.org/2000/svg" width="361" height="361"><path d="M153.5 286.7L167.7 141l.8-8c.6-6.4-9.4-6.4-10 0l-14.2 145.7-.8 8c-.6 6.4 9.4 6.3 10 0zm65.3 0L205.6 141l-.8-8c-.6-6.4-10.6-6.4-10 0l13.3 145.7.7 8c.6 6.3 10.6 6.4 10 0z" fill="#fff"/><path d="M175.7 73.3a992521 992521 0 0 0-17 58.4c-1.8 6.2 7.8 8.8 9.6 2.6a992521 992521 0 0 0 17-58.3c1.8-6.2-7.8-8.8-9.6-2.7z" fill="#fff"/><path d="M175.7 76l19.3 58.3c2 6.1 11.7 3.5 9.7-2.6l-19.4-58.4c-2-6-11.7-3.4-9.6 2.7zm-24.1 203.2l60.6-23c4.2-1.5 2.4-8.3-1.8-6.7l-60.7 23c-4.2 1.5-2.4 8.3 1.9 6.7z" fill="#fff"/><path d="M212.2 272.4l-60.6-22.9c-4.3-1.6-6 5.2-1.9 6.8l60.7 22.9c4.2 1.6 6-5.2 1.8-6.8zm-52.8-37.2l45-17c4.1-1.6 2.3-8.3-2-6.7l-44.8 17c-4.2 1.5-2.4 8.3 1.8 6.7z" fill="#fff"/><path d="M204.3 228.4l-44.9-17c-4.2-1.6-6 5.2-1.8 6.8l44.9 17c4.2 1.6 6-5.2 1.8-6.8zm-40.1-114.2l-53.7 15c-6.2 1.7-3.6 11.4 2.7 9.6l53.6-15c6.2-1.7 3.6-11.4-2.6-9.6zm31.4 9.6l53.7 15c6.2 1.8 8.8-7.9 2.6-9.6l-53.7-15c-6.2-1.8-8.8 7.9-2.6 9.6zm-40.1 40.3l-53.7 15c-6.2 1.7-3.6 11.3 2.7 9.6l53.6-15c6.2-1.7 3.6-11.4-2.6-9.6zm47.4 9.6l53.6 15c6.3 1.7 8.9-8 2.7-9.6l-53.7-15c-6.2-1.8-8.8 7.9-2.6 9.6z" fill="#fff"/><path d="M161.7 192.4l40.4-15.3c4.2-1.6 2.4-8.3-1.9-6.8l-40.4 15.3c-4.2 1.6-2.4 8.4 1.9 6.8z" fill="#fff"/><path d="M202.1 185.7l-40.4-15.3c-4.2-1.7-6 5.1-1.9 6.7l40.4 15.3c4.3 1.6 6-5.2 1.9-6.8zm-37-29.4l33.6-12.8c4.2-1.6 2.4-8.3-1.8-6.8l-33.7 12.8c-4.2 1.6-2.4 8.3 1.9 6.7z" fill="#fff"/><path d="M198.7 149.5l-33.6-12.8c-4.3-1.5-6 5.2-2 6.8l33.8 12.7c4.2 1.6 6-5.1 1.8-6.7zm-97.2 59h5.3c1.9 0 3.5-1.6 3.5-3.5s-1.6-3.5-3.5-3.5h-5.3c-2 0-3.5 1.6-3.5 3.5s1.6 3.5 3.5 3.5zm0-9.3h5.3c1.9 0 3.5-1.6 3.5-3.5s-1.6-3.5-3.5-3.5h-5.3c-2 0-3.5 1.6-3.5 3.5s1.6 3.5 3.5 3.5zm153.4 9.3h5.3c2 0 3.5-1.6 3.5-3.5s-1.6-3.5-3.5-3.5H255c-2 0-3.5 1.6-3.5 3.5s1.6 3.5 3.5 3.5zm0-9.3h5.3c2 0 3.5-1.6 3.5-3.5s-1.6-3.5-3.5-3.5H255c-2 0-3.5 1.6-3.5 3.5s1.6 3.5 3.5 3.5zM107 158.7h5.4c1.9 0 3.5-1.6 3.5-3.5s-1.6-3.5-3.5-3.5H107c-1.9 0-3.5 1.6-3.5 3.5s1.6 3.5 3.5 3.5zm0-9.3h5.4c1.9 0 3.5-1.6 3.5-3.5s-1.6-3.5-3.5-3.5H107c-1.9 0-3.5 1.5-3.5 3.5s1.6 3.5 3.5 3.5zm141.4 9.3h5.4c1.9 0 3.5-1.6 3.5-3.5s-1.6-3.5-3.5-3.5h-5.4c-1.9 0-3.5 1.6-3.5 3.5s1.6 3.5 3.5 3.5zm0-9.3h5.4c1.9 0 3.5-1.6 3.5-3.5s-1.6-3.5-3.5-3.5h-5.4c-1.9 0-3.5 1.5-3.5 3.5s1.6 3.5 3.5 3.5z" fill="#fff"/></svg>