<svg xmlns="http://www.w3.org/2000/svg" width="361" height="361"><path d="M258 115H104c-6 0-6 10 0 10h154c6 0 6-10 0-10z" fill="#fff"/><path d="M253 276c-1 8-17 5-22 5H114c-7 0-6-8-6-13V85c0-7 16-5 21-5h118c7 0 6 8 6 13v183c0 7 10 7 10 0V94c0-9 0-18-9-22-6-4-17-2-23-2H114c-9 0-15 7-16 15v190c0 7 3 12 9 15 3 2 7 1 10 1h130c9 0 15-6 16-15 0-6-10-6-10 0z" fill="#fff"/><path d="M180 102h26c9 0 9-15 0-15h-26c-10 0-10 15 0 15zm53 94a53 53 0 0 1-37 50 52 52 0 0 1-59-22 52 52 0 0 1 5-62 52 52 0 0 1 62-12 53 53 0 0 1 29 47c0 6 10 6 10 0a63 63 0 0 0-32-55 63 63 0 0 0-64 3 63 63 0 0 0-27 57 62 62 0 0 0 36 51 63 63 0 0 0 59-5 63 63 0 0 0 28-52c0-6-10-6-10 0z" fill="#fff"/><path d="M217 196a36 36 0 0 1-36 36c-19 0-35-16-35-36a36 36 0 0 1 35-35 36 36 0 0 1 36 35c0 5 7 5 7 0a43 43 0 0 0-40-42 43 43 0 0 0-45 37 43 43 0 0 0 34 47 43 43 0 0 0 51-42c0-4-7-4-7 0zM156 75v45c0 7 10 7 10 0V75c0-6-10-6-10 0zm82 23h5c3 0 5-3 5-5s-2-5-5-5h-5c-3 0-5 2-5 5s2 5 5 5zm-3 79v39c0 6 10 6 10 0v-39c0-6-10-6-10 0zm-60-66h10c2 0 2-3 0-3h-10c-2 0-2 3 0 3zm16 0h10c2 0 2-3 0-3h-10c-2 0-2 3 0 3zm16 0h9c3 0 3-3 1-3h-10c-2 0-2 3 0 3zm15 0h11v-3h-10c-2 0-2 3 0 3zm-83 159c-1 5-8 4-12 4s-10 1-11-5v-15c0-6 9-4 11-4 4 0 11-2 12 4v16c0 2 3 2 3 0v-14c0-4-1-9-6-9h-14c-5 0-9 2-9 7v13c0 4 1 9 6 10h14c5 0 8-2 9-8 0-1-3-1-3 1z" fill="#fff"/></svg>