<svg xmlns="http://www.w3.org/2000/svg" width="361" height="361"><path d="M157.1 71l-13.5 13.6c-4.6 4.5 2.5 11.6 7 7l13.6-13.5c4.6-4.6-2.5-11.7-7-7.1zm34.7 39.1h-36c-6.4 0-6.4 10 0 10h36c6.5 0 6.5-10 0-10zM79.6 161.6l13.7-13.7c4.6-4.6-2.5-11.7-7-7.1l-13.7 13.7c-4.6 4.5 2.5 11.6 7 7zM123 189v-36c0-6.5-10-6.5-10 0v36c0 6.4 10 6.4 10 0zm52.1-22.8l-25.4-25.5c-4.6-4.6-11.7 2.5-7.1 7l25.5 25.5c4.5 4.6 11.6-2.5 7-7z" fill="#fff"/><path d="M191.8 110.1h-36c-6.4 0-6.4 10 0 10h36c6.5 0 6.5-10 0-10zm-68.9 79v-36c0-6.5-10-6.5-10 0v36c0 6.4 10 6.4 10 0zm52.1-22.8l-25.4-25.5c-4.6-4.6-11.7 2.5-7.1 7l25.5 25.5c4.5 4.6 11.6-2.5 7-7zM164.3 91L154 95.3c-2.5 1-4.2 3.3-3.5 6.2.7 2.4 3.7 4.5 6.2 3.5l10.1-4.2c2.6-1 4.3-3.3 3.5-6.2-.6-2.3-3.6-4.5-6.1-3.5zm2.3 40.2l-10.1-4.2c-2.5-1-5.5 1.2-6.2 3.5-.8 3 1 5.1 3.5 6.2L164 141c2.5 1 5.5-1.1 6.1-3.5.8-2.9-1-5.1-3.5-6.2zm-24.4 30L138 151c-1-2.6-3.3-4.3-6.1-3.5-2.4.6-4.6 3.6-3.5 6.1l4.2 10.2c1 2.5 3.2 4.2 6.1 3.5 2.4-.7 4.6-3.7 3.5-6.2zm-38.7 2.6l4.2-10.2c1-2.5-1-5.5-3.5-6.1-2.8-.8-5 1-6.1 3.5l-4.2 10.1c-1 2.5 1.1 5.5 3.5 6.2 2.9.7 5.1-1 6.1-3.5zm29-90.8l-2.3 5.6c-1 2.5 1.1 5.5 3.5 6.2 2.9.8 5.1-1 6.2-3.5l2.3-5.6c1-2.6-1.1-5.5-3.5-6.2-2.9-.8-5.1 1-6.2 3.5zM77 138l6-2.4c2.4-1 4.2-3.3 3.4-6.2-.7-2.4-3.6-4.5-6.2-3.5l-5.8 2.4c-2.5 1-4.3 3.3-3.5 6.2.6 2.4 3.6 4.5 6.1 3.5z" fill="#fff"/><path d="M92.4 124.2c0 8.1 6.6 14.7 14.8 14.7h19c8.1 0 14.8-6.6 14.8-14.7V106c0-8.2-6.7-14.8-14.8-14.8h-19A14.8 14.8 0 0 0 92.4 106v18z" fill="none" stroke="#fff" stroke-width="10" stroke-miterlimit="10"/><path d="M119.7 254.3l13.3-16.8c1.7-2.1 2-5 0-7-1.8-1.8-5.4-2.2-7.1 0l-13.3 16.7c-1.7 2.1-2.1 5 0 7 1.8 1.8 5.4 2.2 7 0z" fill="#fff"/><path d="M130 238l21.3-2c6.3-.7 6.4-10.7 0-10l-21.3 2c-6.4.7-6.4 10.7 0 10zm-13.4 8.5l-20.8-4.8c-6.3-1.5-9 8.2-2.7 9.6l20.8 4.9c6.3 1.4 9-8.2 2.7-9.7z" fill="#fff"/><path d="M90.5 242.4l-18.1 11.4c-5.4 3.4-.4 12.1 5 8.6L95.5 251c5.4-3.4.4-12-5-8.6zm88 21l11-9.6c2.1-1.8 1.9-5.2 0-7a5 5 0 0 0-7 0l-11 9.5c-2 1.8-1.8 5.3 0 7.1 2 2 5 1.8 7 0z" fill="#fff"/><path d="M185.5 254.7l14.2 3.5c6.2 1.6 8.9-8 2.6-9.6l-14.2-3.5c-6.2-1.6-8.9 8-2.6 9.6zm-8.6 1.2l-13.4-5.9c-2.5-1-5.3-.7-6.8 1.8-1.3 2.2-.7 5.8 1.8 6.9l13.3 5.8c2.5 1.1 5.4.8 6.9-1.8 1.2-2.1.7-5.7-1.8-6.8z" fill="#fff"/><path d="M158 250.5l-11.7 8.8c-2.2 1.7-3.3 4.3-1.8 6.9 1.3 2.1 4.7 3.4 6.8 1.8l11.7-9c2.2-1.6 3.3-4.2 1.8-6.8-1.3-2.1-4.7-3.4-6.8-1.8z" fill="#fff"/><g fill="#fff" stroke="#fff" stroke-width="10" stroke-miterlimit="10"><path d="M250.1 221.6c0 2-2 3.6-4.4 3.6h-34.4c-2.4 0-4.4-1.6-4.4-3.6V196c0-2 2-3.6 4.4-3.6h34.4c2.4 0 4.4 1.6 4.4 3.6v25.7z"/><path d="M187.3 206.7a5.9 5.9 0 0 0 5.9 5.9h27.5a5.9 5.9 0 0 0 5.9-6V190a5.9 5.9 0 0 0-6-6h-27.5a5.9 5.9 0 0 0-5.9 6v16.7z"/><path d="M175.5 206.7a5.9 5.9 0 0 1 5.9-6h33.9a5.9 5.9 0 0 1 5.9 6v9.3a5.9 5.9 0 0 1-6 6h-33.8a5.9 5.9 0 0 1-6-6v-9.3z"/><path d="M265.3 208.4a5.9 5.9 0 0 0-6-5.9h-33.8a5.9 5.9 0 0 0-6 6v9.3a5.9 5.9 0 0 0 6 5.9h33.9a5.9 5.9 0 0 0 5.9-6v-9.3z"/></g><g fill="#fff" stroke="#fff" stroke-width="10" stroke-miterlimit="10"><path d="M287.3 152.4c0-2.6-2-4.8-4.6-4.8h-26.9a4.7 4.7 0 0 0-4.6 4.8v7.6c0 2.6 2 4.8 4.6 4.8h26.9a4.7 4.7 0 0 0 4.6-4.8v-7.6z"/><path d="M241.2 155.4c0 2.1 2 3.8 4.6 3.8h21.8c2.6 0 4.7-1.7 4.7-3.8v-10.6c0-2.1-2.1-3.8-4.7-3.8h-21.8c-2.6 0-4.6 1.7-4.6 3.8v10.6z"/><path d="M262.6 151.4a4 4 0 0 0-3.9-4h-22.3a4 4 0 0 0-4 4v6.3a4 4 0 0 0 4 4h22.3a4 4 0 0 0 4-4v-6.3z"/></g></svg>