<svg xmlns="http://www.w3.org/2000/svg" width="361" height="361"><path d="M268.6 261.7c.4 4.3 2.9 8.1 7.5 8.6 3 .4 7.9.9 10.5-.8 3.8-2.4 4.7-5.8 4.7-9.9V107.1c0-1.8.4-4.5-.2-6.3-1.4-3.9-4.4-6.6-8.8-6.6-3.5 0-8-.6-10.7 2.2-4.7 4.7-3 14-3 20.1v145.2c0 4.5 7 4.5 7 0V104.5c0-4.4 8.7-4.6 8.7-1.5v158.6c0 2.8-8.4 2.9-8.8 0-.4-4.4-7.5-4.4-7 0zm-59-129l51.8-20.4c1.7-.7 1-3.6-.8-3L208.7 130c-1.8.7-1 3.6.8 2.9zm-2.9 19.3l53.5 33.6c1.6 1 3.1-1.5 1.5-2.6l-53.5-33.6c-1.6-1-3.1 1.6-1.5 2.6zm-16.2-4.8c-.7 4-4.8 3-7.3 2.8-2.8 0-4.5-1.8-4.4-4.5l.4-12.5c.1-3.8 6-2.6 8-2.5 3.4.1 3.8 2.7 3.7 5.1l-.4 12c-.1 2 2.9 2 3 0l.3-8.8c0-3.2.8-6.5-1.2-9.2-1.9-2.6-5.8-2.1-8.6-2.2-3.8-.2-7 .9-7.8 5.1-.4 2.7-.2 5.6-.3 8.4 0 2.3-1 7 .5 9 3.5 5 15.8 5.1 17-2 .3-1.8-2.6-2.6-2.9-.7z" fill="#fff"/><path d="M186.9 129l-.8 22.7c-.1 2 2.9 2 3 0l.8-22.7c0-2-3-1.9-3 0zm-13.4 26.6c-.7 4.5-7.7 2.7-10.8 2.6l-21.5-.8-40-1.4c-5-.2-3.5-6.1-3.4-9.8l.7-18.6c.1-3.4 9.2-1.8 10.7-1.8l21.5.8 40 1.4c5 .2 3.5 6.2 3.3 9.8l-.6 18.7c-.2 4.5 6.8 4.5 7 0l.6-17.8c.2-6 1.7-14-5.3-16.8-3.3-1.3-7.5-1-11-1l-21.2-.8-40.5-1.5c-5.7-.2-11.2 2.4-11.5 9l-.6 18.6c-.2 3.4-1.2 8.6.7 11.7 2 3.6 5.3 5 9.4 5.1l26.4 1 33.9 1.1c7.1.3 17.5 2.2 19-7.6.6-4.5-6.1-6.4-6.8-1.9z" fill="#fff"/><path d="M103.7 136.5l32.4 1.2c2 0 2-3 0-3l-32.4-1.2c-2 0-2 3 0 3zm.2-5l32.4 1.2c2 .1 2-2.9 0-3l-32.4-1.1c-2 0-2 3 0 3zm-.4 10l32.4 1.1c2 0 2-3 0-3l-32.4-1.2c-2 0-2 3 0 3zm84-61.8h99.3c6.5 0 6.5-10 0-10h-99.2c-6.5 0-6.5 10 0 10zM86.8 172l89.2 20.3c6.2 1.4 8.9-8.2 2.6-9.7l-89.1-20.3c-6.3-1.4-9 8.2-2.7 9.7zM75.2 79.7h15.3c6.5 0 6.5-10 0-10H75.2c-6.4 0-6.4 10 0 10z" fill="#fff"/><path d="M84.3 76.7H197c4.5 0 4.5-7 0-7H84.3c-4.5 0-4.5 7 0 7z" fill="#fff"/></svg>