<svg xmlns="http://www.w3.org/2000/svg" width="361" height="361"><path d="M164.3 176.2c-.6 13.7-20.6 13.7-21.3 0-.7-13.8 20.7-13.7 21.3 0 .2 4.5 7.2 4.5 7 0a18 18 0 0 0-17.6-17.7c-10-.5-17.3 8.4-17.7 17.7-.5 9.9 8.4 17.2 17.7 17.6 9.9.5 17.2-8.4 17.6-17.6.3-4.6-6.7-4.5-7 0z" fill="#fff"/><circle cx="227.6" cy="144.8" r="6.3" fill="#fff"/><circle cx="255.1" cy="144.8" r="6.3" fill="#fff"/><circle cx="241.3" cy="131.1" r="6.3" fill="#fff"/><circle cx="241.3" cy="158.5" r="6.3" fill="#fff"/><path d="M217.7 176.2c-.7 13.7-20.7 13.7-21.4 0-.6-13.8 20.7-13.7 21.4 0 .2 4.5 7.2 4.5 7 0a18 18 0 0 0-17.7-17.7c-10-.5-17.2 8.4-17.7 17.7-.4 9.9 8.5 17.2 17.7 17.6 10 .5 17.2-8.4 17.7-17.6.2-4.6-6.8-4.5-7 0z" fill="#fff"/><path d="M292.1 219.1a461.9 461.9 0 0 0-6.3-46.2 222.4 222.4 0 0 0-11-43c-5-12.1-13.5-25-27.5-26-12.4-1-29-1.6-36.1 10.6l4.3-2.5h-68l4.3 2.5c-5.3-9-15.5-10.8-25-11-9.4 0-18.7 0-25.8 6.6-13.8 13-18 34.3-21.7 51.8a485.7 485.7 0 0 0-5.9 34.3c-1.5 10.5-3 21.2-2.9 31.9.1 8.6 2.2 17.9 9 23.7a30 30 0 0 0 25.6 5.7c14.4-3.4 19.1-16.6 24.5-28.5l12.6-28.2h-8.6c8.4 13.4 32.5 13.6 41.9 1.4l-4.4 2.4H192l-4.4-2.4c9.4 12.2 33.5 12 41.9-1.4h-8.7l10 22.4c3.8 8.3 7 18.2 12.6 25.2 9 11.1 25 12.3 36.9 5.7 12.3-6.9 12.8-22.6 12-35-.5-6.4-10.5-6.4-10 0 .6 9.7 1.5 23-9.3 27.5a19.3 19.3 0 0 1-15.6 0c-6.4-2.8-8.8-8.2-11.5-14.2l-16.4-36.6c-1.6-3.6-6.8-3-8.6 0-3.6 5.7-12.9 5.8-18.7 4.5-1.6-.4-3-1-4.4-1.9-1.4-.8-2-2.3-3.3-3-3.1-1.9-8.6-.8-12-.8-3.9 0-8.8-.8-12.6.2-1.8.5-2.7 2-4 3.3-1 1-2.6 1.4-4 1.9-5.8 1.9-16 1.6-19.6-4.2-1.8-3-7-3.6-8.6 0l-15 33.5c-3.2 7-5.5 13.6-12.9 17.4-6.6 3.4-17.3 1.5-21.8-4.8-5.4-7.6-3.4-19.5-2.6-28.2a442.7 442.7 0 0 1 4.5-32.6 371.7 371.7 0 0 1 7.1-33 71 71 0 0 1 8.9-22.5c2.6-4 5.2-8.4 9.6-10.8 3.5-1.9 9.2-1 13.1-1.2 4.5-.1 9 .1 13.3 1.5 4.1 1.3 5.4 7 9.8 7h67.9c4 0 5.9-5.6 9.7-7 4.5-1.7 9.6-1.6 14.3-1.5 3.9.1 8.6-.4 12.1 1.2 4.8 2.2 7.7 8 10.5 12.1 3 4.6 4.7 10.2 6.4 15.4 2.5 8.2 4.4 16.6 6 25a427.8 427.8 0 0 1 7.7 51.8c.5 6.4 10.5 6.5 10 0z" fill="#fff"/><path d="M216.5 143.3a3 3 0 0 1-3 3h-64.3a3 3 0 0 1-3-3v-23.9a3 3 0 0 1 3-3h64.2a3 3 0 0 1 3.1 3v23.9z" fill="none" stroke="#fff" stroke-width="3" stroke-miterlimit="10"/><g fill="#fff"><circle cx="105.6" cy="144.8" r="6.3"/><circle cx="133.1" cy="144.8" r="6.3"/><circle cx="119.3" cy="131.1" r="6.3"/><circle cx="119.3" cy="158.5" r="6.3"/></g></svg>