<svg xmlns="http://www.w3.org/2000/svg" width="361" height="361"><path d="M127.4 146L266 89.4l22.8-9.3c6-2.4 3.3-12.1-2.6-9.6L147.6 127l-22.8 9.3c-6 2.4-3.3 12.1 2.6 9.7zm149.8 139.7a6 6 0 0 1-6 6H143.5a6 6 0 0 1-6-6V274a6 6 0 0 1 6-6h127.7a6 6 0 0 1 6 6v11.7zm-38.5-72.8l-5.7 28.5c-1.2 6.3 8.4 9 9.7 2.7l5.6-28.5c1.3-6.3-8.4-9-9.6-2.7z" fill="#fff"/><path d="M232.2 244l-.4 24.3c0 6.5 10 6.5 10 0l.4-24.3c0-6.5-10-6.4-10 0z" fill="#fff"/><path d="M237.2 239.3h-29c-6.5 0-6.5 10 0 10h29c6.4 0 6.4-10 0-10z" fill="#fff"/><path d="M205.3 246.5l-2.9 22.3c-.8 6.4 9.3 6.3 10 0l2.8-22.3c.9-6.4-9.2-6.3-10 0zm-50.8-9.5v29.7c0 6.4 10 6.4 10 0V237c0-6.5-10-6.5-10 0z" fill="#fff"/><path d="M140.8 236.7h55c6.5 0 6.5-10 0-10h-55c-6.4 0-6.4 10 0 10zm24.7 44.6h-91c-6.5 0-6.5 10 0 10h91c6.5 0 6.5-10 0-10z" fill="#fff"/><path d="M172.5 236v29.7c0 6.4 10 6.4 10 0V236c0-6.5-10-6.5-10 0z" fill="#fff"/><path fill="none" stroke="#fff" stroke-width="10" d="M269.2 86.8v184.5"/></svg>