<svg xmlns="http://www.w3.org/2000/svg" width="361" height="361"><path d="M257.7 115.3H104.2c-6.5 0-6.5 10 0 10h153.5c6.4 0 6.4-10 0-10z" fill="#fff"/><path d="M252.7 276.2c-.5 8-16.4 5.2-21.5 5.2H114c-7.3 0-5.8-8.5-5.8-13.4V85.3c0-7.8 16.2-5.2 20.8-5.2h117.7c7.4 0 6 8 6 13v183.1c0 6.5 10 6.5 10 0V94c0-8.7.6-17.8-8.7-22.5-6.4-3.1-16.7-1.4-23.5-1.4H113.9c-8.9 0-15.1 6.6-15.7 15.1v190.1c0 6.3 3 11.8 8.7 14.6 3.2 1.7 6.7 1.5 10.2 1.5h130c8.8 0 15-6.6 15.6-15.2.4-6.4-9.6-6.4-10 0z" fill="#fff"/><path d="M169.6 102.2h26.2c9.7 0 9.7-15 0-15h-26c-9.7 0-9.8 15-.2 15zm68.6-4.6h4.6c2.8 0 5-2.3 5-5s-2.2-5-5-5h-4.6c-2.7 0-5 2.3-5 5s2.3 5 5 5zm-103.5 13h10c1.9 0 1.9-3 0-3h-10c-2 0-2 3 0 3zm26 0h9.9c1.9 0 1.9-3 0-3h-10c-1.9 0-1.9 3 0 3zm25.9 0h9.9c2 0 2-3 0-3h-10c-1.9 0-1.9 3 0 3zm25.9 0h9.9c2 0 2-3 0-3h-10c-1.9 0-1.9 3 0 3zm-77.8-11.3h10c1.9 0 1.9-3 0-3h-10c-2 0-2 3 0 3zm95.5 144.2c-.1.8-23.8.1-25.3.1H157c-1.6 0-25.2.7-25.3 0-1-8.6 0-17.8 0-26.3 0-5.3-.2-71.6.2-71.6h75.5c1.3 0 22.7-.2 22.7.1v97.7c0 6.5 10 6.5 10 0v-91.8c0-3 .3-6.5-.7-9.5-3.4-9.4-19.4-6.5-27.1-6.5h-79.6c-12 0-11 11.6-11 20v83.8c0 4.3 0 8.2 3.4 11.6 3 3 7.4 2.6 11.2 2.6h83.8c8.5 0 18.6 1.2 20-10.2.7-6.4-9.3-6.3-10 0z" fill="#fff"/></svg>