<svg xmlns="http://www.w3.org/2000/svg" width="361" height="361"><path d="M178 82v207c0 4 7 4 7 0V82c0-5-7-5-7 0zm81 0v207c0 4 7 4 7 0V82c0-5-7-5-7 0z" fill="#fff"/><path d="M259 84h-77c-5 0-5 7 0 7h77c5 0 5-7 0-7zm0 55h-77c-5 0-5 7 0 7h77c5 0 5-7 0-7zm0 55h-77c-5 0-5 7 0 7h77c5 0 5-7 0-7zm-54-4c-6 0-4-6-4-9v-12c0-6 8-4 12-4h38c5 0 4 4 4 7v12c0 3 1 6-4 6h-46c-2 0-2 3 0 3h36c4 0 11 2 14 0 5-3 3-12 3-17s2-13-5-14h-51c-6 2-4 13-4 17 0 6-2 14 7 14 2 1 2-2 0-3z" fill="#fff"/><g fill="#fff"><path d="M242 134a5 5 0 0 1-5 5h-9a5 5 0 0 1-5-5v-12a5 5 0 0 1 5-5h9a5 5 0 0 1 5 5v12zm-33 0a5 5 0 0 1-5 5h-10a5 5 0 0 1-5-5v-12a5 5 0 0 1 5-5h10a5 5 0 0 1 5 5v12z"/><path d="M203 114a5 5 0 0 1 0-8l7-6a5 5 0 0 1 7 0l9 9a5 5 0 0 1 0 7l-7 6a5 5 0 0 1-7 0l-9-8z"/></g><g fill="#fff"><path d="M108 98v167c0 5 7 5 7 0V99c0-5-7-5-7 0z"/><path d="M85 271h53c6 0 6-10 0-10H85c-7 0-7 10 0 10z"/><path d="M87 270l-1 20c0 2 3 2 3 0l1-20c0-2-3-2-3 0zm10 0v20c0 2 3 2 3 0v-20c0-2-3-2-3 0zm-5 0v20c0 2 3 2 3 0v-20c0-2-3-2-3 0zm10 0v20c0 2 3 2 3 0v-20c0-2-3-2-3 0zm5 0v20c0 2 3 2 3 0v-20c0-2-3-2-3 0zm10 0v20c0 2 3 2 3 0v-20c0-2-3-2-3 0zm-5 0v20c0 2 3 2 3 0v-20c0-2-3-2-3 0zm10 0v20c0 2 3 2 3 0v-20c0-2-3-2-3 0zm9 0l2 20c0 2 3 2 3 0l-1-20c0-2-3-2-3 0zm-4 0v20c0 2 3 2 3 0v-20c0-2-3-2-3 0zm9 0l3 20c0 2 3 2 3 0l-3-20c0-2-3-2-3 0zm-54 0l-2 20c-1 2 2 2 3 0l2-20c1-2-2-2-3 0z"/></g><g fill="#fff"><path d="M236 286c0-1 2-1 0-1h-32l1 1v-13l-1-24-1-6c0-2 0 0-1 0h36c2 0 0-1 0-1l-1 16-1 29c0 4 7 4 7 0l2-38c0-3 1-11-4-13h-37c-5 0-8 2-8 7l2 41c0 4 1 8 6 8h29c4 0 9 1 10-4s-6-7-7-2z"/><path d="M197 249l2-24c0-6 2-10 8-13h26a38475715972627870 38475715972627870 0 0 0 15 37l-2-27a14 14 0 0 0-10-12c-5-2-10-1-15-1h-14a14 14 0 0 0-11 13l-2 27c0 2 3 2 3 0z"/></g><path d="M170 220l-13 67c-1 4 5 6 6 2l14-68c1-4-6-6-7-1z" fill="#fff"/></svg>