<svg xmlns="http://www.w3.org/2000/svg" width="361" height="361"><path d="M273 175a7.4 7.4 0 0 1-7.4 7.5h-73.2a7.4 7.4 0 0 1-7.4-7.4v-46.8a7.4 7.4 0 0 1 7.4-7.4h73.2a7.4 7.4 0 0 1 7.4 7.4v46.8z" fill="#fff" stroke="#fff" stroke-width="10" stroke-miterlimit="10"/><path fill="none" stroke="#fff" stroke-width="10" stroke-miterlimit="10" d="M172.4 152h113.8"/><path d="M168.1 143.2v17c0 6.4 10 6.4 10 0v-17c0-6.5-10-6.5-10 0zm10-41.4h108c6.5 0 6.5-10 0-10h-108c-6.4 0-6.4 10 0 10zm-79.8-4.6v189.5c0 6.4 10 6.4 10 0V97.2c0-6.5-10-6.5-10 0z" fill="#fff"/><path d="M76.5 222h54.1c4.5 0 4.5-7 0-7H76.5c-4.5 0-4.5 7 0 7zm-2.6 17.4h59.3c4.5 0 4.5-7 0-7H73.9c-4.5 0-4.5 7 0 7zm0 8.7h59.3c4.5 0 4.5-7 0-7H73.9c-4.5 0-4.5 7 0 7zm.5 8.7h58.2c4.6 0 4.6-7 0-7H74.5c-4.5 0-4.5 7 0 7zm2.8 8.7h52.7c4.5 0 4.5-7 0-7H77.2c-4.6 0-4.6 7 0 7zM86 283h35c4.6 0 4.6-7 0-7H86c-4.5 0-4.5 7 0 7zm24.7-161.6a4 4 0 0 1-4 4h-7.3a4 4 0 0 1-4-4V74a4 4 0 0 1 4-4h7.3a4 4 0 0 1 4 4v47.3zM73.9 230.7h59.3c4.5 0 4.5-7 0-7H73.9c-4.5 0-4.5 7 0 7zm6.7 43.5h45.9c4.5 0 4.5-7 0-7H80.6c-4.5 0-4.5 7 0 7zm13.8 17.4h18.3c4.5 0 4.5-7 0-7H94.4c-4.6 0-4.6 7 0 7zM281.2 96.8V152c0 6.5 10 6.5 10 0V96.7c0-6.4-10-6.4-10 0z" fill="#fff"/></svg>