<svg xmlns="http://www.w3.org/2000/svg" width="361" height="361"><path d="M207 104a3 3 0 0 1-4 0l-13-13a3 3 0 0 1 0-4l3-3a3 3 0 0 1 4 0l13 13a3 3 0 0 1 0 4l-3 3z" fill="#fff"/><path d="M205 101a30014 30014 0 0 0-7-8l-5-4c-1-1 0 0 0 0l2-2s-1-1 0 0l2 2 5 6 5 4c1 1 0-1 0 0l-3 2c-3 3 2 8 5 5s6-5 5-9l-6-6c-4-4-10-14-17-10-3 2-6 6-5 10l6 6c4 4 10 14 17 10 3-3 0-9-4-6z" fill="#fff"/><path d="M202 70l-14 14c-3 3 2 8 5 5l14-14c4-3-1-8-5-5zm16 18l-12 12c-3 3 2 8 5 5l12-13c3-3-2-8-5-5z" fill="#fff"/><path d="M207 163c0 1 2 0 0 0h-5l1 1v-62c0-1-2 0 0 0h5-1v62c0 5 7 5 7 0v-55c0-4 1-10-2-13-2-2-7-1-9-1-4 0-7 3-7 7v56c0 4 0 7 2 10s5 3 8 3c4 0 7-2 8-6s-6-6-7-2z" fill="#fff"/><path d="M213 161a7 7 0 0 0-5-6l-4-1a7 7 0 0 0-6 5l-1 4a7 7 0 0 0 4 6l5 1c3 0 5-2 6-5l1-4c0-4-7-4-7 0v2c0 1 0 0 0 0h-2c-1 0 0 0 0 0v-2h2c1 0 0 0 0 0 0 2 1 3 3 3s4-1 4-3zm-13-53h9c5 0 5-7 0-7h-9c-4 0-4 7 0 7z" fill="#fff"/><g fill="#fff"><path d="M266 163c0 1 2 1 0 1h-4V94c0-1-2 0 0 0h5l-1 2v68c0 5 7 5 7 0V94c0-8-6-7-12-7s-6 5-6 10v66c0 4 1 8 6 8s11 1 12-6c1-4-6-6-7-2z"/><path d="M285 85c-1 2-7 1-8 1h-34c-3 0-2 0 1-1 4-4 9-7 15-8h23c2 0 3 1 3 3v6c0 5 7 5 7 0s1-13-5-15h-33a24 24 0 0 0-9 4c-3 2-9 5-10 9-5 13 20 9 26 9h19c5 0 10 0 11-6 1-5-6-6-6-2z"/></g><g fill="#fff"><path d="M167 127c-2-6-9-6-14-4-5 1-4 7-4 11v31c0 7 10 6 14 5 5-1 4-7 4-11v-31c0-4-7-4-7 0v35c0 3 0 1 1 1h-6c2 0 1 2 1-1v-33c0-3 1-1-1-1h5c2 0 1 0 0 0 2 4 8 2 7-2z"/><path d="M154 82v42c0 4 7 4 7 0V82c0-5-7-5-7 0z"/><path d="M153 75v12c0 7 10 7 10 0V75c0-7-10-7-10 0z"/></g><path d="M87 202v85c0 7 10 7 10 0v-85c0-6-10-6-10 0z" fill="#fff"/><path d="M85 292h13c6 0 6-10 0-10H85c-6 0-6 10 0 10zm1-49h113c4 0 4-7 0-7H86c-4 0-4 7 0 7zm-11-43h211c7 0 7-10 0-10H75c-7 0-7 10 0 10z" fill="#fff"/><path d="M264 195v92c0 6 10 6 10 0v-92c0-6-10-6-10 0z" fill="#fff"/><path d="M263 292h13c7 0 7-10 0-10h-13c-7 0-7 10 0 10zm-3-72c-1 2-11 1-13 1h-37c-3 0-1-13-1-16h50c2 0 1 13 1 16h3v-17c-1-3-9-2-11-2h-41c-6 0-5 4-5 9 0 3-2 13 4 13h38c4 0 13 2 15-3 1-2-2-3-3-1zm0 25c-1 2-11 1-13 1h-37c-3 0-1-14-1-16l35-1h15c2 0 1 14 1 16s3 2 3 0v-17c-1-3-9-2-11-2h-41c-6 0-5 5-5 9s-2 14 4 14h38c4 0 13 2 15-3 1-2-2-3-3-1zm0 25c-1 2-11 1-13 1h-37c-3 0-1-14-1-16s33-1 35-1h15c2 0 1 14 1 16s3 2 3 0v-17c-1-3-9-2-11-2h-41c-6 0-5 5-5 9s-2 14 4 14h38c4 0 13 2 15-4 1-1-2-2-3 0zm9-27h6c2 0 3-2 3-4s-1-3-3-3h-6c-2 0-3 2-3 3s1 4 3 4z" fill="#fff"/><path d="M223 212h22c2 0 2-3 0-3h-22c-2 0-2 3 0 3zm0 24h22c2 0 2-3 0-3h-22c-2 0-2 3 0 3zm0 24h22c2 0 2-3 0-3h-22c-2 0-2 3 0 3z" fill="#fff"/><path d="M265 274c-1 3-11 2-13 2h-44c-3 0-5 0-5-4v-75c0-2 8-1 10-1h44c3 0 8-1 8 2v76c0 2 3 2 3 0v-72c0-3 1-8-3-9h-55c-4 0-9-1-10 4v73c0 3 0 6 3 8 2 2 8 1 11 1h44c4 0 9 1 10-4 0-2-3-3-3-1z" fill="#fff"/></svg>