<svg xmlns="http://www.w3.org/2000/svg" width="361" height="361"><path d="M218 148h53c2 0 2-3 1-3h-54c-2 0-2 3 0 3zm-10 10h63c2 0 2-3 0-3h-63c-2 0-2 3 0 3zm-10 10h73c2 0 2-3 1-3h-74c-2 0-2 3 0 3zm0 10h73c2 0 2-3 1-3h-74c-2 0-2 3 0 3zm0 10h73c2 0 2-3 1-3h-74c-2 0-2 3 0 3zm0 10h73c2 0 2-3 1-3h-74c-2 0-2 3 0 3zm0 10h73c2 0 2-3 1-3h-74c-2 0-2 3 0 3zm0 9h73c2 0 2-3 1-3h-74c-2 0-2 3 0 3z" fill="#fff"/><path d="M281 242H81c-6 0-11-5-11-11V131c0-6 5-11 11-11h200c6 0 11 5 11 11v100c0 6-5 11-11 11zM81 130a1 1 0 0 0-1 1v100a1 1 0 0 0 1 1h200a1 1 0 0 0 1-1V131a1 1 0 0 0-1-1H81z" fill="#fff"/><g fill="#fff"><path d="M145 157c-1 7-11 7-11 0-1-7 10-7 11 0 0 2 3 2 3 0a9 9 0 0 0-9-9c-5 0-8 4-8 8-1 5 4 9 8 9 5 0 8-4 9-8 0-2-3-2-3 0zm59-20c4 0 4 6 0 6s-4-6 0-6c2-1 2-4 0-3-4 0-6 2-7 6 0 3 4 6 7 6s6-3 6-6c0-4-3-6-6-7-2 1-2 4 0 4z"/><path d="M205 145v-10c0-2-3-2-3 0v9c0 3 3 3 3 1zm-11-4l-2-5a8 8 0 0 0-6-2 8 8 0 0 0-5 2l-1 1a8 8 0 0 0-1 4l2 6a8 8 0 0 0 5 2 8 8 0 0 0 6-2l1-2a8 8 0 0 0 1-4z"/><path d="M185 168c-3-1-2-13-2-15v-9c0-3 1-4 4-4 4 0 2 14 2 16v8c0 3-1 3-4 3-2 0-2 3 0 3 3 0 7 0 7-4v-23c0-3 0-6-4-7-9-1-7 8-7 14v14c0 3 0 6 4 6 2 1 2-2 0-3zm-12-7l-4 3v46c0 8-8 9-14 9h-44c-4 0-10 1-14-2-5-2-4-9-4-14v-45c0-5-1-11 4-14 3-2 9-2 12-2h43c4 0 9 0 13 2s4 7 4 11l7-7a16 16 0 0 0-6-9c-4-4-10-4-15-4h-44l-13 1c-15 2-12 22-12 33v40c0 8 5 15 13 17h57l8-1c7-1 12-8 12-15v-53l-3 4z"/><path d="M181 149l-16 16-12 13-3 2c-2 2-4-1-2-2l1-1 21-22 12-11c1-2 4-7 7-5 1 2 3 0 2-2-3-3-6-1-8 1l-12 12-25 25c-4 4 0 10 4 9l4-3 7-7 22-23c1-1-1-3-2-2z"/></g></svg>