<svg xmlns="http://www.w3.org/2000/svg" width="361" height="361"><path d="M278 164l-25-30-17-19c-4-5-6-8-14-8v10a9 9 0 0 0 2-1c4 0 5-6 2-8-3-3-10-2-14-1-4 2-6 6-9 9-7 11-17 19-31 14-10-4-12-16-20-22-4-3-10-2-15-2-6 1-5 9-1 10v-9c-4 0-7 4-10 8l-13 15-28 32c-4 4-7 10-2 16l14 12c5 4 11 11 18 8 5-3 10-9 14-13l7-8-8-3v106c0 6 3 12 10 12h84c13 0 11-16 11-24v-96l-9 4 13 13c6 5 11 12 19 7l15-13c6-5 13-10 8-19-4-5-12 0-9 6 2 2-8 8-9 9l-7 6c-1 1-3 3-4 2l-19-19c-3-3-8 0-8 4v107c0 2 0 3-2 3h-79l-4-1V174a5 5 0 0 0-9-3l-11 11-6 6c-2 1-2 0-3-1l-16-13-3-3 3-2 26-31 13-15c2-1 4-6 7-7 5 0 4-8 0-9a5 5 0 0 1 3 2v5c-2 3-2 2-3 2h7l6 9a35 35 0 0 0 27 16c11 1 21-5 28-14l8-9 1-2h5l-2-1 2-8h1c-6 0-6 9 0 10 4 0 7 5 9 7l16 19 24 28c4 4 11-3 7-8z" fill="#fff"/><path d="M184 112c2-12-11-17-12-28 0-6-10-7-10 0v2c0 6 10 6 10 0 1-4 4-6 7-6l-5-5c0 3 2 4 5 5 4 0 7 4 6 7-1 6 8 9 10 3 2-10-6-20-16-21l5 5c0-2-2-5-5-5-9 1-16 7-17 16h10v-1h-10l6 15c1 2 7 7 6 10-1 6 9 9 10 3z" fill="#fff"/><path d="M153 120a120 120 0 0 1 28-3c6 0 6-10 0-10a139 139 0 0 0-31 3c-6 2-4 11 3 10z" fill="#fff"/><path d="M212 110l-30-3c-6 0-6 10 0 10l27 3c7 1 9-9 3-10z" fill="#fff"/></svg>