<svg xmlns="http://www.w3.org/2000/svg" width="361" height="361"><path d="M195 77h94c4 0 4-7 0-7h-94c-5 0-5 7 0 7z" fill="#fff"/><path fill="none" stroke="#fff" stroke-width="7" stroke-miterlimit="10" d="M280 153h-77m39-66v64"/><path d="M239 113h7c4 0 4-7 0-7h-7c-4 0-4 7 0 7zm38-37c0 4-9 6-12 6a104 104 0 0 1-46 1c-3-1-12-3-12-7l-2 1h74c2 0 2-3 0-3h-74l-1 2c0 5 5 7 9 8 9 3 20 4 29 4 10 0 20-1 29-4 4-1 9-3 10-8 0-2-3-2-3 0z" fill="#fff"/><path d="M193 78h10c2 2 2 6 2 8v11l-1 25c-1 5-4 17-11 17l2 2a9991 9991 0 0 1 0-65c0-2-3-2-3 0a9991 9991 0 0 0 0 65l1 1c7 0 10-8 12-14 4-10 3-21 3-31V83l-2-7c-3-3-9-1-13-1-2-1-2 2 0 3zm97-4c-3 0-9-1-12 2l-2 7v13c0 11 0 22 3 32 1 6 5 13 11 14l2-2a9991 9991 0 0 0 0-64c0-2-3-2-3 0a9991 9991 0 0 1 0 64l2-1c-7-1-10-12-11-18-2-8-1-16-1-25 0-5-1-13 1-18l10-1c2 0 2-3 0-3z" fill="#fff"/><path d="M291 184h-10l-2-1v-5a92 92 0 0 1 2-23c1-4 4-12 9-13l-1-1v45c0 2 3 2 3 0v-45l-1-1c-6 0-9 5-11 10a77 77 0 0 0-4 28c0 3-1 8 3 9h12v-3zm-98 3h12c4-1 3-6 3-9 0-10 0-19-4-29-2-4-5-9-11-9l-1 1v45c0 2 3 2 3 0v-45l-2 2c6 0 8 8 10 13 2 7 2 14 2 22v5l-2 1h-10c-2 0-2 3 0 3z" fill="#fff"/><g fill="#fff"><path d="M115 236h56c7 0 9 3 9 6v3c0 3-2 7-9 7H98"/><path d="M170 188v87c0 7 11 7 11 0v-87c0-8-11-8-11 0zM70 256v19c0 7 11 7 11 0v-20"/><path d="M72 142h37c3 0 9-1 10 1 2 7 1 15 1 21l-2 52a42 42 0 0 1-13 29 47 47 0 0 1-26 10h-7l1 2V140c0-2-3-2-3 0v117l2 1c18 0 36-6 45-23 4-9 4-19 4-29l1-24 1-27c0-4 0-11-3-15-2-2-6-1-9-1H72c-2 0-2 3 0 3z"/><path d="M121 194v44c0 2 3 2 3 0v-44c0-2-3-2-3 0zm17 0v44c0 2 3 2 3 0v-44c0-2-3-2-3 0zm17 0v44c0 2 3 2 3 0v-44c0-2-3-2-3 0zm8 0v44c0 2 3 2 3 0v-44c0-2-3-2-3 0zm-34 0v44c0 2 3 2 3 0v-44c0-2-3-2-3 0zm17 0v44c0 2 3 2 3 0v-44c0-2-3-2-3 0z"/><path d="M122 196h49c2 0 2-3 0-3h-49c-2 0-2 3 0 3zm-47 95c7 0 7-10 0-10s-6 10 0 10zm101 0c6 0 6-10 0-10s-7 10 0 10zm-96-52a4 4 0 0 1-9 0 4 4 0 1 1 9 0zm5-62a4 4 0 1 1-8 1 4 4 0 0 1 8 0zm37-24a4 4 0 1 1-9 0 4 4 0 0 1 9 0zm-34 8a4 4 0 1 1-8 0 4 4 0 1 1 8 0zm-7-14a4 4 0 1 1-8 0 4 4 0 1 1 8 0zm24-3a4 4 0 1 1-8 0 4 4 0 1 1 8 0zm6 67a4 4 0 1 1-9 0 4 4 0 0 1 9 0zm7-42a4 4 0 1 1-9 0 4 4 0 1 1 8 0zm-28 81a4 4 0 0 1-9 0 4 4 0 1 1 9 0zm-6-59a4 4 0 0 1-9 0 4 4 0 1 1 9 0zm17 48a4 4 0 0 1 5 2 4 4 0 0 1-2 6 4 4 0 0 1-5-2 4 4 0 0 1 2-6zm11-14a4 4 0 0 1 5 2 4 4 0 0 1-8 3 4 4 0 0 1 3-5zm-20-3a4 4 0 0 1-5 8 4 4 0 0 1 5-8zm-14-19a4 4 0 1 1-5 7 4 4 0 1 1 5-7zm33-20a4 4 0 0 1 2 6 4 4 0 0 1-7-5 4 4 0 0 1 5-1zm-12-17a4 4 0 1 1-4 7 4 4 0 0 1 4-8zm-1 29a4 4 0 0 1 1 6 4 4 0 1 1-7-5 4 4 0 0 1 6-1z"/></g></svg>