<svg xmlns="http://www.w3.org/2000/svg" width="361" height="361"><path d="M203 184c6-5 6 5 6 8l1 13v14c1 2 2 7 0 8l2 2v-15l-1-9-3-1 1 21v14c0 2 1 1-1 1l-3 1c-2 0-1 3 1 3 4-1 6-1 6-5v-10l-1-25c0-1-2-2-3 0s0 7 1 9v16a2 2 0 0 0 2 1c4-2 3-6 3-10l-1-21-1-13c-1-6-6-8-11-4-1 1 1 3 2 2z" fill="#fff"/><path d="M212 193c0-5-4-8-8-8-2 0-2 3 0 3s5 2 5 5c0 2 3 2 3 0z" fill="#fff"/><path d="M285 281c0 6-13 4-17 4H81c-6 0-4-12-4-15V81c0-6 10-4 14-4h190c6 0 4 8 4 12v192c0 4 7 4 7 0V81c0-11-10-11-18-11H82c-8 0-12 5-12 13v192c0 7 1 17 11 17h187c10 0 23 2 24-11 1-5-6-5-7 0z" fill="#fff"/><path d="M105 74v214c0 5 7 5 7 0V74c0-5-7-5-7 0zm115 0v214c0 5 7 5 7 0V74c0-5-7-5-7 0z" fill="#fff"/><path d="M109 160h115c4 0 4-7 0-7H109c-5 0-5 7 0 7zm0 101h115c4 0 4-7 0-7H109c-5 0-5 7 0 7zm-34-18h34c4 0 4-7 0-7H75c-5 0-5 7 0 7zm149-20h62c4 0 4-7 0-7h-62c-5 0-5 7 0 7zm-115-49h115v-3H109c-2 0-2 3 0 3zm-32-27h29c5 0 5-7 1-7H77c-5 0-5 7 0 7zm0-39h29c5 0 5-7 1-7H77c-5 0-5 7 0 7zm147 39h65c4 0 4-7 0-7h-65c-4 0-4 7 0 7zm0-39h65c4 0 4-7 0-7h-65c-4 0-4 7 0 7zM99 225c-1 2-8 1-9 1-3 0-9 2-9-2 0-2 8-1 9-1 2 0 9-1 9 2 0 2 3 2 3 0 0-6-7-5-11-5-3 0-13-2-13 4s6 5 11 5 12 2 13-4c0-2-3-2-3 0z" fill="#fff"/><path d="M82 216c0-3 7-2 9-2 3 0 8-1 8 3l-9 1c-1 0-8 1-8-2 0-2-3-2-3 0 0 6 6 5 11 5 3 0 12 1 12-4 0-7-5-6-10-6s-13-1-13 5c0 2 3 2 3 0zm0 14c1-2 8-1 9-1s9-1 9 1-7 1-8 1-10 1-10-1-3-2-3 0c0 6 7 4 11 4s13 2 13-3c0-6-8-5-12-5s-11-2-11 4c-1 2 2 2 3 0z" fill="#fff"/><path d="M82 209c0-2 7-1 8-1s9-1 9 1c1 1-7 1-8 1s-9 1-9-1-3-2-3 0c0 5 7 4 11 4 3 0 12 1 12-4 0-6-7-4-11-4s-11-2-12 4c0 2 3 2 3 0zm198-11c-1 4-6 3-10 3h-28c-3 0-9 1-9-4s7-4 11-4h26c4 0 10-1 10 5 0 2 3 2 3 0 0-7-5-8-10-8h-30c-5 0-13 0-13 7 0 5 3 7 8 7h35c5 0 9-1 10-6 0-2-3-2-3 0zm-46-15c1-5 6-4 9-4h29c3 0 9-1 9 4s-7 4-11 4h-26c-4 0-10 1-10-5 0-2-3-2-3 0 0 7 4 8 10 8h30c5 0 13 0 13-7 0-5-3-7-9-7h-35c-5 0-8 1-9 6 0 2 3 2 3 0z" fill="#fff"/><path d="M233 207c0-4 7-3 9-3h28c3 0 10-1 10 3s-8 3-11 3h-27c-3 0-9 1-9-3 0-2-3-2-3 0 0 6 5 6 10 6h30c4 0 13 1 13-6 0-5-5-6-9-6h-34c-5 0-10 1-10 6 0 2 3 2 3 0zm0-37c0-4 7-3 9-3h28c3 0 10-1 10 3s-8 3-11 3h-27c-3 0-9 1-9-3 0-2-3-2-3 0 0 6 5 6 10 6h30c4 0 13 1 13-6 0-5-5-6-9-6h-34c-5 0-10 0-10 6 0 2 3 2 3 0zm-46 105c-1 5-7 4-11 4h-5c-2-2-2-4-2-7 0-5 7-4 11-4l5 1c2 1 2 4 2 6s3 2 3 0c0-7-3-10-10-10-6 0-13-1-14 7 0 7 4 10 10 10s13 1 14-7c0-2-3-2-3 0zm25 0c-1 5-7 4-11 4h-5c-2-2-2-4-2-7 0-5 7-4 11-4l5 1c2 1 2 4 2 6s3 2 3 0c0-7-3-10-10-10-6 0-13-1-14 7-1 7 4 10 10 10s13 1 14-7c0-2-3-2-3 0zm-53-131c0 2-5 3-7 4a45 45 0 0 1-32-2c-4-2 1-6 3-6l1-1c5-2 11-2 16-2 3 0 19 1 19 7 0 2 3 2 3 0 0-8-16-10-22-10s-24 1-24 10c0 1 0 3 2 4l4 2c3 2 8 2 12 3 6 0 14-1 20-3 3-1 7-2 8-6 0-1-3-2-3 0z" fill="#fff"/><path d="M159 128c-1 4-15 5-18 5l-15-1-4-1c-8-1-1-5 1-6a41 41 0 0 1 17-3c2 0 19 1 19 6 0 2 3 2 3 0 0-7-15-9-20-9-6 0-13 0-19 3-4 1-7 1-7 6 0 4 4 4 6 6 4 2 9 2 13 2 7 0 13 0 19-2 3-1 7-2 8-5 0-2-2-3-3-1zm-20 53v-4a54 54 0 0 1 0-6h-3v1c0 2 3 2 3 0l1-3-2-2 1 2v4c0 2 3 2 3 0 1-2 0-6-2-7l1 1-2-1c-3 1-3 4-3 6h3v-1c0-2-3-2-3 0 0 3-1 12 2 13 2 1 3-2 1-3z" fill="#fff"/><path d="M137 185v1a14 14 0 0 1 3 0v-1c0 2 3 1 3-1-1-2-3-2-4-2-2 0-4 0-5 2 0 2 3 3 3 1zm-10-4v-1l-1-3a55 55 0 0 1 0-6h-3v1c0 2 3 2 3 0l1-3-2-2 1 2 1 4c0 2 3 2 3 0s0-6-3-7l1 1-2-1c-2 1-3 4-3 6h3v-1c0-2-3-2-3 0 0 3-1 12 3 13 2 1 2-2 1-3z" fill="#fff"/><path d="M125 185h-1a14 14 0 0 1 3 1c1 0 0-1 0 0h1l-1-1c0 2 3 1 3-1-1-2-3-2-4-2-2 0-4 0-4 2-1 2 2 3 3 1zm-6-4v-1l-1-3a55 55 0 0 1 0-6h-3v1c0 2 3 2 3 0l1-3-2-2 1 2 1 4c0 2 3 2 3 0s0-6-3-7l1 1-2-1c-2 1-3 4-3 6h3v-1c0-2-3-2-3 0 0 3-1 12 3 13 2 1 2-2 0-3z" fill="#fff"/><path d="M117 185h-1v1a14 14 0 0 1 3 0h1l-1-1c0 2 3 1 3-1-1-2-3-2-4-2s-4 0-4 2c-1 2 2 3 3 1zm77 0c4-5 7 2 7 6a3882 3882 0 0 1 1 28c1 2 2 11 0 12l2 1-1-26-1 2-2-1 1 21v15c0 2 1 1-1 2h-3c-2 1-1 4 1 3 4-1 6-1 6-5v-10l-1-26-2-2-1 2 1 25a2 2 0 0 0 2 2c4-3 3-9 2-13l-1-22c0-4 1-10-1-13-3-5-7-8-12-3-1 2 1 4 3 2zm-39-1c-2-3-5-3-7 0-2 1-2 4-2 5l-1 24-1 18c0 4-2 13 2 15h2l1-6v-13l1-14a928 928 0 0 1 0-7l-1 1-2-1v23c0 5-3 15 6 13 2 0 1-3-1-3-4 1-3-3-2-5v-29l-2-1-1 5a915 915 0 0 1-1 27v8l1-1v-13l1-12 1-20v-9c0-1 1-7 4-3 1 1 4-1 2-2z" fill="#fff"/><path d="M151 186c3-4 4 2 4 3v9l1 20 1 12v13l2 1-1-7-1-15v-13l-1-5-2 1v17l1 12c0 2 1 6-3 5-2 0-2 3-1 3 9 2 7-8 7-13l-1-15v-8l-2 1c-2-1-1-2-1 1v5a3042 3042 0 0 0 1 26l1 7h2c4-1 2-10 2-13l-1-19-1-24-1-6c-2-3-6-3-8 0-1 1 1 3 2 2zm57-5v-1l-1-3a54 54 0 0 1 0-6h-3v1c0 2 3 2 3 0l1-3-2-2 1 2 1 4c0 2 3 2 3 0s0-6-3-7l1 1-2-1c-2 1-3 4-3 6h3v-1c0-2-3-2-3 0 0 3-1 12 3 13 2 1 2-2 1-3zm-32 4c1-2 4-1 5-1 2 1 2 3 2 4v6l1 22v13c0 1 2 13 0 14h2v-7l-1-14v-13c0-2 1-5-1-5h-2v16c0 1 2 19-1 19-2-1-3 2-1 3 8 1 5-9 5-14v-23l-2 1c-2-1-1-1-1 1v19l1 13 1 6 2 1 1-5v-11l-1-21v-21c-1-3-1-5-4-7-3-1-7-1-9 2-1 2 2 3 3 2z" fill="#fff"/><path d="M188 184c1-2 2 4 2 5v8l1 21 1 14c0 1 2 14 1 15l2 1-1-7-1-15-1-13v-7h-3v18l1 14v6a6 6 0 0 1-3 0c-2-1-3 2-1 2 4 2 7 1 7-4l-1-10a8241 8241 0 0 1 0-22 378 378 0 0 1 0-2c0-1 0-1 0 0l-3-1 1 7v14l1 14 1 7 2 1c2-1 2-3 2-5l-1-11a306 306 0 0 1-2-20v-25l-1-6c-2-4-5-3-7 0-1 1 2 3 3 1zm-20 1c4-3 6 3 6 5a6238 6238 0 0 1 2 25l2 26v2-5l-1-15-1-14-1-5-2 1v5a6079 6079 0 0 0 1 24c0 4 0 6-5 5-2 0-2 3 0 3 4 1 8 0 8-5v-8l-1-15v-8l-2 1c-1 0-1-2-1 0v10l1 18c1 3 0 8 2 10 1 2 3 1 4 0l1-4-3-36-1-16c0-6-6-10-11-6-1 1 1 4 2 2z" fill="#fff"/><path d="M159 186c3-3 8-2 8 3l1 5 1 19 2 28v2s1 2 1 0l-1-5-1-15-1-14c0-1 1-5-1-5l-2 1v5a5324 5324 0 0 0 1 24c0 4 0 6-5 5-2 0-2 3 0 3 4 1 8 0 8-5v-8l-1-15v-8l-2 1c-1-1-1-2-1 0v10l2 19c0 2-1 8 1 10 2 1 4-1 5-2v-5l-3-38-1-15c-2-6-10-6-14-2-1 1 1 3 2 2zm39-5l1-1-1-3a54 54 0 0 1 0-6h-3v1c0 2 3 2 3 0l1-3-2-2 1 2 1 4c0 2 3 2 3 0s0-6-3-7l1 1-2-1c-2 1-3 4-3 6h3v-1c0-2-3-2-3 0 0 3-1 12 3 13 2 1 2-2 0-3zm-10 0v-1l-1-3a54 54 0 0 1 0-6h-3v1c0 2 3 2 3 0l1-3-2-2 1 2 1 4c0 2 3 2 3 0s0-6-3-7l1 1-2-1c-2 1-3 4-3 6h3v-1c0-2-3-2-3 0 0 3-1 12 3 13 2 1 2-2 1-3z" fill="#fff"/><path d="M186 185h-1a14 14 0 0 1 3 1c1 0 0-1 0 0h1l-1-1c0 2 3 1 3-1s-3-2-4-2-4 0-4 2c-1 2 2 3 3 1zm-6-5c1 0 0 0 0 0v-9h-3c0 2 3 2 3 0l1-2-2-2 1 2v4c0 2 3 2 3 0 1-3 0-6-2-7l1 1-2-1c-3 1-3 3-3 5h3c0-2-3-2-3 0s-1 11 2 12c2 1 3-2 1-3zm-9 1v-1l-1-3a55 55 0 0 1 0-6h-3v1c0 2 3 2 3 0l1-3-2-2 1 2 1 4c0 2 3 2 3 0s0-6-3-7l1 1-2-1c-2 1-3 4-3 6h3v-1c0-2-3-2-3 0 0 3-1 12 3 13 2 1 3-2 1-3zm-9 0v-4a52 52 0 0 1 0-6h-3v1c0 2 3 2 3 0l1-3-2-2 1 2 1 4c-1 2 2 2 3 0 0-3-1-6-3-7l1 1-2-1c-3 1-3 3-3 6h3v-1c0-2-3-2-3 0 0 3-1 12 2 13 2 0 3-3 1-3zm-10 0v-4a54 54 0 0 1 0-6h-3v1c0 2 3 2 3 0l1-3-2-2 1 2 1 4c0 2 3 2 3 0s0-6-3-7l1 1-2-1c-2 1-3 4-3 6h3v-1c0-2-3-2-3 0 0 3-1 12 3 13 1 1 2-2 0-3zm61-36c0 4-6 3-8 3h-12c-3 0-19 2-19-3 0-3 17-2 19-2h12c2 0 8-1 8 3 0 2 3 2 3 0 0-6-4-6-9-6h-13c-4 0-23-2-23 4 0 5 2 7 6 7h30c4 0 8 0 9-5 0-2-3-3-3-1z" fill="#fff"/><path d="M175 136c0-4 6-3 8-3h12c3 0 19-2 19 3 0 2-17 2-19 2h-11c-3 0-9 1-9-3 0-2-3-2-3 0 0 5 4 6 9 6h13c4 0 23 2 23-4 0-5-2-7-6-7h-30c-4 0-8 0-9 5 0 2 3 2 3 1z" fill="#fff"/><path d="M175 127c1-4 17-2 19-2h19c5 1-1 3-2 3h-16c-2 0-20 1-20-2 0-2-3-2-3 0 0 5 5 5 9 5h13c4 0 23 2 23-4 0-8-16-5-21-5h-15c-4 0-8-1-9 4 0 2 3 2 3 0zm58-10c1-3 1-3 3-3h11c2 0 2 1 2 3s-8 2-9 2c-2 0-7 1-7-3 0-2-3-2-3 0 0 7 6 6 10 6s12 1 12-5c0-2 0-5-3-6h-15c-3 0-3 3-4 5 0 2 3 2 3 0z" fill="#fff"/><path d="M249 127c-1 2-2 2-3 2h-11c-2 0-2-1-2-3s7-2 8-2c3 0 8-1 8 3 0 2 3 2 3 0 0-7-6-6-10-6s-12-1-12 5c0 2 0 5 3 6h15c3 0 3-3 4-5 0-2-3-2-3 0z" fill="#fff"/><path d="M249 135c-1 3-7 1-9 1s-7 2-7-2l8-1c1 0 8-1 8 2 0 2 3 2 3 0 0-6-6-5-10-5s-12-1-12 4c0 6 5 5 10 5 4 0 11 2 12-4 0-2-3-2-3 0zm11-17c0-3 1-2 2-2h11c2 0 2 1 2 3s-7 1-8 1c-3 0-7 1-7-2 0-2-3-2-3 0 0 6 5 5 10 5 3 0 11 2 11-4 0-3 0-6-3-6h-14c-3 0-4 2-4 5 0 2 3 2 3 0z" fill="#fff"/><path d="M275 127c0 2-1 2-3 2h-11c-2 0-2-1-2-3 0-3 8-2 9-2 2 0 7-1 7 2 0 2 3 2 3 0 0-6-5-5-10-5-4 0-12-1-12 4 0 3 0 6 3 6l7 1h8c3 0 4-3 4-5s-3-2-3 0z" fill="#fff"/><path d="M275 135c0 3-7 1-8 1-3 0-8 2-8-2l8-1c2 0 8-1 8 2 0 2 3 2 3 0 0-6-6-5-10-5-3 0-12-1-12 4 0 6 5 5 10 5 4 0 11 2 12-4 0-2-3-2-3 0zM86 116c0-2 0-2 2-2h9l1 3c0 2-6 1-7 1h-4c-2 0-2-1-2-2 0-2-3-2-3 0s1 4 3 5h5c4 0 11 2 11-4 0-2 0-6-2-6H86c-3 0-3 3-3 5s3 2 3 0z" fill="#fff"/><path d="M98 126c0 2-1 2-2 2H86l-1-3c0-2 6-1 7-1h4c2 0 2 1 2 2 0 2 3 2 3 0s0-4-3-5h-5c-4 0-11-2-11 4 0 2 0 6 3 6h12c3 0 4-3 4-5s-3-2-3 0z" fill="#fff"/><path d="M98 134c0 2-1 2-2 2h-9c-2 0-2-1-2-2 0-2 7-1 7-1h4l2 1c0 2 3 2 3 0 0-5-5-4-9-4-3 0-10-1-10 4 0 2 0 4 3 5h6c4 0 9 1 10-5h-3zm160 149v-10c0-2-3-2-3 0v10c1 2 4 2 3 0z" fill="#fff"/><path d="M257 267c0 2 0 4-2 5l-3 3-2 5c-2 3-3 2-6 2-2 0-2 3 0 3s4 1 6-1c2-1 3-4 4-7l4-4c2-2 2-4 2-6s-3-2-3 0z" fill="#fff"/><path d="M257 267c-2 4-2-3-5-1-2 1-3 4-4 6a25 25 0 0 1-3 5l-3 3c0 2-1 6 2 5 2 0 1-3 0-3h-1l2 1c-1-1 3-5 4-6l4-8 1-1h-2l1 2 2 2c3 1 4-3 5-5 0-1-2-2-3 0z" fill="#fff"/><path d="M258 283l1-13c1-2-2-1-2 0l-1 13c-1 2 2 2 3 0zm-14-1v-9c0-2-3-2-3 0v9c0 2 3 2 3 0z" fill="#fff"/><path d="M243 266c0 2 0 5-2 6l-3 2-2 5c-2 3-4 3-6 3s-2 3 0 3l6-1 4-7 5-4 1-7c0-2-3-2-3 0z" fill="#fff"/><path d="M243 266c-2 4-2-3-5-1l-4 7a25 25 0 0 1-3 4l-3 4c0 1-1 5 2 5 2-1 1-4 0-3h-1 2l4-6 4-7 1-1h-2l1 1 2 3c3 0 4-3 5-5 0-2-2-3-3-1z" fill="#fff"/><path d="M244 282l2-12c0-2-3-2-3 0l-2 12c0 2 3 2 3 0z" fill="#fff"/><g fill="#fff"><path d="M280 281v-12h-3v12c0 2 3 2 3 0z"/><path d="M278 249a82 82 0 0 1-4 32c-2 0-3 3-1 3 6 1 5-9 6-12 3-7 2-16 2-23 0-2-3-2-3 0z"/><path d="M280 247c-2 0-4 0-4 2l-1 12c-1 5-1 10-3 14l-1 8 2 1c2-1 1-4 0-3h-1l2 1 1-6 2-9 1-9 1-8c2 0 3-3 1-3z"/><path d="M280 282l1-16c0-2-3-2-3 0l-1 16c0 2 3 2 3 0z"/></g><g fill="#fff"><path d="M270 280v-11c0-2-3-2-3 0v11c0 2 3 2 3 0z"/><path d="M269 248c0 6 0 13-2 19l-1 5c-1 2-1 9-3 8-2 0-3 3-1 3 7 1 4-8 7-12 2-2 2-6 2-9l1-14c0-2-3-2-3 0z"/><path d="M271 246c-8-1-6 8-6 14l-3 14c-1 3-3 5-2 8a2 2 0 0 0 2 1h1c1 0 1-3-1-3h-1l2 1 2-6 2-9 1-9c0-1 0-8 2-8 2 1 3-2 1-3z"/><path d="M270 281l1-15c0-2-3-2-3 0l-1 15c0 2 3 2 3 0z"/></g><g fill="#fff"><path d="M100 282v-4c0-2-3-2-3 0v4c0 2 3 2 3 0z"/><path d="M98 271l-1 6-2 2c0 1 0 2-2 2s-2 3 0 3l4-1 2-3c2-2 2-6 2-9 0-2-3-2-3 0z"/><path d="M100 269l-4 1-1 4-2 5-2 4 2 1c2 0 2-3 0-3l1 1 2-2a13 13 0 0 0 2-4v-4h2c2 0 2-3 0-3z"/><path d="M100 283l1-6c0-2-3-2-3 0l-1 6h3z"/></g><g fill="#fff"><path d="M90 282v-4c0-2-3-2-3 0v4c0 2 3 2 3 0z"/><path d="M89 271c0 1 0 5-2 6a4 4 0 0 0-2 2v1l-3 1c-2 0-2 3 0 3l4-1 3-3c2-2 3-7 3-9s-3-2-3 0z"/><path d="M90 269l-4 1-1 3c0 3-1 5-3 6-1 1-2 2-1 4l1 1c2 0 2-3 0-3l1 1 2-2a18 18 0 0 0 3-8c0-1 0 0 0 0h2c2 0 2-3 0-3z"/><path d="M90 282l1-5c0-2-3-2-3 0l-1 5c0 2 3 2 3 0z"/></g><path d="M213 116c-1 4-7 3-9 3h-12c-3 0-19 2-19-4 0-2 18-1 20-1h11c3 0 9-1 9 2 0 2 3 2 3 0 0-5-5-5-9-5h-13c-4 0-24-2-24 4 0 4 3 7 7 7h30c4 0 8 0 8-5 1-2-2-3-2-1z" fill="#fff"/><path d="M174 106c1-3 7-2 9-2h12c3 0 19-3 19 3 0 2-18 1-20 1h-11c-3 0-8 1-8-2 0-2-3-2-3 0 0 5 4 5 8 5h14c4 0 23 3 23-4 0-4-2-6-7-6h-30c-4 0-8 0-8 4-1 2 2 3 2 1z" fill="#fff"/><path d="M174 97c1-3 17-2 20-2 6 0 12-1 18 1 5 1-1 2-1 2l-3 1h-13c-2 0-20 1-20-2 0-2-3-2-3 0 0 5 5 5 9 5h13c4 0 23 2 23-5s-17-5-21-5h-16c-3 0-8 0-8 4-1 2 2 3 3 1zM74 187h34c5 0 5-7 0-7H74c-4 0-4 7 0 7z" fill="#fff"/></svg>