<svg xmlns="http://www.w3.org/2000/svg" width="361" height="361"><path d="M154 287l14-146v-8c1-6-9-6-9 0l-15 146v8c-1 6 9 6 10 0zm65 0l-13-146-1-8c-1-6-11-6-10 0l13 146 1 8c0 6 10 6 10 0z" fill="#fff"/><path d="M176 73a992521 992521 0 0 0-17 59c-2 6 7 8 9 2a992521 992521 0 0 0 17-58c2-6-8-9-9-3z" fill="#fff"/><path d="M176 76l19 58c2 6 12 4 10-2l-20-59c-2-6-11-3-9 3zm-24 203l60-23c4-1 3-8-2-7l-60 24c-5 1-3 8 2 6z" fill="#fff"/><path d="M212 272l-60-23c-5-1-6 6-2 7l60 23c5 2 6-5 2-7zm-53-37l45-17c4-1 3-8-2-7l-44 18c-5 1-3 8 1 6z" fill="#fff"/><path d="M204 228l-45-17c-4-1-6 6-1 7l44 17c5 2 7-5 2-7zm-40-114l-53 15c-7 2-4 12 2 10l54-15c6-2 3-12-3-10zm32 10l53 15c7 2 9-8 3-10l-54-15c-6-2-9 8-2 10zm-40 40l-54 15c-6 2-4 11 3 10l53-15c6-2 4-12-2-10zm47 10l54 15c6 1 8-8 2-10l-53-15c-7-2-9 8-3 10z" fill="#fff"/><path d="M162 192l40-15c4-2 2-8-2-7l-40 16c-4 1-3 8 2 6z" fill="#fff"/><path d="M202 186l-40-16c-5-1-6 5-2 7l40 15c4 2 6-5 2-6zm-37-30l34-13c4-1 2-8-2-6l-34 12c-4 2-2 9 2 7z" fill="#fff"/><path d="M199 150l-34-13c-4-2-6 5-2 6l34 13c4 2 6-5 2-7zm-98 59h6c2 0 3-2 3-4s-1-3-3-3h-6c-2 0-3 1-3 3s2 4 3 4zm0-10h6c2 0 3-1 3-3s-1-4-3-4h-6c-2 0-3 2-3 4s2 3 3 3zm154 9h5c2 1 4-1 4-3s-2-3-4-3h-5c-2 0-3 1-3 3s1 4 3 4zm0-9h5c2 0 4-1 4-3s-2-4-4-4h-5c-2 0-3 2-3 4s1 3 3 3zm-148-40h5c2 0 4-2 4-4s-2-3-4-3h-5c-2 0-3 1-3 3s1 4 3 4zm0-10h5c2 0 4-1 4-3s-2-4-4-4h-5c-2 0-3 2-3 4s1 3 3 3zm141 10h6c2 0 3-2 3-4s-1-3-3-3h-6c-1 0-3 1-3 3s2 4 3 4zm0-10h6c2 0 3-1 3-3s-1-4-3-4h-6c-1 0-3 2-3 4s2 3 3 3z" fill="#fff"/></svg>