<svg xmlns="http://www.w3.org/2000/svg" width="361" height="361"><path d="M286.8 212.7c0 1.7-2.6 3-5.8 3H80.6c-3.2 0-5.8-1.4-5.8-3v-17.1c0-1.6 2.6-3 5.8-3H281c3.2 0 5.8 1.4 5.8 3v17.1zm-72.7-28.6c0 3.1-2.9 5.7-6.5 5.7H88.3c-3.5 0-6.4-2.6-6.4-5.7v-25.2c0-3.2 2.9-5.7 6.4-5.7h119.3c3.6 0 6.5 2.5 6.5 5.7V184z" fill="#fff" stroke="#fff" stroke-width="10" stroke-miterlimit="10"/><path d="M69.8 172.4v64.5c0 6.5 10 6.5 10 0v-64.5c0-6.5-10-6.5-10 0zm212-27.7v93.1c0 6.5 10 6.5 10 0v-93.1c0-6.5-10-6.5-10 0zM222.3 156v28c0 9.7 15 9.8 15 .1v-28c0-9.7-15-9.7-15 0z" fill="#fff"/><path d="M262.9 176.2h-28c-9.7 0-9.8 15-.1 15h28c9.7 0 9.7-15 0-15z" fill="#fff"/><circle cx="254.2" cy="160.3" r="13.7" fill="#fff"/></svg>