<svg xmlns="http://www.w3.org/2000/svg" width="361" height="361"><path d="M215.3 142.7l17.6-3.1c8.5-1.5 8.6 11.8 9.6 17.2l4.5 25.9 1.3 7.2c1.1 6.2-4.4 7.7-9.2 8.5-.8.1-1.2 1.1-1 1.8 2.5 9.8 3.6 20.2 5.4 30.1l7.5 42.5c1 5.8 1.5 11.2-6.2 12.6-4.6.8-10.6 1.7-11.8-4.7l-.6-3.4-7.2-41c-1.9-10.8-4.6-21.8-5.6-32.7-.1-1-1-1.6-2-1.4l-4.7.8c-1.9.4-1 3.2.8 3l4.8-1-2-1.4c1 10 3.4 19.8 5.2 29.6l7.5 43c.7 3.8 1 7.3 3.7 10.4 4.3 4.8 15.1 2.5 19.3-1.3 3.5-3.1 2.6-7.8 2-11.8l-3.1-17.2-6.5-36.8c-1.1-6.6-2-13.5-3.6-20l-1 1.8c4.2-.7 8.7-1.5 10.6-6 1.2-3.1.7-5.8.1-8.9l-5.2-29.6c-1-5.8-1-16.8-7.6-19.4-3.9-1.6-7.8-.4-11.8.3l-11.6 2.1c-2 .3-1.1 3.2.8 2.9z" fill="#fff"/><path d="M233.4 214l4.6 26.4c.3 1.9 3.2 1 3-.8l-4.7-26.4c-.4-2-3.3-1.1-3 .8zm-4.3 6l6.6 37.6c.4 1.9 3.2 1 3-.8l-6.7-37.6c-.3-2-3.2-1.1-3 .8z" fill="#fff"/><path d="M222.8 218.2a4.7 4.7 0 0 0 5.2 3.7 4.7 4.7 0 0 0 4-5.2 4.7 4.7 0 0 0-5.1-4.1 4.7 4.7 0 0 0-4.1 5.2c.2 1.9 3.2 2 3 0-.1-1 .1-1.8 1.1-2.2 1-.3 1.8.3 2.1 1.1.8 2.3-2.7 3-3.3.7-.4-1.9-3.3-1-2.9.8zm12.4 26.7a5.1 5.1 0 0 0 5.6 4 5 5 0 0 0 4.3-5.6 5 5 0 0 0-5.6-4.4 5 5 0 0 0-4.4 5.6c.3 1.9 3.3 2 3 0 0-1.2.3-2.2 1.4-2.6 1.1-.4 2.2.4 2.6 1.4 1 2.7-3.3 3.7-4 .8-.4-1.9-3.3-1-2.9.8zm-3.6 17a5.1 5.1 0 0 0 5.5 4 5 5 0 0 0 4.4-5.6 5 5 0 0 0-5.6-4.4 5 5 0 0 0-4.4 5.6c.3 2 3.3 2 3 0-.1-1.1.3-2.2 1.4-2.6 1.1-.3 2.2.4 2.6 1.4 1 2.7-3.4 3.7-4 .8-.5-1.9-3.4-1-3 .8zm6.2 14.6a3.8 3.8 0 0 0 4 3c2-.3 3.6-2.1 3.3-4.2a3.7 3.7 0 0 0-4-3.3 3.7 3.7 0 0 0-3.4 4.1c.1.8.6 1.5 1.5 1.5.7 0 1.6-.7 1.5-1.5 0-.4 0-.9.5-1 .4-.2.8 0 1 .4.3 1-1.3 1.3-1.5.2-.5-1.9-3.4-1-3 .8z" fill="#fff"/><path d="M237 264.6l1.6 9.5c.4 2 3.3 1.1 3-.8l-1.8-9.5c-.3-2-3.2-1.1-2.9.8zm3.1 15.2l1.3 7c.3 2 3.2 1.1 2.9-.8l-1.3-7c-.3-2-3.2-1.1-2.9.8zm-.8-32L246 286c.4 1.9 3.3 1.1 3-.8l-6.8-38.2c-.3-2-3.2-1.1-2.9.8z" fill="#fff"/><g fill="#fff"><path d="M228.8 142.6l-20.3-4.2c-6.5-1.3-14-1.4-15.6 6.8l-4.7 23c-1.4 7.1-1.4 14.3 7.4 16l-1-1.8c-1.2 3.6-1.7 6.4-.4 9.9l1.2 3.3c.7 1.9 1.4-.9 0 .5l-4.4 4.6a2 2 0 0 0-.4 1.5l1.8 5.1 1 3.3c.7 1.7 1.4-1.2 0 .5-2 2.2-5.6 5.8-4.4 9.3l1.9 5.5c.2.8.2 2.2.6 1.4l-1.4 3.5c-1.7 4.4.6 7.9 3.3 11.4.5.7 1.3 1 2 .6 3-1.7 7.5-4.2 7.7-8v-3.3l.2-1.6c0-1.3-1 1 0 0l4.7-5.4c2.3-2.6 1-6.6.1-9.4-.6-2 0-1.9-1-.8l2.3-2.5 4.3-4.7c.4-.4.6-1 .4-1.5l-2.2-6c-.7-1.8-.9.5-.4 0l2.8-3c2.6-2.9 3-5.3 3.7-9.2l-1.9 1c5.3 1.1 12 1 13.9-5.4 1.2-4.1 1.8-8.5 2.7-12.8 1.8-8.5 8.3-24.1-4-27.6-1.8-.6-2.6 2.3-.7 2.9 6 1.7 5.3 6.7 4.4 11.4l-2.6 12.5-2.1 10.5c-1.2 5.9-5.7 6.7-10.8 5.7-.7-.2-1.7.2-1.8 1l-.5 2.6c-.2.8-1 3.8-.5 3.2a25575.2 25575.2 0 0 0-5.1 5.5c-.4.4-.6 1-.4 1.4l2.2 6c.7 1.8 1.3-1 .1.4l-3 3.3c-.9 1-3 2.5-3.3 4-.5 1.6 1.2 4.5 1.7 6 .1.7.1 0-.2 1.5l-.3 1.6c-.3 1.4.5-.2-.2.6a24221.1 24221.1 0 0 0-4.9 5.5c-1.1 1.3-.6 4.4-.6 6-.1 2.9-3.8 4.7-6.2 6l2 .5c-1-1.4-4.3-5.3-3.6-7.2.6-1.7 2.2-4.1 2.2-6s-1.4-4.2-2-6c-.4-1.3-.7-4 0-4.7l3.8-4.6c1-1.2-.3-3.5-.7-4.7L194 203l-.4-1.2c-.4-1-1 1.6-.2.6l4.8-5c.4-.4.6-1 .4-1.4-2-5.7-3.1-7.1-1.2-12.8.2-.7-.3-1.7-1-1.8-9-1.8-5.8-10.4-4.5-16.5l3.8-18.6c1.7-8.5 10.3-5.3 16.1-4.1l16 3.3c2 .3 2.8-2.5.9-3z"/><path d="M217.2 149.3c4 1.2 2.3 8.1-1.8 7.3l-4.9-1c-4-.8-2.2-8.1 1.9-7.3l4.8 1c2 .4 2.7-2.5.8-2.9-3.2-.7-6.8-2.1-9.9 0-4.4 3-3.5 10.5 1.6 12 3 1 7.1 2 10 .2 4.4-3 3.5-10.6-1.7-12.2-1.8-.6-2.6 2.3-.8 3z"/></g><g fill="#fff"><path d="M119 146H97c-7.9 0-16.3 2.5-16.3 12v24.4c0 7.5-.9 15.7 7.7 18.8l-1-1.5v78.6c0 2.1 1.5 4 2.5 5.8.2.5.7.8 1.3.8 2.5 0 4 .2 6-1.3 1.9-1.2 5.5-2.7 6.6-4.7 1.1-1.8.2-6 .2-8.2 0-2-.3-.8.5-2.4l2-3.7c.6-1.2.7-5.2 0-6.4l-2.2-3.4c-.9-1.3-.7 1.4-.2.3l1-2c.6-1.6 3.1-5.1 2.3-6.9l-3.6-7.3-.2 1.8c2.2-2.1 7.5-5.6 7.5-8.8 0-2 .7-5-.2-6.7l-3.5-6.8-.2 1.8c1.8-2 5.6-4.5 5.7-7.4l.5-13.7-1.5 1.5c7.4 0 14.9 1.8 18.4-6.5 2-4.3.9-10.8.9-15.4 0-11 4-31.7-12.1-32.7-2-.1-2 2.9 0 3 7.9.5 9 6.8 9 13.1v27.7a10 10 0 0 1-1.4 5c-2.3 3.8-5.6 2.8-9.1 2.8h-5.7c-.8 0-1.5.7-1.5 1.5L110 211v2.3c0 .1.7-1.1-.5.2L105 218c-.5.5-.5 1.2-.2 1.8l3 5.8c.5 1 .3 3 .3 5.4 0 1.9.3.5.2.7l-2.6 2.6-4.2 4.2c-.5.5-.5 1.2-.2 1.8l3.4 7.2c-.4-1 .3-1.8-.4-.3l-1 2.4-2 4.4c-.4.9-.1 1.4.4 2.2.4.7 2 3.4 2 2.9 0 4.2 0 4.5-2.1 8.3-1 2-.6 4.8-.6 7v2.6c0 1.5-.3.5.7-.1l-4.5 3c-.6.5-3 1.9-2.5 1.9h-2.5c-1.8 0 .5 1.2-.1 0l-1.2-2.3c-.3-.4-.6-1.8-.6-.6v-79.3c0-.7-.4-1.2-1-1.4-7.5-2.6-5.6-13.2-5.6-19.6v-20.2c0-10 9.4-9.5 16.5-9.5h18.9c1.9 0 1.9-3 0-3z"/><path d="M92.5 201.1v82.3c0 1.9 3 1.9 3 0V201c0-2-3-2-3 0zm9.7-35.2c-.7 6-11 5.3-11-.7V159c0-6 11-5.3 11 .7v6.2c0 2 3 2 3 0 0-4.3.8-8.8-2.7-12-5-4.5-13.5-1.4-14.2 5.1-.5 4.1-.6 9.1 2.7 12 5 4.5 13.4 1.4 14.2-5 .2-2-2.8-2-3 0z"/></g><path fill="#fff" d="M195 188.2h-65.3v-10h59.6l3.2 2.5 2.5 3z"/><path d="M83.5 177.4c-4.4-2.8-3.7-7.3-3.7-11.7v-65.1c0-6.5-2.6-20.9 7.4-20.9h183.6c1.7 0 3.6-.1 5.3.2 5.8 1 5.4 6.8 5.4 11.3v78.6c0 5.7-3.5 8.4-9 8.4h-24.2c-3.2 0-.7 2.5-.8 4.9 0 2.6 0 5 .8 5h18c7.5 0 14.2.6 20.3-4.9 7.5-6.8 4.9-22.5 4.9-31.6v-47c0-10.2 2.5-24.8-6.9-31.6-6-4.3-14-3.3-21.1-3.3H97.4c-7.3 0-15.9-1.1-21.7 4.1-8.3 7.5-5.9 21.5-5.9 31.6v47c0 11.6-2.7 26.4 8.6 33.6 1.2.8 3.1 1.7 4.1 1.5 0 0-.4-3.3.3-4.7.6-1.2.4-1.6.5-2.6 0-.4 0-3 .2-2.8z" fill="#fff"/><path d="M120.6 108.3l-36.7 16.3c-5.9 2.6-.8 11.3 5 8.7l36.7-16.3c5.9-2.6.8-11.3-5-8.7zm59 0l-36.7 16.3c-5.9 2.6-.8 11.3 5 8.7l36.7-16.3c6-2.6.8-11.3-5-8.7zm59 0l-36.7 16.3c-5.9 2.6-.8 11.3 5 8.7l36.7-16.3c6-2.6.8-11.3-5-8.7z" fill="#fff"/><path d="M92.4 147.3a50 50 0 0 1-1-16c.3-3 3.2-17 7.7-10.1 3.1 4.8 3.2 11.8 3 17.3 0 2-1.4 18.4-6.7 15.2-1.6-1-3.2 1.6-1.5 2.6 6 3.7 9-4.6 10.2-9a40.8 40.8 0 0 0-2.4-27.6c-2.6-5-7.3-4.3-10 0-5 7.6-4.2 20-2.2 28.4.4 1.8 3.3 1 2.9-.8zM210 139a26 26 0 0 1 1.4-15.7c2.5-5.9 8-6.7 11.5-1.1 3 4.9 3 11.7 1.9 17.1-1 5.2-6.1 13-11.6 6.8-1.3-1.4-3.4.7-2.1 2.1 4.4 5 10 3.6 13.7-1.3 5.2-6.8 4.5-17.7 1.3-25-2.2-5.2-8.4-9.4-13.4-5.1-6.4 5.4-7.2 15.4-5.6 23 .4 2 3.3 1.1 3-.8z" fill="#fff"/></svg>