<svg xmlns="http://www.w3.org/2000/svg" width="361" height="361"><path d="M251 215l-17 15a39 39 0 0 0-12 20c-2 9 1 18-1 27v2c1-2 6-2 3-2h-7a6242 6242 0 0 1-38 0 3813 3813 0 0 1-14 0h-3c3 0 4 1 5 3-2-6 1-15-1-23-2-10-17-10-25-10h-10c-3 0 4 7 4 4v-23c0 4-5 4-3 4h7c5 0 10 0 14-3 3-3 4-8 4-13 0-9-4-18-7-27a157 157 0 0 0-4-7v-1c0-1 0 0 0 0l-1 1h113l-1-2c1 2 0-1 0 0l1 6c0 10 0 22-7 29s4 18 10 11c13-13 13-33 11-50-1-6-9-9-15-9H157c-10 0-25-1-26 13 0 6 3 11 5 16 3 6 7 16 6 22 0 2 2-1 0-1h-6c-6 0-11 0-14 5-3 4-2 9-2 13v14c0 5 0 9 4 11 4 3 7 2 11 2a189 189 0 0 1 17 1c2 0 0 0 0-2v22c2 11 13 9 21 9a5182 5182 0 0 0 45 0c4 0 8 0 12-2 7-4 7-14 7-21l-1-10 1-6v-1c5-11 15-18 24-26 7-7-3-17-10-11zm-111-50h128c10 0 10-15 0-15H140c-10 0-10 15 0 15z" fill="#fff"/><path d="M85 170c-1 13 5 23 17 28 13 5 28 2 40 2 10 0 10-15 0-15s-20 2-31 0c-9-2-11-6-11-15 1-10-14-10-15 0z" fill="#fff"/><path d="M106 161H88c-3 0-8 2-8-2V82c0-3 3-2 6-2h28v21c0 1 0 3 1 2-1 1-4 1-5 3a11 11 0 0 0-3 6l-1 12v16a8409 8409 0 0 0 0 21c0 6 10 6 10 0v-45l1-3 4-3c4-3 3-7 3-11V85c0-3 1-7-1-10-4-6-11-5-17-5H83c-6 0-13 2-13 10v77l1 9c4 5 9 5 15 5h17c8 0 13-3 13-10 1-7-9-7-10 0z" fill="#fff"/></svg>