<svg xmlns="http://www.w3.org/2000/svg" width="361" height="361"><path d="M180.8 193.8c.2-.5 1.5-.3.3-.3h-77.3c1.2 0 1 2.2 1 .5v-11.3c0-1.7.2.5-1 .5H181c1.5 0-.4-2.1-.4-.5v12.1c0 4.7 7.3 4.7 7.3 0 0-5 2-15-3-18.1-2.9-1.6-8-.8-11-.8h-66c-4.3 0-10.5-.1-10.5 6 0 4.9-2 15 3.1 18 2.8 1.7 7.8.9 10.9.9H177c4.5 0 9.2.4 10.9-5 1.3-4.5-5.7-6.4-7-2zm72.4 2.4a18.3 18.3 0 1 1-36.6 0h36.6z" fill="#fff"/><path d="M281.9 195.7c-.1 1-15.1.3-16.2.3H107.3c-2 0-2.2 0-2-2.2l2.8-20.7 2.3-17.3c.2-1.2 3-.6 3.7-.6h164.1c1.4 0 1.2 7.7 1.3 8.7a109982.7 109982.7 0 0 0 2.4 31.8c.5 6.3 10.5 6.4 10 0L289 159c-.5-6.6-2.4-13.8-10.6-13.8H110.8c-8.3 0-10 7.2-10.8 13.7l-5 36.7c-.8 6.4 6 10.4 11.4 10.4H274c8 0 16.7.2 17.9-10.4.7-6.4-9.3-6.3-10 0z" fill="#fff"/><path d="M109.5 209.4h21.7c4.5 0 4.5-7 0-7h-21.6c-4.6 0-4.6 7 0 7z" fill="#fff"/><path d="M110.9 207.5c-.4 3-11.1 4.2-13.2 4.6-8.2 1.4-16.7 1.7-25 1.7-2 0-2 3 0 3 10.3 0 20.8-.6 30.9-2.9 3.4-.7 9.8-2 10.3-6.4.2-2-2.8-2-3 0z" fill="#fff"/><path d="M110.2 207.2c0 3.3-10 5.8-12.2 6.5-8.1 2.6-16.6 4-25 5.3-2 .3-1.1 3.2.8 2.9a142 142 0 0 0 29.8-7c3.2-1.2 9.6-3.5 9.6-7.8 0-1.9-3-1.9-3 0z" fill="#fff"/><path d="M110.9 207.2c.5 2.9-8.9 6.8-10.7 7.7a157 157 0 0 1-24.3 9c-1.9.4-1 3.3.8 2.8 9.7-2.8 19.4-6.2 28.4-11 3.1-1.6 9.4-4.8 8.7-9.3-.3-2-3.2-1.1-2.9.8zm11.1 1.3c1.9.2-5.3 22.5-5.8 23.9-.7 1.8 2.2 2.6 2.8.8 1.2-3 11.3-27.1 3-27.7-1.9 0-1.9 3 0 3z" fill="#fff"/><path d="M123.7 210.1c2.9-.1-1.2 21.2-1.5 22.5-.4 2 2.5 2.7 3 .8.7-3.2 6.7-26.8-1.5-26.3-1.9.1-1.9 3.1 0 3z" fill="#fff"/><path d="M125.1 211.8c3.2-.6 2.5 19.5 2.4 21.1-.1 2 2.9 2 3 0 .2-3.7 2.2-25.6-6.2-24-1.9.3-1.1 3.2.8 2.9zm7.2-2.8c7.9-1.2 16.3 3.8 21.5 9.4 1.3 1.4 3.5-.8 2.1-2.2-6-6.4-15.4-11.5-24.4-10.1-2 .3-1.1 3.2.8 2.9z" fill="#fff"/><path d="M132 209.3c9.7-1.8 21.4 3.2 29.8 7.5 1.7 1 3.2-1.7 1.5-2.6-9.3-4.7-21.5-9.8-32.1-7.8-2 .3-1.1 3.2.8 2.9z" fill="#fff"/><path d="M131.2 209.2c5-1.1 10.7-.2 15.7.5a150.7 150.7 0 0 1 21.8 5c2 .5 2.7-2.4.9-3a160.6 160.6 0 0 0-23.4-5.1 44.6 44.6 0 0 0-15.8-.3c-1.9.4-1 3.3.8 2.9zm-28.9-26.7h181.5c2 0 2-3 0-3H102.3c-2 0-2 3 0 3zm22.3-32.5H182c4.6 0 4.6-7 0-7h-57.3c-4.5 0-4.5 7 0 7z" fill="#fff"/></svg>