<svg xmlns="http://www.w3.org/2000/svg" width="361" height="361"><path d="M114 287c0 3-1 5-3 5h-9c-2 0-3-2-3-5v-81c0-2 1-4 3-4h9c2 0 3 2 3 4v81z" fill="#fff"/><path d="M113 242l23-28c4-5-3-12-7-7l-23 28c-4 5 3 12 7 7zm50-50c0 3-2 5-4 5H99a5 5 0 0 1-5-5v-31c0-2 2-4 5-4h60a5 5 0 0 1 4 4v31z" fill="#fff"/><path d="M155 170a4 4 0 0 1-4 4h-48a4 4 0 0 1-4-4v-22a4 4 0 0 1 4-4h48a4 4 0 0 1 4 4v22z" fill="#fff"/><path d="M128 165l-4 2H91c-2 0-3-1-3-2v-32c0-1 1-3 3-3h33c2 0 4 2 4 3v32z" fill="#fff"/><path d="M144 154a6 6 0 0 1-6 6h-10a6 6 0 0 1-6-6v-20a6 6 0 0 1 6-6h10a6 6 0 0 1 6 6v20zm-35 41a6 6 0 0 1-6 6H87a6 6 0 0 1-6-6v-15a6 6 0 0 1 6-6h16a6 6 0 0 1 6 6v15zm-7-31c0 3-4 6-8 6H81c-5 0-8-3-8-6v-23c0-3 3-6 8-6h13c4 0 8 3 8 6v23z" fill="#fff"/><path d="M92 192a6 6 0 0 1-6 6H76a6 6 0 0 1-6-6v-41a6 6 0 0 1 6-6h10a6 6 0 0 1 6 6v41z" fill="#fff"/><path d="M155 206a6 6 0 0 1-6 6H79a6 6 0 0 1-6-6v-8a6 6 0 0 1 6-6h70a6 6 0 0 1 6 6v8z" fill="#fff"/><path d="M108 212a5 5 0 0 1-5 4H91a5 5 0 0 1-4-4 5 5 0 0 1 4-5h12a5 5 0 0 1 5 5zm148-91l10-12c1-2 2-5 0-7-2-1-6-2-8 0l-9 12c-2 2-2 5 0 7s5 2 7 0z" fill="#fff"/><path d="M262 110l15-2c3 0 5-2 5-5 0-2-2-5-5-5l-15 2c-2 0-5 2-5 5 0 2 3 5 5 5zm-9 3l-14-3c-7-2-9 8-3 10l15 3c6 1 9-8 2-10z" fill="#fff"/><path d="M233 110l-13 8c-5 3 0 12 5 9l13-8c5-4 0-13-5-9zm-19 99l-20-45 93 45z" fill="#fff"/><path d="M219 206l-21-45-6 7 92 45 3-9h-73c-6 0-6 10 0 10h73c5 0 7-7 2-9l-92-45c-5-3-9 2-7 6l20 46c3 5 11 0 9-5z" fill="#fff"/><path d="M277 281c0 4-9 4-12 4h-93c-2 0-7-1-7-3v-73c0-2 6-3 7-3h94c4 0 11 0 11 5v71c0 5 7 5 7 0v-71c0-12-12-12-21-12h-84c-8 0-21 0-21 11v72c0 11 15 10 23 10h78c8 0 23 1 25-9 0-4-6-6-7-2z" fill="#fff"/><path fill="#fff" d="M214 209l-20-45-53 45z"/><path d="M218 206l-20-45c-1-3-6-2-8-1l-52 45c-4 3-1 9 3 9h73c6 0 6-10 0-10h-73l4 9 52-45-8-1 20 45c3 5 12 0 9-5zm47 40c-1 3-12 1-14 1h-18c-1 0-4 1-4-1v-23c0-2 29-1 32-1l4 1v23c0 2 3 2 3 0v-18c0-4 1-9-5-9h-20c-4 0-11-1-15 1-2 1-2 3-2 5v11c0 3-2 13 3 14h34c2 0 4-1 5-3 0-2-3-3-3-1z" fill="#fff"/><path d="M246 220v29c0 2 3 2 3 0v-29h-3z" fill="#fff"/><path d="M228 236h38c2 0 2-3 0-3h-38c-2 0-2 3 0 3zm-27 48c-1 2-6 1-8 1h-12c-2 0-5 1-5-2v-49c0-2-2-11 1-11h20c5 0 4 6 4 9v52c0 2 3 2 3 0v-55c0-4 0-9-5-9h-18c-4 0-8 0-8 5v55c0 4-1 7 4 8h15c4 0 11 2 12-4 0-2-3-2-3-1z" fill="#fff"/><path d="M196 252h3c2 0 2-3 0-3h-3c-2 0-2 3 0 3zm0-11c0 2-14 1-16 1v-15h16v15c0 2 3 2 3 0v-11c0-2 1-7-3-7h-11c-3 0-7-1-8 3v10c0 3-1 8 3 8h11c3 0 7 1 8-3 1-2-2-2-3 0z" fill="#fff"/><path d="M187 226v17c0 2 3 2 3 0v-17c0-2-3-2-3 0z" fill="#fff"/><path d="M178 236h20c2 0 2-3 0-3h-20c-2 0-2 3 0 3zm-88 54c0-7 0-16 2-23 2-4 5-6 7-8s0-4-2-2c-3 2-6 4-7 8-3 8-3 17-3 25 0 2 3 2 3 0z" fill="#fff"/><path d="M84 290c0-7 0-16 4-23 3-4 7-6 11-8 2-1 0-4-1-3-5 3-9 5-12 9-5 7-5 17-5 25 0 2 3 2 3 0zm16 0c0-6 0-16 5-21 1-2 4-2 4-5 0-2-3-2-3 0l-5 4c-4 6-4 15-4 22 0 2 3 2 3 0z" fill="#fff"/><path d="M94 291c1-6 2-15 5-19l10-7c1-1-1-3-3-2-3 3-7 4-9 7-4 5-5 14-6 20 0 2 3 2 3 0zm-14-1c0-5 0-11-3-15a8 8 0 0 0-2-3h-1c-1-2-4-2-3 0l2 3c4 3 4 11 4 15 0 2 3 2 3 0z" fill="#fff"/><path d="M84 290c-1-5-1-10-4-14l-7-5c-1-2-3 0-2 2l6 4 2 4 2 10c0 2 3 1 3-1zm49 0c0-7 0-16 4-23l9-8c1-1-1-3-2-2l-10 9c-5 6-4 16-4 24 0 2 3 2 3 0z" fill="#fff"/><path d="M127 290c0-8 0-17 6-23 3-3 8-5 12-7 2-1 1-4-1-3-5 3-10 4-14 9-6 6-6 16-6 24 0 2 3 2 3 0zm14 0c0-5-1-12 2-15 1-2 3-2 3-4s-3-2-3 0l-3 3c-3 4-2 11-2 16 0 2 3 2 3 0z" fill="#fff"/><path d="M137 290c0-4 1-9 3-13l6-5c1-1-1-3-2-2l-7 5c-2 4-3 10-3 15-1 1 2 2 3 0zm-16 0c0-6 1-16-5-20-1-2-3 1-1 2l1 2c2 5 2 11 2 16 0 2 3 2 3 0z" fill="#fff"/><path d="M127 290c-1-5-1-11-4-15l-7-5c-1-1-3 1-2 2l6 5 2 3 2 11c0 1 3 1 3-1z" fill="#fff"/></svg>