<svg xmlns="http://www.w3.org/2000/svg" width="361" height="361"><path d="M268.6 261.7c.4 4.3 2.9 8.1 7.5 8.6 3 .4 7.9.9 10.5-.8 3.8-2.4 4.7-5.8 4.7-9.9V107.1c0-1.8.4-4.5-.2-6.3-1.4-3.9-4.4-6.6-8.8-6.6-3.5 0-8-.6-10.7 2.2-4.7 4.7-3 14-3 20.1v145.2c0 4.5 7 4.5 7 0V104.5c0-4.4 8.7-4.6 8.7-1.5v158.6c0 2.8-8.4 2.9-8.8 0-.4-4.4-7.5-4.4-7 0zm-79.3-116.8l51.2-22.2c1.8-.8.2-3.4-1.5-2.6l-51.2 22.2c-1.7.8-.2 3.4 1.6 2.6zm-2.8 19.2l44.2 38.2c1.4 1.2 3.6-.9 2-2.2l-44-38.1c-1.5-1.3-3.6.8-2.2 2zm-15.9-5.4c-1 3.7-5.3 2.3-7.7 2-2.8-.4-4.1-2.6-3.8-5.3l1.6-12.2c.5-3.4 5.9-2 7.7-1.7 2.8.4 4.1 2.5 3.8 5.2l-1.6 12.4c-.3 1.9 2.7 1.9 3 0l1.2-9.3c.4-3 1.2-5.9-.4-8.7-1.6-2.7-5.8-2.6-8.5-3-3.8-.4-7 .5-8.1 4.6-.7 2.8-.8 6-1.1 8.8-.5 3.3-1.5 6.5.3 9.5 1.6 2.8 5.7 2.6 8.4 3 3.9.5 7-.4 8.1-4.5.5-1.9-2.4-2.7-2.9-.8z" fill="#fff"/><path d="M168.8 140.3l-3 22.4c-.3 2 2.7 2 3 0l3-22.4c.2-2-2.8-2-3 0zM85.2 171l7.2 1c2.7.3 5-2.6 5-5 0-3-2.3-4.7-5-5l-7.2-1c-2.7-.3-5 2.6-5 5 0 3 2.3 4.7 5 5zm49.7 6.6l7.2 1c2.7.3 5-2.6 5-5 0-3-2.3-4.7-5-5l-7.2-1c-2.7-.4-5 2.5-5 5 0 3 2.3 4.6 5 5z" fill="#fff"/><path d="M152.8 165.6c-1 4-8.4 1.6-11.2 1.3l-21.3-2.9-39.6-5.2c-4.8-.6-2.6-6.8-2.2-10.3l2.5-18.6c.4-3.6 29.8 2.2 32.4 2.5l39.6 5.2c4.8.6 2.6 7 2.1 10.4l-2.4 18.5c-.6 4.5 6.4 4.5 7 0L162 149c.9-6.4 2.9-13.6-4.2-17.3-3-1.4-7.6-1.3-10.7-1.8l-21-2.7-40.2-5.3c-5.8-.8-11.1 1.8-12 8.1l-2.4 18.6c-.4 3.5-1.8 8.1-.2 11.6 1.8 3.8 5 5.2 9 5.7l26.3 3.4 33.6 4.5c7.3 1 17 3.6 19.4-6.2 1-4.4-5.7-6.3-6.8-1.9z" fill="#fff"/><path d="M85.4 139.7l32.2 4.2c1.9.3 1.9-2.7 0-3l-32.2-4.2c-2-.3-2 2.7 0 3zm.6-5l32.2 4.3c2 .3 1.9-2.7 0-3L86 131.8c-1.9-.3-1.9 2.7 0 3zm-1.3 9.9l32.2 4.2c2 .3 1.9-2.8 0-3l-32.2-4.2c-1.9-.3-1.9 2.7 0 3zm22-45.3v29.2c0 4.5 7 4.5 7 0V99.3c0-4.5-7-4.5-7 0z" fill="#fff"/><path d="M99.6 100.8h21.2c4.5 0 4.5-7 0-7H99.6c-4.5 0-4.5 7 0 7zM80.8 172l64.8 8.6c1.9.3 1.9-2.8 0-3L80.8 169c-1.9-.2-1.9 2.8 0 3z" fill="#fff"/></svg>