<svg xmlns="http://www.w3.org/2000/svg" width="361" height="361"><path d="M245.6 133.6a65.8 65.8 0 0 0-32.3-54.8 65.3 65.3 0 0 0-64.6 0 65.3 65.3 0 0 0-32.3 54.8c-.3 7.5 0 15 0 22.5v96.6c0 9.1 6.2 16.7 15 18.9 3.2.8 7 .4 10.3.4h66.1c9.5 0 23 2.2 30.9-4.3 8.5-7.1 7-18 7-27.9v-43.7c0-20.8 1-41.8 0-62.5-.4-6.4-10.4-6.4-10 0 .3 7.5 0 15 0 22.5v88c0 7.8.9 17.9-10.2 17.9h-80.2c-8.2 0-19 1.2-19-10.3V137.6c0-15.6 5-30 16-41.3a55 55 0 0 1 62.5-10.7 55.2 55.2 0 0 1 30.8 48c.2 6.5 10.2 6.5 10 0z" fill="#fff"/><path d="M174.5 280.2h-23.7l1.5 1-5-15-1.5 2h33.7l-1.4-2-5 15c-.7 2 2.2 2.7 2.9.9l5-15c.3-1-.6-2-1.5-2h-33.7c-.9 0-1.7 1-1.4 2l5 15c.2.6.7 1 1.4 1h23.7c2 0 2-3 0-3z" fill="#fff"/><path d="M153.8 283.6h18.7l-1.5-1.5 1 7.8 1.5-1.5h-24.7l1.3 2.3 5-7.8c1-1.7-1.5-3.2-2.6-1.6l-5 7.9c-.6 1 .2 2.2 1.3 2.2h24.7c.7 0 1.6-.7 1.5-1.5l-1-7.8c-.1-.8-.6-1.5-1.5-1.5h-18.7c-1.9 0-1.9 3 0 3zm32-.1h23.7c.7 0 1.2-.5 1.4-1.1l5-15c.4-1-.5-1.9-1.4-1.9h-33.7c-.9 0-1.7 1-1.4 1.9l5 15c.6 1.8 3.5 1 2.9-.8l-5-15-1.5 1.9h33.7l-1.4-1.9-5 15 1.4-1.1h-23.7c-1.9 0-1.9 3 0 3z" fill="#fff"/><path d="M206.5 281h-18.7c-.9 0-1.4.6-1.5 1.4l-1 7.8c0 .9.8 1.5 1.5 1.5h24.7c1.1 0 2-1.2 1.3-2.2l-5-7.8c-1-1.6-3.6-.1-2.6 1.5l5 7.8 1.3-2.3h-24.7l1.5 1.5 1-7.8-1.5 1.5h18.7c2 0 2-3 0-3zm-46-76.9l-36.9-34c-3.3-3.1-8.2 1.8-5 4.9l36.9 34c3.3 3.1 8.3-1.8 5-4.9z" fill="#fff"/><path d="M240.5 228.3h-31.2c-2 0-2.3.6-2.7-1.4-.6-2.8-.2-6 0-8.7.2-4.8.8-9.6 1.5-14.3.2-1-.4-1.9-1.4-1.9h-26.5c-2 0-2 3 0 3h1c1.9 0 1.9-3 0-3h-26.5c-1 0-1.6 1-1.5 1.9a174 174 0 0 1 1.5 13.3c.3 2.9.4 5.8.2 8.8-.2 2.7-.4 2.3-2.9 2.3h-31.2c-1.9 0-1.9 3 0 3 11.3 0 22.6-.2 33.9 0 6.8.2 2-24.2 1.4-28.2l-1.4 1.9h26.5c1.9 0 1.9-3 0-3h-1c-2 0-2 3 0 3h26.5l-1.5-1.9c-.6 4-5.3 28.4 1.5 28.2 11.2-.2 22.5 0 33.8 0 2 0 2-3 0-3z" fill="#fff"/><path d="M205.9 209l36.8-34c3.3-3.1-1.7-8-5-5l-36.8 34.1c-3.3 3 1.7 8 5 5zm-84.7-27c-11.8.4-19.4 10.7-24 20.4-7.7 16-10 34.4-10 52 0 6.4 10 6.4 10 0 0-14.8 1.9-29.4 7-43.3 2.6-7 8.1-18.8 17-19.1 6.4-.2 6.4-10.2 0-10z" fill="#fff"/><path d="M87 253.4c-3.1 4.7-10.1 15.6-4.3 20.8 4.8 4.3 12-2.8 7-7a3 3 0 0 1 1 1.8v-.2c0-1 .4-1.9.7-2.8 1-2.7 2.7-5.2 4.2-7.5 3.6-5.4-5-10.4-8.6-5z" fill="#fff"/><path d="M88 252.5c-4.4 7-3.4 15.7 3.3 20.7 2.2 1.7 5.6.4 6.9-1.8 1.5-2.5.4-5.2-1.8-6.8-2.2-1.6-.9-5.2.2-7 3.5-5.5-5.2-10.5-8.6-5z" fill="#fff"/><path d="M87.5 253.7c-1.1 2.8 1.1 5.5 3 7.3 2.6 2.5 5.6 4.6 8.6 6.6 2.3 1.5 5.5.5 6.9-1.8 1.4-2.4.4-5.3-1.8-6.8a65.3 65.3 0 0 1-5.2-3.8 28.3 28.3 0 0 1-2-1.9c-.3-.2-1-1.2 0 0a21.4 21.4 0 0 1-.2-.1c.5 1 .6 2 .3 3.2 1-2.6-1-5.5-3.4-6.2-2.9-.8-5.2 1-6.2 3.5z" fill="#fff"/><path d="M84.4 251.6l-1.1 11c-.4 4.1 3.6 7.6 7.4 7.6 4.4 0 7.2-3.4 7.6-7.4l1.1-11.1c.4-4-3.6-7.5-7.5-7.6-4.3 0-7 3.4-7.5 7.5z" fill="#fff"/><g fill="#fff"><path d="M282 135.9a53.3 53.3 0 0 1-2.2 8.1 15.6 15.6 0 0 1-1.4 2.8c-.9 1 1.1-.6 1.8-.5-6.5-.4-6.4 9.6 0 10 7.8.4 10.4-12.3 11.5-17.7 1.2-6.3-8.4-9-9.7-2.7z"/><path d="M282 152.7a18.3 18.3 0 0 0-1.6-19.7c-1.6-2.2-4.2-3.3-6.8-1.8-2.2 1.2-3.5 4.6-1.8 6.8 2 2.7 3.4 6.5 1.6 9.6-3.2 5.6 5.4 10.6 8.6 5z"/><path d="M282.8 152.1c1-2.9-1.2-5.5-3.1-7.3a66 66 0 0 0-8.7-6.4c-2.3-1.4-5.5-.4-6.8 1.8a5 5 0 0 0 1.8 6.9 72.8 72.8 0 0 1 5.4 3.8 29 29 0 0 1 1.8 1.6l.7.7-.4-.6c.6 1.2.5.1-.3-3.1-1 2.5 1 5.4 3.5 6.1 2.7.8 5.2-1 6.1-3.5z"/><path d="M236.7 192.6c5.5 7.8 12.9 15.5 22.8 17.2a19.4 19.4 0 0 0 21.3-12c6.6-16 2-34.3 7.4-50.6 2-6.1-7.7-8.7-9.7-2.6-4.2 13-2.6 27.4-4.7 40.8-.9 5.4-1.9 11.8-7.6 14-8.4 3.5-16.6-5.8-21-11.8-3.6-5.2-12.3-.3-8.6 5z"/><path d="M272.4 147.2l.2 11.1a7.6 7.6 0 0 0 7.4 7.6c4 0 7.7-3.4 7.6-7.5l-.2-11a7.6 7.6 0 0 0-7.4-7.6c-4 0-7.7 3.3-7.6 7.4z"/></g><path d="M200 175a27.1 27.1 0 0 1-38.2 0c-1.4-1.2-3.5.9-2.1 2.2a30.1 30.1 0 0 0 42.4 0c1.4-1.3-.7-3.4-2.1-2.1z" fill="#fff"/><g fill="#fff"><path d="M178.6 133.4a25.5 25.5 0 0 1-25 25.2c-14 .3-24.9-11.7-25.2-25.2-.4-14 11.7-24.7 25.1-25 14-.4 24.8 11.6 25.1 25 0 2 3 2 3 0a28.6 28.6 0 0 0-28-28c-15.7-.5-27.8 13-28.2 28-.4 15.6 13.1 27.8 28.1 28.2 15.6.4 27.8-13.1 28.1-28.2 0-1.9-3-1.9-3 0z"/><path d="M153.5 115.3a18.2 18.2 0 1 0 0 36.3 18.2 18.2 0 0 0 0-36.3zm-6.8 23.2a7.6 7.6 0 1 1 0-15 7.6 7.6 0 0 1 0 15zm86.6-5a25.5 25.5 0 0 1-25.1 25c-14 .4-24.8-11.6-25.2-25-.3-14 11.7-24.8 25.2-25.2 14-.3 24.8 11.7 25.1 25.2 0 1.9 3 1.9 3 0a28.6 28.6 0 0 0-28.1-28.2c-15.6-.4-27.8 13.1-28.2 28.2-.4 15.6 13.2 27.7 28.2 28 15.6.5 27.7-13 28.1-28 0-2-3-2-3 0z"/><path d="M208.2 115.3a18.2 18.2 0 1 0 0 36.3 18.2 18.2 0 0 0 0-36.3zm-6.8 23.2a7.6 7.6 0 1 1 0-15 7.6 7.6 0 0 1 0 15zm-84.6-.4h10.4v-10h-10.4c-6.4 0-6.4 10 0 10zm128 0h-10.3v-10h10.3c6.5 0 6.5 10 0 10z"/></g></svg>