<svg xmlns="http://www.w3.org/2000/svg" width="361" height="361"><path d="M120.7 193.1L81.4 136c-3.6-5.3-12.3-.3-8.6 5l39.2 57.3c3.6 5.3 12.3.3 8.7-5z" fill="#fff"/><path d="M115.4 193.2l-31 32c-3.2 3.2 1.8 8.2 5 5l31-32c3-3.3-1.9-8.3-5-5zm147.2 4.2l20.7 32c2.5 3.8 8.5.3 6-3.5l-20.7-32c-2.4-3.8-8.5-.3-6 3.5z" fill="#fff"/><path d="M191.8 200.7h94.5c6.5 0 6.5-10 0-10h-94.5v10zm-74 0H141l-2.6-10h-20.6c-6.4 0-6.4 10 0 10z" fill="#fff"/><g fill="#fff"><path d="M125.3 182.9l-34.7-50.6c-2.5-3.7-8.6-.2-6 3.6l34.6 50.5c2.5 3.7 8.6.2 6-3.5zm63.5 5.3h94.3c4.5 0 4.5-7 0-7h-94.3v7z"/><path d="M123.6 188.2h14c-.5 0-3-7-3-7h-11c-4.5 0-4.5 7 0 7z"/></g><path d="M192.9 221.2h-48.3l1.5 1.5-3.2-25.4c-.8-6.5-5-12.5-7.7-18.3l-1.3 2.3c7.4-.8 15.6-2.3 23-1.7l30.2 2.3-1.4-1.1c1.6 4.5 3.7 8.9 5 13.5.8 2.6.5 5.5.6 8v20.4c0 2 3 2 3 0v-20.3c0-2.7.1-5.4-.4-8-1-5-3.6-9.7-5.3-14.5a1.6 1.6 0 0 0-1.5-1l-29.5-2.3c-7.7-.6-16 .9-23.7 1.7-1.2.1-1.9 1.2-1.3 2.2l5 10.6 2.1 4.3c-.6-1.3.2 1.8.3 2.5l3 24.8c.2.8.7 1.5 1.6 1.5h48.3c1.9 0 1.9-3 0-3z" fill="#fff"/></svg>