<svg xmlns="http://www.w3.org/2000/svg" width="361" height="361"><path d="M109.5 153.2a3.4 3.4 0 0 1-2.7 4l-5.9 1.2a3.4 3.4 0 0 1-4-2.7l-16.3-81a3.4 3.4 0 0 1 2.7-4l5.9-1.2a3.4 3.4 0 0 1 4 2.7l16.3 81z" fill="#fff"/><path d="M89.5 119.8L80 176.1c-.7 4.4 6 6.3 6.8 1.8l9.3-56.2c.7-4.4-6-6.3-6.7-1.9z" fill="#fff"/><path d="M78.8 182.5h33c4.6 0 4.6-7 0-7h-33c-4.5 0-4.5 7 0 7zm57-11.1l41.9 7c1.9.3 2.7-2.5.8-2.9l-41.9-7c-1.9-.4-2.7 2.5-.8 2.9z" fill="#fff"/><path d="M136.7 170l5.4 1c1.9.3 2.7-2.6.8-3l-5.4-.8c-2-.3-2.7 2.6-.8 2.9zm9.8 1.7l5.1.9c2 .3 2.7-2.6.8-2.9l-5.1-.9c-2-.3-2.7 2.6-.8 3z" fill="#fff"/><path d="M154.8 173.1l5.5 1c1.9.3 2.7-2.6.8-3l-5.5-.9c-1.9-.3-2.7 2.6-.8 3z" fill="#fff"/><path d="M163.5 174.6l5.1.9c1.9.3 2.7-2.6.8-3l-5.1-.8c-1.9-.3-2.7 2.6-.8 2.9z" fill="#fff"/><path d="M172 176l5.2.9c1.9.3 2.7-2.6.8-2.9l-5.3-.9c-1.9-.3-2.7 2.6-.8 3zm-34.3-4.3l-.3 5.5c-.1 2 2.9 2 3 0l.3-5.5c.1-2-2.9-2-3 0z" fill="#fff"/><g fill="#fff"><path d="M216.5 221.8H278c6.4 0 6.4-10 0-10h-61.6c-6.4 0-6.4 10 0 10z"/><path d="M243.6 216.8v48.6c0 6.4 10 6.4 10 0v-48.6c0-6.5-10-6.5-10 0z"/><path d="M248.9 263l-35.8 12.8c-4.2 1.5-2.4 8.2 1.9 6.7l35.8-12.8c4.2-1.5 2.4-8.3-1.9-6.8z"/><path d="M247.6 269.7l35.8 12.8c4.3 1.5 6.1-5.2 1.9-6.8L249.5 263c-4.3-1.5-6.1 5.3-1.9 6.8zm29.9-149l-7.2 56.3c-.8 6.4 9.2 6.3 10 0l7.2-56.2c.8-6.4-9.2-6.3-10 0z"/><path d="M270.3 179l2.7 23c.8 6.3 10.8 6.4 10 0l-2.6-23.1c-.7-6.4-10.7-6.4-10 0zm7.7-91l3.7 17.6c1.4 6.3 11 3.7 9.7-2.6l-3.8-17.6c-1.3-6.3-11-3.6-9.6 2.6zm-50 102.4h37c4.6 0 4.6-7 0-7h-37c-4.6 0-4.6 7 0 7z"/><path d="M252.9 187.7l.7 28.8c0 2 3 2 3 0l-.7-28.8c0-2-3-2-3 0zm-38.8 97h-2c-1.8 0-3.4 1.6-3.4 3.5s1.6 3.5 3.5 3.5h2c1.9 0 3.5-1.6 3.5-3.5s-1.6-3.5-3.5-3.5zm71.3 0h-2c-2 0-3.5 1.6-3.5 3.5s1.6 3.5 3.5 3.5h2c1.9 0 3.5-1.6 3.5-3.5s-1.6-3.5-3.5-3.5z"/></g><g fill="#fff"><path d="M75.2 188.1h105.6c6.5 0 6.5-10 0-10H75.2c-6.5 0-6.5 10 0 10z"/><path d="M104.2 186.3v97.8c0 6.5 10 6.5 10 0v-97.8c0-6.4-10-6.4-10 0zm-28 0v97.8c0 6.5 10 6.5 10 0v-97.8c0-6.4-10-6.4-10 0z"/><path d="M75.2 291.8h68.6c6.5 0 6.5-10 0-10H75.2c-6.5 0-6.5 10 0 10z"/></g></svg>