<svg xmlns="http://www.w3.org/2000/svg" width="361" height="361"><path d="M166 169h30c10 0 10-15 0-15h-30c-10 0-10 15 0 15zm13-93c3 3 6 6 8 11 1 5-4 11-8 14a38 38 0 0 0-8 10c-3 7-2 14 2 20 3 3 9 0 6-4-2-4-4-8-2-12l6-8 7-7c7-10 3-22-6-29-3-3-8 2-5 5zm34 6c3 3 6 7 6 11 1 4-3 9-6 11-8 8-12 17-5 27 2 3 8 0 6-4-5-6-3-11 2-16l7-7c7-10 2-20-5-27-4-3-9 2-5 5zm-70 0c3 3 7 7 7 11s-4 9-7 11c-8 8-11 17-5 27 3 3 9 0 6-4-4-6-2-11 3-16l6-7c7-10 3-20-5-27-3-3-8 2-5 5z" fill="#fff"/><g fill="#fff"><path d="M102 193c0-3 3-6 6-7a67 67 0 0 1 18-7 213 213 0 0 1 55-6c4 0 4-7 0-7a213 213 0 0 0-62 7c-9 3-24 8-24 20-1 4 6 4 7 0z"/><path d="M267 193c0-12-15-17-24-20a209 209 0 0 0-62-7c-5 0-5 7 0 7a223 223 0 0 1 55 6c6 1 12 3 17 6 3 2 7 4 7 8s7 4 7 0z"/></g><path d="M283 208h-13a8 8 0 0 0-8 8 8 8 0 0 0 8 7h13a8 8 0 0 0 7-7 8 8 0 0 0-7-8z" fill="#fff"/><path d="M265 281a6 6 0 0 1-6 6H103a6 6 0 0 1-6-6v-78a6 6 0 0 1 6-5h156a6 6 0 0 1 6 5v78z" fill="none" stroke="#fff" stroke-width="10" stroke-miterlimit="10"/><path d="M92 203h178c6 0 6-10 0-10H92c-7 0-7 10 0 10zm0 5H79a8 8 0 0 0-7 8 8 8 0 0 0 7 7h13a8 8 0 0 0 7-7 8 8 0 0 0-7-8z" fill="#fff"/></svg>