<svg xmlns="http://www.w3.org/2000/svg" width="361" height="361"><path d="M219 91a3 3 0 0 1-2 3h-71a3 3 0 0 1-3-3V78a3 3 0 0 1 3-3h71a3 3 0 0 1 2 3v13zm-2 149c0 26-17 47-38 47a42 42 0 0 1-42-44c1-15 10-21 17-32 7-12 11-37 15-39 1 0 9 11 11 24 4 24 16-9 17-8l8 10a80 80 0 0 1 12 42z" fill="none" stroke="#fff" stroke-width="10" stroke-miterlimit="10"/><path d="M199 258c0 15-10 28-23 28a25 25 0 0 1-24-26c0-9 5-12 9-19s7-22 9-23c1 0 6 6 7 14 2 14 9-5 10-5a38 38 0 0 1 5 6 47 47 0 0 1 7 25z" fill="none" stroke="#fff" stroke-width="10" stroke-miterlimit="10"/><path d="M232 97a73 73 0 0 1-102 0c-4-5-11 2-7 7a83 83 0 0 0 116 0c5-5-2-12-7-7z" fill="#fff"/><path d="M254 108a105 105 0 0 1-73 30 104 104 0 0 1-74-30c-4-5-11 2-7 7a115 115 0 0 0 81 33c30 0 59-12 80-33 5-5-3-12-7-7z" fill="#fff"/></svg>