<svg xmlns="http://www.w3.org/2000/svg" width="361" height="361"><path fill="#fff" d="M79.2 162.2l84.1-84 17 16.9-84.1 84z"/><path d="M181.4 124.6c0 40.3-25.5 83-52.8 83-27.3 0-52.8-42.7-52.8-83 0-14.7-.4-28.4 4.7-39.8 0 0 30.8-10.3 48.1-10.3 17.4 0 48.1 10.2 48.1 10.2 5.1 11.4 4.7 25.1 4.7 39.9zm93.4-15.3a3.2 3.2 0 0 1-3.2 3.2h-18.4a3.2 3.2 0 0 1-3.1-3.2V91a3.2 3.2 0 0 1 3.2-3.2h18.3a3.2 3.2 0 0 1 3.2 3.1v18.4z" fill="none" stroke="#fff" stroke-width="10" stroke-miterlimit="10"/><path d="M231.5 78l5.7 5.7a5 5 0 0 0 7 0 5 5 0 0 0 0-7l-5.6-5.7a5 5 0 0 0-7 0 5 5 0 0 0 0 7zm-23.4 27h26.3c6.4 0 6.4-10 0-10H208c-6.5 0-6.5 10 0 10zm82.6 17.3l-4.6-4.6a5 5 0 0 0-7.1 0 5 5 0 0 0 0 7l4.7 4.7a5 5 0 0 0 7 0 5 5 0 0 0 0-7zM267 139.8v-12.3c0-6.4-10-6.4-10 0v12.3c0 6.4 10 6.4 10 0zm-40.5 3.5l18.5-18.6c4.6-4.5-2.5-11.6-7-7l-18.6 18.5c-4.6 4.6 2.5 11.7 7 7.1z" fill="#fff"/><path d="M268.6 255c0 1.8-1.6 3.3-3.6 3.3h-13.4c-2 0-3.6-1.5-3.6-3.4v-93.4c0-1.8 1.6-3.4 3.6-3.4H265c2 0 3.6 1.6 3.6 3.4V255z" fill="none" stroke="#fff" stroke-width="10" stroke-miterlimit="10"/><path d="M274.1 283c0 2-1.3 3.7-2.8 3.7h-26c-1.5 0-2.8-1.7-2.8-3.7v-21c0-2 1.3-3.7 2.9-3.7h25.9c1.5 0 2.8 1.6 2.8 3.6V283z" fill="#fff" stroke="#fff" stroke-width="10" stroke-miterlimit="10"/><path d="M276.6 170.4h10.9c6.5 0 6.5-10 0-10h-11c-6.4 0-6.4 10 0 10zm0 24.4h10.9c6.5 0 6.5-10 0-10h-11c-6.4 0-6.4 10 0 10zm0 25h10.9c6.5 0 6.5-10 0-10h-11c-6.4 0-6.4 10 0 10zm0 26h10.9c6.5 0 6.5-10 0-10h-11c-6.4 0-6.4 10 0 10z" fill="#fff"/><path fill="#fff" stroke="#fff" stroke-width="10" stroke-miterlimit="10" d="M248 186.2h20.6v81.6H248z"/></svg>