<svg xmlns="http://www.w3.org/2000/svg" width="361" height="361"><path d="M181 281a6 6 0 0 1-6 6H81a6 6 0 0 1-5-6V81a6 6 0 0 1 6-6h94a6 6 0 0 1 5 6v200z" fill="none" stroke="#fff" stroke-width="10" stroke-miterlimit="10"/><path d="M115 176v11c0 6 10 6 10 0v-11c0-6-10-6-10 0z" fill="#fff"/><path fill="none" stroke="#fff" stroke-width="10" stroke-miterlimit="10" d="M133 77v208"/><g stroke="#fff" stroke-linejoin="round" stroke-miterlimit="10"><g fill="#fff" stroke-width="3"><path d="M163 234l2-2a9 9 0 0 0-4-1v3h2zm-2-3l-1-3h-4l1 4h1a9 9 0 0 1 3-1zm-3 3l-1-2a9 9 0 0 0-3 2l2 2 2-2zm9 0l3-3-3-2-2 3a9 9 0 0 1 2 2zm-12 5l-3-1a9 9 0 0 0 0 4l3-1v-2zm-4-6l-2 3 3 2a9 9 0 0 1 2-4l-3-1zm16 5h2a9 9 0 0 0 0-2 9 9 0 0 0-2-2l-1 2 1 2zm-10 10v3l3 1 1-4a9 9 0 0 1-4-1zm9-5l1 2a9 9 0 0 0 2-4h-2l-1 2zm-1 4l2 3 3-2-3-3a8 8 0 0 1-2 2zm-12-5l-4 1 2 3 3-1a9 9 0 0 1-1-2 9 9 0 0 1 0-1z"/><path d="M169 241h4v-3h-4a9 9 0 0 1 0 3zm-12 3l-3 1a9 9 0 0 0 3 3l1-3-1-1zm4 2v2a9 9 0 0 0 4-1l-2-2-1 1z"/></g><circle cx="161" cy="240" r="6" fill="none" stroke-width="5"/><path d="M145 215l4-1-1-4-4 1-3-4 3-4-3-2-3 3-2-1v4a12 12 0 0 1 2 2 12 12 0 0 1 0 16 12 12 0 0 1-2 2v4l1-1 2 4 3-2-2-4 3-4 4 2 2-4-4-2v-5zm4 38h4l-1-4-4 1-3-5 3-3-3-3-3 3-5-2 1-4h-2v7a12 12 0 0 1 6 3 12 12 0 0 1 0 17 12 12 0 0 1-6 3v3l3-1 2 4 4-2-2-4 3-4 4 2 2-4-4-1 1-6z" fill="#fff" stroke-width="3"/></g><path d="M222 125a4 4 0 0 0 0 6l8 8a4 4 0 0 0 7 0l49-49a4 4 0 0 0 0-6l-9-8a4 4 0 0 0-6 0l-49 49z" fill="none" stroke="#fff" stroke-width="10" stroke-miterlimit="10"/><path d="M172 197l56-56c4-4-3-11-7-7l-56 56c-4 4 3 11 7 7z" fill="#fff"/><path d="M165 188a6 6 0 0 1 9 0l1 1a6 6 0 0 1 0 8l-13 12a6 6 0 0 1-8 0l-1-1a6 6 0 0 1 0-8l12-12z" fill="#fff"/></svg>