<svg xmlns="http://www.w3.org/2000/svg" width="361" height="361"><g fill-rule="evenodd" clip-rule="evenodd" fill="#fff"><path d="M136 78v57H78V78h58zm-50 8v41h41V86H86zm83-8h8v8h-9v-8zm16 0h25v16h-9v-8h-16v-8zm99 0v57h-58V78h58zm-50 8v41h41V86h-41z"/><path d="M95 94h24v25H95V94zm90 0h8v9h-8v-9zm58 0h24v25h-25V94zm8 50h8v8h-8v-8zm-9 41h9v8h-9v-8zM79 210h16v8H79v-8zm58 16v58H78v-58h58zm-50 8v41h41v-41H86zm83-8h8v8h-9v-8zm57 0h8v8h-8v-8z"/><path d="M95 242h24v25H95v-25zm180 33h9v9h-9v-9zm-90-156h-32c-2 6 0 17-1 25h-8v-25h8v-7c-1-3-6-1-8-1v-8h8V78h8v15c4 3 12 1 17 1v16c0 2 5 0 8 1v8h16v-16h9v8h8v40c0 2 5 0 7 1 2-1 0-6 1-8h16v15c4 2 12 0 17 1v17h-25v31c3 3 11 1 16 1 2 0 0-5 1-8h8v17h-8v15c0 2 5 0 8 1v15c0 3 5 1 7 1s0-5 1-8h17v9h-9v7c1 2 6 0 9 1v8h-25v16h-8v-24h8v-9h-33v24c1 2 6 0 8 1v8h-8v-8h-7c-2 1-1 6-1 8h-8v-16h8v-16h-17v16h-15c-2 0 0 5-1 7 1 2 6 1 8 1v8h-8v-7c-1-2-6 0-8-1v-8h8v-8h8v-8h8v-9h-23c-3 1-1 6-1 9h-8c-2 0 0 5-1 8h-8v-17h16c2 0 0-5 1-8h8v-8h16v8h9v-7c-1-2-6 0-9-1v-8h-16v-8h24c2-1 0-6 1-9h8v-7c-1-2-5 0-7-1-3 1-1 6-1 8h-9v-8h-31c-3 1-1 6-1 8h-9v7c1 3 5 1 8 1 2 0 0-5 1-8h8v17h-8c-2 0 0 5 0 8h-9v16h-8v-15c-1-2-6 0-8-1v-15c-1-3-5-1-8-1-2 0 0 5 0 8h-9v-9h8v-8h-23c-2 1 0 5-1 7 1 3 6 1 8 1v9h-8v-9h-8v-16h15c3-1 1-6 1-8h7c3-1 1-6 1-8h9v8h-9v8h8c2-1 0-6 1-8h7c2-1 0-6 1-8h8v8h-8v16h15c3 0 1-5 1-7-1-2-6 0-8-1v-8h8v-8h8v-17h33v-25h9v-15c-1-2-6 0-9-1v16h-8v17h-8v-16h8v-9h-7c-2 1 0 6-1 8h-8v17h-17v-8h8v-7c0-3-5-1-8-1v-9h8v9h8c2-1 0-6 1-9h8v-8zm-8 58v8h8c1-3-1-8 1-8h7v-9h-8v9h-8zm24 8h9v-9h-9v9zm17 0h8v-9h-8v9zm0 57h25v-24h-25v24z"/><path d="M169 259h8v8h-8c-2 1 0 6 0 8h-9v8h-8v-8h-8v-16h8v8h15c3-1 1-6 1-8zm-74-74v-8h-8c-2 0 0 5-1 8h-8v-17h8v-7c-1-2-6 0-8-1v-8h8v-8h17v7c0 2 5 0 8 1v8H96c-3 1-1 5-1 7 0 3 5 1 8 1v17h-8v16H78v-8h7c3-1 1-6 1-8h8zm41-33h-9v7c1 2 5 1 8 1 2-1 0-6 1-8h16v7c1 2 6 1 8 1v8h-8v-8h-7c-2 1 0 6-1 8h-25v-16h7c3-1 1-6 2-8h8v8zm139 16v-7c0-2-5 0-8-1v-8h17v16h-9v8c1 2 6 0 9 1v41h-9v7c1 2 6 0 9 1v8h-9v-7c0-2-5 0-8-1v-8h8v-40c0-3-5-1-8-1v-9h8z"/></g></svg>