<svg xmlns="http://www.w3.org/2000/svg" width="361" height="361"><path d="M276 281a6 6 0 0 1-6 5h-96a6 6 0 0 1-6-5V175a6 6 0 0 1 6-6h96a6 6 0 0 1 5 6v106z" fill="none" stroke="#fff" stroke-width="10" stroke-miterlimit="10"/><path d="M260 267h-77c-4 0-4 7 0 7h77c4 0 4-7 0-7zm0-13h-77c-4 0-4 7 0 7h77c4 0 4-7 0-7zm0-14h-77c-4 0-4 7 0 7h77c4 0 4-7 0-7zm0-13h-77c-4 0-4 7 0 7h77c4 0 4-7 0-7zm0-13h-77c-4 0-4 7 0 7h77c4 0 4-7 0-7zm0-14h-77c-4 0-4 7 0 7h77c4 0 4-7 0-7z" fill="#fff"/><path d="M257 163c0 3-2 6-5 6h-60c-3 0-6-3-6-6l6-60c0-3 2-6 5-6h50c2 0 5 3 5 6l5 60zm-67-8h64" fill="none" stroke="#fff" stroke-width="10" stroke-miterlimit="10"/><path d="M131 174a61 61 0 0 0 0 86c5 4 12-3 7-7a51 51 0 0 1 0-72c5-5-3-12-7-7z" fill="#fff"/><path d="M116 158a84 84 0 0 0 0 117c4 5 11-2 7-7a73 73 0 0 1 0-103c4-4-3-11-7-7z" fill="#fff"/><path d="M100 144a105 105 0 0 0-30 73 104 104 0 0 0 30 73c4 5 11-2 7-7a94 94 0 0 1 0-132c4-5-3-12-7-7z" fill="#fff"/></svg>