<svg xmlns="http://www.w3.org/2000/svg" width="361" height="361"><path d="M219.4 90.7a2.8 2.8 0 0 1-2.8 2.9h-71a2.8 2.8 0 0 1-2.8-2.9V77.5a2.8 2.8 0 0 1 2.9-2.8h70.9a2.8 2.8 0 0 1 2.8 2.8v13.2zm-2 149.5c0 25.7-17.2 46.5-38.3 46.5a42.2 42.2 0 0 1-41.7-43.5c.6-15.4 9.7-21.2 16.4-32.4 7-11.7 11.6-36.6 15.2-38.7 1-.5 9.4 10.8 11.3 24.4 3.3 23.5 16.1-9.1 17-8.4 2.5 2.6 6.1 6.5 8.1 9.7a79.7 79.7 0 0 1 12 42.5z" fill="none" stroke="#fff" stroke-width="10" stroke-miterlimit="10"/><path d="M198.7 258.3c0 15-10 27.4-22.5 27.4a25 25 0 0 1-24.6-25.7c.3-9 5.7-12.5 9.7-19.2 4.1-6.8 6.8-21.5 9-22.8.5-.3 5.5 6.4 6.6 14.4 2 13.9 9.5-5.4 10-5a38.3 38.3 0 0 1 4.8 5.8 47 47 0 0 1 7 25z" fill="none" stroke="#fff" stroke-width="10" stroke-miterlimit="10"/><path d="M232.2 96.6a72.8 72.8 0 0 1-101.8 0c-4.6-4.5-11.7 2.6-7.1 7.1a83 83 0 0 0 116 0c4.6-4.5-2.5-11.6-7.1-7z" fill="#fff"/><path d="M253.8 107.6a104.8 104.8 0 0 1-73.2 30.4 104 104 0 0 1-73.2-30.4c-4.6-4.5-11.7 2.6-7.1 7.1a115.1 115.1 0 0 0 80.3 33.3c30 .2 59-12.3 80.3-33.3 4.6-4.5-2.5-11.6-7.1-7z" fill="#fff"/></svg>