<svg xmlns="http://www.w3.org/2000/svg" width="361" height="361"><path d="M114.3 182.4c0-3.1 2.7-5.6 6-5.6h121.9c3.3 0 6 2.5 6 5.6v99c0 3-2.7 5.5-6 5.5H120.3c-3.3 0-6-2.5-6-5.6v-99z" fill="none" stroke="#fff" stroke-width="10" stroke-miterlimit="10"/><path d="M116 266.8h67.6c6.5 0 6.5-10 0-10H116c-6.5 0-6.5 10 0 10zm3.1-27.1h64.5c6.5 0 6.5-10 0-10h-64.5c-6.4 0-6.4 10 0 10zm0-27.1h64.5c6.5 0 6.5-10 0-10h-64.5c-6.4 0-6.4 10 0 10zM140 172v-31c0-2.2-.4.8 0-.2-.6 1.6 1.1-2 1.5-2.6a92.3 92.3 0 0 1 11.6-14.5 47 47 0 0 1 1.7-1.7c1.7-1.6-1 .7.4-.4 1.2-.8-3.4.5-2.1.5h54.4c1.4 0-3.3-1.3-2-.5-1.7-1 .1.2.4.4l2.4 2.4a91.4 91.4 0 0 1 7.5 9 86.3 86.3 0 0 1 3.3 4.8 44.7 44.7 0 0 1 1.9 3.4c-.4-1-.4-1.1-.2-.4-.5-1.7-.1-1.4-.1-.3v30.9c0 9.6 15 9.7 15 0V155c0-5.5.9-11.9-.3-17.3-1.7-7.5-8.5-14.6-13.2-20.3-3.8-4.4-8.5-10.3-14.8-10.3H153c-6.8 0-12 7.4-16 12a79.7 79.7 0 0 0-10.3 14.9c-1.7 3.4-1.7 6.5-1.7 10.2v27.6c0 9.6 15 9.7 15 0z" fill="#fff"/></svg>