<svg xmlns="http://www.w3.org/2000/svg" width="361" height="361"><path d="M114.3 182.4c0-3.1 2.7-5.6 6-5.6h121.9c3.3 0 6 2.5 6 5.6v99c0 3-2.7 5.5-6 5.5H120.3c-3.3 0-6-2.5-6-5.6v-99z" fill="none" stroke="#fff" stroke-width="10" stroke-miterlimit="10"/><path d="M116 266.8h67.6c6.5 0 6.5-10 0-10H116c-6.5 0-6.5 10 0 10zm3.1-27.1h64.5c6.5 0 6.5-10 0-10h-64.5c-6.4 0-6.4 10 0 10zm0-27.1h64.5c6.5 0 6.5-10 0-10h-64.5c-6.4 0-6.4 10 0 10zM165.5 111l12-12 7.5-7.5 2.3-2.3c1.5-1.6-.8.3.2-.2-1.9 1 0 0 .5 0l2.3-.7 5.8-1c4.2-.7 8.4-1 12.5-1 .8 0 4.9.3 3 0 1.5.2-2.6-2-1.6-1.1l4 4 30.9 30.9 3.5 3.5c1 1-1.5-3.3-1.2-1.8-.4-2 0 0 0 .5v3.4c0 3.9-.4 7.8-1 11.6a86.4 86.4 0 0 1-1 5.8 45 45 0 0 1-.6 2.4 20 20 0 0 1-.3 1c.7-1.5.7-1 0-.2l-2.3 2.3-7.6 7.5-12 12c-6.8 6.8 3.9 17.4 10.7 10.5l12-12c3.8-3.8 9-7.6 12-12.3 4-6.4 4.3-16.2 4.9-23.5.5-5.9 1.3-13.5-3.2-18l-28.3-28.3-10.1-10.1c-4.7-4.7-13.7-3.3-19.7-2.7a80 80 0 0 0-18 3.2c-3.6 1.2-5.8 3.4-8.4 6l-19.5 19.5c-6.8 6.9 3.8 17.4 10.7 10.6z" fill="#fff"/></svg>