<svg xmlns="http://www.w3.org/2000/svg" width="361" height="361"><path d="M219 236a4 4 0 0 1-4 4h-68a4 4 0 0 1-4-4v-75a4 4 0 0 1 4-5h68a4 4 0 0 1 4 4v76z" fill="none" stroke="#fff" stroke-width="10" stroke-miterlimit="10"/><path d="M208 225h-55c-4 0-4 7 0 7h55c4 0 4-7 0-7zm0-9h-55c-4 0-4 7 0 7h55c4 0 4-7 0-7zm0-10h-55c-4 0-4 7 0 7h55c4 0 4-7 0-7zm0-10h-55c-4 0-4 7 0 7h55c4 0 4-7 0-7zm0-9h-55c-4 0-4 7 0 7h55c4 0 4-7 0-7zm0-10h-55c-4 0-4 7 0 7h55c4 0 4-7 0-7z" fill="#fff"/><path d="M206 152c0 2-2 4-4 4h-43c-2 0-3-2-3-4l3-42c0-3 2-5 4-5h35c2 0 4 2 4 5l4 42z" fill="none" stroke="#fff" stroke-width="10" stroke-miterlimit="10"/><path d="M158 150h46c4 0 4-7 0-7h-46c-4 0-4 7 0 7zm-51 70a57 57 0 0 0 16 43c4 4 11-3 7-7a47 47 0 0 1-13-36c0-7-10-7-10 0z" fill="#fff"/><path d="M89 220a77 77 0 0 0 22 57c4 4 11-3 7-7a67 67 0 0 1-19-50c0-7-10-7-10 0z" fill="#fff"/><path d="M71 220a96 96 0 0 0 27 70c5 5 12-2 7-7a86 86 0 0 1-25-63c1-7-9-7-10 0zm126-83c0 1-1 2-3 2h-27l-2-2 1-21c0-2 1-3 3-3h24c1 0 2 1 2 3l2 21zm60 4a57 57 0 0 0-29-36c-6-3-11 6-6 9a47 47 0 0 1 25 29c2 7 11 4 10-2zm-18 121a58 58 0 0 0 17-35c0-6-10-6-10 0a47 47 0 0 1-14 28c-4 5 3 12 7 7z" fill="#fff"/><path d="M274 135a77 77 0 0 0-40-47c-5-3-10 6-4 9a67 67 0 0 1 34 41c2 6 12 3 10-3zm-22 142a77 77 0 0 0 22-50c0-6-10-6-10 0a67 67 0 0 1-19 43c-5 4 2 11 7 7z" fill="#fff"/><path d="M291 129a96 96 0 0 0-49-58c-6-3-11 6-5 9a86 86 0 0 1 44 52c2 6 12 3 10-3zm-27 161a96 96 0 0 0 28-63c0-6-10-6-10 0a86 86 0 0 1-25 56c-4 4 3 11 7 7zM115 144a47 47 0 0 1 24-30c6-3 1-12-5-9a57 57 0 0 0-29 36c-2 6 8 9 10 3z" fill="#fff"/><path d="M97 138a67 67 0 0 1 35-41c6-3 1-12-5-9a77 77 0 0 0-39 47c-2 6 7 9 9 3z" fill="#fff"/><path d="M80 132c7-23 23-42 44-52 6-3 1-12-5-9a96 96 0 0 0-49 58c-1 6 8 9 10 3z" fill="#fff"/></svg>