<svg xmlns="http://www.w3.org/2000/svg" width="361" height="361"><path d="M244.1 135a6 6 0 0 1 6 6v71.8l2.4 17 2.4 16.9c0 .2 0 .5.2.7l6.3 15.7 7 17.2c.6 1.5.5 2.9-.3 4a5.7 5.7 0 0 1-4.6 2.4c-1.2 0-3-.5-3.8-2.8l-4.2-10.3-5-12.2L246 250a5 5 0 0 1-.4-1.8 3.2 3.2 0 0 0 0-.4l-2.4-17.3-1.3-8.7a3 3 0 0 0-3-2.6h-2.5a3 3 0 0 0-3 2.7l-4.3 37-3.1 26.4c-.4 3.7-3.6 4-4.6 4-1.6 0-3-.7-3.9-1.7a4 4 0 0 1-1-3.3l4.6-38.6 3.7-31.9v-.4a4.5 4.5 0 0 0 0-.3v-31.5a3 3 0 0 0-3.8-2.8l-29.1 9a3 3 0 0 1-1 .1c-1.3 0-2-1.4-2.2-2.4-.2-1 0-2.2 1.6-2.7l21.1-6.5 6.4-2a3 3 0 0 0 2-2l3.4-10.9a3 3 0 0 0-.5-2.8l-5.3-6.5-10.3-12.9c-.7-.8-.8-1.6-.4-2.4a3.2 3.2 0 0 1 2.7-1.8c.6 0 1.2.3 1.7 1l4 5 4.4 5.4a3 3 0 0 0 3.3 1 3 3 0 0 0 2-2.9V141a6 6 0 0 1 1.8-4.2 6 6 0 0 1 4.2-1.8h13.4m0-3h-13.4a9 9 0 0 0-9 9v3.5l-8.4-10.4a5.1 5.1 0 0 0-4-2c-4.1 0-8 4.8-4.7 9l15.7 19.3-3.5 11-27.5 8.6c-6.2 2-4 11 1.6 11l1.7-.3 29.1-9v31.8l-8.2 70.4c-.6 5.4 3.6 8.3 7.8 8.3 3.5 0 7-2 7.6-6.6l7.4-63.4h2.6l3.6 26a8 8 0 0 0 .6 2.9l13.8 34a7 7 0 0 0 6.6 4.6c5 0 10-4.6 7.6-10.5l-13.3-33-4.7-33.9V141a9 9 0 0 0-9-9z" fill="#fff"/><path d="M75.2 280.7c0 3.4 2.7 6.2 6 6.2h93a6.1 6.1 0 0 0 6-6.2v-200a6 6 0 0 0-6-6.2h-93a6.1 6.1 0 0 0-6 6.1v200.1z" fill="none" stroke="#fff" stroke-width="10" stroke-miterlimit="10"/><path d="M178.2 175.5h-10c-6.5 0-6.5 10 0 10h10c6.4 0 6.4-10 0-10z" fill="#fff"/><path d="M76.8 279.8a6 6 0 0 1 6-6h91.4a6 6 0 0 1 6 6v.7a6 6 0 0 1-6 6H82.8a6 6 0 0 1-6-6v-.7z" fill="none" stroke="#fff" stroke-width="10" stroke-miterlimit="10"/><path d="M218.4 125.4c-2.8-1.2-9.5-5.7-12.6-2.7-4.4 4.2-.7 10.5-2.8 15.6l-7.9 19-12 29.2c-2.3 5.4-4.2 10.2-7.2 14.8-1 1.6 1.6 3.1 2.6 1.5 2.6-4 4.2-7.7 6-12l10.9-26.4a44011.6 44011.6 0 0 1 9.2-22.4c.9-2 2-4.2 2.2-6.4.2-2.2-1.8-10.5 1.6-10.9 2.8-.2 6.6 2.5 9.2 3.5 1.8.8 2.5-2.1.8-2.9zM217 115c0 .2 0-.2 0 0 1.4 9.7 10.3 15.4 20 14a17.7 17.7 0 0 0 15-20.2l-.2-.6L217 115zm31-15a16.2 16.2 0 0 0-16.2-6.2c-6.8 1-11.2 3.7-13.3 9.7L248 100zm-21.7 8.6c.1 1-.4 1.9-1.2 2l-3.8.6c-.7 0-1.5-.6-1.6-1.6-.2-1 .3-1.8 1.1-2l3.8-.5c.8-.1 1.5.6 1.7 1.5z" fill="#fff"/></svg>