<svg xmlns="http://www.w3.org/2000/svg" width="361" height="361"><path d="M218 206a4 4 0 0 1-5 4h-67a4 4 0 0 1-5-4v-75a4 4 0 0 1 4-5h69a4 4 0 0 1 4 4v76z" fill="none" stroke="#fff" stroke-width="10" stroke-miterlimit="10"/><path d="M207 195h-55c-5 0-5 7 0 7h55c4 0 4-7 0-7zm0-9h-55c-5 0-5 7 0 7h55c4 0 4-7 0-7zm0-10h-55c-5 0-5 7 0 7h55c4 0 4-7 0-7zm0-10h-55c-5 0-5 7 0 7h55c4 0 4-7 0-7zm0-9h-55c-5 0-5 7 0 7h55c4 0 4-7 0-7zm0-10h-55c-5 0-5 7 0 7h55c4 0 4-7 0-7z" fill="#fff"/><path d="M205 122c0 2-2 4-4 4h-43c-2 0-4-2-4-4l4-42c0-3 2-5 4-5h35c2 0 4 2 4 5l4 42z" fill="none" stroke="#fff" stroke-width="10" stroke-miterlimit="10"/><path d="M157 120h46c4 0 4-7 0-7h-46c-5 0-5 7 0 7zm-43 9a45 45 0 0 0 0 63c4 5 11-2 7-7a35 35 0 0 1 0-49c4-5-3-12-7-7z" fill="#fff"/><path d="M103 118a61 61 0 0 0 0 85c4 5 11-2 7-7a51 51 0 0 1 0-71c4-5-3-12-7-7z" fill="#fff"/><path d="M92 107a76 76 0 0 0 0 107c4 4 11-3 7-7a66 66 0 0 1 0-92c4-5-3-12-7-8zm131 181l68-98c6-8-7-15-13-7l-68 98c-5 8 8 15 13 8z" fill="#fff"/><path d="M221 278l-30-21c-3-2-8 0-10 3-2 4 0 8 3 10l29 21c4 3 9 1 10-3 3-3 1-7-2-10z" fill="#fff"/></svg>