<svg xmlns="http://www.w3.org/2000/svg" width="361" height="361"><path d="M181.4 280.9a6 6 0 0 1-6 6h-94a6 6 0 0 1-5.9-6V80.6a6 6 0 0 1 6-6h94a6 6 0 0 1 5.9 6V281z" fill="none" stroke="#fff" stroke-width="10" stroke-miterlimit="10"/><path d="M115.2 176v10.5c0 6.5 10 6.5 10 0V176c0-6.4-10-6.4-10 0z" fill="#fff"/><path fill="none" stroke="#fff" stroke-width="10" stroke-miterlimit="10" d="M132.8 76.6v208.3"/><g stroke="#fff" stroke-linejoin="round" stroke-miterlimit="10"><g fill="#fff" stroke-width="3"><path d="M163.1 234l1.6-2a8.6 8.6 0 0 0-4-1l.7 2.6 1.7.4zm-2.3-3l-.9-3.4-3.4.9.8 3.3.3-.1a8.5 8.5 0 0 1 3.2-.6zm-2.9 3.4l-.6-2.6a8.5 8.5 0 0 0-3.3 2.6l2.5 1.2 1.4-1.2zm9.5-.2l2.3-2.9-2.8-2.2-2.2 2.9a8.5 8.5 0 0 1 2.7 2.2zm-12.4 4.6l-2.5-1.2a8.5 8.5 0 0 0 0 4.2l2.5-1.2v-1.8zm-4-5.8l-1.6 3.2 3.1 1.4a8.6 8.6 0 0 1 1.5-3.2l-3-1.4zm15.7 4.8h2.4a8.7 8.7 0 0 0-.4-1.4 8.6 8.6 0 0 0-1.3-2.2l-1.5 2 .8 1.6zm-9.3 9.7l-.7 3.4 3.5.7.7-3.5a8.6 8.6 0 0 1-3.5-.6zm8.6-4.6l1.5 2a8.6 8.6 0 0 0 1.7-3.6h-2.5l-.7 1.6zm-1.2 4.2l2.3 2.9 2.8-2.3-2.4-2.8a8.4 8.4 0 0 1-2.7 2.3zm-12.2-5.3l-3.1 1.5 1.6 3.2 3-1.5a8.5 8.5 0 0 1-1.2-2.2 8.8 8.8 0 0 1-.3-1z"/><path d="M169.2 241.3h3.7v-3.6H169a8.5 8.5 0 0 1 0 3.6zm-12.6 2.5l-2.4 1.2a8.5 8.5 0 0 0 3.2 2.5l.6-2.6-1.4-1.1zm4.9 1.8l-.6 2.5a8.6 8.6 0 0 0 4-1l-1.7-2-1.7.5z"/></g><circle cx="160.9" cy="239.8" r="5.9" fill="none" stroke-width="5"/><path d="M145 215l4-1.1-1-3.9-4 1-3-4.4 2.6-3.2-3-2.5-2.7 3.2-2-.8v3.4a11.6 11.6 0 0 1 2.5 1.9 11.7 11.7 0 0 1 0 16.5 11.7 11.7 0 0 1-2.6 2v3.5l.8-.2 2.2 3.5 3.4-2.2-2.3-3.5 3.4-4.2 3.9 1.5 1.4-3.7-3.9-1.5.3-5.4zm3.7 38.4l4-.8-.8-3.9-4 .9-2.7-4.7 2.7-3-2.9-2.8-2.8 3.1-4.9-2.2.5-4.1-2-.2v7.4a11.6 11.6 0 0 1 6.2 3.2 11.7 11.7 0 0 1 0 16.5 11.6 11.6 0 0 1-6.2 3.2v3.2l3.6-.8 2 3.6 3.5-2-2-3.6 3.6-4 3.7 1.7 1.7-3.6-3.8-1.7.6-5.3z" fill="#fff" stroke-width="3"/></g><path d="M222.1 124.5a4.4 4.4 0 0 0 0 6.3l8.3 8.3a4.4 4.4 0 0 0 6.3 0l48.8-48.8a4.4 4.4 0 0 0 0-6.3l-8.3-8.3a4.4 4.4 0 0 0-6.3 0l-48.8 48.8z" fill="none" stroke="#fff" stroke-width="10" stroke-miterlimit="10"/><path d="M172.4 196.7l55.5-55.5c4.5-4.6-2.5-11.6-7.1-7l-55.5 55.4c-4.5 4.6 2.5 11.6 7.1 7z" fill="#fff"/><path d="M165.3 187.5a5.8 5.8 0 0 1 8.2 0l1 1a5.8 5.8 0 0 1 0 8.2L162 209a5.8 5.8 0 0 1-8.2 0l-.9-1a5.8 5.8 0 0 1 0-8.2l12.3-12.3z" fill="#fff"/></svg>