<svg xmlns="http://www.w3.org/2000/svg" width="361" height="361"><path d="M174 210h-28a4 4 0 0 1-5-4v-75a4 4 0 0 1 4-5h69a4 4 0 0 1 4 4v43" fill="none" stroke="#fff" stroke-width="10" stroke-miterlimit="10"/><path d="M179 195h-27c-5 0-5 7 0 7h27c5 0 5-7 0-7zm6-9h-33c-5 0-5 7 0 7h33c4 0 4-7 0-7zm12-10h-45c-4 0-4 7 0 7h45c5 0 5-7 0-7zm9-10h-54c-5 0-5 7 0 7h55c4 0 4-7 0-7zm1-9h-55c-5 0-5 7 0 7h55c4 0 4-7 0-7zm0-10h-55c-5 0-5 7 0 7h55c4 0 4-7 0-7z" fill="#fff"/><path d="M205 122c0 2-2 4-4 4h-43c-2 0-4-2-4-4l4-42c0-3 2-5 4-5h35c2 0 4 2 4 5l4 42z" fill="none" stroke="#fff" stroke-width="10" stroke-miterlimit="10"/><path d="M157 120h46c4 0 4-7 0-7h-46c-5 0-5 7 0 7zm-43 9a45 45 0 0 0 0 63c4 5 11-2 7-7a35 35 0 0 1 0-49c4-5-3-12-7-7z" fill="#fff"/><path d="M103 118a61 61 0 0 0 0 85c4 5 11-2 7-7a51 51 0 0 1 0-71c4-5-3-12-7-7z" fill="#fff"/><path d="M92 107a76 76 0 0 0 0 107c4 4 11-3 7-7a66 66 0 0 1 0-92c4-5-3-12-7-8zm185 120a50 50 0 0 1-35 48 50 50 0 0 1-56-21 50 50 0 0 1 4-59 50 50 0 0 1 58-12 50 50 0 0 1 29 45c0 9 15 9 15 0a66 66 0 0 0-34-57 65 65 0 0 0-66 3 65 65 0 0 0-29 59 65 65 0 0 0 38 53 65 65 0 0 0 62-5 65 65 0 0 0 29-54c0-9-15-9-15 0z" fill="#fff"/><path d="M192 273l81-81c7-6-4-17-11-10l-80 81c-7 7 3 17 10 10z" fill="#fff"/></svg>