<svg xmlns="http://www.w3.org/2000/svg" width="361" height="361"><path d="M114 182c0-3 3-5 6-5h122c3 0 6 2 6 5v99c0 3-3 6-6 6H120c-3 0-6-3-6-6v-99z" fill="none" stroke="#fff" stroke-width="10" stroke-miterlimit="10"/><path d="M116 267h68c6 0 6-10 0-10h-68c-6 0-6 10 0 10zm3-27h65c6 0 6-10 0-10h-65c-6 0-6 10 0 10zm0-27h65c6 0 6-10 0-10h-65c-6 0-6 10 0 10zm47-102l12-12 7-7 2-3h1c-2 1 0 0 0 0l2-1 6-1 13-1h3l-2-1 4 4 31 31 3 4-1-2c0-2 0 0 0 0v4l-1 11a86 86 0 0 1-1 6 45 45 0 0 1 0 3 20 20 0 0 1-1 1v-1l-2 3-8 7-12 12c-6 7 4 18 11 11l12-12c4-4 9-8 12-13 4-6 4-16 5-23 1-6 1-14-3-18l-28-28-11-11c-4-4-13-3-19-2a80 80 0 0 0-18 3c-4 1-6 3-9 6l-19 19c-7 7 4 18 11 11z" fill="#fff"/></svg>