<svg xmlns="http://www.w3.org/2000/svg" width="361" height="361"><path d="M287 249a7 7 0 0 1-7 7H82a7 7 0 0 1-7-7V121a7 7 0 0 1 7-7h198a7 7 0 0 1 7 7v128z" fill="none" stroke="#fff" stroke-width="10" stroke-miterlimit="10"/><path d="M174 190h13c6 0 6-10 0-10h-13c-6 0-6 10 0 10z" fill="#fff"/><path fill="none" stroke="#fff" stroke-width="10" stroke-miterlimit="10" d="M181 115v137m106-133c0 2-3 4-6 4H81c-4 0-6-2-6-4v-9c0-3 2-5 6-5h200c3 0 6 2 6 5v9z"/><path d="M110 183l31-30c1-1-1-3-2-2l-31 30c-1 1 0 3 2 2zm-10 21l58-54c1-1-1-3-2-2l-57 54c-2 2 0 3 1 2zm15 0l34-32c1-1-1-3-2-1l-34 32c-1 1 1 2 2 1zm124-36l17-6-2-1 1 27c0 1 1 2 2 1l7-1-2-2-6 18 2-1-8-2a2 2 0 0 0-2 1l-3 13 2-1-15-7c-4-2-7 0-11 1l2 1-1-3-1-3 1-9v-5l-6-9c-1 0 0 1 0 0v-7l1-5c0-2-1 0 0 0l15-9h-2l8 9c1 2 3-1 2-2l-8-9-2-1-15 10c-2 1-1 3-1 5l-1 10c0 2 3 5 4 6l3 4v-1l-1 3-1 9c-1 2 1 6 2 8l2 1 6-2h1l3 1 13 6c1 1 2 1 3-1l3-12-2 1 8 2 2-1 6-18c1-1-1-2-2-2l-7 2 2 1-1-27-2-2-17 6c-1 1-1 4 1 4z" fill="#fff"/><path d="M221 214l1-3c1-2-1-3-2-1l-2 3c-1 1 2 3 3 1l1-3c1-2-1-3-2-1l-2 3c-1 1 2 3 3 1z" fill="#fff"/><path d="M217 216l3-1c2-1 1-4-1-3l-3 2c-2 1-1 3 1 2zm2-15l-4 1-2 1 2 2 4-1 2-2-2-1zm38-39l4-4c2-1 0-4-2-2l-4 4c-2 1 0 3 2 2z" fill="#fff"/><path d="M260 158l2 1 1-1v-2l-2-1-2 1 1 2zm-19-8l-10 6c-2 1 0 4 1 3l10-6c2-1 0-4-1-3z" fill="#fff"/><path d="M243 152l1-5c1-1-2-2-3 0l-1 4c0 2 2 2 3 1z" fill="#fff"/></svg>