<svg xmlns="http://www.w3.org/2000/svg" width="361" height="361"><path d="M217.7 205.8a4.1 4.1 0 0 1-4.2 4.1h-68a4.1 4.1 0 0 1-4.1-4v-75.4a4.1 4.1 0 0 1 4-4.1h68.1a4.1 4.1 0 0 1 4.1 4v75.4z" fill="none" stroke="#fff" stroke-width="10" stroke-miterlimit="10"/><path d="M206.5 194.8h-54.6c-4.5 0-4.5 7 0 7h54.6c4.5 0 4.5-7 0-7zm0-9.3h-54.6c-4.5 0-4.5 7 0 7h54.6c4.5 0 4.5-7 0-7zm0-10h-54.6c-4.5 0-4.5 7 0 7h54.6c4.5 0 4.5-7 0-7zm0-9.2h-54.6c-4.5 0-4.5 7 0 7h54.6c4.5 0 4.5-7 0-7zm0-9.3h-54.6c-4.5 0-4.5 7 0 7h54.6c4.5 0 4.5-7 0-7zm0-10h-54.6c-4.5 0-4.5 7 0 7h54.6c4.5 0 4.5-7 0-7z" fill="#fff"/><path d="M204.6 122c0 2.4-1.7 4.4-3.8 4.4H158c-2 0-3.7-2-3.7-4.4l3.7-42.4c0-2.4 1.7-4.3 3.8-4.3H197c2.1 0 3.8 1.9 3.8 4.3l3.8 42.4z" fill="none" stroke="#fff" stroke-width="10" stroke-miterlimit="10"/><path d="M156.9 119.6h45.6c4.5 0 4.5-7 0-7h-45.6c-4.5 0-4.5 7 0 7zm-43.2 9.3a45.2 45.2 0 0 0 0 63c4.5 4.7 11.6-2.3 7.1-7a35 35 0 0 1 0-49c4.5-4.6-2.6-11.7-7-7z" fill="#fff"/><path d="M102.7 117.7a61 61 0 0 0 0 85.3c4.5 4.6 11.6-2.5 7.1-7a50.9 50.9 0 0 1 0-71.2c4.5-4.6-2.6-11.7-7-7z" fill="#fff"/><path d="M91.5 107.4a76 76 0 0 0 0 106.3c4.5 4.6 11.6-2.5 7-7.1a65.8 65.8 0 0 1 0-92.1c4.6-4.6-2.5-11.7-7-7.1zm131.9 181l67.7-98c5.5-8-7.5-15.5-13-7.6L210.4 281c-5.5 8 7.5 15.4 13 7.5z" fill="#fff"/><path d="M220.6 278.2L191.3 257c-3.3-2.4-8.4-.5-10.3 2.8-2.1 3.8-.5 7.8 2.8 10.2l29.4 21c3.3 2.5 8.3.6 10.2-2.7 2.2-3.8.6-7.8-2.8-10.2z" fill="#fff"/></svg>