<svg xmlns="http://www.w3.org/2000/svg" width="361" height="361"><path d="M114 182c0-3 3-5 6-5h122c3 0 6 2 6 5v99c0 3-3 6-6 6H120c-3 0-6-3-6-6v-99z" fill="none" stroke="#fff" stroke-width="10" stroke-miterlimit="10"/><path d="M116 267h68c6 0 6-10 0-10h-68c-6 0-6 10 0 10zm3-27h65c6 0 6-10 0-10h-65c-6 0-6 10 0 10zm0-27h65c6 0 6-10 0-10h-65c-6 0-6 10 0 10zm21-41v-31c0-2 0 1 0 0l2-3a92 92 0 0 1 11-14 47 47 0 0 1 2-2c1-2-1 1 0 0h-2 53c-2-1 0 0 0 0l2 2a91 91 0 0 1 8 9 86 86 0 0 1 3 5 45 45 0 0 1 2 4v-1c-1-1 0-1 0 0v31c0 9 15 10 15 0v-17c0-5 1-12-1-17-1-8-8-15-13-21-4-4-8-10-15-10h-54c-7 0-12 7-16 12a80 80 0 0 0-10 15c-2 3-2 7-2 10v28c0 9 15 9 15 0z" fill="#fff"/></svg>