<svg xmlns="http://www.w3.org/2000/svg" width="361" height="361"><path fill="#fff" d="M79 162l84-84 17 17-84 84z"/><path d="M181 125c0 40-25 83-52 83-28 0-53-43-53-83 0-15-1-29 5-40 0 0 30-11 48-11 17 1 48 11 48 11 5 11 4 25 4 40zm94-16a3 3 0 0 1-3 3h-19a3 3 0 0 1-3-3V91a3 3 0 0 1 3-3h19a3 3 0 0 1 3 3v18z" fill="none" stroke="#fff" stroke-width="10" stroke-miterlimit="10"/><path d="M232 78l5 6a5 5 0 0 0 7 0 5 5 0 0 0 0-7l-5-6a5 5 0 0 0-7 0 5 5 0 0 0 0 7zm-24 27h26c7 0 7-10 0-10h-26c-6 0-6 10 0 10zm83 17l-5-4a5 5 0 0 0-7 0 5 5 0 0 0 0 7l5 4a5 5 0 0 0 7 0 5 5 0 0 0 0-7zm-24 18v-12c0-7-10-7-10 0v12c0 6 10 6 10 0zm-40 3l18-18c5-5-2-12-7-7l-19 18c-4 5 3 12 7 7z" fill="#fff"/><path d="M269 255c0 2-2 3-4 3h-13c-2 0-4-1-4-3v-93c0-2 2-4 4-4h13c2 0 4 2 4 3v94z" fill="none" stroke="#fff" stroke-width="10" stroke-miterlimit="10"/><path d="M274 283c0 2-1 4-3 4h-26l-2-4v-21l2-4h26c2 0 3 2 3 4v21z" fill="#fff" stroke="#fff" stroke-width="10" stroke-miterlimit="10"/><path d="M277 170h11c6 0 6-10 0-10h-11c-7 0-7 10 0 10zm0 25h11c6 0 6-10 0-10h-11c-7 0-7 10 0 10zm0 25h11c6 0 6-10 0-10h-11c-7 0-7 10 0 10zm0 26h11c6 0 6-10 0-10h-11c-7 0-7 10 0 10z" fill="#fff"/><path fill="#fff" stroke="#fff" stroke-width="10" stroke-miterlimit="10" d="M248 186h21v82h-21z"/></svg>