<svg xmlns="http://www.w3.org/2000/svg" width="361" height="361"><path d="M219 235.8a4.1 4.1 0 0 1-4.1 4.1h-68.1a4.1 4.1 0 0 1-4.1-4v-75.4a4.1 4.1 0 0 1 4.1-4.1h68a4.1 4.1 0 0 1 4.2 4v75.4z" fill="none" stroke="#fff" stroke-width="10" stroke-miterlimit="10"/><path d="M207.8 224.8h-54.6c-4.5 0-4.5 7 0 7h54.6c4.5 0 4.5-7 0-7zm0-9.3h-54.6c-4.5 0-4.5 7 0 7h54.6c4.5 0 4.5-7 0-7zm0-10h-54.6c-4.5 0-4.5 7 0 7h54.6c4.5 0 4.5-7 0-7zm0-9.2h-54.6c-4.5 0-4.5 7 0 7h54.6c4.5 0 4.5-7 0-7zm0-9.3h-54.6c-4.5 0-4.5 7 0 7h54.6c4.5 0 4.5-7 0-7zm0-10h-54.6c-4.5 0-4.5 7 0 7h54.6c4.5 0 4.5-7 0-7z" fill="#fff"/><path d="M205.9 152c0 2.4-1.7 4.3-3.8 4.3h-42.8c-2 0-3.7-1.9-3.7-4.3l3.7-42.4c0-2.4 1.7-4.4 3.8-4.4h35.3c2 0 3.7 2 3.7 4.4L206 152z" fill="none" stroke="#fff" stroke-width="10" stroke-miterlimit="10"/><path d="M158.2 149.6h45.6c4.5 0 4.5-7 0-7h-45.6c-4.5 0-4.5 7 0 7zm-51.4 70a56.6 56.6 0 0 0 16.1 43.1c4.5 4.6 11.6-2.4 7.1-7a46.7 46.7 0 0 1-13.2-36.1c.4-6.5-9.6-6.4-10 0z" fill="#fff"/><path d="M88.6 219.6a76.8 76.8 0 0 0 22 57.1c4.5 4.7 11.6-2.4 7.1-7a66.8 66.8 0 0 1-19-50.1c.2-6.5-9.8-6.4-10 0z" fill="#fff"/><path d="M70.5 219.6A95.8 95.8 0 0 0 98 290.3c4.5 4.6 11.5-2.4 7-7a85.8 85.8 0 0 1-24.6-63.7c.2-6.5-9.8-6.4-10 0zm126.3-82.7c0 1.3-1.2 2.3-2.6 2.3h-27c-1.3 0-2.5-1-2.5-2.3l1.6-21.3c0-1.3 1.1-2.4 2.5-2.4h23.8c1.4 0 2.6 1 2.6 2.4l1.6 21.3zm59.7 4a56.5 56.5 0 0 0-29-35.7c-5.8-3-10.9 5.7-5.1 8.6a46.7 46.7 0 0 1 24.4 29.7c1.8 6.2 11.4 3.6 9.7-2.7zm-17.2 121.6a57.5 57.5 0 0 0 16.2-35.4c.6-6.4-9.4-6.4-10 0a46.5 46.5 0 0 1-13.2 28.3c-4.5 4.6 2.5 11.7 7 7z" fill="#fff"/><path d="M273.7 134.9a76.7 76.7 0 0 0-39.2-47c-5.7-2.9-10.8 5.8-5 8.6a66.8 66.8 0 0 1 34.6 41c1.8 6.2 11.4 3.6 9.6-2.6zm-22 141.8a77.4 77.4 0 0 0 22-49.6c.4-6.4-9.6-6.4-10 0a66.6 66.6 0 0 1-19.1 42.5c-4.5 4.7 2.5 11.7 7 7.1z" fill="#fff"/><path d="M290.9 129A95.7 95.7 0 0 0 242 71c-5.8-2.9-10.8 5.7-5 8.6a85.8 85.8 0 0 1 44.2 52c1.9 6.2 11.6 3.6 9.7-2.6zm-26.7 160.9a96.3 96.3 0 0 0 27.6-62.8c.4-6.5-9.6-6.4-10 0a85.7 85.7 0 0 1-24.6 55.7c-4.6 4.6 2.5 11.7 7 7zM114.5 143.5a46.7 46.7 0 0 1 24.4-29.7c5.8-2.9.7-11.5-5-8.6a56.5 56.5 0 0 0-29 35.6c-1.8 6.3 7.9 9 9.6 2.7z" fill="#fff"/><path d="M97.3 137.6a66.7 66.7 0 0 1 34.6-41c5.7-3 .7-11.6-5-8.7a76.7 76.7 0 0 0-39.3 47c-1.8 6.2 7.8 8.8 9.7 2.7z" fill="#fff"/><path d="M80.1 131.7c7-23 22.9-41.4 44.3-52.1 5.7-2.9.7-11.5-5-8.6a95.7 95.7 0 0 0-49 58c-1.8 6.2 7.8 8.8 9.7 2.7z" fill="#fff"/></svg>