<svg xmlns="http://www.w3.org/2000/svg" width="361" height="361"><path d="M200 199c0-7 12-4 16-4 7 0 5 9 5 14 0 6 10 6 10 0l-1-14a15 15 0 0 0-14-10h-13c-7 0-13 7-13 14 0 6 10 6 10 0z" fill="#fff"/><path d="M172 241V141l1-16c1-2 4-1 6-1h11c2 0 0 0 0-1v95c0 6 10 6 10 0v-91c0-4 0-10-4-12-6-3-14-1-20-1-10 0-13 7-14 16v111c0 7 10 7 10 0zm59-25v-9c0-1-2 0 0 0h6c3 0 6 0 8 2 3 2 3 4 3 7 0 7 10 7 10 0 0-5-1-10-6-14-4-5-10-5-15-5-6 0-12 0-16 6-2 3-1 9-1 13 0 7 10 7 10 0z" fill="#fff"/><path d="M258 228v-12c0-2-1 0-1 0h10c4 1 3 14 3 17v53c0 7 10 7 10 0v-59c0-10-3-21-15-21-7 0-16-1-17 8v14c0 6 10 6 10 0zm-91 57l-19-30c-2-3-7-9-4-13l7-4c3-2 8-7 11-4 5 4 12-3 8-7-10-9-20-1-28 5-8 5-11 13-6 22l22 36c3 5 12 0 9-5zm28-120c7 0 14 1 20-1a21 21 0 0 0 14-20V91c0-12-10-20-21-21h-36c-11 0-25-2-33 7s-5 24-5 35v33c0 10 7 18 16 20h17c6 0 6-10 0-10s-15 2-19-2c-5-4-4-10-4-15V95c0-7 1-13 9-15h54c4 0 8 1 10 5 2 3 2 6 2 9v51c0 12-15 10-24 10-6 0-6 10 0 10z" fill="#fff"/><path d="M196 139c5-2 6-7 6-12v-19c0-5-1-10-7-11h-28c-6 1-7 6-7 11v19c0 5 1 9 6 11 2 1 3-2 1-2-5-2-4-8-4-12v-15c0-4 0-9 6-9h24c6 0 6 4 6 9v14c0 4 1 11-4 13-2 0-1 3 1 2z" fill="#fff"/></svg>