<svg xmlns="http://www.w3.org/2000/svg" width="361" height="361"><path d="M244 135a6 6 0 0 1 6 6v72l2 17 3 17 6 16 7 17v4a6 6 0 0 1-5 3c-1 0-3-1-3-3l-5-10-5-13-4-11a5 5 0 0 1 0-2l-3-18-1-8a3 3 0 0 0-3-3h-3a3 3 0 0 0-3 3l-4 37-3 26c0 4-4 4-5 4l-4-1a4 4 0 0 1-1-4l5-38 4-32v-32a3 3 0 0 0-4-3l-29 9a3 3 0 0 1-1 0l-2-3c-1-1 0-2 1-2l21-7 7-2a3 3 0 0 0 2-2l3-11a3 3 0 0 0 0-2l-6-7-10-13v-2a3 3 0 0 1 2-2l2 1 4 5 4 5a3 3 0 0 0 4 1 3 3 0 0 0 2-3v-3a6 6 0 0 1 2-4 6 6 0 0 1 4-2h13m0-3h-13a9 9 0 0 0-9 9v4l-9-11a5 5 0 0 0-4-2c-4 0-8 5-4 9l15 19-3 11-28 9c-6 2-4 11 2 11h2l29-9v31l-8 71c-1 5 3 8 7 8s7-2 8-6l7-64h3l4 26a8 8 0 0 0 0 3l14 34a7 7 0 0 0 7 5c5 0 10-5 7-11l-13-33-5-34v-71a9 9 0 0 0-9-9z" fill="#fff"/><path d="M75 281c0 3 3 6 6 6h93a6 6 0 0 0 6-6V81a6 6 0 0 0-6-7H81a6 6 0 0 0-6 7v200z" fill="none" stroke="#fff" stroke-width="10" stroke-miterlimit="10"/><path d="M178 176h-10c-6 0-6 10 0 10h10c7 0 7-10 0-10z" fill="#fff"/><path d="M77 280a6 6 0 0 1 6-6h91a6 6 0 0 1 6 6v1a6 6 0 0 1-6 6H83a6 6 0 0 1-6-6v-1z" fill="none" stroke="#fff" stroke-width="10" stroke-miterlimit="10"/><path d="M218 125c-2-1-9-5-12-2-5 4-1 10-3 15l-8 19-12 30-7 14c-1 2 2 3 3 2l6-12 10-27a44012 44012 0 0 1 10-22l2-6c0-3-2-11 1-11 3-1 7 2 10 3 1 1 2-2 0-3zm-1-10c1 10 10 15 20 14a18 18 0 0 0 15-20v-1l-35 7zm31-15a16 16 0 0 0-16-6c-7 1-11 3-13 9l29-3zm-22 9l-1 2h-4l-1-1 1-2 4-1 1 2z" fill="#fff"/></svg>