<svg xmlns="http://www.w3.org/2000/svg" width="361" height="361"><g fill-rule="evenodd" clip-rule="evenodd" fill="#fff"><path d="M135.6 77.9v57.5H78.1V78h57.5zM86.3 86v41.1h41v-41h-41zm82.2-8.2h8.2V86h-8.2v-8.2zm16.4 0h24.7v16.4h-8.2V86h-16.5v-8.2zm98.7 0v57.5H226V78h57.6zM234.3 86v41.1h41v-41h-41z"/><path d="M94.5 94.3h24.7V119H94.5V94.3zm90.4 0h8.3v8.3h-8.3v-8.3zm57.6 0h24.7V119h-24.7V94.3zm8.2 49.4h8.3v8.2h-8.3v-8.2zm-8.2 41h8.2v8.3h-8.2v-8.2zM78.1 209.6h16.4v8.2H78.1v-8.2zm57.5 16.4v57.6H78.1V226h57.5zm-49.3 8.2v41.1h41v-41h-41zm82.2-8.2h8.2v8.2h-8.2V226zm57.5 0h8.3v8.2H226V226z"/><path d="M94.5 242.3h24.7V267H94.5v-24.7zm180.9 33h8.2v8.2h-8.2v-8.3zM184.9 119h-31.8c-2.4 6.2-.4 16.8-1 24.7h-8.3V119h8.2v-7.2c-.7-2.3-5.7-.4-8.2-1v-8.2h8.2V77.9h8.3v15.4c3.4 2.4 11.3.4 16.4 1v15.4c.8 2.4 5.8.4 8.2 1v8.3h16.5v-16.4h8.2v8.2h8.2v40c.5 2.4 5.1.5 7.2 1 2.3-.7.4-5.7 1-8.1h16.5V159c3.4 2.4 11.3.3 16.4 1v16.5h-24.6v31.8c3 2.4 10.6.4 15.4 1 2.3-.7.4-5.7 1-8.2h8.2v16.5h-8.2V233c.8 2.3 5.8.4 8.2 1v15.4c.5 2.3 5.1.4 7.2 1 2.4-.7.4-5.7 1-8.2h16.5v8.3h-8.2v7.2c.7 2.3 5.7.3 8.2 1v8.2H259v16.4h-8.2v-24.6h8.2v-8.3h-33v23.7c.8 2.3 5.8.4 8.3 1v8.2H226v-8.2h-7.2c-2.3.8-.4 5.8-1 8.2h-8.2V267h8.2v-16.4h-16.4V267H186c-2.3.4-.4 5-1 7.2.7 2.3 5.7.4 8.2 1v8.2H185v-7.2c-.8-2.3-5.8-.4-8.3-1V267h8.3v-8.2h8.2v-8.3h8.2v-8.2h-23.6c-2.4.8-.4 5.8-1 8.2h-7.3c-2.3.8-.4 5.8-1 8.3h-8.2v-16.5h15.4c2.3-.7.4-5.7 1-8.2h8.3V226h16.4v8.2h8.2V227c-.7-2.3-5.7-.4-8.2-1v-8.2h-16.5v-8.3h23.7c2.3-.7.4-5.7 1-8.2h8.2V194c-.4-2.3-5-.4-7.2-1-2.3.8-.4 5.8-1 8.2h-8.2V193h-31.9c-2.3.8-.4 5.8-1 8.2h-8.2v7.2c.4 2.3 5 .4 7.2 1 2.3-.7.4-5.7 1-8.2h8.2v16.5h-7.2c-2.3.7-.4 5.7-1 8.2h-8.2v16.4H152V227c-.8-2.3-5.8-.4-8.3-1v-15.4c-.4-2.3-5-.5-7.2-1-2.3.7-.4 5.7-1 8.2h-8.2v-8.3h8.2v-8.2H112c-2.3.5-.4 5-1 7.2.7 2.3 5.7.4 8.2 1v8.3H111v-8.3h-8.3V193h15.4c2.4-.8.4-5.8 1-8.2h7.3c2.3-.8.4-5.8 1-8.3h8.2v8.3h-8.2v8.2h7.2c2.3-.8.4-5.8 1-8.2h7.2c2.3-.8.4-5.8 1-8.3h8.3v8.3h-8.3v16.4h15.5c2.3-.4.4-5 1-7.2-.8-2.3-5.8-.4-8.2-1v-8.2h8.2v-8.3h8.2v-16.4h32.9v-24.7h8.2V120c-.7-2.3-5.7-.4-8.2-1v16.4h-8.2V152H185v-16.5h8.2v-8.2H186c-2.3.8-.4 5.8-1 8.2h-8.3V152h-16.4v-8.2h8.2v-7.2c-.8-2.3-5.8-.4-8.2-1v-8.3h8.2v8.2h7.2c2.3-.7.4-5.7 1-8.2h8.3V119zm-8.2 57.6v8.2h8.2c.7-2.5-1.3-7.5 1-8.2h7.3v-8.3h-8.3v8.3h-8.2zm24.7 8.2h8.2v-8.3h-8.2v8.3zm16.4 0h8.2v-8.3h-8.2v8.3zm0 57.5h24.7v-24.6h-24.7v24.6z"/><path d="M168.5 258.8h8.2v8.2h-7.2c-2.3.8-.4 5.8-1 8.2h-8.2v8.3H152v-8.3h-8.3v-16.4h8.3v8.2h15.4c2.3-.8.4-5.8 1-8.2zm-74-74v-8.2h-7.2c-2.3.7-.4 5.7-1 8.2H78v-16.5h8.2v-7.2c-.8-2.3-5.8-.4-8.2-1V152h8.2v-8.2h16.4v7.2c.8 2.3 5.8.4 8.2 1v8.2H95.5c-2.3.4-.4 5-1 7.2.8 2.3 5.8.4 8.2 1v16.5h-8.2v16.4H78.1V193h7.2c2.3-.8.4-5.8 1-8.2h8.2zm41.1-33h-8.2v7.3c.4 2.3 5 .4 7.2 1 2.3-.8.4-5.8 1-8.2h16.5v7.2c.7 2.3 5.7.4 8.2 1v8.2H152v-8.2h-7c-2.4.8-.4 5.8-1 8.2h-24.7V152h7.2c2.3-.8.4-5.8 1-8.2h8.2v8.2zm139.8 16.5v-7.2c-.8-2.3-5.8-.4-8.2-1V152h16.4v16.4h-8.2v7.2c.8 2.3 5.7.4 8.2 1v41.2h-8.2v7.2c.8 2.3 5.7.4 8.2 1v8.2h-8.2V227c-.8-2.3-5.8-.4-8.2-1v-8.2h8.2v-40.1c-.8-2.3-5.8-.4-8.2-1v-8.3h8.2z"/></g></svg>