<svg xmlns="http://www.w3.org/2000/svg" width="361" height="361"><path d="M255 74v32c0 5 7 5 7 0V74c0-5-7-5-7 0z" fill="#fff"/><path d="M247 80l10 5c3 3 7-3 3-6l-9-5c-4-2-8 4-4 6z" fill="#fff"/><path d="M266 74l-10 5c-3 3 0 9 4 6l9-5c4-2 1-8-3-6zm-37 19l28 16c3 2 7-4 3-6l-28-17c-4-2-7 4-3 7z" fill="#fff"/><path d="M230 102l10-5c4-2 0-9-4-6l-9 5c-4 2-1 9 3 6z" fill="#fff"/><path d="M234 83v11c0 4 7 4 7 0V83c0-4-7-4-7 0zm-2 42l28-16c4-3 0-9-3-6l-28 16c-4 2-1 8 3 6z" fill="#fff"/><path d="M241 128v-11c0-4-7-4-7 0v11c0 5 7 5 7 0z" fill="#fff"/><path d="M227 115l9 6c4 2 8-4 4-6l-10-6c-4-2-7 4-3 6zm35 23v-32c0-5-7-5-7 0v32c0 4 7 4 7 0z" fill="#fff"/><path d="M269 132l-9-6c-4-2-7 4-3 6l9 6c4 2 7-4 3-6z" fill="#fff"/><path d="M251 138l9-6c4-2 1-8-3-6l-10 6c-4 2 0 8 4 6zm37-19l-28-16c-4-3-7 4-3 6l28 16c3 2 7-4 3-6z" fill="#fff"/><path d="M286 109l-9 6c-4 2 0 8 4 6l9-6c4-2 0-8-4-6z" fill="#fff"/><path d="M282 128v-10c0-5-7-5-7 0v10c0 5 7 5 7 0z" fill="#fff"/><g fill="#fff"><path d="M285 87l-28 16c-4 2-1 8 3 6l28-16c4-2 0-9-3-6z"/><path d="M275 83v11c0 5 7 5 7 0V83c0-4-7-4-7 0z"/><path d="M290 96l-10-5c-3-2-7 4-3 6l9 5c4 3 8-3 4-6z"/></g><path fill="#fff" d="M78 163l85-85 18 17-85 85z"/><path d="M181 125c0 40-26 83-53 83s-53-43-53-83c0-15-1-29 5-40 0 0 31-11 48-11s48 11 48 11c5 11 5 25 5 40zm88 130c0 2-2 3-4 3h-13c-2 0-4-1-4-3v-93c0-2 2-4 4-4h13c2 0 4 2 4 4v93z" fill="none" stroke="#fff" stroke-width="10" stroke-miterlimit="10"/><path d="M274 283c0 2-1 4-3 4h-26l-2-4v-21l2-4h26c2 0 3 2 3 4v21z" fill="#fff" stroke="#fff" stroke-width="10" stroke-miterlimit="10"/><path d="M277 170h11c6 0 6-10 0-10h-11c-7 0-7 10 0 10zm0 25h11c6 0 6-10 0-10h-11c-7 0-7 10 0 10zm0 25h11c6 0 6-10 0-10h-11c-7 0-7 10 0 10zm0 26h11c6 0 6-10 0-10h-11c-7 0-7 10 0 10z" fill="#fff"/><path fill="#fff" stroke="#fff" stroke-width="10" stroke-miterlimit="10" d="M248 235h21v33h-21z"/></svg>