<svg xmlns="http://www.w3.org/2000/svg" width="361" height="361"><path d="M200.1 198.7c0-6.5 12-4 15.9-4 6.5 0 4.5 9.4 4.5 14 0 6.5 10 6.5 10 0 0-4.2.7-9.3-.3-13.4a14.6 14.6 0 0 0-14-10.7h-13c-7 0-13 7.4-13 14.1 0 6.5 10 6.5 10 0z" fill="#fff"/><path d="M171.8 241.3V141c0-5.2-.3-10.7 1.2-15.8.7-2.4 3.9-1.5 6-1.5h10.5c2.3 0 .6.3.6-1v95c0 6.5 10 6.5 10 0v-91c0-4 .3-9.3-4-11.6-5.8-2.9-14-1.4-20.1-1.4-10 0-13 7.6-14 16.5-.7 7.3-.2 15-.2 22.4v88.8c0 6.5 10 6.5 10 0zm58.7-25v-9c0-1.4-1.8 0 .2 0h6c3 0 6.4-.7 8.7 1.5 2.7 2.4 2.4 4.3 2.4 7.6 0 6.4 10 6.4 10 0 0-5.9-1.2-10.2-5.3-14.7-4.3-4.7-10.1-4.4-15.9-4.4-5.7 0-12-.8-15.2 5.2-2 3.8-1 9.8-1 13.9 0 6.4 10 6.4 10 0z" fill="#fff"/><path d="M257.8 227.8v-12.1c0-1.5-1.2.2-.5.2h3.9c2 0 4.2-.3 6.1.1 4 .9 2.8 14 2.8 17.3v53c0 6.5 10 6.5 10 0v-59.2c0-10.4-3-21.2-15.2-21.2-6.6 0-15.5-1-17 7.7-.7 4.5-.1 9.5-.1 14.2 0 6.4 10 6.4 10 0zm-91.2 56.9l-18.3-30c-2-3-7.2-8.6-4.3-12.3 1.6-2 4.5-3.3 6.6-4.6 3.1-2.1 8.5-7 11.9-3.8 4.6 4.5 11.7-2.6 7-7-9.1-8.8-19.4-1-28 4.8-8 5.3-10.9 13.4-5.7 21.8l22.2 36c3.4 5.6 12 .5 8.7-5zm28.5-119.5c6.5 0 13.6.8 19.8-1.2a20.6 20.6 0 0 0 13.7-20V90.5c0-11.4-9.3-19.8-20.3-20.3-12-.5-24 0-36 0-11.3 0-25.1-2.3-33.6 7-7.7 8.3-5 24.1-5 34.6v33c0 9.7 6.8 17.8 16.1 20 5.4 1.2 11.6.4 17 .4 6.4 0 6.4-10 0-10-5.7 0-14.4 1.5-19.2-2.2-4.8-3.7-4-9.6-4-14.8V94.7c0-6.7 1.2-12.7 8.9-14.4 3.9-.9 8.8 0 12.7 0h41.6c4.3 0 8 1.2 10.4 5 1.7 2.7 1.4 5.9 1.4 8.9v50.6c0 12.6-15 10.3-23.5 10.3-6.4 0-6.4 10 0 10z" fill="#fff"/><path d="M195.5 138.5c5.9-2 6.6-6.5 6.6-11.9V108c0-5.2-1.2-9.6-6.8-11.2-4.3-1.2-9.9-.2-14.2-.2-4.3 0-10-1-14.2.2-5.7 1.6-6.8 6-6.8 11.2v18.6c0 5.3.6 9.7 6.3 11.8 1.8.7 2.6-2.2.8-2.9-5.2-1.9-4.1-7.7-4.1-12v-14.8c0-4.1.2-9 6-9h23.7c5.9 0 6.3 4.6 6.3 9v13.8c0 4.6 1.3 11.2-4.4 13.1-1.8.6-1 3.5.8 2.9z" fill="#fff"/></svg>