<svg xmlns="http://www.w3.org/2000/svg" width="361" height="361"><path d="M286.5 248.7a7 7 0 0 1-7 7.1h-198a7 7 0 0 1-7-7V121.3a7 7 0 0 1 7-7.1h198a7 7 0 0 1 7 7v127.5z" fill="none" stroke="#fff" stroke-width="10" stroke-miterlimit="10"/><path d="M174.2 190h12.6c6.4 0 6.4-10 0-10h-12.6c-6.5 0-6.5 10 0 10z" fill="#fff"/><path fill="none" stroke="#fff" stroke-width="10" stroke-miterlimit="10" d="M180.5 115v137.2m106-133.6c0 2.5-2.7 4.5-6 4.5h-200c-3.3 0-6-2-6-4.4v-9c0-2.5 2.7-4.5 6-4.5h200c3.3 0 6 2 6 4.4v9z"/><path d="M109.7 182.6l31-29.4c1.3-1.2-.6-3-1.8-1.9l-31 29.4c-1.2 1.2.6 3 1.8 1.9zm-9.3 21.7l57.4-54.5c1.2-1.1-.6-3-1.8-1.8l-57.4 54.5c-1.2 1.1.6 3 1.8 1.8zm14.9 0l33.6-31.8c1.2-1.2-.6-3-1.9-1.9l-33.6 32c-1.2 1 .7 2.9 1.9 1.7zm123.9-35.9l17-6.3-1.9-1.4.7 27.4c0 1 1 1.6 2 1.4l7.2-1.7-1.8-1.8-6.7 17.8 1.9-1-7.7-2.1a1.5 1.5 0 0 0-1.8 1l-3.4 13 2.2-1-15-6.7c-3.8-1.7-6.8 0-10.8 1.3l1.9 1-1.2-3.8c-.2-.7-1-4.1-1.2-3l1.8-9c.4-1.7 1-3-.1-4.6l-6.3-8.7c-.5-.7 0 1 0 .1l.1-1.6.4-5.4.4-5c.2-2.3-1 .1-.1-.3l15.1-9-1.8-.2 7.7 9.3c1.2 1.5 3.3-.7 2-2.2l-7.6-9.2c-.4-.5-1.2-.6-1.8-.3l-15.4 9.1c-1.5 1-1.1 3.5-1.2 5l-.8 10c-.1 2 3.3 5.2 4.3 6.6l2.7 3.7c.6.8.2-1.4 0-.5l-.5 2.4-1.8 9c-.4 2.4 1.7 6.2 2.4 8.4.2.8 1 1.3 1.8 1l6.6-2c1.9-.5-.6-.7.5-.2l2.8 1.3 13.6 6.1c.9.4 2 .2 2.2-.9l3.4-12.9-1.9 1 7.7 2.1c.8.2 1.5-.3 1.8-1l6.7-17.8c.4-1.2-.8-2-1.9-1.9l-7.3 1.7 2 1.5-.8-27.4c0-1-1-1.8-1.9-1.5l-17 6.3c-1.8.7-1 3.6.8 3z" fill="#fff"/><path d="M220.9 214l1.5-2.8c1-1.7-1.6-3.3-2.6-1.6l-1.5 3c-1 1.6 1.6 3.1 2.6 1.4l1.5-2.8c1-1.7-1.6-3.3-2.6-1.6l-1.5 3c-1 1.6 1.6 3.1 2.6 1.4z" fill="#fff"/><path d="M217 216.3l3.3-1.7c1.7-1 .2-3.5-1.5-2.6l-3.3 1.8c-1.7.9-.2 3.5 1.5 2.5zm2.3-15.4l-4.8.6c-.8 0-1.5.6-1.5 1.5 0 .8.7 1.6 1.5 1.5l4.8-.6c.8 0 1.5-.6 1.5-1.5 0-.7-.7-1.5-1.5-1.5zm37.6-39.2l4.4-3.8c1.4-1.3-.7-3.5-2.2-2.2l-4.3 4c-1.5 1.2.6 3.3 2 2z" fill="#fff"/><path d="M259.8 158.2l1.9.5c.8.1 1.6-.3 1.8-1.1.2-.8-.2-1.7-1-1.8l-1.9-.5c-.8-.1-1.6.3-1.8 1-.2.8.2 1.8 1 2zm-19.3-8.2l-9.8 6.2c-1.6 1-.1 3.6 1.5 2.5l9.8-6.1c1.7-1 .2-3.6-1.5-2.6z" fill="#fff"/><path d="M243 151.7l1.2-4.2c.5-1.9-2.4-2.7-3-.8l-1.2 4.2c-.5 1.8 2.4 2.6 3 .8z" fill="#fff"/></svg>