<svg xmlns="http://www.w3.org/2000/svg" width="361" height="361"><path d="M254.8 73.8V106c0 4.5 7 4.5 7 0V73.7c0-4.5-7-4.5-7 0z" fill="#fff"/><path d="M247.2 80l9.4 5.4c3.9 2.3 7.4-3.7 3.5-6l-9.4-5.4c-3.9-2.3-7.4 3.8-3.5 6z" fill="#fff"/><path d="M265.8 74l-9.4 5.4c-3.9 2.2-.3 8.3 3.6 6l9.4-5.4c3.9-2.2.3-8.3-3.6-6zm-37.2 18.5l27.9 16.1c3.9 2.3 7.4-3.8 3.5-6l-28-16.1c-3.8-2.3-7.4 3.7-3.4 6z" fill="#fff"/><path d="M230.2 102.2l9.4-5.4c4-2.2.4-8.3-3.5-6l-9.4 5.4c-4 2.2-.4 8.3 3.5 6z" fill="#fff"/><path d="M234.3 83v11c0 4.4 7 4.4 7 0V83c0-4.4-7-4.4-7 0zm-2.1 41.7l27.9-16.1c3.9-2.3.3-8.3-3.6-6l-27.9 16c-3.9 2.3-.3 8.3 3.6 6z" fill="#fff"/><path d="M241.4 128.2v-10.9c0-4.5-7-4.5-7 0v10.9c0 4.5 7 4.5 7 0z" fill="#fff"/><path d="M226.8 115l9.4 5.5c4 2.2 7.4-3.8 3.5-6l-9.4-5.5c-3.9-2.3-7.4 3.8-3.5 6zm35 22.9v-32.2c0-4.5-7-4.5-7 0v32.2c0 4.5 7 4.5 7 0z" fill="#fff"/><path d="M269.4 131.6l-9.4-5.4c-3.9-2.3-7.4 3.8-3.5 6l9.4 5.5c4 2.2 7.4-3.8 3.5-6z" fill="#fff"/><path d="M250.8 137.7l9.4-5.5c3.9-2.2.4-8.3-3.5-6l-9.4 5.4c-4 2.3-.4 8.3 3.5 6zm37.3-18.8l-28-16.1c-3.9-2.3-7.4 3.8-3.5 6l28 16.1c3.8 2.3 7.4-3.8 3.5-6z" fill="#fff"/><path d="M286.4 109.2l-9.4 5.4c-3.9 2.2-.4 8.3 3.5 6l9.4-5.4c4-2.3.4-8.3-3.5-6z" fill="#fff"/><path d="M282.4 128.3v-10.8c0-4.5-7-4.5-7 0v10.8c0 4.5 7 4.5 7 0z" fill="#fff"/><g fill="#fff"><path d="M284.5 86.7l-28 16.1c-3.8 2.3-.3 8.3 3.6 6l27.9-16c3.9-2.3.4-8.4-3.5-6.1z"/><path d="M275.2 83.2v10.9c0 4.5 7 4.5 7 0V83.2c0-4.5-7-4.5-7 0z"/><path d="M289.8 96.3l-9.4-5.4c-3.9-2.2-7.4 3.8-3.5 6l9.4 5.5c3.9 2.2 7.4-3.8 3.5-6z"/></g><path fill="#fff" d="M78.3 163.3l85-85.1 17.2 17.1-85 85.1z"/><path d="M181 124.8c0 40.5-25.7 83.5-53.1 83.5s-53.1-43-53.1-83.5c0-14.7-.4-28.5 4.7-40 0 0 31-10.4 48.4-10.4s48.3 10.3 48.3 10.3c5.2 11.5 4.8 25.3 4.8 40.1zM268.7 255c0 1.9-1.7 3.4-3.7 3.4h-13.4c-2 0-3.6-1.5-3.6-3.4v-93.4c0-1.8 1.6-3.4 3.6-3.4H265c2 0 3.6 1.6 3.6 3.4V255z" fill="none" stroke="#fff" stroke-width="10" stroke-miterlimit="10"/><path d="M274.1 283c0 2-1.3 3.7-2.8 3.7h-26c-1.5 0-2.8-1.7-2.8-3.7v-21c0-2 1.3-3.7 2.9-3.7h25.9c1.5 0 2.8 1.6 2.8 3.6V283z" fill="#fff" stroke="#fff" stroke-width="10" stroke-miterlimit="10"/><path d="M276.6 170.4h10.9c6.5 0 6.5-10 0-10h-11c-6.4 0-6.4 10 0 10zm0 24.4h10.9c6.5 0 6.5-10 0-10h-11c-6.4 0-6.4 10 0 10zm0 25h10.9c6.5 0 6.5-10 0-10h-11c-6.4 0-6.4 10 0 10zm0 26h10.9c6.5 0 6.5-10 0-10h-11c-6.4 0-6.4 10 0 10z" fill="#fff"/><path fill="#fff" stroke="#fff" stroke-width="10" stroke-miterlimit="10" d="M248 234.7h20.6v33.1H248z"/></svg>