<svg xmlns="http://www.w3.org/2000/svg" width="361" height="361"><path d="M174.3 210h-28.8a4.1 4.1 0 0 1-4.1-4.2v-75.3a4.1 4.1 0 0 1 4-4.2h68.1a4.1 4.1 0 0 1 4.1 4.2v42.7" fill="none" stroke="#fff" stroke-width="10" stroke-miterlimit="10"/><path d="M179.2 194.8h-27.3c-4.5 0-4.5 7 0 7h27.3c4.5 0 4.5-7 0-7zm5.4-9.3h-32.7c-4.5 0-4.5 7 0 7h32.7c4.5 0 4.5-7 0-7zm12.5-10H152c-4.5 0-4.5 7 0 7h45.3c4.5 0 4.5-7 0-7zm9.4-9.2h-54.6c-4.5 0-4.5 7 0 7h54.6c4.5 0 4.5-7 0-7zm0-9.3h-54.6c-4.5 0-4.5 7 0 7h54.6c4.5 0 4.5-7 0-7zm0-10h-54.6c-4.5 0-4.5 7 0 7h54.6c4.5 0 4.5-7 0-7z" fill="#fff"/><path d="M204.6 122c0 2.4-1.7 4.4-3.8 4.4H158c-2 0-3.7-2-3.7-4.4l3.7-42.4c0-2.4 1.7-4.3 3.8-4.3H197c2.1 0 3.8 1.9 3.8 4.3l3.8 42.4z" fill="none" stroke="#fff" stroke-width="10" stroke-miterlimit="10"/><path d="M156.9 119.6h45.6c4.5 0 4.5-7 0-7h-45.6c-4.5 0-4.5 7 0 7zm-43.2 9.3a45.2 45.2 0 0 0 0 63c4.5 4.7 11.6-2.3 7.1-7a35 35 0 0 1 0-49c4.5-4.6-2.6-11.7-7-7z" fill="#fff"/><path d="M102.7 117.7a61 61 0 0 0 0 85.3c4.5 4.6 11.6-2.5 7.1-7a50.9 50.9 0 0 1 0-71.2c4.5-4.6-2.6-11.7-7-7z" fill="#fff"/><path d="M91.5 107.4a76 76 0 0 0 0 106.3c4.5 4.6 11.6-2.5 7-7.1a65.8 65.8 0 0 1 0-92.1c4.6-4.6-2.5-11.7-7-7.1zm185.4 120a50.2 50.2 0 0 1-35.3 47.6 50 50 0 0 1-56-20.6 50 50 0 0 1 4.4-59.6 50 50 0 0 1 58.5-12.1 50.1 50.1 0 0 1 28.4 44.8c0 9.7 15 9.8 15 .1a65.7 65.7 0 0 0-33.6-56.7 65 65 0 0 0-66.6 2.8A65 65 0 0 0 163 233a65 65 0 0 0 38 53.4 65.2 65.2 0 0 0 61.9-5 65.3 65.3 0 0 0 29-53.9c0-9.7-15-9.8-15-.1z" fill="#fff"/><path d="M192.2 273.2l80.8-80.7c6.8-6.9-3.8-17.5-10.7-10.6l-80.7 80.7c-6.9 6.9 3.8 17.4 10.6 10.6z" fill="#fff"/></svg>