<svg xmlns="http://www.w3.org/2000/svg" width="361" height="361"><path d="M275.5 280.6a5.8 5.8 0 0 1-5.8 5.7h-95.5a5.8 5.8 0 0 1-5.8-5.7V174.8a5.8 5.8 0 0 1 5.8-5.8h95.5a5.8 5.8 0 0 1 5.8 5.8v105.8z" fill="none" stroke="#fff" stroke-width="10" stroke-miterlimit="10"/><path d="M259.8 266.5h-76.6c-4.6 0-4.6 7 0 7h76.6c4.5 0 4.5-7 0-7zm0-13h-76.6c-4.6 0-4.6 7 0 7h76.6c4.5 0 4.5-7 0-7zm0-14h-76.6c-4.6 0-4.6 7 0 7h76.6c4.5 0 4.5-7 0-7zm0-13h-76.6c-4.6 0-4.6 7 0 7h76.6c4.5 0 4.5-7 0-7zm0-13h-76.6c-4.6 0-4.6 7 0 7h76.6c4.5 0 4.5-7 0-7zm0-14h-76.6c-4.6 0-4.6 7 0 7h76.6c4.5 0 4.5-7 0-7z" fill="#fff"/><path d="M257.2 162.9c0 3.4-2.4 6.1-5.3 6.1h-60.1c-3 0-5.3-2.7-5.3-6.1l5.3-59.6c0-3.3 2.4-6 5.3-6h49.5c2.9 0 5.3 2.7 5.3 6l5.3 59.6zm-67-8.2h64" fill="none" stroke="#fff" stroke-width="10" stroke-miterlimit="10"/><path d="M131 174a61.4 61.4 0 0 0 0 85.7c4.5 4.7 11.6-2.4 7.1-7a51.2 51.2 0 0 1 0-71.6c4.5-4.7-2.6-11.7-7-7.1z" fill="#fff"/><path d="M115.6 158.3a83.6 83.6 0 0 0 0 116.9c4.5 4.6 11.6-2.5 7-7a73.4 73.4 0 0 1 0-102.8c4.6-4.6-2.5-11.7-7-7z" fill="#fff"/><path d="M99.8 143.8A105 105 0 0 0 69.5 217a104 104 0 0 0 30.3 73.2c4.6 4.6 11.6-2.5 7-7.1a94.4 94.4 0 0 1 0-132.2c4.6-4.6-2.5-11.7-7-7.1z" fill="#fff"/></svg>