<svg xmlns="http://www.w3.org/2000/svg" width="361" height="361"><path fill="#fff" d="M76 157l-1-81 107 81z"/><path d="M81 157l-1-81-7 4 107 81 2-9H76c-7 0-7 10 0 10h106c6 0 6-7 3-10L78 71c-3-2-8 1-8 5l1 81c0 6 10 6 10 0z" fill="#fff"/><path d="M163 282c0 3-4 6-10 6H86c-6 0-11-3-11-6V159c0-3 5-5 11-5h67c6 0 10 2 10 5v123z" fill="none" stroke="#fff" stroke-width="10" stroke-miterlimit="10"/><path d="M128 281c0 3-2 6-6 6H99c-3 0-6-3-6-6v-68c0-3 3-5 6-5h24c3 0 6 2 6 5v68z" fill="none" stroke="#fff" stroke-width="10" stroke-miterlimit="10"/><g fill="#fff"><circle cx="234" cy="194" r="10"/><path d="M234 204a10 10 0 0 1 0-20 10 10 0 0 1 0 20zm0-19a9 9 0 0 0 0 18 9 9 0 0 0 0-18zm-10 63v39c0 6 8 6 8 0v-39c0-5-8-5-8 0zm12 0v39c0 6 8 6 8 0v-39c0-5-8-5-8 0z"/><path d="M244 249a5 5 0 0 1-5 5h-11a5 5 0 0 1-4-5v-38a5 5 0 0 1 4-5h11a5 5 0 0 1 5 5v38zm1-38v17c0 4 6 4 6 0v-17c0-3-6-3-6 0z"/><path d="M245 228v17c0 3 6 3 6 0v-17c0-4-6-4-6 0zm-28-17v17c0 4 5 4 5 0v-17c1-3-5-3-5 0z"/><path d="M217 228v17c0 3 5 3 5 0v-17c1-4-5-4-5 0z"/></g></svg>