<svg xmlns="http://www.w3.org/2000/svg" width="361" height="361"><path fill="#fff" d="M180.7 155.6l-.2-81 106.8 81z"/><path d="M185.7 155.6l-.2-81-7.5 4.3 106.7 81 2.6-9.3H180.7c-6.4 0-6.4 10 0 10h106.6c5.4 0 6.3-6.5 2.5-9.3L183 70.3c-3.1-2.4-7.5.8-7.5 4.3l.2 81c0 6.4 10 6.4 10 0z" fill="#fff"/><path fill="#fff" d="M180.3 155.6l.2-81-106.8 81z"/><path d="M185.3 155.6l.2-81c0-3.5-4.4-6.7-7.5-4.3l-106.8 81c-3.8 2.8-3 9.3 2.5 9.3h106.5c6.5 0 6.5-10 0-10H73.8l2.5 9.3 106.8-81-7.5-4.3-.2 81c0 6.4 10 6.4 10 0z" fill="#fff"/><path d="M268.5 279c0 4-4 7-8.8 7H102c-4.8 0-8.7-3-8.7-7V149.6c0-4 175.3-4 175.3 0V279z" fill="none" stroke="#fff" stroke-width="10" stroke-miterlimit="10"/><path d="M148.8 207.4c-.5 7-12.4 4.8-17 4.8h-17.3c-7 0-4.8-12.8-4.8-17v-17.3c0-7 12.9-4.8 17.1-4.8H144c7 0 4.8 12.9 4.8 17.1v17.2c0 4.5 7 4.5 7 0v-17.2c0-5.8 1-12.4-1.4-17.9-2.9-6.9-11-6.2-17.2-6.2H116c-7.2 0-13.3 4.5-13.3 12.2V198c0 6.3-1 12.6 3.5 17.8 4 4.7 12.2 3.4 17.8 3.4 10.9 0 30.6 3.9 31.8-11.8.4-4.5-6.6-4.5-7 0z" fill="#fff"/><path d="M116.2 197.7h26.2c6.4 0 6.4-10 0-10h-26.2c-6.5 0-6.5 10 0 10z" fill="#fff"/><g fill="#fff"><path d="M181 170a6.5 6.5 0 0 1 6.5 6.6 6.5 6.5 0 0 1-13 0 6.5 6.5 0 0 1 6.5-6.5m0-3a9.5 9.5 0 1 0 0 19 9.5 9.5 0 0 0 0-19z"/><path d="M181 166.8a9.8 9.8 0 0 0 0 19.5 9.8 9.8 0 0 0 0-19.5zm0 19a9.3 9.3 0 0 1 0-18.5 9.3 9.3 0 0 1 0 18.6z"/></g><path d="M186.5 191.8c1 0 1.7.7 1.7 1.7v37.8a4 4 0 0 0 0 .5V270c0 .2 0 .9-1 .9-1.1 0-1.1-.8-1.1-1v-33.8a3 3 0 0 0-3-3H179a3 3 0 0 0-3 3V270c0 .2 0 .9-1 .9-1.1 0-1.1-.8-1.1-1v-37.5l-.1-.6a1.8 1.8 0 0 1 0-.4v-38c0-.9.7-1.6 1.7-1.6h11m0-3h-11a4.7 4.7 0 0 0-4.8 4.7v37.9l.2 1V270c0 2.6 2 4 4 4s4.1-1.3 4.1-4v-33.8h4V270c0 2.6 2.1 4 4.2 4 2 0 4-1.3 4-4v-76.5a4.7 4.7 0 0 0-4.7-4.6zm8.7 2.3c-1.4 0-2.9 1-2.9 2.8v33.3c0 1.9 1.5 2.8 3 2.8 1.4 0 2.9-.9 2.9-2.8V194c0-1.9-1.5-2.8-3-2.8zm-28.5 0c-1.4 0-3 1-3 2.8v33.3c0 1.9 1.6 2.8 3 2.8s3-.9 3-2.8V194c0-1.9-1.5-2.8-3-2.8z" fill="#fff"/></svg>