<svg xmlns="http://www.w3.org/2000/svg" width="361" height="361"><path d="M180.8 166.1a16.3 16.3 0 1 1 0-32.6 16.3 16.3 0 0 1 0 32.6zm-14.6 62.3v57c0 7.6 11.8 7.7 11.8 0v-57c0-7.6-11.8-7.6-11.8 0zm17.7 0v57c0 7.6 11.8 7.7 11.8 0v-57c0-7.6-11.8-7.6-11.8 0z" fill="#fff"/><path d="M195.7 229.4a6.9 6.9 0 0 1-6.8 7h-16a6.9 6.9 0 0 1-7-7v-55a6.9 6.9 0 0 1 7-6.9h16a6.9 6.9 0 0 1 6.8 6.9v55z" fill="#fff"/><g fill="#fff"><path d="M197.3 175v24.2c0 5.5 8.5 5.5 8.5 0V175c0-5.5-8.5-5.5-8.5 0z"/><path d="M197.4 200.5l4.5 23.7c1 5.5 9.4 3.9 8.4-1.5l-4.5-23.8c-1-5.4-9.4-3.8-8.4 1.6zM155.9 175v24.2c0 5.5 8.5 5.5 8.5 0V175c0-5.5-8.5-5.5-8.5 0z"/><path d="M156 199l-4.6 23.6c-1 5.5 7.3 7 8.4 1.7l4.5-23.8c1-5.4-7.3-7-8.4-1.6z"/></g></svg>