<svg xmlns="http://www.w3.org/2000/svg" width="361" height="361"><path d="M210.5 192c0 10-8 18-17.9 18h-23.9a18 18 0 0 1-18-18v-23.6c0-10 8.1-18 18-18h24a18 18 0 0 1 17.8 18V192z" fill="#fff" stroke="#fff" stroke-width="10" stroke-miterlimit="10"/><path d="M210.5 192c0 10-8 18-17.9 18h-23.9a18 18 0 0 1-18-18v-23.6c0-10 8.1-18 18-18h24a18 18 0 0 1 17.8 18V192z" fill="none" stroke="#fff" stroke-width="10" stroke-miterlimit="10"/><path d="M108.3 188.1h23.1c9.7 0 9.8-15 .1-15h-23.1c-9.7 0-9.8 15-.1 15zm13.1-56.3l16.4 16.3c6.8 6.9 17.4-3.8 10.5-10.6L132 121c-6.8-6.8-17.4 3.8-10.6 10.7zm67-.6v-23.1c0-9.7-15-9.8-15-.1v23c0 9.7 15 9.8 15 .1zm41.4-10l-16.4 16.3c-6.8 6.8 3.8 17.4 10.7 10.6l16.3-16.4c6.9-6.8-3.8-17.4-10.6-10.6zm.5 67h23.1c9.7 0 9.8-15 .1-15h-23c-9.8 0-9.9 15-.2 15zm10 41.6L224 213.4c-6.8-6.8-17.4 3.8-10.5 10.7l16.3 16.4c6.9 6.8 17.4-3.9 10.6-10.7zm-66.9.5v23.1c0 9.7 15 9.8 15 .2v-23.2c0-9.7-15-9.7-15 0zM132 240.6l16.4-16.3c6.8-6.9-3.9-17.4-10.7-10.6l-16.4 16.4c-6.8 6.8 3.8 17.4 10.7 10.5z" fill="#fff"/></svg>