<svg xmlns="http://www.w3.org/2000/svg" width="361" height="361"><path fill="#fff" d="M181 156l-1-81 107 81z"/><path d="M186 156l-1-81-7 4 107 81 2-9H181c-7 0-7 10 0 10h106c6 0 7-7 3-10L183 70c-3-2-7 1-7 5v81c0 6 10 6 10 0z" fill="#fff"/><path fill="#fff" d="M180 156l1-81-107 81z"/><path d="M185 156l1-81c0-4-5-7-8-5L71 151c-4 3-3 10 3 10h106c7 0 7-10 0-10H74l2 9 107-81-7-4-1 81c0 6 10 6 10 0z" fill="#fff"/><path d="M269 279c0 4-4 7-9 7H102c-5 0-9-3-9-7V150c0-4 176-4 176 0v129z" fill="none" stroke="#fff" stroke-width="10" stroke-miterlimit="10"/><path d="M134 268h-12c-4 0-4 7 0 7h12c4 0 4-7 0-7zm-1-66l-7 25c-1 4 5 6 6 1l7-24c2-4-5-6-6-2z" fill="#fff"/><path d="M125 194v78c0 5 7 5 7 0v-78c0-5-7-5-7 0z" fill="#fff"/><path d="M104 183l22 13h4l22-13c3-2 2-7-2-7h-44c-4 0-4 7 0 7h44l-2-6-22 13h4l-22-13c-4-3-7 3-3 6zm44 28l-10-10c-3-3-8 2-5 5l10 10c4 3 9-2 5-5z" fill="#fff"/><path d="M152 211l-7-4a4 4 0 0 0-5 1v4a54203 54203 0 0 1 3 7c1 3 4 2 5 1l4-3c2-2 2-4 0-5-1-2-3-2-5 0l-4 3 6 1-3-8-5 5 7 4c4 2 7-4 4-6z" fill="#fff"/><path d="M249 224h-14c-2 0-3 2-3 4v8h-49v-8c0-2-2-4-4-4h-13c-2 0-4 2-4 4v13c0 3 2 5 4 5h6v11c0 4 3 8 7 8h56c4 0 7-4 7-8v-11h7c2 0 3-2 3-5v-12c0-3-1-5-3-5zm-16-8v-17c0-4-3-7-6-7h-41c-3 0-6 3-6 7v17" fill="none" stroke="#fff" stroke-width="10" stroke-miterlimit="10"/><path d="M178 267v2c0 3 3 5 5 5s5-2 5-5v-2a5 5 0 0 0-10 0zm48 0v2c0 3 2 5 5 5s5-2 5-5v-2a5 5 0 0 0-10 0z" fill="#fff"/></svg>