<svg xmlns="http://www.w3.org/2000/svg" width="361" height="361"><path fill="#fff" d="M180.7 155.6l-.2-81 106.8 81z"/><path d="M185.7 155.6l-.2-81-7.5 4.3 106.7 81 2.6-9.3H180.7c-6.4 0-6.4 10 0 10h106.6c5.4 0 6.3-6.5 2.5-9.3L183 70.3c-3.1-2.4-7.5.8-7.5 4.3l.2 81c0 6.4 10 6.4 10 0z" fill="#fff"/><path fill="#fff" d="M180.3 155.6l.2-81-106.8 81z"/><path d="M185.3 155.6l.2-81c0-3.5-4.4-6.7-7.5-4.3l-106.8 81c-3.8 2.8-3 9.3 2.5 9.3h106.5c6.5 0 6.5-10 0-10H73.8l2.5 9.3 106.8-81-7.5-4.3-.2 81c0 6.4 10 6.4 10 0z" fill="#fff"/><path d="M268.5 279c0 4-4 7-8.8 7H102c-4.8 0-8.7-3-8.7-7V149.6c0-4 175.3-4 175.3 0V279z" fill="none" stroke="#fff" stroke-width="10" stroke-miterlimit="10"/><path d="M133.8 268.4h-11.5c-4.5 0-4.5 7 0 7h11.5c4.5 0 4.5-7 0-7zm-1.3-66l-6.8 24.2c-1.2 4.3 5.5 6.2 6.7 1.8l6.9-24.1c1.2-4.4-5.6-6.2-6.8-1.9z" fill="#fff"/><path d="M124.9 193.5V272c0 4.5 7 4.5 7 0v-78.5c0-4.5-7-4.5-7 0z" fill="#fff"/><path d="M104.4 182.6l21.9 13.6c1 .7 2.5.7 3.5 0l22-13.6c2.9-1.9 1.7-6.6-1.8-6.6h-43.8c-4.6 0-4.6 7 0 7H150l-1.8-6.5-21.9 13.7h3.5L108 176.5c-3.8-2.4-7.3 3.7-3.5 6zm44 28.5l-10-10c-3.3-3-8.2 1.9-5 5l10 9.9c3.2 3.2 8.2-1.8 5-5z" fill="#fff"/><path d="M151.5 211.2l-7-4a3.5 3.5 0 0 0-4.2.6c-1.2 1.2-1.2 2.8-.6 4.3a54202.7 54202.7 0 0 1 3.2 7.3c1 2.2 4 2 5.5.7l3.8-3.4c1.4-1.2 1.3-3.6 0-5-1.4-1.3-3.5-1.2-5 0l-3.8 3.5 5.5.7-3.1-7.4-4.8 4.8 7 4c3.9 2.2 7.4-3.8 3.5-6z" fill="#fff"/><path d="M248.7 223.7h-13.4c-2 0-3.7 2.2-3.7 4.8v7l-48.8.2v-7.2c0-2.7-1.7-4.8-3.7-4.8h-13.4c-2.1 0-3.7 2.2-3.7 4.8v12.4c0 2.6 1.6 4.8 3.7 4.8h6.5v11c0 4.6 3 8.3 6.6 8.3h56.6c3.6 0 6.5-3.8 6.5-8.4v-11h6.8c2 0 3.7-2 3.7-4.7v-12.4c0-2.6-1.7-4.8-3.7-4.8zM233 216v-17.4c-.1-3.5-2.6-6.3-5.6-6.3H186c-3 0-5.6 3-5.6 6.6v17" fill="none" stroke="#fff" stroke-width="10" stroke-miterlimit="10"/><path d="M178.3 267v2.3c0 2.8 2.3 5 5 5s5-2.2 5-5V267a5 5 0 0 0-10 0zm47.5 0v2.3c0 2.8 2.3 5 5 5s5-2.2 5-5V267a5 5 0 0 0-10 0z" fill="#fff"/></svg>