<svg xmlns="http://www.w3.org/2000/svg" width="361" height="361"><path d="M211 192c0 10-8 18-18 18h-24a18 18 0 0 1-18-18v-24c0-10 8-18 18-18h24a18 18 0 0 1 17 18v24z" fill="#fff" stroke="#fff" stroke-width="10" stroke-miterlimit="10"/><path d="M211 192c0 10-8 18-18 18h-24a18 18 0 0 1-18-18v-24c0-10 8-18 18-18h24a18 18 0 0 1 17 18v24z" fill="none" stroke="#fff" stroke-width="10" stroke-miterlimit="10"/><path d="M109 186h23c7 0 7-10 0-10h-23c-6 0-6 10 0 10zm16-54l17 16c4 5 11-2 7-7l-17-16c-4-5-11 2-7 7zm61 0v-23c0-6-10-6-10 0v23c0 7 10 7 10 0zm44-7l-17 16c-4 5 3 12 7 7l17-16c4-5-3-12-7-7zm-1 61h23c7 0 7-10 0-10h-23c-6 0-6 10 0 10zm8 44l-17-17c-4-4-11 3-7 7l17 17c4 4 11-3 7-7zm-61-1v24c0 6 10 6 10 0v-24c0-6-10-6-10 0zm-44 8l17-16c4-5-3-12-8-7l-16 16c-4 4 3 11 7 7z" fill="#fff"/></svg>