<svg xmlns="http://www.w3.org/2000/svg" width="361" height="361"><path fill="#fff" d="M180.7 155.6l-.2-81 106.8 81z"/><path d="M185.7 155.6l-.2-81-7.5 4.3 106.7 81 2.6-9.3H180.7c-6.4 0-6.4 10 0 10h106.6c5.4 0 6.3-6.5 2.5-9.3L183 70.3c-3.1-2.4-7.5.8-7.5 4.3l.2 81c0 6.4 10 6.4 10 0z" fill="#fff"/><path fill="#fff" d="M180.3 155.6l.2-81-106.8 81z"/><path d="M185.3 155.6l.2-81c0-3.5-4.4-6.7-7.5-4.3l-106.8 81c-3.8 2.8-3 9.3 2.5 9.3h106.5c6.5 0 6.5-10 0-10H73.8l2.5 9.3 106.8-81-7.5-4.3-.2 81c0 6.4 10 6.4 10 0z" fill="#fff"/><path d="M268.5 279c0 4-4 7-8.8 7H102c-4.8 0-8.7-3-8.7-7V149.6c0-4 175.3-4 175.3 0V279z" fill="none" stroke="#fff" stroke-width="10" stroke-miterlimit="10"/><path d="M129.2 241.2a37.9 37.9 0 0 1 14-51c3.8-2.3.3-8.4-3.6-6a45 45 0 0 0-16.4 60.6c2.2 4 8.2.4 6-3.6z" fill="#fff"/><path d="M180.2 255a37.9 37.9 0 0 1-51-14c-2.4-3.8-8.4-.3-6.1 3.6a45 45 0 0 0 60.6 16.4c4-2.1.5-8.2-3.5-6zm-40.7-20.6c-6.3-11.4-9.6-36.1 3.6-44.3 3.9-2.3.3-8.4-3.5-6-16.8 10.4-14.4 38.9-6.1 53.9 2.1 4 8.2.4 6-3.6z" fill="#fff"/><path d="M180.2 255c-7.2 3.8-16 0-22.6-3.7-7.1-4-13.9-9.8-18.1-17-2.3-3.8-8.4-.3-6 3.6 8.7 14.7 32.5 32.4 50.2 23.1 4-2 .5-8.1-3.5-6z" fill="#fff"/><path d="M163.6 200a1.4 1.4 0 1 1-2.8 0 1.4 1.4 0 0 1 2.8 0zm10.8-20.7a2.6 2.6 0 0 1-5.3 0 2.6 2.6 0 0 1 5.3 0zm11.4 22a2.3 2.3 0 0 1-2.3 2.4h-.7a2.3 2.3 0 0 1-2.3-2.3v-.8a2.3 2.3 0 0 1 2.3-2.3h.7a2.3 2.3 0 0 1 2.3 2.3v.8z" fill="#fff" stroke="#fff" stroke-miterlimit="10"/><path d="M226.6 240c0 2.2-1.6 4-3.6 4h-27.7c-2 0-3.6-1.8-3.6-4v-29c0-2.1 1.6-4 3.6-4H223c2 0 3.6 1.9 3.6 4v29z" fill="#fff" stroke="#fff" stroke-width="10" stroke-miterlimit="10"/><path d="M174 230a4 4 0 0 0 4 4h18.7a4 4 0 0 0 4-4v-11.3a4 4 0 0 0-4-4H178a4 4 0 0 0-4 4V230z" fill="#fff" stroke="#fff" stroke-width="10" stroke-miterlimit="10"/><path d="M166.1 230a4 4 0 0 1 4-4h23a4 4 0 0 1 4 4v6.3a4 4 0 0 1-4 4h-23a4 4 0 0 1-4-4V230zm47.2 6.3a4 4 0 0 0 4 4h18.6a4 4 0 0 0 4-4V225a4 4 0 0 0-4-4h-18.6a4 4 0 0 0-4 4v11.3z" fill="#fff" stroke="#fff" stroke-width="10" stroke-miterlimit="10"/></svg>