<svg xmlns="http://www.w3.org/2000/svg" width="361" height="361"><path d="M210.5 192c0 10-8 18-17.9 18h-23.9a18 18 0 0 1-18-18v-23.6c0-10 8.1-18 18-18h24a18 18 0 0 1 17.8 18V192z" fill="#fff" stroke="#fff" stroke-width="10" stroke-miterlimit="10"/><path d="M210.5 192c0 10-8 18-17.9 18h-23.9a18 18 0 0 1-18-18v-23.6c0-10 8.1-18 18-18h24a18 18 0 0 1 17.8 18V192z" fill="none" stroke="#fff" stroke-width="10" stroke-miterlimit="10"/><path d="M109.3 185.6h23.1c6.5 0 6.5-10 0-10h-23c-6.5 0-6.5 10 0 10zm15.9-53.6l16.3 16.3c4.6 4.6 11.7-2.5 7.1-7l-16.4-16.4c-4.5-4.6-11.6 2.5-7 7zm60.7.2V109c0-6.4-10-6.4-10 0v23.2c0 6.4 10 6.4 10 0zm43.7-7.3l-16.4 16.3c-4.6 4.6 2.5 11.7 7 7.1l16.4-16.3c4.6-4.6-2.5-11.7-7-7.1zm-.2 60.7h23c6.5 0 6.5-10 0-10h-23c-6.5 0-6.5 10 0 10zm7.2 44l-16.3-16.4c-4.6-4.5-11.7 2.5-7 7.1l16.3 16.3c4.5 4.6 11.6-2.5 7-7zm-60.7-.2v23.1c0 6.5 10 6.5 10 0v-23.1c0-6.5-10-6.5-10 0zm-43.8 7.5l16.4-16.4c4.5-4.5-2.5-11.6-7.1-7L125 229.8c-4.5 4.6 2.5 11.6 7.1 7z" fill="#fff"/></svg>