<svg xmlns="http://www.w3.org/2000/svg" width="361" height="361"><path fill="#fff" d="M75.7 156.6l-.3-81 106.8 81z"/><path d="M80.7 156.6l-.3-81-7.5 4.3 106.8 81 2.5-9.3H75.7c-6.5 0-6.5 10 0 10h106.5c5.4 0 6.3-6.5 2.6-9.3L78 71.3c-3.2-2.4-7.6.8-7.6 4.3l.3 81c0 6.4 10 6.4 10 0z" fill="#fff"/><path d="M163.4 282c0 3.1-4.7 5.8-10.5 5.8H86c-5.8 0-10.6-2.7-10.6-5.9V159.4c0-3.2 4.8-5.8 10.6-5.8h66.9c5.8 0 10.5 2.6 10.5 5.8V282z" fill="none" stroke="#fff" stroke-width="10" stroke-miterlimit="10"/><path d="M128.4 281.4c0 3.1-2.6 5.7-6 5.7H99c-3.3 0-6-2.6-6-5.7v-68.1c0-3.2 2.7-5.7 6-5.7h23.5c3.4 0 6 2.5 6 5.7v68.1z" fill="none" stroke="#fff" stroke-width="10" stroke-miterlimit="10"/><g fill="#fff"><circle cx="233.8" cy="194" r="9.5"/><path d="M233.8 203.7a9.8 9.8 0 0 1 0-19.5 9.8 9.8 0 0 1 0 19.5zm0-19a9.3 9.3 0 0 0 0 18.6 9.3 9.3 0 0 0 0-18.7zm-10 63.3v39.3c0 5.2 8 5.3 8 0v-39.2c0-5.2-8-5.3-8 0zm12.1 0v39.3c0 5.2 8.1 5.3 8.1 0v-39.2c0-5.2-8-5.3-8 0z"/><path d="M244 248.8a4.7 4.7 0 0 1-4.7 4.7h-11a4.7 4.7 0 0 1-4.7-4.7v-38a4.7 4.7 0 0 1 4.7-4.7h11a4.7 4.7 0 0 1 4.8 4.8v37.9zm1.2-37.5V228c0 3.7 5.8 3.7 5.8 0v-16.7c0-3.8-5.8-3.8-5.8 0z"/><path d="M245.2 228v16.6c0 3.8 5.8 3.8 5.8 0V228c0-3.8-5.8-3.8-5.8 0zm-28.5-16.7V228c0 3.7 5.8 3.7 5.8 0v-16.7c0-3.8-5.8-3.8-5.8 0z"/><path d="M216.7 228v16.6c0 3.8 5.8 3.8 5.8 0V228c0-3.8-5.8-3.8-5.8 0z"/></g></svg>