<svg xmlns="http://www.w3.org/2000/svg" width="361" height="361"><path fill="#fff" d="M180.7 155.6l-.2-81 106.8 81z"/><path d="M185.7 155.6l-.2-81-7.5 4.3 106.7 81 2.6-9.3H180.7c-6.4 0-6.4 10 0 10h106.6c5.4 0 6.3-6.5 2.5-9.3L183 70.3c-3.1-2.4-7.5.8-7.5 4.3l.2 81c0 6.4 10 6.4 10 0z" fill="#fff"/><path fill="#fff" d="M180.3 155.6l.2-81-106.8 81z"/><path d="M185.3 155.6l.2-81c0-3.5-4.4-6.7-7.5-4.3l-106.8 81c-3.8 2.8-3 9.3 2.5 9.3h106.5c6.5 0 6.5-10 0-10H73.8l2.5 9.3 106.8-81-7.5-4.3-.2 81c0 6.4 10 6.4 10 0z" fill="#fff"/><path d="M268.5 279c0 4-4 7-8.8 7H102c-4.8 0-8.7-3-8.7-7V149.6c0-4 175.3-4 175.3 0V279z" fill="none" stroke="#fff" stroke-width="10" stroke-miterlimit="10"/><path d="M145 230.8c.2-.7 1.5-.5.2-.5h-14.1c-1 0 .7 2.2.7 1v-24.4c0 1.5-1.8 1.4-.3 1.4h14.4c-1.1 0-1-2.4-1-.7v24.1c0 4.5 7 4.5 7 0v-12.4c0-4 1-9.6-.1-13.4-1.9-5.8-8-4.6-13-4.6s-12-1.4-13.9 4.6c-1.1 3.5-.1 8.7-.1 12.4v13.4c0 6.8 8.7 5.6 13 5.6 5 0 12 1.4 14-4.7 1.4-4.3-5.4-6.1-6.8-1.8z" fill="#fff"/><path d="M172.8 230c0 .3 1.5.3-.3.3h-14c1.3 0 1 1.2 1-.3v-32.9c0 .9-1.7.7.2.7h14c-1.2 0-1-1.2-1 .2v33c0 4.5 7 4.5 7 0v-33c0-6.6-5-7.2-10.2-7.2-5.5 0-15.5-2.1-16.8 5.4-.8 4.5-.1 9.7-.1 14.4V230c0 6.6 4.9 7.3 10.2 7.3 5.4 0 15.4 2 16.7-5.4.8-4.4-6-6.3-6.7-1.9zm27.8 0c.7.2.9.3.4.2h-14.4c1 0 .8 1.3.8 0V186c0 1-1.3.7.9.7h13c-1 0-.9-1.3-.9 0V231c0 4.5 7 4.5 7 0v-37.3c0-4.9 1.1-10.3-3.3-13.4-1.8-1.3-5.7-.7-7.8-.7h-9.7c-6.5 0-6.2 6.7-6.2 11.2v39.7c0 7.6 7.7 6.7 13 6.7 5.1 0 12.6 1.4 14-5.3.8-4.4-6-6.3-6.8-1.9z" fill="#fff"/><path d="M228.3 230c0 .2 1.4.2.1.2h-14c-.7 0 .7 1.3.7.6v-58.3c0-1.1-1 .3-.6.3h14.3c.3 0-.6-1.4-.6-.3V231c0 4.5 7 4.5 7 0v-55.1c0-4.3-.2-10.1-6.2-10.1h-8.8c-2.3 0-6.8-.8-8.8.7-4.1 2.9-3.3 7.3-3.3 11.7v44.5c0 4.9-1.5 14.5 6 14.5 6 0 19.4 2.8 21-5.3.8-4.4-6-6.3-6.8-1.8zm-82.4 44.4l-1.6-6.8h-9l-1.6 6.8h-7a268 268 0 0 1 4.8-16 1161.8 1161.8 0 0 1 4.8-13.7h7.4a378.4 378.4 0 0 1 4.8 13.9c1.6 4.8 3.1 10.1 4.6 15.8H146zm-6-24a195.8 195.8 0 0 0-1 3.3l-1 3a79.3 79.3 0 0 0-.7 2.9l-.7 3h6.6a241.3 241.3 0 0 0-.6-3 47 47 0 0 0-1.7-6 218 218 0 0 0-1-3.1zm27.3 24.6c-2.2 0-4-.2-5.5-.8a8.4 8.4 0 0 1-3.5-2.2c-.9-1-1.5-2.2-1.9-3.6-.4-1.4-.5-3-.5-4.7v-19h6.8v18.6c0 1.2 0 2.3.2 3.1.1.9.4 1.5.7 2 .4.6.9 1 1.5 1.2.6.2 1.4.3 2.4.3.9 0 1.7-.1 2.3-.3a3 3 0 0 0 1.5-1.2 5 5 0 0 0 .8-2l.2-3.2v-18.5h6.7v19c0 1.7-.1 3.3-.5 4.7a8.3 8.3 0 0 1-2 3.6 8.8 8.8 0 0 1-3.6 2.2 17 17 0 0 1-5.6.8zm40-30.3v4.9h-9v24.8h-6.8v-24.8h-9v-5h24.8zm2.8 14.8c0-5 1.1-9 3.3-11.6a11 11 0 0 1 9-3.9c4 0 7 1.3 9 4 2.2 2.6 3.2 6.4 3.2 11.5 0 5.2-1 9-3.2 11.6s-5.1 4-9 4c-4 0-7-1.4-9.1-4-2.1-2.6-3.2-6.4-3.2-11.6zm6.9 0a24.9 24.9 0 0 0 1 7.4 5.3 5.3 0 0 0 1.6 2.2c.7.5 1.6.8 2.8.8 1.1 0 2-.3 2.7-.8a5.2 5.2 0 0 0 1.7-2.2c.4-1 .6-2 .8-3.3a40.4 40.4 0 0 0 0-8.1 11.7 11.7 0 0 0-.8-3.3 5.3 5.3 0 0 0-1.6-2.2 4.4 4.4 0 0 0-2.8-.8c-1.2 0-2.1.2-2.8.8a5.3 5.3 0 0 0-1.6 2.2c-.4 1-.7 2-.8 3.3a39.6 39.6 0 0 0-.2 4z" fill="#fff"/></svg>