<svg xmlns="http://www.w3.org/2000/svg" width="361" height="361"><path d="M181 110a20 20 0 0 1-20-20 20 20 0 0 1 20-20 20 20 0 0 1 20 20 20 20 0 0 1-20 20zm-21 92v81c0 11 17 11 17 0v-81c0-11-17-11-17 0zm25 0v81c0 11 17 11 17 0v-81c0-11-17-11-17 0z" fill="#fff"/><path d="M202 203c0 6-4 10-10 10h-23a10 10 0 0 1-9-10v-78c0-6 4-10 9-10h23c6 0 10 4 10 10v78z" fill="#fff"/><g fill="#fff"><path d="M204 126v34c0 8 13 8 13 0v-34c0-8-13-8-13 0z"/><path d="M204 160v35c0 7 13 7 13 0v-35c0-8-13-8-13 0zm-59-34v34c0 8 13 8 13 0v-34c0-8-13-8-13 0z"/><path d="M145 160v35c0 7 13 7 13 0v-35c0-8-13-8-13 0z"/></g></svg>