<svg xmlns="http://www.w3.org/2000/svg" width="361" height="361"><path d="M181 110a20.2 20.2 0 0 1-20.3-20 20.2 20.2 0 0 1 20.1-20.2A20.2 20.2 0 0 1 201 89.9a20.2 20.2 0 0 1-20 20.1zm-21 91.7V283c0 10.8 16.8 11 16.8 0v-81c0-10.9-16.8-11-16.8-.2zm25.2 0V283c0 10.8 16.8 11 16.8 0v-81c0-10.9-16.8-11-16.8-.2z" fill="#fff"/><path d="M202.1 203.3c0 5.4-4.4 9.7-9.8 9.7h-22.8a9.8 9.8 0 0 1-9.7-9.7v-78.5c0-5.4 4.3-9.7 9.7-9.7h22.8c5.4 0 9.8 4.3 9.8 9.7v78.5z" fill="#fff"/><g fill="#fff"><path d="M204.4 125.8v34.4c0 7.8 12.1 7.8 12.1 0v-34.4c0-7.8-12.1-7.8-12.1 0z"/><path d="M204.4 160.2v34.4c0 7.8 12.1 7.8 12.1 0v-34.4c0-7.8-12.1-7.8-12.1 0zm-59-34.4v34.4c0 7.8 12.1 7.8 12.1 0v-34.4c0-7.8-12.1-7.8-12.1 0z"/><path d="M145.4 160.2v34.4c0 7.8 12.1 7.8 12.1 0v-34.4c0-7.8-12.1-7.8-12.1 0z"/></g></svg>