<svg xmlns="http://www.w3.org/2000/svg" width="361" height="361"><path fill="#fff" d="M180.7 155.6l-.2-81 106.8 81z"/><path d="M185.7 155.6l-.2-81-7.5 4.3 106.7 81 2.6-9.3H180.7c-6.4 0-6.4 10 0 10h106.6c5.4 0 6.3-6.5 2.5-9.3L183 70.3c-3.1-2.4-7.5.8-7.5 4.3l.2 81c0 6.4 10 6.4 10 0z" fill="#fff"/><g fill="#fff"><path d="M180.3 155.6l.2-81-106.8 81z"/><path d="M185.3 155.6l.2-81c0-3.5-4.4-6.7-7.5-4.3l-106.8 81c-3.8 2.8-3 9.3 2.5 9.3h106.5c6.5 0 6.5-10 0-10H73.8l2.5 9.3 106.8-81-7.5-4.3-.2 81c0 6.4 10 6.4 10 0z"/></g><path d="M268.5 279c0 4-4 7-8.8 7H102c-4.8 0-8.7-3-8.7-7V149.6c0-4 175.3-4 175.3 0V279z" fill="none" stroke="#fff" stroke-width="10" stroke-miterlimit="10"/><g fill="#fff"><circle cx="181" cy="176.6" r="9.5"/><path d="M181 186.3a9.8 9.8 0 0 1 0-19.5 9.8 9.8 0 0 1 0 19.5zm0-19a9.3 9.3 0 0 0 0 18.6 9.3 9.3 0 0 0 0-18.6zm-10.1 63.4v39.2c0 5.3 8.1 5.3 8.1 0v-39.2c0-5.3-8.1-5.3-8.1 0zm12.2 0v39.2c0 5.3 8 5.3 8 0v-39.2c0-5.3-8-5.3-8 0z"/><path d="M191.2 231.4a4.7 4.7 0 0 1-4.7 4.7h-11a4.7 4.7 0 0 1-4.8-4.7v-38a4.7 4.7 0 0 1 4.8-4.6h11a4.7 4.7 0 0 1 4.7 4.7v37.9zm1.1-37.5v16.7c0 3.8 5.9 3.8 5.9 0v-16.7c0-3.7-5.9-3.7-5.9 0z"/><path d="M192.3 210.6v16.6c0 3.8 5.9 3.8 5.9 0v-16.6c0-3.8-5.9-3.8-5.9 0zm-28.5-16.7v16.7c0 3.8 5.9 3.8 5.9 0v-16.7c0-3.7-5.9-3.7-5.9 0z"/><path d="M163.8 210.6v16.6c0 3.8 5.9 3.8 5.9 0v-16.6c0-3.8-6-3.8-6 0z"/></g></svg>