<svg xmlns="http://www.w3.org/2000/svg" width="361" height="361"><path fill="#fff" d="M180.7 155.6l-.2-81 106.8 81z"/><path d="M185.7 155.6l-.2-81-7.5 4.3 106.7 81 2.6-9.3H180.7c-6.4 0-6.4 10 0 10h106.6c5.4 0 6.3-6.5 2.5-9.3L183 70.3c-3.1-2.4-7.5.8-7.5 4.3l.2 81c0 6.4 10 6.4 10 0z" fill="#fff"/><path fill="#fff" d="M180.3 155.6l.2-81-106.8 81z"/><path d="M185.3 155.6l.2-81c0-3.5-4.4-6.7-7.5-4.3l-106.8 81c-3.8 2.8-3 9.3 2.5 9.3h106.5c6.5 0 6.5-10 0-10H73.8l2.5 9.3 106.8-81-7.5-4.3-.2 81c0 6.4 10 6.4 10 0z" fill="#fff"/><path d="M268.5 279c0 4-4 7-8.8 7H102c-4.8 0-8.7-3-8.7-7V149.6c0-4 175.3-4 175.3 0V279z" fill="none" stroke="#fff" stroke-width="10" stroke-miterlimit="10"/><path d="M206.2 223.1v19c0 4.5 7 4.5 7 0v-19c0-4.5-7-4.5-7 0z" fill="#fff"/><path d="M202.4 228l5.6 3.3c1.6 1 3.8.3 4.8-1.3s.4-3.8-1.3-4.8a9945.9 9945.9 0 0 1-5.5-3.2 3.5 3.5 0 0 0-4.8 1.3 3.5 3.5 0 0 0 1.3 4.8z" fill="#fff"/><path d="M213.4 222l-5.5 3.2a3.5 3.5 0 0 0-1.3 4.8 3.5 3.5 0 0 0 4.8 1.3l5.6-3.2a3.5 3.5 0 0 0 1.2-4.8 3.5 3.5 0 0 0-4.8-1.3zm-22 13.4L208 245c4 2.3 7.4-3.8 3.5-6l-16.4-9.5c-4-2.3-7.4 3.8-3.5 6z" fill="#fff"/><path d="M193.9 241.2l5.5-3.2a3.5 3.5 0 0 0 1.3-4.8 3.5 3.5 0 0 0-4.8-1.3l-5.5 3.2a3.5 3.5 0 0 0-1.3 4.8 3.5 3.5 0 0 0 4.8 1.3z" fill="#fff"/><path d="M194.1 228.6v6.4c0 4.5 7 4.5 7 0v-6.4c0-4.5-7-4.5-7 0zm1 25.8l16.4-9.5c3.9-2.3.4-8.3-3.6-6l-16.4 9.4c-3.9 2.3-.4 8.3 3.5 6z" fill="#fff"/><path d="M201.2 255.2v-6.4c0-4.5-7-4.5-7 0v6.4c0 4.5 7 4.5 7 0z" fill="#fff"/><path d="M190.4 248.7l5.6 3.2c1.6 1 3.8.4 4.8-1.3 1-1.6.4-3.8-1.3-4.8l-5.5-3.2a3.5 3.5 0 0 0-4.8 1.3 3.5 3.5 0 0 0 1.2 4.8z" fill="#fff"/><g fill="#fff"><path d="M213.2 260.9v-19c0-4.5-7-4.5-7 0v19c0 4.5 7 4.5 7 0z"/><path d="M217 256a9945.9 9945.9 0 0 1-5.5-3.2 3.5 3.5 0 0 0-4.8 1.2 3.5 3.5 0 0 0 1.2 4.8l5.6 3.2c1.6 1 3.8.4 4.8-1.2 1-1.7.3-3.9-1.3-4.8z"/><path d="M206 262l5.6-3.2a3.5 3.5 0 0 0 1.2-4.8 3.5 3.5 0 0 0-4.8-1.2l-5.5 3.2a3.5 3.5 0 0 0-1.3 4.8 3.5 3.5 0 0 0 4.8 1.2z"/></g><g fill="#fff"><path d="M228 248.5l-16.5-9.5c-3.9-2.3-7.4 3.8-3.5 6l16.4 9.5c4 2.3 7.5-3.8 3.6-6z"/><path d="M225.6 242.7L220 246a3.5 3.5 0 0 0-1.2 4.8 3.5 3.5 0 0 0 4.8 1.3l5.5-3.2a3.5 3.5 0 0 0 1.2-4.8 3.5 3.5 0 0 0-4.7-1.3z"/><path d="M225.3 255.3v-6.4c0-4.5-7-4.5-7 0v6.4c0 4.5 7 4.5 7 0z"/></g><g fill="#fff"><path d="M224.4 229.5L208 239c-4 2.3-.4 8.3 3.5 6l16.4-9.4c4-2.3.4-8.3-3.5-6z"/><path d="M218.3 228.7v6.4c0 4.5 7 4.5 7 0v-6.4c0-4.5-7-4.5-7 0z"/><path d="M229 235.2a9945.9 9945.9 0 0 1-5.5-3.2 3.5 3.5 0 0 0-4.8 1.3 3.5 3.5 0 0 0 1.2 4.7l5.6 3.2c1.6 1 3.8.4 4.8-1.2 1-1.7.4-3.9-1.3-4.8z"/></g><path d="M157.8 243.2c0-.3 1-.2-.3-.2h-7.7c-1.6 0-.2 1.2-.2.8v-67.2c0-.5-1.4.7.2.7h8.2c1 0-.3-.7-.3-1v67.8c0 4.5 7 4.5 7 0v-67.8c0-7.8-10.8-6-15.8-6-6 0-6.3 5.5-6.3 10v63.6c0 5.1 4.7 6.1 8.7 6.1 5.1 0 11.4 1.2 13.2-5 1.3-4.3-5.5-6.2-6.7-1.9z" fill="#fff"/><g fill="#fff"><path d="M165.1 264.5c0 1.4-.9 2.6-2 2.6h-18.9c-1.1 0-2-1.2-2-2.6v-15.3c0-1.5.9-2.7 2-2.7H163c1.2 0 2.1 1.2 2.1 2.7v15.3z"/><path d="M161.8 263.6h-16.6c-1.7 0 .5 1.6.5-.1v-14.3c0 .9-2.2.8-1 .8h17.9c1.2 0-1 0-1-.8v15.3c0 4.5 7 4.5 7 0v-12.6c0-4-.6-8.9-5.8-8.9h-14c-4.3 0-9.1-.3-10 5.2-.7 4.2-.1 8.7-.1 12.8 0 4 .2 9.6 5.6 9.6h13.3c4.5 0 10 .7 10.9-5.2.7-4.4-6-6.3-6.8-1.8z"/></g><path d="M169.9 182.6h8c4.4 0 4.4-7 0-7h-8c-4.5 0-4.5 7 0 7zm0 17.7h8c4.4 0 4.4-7 0-7h-8c-4.5 0-4.5 7 0 7zm0 18h8c4.4 0 4.4-7 0-7h-8c-4.5 0-4.5 7 0 7zm0 19h8c4.4 0 4.4-7 0-7h-8c-4.5 0-4.5 7 0 7z" fill="#fff"/><g fill="#fff"><path d="M146.1 235.3h15v18.1h-15z"/><path d="M161.2 231.8h-15a3.5 3.5 0 0 0-3.6 3.5v18.1c0 2 1.6 3.5 3.5 3.5h15c2 0 3.6-1.6 3.6-3.5v-18.1c0-4.5-7-4.5-7 0v18.1l3.5-3.5h-15l3.4 3.5v-18.1l-3.5 3.5h15c4.6 0 4.6-7 0-7z"/></g></svg>