<svg xmlns="http://www.w3.org/2000/svg" width="361" height="361"><path fill="#fff" d="M181 156l-1-81 107 81z"/><path d="M186 156l-1-81-7 4 107 81 2-9H181c-7 0-7 10 0 10h106c6 0 7-7 3-10L183 70c-3-2-7 1-7 5v81c0 6 10 6 10 0z" fill="#fff"/><path fill="#fff" d="M180 156l1-81-107 81z"/><path d="M185 156l1-81c0-4-5-7-8-5L71 151c-4 3-3 10 3 10h106c7 0 7-10 0-10H74l2 9 107-81-7-4-1 81c0 6 10 6 10 0z" fill="#fff"/><path d="M269 279c0 4-4 7-9 7H102c-5 0-9-3-9-7V150c0-4 176-4 176 0v129z" fill="none" stroke="#fff" stroke-width="10" stroke-miterlimit="10"/><path d="M181 167h-1a10 10 0 0 0-5 2 2 2 0 0 0 2 3 7 7 0 0 1 4-2l2-1-2-2zm-8 6l-1 1v6a2 2 0 0 0 3-1 7 7 0 0 1-1-3l1-2a2 2 0 0 0-1-2l-1 1zm3 9a2 2 0 0 0-1 2 10 10 0 0 0 3 2h4a2 2 0 0 0 0-3 6 6 0 0 1-1 0 7 7 0 0 1-4-1h-1zm13-5a2 2 0 0 0-2 1 7 7 0 0 1-2 4 2 2 0 1 0 2 2 10 10 0 0 0 3-4 9 9 0 0 0 0-1 2 2 0 0 0-1-2zm-4-9a2 2 0 0 0-1 3 7 7 0 0 1 3 4 2 2 0 0 0 3-1 10 10 0 0 0-3-5h-1a10 10 0 0 0 0-1 1 1 0 0 0-1 0zm2 21h-7a2 2 0 1 0 0 3h7a2 2 0 0 0 0-3zm-12 0a5 5 0 0 0-4 3v2a2 2 0 1 0 3 0l1-2a2 2 0 0 0 1-2 2 2 0 0 0-1-1zm-3 8a2 2 0 0 0-1 2v7a2 2 0 1 0 3 0v-7a2 2 0 0 0-2-2zm0 12a2 2 0 0 0-1 2v7a2 2 0 1 0 3 0v-7a2 2 0 0 0-2-2zm0 12a2 2 0 0 0-1 2v7a2 2 0 1 0 3 0v-7a2 2 0 0 0-2-2zm0 12a2 2 0 0 0-1 2v7a2 2 0 1 0 3 0v-7a2 2 0 0 0-2-2zm0 12a2 2 0 0 0-1 2v7a2 2 0 1 0 3 0v-7a2 2 0 0 0-2-2zm0 12a2 2 0 0 0-1 2v7a2 2 0 1 0 3 0v-7a2 2 0 0 0-2-1zm6 4a2 2 0 0 0-2 2v7l1 1a2 2 0 0 0-2 0l-1-1a2 2 0 0 0-3 1v1h1v1a4 4 0 0 0 2 1h3a2 2 0 0 0 0-3 2 2 0 0 0 2-1v-7l-2-2zm0-12a2 2 0 0 0-2 2v7a2 2 0 1 0 3 0v-7a2 2 0 0 0-1-2zm0-12a2 2 0 0 0-2 2v7a2 2 0 1 0 3 0v-7a2 2 0 0 0-1-2zm5-4h-1a2 2 0 1 0 0 3h1v6a2 2 0 0 0 3 0v-6a3 3 0 0 0-3-3zm2 12a2 2 0 0 0-2 2v7a2 2 0 0 0 3 0v-7a2 2 0 0 0-1-2zm0 12a2 2 0 0 0-2 2v7a2 2 0 0 0 3 0v-7a2 2 0 0 0-1-2zm5 4a2 2 0 0 0-2 2v8a2 2 0 0 1-1 0l-1-1a2 2 0 1 0-3 1 4 4 0 0 0 3 3h2a2 2 0 0 0 1-3 2 2 0 0 0 2-1v-7a2 2 0 0 0-1-2zm0-12a2 2 0 0 0-2 2v7a2 2 0 0 0 3 0v-7a2 2 0 0 0-1-2zm0-12a2 2 0 0 0-2 2v7a2 2 0 0 0 3 0v-7a2 2 0 0 0-1-2zm1-6h-1l1 1v-1zm-1-6a2 2 0 0 0-2 2v4a4 4 0 0 0 0 1v2a2 2 0 0 0 3 0v-2l-2-1h2v-4a2 2 0 0 0-1-2zm0-12a2 2 0 0 0-2 2v7a2 2 0 0 0 3 0v-7a2 2 0 0 0-1-2zm0-12a2 2 0 0 0-2 2v7a2 2 0 0 0 3 0v-7a2 2 0 0 0-1-2zm-1-11a2 2 0 0 0-1 3v5a2 2 0 0 0 3 0v-7a2 2 0 0 0-2-1zm6 1a3 3 0 0 0-1 0 3 3 0 0 0-1 1 3 3 0 0 0-1 1 3 3 0 0 0 0 1v3a2 2 0 0 0 3 0v4a2 2 0 0 0-3 1v7a2 2 0 0 0 3 0v4a2 2 0 0 0-3 1v7a2 2 0 0 0 3 0v4a2 2 0 0 0-3 1v2l1 1 1 1h2a2 2 0 0 0 1-2 2 2 0 0 0 1-2v-7a2 2 0 0 0-3 0v-4a2 2 0 0 0 3-1v-7a2 2 0 0 0-3 0v-4a2 2 0 0 0 3-1v-7a2 2 0 0 0-1-1 2 2 0 0 0-1-3h-1zm0 4v-1h1a2 2 0 0 0-1 1zm0 32zm-28-36h-2a3 3 0 0 0 0 1h-1a3 3 0 0 0 0 1 3 3 0 0 0 0 1v2a2 2 0 0 0 3 1v4a2 2 0 0 0-3 0v7a2 2 0 0 0 3 1v4a2 2 0 0 0-3 0v7a2 2 0 0 0 3 1v4a2 2 0 0 0-3 0v3a3 3 0 0 0 0 1h1a3 3 0 0 0 0 1h2a2 2 0 0 0 1-2 2 2 0 0 0 2-2v-7a2 2 0 0 0-3 0v-4a2 2 0 0 0 3-1v-7a2 2 0 0 0-3 0v-4a2 2 0 0 0 3-1v-7a2 2 0 0 0-2-1 2 2 0 0 0-1-3zm0 4v-1a2 2 0 0 0 0 1zm0 32z" fill="#fff"/></svg>