<svg xmlns="http://www.w3.org/2000/svg" width="361" height="361"><path d="M211 192c0 10-8 18-18 18h-24a18 18 0 0 1-18-18v-24c0-10 8-18 18-18h24a18 18 0 0 1 17 18v24z" fill="#fff" stroke="#fff" stroke-width="10" stroke-miterlimit="10"/><path d="M211 192c0 10-8 18-18 18h-24a18 18 0 0 1-18-18v-24c0-10 8-18 18-18h24a18 18 0 0 1 17 18v24z" fill="none" stroke="#fff" stroke-width="10" stroke-miterlimit="10"/><path d="M108 188h23c10 0 10-15 1-15h-24c-9 0-9 15 0 15zm13-56l17 16c7 7 17-4 10-10l-16-17c-7-7-17 4-11 11zm67-1v-23c0-10-15-10-15 0v23c0 10 15 10 15 0zm42-10l-17 17c-6 6 4 17 11 10l16-16c7-7-3-18-10-11zm0 67h23c10 0 10-15 0-15h-23c-9 0-9 15 0 15zm10 42l-16-17c-7-6-17 4-10 11l16 16c7 7 17-3 10-10zm-67 0v23c0 10 15 10 15 1v-24c0-9-15-9-15 0zm-41 11l16-17c7-7-3-17-10-10l-17 16c-6 7 4 17 11 11z" fill="#fff"/></svg>