<svg xmlns="http://www.w3.org/2000/svg" width="361" height="361"><path fill="#fff" d="M181 156l-1-81 107 81z"/><path d="M186 156l-1-81-7 4 107 81 2-9H181c-7 0-7 10 0 10h106c6 0 7-7 3-10L183 70c-3-2-7 1-7 5v81c0 6 10 6 10 0z" fill="#fff"/><path fill="#fff" d="M180 156l1-81-107 81z"/><path d="M185 156l1-81c0-4-5-7-8-5L71 151c-4 3-3 10 3 10h106c7 0 7-10 0-10H74l2 9 107-81-7-4-1 81c0 6 10 6 10 0z" fill="#fff"/><path d="M269 279c0 4-4 7-9 7H102c-5 0-9-3-9-7V150c0-4 176-4 176 0v129z" fill="none" stroke="#fff" stroke-width="10" stroke-miterlimit="10"/><path d="M149 207c-1 7-13 5-17 5h-17c-7 0-5-13-5-17v-17c0-7 13-5 17-5h17c7 0 5 13 5 17v17c0 5 7 5 7 0v-17c0-6 1-12-2-18-2-7-11-6-17-6h-21c-7 0-13 5-13 12v20c0 6-1 13 3 18s12 3 18 3c11 0 31 4 32-12 0-4-7-4-7 0z" fill="#fff"/><path d="M116 198h26c7 0 7-10 0-10h-26c-6 0-6 10 0 10z" fill="#fff"/><g fill="#fff"><path d="M181 170a7 7 0 0 1 7 7 7 7 0 0 1-13 0 7 7 0 0 1 6-7m0-3a10 10 0 1 0 0 19 10 10 0 0 0 0-19z"/><path d="M181 167a10 10 0 0 0 0 19 10 10 0 0 0 0-19zm0 19a9 9 0 0 1 0-19 9 9 0 0 1 0 19z"/></g><path d="M187 192l1 2v37a4 4 0 0 0 0 1v38l-1 1-1-1v-34a3 3 0 0 0-3-3h-4a3 3 0 0 0-3 3v34l-1 1-1-1v-38a2 2 0 0 1 0-1v-38l2-1h11m0-3h-11a5 5 0 0 0-5 4v77c0 3 2 4 4 4s4-1 4-4v-34h4v34c0 3 2 4 4 4s4-1 4-4v-76a5 5 0 0 0-5-5zm8 2c-1 0-3 1-3 3v33c0 2 2 3 3 3 2 0 3-1 3-3v-33c0-2-1-3-3-3zm-28 0c-2 0-3 1-3 3v33c0 2 1 3 3 3s3-1 3-3v-33c0-2-2-3-3-3z" fill="#fff"/></svg>