<svg xmlns="http://www.w3.org/2000/svg" width="361" height="361"><path fill="#fff" d="M181 156l-1-81 107 81z"/><path d="M186 156l-1-81-7 4 107 81 2-9H181c-7 0-7 10 0 10h106c6 0 7-7 3-10L183 70c-3-2-7 1-7 5v81c0 6 10 6 10 0z" fill="#fff"/><path fill="#fff" d="M180 156l1-81-107 81z"/><path d="M185 156l1-81c0-4-5-7-8-5L71 151c-4 3-3 10 3 10h106c7 0 7-10 0-10H74l2 9 107-81-7-4-1 81c0 6 10 6 10 0z" fill="#fff"/><path d="M269 279c0 4-4 7-9 7H102c-5 0-9-3-9-7V150c0-4 176-4 176 0v129z" fill="none" stroke="#fff" stroke-width="10" stroke-miterlimit="10"/><path d="M192 192c7 0 16-2 20 5 3 3 1 11 1 15v39c-2 7-10 6-16 6h-40c-8 0-9-6-9-13v-37c0-6-1-11 5-14 4-3 12-2 16-2 5 0 5-7 0-7-6 0-13-1-19 2-7 3-9 10-9 17v42c0 7 1 12 7 17 5 3 11 2 16 2h40c10 0 16-8 16-18v-29c0-6 2-16-1-23-5-11-17-10-27-10-4 0-4 7 0 7z" fill="#fff"/><path d="M177 181v50c0 4 7 4 7 0v-50c0-4-7-4-7 0z" fill="#fff"/></svg>