<svg xmlns="http://www.w3.org/2000/svg" width="361" height="361"><path fill="#fff" d="M181 156l-1-81 107 81z"/><path d="M186 156l-1-81-7 4 107 81 2-9H181c-7 0-7 10 0 10h106c6 0 7-7 3-10L183 70c-3-2-7 1-7 5v81c0 6 10 6 10 0z" fill="#fff"/><path fill="#fff" d="M180 156l1-81-107 81z"/><path d="M185 156l1-81c0-4-5-7-8-5L71 151c-4 3-3 10 3 10h106c7 0 7-10 0-10H74l2 9 107-81-7-4-1 81c0 6 10 6 10 0z" fill="#fff"/><path d="M269 279c0 4-4 7-9 7H102c-5 0-9-3-9-7V150c0-4 176-4 176 0v129z" fill="none" stroke="#fff" stroke-width="10" stroke-miterlimit="10"/><path d="M145 231c0-1 2-1 0-1h-14c-1 0 1 3 1 1v-24l-1 1h15c-1 0-1-2-1 0v24c0 4 7 4 7 0v-26c-2-6-8-5-13-5s-12-1-14 5v26c0 7 8 5 13 5s12 2 14-4c1-5-6-6-7-2zm28-1s1 0 0 0h-14c1 0 1 2 1 0v-33c0 1-2 1 0 1h14-1v33c0 4 7 4 7 0v-33c0-7-5-7-11-7-5 0-15-2-16 5v34c0 7 4 7 10 7 5 0 15 2 16-5 1-4-6-6-6-2zm28 0s1 0 0 0h-14c1 0 0 1 0 0v-44c0 1-1 1 1 1h13c-1 0-1-2-1 0v44c0 5 7 5 7 0v-37c0-5 2-11-3-14h-17c-7 0-7 6-7 11v39c0 8 8 7 13 7 6 0 13 2 14-5 1-5-6-6-6-2z" fill="#fff"/><path d="M228 230s2 0 0 0h-14l1 1v-59l-1 1h15s-1-2-1 0v58c0 5 7 5 7 0v-55c0-4 0-10-6-10h-9c-2 0-7-1-9 1-4 2-3 7-3 11v45c0 5-1 14 6 14 6 0 19 3 21-5 1-5-6-6-7-2zm-82 44l-2-6h-9l-1 6h-7a268 268 0 0 1 5-16 1162 1162 0 0 1 4-13h8a378 378 0 0 1 5 14l4 15h-7zm-6-24a196 196 0 0 0-1 4l-1 3a79 79 0 0 0-1 3v3h6a241 241 0 0 0 0-3 47 47 0 0 0-2-6 218 218 0 0 0-1-4zm27 25l-5-1a8 8 0 0 1-4-2l-2-4v-23h7v21l1 2 1 2h5a3 3 0 0 0 1-2 5 5 0 0 0 1-2v-21h7v19l-1 4a8 8 0 0 1-2 4 9 9 0 0 1-3 2 17 17 0 0 1-6 1zm40-30v5h-9v24h-7v-24h-9v-5h25zm3 14c0-4 1-8 3-11a11 11 0 0 1 9-4c4 0 7 1 9 4 3 3 4 6 4 12 0 5-1 9-4 11s-5 4-9 4-7-1-9-4c-2-2-3-6-3-11zm7 1a25 25 0 0 0 1 7 5 5 0 0 0 2 2l2 1 3-1a5 5 0 0 0 2-2l1-3a40 40 0 0 0 0-9 12 12 0 0 0-1-3 5 5 0 0 0-2-2 4 4 0 0 0-3-1l-2 1a5 5 0 0 0-2 2l-1 3a40 40 0 0 0 0 4z" fill="#fff"/></svg>