<svg xmlns="http://www.w3.org/2000/svg" width="361" height="361"><path fill="#fff" d="M181 156l-1-81 107 81z"/><path d="M186 156l-1-81-7 4 107 81 2-9H181c-7 0-7 10 0 10h106c6 0 7-7 3-10L183 70c-3-2-7 1-7 5v81c0 6 10 6 10 0z" fill="#fff"/><g fill="#fff"><path d="M180 156l1-81-107 81z"/><path d="M185 156l1-81c0-4-5-7-8-5L71 151c-4 3-3 10 3 10h106c7 0 7-10 0-10H74l2 9 107-81-7-4-1 81c0 6 10 6 10 0z"/></g><path d="M269 279c0 4-4 7-9 7H102c-5 0-9-3-9-7V150c0-4 176-4 176 0v129z" fill="none" stroke="#fff" stroke-width="10" stroke-miterlimit="10"/><g fill="#fff"><circle cx="181" cy="177" r="10"/><path d="M181 186a10 10 0 0 1 0-19 10 10 0 0 1 0 19zm0-19a9 9 0 0 0 0 19 9 9 0 0 0 0-19zm-10 64v39c0 5 8 5 8 0v-39c0-6-8-6-8 0zm12 0v39c0 5 8 5 8 0v-39c0-6-8-6-8 0z"/><path d="M191 231a5 5 0 0 1-5 5h-10a5 5 0 0 1-5-5v-38a5 5 0 0 1 4-4h12a5 5 0 0 1 4 5v37zm1-37v17c0 3 6 3 6 0v-17c0-4-6-4-6 0z"/><path d="M192 211v16c0 4 6 4 6 0v-16c0-4-6-4-6 0zm-28-17v17c0 3 6 3 6 0v-17c0-4-6-4-6 0z"/><path d="M164 211v16c0 4 6 4 6 0v-16c0-4-6-4-6 0z"/></g></svg>