<svg xmlns="http://www.w3.org/2000/svg" width="361" height="361"><path fill="#fff" d="M180.7 155.6l-.2-81 106.8 81z"/><path d="M185.7 155.6l-.2-81-7.5 4.3 106.7 81 2.6-9.3H180.7c-6.4 0-6.4 10 0 10h106.6c5.4 0 6.3-6.5 2.5-9.3L183 70.3c-3.1-2.4-7.5.8-7.5 4.3l.2 81c0 6.4 10 6.4 10 0z" fill="#fff"/><g fill="#fff"><path d="M180.3 155.6l.2-81-106.8 81z"/><path d="M185.3 155.6l.2-81c0-3.5-4.4-6.7-7.5-4.3l-106.8 81c-3.8 2.8-3 9.3 2.5 9.3h106.5c6.5 0 6.5-10 0-10H73.8l2.5 9.3 106.8-81-7.5-4.3-.2 81c0 6.4 10 6.4 10 0z"/></g><path d="M268.5 279c0 4-4 7-8.8 7H102c-4.8 0-8.7-3-8.7-7V149.6c0-4 175.3-4 175.3 0V279z" fill="none" stroke="#fff" stroke-width="10" stroke-miterlimit="10"/><g fill="#fff"><path d="M150.8 222.5c0-.4 1.1-.2 2.4-.2h57.6c.9 0 0-.1 0-.6v49c0 .8.7-.3.3-.3h-60.7c.5 0 .5 1.1.5.3v-49.1c0-4.5-7-4.5-7 0V271c0 6.3 6.3 6.3 10.8 6.3h56.5c6.2 0 6.6-5.7 6.6-10.3v-37.6c0-3.3.3-6.7-.4-10-1-4.5-6.4-4.2-10-4.2h-53.7c-4.2 0-8.6.3-9.7 5.3-1 4.5 5.8 6.3 6.7 2z"/><path d="M148.2 264.8H182c4.5 0 4.5-7 0-7h-33.8c-4.5 0-4.5 7 0 7zm1.6-13.6H182c4.5 0 4.5-7 0-7h-32.2c-4.5 0-4.5 7 0 7zm0-13.5H182c4.5 0 4.5-7 0-7h-32.2c-4.5 0-4.5 7 0 7zm11.6-21.3v-15.6c0-.6-.8 1.8.1.2.6-1.1 1.4-2.1 2-3 1.4-2 2.9-3.6 4.4-5.2 1.3-1.3-3 0 .2 0h24.5c2.3 0 .7.4-.5-.5a34 34 0 0 1 5 5.6 43.7 43.7 0 0 1 1.6 2.4c.7 1 .5 1.9.5.2v15.9c0 6.4 10 6.4 10 0v-13.5c0-4.8-1.8-8-4.8-11.7-2.6-3.4-6-8.5-10.7-8.5h-26.8c-4.7 0-8.1 5.1-10.7 8.5-3 3.8-4.8 7-4.8 11.7v13.5c0 6.4 10 6.4 10 0z"/></g></svg>