<svg xmlns="http://www.w3.org/2000/svg" width="361" height="361"><path fill="#fff" d="M181 156l-1-81 107 81z"/><path d="M186 156l-1-81-7 4 107 81 2-9H181c-7 0-7 10 0 10h106c6 0 7-7 3-10L183 70c-3-2-7 1-7 5v81c0 6 10 6 10 0z" fill="#fff"/><path fill="#fff" d="M180 156l1-81-107 81z"/><path d="M185 156l1-81c0-4-5-7-8-5L71 151c-4 3-3 10 3 10h106c7 0 7-10 0-10H74l2 9 107-81-7-4-1 81c0 6 10 6 10 0z" fill="#fff"/><path d="M269 279c0 4-4 7-9 7H102c-5 0-9-3-9-7V150c0-4 176-4 176 0v129z" fill="none" stroke="#fff" stroke-width="10" stroke-miterlimit="10"/><path d="M151 223l2-1h58c1 0 0 0 0 0v48h-61l1 1v-49c0-5-7-5-7 0v49c0 6 6 6 11 6h56c6 0 7-5 7-10v-38l-1-10c-1-4-6-4-10-4h-53c-4 0-9 1-10 6-1 4 6 6 7 2z" fill="#fff"/><path d="M148 265h34c5 0 5-7 0-7h-34c-4 0-4 7 0 7zm2-14h32c5 0 5-7 0-7h-32c-5 0-5 7 0 7zm0-13h32c5 0 5-7 0-7h-32c-5 0-5 7 0 7zm24-51l7-8 4-3c0-1-2 1 0 0l3-1h7c2 0-2-2 0 0l9 9 9 8c1 2 0 1 0 0a33 33 0 0 1-1 10c-1 1-1 2 0 0l-4 4a55808 55808 0 0 0-7 8c-5 4 2 11 7 7l9-10c4-3 4-7 5-12 1-4 2-10-2-13l-9-10-10-9c-3-3-9-2-13-2-5 1-8 2-12 5l-9 10c-5 4 2 11 7 7z" fill="#fff"/></svg>