<svg xmlns="http://www.w3.org/2000/svg" width="361" height="361"><path fill="#fff" d="M181 156l-1-81 107 81z"/><path d="M186 156l-1-81-7 4 107 81 2-9H181c-7 0-7 10 0 10h106c6 0 7-7 3-10L183 70c-3-2-7 1-7 5v81c0 6 10 6 10 0z" fill="#fff"/><path fill="#fff" d="M180 156l1-81-107 81z"/><path d="M185 156l1-81c0-4-5-7-8-5L71 151c-4 3-3 10 3 10h106c7 0 7-10 0-10H74l2 9 107-81-7-4-1 81c0 6 10 6 10 0z" fill="#fff"/><path d="M269 279c0 4-4 7-9 7H102c-5 0-9-3-9-7V150c0-4 176-4 176 0v129z" fill="none" stroke="#fff" stroke-width="10" stroke-miterlimit="10"/><path d="M206 223v19c0 5 7 5 7 0v-19c0-4-7-4-7 0z" fill="#fff"/><path d="M202 228l6 3c2 1 4 1 5-1s0-4-1-5a9946 9946 0 0 1-6-3 4 4 0 0 0-5 1 4 4 0 0 0 1 5z" fill="#fff"/><path d="M213 222l-5 3a4 4 0 0 0-1 5 4 4 0 0 0 4 1l6-3a4 4 0 0 0 1-5 4 4 0 0 0-5-1zm-22 13l17 10c4 2 7-4 4-6l-17-9c-4-3-7 3-3 6z" fill="#fff"/><path d="M194 241l5-3a4 4 0 0 0 2-5 4 4 0 0 0-5-1l-6 3a4 4 0 0 0-1 5 4 4 0 0 0 5 1z" fill="#fff"/><path d="M194 229v6c0 5 7 5 7 0v-6c0-5-7-5-7 0zm1 25l16-9c4-2 1-8-3-6l-16 9c-4 3-1 9 3 6z" fill="#fff"/><path d="M201 255v-6c0-5-7-5-7 0v6c0 5 7 5 7 0z" fill="#fff"/><path d="M190 249l6 3c2 1 4 0 5-1 1-2 0-4-1-5l-6-3a4 4 0 0 0-5 1 4 4 0 0 0 1 5z" fill="#fff"/><g fill="#fff"><path d="M213 261v-19c0-5-7-5-7 0v19c0 4 7 4 7 0z"/><path d="M217 256a9946 9946 0 0 1-5-3 4 4 0 0 0-5 1 4 4 0 0 0 1 5l5 3c2 1 4 0 5-1 1-2 1-4-1-5z"/><path d="M206 262l6-3a4 4 0 0 0 1-5 4 4 0 0 0-5-1l-6 3a4 4 0 0 0-1 5 4 4 0 0 0 5 1z"/></g><g fill="#fff"><path d="M228 249l-16-10c-4-2-8 4-4 6l16 10c4 2 8-4 4-6z"/><path d="M226 243l-6 3a4 4 0 0 0-1 5 4 4 0 0 0 5 1l5-3a4 4 0 0 0 1-5 4 4 0 0 0-4-1z"/><path d="M225 255v-6c0-5-7-5-7 0v6c0 5 7 5 7 0z"/></g><g fill="#fff"><path d="M224 230l-16 9c-4 2 0 8 4 6l16-9c4-3 0-9-4-6z"/><path d="M218 229v6c0 5 7 5 7 0v-6c0-5-7-5-7 0z"/><path d="M229 235a9946 9946 0 0 1-5-3 4 4 0 0 0-5 1 4 4 0 0 0 1 5l5 3c2 1 4 1 5-1s1-4-1-5z"/></g><path d="M158 243s1 0 0 0h-8c-2 0 0 1 0 1v-67c0-1-2 0 0 0h8v-1 68c0 5 7 5 7 0v-68c0-7-11-6-16-6-6 0-6 6-6 10v64c0 5 4 6 8 6 5 0 12 1 13-5 2-4-5-6-6-2z" fill="#fff"/><g fill="#fff"><path d="M165 265l-2 2h-19l-2-2v-16l2-3h19l2 3v15z"/><path d="M162 264h-16v-15l-1 1h18l-1-1v15c0 5 7 5 7 1v-13c0-4-1-9-6-9h-14c-4 0-9 0-10 5v13c0 4 0 10 5 10h14c4 0 10 0 11-6 0-4-6-6-7-1z"/></g><path d="M170 183h8c4 0 4-7 0-7h-8c-5 0-5 7 0 7zm0 17h8c4 0 4-7 0-7h-8c-5 0-5 7 0 7zm0 18h8c4 0 4-7 0-7h-8c-5 0-5 7 0 7zm0 19h8c4 0 4-7 0-7h-8c-5 0-5 7 0 7z" fill="#fff"/><g fill="#fff"><path d="M146 235h15v18h-15z"/><path d="M161 232h-15a4 4 0 0 0-3 3v18c0 2 1 4 3 4h15c2 0 4-2 4-4v-18c0-4-7-4-7 0v18l3-3h-15l4 3v-18l-4 4h15c5 0 5-7 0-7z"/></g></svg>