<svg xmlns="http://www.w3.org/2000/svg" width="361" height="361"><path fill="#fff" d="M180.7 155.6l-.2-81 106.8 81z"/><path d="M185.7 155.6l-.2-81-7.5 4.3 106.7 81 2.6-9.3H180.7c-6.4 0-6.4 10 0 10h106.6c5.4 0 6.3-6.5 2.5-9.3L183 70.3c-3.1-2.4-7.5.8-7.5 4.3l.2 81c0 6.4 10 6.4 10 0z" fill="#fff"/><path fill="#fff" d="M180.3 155.6l.2-81-106.8 81z"/><path d="M185.3 155.6l.2-81c0-3.5-4.4-6.7-7.5-4.3l-106.8 81c-3.8 2.8-3 9.3 2.5 9.3h106.5c6.5 0 6.5-10 0-10H73.8l2.5 9.3 106.8-81-7.5-4.3-.2 81c0 6.4 10 6.4 10 0z" fill="#fff"/><path d="M268.5 279c0 4-4 7-8.8 7H102c-4.8 0-8.7-3-8.7-7V149.6c0-4 175.3-4 175.3 0V279z" fill="none" stroke="#fff" stroke-width="10" stroke-miterlimit="10"/><path d="M150.8 222.5c0-.4 1.1-.2 2.4-.2h57.6c.9 0 0-.1 0-.6v49c0 .8.7-.3.3-.3h-60.7c.5 0 .5 1.1.5.3v-49.1c0-4.5-7-4.5-7 0V271c0 6.3 6.3 6.3 10.8 6.3h56.5c6.2 0 6.6-5.7 6.6-10.3v-37.6c0-3.3.3-6.7-.4-10-1-4.5-6.4-4.2-10-4.2h-53.7c-4.2 0-8.6.3-9.7 5.3-1 4.5 5.8 6.3 6.7 2z" fill="#fff"/><path d="M148.2 264.8H182c4.5 0 4.5-7 0-7h-33.8c-4.5 0-4.5 7 0 7zm1.6-13.6H182c4.5 0 4.5-7 0-7h-32.2c-4.5 0-4.5 7 0 7zm0-13.5H182c4.5 0 4.5-7 0-7h-32.2c-4.5 0-4.5 7 0 7zm24-51l7.7-7.6 3.3-3.4c.4-.3-1.7.8 0 .3 1.2-.4 2.4-.5 3.6-.7 2.2-.4 4.5-.5 6.7-.5 1.7 0-2-2.2.1 0l8.7 8.7 8.7 8.6c1.6 1.7.1.9 0-.6a32.8 32.8 0 0 1-1 10.2c-.3 1.2-1 1.8.2.6l-3.5 3.5a55808.4 55808.4 0 0 0-7.7 7.7c-4.6 4.6 2.5 11.7 7 7.1l9.5-9.5c3.5-3.4 4.3-7 5-11.9.5-4.2 1.7-10-1.7-13.4l-9.4-9.4-9.5-9.5c-3.3-3.3-9.2-2.2-13.4-1.6-4.8.6-8.4 1.4-11.9 5l-9.5 9.4c-4.5 4.6 2.5 11.6 7.1 7z" fill="#fff"/></svg>