<svg xmlns="http://www.w3.org/2000/svg" width="361" height="361"><path fill="#fff" d="M75.7 156.6l-.3-81 106.8 81z"/><path d="M80.7 156.6l-.3-81-7.5 4.3 106.8 81 2.5-9.3H75.7c-6.5 0-6.5 10 0 10h106.5c5.4 0 6.3-6.5 2.6-9.3L78 71.3c-3.2-2.4-7.6.8-7.6 4.3l.3 81c0 6.4 10 6.4 10 0z" fill="#fff"/><path d="M163.4 282c0 3.1-4.7 5.8-10.5 5.8H86c-5.8 0-10.6-2.7-10.6-5.9V159.4c0-3.2 4.8-5.8 10.6-5.8h66.9c5.8 0 10.5 2.6 10.5 5.8V282z" fill="none" stroke="#fff" stroke-width="10" stroke-miterlimit="10"/><path d="M128.4 281.4c0 3.1-2.6 5.7-6 5.7H99c-3.3 0-6-2.6-6-5.7v-68.1c0-3.2 2.7-5.7 6-5.7h23.5c3.4 0 6 2.5 6 5.7v68.1z" fill="none" stroke="#fff" stroke-width="10" stroke-miterlimit="10"/><g fill="#fff"><circle cx="232" cy="195.6" r="9.5"/><path d="M232 205.3a9.8 9.8 0 0 1 0-19.5 9.8 9.8 0 0 1 0 19.5zm0-19a9.3 9.3 0 0 0 0 18.6 9.3 9.3 0 0 0 0-18.6zm-1 63.8l4.5 38c.6 5.1 8.7 4.2 8-1a219794.9 219794.9 0 0 0-4.4-38c-.6-5.1-8.7-4.2-8 1z"/><path d="M239.2 250a4.7 4.7 0 0 1-4.7 4.8h-7a4.7 4.7 0 0 1-4.7-4.8v-37.9a4.7 4.7 0 0 1 4.7-4.7h7a4.7 4.7 0 0 1 4.7 4.7v38z"/><path d="M232.5 210.7l.6 16.6c.1 3.8 6 3.6 5.8-.2l-.5-16.6c-.2-3.8-6-3.6-5.9.2z"/><path d="M233.2 228.7L240 244c1.5 3.4 6.9 1 5.3-2.4l-6.6-15.2c-1.5-3.5-6.9-1.1-5.4 2.3zm-9.4-18.8l-8.4 14.4c-1.8 3.3 3.2 6.2 5.1 3l8.4-14.5c1.8-3.2-3.2-6.2-5.1-2.9z"/><path d="M216.1 228.1l13 10.5c2.9 2.4 6.6-2.2 3.6-4.6l-12.9-10.4c-3-2.4-6.6 2.1-3.7 4.5zm6.5 20.3l-.7 19.3c-.2 5.2 8 5.5 8.1.3l.7-19.2c.2-5.3-8-5.6-8.1-.4z"/><path d="M222 267l-5.3 18.5c-1.4 5 6.4 7.3 7.8 2.3l5.3-18.5c1.5-5-6.3-7.3-7.7-2.3z"/></g></svg>