<svg xmlns="http://www.w3.org/2000/svg" width="361" height="361"><path d="M180.8 166.1a16.3 16.3 0 1 1 0-32.6 16.3 16.3 0 0 1 0 32.6zm-14.6 62.3v57c0 7.6 11.8 7.7 11.8 0v-57c0-7.6-11.8-7.6-11.8 0zm17.7 0v57c0 7.6 11.8 7.7 11.8 0v-57c0-7.6-11.8-7.6-11.8 0z" fill="#fff"/><path d="M195.7 229.4a6.9 6.9 0 0 1-6.8 7h-16a6.9 6.9 0 0 1-7-7v-55a6.9 6.9 0 0 1 7-6.9h16a6.9 6.9 0 0 1 6.8 6.9v55z" fill="#fff"/><g fill="#fff"><path d="M197.3 175v24.2c0 5.5 8.5 5.5 8.5 0V175c0-5.5-8.5-5.5-8.5 0z"/><path d="M197.6 200.8l7 23c1.6 5.3 9.7 2.8 8.1-2.4l-7-23.1c-1.6-5.3-9.7-2.8-8.1 2.5zM155.9 175v24.2c0 5.5 8.5 5.5 8.5 0V175c0-5.5-8.5-5.5-8.5 0z"/><path d="M156 198.3l-7 23.1c-1.7 5.3 6.5 7.7 8 2.5l7.1-23.1c1.6-5.3-6.6-7.8-8.2-2.5z"/></g><path d="M208 242.2a2.8 2.8 0 0 1-2.8 2.8h-48.7a2.8 2.8 0 0 1-2.8-2.8l12-42.1a2.8 2.8 0 0 1 2.9-2.8H193a2.8 2.8 0 0 1 2.8 2.8l12 42.1z" fill="#fff"/></svg>