<svg xmlns="http://www.w3.org/2000/svg" width="361" height="361"><path fill="#fff" d="M180.7 155.6l-.2-81 106.8 81z"/><path d="M185.7 155.6l-.2-81-7.5 4.3 106.7 81 2.6-9.3H180.7c-6.4 0-6.4 10 0 10h106.6c5.4 0 6.3-6.5 2.5-9.3L183 70.3c-3.1-2.4-7.5.8-7.5 4.3l.2 81c0 6.4 10 6.4 10 0z" fill="#fff"/><path fill="#fff" d="M180.3 155.6l.2-81-106.8 81z"/><path d="M185.3 155.6l.2-81c0-3.5-4.4-6.7-7.5-4.3l-106.8 81c-3.8 2.8-3 9.3 2.5 9.3h106.5c6.5 0 6.5-10 0-10H73.8l2.5 9.3 106.8-81-7.5-4.3-.2 81c0 6.4 10 6.4 10 0z" fill="#fff"/><path d="M268.5 279c0 4-4 7-8.8 7H102c-4.8 0-8.7-3-8.7-7V149.6c0-4 175.3-4 175.3 0V279z" fill="none" stroke="#fff" stroke-width="10" stroke-miterlimit="10"/><path d="M223.6 232.2c.4-1.2-1.3 1.5-1.8 2a47.1 47.1 0 0 1-5.5 5.2c-6.1 5-13.6 8.2-21.1 10.3a73.7 73.7 0 0 1-26.5 2c-4-.4-11.5-1.7-13.3-6-1.8-4.8 4.9-8.7 8-10.5a60.8 60.8 0 0 1 25.3-6.8 91.8 91.8 0 0 1 23.8 1.3 50.7 50.7 0 0 1 8.5 2.3l2.5 1.4c1.2.7-.2 0 0-1.2-1.5 6.2 8.2 8.9 9.7 2.6 4-16.5-31.4-16.7-40.2-16.6-15.7.3-46 5.4-47.9 25.5-.7 7.4 5.8 12.9 12 15.3 10 4 21.4 3.4 32 2a69.4 69.4 0 0 0 31.4-12.3 34 34 0 0 0 12.7-13.9c2.4-6-7.3-8.6-9.6-2.6z" fill="#fff"/><path d="M137.5 270.3c0-11.4 17-18 25.5-21.3a196 196 0 0 1 64.1-11c6.5-.2 6.5-10.2 0-10-23.7.7-48.3 3.8-70.4 12.8-12.3 5-29.2 14-29.2 29.5 0 6.5 10 6.5 10 0zm1.7-60.6v-37.2h22.5v6.2h-15v8.3h13v6.1h-13v10.5H163v6h-23.9zm44 .8c-5.2 0-9.2-1.7-12-5a22 22 0 0 1-4.1-14.4c0-3 .4-5.8 1.2-8.2a18 18 0 0 1 3.5-6.1 14.8 14.8 0 0 1 5.4-3.8 17.4 17.4 0 0 1 6.7-1.3 17.6 17.6 0 0 1 8.4 2l1.2.7-1.9 5.9a14 14 0 0 0-7.8-2.2c-1.1 0-2.3.2-3.4.7a7.4 7.4 0 0 0-3 2c-.8 1-1.5 2.3-2 4a19.8 19.8 0 0 0-.8 6.1c0 4.2.7 7.5 2.2 9.8 1.4 2.2 3.8 3.3 7.1 3.3a14.7 14.7 0 0 0 7.8-2l1.9 5.9a18.5 18.5 0 0 1-4.2 1.8c-1.8.5-3.9.8-6.2.8zm13.9-19.4c0-6.4 1.2-11.2 3.5-14.5 2.4-3.3 5.7-4.9 9.9-4.9 4.3 0 7.6 1.6 10 4.9 2.2 3.3 3.3 8 3.3 14.5s-1.1 11.2-3.4 14.5a11.4 11.4 0 0 1-9.9 4.9c-4.3 0-7.7-1.7-10-5s-3.4-8-3.4-14.4zm7.5 0a39.4 39.4 0 0 0 1 9.2c.4 1.2 1 2 1.8 2.7a4.4 4.4 0 0 0 3 1c1.3 0 2.3-.3 3-1a6.5 6.5 0 0 0 1.9-2.8c.4-1.1.7-2.5.8-4a56.7 56.7 0 0 0-.8-14.3c-.4-1.2-1-2-1.8-2.8a4.4 4.4 0 0 0-3-1 5 5 0 0 0-3.1 1 6.7 6.7 0 0 0-1.8 2.8 16.7 16.7 0 0 0-.8 4.1 57 57 0 0 0-.2 5z" fill="#fff"/></svg>