<svg xmlns="http://www.w3.org/2000/svg" width="361" height="361"><path fill="#fff" d="M181 156l-1-81 107 81z"/><path d="M186 156l-1-81-7 4 107 81 2-9H181c-7 0-7 10 0 10h106c6 0 7-7 3-10L183 70c-3-2-7 1-7 5v81c0 6 10 6 10 0z" fill="#fff"/><path fill="#fff" d="M180 156l1-81-107 81z"/><path d="M185 156l1-81c0-4-5-7-8-5L71 151c-4 3-3 10 3 10h106c7 0 7-10 0-10H74l2 9 107-81-7-4-1 81c0 6 10 6 10 0z" fill="#fff"/><path d="M269 279c0 4-4 7-9 7H102c-5 0-9-3-9-7V150c0-4 176-4 176 0v129z" fill="none" stroke="#fff" stroke-width="10" stroke-miterlimit="10"/><path d="M129 241a38 38 0 0 1 14-51c4-2 0-8-3-6a45 45 0 0 0-17 61c2 4 8 0 6-4z" fill="#fff"/><path d="M180 255a38 38 0 0 1-51-14c-2-4-8 0-6 4a45 45 0 0 0 61 16c4-2 0-8-4-6zm-41-21c-6-11-9-36 4-44 4-2 0-8-3-6-17 11-15 39-7 54 3 4 9 0 7-4z" fill="#fff"/><path d="M180 255c-7 4-16 0-22-4-8-4-14-9-19-17-2-3-8 0-5 4 8 15 32 32 50 23 4-2 0-8-4-6z" fill="#fff"/><path d="M164 200a1 1 0 1 1-3 0 1 1 0 0 1 3 0zm10-21a3 3 0 0 1-5 0 3 3 0 0 1 5 0zm12 22a2 2 0 0 1-2 3h-1a2 2 0 0 1-2-3 2 2 0 0 1 2-3h1a2 2 0 0 1 2 3z" fill="#fff" stroke="#fff" stroke-miterlimit="10"/><path d="M227 240c0 2-2 4-4 4h-28c-2 0-3-2-3-4v-29c0-2 1-4 3-4h28c2 0 4 2 4 4v29z" fill="#fff" stroke="#fff" stroke-width="10" stroke-miterlimit="10"/><path d="M174 230a4 4 0 0 0 4 4h19a4 4 0 0 0 4-4v-11a4 4 0 0 0-4-4h-19a4 4 0 0 0-4 4v11z" fill="#fff" stroke="#fff" stroke-width="10" stroke-miterlimit="10"/><path d="M166 230a4 4 0 0 1 4-4h23a4 4 0 0 1 4 4v6a4 4 0 0 1-4 4h-23a4 4 0 0 1-4-4v-6zm47 6a4 4 0 0 0 4 4h19a4 4 0 0 0 4-4v-11a4 4 0 0 0-4-4h-19a4 4 0 0 0-4 4v11z" fill="#fff" stroke="#fff" stroke-width="10" stroke-miterlimit="10"/></svg>