<svg xmlns="http://www.w3.org/2000/svg" width="361" height="361"><path fill="#fff" d="M181 156l-1-81 107 81z"/><path d="M186 156l-1-81-7 4 107 81 2-9H181c-7 0-7 10 0 10h106c6 0 7-7 3-10L183 70c-3-2-7 1-7 5v81c0 6 10 6 10 0z" fill="#fff"/><path fill="#fff" d="M180 156l1-81-107 81z"/><path d="M185 156l1-81c0-4-5-7-8-5L71 151c-4 3-3 10 3 10h106c7 0 7-10 0-10H74l2 9 107-81-7-4-1 81c0 6 10 6 10 0z" fill="#fff"/><path d="M269 279c0 4-4 7-9 7H102c-5 0-9-3-9-7V150c0-4 176-4 176 0v129z" fill="none" stroke="#fff" stroke-width="10" stroke-miterlimit="10"/><path d="M224 232l-2 2a47 47 0 0 1-6 5c-6 5-13 9-21 11a74 74 0 0 1-26 2c-4-1-12-2-14-6-1-5 5-9 8-11a61 61 0 0 1 26-7 92 92 0 0 1 23 2 51 51 0 0 1 9 2l3 1v-1c-2 6 8 9 9 3 4-17-31-17-40-17-16 1-46 6-48 26-1 7 6 13 12 15 10 4 21 3 32 2a69 69 0 0 0 31-12 34 34 0 0 0 13-14c3-6-7-9-9-3z" fill="#fff"/><path d="M138 270c0-11 17-18 25-21a196 196 0 0 1 64-11c7 0 7-10 0-10-24 1-48 4-70 13-13 5-30 14-30 29 0 7 10 7 10 0zm1-60v-37h23v6h-15v8h13v6h-13v11h16v6h-24zm44 1c-5 0-9-2-12-5a22 22 0 0 1-4-15l1-8a18 18 0 0 1 4-6 15 15 0 0 1 5-4 17 17 0 0 1 7-1 18 18 0 0 1 8 2h1l-1 6a14 14 0 0 0-8-2l-4 1a7 7 0 0 0-3 2l-2 4a20 20 0 0 0 0 6c0 4 0 7 2 10 1 2 4 3 7 3a15 15 0 0 0 8-2l2 6a19 19 0 0 1-5 2l-6 1zm14-20c0-6 1-11 4-14 2-4 5-5 9-5 5 0 8 1 11 5 2 3 3 8 3 14s-1 11-4 15a11 11 0 0 1-9 5c-5 0-8-2-10-5s-4-8-4-15zm8 0a39 39 0 0 0 1 9l1 3a4 4 0 0 0 3 1l3-1a7 7 0 0 0 2-3l1-4a57 57 0 0 0-1-14l-1-3a4 4 0 0 0-3-1 5 5 0 0 0-4 1 7 7 0 0 0-1 3 17 17 0 0 0-1 4 57 57 0 0 0 0 5z" fill="#fff"/></svg>