<svg xmlns="http://www.w3.org/2000/svg" width="361" height="361"><path d="M181 166a16 16 0 1 1 0-33 16 16 0 0 1 0 33zm-15 62v57c0 8 12 8 12 0v-57c0-7-12-7-12 0zm18 0v57c0 8 12 8 12 0v-57c0-7-12-7-12 0z" fill="#fff"/><path d="M196 229a7 7 0 0 1-7 7h-16a7 7 0 0 1-7-7v-55a7 7 0 0 1 7-6h16a7 7 0 0 1 7 6v55z" fill="#fff"/><g fill="#fff"><path d="M197 175v24c0 6 9 6 9 0v-24c0-5-9-5-9 0z"/><path d="M198 201l7 23c1 5 9 3 8-3l-7-23c-2-5-10-2-8 3zm-42-26v24c0 6 8 6 8 0v-24c0-5-8-5-8 0z"/><path d="M156 198l-7 23c-2 6 7 8 8 3l7-23c2-5-7-8-8-3z"/></g><path d="M208 242a3 3 0 0 1-3 3h-49a3 3 0 0 1-2-3l12-42a3 3 0 0 1 3-3h24a3 3 0 0 1 3 3l12 42z" fill="#fff"/></svg>