<svg xmlns="http://www.w3.org/2000/svg" width="361" height="361"><path fill="#fff" d="M180.7 155.6l-.2-81 106.8 81z"/><path d="M185.7 155.6l-.2-81-7.5 4.3 106.7 81 2.6-9.3H180.7c-6.4 0-6.4 10 0 10h106.6c5.4 0 6.3-6.5 2.5-9.3L183 70.3c-3.1-2.4-7.5.8-7.5 4.3l.2 81c0 6.4 10 6.4 10 0z" fill="#fff"/><path fill="#fff" d="M180.3 155.6l.2-81-106.8 81z"/><path d="M185.3 155.6l.2-81c0-3.5-4.4-6.7-7.5-4.3l-106.8 81c-3.8 2.8-3 9.3 2.5 9.3h106.5c6.5 0 6.5-10 0-10H73.8l2.5 9.3 106.8-81-7.5-4.3-.2 81c0 6.4 10 6.4 10 0z" fill="#fff"/><path d="M268.5 279c0 4-4 7-8.8 7H102c-4.8 0-8.7-3-8.7-7V149.6c0-4 175.3-4 175.3 0V279z" fill="none" stroke="#fff" stroke-width="10" stroke-miterlimit="10"/><path d="M181 167h-1.3v.1h-.1a9.5 9.5 0 0 0-4.7 2.1.8.8 0 0 0-.1.1v.1h-.1a1.5 1.5 0 0 0 2 2.3 6.5 6.5 0 0 1 4.3-1.7c.9 0 1.5-.7 1.5-1.5s-.7-1.5-1.5-1.5zm-7.7 5.6c-.6 0-1.2.4-1.4 1v.4h-.1v.4a.3.3 0 0 0 0 .1h-.1v.4a8 8 0 0 0-.1.3v3.8h.1v.4h.1v.2l.1.1v.3h.1v.2l.1.1a1.5 1.5 0 0 0 2.8-1.2 6.5 6.5 0 0 1-.6-2.7c0-.7 0-1.4.3-2a1.5 1.5 0 0 0-1-2c0 .2-.1.2-.3.2zm3 9a1.5 1.5 0 0 0-.9 2.7 9.5 9.5 0 0 0 3 1.4h.1l.1.1a.2.2 0 0 0 .1 0h.2v.1h.5v.1h1v.1h1.6a1.5 1.5 0 0 0-.4-3 6 6 0 0 1-.7 0 6.5 6.5 0 0 1-3.8-1.2c-.2-.2-.5-.3-.8-.3zm12.6-5a1.5 1.5 0 0 0-1.5 1.3 6.5 6.5 0 0 1-2.5 4 1.5 1.5 0 1 0 1.7 2.3 9.6 9.6 0 0 0 3.1-3.9h.1v-.3h.1v-.2l.1-.1v-.2a9.4 9.4 0 0 0 .3-1 1.5 1.5 0 0 0-1.1-1.8.8.8 0 0 0-.3 0zm-4-8.5a1.5 1.5 0 0 0-.7 2.8 6.5 6.5 0 0 1 3 3.6 1.5 1.5 0 0 0 2.8-1 9.6 9.6 0 0 0-3-4.4h-.1l-.1-.1h-.1v-.1h-.2v-.1h-.1l-.1-.1a.3.3 0 0 1-.1 0v-.1a1.8 1.8 0 0 1-.1 0h-.1v-.1a10 10 0 0 0-.4-.2 1.1 1.1 0 0 0-.7-.2zm1.6 20.7h-7a1.5 1.5 0 1 0 0 3h7a1.5 1.5 0 0 0 0-3zm-11.7 0a1 1 0 0 0-.3 0 4.7 4.7 0 0 0-3.6 3.6v.1a.3.3 0 0 1 0 .1v.4h-.1v1.2a1.5 1.5 0 1 0 3 0v-.6c0-.8.6-1.5 1.4-1.7a1.5 1.5 0 0 0 1.1-1.8 1.6 1.6 0 0 0-1.5-1.2zm-2.6 8.7a1.5 1.5 0 0 0-1.4 1.5v7a1.5 1.5 0 1 0 3 0v-7a1.5 1.5 0 0 0-1.6-1.5zm0 12a1.5 1.5 0 0 0-1.4 1.5v7a1.5 1.5 0 1 0 3 0v-7a1.5 1.5 0 0 0-1.6-1.5zm0 12a1.5 1.5 0 0 0-1.4 1.5v7a1.5 1.5 0 1 0 3 0v-7a1.5 1.5 0 0 0-1.6-1.5zm.2 12a1.5 1.5 0 0 0-1.5 1.5v7a1.5 1.5 0 1 0 3 0v-7a1.5 1.5 0 0 0-1.5-1.5zm0 12a1.5 1.5 0 0 0-1.5 1.5v7a1.5 1.5 0 1 0 3 0v-7a1.5 1.5 0 0 0-1.5-1.5zm0 12a1.5 1.5 0 0 0-1.5 1.5v7a1.5 1.5 0 1 0 3 0v-7a1.5 1.5 0 0 0-1.5-1.5zm5.1 3.5a1.5 1.5 0 0 0-1.5 1.5v7c0 .5.3 1 .7 1.3a1.5 1.5 0 0 0-1.2 0 1.5 1.5 0 0 1-.5 0c-.2 0-1 0-1-.5a1.5 1.5 0 0 0-3 .7l.4 1v.1h.1v.2h.1v.1h.1v.1h.1v.1a4 4 0 0 0 2.1 1.2h1.3c.5 0 1 0 1.4-.2a1.5 1.5 0 0 0 .2-2.7 1.5 1.5 0 0 0 2-1.4v-7c.2-.8-.5-1.5-1.3-1.5zm0-12a1.5 1.5 0 0 0-1.5 1.5v7a1.5 1.5 0 1 0 3 0v-7a1.5 1.5 0 0 0-1.5-1.5zm0-12a1.5 1.5 0 0 0-1.5 1.5v7a1.5 1.5 0 1 0 3 0v-7a1.5 1.5 0 0 0-1.5-1.5zm5.6-3.9h-1.5a1.5 1.5 0 1 0 0 3h1.5v5.6a1.5 1.5 0 0 0 3 0V236a3 3 0 0 0-3-3zm1.5 12a1.5 1.5 0 0 0-1.5 1.6v7a1.5 1.5 0 0 0 3 0v-7a1.5 1.5 0 0 0-1.5-1.5zm0 12a1.5 1.5 0 0 0-1.5 1.6v7a1.5 1.5 0 0 0 3 0v-7a1.5 1.5 0 0 0-1.5-1.5zm5 4.3a1.5 1.5 0 0 0-1.4 1.5v7c0 .3 0 .6.3.9a1.5 1.5 0 0 0-.9 0 1.6 1.6 0 0 1-.4 0c-.3 0-1 0-1.1-.6a1.5 1.5 0 1 0-3 .5 3.8 3.8 0 0 0 3.1 3 .5.5 0 0 0 .1 0v.1h1l1.2-.1a1.5 1.5 0 0 0 .8-2.4 1.5 1.5 0 0 0 2-1.4v-7a1.5 1.5 0 0 0-1.6-1.5zm0-12a1.5 1.5 0 0 0-1.4 1.5v7a1.5 1.5 0 0 0 3 0v-7a1.5 1.5 0 0 0-1.5-1.5zm0-12a1.5 1.5 0 0 0-1.4 1.5v7a1.5 1.5 0 0 0 3 0v-7a1.5 1.5 0 0 0-1.5-1.5zm1.6-6h-1.5l1.5.2v-.2zm-1.5-6a1.5 1.5 0 0 0-1.5 1.5v4.4a4 4 0 0 0 0 .5v2a1.5 1.5 0 0 0 3 0v-2.2l-1.7-.2h1.7v-4.5a1.5 1.5 0 0 0-1.5-1.5zm0-12a1.5 1.5 0 0 0-1.5 1.5v7a1.5 1.5 0 0 0 3 0v-7a1.5 1.5 0 0 0-1.5-1.5zm0-12a1.5 1.5 0 0 0-1.5 1.5v7a1.5 1.5 0 0 0 3 0v-7a1.5 1.5 0 0 0-1.5-1.5zm-.5-11.1a1.5 1.5 0 0 0-1.2 2.3l.2.9v4.4a1.5 1.5 0 0 0 3 0v-5.1a.3.3 0 0 1 0-.1v-.1a.3.3 0 0 1 0-.1h-.1v-.2a6.4 6.4 0 0 0-.1-.2.7.7 0 0 1 0-.1v-.2h-.1v-.2h-.1v-.2h-.1v-.1a5.9 5.9 0 0 0-.2-.3 1.5 1.5 0 0 0-1.3-.7zm6 .8h-.5a3.3 3.3 0 0 0-.6.2h-.2v.1a.2.2 0 0 0-.1 0 2.8 2.8 0 0 0-.7.5l-.1.1v.1h-.1v.1h-.1v.1a2.7 2.7 0 0 0-.5 1 2.5 2.5 0 0 0 0 .2v3a1.5 1.5 0 0 0 2.8.6v3.8a1.5 1.5 0 0 0-2.8.6v7a1.5 1.5 0 0 0 2.8.6v3.8a1.5 1.5 0 0 0-2.8.6v7a1.5 1.5 0 0 0 2.8.6v3.8a1.5 1.5 0 0 0-2.8.6v2.5l.4 1h.1v.1h.1v.1h.1v.1l.1.1.7.4v.1h.2c.3.2.5.2.7.2h1.1a1.5 1.5 0 0 0 1-2.3 1.5 1.5 0 0 0 1.4-1.5v-7a1.5 1.5 0 0 0-2.9-.6V215a1.5 1.5 0 0 0 2.9-.7v-7a1.5 1.5 0 0 0-2.9-.6V203a1.5 1.5 0 0 0 2.9-.7v-7a1.5 1.5 0 0 0-1.4-1.5 1.5 1.5 0 0 0-.8-2.5h-.8zm.1 3.5v-.5h.3a1.5 1.5 0 0 0-.3.5zm0 32.4v-.2l.1.2a1.5 1.5 0 0 0-.1 0zm-28.6-35.9h-.4a3.3 3.3 0 0 0-.7.2h-.1v.1h-.1a2.8 2.8 0 0 0-.7.5h-.1v.1h-.1v.2h-.1v.1a2.7 2.7 0 0 0-.5 1 3.2 3.2 0 0 0 0 .2v2.9a1.5 1.5 0 0 0 2.9.6v3.8a1.5 1.5 0 0 0-2.9.6v7a1.5 1.5 0 0 0 2.9.6v3.8a1.5 1.5 0 0 0-2.9.6v7a1.5 1.5 0 0 0 2.9.6v3.8a1.5 1.5 0 0 0-2.9.6v2.2a2.7 2.7 0 0 0 .4 1.2v.1h.1v.1l.1.1a.1.1 0 0 0 0 .1.1.1 0 0 0 .1 0 2.7 2.7 0 0 0 .7.5.3.3 0 0 0 .1.1h.2c.2.2.4.2.6.2h1.1a1.5 1.5 0 0 0 1-2.3 1.5 1.5 0 0 0 1.4-1.5v-7a1.5 1.5 0 0 0-3-.6V215a1.5 1.5 0 0 0 3-.7v-7a1.5 1.5 0 0 0-3-.6V203a1.5 1.5 0 0 0 3-.7v-7a1.5 1.5 0 0 0-1.4-1.5 1.5 1.5 0 0 0-.9-2.5h-.7zm0 3.5v-.5h.1a1.5 1.5 0 0 0 .3 0 1.5 1.5 0 0 0-.3.5zm0 32.4v-.2l.2.2a1.5 1.5 0 0 0-.1 0z" fill="#fff"/></svg>