<svg xmlns="http://www.w3.org/2000/svg" width="361" height="361"><path fill="#fff" d="M64.7 155.6l-.3-81 106.8 81z"/><path d="M69.7 155.6l-.3-81-7.5 4.3 106.8 81 2.5-9.3H64.7c-6.5 0-6.5 10 0 10h106.5c5.4 0 6.3-6.5 2.6-9.3L67 70.3c-3.2-2.4-7.6.8-7.6 4.3l.3 81c0 6.4 10 6.4 10 0z" fill="#fff"/><path d="M152.4 281c0 3.1-4.7 5.8-10.5 5.8H75c-5.8 0-10.6-2.7-10.6-5.9V158.4c0-3.2 4.8-5.8 10.6-5.8h66.9c5.8 0 10.5 2.6 10.5 5.8V281z" fill="none" stroke="#fff" stroke-width="10" stroke-miterlimit="10"/><path d="M117.4 280.4c0 3.1-2.6 5.7-6 5.7H88c-3.3 0-6-2.6-6-5.7v-68.1c0-3.2 2.7-5.7 6-5.7h23.5c3.4 0 6 2.5 6 5.7v68.1z" fill="none" stroke="#fff" stroke-width="10" stroke-miterlimit="10"/><g fill="#fff"><circle cx="274.8" cy="194" r="9.5"/><path d="M274.8 203.7a9.8 9.8 0 0 1 0-19.5 9.8 9.8 0 0 1 0 19.5zm0-19a9.3 9.3 0 0 0 0 18.6 9.3 9.3 0 0 0 0-18.7zm-10 63.3v39.3c0 5.2 8 5.3 8 0v-39.2c0-5.2-8-5.3-8 0zm12.1 0v39.3c0 5.2 8.1 5.3 8.1 0v-39.2c0-5.2-8-5.3-8 0z"/><path d="M285 248.8a4.7 4.7 0 0 1-4.7 4.7h-11a4.7 4.7 0 0 1-4.7-4.7v-38a4.7 4.7 0 0 1 4.7-4.7h11a4.7 4.7 0 0 1 4.8 4.8v37.9zm1.2-37.5V228c0 3.7 5.8 3.7 5.8 0v-16.7c0-3.8-5.8-3.8-5.8 0z"/><path d="M286.2 228v16.6c0 3.8 5.8 3.8 5.8 0V228c0-3.8-5.8-3.8-5.8 0zm-28.5-16.7V228c0 3.7 5.8 3.7 5.8 0v-16.7c0-3.8-5.8-3.8-5.8 0z"/><path d="M257.6 228v16.6c0 3.8 6 3.8 6 0V228c0-3.8-6-3.8-6 0z"/></g><path d="M248.7 285.3l-.5 1 2.5-2.4c-2 .8-5.2.3-7.4.3h-33.7c-2.5 0-6.1.6-8.2-.3l2.4 2.4c-1.6-3.8-.3-10.8-.3-15v-11c0-1.6-.3-3.7.3-5.1l-2.4 2.4c2-.8 5.2-.3 7.4-.3h33.7c2.5 0 6-.5 8.2.3l-2.5-2.4c1.6 3.8.4 10.8.4 15v16c0 4.5 7 4.5 7 0v-27.3c0-2.2.2-4.4-1-6.4-2-3.5-9.6-2.2-12.9-2.2H202c-6.2 0-5.4 6.5-5.4 10.8v22.1c0 4.7 1.4 8 6.6 8h44c3.8 0 6.6 0 8.3-4 1.8-4.3-5-6-6.7-2z" fill="#fff"/><path d="M231.6 250.3h-11.2c-.3 0-.2.2.3.6v-3.6c0 .8-.7.6.3.6h10.8c-.4-.7-.5-.9-.5-.4v3.5c0 2 3 2 3 0 0-1.7.4-3.6-.5-5.1-.8-1.4-3.4-1-4.7-1h-7c-1.7 0-3.8-.1-4.3 1.9-.4 1.1-.5 4 .1 5 1 1.8 2.8 1.5 4.6 1.5h7c1.9 0 3.6.3 4.7-1.5 1-1.7-1.7-3.2-2.6-1.5zm-25.9 4.4v31.9c0 2 3 2 3 0v-32c0-1.9-3-1.9-3 0zm37.8-.3v32c0 1.9 3 1.9 3 0v-32c0-2-3-2-3 0zm-21.7 9.9c.2 1-5.2 2.1-6.1 2.4-1.5.6-2-3.3-2.4-4.4-.3-1 5.2-2.3 6-2.6 1.6-.4 2.1 3.4 2.5 4.6.6 1.8 3.5 1 2.9-.9-1-2.7-1.8-8-6-6.6-3.2 1-9.1 1.7-8.3 6.2.5 3 2 8 5.9 6.7 3.2-1 9.2-1.7 8.4-6.3-.3-1.8-3.2-1-3 .9z" fill="#fff"/></svg>