<svg xmlns="http://www.w3.org/2000/svg" width="361" height="361"><path fill="#fff" d="M180.7 155.6l-.2-81 106.8 81z"/><path d="M185.7 155.6l-.2-81-7.5 4.3 106.7 81 2.6-9.3H180.7c-6.4 0-6.4 10 0 10h106.6c5.4 0 6.3-6.5 2.5-9.3L183 70.3c-3.1-2.4-7.5.8-7.5 4.3l.2 81c0 6.4 10 6.4 10 0z" fill="#fff"/><path fill="#fff" d="M180.3 155.6l.2-81-106.8 81z"/><path d="M185.3 155.6l.2-81c0-3.5-4.4-6.7-7.5-4.3l-106.8 81c-3.8 2.8-3 9.3 2.5 9.3h106.5c6.5 0 6.5-10 0-10H73.8l2.5 9.3 106.8-81-7.5-4.3-.2 81c0 6.4 10 6.4 10 0z" fill="#fff"/><path d="M268.5 279c0 4-4 7-8.8 7H102c-4.8 0-8.7-3-8.7-7V149.6c0-4 175.3-4 175.3 0V279z" fill="none" stroke="#fff" stroke-width="10" stroke-miterlimit="10"/><path d="M192.2 191.5c7 0 16-1.8 20.2 5.1 2.4 3.8 1.1 11.2 1.1 15.4v24c0 4.7.8 10.1-.4 14.7-2 7.5-10.2 6.7-16 6.7h-39.6c-8 0-9.9-6.8-9.9-13.3v-37.5c0-5.5-.3-10.7 5.2-14 4.1-2.5 11.8-1.1 16.5-1.1 4.5 0 4.5-7 0-7-6 0-13.4-1.2-18.9 1.5-7 3.4-9.8 9.8-9.8 17.2v41.5c0 7 1.7 12.6 7.6 17 4.5 3.3 10.7 2.7 16 2.7h39.5c10.4 0 16.8-8.5 16.8-18.3v-28.6c0-6.9 1.6-16.8-1.5-23.3-5.3-11-16.6-9.7-26.8-9.7-4.5 0-4.5 7 0 7z" fill="#fff"/><path d="M177.3 181.3v49.2c0 4.5 7 4.5 7 0v-49.3c0-4.5-7-4.5-7 0z" fill="#fff"/></svg>