<svg xmlns="http://www.w3.org/2000/svg" width="361" height="361"><path fill="#fff" d="M65 156l-1-81 107 81z"/><path d="M70 156l-1-81-7 4 107 81 2-9H65c-7 0-7 10 0 10h106c6 0 6-7 3-10L67 70c-3-2-8 1-8 5l1 81c0 6 10 6 10 0z" fill="#fff"/><path d="M152 281c0 3-4 6-10 6H75c-6 0-11-3-11-6V158c0-3 5-5 11-5h67c6 0 10 2 10 5v123z" fill="none" stroke="#fff" stroke-width="10" stroke-miterlimit="10"/><path d="M117 280c0 3-2 6-6 6H88c-3 0-6-3-6-6v-68c0-3 3-5 6-5h24c3 0 6 2 6 5v68z" fill="none" stroke="#fff" stroke-width="10" stroke-miterlimit="10"/><g fill="#fff"><circle cx="275" cy="194" r="10"/><path d="M275 204a10 10 0 0 1 0-20 10 10 0 0 1 0 20zm0-19a9 9 0 0 0 0 18 9 9 0 0 0 0-18zm-10 63v39c0 6 8 6 8 0v-39c0-5-8-5-8 0zm12 0v39c0 6 8 6 8 0v-39c0-5-8-5-8 0z"/><path d="M285 249a5 5 0 0 1-5 5h-11a5 5 0 0 1-4-5v-38a5 5 0 0 1 4-5h11a5 5 0 0 1 5 5v38zm1-38v17c0 4 6 4 6 0v-17c0-3-6-3-6 0z"/><path d="M286 228v17c0 3 6 3 6 0v-17c0-4-6-4-6 0zm-28-17v17c0 4 5 4 5 0v-17c1-3-5-3-5 0z"/><path d="M258 228v17c0 3 6 3 6 0v-17c0-4-6-4-6 0z"/></g><path d="M249 285l-1 1 3-2h-50l3 2c-2-3-1-10-1-15v-11l1-5-3 3 8-1h33l9 1-3-3c2 4 1 11 1 15v16c0 5 7 5 7 0v-27l-1-6c-2-4-10-3-13-3h-40c-6 0-5 7-5 11v22c0 5 1 8 6 8h44c4 0 7 0 8-4 2-4-4-6-6-2z" fill="#fff"/><path d="M232 250h-12l1 1v-4 1h11-1v3c0 2 3 2 3 0v-5l-5-1h-7c-2 0-4 0-4 2v5c1 2 3 1 5 1h7c1 0 3 1 4-1s-1-3-2-2zm-26 5v32c0 2 3 2 3 0v-32c0-2-3-2-3 0zm37-1v32c1 2 4 2 4 0v-32c0-2-3-2-3 0zm-21 10l-6 3c-2 0-2-4-3-5l6-2c2-1 2 3 3 4 0 2 3 1 3-1-1-2-2-8-6-6-3 1-9 2-9 6 1 3 2 8 6 7s10-2 9-7c-1-1-3-1-3 1z" fill="#fff"/></svg>