<svg xmlns="http://www.w3.org/2000/svg" width="361" height="361"><path fill="#fff" d="M76 157l-1-81 107 81z"/><path d="M81 157l-1-81-7 4 107 81 2-9H76c-7 0-7 10 0 10h106c6 0 6-7 3-10L78 71c-3-2-8 1-8 5l1 81c0 6 10 6 10 0z" fill="#fff"/><path d="M163 282c0 3-4 6-10 6H86c-6 0-11-3-11-6V159c0-3 5-5 11-5h67c6 0 10 2 10 5v123z" fill="none" stroke="#fff" stroke-width="10" stroke-miterlimit="10"/><path d="M128 281c0 3-2 6-6 6H99c-3 0-6-3-6-6v-68c0-3 3-5 6-5h24c3 0 6 2 6 5v68z" fill="none" stroke="#fff" stroke-width="10" stroke-miterlimit="10"/><g fill="#fff"><circle cx="232" cy="196" r="10"/><path d="M232 205a10 10 0 0 1 0-19 10 10 0 0 1 0 19zm0-19a9 9 0 0 0 0 19 9 9 0 0 0 0-19zm-1 64l5 38c0 5 8 4 8-1a219795 219795 0 0 0-5-38c-1-5-9-4-8 1z"/><path d="M239 250a5 5 0 0 1-5 5h-6a5 5 0 0 1-5-5v-38a5 5 0 0 1 5-5h7a5 5 0 0 1 4 5v38z"/><path d="M233 211v16c0 4 6 4 6 0l-1-17c0-3-6-3-5 1z"/><path d="M233 229l7 15c2 3 7 1 5-2l-6-16c-2-3-7-1-6 3zm-9-19l-9 14c-1 4 4 6 5 3l9-14c2-3-3-6-5-3z"/><path d="M216 228l13 11c3 2 7-3 4-5l-13-10c-3-3-7 2-4 4zm7 20l-1 20c0 5 8 5 8 0l1-19c0-5-8-6-8-1z"/><path d="M222 267l-5 19c-2 5 6 7 7 2l6-19c1-5-6-7-8-2z"/></g></svg>