<svg xmlns="http://www.w3.org/2000/svg" width="361" height="361"><path d="M135.5 234.5c0 3-2.7 5.5-6 5.5h-22c-3.3 0-6-2.5-6-5.5V80.9c0-3 2.7-5.6 6-5.6h22c3.3 0 6 2.5 6 5.6v153.6z" fill="none" stroke="#fff" stroke-width="10" stroke-miterlimit="10"/><path d="M144.5 280.7c0 3.3-2.1 6-4.7 6H97.2c-2.6 0-4.7-2.7-4.7-6V246c0-3.3 2.1-6 4.7-6h42.6c2.6 0 4.7 2.7 4.7 6v34.7z" fill="#fff" stroke="#fff" stroke-width="10" stroke-miterlimit="10"/><path d="M148.5 91.3h18c6.5 0 6.5-10 0-10h-18c-6.5 0-6.5 10 0 10zm0 40h18c6.5 0 6.5-10 0-10h-18c-6.5 0-6.5 10 0 10zm0 41h18c6.5 0 6.5-10 0-10h-18c-6.5 0-6.5 10 0 10zm0 43h18c6.5 0 6.5-10 0-10h-18c-6.5 0-6.5 10 0 10z" fill="#fff"/><path fill="#fff" stroke="#fff" stroke-width="10" stroke-miterlimit="10" d="M101.5 105.2h34v150.5h-34z"/><path d="M180.5 110.2h106.3c6.5 0 6.5-10 0-10H180.5c-6.5 0-6.5 10 0 10zm11.7 20.2a95.1 95.1 0 0 1 2 4 209.7 209.7 0 0 1 2.3 5 266.3 266.3 0 0 1 2.5 5.5l2.2 5.3 2.3-5.3a251.3 251.3 0 0 1 2.4-5.5 205.8 205.8 0 0 1 2.4-5 94 94 0 0 1 2-4h6.8a178.2 178.2 0 0 1 1.6 16 847.5 847.5 0 0 1 1 17.3h-7.3a885 885 0 0 0-.4-10.6 287.2 287.2 0 0 0-.7-11.5l-1.9 4.5a642.8 642.8 0 0 0-2.1 4.9 606.1 606.1 0 0 1-2 4.6 808.4 808.4 0 0 0-1.6 3.8h-5.3a715.3 715.3 0 0 0-1.6-3.8 646.7 646.7 0 0 1-2-4.6 642.5 642.5 0 0 0-2.1-5 2328.5 2328.5 0 0 1-2-4.4l-.6 11.5a845.8 845.8 0 0 0-.4 10.6h-7.3a816.9 816.9 0 0 1 1-17.3 272.9 272.9 0 0 1 1.6-16h7.2zm56.5 33.3a115 115 0 0 0-1.2-3.6l-1.3-3.6h-13L232 160a150 150 0 0 0-1.2 3.6H223a590.5 590.5 0 0 1 3.6-10 346.8 346.8 0 0 1 3.3-8.6 299 299 0 0 1 3.2-7.6 169.4 169.4 0 0 1 3.2-7.1h7.1a255.2 255.2 0 0 1 6.5 14.7 346.3 346.3 0 0 1 3.3 8.6 600.5 600.5 0 0 1 3.5 10h-8zm-9-25.8a62.7 62.7 0 0 1-.7 2l-1.1 2.9-1.4 3.6a215.2 215.2 0 0 0-1.5 4.1h9.5l-1.5-4.1-1.4-3.6-1.1-3a92.4 92.4 0 0 0-.8-1.9zm42.2 25.8a104 104 0 0 0-3-5.7 20.6 20.6 0 0 0-4-4.8 38.7 38.7 0 0 0-1.6 2 63.4 63.4 0 0 0-2 2.9c-.8 1-1.4 2-2 3a46.6 46.6 0 0 0-1.3 2.6h-8.6a87.2 87.2 0 0 1 5-8 251.2 251.2 0 0 1 6.4-8.9l-10.9-16.4h9l6.4 9.6 6.5-9.6h8.5l-10.8 16a102.1 102.1 0 0 1 7 9.8 125.9 125.9 0 0 1 4.4 7.5h-9z" fill="#fff"/></svg>