<svg xmlns="http://www.w3.org/2000/svg" width="361" height="361"><path d="M184 128a136 136 0 0 1 13-3c6-1 11 1 16 3 8 2 16 7 24 7 8 1 16-4 23-7 5-2 10-4 16-3 5 0 10 2 14 3 2 1 3-2 1-3a136 136 0 0 0-13-3c-5-1-10 0-15 2-8 2-17 8-26 8-5 0-11-2-15-4l-10-4c-5-2-10-3-15-2l-14 3c-2 1-1 4 1 3z" fill="#fff"/><path d="M189 134c5-1 10-3 15-2 4 0 9 2 13 4 6 3 13 6 20 6 6 1 14-3 19-6a91 91 0 0 1 13-4c5-1 11 0 16 2 2 1 2-2 1-3a44 44 0 0 0-13-3c-5 0-10 3-14 4-7 3-14 7-22 7-7 1-15-4-21-6a57 57 0 0 0-14-4c-4-1-9 1-14 2-1 1-1 4 1 3z" fill="#fff"/><path d="M189 120c5-1 10-3 15-2 4 0 9 2 13 4 6 3 13 6 20 6 7 1 14-3 20-6a91 91 0 0 1 13-4c5-1 10 0 15 2 2 1 2-2 1-3a44 44 0 0 0-13-3c-5 0-10 3-14 4-7 3-14 7-22 7-7 1-14-4-21-6a57 57 0 0 0-14-4c-4-1-9 1-13 2-2 1-1 4 0 3zm93 67v100c0 6 10 6 10 0V187c0-6-10-6-10 0z" fill="#fff"/><path fill="none" stroke="#fff" stroke-width="10" stroke-miterlimit="10" d="M187 204l61-27m-56 42l66-7"/><path fill="#fff" d="M248 177l34 10-24 25z"/><path d="M247 182l33 10-2-9-24 26 8 2-9-36c-2-6-12-3-10 3l10 36c1 3 5 5 8 2l24-26a5 5 0 0 0-2-8l-34-10c-6-2-9 8-2 10zm-46 37a5 5 0 0 1-3 5l-6 2a5 5 0 0 1-6-4l-5-19a5 5 0 0 1 4-5l6-2c2 0 5 1 6 4l4 19zm20-6c1 3 0 5-2 5l-5 2c-2 0-4-1-5-4l-5-18c0-3 1-5 3-5l5-2c2 0 4 1 4 4l5 18zm22-4c1 3 0 6-2 7l-5 1c-2 0-4-2-5-4l-6-24c0-3 1-6 3-6l5-1c2-1 4 1 4 4l6 23z" fill="#fff"/><path d="M136 234c0 3-3 6-6 6h-22c-4 0-6-3-6-6V81c0-3 2-6 6-6h22c3 0 6 3 6 6v153z" fill="none" stroke="#fff" stroke-width="10" stroke-miterlimit="10"/><path d="M145 280c0 4-3 6-5 6H97c-2 0-4-2-4-6v-34c0-4 2-6 4-6h43c2 0 5 2 5 6v34z" fill="#fff" stroke="#fff" stroke-width="10" stroke-miterlimit="10"/><path d="M149 91h18c6 0 6-10 0-10h-18c-7 0-7 10 0 10zm0 40h18c6 0 6-10 0-10h-18c-7 0-7 10 0 10zm0 41h18c6 0 6-10 0-10h-18c-7 0-7 10 0 10zm0 43h18c6 0 6-10 0-10h-18c-7 0-7 10 0 10z" fill="#fff"/><path fill="#fff" stroke="#fff" stroke-width="10" stroke-miterlimit="10" d="M102 193h34v62h-34z"/></svg>