<svg xmlns="http://www.w3.org/2000/svg" width="361" height="361"><path d="M227 186v43c0 6 10 6 10 0v-43c0-6-10-6-10 0z" fill="#fff"/><path d="M217 195l13 7c5 3 10-6 5-9l-13-7c-6-3-11 5-5 9z" fill="#fff"/><path d="M242 186l-13 7c-5 4 0 12 5 9l13-7c5-4 0-12-5-9zm-50 25l37 22c6 3 11-6 5-9l-37-21c-6-4-11 5-5 8z" fill="#fff"/><path d="M195 224l12-7c6-3 1-12-5-9l-12 8c-6 3-1 12 5 8z" fill="#fff"/><path d="M200 199v14c0 6 10 6 10 0v-14c0-7-10-7-10 0zm-3 55l37-21c6-3 1-12-5-9l-37 22c-5 3 0 12 5 8z" fill="#fff"/><path d="M210 259v-15c0-6-10-6-10 0v15c0 6 10 6 10 0z" fill="#fff"/><path d="M190 241l12 8c6 3 11-6 5-9l-12-7c-6-4-11 5-5 8zm47 31v-43c0-7-10-7-10 0v43c0 6 10 6 10 0z" fill="#fff"/><path d="M247 263l-13-7c-5-4-10 5-5 8l13 8c6 3 11-6 5-9z" fill="#fff"/><path d="M222 272l13-8c5-3 0-11-5-8l-13 7c-6 3 0 12 5 9zm50-26l-37-21c-6-4-11 5-5 8l37 22c5 3 10-6 5-9z" fill="#fff"/><path d="M269 233l-12 7c-6 3-1 12 5 9l12-7c6-4 1-12-5-9z" fill="#fff"/><path d="M264 259v-15c0-6-10-6-10 0v15c0 6 10 6 10 0z" fill="#fff"/><g fill="#fff"><path d="M267 203l-38 22c-5 3 0 11 5 8l38-21c5-4 0-12-5-9z"/><path d="M254 199v14c0 7 10 7 10 0v-14c0-7-10-7-10 0z"/><path d="M274 216l-12-7c-6-4-11 5-5 8l12 7c6 4 11-5 5-8z"/></g><path d="M136 234c0 3-3 6-6 6h-22c-4 0-6-3-6-6V81c0-3 2-6 6-6h22c3 0 6 3 6 6v153z" fill="none" stroke="#fff" stroke-width="10" stroke-miterlimit="10"/><path d="M145 280c0 4-3 6-5 6H97c-2 0-4-2-4-6v-34c0-4 2-6 4-6h43c2 0 5 2 5 6v34z" fill="#fff" stroke="#fff" stroke-width="10" stroke-miterlimit="10"/><path d="M149 91h18c6 0 6-10 0-10h-18c-7 0-7 10 0 10zm0 40h18c6 0 6-10 0-10h-18c-7 0-7 10 0 10zm0 41h18c6 0 6-10 0-10h-18c-7 0-7 10 0 10zm0 43h18c6 0 6-10 0-10h-18c-7 0-7 10 0 10z" fill="#fff"/><path fill="#fff" stroke="#fff" stroke-width="10" stroke-miterlimit="10" d="M102 214h34v41h-34z"/></svg>