<svg xmlns="http://www.w3.org/2000/svg" width="361" height="361"><path d="M79.9 161a135 135 0 0 1 82.3-73.7c40-13 84-8 122.2 8.6 5.9 2.5 11-6.1 5-8.7-40.8-17.7-86.9-23.1-129.8-9.6A144 144 0 0 0 71.2 156c-2.6 5.9 6 11 8.7 5z" fill="#fff"/><path d="M79 162.1a144.8 144.8 0 0 1 101.2-42c38.6-.3 75.8 15.6 103.1 42.5 4.6 4.6 11.7-2.5 7-7A157.4 157.4 0 0 0 181.7 110a154.6 154.6 0 0 0-109.6 45c-4.6 4.6 2.5 11.7 7 7.1z" fill="#fff"/><path d="M282 92.4v66.7c0 6.5 10 6.5 10 0V92.4c0-6.4-10-6.4-10 0z" fill="#fff"/><path d="M178.2 253.7c0 2-1.7 3.5-3.8 3.5h-13.9c-2 0-3.8-1.6-3.8-3.5v-97c0-1.9 1.7-3.4 3.8-3.4h13.9c2 0 3.8 1.5 3.8 3.4v97z" fill="none" stroke="#fff" stroke-width="10" stroke-miterlimit="10"/><path d="M183.8 282.9c0 2-1.3 3.8-3 3.8H154c-1.6 0-3-1.7-3-3.8V261c0-2 1.4-3.8 3-3.8h26.9c1.6 0 3 1.7 3 3.8v21.9z" fill="#fff" stroke="#fff" stroke-width="10" stroke-miterlimit="10"/><path d="M193.3 165.8h11.4c6.4 0 6.4-10 0-10h-11.4c-6.5 0-6.5 10 0 10zm0 25.3h11.4c6.4 0 6.4-10 0-10h-11.4c-6.5 0-6.5 10 0 10zm0 25.9h11.4c6.4 0 6.4-10 0-10h-11.4c-6.5 0-6.5 10 0 10zm0 27.1h11.4c6.4 0 6.4-10 0-10h-11.4c-6.5 0-6.5 10 0 10z" fill="#fff"/><path fill="#fff" stroke="#fff" stroke-width="10" stroke-miterlimit="10" d="M156.7 222.5h21.5v44.6h-21.5z"/><path d="M231.6 179.3a41.6 41.6 0 0 0 5-2.5 32.6 32.6 0 0 0 2.5-1.7 16.6 16.6 0 0 0 2-1.8h4.4v29.1h-6.2v-21l-2.8 1.6-3 1.2-2-4.9zm37.3 8.5c0 4.9-1 8.6-2.8 11.3a9 9 0 0 1-7.7 3.9 9 9 0 0 1-7.7-4 19.3 19.3 0 0 1-2.8-11.2c0-2.5.2-4.6.7-6.5.5-1.9 1.2-3.4 2.1-4.7a9.5 9.5 0 0 1 3.4-3c1.2-.6 2.7-1 4.3-1 3.3 0 5.8 1.3 7.7 4 1.9 2.6 2.8 6.3 2.8 11.2zm-6.4 0c0-1.5 0-2.8-.2-4a14.3 14.3 0 0 0-.7-3 4.8 4.8 0 0 0-1.2-2c-.6-.6-1.2-.8-2-.8s-1.4.2-2 .7a5 5 0 0 0-1.2 2c-.3.9-.6 2-.7 3.1a36.5 36.5 0 0 0 .7 11 5 5 0 0 0 1.2 2.1c.6.5 1.2.7 2 .7s1.4-.2 2-.7a4.8 4.8 0 0 0 1.2-2c.3-.9.6-2 .7-3.1l.2-4zm29.2 0a20 20 0 0 1-2.7 11.3c-2 2.6-4.5 3.9-7.8 3.9s-5.8-1.3-7.6-4a19.3 19.3 0 0 1-2.9-11.2c0-2.5.3-4.6.8-6.5a14.2 14.2 0 0 1 2.1-4.7c1-1.3 2-2.3 3.3-3s2.8-1 4.4-1a9 9 0 0 1 7.6 4c2 2.6 2.9 6.3 2.9 11.2zm-6.3 0a31.9 31.9 0 0 0-1-7 4.8 4.8 0 0 0-1.2-2c-.5-.6-1.2-.8-2-.8s-1.4.2-2 .7a5.1 5.1 0 0 0-1.2 2l-.7 3.1a34.2 34.2 0 0 0 .7 11c.4 1 .8 1.6 1.3 2.1s1.2.7 2 .7a3 3 0 0 0 2-.7 4.8 4.8 0 0 0 1.2-2 32.6 32.6 0 0 0 .9-7.1zM90.9 187c0 4.9-1 8.7-2.8 11.3-1.8 2.6-4.4 3.9-7.7 3.9s-5.8-1.3-7.7-4A19.3 19.3 0 0 1 70 187c0-2.4.3-4.6.8-6.5.5-1.8 1.2-3.4 2-4.7a9.4 9.4 0 0 1 3.4-3 10 10 0 0 1 4.3-1 9 9 0 0 1 7.7 4C90 178.4 91 182 91 187zm-6.4 0c0-1.5 0-2.8-.2-4a14.3 14.3 0 0 0-.6-3 4.8 4.8 0 0 0-1.3-2 2.9 2.9 0 0 0-2-.8c-.8 0-1.4.2-2 .7a5 5 0 0 0-1.2 2c-.3 1-.6 2-.7 3.1a34 34 0 0 0-.2 4 24.9 24.9 0 0 0 .9 7 5.1 5.1 0 0 0 1.3 2.1c.5.5 1.1.7 2 .7.7 0 1.4-.2 1.9-.7a4.8 4.8 0 0 0 1.2-2c.4-.9.6-1.9.7-3.1a34.7 34.7 0 0 0 .2-4z" fill="#fff"/></svg>