<svg xmlns="http://www.w3.org/2000/svg" width="361" height="361"><path d="M227 186v43c0 6.4 10 6.4 10 0v-43c0-6.4-10-6.4-10 0z" fill="#fff"/><path d="M217 194.7l12.5 7.2c5.6 3.2 10.6-5.4 5-8.7L222 186c-5.6-3.2-10.7 5.4-5 8.7z" fill="#fff"/><path d="M241.8 186l-12.5 7.3c-5.6 3.2-.6 11.8 5 8.6l12.5-7.2c5.6-3.3.6-12-5-8.7zM192 211.3l37.2 21.5c5.6 3.2 10.6-5.4 5-8.6L197 202.7c-5.6-3.2-10.6 5.4-5 8.6z" fill="#fff"/><path d="M194.6 224.3l12.5-7.2c5.6-3.2.6-11.9-5-8.7l-12.5 7.3c-5.6 3.2-.6 11.8 5 8.6z" fill="#fff"/><path d="M199.5 198.5v14.4c0 6.5 10 6.5 10 0v-14.4c0-6.5-10-6.5-10 0zm-2.3 55.8l37.2-21.5c5.6-3.3.6-11.9-5-8.7l-37.2 21.5c-5.6 3.2-.6 11.9 5 8.6z" fill="#fff"/><path d="M209.7 258.6v-14.5c0-6.4-10-6.4-10 0v14.5c0 6.4 10 6.4 10 0z" fill="#fff"/><path d="M189.7 241.4l12.6 7.2c5.6 3.2 10.6-5.4 5-8.6l-12.5-7.3c-5.6-3.2-10.7 5.5-5 8.7zm47.2 30.2v-43c0-6.5-10-6.5-10 0v43c0 6.4 10 6.4 10 0z" fill="#fff"/><path d="M247 263l-12.6-7.3c-5.6-3.2-10.6 5.4-5 8.6l12.5 7.3c5.6 3.2 10.6-5.5 5-8.7z" fill="#fff"/><path d="M222 271.6l12.6-7.3c5.6-3.2.5-11.8-5-8.6l-12.6 7.2c-5.6 3.3-.5 11.9 5 8.7zm49.8-25.7l-37.2-21.4c-5.6-3.3-10.7 5.4-5 8.6l37.1 21.5c5.6 3.2 10.7-5.4 5-8.7z" fill="#fff"/><path d="M269.2 233l-12.5 7.2c-5.6 3.2-.5 11.8 5 8.6l12.6-7.2c5.6-3.2.5-11.9-5-8.7z" fill="#fff"/><path d="M264.3 258.8v-14.5c0-6.4-10-6.4-10 0v14.5c0 6.4 10 6.4 10 0z" fill="#fff"/><g fill="#fff"><path d="M266.6 203l-37.2 21.5c-5.6 3.2-.5 11.8 5 8.6l37.3-21.5c5.6-3.2.5-11.8-5-8.6z"/><path d="M254.2 198.7V213c0 6.5 10 6.5 10 0v-14.4c0-6.5-10-6.5-10 0z"/><path d="M274.1 215.9l-12.5-7.3c-5.6-3.2-10.6 5.5-5 8.7l12.5 7.2c5.6 3.2 10.6-5.4 5-8.6z"/></g><path d="M135.5 234.1c0 3-2.7 5.6-6 5.6h-22c-3.3 0-6-2.5-6-5.6V80.5c0-3 2.7-5.5 6-5.5h22c3.3 0 6 2.5 6 5.5v153.6z" fill="none" stroke="#fff" stroke-width="10" stroke-miterlimit="10"/><path d="M144.5 280.3c0 3.3-2.1 6-4.7 6H97.2c-2.6 0-4.7-2.7-4.7-6v-34.6c0-3.4 2.1-6 4.7-6h42.6c2.6 0 4.7 2.6 4.7 6v34.6z" fill="#fff" stroke="#fff" stroke-width="10" stroke-miterlimit="10"/><path d="M148.5 91.3h18c6.5 0 6.5-10 0-10h-18c-6.5 0-6.5 10 0 10zm0 40h18c6.5 0 6.5-10 0-10h-18c-6.5 0-6.5 10 0 10zm0 41h18c6.5 0 6.5-10 0-10h-18c-6.5 0-6.5 10 0 10zm0 43h18c6.5 0 6.5-10 0-10h-18c-6.5 0-6.5 10 0 10z" fill="#fff"/><path fill="#fff" stroke="#fff" stroke-width="10" stroke-miterlimit="10" d="M101.5 213.6h34v41h-34z"/></svg>