<svg xmlns="http://www.w3.org/2000/svg" width="361" height="361"><path d="M136 235c0 3-3 5-6 5h-22c-4 0-6-2-6-5V81c0-3 2-6 6-6h22c3 0 6 3 6 6v154z" fill="none" stroke="#fff" stroke-width="10" stroke-miterlimit="10"/><path d="M145 281c0 3-3 6-5 6H97c-2 0-4-3-4-6v-35c0-3 2-6 4-6h43c2 0 5 3 5 6v35z" fill="#fff" stroke="#fff" stroke-width="10" stroke-miterlimit="10"/><path d="M149 91h18c6 0 6-10 0-10h-18c-7 0-7 10 0 10zm0 40h18c6 0 6-10 0-10h-18c-7 0-7 10 0 10zm0 41h18c6 0 6-10 0-10h-18c-7 0-7 10 0 10zm0 43h18c6 0 6-10 0-10h-18c-7 0-7 10 0 10z" fill="#fff"/><path fill="#fff" stroke="#fff" stroke-width="10" stroke-miterlimit="10" d="M102 105h34v151h-34z"/><path d="M181 110h106c6 0 6-10 0-10H181c-7 0-7 10 0 10zm11 20a95 95 0 0 1 2 4 210 210 0 0 1 2 5 266 266 0 0 1 3 6l2 5 2-5a251 251 0 0 1 3-6 206 206 0 0 1 2-5 94 94 0 0 1 2-4h7a178 178 0 0 1 2 16 848 848 0 0 1 1 18h-8a885 885 0 0 0 0-11 287 287 0 0 0-1-11l-2 4a643 643 0 0 0-2 5 606 606 0 0 1-2 5 808 808 0 0 0-1 3h-6a715 715 0 0 0-1-3 647 647 0 0 1-2-5 643 643 0 0 0-2-5 2329 2329 0 0 1-2-4l-1 11a846 846 0 0 0 0 11h-8a817 817 0 0 1 1-18 273 273 0 0 1 2-16h7zm57 34a115 115 0 0 0-2-4l-1-4h-13l-1 4a150 150 0 0 0-1 4h-8a591 591 0 0 1 4-10 347 347 0 0 1 3-9 299 299 0 0 1 3-8 169 169 0 0 1 3-7h7a255 255 0 0 1 7 15 346 346 0 0 1 3 9 601 601 0 0 1 4 10h-8zm-9-26a63 63 0 0 1-1 2l-1 3-1 3a215 215 0 0 0-2 4h10l-2-4-1-3-2-3a92 92 0 0 0 0-2zm42 26a104 104 0 0 0-3-6 21 21 0 0 0-4-5 39 39 0 0 0-2 2 63 63 0 0 0-2 3l-2 3a47 47 0 0 0-1 3h-9a87 87 0 0 1 5-8 251 251 0 0 1 7-9l-11-17h9l6 10 7-10h8l-11 16a102 102 0 0 1 7 10 126 126 0 0 1 5 8h-9z" fill="#fff"/></svg>