<svg xmlns="http://www.w3.org/2000/svg" width="361" height="361"><path d="M136 234c0 3-3 6-6 6h-22c-4 0-6-2-6-6V81c0-3 2-6 6-6h22c3 0 6 3 6 6v153z" fill="none" stroke="#fff" stroke-width="10" stroke-miterlimit="10"/><path d="M145 281c0 3-3 6-5 6H97c-2 0-4-3-4-6v-35c0-3 2-6 4-6h43c2 0 5 3 5 6v35z" fill="#fff" stroke="#fff" stroke-width="10" stroke-miterlimit="10"/><path d="M149 91h18c6 0 6-10 0-10h-18c-7 0-7 10 0 10zm0 40h18c6 0 6-10 0-10h-18c-7 0-7 10 0 10zm0 41h18c6 0 6-10 0-10h-18c-7 0-7 10 0 10zm0 43h18c6 0 6-10 0-10h-18c-7 0-7 10 0 10z" fill="#fff"/><path fill="#fff" stroke="#fff" stroke-width="10" stroke-miterlimit="10" d="M102 193h34v63h-34z"/><g fill="#fff"><path d="M289 276h-7c-5 0-5 7 0 7h7c4 0 4-7 0-7zm-27-3h-8c-4 0-4 7 0 7h8c5 0 5-7 0-7zm3-11h-15c-4 0-4 7 0 7h15c5 0 5-7 0-7zm-25 23h-6c-2 0-3 2-3 3s1 4 3 4h6c2 0 4-2 4-4s-2-3-4-3zm46-19h-2c-2 0-4 2-4 4s2 3 4 3h2c2 0 3-1 3-3s-1-4-3-4z"/><path d="M269 283h2c2 0 3-1 3-3s-1-4-3-4h-2c-2 0-4 2-4 4s2 3 4 3zm-85 9h6c2 0 4-2 4-4s-2-3-4-3h-6c-2 0-3 2-3 4s1 3 3 3zm90-21h6c2 0 3-2 3-3s-1-4-3-4h-6c-2 0-3 2-3 4s1 3 3 3zm-80-11h-9c-5 0-5 7 0 7h9c4 0 4-7 0-7zm32 19h9c5 0 5-7 0-7h-9c-4 0-4 7 0 7zm-17-11h16c5 0 5-7 0-7h-16c-4 0-4 7 0 7zm1 11h6c2 0 3-2 3-4s-1-3-3-3h-6c-2 0-4 1-4 3s2 4 4 4z"/><path d="M223 273h2c2 0 4-2 4-4s-2-3-4-3h-2c-2 0-3 1-3 3s1 4 3 4zm-6 12h-6c-2 0-3 2-3 3s1 4 3 4h6c2 0 4-2 4-4s-2-3-4-3zm59 0h-15c-4 0-4 7 0 7h15c5 0 5-7 0-7z"/><path d="M238 265h-6c-2 0-4 2-4 3s2 4 4 4h6c2 0 3-2 3-4s-1-3-3-3zm-45 5h-9c-4 0-4 7 0 7h9c5 0 5-7 0-7zm10 15h-16c-5 0-5 7 0 7h16c4 0 4-7 0-7zm4-8h-6c-2 0-3 2-3 3s1 4 3 4h6c2 0 4-2 4-4s-2-3-4-3z"/><path d="M189 281h-2c-2 0-3 1-3 3s1 4 3 4h2c2 0 4-2 4-4s-2-3-4-3zm6-9h11c4 0 4-7 0-7h-11c-5 0-5 7 0 7zm20 1h-16c-4 0-4 7 0 7h16c5 0 5-7 0-7zm29 9h9c5 0 5-7 0-7h-9c-4 0-4 7 0 7zm-5-14h3c2 0 3-2 3-4s-1-3-3-3h-3c-2 0-4 1-4 3s2 4 4 4zm24 4h6c2 0 3-1 3-3s-1-4-3-4h-6c-2 0-4 2-4 4s2 3 4 3zm12 16h6c1 0 3-1 3-3s-2-4-3-4h-6c-2 0-3 2-3 4s1 3 3 3zm-56 1h2c2 0 4-2 4-4s-2-3-4-3h-2c-2 0-3 2-3 3s1 4 3 4z"/><path d="M215 279h2c2 0 4-2 4-4s-2-3-4-3h-2c-1 0-3 1-3 3s2 4 3 4zm42 6h-5c-2 0-4 1-4 3s2 4 4 4h5c2 0 4-2 4-4s-2-3-4-3zm32-1h-2c-2 0-4 1-4 3s2 4 4 4h2c2 0 3-2 3-4s-1-3-3-3zm-19-9h-2c-2 0-4 2-4 4s2 3 4 3h2c2 0 3-2 3-3s-1-4-3-4z"/><path d="M258 280h6c2 0 3-2 3-3s-1-4-3-4h-6c-2 0-3 2-3 4s1 3 3 3zm21-13h10c4 0 4-7 0-7h-10c-4 0-4 7 0 7zm-57 21h11c5 0 5-7 0-7h-11c-5 0-5 7 0 7zm-38-38h7c4 0 4-7 0-7h-7c-5 0-5 7 0 7zm23-3h8c5 0 5-7 0-7h-8c-4 0-4 7 0 7zm-3-11h15c5 0 5-7 0-7h-15c-5 0-5 7 0 7zm25 23h6c2 0 4-2 4-3s-2-4-4-4h-6c-2 0-3 2-3 4s1 3 3 3zm-45-19h2c2 0 3-1 3-3s-1-4-3-4h-2c-2 0-4 2-4 4s2 3 4 3z"/><path d="M201 244h-2c-2 0-4 1-4 3s2 4 4 4h2c2 0 3-2 3-4s-1-3-3-3zm87 5h-6c-2 0-3 2-3 4s1 3 3 3h6c2 0 4-1 4-3s-2-4-4-4zm-93-18h-5c-2 0-4 2-4 4s2 3 4 3h5c2 0 4-2 4-3s-2-4-4-4zm85 3h9c4 0 4-7 0-7h-9c-5 0-5 7 0 7zm-37 5h-9c-4 0-4 7 0 7h9c5 0 5-7 0-7zm17-11h-16c-5 0-5 7 0 7h16c4 0 4-7 0-7zm0 11h-6c-2 0-4 2-4 4s2 3 4 3h6c2 0 3-2 3-3l-3-4z"/><path d="M246 233h-2c-2 0-3 2-3 4s1 3 3 3h2c2 0 4-2 4-3s-2-4-4-4zm6 26h6c2 0 4-1 4-3s-2-4-4-4h-6c-2 0-3 2-3 4s1 3 3 3zm-59 2h15c5 0 5-7 0-7h-15c-5 0-5 7 0 7z"/><path d="M232 239h6c2 0 3-1 3-3s-1-4-3-4h-6c-2 0-4 2-4 4s2 3 4 3zm47 5h9c5 0 5-7 0-7h-9c-4 0-4 7 0 7zm-13 15h16c4 0 4-7 0-7h-16c-5 0-5 7 0 7zm-4-8h6c2 0 4-2 4-3s-2-4-4-4h-6c-2 0-3 2-3 4s1 3 3 3z"/><path d="M280 255h2c2 0 4-2 4-4s-2-3-4-3h-2c-2 0-3 2-3 3s1 4 3 4zm-5-25h-12c-4 0-4 7 1 7h11c4 0 4-7 0-7zm-21 17h16c5 0 5-7 0-7h-16c-4 0-4 7 0 7zm-29-5h-9c-4 0-4 7 0 7h9c5 0 5-7 0-7zm6-14h-4c-1 0-3 1-3 3s2 4 3 4h4c2 0 3-2 3-4s-1-3-3-3zm-24 4h-6c-2 0-4 2-4 4s2 3 4 3h6c2 0 3-1 3-3s-1-4-3-4zm-13 16h-5c-2 0-4 2-4 4s2 3 4 3h5c2 0 4-1 4-3s-2-4-4-4zm56 1h-2c-2 0-3 2-3 4s1 3 3 3h2c2 0 4-1 4-3s-2-4-4-4z"/><path d="M254 239h-2c-2 0-3 2-3 4s1 3 3 3h2c2 0 4-2 4-3s-2-4-4-4zm-42 20h6c2 0 3-2 3-4s-1-3-3-3h-6c-2 0-3 2-3 3l3 4zm-28-1h2c2 0 4-2 4-3s-2-4-4-4h-2c-1 0-3 2-3 4s2 3 3 3zm16-9h2c2 0 3-1 3-3s-1-4-3-4h-2c-2 0-4 2-4 4s2 3 4 3z"/><path d="M211 238h-5c-2 0-4 2-4 4s2 3 4 3h5c2 0 4-1 4-3s-2-4-4-4zm-18-11h-9c-5 0-5 7 0 7h9c5 0 5-7 0-7zm55 21h-12c-4 0-4 7 0 7h12c4 0 4-7 0-7z"/></g><path d="M182 230h109c2 0 2-3 0-3H182c-2 0-2 3 0 3z" fill="#fff"/><g fill="#fff"><path d="M209 227c0-15 0-43 21-43 3 0 3-3 1-3-24 0-25 29-25 46 0 2 3 2 3 0z"/><path d="M203 227c0-18 5-43 28-43 2 0 2-3 0-3-25 0-30 26-31 46 0 2 3 2 3 0z"/><path d="M220 227c0-8 0-16 2-23 1-4 3-6 5-9 1-1-1-3-2-2-3 3-5 5-6 9-2 8-2 17-2 25 0 2 3 2 3 0z"/><path d="M216 227c0-8 0-16 3-23 1-4 5-6 8-9 1-1-1-3-3-2-3 3-6 5-7 9-4 7-4 17-4 25 0 2 3 2 3 0zm-20 0c0-7 0-16-3-23a11 11 0 0 0-3-3l-2-2c0-2-3-2-3 0s2 3 4 5c5 5 4 16 4 23 0 2 3 2 3 0z"/><path d="M201 227c-1-7-1-15-5-21l-8-8c-2-1-4 1-2 2l8 7 2 6 3 15c0 2 3 1 2-1zm74 0c0-7-1-14 2-21 1-3 4-5 6-7s-1-4-2-2l-7 7c-3 7-2 16-2 23 0 2 3 2 3 0z"/><path d="M269 227c0-7 0-15 4-21 2-4 6-5 10-7 1-1 0-4-2-3-4 2-8 4-11 8-4 6-4 16-4 23 0 2 3 2 3 0zm15 0c0-6-1-15 4-20l4-3c0-2-3-2-3 0l-5 3c-3 6-3 14-3 20 0 2 3 2 3 0z"/><path d="M278 228c1-5 2-13 5-17l8-7c2-1-1-3-2-2l-8 7c-4 4-5 12-6 18 0 2 3 3 3 1zm-13-1c0-4 0-10-2-14a8 8 0 0 0-2-2 13 13 0 0 0-1-1c-1 0 0 0 0 0-1-2-4-2-3 0 0 2 1 2 2 3 4 3 3 10 3 14 0 2 3 2 3 0z"/><path d="M269 227c-1-4-1-9-4-13l-6-5c-1-1-3 1-2 2l6 5 1 3 2 9c0 2 3 1 3-1zm-18 1c0-7 0-14-2-21-1-3-4-5-6-7-1-2-3 0-2 2 2 2 4 3 5 6 2 6 2 14 2 20 0 2 3 2 3 0z"/><path d="M255 228c0-7 0-15-3-21-2-4-6-5-9-8-2-1-3 2-2 3 3 2 6 3 8 6 3 6 3 14 3 20 0 2 3 2 3 0zm-15 0c0-4 0-8-3-11a7 7 0 0 0-2-2h-1c-1-1 0 0 0 0-1-2-4-1-3 1l3 2c3 2 3 7 3 10 0 2 3 2 3 0z"/><path d="M244 227c-1-3-1-7-4-9l-7-4c-2-1-3 2-1 3l6 3c2 1 3 6 3 8 1 2 4 1 3-1z"/></g></svg>