<svg xmlns="http://www.w3.org/2000/svg" width="361" height="361"><path d="M187 235c0 3-3 5-6 5h-22c-4 0-6-2-6-5V81c0-3 2-6 6-6h22c3 0 6 3 6 6v154z" fill="none" stroke="#fff" stroke-width="10" stroke-miterlimit="10"/><path d="M196 281c0 3-3 6-5 6h-43c-2 0-4-3-4-6v-35c0-3 2-6 4-6h43c2 0 5 3 5 6v35z" fill="#fff" stroke="#fff" stroke-width="10" stroke-miterlimit="10"/><path d="M200 92h18c6 0 6-10 0-10h-18c-7 0-7 10 0 10zm0 40h18c6 0 6-10 0-10h-18c-7 0-7 10 0 10zm0 41h18c6 0 6-10 0-10h-18c-7 0-7 10 0 10zm0 43h18c6 0 6-10 0-10h-18c-7 0-7 10 0 10z" fill="#fff"/><path fill="#fff" stroke="#fff" stroke-width="10" stroke-miterlimit="10" d="M153 185h34v71h-34z"/></svg>