<svg xmlns="http://www.w3.org/2000/svg" width="361" height="361"><path fill="#fff" d="M75 156V75l107 81z"/><path d="M80 156V75l-8 4 107 81 3-9H75c-6 0-6 10 0 10h107c5 0 6-6 2-9L77 71c-3-3-7 1-7 4v81c0 7 10 7 10 0z" fill="#fff"/><path d="M163 282c0 3-5 5-11 5H85c-5 0-10-2-10-5V159c0-3 5-6 10-6h67c6 0 11 3 11 6v123z" fill="none" stroke="#fff" stroke-width="10" stroke-miterlimit="10"/><path d="M128 281c0 3-3 6-6 6H98c-3 0-6-3-6-6v-68c0-3 3-6 6-6h24c3 0 6 3 6 6v68zm128-32c0 2-2 4-4 4h-16c-3 0-5-2-5-4V137c0-3 2-4 4-4h17c2 0 4 1 4 4v112z" fill="none" stroke="#fff" stroke-width="10" stroke-miterlimit="10"/><path d="M262 282c0 3-1 5-3 5h-31c-2 0-3-2-3-5v-25c0-2 1-4 3-4h31c2 0 3 2 3 4v25z" fill="#fff" stroke="#fff" stroke-width="10" stroke-miterlimit="10"/><path d="M273 146h13c7 0 7-10 1-10h-14c-6 0-6 10 0 10zm0 29h13c7 0 7-10 1-10h-14c-6 0-6 10 0 10zm0 30h13c7 0 7-10 1-10h-14c-6 0-6 10 0 10zm0 32h13c7 0 7-10 1-10h-14c-6 0-6 10 0 10z" fill="#fff"/><path fill="#fff" stroke="#fff" stroke-width="10" stroke-miterlimit="10" d="M231 213h25v51h-25z"/></svg>