<svg xmlns="http://www.w3.org/2000/svg" width="361" height="361"><path d="M251.2 198.8v21.5c0 1.9 3 1.9 3 0v-21.5c0-2-3-2-3 0z" fill="#fff"/><path d="M245.7 202.2l6.2 3.7c1.7 1 3.2-1.7 1.5-2.7l-6.2-3.5c-1.7-1-3.2 1.6-1.5 2.5z" fill="#fff"/><path d="M258 199.6l-6.2 3.7c-1.7 1-.1 3.5 1.5 2.5l6.3-3.6c1.7-1 .2-3.5-1.5-2.6zm-24.8 11l18.6 10.7c1.7 1 3.2-1.6 1.5-2.6L234.8 208c-1.6-1-3.1 1.6-1.5 2.6z" fill="#fff"/><path d="M233.5 217l6.3-3.6c1.6-1 .1-3.5-1.6-2.6l-6.2 3.7c-1.7 1-.2 3.5 1.5 2.6z" fill="#fff"/><path d="M237.4 205v7.2c0 2 3 2 3 0V205c0-2-3-2-3 0zm-2.6 27l18.6-10.7c1.7-1 .2-3.6-1.5-2.6l-18.6 10.7c-1.7 1-.2 3.6 1.5 2.6z" fill="#fff"/><path d="M240.5 235v-7.2c0-1.9-3-1.9-3 0v7.3c0 1.9 3 1.9 3 0z" fill="#fff"/><path d="M232 225.6l6.3 3.6c1.7 1 3.2-1.6 1.5-2.6l-6.2-3.6c-1.7-1-3.2 1.6-1.5 2.6zm22.1 16V220c0-2-3-2-3 0v21.4c0 2 3 2 3 0z" fill="#fff"/><path d="M259.6 238.1l-6.2-3.6c-1.7-1-3.2 1.6-1.5 2.6l6.2 3.6c1.7 1 3.2-1.6 1.5-2.6z" fill="#fff"/><path d="M247.2 240.7l6.3-3.6c1.6-1 .1-3.6-1.5-2.6l-6.3 3.6c-1.7 1-.2 3.6 1.5 2.6z" fill="#fff"/><g fill="#fff"><path d="M272 229.6l-18.5-10.7c-1.7-1-3.2 1.6-1.5 2.5l18.6 10.8c1.6 1 3.1-1.6 1.5-2.6z"/><path d="M271.8 223.1l-6.3 3.6c-1.6 1-.1 3.6 1.6 2.6l6.2-3.6c1.7-1 .2-3.6-1.5-2.6z"/><path d="M267.9 235.2v-7.3c0-1.9-3-1.9-3 0v7.3c0 1.9 3 1.9 3 0z"/></g><g fill="#fff"><path d="M270.5 208.1L252 219c-1.7 1-.2 3.5 1.5 2.6l18.6-10.8c1.7-1 .2-3.5-1.5-2.6z"/><path d="M264.8 205.1v7.2c0 2 3 2 3 0v-7.2c0-2-3-2-3 0z"/><path d="M273.2 214.6l-6.2-3.7c-1.7-1-3.2 1.7-1.5 2.6l6.2 3.6c1.7 1 3.2-1.6 1.5-2.5z"/></g><path d="M135.5 234.1c0 3-2.7 5.6-6 5.6h-22c-3.3 0-6-2.5-6-5.6V80.5c0-3 2.7-5.5 6-5.5h22c3.3 0 6 2.5 6 5.5v153.6z" fill="none" stroke="#fff" stroke-width="10" stroke-miterlimit="10"/><path d="M144.5 280.3c0 3.3-2.1 6-4.7 6H97.2c-2.6 0-4.7-2.7-4.7-6v-34.6c0-3.4 2.1-6 4.7-6h42.6c2.6 0 4.7 2.6 4.7 6v34.6z" fill="#fff" stroke="#fff" stroke-width="10" stroke-miterlimit="10"/><path d="M148.5 91.3h18c6.5 0 6.5-10 0-10h-18c-6.5 0-6.5 10 0 10zm0 40h18c6.5 0 6.5-10 0-10h-18c-6.5 0-6.5 10 0 10zm0 41h18c6.5 0 6.5-10 0-10h-18c-6.5 0-6.5 10 0 10zm0 43h18c6.5 0 6.5-10 0-10h-18c-6.5 0-6.5 10 0 10z" fill="#fff"/><path fill="#fff" stroke="#fff" stroke-width="10" stroke-miterlimit="10" d="M101.5 167.3h34v87.4h-34z"/><path d="M217.4 282.2c0 3.2 3.2 5.9 7 5.9H280c3.9 0 7-2.7 7-6V80.8c0-3.2-3.1-5.9-7-5.9h-55.6c-3.8 0-7 2.7-7 6v201.4z" fill="none" stroke="#fff" stroke-width="10" stroke-miterlimit="10"/><path d="M235.8 140.4a16.4 16.4 0 1 0 32.9 0c0-3.5-1.3-6.3-2.3-9.4-2-5.4-8.6-24.5-14.2-24.5s-12.5 19.9-14.2 24.6c-1 3-2.2 5.8-2.2 9.3z" fill="#fff"/></svg>