<svg xmlns="http://www.w3.org/2000/svg" width="361" height="361"><path d="M237 281c0 3-3 6-6 6h-24c-3 0-6-3-6-6v-68c0-3 3-6 6-6h24c3 0 6 3 6 6v68zm-99-33c0 1-1 2-3 2h-11c-1 0-3-1-3-3v-73c0-2 2-3 3-3h11c2 0 3 1 3 2v74z" fill="none" stroke="#fff" stroke-width="10" stroke-miterlimit="10"/><path d="M142 270l-2 3h-21l-2-3v-17c0-2 1-3 2-3h21c1 0 2 1 2 3v17z" fill="#fff" stroke="#fff" stroke-width="10" stroke-miterlimit="10"/><path d="M149 182h9a5 5 0 1 0 0-10h-9c-2 0-5 2-5 5s3 5 5 5zm0 19h9a5 5 0 1 0 0-10h-9c-2 0-5 2-5 5s3 5 5 5zm0 20h9c3 0 5-3 5-5s-2-5-5-5h-9c-2 0-5 2-5 5s3 5 5 5zm0 20h9a5 5 0 1 0 0-10h-9c-2 0-5 3-5 5s3 5 5 5z" fill="#fff"/><path fill="#fff" stroke="#fff" stroke-width="10" stroke-miterlimit="10" d="M121 224h17v34h-17z"/><path d="M274 281c0 3-3 6-7 6H94a6 6 0 0 1-6-6V162a6 6 0 0 1 6-6h173a6 6 0 0 1 7 6v119z" fill="none" stroke="#fff" stroke-width="10" stroke-miterlimit="10"/><path d="M79 161l105-81h-5l105 81 2-10H77c-6 0-6 10 0 10h210c6 0 7-6 3-9L184 71h-5L74 152c-5 4 0 13 5 9z" fill="#fff"/></svg>