<svg xmlns="http://www.w3.org/2000/svg" width="361" height="361"><path d="M236.8 281c0 3.1-2.6 5.7-6 5.7h-23.5c-3.3 0-6-2.6-6-5.7v-68.2c0-3 2.7-5.6 6-5.6h23.5c3.4 0 6 2.5 6 5.7v68zm-99-33.5c0 1.5-1.3 2.7-3 2.7h-10.5c-1.6 0-3-1.2-3-2.7v-74c0-1.5 1.4-2.7 3-2.7h10.6c1.6 0 2.9 1.2 2.9 2.6v74z" fill="none" stroke="#fff" stroke-width="10" stroke-miterlimit="10"/><path d="M142.1 269.8c0 1.6-1 2.9-2.3 2.9h-20.5c-1.3 0-2.3-1.3-2.3-3v-16.6c0-1.6 1-3 2.3-3h20.5c1.3 0 2.3 1.4 2.3 3v16.7z" fill="#fff" stroke="#fff" stroke-width="10" stroke-miterlimit="10"/><path d="M149.3 181.5h8.7a5 5 0 1 0 0-10h-8.7c-2.7 0-5 2.3-5 5s2.3 5 5 5zm0 19.3h8.7a5 5 0 1 0 0-10h-8.7c-2.7 0-5 2.3-5 5s2.3 5 5 5zm0 19.8h8.7c2.7 0 5-2.3 5-5s-2.3-5-5-5h-8.7c-2.7 0-5 2.3-5 5s2.3 5 5 5zm0 20.7h8.7a5 5 0 1 0 0-10h-8.7c-2.7 0-5 2.3-5 5s2.3 5 5 5z" fill="#fff"/><path fill="#fff" stroke="#fff" stroke-width="10" stroke-miterlimit="10" d="M121.4 223.7h16.4v34h-16.4z"/><path d="M273.6 281c0 3.4-2.8 6.2-6.2 6.2h-173a6.1 6.1 0 0 1-6-6.1V162a6 6 0 0 1 6-6.2h173a6.1 6.1 0 0 1 6.2 6.1v119z" fill="none" stroke="#fff" stroke-width="10" stroke-miterlimit="10"/><path d="M78.6 160.8l105.2-81.2h-5l105.1 81.2 2.6-9.4H76c-6.4 0-6.4 10 0 10h210.4c5.4 0 6.2-6.4 2.5-9.3l-105.2-81c-1.2-1-3.8-1-5 0L73.6 152c-5 3.9 0 12.6 5 8.7z" fill="#fff"/></svg>