<svg xmlns="http://www.w3.org/2000/svg" width="361" height="361"><path fill="#fff" d="M75 156.2l-.2-81 106.8 81z"/><path d="M80 156.2l-.2-81-7.5 4.3 106.8 81 2.5-9.3H75.1c-6.5 0-6.5 10 0 10h106.5c5.4 0 6.3-6.5 2.6-9.4l-106.8-81c-3.2-2.3-7.6 1-7.6 4.4l.3 81c0 6.4 10 6.4 10 0z" fill="#fff"/><path d="M162.8 281.5c0 3.2-4.7 5.8-10.5 5.8H85.4c-5.8 0-10.6-2.6-10.6-5.8V159c0-3.2 4.8-5.8 10.6-5.8h66.9c5.8 0 10.5 2.6 10.5 5.8v122.5z" fill="none" stroke="#fff" stroke-width="10" stroke-miterlimit="10"/><path d="M127.8 281c0 3.1-2.6 5.7-6 5.7H98.3c-3.3 0-6-2.6-6-5.7v-68.2c0-3 2.7-5.6 6-5.6h23.5c3.4 0 6 2.5 6 5.7v68zm128-32.4c0 2.2-1.9 4-4.3 4h-16c-2.5 0-4.4-1.8-4.4-4v-112c0-2.3 2-4 4.4-4h16c2.4 0 4.4 1.7 4.4 4v112z" fill="none" stroke="#fff" stroke-width="10" stroke-miterlimit="10"/><path d="M262.4 282.3c0 2.4-1.5 4.4-3.4 4.4h-31c-2 0-3.5-2-3.5-4.4V257c0-2.4 1.6-4.4 3.5-4.4h31c2 0 3.4 2 3.4 4.4v25.3z" fill="#fff" stroke="#fff" stroke-width="10" stroke-miterlimit="10"/><path d="M273.4 146.3h13.1c6.5 0 6.5-10 0-10h-13.1c-6.5 0-6.5 10 0 10zm0 29.1h13.1c6.5 0 6.5-10 0-10h-13.1c-6.5 0-6.5 10 0 10zm0 30h13.1c6.5 0 6.5-10 0-10h-13.1c-6.5 0-6.5 10 0 10zm0 31.3h13.1c6.5 0 6.5-10 0-10h-13.1c-6.5 0-6.5 10 0 10z" fill="#fff"/><path fill="#fff" stroke="#fff" stroke-width="10" stroke-miterlimit="10" d="M231 212.6h25V264h-25z"/></svg>