<svg xmlns="http://www.w3.org/2000/svg" width="361" height="361"><path d="M80 161a135 135 0 0 1 82-74c40-13 84-8 122 9 6 2 11-6 5-9-40-18-87-23-129-9a144 144 0 0 0-89 78c-2 6 6 11 9 5z" fill="#fff"/><path d="M79 162a145 145 0 0 1 101-42c39 0 76 16 103 43 5 4 12-3 7-7a157 157 0 0 0-108-46 155 155 0 0 0-110 45c-5 5 3 12 7 7z" fill="#fff"/><path d="M282 92v67c0 7 10 7 10 0V92c0-6-10-6-10 0z" fill="#fff"/><path d="M178 254c0 2-2 3-4 3h-14c-2 0-3-1-3-3v-97c0-2 1-4 3-4h14c2 0 4 2 4 4v97z" fill="none" stroke="#fff" stroke-width="10" stroke-miterlimit="10"/><path d="M184 283c0 2-1 4-3 4h-27c-2 0-3-2-3-4v-22c0-2 1-4 3-4h27c2 0 3 2 3 4v22z" fill="#fff" stroke="#fff" stroke-width="10" stroke-miterlimit="10"/><path d="M193 166h12c6 0 6-10 0-10h-12c-6 0-6 10 0 10zm0 25h12c6 0 6-10 0-10h-12c-6 0-6 10 0 10zm0 26h12c6 0 6-10 0-10h-12c-6 0-6 10 0 10zm0 27h12c6 0 6-10 0-10h-12c-6 0-6 10 0 10z" fill="#fff"/><path fill="#fff" stroke="#fff" stroke-width="10" stroke-miterlimit="10" d="M157 223h21v44h-21z"/><path d="M232 179a42 42 0 0 0 5-2 33 33 0 0 0 2-2 17 17 0 0 0 2-2h4v29h-6v-21l-2 2-3 1-2-5zm37 9c0 5-1 8-3 11a9 9 0 0 1-8 4 9 9 0 0 1-7-4 19 19 0 0 1-3-11l1-7 2-4a10 10 0 0 1 3-3l4-1c4 0 6 1 8 4 2 2 3 6 3 11zm-7 0v-4a14 14 0 0 0 0-3 5 5 0 0 0-2-2l-2-1-2 1a5 5 0 0 0-1 2v3a37 37 0 0 0 0 11 5 5 0 0 0 1 2l2 1 2-1a5 5 0 0 0 2-2v-3l1-4zm30 0a20 20 0 0 1-3 11c-2 3-4 4-8 4s-6-1-7-4a19 19 0 0 1-3-11v-7a14 14 0 0 1 3-4l3-3 4-1a9 9 0 0 1 8 4c2 2 3 6 3 11zm-7 0a32 32 0 0 0-1-7 5 5 0 0 0-1-2l-2-1-2 1a5 5 0 0 0-1 2l-1 3a34 34 0 0 0 1 11l1 2 2 1a3 3 0 0 0 2-1 5 5 0 0 0 2-2 33 33 0 0 0 0-7zm-194-1c0 5-1 9-3 11-2 3-4 4-8 4s-5-1-7-4a19 19 0 0 1-3-11l1-6 2-5a9 9 0 0 1 3-3 10 10 0 0 1 5-1 9 9 0 0 1 7 4c2 2 3 6 3 11zm-6 0l-1-4a14 14 0 0 0 0-3 5 5 0 0 0-2-2 3 3 0 0 0-2-1l-2 1a5 5 0 0 0-1 2v3a34 34 0 0 0-1 4 25 25 0 0 0 1 7 5 5 0 0 0 2 2l2 1 1-1a5 5 0 0 0 2-2v-3a35 35 0 0 0 1-4z" fill="#fff"/></svg>