<svg xmlns="http://www.w3.org/2000/svg" width="361" height="361"><path d="M135.5 234.5c0 3-2.7 5.5-6 5.5h-22c-3.3 0-6-2.5-6-5.5V80.9c0-3 2.7-5.6 6-5.6h22c3.3 0 6 2.5 6 5.6v153.6z" fill="none" stroke="#fff" stroke-width="10" stroke-miterlimit="10"/><path d="M144.5 280.7c0 3.3-2.1 6-4.7 6H97.2c-2.6 0-4.7-2.7-4.7-6V246c0-3.3 2.1-6 4.7-6h42.6c2.6 0 4.7 2.7 4.7 6v34.7z" fill="#fff" stroke="#fff" stroke-width="10" stroke-miterlimit="10"/><path d="M148.5 91.3h18c6.5 0 6.5-10 0-10h-18c-6.5 0-6.5 10 0 10zm0 40h18c6.5 0 6.5-10 0-10h-18c-6.5 0-6.5 10 0 10zm0 41h18c6.5 0 6.5-10 0-10h-18c-6.5 0-6.5 10 0 10zm0 43h18c6.5 0 6.5-10 0-10h-18c-6.5 0-6.5 10 0 10z" fill="#fff"/><path fill="#fff" stroke="#fff" stroke-width="10" stroke-miterlimit="10" d="M101.5 193.2h34v62.5h-34z"/><path d="M180.5 200.2h106.3c6.5 0 6.5-10 0-10H180.5c-6.5 0-6.5 10 0 10zm11.7-69.8a95.1 95.1 0 0 1 2 4 209.7 209.7 0 0 1 2.3 5 266.3 266.3 0 0 1 2.5 5.5l2.2 5.3 2.3-5.3a251.3 251.3 0 0 1 2.4-5.6 205.8 205.8 0 0 1 2.4-5 94 94 0 0 1 2-3.9h6.8a178.2 178.2 0 0 1 1.6 16 847.5 847.5 0 0 1 1 17.3h-7.3a885 885 0 0 0-.4-10.6 287.2 287.2 0 0 0-.7-11.5l-1.9 4.4a642.8 642.8 0 0 0-2.1 5 606.1 606.1 0 0 1-2 4.6 808.4 808.4 0 0 0-1.6 3.8h-5.3a715.3 715.3 0 0 0-1.6-3.8 646.7 646.7 0 0 1-2-4.6 642.5 642.5 0 0 0-2.1-5 2328.5 2328.5 0 0 1-2-4.4l-.6 11.5a845.8 845.8 0 0 0-.4 10.6h-7.3a816.9 816.9 0 0 1 1-17.3 272.9 272.9 0 0 1 1.6-16h7.2zm34.2 0h7.5v33.3h-7.5v-33.3zm37.5 33.3a168 168 0 0 0-7-11.3 114.5 114.5 0 0 0-8-10.5v21.8h-7.3v-33.3h6a59 59 0 0 1 3.6 3.9 144.5 144.5 0 0 1 3.9 5 174.4 174.4 0 0 1 4 5.3 272.5 272.5 0 0 1 3.6 5.4v-19.6h7.5v33.3h-6.3z" fill="#fff"/></svg>