<svg xmlns="http://www.w3.org/2000/svg" width="361" height="361"><path d="M184 128.2a136.4 136.4 0 0 1 12.8-3.2c6-1.1 11.1.7 16.6 2.7 7.6 2.8 15.3 7.2 23.6 7.6 7.6.3 15.7-4.6 22.6-7.2 5.3-2 10.7-4.1 16.4-3.3 4.8.7 9.5 2 14 3.4 1.9.6 2.7-2.3.8-2.9a136.4 136.4 0 0 0-12.8-3.2c-5.4-1-9.8-.1-15 1.6-8.4 2.7-17 8.2-26 8.6-5 .2-11-2.7-15.5-4.6L212 124c-5-1.7-9.6-2.9-15-2-4.7.6-9.3 2-14 3.3-1.8.6-1 3.5.9 3z" fill="#fff"/><path d="M189.2 134.2c4.5-1.6 9.6-3.2 14.4-2.4 4.6.7 9 2.6 13.3 4.3 6.3 2.5 13.1 6 20.1 6.2 6.4.3 13.7-3.6 19.4-6a91.3 91.3 0 0 1 13-4.3c5-1.3 10.6.5 15.4 2.2 1.8.6 2.6-2.3.8-3a43.7 43.7 0 0 0-13-2.7c-4.6-.2-9.6 2.2-13.8 3.7-7 2.6-14.2 6.8-21.8 7.1-7 .3-14.5-4.2-20.9-6.7a57.4 57.4 0 0 0-14-4c-4.4-.6-9.5 1.2-13.7 2.7-1.8.6-1 3.5.8 2.9z" fill="#fff"/><path d="M189.3 120.2c4.5-1.6 9.6-3.3 14.4-2.4 4.6.7 9 2.6 13.3 4.3 6.3 2.5 13.1 5.9 20 6.2 6.5.3 13.8-3.6 19.5-6a91.2 91.2 0 0 1 13-4.3c5-1.3 10.5.4 15.3 2.1 1.9.7 2.6-2.2.8-2.9a43.7 43.7 0 0 0-13-2.7c-4.5-.2-9.5 2.1-13.7 3.7-7 2.6-14.2 6.8-21.8 7.1-7 .3-14.6-4.3-20.9-6.7a57 57 0 0 0-14-4c-4.4-.6-9.5 1.2-13.7 2.6-1.8.7-1 3.6.8 3zm92.5 67.2v99.3c0 6.4 10 6.4 10 0v-99.3c0-6.4-10-6.4-10 0z" fill="#fff"/><path fill="none" stroke="#fff" stroke-width="10" stroke-miterlimit="10" d="M187 203.5l61-26.8m-55.7 42.5l65.2-6.8"/><path fill="#fff" d="M248 176.8l33.6 10-24.1 25.5z"/><path d="M246.6 181.6l33.7 10-2.2-8.3-24.2 25.5 8.4 2.2-9.6-35.6c-1.6-6.2-11.3-3.6-9.6 2.7l9.5 35.6c1 3.5 5.8 5 8.4 2.2l24.1-25.6a5 5 0 0 0-2.2-8.3l-33.6-10c-6.3-2-8.9 7.7-2.7 9.6zm-45.3 37a4.5 4.5 0 0 1-3.3 5.4l-6.3 1.5a4.5 4.5 0 0 1-5.5-3.1l-4.8-19a4.5 4.5 0 0 1 3.4-5.4l6.3-1.6c2.4-.6 4.9.8 5.5 3.2l4.7 19zm19.7-5.4c.6 2.4-.5 4.6-2.5 5.1l-5 1.3c-2 .5-4-1-4.6-3.3l-4.6-18.7c-.6-2.3.5-4.6 2.5-5l5-1.3c2-.5 4 1 4.6 3.3l4.6 18.6zm22.4-3.7c.7 2.8-.3 5.6-2.3 6l-5 1.3c-2 .5-4.1-1.4-4.8-4.3l-5.9-23.5c-.7-2.9.3-5.6 2.2-6l5-1.3c2-.5 4.2 1.4 4.9 4.3l5.9 23.4z" fill="#fff"/><path d="M135.5 234.1c0 3-2.7 5.6-6 5.6h-22c-3.3 0-6-2.5-6-5.6V80.5c0-3 2.7-5.5 6-5.5h22c3.3 0 6 2.5 6 5.5v153.6z" fill="none" stroke="#fff" stroke-width="10" stroke-miterlimit="10"/><path d="M144.5 280.3c0 3.3-2.1 6-4.7 6H97.2c-2.6 0-4.7-2.7-4.7-6v-34.6c0-3.4 2.1-6 4.7-6h42.6c2.6 0 4.7 2.6 4.7 6v34.6z" fill="#fff" stroke="#fff" stroke-width="10" stroke-miterlimit="10"/><path d="M148.5 91h18c6.5 0 6.5-10 0-10h-18c-6.5 0-6.5 10 0 10zm0 40h18c6.5 0 6.5-10 0-10h-18c-6.5 0-6.5 10 0 10zm0 41h18c6.5 0 6.5-10 0-10h-18c-6.5 0-6.5 10 0 10zm0 43h18c6.5 0 6.5-10 0-10h-18c-6.5 0-6.5 10 0 10z" fill="#fff"/><path fill="#fff" stroke="#fff" stroke-width="10" stroke-miterlimit="10" d="M101.5 192.8h34v62.5h-34z"/></svg>