<svg xmlns="http://www.w3.org/2000/svg" width="361" height="361"><path d="M251 199v21c0 2 3 2 3 0v-21c0-2-3-2-3 0z" fill="#fff"/><path d="M246 202l6 4c2 1 3-2 1-3l-6-3c-2-1-3 1-1 2z" fill="#fff"/><path d="M258 200l-6 3c-2 1 0 4 1 3l7-4c1-1 0-3-2-2zm-25 11l19 10c1 1 3-1 1-2l-18-11c-2-1-3 2-2 3z" fill="#fff"/><path d="M234 217l6-4c1-1 0-3-2-2l-6 4c-2 1 0 3 2 2z" fill="#fff"/><path d="M237 205v7c0 2 3 2 3 0v-7c0-2-3-2-3 0zm-2 27l18-11c2-1 1-3-1-2l-19 10c-1 1 0 4 2 3z" fill="#fff"/><path d="M241 235v-7c0-2-3-2-3 0v7c0 2 3 2 3 0z" fill="#fff"/><path d="M232 226l6 3c2 1 4-1 2-2l-6-4c-2-1-4 2-2 3zm22 16v-22c0-2-3-2-3 0v21c0 2 3 2 3 0z" fill="#fff"/><path d="M260 238l-7-4c-1 0-3 2-1 3l6 4c2 1 3-2 2-3z" fill="#fff"/><path d="M247 241l6-4c2-1 1-4-1-3l-6 4c-2 1-1 4 1 3z" fill="#fff"/><g fill="#fff"><path d="M272 230l-18-11c-2-1-4 2-2 2l19 11c1 1 3-1 1-2z"/><path d="M272 223l-6 4c-2 1-1 3 1 2l6-3c2-1 1-4-1-3z"/><path d="M268 235v-7c0-2-3-2-3 0v7c0 2 3 2 3 0z"/></g><g fill="#fff"><path d="M271 208l-19 11c-2 1 0 4 2 3l18-11c2-1 0-4-1-3z"/><path d="M265 205v7c0 2 3 2 3 0v-7c0-2-3-2-3 0z"/><path d="M273 215l-6-4c-2-1-3 2-1 3l6 3c1 1 3-2 1-2z"/></g><path d="M136 234c0 3-3 6-6 6h-22c-4 0-6-3-6-6V81c0-3 2-6 6-6h22c3 0 6 3 6 6v153z" fill="none" stroke="#fff" stroke-width="10" stroke-miterlimit="10"/><path d="M145 280c0 4-3 6-5 6H97c-2 0-4-2-4-6v-34c0-4 2-6 4-6h43c2 0 5 2 5 6v34z" fill="#fff" stroke="#fff" stroke-width="10" stroke-miterlimit="10"/><path d="M149 91h18c6 0 6-10 0-10h-18c-7 0-7 10 0 10zm0 40h18c6 0 6-10 0-10h-18c-7 0-7 10 0 10zm0 41h18c6 0 6-10 0-10h-18c-7 0-7 10 0 10zm0 43h18c6 0 6-10 0-10h-18c-7 0-7 10 0 10z" fill="#fff"/><path fill="#fff" stroke="#fff" stroke-width="10" stroke-miterlimit="10" d="M102 167h34v88h-34z"/><path d="M217 282c0 3 4 6 7 6h56c4 0 7-3 7-6V81c0-3-3-6-7-6h-56c-3 0-7 3-7 6v201z" fill="none" stroke="#fff" stroke-width="10" stroke-miterlimit="10"/><path d="M236 140a16 16 0 1 0 33 0l-3-9c-2-5-8-24-14-24s-12 19-14 24l-2 9z" fill="#fff"/></svg>