<svg xmlns="http://www.w3.org/2000/svg" width="361" height="361"><path d="M186.5 234.5c0 3-2.7 5.5-6 5.5h-22c-3.3 0-6-2.5-6-5.5V80.9c0-3 2.7-5.6 6-5.6h22c3.3 0 6 2.5 6 5.6v153.6z" fill="none" stroke="#fff" stroke-width="10" stroke-miterlimit="10"/><path d="M195.5 280.7c0 3.3-2.1 6-4.7 6h-42.6c-2.6 0-4.7-2.7-4.7-6V246c0-3.3 2.1-6 4.7-6h42.6c2.6 0 4.7 2.7 4.7 6v34.7z" fill="#fff" stroke="#fff" stroke-width="10" stroke-miterlimit="10"/><path d="M199.5 92.3h18c6.5 0 6.5-10 0-10h-18c-6.5 0-6.5 10 0 10zm0 40h18c6.5 0 6.5-10 0-10h-18c-6.5 0-6.5 10 0 10zm0 41h18c6.5 0 6.5-10 0-10h-18c-6.5 0-6.5 10 0 10zm0 43h18c6.5 0 6.5-10 0-10h-18c-6.5 0-6.5 10 0 10z" fill="#fff"/><path fill="#fff" stroke="#fff" stroke-width="10" stroke-miterlimit="10" d="M152.5 185h34v70.7h-34z"/></svg>