<svg xmlns="http://www.w3.org/2000/svg" width="361" height="361"><path d="M135.5 234.4c0 3-2.7 5.6-6 5.6h-22c-3.3 0-6-2.5-6-5.6V80.8c0-3 2.7-5.5 6-5.5h22c3.3 0 6 2.5 6 5.5v153.6z" fill="none" stroke="#fff" stroke-width="10" stroke-miterlimit="10"/><path d="M144.5 280.6c0 3.3-2.1 6-4.7 6H97.2c-2.6 0-4.7-2.7-4.7-6V246c0-3.4 2.1-6 4.7-6h42.6c2.6 0 4.7 2.6 4.7 6v34.6z" fill="#fff" stroke="#fff" stroke-width="10" stroke-miterlimit="10"/><path d="M148.5 91.3h18c6.5 0 6.5-10 0-10h-18c-6.5 0-6.5 10 0 10zm0 40h18c6.5 0 6.5-10 0-10h-18c-6.5 0-6.5 10 0 10zm0 41h18c6.5 0 6.5-10 0-10h-18c-6.5 0-6.5 10 0 10zm0 43h18c6.5 0 6.5-10 0-10h-18c-6.5 0-6.5 10 0 10z" fill="#fff"/><path fill="#fff" stroke="#fff" stroke-width="10" stroke-miterlimit="10" d="M101.5 193.1h34v62.5h-34z"/><g fill="#fff"><path d="M288.5 276h-7c-4.5 0-4.5 7 0 7h7c4.5 0 4.5-7 0-7zm-26.5-3h-7.8c-4.5 0-4.5 7 0 7h7.8c4.5 0 4.5-7 0-7zm3.4-11h-15.2c-4.5 0-4.5 7 0 7h15.2c4.5 0 4.5-7 0-7zm-25.2 23h-6c-2 0-3.5 1.5-3.5 3.4s1.6 3.5 3.5 3.5h6c1.9 0 3.5-1.6 3.5-3.5s-1.6-3.5-3.5-3.5zm45.5-19h-2c-2 0-3.5 1.7-3.5 3.6s1.6 3.5 3.5 3.5h2c1.9 0 3.5-1.6 3.5-3.5s-1.6-3.5-3.5-3.5z"/><path d="M268.7 283.4h2c1.9 0 3.5-1.6 3.5-3.5s-1.6-3.5-3.5-3.5h-2c-2 0-3.5 1.6-3.5 3.5s1.6 3.5 3.5 3.5zm-84.6 8.5h6c1.9 0 3.5-1.6 3.5-3.5S192 285 190 285h-6c-2 0-3.5 1.6-3.5 3.5s1.6 3.5 3.5 3.5zm90.3-20.9h5.5c2 0 3.5-1.6 3.5-3.5s-1.6-3.5-3.5-3.5h-5.5c-1.9 0-3.5 1.6-3.5 3.5s1.6 3.5 3.5 3.5zm-80.6-11h-9c-4.6 0-4.6 7 0 7h9c4.5 0 4.5-7 0-7zm32.6 19h9c4.5 0 4.5-7 0-7h-9c-4.5 0-4.5 7 0 7zm-16.9-11.3h16c4.5 0 4.5-7 0-7h-16c-4.5 0-4.5 7 0 7zm.4 11.2h6c1.9 0 3.5-1.6 3.5-3.5s-1.6-3.5-3.5-3.5h-6c-2 0-3.5 1.6-3.5 3.5s1.6 3.5 3.5 3.5z"/><path d="M223.2 273h2c1.9 0 3.5-1.7 3.5-3.6s-1.6-3.5-3.5-3.5h-2c-2 0-3.5 1.6-3.5 3.5s1.6 3.5 3.5 3.5zm-5.8 12h-6c-2 0-3.6 1.5-3.6 3.4s1.6 3.5 3.5 3.5h6c2 0 3.5-1.6 3.5-3.5s-1.6-3.5-3.5-3.5zm59-.3h-15.2c-4.5 0-4.5 7 0 7h15.2c4.6 0 4.6-7 0-7z"/><path d="M237.7 265h-6c-2 0-3.5 1.5-3.5 3.4s1.6 3.5 3.5 3.5h6c1.9 0 3.5-1.6 3.5-3.5s-1.6-3.5-3.5-3.5zm-44.7 4.7h-9c-4.5 0-4.5 7 0 7h9c4.5 0 4.5-7 0-7zm9.7 15.3h-16c-4.6 0-4.6 7 0 7h16c4.5 0 4.5-7 0-7zm4.6-8h-6c-1.9 0-3.5 1.5-3.5 3.4s1.6 3.5 3.5 3.5h6c2 0 3.5-1.6 3.5-3.5s-1.6-3.5-3.5-3.5z"/><path d="M189 280.7h-2c-1.9 0-3.5 1.6-3.5 3.5s1.6 3.5 3.5 3.5h2c1.9 0 3.5-1.6 3.5-3.5s-1.6-3.5-3.5-3.5zm5.7-9h11.1c4.5 0 4.5-7 0-7h-11.1c-4.6 0-4.6 7 0 7zm20.6 1.2h-16c-4.5 0-4.5 7 0 7h16c4.6 0 4.6-7 0-7zm29 9.4h9c4.5 0 4.5-7 0-7h-9c-4.6 0-4.6 7 0 7zm-5.7-14.6h3.3c1.9 0 3.5-1.6 3.5-3.5s-1.6-3.5-3.5-3.5h-3.3c-1.9 0-3.5 1.6-3.5 3.5s1.6 3.5 3.5 3.5zm24 4.6h6c2 0 3.6-1.6 3.6-3.5s-1.6-3.5-3.5-3.5h-6c-2 0-3.5 1.6-3.5 3.5s1.6 3.5 3.5 3.5zm12.4 15.9h5.5c1.9 0 3.5-1.6 3.5-3.5s-1.6-3.5-3.5-3.5H275c-1.9 0-3.5 1.6-3.5 3.5s1.6 3.5 3.5 3.5zm-55.8.8h2c1.9 0 3.5-1.6 3.5-3.5s-1.6-3.5-3.5-3.5h-2c-2 0-3.5 1.6-3.5 3.5s1.6 3.5 3.5 3.5z"/><path d="M215.4 278.9h2c2 0 3.5-1.6 3.5-3.5s-1.6-3.5-3.5-3.5h-2c-1.9 0-3.5 1.5-3.5 3.5s1.6 3.5 3.5 3.5zm41.6 5.9h-5.5c-2 0-3.5 1.5-3.5 3.4s1.6 3.6 3.5 3.6h5.5c1.9 0 3.5-1.7 3.5-3.6s-1.6-3.4-3.5-3.4zm32-1h-2c-2 0-3.6 1.6-3.6 3.5s1.6 3.5 3.5 3.5h2c2 0 3.5-1.6 3.5-3.5s-1.6-3.5-3.5-3.5zm-19.3-8.7h-2c-2 0-3.5 1.6-3.5 3.5s1.6 3.5 3.5 3.5h2c1.9 0 3.5-1.6 3.5-3.5s-1.6-3.5-3.5-3.5z"/><path d="M258.4 280h5.5c2 0 3.5-1.6 3.5-3.5s-1.6-3.5-3.5-3.5h-5.5c-1.9 0-3.5 1.6-3.5 3.5s1.6 3.5 3.5 3.5zm20.7-13h9.8c4.5 0 4.5-7 0-7h-9.8c-4.5 0-4.5 7 0 7zm-57.3 20.7H233c4.5 0 4.5-7 0-7h-11.2c-4.5 0-4.5 7 0 7zm-38-37.5h7c4.6 0 4.6-7 0-7h-7c-4.4 0-4.4 7 0 7zm23.6-3h7.7c4.5 0 4.5-7 0-7h-7.7c-4.5 0-4.5 7 0 7zm-3.4-11h15.2c4.5 0 4.5-7 0-7H204c-4.6 0-4.6 7 0 7zm25.2 22.9h6c1.9 0 3.5-1.6 3.5-3.5s-1.6-3.5-3.5-3.5h-6c-2 0-3.5 1.6-3.5 3.5s1.6 3.5 3.5 3.5zm-45.5-18.9h2c2 0 3.5-1.5 3.5-3.5s-1.6-3.5-3.5-3.5h-2c-1.9 0-3.5 1.6-3.5 3.5s1.6 3.5 3.5 3.5z"/><path d="M200.7 243.6h-2c-1.9 0-3.5 1.6-3.5 3.5s1.6 3.5 3.5 3.5h2c2 0 3.5-1.6 3.5-3.5s-1.6-3.5-3.5-3.5zm87.6 5.5h-6c-2 0-3.5 1.6-3.5 3.5s1.6 3.5 3.5 3.5h6c1.9 0 3.5-1.6 3.5-3.5s-1.6-3.5-3.5-3.5zM195 231h-5.5c-2 0-3.5 1.7-3.5 3.6s1.5 3.5 3.5 3.5h5.5c1.9 0 3.5-1.6 3.5-3.5s-1.6-3.5-3.5-3.5zm84.6 3.2h9c4.5 0 4.5-7 0-7h-9c-4.5 0-4.5 7 0 7zm-36.6 5h-9c-4.5 0-4.5 7 0 7h9c4.5 0 4.5-7 0-7zm16.9-11.5h-16c-4.6 0-4.6 7 0 7h16c4.5 0 4.5-7 0-7zm-.4 11.3h-6c-1.9 0-3.5 1.6-3.5 3.5s1.6 3.5 3.5 3.5h6c2 0 3.5-1.6 3.5-3.5s-1.6-3.5-3.5-3.5z"/><path d="M246.2 233h-2c-2 0-3.5 1.7-3.5 3.6s1.6 3.5 3.5 3.5h2c1.9 0 3.5-1.6 3.5-3.5s-1.6-3.5-3.5-3.5zm5.8 26h6c2 0 3.5-1.5 3.5-3.4S260 252 258 252h-6c-1.9 0-3.5 1.6-3.5 3.5s1.6 3.5 3.5 3.5zm-59 2h15.2c4.5 0 4.5-7 0-7h-15.3c-4.5 0-4.5 7 0 7z"/><path d="M231.7 239h6c1.9 0 3.5-1.5 3.5-3.4s-1.6-3.5-3.5-3.5h-6c-2 0-3.5 1.6-3.5 3.5s1.6 3.5 3.5 3.5zm47.7 4.9h9c4.5 0 4.5-7 0-7h-9c-4.5 0-4.5 7 0 7zM265.7 259h16c4.5 0 4.5-7 0-7h-16c-4.5 0-4.5 7 0 7zm-3.7-8h6c2 0 3.5-1.6 3.5-3.5S270 244 268 244h-6c-1.9 0-3.5 1.6-3.5 3.5s1.6 3.5 3.5 3.5z"/><path d="M280.4 254.9h2c1.9 0 3.5-1.6 3.5-3.5s-1.6-3.5-3.5-3.5h-2c-2 0-3.5 1.6-3.5 3.5s1.6 3.5 3.5 3.5zm-5.7-25h-11.2c-4.5 0-4.5 7 0 7h11.2c4.5 0 4.5-7 0-7zM254 247h16c4.5 0 4.5-7 0-7h-16c-4.5 0-4.5 7 0 7zm-28.9-4.6h-9c-4.5 0-4.5 7 0 7h9c4.5 0 4.5-7 0-7zm5.7-14.7h-3.3c-1.9 0-3.5 1.6-3.5 3.5s1.6 3.5 3.5 3.5h3.3c1.9 0 3.5-1.6 3.5-3.5s-1.6-3.5-3.5-3.5zm-24 4.7h-6c-2 0-3.6 1.6-3.6 3.5s1.6 3.5 3.5 3.5h6c2 0 3.5-1.6 3.5-3.5s-1.6-3.5-3.5-3.5zm-12.4 15.8h-5.5c-2 0-3.5 1.6-3.5 3.5s1.6 3.5 3.5 3.5h5.5c1.9 0 3.5-1.6 3.5-3.5s-1.6-3.5-3.5-3.5zm55.8 1h-2c-1.9 0-3.5 1.5-3.5 3.4s1.6 3.5 3.5 3.5h2c2 0 3.5-1.6 3.5-3.5s-1.6-3.5-3.5-3.5z"/><path d="M254 239h-2c-2 0-3.5 1.6-3.5 3.5s1.6 3.5 3.5 3.5h2c1.9 0 3.5-1.6 3.5-3.5s-1.6-3.5-3.5-3.5zm-41.6 20h5.5c1.9 0 3.5-1.7 3.5-3.6s-1.6-3.5-3.5-3.5h-5.5c-2 0-3.5 1.6-3.5 3.5s1.6 3.5 3.5 3.5zm-28-1h2c2 0 3.5-1.6 3.5-3.5s-1.5-3.5-3.5-3.5h-2c-1.9 0-3.5 1.6-3.5 3.5s1.6 3.5 3.5 3.5zm15.3-8.7h2c2 0 3.5-1.6 3.5-3.5s-1.6-3.5-3.5-3.5h-2c-1.9 0-3.5 1.6-3.5 3.5s1.6 3.5 3.5 3.5z"/><path d="M211 238.2h-5.5c-2 0-3.5 1.6-3.5 3.5s1.6 3.5 3.5 3.5h5.5c1.9 0 3.5-1.6 3.5-3.5s-1.6-3.5-3.5-3.5zm-17.7-11h-9.8c-4.5 0-4.5 7 0 7h9.8c4.5 0 4.5-7 0-7zm54.3 20.7h-11.2c-4.5 0-4.5 7 0 7h11.2c4.5 0 4.5-7 0-7z"/></g><path d="M182 230.2h108.6c2 0 2-3 0-3H182.1c-2 0-2 3 0 3z" fill="#fff"/><g fill="#fff"><path d="M208.7 227.2c0-15.6.5-42.8 21.8-43.2 2 0 2-3 0-3-23.5.4-24.7 28.6-24.8 46.2 0 2 3 2 3 0z"/><path d="M203.3 227.2c.1-18 4.7-42.8 27.2-43.2 2 0 2-3 0-3-24.3.4-30 26.4-30.2 46.2 0 2 3 2 3 0z"/><path d="M220.4 227.2c0-7.7-.3-15.9 1.4-23.5.8-3.4 2.7-5.8 4.8-8.5 1.2-1.5-1-3.6-2.1-2-2.2 2.7-4.2 5.1-5.2 8.5-2.5 8-1.9 17.3-2 25.5 0 2 3 2 3 0z"/><path d="M216.4 227.2c0-7.7-.3-16.1 2.5-23.5 1.4-3.7 4.8-6 7.7-8.5 1.4-1.2-.7-3.3-2.1-2-3.2 2.6-6.3 5-8 8.7-3.6 7.6-3.1 17.3-3.1 25.3 0 2 3 2 3 0zm-20.4 0c0-7.5 0-16-3.4-23a11 11 0 0 0-2.8-3.6c-.3-.3-1.6-1-1.6-1.4-.2-1.9-3.2-2-3 0 .2 2.3 2 3 3.5 4.5 5.1 5.4 4.3 16.8 4.3 23.5 0 2 3 2 3 0z"/><path d="M201.4 226.8c-1-6.6-1.4-15-5-20.9-2-3.1-6-5-8.7-7.8-1.3-1.3-3.4.8-2 2.2 2.3 2.5 5.6 4.2 7.8 6.8 1.4 1.5 1.8 3.9 2.3 5.8 1.2 4.8 1.9 9.8 2.7 14.7.3 2 3.2 1.1 2.9-.8zm73.2.4c0-7-.3-14.4 2-21 1-3.5 3.9-5.4 6.5-7.7 1.4-1.2-.7-3.3-2.2-2-2.7 2.3-5.4 4.4-6.9 7.9-3 6.9-2.4 15.5-2.4 22.8 0 2 3 2 3 0z"/><path d="M269.1 227.2c0-6.9-.2-14.9 3.5-21 2.2-3.7 6.6-5.4 10.2-7.4 1.6-1 .1-3.6-1.5-2.6-4 2.3-8.1 4.1-11 8-4.5 6-4.1 15.8-4.2 23 0 2 3 2 3 0zm14.7 0c0-6-.4-14.9 4.1-19.7 1.4-1.4 3.5-1.8 3.7-4 .2-2-2.8-2-3 0 0-.2-3.6 2.8-4.2 3.6-3.7 5.5-3.5 13.8-3.6 20 0 2 3 2 3 0z"/><path d="M278.3 227.6c1-5 1.3-12.9 4.7-17 2-2.5 5.8-4 8.2-6.1 1.4-1.3-.7-3.4-2.1-2.1-2.6 2.3-6.3 3.7-8.4 6.3-3.8 4.6-4.2 12.6-5.3 18-.3 2 2.6 2.8 3 .9zm-13.2-.3c0-4.7-.1-10-2.5-14.2a7.6 7.6 0 0 0-2-2.4 13 13 0 0 0-1-.5c-.4-.3-.1-.3 0 .2-.3-2-3.3-2-3 0 .1 1.7 1.4 2 2.5 3 3.4 3 3 10 3 13.9 0 2 3 2 3 0z"/><path d="M269 226.9c-.8-4-1.2-9.3-3.7-12.7-1.5-2.1-4.3-3.2-6.2-4.9-1.4-1.3-3.6.8-2.1 2.1 1.7 1.6 4 2.6 5.6 4.1.8.8 1.2 2.2 1.5 3.3.9 2.9 1.4 6 2 8.9.3 1.9 3.2 1 2.8-.8zm-18.4.9c0-6.8.3-14.3-2-20.8-1-3.1-3.3-5.2-5.5-7.4-1.4-1.4-3.5.8-2.2 2.1 2.1 2 4 3.8 5 6.6 2.1 6 1.6 13.3 1.7 19.5 0 2 3 2 3 0z"/><path d="M254.9 227.8c0-6.8.1-14.7-3.3-20.9-1.9-3.5-5.6-5.4-8.8-7.5-1.7-1.1-3.2 1.5-1.6 2.6 2.9 1.9 6 3.4 7.8 6.4 3.4 5.4 2.8 13.4 2.9 19.4 0 2 3 2 3 0zm-15 0c0-3.8-.4-8-3-11a7 7 0 0 0-2.3-1.7l-.8-.4c-.7-.3 0 0 0 .2-.4-1.9-3.3-1-3 .8.3 1.5 2 1.8 3.1 2.4 3 1.8 3 6.7 3 9.7 0 2 3 2 3 0z"/><path d="M244 227.4c-.8-3.2-1.5-7.3-4-9.7-1.8-1.8-4.8-2.4-7-3.7-1.6-1-3.1 1.6-1.5 2.6 2 1.2 4.2 1.8 6.1 3 2.3 1.4 3 6.3 3.6 8.6.5 1.9 3.4 1 2.9-.8z"/></g></svg>