<svg xmlns="http://www.w3.org/2000/svg" width="361" height="361"><path d="M175 116a60 60 0 0 0-16 2 93 93 0 0 0-17 7l-11-27c7-4 14-7 23-9a99 99 0 0 1 25-4 68 68 0 0 1 25 4 43 43 0 0 1 16 11 35 35 0 0 1 8 13 48 48 0 0 1 2 15 38 38 0 0 1-2 12 51 51 0 0 1-5 10 64 64 0 0 1-8 10 399 399 0 0 1-7 8 443 443 0 0 0-6 6 57 57 0 0 0-6 7 41 41 0 0 0-4 7 20 20 0 0 0-2 8v6h-31a115 115 0 0 1-1-10c0-5 0-9 2-12a48 48 0 0 1 4-10 57 57 0 0 1 6-9 174 174 0 0 1 8-8l10-11a19 19 0 0 0 4-12 13 13 0 0 0-4-10c-3-3-7-4-13-4zm22 121c0 7-2 12-7 16a24 24 0 0 1-31 0 20 20 0 0 1-6-16c0-7 2-13 6-17a24 24 0 0 1 31 0c5 4 7 9 7 17z" fill="#fff"/></svg>