<svg xmlns="http://www.w3.org/2000/svg" width="361" height="361"><path d="M90 145l4 8a421 421 0 0 1 5 10 540 540 0 0 1 5 11l4 11 5-11a534 534 0 0 1 5-11 419 419 0 0 1 9-18h14l1 15a616 616 0 0 1 2 17 1729 1729 0 0 1 2 35h-15l-1-21a586 586 0 0 0-1-24 6704 6704 0 0 1-4 9 1277 1277 0 0 0-4 10 1421 1421 0 0 1-4 10 1833 1833 0 0 0-4 8h-11l-3-8a1420 1420 0 0 1-4-10 1357 1357 0 0 0-4-10l-4-9a580 580 0 0 0-2 24v21H70a1615 1615 0 0 1 2-35l1-17a340 340 0 0 1 2-15h15zm89 0h15v68h-15v-68zm96 68a343 343 0 0 0-14-24 235 235 0 0 0-16-21v44h-15v-67h12a120 120 0 0 1 7 8 294 294 0 0 1 8 10 353 353 0 0 1 8 11 586 586 0 0 1 8 11v-40h15v68h-13z" fill="#fff"/></svg>