<svg xmlns="http://www.w3.org/2000/svg" width="361" height="361"><path d="M136 218a419 419 0 0 0-17-28 287 287 0 0 0-20-27v55H80v-83h16l8 9 10 13a429 429 0 0 1 10 13l9 14v-49h19v83h-16zm40 22h-19l41-116h18l-40 116zm94-22a360 360 0 0 0-3-9l-3-9h-32l-3 9a344 344 0 0 0-3 9h-20a1484 1484 0 0 1 9-25 870 870 0 0 1 8-22 771 771 0 0 1 8-19 421 421 0 0 1 8-17h18a672 672 0 0 1 8 17 647 647 0 0 1 8 19 875 875 0 0 1 8 22 1487 1487 0 0 1 10 25h-21zm-22-65a152 152 0 0 1-2 5 885 885 0 0 0-3 8 1053 1053 0 0 1-3 9 550 550 0 0 0-4 10h24a1203 1203 0 0 0-4-10 364 364 0 0 0-3-9 1853 1853 0 0 1-3-8 227 227 0 0 0-2-5z" fill="#fff"/></svg>