<svg xmlns="http://www.w3.org/2000/svg" width="361" height="361"><path d="M90 145l4 8a421 421 0 0 1 5 10 540 540 0 0 1 5 11l4 11 5-11a534 534 0 0 1 5-11 419 419 0 0 1 9-18h14l1 15a616 616 0 0 1 2 17 1729 1729 0 0 1 2 35h-15l-1-21a586 586 0 0 0-1-24 6704 6704 0 0 1-4 9 1277 1277 0 0 0-4 10 1421 1421 0 0 1-4 10 1833 1833 0 0 0-4 8h-11l-3-8a1420 1420 0 0 1-4-10 1357 1357 0 0 0-4-10l-4-9a580 580 0 0 0-2 24v21H70a1615 1615 0 0 1 2-35l1-17a340 340 0 0 1 2-15h15zm115 68a296 296 0 0 0-2-8l-3-7h-26l-3 7a287 287 0 0 0-2 7h-16a1214 1214 0 0 1 7-20 709 709 0 0 1 7-17 630 630 0 0 1 6-16 345 345 0 0 1 7-15h14a554 554 0 0 1 7 15 527 527 0 0 1 7 16 708 708 0 0 1 6 17l7 20h-16zm-18-53a129 129 0 0 1-2 4 785 785 0 0 0-2 6 826 826 0 0 1-3 7 443 443 0 0 0-3 9h19a1063 1063 0 0 0-2-9 294 294 0 0 0-3-7l-3-6a172 172 0 0 0-1-4zm86 52a212 212 0 0 0-6-11 42 42 0 0 0-8-10 80 80 0 0 0-4 4 138 138 0 0 0-8 12 98 98 0 0 0-3 5h-17l10-16a512 512 0 0 1 13-18l-22-33h19l13 19 13-20h17l-22 33a208 208 0 0 1 14 20l9 15h-18z" fill="#fff"/></svg>