<svg xmlns="http://www.w3.org/2000/svg" width="361" height="361"><path d="M174.9 115.8a60 60 0 0 0-16.3 2.2 93.4 93.4 0 0 0-17 7l-10.2-27.2c6.3-4 13.6-7 22.1-9.2a99.3 99.3 0 0 1 25-3.3 68 68 0 0 1 25.3 4.1 43.4 43.4 0 0 1 15.7 10.3 35.4 35.4 0 0 1 8 13.7 48.4 48.4 0 0 1 2.3 14.2 38 38 0 0 1-2 12.4 50.9 50.9 0 0 1-5.2 10.4 64.4 64.4 0 0 1-7.2 9.1 399 399 0 0 1-7.9 8.2 443.4 443.4 0 0 0-6 6 56.9 56.9 0 0 0-5.6 7 41 41 0 0 0-4.2 7.5 20.4 20.4 0 0 0-1.7 8v3c0 1.2 0 2.3.2 3.3h-31.6a114.6 114.6 0 0 1-.7-10.6c0-4.5.5-8.5 1.6-12.1a47.5 47.5 0 0 1 4.5-10 56.9 56.9 0 0 1 6.3-8.9 174 174 0 0 1 7.5-7.9c3.6-3.6 7-7.3 10-10.9a18.6 18.6 0 0 0 4.6-12.3 12.9 12.9 0 0 0-4.4-9.9c-3-2.7-7.4-4-13.1-4zm22.3 120.8c0 7-2.3 12.4-6.8 16.3a23.8 23.8 0 0 1-31 0 20.2 20.2 0 0 1-6.8-16.4c0-7 2.2-12.4 6.8-16.3a23.6 23.6 0 0 1 30.9 0c4.5 3.8 6.9 9.3 6.9 16.4z" fill="#fff"/></svg>