<svg xmlns="http://www.w3.org/2000/svg" width="361" height="361"><path d="M89.7 144.5c1.2 2.1 2.5 4.8 4 8a420.8 420.8 0 0 1 4.9 10.3 539.6 539.6 0 0 1 5 11.3l4.6 10.9 4.6-11a534.4 534.4 0 0 1 5-11.2 419.4 419.4 0 0 1 8.8-18.3h14l1.8 15.1a615.8 615.8 0 0 1 1.4 17.5 1728.5 1728.5 0 0 1 2.1 35.3h-14.8l-.8-21.5a585.7 585.7 0 0 0-1.5-23.6 6704.2 6704.2 0 0 1-4 9.1 1276.5 1276.5 0 0 0-4.2 10 1421 1421 0 0 1-4 9.6 1833.1 1833.1 0 0 0-3.4 7.8h-10.7l-3.3-7.8a1419.5 1419.5 0 0 1-4.1-9.6 1357 1357 0 0 0-4.3-10l-4-9a580.1 580.1 0 0 0-1.4 23.4l-.8 21.6H69.7a1615 1615 0 0 1 2.1-35.3c.4-6 1-11.9 1.5-17.5a339.9 339.9 0 0 1 1.8-15.1h14.6zm115.4 68a296.4 296.4 0 0 0-2.4-7.4l-2.6-7.4h-26.5l-2.6 7.5a286.5 286.5 0 0 0-2.4 7.2h-15.9a1214.1 1214.1 0 0 1 7.3-20.3 709.3 709.3 0 0 1 6.7-17.5 630.2 630.2 0 0 1 6.5-15.7 345.4 345.4 0 0 1 6.6-14.4h14.5a553.7 553.7 0 0 1 6.6 14.4 526.5 526.5 0 0 1 6.6 15.7 708 708 0 0 1 6.7 17.5l7.3 20.3h-16.4zm-18.3-52.6a129.4 129.4 0 0 1-1.5 4 785 785 0 0 0-2.3 5.9 825.8 825.8 0 0 1-2.8 7.3 442.5 442.5 0 0 0-3.1 8.5h19.4a1063.2 1063.2 0 0 0-3-8.5 294 294 0 0 0-2.8-7.4l-2.3-5.8a171.5 171.5 0 0 0-1.6-4zm86.1 52.5a212.3 212.3 0 0 0-6.3-11.5 41.6 41.6 0 0 0-7.8-9.8 79.5 79.5 0 0 0-3.5 4.2 138.4 138.4 0 0 0-8.1 12 98.4 98.4 0 0 0-2.8 5.1H227c2.9-5.3 6.2-10.8 10.1-16.4a512 512 0 0 1 13-18L228 144.5h18.5l13 19.7 13.2-19.7H290l-22 32.8a208.3 208.3 0 0 1 14.2 19.9c3.8 6 6.7 11 8.9 15.2h-18.3z" fill="#fff"/></svg>