<svg xmlns="http://www.w3.org/2000/svg" width="361" height="361"><path d="M89.7 144.5c1.2 2.1 2.5 4.8 4 8a420.8 420.8 0 0 1 4.9 10.3 539.6 539.6 0 0 1 5 11.3l4.6 10.9 4.6-11a534.4 534.4 0 0 1 5-11.2 419.4 419.4 0 0 1 8.8-18.3h14l1.8 15.1a615.8 615.8 0 0 1 1.4 17.5 1728.5 1728.5 0 0 1 2.1 35.3h-14.8l-.8-21.5a585.7 585.7 0 0 0-1.5-23.6 6704.2 6704.2 0 0 1-4 9.1 1276.5 1276.5 0 0 0-4.2 10 1421 1421 0 0 1-4 9.6 1833.1 1833.1 0 0 0-3.4 7.8h-10.7l-3.3-7.8a1419.5 1419.5 0 0 1-4.1-9.6 1357 1357 0 0 0-4.3-10l-4-9a580.1 580.1 0 0 0-1.4 23.4l-.8 21.6H69.7a1615 1615 0 0 1 2.1-35.3c.4-6 1-11.9 1.5-17.5a339.9 339.9 0 0 1 1.8-15.1h14.6zm89.5 0h15.3v68h-15.3v-68zm96 68a342.5 342.5 0 0 0-14.1-23.1 234.5 234.5 0 0 0-16.3-21.5v44.5h-15.1v-67.9H242a120 120 0 0 1 7.2 8 294.4 294.4 0 0 1 8 10 353 353 0 0 1 8 11 585.6 585.6 0 0 1 7.6 11v-40H288v68h-12.8z" fill="#fff"/></svg>