<svg xmlns="http://www.w3.org/2000/svg" width="361" height="361"><path d="M136.2 217.8a418.7 418.7 0 0 0-17.4-28.2A286.9 286.9 0 0 0 99 163.3v54.5H80.4v-83.2h15.3c2.6 2.6 5.5 5.9 8.7 9.7l9.8 12.3a429.4 429.4 0 0 1 10 13.6l9.2 13.5v-49.1H152v83.2h-15.8zm39.5 22.2h-18.4l40.4-116.2h18.1l-40 116.2zm94.7-22.2a360.1 360.1 0 0 0-3-9l-3.2-9h-32.5l-3.1 9a344.3 344.3 0 0 0-3 9h-19.4a1484.1 1484.1 0 0 1 8.9-24.9 869.8 869.8 0 0 1 8.3-21.5 771.4 771.4 0 0 1 7.9-19.1 421 421 0 0 1 8.1-17.7h17.8a672.2 672.2 0 0 1 8 17.7 647 647 0 0 1 8 19.1 875.3 875.3 0 0 1 8.3 21.5 1486.6 1486.6 0 0 1 9 24.9h-20.1zm-22.5-64.4a151.7 151.7 0 0 1-1.8 5 884.5 884.5 0 0 0-2.8 7.2 1053 1053 0 0 1-3.4 9 549.9 549.9 0 0 0-3.9 10.3h23.8a1202.5 1202.5 0 0 0-3.7-10.4 364.2 364.2 0 0 0-3.4-9 1852.7 1852.7 0 0 1-2.8-7.2 227 227 0 0 0-2-4.9z" fill="#fff"/></svg>