<svg xmlns="http://www.w3.org/2000/svg" width="361" height="361"><path d="M280 291H129a12 12 0 0 1-12-11v-76l10 27v49l2 1h151l2-1V82a1 1 0 0 0-2-2H129a1 1 0 0 0-2 2v68l-10-28V82c0-7 6-12 12-12h151c7 0 12 5 12 12v198c0 6-5 11-12 11z" fill="#fff"/><path d="M146 112h114c7 0 7-10 0-10H146c-7 0-7 10 0 10zm4 54h110c7 0 7-10 0-10H150c-7 0-7 10 0 10zm-4-27h114c7 0 7-10 0-10H146c-7 0-7 10 0 10zm14 56h100c7 0 7-10 0-10H160c-6 0-6 10 0 10zm11 27h88c7 0 7-10 0-10h-88c-6 0-6 10 0 10zm4 28h84c7 0 7-10 0-10h-84c-6 0-6 10 0 10zm-45-6l23 29c2 2 6 0 6-3v-36c0-3-3-5-5-4l-22 8c-4 2-3 8 2 7l22-8-4-3v36l6-2-23-29c-3-4-8 1-5 5z" fill="#fff"/><path d="M124 237c4 9 12 7 20 4 6-2 16-4 16-13 0-6-4-13-6-19l-30-85-13-37c-2-5-4-18-11-17-7 0-14 4-20 6s-11 5-9 12l8 22 44 126c2 4 8 2 7-2A7664725 7664725 0 0 1 81 95l-3-8c-1-4 7-6 10-7l7-2c2-1 5-2 6 0l3 8 28 81 18 50 3 9c2 5-6 7-9 8-5 2-12 6-14-1-2-4-8 0-7 4zm21 19l10 13v-17z" fill="#fff"/><path d="M142 258l11 14c2 2 6 0 6-3l-1-17c1-2-2-4-4-3l-10 3c-5 2-3 9 1 7l11-4-4-3v17l6-2-11-14c-3-3-8 2-5 5z" fill="#fff"/></svg>