<svg xmlns="http://www.w3.org/2000/svg" width="361" height="361"><path d="M70.8 74.7v212c0 6.4 10 6.4 10 0v-212c0-6.5-10-6.5-10 0z" fill="#fff"/><path d="M287.8 281.7h-212c-6.4 0-6.4 10 0 10h212c6.5 0 6.5-10 0-10zm-205.4-80l62-63.5c4.5-4.6-2.6-11.7-7.1-7l-62 63.4c-4.5 4.7 2.6 11.7 7 7.1z" fill="#fff"/><path d="M138.7 136.5l35.7 46c4 5 11-2.1 7-7.2l-35.6-45.9c-4-5-11 2-7.1 7zM193 154l10 55.5c1.1 6.3 10.8 3.6 9.7-2.7l-10-55.5c-1.2-6.3-10.8-3.6-9.7 2.7z" fill="#fff"/><path d="M212.2 210.7l66-101c3.5-5.4-5.2-10.4-8.7-5l-66 101c-3.5 5.4 5.1 10.4 8.6 5zm-30-29.3l20-26.2c3.9-5.1-4.8-10.1-8.7-5l-19.9 26.2c-3.9 5.1 4.8 10 8.7 5z" fill="#fff"/></svg>