<svg xmlns="http://www.w3.org/2000/svg" width="361" height="361"><path d="M287 280c0 3-3 6-6 6H81a6 6 0 0 1-6-6V81c0-3 3-6 6-6h200c3 0 6 3 6 6v199z" fill="none" stroke="#fff" stroke-width="10" stroke-miterlimit="10"/><path d="M109 114l5-3 4-3h4v30h-5v-23l-3 1a30 30 0 0 1-4 2l-1-4zm38 11a11 11 0 0 1-3 1h-2a13 13 0 0 1-5 0 8 8 0 0 1-3-2 8 8 0 0 1-2-3 12 12 0 0 1 0-8 10 10 0 0 1 2-3 10 10 0 0 1 8-3c3 0 6 1 8 3s2 6 2 10c1 6-1 10-4 13s-8 5-14 5v-4l4-1 4-1a9 9 0 0 0 3-3 12 12 0 0 0 2-4zm-5-3a13 13 0 0 0 3 0l2-1v-5a9 9 0 0 0-1-2 5 5 0 0 0-2-2 5 5 0 0 0-2-1l-2 1a5 5 0 0 0-2 1 6 6 0 0 0-1 2 7 7 0 0 0 0 2l1 4 4 1zm50 7a6 6 0 0 0 0-2 5 5 0 0 0-2-2l-4-2a38 38 0 0 0-6 0 174 174 0 0 0 1-16h15v5h-11a147 147 0 0 1 0 2v2a61 61 0 0 1 0 1v2c4 0 7 1 9 3s4 4 4 7l-1 4a8 8 0 0 1-2 3l-4 2a16 16 0 0 1-8 0 35 35 0 0 1-2 0 26 26 0 0 1-2-1 9 9 0 0 1-1 0l1-5a15 15 0 0 0 7 2h3l2-1 1-2v-2zm15 9a43 43 0 0 1 1-7 62 62 0 0 1 5-14 36 36 0 0 1 4-5h-14v-4h20v4a31 31 0 0 0-3 4 58 58 0 0 0-6 14 40 40 0 0 0-2 8h-5zm-37-24l-1 3a4 4 0 0 1-2 1l-3-1-1-3a3 3 0 0 1 4-3 4 4 0 0 1 3 3zm0 17l-1 2a4 4 0 0 1-2 1l-3-1-1-2a3 3 0 0 1 4-4 4 4 0 0 1 3 4z" fill="#fff"/><path d="M268 175c-1 3-4 2-6 2H97c-2 0-1-24-1-26v-46c0-1-1-10 1-10h163c3 0 8-1 8 2v79c0 2 3 2 3 0v-74c0-3 0-7-2-9l-5-1H105c-4 0-12-2-12 5v76c0 2 0 7 4 7h159c4 0 13 1 15-4 0-2-3-3-3-1z" fill="#fff"/><path d="M115 169h12c4 0 4-7 0-7h-12c-5 0-5 7 0 7zm135-37h8c4 0 4-7 0-7h-8c-5 0-5 7 0 7zm-6 12h15c4 0 4-7 0-7h-15c-5 0-5 7 0 7zm-3 25h17c4 0 4-7 0-7h-17c-5 0-5 7 0 7zm-136 67l20-35h-6l20 35 3-6h-40c-4 0-4 7 0 7h40a4 4 0 0 0 3-5l-20-35a4 4 0 0 0-6 0l-20 35c-2 4 4 7 6 4zm152-39l-20 35h6l-20-35-4 6h41c4 0 4-7 0-7h-41a4 4 0 0 0-3 5l20 35a4 4 0 0 0 7 0l20-35c2-4-4-8-6-4zm-69 32c-1 2-5 1-7 1h-7l1-1h5c1 0 7-1 7 1 1 4 8 4 7 0-1-8-7-8-13-8-5 0-13-1-14 7-1 4 2 7 5 8h7c6 0 14 1 15-6 1-5-6-7-6-2zm-1-26c0 2-6 1-7 1h-5s-6-1-1-1h7c2 0 6-1 7 1 0 5 7 3 6-2-1-7-8-7-14-7h-6c-3 1-8 4-7 8 1 8 7 8 13 8 7 0 13 0 14-8 1-4-6-4-7 0z" fill="#fff"/></svg>