<svg xmlns="http://www.w3.org/2000/svg" width="361" height="361"><path d="M180.1 178.7v-91c0-2.6-.5-7.7 3.1-8 4.7-.5 12.1-1.2 16 1 2.2 1.3 1.3 6.2 1.3 8.2v89.8c0 6.5 10 6.5 10 0V87.4c0-4 .2-7.8-2.1-11.4-4.4-6.8-12.5-6.4-19.6-6.4-2.7 0-5.5-.2-8.1.4-4.9 1.3-8.2 5.4-10 9.8-1.9 4.6-.6 12-.6 16.6v82.3c0 6.5 10 6.5 10 0z" fill="#fff"/><path d="M151.8 232.3V124.5c0-4.8 0-9.6.3-14.4.2-2.6.2-6.5 3.3-6.5h14.1c2.3 0 .6.3.6-1v100c0 6.5 10 6.5 10 0v-100c0-10-10.6-9-17.4-9-7.1 0-14.7-1-18.4 6.6-4.2 8.7-2.5 20.5-2.5 30.1v102c0 6.5 10 6.5 10 0zm58.7-36v-100c0 1.2-1.7 1-.3 1h7.4c3.6 0 6-.6 8.6 2.3 2 2.4 1.6 4.6 1.6 7.9v88.9c0 6.4 10 6.4 10 0v-74.2c0-8.4 2-19.3-2.5-26.8-4.7-8.2-12.3-8-20.6-8-6.5 0-14.2.6-14.2 9.2v99.8c0 6.4 10 6.4 10 0z" fill="#fff"/><path d="M237.8 207.8v-82.2c0-1.5.1.3-.9.3h9.2c3 0 3.6 4 3.9 6.4.6 6 .1 12.3.1 18.4v135.7c0 6.4 10 6.4 10 0V141.3c0-8.5.5-19.4-8-24-3-1.7-6.6-1.4-10-1.4-3.6 0-8.3-.6-11.2 2.3-3.5 3.4-3.1 7.4-3.1 11.9v77.7c0 6.4 10 6.4 10 0zM129.3 285l-16.9-71-7-29.2c-1.2-5.2 8.5-6.7 12-7.6 6.7-1.5 7 3.3 8.5 8l16 49c2 6.1 11.6 3.5 9.6-2.6a435608.6 435608.6 0 0 0-11-33.5l-6-19c-2-6-5.1-10.6-12-11.8a32 32 0 0 0-22.4 6.3c-4.7 4.3-5.3 9.6-4 15.4l8.2 34 15.4 64.8c1.5 6.3 11.1 3.6 9.6-2.7z" fill="#fff"/></svg>