<svg xmlns="http://www.w3.org/2000/svg" width="361" height="361"><path d="M76 81a6 6 0 0 1 6-6h198a6 6 0 0 1 6 6v199a6 6 0 0 1-6 6H82a6 6 0 0 1-6-7V82z" fill="none" stroke="#fff" stroke-width="10" stroke-miterlimit="10"/><path d="M77 185h23c6 0 6-10 0-10H77c-7 0-7 10 0 10zm185 0h22c7 0 7-10 0-10h-22c-7 0-7 10 0 10zM176 78v21c0 7 10 7 10 0V78c0-7-10-7-10 0zm0 183v22c0 7 10 7 10 0v-22c0-6-10-6-10 0zm0-143v62c0 7 10 7 10 0v-62c0-7-10-7-10 0z" fill="#fff"/><path d="M178 184l27 27c5 5 12-2 7-7l-27-27c-4-4-11 3-7 7z" fill="#fff"/></svg>