<svg xmlns="http://www.w3.org/2000/svg" width="361" height="361"><path d="M139 112l8 38c1 5 7 3 6-1l-7-38c-1-5-7-3-7 1z" fill="#fff"/><path d="M147 147l-15 18c-2 4 3 8 5 5l15-18c3-4-2-9-5-5zm77-52l-19-19c-4-4-10-6-15-3-4 2-7 6-10 10a4 4 0 0 0 0 5 959487 959487 0 0 0 32 31 4 4 0 0 0 5 0c7-6 16-14 7-24-3-3-8 2-5 5 5 5-4 11-7 14h5l-32-31v5l7-8c4-4 8 1 11 3l16 17c4 3 8-2 5-5zM95 75L76 94c-4 4-6 10-3 15 2 4 6 7 9 10a4 4 0 0 0 5 0l32-32a4 4 0 0 0 0-5c-7-6-14-15-24-7-3 3 1 8 5 5 5-4 11 4 14 7v-5l-32 32h5a49375 49375 0 0 1-7-7c-4-4 1-8 3-10l17-17c3-3-2-8-5-5z" fill="#fff"/><path d="M174 99l26 26v48l-26 27h-48l-27-27v-48l27-27h48m0-10h-48a10 10 0 0 0-7 3l-27 27a10 10 0 0 0-3 7v48a10 10 0 0 0 3 7l27 27a10 10 0 0 0 7 3h48a10 10 0 0 0 7-3l27-27a10 10 0 0 0 2-7v-48a10 10 0 0 0-2-7l-27-27a10 10 0 0 0-7-2z" fill="#fff"/><path d="M108 191l-16 16c-4 5 3 12 7 7l16-16c5-5-2-12-6-7zm76 7l16 16c5 5 12-2 7-7l-16-16c-5-5-12 2-7 7zM157 90c-1 2-8 1-10 1h-3c-2 0-1-3-1-4l9-1h4l1 5c0 4 7 4 7 0 0-3 0-7-2-9-2-3-5-3-9-3-6 0-16-2-17 6-1 3 0 7 1 9 1 4 6 4 9 4 6 0 16 2 17-6 1-5-6-7-6-2zm118 184c0 4-5 3-8 3h-29l-3-1c-2-3 2-12 3-15l4-13 2-10 5-8c1-2 10-2 11-1 5 5 6 13 7 19 3 9 7 17 8 27 1 4 8 2 7-2-1-12-8-22-10-34 0-5-5-17-12-17-4 0-11-1-14 1l-7 10-3 12-7 19c-1 4-3 10-1 14s5 6 9 6h33c7 0 12-3 12-10 0-5-7-5-7 0z" fill="#fff"/><path d="M224 291l66-67c4-3-1-8-5-5l-66 67c-4 3 1 8 5 5z" fill="#fff"/></svg>