<svg xmlns="http://www.w3.org/2000/svg" width="361" height="361"><path d="M166 138l10 54c2 6 11 3 10-3l-10-54c-1-6-11-3-10 3z" fill="#fff"/><path d="M178 187l-22 26c-4 5 3 12 7 7l22-26c4-5-3-12-7-7zm109-73l-27-27c-6-6-14-9-23-4-5 3-9 9-13 13a5 5 0 0 0 0 7l45 45a5 5 0 0 0 7 0l10-10c7-7 7-17 0-24-4-5-11 2-7 7 7 7-5 15-10 20h7l-45-45v7l10-11c6-5 11 1 14 4l25 25c4 4 11-3 7-7zM103 85l-26 27c-7 6-9 14-5 22 3 5 9 10 13 14a5 5 0 0 0 7 0l46-46a5 5 0 0 0 0-7l-11-10c-7-7-17-6-24 0-5 4 2 11 7 7 8-6 16 6 20 10v-7l-45 46h7l-10-11c-5-5 0-10 4-14l24-24c5-5-2-12-7-7z" fill="#fff"/><path d="M215 118l38 38v68l-38 38h-68l-38-38v-68l38-38h68m0-10h-68a10 10 0 0 0-7 3l-38 38a10 10 0 0 0-3 7v68a10 10 0 0 0 3 7l38 38a10 10 0 0 0 7 3h68a10 10 0 0 0 7-3l38-38a10 10 0 0 0 3-7v-68a10 10 0 0 0-3-7l-38-38a10 10 0 0 0-7-3z" fill="#fff"/><path d="M125 249l-23 23c-4 5 3 12 7 7l23-23c5-4-2-11-7-7zm104 7l23 23c5 5 12-2 7-7l-23-23c-4-5-11 2-7 7zm-37-147c0 3-14 2-16 2-1 0-6 0-6-2v-7c0-3 14-2 16-2 1 0 6 0 6 2v7c0 4 7 4 7 0s1-8-2-12-7-4-12-4c-8 0-21-2-22 9-1 4-1 9 1 12 3 4 8 4 12 4 8 0 21 2 23-9 1-5-6-5-7 0z" fill="#fff"/></svg>