<svg xmlns="http://www.w3.org/2000/svg" width="361" height="361"><path d="M180 179V88c0-3 0-8 3-8 5-1 12-2 16 1 2 1 1 6 1 8v90c1 6 11 6 11 0V87c0-4 0-7-3-11-4-7-12-6-19-6h-8c-5 1-8 5-10 10-2 4-1 12-1 16v83c0 6 10 6 10 0z" fill="#fff"/><path d="M152 232V110c0-3 0-6 3-6h15c2 0 0 0 0-1v100c0 6 10 6 10 0V103c0-10-10-9-17-9s-15-1-19 6c-4 9-2 21-2 30v102c0 7 10 7 10 0zm59-36V96c0 2-2 1-1 1h8c3 0 6 0 8 3 2 2 2 4 2 8v88c0 7 10 7 10 0v-74c0-8 2-19-3-27-4-8-12-8-20-8-7 0-15 1-15 10v99c1 7 11 7 11 0z" fill="#fff"/><path d="M238 208v-82c0-2 0 0-1 0h9c3 0 4 4 4 6v154c0 7 10 7 10 0V141c0-8 1-19-8-24l-10-1c-3 0-8-1-11 2-4 4-3 8-3 12v78c0 6 10 6 10 0zm-109 77l-17-71-7-29c-1-5 9-7 12-8 7-1 7 4 9 8l16 49c2 6 12 4 10-2a435609 435609 0 0 0-11-34l-6-19c-2-6-6-10-12-12a32 32 0 0 0-23 7c-5 4-5 9-4 15l8 34 16 65c1 6 11 3 9-3z" fill="#fff"/></svg>