<svg xmlns="http://www.w3.org/2000/svg" width="361" height="361"><path d="M280.3 291.3H128.8a11.5 11.5 0 0 1-11.5-11.4v-75.7l10 27v48.7c0 .8.7 1.4 1.5 1.4h151.5c.8 0 1.5-.6 1.5-1.4V81.6a1.4 1.4 0 0 0-1.5-1.4H128.8a1.4 1.4 0 0 0-1.5 1.4v68l-10-28v-40c0-6.3 5.2-11.4 11.5-11.4h151.5c6.3 0 11.5 5.1 11.5 11.4V280c0 6.3-5.2 11.4-11.5 11.4z" fill="#fff"/><path d="M145.8 111.7h114.5c6.5 0 6.5-10 0-10H145.8c-6.4 0-6.4 10 0 10zm4 54h110.5c6.5 0 6.5-10 0-10H149.8c-6.4 0-6.4 10 0 10zm-4-27h114.5c6.5 0 6.5-10 0-10H145.8c-6.4 0-6.4 10 0 10zm14.5 56h100c6.5 0 6.5-10 0-10h-100c-6.4 0-6.4 10 0 10zm11 27h88c6.5 0 6.5-10 0-10h-88c-6.4 0-6.4 10 0 10zm4 28h84c6.5 0 6.5-10 0-10h-84c-6.4 0-6.4 10 0 10zm-45-5.7l22.7 28.5c2 2.5 6 .4 6-2.5l-.3-36.4c0-2.2-2.2-4.2-4.4-3.4l-22.5 8c-4.2 1.4-2.4 8.2 1.9 6.7l22.5-8-4.5-3.3.3 36.4 6-2.4-22.8-28.6c-2.8-3.5-7.7 1.5-5 5z" fill="#fff"/><path d="M123.5 236.9c4 9 12.6 7.1 20 4.5 6.7-2.3 16-4.2 16.5-13 .3-6.2-3.7-13.6-5.7-19.4l-30.1-85.2-13-36.9c-2-5.4-4-17.5-11.6-17.2-6.6.3-13.6 3.8-19.7 6-5.7 2-11.3 5.7-9 12.6l7.6 21.3L123.1 236c1.5 4.3 8.3 2.4 6.8-1.8a7664725.3 7664725.3 0 0 1-49-138.9l-3-8.3c-1.4-4.2 7-5.7 9.8-6.7l7.6-2.7c2-.7 4.6-1.8 5.4.6l2.8 8 28.7 81.2 17.4 49.4 3 8.8c2.1 5.8-5.3 7-9 8.4-4.7 1.6-11.3 5.6-14-.7-2-4-8-.5-6.1 3.6zm21 19l10.6 13.2v-17z" fill="#fff"/><path d="M142 258.3l10.7 13.3c2 2.5 6 .4 6-2.5l-.2-17c0-2.1-2.2-4.1-4.4-3.4l-10.5 3.7c-4.2 1.5-2.4 8.3 1.9 6.8l10.5-3.7-4.5-3.4.1 17 6-2.4-10.6-13.4c-2.8-3.5-7.7 1.5-5 5z" fill="#fff"/></svg>