<svg xmlns="http://www.w3.org/2000/svg" width="361" height="361"><path d="M75.8 81.3a6.2 6.2 0 0 1 6.2-6.1h198.2a6.2 6.2 0 0 1 6.1 6.1v198.2a6.2 6.2 0 0 1-6.1 6.2H82a6.2 6.2 0 0 1-6.2-6.2V81.3z" fill="none" stroke="#fff" stroke-width="10" stroke-miterlimit="10"/><path d="M76.8 185.2h23c6.5 0 6.5-10 0-10h-23c-6.4 0-6.4 10 0 10zm185 0h22.5c6.5 0 6.5-10 0-10h-22.5c-6.4 0-6.4 10 0 10zm-86-107.5v21.5c0 6.4 10 6.4 10 0V77.7c0-6.5-10-6.5-10 0zm0 183.5v22c0 6.4 10 6.4 10 0v-22c0-6.5-10-6.5-10 0zm.5-143.5v62.7c0 6.5 10 6.5 10 0v-62.7c0-6.5-10-6.5-10 0z" fill="#fff"/><path d="M178.3 184.2l27 27c4.6 4.6 11.6-2.5 7-7l-27-27c-4.5-4.6-11.6 2.4-7 7z" fill="#fff"/></svg>