<svg xmlns="http://www.w3.org/2000/svg" width="361" height="361"><path d="M219.6 242.7L182.3 195c-2.8-3.5-7.7 1.4-5 5l37.4 47.7c2.7 3.5 7.7-1.5 5-5z" fill="#fff"/><path d="M115.2 150.1a80.9 80.9 0 0 1 115.9-14.8 80.9 80.9 0 0 1 7 116.9 80.8 80.8 0 0 1-109 6.6A81 81 0 0 1 115.2 150c5.6-8-7.5-15.3-13-7.5a96 96 0 0 0 14.3 125 96 96 0 0 0 126.3.8 95.9 95.9 0 0 0 15.7-125 96.1 96.1 0 0 0-123-30.3 95.8 95.8 0 0 0-33.3 29.5c-2.4 3.3-.5 8.4 2.8 10.3 3.8 2.2 7.8.5 10.2-2.8z" fill="#fff"/><path d="M98.7 200.3h18c4.5 0 4.5-7 0-7h-18c-4.5 0-4.5 7 0 7zm144.8 0H261c4.5 0 4.5-7 0-7h-17.6c-4.6 0-4.6 7 0 7zm-67-83.7v16.8c0 4.5 7 4.5 7 0v-16.8c0-4.5-7-4.5-7 0zm0 143.6v17.2c0 4.5 7 4.5 7 0v-17.2c0-4.5-7-4.5-7 0zM120.2 142l12.8 12.8c3.2 3.2 8.1-1.8 5-5L125 137c-3.2-3.2-8.2 1.8-5 5zm102.4 102.4l12.5 12.4c3.2 3.3 8.1-1.7 5-4.9l-12.6-12.4c-3.1-3.2-8 1.7-4.9 4.9zm12-106.5l-12 12c-3.2 3.1 1.8 8 5 4.9l11.8-12c3.2-3.1-1.7-8-4.9-4.9zM132.8 239.4l-12.2 12.1c-3.2 3.2 1.7 8.2 5 5l12.1-12.2c3.2-3.2-1.8-8.1-5-5zm-36-4.4l18.6-7.7c4-1.7 2.3-8.5-1.9-6.8l-18.6 7.7c-4.1 1.7-2.3 8.5 1.9 6.8zm149.7-62l18.2-7.6c4.1-1.7 2.3-8.5-1.9-6.7l-18.2 7.5c-4 1.7-2.3 8.5 1.9 6.8zm-104.3-58.3l7.3 17.4c1.7 4.1 8.4 2.3 6.7-1.9l-7.2-17.4c-1.7-4-8.5-2.3-6.7 1.9zm61.6 148.5L211 281c1.8 4.1 8.5 2.3 6.8-1.8l-7.4-17.8c-1.7-4.1-8.4-2.3-6.7 1.8zM95 165.4l18.7 7.7c4.1 1.7 6-5 1.8-6.7L97 158.7c-4.2-1.8-6 5-1.9 6.7zm149.8 62L263 235c4.2 1.7 6-5 1.9-6.8l-18.2-7.5c-4.2-1.7-6 5-2 6.7zM211.2 113l-7.2 17.4c-1.8 4.2 5 6 6.7 1.9l7.2-17.4c1.7-4.2-5-6-6.7-1.9zm-61.6 148.5l-7.3 17.8c-1.8 4.2 5 6 6.7 1.9l7.4-17.8c1.7-4.2-5-6-6.8-1.9zm26.7-65.5c1.4-1.8 3.2-2.9 5.5-1.7 1.8 1 2.2 3.3 1.3 5.1-1 1.9-3.3 2.3-5 1.4-2.4-1.2-2.2-3.9-1-5.8 3.5-5.4-5.2-10.4-8.6-5a13.8 13.8 0 0 0 2.8 18.2c5.8 4.5 14.6 4 19.2-2s4-14.6-2-19.3c-5.9-4.6-14.6-4-19.3 2-1.6 2.2-2 5 0 7.1 1.8 1.8 5.4 2.2 7.1 0zm24-93a4.8 4.8 0 0 1-4.8 4.7h-28.3a4.8 4.8 0 0 1-4.8-4.8v-1.2a4.8 4.8 0 0 1 4.8-4.8h28.3a4.8 4.8 0 0 1 4.9 4.8v1.2z" fill="#fff"/><path d="M207.8 95.8c0 2.3-1.7 4.1-3.7 4.1h-45.8c-2 0-3.7-1.8-3.7-4v-5.6c0-2.2 1.7-4 3.7-4H204c2 0 3.7 1.8 3.7 4V96zm49 42a5.3 5.3 0 0 1-7.5 0l-8.9-8.9a5.3 5.3 0 0 1 0-7.5l1-1a5.3 5.3 0 0 1 7.5 0l8.9 8.9a5.3 5.3 0 0 1 0 7.5l-1 1zm15.7-2.8c-1.7 1.8-4.4 2-6 .4L244 112.8c-1.6-1.6-1.4-4.2.3-6l4.3-4.3c1.8-1.8 4.5-1.9 6-.3l22.6 22.5c1.5 1.6 1.4 4.3-.4 6l-4.3 4.3zm-151-13.3a5.3 5.3 0 0 1 0 7.5l-8.8 8.9a5.3 5.3 0 0 1-7.6 0l-1-1a5.3 5.3 0 0 1 0-7.5l9-8.9a5.3 5.3 0 0 1 7.5 0l1 1zm-2.7-15.8c1.7 1.8 1.9 4.5.3 6l-22.5 22.6c-1.6 1.6-4.3 1.4-6-.3l-4.3-4.3c-1.8-1.8-2-4.5-.4-6l22.6-22.6c1.5-1.5 4.2-1.4 6 .4l4.3 4.2z" fill="#fff"/><path d="M211.8 87.4c-.4 3.9-11 2.2-13 2.2h-46.3c-3.5 0-2.2-9-2.2-10.8 0-4.2 9.3-2.6 11.5-2.6h47.8c3.4 0 2.2 7.7 2.2 9.4v1.8c0 4.5 7 4.5 7 0 0-7 1.3-15-7-18-3.4-1.2-8.7-.2-12.2-.2H156c-5.5 0-11.7 1-12.5 7.8-.7 6.1-1.6 16.3 5.6 18.9 3.8 1.4 8.7.7 12.7.7h44.3c6.5 0 11.9-1.7 12.7-9.2.5-4.4-6.5-4.4-7 0z" fill="#fff"/></svg>