<svg xmlns="http://www.w3.org/2000/svg" width="361" height="361"><path d="M116 203c0 2.3-2.2 4.2-5 4.2H80c-2.8 0-5-2-5-4.3v-51c0-2.4 2.2-4.3 5-4.3h31c2.7 0 5 2 5 4.3v51zm57-1.6c0 3.2-2.2 5.8-5 5.8h-31c-2.8 0-5-2.6-5-5.8V132c0-3.2 2.2-5.8 5-5.8h31c2.7 0 5 2.6 5 5.8v69.5zm57.1 0c0 3.1-2.4 5.7-5.3 5.7h-30.5c-3 0-5.4-2.6-5.4-5.7v-92.6c0-3.2 2.4-5.7 5.4-5.7h30.5c3 0 5.3 2.5 5.3 5.7v92.6zm57 0a5.4 5.4 0 0 1-5.3 5.6h-30.7a5.4 5.4 0 0 1-5.3-5.5V80.3a5.4 5.4 0 0 1 5.3-5.5h30.7a5.4 5.4 0 0 1 5.3 5.5v121.2z" fill="none" stroke="#fff" stroke-width="10" stroke-miterlimit="10"/><path d="M112 290.6l-3.3-13.7h-18l-3.1 13.7H73.5a550.1 550.1 0 0 1 9.8-32c3.3-9.6 6.4-18.8 9.5-27.4h14.7a755 755 0 0 1 9.6 27.7 576.7 576.7 0 0 1 9.3 31.7H112zm-12.1-47.9a385.5 385.5 0 0 0-2 6.4l-1.8 6a159.2 159.2 0 0 0-1.6 5.8 202.6 202.6 0 0 0-1.4 6.2h13.3l-1.3-6.2a108.6 108.6 0 0 0-1.5-5.8 252 252 0 0 0-1.7-6 439.4 439.4 0 0 0-2-6.4zm54.8 49.2c-4.4 0-8.1-.6-11-1.6a16.7 16.7 0 0 1-7.2-4.6c-1.7-2-3-4.4-3.7-7.2a37.4 37.4 0 0 1-1.1-9.4v-38h13.6v37.2c0 2.5.2 4.6.5 6.3.3 1.7.7 3 1.4 4.1a5.8 5.8 0 0 0 3 2.2c1.2.5 2.8.7 4.7.7s3.4-.2 4.7-.7a6 6 0 0 0 3-2.2 10.3 10.3 0 0 0 1.5-4.2c.3-1.7.4-3.8.4-6.3v-37H178v38c0 3.4-.3 6.5-1 9.3a16.6 16.6 0 0 1-3.9 7.2 17.6 17.6 0 0 1-7.2 4.6c-3 1-6.8 1.6-11.2 1.6zm79.8-60.7v9.8h-17.9v49.6H203V241h-18v-9.8h49.5zm5.7 29.7c0-10.3 2.2-18 6.5-23.2s10.3-7.8 18-7.8c8 0 14 2.6 18.2 7.8s6.3 13 6.3 23.2-2.1 18-6.4 23.1a22 22 0 0 1-18 7.9c-8 0-14-2.6-18.3-7.9-4.2-5.2-6.3-13-6.3-23.1zm13.8 0c0 2.8 0 5.5.3 8a23 23 0 0 0 1.6 6.6 10.6 10.6 0 0 0 3.2 4.5c1.4 1 3.3 1.6 5.6 1.6s4.1-.5 5.6-1.6a10.4 10.4 0 0 0 3.2-4.5 24 24 0 0 0 1.6-6.6 81.3 81.3 0 0 0 0-16.1 23.5 23.5 0 0 0-1.5-6.6 10.7 10.7 0 0 0-3.3-4.4 8.9 8.9 0 0 0-5.6-1.7c-2.3 0-4.2.6-5.6 1.7a10.6 10.6 0 0 0-3.2 4.4 23.9 23.9 0 0 0-1.6 6.6c-.2 2.5-.4 5.2-.4 8z" fill="#fff"/></svg>