<svg xmlns="http://www.w3.org/2000/svg" width="361" height="361"><path d="M249.3 102a7.7 7.7 0 0 1-7.7 7.7h-9a7.7 7.7 0 0 1-7.8-7.8v-9a7.7 7.7 0 0 1 7.8-7.7h9a7.7 7.7 0 0 1 7.7 7.7v9zm-113 0a7.7 7.7 0 0 1-7.7 7.7h-9a7.7 7.7 0 0 1-7.8-7.8v-9a7.7 7.7 0 0 1 7.8-7.7h9a7.7 7.7 0 0 1 7.7 7.7v9z" fill="none" stroke="#fff" stroke-width="10" stroke-miterlimit="10"/><path d="M286.8 144.7a6 6 0 0 1-6 6H81a6 6 0 0 1-6-6v-29a6 6 0 0 1 6-6h199.8a6 6 0 0 1 6 6v29z" fill="#fff" stroke="#fff" stroke-width="10" stroke-miterlimit="10"/><path d="M287 279.9c0 3.5-2.8 6.3-6.1 6.3h-200a6.2 6.2 0 0 1-6-6.3V148.4c0-3.5 2.7-6.3 6-6.3h200c3.3 0 6 2.8 6 6.3v131.5z" fill="none" stroke="#fff" stroke-width="10" stroke-miterlimit="10"/><path fill="#fff" d="M245.1 285.4l.5-40 40-.2z"/><path d="M250.1 285.4l.5-40-5 5 40-.2-3.5-8.5a768803.3 768803.3 0 0 0-40.5 40.2c-4.6 4.5 2.4 11.6 7 7l40.6-40.1c3.1-3.1.8-8.6-3.5-8.6l-40.1.1a5 5 0 0 0-5 5l-.5 40.1c0 6.5 10 6.5 10 0zm-107.3-99.7v75.5c0 6.4 10 6.4 10 0v-75.5c0-6.5-10-6.5-10 0zm67 .5v75c0 6.4 10 6.4 10 0v-75c0-6.5-10-6.5-10 0z" fill="#fff"/><path d="M183.8 229.7h28.5c6.5 0 6.5-10 0-10h-28.5c-6.4 0-6.4 10 0 10z" fill="#fff"/><path d="M178.3 185.7v36.5c0 6.4 10 6.4 10 0v-36.5c0-6.5-10-6.5-10 0z" fill="#fff"/></svg>