<svg xmlns="http://www.w3.org/2000/svg" width="361" height="361"><path d="M116.2 280.3c0 3.7-2.7 6.7-6 6.7h-29c-3.4 0-6-3-6-6.7V136.7c0-3.7 2.6-6.7 6-6.7h29c3.3 0 6 3 6 6.7v143.6zm56-1.7c0 4.7-2.7 8.4-6 8.4h-29c-3.3 0-6-3.7-6-8.4V99.7c0-4.6 2.7-8.4 6-8.4h29c3.3 0 6 3.8 6 8.4v179zm57 4.5c0 2.1-2.7 3.9-6 3.9h-29c-3.3 0-6-1.8-6-3.9v-83.5c0-2.2 2.7-4 6-4h29c3.3 0 6 1.8 6 4V283zm57-2a5.9 5.9 0 0 1-6 5.9h-29a6 6 0 0 1-6-5.8V156.8a6 6 0 0 1 6-5.8h29a6 6 0 0 1 6 5.8v124.4z" fill="none" stroke="#fff" stroke-width="10" stroke-miterlimit="10"/></svg>