<svg xmlns="http://www.w3.org/2000/svg" width="361" height="361"><path d="M282.5 204.4c-.3 1 .5-1.1 0 0l-.6 1.1a60.6 60.6 0 0 1-8 9.5c-6.4 6.5-13.9 12-21.8 16.9a154.3 154.3 0 0 1-77.4 20.9c-11.5.2-23-.7-34-4-6.4-1.8-14-4.8-17.9-10.6-10.7-15.6 9.6-29.4 21.5-35.5 27-13.8 59-16.2 88.6-14 12.4 1 25 3 36.8 7a36 36 0 0 1 10.5 5 8.3 8.3 0 0 1 2.3 2.5c.3.5.2.5 0 1.2-1.8 6.2 7.8 8.9 9.7 2.7 4.2-14.7-18.3-21-28.2-23.5a206.4 206.4 0 0 0-69-4.7c-23.7 2.2-49.4 8.6-68.7 23.1-13 10-21.9 25.8-12.1 41.3 7.5 12 24.1 16.1 37.1 18a172 172 0 0 0 68.1-4.7c18.9-4.9 36.5-14 51.8-25.9 7.7-6 17.5-14 21-23.6 2.1-6.1-7.5-8.7-9.7-2.7z" fill="#fff"/><path d="M80.9 287c-.2-11.4 7.2-20.6 15.3-27.8 12.5-11 28.4-18.4 43.7-24.4 45.7-17.6 96-23.8 144.6-25 6.4-.2 6.5-10.2 0-10-51.2 1.3-104.2 8-152 27.3-24.6 10-62 28.5-61.6 59.9 0 6.4 10 6.4 10 0zm18-132.7V71.1h37.3v9.3h-26.5v25.8h24v9h-24V145H138v9.2H98.9zm79.5 1.8c-9.7 0-17.2-3.6-22.4-11-5.2-7.2-7.8-18.4-7.8-33.6a75 75 0 0 1 2.2-19.7c1.5-5.4 3.5-9.7 6.2-13.1s5.7-5.8 9.3-7.3a30.6 30.6 0 0 1 11.8-2.2A34.1 34.1 0 0 1 195 74l-3.3 9a29 29 0 0 0-6.1-3.1c-2.2-.8-4.8-1.2-7.7-1.2-6.4 0-11 2.7-13.9 8a54.3 54.3 0 0 0-4.3 24.8c0 11.2 1.5 20 4.6 26 3 6 8 9.1 14.8 9.1 3.3 0 6-.4 8-1.2a31.1 31.1 0 0 0 6-3.1l3 8.5a25 25 0 0 1-7.3 3.7 33 33 0 0 1-10.4 1.6zm84.1-43.3a83.3 83.3 0 0 1-1.7 17.7 41.5 41.5 0 0 1-5.4 13.7 26 26 0 0 1-9.2 8.8c-3.8 2-8.1 3.1-13.2 3.1-5 0-9.4-1-13.1-3.1a26 26 0 0 1-9.3-8.8 42.3 42.3 0 0 1-5.4-13.7c-1.2-5.3-1.8-11.2-1.8-17.7s.6-12.4 1.8-17.8c1.2-5.3 3-10 5.4-13.7a26.5 26.5 0 0 1 9.3-8.9 26 26 0 0 1 13.1-3.2c5 0 9.4 1 13.2 3.2a26.5 26.5 0 0 1 9.2 8.9c2.4 3.8 4.2 8.4 5.4 13.7a84.2 84.2 0 0 1 1.7 17.8zm-11.5 0a91 91 0 0 0-1-13.8 38.3 38.3 0 0 0-3-10.8 20 20 0 0 0-5.6-7 13.7 13.7 0 0 0-8.4-2.5c-3.3 0-6 .8-8.3 2.5a18.4 18.4 0 0 0-5.6 7c-1.4 3-2.5 6.6-3.2 10.8a86 86 0 0 0 0 27.6 38.6 38.6 0 0 0 3.2 10.7 18 18 0 0 0 5.6 6.9 14 14 0 0 0 8.3 2.4c3.3 0 6-.8 8.4-2.4a18 18 0 0 0 5.5-7 37.4 37.4 0 0 0 3.2-10.6 91 91 0 0 0 1-13.8z" fill="#fff"/></svg>