<svg xmlns="http://www.w3.org/2000/svg" width="361" height="361"><path d="M166.2 137.8l10.3 54c1.2 6.3 10.9 3.6 9.7-2.7l-10.3-54c-1.2-6.2-10.9-3.6-9.7 2.7z" fill="#fff"/><path d="M177.6 186.8l-21.3 25.8c-4 5 3 12 7.1 7.1l21.2-25.8c4-5-3-12-7-7zm109-73.3L260 86.9c-6.3-6.3-14.3-8.7-22.6-4.2-5.1 2.8-9.4 8.8-13.5 12.9a5 5 0 0 0 0 7L269 148a5 5 0 0 0 7 0l10.2-10.2c7-6.9 6.5-17.2.2-24.2-4.3-4.9-11.3 2.2-7 7 6.5 7.4-5.7 15.6-10.4 20.3h7l-45-45.3v7l10.4-10.3c5.2-5.2 10.1.2 13.8 3.9l24.4 24.3c4.5 4.6 11.6-2.5 7-7zM103.2 85l-26.5 26.6c-6.3 6.3-8.7 14.3-4.2 22.5 2.8 5.2 8.7 9.5 12.8 13.6a5 5 0 0 0 7.1 0l45.2-45.2a5 5 0 0 0 0-7.1l-10.1-10.2c-7-6.9-17.2-6.5-24.3-.2-4.8 4.3 2.3 11.4 7 7 7.4-6.4 15.7 5.8 20.3 10.5v-7.1l-45.2 45.2h7.1l-10.3-10.3c-5.3-5.3.1-10.2 3.8-13.8l24.4-24.4c4.5-4.6-2.5-11.6-7-7z" fill="#fff"/><path d="M214.7 118.2l38.1 38v68l-38 38.2h-68l-38.1-38.1v-68l38-38.1h68m0-10h-68a10 10 0 0 0-7 3l-38.1 38a10 10 0 0 0-3 7v68a10 10 0 0 0 3 7.1l38 38.1a10 10 0 0 0 7.2 3h68a10 10 0 0 0 7-3l38.1-38a10 10 0 0 0 3-7.1v-68a10 10 0 0 0-3-7L222 111a10 10 0 0 0-7.2-3z" fill="#fff"/><path d="M125.2 249.1L102 272.3c-4.5 4.6 2.5 11.7 7.1 7.1l23.2-23.2c4.5-4.6-2.5-11.6-7-7zm104 7.1l23.2 23.2c4.6 4.6 11.6-2.5 7-7l-23-23.4c-4.6-4.5-11.7 2.5-7 7.1zM192 108.6c-.5 3.6-13.9 2-16 2-1.5 0-6.1.6-6.5-2-.3-2 0-4.2 0-6.3 0-3.4 14.3-2 16-2 1.5 0 6.1-.6 6.5 2 .2 2 0 4.3 0 6.3 0 4.5 7 4.5 7 0 0-4 .6-8-1.9-11.4-2.8-4-7.4-3.8-11.7-3.8-8.4 0-21.4-2.4-22.9 9-.5 3.6-.3 8.4 1.9 11.4 2.8 3.9 7.4 3.8 11.7 3.8 8.4 0 21.4 2.4 22.9-9 .6-4.5-6.4-4.4-7 0z" fill="#fff"/></svg>