<svg xmlns="http://www.w3.org/2000/svg" width="361" height="361"><path d="M287 279.9c0 3.5-2.8 6.3-6.1 6.3h-200a6.2 6.2 0 0 1-6-6.3V81.4c0-3.5 2.7-6.3 6-6.3h200c3.3 0 6 2.8 6 6.3v198.5z" fill="none" stroke="#fff" stroke-width="10" stroke-miterlimit="10"/><path d="M108.7 113.8c1.7-.7 3.4-1.6 5.1-2.6s3.3-2.3 4.6-3.7h3.7v30.4h-5.3v-23.3c-.8.6-1.8 1.2-3 1.8a30.3 30.3 0 0 1-3.5 1.4l-1.6-4zm37.9 11.6a10.8 10.8 0 0 1-2.4.7l-2.4.3a13 13 0 0 1-4.7-.8 8.1 8.1 0 0 1-3.1-2 8.1 8.1 0 0 1-1.8-3 11.6 11.6 0 0 1 0-7.2 9.8 9.8 0 0 1 1.8-3.3 9.5 9.5 0 0 1 7.6-3.4c3.6 0 6.3 1.2 8.1 3.5 1.9 2.3 2.8 5.5 2.8 9.7 0 6-1.5 10.5-4.6 13.5-3 3-7.7 4.6-14 4.6l-.2-4.4c1.7 0 3.3-.2 4.7-.5 1.5-.2 2.7-.7 3.8-1.4a8.9 8.9 0 0 0 2.7-2.5 11.5 11.5 0 0 0 1.7-3.8zm-4.2-3.3a13 13 0 0 0 2.5-.2c.8-.2 1.5-.4 2-.7l.1-.9v-.6c0-1.2 0-2.3-.2-3.3a9 9 0 0 0-.8-2.7 4.8 4.8 0 0 0-1.7-1.9 4.6 4.6 0 0 0-2.6-.7c-.8 0-1.5.2-2.1.6a4.5 4.5 0 0 0-1.5 1.3 6 6 0 0 0-.8 1.8 7.2 7.2 0 0 0-.3 2c0 1.7.4 3 1.3 4 .9.9 2.2 1.3 4 1.3zm49.7 7.1a6 6 0 0 0-.6-2.6 4.7 4.7 0 0 0-2-1.9c-1-.5-2.2-1-3.8-1.2a38.2 38.2 0 0 0-6-.4 173.9 173.9 0 0 0 1.1-15.7h15.6v4.5h-11a147.4 147.4 0 0 1-.1 1.7l-.2 2a60.6 60.6 0 0 1-.1 1.8l-.2 1.5c4.3.2 7.5 1.2 9.6 3 2 1.7 3.1 4 3.1 7.1 0 1.4-.2 2.7-.7 3.8a7.9 7.9 0 0 1-2.2 3c-1 1-2.1 1.6-3.6 2a16.3 16.3 0 0 1-7.6.6 34.6 34.6 0 0 1-2.3-.4 26 26 0 0 1-2-.5 8.7 8.7 0 0 1-1.3-.5l1-4.5a15.4 15.4 0 0 0 6.9 1.5c1.1 0 2-.2 3-.4.7-.2 1.4-.6 2-1s.8-1 1-1.6c.3-.5.4-1.1.4-1.8zM207 138a43 43 0 0 1 1.2-7 62 62 0 0 1 5.2-13.8 36 36 0 0 1 3.2-5h-14v-4.6h20.3v4a31.1 31.1 0 0 0-3.1 4.4 57.6 57.6 0 0 0-6 14 40 40 0 0 0-1.3 8H207zm-36.7-23.6c0 1-.4 1.9-1 2.5a3.5 3.5 0 0 1-2.5 1c-1 0-1.9-.3-2.5-1s-1-1.5-1-2.5a3.4 3.4 0 0 1 3.5-3.5 3.5 3.5 0 0 1 3.5 3.5zm0 16.5c0 1-.4 1.8-1 2.5a4 4 0 0 1-2.5 1c-1 0-1.9-.4-2.5-1s-1-1.5-1-2.5a3.4 3.4 0 0 1 3.5-3.6 3.5 3.5 0 0 1 3.5 3.6z" fill="#fff"/><path d="M267.7 175.4c-.5 2.2-3.8 1.4-5.5 1.4H97c-2.5 0-1.2-24-1.2-26.2V105c0-.8-.9-10 1-10h163.6c2.2 0 7.4-1.1 7.4 2v78.7c0 2 3 2 3 0V102c0-3.2.7-6.7-1.6-9.2-1.2-1.1-4.1-.7-5.6-.7H105.3c-4.1 0-12.6-1.7-12.6 4.6v76c0 2.8-.1 7 4 7H256c4.3 0 13.1 1.8 14.5-3.6.5-1.9-2.4-2.7-2.9-.8z" fill="#fff"/><path d="M114.5 168.8h12c4.5 0 4.5-7 0-7h-12c-4.5 0-4.5 7 0 7zm135.3-36.6h8c4.6 0 4.6-7 0-7h-8c-4.5 0-4.5 7 0 7zm-6 12.2h14.8c4.5 0 4.5-7 0-7h-14.8c-4.4 0-4.4 7 0 7zm-3.3 24.4h17.3c4.6 0 4.6-7 0-7h-17.3c-4.5 0-4.5 7 0 7zm-135.3 66.8l20-34.8h-6l20.1 34.8 3-5.3h-40.2c-4.4 0-4.4 7 0 7h40.3a3.5 3.5 0 0 0 3-5.2l-20.1-34.9a3.5 3.5 0 0 0-6 0L99 232.1c-2.2 3.9 3.8 7.4 6 3.5zm151.4-38.4l-20.1 34.9h6l-20-34.9-3.1 5.3h40.2c4.5 0 4.5-7 0-7h-40.2a3.5 3.5 0 0 0-3 5.3l20 34.8a3.5 3.5 0 0 0 6.1 0l20.1-34.8c2.3-4-3.8-7.5-6-3.6zm-69 31.5c-.4 2.7-4.6 1.6-6.7 1.6h-6.6c-1 0-.3-1.3.2-1.3h5.6c.9 0 7.1-.7 7.3.7.6 4.4 7.6 4.4 7 0-1-7.8-7.3-7.7-13.5-7.7-5.4 0-13.2-.8-14.2 6.6-.5 4 1.9 7 5.5 8.5 2 .8 5.1.2 7 .2 5.8 0 14 1 15-6.7.7-4.4-6-6.3-6.7-1.9zm-.2-25.5c-.2 1.4-6.4.6-7.3.6h-5.6c.2 0-5.1-.6-.2-1.3 2-.3 4.4 0 6.6 0 2.1 0 6.3-1 6.6 1.6.6 4.5 7.4 2.6 6.8-1.9-1-7.4-8.6-6.7-14.2-6.7h-5.8c-3.8 0-8.3 3.6-7.7 7.7 1 7.7 7.3 7.6 13.5 7.6 6.4 0 13.2.5 14.3-7.6.6-4.5-6.4-4.4-7 0z" fill="#fff"/></svg>