<svg xmlns="http://www.w3.org/2000/svg" width="361" height="361"><path d="M116 203c0 2-2 4-5 4H80c-3 0-5-2-5-4v-51c0-3 2-4 5-4h31c3 0 5 2 5 4v51zm57-2c0 4-2 6-5 6h-31c-3 0-5-2-5-6v-69c0-3 2-6 5-6h31c3 0 5 3 5 6v70zm57 0c0 4-2 6-5 6h-31c-3 0-5-3-5-6v-92c0-3 2-6 5-6h31c3 0 5 3 5 6v92zm57 0a5 5 0 0 1-5 6h-31a5 5 0 0 1-5-5V80a5 5 0 0 1 5-5h31a5 5 0 0 1 5 5v122z" fill="none" stroke="#fff" stroke-width="10" stroke-miterlimit="10"/><path d="M112 291l-3-14H91l-3 14H74a550 550 0 0 1 9-32l10-28h14a755 755 0 0 1 10 28 577 577 0 0 1 9 32h-14zm-12-48a386 386 0 0 0-2 6l-2 6a159 159 0 0 0-1 6 203 203 0 0 0-2 6h13l-1-6a109 109 0 0 0-1-6 252 252 0 0 0-2-6 439 439 0 0 0-2-6zm55 49l-11-2a17 17 0 0 1-8-4l-3-8a37 37 0 0 1-1-9v-38h13v37l1 7 1 4a6 6 0 0 0 3 2l5 1 5-1a6 6 0 0 0 3-2 10 10 0 0 0 1-4v-44h14v38l-1 10a17 17 0 0 1-4 7 18 18 0 0 1-7 4l-11 2zm79-61v10h-17v50h-14v-50h-18v-10h50zm6 30c0-10 2-18 7-23s10-8 18-8 14 3 18 8 6 13 6 23-2 18-6 23a22 22 0 0 1-18 8c-8 0-14-3-18-8-5-5-7-13-7-23zm14 0v8a23 23 0 0 0 2 7 11 11 0 0 0 3 4l6 2c3 0 4-1 5-2a10 10 0 0 0 4-4 24 24 0 0 0 1-7 81 81 0 0 0 0-16 24 24 0 0 0-1-7 11 11 0 0 0-4-4 9 9 0 0 0-5-2l-6 2a11 11 0 0 0-3 4 24 24 0 0 0-2 7v8z" fill="#fff"/></svg>