<svg xmlns="http://www.w3.org/2000/svg" width="361" height="361"><path d="M220 243l-38-48c-2-3-7 1-5 5l38 48c2 3 7-2 5-5z" fill="#fff"/><path d="M115 150a81 81 0 0 1 116-15 81 81 0 0 1 7 117 81 81 0 0 1-109 7 81 81 0 0 1-14-109c6-8-7-15-13-7a96 96 0 0 0 15 125 96 96 0 0 0 126 0 96 96 0 0 0 16-125 96 96 0 0 0-123-30 96 96 0 0 0-34 30c-2 3 0 8 3 10 4 2 8 0 10-3z" fill="#fff"/><path d="M99 200h18c4 0 4-7 0-7H99c-5 0-5 7 0 7zm145 0h17c5 0 5-7 0-7h-18c-4 0-4 7 0 7zm-67-83v16c0 5 7 5 7 0v-16c0-5-7-5-7 0zm0 143v17c0 5 7 5 7 0v-17c0-4-7-4-7 0zm-57-118l13 13c3 3 8-2 5-5l-13-13c-3-3-8 2-5 5zm103 102l12 13c3 3 8-2 5-5l-12-12c-4-4-8 1-5 4zm12-106l-12 12c-4 3 1 8 5 5l11-12c4-3-1-8-4-5zM133 239l-12 13c-4 3 1 8 5 5l12-13c3-3-2-8-5-5zm-36-4l18-8c4-1 3-8-1-6l-19 7c-4 2-2 9 2 7zm150-62l18-8c4-1 2-8-2-6l-18 7c-4 2-3 9 2 7zm-105-58l7 17c2 4 9 2 7-2l-7-17c-2-4-8-3-7 2zm62 148l7 18c2 4 9 2 7-2l-8-18c-1-4-8-2-6 2zM95 165l19 8c4 2 6-5 2-7l-19-7c-4-2-6 5-2 6zm150 62l18 8c4 2 6-5 2-7l-18-7c-5-2-6 5-2 6zm-34-114l-7 17c-2 5 5 6 7 2l7-17c2-4-5-6-7-2zm-61 149l-8 17c-2 5 5 6 7 2l7-18c2-4-5-6-6-2zm26-66c2-2 3-3 6-2 2 1 2 4 1 5-1 2-3 3-5 2s-2-4-1-6c4-5-5-10-9-5a14 14 0 0 0 3 18c6 5 15 4 20-2s4-14-2-19-15-4-20 2c-1 2-2 5 0 7s6 2 7 0zm24-93a5 5 0 0 1-5 5h-28a5 5 0 0 1-5-5v-1a5 5 0 0 1 5-5h28a5 5 0 0 1 5 5v1z" fill="#fff"/><path d="M208 96c0 2-2 4-4 4h-46c-2 0-3-2-3-4v-6c0-2 1-4 3-4h46c2 0 4 2 4 4v6zm49 42a5 5 0 0 1-8 0l-9-9a5 5 0 0 1 0-8l1-1a5 5 0 0 1 8 0l9 9a5 5 0 0 1 0 8l-1 1zm16-3c-2 2-5 2-6 0l-23-22c-2-2-1-4 0-6l5-5h6l22 23c2 1 2 4 0 6l-4 4zm-151-13a5 5 0 0 1 0 7l-9 9a5 5 0 0 1-8 0l-1-1a5 5 0 0 1 0-7l9-9a5 5 0 0 1 8 0l1 1zm-3-16c1 2 2 4 0 6l-22 23c-2 1-5 1-6-1l-5-4c-2-2-2-5 0-6l22-23c2-1 5-1 7 1l4 4z" fill="#fff"/><path d="M212 87c-1 4-11 3-13 3h-46c-4 0-3-9-3-11 0-4 10-3 12-3h48c3 0 2 8 2 10v1c0 5 7 5 7 0 0-7 1-15-7-18h-56c-5 0-12 1-12 8-1 6-2 16 5 19l13 1h44c7 0 12-2 13-10 0-4-7-4-7 0z" fill="#fff"/></svg>