<svg xmlns="http://www.w3.org/2000/svg" width="361" height="361"><path d="M283 204c-1 1 0-1 0 0l-1 2a61 61 0 0 1-8 9c-7 7-14 12-22 17a154 154 0 0 1-77 21c-12 0-23-1-34-4-7-2-14-5-18-11-11-15 9-29 21-35 27-14 59-16 89-14 12 1 25 3 37 7a36 36 0 0 1 10 5 8 8 0 0 1 2 2v1c-1 7 8 9 10 3 4-15-18-21-28-23a206 206 0 0 0-69-5c-24 2-49 9-69 23-13 10-22 26-12 41 8 12 24 16 37 18a172 172 0 0 0 68-4c19-5 37-14 52-26 8-6 18-14 21-24 2-6-7-9-10-3z" fill="#fff"/><path d="M81 287c0-11 7-21 15-28 13-11 29-18 44-24 46-18 96-24 145-25 6 0 6-10 0-10-52 1-105 8-152 27-25 10-62 29-62 60 0 6 10 6 10 0zm18-133V71h37v9h-26v26h24v9h-24v30h28v9H99zm79 2c-9 0-17-3-22-11-5-7-8-18-8-33a75 75 0 0 1 2-20c2-6 4-10 7-13s5-6 9-8a31 31 0 0 1 12-2 34 34 0 0 1 17 5l-3 9a29 29 0 0 0-6-3l-8-1c-6 0-11 2-14 8a54 54 0 0 0-4 25c0 11 1 20 4 26s8 9 15 9l8-2a31 31 0 0 0 6-3l3 9a25 25 0 0 1-7 4 33 33 0 0 1-11 1zm85-43a83 83 0 0 1-2 18 42 42 0 0 1-6 13 26 26 0 0 1-9 9c-4 2-8 3-13 3s-9-1-13-3a26 26 0 0 1-9-9 42 42 0 0 1-6-13 80 80 0 0 1 6-50 27 27 0 0 1 9-9 26 26 0 0 1 13-3c5 0 9 1 13 3a27 27 0 0 1 9 9c3 4 5 9 6 14a84 84 0 0 1 2 18zm-12 0a91 91 0 0 0-1-14 38 38 0 0 0-3-11 20 20 0 0 0-6-7 14 14 0 0 0-8-2l-8 2a18 18 0 0 0-6 7l-3 11a86 86 0 0 0 0 28 39 39 0 0 0 3 10 18 18 0 0 0 6 7 14 14 0 0 0 8 3c3 0 6-1 8-3a18 18 0 0 0 6-7 37 37 0 0 0 3-10 91 91 0 0 0 1-14z" fill="#fff"/></svg>