<svg xmlns="http://www.w3.org/2000/svg" width="361" height="361"><path d="M249 102a8 8 0 0 1-7 8h-9a8 8 0 0 1-8-8v-9a8 8 0 0 1 8-8h9a8 8 0 0 1 7 8v9zm-113 0a8 8 0 0 1-7 8h-9a8 8 0 0 1-8-8v-9a8 8 0 0 1 8-8h9a8 8 0 0 1 7 8v9z" fill="none" stroke="#fff" stroke-width="10" stroke-miterlimit="10"/><path d="M287 145a6 6 0 0 1-6 6H81a6 6 0 0 1-6-6v-29a6 6 0 0 1 6-6h200a6 6 0 0 1 6 6v29z" fill="#fff" stroke="#fff" stroke-width="10" stroke-miterlimit="10"/><path d="M287 280c0 3-3 6-6 6H81a6 6 0 0 1-6-6V148c0-3 3-6 6-6h200c3 0 6 3 6 6v132z" fill="none" stroke="#fff" stroke-width="10" stroke-miterlimit="10"/><path fill="#fff" d="M245 285l1-40h40z"/><path d="M250 285l1-40-5 5h40l-4-8a768803 768803 0 0 0-40 40c-5 4 2 11 7 7l40-40c3-3 1-9-3-9h-40a5 5 0 0 0-5 5l-1 40c0 7 10 7 10 0zm-107-99v75c0 7 10 7 10 0v-75c0-7-10-7-10 0zm67 0v75c0 7 10 7 10 0v-75c0-6-10-6-10 0z" fill="#fff"/><path d="M184 230h28c7 0 7-10 0-10h-28c-7 0-7 10 0 10z" fill="#fff"/><path d="M178 186v36c0 7 10 7 10 0v-36c0-7-10-7-10 0z" fill="#fff"/></svg>