<svg xmlns="http://www.w3.org/2000/svg" width="361" height="361"><path d="M139.4 112.3l7.3 38c.8 4.5 7.6 2.6 6.7-1.8l-7.2-38c-.9-4.5-7.6-2.6-6.8 1.8z" fill="#fff"/><path d="M147.4 146.9l-15 18.2c-2.8 3.5 2.1 8.4 5 5l15-18.3c2.8-3.4-2.1-8.4-5-4.9zm76.8-51.8l-18.8-18.8c-4-4-9.9-6.4-15.1-3.2-4 2.3-7 6.2-10.2 9.4a3.5 3.5 0 0 0 0 5 959487.1 959487.1 0 0 0 31.9 31.9 3.5 3.5 0 0 0 5 0c6.7-6.8 15.5-14.5 7.2-24.3-2.9-3.4-7.8 1.6-5 5 4.6 5.2-3.8 11-7.2 14.3h5l-32-31.9v5l7.3-7.3c4-4 7.6.5 10.3 3.2l16.7 16.7c3.2 3.2 8.1-1.8 5-5zM95 75.1l-18.9 19c-3.8 3.8-6.3 9.8-3.2 15 2.4 4 6.3 7 9.5 10.2a3.5 3.5 0 0 0 5 0l31.9-31.9a3.5 3.5 0 0 0 0-5c-6.9-6.8-14.5-15.5-24.3-7.3-3.4 3 1.5 7.9 5 5 5.2-4.5 11 4 14.3 7.3v-5l-31.9 32h5A49375.4 49375.4 0 0 1 80 107c-4-4 .5-7.6 3.2-10.3L100 80c3.2-3.2-1.8-8.2-5-5z" fill="#fff"/><path d="M173.6 98.5l26.9 26.8v48l-26.9 26.9h-48l-26.8-27v-47.9l26.9-26.9h48m0-10h-48a10 10 0 0 0-7.1 3l-26.9 26.9a10 10 0 0 0-3 7v48a10 10 0 0 0 3 7l26.9 27a10 10 0 0 0 7 2.9h48a10 10 0 0 0 7-3l27-26.8a10 10 0 0 0 2.9-7.1v-48a10 10 0 0 0-3-7l-26.8-27a10 10 0 0 0-7-2.8z" fill="#fff"/><path d="M108.4 190.8L92 207.2c-4.5 4.5 2.5 11.6 7.1 7l16.4-16.3c4.6-4.6-2.5-11.7-7-7.1zm75.4 7l16.3 16.4c4.6 4.6 11.7-2.5 7.1-7l-16.4-16.4c-4.5-4.6-11.6 2.5-7 7zm-27.2-108c-.3 2.5-7.7 1.3-9.4 1.3h-3.5c-1.6 0-1-3.5-1-4.6 0-1 8.6-.5 9.3-.5h3.6c1.6 0 1 3.8 1 4.7 0 4.5 7 4.5 7 0 0-3 .4-6.4-1.7-8.8-2.3-2.6-5.2-3-8.5-3-6 0-16.3-1.7-17.5 6.5-.5 3-.4 6.3 1 9 1.5 3.4 5.7 3.7 9 3.7 5.9 0 16.2 1.8 17.5-6.4.7-4.4-6-6.3-6.8-1.9zm25 136.2a37.3 37.3 0 0 0 0 52c3 3.3 8-1.7 4.9-5a30.2 30.2 0 0 1 0-42c3.1-3.3-1.9-8.2-5-5z" fill="#fff"/><path d="M169 219.8a46.3 46.3 0 0 0 0 64.7c3.2 3.2 8.2-1.7 5-5a39.2 39.2 0 0 1 0-54.8c3.2-3.2-1.8-8.2-5-5zm97.5 58.4a37.3 37.3 0 0 0 0-52c-3.2-3.3-8.1 1.7-5 5a30.2 30.2 0 0 1 0 42c-3.1 3.3 1.8 8.3 5 5z" fill="#fff"/><path d="M278.9 284.5a46.3 46.3 0 0 0 0-64.7c-3.1-3.3-8.1 1.7-5 5a39.2 39.2 0 0 1 0 54.7c-3 3.2 1.9 8.2 5 5zm-30.8-10.9a6.2 6.2 0 0 1-5.8 7h-36.4a6.2 6.2 0 0 1-5.9-7c1.3-10.6 8.5-23.2 9.7-33.8.5-3.8 5.6-14.3 8.8-14.3h11.2c3.2 0 8.3 10.5 8.7 14.3 1.2 10.6 8.5 23.2 9.7 33.8z" fill="#fff"/><path d="M244.6 273.6c0 4.6-5.2 3.4-8.2 3.4h-29c-1.4 0-2.4.2-3.5-1.3-2.1-3 2.2-12 3.2-14.9l4.4-12.6c1-3.2 1.2-6.6 2.2-9.8.9-3 2.4-6 4.3-8.4 1.3-1.6 10-2 11.6-.7 5 4.8 5.3 12.7 7 19 2.6 8.8 6.9 17 8.2 26.3.6 4.4 7.3 2.5 6.7-1.9-1.6-11.7-8-22.1-9.7-33.8-.7-5.3-5.6-17-12.1-17-4.4 0-11-1.3-14.7 1.4-3 2.2-5 6-6.5 9.4-1.8 4-2.2 8-3.3 12.2-1.6 6.4-4.4 12.5-6.4 18.8-1.4 4.2-3.5 10-1.5 14.4 1.5 3.4 4.7 6 8.6 6h33.8c6.5 0 12-3.1 12-10.5 0-4.5-7-4.5-7 0z" fill="#fff"/></svg>