<svg xmlns="http://www.w3.org/2000/svg" width="361" height="361"><g fill="#fff"><circle cx="236.6" cy="156.6" r="28.8"/><path d="M236.6 186a29.6 29.6 0 1 1 0-59 29.6 29.6 0 0 1 0 59zm0-57.6a28.2 28.2 0 0 0-28.2 28.2 28.2 28.2 0 0 0 28.2 28.1 28.2 28.2 0 0 0 28.1-28.1 28.2 28.2 0 0 0-28.1-28.2z"/></g><path d="M267.6 277.5c0 7.9-6.4 14.2-14.3 14.2h-33.4c-7.9 0-14.3-6.3-14.3-14.2v-71.8c0-7.9 6.4-14.3 14.3-14.3h33.4c7.9 0 14.3 6.4 14.3 14.3v71.8zm6.3-73.4v79.3c0 11.5 17.7 11.5 17.7 0v-79.3c0-11.4-17.7-11.4-17.7 0zm-92.3 0v79.3c0 11.5 17.7 11.5 17.7 0v-79.3c0-11.4-17.7-11.4-17.7 0zm-94.2-79L97 121l-10.7-11.2-10.8-11.2 1.1 15.3 1.2 15.3z" fill="#fff"/><path d="M90 129.4l9.6-4c3-1.4 3-5.9 1-8L79 95.2c-3-3-9-1-8.6 3.5l2.3 30.6c.3 4 4 5.9 7.5 4.3l9.6-4c6-2.6.9-11.2-5-8.7l-9.7 4 7.6 4.4-2.3-30.6-8.5 3.5 21.5 22.4 1-7.8-9.6 4c-6 2.6-.8 11.2 5 8.7z" fill="#fff"/><path d="M123 116.3a6.3 6.3 0 0 0 8.3 3l23.4-10.2a6 6 0 0 0 3.1-8.1 6.3 6.3 0 0 0-8.3-3.1l-23.3 10.2a6 6 0 0 0-3.2 8.2z" fill="#fff" stroke="#fff" stroke-miterlimit="10"/><g fill="#fff"><path d="M190.2 86.8c6-2.8 9.6-8.1 7.8-12-1.7-3.8-5.9-5.6-11.9-2.8l4.1 14.8z"/><path d="M190 87.6l-4.6-15.8.5-.3c6.3-3 10.8-1 12.7 3 1.8 4.2-1.8 10-8.2 12.8l-.5.3zm-3.1-15.3l3.6 13.8c5.4-2.7 8.5-7.6 7-11-1.5-3.5-5-5.2-10.6-2.8z"/></g><path d="M182.5 70.4L84 112.6a2.7 2.7 0 0 0-1.4 3.5l5.2 12.2a2.7 2.7 0 0 0 3.6 1.5L190 87.6c2.7-1.2 1.6-3.3 1.4-3.6l-5.2-12.2a2.7 2.7 0 0 0-3.6-1.4zm-44.3 25.1l-2.8 1.2c-.3.1-.8-.3-1-.9s-.3-1.2 0-1.3l2.8-1.2c.3-.1.8.2 1 .9s.3 1.2 0 1.3zm6.4-2.8l-2.8 1.2c-.3.2-.7-.2-1-.8-.3-.6-.2-1.3 0-1.4l2.9-1.2c.3-.1.7.3 1 .9.3.6.2 1.2 0 1.3zm6.5-2.7l-2.8 1.2c-.3 0-.8-.3-1-1-.3-.5-.3-1.1 0-1.3l2.8-1.2c.3 0 .8.3 1 1s.3 1.1 0 1.3zm6.5-2.8l-2.8 1.2c-.4.1-.8-.3-1-.9s-.3-1.2 0-1.3l2.8-1.2c.3-.1.8.2 1 .9s.3 1.2 0 1.3zm6.4-2.8l-2.8 1.2c-.3.2-.7-.2-1-.8-.3-.6-.2-1.3 0-1.4l2.9-1.2c.3-.1.7.3 1 .9.3.6.2 1.2 0 1.3zm6.5-2.7l-2.8 1.2c-.3 0-.8-.3-1-1s-.3-1.1 0-1.3l2.8-1.2c.3 0 .8.3 1 1 .3.5.3 1.1 0 1.3zm13.8-7.5l-5.6 2.4c-.6.3-1.4-.1-1.7-1-.3-.7 0-1.5.5-1.7l5.6-2.4c.6-.3 1.4.1 1.7.9.3.7.1 1.5-.5 1.8z" fill="#fff"/></svg>