<svg xmlns="http://www.w3.org/2000/svg" width="361" height="361"><g fill="#fff"><circle cx="237" cy="157" r="29"/><path d="M237 186a30 30 0 1 1 0-59 30 30 0 0 1 0 59zm0-58a28 28 0 0 0-29 29 28 28 0 0 0 29 28 28 28 0 0 0 28-28 28 28 0 0 0-28-29z"/></g><path d="M268 278c0 7-7 14-15 14h-33c-8 0-14-7-14-15v-71c0-8 6-15 14-15h33c8 0 15 7 15 15v71zm6-74v79c0 12 18 12 18 0v-79c0-11-18-11-18 0zm-92 0v79c0 12 17 12 17 0v-79c0-11-17-11-17 0zm-73-32l-31-30m36 25l-31-31c-7-7-17 4-11 11l31 31c7 7 18-4 11-11z" fill="#fff"/><path fill="#fff" d="M173 77l-64 96m57-99l-64 95c-5 8 8 15 13 7l64-95c5-8-8-15-13-7z"/></svg>