<svg xmlns="http://www.w3.org/2000/svg" width="361" height="361"><g fill="#fff"><circle cx="236.6" cy="156.6" r="28.8"/><path d="M236.6 186a29.6 29.6 0 1 1 0-59 29.6 29.6 0 0 1 0 59zm0-57.6a28.2 28.2 0 0 0-28.2 28.2 28.2 28.2 0 0 0 28.2 28.1 28.2 28.2 0 0 0 28.1-28.1 28.2 28.2 0 0 0-28.1-28.2z"/></g><path d="M267.6 277.5c0 7.9-6.4 14.2-14.3 14.2h-33.4c-7.9 0-14.3-6.3-14.3-14.2v-71.8c0-7.9 6.4-14.3 14.3-14.3h33.4c7.9 0 14.3 6.4 14.3 14.3v71.8zm6.3-73.4v79.3c0 11.5 17.7 11.5 17.7 0v-79.3c0-11.4-17.7-11.4-17.7 0zm-92.3 0v79.3c0 11.5 17.7 11.5 17.7 0v-79.3c0-11.4-17.7-11.4-17.7 0zM77 77.5c.1-.7 0-.5 1.5-.5h94.3c1.4 0 .5-.3.5-.1v96.6c0 .5.7-.3.4-.3h-97c.5 0 .4.7.4-.8V76.5c0-4.5-7-4.5-7 0v91.8c0 3.1-.5 6.6 1.4 9.3 2.1 3.2 6.3 2.7 9.6 2.7H174c9.5 0 6.5-17.1 6.5-22.9v-80c0-9.6-12-7.4-18.4-7.4H79.2c-4 0-7.9.8-8.9 5.6-.9 4.4 5.9 6.3 6.8 1.9z" fill="#fff"/><path d="M74.2 128.5h11.3c4.5 0 4.5-7 0-7H74.2c-4.5 0-4.5 7 0 7zm90.7 0h11c4.6 0 4.6-7 0-7h-11c-4.5 0-4.5 7 0 7zm-43.2-53.8v10.6c0 4.5 7 4.5 7 0V74.8c0-4.6-7-4.6-7 0zm0 90v10.8c0 4.5 7 4.5 7 0v-10.8c0-4.5-7-4.5-7 0zm.3-70.3V125c0 4.6 7 4.6 7 0V94.4c0-4.5-7-4.5-7 0z" fill="#fff"/><path d="M123.2 127.7l13.3 13.3c3.2 3.2 8.1-1.8 5-5l-13.3-13.2c-3.2-3.2-8.2 1.7-5 5z" fill="#fff"/></svg>