<svg xmlns="http://www.w3.org/2000/svg" width="361" height="361"><g fill="#fff"><circle cx="236.6" cy="156.6" r="28.8"/><path d="M236.6 186a29.6 29.6 0 1 1 0-59 29.6 29.6 0 0 1 0 59zm0-57.6a28.2 28.2 0 0 0-28.2 28.2 28.2 28.2 0 0 0 28.2 28.1 28.2 28.2 0 0 0 28.1-28.1 28.2 28.2 0 0 0-28.1-28.2z"/></g><path d="M267.6 277.5c0 7.9-6.4 14.2-14.3 14.2h-33.4c-7.9 0-14.3-6.3-14.3-14.2v-71.8c0-7.9 6.4-14.3 14.3-14.3h33.4c7.9 0 14.3 6.4 14.3 14.3v71.8zm6.3-73.4v79.3c0 11.5 17.7 11.5 17.7 0v-79.3c0-11.4-17.7-11.4-17.7 0zm-92.3 0v79.3c0 11.5 17.7 11.5 17.7 0v-79.3c0-11.4-17.7-11.4-17.7 0zM171 157.7c-.6 16.4-20.2 13-31.3 13h-43c-6.6 0-12-1.5-15.2-8-1.8-3.4-1-9-1-12.8V93.4c0-8.1 6.7-13.1 14.3-13.1h59.4c6.2 0 11.6 1 15.2 6.8 2.2 3.8 1.6 9.1 1.6 13.3v57.3c0 6.4 10 6.4 10 0v-56c0-4 .3-8.3-.4-12.3a23.4 23.4 0 0 0-22.7-19.1H102c-4 0-8.4-.4-12.5.4a23.5 23.5 0 0 0-19 22.7c-.4 11.2 0 22.4 0 33.6v22.3c0 4-.4 8.4.3 12.4a23.5 23.5 0 0 0 22.8 19c3.5.2 7 0 10.6 0h45.2c4.1 0 8.5.4 12.5-.3a23.5 23.5 0 0 0 19-22.7c.3-6.5-9.7-6.4-10 0z" fill="#fff"/><path d="M97.2 133h57c9.7 0 9.7-15 0-15h-57c-9.6 0-9.7 15 0 15z" fill="#fff"/></svg>