<svg xmlns="http://www.w3.org/2000/svg" width="361" height="361"><g fill="#fff"><circle cx="236.6" cy="156.6" r="28.8"/><path d="M236.6 186a29.6 29.6 0 1 1 0-59 29.6 29.6 0 0 1 0 59zm0-57.6a28.2 28.2 0 0 0-28.2 28.2 28.2 28.2 0 0 0 28.2 28.1 28.2 28.2 0 0 0 28.1-28.1 28.2 28.2 0 0 0-28.1-28.2z"/></g><path d="M267.6 277.5c0 7.9-6.4 14.2-14.3 14.2h-33.4c-7.9 0-14.3-6.3-14.3-14.2v-71.8c0-7.9 6.4-14.3 14.3-14.3h33.4c7.9 0 14.3 6.4 14.3 14.3v71.8zm6.3-73.4v79.3c0 11.5 17.7 11.5 17.7 0v-79.3c0-11.4-17.7-11.4-17.7 0zm-92.3 0v79.3c0 11.5 17.7 11.5 17.7 0v-79.3c0-11.4-17.7-11.4-17.7 0zm-73-31.6l-30.9-31m36.2 25.7l-31-31c-6.8-6.8-17.3 3.8-10.5 10.7l31 31c6.8 6.8 17.4-3.8 10.5-10.7z" fill="#fff"/><path fill="#fff" d="M172.6 77.4l-64 95.1m57.5-98.8l-64 95c-5.3 8.1 7.7 15.6 13 7.6l64-95.1c5.4-8-7.6-15.5-13-7.5z"/></svg>