<svg xmlns="http://www.w3.org/2000/svg" width="361" height="361"><g fill="#fff"><circle cx="237" cy="157" r="29"/><path d="M237 186a30 30 0 1 1 0-59 30 30 0 0 1 0 59zm0-58a28 28 0 0 0-29 29 28 28 0 0 0 29 28 28 28 0 0 0 28-28 28 28 0 0 0-28-29z"/></g><path d="M268 278c0 7-7 14-15 14h-33c-8 0-14-7-14-15v-71c0-8 6-15 14-15h33c8 0 15 7 15 15v71zm6-74v79c0 12 18 12 18 0v-79c0-11-18-11-18 0zm-92 0v79c0 12 17 12 17 0v-79c0-11-17-11-17 0zM77 78l2-1h94c1 0 0 0 0 0v97l1-1H77V77c0-5-7-5-7 0v91c0 3 0 7 2 10s6 2 9 2h93c10 0 7-17 7-23V77c0-9-12-7-19-7H79c-4 0-8 1-9 6-1 4 6 6 7 1z" fill="#fff"/><path d="M74 129h12c4 0 4-7 0-7H74c-4 0-4 7 0 7zm91 0h11c5 0 5-7 0-7h-11c-5 0-5 7 0 7zm-43-54v10c0 5 7 5 7 0V75c0-5-7-5-7 0zm0 90v10c0 5 7 5 7 1v-11c0-5-7-5-7 0zm0-71v31c0 5 7 5 7 0V94c0-4-7-4-7 0z" fill="#fff"/><path d="M123 128l14 13c3 3 8-2 5-5l-14-13c-3-3-8 1-5 5z" fill="#fff"/></svg>