<svg xmlns="http://www.w3.org/2000/svg" width="361" height="361"><g fill="#fff"><circle cx="237" cy="157" r="29"/><path d="M237 186a30 30 0 1 1 0-59 30 30 0 0 1 0 59zm0-58a28 28 0 0 0-29 29 28 28 0 0 0 29 28 28 28 0 0 0 28-28 28 28 0 0 0-28-29z"/></g><path d="M268 278c0 7-7 14-15 14h-33c-8 0-14-7-14-15v-71c0-8 6-15 14-15h33c8 0 15 7 15 15v71zm6-74v79c0 12 18 12 18 0v-79c0-11-18-11-18 0zm-92 0v79c0 12 17 12 17 0v-79c0-11-17-11-17 0zm-95-79l10-4-11-11-11-11 2 15 1 15z" fill="#fff"/><path d="M90 129l10-4c3-1 3-5 1-8L79 95c-3-3-9-1-9 4l3 30c0 4 4 6 7 5l10-4c6-3 1-12-5-9l-10 4 8 4-3-30-8 3 21 23 1-8-9 4c-6 2-1 11 5 9z" fill="#fff"/><path d="M123 116a6 6 0 0 0 8 3l24-10a6 6 0 0 0 3-8 6 6 0 0 0-8-3l-24 10a6 6 0 0 0-3 8z" fill="#fff" stroke="#fff" stroke-miterlimit="10"/><g fill="#fff"><path d="M190 87c6-3 10-8 8-12s-6-6-12-3l4 15z"/><path d="M190 88l-5-16 1-1c6-2 11 0 13 4 1 4-2 10-9 12v1zm-3-16l4 14c5-3 8-8 7-11-2-3-5-5-11-3z"/></g><path d="M183 70l-99 43a3 3 0 0 0-1 3l5 12a3 3 0 0 0 3 2l99-42c3-2 2-4 1-4l-5-12a3 3 0 0 0-3-2zm-45 26l-3 1-1-1v-2l3-1 1 1v2zm7-3l-3 1-1-1v-1l3-1h1v2zm6-3l-3 1-1-1v-1l3-1 1 1v1zm7-3l-3 1h-1v-2l3-1 1 1v1zm6-3l-3 2-1-1v-2l3-1 1 1v1zm7-2l-3 1-1-1v-1l2-2 2 1v2zm13-8l-5 3-2-1 1-2 5-2h2l-1 2z" fill="#fff"/></svg>