<svg xmlns="http://www.w3.org/2000/svg" width="361" height="361"><g fill="#fff"><circle cx="237" cy="157" r="29"/><path d="M237 186a30 30 0 1 1 0-59 30 30 0 0 1 0 59zm0-58a28 28 0 0 0-29 29 28 28 0 0 0 29 28 28 28 0 0 0 28-28 28 28 0 0 0-28-29z"/></g><path d="M268 278c0 7-7 14-15 14h-33c-8 0-14-7-14-15v-71c0-8 6-15 14-15h33c8 0 15 7 15 15v71zm6-74v79c0 12 18 12 18 0v-79c0-11-18-11-18 0zm-92 0v79c0 12 17 12 17 0v-79c0-11-17-11-17 0zm-11-46c-1 16-20 13-31 13H97c-7 0-12-2-16-8l-1-13V93c0-8 7-13 15-13h59c6 0 12 1 15 7 3 4 2 9 2 13v58c0 6 10 6 10 0V89a23 23 0 0 0-23-19h-56l-12 1a24 24 0 0 0-19 22v69a24 24 0 0 0 23 19h55l13-1a24 24 0 0 0 19-22c0-7-10-7-10 0z" fill="#fff"/><path d="M97 133h57c10 0 10-15 0-15H97c-9 0-10 15 0 15z" fill="#fff"/></svg>