<svg xmlns="http://www.w3.org/2000/svg" width="361" height="361"><path d="M90 269h1l3-2H76l4 2v-65l-4 1h18l-3-1c-1-1-1 2-1 2v63c0 7 10 7 10 0v-68c-3-8-12-5-19-5h-8c-3 2-3 5-3 9v67c2 7 10 5 16 5h8c5 0 6-4 6-8 1-6-9-6-10 0z" fill="#fff"/><path d="M93 191l66 50v-9l-66 51 8 4V186c0-6-10-6-10 0v101c0 4 4 7 7 5l66-51c3-2 3-6 0-8l-66-51c-5-4-10 5-5 9zm159 95V178c0-6-10-6-10 0v108c0 7 10 7 10 0zm0-166V99c0-6-10-6-10 0v21c0 7 10 7 10 0z" fill="#fff"/><path d="M289 114l-85-44c-6-3-11 6-5 9l85 43c5 3 11-5 5-8zm-152 37a174 174 0 0 1 19-5 44 44 0 0 1 24 4c11 4 22 11 34 11 7 1 15-3 22-6l12-5c8-3 15-5 24-4a168 168 0 0 1 19 5c1 1 2-2 0-3a189 189 0 0 0-19-5c-8-1-14 1-22 3-11 4-24 12-36 12-8 0-16-4-23-7l-14-5a41 41 0 0 0-21-3l-20 5c-2 1-1 3 1 3z" fill="#fff"/><path d="M144 160c6-3 13-5 20-4 7 0 14 4 20 6 10 4 19 9 30 9 6 1 13-3 19-5l9-4c7-2 13-5 20-6a41 41 0 0 1 21 4c2 0 2-3 1-3a60 60 0 0 0-19-4c-7 0-14 3-20 5-10 4-21 10-31 10-7 1-15-3-21-5l-10-4a76 76 0 0 0-20-6 48 48 0 0 0-19 4c-2 0-1 3 0 3zm1-21c6-2 13-4 19-3 7 0 14 3 20 6 10 4 20 9 30 9 6 0 13-3 19-5l10-4 19-6a41 41 0 0 1 21 3c2 1 3-2 1-3a60 60 0 0 0-19-4c-7 0-14 4-20 6-10 4-20 10-31 10-7 0-15-3-21-6l-10-4a76 76 0 0 0-20-6 49 49 0 0 0-19 4c-2 1-1 4 0 3zm-67-31l56-29c6-3 1-12-5-9L73 99c-6 3-1 12 5 9z" fill="#fff"/></svg>