<svg xmlns="http://www.w3.org/2000/svg" width="361" height="361"><path d="M157 147c0-2-2-3-3-3l-30 8c-1 0-2 2-1 4l13 51c1 2 2 3 4 3l29-8c2 0 2-2 2-4l-14-51zm1-34v4l21 22c1 1 3 0 5-1l37-37c1-2 2-4 1-5l-22-21c-1-1-3-1-4 1l-37 37zm-30 16c2 0 4 0 4-2l8-29c1-1-1-3-2-4L87 81c-2-1-4 0-4 1l-8 30c-1 1 1 3 2 3l51 14z" fill="none" stroke="#fff" stroke-width="10" stroke-miterlimit="10"/><path d="M150 133l2-6-9 2 5 5 2-9-6 2a5 5 0 0 0-4 6 5 5 0 0 0 6 4l7-2a5 5 0 0 0 2-8l-5-5a5 5 0 0 0-8 2l-2 7a5 5 0 0 0 4 6 5 5 0 0 0 6-4z" fill="#fff"/><g fill="#fff"><path d="M199 246c0-1 1 0 0 0h-15l1 1v-26l-1 2h15c-1 0-1-3-1-1v25c0 4 7 4 7 0v-27c-2-6-9-4-14-4s-11-2-13 4c-2 4 0 10 0 14v13c0 7 8 6 13 6s12 1 14-5c2-4-5-6-7-2zm28-1s2 0 0 0h-14v1-35 1h15-1v34c0 5 7 5 7 0v-34c0-7-6-7-11-7-6 0-15-2-17 5v35c0 6 5 7 10 7 6 0 16 3 18-5 1-4-6-6-7-2zm29 0s1 0 0 0h-15 1v-45h14c1 0 0 0 0 0v46c0 5 7 5 7 0v-37c0-4 1-11-2-14-2-2-5-2-8-2h-11c-6 0-7 5-7 10v41c0 7 4 8 9 8 6 0 17 3 18-5 1-5-5-6-6-2z"/><path d="M284 245s2 0 0 0h-14v1-61c1 1-1 1 1 1h14-1v60c0 4 7 4 7 0v-55c0-4 1-11-4-12h-17c-6 0-6 6-6 10v43c0 6-2 16 3 20 3 2 10 0 13 0 5 0 10 1 11-5 1-5-6-6-7-2zm-85 46l-1-7h-10l-1 7h-8a284 284 0 0 1 5-17 1214 1214 0 0 1 5-14h8a392 392 0 0 1 5 14 297 297 0 0 1 5 17h-8zm-6-25a204 204 0 0 0-1 3l-1 4a80 80 0 0 0-1 3v3h6v-3a56 56 0 0 0-1-3 132 132 0 0 0-1-3l-1-4zm28 26a17 17 0 0 1-5-1 9 9 0 0 1-4-3 9 9 0 0 1-2-3 19 19 0 0 1 0-5v-20h7v25l2 1a8 8 0 0 0 5 0 3 3 0 0 0 1-1l1-2v-23h7v25a9 9 0 0 1-2 3 9 9 0 0 1-4 3 18 18 0 0 1-6 1zm41-32v5h-9v26h-7v-26h-9v-5h26zm4 16c0-6 1-10 3-12 2-3 5-4 9-4s7 1 10 4c2 2 3 6 3 12s-1 9-4 12c-2 2-5 4-9 4s-7-2-9-4a19 19 0 0 1-4-12zm7 0v7l2 2 3 1a5 5 0 0 0 3-1 5 5 0 0 0 2-2v-3a41 41 0 0 0 0-9v-3a6 6 0 0 0-2-2l-3-1-3 1-2 2v3a41 41 0 0 0-1 5z"/></g></svg>