<svg xmlns="http://www.w3.org/2000/svg" width="361" height="361"><path d="M157 147c0-2-2-3-3-3l-30 8c-1 0-2 2-1 4l13 51c1 2 2 3 4 3l29-8c2 0 2-2 2-4l-14-51zm1-34v4l21 22c1 1 3 0 5-1l37-37c1-2 2-4 1-5l-22-21c-1-1-3-1-4 1l-37 37zm-30 16c2 0 4 0 4-2l8-29c1-1-1-3-2-4L87 81c-2-1-4 0-4 1l-8 30c-1 1 1 3 2 3l51 14z" fill="none" stroke="#fff" stroke-width="10" stroke-miterlimit="10"/><path d="M150 133l2-6-9 2 5 5 2-9-6 2a5 5 0 0 0-4 6 5 5 0 0 0 6 4l7-2a5 5 0 0 0 2-8l-5-5a5 5 0 0 0-8 2l-2 7a5 5 0 0 0 4 6 5 5 0 0 0 6-4zm91 96v-53c0-3 4-2 5-2 2 0 5 0 5 2v53c0 5 7 5 7 0v-53c0-6-5-9-11-9s-13 1-13 9v53c0 5 7 5 7 0z" fill="#fff"/><path d="M226 259v-70c0-3 5-1 8-1 2 0 0 0 0-1v55c0 5 7 5 7 1v-59c-1-4-6-3-9-3s-6-1-9 1c-5 2-4 9-4 13v64c0 5 7 5 7 0zm32-20v-56l-1 1h3c5 0 6 1 6 5v50c0 5 7 5 7 0v-36c0-10 3-26-12-26-5 0-10 1-10 8v54c0 5 7 5 7 0z" fill="#fff"/><path d="M273 245v-46s-2 1 0 1h3c4 0 3 6 3 8v80c0 5 7 5 7 0v-83c0-3-1-7-3-9-3-3-6-3-10-3-6 0-7 5-7 10v42c0 5 7 5 7 0zm-60 43l-12-52c-1-3-2-5 2-6 1-1 5-2 6 0l1 4 9 26c1 5 8 3 6-2l-9-29c-2-6-6-8-12-7s-13 5-11 12l13 56c1 5 8 3 7-2z" fill="#fff"/></svg>