<svg xmlns="http://www.w3.org/2000/svg" width="361" height="361"><path d="M137 151a174 174 0 0 1 19-5 44 44 0 0 1 24 4c11 4 22 11 34 11 7 1 15-3 22-6l12-5c8-3 15-5 24-4a168 168 0 0 1 19 5c1 1 2-2 0-3a189 189 0 0 0-19-5c-8-1-14 1-22 3-11 4-24 12-36 12-8 0-16-4-23-7l-14-5a41 41 0 0 0-21-3l-20 5c-2 1-1 3 1 3z" fill="#fff"/><path d="M144 160c6-3 13-5 20-4 7 0 14 4 20 6 10 4 19 9 30 9 6 1 13-3 19-5l9-4c7-2 13-5 20-6a41 41 0 0 1 21 4c2 0 2-3 1-3a60 60 0 0 0-19-4c-7 0-14 3-20 5-10 4-21 10-31 10-7 1-15-3-21-5l-10-4a76 76 0 0 0-20-6 48 48 0 0 0-19 4c-2 0-1 3 0 3zm1-21c6-2 13-4 19-3 7 0 14 3 20 6 10 4 20 9 30 9 6 0 13-3 19-5l10-4 19-6a41 41 0 0 1 21 3c2 1 3-2 1-3a60 60 0 0 0-19-4c-7 0-14 4-20 6-10 4-20 10-31 10-7 0-15-3-21-6l-10-4a76 76 0 0 0-20-6 49 49 0 0 0-19 4c-2 1-1 4 0 3z" fill="#fff"/><path d="M240 170l-24 66-13 37-2 6c-2 4-9 2-12 2h-53l1-4 24-65 33-90 11-31c1-3 3-12 7-12h61c2 0 0 0 0 0v3l-6 15-10 27c-3 6 7 8 9 2l13-34 5-14c0-7-7-9-13-9h-43c-11 0-25-2-29 10l-52 142-21 57c-1 5 0 11 5 13h70c6-2 9-7 10-12l12-32 27-74v-1c2-6-7-8-10-2z" fill="#fff"/><path d="M202 89h74c2 0 2-3 0-3h-75c-1 0-1 3 1 3zm-6 16h74c2 0 2-3 0-3h-74c-2 0-2 3 0 3zm-6 16h74c2 0 2-3 0-3h-74c-2 0-2 3 0 3zm-12 33h41c2 0 2-3 0-3h-41c-2 0-2 3 0 3zm6-17h52c2 0 2-3 0-3h-52c-2 0-2 3 0 3zm-12 33l52-1c2 0 2-3 0-3l-52 1c-2 0-2 3 0 3zm-9 24h75c2 0 2-3 0-3h-75c-2 0-2 3 0 3zm-12 32h75c2 0 2-3 0-3h-75c-2 0-2 3 0 3zm9-24h75c2 0 2-3 0-3h-75c-2 0-2 3 0 3zm-12 32h75c2 0 2-3 0-3h-75c-1 0-1 3 1 3zm-6 17h75c2 0 2-3 0-3h-74c-2 0-2 3 0 3zm-5 16h74c2 0 2-3 0-3h-74c-2 0-2 3 0 3zm67-186h75c2 0 2-3 0-3h-75c-2 0-2 3 0 3zm-6 16h75c2 0 2-3 0-3h-75v3zm-5 16h74c2 0 2-3 0-3h-74c-2 0-2 3 0 3zm-12 32h41c2 0 2-3 0-3h-41c-2 0-2 3 0 3zm6-16h74c2 0 2-3 0-3h-74c-2 0-2 3 0 3zm-12 33h41c2 0 2-3 0-3h-41c-2 0-2 3 0 3zm-6 16h75c2 0 2-3 0-3h-75c-2 0-2 3 0 3zm-12 32h75c2 0 2-3 0-3h-75c-2 0-2 3 0 3zm9-24h75c2 0 2-3 0-3h-75c-2 0-2 3 0 3zm-12 32h75c2 0 2-3 0-3h-75c-2 0-2 3 0 3zm-8 24h74c2 1 2-2 0-2h-74c-2 0-2 3 0 3zm-6 17h74c2 0 2-3 0-3h-74c-2 0-2 3 0 3zm-9 24h75c2 0 2-3 0-3h-75c-2 0-2 3 0 3zm3-8h75v-3h-75c-2 0-2 3 0 3z" fill="#fff"/><path d="M219 91a4 4 0 0 1-7 0 4 4 0 0 1 4-4 4 4 0 0 1 3 4zm-14 37a4 4 0 1 1-7 0 4 4 0 1 1 7 0zm31-44a4 4 0 1 1-8 0 4 4 0 1 1 8 0zm-41 84a4 4 0 1 1-7 0 4 4 0 0 1 7 0zm21-67a4 4 0 0 1 8 1 4 4 0 1 1-8-1zm45-13a4 4 0 1 1 7 0 4 4 0 0 1-7 0zM161 253a4 4 0 0 1 0-8 4 4 0 0 1 4 4 4 4 0 0 1-4 4zm84-140a4 4 0 0 1 1-8 4 4 0 0 1 0 8zm-44 124a4 4 0 0 1 0-8 4 4 0 0 1 0 8zm-23-37a4 4 0 0 1 0-7 4 4 0 0 1 4 3 4 4 0 0 1-4 4zm15 53a4 4 0 0 1 0-8 4 4 0 1 1 0 8zm-30 12a4 4 0 0 1 0-8 4 4 0 0 1 4 4 4 4 0 0 1-4 4zm45-73a4 4 0 0 1 4 5 4 4 0 0 1-4 3 4 4 0 0 1 0-7zm22-81a4 4 0 1 1 8 1 4 4 0 0 1-8-1zm-36 165a4 4 0 0 1 0-7 4 4 0 1 1 0 7zm-29-43a4 4 0 1 1 0-7 4 4 0 1 1 0 7zm2-39a4 4 0 1 1 0-7 4 4 0 1 1 0 7zm26 14a4 4 0 0 1 0-8 4 4 0 1 1 0 8zm-7 20a4 4 0 1 1 0 7 4 4 0 0 1 0-7zm21-12a4 4 0 0 1 0-7 4 4 0 0 1 3 4 4 4 0 0 1-3 3zm22-43a4 4 0 0 1 0-8 4 4 0 0 1 3 4 4 4 0 0 1-3 4zm-3-34a4 4 0 0 1 0-8 4 4 0 1 1 0 8zm-22 17a4 4 0 0 1 0-8 4 4 0 1 1 0 8zm-12 101a4 4 0 0 1 8 0 4 4 0 1 1-8 0zm6-34a4 4 0 0 1 8 0 4 4 0 0 1-4 4 4 4 0 0 1-4-4zm-22 41a4 4 0 0 1 8 0 4 4 0 0 1-4 4 4 4 0 0 1-4-4zm37-91a4 4 0 1 1 7 0 4 4 0 0 1-7 0zm-31 81a4 4 0 0 1-8-1 4 4 0 0 1 8 1zm-31 7a4 4 0 0 1-4 3 4 4 0 1 1 1-7 4 4 0 0 1 3 4zm99-165a4 4 0 0 1 0 7 4 4 0 1 1 0-7zm-84 140a4 4 0 1 1 0 7 4 4 0 0 1 0-7zm45-124a4 4 0 1 1 0 7 4 4 0 0 1 0-7zm23 36a4 4 0 0 1 0 8 4 4 0 1 1 0-8zm-27-49a4 4 0 0 1 0 8 4 4 0 0 1-3-4 4 4 0 0 1 3-4zm42-15a4 4 0 0 1 0 7 4 4 0 1 1 0-7z" fill="#fff"/><path d="M203 156a4 4 0 0 1-3-4 4 4 0 1 1 7 0 4 4 0 0 1-4 4zm-23 69a4 4 0 1 1-8 0 4 4 0 1 1 8 0zm37-153a4 4 0 0 1 0 8 4 4 0 0 1-3-4 4 4 0 0 1 3-4zm30 43a4 4 0 0 1 0 8 4 4 0 0 1-4-4 4 4 0 0 1 4-4zm-30 23a4 4 0 0 1 0 7 4 4 0 0 1-3-3 4 4 0 0 1 3-4zm5-19a4 4 0 0 1 0-7 4 4 0 0 1 4 4 4 4 0 0 1-4 3zm-5 5a4 4 0 1 1 0 7 4 4 0 0 1 0-7zm-34 52a4 4 0 0 1 0 7 4 4 0 0 1-4-3 4 4 0 0 1 4-4zm3 34a4 4 0 0 1 0 7 4 4 0 0 1-4-3 4 4 0 0 1 4-4zm21-17a4 4 0 0 1 0 7 4 4 0 1 1 0-7zm13-10a4 4 0 0 1 6 4 4 4 0 1 1-6-4zm-54 24a4 4 0 0 1 5-1 4 4 0 1 1-4 6 4 4 0 0 1-1-5zm20-9a4 4 0 0 1 1 5 4 4 0 0 1-5 1 4 4 0 0 1-1-5 4 4 0 0 1 5-1zm16-19a4 4 0 0 1 5-6 4 4 0 0 1-5 6zm61-78a4 4 0 0 1-7 0 4 4 0 0 1 4-3 4 4 0 0 1 3 3zm-86 142a4 4 0 1 1 0 8 4 4 0 0 1 0-8zm40-39a4 4 0 1 1 0 7 4 4 0 0 1 0-7zm-27-23a4 4 0 0 1 0 7 4 4 0 0 1 0-7zm-39 89a4 4 0 1 1 1 7 4 4 0 0 1 0-7zm83-171a4 4 0 0 1 6 4 4 4 0 1 1-7-4zm-4 97a4 4 0 0 1-4 6 4 4 0 0 1-1-5 4 4 0 0 1 5-1zM197 81a4 4 0 0 1-8 0 4 4 0 1 1 8 0zm-16 33a4 4 0 0 1-7 0 4 4 0 0 1 7 0zm3-26a4 4 0 0 1-8 0 4 4 0 0 1 8 0zm-30 57a4 4 0 0 1-8 1 4 4 0 0 1 8 0zm0-40a4 4 0 0 1 8 1 4 4 0 0 1-8-1zm18 21a4 4 0 1 1 8 1 4 4 0 1 1-8-1zm-50 150a4 4 0 0 1 0-8 4 4 0 1 1 0 8zm19-46a4 4 0 0 1 0-7 4 4 0 1 1 0 7zm-18 3a4 4 0 0 1 0-8 4 4 0 1 1 0 8zm11-39a4 4 0 0 1 0-8 4 4 0 1 1 0 8zm14 2a4 4 0 1 1 0-7 4 4 0 0 1 0 7zm-1 17a4 4 0 0 1 0-7 4 4 0 1 1 0 7zm-7-46a4 4 0 1 1-1 7 4 4 0 0 1 0-7z" fill="#fff"/><path d="M202 146a4 4 0 1 1-7 0 4 4 0 1 1 7 0zm31-43a4 4 0 1 1-8 0 4 4 0 1 1 8 0zm-45 87a4 4 0 0 1-8 0 4 4 0 1 1 8 0zm70-84a4 4 0 1 1 7 1 4 4 0 1 1-7-1zM158 271a4 4 0 0 1 0-7 4 4 0 1 1 0 7zm45-17a4 4 0 0 1 0-7 4 4 0 0 1 4 4 4 4 0 0 1-4 3zm-28-36a4 4 0 0 1 0-7 4 4 0 1 1 0 7zm15 8a4 4 0 1 1 0-7 4 4 0 0 1 0 7zm-23 53a4 4 0 0 1 8 0 4 4 0 0 1-8 0zm43-88a4 4 0 0 1 7 0 4 4 0 0 1-7 0zm-22 81a4 4 0 0 1-4 3 4 4 0 0 1 1-7 4 4 0 0 1 3 4zm-40 7a4 4 0 0 1-8 0 4 4 0 0 1 4-4 4 4 0 0 1 4 4zm20-26a4 4 0 1 1 0 7 4 4 0 0 1 0-7zm32-79a4 4 0 0 1-3-4 4 4 0 1 1 7 1 4 4 0 0 1-4 3zm-14 66a4 4 0 0 1-4 3 4 4 0 1 1 1-7 4 4 0 0 1 3 4zm28-83a4 4 0 0 1 0 7 4 4 0 0 1-4-4 4 4 0 0 1 4-3zm0-19a4 4 0 0 1 0-7 4 4 0 1 1 0 7zm0 84a4 4 0 0 1 0 8 4 4 0 1 1 0-8zm-19-31a4 4 0 1 1 0 8 4 4 0 0 1 0-8zm7 49a4 4 0 0 1 0 7 4 4 0 0 1 0-7zm28-122a4 4 0 0 1 7 4 4 4 0 0 1-7-4z" fill="#fff"/></svg>