<svg xmlns="http://www.w3.org/2000/svg" width="361" height="361"><path d="M251.8 286.3V178c0-6.5-10-6.5-10 0v108.3c0 6.5 10 6.5 10 0zm0-166.3V99.1c0-6.4-10-6.4-10 0V120c0 6.5 10 6.5 10 0z" fill="#fff"/><path d="M288.8 113.6l-84.6-43.4c-5.8-2.9-10.8 5.7-5.1 8.7l84.6 43.4c5.7 2.9 10.8-5.7 5-8.7zm-152 37.4a174 174 0 0 1 18.9-4.7 44 44 0 0 1 23.9 3.9c11 4 22.2 10.6 34 11 7.3.3 15.4-3.6 22-6.2 4-1.6 8-3.3 12.1-4.8 8-3 15.4-5.4 24-3.9a167.9 167.9 0 0 1 18.8 4.7c1.8.5 2.6-2.4.8-3a188.5 188.5 0 0 0-18.9-4.6c-8-1.5-14.6.1-22.2 2.7-11.7 4-24 11.7-36.6 12.1-7.4.3-15.9-4-22.7-6.7-4.6-1.8-9.1-3.7-13.8-5.4a41.4 41.4 0 0 0-21-2.9c-6.8 1.1-13.5 3-20 4.9-2 .5-1.1 3.4.7 2.9z" fill="#fff"/><path d="M144.4 159.6c6-2.2 13-4.3 19.4-3.8 7 .6 14 3.8 20.4 6.3 9.3 3.7 19.2 9 29.5 9.3 6.4.2 13.3-3 19.2-5.1 3.2-1.2 6.3-2.6 9.5-3.9 6.4-2.6 12.9-5 19.6-6.3a41.4 41.4 0 0 1 20.9 3.5c1.8.7 2.6-2.2.8-3a60 60 0 0 0-18.6-3.9c-6.7-.1-14 3.2-20.2 5.5-10 3.8-20.4 9.8-31.3 10.2-6.6.2-14.2-3.4-20.3-5.8l-10-4a75.6 75.6 0 0 0-20.3-5.9 48.4 48.4 0 0 0-19.4 4c-1.8.6-1 3.5.8 2.9zm.1-20.3c6-2.2 13-4.3 19.4-3.7 7 .6 14 3.7 20.4 6.3 9.4 3.7 19.3 8.9 29.5 9.2 6.4.2 13.3-3 19.2-5.1l9.5-3.8c6.4-2.6 13-5 19.7-6.4a41.4 41.4 0 0 1 20.8 3.5c1.8.7 2.6-2.2.8-2.9a60 60 0 0 0-18.6-4c-6.7-.1-14 3.2-20.1 5.6-10 3.7-20.5 9.7-31.3 10.1-6.7.2-14.3-3.4-20.4-5.7-3.3-1.3-6.6-2.8-10-4a75.7 75.7 0 0 0-20.3-6 48.5 48.5 0 0 0-19.4 4c-1.8.7-1 3.6.8 3zm-67-31.4l56.7-29c5.7-3 .6-11.6-5.1-8.7L72.5 99.3c-5.8 3-.7 11.6 5 8.6z" fill="#fff"/><path d="M142.4 202a6 6 0 0 1-11.9 0c0-1.3.4-2.3.8-3.4.7-2 3.1-8.9 5.1-8.9 2 0 4.6 7.2 5.2 8.9.3 1 .8 2.1.8 3.3zm-11 19a6 6 0 0 1-12 0c0-1.3.5-2.3.9-3.4.7-2 3-8.8 5-8.8 2.1 0 4.6 7.1 5.2 8.8.4 1.1.8 2.1.8 3.4z" fill="none" stroke="#fff" stroke-width="3" stroke-miterlimit="10"/><path d="M189.1 249c1.9 0 3.3 1.8 3.3 4v31c0 2.3-1.4 4-3.3 4h-113c-1.8 0-3.3-1.7-3.3-4v-31c0-2.2 1.5-4 3.3-4h113z" fill="none" stroke="#fff" stroke-width="7" stroke-miterlimit="10"/><path d="M90.6 122.3a39.8 39.8 0 0 1-3 30.3 86 86 0 0 0-6.5 16.4 43.8 43.8 0 0 0 3.2 28.1c2.6 6.1 5.7 11.6 7.4 18.2 1.1 4.3 7.9 2.5 6.8-1.9a82 82 0 0 0-6.6-16.4 39.7 39.7 0 0 1-2.1-32.5c1.6-4.7 4.3-9 6.2-13.6a44 44 0 0 0 1.4-30.5c-1.4-4.3-8.1-2.4-6.8 1.9z" fill="#fff"/><path d="M102.5 133.4c0 3.5.6 7.2-.2 10.6a48.4 48.4 0 0 1-3.9 10.3 56.8 56.8 0 0 0-6.8 24 50.4 50.4 0 0 0 7 24.4 40 40 0 0 1 3.2 33c-1.5 4.3 5.3 6.1 6.7 1.9a45.4 45.4 0 0 0-1.5-33.4c-3-7.1-6.6-13.4-8-21.3-1.8-8.9 1.9-17.7 5.7-25.6a60.3 60.3 0 0 0 4.6-12.2c.9-3.8.3-7.9.2-11.7-.2-4.5-7.2-4.5-7 0z" fill="#fff"/><path d="M125.4 192.9a6 6 0 0 1-11.9 0c0-1.3.5-2.3.9-3.4.7-2 3-8.8 5-8.8s4.6 7.1 5.2 8.8c.4 1.1.8 2.1.8 3.4z" fill="none" stroke="#fff" stroke-width="3" stroke-miterlimit="10"/></svg>