<svg xmlns="http://www.w3.org/2000/svg" width="361" height="361"><path d="M261.5 269c.4 4 1.7 8.3 6.6 8.3h17.5c4.6 0 6-5 6-8.7v-58.3c0-4.2 1-10.4-2.4-13.3-2.3-2-5.2-1.5-8-1.5h-11.5c-6.5 0-8.2 4.4-8.2 10.3v63.1c0 6.5 10 6.5 10 0v-62.3c0-.5.4-3.2-.4-2.5l-3.5 1.4h18l-3.5-1.4c-.8-.7-.5 1.6-.5 2v60.2c0 .4-.3 3.1.5 2.4l3.5-1.4h-18l3.5 1.4.4.2c-.5-6.3-10.5-6.4-10 0z" fill="#fff"/><path d="M263.5 182l-66 50.5c-3.2 2.5-3.2 6.2 0 8.7l66 50.5c3.2 2.3 7.6-1 7.6-4.4v-101c0-6.4-10-6.4-10 0v101l7.5-4.3-66-50.5v8.6l66-50.5c5-3.8 0-12.5-5-8.6zM161.8 286.3V178c0-6.5-10-6.5-10 0v108.3c0 6.5 10 6.5 10 0zm0-166.3V99.1c0-6.4-10-6.4-10 0V120c0 6.5 10 6.5 10 0z" fill="#fff"/><path d="M198.8 113.6L114 70.2c-5.7-2.9-10.7 5.7-5 8.7l84.6 43.4c5.7 2.9 10.8-5.7 5-8.7zm-62 37.4a174 174 0 0 1 18.9-4.7 44 44 0 0 1 23.9 3.9c11 4 22.2 10.6 34 11 7.3.3 15.4-3.6 22-6.2 4-1.6 8-3.3 12.1-4.8 8-3 15.4-5.4 24-3.9a167.9 167.9 0 0 1 18.8 4.7c1.8.5 2.6-2.4.8-3a188.5 188.5 0 0 0-18.9-4.6c-8-1.5-14.6.1-22.2 2.7-11.7 4-24 11.7-36.6 12.1-7.4.3-15.9-4-22.7-6.7-4.6-1.8-9.1-3.7-13.8-5.4a41.4 41.4 0 0 0-21-2.9c-6.8 1.1-13.5 3-20 4.9-2 .5-1.1 3.4.7 2.9z" fill="#fff"/><path d="M144.4 159.6c6-2.2 13-4.3 19.4-3.8 7 .6 14 3.8 20.4 6.3 9.3 3.7 19.2 9 29.5 9.3 6.4.2 13.3-3 19.2-5.1 3.2-1.2 6.3-2.6 9.5-3.9 6.4-2.6 12.9-5 19.6-6.3a41.4 41.4 0 0 1 20.9 3.5c1.8.7 2.6-2.2.8-3a60 60 0 0 0-18.6-3.9c-6.7-.1-14 3.2-20.2 5.5-10 3.8-20.4 9.8-31.3 10.2-6.6.2-14.2-3.4-20.3-5.8l-10-4a75.6 75.6 0 0 0-20.3-5.9 48.4 48.4 0 0 0-19.4 4c-1.8.6-1 3.5.8 2.9zm.1-20.3c6-2.2 13-4.3 19.4-3.7 7 .6 14 3.7 20.4 6.3 9.4 3.7 19.3 8.9 29.5 9.2 6.4.2 13.3-3 19.2-5.1l9.5-3.8c6.4-2.6 13-5 19.7-6.4a41.4 41.4 0 0 1 20.8 3.5c1.8.7 2.6-2.2.8-2.9a60 60 0 0 0-18.6-4c-6.7-.1-14 3.2-20.1 5.6-10 3.7-20.5 9.7-31.3 10.1-6.7.2-14.3-3.4-20.4-5.7-3.3-1.3-6.6-2.8-10-4a75.7 75.7 0 0 0-20.3-6 48.5 48.5 0 0 0-19.4 4c-1.8.7-1 3.6.8 3z" fill="#fff"/></svg>