<svg xmlns="http://www.w3.org/2000/svg" width="361" height="361"><path d="M251.8 120V99.1c0-6.4-10-6.4-10 0V120c0 6.5 10 6.5 10 0z" fill="#fff"/><path d="M288.8 113.6l-84.6-43.4c-5.8-2.9-10.8 5.7-5.1 8.7l84.6 43.4c5.7 2.9 10.8-5.7 5-8.7zm-152 37.4a174 174 0 0 1 18.9-4.7 44 44 0 0 1 23.9 3.9c11 4 22.2 10.6 34 11 7.3.3 15.4-3.6 22-6.2 4-1.6 8-3.3 12.1-4.8 8-3 15.4-5.4 24-3.9a167.9 167.9 0 0 1 18.8 4.7c1.8.5 2.6-2.4.8-3a188.5 188.5 0 0 0-18.9-4.6c-8-1.5-14.6.1-22.2 2.7-11.7 4-24 11.7-36.6 12.1-7.4.3-15.9-4-22.7-6.7-4.6-1.8-9.1-3.7-13.8-5.4a41.4 41.4 0 0 0-21-2.9c-6.8 1.1-13.5 3-20 4.9-2 .5-1.1 3.4.7 2.9z" fill="#fff"/><path d="M144.4 159.6c6-2.2 13-4.3 19.4-3.8 7 .6 14 3.8 20.4 6.3 9.3 3.7 19.2 9 29.5 9.3 6.4.2 13.3-3 19.2-5.1 3.2-1.2 6.3-2.6 9.5-3.9 6.4-2.6 12.9-5 19.6-6.3a41.4 41.4 0 0 1 20.9 3.5c1.8.7 2.6-2.2.8-3a60 60 0 0 0-18.6-3.9c-6.7-.1-14 3.2-20.2 5.5-10 3.8-20.4 9.8-31.3 10.2-6.6.2-14.2-3.4-20.3-5.8l-10-4a75.6 75.6 0 0 0-20.3-5.9 48.4 48.4 0 0 0-19.4 4c-1.8.6-1 3.5.8 2.9zm.1-20.3c6-2.2 13-4.3 19.4-3.7 7 .6 14 3.7 20.4 6.3 9.4 3.7 19.3 8.9 29.5 9.2 6.4.2 13.3-3 19.2-5.1l9.5-3.8c6.4-2.6 13-5 19.7-6.4a41.4 41.4 0 0 1 20.8 3.5c1.8.7 2.6-2.2.8-2.9a60 60 0 0 0-18.6-4c-6.7-.1-14 3.2-20.1 5.6-10 3.7-20.5 9.7-31.3 10.1-6.7.2-14.3-3.4-20.4-5.7-3.3-1.3-6.6-2.8-10-4a75.7 75.7 0 0 0-20.3-6 48.5 48.5 0 0 0-19.4 4c-1.8.7-1 3.6.8 3zm-67-31.4l56.7-29c5.7-3 .6-11.6-5.1-8.7L72.5 99.3c-5.8 3-.7 11.6 5 8.6zM116 278.7a980735.3 980735.3 0 0 1-32.3-32.1L86 252v-45.6l-2.2 5.2 32.3-32.2-5.4 2.3h45.6l-5.2-2.2 32.3 32.2-2.3-5.4v45.5l2.2-5.2-32.3 32.2 5.4-2.2h-45.6c-9.7 0-9.8 15-.1 15h37.1c4.5 0 10.7 1 14-2.4l11.5-11.4 16.3-16.2c3.1-3.2 6.5-5.7 6.5-10.6v-40.3c0-4.5-.4-7.8-3.7-11.2L178 185.3l-14.6-14.6c-3.2-3.2-6.3-4-10.7-4H112c-5 0-7.4 2.9-10.6 6.1l-16 16-11.2 11c-2.8 2.9-3.3 5.8-3.3 9.6v37c0 3.8-.6 8 2.4 11l9.4 9.4 22.7 22.6c6.8 6.8 17.4-3.8 10.5-10.6z" fill="#fff"/><path d="M96 236.9c.8 0 1.4 0 2-.2.5-.1.9-.3 1.2-.6l.7-.8a3 3 0 0 0 .1-1c0-.9-.3-1.6-1.1-2.1s-2.1-1.1-4-1.8a30.3 30.3 0 0 1-2.5-1 9.2 9.2 0 0 1-2.2-1.4c-.7-.6-1.2-1.3-1.6-2s-.7-1.9-.7-3 .3-2.3.7-3.2a6.7 6.7 0 0 1 1.9-2.4 8.5 8.5 0 0 1 2.9-1.5c1.1-.4 2.4-.5 3.8-.5a15.7 15.7 0 0 1 7.5 1.7l-1.6 4.5a15.5 15.5 0 0 0-2.4-1c-.8-.3-1.9-.4-3.1-.4-1.4 0-2.3.2-3 .6a2 2 0 0 0-.8 1.7c0 .5 0 .9.3 1.2l1 .8 1.3.7 1.8.7c1.3.4 2.4 1 3.4 1.4a9.2 9.2 0 0 1 2.4 1.7 6 6 0 0 1 1.4 2.2c.4.8.5 1.9.5 3 0 2.4-.8 4.3-2.5 5.6-1.6 1.3-4.1 2-7.4 2a20.7 20.7 0 0 1-5.5-.8 13.6 13.6 0 0 1-3-1.2l1.6-4.5a14.4 14.4 0 0 0 6.9 1.6zm32.3-21v4.9h-7.6v20.4H115v-20.4h-7.6V216h21zm26.9 12.7c0 2.1-.3 4-1 5.7s-1.5 3-2.6 4a10.9 10.9 0 0 1-4 2.6 14.5 14.5 0 0 1-9.9 0 11.3 11.3 0 0 1-4-2.5 13.3 13.3 0 0 1-3.7-9.8c0-2.1.4-4.1 1-5.7a14 14 0 0 1 2.8-4.2 11.3 11.3 0 0 1 4-2.5 13.8 13.8 0 0 1 4.8-.8c1.7 0 3.4.2 4.9.8a11.1 11.1 0 0 1 4 2.5 11.9 11.9 0 0 1 2.7 4.2c.7 1.6 1 3.5 1 5.7zm-19.3 0c0 1.2.1 2.3.5 3.3a7 7 0 0 0 1.3 2.6 5.8 5.8 0 0 0 2 1.7 6.6 6.6 0 0 0 3 .5c1 0 2-.2 2.7-.5a5.8 5.8 0 0 0 2.2-1.7 9 9 0 0 0 1.7-5.9 9 9 0 0 0-1.7-6 5.8 5.8 0 0 0-2.2-1.7 6.7 6.7 0 0 0-2.8-.6c-1 0-2 .2-2.8.6a6 6 0 0 0-2.1 1.7 7.6 7.6 0 0 0-1.3 2.6c-.3 1-.5 2.2-.5 3.4zm31.6-13c3.8 0 6.7.7 8.7 2 2 1.4 3 3.5 3 6.5s-1 5.3-3 6.6c-2 1.4-5 2-8.8 2h-1.8v8.5H160v-24.9a32.4 32.4 0 0 1 4-.5 54.3 54.3 0 0 1 3.6-.1zm.4 4.9a20.5 20.5 0 0 0-2.3.1v7.3h1.8c2 0 3.5-.3 4.5-.8s1.5-1.5 1.5-3c0-.7-.2-1.3-.4-1.7-.3-.5-.6-.9-1.1-1.1s-1-.5-1.7-.6a14.3 14.3 0 0 0-2.3-.2z" fill="#fff"/></svg>