<svg xmlns="http://www.w3.org/2000/svg" width="361" height="361"><path d="M193.3 188c-.8-2.7-3-4.4-4.9-4l-42.2 11.4c-2 .5-3 3.1-2.3 5.8l19.6 73.1c.7 2.7 2.9 4.4 4.8 3.9l42.3-11.3c2-.5 3-3.1 2.3-5.8L193.2 188zm2-48.9c-2 2-2.4 4.7-1 6.1l31 31c1.4 1.4 4.2 1 6.1-1l53.5-53.5c2-2 2.4-4.7 1-6.1l-31-31c-1.4-1.4-4.1-1-6 1L195.2 139zM152 162c2.6.7 5.2-.3 5.7-2.3l11.4-42.2c.5-2-1.2-4.2-4-4.9L92.2 93c-2.7-.7-5.3.3-5.8 2.3L75 137.5c-.5 2 1.2 4.1 4 4.9l73 19.6z" fill="none" stroke="#fff" stroke-width="10" stroke-miterlimit="10"/><path d="M174.8 174.8l6.2-23.4a20376.1 20376.1 0 0 0-8.3 2.2l17 17.1 2.2-8.3-23.3 6.2c-6.2 1.7-3.6 11.3 2.7 9.7l23.3-6.3a5 5 0 0 0 2.2-8.4l-17-17a5 5 0 0 0-8.4 2.2L165 172c-1.6 6.2 8 8.9 9.7 2.6zM81.9 178a39.7 39.7 0 0 1-3.2-25.5c.4-1.9-2.5-2.7-3-.8a43 43 0 0 0 3.3 27.1c.7 1.8 3.6 1 3-.8zm10.6-4.6a23.2 23.2 0 0 1-2.7-17.1c.4-1.9-2.5-2.7-2.8-.8-1.3 7.3-.8 13 3 19.4 1 1.7 3.5.2 2.5-1.5zm151 65.1a39.5 39.5 0 0 1-20.4 15.6c-1.9.5-1 3.4.8 2.9a41.9 41.9 0 0 0 21.8-16.4c1.2-1.5-1-3.6-2.1-2zm-9.2-7c-1.1 2-2.3 4-3.9 5.6a25.8 25.8 0 0 1-9.6 5.4c-1.8.7-1 3.6.8 2.9 3.8-1.4 7.5-3 10.5-5.7 2-1.8 3.5-4.2 4.8-6.6 1-1.7-1.6-3.2-2.6-1.5zM213 72.2a39.5 39.5 0 0 1 23.7 10c1.4 1.3 3.5-.8 2.1-2.1a42 42 0 0 0-25-10.8c-2-.3-2.7 2.6-.8 3zm-1.4 11.5a23 23 0 0 1 16.2 6.3c1.5 1.2 3.6-1 2.1-2.2-5.7-4.7-11-7.1-18.3-7-2 0-2 3 0 3z" fill="#fff"/><g fill="#fff"><path d="M148.6 154.4c2 .5 3.9-.2 4.3-1.7l8.5-31.7c.4-1.4-1-3-3-3.6l-54.8-14.7c-2-.5-4 .2-4.3 1.7l-8.5 31.7c-.4 1.4.9 3 2.9 3.6l54.9 14.7z"/><path d="M140.4 152.3c2 .5 4-.3 4.3-1.7l8.5-31.7c.4-1.5-.9-3.1-2.9-3.6l-54.8-14.7c-2-.6-4 .2-4.4 1.6L82.6 134c-.4 1.5 1 3.1 3 3.7l54.8 14.7z"/></g><g fill="#fff"><path d="M209.4 133.8c-1.4 1.5-1.7 3.6-.7 4.6l23.2 23.2c1.1 1.1 3.2.8 4.6-.7l40.2-40.1c1.4-1.5 1.8-3.6.7-4.6L254.2 93c-1-1.1-3.1-.8-4.6.7l-40.2 40.1z"/><path d="M203.6 139.6c-1.4 1.5-1.8 3.6-.7 4.6l23.2 23.2c1 1.1 3.2.8 4.6-.7l40.2-40.1c1.4-1.5 1.7-3.6.7-4.6l-23.2-23.2c-1.1-1.1-3.2-.8-4.6.7l-40.2 40.1z"/></g><g fill="#fff"><path d="M188.4 194.3c-.6-2-2.2-3.4-3.6-3l-31.7 8.5c-1.5.4-2.3 2.4-1.7 4.4L166 259c.5 2 2.1 3.3 3.6 3l31.7-8.6c1.5-.4 2.2-2.3 1.7-4.3l-14.7-54.9z"/><path d="M190.7 203c-.6-2-2.2-3.4-3.7-3l-31.7 8.5c-1.4.4-2.2 2.3-1.7 4.3l14.7 54.9c.6 2 2.2 3.3 3.7 2.9l31.7-8.5c1.4-.4 2.2-2.3 1.6-4.3l-14.7-54.9z"/></g></svg>