<svg xmlns="http://www.w3.org/2000/svg" width="361" height="361"><path d="M172 239l-2-2-23 6-1 3 10 39c1 2 2 2 3 2l23-6 1-3-11-39zm1-26v3l17 17 3-1 28-29c1-1 2-2 1-3l-17-16h-3l-29 29zm-23 12l3-1 6-23c1-1 0-2-2-2l-39-11-3 1-6 23 2 2 39 11z" fill="none" stroke="#fff" stroke-width="10" stroke-miterlimit="10"/><path d="M168 229l1-5-8 2 3 4 3-9-5 2a5 5 0 0 0-4 6 5 5 0 0 0 6 3l5-1a5 5 0 0 0 2-8l-3-4a5 5 0 0 0-8 2l-2 5a5 5 0 0 0 4 6 5 5 0 0 0 6-3zm-89-67a135 135 0 0 1 83-74c40-13 84-8 122 8 6 3 11-6 5-8-41-18-87-23-130-10a144 144 0 0 0-88 79c-3 5 6 11 8 5z" fill="#fff"/><path d="M79 163a145 145 0 0 1 101-42c38-1 75 15 103 42 4 5 11-2 7-7a157 157 0 0 0-109-46 155 155 0 0 0-110 46c-4 4 3 11 7 7z" fill="#fff"/><path d="M281 93v67c0 6 10 6 10 0V93c0-6-10-6-10 0zm-50 87a39 39 0 0 0 6-2 33 33 0 0 0 2-2 17 17 0 0 0 2-2h4v29h-6v-21a19 19 0 0 1-3 2 37 37 0 0 1-3 1l-2-5zm38 9c0 5-1 8-3 11a9 9 0 0 1-8 4 9 9 0 0 1-7-4 19 19 0 0 1-3-11v-7l3-4a9 9 0 0 1 3-3 9 9 0 0 1 4-1 9 9 0 0 1 8 4c2 2 3 6 3 11zm-7 0v-4a14 14 0 0 0-1-3 5 5 0 0 0-1-2 3 3 0 0 0-2-1l-2 1a5 5 0 0 0-1 2l-1 3a34 34 0 0 0 0 4 26 26 0 0 0 1 7 5 5 0 0 0 1 2h4a5 5 0 0 0 2-2v-3a35 35 0 0 0 0-4zm30 0c0 5-1 8-3 11a9 9 0 0 1-8 4 9 9 0 0 1-8-4 19 19 0 0 1-2-11v-7l2-4a10 10 0 0 1 4-3l4-1a9 9 0 0 1 8 4c2 2 3 6 3 11zm-7 0v-4a14 14 0 0 0-1-3 5 5 0 0 0-1-2l-2-1-2 1a5 5 0 0 0-1 2 14 14 0 0 0-1 3 34 34 0 0 0 0 4v4l1 3a5 5 0 0 0 1 2h2a3 3 0 0 0 2 0 5 5 0 0 0 1-2l1-3v-4zm-194-1c0 5-1 8-3 11s-4 4-8 4-5-1-7-4a19 19 0 0 1-3-11l1-7 2-4a9 9 0 0 1 3-3 10 10 0 0 1 4-1c4 0 6 1 8 4 2 2 3 6 3 11zm-7 0v-4a14 14 0 0 0 0-3 5 5 0 0 0-2-2 3 3 0 0 0-2-1l-2 1a5 5 0 0 0-1 2l-1 3a34 34 0 0 0 1 11 5 5 0 0 0 1 2l2 1 2-1a5 5 0 0 0 2-2 35 35 0 0 0 1-7z" fill="#fff"/></svg>