<svg xmlns="http://www.w3.org/2000/svg" width="361" height="361"><path d="M252 286V178c0-6-10-6-10 0v108c0 7 10 7 10 0zm0-166V99c0-6-10-6-10 0v21c0 7 10 7 10 0z" fill="#fff"/><path d="M289 114l-85-44c-6-3-11 6-5 9l85 43c5 3 11-5 5-8zm-152 37a174 174 0 0 1 19-5 44 44 0 0 1 24 4c11 4 22 11 34 11 7 1 15-3 22-6l12-5c8-3 15-5 24-4a168 168 0 0 1 19 5c1 1 2-2 0-3a189 189 0 0 0-19-5c-8-1-14 1-22 3-11 4-24 12-36 12-8 0-16-4-23-7l-14-5a41 41 0 0 0-21-3l-20 5c-2 1-1 3 1 3z" fill="#fff"/><path d="M144 160c6-3 13-5 20-4 7 0 14 4 20 6 10 4 19 9 30 9 6 1 13-3 19-5l9-4c7-2 13-5 20-6a41 41 0 0 1 21 4c2 0 2-3 1-3a60 60 0 0 0-19-4c-7 0-14 3-20 5-10 4-21 10-31 10-7 1-15-3-21-5l-10-4a76 76 0 0 0-20-6 48 48 0 0 0-19 4c-2 0-1 3 0 3zm1-21c6-2 13-4 19-3 7 0 14 3 20 6 10 4 20 9 30 9 6 0 13-3 19-5l10-4 19-6a41 41 0 0 1 21 3c2 1 3-2 1-3a60 60 0 0 0-19-4c-7 0-14 4-20 6-10 4-20 10-31 10-7 0-15-3-21-6l-10-4a76 76 0 0 0-20-6 49 49 0 0 0-19 4c-2 1-1 4 0 3zm-67-31l56-29c6-3 1-12-5-9L73 99c-6 3-1 12 5 9zm3 151c0-4-4-2-7-2s-4 1-4 4v23c0 4 5 3 8 3s3-2 3-4v-24c0-2-3-2-3 0v25h-5c-1 0 0-1 0 0v-24h5c2 0 0 0 0-1 0 2 3 2 3 1z" fill="#fff"/><path d="M80 292l25-19v-3l-25-19c0-1-2 0-2 2v37c0 2 3 2 3 0v-37l-2 1 25 19v-3a408010 408010 0 0 0-25 19c-2 1 0 4 1 3zm130-65h-48l3 1c-5-5-12-14-19-14-9 0-15 8-21 14l3-1H97c-8 0-27-3-27 10 1 13 19 9 27 9h31l-2-1c4 5 11 14 18 14 9 0 15-8 20-14l-2 1h50a10 10 0 0 0-2-19c-5 0-4 7 0 7s1 5-2 5h-46c-2 0-4 2-5 4l-7 7c-7 6-15-5-19-9-2-3-8-2-11-2H80c-3 0-3-5 0-5h47c5 0 9-7 12-10s7-5 11-1l7 8c2 1 3 3 5 3h48c5 0 5-7 0-7z" fill="#fff"/><g fill="#fff"><path d="M209 213c0 4 4 3 7 3s3-1 3-4v-23c0-4-4-3-7-3s-3 2-3 4v23c0 2 3 2 3 0v-24h-1 5c2 0 0 0 0 0v24h1-5c-2 0 0 0 0 0 0-2-3-2-3 0z"/><path d="M209 181l-24 19v3l24 19 3-2v-38c0-2-3-2-3 0v38l2-1-25-19v2l25-18c1-2 0-4-2-3z"/></g></svg>