<svg xmlns="http://www.w3.org/2000/svg" width="361" height="361"><path d="M251.8 286.3V178c0-6.5-10-6.5-10 0v108.3c0 6.5 10 6.5 10 0zm0-166.3V99.1c0-6.4-10-6.4-10 0V120c0 6.5 10 6.5 10 0z" fill="#fff"/><path d="M288.8 113.6l-84.6-43.4c-5.8-2.9-10.8 5.7-5.1 8.7l84.6 43.4c5.7 2.9 10.8-5.7 5-8.7zm-152 37.4a174 174 0 0 1 18.9-4.7 44 44 0 0 1 23.9 3.9c11 4 22.2 10.6 34 11 7.3.3 15.4-3.6 22-6.2 4-1.6 8-3.3 12.1-4.8 8-3 15.4-5.4 24-3.9a167.9 167.9 0 0 1 18.8 4.7c1.8.5 2.6-2.4.8-3a188.5 188.5 0 0 0-18.9-4.6c-8-1.5-14.6.1-22.2 2.7-11.7 4-24 11.7-36.6 12.1-7.4.3-15.9-4-22.7-6.7-4.6-1.8-9.1-3.7-13.8-5.4a41.4 41.4 0 0 0-21-2.9c-6.8 1.1-13.5 3-20 4.9-2 .5-1.1 3.4.7 2.9z" fill="#fff"/><path d="M144.4 159.6c6-2.2 13-4.3 19.4-3.8 7 .6 14 3.8 20.4 6.3 9.3 3.7 19.2 9 29.5 9.3 6.4.2 13.3-3 19.2-5.1 3.2-1.2 6.3-2.6 9.5-3.9 6.4-2.6 12.9-5 19.6-6.3a41.4 41.4 0 0 1 20.9 3.5c1.8.7 2.6-2.2.8-3a60 60 0 0 0-18.6-3.9c-6.7-.1-14 3.2-20.2 5.5-10 3.8-20.4 9.8-31.3 10.2-6.6.2-14.2-3.4-20.3-5.8l-10-4a75.6 75.6 0 0 0-20.3-5.9 48.4 48.4 0 0 0-19.4 4c-1.8.6-1 3.5.8 2.9zm.1-20.3c6-2.2 13-4.3 19.4-3.7 7 .6 14 3.7 20.4 6.3 9.4 3.7 19.3 8.9 29.5 9.2 6.4.2 13.3-3 19.2-5.1l9.5-3.8c6.4-2.6 13-5 19.7-6.4a41.4 41.4 0 0 1 20.8 3.5c1.8.7 2.6-2.2.8-2.9a60 60 0 0 0-18.6-4c-6.7-.1-14 3.2-20.1 5.6-10 3.7-20.5 9.7-31.3 10.1-6.7.2-14.3-3.4-20.4-5.7-3.3-1.3-6.6-2.8-10-4a75.7 75.7 0 0 0-20.3-6 48.5 48.5 0 0 0-19.4 4c-1.8.7-1 3.6.8 3zm-67-31.4l56.7-29c5.7-3 .6-11.6-5.1-8.7L72.5 99.3c-5.8 3-.7 11.6 5 8.6zM81 259.4c-.5-3.9-4.3-2.7-7.4-2.7-2.8 0-3.2 1.5-3.2 4v23.2c0 3.9 4.8 2.7 7.5 2.7s3.1-1.5 3.1-4v-23.1c0-2-3-2-3 0v24.3s1.7-.2.5-.2h-5c-1.9 0-.1-.1 0 .3-.8-5.7 0-11.9 0-17.5v-6.9s-1.8.2-.6.2h5c1.9 0 .1.1.1-.2.2 1.9 3.2 1.9 3 0z" fill="#fff"/><path d="M80.4 291.7l24.8-19c1-.6 1-1.8 0-2.5l-24.8-19c-.9-.7-2.2.3-2.2 1.4v37.8c0 2 3 2 3 0v-37.8l-2.3 1.3 24.8 18.9v-2.6a408010.1 408010.1 0 0 0-24.8 19c-1.5 1 0 3.7 1.5 2.5zM210 227.1h-47.8l2.5 1c-4.3-5-11.6-14.2-19-14.2-8.3 0-15.1 8.3-20.2 14.3l2.5-1H97.3c-8.3 0-26.8-3.5-26.8 9.5 0 12.9 18.3 9.5 26.6 9.5h31.2l-2.5-1c4.5 5 11.2 13.7 18.5 13.7 8.4 0 14.7-8 19.9-13.7l-2.5 1h36.9c3.9 0 9.7 1 13.5-.3a9.6 9.6 0 0 0-2.2-18.8c-4.5-.5-4.4 6.5 0 7s1.1 5.1-1.6 5.1h-46.5c-2.2 0-3.7 2.2-5.1 3.6l-7.2 7.2c-6.2 6.2-14.2-5.2-18.1-9.1-2.8-2.8-8.2-1.7-11.9-1.7H80c-3.2 0-3.2-5 0-5h47c4.5 0 9.3-7.1 12.2-10 3-3 7-4.8 10.6-1.2l7.6 7.5c1.5 1.5 2.7 3.6 5 3.6H210c4.5 0 4.5-7 0-7z" fill="#fff"/><g fill="#fff"><path d="M208.8 213.3c.5 3.9 4.3 2.7 7.4 2.7 2.8 0 3.2-1.4 3.2-4v-23c0-4-4.8-2.8-7.5-2.8s-3 1.5-3 4v23.2c0 2 3 2 3 0V189s-1.8.2-.6.2h5c1.9 0 .1.2 0-.2.8 5.6 0 11.8 0 17.5v6.8s1.8-.2.6-.2h-5c-1.9 0-.1-.1 0 .3-.3-2-3.3-2-3 0z"/><path d="M209.4 181l-24.8 19c-1 .7-1 1.8 0 2.5l24.8 19c1 .7 2.3-.3 2.3-1.3v-37.9c0-2-3-2-3 0v37.9l2.2-1.3-24.8-19v2.6l24.8-18.9c1.5-1.2 0-3.8-1.5-2.6z"/></g></svg>