<svg xmlns="http://www.w3.org/2000/svg" width="361" height="361"><path fill="#fff" d="M168 182l85-85 15 16-85 85z"/><path d="M269 142c0 41-26 84-53 84-28 0-54-43-54-84 0-14 0-28 5-40 0 0 31-10 49-10 17 0 48 10 48 10 6 12 5 25 5 40z" fill="none" stroke="#fff" stroke-width="10" stroke-miterlimit="10"/><path d="M146 257l7 2 2 5-2 6a13 13 0 0 1-7 1h-2v7h-5v-20a27 27 0 0 1 4-1 45 45 0 0 1 3 0zm0 4a17 17 0 0 0-2 0v6h2a8 8 0 0 0 3-1l1-2v-1l-1-1a4 4 0 0 0-1-1 12 12 0 0 0-2 0zm17 1h4a5 5 0 0 1 3 4 10 10 0 0 1 0 2v10h-2a24 24 0 0 1-7 0l-2-1a4 4 0 0 1-2-1 6 6 0 0 1 0-3v-2a4 4 0 0 1 2-2 7 7 0 0 1 2 0 12 12 0 0 1 2-1 14 14 0 0 1 3 1v-1l-1-2h-4a10 10 0 0 0-2 0l-1-3a17 17 0 0 1 2-1h2a17 17 0 0 1 1 0zm1 13h2v-4a8 8 0 0 0-1 0 9 9 0 0 0-1 0h-1a3 3 0 0 0-1 1h-1v1l1 2h2zm-33-69l-50 49c-1 2 1 4 2 2l50-49c1-1-1-4-2-2z" fill="#fff"/><path d="M131 203c-6 6-15 17-9 25 3 3 8-2 5-5-1-1 1-4 1-5l7-10c4-3-1-8-5-5z" fill="#fff"/><path d="M131 203a44 44 0 0 1-9 7c-1 0-5 3-6 2-4-3-9 2-5 5 8 6 19-4 24-9 4-3-1-8-5-5z" fill="#fff"/><path d="M100 244a3 3 0 0 1-4 0l-1-1a3 3 0 0 1 0-4l1-1a3 3 0 0 1 4 0v1a3 3 0 0 1 0 4l-1 1z" fill="#fff" stroke="#fff" stroke-miterlimit="10"/><path d="M136 183l-7 10 1 1 8-10c0-1-1-2-2-1z" fill="#fff"/><path d="M136 182l-8 11c-1 1 2 3 3 2l4-5 4-6c1-1-2-3-3-2s0 2 1 1v1l-1 1-2 3-4 5 7-10c1-1-1-1-1-1zm10 9l-5 6c-1 0 0 2 1 1l6-6c0-1-1-2-2-1z" fill="#fff"/><path d="M146 190l-4 4-2 3c-1 1 1 3 2 2l4-4 1-2 1-1c1-1-1-3-2-2s0 2 1 1l-1 1-1 2-4 3 6-6-1-1zm-4-3l-6 6 1 1 6-6-2-2z" fill="#fff"/><path d="M141 186l-3 3-3 4c0 1 2 3 3 2l3-4 3-3c0-2-2-3-3-2-1 0 0 2 1 1v1h-1l-1 2-3 3 2-3 3-3c1-1 0-2-1-1zm14 15l-11 7 1 1 11-7-1-2z" fill="#fff"/><path d="M154 200l-5 4-5 4c-1 1 0 3 2 2l5-4 5-3c2-2 0-4-1-3v2l-2 1-2 2-5 3 9-7c1 0 0-2-1-1zm4 6a16966 16966 0 0 0-7 4l1 2 7-5c1 0 0-2-1-1z" fill="#fff"/><path d="M158 205l-4 3-4 2c0 1 1 3 2 2l5-2 3-2c1-2-1-3-2-3v2l-1 1-1 1-4 2 7-5-1-1zm10 25l-8 2v1l9-1-1-2z" fill="#fff"/><path d="M168 229l-5 1-4 1c-1 1 0 3 1 3l6-1 3-1c1-1 1-3-1-3v2h-2l-2 1-3 1 7-2v-2zm-2-6l-12 4c-1 1 0 2 1 2l12-4c1 0 0-2-1-1z" fill="#fff"/><path d="M166 223l-6 2-6 2c-1 1-1 3 1 3l6-2 7-2c1-1 0-3-2-3v2h-2l-3 1-6 2 12-4c1 0 0-2-1-1zm-15-27l-7 5 1 1 7-5-1-2z" fill="#fff"/><path d="M150 195l-3 3-3 3c-1 1 1 3 2 2l3-3 4-3c1-1-2-3-3-2-1 0 0 2 1 1v1h-1l-2 2-3 2 6-5c1-1 0-2-1-1zm11 17l-7 3c-1 1 0 2 1 2l7-4c1 0 0-2-1-1z" fill="#fff"/><path d="M161 211l-5 2-3 2c-1 1 1 3 2 2l5-2 3-2c1-1 0-3-2-2l1 1-1 1h-1l-2 1-3 2 7-4c1 0 0-2-1-1zm3 6l-8 4 1 1 8-3-1-2z" fill="#fff"/><path d="M164 217l-5 2-3 1c-1 1 0 3 1 3l5-2 4-2c0-1-1-3-2-2v1l-1 1h-1l-5 2 1-1h2l4-2v-1zm5 19l-8 2v1l8-1v-2z" fill="#fff"/><path d="M169 236l-5 1h-4c-1 2 0 3 2 3l5-1h3c1-1 1-3-1-3v1l-1 1h-6c-2 1 0 0 0 0h3l4-1v-1z" fill="#fff"/><g fill="#fff"><path d="M170 250h-13v1l13 1v-2z"/><path d="M170 249h-13c-2 0-1 3 0 3h7l6 1c2-1 1-3 0-4v2h-12 12v-2z"/></g><g fill="#fff"><path d="M170 243l-8 1v1h8v-2z"/><path d="M170 243h-9c-1 1-1 3 1 3h9c1-1 1-3-1-3v1h-3l-5 1a14 14 0 0 1 0-1 11293 11293 0 0 1 3 0h5v-1z"/></g><g fill="#fff"><path d="M86 169a45079821421870760 45079821421870760 0 0 0 3 12l-1-13-2 1z"/><path d="M86 169v6l1 7c0 1 3 1 3-1l-1-7v-6h-3c-1 1 1 2 1 1h1v11l-1-11h-1z"/></g><g fill="#fff"><path d="M93 168v9h2v-8h-2z"/><path d="M93 168l-1 6 1 4c1 1 2 0 3-1v-9h-3c-1 1 1 2 1 1v7-8h-1z"/></g><g fill="#fff"><path d="M119 174l-3 7c0 1 1 2 2 1l3-8h-2z"/><path d="M119 173l-2 5c-1 1-2 3-1 4 0 1 2 2 3 0l1-5 2-3c-1-2-2-2-3-1s0 2 1 1v1l-1 1-1 5v-3l2-4-1-1z"/></g><g fill="#fff"><path d="M113 171l-3 13h1l4-12h-2z"/><path d="M112 171l-2 7-1 6c0 2 2 2 3 0l2-6 2-6c0-2-3-2-3-1-1 1 0 2 1 1v1l-1 2-1 2-1 6 3-11c0-1-1-2-2-1z"/></g><g fill="#fff"><path d="M100 169l-1 8h2l1-8h-2z"/><path d="M99 169v9c1 1 2 1 3-1v-9c0-1-2-1-3 1h2v3l-1 5v-4l1-4h-2z"/></g><g fill="#fff"><path d="M107 170l-2 8h2l1-8h-1z"/><path d="M106 170l-1 5-1 4h3l1-5c1-1 2-3 1-4 0-2-2-2-3-1l1 1 1 1-1 1v2l-1 4v-4l1-4h-1z"/></g><g fill="#fff"><path d="M125 176l-3 8h1l4-7c0-1-1-2-2-1z"/><path d="M125 176l-3 4-1 4c0 1 2 2 3 1l2-5 2-3c0-2-2-2-3-1l1 1-1 1-1 2-1 3v-1l1-1 2-4-1-1z"/></g><g fill="#fff"><path d="M131 179l-4 7c-1 1 1 2 1 1l4-7c1-1 0-2-1-1z"/><path d="M130 179l-2 4-2 4c0 1 2 2 3 1l2-4 2-4c0-2-2-2-2-1l1 1-1 1-1 2-2 3 4-6c0-1-1-2-2-1z"/></g><path d="M282 277c0 6-13 4-17 4H97c-4 0-16 2-17-4V94c0-4-1-15 5-15h185c4 0 12-1 12 5v193c0 7 10 7 10 0V94c0-7 1-15-5-21-5-5-14-4-20-4H99c-6 0-12-1-17 1-11 2-12 12-12 21v186c0 8 7 14 15 14h192c8 0 14-5 15-14 1-6-9-6-10 0z" fill="#fff"/></svg>