<svg xmlns="http://www.w3.org/2000/svg" width="361" height="361"><path d="M252 120V99c0-6-10-6-10 0v21c0 7 10 7 10 0z" fill="#fff"/><path d="M289 114l-85-44c-6-3-11 6-5 9l85 43c5 3 11-5 5-8zm-152 37a174 174 0 0 1 19-5 44 44 0 0 1 24 4c11 4 22 11 34 11 7 1 15-3 22-6l12-5c8-3 15-5 24-4a168 168 0 0 1 19 5c1 1 2-2 0-3a189 189 0 0 0-19-5c-8-1-14 1-22 3-11 4-24 12-36 12-8 0-16-4-23-7l-14-5a41 41 0 0 0-21-3l-20 5c-2 1-1 3 1 3z" fill="#fff"/><path d="M144 160c6-3 13-5 20-4 7 0 14 4 20 6 10 4 19 9 30 9 6 1 13-3 19-5l9-4c7-2 13-5 20-6a41 41 0 0 1 21 4c2 0 2-3 1-3a60 60 0 0 0-19-4c-7 0-14 3-20 5-10 4-21 10-31 10-7 1-15-3-21-5l-10-4a76 76 0 0 0-20-6 48 48 0 0 0-19 4c-2 0-1 3 0 3zm1-21c6-2 13-4 19-3 7 0 14 3 20 6 10 4 20 9 30 9 6 0 13-3 19-5l10-4 19-6a41 41 0 0 1 21 3c2 1 3-2 1-3a60 60 0 0 0-19-4c-7 0-14 4-20 6-10 4-20 10-31 10-7 0-15-3-21-6l-10-4a76 76 0 0 0-20-6 49 49 0 0 0-19 4c-2 1-1 4 0 3zm-67-31l56-29c6-3 1-12-5-9L73 99c-6 3-1 12 5 9zm131 145l64-65 13 13-64 65z" fill="#fff"/><path d="M287 224c0 31-19 63-40 63s-41-32-41-63c0-12 0-22 4-31 0 0 23-8 37-8a161 161 0 0 1 36 8c4 9 4 19 4 31z" fill="none" stroke="#fff" stroke-width="10" stroke-miterlimit="10"/><path d="M136 270l7 2 2 5-2 6a13 13 0 0 1-7 1h-2v7h-5v-20a27 27 0 0 1 4-1 45 45 0 0 1 3 0zm0 4a17 17 0 0 0-2 0v6h2a8 8 0 0 0 3-1l1-2v-1l-1-1a4 4 0 0 0-1-1 12 12 0 0 0-2 0zm17 1h4a5 5 0 0 1 3 4 10 10 0 0 1 0 2v10h-2a24 24 0 0 1-7 0l-2-1a4 4 0 0 1-2-1 6 6 0 0 1 0-3v-2a4 4 0 0 1 2-2 7 7 0 0 1 2 0 12 12 0 0 1 2-1 14 14 0 0 1 3 1v-1l-1-2h-4a10 10 0 0 0-2 0l-1-3a17 17 0 0 1 2-1h2a17 17 0 0 1 1 0zm1 13h2v-4a8 8 0 0 0-1 0 9 9 0 0 0-1 0h-1a3 3 0 0 0-1 1h-1v1l1 2h2zm-33-69l-50 49c-1 2 1 4 2 2l50-49c1-1-1-4-2-2z" fill="#fff"/><path d="M121 216c-6 6-15 17-9 25 3 3 8-2 5-5-1-1 1-4 1-5l7-10c4-3-1-8-5-5z" fill="#fff"/><path d="M121 216a44 44 0 0 1-9 7c-1 0-5 3-6 2-4-3-9 2-5 5 8 6 19-4 24-9 4-3-1-8-5-5z" fill="#fff"/><path d="M90 257a3 3 0 0 1-4 0l-1-1a3 3 0 0 1 0-4l1-1a3 3 0 0 1 4 0v1a3 3 0 0 1 0 4l-1 1z" fill="#fff" stroke="#fff" stroke-miterlimit="10"/><g fill="#fff"><path d="M126 196l-7 10 1 1 8-10c0-1-1-2-2-1z"/><path d="M126 195l-8 11c-1 1 2 3 3 2l3-5 5-6c1-1-2-3-3-2s0 2 1 1v1l-1 1-2 3-4 5 7-10c1-1-1-1-1-1zm10 9l-6 6s1 2 2 1l6-6c0-1-1-2-2-1z"/><path d="M136 203l-4 4-2 3c-1 1 1 3 2 2l4-4 1-2 1-1c1-1-1-3-2-2s0 2 1 1l-1 1-1 2-4 3 6-6-1-1zm-4-3l-6 6 1 1 6-6-1-2z"/><path d="M131 199l-3 3-3 4c0 1 2 3 3 2l3-4 3-3c0-2-2-3-3-2-1 0 0 2 1 1v1h-1l-1 2-3 3 2-3 3-3c1-1 0-2-1-1zm14 15l-11 7 1 1 11-7-1-2z"/><path d="M144 213l-5 4-5 4c-1 1 0 3 2 2l5-4 5-3c2-2 0-4-1-3v2l-2 1-2 2-5 3 9-7c1 0 0-2-1-1zm4 6a16966 16966 0 0 0-7 4l1 2 7-5c1 0 0-2-1-1z"/><path d="M148 218l-4 3-4 2c0 1 1 3 2 2l5-2 3-2c1-2-1-3-2-3v2l-1 1-1 1-4 2 7-5-1-1zm10 25l-8 2v1l9-1-1-2z"/><path d="M158 242l-5 1-4 1c-1 1 0 3 1 3l6-1 3-1c1-1 1-3-1-3v2h-2l-2 1-3 1 7-2v-2zm-2-6l-12 4c-1 1 0 2 1 2l12-4c1 0 0-2-1-1z"/><path d="M156 236l-6 2-6 2c-1 1-1 3 1 3l6-2 7-2c1-1 0-3-2-3v2h-2l-3 1-6 2 12-4c1 0 0-2-1-1zm-15-27l-7 5 1 1 7-5-1-2z"/><path d="M140 208l-3 3-3 3c-1 1 1 3 2 2l3-3 4-3c1-1-2-3-3-2-1 0 0 2 1 1v1h-1l-2 2-3 2 6-5c1-1 0-2-1-1zm11 17l-7 3c-1 1 0 2 1 2l7-4c1 0 0-2-1-1z"/><path d="M151 224l-5 2-3 2c-1 1 1 3 2 2l5-2 3-2c1-1 0-3-2-2l1 1-1 1h-1l-2 1-3 2 7-4c1 0 0-2-1-1zm3 6l-8 4 1 1 8-3-1-2z"/><path d="M154 230l-5 2-3 1c-1 1 0 3 1 3l5-2 4-2c0-1-1-3-2-2v1l-1 1h-1l-5 2 1-1h2l4-2v-1zm5 19l-8 2v1l8-1v-2z"/><path d="M159 249l-5 1h-4c-1 2 0 3 2 3l5-1h3c1-1 1-3-1-3v1l-1 1h-6c-2 1 0 0 0 0h3l4-1v-1zm1 14h-13v1l13 1v-2z"/><path d="M160 262h-13c-2 0-1 3 0 3h7l6 1c2-1 1-3 0-4v2h-12 12v-2zm0-6l-8 1v1h8v-2z"/><path d="M160 256h-9c-1 1-1 3 1 3h9c1-1 1-3-1-3v1h-3l-5 1a14 14 0 0 1 0-1 11293 11293 0 0 1 3 0h5v-2zm-84-74a45079821421870760 45079821421870760 0 0 0 3 12l-1-13-2 1z"/><path d="M76 182v6l1 7c0 1 3 1 3-1l-1-7v-6h-3c-1 1 1 2 1 1h1v11l-1-11h-1zm7-1v9h2v-8h-2z"/><path d="M83 181l-1 6 1 4c1 1 2 0 3-1v-9h-3c-1 1 1 1 1 1v7-8h-1zm26 6l-3 7c0 1 1 2 2 1l3-8h-2z"/><path d="M109 186l-2 5c-1 1-2 3-1 4 0 1 2 2 3 0l1-5 2-3c-1-2-2-2-3-1s0 2 1 1v1l-1 1-1 5v-3l2-4-1-1zm-6-2l-3 13h1l4-12h-2z"/><path d="M102 184l-2 7-1 6c0 2 2 2 3 0l2-6 2-6c0-2-3-2-3-1-1 1 0 2 1 1v1l-1 2-1 2-1 6 3-11c0-1-1-2-2-1zm-12-2l-1 8h2l1-8h-2z"/><path d="M89 182v9c1 1 2 1 3-1v-9c0-1-2-1-3 1h2v3l-1 5v-4l1-4h-2zm8 1l-2 8h2l1-8h-1z"/><path d="M96 183l-1 5-1 4h3l1-5c1-1 2-3 1-4 0-2-2-2-3-1l1 1 1 1-1 1v2l-1 4v-3l1-5h-1zm19 6l-3 8h1l4-7c0-1-1-2-2-1z"/><path d="M115 189l-3 4-1 4c0 1 2 2 3 1l2-5 2-3c0-2-2-2-3-1l1 1-1 1-1 2-1 3v-1l1-1 2-4-1-1zm6 3l-4 7c-1 1 1 2 1 1l4-7c1-1 0-2-1-1z"/><path d="M120 192l-2 4-2 4c0 1 2 2 3 1l2-4 2-4c0-2-2-2-3-1l2 1-1 1-1 2-2 3 4-6c0-1-1-2-2-1z"/></g></svg>