<svg xmlns="http://www.w3.org/2000/svg" width="361" height="361"><path d="M251.8 120V99.1c0-6.4-10-6.4-10 0V120c0 6.5 10 6.5 10 0z" fill="#fff"/><path d="M288.8 113.6l-84.6-43.4c-5.8-2.9-10.8 5.7-5.1 8.7l84.6 43.4c5.7 2.9 10.8-5.7 5-8.7zm-152 37.4a174 174 0 0 1 18.9-4.7 44 44 0 0 1 23.9 3.9c11 4 22.2 10.6 34 11 7.3.3 15.4-3.6 22-6.2 4-1.6 8-3.3 12.1-4.8 8-3 15.4-5.4 24-3.9a167.9 167.9 0 0 1 18.8 4.7c1.8.5 2.6-2.4.8-3a188.5 188.5 0 0 0-18.9-4.6c-8-1.5-14.6.1-22.2 2.7-11.7 4-24 11.7-36.6 12.1-7.4.3-15.9-4-22.7-6.7-4.6-1.8-9.1-3.7-13.8-5.4a41.4 41.4 0 0 0-21-2.9c-6.8 1.1-13.5 3-20 4.9-2 .5-1.1 3.4.7 2.9z" fill="#fff"/><path d="M144.4 159.6c6-2.2 13-4.3 19.4-3.8 7 .6 14 3.8 20.4 6.3 9.3 3.7 19.2 9 29.5 9.3 6.4.2 13.3-3 19.2-5.1 3.2-1.2 6.3-2.6 9.5-3.9 6.4-2.6 12.9-5 19.6-6.3a41.4 41.4 0 0 1 20.9 3.5c1.8.7 2.6-2.2.8-3a60 60 0 0 0-18.6-3.9c-6.7-.1-14 3.2-20.2 5.5-10 3.8-20.4 9.8-31.3 10.2-6.6.2-14.2-3.4-20.3-5.8l-10-4a75.6 75.6 0 0 0-20.3-5.9 48.4 48.4 0 0 0-19.4 4c-1.8.6-1 3.5.8 2.9zm.1-20.3c6-2.2 13-4.3 19.4-3.7 7 .6 14 3.7 20.4 6.3 9.4 3.7 19.3 8.9 29.5 9.2 6.4.2 13.3-3 19.2-5.1l9.5-3.8c6.4-2.6 13-5 19.7-6.4a41.4 41.4 0 0 1 20.8 3.5c1.8.7 2.6-2.2.8-2.9a60 60 0 0 0-18.6-4c-6.7-.1-14 3.2-20.1 5.6-10 3.7-20.5 9.7-31.3 10.1-6.7.2-14.3-3.4-20.4-5.7-3.3-1.3-6.6-2.8-10-4a75.7 75.7 0 0 0-20.3-6 48.5 48.5 0 0 0-19.4 4c-1.8.7-1 3.6.8 3zm-67-31.4l56.7-29c5.7-3 .6-11.6-5.1-8.7L72.5 99.3c-5.8 3-.7 11.6 5 8.6z" fill="#fff"/><path d="M176.9 166.2h-74.6c-11.7 0-26-1.3-30.8 12.6-1.7 4.9-1.2 10.3-1.2 15.4v23.6c0 6.5-.8 13.8.8 20.3 2.5 10.5 12.7 13.7 22.2 13.7h46.5l-3.5-1.4 33.6 39.5c3.6 4.3 9-.4 8.3-4.8l-6-39.6-4.8 6.3h10.8a19 19 0 0 0 16.5-12.5c2.4-6.8 1.2-15.4 1.2-22.5v-28.6c0-11.7-6.5-21.4-19-22-6.5-.3-6.4 9.7 0 10 8.9.5 9 8.4 9 15v41.5c0 10.4-11.3 9.1-18.5 9.1-3.5 0-5.3 3.2-4.8 6.4l6 39.5 8.3-4.8-23.7-28-9.7-11.4c-2.3-2.7-8.5-1.7-11.6-1.7H90.5c-6.2 0-10.2-4-10.2-10.2v-39c0-4.3-.8-9.6 2.2-13.3 2.9-3.4 7-3 10.8-3H177c6.4 0 6.4-10 0-10z" fill="#fff"/><path d="M160.6 224.1l-15.4-15.4 15.4-15.4a4.9 4.9 0 0 0 0-7l-5.1-5.1a4.9 4.9 0 0 0-7 0l-15.4 15.4-15.4-15.4a4.9 4.9 0 0 0-7 0l-5.1 5.1a4.9 4.9 0 0 0 0 7l15.4 15.4-15.4 15.4a4.9 4.9 0 0 0 0 7l5.2 5.2a4.9 4.9 0 0 0 6.9 0l15.4-15.5 15.4 15.4a4.9 4.9 0 0 0 7 0l5.1-5.1a4.9 4.9 0 0 0 0-7z" fill="#fff"/></svg>