<svg xmlns="http://www.w3.org/2000/svg" width="361" height="361"><path d="M252 286V178c0-6-10-6-10 0v108c0 7 10 7 10 0zm0-166V99c0-6-10-6-10 0v21c0 7 10 7 10 0z" fill="#fff"/><path d="M289 114l-85-44c-6-3-11 6-5 9l85 43c5 3 11-5 5-8zm-152 37a174 174 0 0 1 19-5 44 44 0 0 1 24 4c11 4 22 11 34 11 7 1 15-3 22-6l12-5c8-3 15-5 24-4a168 168 0 0 1 19 5c1 1 2-2 0-3a189 189 0 0 0-19-5c-8-1-14 1-22 3-11 4-24 12-36 12-8 0-16-4-23-7l-14-5a41 41 0 0 0-21-3l-20 5c-2 1-1 3 1 3z" fill="#fff"/><path d="M144 160c6-3 13-5 20-4 7 0 14 4 20 6 10 4 19 9 30 9 6 1 13-3 19-5l9-4c7-2 13-5 20-6a41 41 0 0 1 21 4c2 0 2-3 1-3a60 60 0 0 0-19-4c-7 0-14 3-20 5-10 4-21 10-31 10-7 1-15-3-21-5l-10-4a76 76 0 0 0-20-6 48 48 0 0 0-19 4c-2 0-1 3 0 3zm1-21c6-2 13-4 19-3 7 0 14 3 20 6 10 4 20 9 30 9 6 0 13-3 19-5l10-4 19-6a41 41 0 0 1 21 3c2 1 3-2 1-3a60 60 0 0 0-19-4c-7 0-14 4-20 6-10 4-20 10-31 10-7 0-15-3-21-6l-10-4a76 76 0 0 0-20-6 49 49 0 0 0-19 4c-2 1-1 4 0 3zm-67-31l56-29c6-3 1-12-5-9L73 99c-6 3-1 12 5 9z" fill="#fff"/><path d="M142 202a6 6 0 0 1-11 0v-3c1-2 3-9 5-9s5 7 6 9v3zm-11 19a6 6 0 0 1-12 0l1-3c1-2 3-9 5-9s5 7 6 9v3z" fill="none" stroke="#fff" stroke-width="3" stroke-miterlimit="10"/><path d="M189 249c2 0 3 2 3 4v31c0 2-1 4-3 4H76c-2 0-3-2-3-4v-31c0-2 1-4 3-4h113z" fill="none" stroke="#fff" stroke-width="7" stroke-miterlimit="10"/><path d="M91 122a40 40 0 0 1-3 31 86 86 0 0 0-7 16 44 44 0 0 0 3 28l8 18c1 5 8 3 7-2a82 82 0 0 0-7-16 40 40 0 0 1-2-33l6-13a44 44 0 0 0 1-31c-1-4-8-2-6 2z" fill="#fff"/><path d="M103 133l-1 11a48 48 0 0 1-4 10 57 57 0 0 0-6 24 50 50 0 0 0 7 25 40 40 0 0 1 3 33c-2 4 5 6 6 2a45 45 0 0 0-1-34c-3-7-7-13-8-21-2-9 2-18 6-26a60 60 0 0 0 4-12v-12c0-4-7-4-6 0z" fill="#fff"/><path d="M125 193a6 6 0 0 1-11 0v-3c1-2 3-9 5-9s5 7 6 8v4z" fill="none" stroke="#fff" stroke-width="3" stroke-miterlimit="10"/></svg>