<svg xmlns="http://www.w3.org/2000/svg" width="361" height="361"><path d="M136.8 151a174 174 0 0 1 18.9-4.7 44 44 0 0 1 23.9 3.9c11 4 22.2 10.6 34 11 7.4.3 15.4-3.6 22-6.2 4-1.6 8-3.3 12.1-4.8 8-3 15.4-5.4 24-3.9a167.9 167.9 0 0 1 18.8 4.7c1.8.5 2.6-2.4.8-3a188.5 188.5 0 0 0-18.9-4.6c-8-1.5-14.6.1-22.2 2.7-11.7 4-24 11.7-36.5 12.1-7.5.3-16-4-22.8-6.7-4.6-1.8-9.1-3.7-13.8-5.4a41.4 41.4 0 0 0-21-2.9c-6.8 1.1-13.5 3-20 4.9-2 .5-1.1 3.4.7 2.9z" fill="#fff"/><path d="M144.4 159.6c6-2.2 13-4.3 19.4-3.8 7 .6 14 3.8 20.4 6.3 9.3 3.7 19.2 9 29.5 9.3 6.4.2 13.3-3 19.2-5.1 3.2-1.2 6.3-2.6 9.5-3.9 6.4-2.6 12.9-5 19.6-6.3a41.4 41.4 0 0 1 20.9 3.5c1.8.7 2.6-2.2.8-3a60 60 0 0 0-18.6-3.9c-6.7-.1-14 3.2-20.2 5.5-10 3.8-20.4 9.8-31.3 10.2-6.6.2-14.2-3.4-20.3-5.8l-10-4a75.6 75.6 0 0 0-20.3-5.9 48.4 48.4 0 0 0-19.4 4c-1.8.6-1 3.5.8 2.9zm.1-20.3c6-2.2 13-4.3 19.4-3.7 7 .6 14 3.7 20.4 6.3 9.4 3.7 19.3 8.9 29.5 9.2 6.4.2 13.3-3 19.2-5.1l9.5-3.8c6.4-2.6 13-5 19.7-6.4a41.4 41.4 0 0 1 20.8 3.5c1.8.7 2.6-2.2.8-2.9a60 60 0 0 0-18.6-4c-6.7-.1-14 3.2-20.1 5.6-10 3.7-20.5 9.7-31.3 10.1-6.7.2-14.3-3.4-20.4-5.7-3.3-1.3-6.6-2.8-10-4a75.7 75.7 0 0 0-20.3-6 48.5 48.5 0 0 0-19.4 4c-1.8.7-1 3.6.8 3z" fill="#fff"/><path d="M240.4 169.7l-24 66.2-13.3 36.9c-.7 2-1.4 4.2-2.3 6-1.7 3.8-8.9 2.4-12 2.4h-53.6c-1 0 .7.1.6.3l1.5-4 24-65.8 32.6-89.7L205 91.3c1.2-3.4 2.6-12 7.4-12h60.8c2.1 0 .2 0 .3-.2l-1 2.8-5.7 14.9-10.2 26.9c-2.3 6 7.3 8.6 9.6 2.6l13.2-34.6c1.6-4.3 4-9 4.3-13.6.4-7.3-7-8.7-12.5-8.7h-43.4c-10.5 0-24.6-2.5-29.1 10l-51.7 142-20.6 56.5c-1.7 4.8-.6 10.8 4.8 12.7 3.7 1.3 8.4.6 12.2.6h45.3c4 0 8.5.5 12.5-.6 5.5-1.6 8.3-6.4 10-11.4l11.6-31.7 26.8-74.2.4-1c2.2-6-7.5-8.7-9.6-2.6z" fill="#fff"/><path d="M201.5 88.8h74.7c2 0 2-3 0-3h-74.7c-2 0-2 3 0 3zm-6 16.1h74.8c2 0 2-3 0-3h-74.7c-2 0-2 3 0 3zm-5.8 16.2h74.7c2 0 2-3 0-3h-74.7c-2 0-2 3 0 3zm-11.8 32.4h40.7c2 0 2-3 0-3H178c-2 0-2 3 0 3zm6-16.2h52.6c2 0 2-3 0-3h-52.7c-2 0-2 3 0 3zM172 169.7l52.1-.5c2 0 2-3 0-3l-52 .5c-2 0-2 3 0 3zm-8.8 24.2h74.7c2 0 2-3 0-3h-74.7c-2 0-2 3 0 3zm-11.8 32.4h74.7c2 0 2-3 0-3h-74.7c-2 0-2 3 0 3zm8.9-24.3H235c1.9 0 1.9-3 0-3h-74.7c-2 0-2 3 0 3zm-11.8 32.4h74.7c2 0 2-3 0-3h-74.7c-2 0-2 3 0 3zm-6 16.2h74.8c2 0 2-3 0-3h-74.7c-2 0-2 3 0 3zm-5.8 16.1h74.7c2 0 2-3 0-3h-74.7c-2 0-2 3 0 3zm67.7-186h74.7c2 0 2-3 0-3h-74.7c-2 0-2 3 0 3zm-5.9 16.1h74.8c1.9 0 1.9-3 0-3h-74.8c-1.9 0-1.9 3 0 3zm-5.8 16.2h74.7c1.9 0 1.9-3 0-3h-74.7c-2 0-2 3 0 3zm-11.8 32.4h40.7c2 0 2-3 0-3h-40.7c-2 0-2 3 0 3zm5.9-16.2h74.7c2 0 2-3 0-3h-74.7c-2 0-2 3 0 3zM175 161.6h40.7c2 0 2-3 0-3H175c-2 0-2 3 0 3zm-6 16.1h74.8c2 0 2-3 0-3h-74.7c-2 0-2 3 0 3zm-11.7 32.4H232c2 0 2-3 0-3h-74.7c-2 0-2 3 0 3zm8.8-24.3H241c1.9 0 1.9-3 0-3h-75c-1.9 0-1.9 3 0 3zm-11.7 32.4H229c2 0 2-3 0-3h-74.7c-2 0-2 3 0 3zm-8.9 24.3h74.8c1.9 0 1.9-3 0-3h-74.8c-2 0-2 3 0 3zm-5.9 16.1h74.8c1.9 0 1.9-3 0-3h-74.8c-1.9 0-1.9 3 0 3zm-8.8 24.3h74.7c2 0 2-3 0-3h-74.7c-2 0-2 3 0 3zm3-8h74.7c1.9 0 1.9-3 0-3h-74.7c-2 0-2 3 0 3zm38.1-195.7a3.8 3.8 0 0 1-7.5 0 3.8 3.8 0 1 1 7.5 0zm-15 33.4a3.8 3.8 0 0 1-7.6 0 3.8 3.8 0 1 1 7.5 0zm-27.6-35.8a3.8 3.8 0 0 1-7.5 0 3.8 3.8 0 1 1 7.5 0zM118.1 144a3.8 3.8 0 0 1-7.5 0 3.8 3.8 0 0 1 7.5 0zM69.8 93.6a3.8 3.8 0 0 1 7.5.5 3.8 3.8 0 1 1-7.5-.5zm17.8 20.7a3.8 3.8 0 1 1 7.5.5 3.8 3.8 0 0 1-7.5-.4zm19 159.9a3.8 3.8 0 0 1 0-7.5 3.8 3.8 0 0 1 0 7.5zm19-45.7a3.8 3.8 0 0 1 0-7.5 3.8 3.8 0 0 1 0 7.5zm-48.3 2.7a3.8 3.8 0 0 1 0-7.5 3.8 3.8 0 0 1 0 7.5zm1.5-39.2a3.8 3.8 0 0 1 0-7.5 3.8 3.8 0 0 1 0 7.5zm43.8 2.4a3.8 3.8 0 0 1 0-7.5 3.8 3.8 0 1 1 0 7.5zm-21.3 17.3a3.8 3.8 0 0 1 0-7.5 3.8 3.8 0 0 1 0 7.5zM74 165.2a3.8 3.8 0 1 1-.4 7.5 3.8 3.8 0 0 1 .4-7.5z" fill="#fff"/></svg>