<svg xmlns="http://www.w3.org/2000/svg" width="361" height="361"><path d="M193 188c0-3-3-4-5-4l-42 11c-2 1-3 4-2 6l19 73c1 3 3 5 5 4l43-11c2-1 3-3 2-6l-20-73zm2-49c-2 2-2 5-1 6l31 31c2 2 5 1 6-1l54-53c2-2 2-5 1-6l-31-31c-2-2-4-1-6 1l-54 53zm-43 23c3 1 5 0 6-2l11-43c1-2-1-4-4-4L92 93c-2-1-5 0-6 2l-11 43c0 2 1 4 4 4l73 20z" fill="none" stroke="#fff" stroke-width="10" stroke-miterlimit="10"/><path d="M175 175l6-24a20376 20376 0 0 0-8 3l17 17 2-9-23 7c-7 1-4 11 2 9l24-6a5 5 0 0 0 2-8l-17-17a5 5 0 0 0-9 2l-6 23c-2 6 8 9 10 3z" fill="#fff"/></svg>