<svg xmlns="http://www.w3.org/2000/svg" width="361" height="361"><path d="M252 120V99c0-6-10-6-10 0v21c0 7 10 7 10 0z" fill="#fff"/><path d="M289 114l-85-44c-6-3-11 6-5 9l85 43c5 3 11-5 5-8zm-152 37a174 174 0 0 1 19-5 44 44 0 0 1 24 4c11 4 22 11 34 11 7 1 15-3 22-6l12-5c8-3 15-5 24-4a168 168 0 0 1 19 5c1 1 2-2 0-3a189 189 0 0 0-19-5c-8-1-14 1-22 3-11 4-24 12-36 12-8 0-16-4-23-7l-14-5a41 41 0 0 0-21-3l-20 5c-2 1-1 3 1 3z" fill="#fff"/><path d="M144 160c6-3 13-5 20-4 7 0 14 4 20 6 10 4 19 9 30 9 6 1 13-3 19-5l9-4c7-2 13-5 20-6a41 41 0 0 1 21 4c2 0 2-3 1-3a60 60 0 0 0-19-4c-7 0-14 3-20 5-10 4-21 10-31 10-7 1-15-3-21-5l-10-4a76 76 0 0 0-20-6 48 48 0 0 0-19 4c-2 0-1 3 0 3zm1-21c6-2 13-4 19-3 7 0 14 3 20 6 10 4 20 9 30 9 6 0 13-3 19-5l10-4 19-6a41 41 0 0 1 21 3c2 1 3-2 1-3a60 60 0 0 0-19-4c-7 0-14 4-20 6-10 4-20 10-31 10-7 0-15-3-21-6l-10-4a76 76 0 0 0-20-6 49 49 0 0 0-19 4c-2 1-1 4 0 3zm-67-31l56-29c6-3 1-12-5-9L73 99c-6 3-1 12 5 9zm38 171a980735 980735 0 0 1-32-32l2 5v-46l-2 6 32-33-5 3h45l-5-3 32 33-2-6v46l2-5-32 32 5-2h-45c-10 0-10 15 0 15h37c4 0 10 1 14-3l11-11 17-16c3-4 6-6 6-11v-40c0-5 0-8-4-11l-14-15-15-14c-3-3-6-4-10-4h-41c-5 0-7 3-11 6l-16 16-11 11c-3 3-3 6-3 9v37c0 4-1 8 2 11l10 10 22 22c7 7 18-3 11-10z" fill="#fff"/><path d="M96 237h2l1-1 1-1a3 3 0 0 0 0-1l-1-2-4-2a30 30 0 0 1-3-1 9 9 0 0 1-2-1l-1-2-1-3 1-3a7 7 0 0 1 2-3 9 9 0 0 1 2-1l4-1a16 16 0 0 1 8 2l-2 5a16 16 0 0 0-2-1l-3-1-3 1a2 2 0 0 0-1 1v2h1l1 1 2 1 4 1a9 9 0 0 1 2 2 6 6 0 0 1 1 2l1 3c0 3-1 4-3 6l-7 2a21 21 0 0 1-5-1 14 14 0 0 1-3-1l1-5a14 14 0 0 0 7 2zm32-21v5h-7v20h-6v-20h-8v-5h21zm27 13l-1 5-2 4a11 11 0 0 1-4 3 15 15 0 0 1-10 0 11 11 0 0 1-4-3 13 13 0 0 1-4-9l1-6a14 14 0 0 1 3-4 11 11 0 0 1 4-3 14 14 0 0 1 5-1l5 1a11 11 0 0 1 4 3 12 12 0 0 1 2 4l1 6zm-19 0v3a7 7 0 0 0 2 3 6 6 0 0 0 2 1 7 7 0 0 0 3 1l2-1a6 6 0 0 0 3-2 9 9 0 0 0 1-5 9 9 0 0 0-1-6 6 6 0 0 0-3-2 7 7 0 0 0-2-1l-3 1a6 6 0 0 0-2 2 8 8 0 0 0-2 2v4zm32-13c3 0 6 0 8 2 2 1 3 3 3 6s-1 5-3 7l-9 2h-1v8h-6v-25a32 32 0 0 1 4 0 54 54 0 0 1 4 0zm0 4a21 21 0 0 0-2 1v7h1l5-1 1-3v-2l-1-1h-2a14 14 0 0 0-2 0z" fill="#fff"/></svg>