<svg xmlns="http://www.w3.org/2000/svg" width="361" height="361"><path d="M157.1 147c-.5-2-2-3.1-3.3-2.8l-29.5 8c-1.3.3-2 2.1-1.6 4l13.7 51c.5 1.8 2 3 3.4 2.6l29.4-7.9c1.4-.3 2-2.1 1.6-4l-13.7-51zm1.4-34c-1.3 1.3-1.6 3.2-.6 4.2l21.5 21.5c1 1 3 .7 4.3-.6l37.3-37.3c1.4-1.4 1.6-3.3.7-4.3L200 75c-1-1-2.9-.7-4.3.6L158.5 113zm-30.1 15.8c1.8.5 3.6-.2 4-1.5l7.9-29.5c.3-1.3-.9-2.9-2.7-3.4l-51-13.6c-1.9-.5-3.7.2-4 1.6l-8 29.4c-.3 1.4 1 2.9 2.8 3.4l51 13.6z" fill="none" stroke="#fff" stroke-width="10" stroke-miterlimit="10"/><path d="M150 133.3l1.6-6.3-8.3 2.2 4.6 4.6 2.2-8.4-6.3 1.7a5 5 0 0 0-3.5 6.2 5 5 0 0 0 6.1 3.5l6.3-1.7a5 5 0 0 0 2.2-8.4l-4.6-4.6a5 5 0 0 0-8.3 2.3l-1.7 6.2a5 5 0 0 0 3.5 6.2 5 5 0 0 0 6.1-3.5zm91.3 95.7v-53c0-2.6 3.2-1.8 5.1-1.8 1.2 0 4.7-.6 4.7 1.4V229c0 4.5 7 4.5 7 0v-52.6c0-6.5-4.8-9.3-10.8-9.3-6.2 0-13 1.2-13 9.2V229c0 4.5 7 4.5 7 0z" fill="#fff"/><path d="M225.6 259v-55c0-4.9-.5-10.3.4-15 .4-2.6 5.4-1.3 7.7-1.3 2.7 0 .6 0 .6-1.1v55.9c0 4.5 7 4.5 7 0v-54c0-1.5 0-2.7-.5-4.2-1-4-5.7-3.6-9-3.6-3 0-6.2-.4-9 1-4.5 2-4.2 9.6-4.2 13.4v64c0 4.5 7 4.5 7 0zm32.4-20v-56c0 .1-2 1.2-.7 1.2h2.2c5.3 0 6.6.5 6.6 5.3V239c0 4.5 7 4.5 7 0v-36c0-10.3 3-25.8-11.8-25.8-5.7 0-10.3.7-10.3 7.4V239c0 4.5 7 4.5 7 0z" fill="#fff"/><path d="M273.3 245.2V199c0 .4-2 1.2-.7 1.2h3.4c3.5 0 2.6 5.4 2.6 8.1v80c0 4.5 7 4.5 7 0V205c0-3.1-.4-6.8-2.6-9.2-2.6-3-6-2.6-9.6-2.6-6.7 0-7.2 4.7-7.2 10v42.1c0 4.6 7 4.6 7 0zM213 288.3l-12.4-52.5c-.8-3.2-1.7-4.9 2.3-6.1 1.4-.5 5.1-2.1 5.8-.1l1.5 4.6 8.3 26c1.4 4.3 8.2 2.5 6.8-1.9l-9.4-29c-1.8-5.9-5.8-8.2-12-7.3-6 1-12.6 5-11 11.9l13.3 56.3c1 4.4 7.8 2.5 6.8-1.9z" fill="#fff"/></svg>