<svg xmlns="http://www.w3.org/2000/svg" width="361" height="361"><path d="M206 223.5c.6 4.9 6 3.2 10 3.2 3.5 0 3-3.4 3-6V191c0-5-6.8-3.2-10-3.2-3.5 0-3 3.4-3 6v29.7c0 2 3 2 3 0v-32.4c0-.5-1.6-.3-.5-.3h8c.6 0 .5 0-.5.2 1 7.2 0 15.2 0 22.6v9.7c0 .5 1.5.4.5.4h-8c-.7 0-.5 0 .4-.2-.2-1.9-3.2-2-3 0z" fill="#fff"/><path d="M206.4 180.9l-33 25.3c-1 .7-1 1.8 0 2.6l33 25.2c1 .7 2.3-.3 2.3-1.3v-50.5c0-2-3-2-3 0v50.5l2.3-1.3-33-25.2v2.5l33-25.2c1.5-1.2 0-3.8-1.6-2.6zm45.4 105.4V178c0-6.5-10-6.5-10 0v108.3c0 6.5 10 6.5 10 0zm0-166.3V99.1c0-6.4-10-6.4-10 0V120c0 6.5 10 6.5 10 0z" fill="#fff"/><path d="M288.8 113.6l-84.6-43.4c-5.8-2.9-10.8 5.7-5.1 8.7l84.6 43.4c5.7 2.9 10.8-5.7 5-8.7zm-152 37.4a174 174 0 0 1 18.9-4.7 44 44 0 0 1 23.9 3.9c11 4 22.2 10.6 34 11 7.3.3 15.4-3.6 22-6.2 4-1.6 8-3.3 12.1-4.8 8-3 15.4-5.4 24-3.9a167.9 167.9 0 0 1 18.8 4.7c1.8.5 2.6-2.4.8-3a188.5 188.5 0 0 0-18.9-4.6c-8-1.5-14.6.1-22.2 2.7-11.7 4-24 11.7-36.6 12.1-7.4.3-15.9-4-22.7-6.7-4.6-1.8-9.1-3.7-13.8-5.4a41.4 41.4 0 0 0-21-2.9c-6.8 1.1-13.5 3-20 4.9-2 .5-1.1 3.4.7 2.9z" fill="#fff"/><path d="M144.4 159.6c6-2.2 13-4.3 19.4-3.8 7 .6 14 3.8 20.4 6.3 9.3 3.7 19.2 9 29.5 9.3 6.4.2 13.3-3 19.2-5.1 3.2-1.2 6.3-2.6 9.5-3.9 6.4-2.6 12.9-5 19.6-6.3a41.4 41.4 0 0 1 20.9 3.5c1.8.7 2.6-2.2.8-3a60 60 0 0 0-18.6-3.9c-6.7-.1-14 3.2-20.2 5.5-10 3.8-20.4 9.8-31.3 10.2-6.6.2-14.2-3.4-20.3-5.8l-10-4a75.6 75.6 0 0 0-20.3-5.9 48.4 48.4 0 0 0-19.4 4c-1.8.6-1 3.5.8 2.9zm.1-20.3c6-2.2 13-4.3 19.4-3.7 7 .6 14 3.7 20.4 6.3 9.4 3.7 19.3 8.9 29.5 9.2 6.4.2 13.3-3 19.2-5.1l9.5-3.8c6.4-2.6 13-5 19.7-6.4a41.4 41.4 0 0 1 20.8 3.5c1.8.7 2.6-2.2.8-2.9a60 60 0 0 0-18.6-4c-6.7-.1-14 3.2-20.1 5.6-10 3.7-20.5 9.7-31.3 10.1-6.7.2-14.3-3.4-20.4-5.7-3.3-1.3-6.6-2.8-10-4a75.7 75.7 0 0 0-20.3-6 48.5 48.5 0 0 0-19.4 4c-1.8.7-1 3.6.8 3zm-67-31.4l56.7-29c5.7-3 .6-11.6-5.1-8.7L72.5 99.3c-5.8 3-.7 11.6 5 8.6zm5.6 140.5c-.6-4.8-6.1-3.1-10-3.1-3.5 0-3 3.3-3 6V281c0 4.9 6.7 3.1 10 3.1 3.5 0 3-3.3 3-6v-29.7c0-1.9-3-1.9-3 0v32.4c0 .5 1.5.3.5.3h-8c-.7 0-.5 0 .4-.1-.9-7.3 0-15.3 0-22.6v-9.8c0-.5-1.5-.3-.4-.3h8c.6 0 .5 0-.5.1.3 2 3.3 2 3 0z" fill="#fff"/><path d="M82.6 291l33-25.2c1-.7 1-1.9 0-2.6l-33-25.3c-1-.7-2.3.3-2.3 1.3v50.5c0 2 3 2 3 0v-50.5l-2.2 1.3 33 25.3v-2.6l-33 25.2c-1.5 1.2 0 3.8 1.5 2.6zm115-15l-33.8-33.8 1 2.5c.7-7.7 1.6-17.9-3.8-24-5-5.7-17-4.3-24-3.7l2.6 1-21.7-21.6c-5.8-5.9-16.5-21.4-25.6-12.2-9.2 9.1 6.1 19.7 12 25.5l22 22.1-1-2.5c-.3 7.6-1.4 17.2 3.9 23.3 5 5.7 16.5 4.2 23.3 3.8l-2.5-1 26 26c2.8 2.8 6.2 7.7 9.8 9.4a9.6 9.6 0 0 0 11.8-14.8c-2.8-3.5-7.8 1.5-5 5s-2.8 4.3-4.7 2.4l-5.7-5.7-16.7-16.7-10.5-10.5c-1.5-1.5-4.1-1-6.1-1h-10.3c-8.7 0-6.3-13.5-6.3-19 0-4-4-6.6-6.6-9.3l-28.4-28.4c-2-2 .7-6.4 3.3-3.9l4 4 16 16.1 13.1 13c3.3 3.4 10.8 1.9 15.2 1.9 4.3 0 8.7.8 9 6.2.2 3.1 0 6.3 0 9.4 0 2.3-.7 6 1 7.7l3.3 3.3 29.3 29.3 1.1 1.2c3.2 3.2 8.2-1.8 5-5z" fill="#fff"/></svg>