<svg xmlns="http://www.w3.org/2000/svg" width="361" height="361"><path d="M251.8 120V99.1c0-6.4-10-6.4-10 0V120c0 6.5 10 6.5 10 0z" fill="#fff"/><path d="M288.8 113.6l-84.6-43.4c-5.8-2.9-10.8 5.7-5.1 8.7l84.6 43.4c5.7 2.9 10.8-5.7 5-8.7zm-152 37.4a174 174 0 0 1 18.9-4.7 44 44 0 0 1 23.9 3.9c11 4 22.2 10.6 34 11 7.3.3 15.4-3.6 22-6.2 4-1.6 8-3.3 12.1-4.8 8-3 15.4-5.4 24-3.9a167.9 167.9 0 0 1 18.8 4.7c1.8.5 2.6-2.4.8-3a188.5 188.5 0 0 0-18.9-4.6c-8-1.5-14.6.1-22.2 2.7-11.7 4-24 11.7-36.6 12.1-7.4.3-15.9-4-22.7-6.7-4.6-1.8-9.1-3.7-13.8-5.4a41.4 41.4 0 0 0-21-2.9c-6.8 1.1-13.5 3-20 4.9-2 .5-1.1 3.4.7 2.9z" fill="#fff"/><path d="M144.4 159.6c6-2.2 13-4.3 19.4-3.8 7 .6 14 3.8 20.4 6.3 9.3 3.7 19.2 9 29.5 9.3 6.4.2 13.3-3 19.2-5.1 3.2-1.2 6.3-2.6 9.5-3.9 6.4-2.6 12.9-5 19.6-6.3a41.4 41.4 0 0 1 20.9 3.5c1.8.7 2.6-2.2.8-3a60 60 0 0 0-18.6-3.9c-6.7-.1-14 3.2-20.2 5.5-10 3.8-20.4 9.8-31.3 10.2-6.6.2-14.2-3.4-20.3-5.8l-10-4a75.6 75.6 0 0 0-20.3-5.9 48.4 48.4 0 0 0-19.4 4c-1.8.6-1 3.5.8 2.9zm.1-20.3c6-2.2 13-4.3 19.4-3.7 7 .6 14 3.7 20.4 6.3 9.4 3.7 19.3 8.9 29.5 9.2 6.4.2 13.3-3 19.2-5.1l9.5-3.8c6.4-2.6 13-5 19.7-6.4a41.4 41.4 0 0 1 20.8 3.5c1.8.7 2.6-2.2.8-2.9a60 60 0 0 0-18.6-4c-6.7-.1-14 3.2-20.1 5.6-10 3.7-20.5 9.7-31.3 10.1-6.7.2-14.3-3.4-20.4-5.7-3.3-1.3-6.6-2.8-10-4a75.7 75.7 0 0 0-20.3-6 48.5 48.5 0 0 0-19.4 4c-1.8.7-1 3.6.8 3zm-67-31.4l56.7-29c5.7-3 .6-11.6-5.1-8.7L72.5 99.3c-5.8 3-.7 11.6 5 8.6zm131.1 144.7l64.6-64.5 13 13-64.6 64.5z" fill="#fff"/><path d="M287 223.7c0 31-19.5 63.7-40.5 63.7S206 254.6 206 223.7c0-11.3-.3-21.8 3.6-30.6 0 0 23.6-7.9 37-7.9a161 161 0 0 1 36.9 7.9c3.9 8.8 3.6 19.3 3.6 30.6z" fill="none" stroke="#fff" stroke-width="10" stroke-miterlimit="10"/><path d="M135.7 270.2c3 0 5.4.5 7 1.6 1.7 1 2.6 2.8 2.6 5.3s-.9 4.3-2.5 5.4a13 13 0 0 1-7.2 1.6h-1.5v7h-4.6v-20.4a26.5 26.5 0 0 1 3.2-.4 44.6 44.6 0 0 1 3-.1zm.3 4a17.2 17.2 0 0 0-1.9 0v6h1.5a7.9 7.9 0 0 0 3.6-.7c.9-.4 1.3-1.2 1.3-2.4 0-.6-.1-1-.3-1.5s-.5-.6-1-.9a4 4 0 0 0-1.4-.4 11.6 11.6 0 0 0-1.8-.2zm17.4.8c1.3 0 2.4.1 3.3.4a4.6 4.6 0 0 1 3.2 3.3 10 10 0 0 1 .3 2.6v9.3l-2.6.5a24 24 0 0 1-6.9 0c-.8-.2-1.5-.5-2.1-.9a4 4 0 0 1-1.4-1.6 5.5 5.5 0 0 1-.4-2.4c0-1 .1-1.7.5-2.3a4.3 4.3 0 0 1 1.5-1.5 6.7 6.7 0 0 1 2-.8 11.9 11.9 0 0 1 2.6-.3 13.9 13.9 0 0 1 2.6.3v-.5c0-.7-.2-1.3-.7-1.8s-1.3-.7-2.4-.7l-2.2.2a9.5 9.5 0 0 0-2 .5l-.5-3.6a16.5 16.5 0 0 1 2.2-.5l1.5-.2a16.6 16.6 0 0 1 1.5 0zm.4 13h1.2l1-.2v-3.4a8 8 0 0 0-.8 0 8.9 8.9 0 0 0-1-.1H153a3.1 3.1 0 0 0-1 .3l-.6.6c-.2.2-.3.5-.3.9 0 .7.3 1.2.7 1.4s1.1.4 2 .4zm-33-69.3L71 268.3c-1.3 1.4.8 3.5 2.2 2.1l49.6-49.6c1.3-1.3-.8-3.5-2.2-2z" fill="#fff"/><path d="M120.5 216.1c-5.3 5.5-15 17-8.6 24.8 3 3.4 7.8-1.5 5-5-.8-.9.9-4.3 1.4-5.3 1.7-3.6 4.4-6.7 7.1-9.5 3.2-3.2-1.8-8.2-5-5z" fill="#fff"/><path d="M120.5 216.1a44.1 44.1 0 0 1-8.6 6.7c-1 .6-5.1 2.8-6.3 1.9-3.4-2.9-8.4 2-5 5 7.9 6.4 19.4-3.3 24.8-8.6 3.3-3.2-1.7-8.1-5-5z" fill="#fff"/><path d="M89.5 256.6a2.8 2.8 0 0 1-4 0l-.5-.6a2.8 2.8 0 0 1 0-4l.7-.7a2.8 2.8 0 0 1 4 0l.6.6a2.8 2.8 0 0 1 0 4l-.8.7z" fill="#fff" stroke="#fff" stroke-miterlimit="10"/><g fill="#fff"><path d="M126.4 195.6l-7.3 10.5c-.5.7.7 1.5 1.2.9l7.6-10.3c.5-.7-1-1.8-1.5-1z"/><path d="M125.8 195.3l-7.4 10.4c-1 1.4 1.3 3 2.4 1.8 1.4-1.4 2.5-3.4 3.7-5l4-5.5c1-1.4-1.3-2.8-2.5-2-.7.5 0 1.8.8 1.3l-.1.7-1 1.3-2 2.8-3.5 4.8 6.9-9.9c.5-.8-.8-1.5-1.3-.7zm10.5 8.5l-5.9 6c-.6.6.5 1.7 1.1 1.1l6-5.8c.6-.6-.6-1.9-1.2-1.3z"/><path d="M135.8 203.3l-3.5 3.6c-.8.8-2.4 1.9-2.7 3-.4 1.3 1.4 2.6 2.5 1.6l3.6-3.5 1.6-1.6c.3-.3 1-.8 1-1.3.3-1.3-1-2.8-2.4-2-.8.6 0 2 .8 1.4.5-.4-.6 1-.5.8l-1.6 1.6-3.2 3.1c1.8-1.7 3.6-3.8 5.4-5.6.7-.7-.4-1.8-1-1.1zm-4.3-3.8l-5.3 6.5c-.5.6.6 1.6 1.2 1l5.5-6.3c.5-.7-.8-1.8-1.4-1.2z"/><path d="M131 199l-2.9 3.4c-.8 1.1-2 2.2-2.7 3.4-.6 1.4 1.5 2.9 2.5 1.7l3-3.4c.8-1 2-2 2.7-3.3.7-1.3-1.3-2.8-2.5-2-.7.7 0 2 .8 1.4v.4l-.7.8-1.4 1.7-2.6 3 2-2.6 2.9-3.4c.6-.8-.5-1.8-1.1-1.1zm13.7 14.5l-10.3 7.6c-.7.5.2 1.7.9 1.2l10.4-7.4c.7-.5-.3-1.9-1-1.4z"/><path d="M144.3 212.9l-5.5 4c-1.6 1.2-3.5 2.3-5 3.6-1 1.2.4 3.4 1.9 2.4l5.5-3.9c1.6-1.1 3.7-2.1 5-3.5 1.3-1.2-.2-3.1-1.7-2.7-1 .3-.5 1.7.4 1.4l-.2.6-1.4 1-2.8 2-4.9 3.3c2.8-1.9 6.4-4.7 9.5-7 .8-.5 0-1.8-.8-1.2zm4 6a16966.1 16966.1 0 0 0-7.1 4.3c-.7.5 0 1.8.8 1.4l7.2-4.2c.8-.5-.2-2-.9-1.5z"/><path d="M148 218.2l-4.1 2.5c-1 .6-3 1.3-3.6 2.4-.7 1.2.8 2.9 2 2.1l4.2-2.4c1-.6 3-1.2 3.6-2.2.7-1.3-.7-2.9-2-2.5-.9.3-.5 1.8.4 1.5l-.2.4-1 .6-1.6 1-3.6 2 6.6-4.1c.8-.5 0-1.8-.8-1.3zm10.1 24.7l-8.2 1.8c-.8.2-.5 1.8.4 1.6l8.2-1.6c.8-.2.4-2-.4-1.8z"/><path d="M157.9 242.2l-5 1.1c-1 .2-3 .3-3.8 1-1 1-.1 3 1.4 2.8l5-1c1-.2 3-.2 3.8-1 1-1 .2-2.9-1.2-3-1 0-1 1.6 0 1.6l-.4.4-1.3.3-2 .3-3.7.8 7.6-1.8c1-.3.5-1.7-.4-1.5zm-1.5-5.7l-12.2 3.9c-.8.2-.4 1.6.5 1.4l12.2-3.5c.9-.3.3-2-.5-1.8z"/><path d="M156.2 235.8l-6.6 2c-1.7.6-4.5 1-6 2-1 1-.4 3.2 1.2 2.7l6.6-1.9c1.9-.5 4.7-.8 6.2-2 1.3-.9 0-2.7-1.2-2.8-1 0-1 1.4 0 1.5l-.6.5-2 .6-2.7.8-5.7 1.6c3.6-1 7.5-2.4 11.2-3.5 1-.3.5-1.8-.4-1.5zm-15.5-27.3l-6.3 5.5c-.7.5.3 1.7 1 1.2l6.4-5.4c.7-.5-.5-1.9-1.1-1.3z"/><path d="M140.2 208l-3.4 2.9c-1 1-2.4 1.8-3.2 3-1 1.2 1.2 2.7 2.3 1.8l3.5-2.8c1-1 2.4-1.8 3.2-2.9 1-1.3-1.1-2.7-2.3-2.1-.8.4 0 1.7.8 1.3l-.2.5-.9.7-1.7 1.4-3 2.5c2-1.6 4-3.5 6-5.3.7-.6-.4-1.7-1.1-1zm11.3 16.5l-7.5 3.8c-.7.4 0 1.8.7 1.4l7.6-3.6c.7-.4 0-2-.8-1.6z"/><path d="M151.1 223.8l-4.6 2.4c-1 .4-2.8 1-3.4 1.9-.7 1.2.6 2.9 2 2.2l4.6-2.2c.8-.4 3-1 3.4-1.8.6-1.3-.3-2.9-1.8-2.5-1 .2-.6 1.6.4 1.4l-.4.5-1.2.6-1.7.8-3.5 1.7c2.3-1.1 4.6-2.5 7-3.7.8-.4 0-1.7-.8-1.3zm3 6.6l-7.7 3.1c-.7.4-.2 1.8.6 1.5l7.8-3c.8-.2.2-2-.6-1.6z"/><path d="M154 229.7l-4.8 2c-1 .3-2.7.7-3.5 1.5-1 1 .1 3 1.5 2.6l4.8-1.9c1-.3 3.2-.7 3.7-1.6.7-1.3-.3-2.9-1.7-2.6-1 .1-.6 1.6.4 1.4.4 0-1.1.7-1 .7l-1.8.7-4.2 1.6c-.7.2 1.1-.6 1-.6l1.8-.7 4.2-1.7c.9-.3.5-1.8-.4-1.4zm5.3 19.8l-8.3 1.1c-.9.2-.7 1.8.2 1.7l8.3-1c.9 0 .6-2-.2-1.8z"/><path d="M159 248.8l-5 .7c-1 0-3.2 0-3.8.7-1.2 1.5 0 3 1.6 2.7l5.1-.5c.9-.1 2.8 0 3.4-.6 1-1.1.5-2.9-1-3-1-.2-1 1.3 0 1.4.5.1-1.2.5-1 .5l-2 .2-4.5.5c-1.7.2.5-.2.7-.2l2.5-.4 4.5-.6c1-.1.5-1.5-.4-1.4zm1 14.3l-12.8-.5c-.9 0-1 1.6-.1 1.6l12.7.9c.9 0 1-2 .1-2z"/><path d="M160 262.4l-7-.3c-2 0-4.5-.6-6.4 0-1.5.4-1 2.8.5 3l6.8.3c2 .2 4.6.8 6.4.3 1.6-.4 1-2.8-.2-3.3-.9-.3-1.3 1.1-.4 1.5l-.9.4-2-.2-2.9-.2-5.8-.3c3.8.2 7.9.1 11.8.3 1 0 1-1.5 0-1.5zm-.1-6.2l-8.4.5c-.8 0-.8 1.7.1 1.6l8.4-.2c.8 0 .7-1.9-.1-1.9z"/><path d="M159.9 255.5l-5.2.3c-1 0-3.1-.4-4 .4-.9.8-.6 3 .9 2.9l5.1-.2c1 0 3.2.4 4-.3 1-.8.8-2.8-.6-3-1-.2-1.4 1.2-.4 1.4.8.1-1.2.4-1 .4h-2l-4.5.2a13.7 13.7 0 0 1 0-.2 11293.3 11293.3 0 0 1 3.2-.2l4.5-.2c1 0 1-1.6 0-1.5zm-83.6-74a45079821421870760 45079821421870760 0 0 0 2.4 12.7l-.5-12.7c0-1-2-.8-1.9 0z"/><path d="M75.6 181.6l.4 6.8c.1 2-.2 4.6.5 6.4.6 1.4 3 1 3-.6l-.3-6.9c0-1.9.3-4.6-.4-6.4-.5-1.4-2.9-.8-3.2.4-.3 1 1.2 1.4 1.4.4l.5.7v2l.2 3 .2 5.8c-.1-3.4-.6-7.8-.8-11.6-.1-1-1.6-1-1.5 0zm7.6-.2l-.2 8.4c0 .8 1.7.9 1.7 0l.4-8.3c0-.9-1.8-1-1.9 0z"/><path d="M82.5 181.4l-.1 5.2c0 1-.6 3 .2 4s2.8.6 2.9-.8l.2-5.1c0-1.1.6-3-.1-4-.8-1.1-2.8-.8-3 .5-.3 1 1.1 1.3 1.4.4.1-.6.3 1.3.3 1.2l-.1 1.9-.2 4.5h-.2v-3.3l.2-4.5c0-1-1.5-1-1.5 0zm26.8 5.1l-3 7.9c-.3.7 1.2 1.3 1.5.5l3.2-7.7c.3-.8-1.4-1.5-1.7-.7z"/><path d="M108.6 186.3l-1.8 4.8c-.4.9-1.6 2.8-1.2 3.7.5 1.3 2.3 1.8 3 .3l1.9-4.7c.3-.9 1.6-2.7 1.2-3.7-.4-1.3-2.2-1.8-3-.5-.6.8.7 1.5 1.3.7.4 0 .4.3 0 .7l-.7 1.8-1.7 4.1c-.6 1.5-.2 0 0-.2l.8-2.4 1.6-4.2c.4-.9-1-1.3-1.4-.4zm-5.5-1.9l-3.5 12.3c-.3.8 1.1 1.3 1.4.5l3.8-12.2c.3-.8-1.5-1.4-1.7-.5z"/><path d="M102.4 184.3l-2 6.5c-.5 2-1.7 4.4-1.6 6.3.2 1.5 2.5 1.6 3 .3l2-6.6c.6-1.8 1.9-4.3 1.8-6.2-.1-1.6-2.4-1.5-3.1-.5-.6.7.7 1.5 1.3.7v.9l-.6 1.9-.9 2.8-1.7 5.6 3.2-11.4c.3-.9-1.2-1.3-1.4-.4zM90 181.8l-.9 8.3c0 .8 1.5 1 1.6.2L92 182c0-.9-1.8-1-1.9-.2z"/><path d="M89.3 181.9l-.6 5c0 1-.8 3.2-.2 4 1.1 1.4 2.8.7 3-1l.8-5c0-.9.7-2.7.2-3.5-.8-1.1-2.7-1.1-3.2.3-.3.9 1.1 1.3 1.5.4.1-.5.1 1.4.2 1l-.3 2-.6 4.4c-.2 1.7-.1-.4-.1-.6l.3-2.6.5-4.4c0-1-1.4-1-1.5 0zm7.4 1L95 191c-.1.8 1.4 1.2 1.6.3l1.8-8.1c.2-.9-1.6-1.3-1.7-.4z"/><path d="M96 182.7l-1 5c-.3 1.1-1 2.8-.7 3.9.4 1.3 2.7 1.5 3 0l1.2-5c.2-1 1-2.7.7-3.8-.4-1.4-2.6-1.5-3.2-.3-.4.9.9 1.6 1.3.8l.3.4-.3 1.3-.4 1.8-.9 3.8.1-1.2.4-1.9.9-4.4c.2-1-1.3-1.4-1.5-.4zm19.3 6.4l-3.6 7.5c-.4.8 1 1.5 1.4.8l3.8-7.5c.4-.8-1.2-1.6-1.6-.8z"/><path d="M114.6 188.7l-2.2 4.7c-.5 1-1.5 2.4-1.5 3.5 0 1.4 2.2 2.1 2.8.8l2.4-4.6c.5-1 1.6-2.3 1.6-3.5 0-1.4-2-2-3-1-.5.7.5 1.8 1.1 1l.1.5-.5 1.1-1 1.8-1.7 3.4.5-1.1.8-1.8 2-4c.4-.9-1-1.7-1.4-.8zm6.4 3.4l-4.2 7.3c-.4.7.9 1.5 1.3.8l4.4-7.2c.5-.7-1-1.6-1.5-.9z"/><path d="M120.3 191.8l-2.4 4c-.5 1-2 2.6-2 3.8 0 1.4 2.1 2.2 2.9 1l2.5-4.1c.6-1 2-2.5 2-3.7 0-1.4-1.9-2.2-2.8-1.2-.7.7.4 1.8 1 1v.6l-.6 1-1 1.5-2.1 3.6c1.3-2 2.5-4.6 3.8-6.8.5-.8-.8-1.6-1.3-.7z"/></g></svg>