<svg xmlns="http://www.w3.org/2000/svg" width="361" height="361"><path fill="#fff" d="M167.5 182l85-85 15.5 15.5-85 85z"/><path d="M269.2 142.3c0 40.7-25.8 83.9-53.3 83.9-27.6 0-53.4-43.2-53.4-83.9 0-14.8-.4-28.7 4.7-40.2 0 0 31.1-10.4 48.7-10.4 17.5 0 48.6 10.3 48.6 10.3 5.1 11.6 4.7 25.4 4.7 40.3z" fill="none" stroke="#fff" stroke-width="10" stroke-miterlimit="10"/><path d="M145.7 257.2c3 0 5.4.5 7 1.6 1.7 1 2.6 2.8 2.6 5.3s-.9 4.3-2.5 5.4a13 13 0 0 1-7.2 1.6h-1.5v7h-4.6v-20.4a26.5 26.5 0 0 1 3.2-.4 44.6 44.6 0 0 1 3-.1zm.3 4a17.2 17.2 0 0 0-1.9 0v6h1.5a7.9 7.9 0 0 0 3.6-.7c.9-.4 1.3-1.2 1.3-2.4 0-.6-.1-1-.3-1.5s-.5-.6-1-.9a4 4 0 0 0-1.4-.4 11.6 11.6 0 0 0-1.8-.2zm17.4.8c1.3 0 2.4.1 3.3.4a4.6 4.6 0 0 1 3.2 3.3 10 10 0 0 1 .3 2.6v9.3l-2.6.5a24 24 0 0 1-6.9 0c-.8-.2-1.5-.5-2.1-.9a4 4 0 0 1-1.4-1.6 5.5 5.5 0 0 1-.4-2.4c0-1 .1-1.7.5-2.3a4.3 4.3 0 0 1 1.5-1.5 6.7 6.7 0 0 1 2-.8 11.9 11.9 0 0 1 2.6-.3 13.9 13.9 0 0 1 2.6.3v-.5c0-.7-.2-1.3-.7-1.8s-1.3-.7-2.4-.7l-2.2.2a9.5 9.5 0 0 0-2 .5l-.5-3.6a16.5 16.5 0 0 1 2.2-.5l1.5-.2a16.6 16.6 0 0 1 1.5 0zm.4 13h1.2l1-.2v-3.4a8 8 0 0 0-.8 0 8.9 8.9 0 0 0-1-.1H163a3.1 3.1 0 0 0-1 .3l-.6.6c-.2.2-.3.5-.3.9 0 .7.3 1.2.7 1.4s1.1.4 2 .4zm-33-69.3L81 255.3c-1.3 1.4.8 3.5 2.2 2.1l49.6-49.6c1.3-1.3-.8-3.5-2.2-2z" fill="#fff"/><path d="M130.5 203.1c-5.3 5.5-15 17-8.6 24.8 3 3.4 7.8-1.5 5-5-.8-.9.9-4.3 1.4-5.3 1.7-3.6 4.4-6.7 7.1-9.5 3.2-3.2-1.8-8.2-5-5z" fill="#fff"/><path d="M130.5 203.1a44.1 44.1 0 0 1-8.6 6.7c-1 .6-5.2 2.8-6.3 1.9-3.4-2.9-8.4 2-5 5 7.9 6.4 19.4-3.3 24.8-8.6 3.3-3.2-1.7-8.1-5-5z" fill="#fff"/><path d="M99.5 243.6a2.8 2.8 0 0 1-4 0l-.5-.6a2.8 2.8 0 0 1 0-4l.7-.7a2.8 2.8 0 0 1 4 0l.6.6a2.8 2.8 0 0 1 0 4l-.8.7z" fill="#fff" stroke="#fff" stroke-miterlimit="10"/><path d="M136.4 182.6l-7.3 10.5c-.5.7.7 1.5 1.2.9l7.5-10.3c.6-.7-.9-1.8-1.4-1z" fill="#fff"/><path d="M135.8 182.3l-7.4 10.4c-1 1.4 1.3 3 2.4 1.8 1.4-1.4 2.5-3.4 3.7-5l4-5.5c1-1.4-1.3-2.8-2.5-2-.7.5 0 1.8.8 1.3l-.1.7-1 1.3-2 2.8-3.5 4.8 6.9-9.9c.5-.8-.8-1.5-1.3-.7zm10.5 8.5l-5.8 6c-.6.6.5 1.7 1 1.1l6-5.8c.7-.6-.6-1.9-1.2-1.3z" fill="#fff"/><path d="M145.8 190.3l-3.5 3.6c-.8.8-2.4 1.9-2.7 3-.4 1.3 1.4 2.6 2.5 1.6l3.6-3.5 1.6-1.6c.3-.3 1-.8 1-1.3.3-1.3-1-2.8-2.4-2-.8.6 0 2 .8 1.4.5-.4-.6 1-.5.8l-1.6 1.6-3.2 3.1c1.8-1.7 3.6-3.8 5.4-5.6.7-.7-.4-1.8-1-1.1zm-4.3-3.8l-5.3 6.5c-.5.6.6 1.6 1.2 1l5.5-6.3c.5-.7-.8-1.8-1.4-1.2z" fill="#fff"/><path d="M141 186l-2.9 3.4c-.8 1.1-2 2.2-2.7 3.4-.7 1.4 1.5 2.9 2.5 1.7l3-3.4c.8-1 2.1-2 2.7-3.3.7-1.3-1.3-2.8-2.5-2-.7.7 0 2 .8 1.4v.4l-.7.8-1.4 1.7-2.6 3 2-2.6 2.9-3.4c.6-.8-.5-1.8-1.1-1.1zm13.7 14.5l-10.3 7.6c-.7.5.2 1.7.9 1.2l10.4-7.4c.7-.5-.3-1.9-1-1.4z" fill="#fff"/><path d="M154.3 199.9l-5.5 4c-1.6 1.2-3.5 2.3-5 3.6-1 1.2.4 3.4 1.9 2.4l5.5-3.9c1.6-1.1 3.7-2.1 5-3.5 1.3-1.2-.2-3.1-1.7-2.7-1 .3-.5 1.7.4 1.4l-.2.6-1.4 1-2.8 2-4.9 3.3c2.8-1.9 6.4-4.7 9.5-7 .8-.5 0-1.8-.8-1.2zm4 6a16966.1 16966.1 0 0 0-7.1 4.3c-.7.5 0 1.8.8 1.4l7.2-4.2c.8-.5-.2-2-.9-1.5z" fill="#fff"/><path d="M158 205.2l-4.1 2.5c-1 .6-3 1.3-3.6 2.4-.7 1.2.8 2.9 2 2.1l4.2-2.4c1-.6 3-1.2 3.6-2.2.7-1.3-.7-2.9-2-2.5-.9.3-.5 1.8.4 1.5l-.2.4-1 .6-1.6 1-3.6 2 6.6-4.1c.8-.5 0-1.8-.8-1.3zm10.1 24.7l-8.2 1.8c-.8.2-.5 1.8.4 1.6l8.2-1.6c.8-.2.4-2-.4-1.8z" fill="#fff"/><path d="M167.9 229.2l-5 1.1c-1 .2-3 .3-3.8 1-1 1-.1 3 1.4 2.8l5-1c1-.2 3-.2 3.8-1 1-1 .2-2.9-1.2-3-1 0-1 1.6 0 1.6l-.4.4-1.3.3-2 .3-3.7.8 7.6-1.8c1-.3.5-1.7-.4-1.5zm-1.5-5.7l-12.2 3.9c-.8.2-.4 1.6.5 1.4l12.2-3.5c.9-.3.3-2-.5-1.8z" fill="#fff"/><path d="M166.2 222.8l-6.6 2c-1.7.6-4.5 1-6 2-1 1-.4 3.2 1.2 2.7l6.6-1.9c1.9-.5 4.7-.8 6.2-2 1.3-.9 0-2.7-1.2-2.8-1 0-1 1.4 0 1.5l-.6.5-2 .6-2.7.8-5.7 1.6c3.6-1 7.5-2.4 11.2-3.5 1-.3.5-1.8-.4-1.5zm-15.5-27.3l-6.3 5.5c-.7.5.3 1.7 1 1.2l6.4-5.4c.7-.5-.5-1.9-1.1-1.3z" fill="#fff"/><path d="M150.2 195l-3.4 2.9c-1 1-2.4 1.8-3.2 3-1 1.2 1.2 2.7 2.3 1.8l3.5-2.8c1-1 2.4-1.8 3.2-2.9 1-1.3-1.1-2.7-2.3-2.1-.8.4 0 1.7.8 1.3l-.2.5-.9.7-1.7 1.4-3 2.5c2-1.6 4-3.5 6-5.3.7-.6-.4-1.7-1.1-1zm11.3 16.5l-7.5 3.8c-.7.4 0 1.8.7 1.4l7.6-3.6c.7-.4 0-2-.8-1.6z" fill="#fff"/><path d="M161.1 210.8l-4.6 2.4c-1 .4-2.8 1-3.4 1.9-.7 1.2.6 2.9 2 2.2l4.6-2.2c.8-.4 3-1 3.4-1.8.6-1.3-.3-2.9-1.8-2.5-1 .2-.6 1.6.4 1.4l-.4.5-1.2.6-1.7.8-3.5 1.7c2.3-1.1 4.6-2.5 7-3.7.8-.4 0-1.7-.8-1.3zm3 6.6l-7.7 3.1c-.7.4-.2 1.8.6 1.5l7.8-3c.8-.2.2-2-.6-1.6z" fill="#fff"/><path d="M164 216.7l-4.8 2c-1 .3-2.7.7-3.5 1.5-1 1 .1 3 1.5 2.6l4.8-1.9c1-.3 3.2-.7 3.7-1.6.7-1.3-.3-2.9-1.7-2.6-1 .1-.6 1.6.4 1.4.4 0-1.1.7-1 .7l-1.8.7-4.2 1.6c-.7.2 1.1-.6 1-.6l1.8-.7 4.2-1.7c.9-.3.5-1.8-.4-1.4zm5.3 19.8l-8.3 1.1c-.9.2-.7 1.8.2 1.7l8.3-1c.9 0 .6-2-.2-1.8z" fill="#fff"/><path d="M169 235.8l-5 .7c-1 0-3.2 0-3.8.7-1.2 1.5 0 3 1.6 2.7l5.1-.5c.9-.1 2.8 0 3.4-.6 1-1.1.5-2.9-1-3-1-.2-1 1.3 0 1.4.5.1-1.2.5-1 .5l-2 .2-4.5.5c-1.7.2.5-.2.7-.2l2.5-.4 4.5-.6c1-.1.5-1.5-.4-1.4z" fill="#fff"/><g fill="#fff"><path d="M170 250.2l-12.8-.5c-.9 0-1 1.5-.1 1.6l12.7.8c.9 0 1-2 .1-2z"/><path d="M170 249.4l-7-.3c-2 0-4.5-.6-6.4 0-1.5.4-1 2.8.5 3l6.8.3c2 .2 4.6.8 6.4.3 1.6-.4 1-2.8-.2-3.3-.9-.3-1.3 1.1-.4 1.5l-.9.3h-2l-2.9-.3-5.8-.3c3.8.2 7.9.1 11.8.3 1 0 1-1.5 0-1.5z"/></g><g fill="#fff"><path d="M169.9 243.3l-8.4.4c-.8 0-.7 1.7 0 1.6l8.5-.2c.8 0 .8-1.9-.1-1.8z"/><path d="M169.9 242.5l-5.2.3c-1 0-3.1-.4-4 .4-.9.8-.6 3 .9 2.9l5.1-.2c1 0 3.2.4 4-.3 1-.8.8-2.8-.6-3-1-.2-1.4 1.2-.4 1.4.8.1-1.2.4-1 .4h-2l-4.5.2a13.7 13.7 0 0 1 0-.2 11293.3 11293.3 0 0 1 3.2-.2l4.5-.2c1 0 1-1.6 0-1.5z"/></g><g fill="#fff"><path d="M86.3 168.6a45079821421870760 45079821421870760 0 0 0 2.4 12.6l-.5-12.7c0-1-2-.8-1.9 0z"/><path d="M85.6 168.6l.4 6.8c.1 2-.2 4.6.5 6.4.6 1.4 3 1 3-.6l-.3-6.9c0-1.9.3-4.6-.4-6.4-.5-1.4-2.9-.8-3.2.4-.3 1 1.2 1.4 1.4.4l.5.7v2l.2 3 .2 5.8c-.1-3.4-.6-7.8-.8-11.7-.1-1-1.6-1-1.5 0z"/></g><g fill="#fff"><path d="M93.2 168.4l-.2 8.4c0 .8 1.7.9 1.7 0l.4-8.3c0-.9-1.8-1-1.9 0z"/><path d="M92.5 168.4l-.1 5.2c0 1-.6 3 .2 4s2.8.6 2.9-.8l.2-5.1c0-1.1.6-3-.1-4-.8-1.1-2.8-.8-3 .5-.3 1 1.1 1.4 1.4.4.1-.6.3 1.3.3 1.2l-.1 1.9-.2 4.5h-.2v-3.3l.2-4.5c0-1-1.5-1-1.5 0z"/></g><g fill="#fff"><path d="M119.3 173.5l-3 7.9c-.3.7 1.2 1.3 1.5.5l3.2-7.7c.3-.8-1.4-1.5-1.7-.7z"/><path d="M118.6 173.3l-1.8 4.8c-.4.9-1.6 2.8-1.2 3.7.5 1.3 2.3 1.8 3 .3l1.9-4.7c.3-.9 1.6-2.7 1.2-3.7-.4-1.3-2.2-1.8-3-.5-.6.8.7 1.5 1.3.7.4 0 .4.3 0 .7l-.7 1.8-1.7 4.1c-.6 1.4-.2 0 0-.2l.8-2.4 1.6-4.2c.4-.9-1-1.3-1.4-.4z"/></g><g fill="#fff"><path d="M113.1 171.4l-3.5 12.3c-.3.8 1.1 1.3 1.4.5l3.8-12.2c.3-.8-1.5-1.4-1.7-.5z"/><path d="M112.4 171.3l-2 6.5c-.5 2-1.7 4.4-1.6 6.3.2 1.5 2.5 1.6 3 .3l2-6.6c.6-1.8 1.9-4.3 1.8-6.2-.1-1.6-2.4-1.5-3.1-.5-.6.7.7 1.5 1.3.7v.9l-.6 1.9-.9 2.8-1.7 5.6 3.2-11.4c.3-.9-1.2-1.3-1.4-.4z"/></g><g fill="#fff"><path d="M100 168.9l-.9 8.3c0 .8 1.5 1 1.6.2l1.2-8.3c0-.9-1.8-1-1.9-.2z"/><path d="M99.3 168.9l-.6 5c0 1-.8 3.2-.2 4 1.1 1.4 2.8.7 3-1l.8-5c0-.9.7-2.7.2-3.5-.8-1.1-2.7-1.1-3.2.3-.3.9 1.1 1.3 1.5.4.1-.5.1 1.4.2 1l-.3 2-.6 4.4c-.2 1.7-.1-.4-.1-.6l.3-2.6.5-4.4c0-1-1.4-1-1.5 0z"/></g><g fill="#fff"><path d="M106.7 169.9L105 178c-.1.8 1.4 1.2 1.6.3l1.8-8.1c.2-.9-1.6-1.3-1.7-.4z"/><path d="M106 169.7l-1 5c-.3 1.1-1 2.8-.7 3.9.4 1.3 2.7 1.5 3 0l1.2-5c.2-1 1-2.7.7-3.8-.4-1.4-2.6-1.5-3.2-.3-.4.9.9 1.6 1.3.8l.3.4-.3 1.2-.4 2-.9 3.7.1-1.2.4-1.9.9-4.4c.2-1-1.3-1.4-1.5-.4z"/></g><g fill="#fff"><path d="M125.3 176.1l-3.6 7.5c-.4.8 1 1.5 1.4.8l3.8-7.5c.4-.8-1.2-1.6-1.6-.8z"/><path d="M124.6 175.7l-2.2 4.7c-.5 1-1.5 2.4-1.5 3.5 0 1.4 2.2 2.1 2.8.8l2.4-4.6c.5-1 1.6-2.3 1.6-3.5 0-1.4-2-2-3-1-.5.7.5 1.8 1.1 1l.1.5-.5 1.1-1 1.8-1.7 3.4.5-1.1.8-1.8 2-4c.4-.9-1-1.7-1.4-.8z"/></g><g fill="#fff"><path d="M131 179.1l-4.2 7.3c-.4.7.9 1.5 1.3.8l4.4-7.2c.5-.7-1-1.6-1.5-.9z"/><path d="M130.3 178.8l-2.4 4c-.5 1-2 2.6-2 3.8 0 1.4 2.1 2.2 2.9 1l2.5-4.1c.6-1 2-2.5 2-3.7 0-1.4-1.9-2.2-2.8-1.2-.7.7.4 1.8 1 1v.6l-.6 1-1 1.5-2.1 3.6c1.3-2 2.6-4.6 3.9-6.8.4-.8-.8-1.6-1.3-.7z"/></g><path d="M282 277c-.5 6.3-12.6 4.2-16.7 4.2H97c-4 0-16.2 2.1-16.6-4.1-.4-5 0-10.2 0-15.2v-168c0-3.8-1.8-14.6 4.2-14.6h185c4.2 0 12.4-1.6 12.4 4.7v193c0 6.5 10 6.5 10 0V94c0-7.4 1.1-15.2-4.6-21-5-5-14-3.6-20.6-3.6H98.7c-5.3 0-11.6-1-16.9.2C70.5 72.1 70.4 82 70.4 91.1v185.7c0 7.8 6.3 14.4 14.1 14.4h192.2c8.5 0 14.7-5.6 15.3-14.1.5-6.5-9.5-6.4-10 0z" fill="#fff"/></svg>