<svg xmlns="http://www.w3.org/2000/svg" width="361" height="361"><path d="M193.3 188c-.8-2.7-3-4.4-4.9-4l-42.2 11.4c-2 .5-3 3.1-2.3 5.8l19.6 73.1c.7 2.7 2.9 4.4 4.8 3.9l42.3-11.3c2-.5 3-3.1 2.3-5.8L193.2 188zm2-48.9c-2 2-2.4 4.7-1 6.1l31 31c1.4 1.4 4.2 1 6.1-1l53.5-53.5c2-2 2.4-4.7 1-6.1l-31-31c-1.4-1.4-4.1-1-6 1L195.2 139zM152 162c2.6.7 5.2-.3 5.7-2.3l11.4-42.2c.5-2-1.2-4.2-4-4.9L92.2 93c-2.7-.7-5.3.3-5.8 2.3L75 137.5c-.5 2 1.2 4.1 4 4.9l73 19.6z" fill="none" stroke="#fff" stroke-width="10" stroke-miterlimit="10"/><path d="M174.8 174.8l6.2-23.4a20376.1 20376.1 0 0 0-8.3 2.2l17 17.1 2.2-8.3-23.3 6.2c-6.2 1.7-3.6 11.3 2.7 9.7l23.3-6.3a5 5 0 0 0 2.2-8.4l-17-17a5 5 0 0 0-8.4 2.2L165 172c-1.6 6.2 8 8.9 9.7 2.6z" fill="#fff"/></svg>