<svg xmlns="http://www.w3.org/2000/svg" width="361" height="361"><path d="M136.8 151a174 174 0 0 1 18.9-4.7 44 44 0 0 1 23.9 3.9c11 4 22.2 10.6 34 11 7.4.3 15.4-3.6 22-6.2 4-1.6 8-3.3 12.1-4.8 8-3 15.4-5.4 24-3.9a167.9 167.9 0 0 1 18.8 4.7c1.8.5 2.6-2.4.8-3a188.5 188.5 0 0 0-18.9-4.6c-8-1.5-14.6.1-22.2 2.7-11.7 4-24 11.7-36.5 12.1-7.5.3-16-4-22.8-6.7-4.6-1.8-9.1-3.7-13.8-5.4a41.4 41.4 0 0 0-21-2.9c-6.8 1.1-13.5 3-20 4.9-2 .5-1.1 3.4.7 2.9z" fill="#fff"/><path d="M144.4 159.6c6-2.2 13-4.3 19.4-3.8 7 .6 14 3.8 20.4 6.3 9.3 3.7 19.2 9 29.5 9.3 6.4.2 13.3-3 19.2-5.1 3.2-1.2 6.3-2.6 9.5-3.9 6.4-2.6 12.9-5 19.6-6.3a41.4 41.4 0 0 1 20.9 3.5c1.8.7 2.6-2.2.8-3a60 60 0 0 0-18.6-3.9c-6.7-.1-14 3.2-20.2 5.5-10 3.8-20.4 9.8-31.3 10.2-6.6.2-14.2-3.4-20.3-5.8l-10-4a75.6 75.6 0 0 0-20.3-5.9 48.4 48.4 0 0 0-19.4 4c-1.8.6-1 3.5.8 2.9zm.1-20.3c6-2.2 13-4.3 19.4-3.7 7 .6 14 3.7 20.4 6.3 9.4 3.7 19.3 8.9 29.5 9.2 6.4.2 13.3-3 19.2-5.1l9.5-3.8c6.4-2.6 13-5 19.7-6.4a41.4 41.4 0 0 1 20.8 3.5c1.8.7 2.6-2.2.8-2.9a60 60 0 0 0-18.6-4c-6.7-.1-14 3.2-20.1 5.6-10 3.7-20.5 9.7-31.3 10.1-6.7.2-14.3-3.4-20.4-5.7-3.3-1.3-6.6-2.8-10-4a75.7 75.7 0 0 0-20.3-6 48.5 48.5 0 0 0-19.4 4c-1.8.7-1 3.6.8 3z" fill="#fff"/><path d="M240.4 169.7l-24 66.2-13.3 36.9c-.7 2-1.4 4.2-2.3 6-1.7 3.8-8.9 2.4-12 2.4h-53.6c-1 0 .7.1.6.3l1.5-4 24-65.8 32.6-89.7L205 91.3c1.2-3.4 2.6-12 7.4-12h60.8c2.1 0 .2 0 .3-.2l-1 2.8-5.7 14.9-10.2 26.9c-2.3 6 7.3 8.6 9.6 2.6l13.2-34.6c1.6-4.3 4-9 4.3-13.6.4-7.3-7-8.7-12.5-8.7h-43.4c-10.5 0-24.6-2.5-29.1 10l-51.7 142-20.6 56.5c-1.7 4.8-.6 10.8 4.8 12.7 3.7 1.3 8.4.6 12.2.6h45.3c4 0 8.5.5 12.5-.6 5.5-1.6 8.3-6.4 10-11.4l11.6-31.7 26.8-74.2.4-1c2.2-6-7.5-8.7-9.6-2.6z" fill="#fff"/><path d="M201.5 88.8h74.7c2 0 2-3 0-3h-74.7c-2 0-2 3 0 3zm-6 16.1h74.8c2 0 2-3 0-3h-74.7c-2 0-2 3 0 3zm-5.8 16.2h74.7c2 0 2-3 0-3h-74.7c-2 0-2 3 0 3zm-11.8 32.4h40.7c2 0 2-3 0-3H178c-2 0-2 3 0 3zm6-16.2h52.6c2 0 2-3 0-3h-52.7c-2 0-2 3 0 3zM172 169.7l52.1-.5c2 0 2-3 0-3l-52 .5c-2 0-2 3 0 3zm-8.8 24.2h74.7c2 0 2-3 0-3h-74.7c-2 0-2 3 0 3zm-11.8 32.4h74.7c2 0 2-3 0-3h-74.7c-2 0-2 3 0 3zm8.9-24.3H235c1.9 0 1.9-3 0-3h-74.7c-2 0-2 3 0 3zm-11.8 32.4h74.7c2 0 2-3 0-3h-74.7c-2 0-2 3 0 3zm-6 16.2h74.8c2 0 2-3 0-3h-74.7c-2 0-2 3 0 3zm-5.8 16.1h74.7c2 0 2-3 0-3h-74.7c-2 0-2 3 0 3zm67.7-186h74.7c2 0 2-3 0-3h-74.7c-2 0-2 3 0 3zm-5.9 16.1h74.8c1.9 0 1.9-3 0-3h-74.8c-1.9 0-1.9 3 0 3zm-5.8 16.2h74.7c1.9 0 1.9-3 0-3h-74.7c-2 0-2 3 0 3zm-11.8 32.4h40.7c2 0 2-3 0-3h-40.7c-2 0-2 3 0 3zm5.9-16.2h74.7c2 0 2-3 0-3h-74.7c-2 0-2 3 0 3zM175 161.6h40.7c2 0 2-3 0-3H175c-2 0-2 3 0 3zm-6 16.1h74.8c2 0 2-3 0-3h-74.7c-2 0-2 3 0 3zm-11.7 32.4H232c2 0 2-3 0-3h-74.7c-2 0-2 3 0 3zm8.8-24.3H241c1.9 0 1.9-3 0-3h-75c-1.9 0-1.9 3 0 3zm-11.7 32.4H229c2 0 2-3 0-3h-74.7c-2 0-2 3 0 3zm-8.9 24.3h74.8c1.9 0 1.9-3 0-3h-74.8c-2 0-2 3 0 3zm-5.9 16.1h74.8c1.9 0 1.9-3 0-3h-74.8c-1.9 0-1.9 3 0 3zm-8.8 24.3h74.7c2 0 2-3 0-3h-74.7c-2 0-2 3 0 3zm3-8h74.7c1.9 0 1.9-3 0-3h-74.7c-2 0-2 3 0 3z" fill="#fff"/><path d="M219.4 91a3.8 3.8 0 0 1-7.5 0 3.8 3.8 0 0 1 3.8-3.8 3.8 3.8 0 0 1 3.7 3.8zm-14.2 36.7a3.8 3.8 0 1 1-7.5 0 3.8 3.8 0 1 1 7.5 0zm30.6-43.4a3.8 3.8 0 1 1-7.5 0 3.8 3.8 0 1 1 7.5 0zM195 167.9a3.8 3.8 0 1 1-7.5 0 3.8 3.8 0 0 1 7.5 0zm21.4-66.8a3.8 3.8 0 0 1 7.5.5 3.8 3.8 0 1 1-7.5-.5zM260.7 88a3.8 3.8 0 1 1 7.5.4 3.8 3.8 0 0 1-7.5-.4zm-99.4 164.9a3.8 3.8 0 0 1 0-7.5 3.8 3.8 0 0 1 3.8 3.8 3.8 3.8 0 0 1-3.8 3.7zm84.2-140.3a3.8 3.8 0 0 1 0-7.5 3.8 3.8 0 0 1 0 7.5zm-45 124.1a3.8 3.8 0 0 1 0-7.5 3.8 3.8 0 0 1 0 7.5zM178 200a3.8 3.8 0 0 1 0-7.5 3.8 3.8 0 0 1 3.8 3.8 3.8 3.8 0 0 1-3.8 3.7zm14.8 52.9a3.8 3.8 0 0 1 0-7.5 3.8 3.8 0 1 1 0 7.5zm-29.9 11.8a3.8 3.8 0 0 1 0-7.5 3.8 3.8 0 0 1 3.8 3.8 3.8 3.8 0 0 1-3.8 3.7zm45.5-72.2a3.8 3.8 0 0 1 3.6 4 3.8 3.8 0 0 1-4 3.5 3.8 3.8 0 0 1 .4-7.5zm21.7-81.1a3.8 3.8 0 1 1 7.5.4 3.8 3.8 0 0 1-7.5-.4zm-35.7 164.8a3.8 3.8 0 0 1 0-7.5 3.8 3.8 0 1 1 0 7.5zm-29.3-43a3.8 3.8 0 1 1 0-7.5 3.8 3.8 0 1 1 0 7.5zm1.6-39.2a3.8 3.8 0 1 1 0-7.5 3.8 3.8 0 1 1 0 7.5zm26 13.6a3.8 3.8 0 0 1 0-7.5 3.8 3.8 0 1 1 0 7.5zm-6.5 20a3.8 3.8 0 1 1-.5 7.4 3.8 3.8 0 0 1 .4-7.4zm20.4-11.4a3.8 3.8 0 0 1 0-7.5 3.8 3.8 0 0 1 3.7 3.8 3.8 3.8 0 0 1-3.7 3.7zm22.1-43.6a3.8 3.8 0 0 1 0-7.5 3.8 3.8 0 0 1 3.8 3.8 3.8 3.8 0 0 1-3.8 3.7zm-3-34.1a3.8 3.8 0 0 1 0-7.5 3.8 3.8 0 1 1 0 7.5zm-21.2 17.3a3.8 3.8 0 0 1 0-7.5 3.8 3.8 0 1 1 0 7.5zm-12.2 101.5a3.8 3.8 0 0 1 7.5 0 3.8 3.8 0 1 1-7.5 0zm6.2-34.6a3.8 3.8 0 0 1 7.5 0 3.8 3.8 0 0 1-3.8 3.8 3.8 3.8 0 0 1-3.7-3.8zM176 264a3.8 3.8 0 0 1 7.5 0 3.8 3.8 0 0 1-3.8 3.8 3.8 3.8 0 0 1-3.7-3.8zm36.9-91.4a3.8 3.8 0 1 1 7.5 0 3.8 3.8 0 0 1-7.5 0zm-31.1 81.2a3.8 3.8 0 0 1-7.5-.5 3.8 3.8 0 0 1 7.5.5zm-30.7 6.7a3.8 3.8 0 0 1-4 3.5 3.8 3.8 0 1 1 .4-7.5 3.8 3.8 0 0 1 3.6 4zm99.3-165a3.8 3.8 0 0 1 0 7.5 3.8 3.8 0 1 1 0-7.5zm-84.2 140.3a3.8 3.8 0 1 1 0 7.5 3.8 3.8 0 0 1 0-7.5zm45-124.1a3.8 3.8 0 1 1 0 7.5 3.8 3.8 0 0 1 0-7.5zm22.6 36.7a3.8 3.8 0 0 1 0 7.5 3.8 3.8 0 1 1 0-7.5zM207.3 99a3.8 3.8 0 0 1 0 7.6 3.8 3.8 0 0 1-3.8-3.8 3.8 3.8 0 0 1 3.8-3.8zm41.5-15.5a3.8 3.8 0 0 1 0 7.5 3.8 3.8 0 1 1 0-7.5z" fill="#fff"/><path d="M203.3 155.8a3.8 3.8 0 0 1-3.5-4 3.8 3.8 0 1 1 7.5.4 3.8 3.8 0 0 1-4 3.6zM179.6 225a3.8 3.8 0 1 1-7.5-.4 3.8 3.8 0 1 1 7.5.4zm37.7-152.9a3.8 3.8 0 0 1 0 7.5 3.8 3.8 0 0 1-3.7-3.8 3.8 3.8 0 0 1 3.7-3.7zm29.3 43a3.8 3.8 0 0 1 0 7.5 3.8 3.8 0 0 1-3.8-3.8 3.8 3.8 0 0 1 3.8-3.7zm-29.3 23a3.8 3.8 0 0 1 0 7.4 3.8 3.8 0 0 1-3.8-3.7 3.8 3.8 0 0 1 3.8-3.8zm4.4-19a3.8 3.8 0 0 1 .4-7.5 3.8 3.8 0 0 1 3.5 4 3.8 3.8 0 0 1-4 3.5zm-5.2 4.8a3.8 3.8 0 1 1 0 7.5 3.8 3.8 0 0 1 0-7.5zM183 175.8a3.8 3.8 0 0 1 0 7.5 3.8 3.8 0 0 1-3.8-3.8 3.8 3.8 0 0 1 3.8-3.7zm3 34.1a3.8 3.8 0 0 1 0 7.5 3.8 3.8 0 0 1-3.8-3.7 3.8 3.8 0 0 1 3.8-3.8zm21.3-17.3a3.8 3.8 0 0 1 0 7.5 3.8 3.8 0 1 1 0-7.5zm12.7-9.7a3.8 3.8 0 0 1 6.4 4 3.8 3.8 0 1 1-6.4-4zm-54 24.2a3.8 3.8 0 0 1 5.1-1.2 3.8 3.8 0 1 1-4 6.4 3.8 3.8 0 0 1-1.1-5.2zm20.1-9a3.8 3.8 0 0 1 1.2 5 3.8 3.8 0 0 1-5.2 1.3 3.8 3.8 0 0 1-1.1-5.2 3.8 3.8 0 0 1 5.1-1.2zm16.3-19.3a3.8 3.8 0 0 1 4.3-6.1 3.8 3.8 0 0 1-4.3 6.1zm61-77.4a3.8 3.8 0 0 1-7.5 0 3.8 3.8 0 0 1 3.7-3.8 3.8 3.8 0 0 1 3.8 3.8zm-86.8 141.8a3.8 3.8 0 1 1 0 7.5 3.8 3.8 0 0 1 0-7.5zm40.8-39.4a3.8 3.8 0 1 1 0 7.5 3.8 3.8 0 0 1 0-7.5zm-27.7-23.2a3.8 3.8 0 0 1 0 7.5 3.8 3.8 0 0 1 0-7.5zm-38.2 89a3.8 3.8 0 1 1 0 7.5 3.8 3.8 0 0 1 0-7.5zm82-170.2a3.8 3.8 0 0 1 6.3 4 3.8 3.8 0 1 1-6.4-4zm-3.1 96.1a3.8 3.8 0 0 1-4 6.4 3.8 3.8 0 0 1-1.2-5.2 3.8 3.8 0 0 1 5.2-1.2zM196.5 80.7a3.8 3.8 0 0 1-7.5 0 3.8 3.8 0 1 1 7.5 0zm-15.1 33.4a3.8 3.8 0 0 1-7.5 0 3.8 3.8 0 0 1 7.5 0zm2.5-25.7a3.8 3.8 0 0 1-7.5 0 3.8 3.8 0 0 1 7.5 0zm-30.3 57.1a3.8 3.8 0 0 1-7.5 0 3.8 3.8 0 0 1 7.5 0zm.8-40.3a3.8 3.8 0 0 1 7.5.4 3.8 3.8 0 0 1-7.5-.4zM172 126a3.8 3.8 0 1 1 7.5.5 3.8 3.8 0 1 1-7.5-.5zm-50 149.9a3.8 3.8 0 0 1 0-7.5 3.8 3.8 0 1 1 0 7.5zm19-45.7a3.8 3.8 0 0 1 0-7.5 3.8 3.8 0 1 1 0 7.5zm-18.2 2.7a3.8 3.8 0 0 1 0-7.5 3.8 3.8 0 1 1 0 7.5zm11.5-39.3a3.8 3.8 0 0 1 0-7.5 3.8 3.8 0 1 1 0 7.5zM148 196a3.8 3.8 0 1 1 0-7.5 3.8 3.8 0 0 1 0 7.5zm-1.2 17.3a3.8 3.8 0 0 1 0-7.5 3.8 3.8 0 1 1 0 7.5zm-7.3-46.5a3.8 3.8 0 1 1-.4 7.5 3.8 3.8 0 0 1 .4-7.5z" fill="#fff"/><path d="M202.1 146.3a3.8 3.8 0 1 1-7.5 0 3.8 3.8 0 1 1 7.5 0zm30.6-43.4a3.8 3.8 0 1 1-7.5 0 3.8 3.8 0 1 1 7.5 0zm-45 87.4a3.8 3.8 0 0 1-7.4 0 3.8 3.8 0 1 1 7.5 0zm69.9-83.9a3.8 3.8 0 1 1 7.4.5 3.8 3.8 0 1 1-7.4-.5zm-99.4 165a3.8 3.8 0 0 1 0-7.5 3.8 3.8 0 1 1 0 7.5zm44.5-17a3.8 3.8 0 0 1 0-7.5 3.8 3.8 0 0 1 3.8 3.8 3.8 3.8 0 0 1-3.8 3.7zm-27.9-35.9a3.8 3.8 0 0 1 0-7.5 3.8 3.8 0 1 1 0 7.5zm14.7 7.6a3.8 3.8 0 1 1 0-7.5 3.8 3.8 0 0 1 0 7.5zm-22.1 52.7a3.8 3.8 0 0 1 7.5 0 3.8 3.8 0 0 1-7.5 0zm42.2-87.7a3.8 3.8 0 0 1 7.5 0 3.8 3.8 0 0 1-7.5 0zm-21.3 80.5a3.8 3.8 0 0 1-4 3.6 3.8 3.8 0 0 1 .4-7.5 3.8 3.8 0 0 1 3.6 4zm-40.5 7.4a3.8 3.8 0 0 1-7.5-.4 3.8 3.8 0 0 1 4-3.6 3.8 3.8 0 0 1 3.5 4zm20.4-26.3a3.8 3.8 0 1 1 0 7.5 3.8 3.8 0 0 1 0-7.5zm32-78.3a3.8 3.8 0 0 1-3.6-4 3.8 3.8 0 1 1 7.5.4 3.8 3.8 0 0 1-4 3.6zM186 239.6a3.8 3.8 0 0 1-4 3.5 3.8 3.8 0 1 1 .5-7.4 3.8 3.8 0 0 1 3.5 4zm28.2-83a3.8 3.8 0 0 1 0 7.5 3.8 3.8 0 0 1-3.8-3.7 3.8 3.8 0 0 1 3.8-3.8zm-.2-18.2a3.8 3.8 0 0 1 .4-7.5 3.8 3.8 0 1 1-.4 7.5zm.2 84a3.8 3.8 0 0 1 0 7.5 3.8 3.8 0 1 1 0-7.5zm-19.5-31.2a3.8 3.8 0 1 1 0 7.5 3.8 3.8 0 0 1 0-7.5z" fill="#fff"/><path d="M202.1 239.7a3.8 3.8 0 0 1 0 7.5 3.8 3.8 0 0 1 0-7.5zM230.2 118a3.8 3.8 0 0 1 6.4 4 3.8 3.8 0 0 1-6.4-4z" fill="#fff"/></svg>