<svg xmlns="http://www.w3.org/2000/svg" width="361" height="361"><path d="M172.3 239c-.4-1.5-1.5-2.4-2.6-2.2l-22.6 6.1c-1 .3-1.6 1.7-1.2 3.1l10.5 39.2c.4 1.4 1.5 2.3 2.6 2l22.6-6c1-.3 1.6-1.7 1.2-3.1l-10.5-39.2zm1.1-26.3c-1 1-1.3 2.6-.5 3.3l16.6 16.6c.7.8 2.2.5 3.2-.5l28.7-28.7c1-1 1.3-2.5.5-3.3l-16.5-16.5c-.8-.8-2.3-.6-3.3.5l-28.7 28.6zM150.2 225c1.4.4 2.8-.2 3.1-1.2l6-22.7c.3-1-.6-2.2-2-2.5L118 188c-1.4-.4-2.8.1-3 1.2l-6.1 22.6c-.3 1 .6 2.2 2 2.6l39.2 10.5z" fill="none" stroke="#fff" stroke-width="10" stroke-miterlimit="10"/><path d="M168 228.7l1.2-4.8-8.3 2.2 3.5 3.5 2.2-8.3-4.8 1.3a5 5 0 0 0-3.5 6.1 5 5 0 0 0 6.1 3.5l4.8-1.3a5 5 0 0 0 2.2-8.3L168 219a5 5 0 0 0-8.3 2.2l-1.3 4.8a5 5 0 0 0 3.5 6.2 5 5 0 0 0 6.1-3.5zm-88.6-67.1a135 135 0 0 1 82.3-73.8c40-13 84-8 122.2 8.6 5.9 2.5 11-6.1 5-8.7C248.1 70 202 64.6 159.1 78.1a144 144 0 0 0-88.4 78.4c-2.6 5.9 6 11 8.7 5z" fill="#fff"/><path d="M78.5 162.6a144.8 144.8 0 0 1 101.2-42c38.6-.3 75.8 15.6 103.1 42.5 4.6 4.6 11.7-2.5 7-7a157.4 157.4 0 0 0-108.7-45.6 154.6 154.6 0 0 0-109.6 45c-4.6 4.6 2.5 11.7 7 7.1z" fill="#fff"/><path d="M281.4 93v66.6c0 6.5 10 6.5 10 0V92.9c0-6.4-10-6.4-10 0zm-50 87.2a39.3 39.3 0 0 0 5.2-2.5 32.8 32.8 0 0 0 2.4-1.7 16.6 16.6 0 0 0 2-1.8h4.4v29h-6.2v-20.9a19.1 19.1 0 0 1-2.8 1.6 36.8 36.8 0 0 1-3 1.2l-2-4.9zm37.4 8.5c0 4.9-1 8.6-2.8 11.3a9 9 0 0 1-7.7 3.9 9 9 0 0 1-7.7-4 19.3 19.3 0 0 1-2.8-11.2c0-2.4.2-4.6.7-6.5.5-1.9 1.2-3.4 2.2-4.7a9.4 9.4 0 0 1 3.3-3 9.2 9.2 0 0 1 4.3-1 9 9 0 0 1 7.7 4c1.9 2.6 2.8 6.3 2.8 11.2zm-6.4 0c0-1.5 0-2.8-.2-4a14.4 14.4 0 0 0-.7-3 4.8 4.8 0 0 0-1.2-2 2.9 2.9 0 0 0-2-.8c-.8 0-1.4.2-2 .7a5 5 0 0 0-1.2 2c-.3.9-.6 2-.7 3.1a34 34 0 0 0-.2 4 25.5 25.5 0 0 0 .9 7 5 5 0 0 0 1.2 2.1c.6.5 1.2.7 2 .7s1.4-.2 2-.7a4.8 4.8 0 0 0 1.2-2c.3-.9.6-2 .7-3.1a35 35 0 0 0 .2-4zm29.3 0c0 4.9-1 8.6-2.8 11.3a9 9 0 0 1-7.7 3.9 9 9 0 0 1-7.7-4 19.3 19.3 0 0 1-2.8-11.2c0-2.4.2-4.6.7-6.5.5-1.9 1.2-3.4 2.1-4.7a9.5 9.5 0 0 1 3.3-3c1.3-.6 2.8-1 4.4-1a9 9 0 0 1 7.7 4c1.8 2.6 2.8 6.3 2.8 11.2zm-6.4 0l-.2-4a14.4 14.4 0 0 0-.7-3 4.8 4.8 0 0 0-1.3-2c-.5-.6-1.2-.8-2-.8s-1.4.2-1.9.7a5 5 0 0 0-1.3 2 14 14 0 0 0-.7 3.1 34 34 0 0 0-.2 4l.2 4c.2 1.2.4 2.2.7 3a5 5 0 0 0 1.3 2.1c.5.5 1.2.7 2 .7a3 3 0 0 0 2-.7 4.8 4.8 0 0 0 1.2-2l.7-3.1.2-4zm-194.5-.8c0 4.9-1 8.6-2.8 11.3-1.8 2.6-4.4 3.9-7.7 3.9s-5.8-1.3-7.7-4a19.2 19.2 0 0 1-2.8-11.2c0-2.5.3-4.6.8-6.5s1.2-3.4 2-4.7a9.4 9.4 0 0 1 3.4-3 10 10 0 0 1 4.3-1c3.3 0 5.9 1.3 7.7 4 1.9 2.6 2.8 6.3 2.8 11.2zm-6.4 0c0-1.5 0-2.8-.2-4a14.3 14.3 0 0 0-.6-3 4.8 4.8 0 0 0-1.3-2 2.9 2.9 0 0 0-2-.8c-.8 0-1.4.2-2 .7a5 5 0 0 0-1.2 2l-.7 3.1a34.3 34.3 0 0 0 .7 11 5 5 0 0 0 1.3 2.1c.5.5 1.1.7 2 .7s1.4-.2 1.9-.7a4.8 4.8 0 0 0 1.3-2 35 35 0 0 0 .9-7.1z" fill="#fff"/></svg>