<svg xmlns="http://www.w3.org/2000/svg" width="361" height="361"><path d="M206 224c1 4 6 3 10 3s3-4 3-6v-30c0-5-7-3-10-3s-3 3-3 6v30c0 2 3 2 3 0v-33s-2 0 0 0h7v32l1 1h-8v-1c0-1-3-2-3 0z" fill="#fff"/><path d="M206 181l-33 25v3l33 25c1 1 3 0 3-1v-51c0-2-3-2-3 0v51l2-2-33-25v3l33-26c2-1 0-3-2-2zm46 105V178c0-6-10-6-10 0v108c0 7 10 7 10 0zm0-166V99c0-6-10-6-10 0v21c0 7 10 7 10 0z" fill="#fff"/><path d="M289 114l-85-44c-6-3-11 6-5 9l85 43c5 3 11-5 5-8zm-152 37a174 174 0 0 1 19-5 44 44 0 0 1 24 4c11 4 22 11 34 11 7 1 15-3 22-6l12-5c8-3 15-5 24-4a168 168 0 0 1 19 5c1 1 2-2 0-3a189 189 0 0 0-19-5c-8-1-14 1-22 3-11 4-24 12-36 12-8 0-16-4-23-7l-14-5a41 41 0 0 0-21-3l-20 5c-2 1-1 3 1 3z" fill="#fff"/><path d="M144 160c6-3 13-5 20-4 7 0 14 4 20 6 10 4 19 9 30 9 6 1 13-3 19-5l9-4c7-2 13-5 20-6a41 41 0 0 1 21 4c2 0 2-3 1-3a60 60 0 0 0-19-4c-7 0-14 3-20 5-10 4-21 10-31 10-7 1-15-3-21-5l-10-4a76 76 0 0 0-20-6 48 48 0 0 0-19 4c-2 0-1 3 0 3zm1-21c6-2 13-4 19-3 7 0 14 3 20 6 10 4 20 9 30 9 6 0 13-3 19-5l10-4 19-6a41 41 0 0 1 21 3c2 1 3-2 1-3a60 60 0 0 0-19-4c-7 0-14 4-20 6-10 4-20 10-31 10-7 0-15-3-21-6l-10-4a76 76 0 0 0-20-6 49 49 0 0 0-19 4c-2 1-1 4 0 3zm-67-31l56-29c6-3 1-12-5-9L73 99c-6 3-1 12 5 9zm5 140c-1-4-6-3-10-3-3 0-3 4-3 6v30c0 5 7 3 10 3 4 0 3-3 3-6v-30h-3v33h1-8c-1 0-1 0 0 0v-33h7c0 2 3 2 3 0z" fill="#fff"/><path d="M83 291l33-25v-3l-33-25c-1-1-3 0-3 1v51c0 2 3 2 3 0v-51l-2 1 33 26v-3l-33 25c-1 2 0 4 2 3zm115-15l-34-34 1 3c1-8 1-18-4-24s-17-5-24-4l3 1-22-22c-6-5-17-21-26-12s6 20 12 26l22 22-1-3c0 8-1 18 4 24 5 5 17 4 23 3l-2-1 26 26c3 3 6 8 10 10a10 10 0 0 0 12-15c-3-3-8 2-5 5s-3 4-5 2l-6-5-16-17-11-10c-1-2-4-1-6-1h-10c-9 0-7-14-7-19 0-4-4-7-6-10l-29-28c-2-2 1-7 4-4l4 4 16 16 13 13c3 3 11 2 15 2s9 1 9 6v9c0 3-1 6 1 8l3 3 30 30 1 1c3 3 8-2 5-5z" fill="#fff"/></svg>