<svg xmlns="http://www.w3.org/2000/svg" width="361" height="361"><path d="M193 188c0-3-3-4-5-4l-42 11c-2 1-3 4-2 6l19 73c1 3 3 5 5 4l43-11c2-1 3-3 2-6l-20-73zm2-49c-2 2-2 5-1 6l31 31c2 2 5 1 6-1l54-53c2-2 2-5 1-6l-31-31c-2-2-4-1-6 1l-54 53zm-43 23c3 1 5 0 6-2l11-43c1-2-1-4-4-4L92 93c-2-1-5 0-6 2l-11 43c0 2 1 4 4 4l73 20z" fill="none" stroke="#fff" stroke-width="10" stroke-miterlimit="10"/><path d="M175 175l6-24a20376 20376 0 0 0-8 3l17 17 2-9-23 7c-7 1-4 11 2 9l24-6a5 5 0 0 0 2-8l-17-17a5 5 0 0 0-9 2l-6 23c-2 6 8 9 10 3zm-93 3a40 40 0 0 1-3-25c0-2-3-3-3-1a43 43 0 0 0 3 27c1 2 4 1 3-1zm11-5a23 23 0 0 1-3-17c0-2-3-2-3 0-1 7-1 13 3 19 1 2 4 0 3-2zm151 66a40 40 0 0 1-21 15c-2 1-1 3 1 3a42 42 0 0 0 22-16c1-2-1-4-2-2zm-10-7l-4 5a26 26 0 0 1-9 5c-2 1-1 4 1 3l10-5 5-7c1-2-2-3-3-1zM213 72a40 40 0 0 1 24 10c1 1 3-1 2-2a42 42 0 0 0-25-11c-2 0-3 3-1 3zm-1 12a23 23 0 0 1 16 6c1 1 3-1 2-2-6-5-11-7-18-7-2 0-2 3 0 3z" fill="#fff"/><g fill="#fff"><path d="M149 154c2 1 3 0 4-1l8-32c1-1-1-3-3-4l-54-14c-2-1-4 0-5 1l-8 32c-1 2 1 3 3 4l55 14z"/><path d="M140 152c2 1 4 0 5-1l8-32c1-2-1-3-3-4l-54-14c-2-1-4 0-5 1l-8 32c-1 2 1 3 3 4l54 14z"/></g><g fill="#fff"><path d="M209 134v4l23 24c1 1 3 0 5-1l40-40v-5l-23-23c-1-1-3-1-4 1l-41 40z"/><path d="M204 140c-2 1-2 3-1 4l23 23h5l40-40c1-2 2-4 1-5l-24-23h-4l-40 41z"/></g></svg>