<svg xmlns="http://www.w3.org/2000/svg" width="361" height="361"><path d="M252 120V99c0-6-10-6-10 0v21c0 7 10 7 10 0z" fill="#fff"/><path d="M289 114l-85-44c-6-3-11 6-5 9l85 43c5 3 11-5 5-8zm-152 37a174 174 0 0 1 19-5 44 44 0 0 1 24 4c11 4 22 11 34 11 7 1 15-3 22-6l12-5c8-3 15-5 24-4a168 168 0 0 1 19 5c1 1 2-2 0-3a189 189 0 0 0-19-5c-8-1-14 1-22 3-11 4-24 12-36 12-8 0-16-4-23-7l-14-5a41 41 0 0 0-21-3l-20 5c-2 1-1 3 1 3z" fill="#fff"/><path d="M144 160c6-3 13-5 20-4 7 0 14 4 20 6 10 4 19 9 30 9 6 1 13-3 19-5l9-4c7-2 13-5 20-6a41 41 0 0 1 21 4c2 0 2-3 1-3a60 60 0 0 0-19-4c-7 0-14 3-20 5-10 4-21 10-31 10-7 1-15-3-21-5l-10-4a76 76 0 0 0-20-6 48 48 0 0 0-19 4c-2 0-1 3 0 3zm1-21c6-2 13-4 19-3 7 0 14 3 20 6 10 4 20 9 30 9 6 0 13-3 19-5l10-4 19-6a41 41 0 0 1 21 3c2 1 3-2 1-3a60 60 0 0 0-19-4c-7 0-14 4-20 6-10 4-20 10-31 10-7 0-15-3-21-6l-10-4a76 76 0 0 0-20-6 49 49 0 0 0-19 4c-2 1-1 4 0 3zm-67-31l56-29c6-3 1-12-5-9L73 99c-6 3-1 12 5 9z" fill="#fff"/><path d="M177 166h-75c-11 0-26-1-30 13-2 5-2 10-2 15v24l1 20c3 11 13 14 22 14h47l-4-2 34 40c4 4 9-1 8-5l-6-40-5 7h11a19 19 0 0 0 17-13c2-7 1-15 1-22v-29c0-12-7-21-19-22-7 0-6 10 0 10 9 1 9 9 9 15v42c0 10-11 9-19 9-3 0-5 3-4 6l6 40 8-5-24-28-9-12c-3-2-9-1-12-1H91c-7 0-11-4-11-10v-39c0-5-1-10 2-14 3-3 8-3 11-3h84c6 0 6-10 0-10z" fill="#fff"/><path d="M161 224l-16-15 16-16a5 5 0 0 0 0-7l-6-5a5 5 0 0 0-6 0l-16 16-15-16a5 5 0 0 0-7 0l-5 5a5 5 0 0 0 0 7l15 16-15 15a5 5 0 0 0 0 7l5 5a5 5 0 0 0 7 0l15-15 15 15a5 5 0 0 0 8 0l5-5a5 5 0 0 0 0-7z" fill="#fff"/></svg>