<svg xmlns="http://www.w3.org/2000/svg" width="361" height="361"><path d="M137 151a174 174 0 0 1 19-5 44 44 0 0 1 24 4c11 4 22 11 34 11 7 1 15-3 22-6l12-5c8-3 15-5 24-4a168 168 0 0 1 19 5c1 1 2-2 0-3a189 189 0 0 0-19-5c-8-1-14 1-22 3-11 4-24 12-36 12-8 0-16-4-23-7l-14-5a41 41 0 0 0-21-3l-20 5c-2 1-1 3 1 3z" fill="#fff"/><path d="M144 160c6-3 13-5 20-4 7 0 14 4 20 6 10 4 19 9 30 9 6 1 13-3 19-5l9-4c7-2 13-5 20-6a41 41 0 0 1 21 4c2 0 2-3 1-3a60 60 0 0 0-19-4c-7 0-14 3-20 5-10 4-21 10-31 10-7 1-15-3-21-5l-10-4a76 76 0 0 0-20-6 48 48 0 0 0-19 4c-2 0-1 3 0 3zm1-21c6-2 13-4 19-3 7 0 14 3 20 6 10 4 20 9 30 9 6 0 13-3 19-5l10-4 19-6a41 41 0 0 1 21 3c2 1 3-2 1-3a60 60 0 0 0-19-4c-7 0-14 4-20 6-10 4-20 10-31 10-7 0-15-3-21-6l-10-4a76 76 0 0 0-20-6 49 49 0 0 0-19 4c-2 1-1 4 0 3z" fill="#fff"/><path d="M240 170l-24 66-13 37-2 6c-2 4-9 2-12 2h-53l1-4 24-65 33-90 11-31c1-3 3-12 7-12h61c2 0 0 0 0 0v3l-6 15-10 27c-3 6 7 8 9 2l13-34 5-14c0-7-7-9-13-9h-43c-11 0-25-2-29 10l-52 142-21 57c-1 5 0 11 5 13h70c6-2 9-7 10-12l12-32 27-74v-1c2-6-7-8-10-2z" fill="#fff"/><path d="M202 89h74c2 0 2-3 0-3h-75c-1 0-1 3 1 3zm-6 16h74c2 0 2-3 0-3h-74c-2 0-2 3 0 3zm-6 16h74c2 0 2-3 0-3h-74c-2 0-2 3 0 3zm-12 33h41c2 0 2-3 0-3h-41c-2 0-2 3 0 3zm6-17h52c2 0 2-3 0-3h-52c-2 0-2 3 0 3zm-12 33l52-1c2 0 2-3 0-3l-52 1c-2 0-2 3 0 3zm-9 24h75c2 0 2-3 0-3h-75c-2 0-2 3 0 3zm-12 32h75c2 0 2-3 0-3h-75c-2 0-2 3 0 3zm9-24h75c2 0 2-3 0-3h-75c-2 0-2 3 0 3zm-12 32h75c2 0 2-3 0-3h-75c-1 0-1 3 1 3zm-6 17h75c2 0 2-3 0-3h-74c-2 0-2 3 0 3zm-5 16h74c2 0 2-3 0-3h-74c-2 0-2 3 0 3zm67-186h75c2 0 2-3 0-3h-75c-2 0-2 3 0 3zm-6 16h75c2 0 2-3 0-3h-75v3zm-5 16h74c2 0 2-3 0-3h-74c-2 0-2 3 0 3zm-12 32h41c2 0 2-3 0-3h-41c-2 0-2 3 0 3zm6-16h74c2 0 2-3 0-3h-74c-2 0-2 3 0 3zm-12 33h41c2 0 2-3 0-3h-41c-2 0-2 3 0 3zm-6 16h75c2 0 2-3 0-3h-75c-2 0-2 3 0 3zm-12 32h75c2 0 2-3 0-3h-75c-2 0-2 3 0 3zm9-24h75c2 0 2-3 0-3h-75c-2 0-2 3 0 3zm-12 32h75c2 0 2-3 0-3h-75c-2 0-2 3 0 3zm-8 24h74c2 1 2-2 0-2h-74c-2 0-2 3 0 3zm-6 17h74c2 0 2-3 0-3h-74c-2 0-2 3 0 3zm-9 24h75c2 0 2-3 0-3h-75c-2 0-2 3 0 3zm3-8h75v-3h-75c-2 0-2 3 0 3zm38-196a4 4 0 0 1-8 0 4 4 0 1 1 8 0zm-15 34a4 4 0 0 1-8 0 4 4 0 1 1 8 0zm-28-36a4 4 0 0 1-7 0 4 4 0 1 1 7 0zm-11 67a4 4 0 0 1-7 0 4 4 0 0 1 7 0zM70 94a4 4 0 0 1 7 0 4 4 0 1 1-7 0zm18 20a4 4 0 1 1 7 1 4 4 0 0 1-7-1zm19 160a4 4 0 0 1 0-7 4 4 0 0 1 0 7zm19-46a4 4 0 0 1 0-7 4 4 0 0 1 0 8zm-49 3a4 4 0 0 1 0-7 4 4 0 0 1 0 7zm2-39a4 4 0 0 1 0-7 4 4 0 0 1 0 7zm44 2a4 4 0 0 1 0-7 4 4 0 1 1 0 7zm-22 18a4 4 0 0 1 0-8 4 4 0 0 1 0 8zm-27-47a4 4 0 1 1 0 8 4 4 0 0 1 0-8z" fill="#fff"/></svg>