<svg xmlns="http://www.w3.org/2000/svg" width="361" height="361"><path d="M146.1 78.9l22 22c4.6 4.6 11.7-2.5 7.1-7l-22-22c-4.6-4.6-11.7 2.4-7.1 7zm-47 67.4h58.4c6.5 0 6.5-10 0-10H99c-6.4 0-6.4 10 0 10zm191.4 61.2l-22.2-22.3c-4.5-4.5-11.6 2.5-7 7.1l22.2 22.2c4.5 4.6 11.6-2.5 7-7zm-66.4 54v-58.6c0-6.5-10-6.5-10 0v58.5c0 6.5 10 6.5 10 0zm-88.5-27.8l41.4-41.4c4.5-4.6-2.5-11.6-7.1-7l-41.4 41.3c-4.6 4.6 2.5 11.6 7 7z" fill="#fff"/><path d="M99 146.3h58.5c6.5 0 6.5-10 0-10H99c-6.4 0-6.4 10 0 10zm125.1 115.1V203c0-6.5-10-6.5-10 0v58.5c0 6.5 10 6.5 10 0zm-88.5-27.7l41.3-41.4c4.6-4.6-2.5-11.6-7-7l-41.4 41.3c-4.6 4.6 2.5 11.6 7 7zm4.7-118.7l16.5 6.8c2.5 1 5.5-1 6.1-3.5.8-2.9-1-5-3.5-6.1l-16.4-6.9c-2.6-1-5.5 1.2-6.2 3.5-.8 3 1 5.1 3.5 6.2zm3.1 65.3l16.5-6.8c2.6-1 4.3-3.3 3.5-6.2-.6-2.3-3.6-4.5-6.1-3.5l-16.5 6.9c-2.5 1-4.3 3.3-3.5 6.1.7 2.4 3.6 4.6 6.2 3.5zm48.9 39.3l6.8-16.4c1-2.5-1.1-5.5-3.5-6.2-2.9-.8-5.1 1-6.1 3.5l-6.9 16.5c-1 2.5 1.1 5.5 3.5 6.2 2.9.8 5.1-1 6.2-3.5zM255 217l-6.8-16.5c-1-2.5-3.3-4.2-6.2-3.5-2.4.7-4.5 3.7-3.5 6.2l6.8 16.5c1.1 2.5 3.3 4.3 6.2 3.5 2.4-.7 4.5-3.7 3.5-6.2zM182.7 76.6l3.8 9c1 2.6 3.2 4.4 6.1 3.6 2.4-.7 4.5-3.7 3.5-6.2a59966.1 59966.1 0 0 1-3.8-9.1c-1-2.5-3.2-4.3-6.1-3.5-2.4.7-4.6 3.6-3.5 6.2zM289 165.8l-9.5-4c-2.6-1-5.5 1.2-6.2 3.6-.8 2.8 1 5 3.5 6.1l9.5 4c2.5 1 5.5-1.2 6.2-3.5.8-3-1-5.1-3.5-6.2z" fill="#fff"/><path d="M260.5 156a24 24 0 0 1-24 24h-30.8a24 24 0 0 1-24-24v-29.3a24 24 0 0 1 24-24h30.8a24 24 0 0 1 24 24V156z" fill="none" stroke="#fff" stroke-width="10" stroke-miterlimit="10"/></svg>