<svg xmlns="http://www.w3.org/2000/svg" width="361" height="361"><path d="M197 140c0 5-4 8-7 8h-55c-4 0-7-3-7-8V84c0-5 3-8 7-8h55c3 0 7 3 7 8v56z" fill="#fff" stroke="#fff" stroke-width="13" stroke-miterlimit="10"/><path d="M94 121a8 8 0 0 0 7 8h37a8 8 0 0 0 8-8V99a8 8 0 0 0-8-8h-37a8 8 0 0 0-7 8v22z" fill="#fff" stroke="#fff" stroke-width="13" stroke-miterlimit="10"/><path d="M78 121a8 8 0 0 1 8-8h45a8 8 0 0 1 8 8v12a8 8 0 0 1-8 8H86a8 8 0 0 1-8-8v-12zm171 27c0 5-3 8-7 8h-54c-4 0-7-3-7-8V91c0-4 3-7 7-7h54c4 0 7 3 7 7v57z" fill="#fff" stroke="#fff" stroke-width="13" stroke-miterlimit="10"/><path d="M233 142a8 8 0 0 0 8 8h37a8 8 0 0 0 8-8v-23a8 8 0 0 0-8-7h-37a8 8 0 0 0-8 7v23zm-31 15c0 5-3 8-7 8h-55c-3 0-6-3-6-8v-56c0-5 3-8 7-8h54c4 0 7 3 7 8v56z" fill="#fff" stroke="#fff" stroke-width="13" stroke-miterlimit="10"/><path d="M103 143a8 8 0 0 1 8-8h45a8 8 0 0 1 8 7v13a8 8 0 0 1-8 8h-45a8 8 0 0 1-8-8v-12z" fill="#fff" stroke="#fff" stroke-width="13" stroke-miterlimit="10"/><path d="M186 165l-8 27c-1 4 6 6 7 2l8-28c1-4-5-6-7-2z" fill="#fff"/><path d="M178 168l7 7c3 4 8-1 5-5l-7-7c-3-3-8 2-5 5z" fill="#fff"/><path d="M196 167l-10 2c-4 1-2 8 2 7l9-2c5-1 3-8-1-7zm-36 7l19 21c3 3 8-2 5-5l-20-21c-3-3-7 2-4 5z" fill="#fff"/><path d="M159 183l9-2c5-1 3-8-2-7l-9 2c-4 1-2 8 2 7z" fill="#fff"/><path d="M167 167l-3 10c-1 4 5 6 7 1l2-9c2-4-5-6-7-2z" fill="#fff"/><g fill="#fff"><path d="M155 202l28-6c4-1 2-8-2-7l-28 7c-4 1-2 7 2 6z"/><path d="M162 207l3-9c1-4-5-6-7-2l-2 9c-2 5 5 7 6 2z"/><path d="M153 193l6 7c3 3 8-2 5-5l-7-7c-3-3-7 2-4 5z"/></g><g fill="#fff"><path d="M177 221l8-28c1-4-5-6-7-1l-8 27c-1 4 6 6 7 1z"/><path d="M185 217l-7-7c-3-4-8 1-5 5l7 7c3 3 8-2 5-5z"/><path d="M168 218l9-2c4-1 2-8-2-7l-9 2c-5 1-3 8 2 7z"/></g><g fill="#fff"><path d="M204 211l-20-21c-3-3-8 2-5 5l20 21c3 3 8-2 5-5z"/><path d="M204 202l-9 2c-4 1-2 8 2 7l9-2c4-1 3-8-2-7z"/><path d="M197 218l3-10c1-4-6-6-7-1l-3 9c-1 4 6 6 7 2z"/></g><g fill="#fff"><path d="M208 182l-27 7c-5 1-3 8 2 7l27-7c5-1 3-8-2-7z"/><path d="M201 178l-3 9c-1 4 6 6 7 2l3-10c1-4-6-6-7-1z"/><path d="M211 192l-7-7c-3-3-8 2-5 5l7 7c3 3 8-2 5-5z"/></g><g fill="#fff"><path d="M103 135v28c0 4 7 4 7 0v-28c0-5-7-5-7 0z"/><path d="M96 140l8 5c5 3 8-4 4-6l-8-5c-4-2-8 4-4 6z"/><path d="M113 134l-9 5c-4 2 0 9 4 6l8-5c4-2 1-8-3-6zm-33 17l24 15c4 2 8-4 4-6l-25-15c-4-2-7 4-3 6z"/><path d="M82 160l8-5c4-2 0-8-3-6l-9 5c-4 2 0 8 4 6z"/><path d="M85 143v9c0 5 7 5 7 0v-9c0-5-7-5-7 0zm-2 37l25-14c4-3 0-9-3-6l-25 14c-4 2 0 8 3 6z"/><path d="M92 182v-9c0-4-7-4-7 0v10c0 4 7 4 7 0z"/><path d="M78 171l9 5c3 2 7-4 3-6l-8-5c-4-2-8 4-4 6zm32 20v-28c0-5-7-5-7 0v28c0 5 7 5 7 0z"/><path d="M116 185l-8-5c-4-2-7 4-3 6l8 5c4 2 7-4 3-6z"/><path d="M100 191l8-5c4-2 0-8-3-6l-9 5c-4 2 0 8 4 6zm33-17l-25-14c-4-3-7 3-3 6l24 14c4 2 8-4 4-6z"/><path d="M131 165l-8 5c-4 2-1 8 3 6l8-5c4-2 1-8-3-6z"/><path d="M128 183v-10c0-4-7-4-7 0v10c0 4 7 4 7 0zm1-37l-24 14c-4 2-1 8 3 6l25-14c3-3 0-9-4-6z"/><path d="M121 143v9c0 5 7 5 7 0v-9c0-4-7-4-7 0z"/><path d="M134 154l-8-5c-4-2-8 4-4 6l9 5c4 2 7-4 3-6z"/></g><g fill="#fff"><path d="M136 216l-20 20c-3 3 2 8 5 5l20-20c3-3-2-8-5-5z"/><path d="M127 216l3 9c1 4 8 2 6-2l-2-9c-1-5-8-3-7 2z"/><path d="M143 223l-9-2c-5-2-6 5-2 6l9 3c5 1 6-6 2-7zm-35-11l7 27c1 5 8 3 7-2l-8-27c-1-4-7-2-6 2z"/><path d="M103 219l9 3c5 1 6-6 2-7l-9-3c-5-1-6 6-2 7z"/><path d="M117 209l-7 7c-3 3 2 8 6 5l6-7c3-3-1-8-5-5zm-27 25l28 8c4 1 6-6 1-7l-27-7c-4-1-6 5-2 6z"/><path d="M94 242l7-7c3-3-2-8-5-5l-7 7c-3 3 2 8 5 5z"/><path d="M93 225l2 9c1 4 8 3 7-2l-3-9c-1-4-8-3-6 2zm8 36l20-20c3-3-2-8-5-5l-20 20c-3 3 2 8 5 5z"/><path d="M110 261l-3-9c-1-4-8-2-7 2l3 9c1 5 8 3 7-2z"/><path d="M94 254l9 3c4 1 6-6 2-7l-9-3c-5-1-7 6-2 7zm35 11l-7-27c-1-5-8-3-7 1l7 28c2 4 8 2 7-2z"/><path d="M134 258l-9-3c-5-1-6 6-2 7l9 2c4 2 6-5 2-6z"/><path d="M120 268l6-7c4-3-1-8-5-5l-6 7c-4 3 1 8 5 5zm27-25l-28-8c-4-1-6 6-2 7l28 7c4 1 6-5 2-7z"/><path d="M143 235l-7 6c-3 4 2 9 5 5l7-6c3-4-2-9-5-5z"/><path d="M144 252l-2-9c-1-4-8-3-7 2l3 9c1 4 8 3 6-2z"/></g><g fill="#fff"><path d="M186 290l53-92h-9l53 92 4-8H181c-6 0-6 10 0 10h106a5 5 0 0 0 5-7l-53-92a5 5 0 0 0-9 0l-53 92c-3 5 5 10 9 5z"/><path d="M229 222v33c0 6 10 6 10 0v-33c0-6-10-6-10 0zm0 48v3c0 3 3 5 5 5s5-2 5-5v-3c0-3-2-5-5-5s-5 2-5 5z"/></g></svg>