<svg xmlns="http://www.w3.org/2000/svg" width="361" height="361"><path fill="#fff" d="M175 160l9-38 8 38z"/><path d="M176 160l9-38h-3l9 38 1-1h-17c-2 0-2 3 0 3h17l2-2-9-38c0-2-2-2-3 0l-9 38c0 2 3 2 3 0z" fill="#fff"/><path d="M239 177l-32-7 3 3-1-15c-3-5-12-4-16-4l3 3-9-40c-1-4-6-4-7 0l-9 40 3-3c-5 0-11-1-15 4-3 4-2 11-2 15l3-3-32 7c-3 1-3 6 0 7l32 7-3-3c0 4-1 11 1 15 4 5 10 4 16 4l-3-3 9 39c1 4 6 4 7 1l9-40-3 3c4 0 12 1 15-3s2-11 2-16l-3 3 32-7c5-1 3-8-2-7l-32 7a4 4 0 0 0-2 4v10c0 3-9 2-10 2a4 4 0 0 0-4 2l-9 40h7l-9-40a4 4 0 0 0-4-2c-1 0-10 1-10-1v-11l-2-4-32-7v7l32-7 2-4v-10c0-3 9-1 10-1 2 0 3-1 4-3l9-40h-7l9 40a4 4 0 0 0 4 3c1 0 10-1 10 1v10l2 4 32 7c5 1 7-6 2-7zM127 74l1 4a301 301 0 0 0 1 5l2 5 2 5a197 197 0 0 0 2-11 911 911 0 0 0 2-12h8a342 342 0 0 1-4 17 245 245 0 0 1-5 16h-7a218 218 0 0 1-3-9 852 852 0 0 1-3-11l-3 11a185 185 0 0 1-3 9h-7a245 245 0 0 1-5-16 344 344 0 0 1-4-17h8a443 443 0 0 0 4 18l1 5a101 101 0 0 0 2-5l2-5a213 213 0 0 0 1-5l1-4h7zm-34 29a168 168 0 0 0-7-11 115 115 0 0 0-8-10v21h-7V70h6a59 59 0 0 1 3 4 143 143 0 0 1 4 5 173 173 0 0 1 4 5 281 281 0 0 1 4 6V70h7v33h-6z" fill="#fff"/></svg>