<svg xmlns="http://www.w3.org/2000/svg" width="361" height="361"><path d="M175.6 93.2v87.6c0 6.4 10 6.4 10 0V93.2c0-6.4-10-6.4-10 0z" fill="#fff"/><path d="M152.7 106.4l25.5 14.7c5.6 3.2 10.6-5.4 5-8.6l-25.5-14.8c-5.6-3.2-10.6 5.4-5 8.7z" fill="#fff"/><path d="M203.3 97.7l-25.5 14.8c-5.6 3.2-.6 11.8 5 8.6l25.6-14.7c5.5-3.3.5-11.9-5.1-8.7zM102 140.3l75.8 43.8c5.6 3.2 10.6-5.4 5-8.6l-75.7-43.8c-5.6-3.2-10.7 5.4-5.1 8.6z" fill="#fff"/><path d="M102 166.8l25.5-14.8c5.5-3.2.5-11.8-5-8.6l-25.6 14.8c-5.6 3.2-.6 11.8 5 8.6z" fill="#fff"/><path d="M119.8 118.6v29.5c0 6.4 10 6.4 10 0v-29.5c0-6.5-10-6.5-10 0z" fill="#fff"/><g fill="#fff"><path d="M107.3 227.8L183 184c5.5-3.2.5-11.8-5-8.6l-75.9 43.8c-5.6 3.2-.5 11.8 5 8.6z"/><path d="M130 241.1v-29.4c0-6.5-10-6.5-10 0V241c0 6.5 10 6.5 10 0z"/><path d="M97.2 201.6l25.6 14.7c5.6 3.3 10.6-5.4 5-8.6L102.3 193c-5.6-3.3-10.6 5.4-5 8.6z"/></g><g fill="#fff"><path d="M185.5 267.6V180c0-6.4-10-6.4-10 0v87.6c0 6.4 10 6.4 10 0z"/><path d="M208.5 254.4L183 239.7c-5.6-3.2-10.6 5.4-5 8.6l25.5 14.8c5.6 3.2 10.6-5.4 5-8.7z"/><path d="M157.9 263l25.5-14.7c5.6-3.2.5-11.8-5-8.6l-25.6 14.7c-5.5 3.3-.5 11.9 5 8.7z"/></g><g fill="#fff"><path d="M259.2 219.8L183.4 176c-5.6-3.2-10.7 5.5-5 8.7l75.7 43.8c5.6 3.2 10.7-5.5 5-8.7z"/><path d="M259.2 193.3l-25.5 14.8c-5.6 3.2-.5 11.9 5 8.6l25.6-14.7c5.6-3.2.5-11.9-5-8.6z"/><path d="M241.4 241.5v-29.4c0-6.5-10-6.5-10 0v29.4c0 6.5 10 6.5 10 0z"/></g><g fill="#fff"><path d="M254 132.3l-76 43.8c-5.6 3.2-.5 11.9 5 8.7l76-43.8c5.6-3.2.5-11.9-5-8.7z"/><path d="M231.1 119v29.5c0 6.4 10 6.4 10 0V119c0-6.5-10-6.5-10 0z"/><path d="M264 158.6l-25.6-14.8c-5.6-3.2-10.6 5.4-5 8.7l25.5 14.7c5.6 3.2 10.6-5.4 5-8.6z"/></g></svg>