<svg xmlns="http://www.w3.org/2000/svg" width="361" height="361"><path d="M262.1 96v190.7c0 6.4 10 6.4 10 0V96c0-6.4-10-6.4-10 0z" fill="#fff"/><path fill="none" stroke="#fff" stroke-width="10" stroke-miterlimit="10" d="M75.3 127l117.1-51.5M85.6 157l125.1-13"/><path fill="#fff" d="M192.4 75.5l64.7 19.3-46.4 49.1z"/><path d="M191 80.3l64.8 19.4-2.3-8.4-46.3 49 8.4 2.3-18.4-68.4c-1.6-6.2-11.3-3.6-9.6 2.6l18.3 68.4c1 3.6 5.8 5 8.4 2.3l46.3-49.1a5 5 0 0 0-2.2-8.4l-64.7-19.3c-6.2-1.9-8.8 7.8-2.6 9.6zm-90.3 72a6.9 6.9 0 0 1-5.1 8.2L86 163a6.9 6.9 0 0 1-8.5-4.8l-7.3-29a6.9 6.9 0 0 1 5.2-8.3l9.6-2.4a6.9 6.9 0 0 1 8.5 4.8l7.2 29.1zm40-6.7c1.2 4.5-1 8.8-4.7 9.8l-9.7 2.4c-3.7.9-7.7-2-8.8-6.4l-9-35.8c-1-4.5 1.1-8.8 4.8-9.8l9.7-2.4c3.7-1 7.7 2 8.8 6.4l9 35.8zm43-7.3c1.3 5.6-.6 10.9-4.3 11.8l-9.7 2.4c-3.7 1-7.9-2.8-9.3-8.3l-11.2-45c-1.4-5.6.5-10.9 4.2-11.8l9.7-2.4c3.7-1 7.9 2.8 9.3 8.4l11.2 45zM86 278.5c-2.7 0-5.5-.1-8.2-.3a57.7 57.7 0 0 1-8.4-1.2v-48.3c2.3-.5 4.8-.8 7.5-1a97.4 97.4 0 0 1 7.7-.3c3.1 0 6 .2 8.7.7 2.7.4 5 1.2 6.9 2.3a12.3 12.3 0 0 1 4.5 4.4 12.7 12.7 0 0 1 1.6 6.6c0 4-2 7.1-5.8 9.4 3.2 1.2 5.4 2.9 6.5 5a14 14 0 0 1 1.7 7c0 5.2-1.9 9-5.7 11.7-3.8 2.7-9.5 4-17 4zm-5.7-31h5.5c3.4 0 6-.4 7.4-1.3 1.5-.9 2.2-2.3 2.2-4.3s-.7-3.4-2.3-4.2c-1.5-.9-3.8-1.3-6.7-1.3h-3.1a33.6 33.6 0 0 0-3 .3v10.8zm0 8.6V269a39 39 0 0 0 5.8.3 19 19 0 0 0 8.2-1.5c2-1 3-2.7 3-5.3 0-2.3-.8-4-2.5-5-1.8-1-4.2-1.4-7.4-1.4h-7zm53.1-34.1a23.4 23.4 0 0 1 9.5 1.8l-2.1 8.5a14 14 0 0 0-3.1-1 16.7 16.7 0 0 0-3.2-.3c-1.3 0-2.4.2-3.2.6a5 5 0 0 0-3.2 3.7 11.6 11.6 0 0 0-.3 2.8v1.9H141v8.9h-13.2v29H117v-40a16 16 0 0 1 4.2-11.6c2.7-2.9 6.8-4.3 12.2-4.3zm13.6 8.5l10.8-1.7V240h12.9v8.9h-13v13.3c0 2.3.5 4 1.3 5.4.8 1.4 2.3 2 4.8 2a20.4 20.4 0 0 0 3.5-.3 18.3 18.3 0 0 0 3.4-.9l1.5 8.4a30.4 30.4 0 0 1-4.3 1.3 25.4 25.4 0 0 1-13.1-.6 11.4 11.4 0 0 1-4.7-3.3 12.3 12.3 0 0 1-2.4-5.1 30.3 30.3 0 0 1-.7-6.7v-31.9z" fill="#fff"/></svg>