<svg xmlns="http://www.w3.org/2000/svg" width="361" height="361"><path d="M282.1 96v190.7c0 6.4 10 6.4 10 0V96c0-6.4-10-6.4-10 0z" fill="#fff"/><path fill="none" stroke="#fff" stroke-width="10" stroke-miterlimit="10" d="M95.3 127l117.1-51.5M105.6 157l125.1-13"/><path fill="#fff" d="M212.4 75.5l64.7 19.3-46.4 49.1z"/><path d="M211 80.3l64.8 19.4-2.3-8.4-46.3 49 8.4 2.3-18.4-68.4c-1.6-6.2-11.3-3.6-9.6 2.6l18.3 68.4c1 3.6 5.8 5 8.4 2.3l46.3-49.1a5 5 0 0 0-2.2-8.4l-64.7-19.3c-6.2-1.9-8.8 7.8-2.6 9.6zm-90.3 72a6.9 6.9 0 0 1-5.1 8.2L106 163a6.9 6.9 0 0 1-8.5-4.8l-7.3-29a6.9 6.9 0 0 1 5.2-8.3l9.6-2.4a6.9 6.9 0 0 1 8.5 4.8l7.2 29.1zm40-6.7c1.2 4.5-1 8.8-4.7 9.8l-9.7 2.4c-3.7.9-7.7-2-8.8-6.4l-9-35.8c-1-4.5 1.1-8.8 4.8-9.8l9.7-2.4c3.7-1 7.7 2 8.8 6.4l9 35.8zm43-7.3c1.3 5.6-.6 10.9-4.3 11.8l-9.7 2.4c-3.7 1-7.9-2.8-9.3-8.3l-11.2-45c-1.4-5.6.5-10.9 4.2-11.8l9.7-2.4c3.7-1 7.9 2.8 9.3 8.4l11.2 45z" fill="#fff"/><path d="M91.6 227.3c-1.7 0-3-.5-3-1v-16.1c0-.6 1.3-1 3-1h58.2c1.7 0 3 .4 3 1v16.1c0 .5-1.3 1-3 1H91.6z" fill="none" stroke="#fff" stroke-width="10" stroke-miterlimit="10"/><path d="M161.2 225.1L116 284.3h8.6l-45.2-59.2-4.3 7.6h90.4c6.5 0 6.5-10 0-10H75.1c-3.4 0-6.7 4.4-4.3 7.5l45.2 59.1c2.4 3.2 6.2 3.2 8.6 0l45.3-59.1c3.9-5.1-4.8-10.1-8.7-5z" fill="#fff"/></svg>