<svg xmlns="http://www.w3.org/2000/svg" width="361" height="361"><path d="M196.8 128a16.4 16.4 0 1 1-32.9 0c0-3.5 1.3-6.3 2.3-9.4 2-5.4 8.6-24.4 14.2-24.4s12.5 19.8 14.2 24.5c1 3 2.2 5.8 2.2 9.3zm-22 73.5a16.4 16.4 0 0 1-33 0c0-3.5 1.3-6.3 2.4-9.3 2-5.5 8.5-24.5 14.1-24.5 5.7 0 12.6 19.8 14.2 24.5 1 3 2.3 5.9 2.3 9.3zm-49 24.3c0 2.4-2.2 4.3-5 4.3H80.3c-2.8 0-5.1-2-5.1-4.3V78.9c0-2.4 2.3-4.3 5-4.3h40.6c2.8 0 5 2 5 4.3v147z" fill="none" stroke="#fff" stroke-width="10" stroke-miterlimit="10"/><path d="M116.7 152.3a16.4 16.4 0 1 1-32.9 0c0-3.5 1.2-6.4 2.3-9.4 2-5.4 8.5-24.5 14.2-24.5 5.6 0 12.5 19.9 14.1 24.5 1 3 2.3 5.9 2.3 9.4zm172.2 123.1h-7c-4.5 0-4.5 7 0 7h7c4.6 0 4.6-7 0-7zm-26.5-3h-7.7c-4.5 0-4.5 7 0 7h7.7c4.5 0 4.5-7 0-7zm3.5-11h-15.3c-4.5 0-4.5 7 0 7h15.3c4.5 0 4.5-7 0-7zm-25.3 23h-6c-1.9 0-3.5 1.5-3.5 3.4s1.6 3.5 3.5 3.5h6c2 0 3.5-1.6 3.5-3.5s-1.6-3.5-3.5-3.5zm45.5-18.9h-2c-1.9 0-3.5 1.6-3.5 3.5s1.6 3.5 3.5 3.5h2c1.9 0 3.5-1.6 3.5-3.5s-1.6-3.5-3.5-3.5z" fill="#fff"/><path d="M269.1 282.8h2c1.9 0 3.5-1.6 3.5-3.5s-1.6-3.5-3.5-3.5h-2c-2 0-3.5 1.6-3.5 3.5s1.6 3.5 3.5 3.5zm-84.6 8.5h6c2 0 3.5-1.6 3.5-3.5s-1.6-3.5-3.5-3.5h-6c-1.9 0-3.5 1.6-3.5 3.5s1.6 3.5 3.5 3.5zm90.4-20.9h5.5c1.9 0 3.5-1.6 3.5-3.5s-1.6-3.5-3.5-3.5h-5.5c-2 0-3.5 1.6-3.5 3.5s1.6 3.5 3.5 3.5zm-80.7-10.9h-9c-4.5 0-4.5 7 0 7h9c4.5 0 4.5-7 0-7zm32.6 19h9c4.5 0 4.5-7 0-7h-9c-4.5 0-4.5 7 0 7zM209.9 267h16c4.6 0 4.6-7 0-7h-16c-4.5 0-4.5 7 0 7zm.4 11.2h6c1.9 0 3.5-1.6 3.5-3.5s-1.6-3.5-3.5-3.5h-6c-2 0-3.5 1.6-3.5 3.5s1.6 3.5 3.5 3.5z" fill="#fff"/><path d="M223.6 272.3h2c2 0 3.5-1.6 3.5-3.5s-1.6-3.5-3.5-3.5h-2c-1.9 0-3.5 1.6-3.5 3.5s1.6 3.5 3.5 3.5zm-5.8 12h-6c-2 0-3.5 1.6-3.5 3.5s1.6 3.5 3.5 3.5h6c1.9 0 3.5-1.6 3.5-3.5s-1.6-3.5-3.5-3.5zm59-.1h-15.2c-4.5 0-4.5 7 0 7H277c4.5 0 4.5-7 0-7z" fill="#fff"/><path d="M238.1 264.3h-6c-1.9 0-3.5 1.6-3.5 3.5s1.6 3.5 3.5 3.5h6c2 0 3.5-1.6 3.5-3.5s-1.6-3.5-3.5-3.5zm-44.7 4.8h-9c-4.5 0-4.5 7 0 7h9c4.6 0 4.6-7 0-7zm9.7 15.3h-16c-4.5 0-4.5 7 0 7h16c4.5 0 4.5-7 0-7zm4.7-8h-6c-2 0-3.5 1.5-3.5 3.4s1.6 3.5 3.5 3.5h6c1.9 0 3.5-1.6 3.5-3.5s-1.6-3.5-3.5-3.5z" fill="#fff"/><path d="M189.4 280.1h-2c-1.9 0-3.5 1.6-3.5 3.5s1.6 3.5 3.5 3.5h2c2 0 3.5-1.6 3.5-3.5s-1.6-3.5-3.5-3.5zm5.7-9h11.2c4.5 0 4.5-7 0-7H195c-4.5 0-4.5 7 0 7zm20.7 1.2h-16c-4.5 0-4.5 7 0 7h16c4.5 0 4.5-7 0-7zm28.9 9.4h9c4.5 0 4.5-7 0-7h-9c-4.5 0-4.5 7 0 7zm-5.6-14.6h3.2c1.9 0 3.5-1.6 3.5-3.5s-1.6-3.5-3.5-3.5H239c-1.9 0-3.4 1.6-3.4 3.5s1.5 3.5 3.5 3.5zm24 4.6h6c1.9 0 3.5-1.6 3.5-3.5s-1.6-3.5-3.5-3.5h-6c-2 0-3.5 1.6-3.5 3.5s1.6 3.5 3.5 3.5zm12.3 15.9h5.5c2 0 3.5-1.6 3.5-3.5s-1.6-3.5-3.5-3.5h-5.5c-1.9 0-3.5 1.6-3.5 3.5s1.6 3.5 3.5 3.5zm-55.8.9h2c1.9 0 3.5-1.6 3.5-3.5s-1.6-3.5-3.5-3.5h-2c-1.9 0-3.5 1.6-3.5 3.5s1.6 3.5 3.5 3.5z" fill="#fff"/><path d="M215.8 278.3h2c2 0 3.5-1.6 3.5-3.5s-1.6-3.5-3.5-3.5h-2c-1.9 0-3.5 1.6-3.5 3.5s1.6 3.5 3.5 3.5zm41.6 5.9H252c-1.9 0-3.5 1.5-3.5 3.5s1.6 3.5 3.5 3.5h5.5c2 0 3.5-1.6 3.5-3.5s-1.6-3.5-3.5-3.5zm32-1h-2c-2 0-3.5 1.6-3.5 3.5s1.6 3.5 3.5 3.5h2c1.9 0 3.5-1.6 3.5-3.5s-1.6-3.5-3.5-3.5zm-19.3-8.7h-2c-1.9 0-3.5 1.6-3.5 3.5s1.6 3.5 3.5 3.5h2c1.9 0 3.5-1.6 3.5-3.5s-1.6-3.5-3.5-3.5z" fill="#fff"/><path d="M258.9 279.4h5.5c1.9 0 3.5-1.6 3.5-3.5s-1.6-3.5-3.5-3.5h-5.5c-2 0-3.5 1.6-3.5 3.5s1.6 3.5 3.5 3.5zm20.6-12.9h9.9c4.5 0 4.5-7 0-7h-9.9c-4.5 0-4.5 7 0 7zm-57.3 20.6h11.2c4.5 0 4.5-7 0-7h-11.2c-4.5 0-4.5 7 0 7zm-37.9-37.5h7c4.5 0 4.5-7 0-7h-7c-4.5 0-4.5 7 0 7zm23.5-3h7.8c4.5 0 4.5-7 0-7h-7.8c-4.5 0-4.5 7 0 7zm-3.4-11h15.2c4.6 0 4.6-7 0-7h-15.2c-4.5 0-4.5 7 0 7zm25.2 22.9h6c2 0 3.5-1.6 3.5-3.5s-1.6-3.5-3.5-3.5h-6c-1.9 0-3.5 1.6-3.5 3.5s1.6 3.5 3.5 3.5zm-45.5-18.8h2c2 0 3.5-1.6 3.5-3.5s-1.6-3.5-3.5-3.5h-2c-1.9 0-3.5 1.6-3.5 3.5s1.6 3.5 3.5 3.5z" fill="#fff"/><path d="M201.1 243h-2c-1.9 0-3.5 1.6-3.5 3.5s1.6 3.5 3.5 3.5h2c2 0 3.5-1.6 3.5-3.5s-1.6-3.5-3.5-3.5zm87.6 5.5h-6c-1.9 0-3.5 1.6-3.5 3.5s1.6 3.5 3.5 3.5h6c2 0 3.5-1.6 3.5-3.5s-1.6-3.5-3.5-3.5zm-93.3-17.9h-5.5c-2 0-3.5 1.6-3.5 3.5s1.6 3.5 3.5 3.5h5.5c1.9 0 3.5-1.6 3.5-3.5s-1.6-3.5-3.5-3.5zm84.6 3h9c4.6 0 4.6-7 0-7h-9c-4.5 0-4.5 7 0 7zm-36.6 5h-9c-4.5 0-4.5 7 0 7h9c4.5 0 4.5-7 0-7zm16.9-11.3h-16c-4.5 0-4.5 7 0 7h16c4.5 0 4.5-7 0-7zm-.4 11.2h-6c-1.9 0-3.5 1.6-3.5 3.5s1.6 3.5 3.5 3.5h6c2 0 3.6-1.6 3.6-3.5s-1.6-3.5-3.6-3.5z" fill="#fff"/><path d="M246.6 232.5h-2c-1.9 0-3.5 1.6-3.5 3.5s1.6 3.5 3.5 3.5h2c2 0 3.5-1.6 3.5-3.5s-1.6-3.5-3.5-3.5zm5.9 26h6c1.9 0 3.5-1.6 3.5-3.5s-1.6-3.5-3.5-3.5h-6c-2 0-3.5 1.6-3.5 3.5s1.6 3.5 3.5 3.5zm-59.1 1.8h15.2c4.5 0 4.5-7 0-7h-15.2c-4.5 0-4.5 7 0 7z" fill="#fff"/><path d="M232.1 238.5h6c2 0 3.5-1.6 3.5-3.5s-1.6-3.5-3.5-3.5h-6c-1.9 0-3.5 1.6-3.5 3.5s1.6 3.5 3.5 3.5zm47.7 4.8h9c4.5 0 4.5-7 0-7h-9c-4.5 0-4.5 7 0 7zm-13.7 15.2h16c4.5 0 4.5-7 0-7h-16c-4.5 0-4.5 7 0 7zm-3.6-8h6c1.9 0 3.5-1.6 3.5-3.5s-1.6-3.5-3.5-3.5h-6c-2 0-3.5 1.6-3.5 3.5s1.5 3.5 3.5 3.5z" fill="#fff"/><path d="M280.8 254.3h2c2 0 3.5-1.6 3.5-3.5s-1.6-3.5-3.5-3.5h-2c-1.9 0-3.5 1.6-3.5 3.5s1.6 3.5 3.5 3.5zm-5.7-25H264c-4.5 0-4.5 7 0 7h11c4.5 0 4.5-7 0-7zm-20.6 17.2h16c4.5 0 4.5-7 0-7h-16c-4.6 0-4.6 7 0 7zm-29-4.6h-9c-4.5 0-4.5 7 0 7h9c4.6 0 4.6-7 0-7zm5.7-14.6h-3.3c-1.9 0-3.5 1.5-3.5 3.5s1.6 3.5 3.5 3.5h3.3c1.9 0 3.5-1.6 3.5-3.5s-1.6-3.5-3.5-3.5zm-24 4.6h-6c-2 0-3.6 1.6-3.6 3.5s1.6 3.5 3.5 3.5h6c2 0 3.5-1.6 3.5-3.5s-1.6-3.5-3.5-3.5zm-12.4 15.9h-5.5c-1.9 0-3.5 1.5-3.5 3.5s1.6 3.5 3.5 3.5h5.5c2 0 3.5-1.6 3.5-3.5s-1.6-3.5-3.5-3.5zm55.8.8h-2c-1.9 0-3.5 1.6-3.5 3.5s1.6 3.5 3.5 3.5h2c2 0 3.5-1.6 3.5-3.5s-1.6-3.5-3.5-3.5z" fill="#fff"/><path d="M254.4 238.4h-2c-2 0-3.5 1.6-3.5 3.5s1.6 3.5 3.5 3.5h2c1.9 0 3.5-1.6 3.5-3.5s-1.6-3.5-3.5-3.5zm-41.6 20h5.5c2 0 3.5-1.7 3.5-3.6s-1.6-3.5-3.5-3.5h-5.5c-1.9 0-3.5 1.6-3.5 3.5s1.6 3.5 3.5 3.5zm-28-1h2c2 0 3.6-1.6 3.6-3.5s-1.6-3.5-3.5-3.5h-2c-2 0-3.5 1.6-3.5 3.5s1.6 3.5 3.5 3.5zm15.3-8.7h2c2 0 3.5-1.6 3.5-3.5s-1.6-3.5-3.5-3.5h-2c-1.9 0-3.5 1.6-3.5 3.5s1.6 3.5 3.5 3.5z" fill="#fff"/><path d="M211.4 237.6h-5.5c-2 0-3.5 1.6-3.5 3.5s1.6 3.5 3.5 3.5h5.5c1.9 0 3.5-1.6 3.5-3.5s-1.6-3.5-3.5-3.5zm-17.7-11H184c-4.5 0-4.5 7 0 7h9.8c4.5 0 4.5-7 0-7zm54.3 20.7h-11.2c-4.5 0-4.5 7 0 7H248c4.5 0 4.5-7 0-7z" fill="#fff"/><path d="M182.5 229.6h108.6c1.9 0 1.9-3 0-3H182.5c-2 0-2 3 0 3z" fill="#fff"/><g fill="#fff"><path d="M209.2 226.7c0-15.7.4-42.9 21.8-43.3 1.9 0 1.9-3 0-3-23.5.5-24.8 28.6-24.8 46.3 0 1.9 3 1.9 3 0z"/><path d="M203.7 226.7c.1-18 4.7-42.9 27.3-43.3 1.9 0 1.9-3 0-3-24.4.4-30.1 26.4-30.3 46.3 0 1.9 3 1.9 3 0z"/><path d="M220.8 226.7c0-7.8-.3-16 1.5-23.6.7-3.4 2.6-5.8 4.7-8.4 1.2-1.5-1-3.7-2.1-2.2-2.2 2.8-4.2 5.2-5.2 8.6-2.5 8-1.9 17.3-1.9 25.6 0 1.9 3 1.9 3 0z"/><path d="M216.8 226.7c0-7.8-.3-16.2 2.5-23.6 1.4-3.7 4.8-6 7.7-8.4 1.5-1.3-.7-3.4-2.1-2.2-3.1 2.7-6.3 5-8 8.9-3.6 7.5-3 17.2-3.1 25.3 0 1.9 3 1.9 3 0zm-20.4 0c0-7.6 0-16.2-3.4-23.2a11 11 0 0 0-2.7-3.5c-.3-.3-1.6-1-1.7-1.4-.2-1.9-3.2-1.9-3 0 .2 2.3 2.1 3 3.5 4.5 5.1 5.4 4.3 16.8 4.3 23.6 0 1.9 3 1.9 3 0z"/><path d="M201.8 226.3c-1-6.6-1.4-15-5-21-2-3.1-6-5-8.6-7.7-1.4-1.4-3.5.7-2.1 2 2.4 2.6 5.6 4.3 7.9 7 1.3 1.5 1.7 3.8 2.2 5.7 1.2 4.8 2 9.8 2.7 14.7.3 2 3.2 1.1 3-.8zm73.2.3c0-6.9-.3-14.4 2-21 1-3.4 3.9-5.4 6.5-7.6 1.5-1.3-.7-3.4-2.1-2.1-2.8 2.3-5.5 4.4-7 7.9-2.9 6.9-2.4 15.5-2.4 22.8 0 2 3 2 3 0z"/><path d="M269.6 226.6c0-6.9-.2-14.9 3.4-21 2.2-3.6 6.7-5.4 10.2-7.4 1.7-1 .2-3.6-1.5-2.6-4 2.3-8 4.2-10.9 8-4.6 6-4.2 15.8-4.2 23 0 2 3 2 3 0zm14.6 0c0-6-.3-14.9 4.2-19.6 1.4-1.5 3.4-1.9 3.7-4.2.2-1.9-2.8-1.9-3 0 0 0-3.7 3-4.2 3.7-3.8 5.5-3.6 13.8-3.7 20.1 0 2 3 2 3 0z"/><path d="M278.8 227c.9-5 1.2-12.8 4.7-17 2-2.5 5.7-4 8.1-6.1 1.5-1.3-.7-3.4-2.1-2.1-2.6 2.3-6.2 3.7-8.4 6.3-3.8 4.6-4.2 12.6-5.2 18.1-.4 1.9 2.5 2.7 2.9.8zm-13.3-.3c0-4.7 0-10-2.4-14.2a7.6 7.6 0 0 0-2.1-2.3 13 13 0 0 0-.9-.6c-.5-.3-.2-.3-.1.2-.2-1.9-3.2-2-3 0 .2 1.7 1.4 2 2.5 3 3.4 3 3 10 3 14 0 1.8 3 1.8 3 0z"/><path d="M269.3 226.3c-.7-4-1-9.3-3.6-12.7-1.5-2.1-4.3-3.2-6.2-4.9-1.4-1.2-3.5.9-2 2.2 1.6 1.5 3.9 2.5 5.5 4 .9.9 1.2 2.2 1.5 3.3.9 2.9 1.4 6 2 9 .3 1.8 3.2 1 2.8-.9zm-18.3 1c0-6.9.3-14.4-1.9-21-1-3-3.3-5-5.6-7.3-1.4-1.3-3.5.8-2.1 2.2 2 2 4 3.7 5 6.6 2 6 1.6 13.2 1.6 19.4 0 2 3 2 3 0z"/><path d="M255.3 227.2c0-6.8.1-14.7-3.2-20.9-2-3.5-5.7-5.4-9-7.5-1.5-1-3 1.5-1.4 2.6 2.8 1.9 6 3.4 7.8 6.4 3.3 5.4 2.8 13.4 2.8 19.4 0 2 3 2 3 0zm-15 0c0-3.8-.3-8-2.9-11a7 7 0 0 0-2.3-1.7l-.9-.4c-.7-.3 0 0 0 .2-.3-1.9-3.2-1-3 .8.3 1.5 2 1.8 3.1 2.4 3 1.8 3 6.8 3 9.7 0 2 3 2 3 0z"/><path d="M244.5 226.8c-.9-3.2-1.6-7.3-4-9.7-1.9-1.8-4.9-2.4-7-3.7-1.7-1-3.2 1.6-1.5 2.6 2 1.2 4.1 1.8 6 3 2.4 1.4 3 6.3 3.6 8.6.5 1.9 3.4 1 3-.8z"/></g></svg>