<svg xmlns="http://www.w3.org/2000/svg" width="361" height="361"><path d="M107 162v29c0 4 7 4 7 0v-29c0-4-7-4-7 0z" fill="#fff"/><path d="M101 168l8 5c4 2 8-4 4-6l-9-5c-4-2-7 4-3 6z" fill="#fff"/><path d="M117 162l-8 5c-4 2 0 8 3 6l9-5c4-2 0-8-4-6zm-33 17l25 14c4 3 7-3 3-6l-24-14c-4-2-7 4-3 6z" fill="#fff"/><path d="M86 188l8-5c4-2 1-8-3-6l-8 5c-4 2-1 8 3 6z" fill="#fff"/><path d="M89 171v9c0 5 7 5 7 0v-10c0-4-7-4-7 1zm-1 37l25-15c4-2 0-8-4-6l-25 15c-3 2 0 8 4 6z" fill="#fff"/><path d="M96 210v-9c0-5-7-5-7 0v9c0 5 7 5 7 0z" fill="#fff"/><path d="M83 199l8 5c4 2 7-4 4-6l-9-5c-4-2-7 4-3 6z" fill="#fff"/><g fill="#fff"><path d="M114 219v-29c0-4-7-4-7 0v29c0 4 7 4 7 0z"/><path d="M121 213l-9-5c-3-2-7 4-3 6l8 5c4 2 8-4 4-6z"/><path d="M104 219l9-5c4-2 0-8-4-6a22219 22219 0 0 1-8 5c-4 2-1 8 3 6z"/></g><g fill="#fff"><path d="M137 202l-24-15c-4-2-8 4-4 7l25 14c4 2 7-4 3-6z"/><path d="M135 193l-8 5c-4 2 0 8 4 6l8-5c4-2 0-8-4-6z"/><path d="M132 210v-9c0-5-7-5-7 0v9c0 5 7 5 7 0z"/></g><g fill="#fff"><path d="M134 173l-25 15c-4 2 0 8 4 6l24-15c4-2 0-8-3-6z"/><path d="M125 171v9c0 5 7 5 7 0v-9c0-5-7-5-7 0z"/><path d="M139 182l-9-5c-4-2-7 4-3 6l8 5c4 2 8-4 4-6z"/></g><path d="M197 140c0 5-4 8-7 8h-55c-4 0-7-3-7-8V84c0-5 3-8 7-8h55c3 0 7 3 7 8v56z" fill="#fff" stroke="#fff" stroke-width="13" stroke-miterlimit="10"/><path d="M94 121a8 8 0 0 0 7 8h37a8 8 0 0 0 8-8V99a8 8 0 0 0-8-8h-37a8 8 0 0 0-7 8v22z" fill="#fff" stroke="#fff" stroke-width="13" stroke-miterlimit="10"/><path d="M78 121a8 8 0 0 1 8-8h45a8 8 0 0 1 8 8v12a8 8 0 0 1-8 8H86a8 8 0 0 1-8-8v-12zm171 27c0 5-3 8-7 8h-54c-4 0-7-3-7-8V91c0-4 3-7 7-7h54c4 0 7 3 7 7v57z" fill="#fff" stroke="#fff" stroke-width="13" stroke-miterlimit="10"/><path d="M233 142a8 8 0 0 0 8 8h37a8 8 0 0 0 8-8v-23a8 8 0 0 0-8-7h-37a8 8 0 0 0-8 7v23zm-31 15c0 5-3 8-7 8h-55c-3 0-6-3-6-8v-56c0-5 3-8 7-8h54c4 0 7 3 7 8v56z" fill="#fff" stroke="#fff" stroke-width="13" stroke-miterlimit="10"/><path d="M103 143a8 8 0 0 1 8-8h45a8 8 0 0 1 8 7v13a8 8 0 0 1-8 8h-45a8 8 0 0 1-8-8v-12z" fill="#fff" stroke="#fff" stroke-width="13" stroke-miterlimit="10"/><g fill="#fff"><path d="M210 203l-20 20c-3 4 2 9 5 5l20-20c4-3-1-8-5-5z"/><path d="M202 203l2 9c1 5 8 3 7-2l-3-9c-1-4-8-2-6 2z"/><path d="M218 210l-10-2c-4-1-6 5-2 7l10 2c4 1 6-5 1-7zm-36-11l8 28c1 4 7 2 6-2l-7-28c-1-4-8-2-7 2z"/><path d="M177 207l10 2c4 1 6-6 2-7l-10-2c-4-1-6 5-2 6z"/><path d="M192 196l-7 7c-3 3 2 8 5 5l7-7c3-3-2-8-5-5zm-27 26l27 7c4 1 6-6 2-7l-27-7c-5-1-7 6-2 7z"/><path d="M169 230l6-7c4-3-1-8-4-5l-7 7c-3 3 2 8 5 5z"/><path d="M167 212l3 9c1 5 7 3 6-2l-2-9c-1-4-8-2-7 2zm8 36l20-20c4-3-1-8-5-5l-20 20c-3 4 2 9 5 5z"/><path d="M184 249l-2-10c-2-4-8-2-7 2l2 10c2 4 8 2 7-2z"/><path d="M168 241l9 3c5 1 7-6 2-7l-9-2c-4-1-6 5-2 6zm36 11l-8-27c-1-4-8-2-7 2l8 27c1 5 8 3 7-2z"/><path d="M208 245l-9-2c-4-2-6 5-2 6l10 3c4 1 6-6 2-7z"/><path d="M194 255l7-7c3-3-2-8-5-5l-7 7c-3 3 2 8 5 5zm27-25l-27-8c-5-1-6 6-2 7l27 8c5 1 6-6 2-7z"/><path d="M217 222l-7 7c-3 3 2 8 5 5l7-7c3-3-2-8-5-5z"/><path d="M219 239l-3-9c-1-4-8-2-6 2l2 9c1 5 8 3 7-2z"/></g></svg>