<svg xmlns="http://www.w3.org/2000/svg" width="361" height="361"><path d="M76 291.4h211.4c6.4 0 6.4-10 0-10H76c-6.5 0-6.5 10 0 10zm173.4-57.8c0 4.8.6 10-.2 14.7-1.4 8.3-8.8 12.3-16.5 12.3h-24.4c-3.7.1-11.4-2.8-11.7-7.4-.4-6.4-10.4-6.4-10 0 .7 11.9 13.5 17.4 23.8 17.4h22.3a26 26 0 0 0 24-13.5c3.8-7 2.7-15.8 2.7-23.5 0-6.5-10-6.5-10 0zm-53.7-2.6c-.1-5.4-1-11.2.7-16.4 2.2-7.3 9.6-9.8 16.4-9.8h18.5c5.8 0 16.2-.4 16.7 7.4.4 6.4 10.4 6.4 10 0-1.4-21.7-30.1-17.4-45.2-17.4-10 0-18.5 3.7-24 12.4-4.4 7.1-3.3 15.9-3.1 23.8 0 6.5 10 6.5 10 0zm81.1-62.5l-18.4 18.4c-3.2 3.2 1.8 8.1 5 5l18.4-18.5c3.2-3.2-1.8-8.1-5-5zm-58.1-11.7v22.4c0 4.6 7 4.6 7 0v-22.4c0-4.5-7-4.5-7 0zm-76.8 77.7h28.9c4.5 0 4.5-7 0-7h-28.9c-4.5 0-4.5 7 0 7zm102.9-69l-5.7 13.7c-.7 1.8.8 3.8 2.4 4.3 2 .6 3.6-.7 4.3-2.4l5.7-13.8c.8-1.8-.7-3.8-2.4-4.3-2-.5-3.6.7-4.3 2.5zM157 208l13.7 5.7c1.8.7 3.9-.8 4.3-2.5.6-2-.7-3.5-2.4-4.2l-13.8-5.8c-1.7-.7-3.8.8-4.3 2.5-.5 2 .7 3.6 2.5 4.3zm1.8 52.4l13.8-5.7c1.7-.7 3-2.2 2.4-4.3-.4-1.6-2.5-3.1-4.3-2.4l-13.7 5.7c-1.8.7-3 2.3-2.5 4.3.5 1.7 2.6 3.2 4.3 2.4z" fill="#fff"/><path d="M271.8 282a51468.7 51468.7 0 0 0-10.5-10.4c-3.2-3.2-8.1 1.8-5 5a51468.7 51468.7 0 0 0 10.5 10.4c3.2 3.2 8.2-1.8 5-5zm-98.5 4.9l11.8-11.8c3.2-3.2-1.8-8.1-5-5L168.4 282c-3.2 3.2 1.7 8.2 4.9 5zM286 229.4h-12.9c-4.5 0-4.5 7 0 7h13c4.4 0 4.4-7 0-7zm-1-26.3l-13.7 5.7c-1.7.7-3 2.3-2.4 4.3.5 1.7 2.5 3.2 4.3 2.5l13.8-5.7c1.7-.8 3-2.3 2.4-4.3-.5-1.7-2.5-3.2-4.3-2.5zm2 52.5l-13.8-5.7c-1.8-.8-3.8.7-4.3 2.4-.6 2 .7 3.6 2.4 4.3l13.8 5.7c1.8.7 3.8-.8 4.3-2.4.6-2-.7-3.6-2.4-4.3zm-60 30.9v-2.2c0-1.9-1.7-3.5-3.6-3.5s-3.5 1.6-3.5 3.5v2.1c0 2 1.6 3.5 3.5 3.5s3.5-1.5 3.5-3.5zm20.7-2.5l-1.1-2.3a3.5 3.5 0 0 0-2-1.6 3.5 3.5 0 0 0-2.8.3 3.5 3.5 0 0 0-1.6 2.1c-.3 1 0 1.8.4 2.7l1 2.4c.4.8 1.3 1.4 2.1 1.6a3.5 3.5 0 0 0 2.7-.4 3.5 3.5 0 0 0 1.6-2c.3-1 0-1.9-.3-2.8zm-45 3.4l1.3-3c.3-.8 0-2-.4-2.7a3.5 3.5 0 0 0-2-1.6 3.5 3.5 0 0 0-2.8.3c-.8.5-1.2 1.2-1.6 2.1l-1.2 3c-.4.9-.1 2 .3 2.8a3.5 3.5 0 0 0 2.1 1.6 3.5 3.5 0 0 0 2.7-.4c.9-.5 1.2-1.2 1.6-2zm-79.9-45.3h89.7c2 0 2-3 0-3h-89.7c-2 0-2 3 0 3zm-17.9 4.5h51.3c2 0 2-3 0-3h-51.3c-2 0-2 3 0 3zm-26.6-36.2H147c2 0 2-3 0-3H78.3c-2 0-2 3 0 3zm-6.6 5.6h59c2 0 2-3 0-3h-59c-2 0-2 3 0 3zm167.9 10.6h46c2 0 2-3 0-3h-46c-2 0-2 3 0 3zm-4-4.6H277c2 0 2-3 0-3h-41.3c-1.9 0-1.9 3 0 3zm-55.1 24.7l22.6-.3c2 0 2-3 0-3l-22.6.2c-2 0-2 3 0 3zM98.7 133.3H201c2 0 2-3 0-3H98.7c-2 0-2 3 0 3zm-16.8 5.6h144.9c2 0 2-3 0-3h-145c-1.8 0-1.8 3 0 3zm-7.5 20h67.8c1.9 0 1.9-3 0-3H74.5c-2 0-2 3 0 3zm74.9 3.2H98.7c-2 0-2 3 0 3h50.6c1.9 0 1.9-3 0-3zm34 26.8L165 170.5c-3.2-3.2-8.2 1.7-5 5l18.4 18.3c3.2 3.2 8.2-1.7 5-5zm8-21.6l5.8 13.8c.7 1.7 2.3 3 4.3 2.4 1.6-.5 3.1-2.5 2.4-4.3l-5.7-13.8c-.7-1.7-2.3-3-4.3-2.4-1.7.5-3.2 2.5-2.4 4.3z" fill="#fff"/></svg>