<svg xmlns="http://www.w3.org/2000/svg" width="361" height="361"><path d="M88 195a56 56 0 0 1 19-76c5-3 0-12-5-9a66 66 0 0 0-23 90c3 5 12 0 9-5z" fill="#fff"/><path d="M163 214a56 56 0 0 1-76-20c-3-5-12 0-8 5a66 66 0 0 0 89 23c6-3 1-12-5-8z" fill="#fff"/><path d="M166 213c-23 3-48-12-60-31-2-4-10-2-9 3l9-3c-11-19-9-46 3-65 3-5-6-10-9-5a79 79 0 0 0-2 76c2 4 10 2 9-3l-9 2c13 22 42 39 68 36 6-1 6-11 0-10zm80-83h22c2 0 2-3 0-3h-22c-2 0-2 3 0 3zm-50-23h87c2 0 2-3 0-3h-87c-2 0-2 3 0 3zm-24 6h118c2 0 2-3 0-3H172c-2 0-2 3 0 3zm-30 17h68c2 0 2-3 0-3h-68c-2 0-2 3 0 3zm55 3h-51c-2 0-2 3 0 3h51c2 0 2-3 0-3zm82 50h-34c-2 0-2 3 0 3h34v-3zm11-6h-80c-2 0-2 3 0 3h80c2 0 2-3 0-3z" fill="#fff"/><path d="M120 154h103c2 0 2-3 0-3H120c-2 0-2 3 0 3zm31 6h98c2 0 2-3 0-3h-98c-2 0-2 3 0 3zm54-39h-51c-2 0-2 3 0 3h51c2 0 2-3 0-3z" fill="#fff"/><path d="M232 236a3 3 0 0 1 0 5 3 3 0 1 1 0-5zm-37-41a3 3 0 0 1 3 3 3 3 0 0 1-3 3 3 3 0 0 1-3-3 3 3 0 0 1 3-3zm19 35l2 2v1a2 2 0 0 1-2 2h-1a2 2 0 0 1-2-2v-1l2-2h1z" fill="#fff" stroke="#fff" stroke-miterlimit="10"/><g fill="#fff"><path d="M211 220l1 1-1 2h-1a1 1 0 0 1-1-2l1-1h1z"/><path d="M211 221h-1 1c-1 1 0 0 0 0h-1 1c2 0 2-3 0-3h-2l-2 3a3 3 0 0 0 3 3c2 0 3-1 3-3 1-1 0-3-2-3l-2 2 2 1z"/></g><g fill="#fff" stroke="#fff" stroke-width="10" stroke-miterlimit="10"><path d="M196 254c0 4-3 8-7 8h-56c-4 0-7-4-7-8v-58c0-5 3-8 7-8h56c4 0 7 3 7 8v58z"/><path d="M93 243c0-6 5-12 10-12h55c6 0 10 6 10 12v19c0 6-4 12-10 12h-55c-5 0-10-6-10-12v-19zm157 27c0 5-4 8-8 8h-55c-4 0-8-3-8-8v-58c1-4 4-8 8-8h55c5 0 8 4 8 8v58z"/><path d="M233 263a8 8 0 0 0 8 8h38a8 8 0 0 0 8-8v-22a8 8 0 0 0-8-8h-37a8 8 0 0 0-8 8v22zm-31 16c0 5-4 8-8 8h-55c-4 0-8-3-8-8v-58c0-4 4-8 8-8h55c4 0 8 4 8 8v58z"/><path d="M75 226c0-7 4-12 10-12h45c5 0 10 5 10 12v12c0 7-5 12-10 12H85c-6 0-10-5-10-12v-12z"/></g></svg>