<svg xmlns="http://www.w3.org/2000/svg" width="361" height="361"><path d="M87.7 194.6a55.8 55.8 0 0 1 19.2-75.6c5.5-3.4.5-12-5-8.7A66 66 0 0 0 79 199.6c3.2 5.6 11.8.6 8.6-5z" fill="#fff"/><path d="M163.2 213.6a55.8 55.8 0 0 1-75.7-19.2c-3.3-5.5-12-.5-8.6 5a66 66 0 0 0 89.3 22.9c5.6-3.3.6-11.9-5-8.7z" fill="#fff"/><path d="M165.7 213c-22.6 2.9-47.7-11.7-59.3-30.7-2.4-4-10-2.7-9.4 2.5v.1l9.4-2.5c-11-19.1-9-46.7 2.3-65.3 3.3-5.6-5.3-10.6-8.6-5-13 21.6-15 53.1-2.3 75.4 2.3 4 9.9 2.6 9.3-2.6l-9.4 2.4c13.3 21.7 42 39 68 35.6 6.3-.8 6.4-10.8 0-10z" fill="#fff"/><path d="M213.8 103.7a2.8 2.8 0 1 1-5.5 0 2.8 2.8 0 1 1 5.5 0zm-42.2 23a4.2 4.2 0 0 1-8.4 0 4.2 4.2 0 0 1 8.4 0zM150.4 164a2.8 2.8 0 1 1-5.6 0 2.8 2.8 0 0 1 5.5 0zM275 133.6a2.8 2.8 0 0 1-5.5 0 2.8 2.8 0 0 1 5.5 0z" fill="#fff" stroke="#fff" stroke-miterlimit="10"/><path d="M223.1 131.3c0 .8-.6 1.4-1.3 1.4h-.5a1.4 1.4 0 0 1-1.3-1.4v-.4c0-.8.6-1.4 1.3-1.4h.5c.7 0 1.3.6 1.3 1.4v.4z" fill="#fff"/><path d="M221.6 131.3l.1-.2c-.2.3 0 .1 0 0h-.4l.2.2c-.3-.2 0-.1 0 0v-.4l-.1.1c.2-.2 0 0 0 0h.4-.2c.3.1 0 0 0 0v.3c0 2 3 2 3 0 0-.6 0-1.2-.3-1.8-.5-1-1.6-1.4-2.5-1.5-1.8 0-3.2 1-3.3 2.9-.1 1.7 1 3.2 2.8 3.3 1.8 0 3.2-1 3.3-2.9 0-.8-.7-1.5-1.5-1.5s-1.4.7-1.5 1.5z" fill="#fff"/><path d="M205.6 146.7a1.5 1.5 0 0 1-3 0 1.5 1.5 0 0 1 3 0zm26.2 88.8a2.8 2.8 0 0 1 0 5.5 2.8 2.8 0 1 1 0-5.5zm-36.5-40.7a2.9 2.9 0 0 1 3 2.9 2.9 2.9 0 0 1-3 2.9 2.9 2.9 0 0 1-2.9-3 2.9 2.9 0 0 1 3-2.8zm18.5 35.6c1.2 0 2 1 2 2v.7a2 2 0 0 1-2 2h-.6a2 2 0 0 1-2-2v-.7c0-1 .8-2 2-2h.6zM203.5 168a2.8 2.8 0 1 1 0 5.5 2.8 2.8 0 0 1 0-5.5z" fill="#fff" stroke="#fff" stroke-miterlimit="10"/><path d="M210.7 219.6c.7 0 1.3.6 1.3 1.4v.4c0 .7-.6 1.3-1.3 1.3h-.5a1.4 1.4 0 0 1-1.3-1.3v-.4c0-.8.6-1.4 1.3-1.4h.5z" fill="#fff"/><path d="M210.7 221.1h-.2c.3.1 0 0 0 0v.3l.1-.2c-.2.3 0 0 0 0h-.4l.2.2c-.3-.2 0-.1 0 0v-.4l-.1.1c.2-.2 0 0 0 0h.4c1.9 0 1.9-3 0-3-.7 0-1.3 0-1.9.4-1 .4-1.4 1.5-1.4 2.5a3 3 0 0 0 2.8 3.3c1.8 0 3.2-1.1 3.3-2.9.1-1.8-1-3.2-2.8-3.3-.8 0-1.5.7-1.5 1.5 0 .9.7 1.5 1.5 1.5z" fill="#fff"/><path d="M268.8 193a2.8 2.8 0 1 1 0 5.4 2.8 2.8 0 1 1 0-5.5zm-34-61.3a1.5 1.5 0 0 1 0 3 1.5 1.5 0 0 1-1.5-1.5 1.5 1.5 0 0 1 1.5-1.5zm27 31.5a2.8 2.8 0 1 1-5.5 0 2.8 2.8 0 1 1 5.5 0z" fill="#fff" stroke="#fff" stroke-miterlimit="10"/><g fill="#fff" stroke="#fff" stroke-width="10" stroke-miterlimit="10"><path d="M196 254c0 4.3-3.2 8-7.2 8H133c-4 0-7.2-3.7-7.2-8v-58.2c0-4.5 3.3-8 7.2-8h55.8c4 0 7.2 3.5 7.2 8v58.1z"/><path d="M93.4 243.1c0-6.5 4.3-11.7 9.6-11.7h55.4c5.3 0 9.6 5.2 9.6 11.7v18.7c0 6.5-4.3 11.8-9.6 11.8H103c-5.3 0-9.6-5.3-9.6-11.8v-18.7zM249.7 270c0 4.5-3.2 8-7.2 8h-55.8c-4 0-7.2-3.5-7.2-8v-58.1c0-4.4 3.2-8 7.2-8h55.8c4 0 7.2 3.6 7.2 8V270z"/><path d="M233.4 263.3a8 8 0 0 0 8 8H279a8 8 0 0 0 8-8v-22.8a8 8 0 0 0-8-8h-37.5a8 8 0 0 0-8 8v22.8zm-31.8 16c0 4.4-3.3 8-7.2 8h-55.8c-4 0-7.2-3.6-7.2-8v-58.1c0-4.5 3.2-8 7.2-8h55.8c4 0 7.2 3.5 7.2 8v58z"/><path d="M74.9 225.6c0-6.5 4.3-11.7 9.6-11.7h45.4c5.3 0 9.6 5.2 9.6 11.7v12.7c0 6.5-4.3 11.8-9.6 11.8H84.5c-5.3 0-9.6-5.3-9.6-11.8v-12.7z"/></g></svg>