<svg xmlns="http://www.w3.org/2000/svg" width="361" height="361"><path d="M197 128a16 16 0 1 1-33 0l2-9c2-6 9-25 14-25s13 20 15 25l2 9zm-22 74a16 16 0 0 1-33 0l2-10c2-5 9-24 14-24 6 0 13 19 15 24l2 9zm-49 24c0 2-2 4-5 4H80c-3 0-5-2-5-4V79c0-2 3-4 5-4h41c3 0 5 2 5 4v147z" fill="none" stroke="#fff" stroke-width="10" stroke-miterlimit="10"/><path d="M117 152a16 16 0 1 1-33 0l2-9c2-5 9-25 14-25 6 0 13 20 14 25l3 9zm172 123h-7c-5 0-5 7 0 7h7c4 0 4-7 0-7zm-27-3h-7c-5 0-5 7 0 7h7c5 0 5-7 0-7zm4-11h-15c-5 0-5 7 0 7h15c4 0 4-7 0-7zm-25 23h-6c-2 0-4 2-4 4s2 3 4 3h6c2 0 3-1 3-3s-2-4-3-4zm45-19h-2c-2 1-3 2-3 4s1 4 3 4h2c2 0 4-2 4-4s-2-3-4-3z" fill="#fff"/><path d="M269 283h2c2 0 4-2 4-4s-2-3-4-3h-2c-2 0-3 1-3 3s1 4 3 4zm-84 8h6c2 0 3-1 3-3s-2-4-3-4h-6c-2 0-4 2-4 4s2 3 4 3zm90-21h5c2 0 4-1 4-3s-2-4-4-4h-5c-2 0-4 2-4 4s2 3 4 3zm-81-10h-9c-4 0-4 7 0 7h9c5 0 5-7 0-7zm33 19h9c4 0 4-7 0-7h-9c-5 0-5 7 0 7zm-17-12h16c5 0 5-7 0-7h-16c-5 0-5 7 0 7zm0 11h6c2 0 4-1 4-3s-2-4-4-4h-6c-2 0-3 2-3 4s1 3 3 3z" fill="#fff"/><path d="M224 272h2c2 0 3-1 3-3s-2-4-3-4h-2c-2 0-4 2-4 4s2 3 4 3zm-6 12h-6c-2 0-4 2-4 4s2 3 4 3h6c2 0 3-1 3-3s-1-4-3-4zm59 0h-15c-5 0-5 7 0 7h15c5 0 5-7 0-7zm-39-20h-6c-2 0-3 2-3 4s1 3 3 3h6c2 0 4-1 4-3s-2-4-4-4zm-45 5h-9c-4 0-4 7 0 7h9c5 0 5-7 0-7zm10 15h-16c-4 0-4 7 0 7h16c5 0 5-7 0-7zm5-8h-6c-2 0-4 2-4 4s2 3 4 3h6c2 0 3-1 3-3s-1-4-3-4z" fill="#fff"/><path d="M189 280h-2c-1 0-3 2-3 4s2 3 3 3h2c2 0 4-1 4-3s-2-4-4-4zm6-9h11c5 0 5-7 0-7h-11c-4 0-4 7 0 7zm21 1h-16c-5 0-5 7 0 7h16c4 0 4-7 0-7zm29 10h9c4 0 4-7 0-7h-9c-5 0-5 7 0 7zm-6-15h3c2 0 4-2 4-3s-2-4-4-4h-3c-2 0-3 2-3 4s1 3 3 3zm24 5h6c2 0 4-2 4-4s-2-3-4-3h-6c-2 0-3 1-3 3s1 4 3 4zm12 16h6c2 0 3-2 3-4s-1-3-3-3h-6c-1 0-3 1-3 3s2 4 3 4zm-55 0h2c2 0 3-1 3-3s-1-4-3-4h-2c-2 0-4 2-4 4s2 3 4 3z" fill="#fff"/><path d="M216 278h2c2 0 3-1 3-3s-1-4-3-4h-2c-2 0-4 2-4 4s2 3 4 3zm41 6h-5c-2 0-3 2-3 4s1 3 3 3h6c2 0 3-1 3-3s-2-4-3-4zm32-1h-2c-2 0-3 2-3 4s2 3 3 3h2c2 0 4-1 4-3s-2-4-4-4zm-19-9h-2c-2 1-3 2-3 4s1 4 3 4h2c2 0 4-2 4-4s-2-3-4-3z" fill="#fff"/><path d="M259 279h5c2 0 4-1 4-3s-2-4-4-4h-5c-2 0-4 2-4 4s2 3 4 3zm20-13h10c5 1 5-6 0-6h-10c-4 0-4 7 1 7zm-57 21h11c5 0 5-7 0-7h-11c-4 0-4 7 0 7zm-38-37h7c5 0 5-7 0-7h-7c-4 0-4 7 0 7zm24-3h8c4 0 4-7 0-7h-8c-5 0-5 7 0 7zm-4-11h16c4 0 4-7 0-7h-16c-4 0-4 7 0 7zm26 23h6c2 0 3-2 3-4s-2-3-3-3h-6c-2 0-4 1-4 3s2 4 4 4zm-46-19h2c2 0 4-2 4-4s-2-3-4-3h-2c-2 0-3 1-3 3s1 4 3 4z" fill="#fff"/><path d="M201 243h-2c-2 0-3 2-3 4s1 3 3 3h2c2 0 4-2 4-3s-2-4-4-4zm88 6h-6c-2 0-4 1-4 3s2 4 4 4h6c2 0 3-2 3-4s-1-3-3-3zm-94-18h-5c-2 0-4 1-4 3s2 4 4 4h5c2 0 4-2 4-4s-2-3-4-3zm85 3h9c5 0 5-7 0-7h-9c-4 0-4 7 0 7zm-37 5h-9c-4 0-4 7 0 7h9c5 0 5-7 0-7zm17-12h-16c-4 0-4 7 0 7h16c5 0 5-7 0-7zm0 11h-6c-2 0-4 2-4 4s2 3 4 3h6c2 0 4-1 4-3s-2-4-4-4z" fill="#fff"/><path d="M247 233h-2c-2 0-4 1-4 3s2 4 4 4h2c2 0 3-2 3-4s-2-3-3-3zm5 26h7c1 0 3-2 3-4s-2-3-3-3h-6c-2 0-4 1-4 3s2 4 4 4zm-59 1h16c4 0 4-7 0-7h-16c-4 0-4 7 0 7z" fill="#fff"/><path d="M232 239h6c2 0 4-2 4-4s-2-3-4-3h-6c-2 0-3 1-3 3s1 4 3 4zm48 4h9c4 0 4-7 0-7h-9c-5 0-5 7 0 7zm-14 16h16c5 0 5-7 0-7h-16c-4 0-4 7 0 7zm-3-8h6c1 0 3-2 3-4s-2-3-3-3h-6c-2 0-4 1-4 3s2 4 4 4z" fill="#fff"/><path d="M281 254h2c2 0 3-1 3-3s-1-4-3-4h-2c-2 0-4 2-4 4s2 3 4 3zm-6-25h-11c-4 0-4 7 0 7h11c5 0 5-7 0-7zm-20 18h16c4 0 4-7 0-7h-16c-5 0-5 7 0 7zm-29-5h-9c-5 0-5 7 0 7h9c4 0 4-7 0-7zm5-15h-3c-2 0-4 2-4 4s2 3 4 3h3c2 0 4-1 4-3s-2-4-4-4zm-24 5h-6c-2 0-3 2-3 3s1 4 3 4h6c2 0 4-2 4-4s-2-3-4-3zm-12 16h-6c-2 0-3 1-3 3s1 4 3 4h6c2 0 3-2 3-4s-1-3-3-3zm56 1h-2c-2 0-4 1-4 3s2 4 4 4h2c2 0 3-2 3-4s-1-3-3-3z" fill="#fff"/><path d="M254 238h-2c-2 0-3 2-3 4s2 3 3 3h2c2 0 4-1 4-3s-2-4-4-4zm-41 20h5c2 0 4-1 4-3s-2-4-4-4h-5c-2 0-4 2-4 4s2 3 4 3zm-28-1h2c2 0 3-1 3-3s-1-4-3-4h-2c-2 0-4 2-4 4s2 3 4 3zm15-8h2c2 0 4-2 4-4s-2-3-4-3h-2c-2 0-3 1-3 3s1 4 3 4z" fill="#fff"/><path d="M211 238h-5c-2 0-4 1-4 3s2 4 4 4h5c2 0 4-2 4-4s-2-3-4-3zm-17-11h-10c-4 0-4 7 0 7h10c4 0 4-7 0-7zm54 20h-11c-5 0-5 7 0 7h11c5 0 5-7 0-7z" fill="#fff"/><path d="M183 230h108c2 0 2-3 0-3H183c-2 0-2 3 0 3z" fill="#fff"/><g fill="#fff"><path d="M209 227c0-16 1-43 22-44 2 0 2-3 0-3-23 1-25 29-25 47 0 2 3 2 3 0z"/><path d="M204 227c0-18 4-43 27-44 2 0 2-3 0-3-24 1-30 27-30 47 0 2 3 2 3 0z"/><path d="M221 227l1-24 5-8c1-2-1-4-2-3l-5 9c-3 8-2 17-2 26 0 2 3 2 3 0z"/><path d="M217 227c0-8 0-17 2-24 2-4 5-6 8-8 2-2-1-4-2-3l-8 9c-4 8-3 18-3 26 0 2 3 2 3 0zm-21 0c0-8 0-17-3-24a11 11 0 0 0-3-3l-1-1c-1-2-4-2-3 0 0 2 2 3 3 4 5 5 4 17 4 24 0 2 3 2 3 0z"/><path d="M202 226c-1-6-2-15-5-21-2-3-6-5-9-7-1-2-3 0-2 2l8 7 2 5 3 15c0 2 3 1 3-1zm73 1c0-7 0-15 2-21 1-4 4-6 7-8 1-1-1-3-3-2-2 2-5 4-7 8-3 7-2 15-2 23 0 2 3 2 3 0z"/><path d="M270 227c0-7-1-15 3-21 2-4 7-6 10-8 2-1 0-3-1-2-4 2-8 4-11 8-5 6-4 15-4 23 0 2 3 2 3 0zm14 0c0-6 0-15 4-20 2-1 4-2 4-4s-3-2-3 0l-4 4c-4 5-4 13-4 20 0 2 3 2 3 0z"/><path d="M279 227c1-5 1-13 5-17l8-6c1-1-1-3-2-2l-9 6c-4 5-4 13-5 18 0 2 2 3 3 1zm-13 0c0-5 0-10-3-15a8 8 0 0 0-2-2 13 13 0 0 0-1 0c0-1 0-1 0 0 0-2-3-2-3 0l3 3c3 3 3 10 3 14 0 2 3 2 3 0z"/><path d="M269 226c0-4-1-9-3-12l-7-5c-1-1-3 1-1 2l5 4 2 3 2 9c0 2 3 1 2-1zm-18 1c0-7 0-14-2-21-1-3-3-5-6-7-1-1-3 1-2 2l5 7c2 6 2 13 2 19 0 2 3 2 3 0z"/><path d="M255 227c0-7 0-15-3-21-2-3-6-5-9-7-1-1-3 1-1 2l8 7c3 5 2 13 2 19 0 2 3 2 3 0zm-15 0c0-4 0-8-3-11a7 7 0 0 0-2-2h-1c-1 0 0 0 0 0 0-2-3-1-3 1s2 2 3 2c3 2 3 7 3 10 0 2 3 2 3 0z"/><path d="M245 227l-4-10-7-4c-2-1-4 2-2 3l6 3c2 1 3 6 4 9 0 2 3 1 3-1z"/></g></svg>