<svg xmlns="http://www.w3.org/2000/svg" width="361" height="361"><path d="M138 122c0 3-2 6-5 6H95c-3 0-5-3-5-6V83c0-3 2-6 5-6h38c3 0 5 2 5 5v40z" fill="#fff" stroke="#fff" stroke-width="13" stroke-miterlimit="10"/><path d="M77 109a6 6 0 0 0 6 5h25a6 6 0 0 0 6-5V93a6 6 0 0 0-6-5H83a6 6 0 0 0-6 5v16z" fill="#fff" stroke="#fff" stroke-width="13" stroke-miterlimit="10"/><path d="M76 109a6 6 0 0 1 6-6h31a6 6 0 0 1 6 5v9a6 6 0 0 1-6 6H82a6 6 0 0 1-6-6v-8z" fill="#fff" stroke="#fff" stroke-width="13" stroke-miterlimit="10"/><path d="M131 138l-13 23c-2 4 4 7 6 3l13-23c3-4-3-7-6-3zm-3-18l-14 23c-2 4 4 8 6 4l13-23c3-4-3-8-6-4zm-20 35l-14 23c-2 4 4 7 6 3l14-23c2-4-4-7-6-3zm2-29l-13 23c-2 4 4 7 6 3l13-23c3-4-3-7-6-3zm-9-11l-12 20c-3 6 6 11 9 5l11-20c4-5-5-10-8-5z" fill="#fff"/><path d="M87 143l-14 23c-2 4 4 7 6 3l14-23c2-4-4-7-6-3zm3 18l-14 23c-2 4 4 8 6 4l14-23c2-4-4-8-6-4zm22 11l-14 24c-2 4 4 7 6 3l14-23c2-4-4-7-6-4zm62-53l-14 23c-2 4 4 8 6 4l14-23c2-4-4-8-6-4zm-21 36l-14 24c-2 4 4 7 6 3l14-23c2-4-4-7-6-4zm2-29l-13 23c-2 4 4 8 6 4l14-23c2-4-4-7-6-4zm-20 36l-13 23c-2 4 4 8 6 4l13-23c2-4-4-8-6-4z" fill="#fff"/><path d="M168 128c0 3-2 5-5 5h-38c-3 0-5-2-5-5V88c0-3 2-5 5-5h38c3 0 5 2 5 5v40z" fill="#fff" stroke="#fff" stroke-width="13" stroke-miterlimit="10"/><path d="M143 123a6 6 0 0 0 5 6h26a6 6 0 0 0 5-6v-15a6 6 0 0 0-5-6h-26a6 6 0 0 0-5 6v15zm-1 11c0 3-2 6-5 6H91c-2 0-5-3-5-6V94c0-3 3-5 5-5h46c3 0 5 2 5 5v40z" fill="#fff" stroke="#fff" stroke-width="13" stroke-miterlimit="10"/><path d="M263 262h-20c-2 0-2 3 0 3h20c2 0 2-3 0-3zm0 8h-11c-2 0-2 3 0 3h11c2 0 2-3 0-3zm0 9h-11c-2 0-2 3 0 3h11c2 0 2-3 0-3zm1-61h-20c-2 0-2 3 0 3h20c2 0 2-3 0-3zm0 9h-11c-2 0-2 3 0 3h11c2 0 2-3 0-3zm0 9h-11c-2 0-2 3 0 3h11c2 0 2-3 0-3zm0 8h-11c-2 0-2 3 0 3h11c2 0 2-3 0-3zm0 9h-11c-2 0-2 3 0 3h11c2 0 2-3 0-3zm0-78h-21c-2 0-2 3 0 3h21c2 0 2-3 0-3zm0 9h-12c-2 0-2 3 0 3h12c2 0 2-3 0-3zm0 9h-12c-2 0-2 3 0 3h12c2 0 2-3 0-3zm0 8h-12c-2 0-2 3 0 3h12c2 0 2-3 0-3zm0 9h-12c-2 0-2 3 0 3h12c2 0 2-3 0-3zm0-78h-20c-2 0-2 3 0 3h20c2 0 2-3 0-3zm0 9h-11c-2 0-2 3 0 3h11c2 0 2-3 0-3zm0 8h-11c-2 0-2 3 0 3h11c2 0 2-3 0-3zm0 9h-11c-2 0-2 3 0 3h11c2 0 2-3 0-3zm0 9h-11c-2 0-2 3 0 3h11c2 0 2-3 0-3z" fill="#fff"/><path d="M282 71h-68c-7 3-7 9-6 15l1 21 2 22c1 5 1 11 4 15 2 2 6 2 8 2l-5-5 6 140c0 5 3 10 9 10h19c5 0 13 2 17-1 5-2 5-6 6-10l3-79 3-60-5 5c9 0 11-6 12-13l2-23 2-24c0-8-1-14-10-15-7-1-7 9 0 10l-2 28-2 20c0 2 1 7-2 7a5 5 0 0 0-5 5l-6 140c0 2-1 0 0 0h-31v1-2l-1-12-3-90-2-37a5 5 0 0 0-5-5c-2 0-2-6-2-8l-2-21-1-20c0-1-2-6 0-6h64c6 0 6-10 0-10z" fill="#fff"/></svg>