<svg xmlns="http://www.w3.org/2000/svg" width="361" height="361"><path d="M196 141c0 4-3 8-7 8h-54c-4 0-7-4-7-8V84c0-4 3-8 7-8h54c4 1 7 4 7 8v57z" fill="#fff" stroke="#fff" stroke-width="13" stroke-miterlimit="10"/><path d="M93 122a8 8 0 0 0 8 7h36a8 8 0 0 0 8-7V99a8 8 0 0 0-8-8h-36a8 8 0 0 0-8 8v22z" fill="#fff" stroke="#fff" stroke-width="13" stroke-miterlimit="10"/><path d="M77 122a8 8 0 0 1 8-8h45a8 8 0 0 1 8 7v13a8 8 0 0 1-8 8H85a8 8 0 0 1-8-8v-12z" fill="#fff" stroke="#fff" stroke-width="13" stroke-miterlimit="10"/><path d="M174 171l-17 29c-3 5 6 10 9 5l16-29c4-6-5-11-8-5zm-4-24l-16 29c-3 5 5 10 8 5l17-29c3-6-5-11-9-5zm-26 45l-16 29c-3 5 5 10 8 5l17-29c3-6-5-11-9-5zm4-36l-17 29c-3 5 6 10 9 5l16-29c4-6-5-11-8-5zm-4-24l-16 29c-3 5 5 10 9 5l16-29c3-6-5-11-9-5zm-26 45l-16 29c-3 5 5 10 9 5l16-29c3-6-5-11-9-5zm4 23l-16 29c-3 5 5 10 8 5l17-29c3-5-5-11-9-5zm27 14l-16 29c-3 5 5 10 8 5l17-29c3-5-5-11-9-5zm81-42l-17 29c-3 5 6 10 9 5l16-29c4-6-5-11-8-5zm-4-24l-16 29c-3 5 5 10 8 5l17-29c3-6-5-11-9-5zm-26 45l-16 29c-3 5 5 10 8 5l17-29c3-6-5-11-9-5zm4-36l-17 29c-3 5 6 10 9 5l16-29c4-6-5-11-8-5zm-26 44l-16 29c-3 5 5 10 8 5l17-29c3-6-5-11-9-5zm27 14l-16 29c-3 5 5 10 8 5l17-29c3-6-5-11-9-5z" fill="#fff"/><path d="M249 149c0 4-4 8-7 8h-55c-4 0-7-4-7-8V92c0-4 3-8 7-8h55c4 0 7 4 7 8v57z" fill="#fff" stroke="#fff" stroke-width="13" stroke-miterlimit="10"/><path d="M233 142a8 8 0 0 0 8 8h36a8 8 0 0 0 8-8v-22a8 8 0 0 0-8-8h-36a8 8 0 0 0-8 8v22zm-31 16c0 4-4 8-7 8h-55c-4 0-7-4-7-8v-57c0-4 3-8 7-8h55c3 0 7 4 7 8v57z" fill="#fff" stroke="#fff" stroke-width="13" stroke-miterlimit="10"/></svg>