<svg xmlns="http://www.w3.org/2000/svg" width="361" height="361"><path d="M107 162v29c0 4 7 4 7 0v-29c0-4-7-4-7 0z" fill="#fff"/><path d="M101 168l8 5c4 2 8-4 4-6l-9-5c-4-2-7 4-3 6z" fill="#fff"/><path d="M117 162l-8 5c-4 2 0 8 3 6l9-5c4-2 0-8-4-6zm-33 17l25 14c4 3 7-3 3-6l-24-14c-4-2-7 4-3 6z" fill="#fff"/><path d="M86 188l8-5c4-2 1-8-3-6l-8 5c-4 2-1 8 3 6z" fill="#fff"/><path d="M89 171v9c0 5 7 5 7 0v-10c0-4-7-4-7 1zm-1 37l25-15c4-2 0-8-4-6l-25 15c-3 2 0 8 4 6z" fill="#fff"/><path d="M96 210v-9c0-5-7-5-7 0v9c0 5 7 5 7 0z" fill="#fff"/><path d="M83 199l8 5c4 2 7-4 4-6l-9-5c-4-2-7 4-3 6zm31 20v-29c0-4-7-4-7 0v29c0 4 7 4 7 0z" fill="#fff"/><path d="M121 213l-9-5c-3-2-7 4-3 6l8 5c4 2 8-4 4-6z" fill="#fff"/><path d="M104 219l9-5c4-2 0-8-4-6a22219 22219 0 0 1-8 5c-4 2-1 8 3 6z" fill="#fff"/><g fill="#fff"><path d="M137 202l-24-15c-4-2-8 4-4 7l25 14c4 2 7-4 3-6z"/><path d="M135 193l-8 5c-4 2 0 8 4 6l8-5c4-2 0-8-4-6z"/><path d="M132 210v-9c0-5-7-5-7 0v9c0 5 7 5 7 0z"/></g><g fill="#fff"><path d="M134 173l-25 15c-4 2 0 8 4 6l24-15c4-2 0-8-3-6z"/><path d="M125 171v9c0 5 7 5 7 0v-9c0-5-7-5-7 0z"/><path d="M139 182l-9-5c-4-2-7 4-3 6l8 5c4 2 8-4 4-6z"/></g><path d="M197 140c0 5-4 8-7 8h-55c-4 0-7-3-7-8V84c0-5 3-8 7-8h55c3 0 7 3 7 8v56z" fill="#fff" stroke="#fff" stroke-width="13" stroke-miterlimit="10"/><path d="M94 121a8 8 0 0 0 7 8h37a8 8 0 0 0 8-8V99a8 8 0 0 0-8-8h-37a8 8 0 0 0-7 8v22z" fill="#fff" stroke="#fff" stroke-width="13" stroke-miterlimit="10"/><path d="M78 121a8 8 0 0 1 8-8h45a8 8 0 0 1 8 8v12a8 8 0 0 1-8 8H86a8 8 0 0 1-8-8v-12zm171 27c0 5-3 8-7 8h-54c-4 0-7-3-7-8V91c0-4 3-7 7-7h54c4 0 7 3 7 7v57z" fill="#fff" stroke="#fff" stroke-width="13" stroke-miterlimit="10"/><path d="M233 142a8 8 0 0 0 8 8h37a8 8 0 0 0 8-8v-23a8 8 0 0 0-8-7h-37a8 8 0 0 0-8 7v23zm-31 15c0 5-3 8-7 8h-55c-3 0-6-3-6-8v-56c0-5 3-8 7-8h54c4 0 7 3 7 8v56z" fill="#fff" stroke="#fff" stroke-width="13" stroke-miterlimit="10"/><path d="M103 143a8 8 0 0 1 8-8h45a8 8 0 0 1 8 7v13a8 8 0 0 1-8 8h-45a8 8 0 0 1-8-8v-12z" fill="#fff" stroke="#fff" stroke-width="13" stroke-miterlimit="10"/><g fill="#fff"><path d="M169 145v28c0 5 7 5 7 0v-28c0-4-7-4-7 0z"/><path d="M163 151l8 5c4 2 8-4 4-6l-9-5c-4-3-7 3-3 6z"/><path d="M179 145l-8 4c-4 3 0 9 4 7l8-5c4-2 0-8-4-6zm-33 17l25 14c4 2 7-4 4-6l-25-14c-4-2-7 4-4 6z"/><path d="M148 170l9-4c4-3 0-9-4-6l-8 4c-4 3-1 9 3 6z"/><path d="M151 153v10c0 4 7 4 7 0v-10c0-4-7-4-7 0zm-1 37l25-14c3-2 0-8-4-6l-24 14c-4 2-1 8 3 6z"/><path d="M158 193v-10c0-4-7-4-7 0v10c0 4 7 4 7 0z"/><path d="M145 182l8 4c4 3 8-3 4-6l-9-4c-4-3-7 3-3 6zm31 19v-28c0-4-7-4-7 0v28c0 5 7 5 7 0z"/><path d="M183 196l-8-5c-4-3-8 3-4 6l8 4c4 3 8-3 4-5z"/><path d="M166 202l9-5c4-3 0-9-4-6a22219 22219 0 0 1-8 4c-4 3 0 9 3 7zm33-18l-24-14c-4-2-8 4-4 6l25 14c4 2 7-4 3-6z"/><path d="M197 176l-8 4c-4 3 0 9 4 7l8-5c4-3 0-9-4-6z"/><path d="M194 193v-10c0-4-7-4-7 0v10c0 4 7 4 7 0zm2-37l-25 14c-4 2 0 8 4 6l24-14c4-2 0-8-3-6z"/><path d="M187 153v10c0 4 7 4 7 0v-10c0-4-7-4-7 0z"/><path d="M201 164l-8-4c-4-3-8 3-4 6l8 4c4 3 8-3 4-5z"/></g><g fill="#fff"><path d="M253 170l-20 20c-3 3 2 8 5 5l20-20c3-4-2-9-5-5z"/><path d="M244 169l3 10c1 4 8 2 7-2l-3-10c-1-4-8-2-7 2z"/><path d="M260 177l-9-3c-4-1-6 6-2 7l9 2c5 2 7-5 2-6zm-35-11l7 27c2 4 8 2 7-2l-7-27c-1-5-8-3-7 1z"/><path d="M220 173l9 2c5 2 7-5 2-6l-9-3c-4-1-6 6-2 7z"/><path d="M235 163l-7 6c-3 4 1 9 5 6l6-7c4-4-1-9-4-5zm-27 25l27 7c4 2 6-5 2-6l-28-8c-4-1-6 6-2 7z"/><path d="M212 196l6-7c3-3-2-8-5-5l-7 7c-3 3 2 8 6 5z"/><path d="M210 178l2 10c2 4 8 2 7-2l-2-9c-1-5-8-3-7 1zm8 37l20-20c3-4-2-9-5-5l-20 20c-3 3 2 8 5 5z"/><path d="M227 215l-3-9c-1-5-8-3-6 2l2 9c1 4 8 2 7-2z"/><path d="M211 208l9 2c5 1 6-5 2-7l-9-2c-4-1-6 5-2 7zm35 11l-7-28c-1-4-8-2-7 2l8 27c1 5 8 3 6-1z"/><path d="M251 211l-9-2c-4-1-6 5-2 7l9 2c5 1 6-5 2-7z"/><path d="M237 221l7-6c3-4-2-8-5-5l-7 6c-3 4 2 9 5 5zm27-25l-27-7c-5-1-7 5-2 6l27 8c4 1 6-6 2-7z"/><path d="M260 188l-7 7c-3 3 2 8 5 5l7-7c3-3-2-8-5-5z"/><path d="M262 206l-3-10c-1-4-8-2-7 2l3 10c1 4 8 2 7-2z"/></g><g fill="#fff"><path d="M200 220l-20 20c-3 4 2 9 5 5l20-20c4-3-1-8-5-5z"/><path d="M192 220l2 9c1 5 8 3 7-2l-3-9c-1-4-8-2-6 2z"/><path d="M208 227l-10-2c-4-1-6 5-2 7l10 2c4 1 6-5 1-7zm-36-11l8 28c1 4 7 2 6-2l-7-28c-1-4-8-2-7 2z"/><path d="M167 224l10 2c4 1 6-6 2-7l-10-2c-4-1-6 5-2 6z"/><path d="M182 213l-7 7c-3 3 2 8 5 5l7-7c3-3-2-8-5-5zm-27 26l27 7c4 1 6-6 2-7l-27-7c-5-1-7 6-2 7z"/><path d="M159 247l6-7c4-3-1-8-4-5l-7 7c-3 3 2 8 5 5z"/><path d="M157 229l3 9c1 5 7 3 6-2l-2-9c-1-4-8-2-7 2zm8 36l20-20c4-3-1-8-5-5l-20 20c-3 4 2 8 5 5z"/><path d="M174 266l-2-10c-2-4-8-2-7 2l2 10c2 4 8 2 7-2z"/><path d="M158 258l9 3c5 1 7-6 2-7l-9-2c-4-2-6 5-2 6zm36 11l-8-27c-1-4-8-3-7 2l8 27c1 5 8 3 7-2z"/><path d="M198 262l-9-2c-4-2-6 5-2 6l10 3c4 1 6-6 2-7z"/><path d="M184 272l7-7c3-3-2-8-5-5l-7 7c-3 3 2 8 5 5zm27-25l-27-7c-5-2-6 5-2 6l27 8c5 1 6-6 2-7z"/><path d="M207 239l-7 7c-3 3 2 8 5 5l7-7c3-3-2-8-5-5z"/><path d="M209 256l-3-9c-1-4-8-2-6 2l2 9c1 5 8 3 7-2z"/></g><g fill="#fff"><path d="M113 231v28c0 5 7 5 7 0v-28c0-5-7-5-7 0z"/><path d="M107 237l8 4c4 3 7-3 3-5l-8-5c-4-3-7 3-3 6z"/><path d="M123 231l-8 4c-4 3-1 9 3 7l9-5c3-3 0-9-4-6zm-33 17l25 14c4 2 7-4 3-6l-24-14c-4-3-8 3-4 6z"/><path d="M92 256l8-4c4-3 1-9-3-6l-8 4c-4 2-1 9 3 6z"/><path d="M95 239v10c0 4 7 4 7 0v-10c0-4-7-4-7 0zm-1 37l24-14c4-2 1-8-3-6l-25 14c-4 2 0 8 4 6z"/><path d="M102 279v-10c0-4-7-4-7 0v10c0 4 7 4 7 0z"/><path d="M89 268l8 4c4 3 7-3 4-6l-9-4c-4-3-7 3-3 6zm31 19v-28c0-5-7-5-7 0v28c0 5 7 5 7 0z"/><path d="M127 281l-9-4c-4-3-7 3-3 6l8 4c4 3 7-3 4-5z"/><path d="M110 288l9-5c3-3 0-9-4-6a22219 22219 0 0 1-8 4c-4 3-1 9 3 6zm33-18l-24-14c-4-2-8 4-4 6l25 14c3 3 7-3 3-6z"/><path d="M141 262l-8 4c-4 3 0 9 3 6l9-4c4-3 0-9-4-6z"/><path d="M138 279v-10c0-4-7-4-7 0v10c0 4 7 4 7 0zm1-37l-24 14c-4 2 0 8 4 6l24-14c4-2 0-8-3-6z"/><path d="M131 239v10c0 4 7 4 7 0v-10c0-4-7-4-7 0z"/><path d="M145 250l-9-4c-4-3-7 3-3 6l8 4c4 3 7-3 4-6z"/></g></svg>