<svg xmlns="http://www.w3.org/2000/svg" width="361" height="361"><path d="M282 96v191c0 6 10 6 10 0V96c0-6-10-6-10 0z" fill="#fff"/><path fill="none" stroke="#fff" stroke-width="10" stroke-miterlimit="10" d="M95 127l117-51m-106 81l125-13"/><path fill="#fff" d="M212 76l65 19-46 49z"/><path d="M211 80l65 20-2-9-47 49 9 3-19-69c-1-6-11-3-9 3l18 68c1 4 6 5 8 2l47-49a5 5 0 0 0-3-8l-64-19c-6-2-9 8-3 9zm-90 72a7 7 0 0 1-5 9l-10 2a7 7 0 0 1-8-5l-8-29a7 7 0 0 1 5-8l10-3a7 7 0 0 1 9 5l7 29zm40-6c1 4-1 8-5 9l-10 3c-3 1-7-2-8-7l-9-35c-1-5 1-9 4-10l10-3c4-1 8 2 9 7l9 36zm43-8c1 6-1 11-5 12l-9 3c-4 1-8-3-10-9l-11-45c-1-5 1-11 4-12l10-2c4-1 8 3 9 8l12 45z" fill="#fff"/><path d="M89 231l-2-1-12 11s0 2 2 3l41 41c1 1 2 2 3 1l11-11-1-3-42-41z" fill="none" stroke="#fff" stroke-width="10" stroke-miterlimit="10"/><path d="M147 283l10-74c0-2-3-5-5-5l-74 10c-4 1-7 5-4 9l64 64c5 4 12-3 7-7l-63-64-4 8 74-10-5-5-10 74c-1 6 9 6 10 0z" fill="#fff"/></svg>