<svg xmlns="http://www.w3.org/2000/svg" width="361" height="361"><path d="M87.7 194.6a55.8 55.8 0 0 1 19.2-75.6c5.5-3.4.5-12-5-8.7A66 66 0 0 0 79 199.6c3.2 5.6 11.8.6 8.6-5z" fill="#fff"/><path d="M163.2 213.6a55.8 55.8 0 0 1-75.7-19.2c-3.3-5.5-12-.5-8.6 5a66 66 0 0 0 89.3 22.9c5.6-3.3.6-11.9-5-8.7z" fill="#fff"/><path d="M165.7 213c-22.6 2.9-47.7-11.7-59.3-30.7-2.4-4-10-2.7-9.4 2.5v.1l9.4-2.5c-11-19.1-9-46.7 2.3-65.3 3.3-5.6-5.3-10.6-8.6-5-13 21.6-15 53.1-2.3 75.4 2.3 4 9.9 2.6 9.3-2.6l-9.4 2.4c13.3 21.7 42 39 68 35.6 6.3-.8 6.4-10.8 0-10zm80-82.8l22.6-.3c2 0 2-3 0-3l-22.6.3c-2 0-2 3 0 3zm-49.8-22.7h87c2 0 2-3 0-3h-87c-2 0-2 3 0 3zm-24.3 5.6h118.7c2 0 2-3 0-3H171.6c-2 0-2 3 0 3zm-29.5 17H210c1.9 0 1.9-3 0-3h-68c-1.9 0-1.9 3 0 3zm54.9 3.1h-50.6c-2 0-2 3 0 3H197c1.9 0 1.9-3 0-3zm81.6 49.9h-33.7c-1.9 0-1.9 3 0 3h33.7c1.9 0 1.9-3 0-3zm11.3-5.6h-80c-2 0-2 3 0 3h80c2 0 2-3 0-3z" fill="#fff"/><path d="M120.4 153.5h102.4c2 0 2-3 0-3H120.4c-2 0-2 3 0 3zm30.2 6.6h97.9c2 0 2-3 0-3h-97.9c-2 0-2 3 0 3zm54.2-39.3h-50.6c-1.9 0-1.9 3 0 3h50.6c2 0 2-3 0-3z" fill="#fff"/><path d="M231.8 235.5a2.8 2.8 0 0 1 0 5.5 2.8 2.8 0 1 1 0-5.5zm-36.5-40.7a2.9 2.9 0 0 1 3 2.9 2.9 2.9 0 0 1-3 2.9 2.9 2.9 0 0 1-2.9-3 2.9 2.9 0 0 1 3-2.8zm18.5 35.6c1.2 0 2 1 2 2v.7a2 2 0 0 1-2 2h-.6a2 2 0 0 1-2-2v-.7c0-1 .8-2 2-2h.6z" fill="#fff" stroke="#fff" stroke-miterlimit="10"/><g fill="#fff"><path d="M210.7 219.6c.7 0 1.3.6 1.3 1.4v.4c0 .7-.6 1.3-1.3 1.3h-.5a1.4 1.4 0 0 1-1.3-1.3v-.4c0-.8.6-1.4 1.3-1.4h.5z"/><path d="M210.7 221.1h-.2c.3.1 0 0 0 0v.3l.1-.2c-.2.3 0 0 0 0h-.4l.2.2c-.3-.2 0-.1 0 0v-.4l-.1.1c.2-.2 0 0 0 0h.4c1.9 0 1.9-3 0-3-.7 0-1.3 0-1.9.4-1 .4-1.4 1.5-1.4 2.5a3 3 0 0 0 2.8 3.3c1.8 0 3.2-1.1 3.3-2.9.1-1.8-1-3.2-2.8-3.3-.8 0-1.5.7-1.5 1.5 0 .9.7 1.5 1.5 1.5z"/></g><g fill="#fff" stroke="#fff" stroke-width="10" stroke-miterlimit="10"><path d="M196 254c0 4.3-3.2 8-7.2 8H133c-4 0-7.2-3.7-7.2-8v-58.2c0-4.5 3.3-8 7.2-8h55.8c4 0 7.2 3.5 7.2 8v58.1z"/><path d="M93.4 243.1c0-6.5 4.3-11.7 9.6-11.7h55.4c5.3 0 9.6 5.2 9.6 11.7v18.7c0 6.5-4.3 11.8-9.6 11.8H103c-5.3 0-9.6-5.3-9.6-11.8v-18.7zM249.7 270c0 4.5-3.2 8-7.2 8h-55.8c-4 0-7.2-3.5-7.2-8v-58.1c0-4.4 3.2-8 7.2-8h55.8c4 0 7.2 3.6 7.2 8V270z"/><path d="M233.4 263.3a8 8 0 0 0 8 8H279a8 8 0 0 0 8-8v-22.8a8 8 0 0 0-8-8h-37.5a8 8 0 0 0-8 8v22.8zm-31.8 16c0 4.4-3.3 8-7.2 8h-55.8c-4 0-7.2-3.6-7.2-8v-58.1c0-4.5 3.2-8 7.2-8h55.8c4 0 7.2 3.5 7.2 8v58z"/><path d="M74.9 225.6c0-6.5 4.3-11.7 9.6-11.7h45.4c5.3 0 9.6 5.2 9.6 11.7v12.7c0 6.5-4.3 11.8-9.6 11.8H84.5c-5.3 0-9.6-5.3-9.6-11.8v-12.7z"/></g></svg>