<svg xmlns="http://www.w3.org/2000/svg" width="361" height="361"><path d="M196.2 141c0 4.4-3.1 8-7 8h-54.5c-4 0-7-3.6-7-8V84.3c0-4.3 3-7.8 7-7.8h54.5c3.9 0 7 3.5 7 7.8v56.9z" fill="#fff" stroke="#fff" stroke-width="13.1" stroke-miterlimit="10"/><path d="M93 121.5a7.8 7.8 0 0 0 7.8 7.8h36.6a7.8 7.8 0 0 0 7.9-7.8V99.3a7.8 7.8 0 0 0-7.9-7.9h-36.6a7.8 7.8 0 0 0-7.8 7.9v22.2z" fill="#fff" stroke="#fff" stroke-width="13.1" stroke-miterlimit="10"/><path d="M77.3 121.5a7.8 7.8 0 0 1 7.9-7.9h45a7.8 7.8 0 0 1 7.9 7.9v12.4a7.8 7.8 0 0 1-7.9 7.8h-45a7.8 7.8 0 0 1-7.9-7.8v-12.4z" fill="#fff" stroke="#fff" stroke-width="13.1" stroke-miterlimit="10"/><path d="M144.3 132l-16.5 28.6c-3.2 5.6 5.4 10.6 8.7 5l16.5-28.5c3.2-5.6-5.5-10.7-8.7-5.1z" fill="#fff"/><path d="M248.7 149c0 4.2-3.2 7.7-7 7.7H187c-3.9 0-7-3.5-7-7.8V92.1c0-4.3 3.1-7.8 7-7.8h54.5c4 0 7 3.5 7 7.8v56.8z" fill="#fff" stroke="#fff" stroke-width="13.1" stroke-miterlimit="10"/><path d="M232.8 142.4a7.8 7.8 0 0 0 7.8 7.8h36.6a7.8 7.8 0 0 0 7.8-7.8v-22.2a7.8 7.8 0 0 0-7.8-7.9h-36.6a7.8 7.8 0 0 0-7.8 7.9v22.2zM201.6 158c0 4.3-3.1 7.8-7 7.8h-54.5c-3.9 0-7-3.5-7-7.8v-56.9c0-4.3 3.1-7.8 7-7.8h54.5c3.9 0 7 3.5 7 7.8V158z" fill="#fff" stroke="#fff" stroke-width="13.1" stroke-miterlimit="10"/><path d="M212.5 198.7l-13.9 23.9c-3.2 5.6 5.4 10.6 8.7 5l13.9-23.8c3.2-5.6-5.4-10.7-8.7-5zm28.3-48.3l-14 23.9c-3.2 5.5 5.5 10.6 8.7 5l14-23.8c3.2-5.6-5.5-10.6-8.7-5zm-70.3 67.2l-13.8 23.8c-3.3 5.6 5.4 10.7 8.6 5l13.9-23.8c3.2-5.5-5.4-10.6-8.7-5zm28.3-48.3l-14 23.8c-3.2 5.6 5.5 10.7 8.7 5l14-23.8c3.2-5.6-5.5-10.6-8.7-5zM227 121l-13.9 23.8c-3.2 5.6 5.4 10.7 8.7 5l13.9-23.8c3.2-5.6-5.4-10.6-8.7-5zm-92.7 110l-8.7 15c-3.3 5.6 5.4 10.6 8.6 5l8.7-15c3.3-5.5-5.4-10.5-8.6-5zm28.2-48.3l-13.8 23.9c-3.3 5.6 5.4 10.6 8.6 5l13.9-23.8c3.2-5.6-5.4-10.6-8.7-5zm28.3-48.3l-14 23.9c-3.2 5.5 5.5 10.6 8.7 5l14-23.8c3.2-5.6-5.5-10.6-8.7-5zm-67.4 60.3l-14 23.9c-3.2 5.6 5.5 10.6 8.7 5l13.9-23.8c3.3-5.6-5.4-10.7-8.6-5zm28.2-48.3l-13.9 23.9c-3.2 5.5 5.4 10.6 8.6 5l14-23.8c3.2-5.6-5.5-10.6-8.7-5z" fill="#fff"/></svg>