<svg xmlns="http://www.w3.org/2000/svg" width="361" height="361"><path d="M180 125.5c0 3.4-2.4 6-5.4 6h-42.3c-3 0-5.5-2.6-5.5-6V81.4c0-3.4 2.4-6.1 5.5-6.1h42.3c3 0 5.5 2.7 5.5 6v44.2z" fill="#fff" stroke="#fff" stroke-width="10" stroke-miterlimit="10"/><path d="M87 110.3a6 6 0 0 0 6 6h28.4a6 6 0 0 0 6.1-6V93a6 6 0 0 0-6-6H93a6 6 0 0 0-6 6v17.3z" fill="#fff" stroke="#fff" stroke-width="10" stroke-miterlimit="10"/><path d="M74.8 110.3a6 6 0 0 1 6-6.1h35a6 6 0 0 1 6.1 6v9.7a6 6 0 0 1-6 6.1h-35a6 6 0 0 1-6.2-6v-9.7z" fill="#fff" stroke="#fff" stroke-width="10" stroke-miterlimit="10"/><path d="M120.4 163l-15.7 27.2c-2.2 3.9 3.8 7.4 6.1 3.5l15.6-27.1c2.3-4-3.7-7.4-6-3.5zm6.8-36.1l-16.8 29c-2.2 3.9 3.8 7.4 6 3.5l16.8-29c2.3-3.9-3.8-7.4-6-3.5zm-3.6-24.3l-16.7 29c-2.3 3.9 3.8 7.4 6 3.5l16.7-29c2.3-3.9-3.7-7.4-6-3.5zm-27.8 46.2L80 176c-2.2 4 3.8 7.5 6 3.6l15.7-27.1c2.3-4-3.8-7.5-6-3.6zm3.7 22l-15.6 27c-2.3 4 3.8 7.5 6 3.6l15.7-27.1c2.3-4-3.8-7.5-6-3.6zM243 156.5l-15.7 27.1c-2.2 4 3.8 7.5 6 3.6l15.7-27.1c2.3-4-3.8-7.5-6-3.6zm-.7-29l-16.7 29c-2.3 4 3.8 7.5 6 3.6l16.8-29c2.2-4-3.8-7.5-6-3.5zm-25.1 44l-15.7 27c-2.2 4 3.8 7.5 6 3.6l15.7-27c2.3-4-3.8-7.5-6-3.6zm2.3-34.9l-16.7 29c-2.3 4 3.8 7.5 6 3.6l16.8-29c2.2-4-3.8-7.5-6-3.6z" fill="#fff"/><path d="M220.8 131.6c0 3.4-2.4 6-5.5 6H173c-3 0-5.5-2.6-5.5-6V87.5c0-3.4 2.5-6.1 5.5-6.1h42.3c3 0 5.5 2.7 5.5 6v44.2z" fill="#fff" stroke="#fff" stroke-width="10" stroke-miterlimit="10"/><path d="M208.5 126.5a6 6 0 0 0 6 6.1H243a6 6 0 0 0 6-6v-17.3a6 6 0 0 0-6-6.1h-28.4a6 6 0 0 0-6.1 6v17.3zm-22.7 21.6c0 3.3-2.4 6-5.4 6H138c-3 0-5.4-2.7-5.4-6v-44.2c0-3.3 2.4-6 5.5-6h42.3c3 0 5.4 2.7 5.4 6v44.2z" fill="#fff" stroke="#fff" stroke-width="10" stroke-miterlimit="10"/><path d="M166.3 182.1l17.4 11.7c3.8 2.5 7.3-3.5 3.5-6L169.8 176c-3.7-2.5-7.2 3.5-3.5 6z" fill="#fff"/><path d="M172.8 151.3l8.5 38.5c1 4.4 7.7 2.5 6.7-1.9l-8.4-38.5c-1-4.4-7.7-2.5-6.8 1.9zm-8.3 29L177 217c1.4 4.3 8.2 2.5 6.7-1.8l-12.3-36.8c-1.4-4.3-8.2-2.5-6.8 1.8z" fill="#fff"/><path d="M171 218.2l7.9 2c4.4 1 6.2-5.7 1.8-6.8l-7.8-2c-4.3-1-6.2 5.7-1.8 6.8z" fill="#fff"/><path d="M166.2 215l8.4 38.6c1 4.4 7.7 2.5 6.8-1.9l-8.5-38.5c-1-4.4-7.7-2.5-6.7 1.9zm-23.6-35.8l14.1 16.4c3 3.5 8-1.5 5-5l-14.1-16.3c-3-3.4-7.9 1.5-5 5z" fill="#fff"/><path d="M149.2 152l6 40c.7 4.4 7.4 2.5 6.8-1.9l-6-40c-.7-4.5-7.4-2.5-6.8 1.9zm-7.6 25.8l9.3 39.4c1 4.5 7.7 2.6 6.7-1.8l-9.2-39.4c-1-4.4-7.8-2.5-6.8 1.8zm140.2 29.4v79.5c0 6.4 10 6.4 10 0v-79.5c0-6.5-10-6.5-10 0z" fill="#fff"/><path fill="none" stroke="#fff" stroke-width="10" stroke-miterlimit="10" d="M206.8 220l48.9-21.4m-44.6 34l52.2-5.5"/><path fill="#fff" d="M255.7 198.6l27 8-19.4 20.5z"/><path d="M254.3 203.4l27 8.1-2.2-8.4-19.3 20.5 8.3 2.2-7.6-28.5c-1.7-6.2-11.3-3.6-9.7 2.6l7.7 28.6c1 3.5 5.8 5 8.3 2.2l19.4-20.5a5 5 0 0 0-2.2-8.3l-27-8.1c-6.2-1.9-8.8 7.8-2.7 9.6zm-36 28.7a3.6 3.6 0 0 1-2.6 4.3l-5 1.3a3.6 3.6 0 0 1-4.5-2.5l-3.8-15.2a3.6 3.6 0 0 1 2.7-4.3l5-1.3a3.6 3.6 0 0 1 4.4 2.5l3.9 15.2zm15.8-4.3c.5 1.9-.4 3.7-2 4.1l-4 1c-1.5.4-3.2-.8-3.7-2.6l-3.7-15c-.5-1.8.4-3.7 2-4l4-1c1.6-.4 3.2.7 3.7 2.6l3.7 15zm18-3c.5 2.3-.3 4.5-1.9 5l-4 1c-1.5.3-3.3-1.2-3.9-3.6l-4.7-18.7c-.5-2.4.3-4.6 1.8-5l4-1c1.6-.3 3.3 1.2 4 3.6l4.6 18.7z" fill="#fff"/><path d="M194.1 142c0 4.1 3.3 7.4 7.3 7.4h33.8c4 0 7.2-3.3 7.2-7.4v-21c0-4.1-3.2-7.5-7.2-7.5h-33.8c-4 0-7.3 3.4-7.3 7.5v21z" fill="#fff" stroke="#fff" stroke-width="11.4" stroke-miterlimit="10"/><path d="M153.4 108.5a6.3 6.3 0 0 1 6.3-6.3h36.5a6.3 6.3 0 0 1 6.4 6.3v10a6.3 6.3 0 0 1-6.4 6.4h-36.5a6.3 6.3 0 0 1-6.3-6.3v-10z" fill="#fff" stroke="#fff" stroke-width="9.9" stroke-miterlimit="10"/><path d="M172.8 129.3c0 3.2-2.1 5.7-4.8 5.7h-37c-2.7 0-4.8-2.5-4.8-5.7V87.8c0-3.1 2.1-5.7 4.8-5.7h37c2.7 0 4.8 2.6 4.8 5.7v41.5z" fill="#fff" stroke="#fff" stroke-width="8.6" stroke-miterlimit="10"/><path d="M245 128.8a6.3 6.3 0 0 0 6.4 6.3h29.7a6.3 6.3 0 0 0 6.3-6.3v-18a6.3 6.3 0 0 0-6.3-6.3h-29.7a6.3 6.3 0 0 0-6.3 6.3v18zm-99.9-6a6.3 6.3 0 0 0 6.4 6.3H181a6.3 6.3 0 0 0 6.3-6.4v-18a6.3 6.3 0 0 0-6.3-6.3h-29.6a6.3 6.3 0 0 0-6.4 6.3v18z" fill="#fff" stroke="#fff" stroke-width="9.9" stroke-miterlimit="10"/><path d="M202.4 82.1a6.3 6.3 0 0 1 6.3 6.3V125a6.3 6.3 0 0 1-6.3 6.3h-10.1a6.3 6.3 0 0 1-6.3-6.3V88.5a6.3 6.3 0 0 1 6.3-6.4h10z" fill="#fff" stroke="#fff" stroke-width="9.9" stroke-miterlimit="10"/><path d="M149.5 80.8a6.3 6.3 0 0 1 6.3-6.4h36.5a6.3 6.3 0 0 1 6.4 6.4v10a6.3 6.3 0 0 1-6.4 6.4h-36.5a6.3 6.3 0 0 1-6.3-6.4v-10z" fill="#fff" stroke="#fff" stroke-width="9.9" stroke-miterlimit="10"/><path d="M150.8 98.5a6.3 6.3 0 0 1-6.4 6.4H108a6.3 6.3 0 0 1-6.3-6.4v-10a6.3 6.3 0 0 1 6.3-6.4h36.5a6.3 6.3 0 0 1 6.4 6.4v10zm104.6 42.6a6.3 6.3 0 0 1-6.4-6.3V98.3a6.3 6.3 0 0 1 6.4-6.4h10a6.3 6.3 0 0 1 6.4 6.4v36.5a6.3 6.3 0 0 1-6.4 6.3h-10z" fill="#fff" stroke="#fff" stroke-width="9.9" stroke-miterlimit="10"/><path d="M271 136.2a6.3 6.3 0 0 1-6.4 6.4h-36.5a6.3 6.3 0 0 1-6.3-6.4v-10a6.3 6.3 0 0 1 6.3-6.4h36.5a6.3 6.3 0 0 1 6.4 6.4v10z" fill="#fff" stroke="#fff" stroke-width="9.9" stroke-miterlimit="10"/><path d="M226 75.5a6.3 6.3 0 0 1 6.4 6.4v36.5a6.3 6.3 0 0 1-6.4 6.4h-10a6.3 6.3 0 0 1-6.4-6.4V82a6.3 6.3 0 0 1 6.4-6.4h10zM94.2 125.8a6.3 6.3 0 0 1 6.3-6.4H137a6.3 6.3 0 0 1 6.4 6.4v10a6.3 6.3 0 0 1-6.4 6.4h-36.5a6.3 6.3 0 0 1-6.3-6.4v-10z" fill="#fff" stroke="#fff" stroke-width="9.9" stroke-miterlimit="10"/><path d="M115.3 103.5a6.3 6.3 0 0 1 6.4-6.3h36.5a6.3 6.3 0 0 1 6.4 6.3v10.1a6.3 6.3 0 0 1-6.4 6.4h-36.5a6.3 6.3 0 0 1-6.4-6.4v-10zm121-11.6a6.3 6.3 0 0 1 6.3 6.4v36.5a6.3 6.3 0 0 1-6.3 6.3h-10a6.3 6.3 0 0 1-6.4-6.3V98.3a6.3 6.3 0 0 1 6.3-6.4h10z" fill="#fff" stroke="#fff" stroke-width="9.9" stroke-miterlimit="10"/></svg>