<svg xmlns="http://www.w3.org/2000/svg" width="361" height="361"><path d="M262.1 96v190.7c0 6.4 10 6.4 10 0V96c0-6.4-10-6.4-10 0z" fill="#fff"/><path fill="none" stroke="#fff" stroke-width="10" stroke-miterlimit="10" d="M75.3 127l117.1-51.5M85.6 157l125.1-13"/><path fill="#fff" d="M192.4 75.5l64.7 19.3-46.4 49.1z"/><path d="M191 80.3l64.8 19.4-2.3-8.4-46.3 49 8.4 2.3-18.4-68.4c-1.6-6.2-11.3-3.6-9.6 2.6l18.3 68.4c1 3.6 5.8 5 8.4 2.3l46.3-49.1a5 5 0 0 0-2.2-8.4l-64.7-19.3c-6.2-1.9-8.8 7.8-2.6 9.6zm-90.3 72a6.9 6.9 0 0 1-5.1 8.2L86 163a6.9 6.9 0 0 1-8.5-4.8l-7.3-29a6.9 6.9 0 0 1 5.2-8.3l9.6-2.4a6.9 6.9 0 0 1 8.5 4.8l7.2 29.1zm40-6.7c1.2 4.5-1 8.8-4.7 9.8l-9.7 2.4c-3.7.9-7.7-2-8.8-6.4l-9-35.8c-1-4.5 1.1-8.8 4.8-9.8l9.7-2.4c3.7-1 7.7 2 8.8 6.4l9 35.8zm43-7.3c1.3 5.6-.6 10.9-4.3 11.8l-9.7 2.4c-3.7 1-7.9-2.8-9.3-8.3l-11.2-45c-1.4-5.6.5-10.9 4.2-11.8l9.7-2.4c3.7-1 7.9 2.8 9.3 8.4l11.2 45zm-93 120c0-3.5-.5-6-1.3-7.4a5.3 5.3 0 0 0-4.6-2.2 34.4 34.4 0 0 0-4.2.4v29.2H69.9v-36.5a74 74 0 0 1 7-1.5 58.3 58.3 0 0 1 4.3-.5l4.2-.2a15 15 0 0 1 10.9 3.5c1.5-1 3.3-2 5.3-2.6a19 19 0 0 1 13 .3c1.9.9 3.5 2 4.6 3.6a13.5 13.5 0 0 1 2.4 5.5c.4 2.1.6 4.5.6 7v21.4h-10.7v-20c0-3.5-.5-6-1.3-7.4a5.3 5.3 0 0 0-4.6-2.2c-.6 0-1.4.2-2.4.5a9.3 9.3 0 0 0-2.6 1c.4 1.2.6 2.3.7 3.6a50.3 50.3 0 0 1 .1 3.9v20.6H90.7v-20zm45.4 33.3h-11l24.2-69.7h10.9l-24 69.7zm36-21c2 0 3.3-.2 4.1-.6.8-.3 1.2-1 1.2-2.2 0-.8-.5-1.6-1.5-2.3a30.1 30.1 0 0 0-4.9-2.1c-1.6-.7-3.2-1.3-4.5-2s-2.6-1.5-3.5-2.4a9.8 9.8 0 0 1-2.3-3.3c-.5-1.3-.8-2.9-.8-4.7a10 10 0 0 1 4-8.4 17 17 0 0 1 10.9-3.1 34.8 34.8 0 0 1 11.6 1.9l-1.8 8.4a39.2 39.2 0 0 0-4.1-1.2c-1.5-.3-3.1-.5-5-.5-3.3 0-5 1-5 2.8l.3 1.2c0 .3.4.6.8 1l1.8 1 2.8 1.1 5.9 2.6a14 14 0 0 1 3.6 2.8c.9 1 1.5 2 1.9 3.2s.5 2.6.5 4.2c0 3.7-1.4 6.6-4.2 8.5a21 21 0 0 1-12 2.8 34.3 34.3 0 0 1-13-2.3l1.8-8.7a35.2 35.2 0 0 0 5.7 1.7 27.4 27.4 0 0 0 5.7.6z" fill="#fff"/></svg>