<svg xmlns="http://www.w3.org/2000/svg" width="361" height="361"><path d="M262 96v191c0 6 10 6 10 0V96c0-6-10-6-10 0z" fill="#fff"/><path fill="none" stroke="#fff" stroke-width="10" stroke-miterlimit="10" d="M75 127l117-51M86 157l125-13"/><path fill="#fff" d="M192 76l65 19-46 49z"/><path d="M191 80l65 20-2-9-47 49 9 3-19-69c-1-6-11-3-9 3l18 68c1 4 6 5 8 2l47-49a5 5 0 0 0-3-8l-64-19c-6-2-9 8-3 9zm-90 72a7 7 0 0 1-5 9l-10 2a7 7 0 0 1-8-5l-8-29a7 7 0 0 1 5-8l10-3a7 7 0 0 1 9 5l7 29zm40-6c1 4-1 8-5 9l-10 3c-3 1-7-2-9-7l-8-35c-1-5 1-9 4-10l10-3c4-1 8 2 9 7l9 36zm43-8c1 6-1 11-5 12l-9 3c-4 1-8-3-10-9l-11-45c-1-5 1-11 4-12l10-2c4-1 8 3 9 8l12 45zM80 255a667 667 0 0 0 3-4 144 144 0 0 0 4-3l3-4a252 252 0 0 0 2-3h12a470 470 0 0 1-7 9 201 201 0 0 1-8 8 48 48 0 0 1 5 4 110 110 0 0 1 4 6 81 81 0 0 1 4 5 73 73 0 0 1 3 5H93a197 197 0 0 0-3-4 99 99 0 0 0-3-4 61 61 0 0 0-7-8v16H70v-52l10-2v31zm51 4c0-4-1-6-2-7-1-2-2-2-4-2h-4v28h-11v-35a72 72 0 0 1 7-2 56 56 0 0 1 8 0l7 1 4 2 5-2a18 18 0 0 1 13 0l4 3a13 13 0 0 1 3 6v27h-10v-19l-1-7c-1-2-3-2-5-2a9 9 0 0 0-2 0l-3 1a46 46 0 0 1 1 7v20h-10v-19zm44 32h-11l24-67h10l-23 67zm27-13v-52l11-2v18a13 13 0 0 1 3-1 17 17 0 0 1 3 0l7 1 5 3a13 13 0 0 1 3 6v27h-10v-19l-1-7c-1-2-3-2-5-2h-5v28h-10z" fill="#fff"/></svg>