<svg xmlns="http://www.w3.org/2000/svg" width="361" height="361"><path d="M103.5 191.4h89.7c2 0 2-3 0-3h-89.7c-2 0-2 3 0 3zm-18 4.6H137c1.9 0 1.9-3 0-3H85.6c-2 0-2 3 0 3zM79 87.7h68.7c2 0 2-3 0-3H79c-2 0-2 3 0 3zm-6.7 5.6h59.2c1.9 0 1.9-3 0-3H72.2c-1.9 0-1.9 3 0 3zm168 30.6h46c2 0 2-3 0-3h-46c-2 0-2 3 0 3zm-4-4.6h41.3c2 0 2-3 0-3h-41.3c-2 0-2 3 0 3zM161.2 196l22.6-.3c2 0 2-3 0-3l-22.6.3c-2 0-2 3 0 3z" fill="#fff"/><g fill="#fff" stroke="#fff" stroke-width="13.1" stroke-miterlimit="10"><path d="M196.7 170.4c0 4.3-3.2 7.9-7 7.9H135c-3.9 0-7-3.5-7-7.9v-56.8c0-4.3 3.1-7.8 7-7.8h54.5c3.9 0 7 3.5 7 7.8v56.8z"/><path d="M103.5 150.8a7.8 7.8 0 0 0 7.8 7.9h36.6a7.8 7.8 0 0 0 7.8-7.9v-22.2a7.8 7.8 0 0 0-7.8-7.8h-36.6a7.8 7.8 0 0 0-7.8 7.8v22.2zM249 178.3c0 4.3-3.1 7.8-7 7.8h-54.5c-4 0-7-3.5-7-7.8v-56.9c0-4.3 3-7.8 7-7.8H242c3.9 0 7 3.5 7 7.8v56.9z"/><path d="M233.2 171.7a7.8 7.8 0 0 0 7.9 7.9h36.5a7.8 7.8 0 0 0 7.9-7.9v-22.2a7.8 7.8 0 0 0-7.9-7.8h-36.5a7.8 7.8 0 0 0-7.9 7.8v22.2z"/></g><path d="M169.8 199.7h118.3c2 0 2-3 0-3H169.8c-1.9 0-1.9 3 0 3zm-56.7 13.5h96.5c1.9 0 1.9-3 0-3H113c-2 0-2 3 0 3zm106.6 1.8h-72c-2 0-2 3 0 3h72c2 0 2-3 0-3zm44.7 12h-96.5c-2 0-2 3 0 3h96.5c1.9 0 1.9-3 0-3zM81.9 149.3h59c2 0 2-3 0-3H82c-2 0-2 3 0 3zm-7 4.5h59c2 0 2-3 0-3H75c-2 0-2 3 0 3zm53.4 80.4h118.3c2 0 2-3 0-3H128.3c-1.9 0-1.9 3 0 3zm-56.7 8.5h96.5c1.9 0 1.9-3 0-3H71.6c-2 0-2 3 0 3zm199.6-41.2h-72c-2 0-2 3 0 3h72c2 0 2-3 0-3zM145.8 244H96c-2 0-2 3 0 3h50c1.9 0 1.9-3 0-3zm144.3 18h-96.5c-2 0-2 3 0 3h96.5c1.9 0 1.9-3 0-3zm-104.3-1.3h50c1.9 0 1.9-3 0-3h-50c-1.9 0-1.9 3 0 3zm16.8-11.7H106c-2 0-2 3 0 3h96.5c1.9 0 1.9-3 0-3zm8.7 20.7h50c1.9 0 1.9-3 0-3h-50c-1.9 0-1.9 3 0 3z" fill="#fff"/></svg>