<svg xmlns="http://www.w3.org/2000/svg" width="361" height="361"><path d="M193.5 291.7v-45.1l9-1.5v15.1a17 17 0 0 1 2.3-.5 14.4 14.4 0 0 1 2.7-.3c2.5 0 4.7.3 6.4 1 1.7.7 3 1.7 4 3a11.5 11.5 0 0 1 2.2 4.6c.4 1.7.6 3.7.6 5.9v17.8h-8.9v-16.8c0-2.8-.4-4.9-1-6-.8-1.3-2.2-1.9-4.2-1.9a12.3 12.3 0 0 0-4.2.7v24h-8.9zm48.4-42c6.2 0 11 1 14.3 3.2 3.3 2.2 5 5.7 5 10.7 0 5-1.7 8.6-5 10.8a26 26 0 0 1-14.5 3.4h-2.9v13.9h-9.4v-41a53 53 0 0 1 6.5-.8 87 87 0 0 1 6-.3zm.6 7.9a34 34 0 0 0-3.7.2v12h3a16 16 0 0 0 7.3-1.3c1.6-1 2.4-2.6 2.4-5a6 6 0 0 0-.6-2.8 4.8 4.8 0 0 0-1.8-1.9 8.1 8.1 0 0 0-2.9-1 23.4 23.4 0 0 0-3.7-.2zm35.1 1.7c2.7 0 4.9.3 6.6.9 1.8.6 3.2 1.4 4.3 2.6a9.5 9.5 0 0 1 2.2 4c.5 1.6.7 3.4.7 5.4v18.6l-5.4 1a50 50 0 0 1-13.8 0 12 12 0 0 1-4.3-1.8 8.1 8.1 0 0 1-2.7-3.2 11 11 0 0 1-1-4.9c0-1.8.4-3.3 1.1-4.6a8.5 8.5 0 0 1 3-3 13.4 13.4 0 0 1 4.2-1.7 23.9 23.9 0 0 1 10.3 0v-.9a5 5 0 0 0-1.4-3.6c-1-1-2.5-1.4-4.8-1.4a29.3 29.3 0 0 0-8.3 1.3l-1.2-7.2a29.6 29.6 0 0 1 4.5-1 54 54 0 0 1 3-.4 31.7 31.7 0 0 1 3-.1zm.7 26.1a50.5 50.5 0 0 0 4.5-.2v-6.8a18.3 18.3 0 0 0-6-.2c-.7.1-1.4.3-2 .6-.5.3-1 .6-1.2 1.1a3.2 3.2 0 0 0-.5 1.8c0 1.4.4 2.4 1.4 3 1 .5 2.2.7 3.8.7zM212.9 147L107 252.8l-14.7 14.8c-1.4 1.3.7 3.5 2 2l106-105.6 14.8-14.8c1.3-1.3-.8-3.5-2.2-2z" fill="#fff"/><path d="M213.8 143.2a83.5 83.5 0 0 0-18.3 26.3c-2.5 6-3.6 13.4 1 18.5 3 3.4 8-1.6 5-5-3.3-3.6.3-11 2-14.5a78.5 78.5 0 0 1 15.2-20.3c3.2-3.2-1.8-8.2-5-5z" fill="#fff"/><path d="M213.8 143.2a84.4 84.4 0 0 1-20.4 15.2c-3.4 1.8-11 5.3-14.5 2-3.4-3-8.4 2-5 5 5.3 4.7 12.5 3.3 18.6 1a78.8 78.8 0 0 0 26.2-18.2c3.2-3.2-1.7-8.1-5-5z" fill="#fff"/><g fill="#fff"><path d="M76 271.1a10.7 10.7 0 0 1 14.8 0c3.4 3 8.3-1.9 5-5a17.8 17.8 0 0 0-24.8 0c-3.3 3.1 1.7 8 5 5z"/><path d="M95.8 290.9a17.8 17.8 0 0 0 0-24.7c-3-3.4-8 1.6-5 4.9a10.7 10.7 0 0 1 0 14.8c-3 3.4 2 8.3 5 5z"/></g><path d="M149 222.2a5.7 5.7 0 0 1-8 0l-1.2-1.2a5.7 5.7 0 0 1 0-8l1.5-1.5a5.7 5.7 0 0 1 8 0l1.2 1.1a5.7 5.7 0 0 1 0 8l-1.6 1.6z" fill="#fff" stroke="#fff" stroke-miterlimit="10"/><path d="M223.2 99.4l-14.7 21c-1 1.5 1.4 3.2 2.4 1.8l15.2-20.8c1-1.3-1.9-3.4-2.9-2zm20 16.5l-11.9 12c-1.2 1.3 1 3.5 2.3 2.3l12-11.8c1.3-1.2-1.3-3.7-2.5-2.5zm-9.7-8.7l-10.8 13c-1 1.3 1.3 3.4 2.4 2l11.1-12.7c1.1-1.3-1.6-3.6-2.7-2.3zm26.6 28.2l-20.8 15.3c-1.3 1 .4 3.4 1.8 2.4l21-14.8c1.5-1-.6-3.9-2-2.9zm7.2 10.8L253 155c-1.4 1 .2 3.6 1.6 2.8l14.6-8.6c1.5-.8-.4-4-1.8-3zm19.8 48.5l-16.5 3.7c-1.6.4-1 3.5.7 3.2l16.6-3.3c1.7-.3.9-4-.8-3.6zm-3.5-12.8l-24.5 7.7c-1.6.5-.8 3.3.9 2.9l24.7-7.2c1.7-.4.6-4-1-3.4zM252 125.3l-12.7 11c-1.3 1.2.7 3.6 2 2.5l13-10.8c1.3-1-1-3.8-2.3-2.7zm21.7 32.3l-15 7.6c-1.5.8-.1 3.6 1.4 2.9l15.2-7.3c1.6-.8 0-4-1.6-3.3zm5.5 11.9l-15.6 6.3c-1.6.7-.5 3.6 1.1 3l15.8-6c1.6-.6.3-4-1.3-3.3zm10.3 38.5l-16.8 2.2c-1.6.3-1.3 3.5.4 3.3l16.8-1.8c1.7-.2 1.3-4-.5-3.7zm1.2 27.5l-25.7-1c-1.7 0-1.8 3-.1 3.2l25.6 1.6c1.8.1 2-3.8.2-3.8zm0-14l-16.9.9c-1.7 0-1.5 3.4.2 3.4l16.8-.5c1.7 0 1.6-3.8-.1-3.7zM122.2 71l1.6 25.7c.2 1.7 3.3 1.5 3.3-.2l-1-25.7c0-1.7-4-1.5-3.9.2zm14-.3a94821.9 94821.9 0 0 0-.4 16.9c0 1.7 3.3 1.8 3.3.1L140 71c0-1.8-3.8-1.9-3.8-.2zM188.7 81l-6 15.8c-.6 1.6 2.4 2.8 3 1.2l6.4-15.6c.7-1.6-2.7-3-3.3-1.4zm-12.4-4l-7.1 24.7c-.5 1.6 2.4 2.5 2.9.9l7.7-24.6c.5-1.6-3-2.7-3.5-1zM150 71.7l-2 16.7c-.2 1.7 3 2.1 3.3.4l2.3-16.7c.2-1.7-3.5-2.2-3.7-.5zm13.3 2L160 90.2c-.4 1.7 2.8 2.4 3.1.7l3.7-16.4c.4-1.7-3.2-2.5-3.6-.8zm37.6 12.5l-7.3 15.2c-.7 1.6 2 3 2.9 1.5l7.6-15c.8-1.6-2.5-3.2-3.2-1.7zm11.5 6.2l-8.5 14.5c-.9 1.5 1.8 3.1 2.7 1.7l8.8-14.4c1-1.5-2.1-3.3-3-1.8z" fill="#fff"/></svg>