<svg xmlns="http://www.w3.org/2000/svg" width="361" height="361"><path d="M196.2 141c0 4.4-3.1 8-7 8h-54.5c-4 0-7-3.6-7-8V84.3c0-4.3 3-7.8 7-7.8h54.5c3.9 0 7 3.5 7 7.8v56.9z" fill="#fff" stroke="#fff" stroke-width="13.1" stroke-miterlimit="10"/><path d="M93 121.5a7.8 7.8 0 0 0 7.8 7.8h36.6a7.8 7.8 0 0 0 7.9-7.8V99.3a7.8 7.8 0 0 0-7.9-7.9h-36.6a7.8 7.8 0 0 0-7.8 7.9v22.2z" fill="#fff" stroke="#fff" stroke-width="13.1" stroke-miterlimit="10"/><path d="M77.3 121.5a7.8 7.8 0 0 1 7.9-7.9h45a7.8 7.8 0 0 1 7.9 7.9v12.4a7.8 7.8 0 0 1-7.9 7.8h-45a7.8 7.8 0 0 1-7.9-7.8v-12.4z" fill="#fff" stroke="#fff" stroke-width="13.1" stroke-miterlimit="10"/><path d="M173.8 171l-16.5 28.5c-3.2 5.6 5.4 10.7 8.6 5l16.5-28.5c3.3-5.6-5.4-10.6-8.6-5zm-3.5-24l-16.5 28.6c-3.2 5.6 5.4 10.6 8.6 5l16.5-28.5c3.3-5.6-5.4-10.7-8.6-5.1zm-26 45l-16.5 28.6c-3.2 5.6 5.4 10.6 8.6 5l16.5-28.5c3.3-5.6-5.4-10.6-8.6-5zm3.5-36l-16.5 28.5c-3.2 5.6 5.4 10.7 8.6 5l16.5-28.5c3.3-5.6-5.4-10.6-8.6-5zm-3.5-24l-16.5 28.6c-3.2 5.6 5.4 10.6 8.7 5l16.5-28.5c3.2-5.6-5.5-10.7-8.7-5.1zM112 218l-6 10.7c-3.3 5.6 5.3 10.6 8.5 5l6.2-10.6c3.2-5.6-5.4-10.6-8.7-5zm37.4-3.9l-16.5 28.6c-3.2 5.6 5.4 10.6 8.6 5l16.5-28.5c3.3-5.6-5.4-10.7-8.6-5zm80.5-42.1l-16.5 28.5c-3.2 5.6 5.4 10.7 8.6 5l16.5-28.5c3.3-5.6-5.4-10.6-8.6-5zm-3.5-24l-16.5 28.6c-3.2 5.6 5.4 10.6 8.6 5l16.5-28.5c3.3-5.6-5.4-10.7-8.6-5.1zm-24 42.2l-5 8.8c-3.3 5.6 5.4 10.6 8.6 5l5-8.7c3.3-5.6-5.3-10.6-8.6-5zm1.5-33.2l-16.5 28.5c-3.2 5.6 5.4 10.7 8.6 5l16.5-28.5c3.3-5.6-5.4-10.6-8.6-5zm-53.6 95.6l-4.5 7.8a5 5 0 0 0 1.8 6.8 5 5 0 0 0 6.9-1.8l4.4-7.7a5 5 0 0 0-1.8-6.9 5 5 0 0 0-6.8 1.8z" fill="#fff"/><path d="M248.7 149c0 4.2-3.2 7.7-7 7.7H187c-3.9 0-7-3.5-7-7.8V92.1c0-4.3 3.1-7.8 7-7.8h54.5c4 0 7 3.5 7 7.8v56.8z" fill="#fff" stroke="#fff" stroke-width="13.1" stroke-miterlimit="10"/><path d="M232.8 142.4a7.8 7.8 0 0 0 7.8 7.8h36.6a7.8 7.8 0 0 0 7.8-7.8v-22.2a7.8 7.8 0 0 0-7.8-7.9h-36.6a7.8 7.8 0 0 0-7.8 7.9v22.2zM201.6 158c0 4.3-3.1 7.8-7 7.8h-54.5c-3.9 0-7-3.5-7-7.8v-56.9c0-4.3 3.1-7.8 7-7.8h54.5c3.9 0 7 3.5 7 7.8V158z" fill="#fff" stroke="#fff" stroke-width="13.1" stroke-miterlimit="10"/><path d="M193.3 210.3l-7.9 27.2c-1.3 4.4 5.5 6.2 6.8 2l7.9-27.3c1.3-4.3-5.5-6.2-6.8-1.9z" fill="#fff"/><path d="M185.5 214.2l6.6 6.9c3.2 3.2 8-1.7 5-5l-6.6-6.9c-3.1-3.2-8 1.7-5 5z" fill="#fff"/><path d="M202.8 213l-9.3 2.2c-4.3 1-2.5 7.8 2 6.7l9.2-2.2c4.4-1.1 2.5-7.9-1.9-6.8zm-36 7.1l19.5 20.5c3.1 3.3 8-1.7 5-5l-19.7-20.4c-3-3.3-8 1.7-4.9 5z" fill="#fff"/><path d="M166.1 228.8l9.3-2.3c4.4-1 2.5-7.8-1.9-6.7l-9.2 2.2c-4.4 1.1-2.6 7.9 1.8 6.8z" fill="#fff"/><path d="M173.7 213.2l-2.7 9.1c-1.3 4.3 5.5 6.2 6.8 1.9l2.6-9.2c1.3-4.3-5.5-6.2-6.7-1.9z" fill="#fff"/><g fill="#fff"><path d="M162.2 248.2l27.6-6.7c4.3-1 2.5-7.8-1.9-6.7l-27.5 6.7c-4.4 1-2.6 7.8 1.8 6.7z"/><path d="M169.4 253.1l2.7-9.1c1.3-4.4-5.5-6.2-6.8-1.9l-2.6 9.2c-1.3 4.3 5.4 6.1 6.7 1.8z"/><path d="M159.7 238.7l6.6 7c3 3.2 8-1.8 5-5l-6.7-7c-3.1-3.2-8 1.8-5 5z"/></g><g fill="#fff"><path d="M184.2 266.4l8-27.2c1.3-4.4-5.5-6.2-6.8-1.9l-8 27.2c-1.2 4.4 5.6 6.2 6.8 1.9z"/><path d="M192 262.6l-6.5-7c-3.2-3.2-8.1 1.7-5 5l6.6 6.9c3.1 3.3 8-1.7 5-5z"/><path d="M174.8 263.8l9.2-2.3c4.4-1 2.6-7.8-1.8-6.7l-9.3 2.3c-4.4 1-2.5 7.8 1.9 6.7z"/></g><g fill="#fff"><path d="M211 256.4l-19.7-20.5c-3-3.3-8 1.7-4.9 5l19.6 20.4c3.1 3.3 8-1.7 5-5z"/><path d="M211.5 247.7l-9.2 2.3c-4.4 1-2.6 7.8 1.8 6.7l9.3-2.2c4.4-1.1 2.5-7.9-1.9-6.8z"/><path d="M204 263.4l2.6-9.2c1.3-4.3-5.4-6.2-6.7-1.9l-2.7 9.2c-1.2 4.3 5.5 6.2 6.8 1.9z"/></g><g fill="#fff"><path d="M215.4 228.3L188 235c-4.4 1-2.5 7.8 1.8 6.8l27.6-6.8c4.4-1 2.5-7.8-1.9-6.7z"/><path d="M208.3 223.4l-2.7 9.1c-1.3 4.4 5.5 6.2 6.7 2l2.7-9.3c1.3-4.3-5.5-6.1-6.8-1.8z"/><path d="M218 237.8l-6.6-7c-3.1-3.2-8 1.8-5 5l6.6 7c3.2 3.2 8.1-1.8 5-5z"/></g><g fill="#fff"><path d="M96.7 173.7v28.4c0 4.5 7 4.5 7 0v-28.4c0-4.5-7-4.5-7 0z"/><path d="M90.2 179.6l8.3 4.8c3.9 2.2 7.4-3.8 3.5-6l-8.3-4.8c-3.9-2.3-7.4 3.8-3.5 6z"/><path d="M106.6 173.6l-8.3 4.7c-3.9 2.3-.3 8.3 3.6 6l8.2-4.7c4-2.2.4-8.3-3.5-6zm-32.8 17l24.5 14.2c4 2.2 7.5-3.8 3.6-6l-24.6-14.2c-3.9-2.3-7.4 3.8-3.5 6z"/><path d="M75.7 199.2l8.2-4.8c4-2.3.4-8.3-3.5-6l-8.3 4.7c-3.9 2.3-.3 8.3 3.6 6z"/><path d="M78.6 182v9.5c0 4.5 7 4.5 7 0v-9.6c0-4.5-7-4.5-7 0zm-1.2 37l24.5-14.2c4-2.3.4-8.3-3.5-6l-24.4 14c-4 2.3-.4 8.3 3.5 6z"/><path d="M85.7 221.6v-9.5c0-4.5-7-4.5-7 0v9.5c0 4.5 7 4.5 7 0z"/><path d="M72.3 210.4l8.2 4.8c4 2.3 7.5-3.8 3.6-6l-8.3-4.8c-4-2.3-7.5 3.8-3.5 6zm31.4 19.8v-28.4c0-4.5-7-4.5-7 0v28.4c0 4.5 7 4.5 7 0z"/><path d="M110.2 224.3l-8.3-4.8c-3.9-2.2-7.4 3.8-3.5 6l8.3 4.9c3.9 2.2 7.4-3.8 3.5-6z"/><path d="M93.8 230.3l8.3-4.7c3.9-2.3.3-8.3-3.6-6a22219.4 22219.4 0 0 1-8.2 4.7c-4 2.3-.4 8.3 3.5 6zm32.8-17.2L102 198.9c-3.9-2.2-7.4 3.8-3.5 6l24.6 14.2c3.9 2.3 7.4-3.8 3.5-6z"/><path d="M124.7 204.5l-8.3 4.8c-3.9 2.3-.3 8.3 3.6 6l8.2-4.7c4-2.3.4-8.3-3.5-6z"/><path d="M121.8 221.8v-9.6c0-4.5-7-4.5-7 0v9.6c0 4.5 7 4.5 7 0zm1.2-37l-24.6 14.1c-3.9 2.3-.3 8.3 3.6 6l24.5-14c4-2.3.4-8.4-3.5-6.1z"/><path d="M114.7 182v9.6c0 4.5 7 4.5 7 0v-9.5c0-4.5-7-4.5-7 0z"/><path d="M128.1 193.3l-8.2-4.8c-4-2.3-7.5 3.8-3.6 6l8.3 4.8c4 2.3 7.4-3.8 3.5-6z"/></g><path d="M117.1 236.6l-13.7 23.8c-3.2 5.6 5.4 10.6 8.6 5l13.8-23.8c3.2-5.6-5.4-10.6-8.7-5zm17.4-100L118 165.4c-3.2 5.6 5.4 10.6 8.7 5l16.5-28.6c3.2-5.6-5.4-10.6-8.7-5zm-54.5 96a6629.4 6629.4 0 0 0-2.6 4.6 5 5 0 0 0 1.8 6.8 5 5 0 0 0 6.9-1.8 6629.4 6629.4 0 0 0 2.6-4.5 5 5 0 0 0-1.8-6.8 5 5 0 0 0-6.9 1.8z" fill="#fff"/></svg>