<svg xmlns="http://www.w3.org/2000/svg" width="361" height="361"><path d="M180 126c0 3-2 6-5 6h-43c-3 0-5-3-5-6V81c0-3 2-6 5-6h43c3 0 5 3 5 6v45z" fill="#fff" stroke="#fff" stroke-width="10" stroke-miterlimit="10"/><path d="M87 110a6 6 0 0 0 6 6h28a6 6 0 0 0 7-6V93a6 6 0 0 0-6-6H93a6 6 0 0 0-6 6v17z" fill="#fff" stroke="#fff" stroke-width="10" stroke-miterlimit="10"/><path d="M75 110a6 6 0 0 1 6-6h35a6 6 0 0 1 6 6v10a6 6 0 0 1-6 6H81a6 6 0 0 1-6-6v-10z" fill="#fff" stroke="#fff" stroke-width="10" stroke-miterlimit="10"/><path d="M120 163l-15 27c-2 4 4 8 6 4l15-27c3-4-3-8-6-4zm7-36l-17 29c-2 4 4 7 6 3l17-29c3-3-4-7-6-3zm-3-24l-17 29c-2 4 4 7 6 3l17-29c2-4-4-7-6-3zm-28 46l-16 27c-2 4 4 8 6 4l16-28c2-3-4-7-6-3zm4 22l-16 27c-2 4 4 7 6 3l16-27c2-4-4-7-6-3zm143-14l-16 27c-2 4 4 7 6 3l16-27c2-4-4-7-6-4zm-1-29l-16 29c-3 4 3 7 6 3l16-29c3-4-3-7-6-3zm-25 44l-15 27c-3 4 3 7 6 3l15-27c3-4-4-7-6-4zm3-35l-17 29c-2 4 4 7 6 3l17-29c2-4-4-7-6-3z" fill="#fff"/><path d="M221 132c0 3-3 6-6 6h-42c-3 0-5-3-5-6V88c0-4 2-7 5-7h42c3 0 6 3 6 6v45z" fill="#fff" stroke="#fff" stroke-width="10" stroke-miterlimit="10"/><path d="M209 127a6 6 0 0 0 6 6h28a6 6 0 0 0 6-6v-18a6 6 0 0 0-6-6h-28a6 6 0 0 0-7 6v18zm-23 21c0 3-3 6-6 6h-42c-3 0-5-3-5-6v-44c0-3 2-6 5-6h42c3 0 6 3 6 6v44z" fill="#fff" stroke="#fff" stroke-width="10" stroke-miterlimit="10"/><path d="M166 182l18 12c4 2 7-4 3-6l-17-12c-4-2-7 4-4 6z" fill="#fff"/><path d="M173 151l8 39c1 4 8 2 7-2l-8-39c-1-4-8-2-7 2zm-8 29l12 37c1 4 8 3 7-2l-13-37c-1-4-8-2-6 2z" fill="#fff"/><path d="M171 218l8 2c4 1 6-6 2-7l-8-2c-4-1-6 6-2 7z" fill="#fff"/><path d="M166 215l9 39c1 4 7 2 6-2l-8-39c-1-4-8-2-7 2zm-23-36l14 17c3 3 8-2 5-5l-14-17c-3-3-8 2-5 5z" fill="#fff"/><path d="M149 152l6 40c1 4 8 3 7-2l-6-40c-1-4-7-2-7 2zm-7 26l9 39c1 5 8 3 7-2l-10-39c-1-4-7-2-6 2zm140 29v80c0 6 10 6 10 0v-80c0-6-10-6-10 0z" fill="#fff"/><path fill="none" stroke="#fff" stroke-width="10" stroke-miterlimit="10" d="M207 220l49-21m-45 34l52-6"/><path fill="#fff" d="M256 199l27 8-20 20z"/><path d="M254 203l27 9-2-9-19 21 8 2-7-29c-2-6-12-3-10 3l8 28c1 4 5 5 8 3l19-21a5 5 0 0 0-2-8l-27-8c-6-2-9 8-3 9zm-36 29a4 4 0 0 1-2 4l-5 2a4 4 0 0 1-5-3l-4-15a4 4 0 0 1 3-4l5-2a4 4 0 0 1 4 3l4 15zm16-4c1 2 0 3-2 4l-4 1-4-3-3-15c-1-2 0-3 2-4l4-1c1 0 3 1 3 3l4 15zm18-3c1 2 0 4-2 5l-4 1c-1 0-3-1-4-4l-4-19c-1-2 0-4 1-4l4-1c2-1 4 1 4 3l5 19z" fill="#fff"/><path d="M194 142c0 4 3 7 7 7h34c4 0 7-3 7-7v-21c0-4-3-7-7-7h-34c-4 0-7 3-7 7v21z" fill="#fff" stroke="#fff" stroke-width="11" stroke-miterlimit="10"/><path d="M153 109a6 6 0 0 1 7-7h36a6 6 0 0 1 7 7v10a6 6 0 0 1-7 6h-36a6 6 0 0 1-7-6v-10z" fill="#fff" stroke="#fff" stroke-width="10" stroke-miterlimit="10"/><path d="M173 129c0 4-2 6-5 6h-37c-3 0-5-2-5-6V88c0-3 2-6 5-6h37c3 0 5 3 5 6v41z" fill="#fff" stroke="#fff" stroke-width="9" stroke-miterlimit="10"/><path d="M245 129a6 6 0 0 0 6 6h30a6 6 0 0 0 6-6v-18a6 6 0 0 0-6-6h-30a6 6 0 0 0-6 6v18zm-100-6a6 6 0 0 0 6 6h30a6 6 0 0 0 6-6v-18a6 6 0 0 0-6-7h-30a6 6 0 0 0-6 7v18z" fill="#fff" stroke="#fff" stroke-width="10" stroke-miterlimit="10"/><path d="M202 82a6 6 0 0 1 7 6v37a6 6 0 0 1-7 6h-10a6 6 0 0 1-6-6V89a6 6 0 0 1 6-7h10z" fill="#fff" stroke="#fff" stroke-width="10" stroke-miterlimit="10"/><path d="M150 81a6 6 0 0 1 6-7h36a6 6 0 0 1 7 7v10a6 6 0 0 1-7 6h-36a6 6 0 0 1-6-6V81z" fill="#fff" stroke="#fff" stroke-width="10" stroke-miterlimit="10"/><path d="M151 99a6 6 0 0 1-7 6h-36a6 6 0 0 1-6-6V89a6 6 0 0 1 6-7h37a6 6 0 0 1 6 6v11zm104 42a6 6 0 0 1-6-6V98a6 6 0 0 1 6-6h10a6 6 0 0 1 7 6v37a6 6 0 0 1-7 6h-10z" fill="#fff" stroke="#fff" stroke-width="10" stroke-miterlimit="10"/><path d="M271 136a6 6 0 0 1-6 7h-37a6 6 0 0 1-6-7v-10a6 6 0 0 1 6-6h37a6 6 0 0 1 6 6v10z" fill="#fff" stroke="#fff" stroke-width="10" stroke-miterlimit="10"/><path d="M226 76a6 6 0 0 1 6 6v36a6 6 0 0 1-6 7h-10a6 6 0 0 1-6-7V82a6 6 0 0 1 6-6h10zM94 126a6 6 0 0 1 6-7h37a6 6 0 0 1 6 7v10a6 6 0 0 1-6 6h-36a6 6 0 0 1-7-6v-10z" fill="#fff" stroke="#fff" stroke-width="10" stroke-miterlimit="10"/><path d="M115 104a6 6 0 0 1 7-7h36a6 6 0 0 1 7 7v10a6 6 0 0 1-7 6h-36a6 6 0 0 1-7-6v-10zm121-12a6 6 0 0 1 7 6v37a6 6 0 0 1-7 6h-10a6 6 0 0 1-6-6V98a6 6 0 0 1 6-6h10z" fill="#fff" stroke="#fff" stroke-width="10" stroke-miterlimit="10"/></svg>