<svg xmlns="http://www.w3.org/2000/svg" width="361" height="361"><path d="M146 214a67 67 0 0 1 67-66c6 0 6-10 0-10a77 77 0 0 0-77 76c0 7 10 7 10 0z" fill="#fff"/><path d="M213 280a67 67 0 0 1-67-66c0-6-10-6-10 0a77 77 0 0 0 77 76c6 0 6-10 0-10z" fill="#fff"/><path d="M215 281a77 77 0 0 1-42-68c0-5-7-7-10-2l10 2c0-26 19-54 42-66 6-3 1-12-5-8a92 92 0 0 0-47 74c0 5 7 7 9 3l-9-3c0 30 19 65 47 77 6 2 11-6 5-9z" fill="#fff"/><g fill="#fff"><path d="M131 127a3 3 0 1 1-5 0 3 3 0 0 1 5 0zM77 80a3 3 0 0 1-6 0 3 3 0 1 1 6 0zm40 16a2 2 0 0 1-2 2h-1a2 2 0 0 1-2-2v-1l2-2h1a2 2 0 0 1 2 2v1zm60-5a3 3 0 1 1-5 0 3 3 0 0 1 5 0zm-5 36a4 4 0 0 1-9 0 4 4 0 0 1 9 0z" stroke="#fff" stroke-miterlimit="10"/><path d="M100 81l-2 1a1 1 0 0 1-2-1l2-2 1 2z"/><path d="M98 81c0 2 3 2 3 0v-2l-3-1c-2 0-3 1-3 3s1 3 3 3a3 3 0 0 0 3-3l-1-1-2 1z"/><path d="M144 164a3 3 0 1 1-6 0 3 3 0 0 1 6 0zm-49-16a2 2 0 0 1-3 0l1-2a2 2 0 0 1 2 2zm142-41a3 3 0 1 1-6 0 3 3 0 0 1 6 0zM103 238a5 5 0 0 1-5 5 5 5 0 1 1 0-11 5 5 0 0 1 5 6zm11 29a2 2 0 0 1-3 0 2 2 0 0 1 1-2 2 2 0 0 1 2 2zM274 91a4 4 0 0 1-4 4h-2a4 4 0 0 1-4-4v-1a4 4 0 0 1 4-4h2a4 4 0 0 1 4 4v1z" stroke="#fff" stroke-miterlimit="10"/></g><path d="M282 246a76 76 0 0 1-53 41 76 76 0 0 1-66-18 76 76 0 0 1-24-62 76 76 0 0 1 37-58 76 76 0 0 1 89 9 76 76 0 0 1 17 88c-1 1 2 3 3 1a79 79 0 0 0-42-106c-41-17-89 6-103 48a79 79 0 0 0 45 97 79 79 0 0 0 100-39c0-2-2-3-3-1z" fill="#fff"/></svg>