<svg xmlns="http://www.w3.org/2000/svg" width="361" height="361"><path d="M183 286c1.1 0 2-.1 2.7-.3l1.7-.7c.4-.3.7-.7.8-1.1a3.2 3.2 0 0 0-1.3-4.1c-1-.7-2.8-1.5-5.3-2.3a39.7 39.7 0 0 1-3.2-1.4 12 12 0 0 1-3-1.8 9 9 0 0 1-2-2.8 8.6 8.6 0 0 1-.9-3.9c0-1.5.3-2.9.9-4.1a8.9 8.9 0 0 1 2.4-3.2 11.2 11.2 0 0 1 3.9-2c1.5-.4 3.2-.7 5-.7a20.7 20.7 0 0 1 9.9 2.3l-2.2 6a20.7 20.7 0 0 0-3-1.3c-1.2-.4-2.6-.6-4.2-.6-1.8 0-3 .3-3.8.8-.8.5-1.2 1.2-1.2 2.2 0 .7.1 1.2.4 1.6.3.4.7.8 1.3 1.1l1.8 1 2.3.8a48 48 0 0 1 4.5 1.9c1.3.6 2.3 1.3 3.2 2.1s1.4 1.8 1.9 3c.4 1 .6 2.5.6 4 0 3.2-1.1 5.6-3.3 7.3s-5.4 2.5-9.8 2.5c-1.5 0-2.8 0-4-.2a26 26 0 0 1-3.1-.7 18 18 0 0 1-2.4-.8 18.4 18.4 0 0 1-1.7-.8l2.2-6a18.7 18.7 0 0 0 9 2.2zm-8.2-126l9-38 8.4 38z" fill="#fff"/><path d="M176.3 160.4l9-38h-3l8.4 38 1.5-1.9h-17.4c-1.9 0-1.9 3 0 3h17.4c1 0 1.6-1 1.4-1.9l-8.4-38c-.3-1.5-2.5-1.4-2.9 0l-9 38c-.4 2 2.5 2.7 3 .8z" fill="#fff"/><path d="M239.1 177.2l-32-7.3 2.6 3.4c0-4.8.8-10.3-1.1-14.8-2.4-5.5-11.4-4-16-4l3.4 2.6-9.1-40.3c-.8-3.3-6-3.3-6.8 0l-9 40.3 3.3-2.6c-5.1 0-11.9-1.3-15.4 3.3-3 3.8-1.7 11-1.7 15.5l2.6-3.4-32 7.3c-3.4.8-3.4 6 0 6.7l32 7.3-2.6-3.4c0 3.9-1.4 11.7 1.1 15 4 5.2 10 4 15.9 4l-3.4-2.5 9.2 39.2c.8 3.3 6 3.4 6.8 0l9-39.2-3.4 2.5c4.9 0 12 1.4 15.4-3 3-4.1 1.8-11.2 1.8-16l-2.6 3.4 32-7.3c4.4-1 2.6-7.7-1.8-6.7l-32 7.2a3.5 3.5 0 0 0-2.6 3.4v10.5c0 2.6-8.4 1.5-10.2 1.5a3.5 3.5 0 0 0-3.3 2.6l-9 39.2h6.7l-9.2-39.2a3.5 3.5 0 0 0-3.4-2.6c-1.4 0-10 1-10-1.1v-10.9c0-1.5-1-3-2.5-3.4l-32-7.2v6.7l32-7.2c1.5-.3 2.5-1.9 2.5-3.4V163c0-2.7 8.2-1.5 10.1-1.5 1.5 0 3-1 3.4-2.6l9-40.2h-6.7l9.1 40.2a3.6 3.6 0 0 0 3.4 2.6c1.6 0 10-1 10 1.2v10.6c0 1.5 1.1 3 2.6 3.4l32 7.2c4.5 1 6.3-5.7 2-6.7z" fill="#fff"/></svg>