<svg xmlns="http://www.w3.org/2000/svg" width="361" height="361"><path d="M196.2 141c0 4.4-3.1 8-7 8h-54.5c-4 0-7-3.6-7-8V84.3c0-4.3 3-7.8 7-7.8h54.5c3.9 0 7 3.5 7 7.8v56.9z" fill="#fff" stroke="#fff" stroke-width="13.1" stroke-miterlimit="10"/><path d="M93 121.5a7.8 7.8 0 0 0 7.8 7.8h36.6a7.8 7.8 0 0 0 7.9-7.8V99.3a7.8 7.8 0 0 0-7.9-7.9h-36.6a7.8 7.8 0 0 0-7.8 7.9v22.2z" fill="#fff" stroke="#fff" stroke-width="13.1" stroke-miterlimit="10"/><path d="M77.3 121.5a7.8 7.8 0 0 1 7.9-7.9h45a7.8 7.8 0 0 1 7.9 7.9v12.4a7.8 7.8 0 0 1-7.9 7.8h-45a7.8 7.8 0 0 1-7.9-7.8v-12.4z" fill="#fff" stroke="#fff" stroke-width="13.1" stroke-miterlimit="10"/><path d="M173.8 171l-16.5 28.5c-3.2 5.6 5.4 10.7 8.6 5l16.5-28.5c3.3-5.6-5.4-10.6-8.6-5zm-3.5-24l-16.5 28.6c-3.2 5.6 5.4 10.6 8.6 5l16.5-28.5c3.3-5.6-5.4-10.7-8.6-5.1zm-26 45l-16.5 28.6c-3.2 5.6 5.4 10.6 8.6 5l16.5-28.5c3.3-5.6-5.4-10.6-8.6-5zm3.5-36l-16.5 28.5c-3.2 5.6 5.4 10.7 8.6 5l16.5-28.5c3.3-5.6-5.4-10.6-8.6-5zm-3.5-24l-16.5 28.6c-3.2 5.6 5.4 10.6 8.7 5l16.5-28.5c3.2-5.6-5.5-10.7-8.7-5.1zm-26 45l-16.5 28.6c-3.2 5.6 5.4 10.6 8.7 5l16.5-28.5c3.2-5.6-5.5-10.6-8.7-5zm4 23.1l-16.5 28.6c-3.2 5.6 5.4 10.6 8.6 5l16.5-28.5c3.3-5.6-5.4-10.7-8.6-5zm27 14l-16.5 28.6c-3.2 5.6 5.4 10.6 8.6 5l16.5-28.5c3.3-5.6-5.4-10.7-8.6-5zm77.8-42.6l-16.5 28.6c-3.2 5.6 5.4 10.6 8.7 5l16.4-28.5c3.3-5.6-5.4-10.7-8.6-5zm-3.5-24l-16.5 28.6c-3.2 5.6 5.4 10.7 8.7 5l16.5-28.5c3.2-5.6-5.5-10.6-8.7-5zm-26 45l-16.5 28.7c-3.2 5.6 5.4 10.6 8.7 5l16.5-28.6c3.2-5.6-5.5-10.6-8.7-5zm3.5-36l-16.5 28.6c-3.2 5.6 5.4 10.6 8.7 5l16.5-28.5c3.2-5.6-5.5-10.7-8.7-5zm-25.5 44.2l-16.5 28.6c-3.2 5.6 5.4 10.6 8.7 5l16.5-28.6c3.2-5.6-5.5-10.6-8.7-5zm27 14l-16.5 28.6c-3.2 5.6 5.4 10.6 8.7 5l16.5-28.6c3.2-5.6-5.5-10.6-8.7-5z" fill="#fff"/><path d="M248.7 149c0 4.2-3.2 7.7-7 7.7H187c-3.9 0-7-3.5-7-7.8V92.1c0-4.3 3.1-7.8 7-7.8h54.5c4 0 7 3.5 7 7.8v56.8z" fill="#fff" stroke="#fff" stroke-width="13.1" stroke-miterlimit="10"/><path d="M232.8 142.4a7.8 7.8 0 0 0 7.8 7.8h36.6a7.8 7.8 0 0 0 7.8-7.8v-22.2a7.8 7.8 0 0 0-7.8-7.9h-36.6a7.8 7.8 0 0 0-7.8 7.9v22.2zM201.6 158c0 4.3-3.1 7.8-7 7.8h-54.5c-3.9 0-7-3.5-7-7.8v-56.9c0-4.3 3.1-7.8 7-7.8h54.5c3.9 0 7 3.5 7 7.8V158z" fill="#fff" stroke="#fff" stroke-width="13.1" stroke-miterlimit="10"/><path d="M98.3 241.2l-17.5 28c-3.4 5.6 5.3 10.6 8.7 5.1l17.4-28c3.4-5.5-5.2-10.5-8.6-5zm21.6-6.3l-16.5 28.5c-3.2 5.7 5.4 10.7 8.6 5.1l16.5-28.6c3.2-5.6-5.4-10.6-8.6-5zm29 10l-16.5 28.6c-3.3 5.7 5.4 10.7 8.6 5.1l16.5-28.6c3.2-5.6-5.4-10.6-8.6-5zm-24.3 10.4L108 284c-3.3 5.6 5.4 10.6 8.6 5l16.5-28.5c3.2-5.6-5.4-10.6-8.6-5zm130.8-99.8l-16.5 28.6c-3.3 5.6 5.4 10.6 8.6 5l16.5-28.5c3.2-5.6-5.4-10.7-8.6-5zm-24.5 43.2l-16.5 28.6c-3.2 5.6 5.4 10.6 8.6 5l16.5-28.6c3.2-5.6-5.4-10.6-8.6-5zM205 243.6L192 266c-3.1 5.6 5.5 10.6 8.7 5l13-22.3c3.2-5.6-5.4-10.7-8.7-5.1zm-33.5-5.9L155 266.3c-3.2 5.6 5.4 10.6 8.7 5l16.5-28.5c3.2-5.6-5.4-10.6-8.7-5zm6.3 19.9L163 283.3c-3.2 5.6 5.4 10.6 8.7 5l14.8-25.7c3.2-5.6-5.4-10.6-8.6-5zm-83.7-39.8l-17.9 27.8c-3.5 5.4 5.2 10.4 8.7 5l17.8-27.8c3.5-5.4-5.1-10.4-8.6-5zm27.1-75.6l-16.5 28.6c-3.2 5.6 5.4 10.6 8.7 5l16.5-28.5c3.2-5.6-5.5-10.7-8.7-5zm-25.5 44.2L79.3 215c-3.2 5.6 5.4 10.6 8.7 5l16.5-28.6c3.2-5.6-5.5-10.6-8.7-5z" fill="#fff"/></svg>