<svg xmlns="http://www.w3.org/2000/svg" width="361" height="361"><path d="M232.4 267h-48.9c-6.4 0-6.4 10 0 10h48.9c6.4 0 6.4-10 0-10zM71.9 217.6L90.5 236c4.5 4.6 11.6-2.5 7-7L79 210.3c-4.6-4.6-11.6 2.5-7 7zm55.2-45.7v48.9c0 6.4 10 6.4 10 0v-48.9c0-6.4-10-6.4-10 0zm74.2 22.6L166.7 229c-4.5 4.6 2.5 11.7 7.1 7.1l34.5-34.5c4.6-4.6-2.5-11.7-7-7.1z" fill="#fff"/><path d="M232.4 267h-48.9c-6.4 0-6.4 10 0 10h48.9c6.4 0 6.4-10 0-10zM127 171.9v48.9c0 6.4 10 6.4 10 0v-48.9c0-6.4-10-6.4-10 0zm74.2 22.6L166.6 229c-4.5 4.6 2.5 11.7 7.1 7.1l34.5-34.5c4.6-4.6-2.5-11.7-7-7.1zm-6.2 44.3l-13.8 5.7c-2.5 1-4.3 3.3-3.5 6.1.7 2.4 3.6 4.6 6.2 3.5l13.7-5.7c2.5-1 4.3-3.2 3.5-6.1-.7-2.4-3.6-4.5-6.1-3.5zm-41.4-32.2l-5.7 13.7c-1 2.5 1.1 5.5 3.5 6.2 2.9.8 5.1-1 6.2-3.5l5.7-13.8c1-2.5-1.1-5.5-3.5-6.1-2.9-.8-5.1 1-6.2 3.5zm-52.4 2.6L107 223c1 2.5 3.3 4.2 6.1 3.5 2.4-.7 4.6-3.7 3.5-6.2l-5.7-13.7c-1-2.6-3.2-4.3-6.1-3.5-2.4.6-4.6 3.6-3.5 6.1zm-27.7 43.3l8 3.3c2.5 1 5.4-1 6-3.5.9-2.8-.9-5-3.4-6.1l-8-3.3c-2.5-1-5.4 1-6 3.5-.9 2.8.9 5 3.4 6.1z" fill="#fff"/><path d="M98.5 285.3v-24.5a20 20 0 0 1 20-20h25.9a20 20 0 0 1 20 20v24.5" fill="none" stroke="#fff" stroke-width="10" stroke-miterlimit="10"/><path d="M286.2 281.3H74.9c-6.4 0-6.4 10 0 10h211.3c6.4 0 6.4-10 0-10zM78.9 267h-4c-2.7 0-5 2.3-5 5s2.3 5 5 5h4a5 5 0 1 0 0-10z" fill="#fff"/><path d="M115.8 281.6v-12.7c0-9.4 8.7-9.5 15.5-9.5 6.8 0 16.5-.5 16.5 9.2v13c0 2 3 2 3 0 0-5.6 1-12-.7-17.3-2.6-8-11-8-17.8-8-7.5 0-15-.4-18.6 7.6-2.3 5-1 12.4-1 17.7 0 2 3 2 3 0z" fill="#fff"/><path d="M211.5 119.2c0 3.6 2.7 6.5 6 6.5H263c3.3 0 6-3 6-6.5V91.6c0-3.6-2.7-6.6-6-6.6h-45.6c-3.2 0-5.9 3-5.9 6.6v27.6zm-97.9-9.8a4.5 4.5 0 0 1-4.5 4.5H88a4.5 4.5 0 0 1-4.5-4.5v-2.8A4.5 4.5 0 0 1 88 102h21.1a4.5 4.5 0 0 1 4.5 4.6v2.8z" fill="#fff" stroke="#fff" stroke-width="10" stroke-miterlimit="10"/><path d="M286.7 111.5a6.7 6.7 0 0 1-6.7 6.7h-31a6.7 6.7 0 0 1-6.7-6.7v-9A6.7 6.7 0 0 1 249 96h31a6.7 6.7 0 0 1 6.7 6.7v8.9zm-53.7 2.4a6.7 6.7 0 0 1-6.6 6.7h-31.2a6.7 6.7 0 0 1-6.6-6.7V105a6.7 6.7 0 0 1 6.7-6.6h31a6.7 6.7 0 0 1 6.7 6.6v9zm-68-27.8a6.9 6.9 0 0 1-6.9 6.8h-32a6.9 6.9 0 0 1-7-6.8v-4.3a6.9 6.9 0 0 1 7-6.9h32a6.9 6.9 0 0 1 6.9 6.9v4.3z" fill="#fff" stroke="#fff" stroke-width="10" stroke-miterlimit="10"/><path d="M176 90a6.3 6.3 0 0 1-6.4 6.4h-9.2a6.3 6.3 0 0 1-6.4-6.3v-4a6.3 6.3 0 0 1 6.4-6.3h9.2a6.3 6.3 0 0 1 6.3 6.4V90z" fill="#fff" stroke="#fff" stroke-width="10" stroke-miterlimit="10"/></svg>