<svg xmlns="http://www.w3.org/2000/svg" width="361" height="361"><path d="M183.2 138.5l-66-6.2c-1.8-.1-3.4 1.1-4.4 2.5L75 189.4c-3.1 4.5 2.7 8.8 6.8 6.8l103.9-48.4c5.8-2.7.8-11.3-5-8.6l-104 48.4 7 6.8 37.8-54.5-4.3 2.4 66 6.2c6.4.6 6.3-9.4 0-10z" fill="#fff"/><path d="M128.8 173.9l21 45.3c2.8 5.9 11.4.8 8.7-5l-21-45.4c-2.7-5.8-11.3-.8-8.7 5z" fill="#fff"/><path d="M149.6 218.9l4.5 67.7c.5 6.4 10.5 6.5 10 0l-4.5-67.7c-.4-6.4-10.4-6.5-10 0z" fill="#fff"/><path d="M270.3 119.1a4 4 0 0 1-4 4h-23.4a4 4 0 0 1-4-4V95.7a4 4 0 0 1 4-4h23.4a4 4 0 0 1 4 4v23.4z" fill="none" stroke="#fff" stroke-width="10" stroke-miterlimit="10"/><path d="M216.2 78.3l7.2 7.3a5 5 0 0 0 7 0 5 5 0 0 0 0-7.1l-7.2-7.2a5 5 0 0 0-7 0 5 5 0 0 0 0 7zm-30.9 33.9h33.5c6.5 0 6.5-10 0-10h-33.5c-6.4 0-6.4 10 0 10zm104.4 24.6l-6-6a5 5 0 0 0-7 0 5 5 0 0 0 0 7l6 6a5 5 0 0 0 7 0 5 5 0 0 0 0-7zm-30.6 39.1v-33.5c0-6.4-10-6.4-10 0V176c0 6.5 10 6.5 10 0zm-51.3-14.4l23.7-23.7c4.5-4.5-2.5-11.6-7.1-7l-23.7 23.7c-4.6 4.5 2.5 11.6 7 7zm-92-19l26.2 19.2c5.2 3.8 10.2-5 5-8.7l-26.2-19.2c-5.2-3.8-10.2 4.9-5 8.7z" fill="#fff"/><path d="M119.5 174.7l1.3-29.4c.3-6.4-9.7-6.4-10 0l-1.3 29.4c-.3 6.4 9.7 6.4 10 0zm62.7 56.5l14.5 56.6c1.2 4.8 8.4 4.8 9.6 0l14.5-56.6a5 5 0 0 0-4.8-6.4h-29c-6.5 0-6.5 10 0 10h29l-4.8-6.3-14.5 56.7h9.6l-14.5-56.7c-1.6-6.2-11.2-3.6-9.6 2.7z" fill="#fff"/><path d="M214 213.3a1.8 1.8 0 0 0-2.5.3l-6.4 8.3a1.8 1.8 0 0 0 .3 2.5l8.2 6.4a1.8 1.8 0 0 0 2.6-.3l6.4-8.2a1.8 1.8 0 0 0-.3-2.6l-8.3-6.3zm-18.6 14a1.8 1.8 0 0 0 1.1-2.3l-3-10a1.8 1.8 0 0 0-2.3-1.1l-10 3a1.8 1.8 0 0 0-1.1 2.3l3 10a1.8 1.8 0 0 0 2.3 1.1l10-3z" fill="none" stroke="#fff" stroke-width="10" stroke-miterlimit="10"/><path d="M208.8 210a1.8 1.8 0 0 0-.8-2.4l-9.4-4.6a1.8 1.8 0 0 0-2.4.9l-4.5 9.3a1.8 1.8 0 0 0 .8 2.4l9.3 4.6a1.8 1.8 0 0 0 2.5-.9l4.5-9.3z" fill="none" stroke="#fff" stroke-width="10" stroke-miterlimit="10"/></svg>