<svg xmlns="http://www.w3.org/2000/svg" width="361" height="361"><path d="M183 139l-66-7c-2 0-3 1-4 3l-38 54c-3 5 3 9 7 7l104-48c5-3 0-11-5-9L77 188l7 6 37-54-4 2 66 7c7 0 6-10 0-10z" fill="#fff"/><path d="M129 174l21 45c3 6 11 1 9-5l-21-45c-3-6-12-1-9 5z" fill="#fff"/><path d="M150 219l4 68c1 6 11 6 10 0l-4-68c-1-6-11-7-10 0z" fill="#fff"/><path d="M270 119a4 4 0 0 1-4 4h-23a4 4 0 0 1-4-4V96a4 4 0 0 1 4-4h23a4 4 0 0 1 4 4v23z" fill="none" stroke="#fff" stroke-width="10" stroke-miterlimit="10"/><path d="M216 78l7 8a5 5 0 0 0 7 0 5 5 0 0 0 0-8l-7-7a5 5 0 0 0-7 0 5 5 0 0 0 0 7zm-31 34h34c6 0 6-10 0-10h-34c-6 0-6 10 0 10zm105 25l-6-6a5 5 0 0 0-7 0 5 5 0 0 0 0 7l6 6a5 5 0 0 0 7 0 5 5 0 0 0 0-7zm-31 39v-34c0-6-10-6-10 0v34c0 7 10 7 10 0zm-51-15l23-23c5-5-2-12-7-7l-23 23c-5 5 2 12 7 7zm-92-19l26 20c5 3 10-5 5-9l-26-19c-5-4-10 5-5 8z" fill="#fff"/><path d="M120 175l1-30c0-6-10-6-10 0l-2 30c0 6 10 6 11 0zm62 56l15 57c1 5 8 5 9 0l15-57a5 5 0 0 0-5-6h-29c-7 0-7 10 0 10h29l-5-6-14 56h9l-14-57c-2-6-11-3-10 3z" fill="#fff"/><path d="M214 213a2 2 0 0 0-2 1l-7 8a2 2 0 0 0 0 2l9 7a2 2 0 0 0 2 0l7-9a2 2 0 0 0-1-2l-8-7zm-19 14a2 2 0 0 0 2-2l-3-10a2 2 0 0 0-3-1l-10 3a2 2 0 0 0-1 2l3 10a2 2 0 0 0 2 1l10-3z" fill="none" stroke="#fff" stroke-width="10" stroke-miterlimit="10"/><path d="M209 210a2 2 0 0 0-1-2l-9-5a2 2 0 0 0-3 1l-4 9a2 2 0 0 0 0 3l10 4a2 2 0 0 0 2-1l5-9z" fill="none" stroke="#fff" stroke-width="10" stroke-miterlimit="10"/></svg>