<svg xmlns="http://www.w3.org/2000/svg" width="361" height="361"><path d="M96 167.6l1.3 4.5a300.5 300.5 0 0 0 1.5 5l1.6 5.4c.5 1.7 1 3.4 1.6 4.9a198.2 198.2 0 0 0 2.5-11.3 911.4 911.4 0 0 0 2.1-12h7.8a342 342 0 0 1-3.9 17 245.2 245.2 0 0 1-4.7 16.2h-6.9a218.8 218.8 0 0 1-3.2-9.6 1065.4 1065.4 0 0 1-3.1-10.2l-3.1 10.2a185.1 185.1 0 0 1-3.2 9.6h-6.9a244.8 244.8 0 0 1-4.7-16.3 344 344 0 0 1-4-17H79a442.9 442.9 0 0 0 3.6 18l1.3 5.4a100.5 100.5 0 0 0 1.7-5L87 177a212.9 212.9 0 0 0 1.4-5.1l1.2-4.4H96zm78.8-7.6l9-38 8.4 38z" fill="#fff"/><path d="M176.3 160.4l9-38h-3l8.4 38 1.5-1.9h-17.4c-1.9 0-1.9 3 0 3h17.4c1 0 1.6-1 1.4-1.9l-8.4-38c-.3-1.5-2.5-1.4-2.9 0l-9 38c-.4 2 2.5 2.7 3 .8z" fill="#fff"/><path d="M239.1 177.2l-32-7.3 2.6 3.4c0-4.8.8-10.3-1.1-14.8-2.4-5.5-11.4-4-16-4l3.4 2.6-9.1-40.3c-.8-3.3-6-3.3-6.8 0l-9 40.3 3.3-2.6c-5.1 0-11.9-1.3-15.4 3.3-3 3.8-1.7 11-1.7 15.5l2.6-3.4-32 7.3c-3.4.8-3.4 6 0 6.7l32 7.3-2.6-3.4c0 3.9-1.4 11.7 1.1 15 4 5.2 10 4 15.9 4l-3.4-2.5 9.2 39.2c.8 3.3 6 3.4 6.8 0l9-39.2-3.4 2.5c4.9 0 12 1.4 15.4-3 3-4.1 1.8-11.2 1.8-16l-2.6 3.4 32-7.3c4.4-1 2.6-7.7-1.8-6.7l-32 7.2a3.5 3.5 0 0 0-2.6 3.4v10.5c0 2.6-8.4 1.5-10.2 1.5a3.5 3.5 0 0 0-3.3 2.6l-9 39.2h6.7l-9.2-39.2a3.5 3.5 0 0 0-3.4-2.6c-1.4 0-10 1-10-1.1v-10.9c0-1.5-1-3-2.5-3.4l-32-7.2v6.7l32-7.2c1.5-.3 2.5-1.9 2.5-3.4V163c0-2.7 8.2-1.5 10.1-1.5 1.5 0 3-1 3.4-2.6l9-40.2h-6.7l9.1 40.2a3.6 3.6 0 0 0 3.4 2.6c1.6 0 10-1 10 1.2v10.6c0 1.5 1.1 3 2.6 3.4l32 7.2c4.5 1 6.3-5.7 2-6.7z" fill="#fff"/></svg>