<svg xmlns="http://www.w3.org/2000/svg" width="361" height="361"><path d="M196 141c0 4-3 8-7 8h-54c-4 0-7-4-7-8V84c0-4 3-8 7-8h54c4 1 7 4 7 8v57z" fill="#fff" stroke="#fff" stroke-width="13" stroke-miterlimit="10"/><path d="M93 122a8 8 0 0 0 8 7h36a8 8 0 0 0 8-7V99a8 8 0 0 0-8-8h-36a8 8 0 0 0-8 8v22z" fill="#fff" stroke="#fff" stroke-width="13" stroke-miterlimit="10"/><path d="M77 122a8 8 0 0 1 8-8h45a8 8 0 0 1 8 7v13a8 8 0 0 1-8 8H85a8 8 0 0 1-8-8v-12z" fill="#fff" stroke="#fff" stroke-width="13" stroke-miterlimit="10"/><path d="M174 171l-17 29c-3 5 6 10 9 5l16-29c4-6-5-11-8-5zm-4-24l-16 29c-3 5 5 10 8 5l17-29c3-6-5-11-9-5zm-26 45l-16 29c-3 5 5 10 8 5l17-29c3-6-5-11-9-5zm4-36l-17 29c-3 5 6 10 9 5l16-29c4-6-5-11-8-5zm-4-24l-16 29c-3 5 5 10 9 5l16-29c3-6-5-11-9-5zm-32 86l-6 11c-3 5 5 10 9 5l6-11c3-6-6-11-9-5zm37-4l-16 29c-3 5 5 10 9 5l16-29c3-5-5-11-9-5zm81-42l-17 29c-3 5 6 10 9 5l17-29c3-6-6-11-9-5zm-4-24l-16 29c-3 5 5 10 9 5l16-29c3-6-5-11-9-5zm-24 42l-5 9c-3 6 6 11 9 5l5-9c3-5-5-10-9-5zm2-33l-17 29c-3 5 6 10 9 5l17-29c3-6-6-11-9-5zm-54 96l-4 7a5 5 0 0 0 2 7 5 5 0 0 0 7-2l4-7a5 5 0 0 0-2-7 5 5 0 0 0-7 2z" fill="#fff"/><path d="M249 149c0 4-4 8-7 8h-55c-4 0-7-4-7-8V92c0-4 3-8 7-8h55c4 0 7 4 7 8v57z" fill="#fff" stroke="#fff" stroke-width="13" stroke-miterlimit="10"/><path d="M233 142a8 8 0 0 0 8 8h36a8 8 0 0 0 8-8v-22a8 8 0 0 0-8-8h-36a8 8 0 0 0-8 8v22zm-31 16c0 4-4 8-7 8h-55c-4 0-7-4-7-8v-57c0-4 3-8 7-8h55c3 0 7 4 7 8v57z" fill="#fff" stroke="#fff" stroke-width="13" stroke-miterlimit="10"/><path d="M193 210l-8 28c-1 4 6 6 7 2l8-28c1-4-5-6-7-2z" fill="#fff"/><path d="M186 214l6 7c3 3 8-2 5-5l-7-7c-3-3-7 2-4 5z" fill="#fff"/><path d="M203 213l-9 2c-5 1-3 8 2 7l9-2c4-1 2-8-2-7zm-36 7l19 21c3 3 8-2 5-5l-19-21c-3-3-8 2-5 5z" fill="#fff"/><path d="M166 229l9-2c5-1 3-8-1-7l-10 2c-4 1-2 8 2 7z" fill="#fff"/><path d="M174 213l-3 9c-1 5 6 6 7 2l2-9c2-4-5-6-6-2z" fill="#fff"/><g fill="#fff"><path d="M162 248l28-7c4 0 2-7-2-6l-28 7c-4 1-2 7 2 6z"/><path d="M169 253l3-9c1-4-5-6-7-2l-2 9c-2 5 5 6 6 2z"/><path d="M160 239l6 7c3 3 8-2 5-5l-6-7c-4-4-8 1-5 5z"/></g><g fill="#fff"><path d="M184 266l8-27c1-4-5-6-7-2l-8 27c-1 5 6 7 7 2z"/><path d="M192 263l-6-7c-4-4-9 1-5 5l6 7c3 3 8-2 5-5z"/><path d="M175 264l9-2c4-1 3-8-2-7l-9 2c-5 1-3 8 2 7z"/></g><g fill="#fff"><path d="M211 256l-20-20c-3-3-8 2-5 5l20 20c3 4 8-1 5-5z"/><path d="M212 248l-10 2c-4 1-2 8 2 7l9-3c5-1 3-7-1-6z"/><path d="M204 263l3-9c1-4-6-6-7-2l-3 9c-1 5 6 7 7 2z"/></g><g fill="#fff"><path d="M215 228l-27 7c-4 1-2 8 2 7l27-7c5-1 3-8-1-7z"/><path d="M208 223l-2 10c-2 4 5 6 6 2l3-10c1-4-5-6-7-2z"/><path d="M218 238l-7-7c-3-3-8 2-5 5l7 7c3 3 8-2 5-5z"/></g><g fill="#fff"><path d="M97 174v28c0 5 7 5 7 0v-28c0-5-7-5-7 0z"/><path d="M90 180l9 4c3 3 7-3 3-6l-8-4c-4-3-8 3-4 6z"/><path d="M107 174l-9 4c-4 3 0 9 4 6l8-4c4-3 0-9-3-6zm-33 17l24 14c4 2 8-4 4-6l-25-14c-4-3-7 3-3 6z"/><path d="M76 199l8-5c4-2 0-8-4-6l-8 5c-4 2 0 8 4 6z"/><path d="M79 182v10c0 4 7 4 7 0v-10c0-5-7-5-7 0zm-2 37l25-14c4-2 0-8-4-6l-24 14c-4 2 0 8 4 6z"/><path d="M86 222v-10c0-4-7-4-7 0v10c0 4 7 4 7 0z"/><path d="M72 210l8 5c5 3 8-4 4-6l-8-5c-4-2-8 4-4 6zm32 20v-28c0-5-7-5-7 0v28c0 5 7 5 7 0z"/><path d="M110 224l-8-4c-4-3-7 3-4 6l9 4c4 3 7-3 3-6z"/><path d="M94 230l8-4c4-3 0-9-4-6a22219 22219 0 0 1-8 4c-4 3 0 9 4 6zm33-17l-25-14c-4-2-7 4-3 6l24 14c4 2 7-4 4-6z"/><path d="M125 205l-9 4c-3 3 0 9 4 6l8-4c4-3 1-9-3-6z"/><path d="M122 222v-10c0-4-7-4-7 0v10c0 4 7 4 7 0zm1-37l-25 14c-3 2 0 8 4 6l25-14c4-2 0-8-4-6z"/><path d="M115 182v10c0 4 7 4 7 0v-10c0-4-7-4-7 0z"/><path d="M128 193l-8-4c-4-3-8 3-4 6l9 4c4 3 7-3 3-6z"/></g><path d="M117 237l-14 23c-3 6 6 11 9 5l14-23c3-6-6-11-9-5zm17-100l-16 28c-3 6 5 11 9 5l16-28c3-6-5-11-9-5zm-54 96a6629 6629 0 0 0-3 4 5 5 0 0 0 2 7 5 5 0 0 0 7-2 6629 6629 0 0 0 3-4 5 5 0 0 0-2-7 5 5 0 0 0-7 2z" fill="#fff"/></svg>