<svg xmlns="http://www.w3.org/2000/svg" width="361" height="361"><path d="M282.1 96v190.7c0 6.4 10 6.4 10 0V96c0-6.4-10-6.4-10 0z" fill="#fff"/><path fill="none" stroke="#fff" stroke-width="10" stroke-miterlimit="10" d="M95.3 127l117.1-51.5M105.6 157l125.1-13"/><path fill="#fff" d="M212.4 75.5l64.7 19.3-46.4 49.1z"/><path d="M211 80.3l64.8 19.4-2.3-8.4-46.3 49 8.4 2.3-18.4-68.4c-1.6-6.2-11.3-3.6-9.6 2.6l18.3 68.4c1 3.6 5.8 5 8.4 2.3l46.3-49.1a5 5 0 0 0-2.2-8.4l-64.7-19.3c-6.2-1.9-8.8 7.8-2.6 9.6zm-90.3 72a6.9 6.9 0 0 1-5.1 8.2L106 163a6.9 6.9 0 0 1-8.5-4.8l-7.3-29a6.9 6.9 0 0 1 5.2-8.3l9.6-2.4a6.9 6.9 0 0 1 8.5 4.8l7.2 29.1zm40-6.7c1.2 4.5-1 8.8-4.7 9.8l-9.7 2.4c-3.7.9-7.7-2-8.8-6.4l-9-35.8c-1-4.5 1.1-8.8 4.8-9.8l9.7-2.4c3.7-1 7.7 2 8.8 6.4l9 35.8zm43-7.3c1.3 5.6-.6 10.9-4.3 11.8l-9.7 2.4c-3.7 1-7.9-2.8-9.3-8.3l-11.2-45c-1.4-5.6.5-10.9 4.2-11.8l9.7-2.4c3.7-1 7.9 2.8 9.3 8.4l11.2 45z" fill="#fff"/><path d="M89.3 231c-1.1-1.2-2.4-1.9-2.7-1.5L75 240.9c-.3.4.3 1.6 1.5 2.8l41.2 41.2c1.2 1.1 2.4 1.8 2.8 1.4L132 275c.4-.4-.3-1.6-1.5-2.8L89.3 231z" fill="none" stroke="#fff" stroke-width="10" stroke-miterlimit="10"/><path d="M147 283l9.8-73.9c.3-2.4-2.6-5.3-5-5L78 214c-4.1.6-7 5.1-3.6 8.5l64 64c4.5 4.5 11.6-2.5 7-7l-63.9-64L78 224l73.8-9.9-5-5-9.9 73.8c-.8 6.4 9.2 6.3 10 0z" fill="#fff"/></svg>