<svg xmlns="http://www.w3.org/2000/svg" width="361" height="361"><path d="M196.7 140.4c0 4.3-3.2 7.9-7 7.9H135c-3.9 0-7-3.6-7-7.9V83.6c0-4.3 3.1-7.8 7-7.8h54.5c3.9 0 7 3.5 7 7.8v56.8z" fill="#fff" stroke="#fff" stroke-width="13.1" stroke-miterlimit="10"/><path d="M93.5 120.8a7.8 7.8 0 0 0 7.8 7.9h36.6a7.8 7.8 0 0 0 7.8-7.9V98.6a7.8 7.8 0 0 0-7.8-7.8h-36.6a7.8 7.8 0 0 0-7.8 7.8v22.2z" fill="#fff" stroke="#fff" stroke-width="13.1" stroke-miterlimit="10"/><path d="M77.8 120.8a7.8 7.8 0 0 1 7.8-7.8h45a7.8 7.8 0 0 1 8 7.8v12.4a7.8 7.8 0 0 1-8 7.9h-45a7.8 7.8 0 0 1-7.8-7.9v-12.4zM249 148.3c0 4.3-3.1 7.8-7 7.8h-54.5c-4 0-7-3.5-7-7.8V91.4c0-4.3 3-7.8 7-7.8H242c3.9 0 7 3.5 7 7.8v56.9z" fill="#fff" stroke="#fff" stroke-width="13.1" stroke-miterlimit="10"/><path d="M233.2 141.7a7.8 7.8 0 0 0 7.9 7.9h36.5a7.8 7.8 0 0 0 7.9-7.9v-22.2a7.8 7.8 0 0 0-7.9-7.8h-36.5a7.8 7.8 0 0 0-7.9 7.8v22.2zm-31.1 15.7c0 4.3-3.2 7.8-7 7.8h-54.6c-3.8 0-7-3.5-7-7.8v-56.8c0-4.4 3.2-7.9 7-7.9h54.6c3.8 0 7 3.5 7 7.9v56.8z" fill="#fff" stroke="#fff" stroke-width="13.1" stroke-miterlimit="10"/><path d="M103 142.5a7.8 7.8 0 0 1 7.9-7.8h45a7.8 7.8 0 0 1 7.9 7.8V155a7.8 7.8 0 0 1-7.8 7.9h-45.1a7.8 7.8 0 0 1-7.8-7.9v-12.4z" fill="#fff" stroke="#fff" stroke-width="13.1" stroke-miterlimit="10"/><path d="M230.4 186l-8 27.3c-1.2 4.3 5.5 6.1 6.8 1.8l8-27.2c1.2-4.3-5.6-6.2-6.8-1.8z" fill="#fff"/><path d="M222.6 189.9l6.6 6.9c3 3.2 8-1.7 5-5l-6.7-6.9c-3.1-3.2-8 1.7-5 5z" fill="#fff"/><path d="M239.9 188.6l-9.3 2.3c-4.4 1-2.5 7.8 1.9 6.7l9.2-2.2c4.4-1 2.6-7.8-1.8-6.8zm-36.1 7.2l19.5 20.5c3.2 3.3 8.1-1.7 5-5L208.7 191c-3.1-3.3-8 1.7-5 5z" fill="#fff"/><path d="M203.2 204.5l9.2-2.3c4.4-1 2.6-7.8-1.8-6.7l-9.3 2.2c-4.4 1.1-2.5 7.9 1.9 6.8z" fill="#fff"/><path d="M210.7 188.9L208 198c-1.2 4.4 5.5 6.2 6.8 1.9l2.7-9.2c1.2-4.3-5.5-6.2-6.8-1.8z" fill="#fff"/><g fill="#fff"><path d="M199.3 224l27.5-6.8c4.4-1 2.5-7.8-1.9-6.7l-27.5 6.7c-4.4 1-2.5 7.8 1.9 6.7z"/><path d="M206.4 228.8l2.7-9.1c1.3-4.4-5.5-6.2-6.7-1.9l-2.7 9.2c-1.3 4.3 5.5 6.2 6.7 1.8z"/><path d="M196.7 214.4l6.6 7c3.1 3.2 8-1.8 5-5l-6.7-7c-3-3.2-8 1.8-4.9 5z"/></g><g fill="#fff"><path d="M221.3 242l8-27.1c1.2-4.4-5.6-6.2-6.8-1.9l-8 27.2c-1.2 4.4 5.5 6.2 6.8 1.9z"/><path d="M229.1 238.3l-6.6-7c-3.1-3.2-8 1.7-5 5l6.7 7c3 3.2 8-1.8 4.9-5z"/><path d="M211.8 239.5l9.3-2.3c4.4-1 2.5-7.8-1.9-6.7l-9.2 2.3c-4.4 1-2.6 7.8 1.8 6.7z"/></g><g fill="#fff"><path d="M248 232.1l-19.6-20.5c-3.1-3.3-8 1.7-5 5L243 237c3.2 3.3 8.1-1.7 5-5z"/><path d="M248.6 223.4l-9.3 2.3c-4.4 1-2.5 7.8 1.9 6.7l9.2-2.2c4.4-1 2.6-7.8-1.8-6.8z"/><path d="M241 239l2.7-9c1.3-4.4-5.5-6.3-6.8-2l-2.6 9.2c-1.3 4.3 5.4 6.2 6.7 1.9z"/></g><g fill="#fff"><path d="M252.5 204l-27.6 6.7c-4.4 1-2.5 7.8 1.9 6.8l27.5-6.8c4.4-1 2.5-7.8-1.8-6.7z"/><path d="M245.3 199.1l-2.7 9.2c-1.3 4.3 5.5 6.1 6.8 1.8l2.6-9.1c1.3-4.4-5.5-6.2-6.7-2z"/><path d="M255 213.5l-6.6-7c-3-3.2-8 1.8-5 5l6.7 7c3.1 3.2 8-1.8 5-5z"/></g><g fill="#fff"><path d="M133.8 152.4v28.4c0 4.5 7 4.5 7 0v-28.4c0-4.5-7-4.5-7 0z"/><path d="M127.2 158.3l8.3 4.8c4 2.3 7.4-3.8 3.5-6l-8.2-4.8c-4-2.3-7.5 3.8-3.6 6z"/><path d="M143.6 152.3l-8.2 4.7c-4 2.3-.4 8.4 3.5 6l8.3-4.7c3.9-2.2.3-8.3-3.6-6zm-32.8 17l24.6 14.2c3.9 2.2 7.4-3.8 3.5-6l-24.5-14.2c-4-2.3-7.5 3.8-3.6 6z"/><path d="M112.7 177.9l8.3-4.8c3.9-2.2.4-8.3-3.5-6l-8.3 4.7c-4 2.3-.4 8.3 3.5 6z"/><path d="M115.7 160.7v9.5c0 4.5 7 4.5 7 0v-9.5c0-4.6-7-4.6-7 0zm-1.3 37l24.6-14.2c3.9-2.3.4-8.3-3.5-6l-24.6 14.1c-4 2.3-.4 8.3 3.5 6z"/><path d="M122.8 200.3v-9.5c0-4.5-7-4.5-7 0v9.5c0 4.6 7 4.6 7 0z"/><path d="M109.3 189.2l8.3 4.7c3.9 2.3 7.4-3.8 3.5-6l-8.3-4.8c-3.9-2.3-7.4 3.8-3.5 6zm31.4 19.7v-28.3c0-4.6-7-4.6-7 0v28.3c0 4.5 7 4.5 7 0z"/><path d="M147.2 203l-8.2-4.8c-4-2.2-7.5 3.8-3.6 6l8.3 4.9c4 2.2 7.4-3.8 3.5-6z"/><path d="M130.8 209l8.3-4.7c3.9-2.3.4-8.3-3.5-6a22219.4 22219.4 0 0 1-8.3 4.7c-4 2.3-.4 8.3 3.5 6zm32.8-17.2l-24.5-14.2c-4-2.2-7.5 3.8-3.6 6l24.6 14.3c4 2.2 7.4-3.8 3.5-6z"/><path d="M161.8 183.2a22219.4 22219.4 0 0 1-8.3 4.8c-4 2.3-.4 8.3 3.5 6l8.3-4.7c3.9-2.3.4-8.3-3.6-6z"/><path d="M158.8 200.5v-9.6c0-4.5-7-4.5-7 0v9.6c0 4.5 7 4.5 7 0zm1.2-37l-24.5 14.1c-4 2.3-.4 8.3 3.5 6.1l24.6-14.2c3.9-2.2.4-8.3-3.6-6z"/><path d="M151.7 160.8v9.5c0 4.5 7 4.5 7 0v-9.5c0-4.5-7-4.5-7 0z"/><path d="M165.2 172l-8.3-4.8c-4-2.3-7.4 3.8-3.5 6l8.2 4.8c4 2.3 7.5-3.8 3.6-6z"/></g><g fill="#fff"><path d="M164.7 237.4l-20 20c-3.3 3.2 1.7 8.2 4.9 5l20-20c3.2-3.3-1.7-8.2-5-5z"/><path d="M156 237l2.4 9.2c1.2 4.4 8 2.5 6.7-1.9l-2.4-9.2c-1.2-4.3-8-2.5-6.8 1.9z"/><path d="M171.8 244.3l-9.2-2.5c-4.4-1.2-6.2 5.6-1.8 6.8l9.2 2.4c4.3 1.2 6.2-5.6 1.8-6.7zm-35.3-11.1l7.4 27.3c1.2 4.4 8 2.5 6.7-1.8l-7.3-27.4c-1.2-4.4-8-2.5-6.8 1.9z"/><path d="M131.8 240.5l9.2 2.5c4.4 1.1 6.2-5.6 1.9-6.8l-9.3-2.4c-4.3-1.2-6.2 5.5-1.8 6.7z"/><path d="M146 230.4l-6.7 6.8c-3.2 3.2 1.8 8 5 4.9l6.7-6.8c3.2-3.2-1.7-8-5-4.9zm-27 25.3l27.4 7.3c4.4 1.2 6.2-5.6 1.8-6.7l-27.3-7.4c-4.4-1.1-6.2 5.6-1.9 6.8z"/><path d="M123 263.5l6.8-6.8c3.2-3.2-1.8-8.1-5-5l-6.7 6.8c-3.2 3.2 1.7 8.2 5 5z"/><path d="M121.4 246.1l2.5 9.2c1.2 4.4 8 2.5 6.8-1.8l-2.5-9.3c-1.2-4.3-8-2.5-6.8 1.9zm8.3 36.1l20-20c3.2-3.2-1.7-8.1-5-5l-20 20c-3.2 3.3 1.8 8.2 5 5z"/><path d="M138.4 282.6l-2.4-9.2c-1.2-4.3-8-2.5-6.8 1.9l2.5 9.2c1.2 4.4 8 2.5 6.7-1.9z"/><path d="M122.5 275.4l9.3 2.4c4.3 1.2 6.2-5.6 1.8-6.7l-9.2-2.5c-4.4-1.2-6.2 5.6-1.9 6.8zm35.5 11l-7.4-27.5c-1.1-4.3-7.9-2.5-6.7 1.9l7.3 27.4c1.2 4.3 8 2.5 6.8-1.9z"/><path d="M162.7 279l-9.2-2.5c-4.3-1.2-6.2 5.6-1.8 6.8l9.2 2.4c4.3 1.2 6.2-5.5 1.8-6.7z"/><path d="M148.4 289l6.8-6.7c3.2-3.2-1.8-8.1-5-5l-6.7 6.8c-3.2 3.2 1.8 8.2 5 5zm27.1-25.2l-27.4-7.3c-4.3-1.2-6.2 5.5-1.8 6.7l27.3 7.4c4.4 1.1 6.3-5.6 1.9-6.8z"/><path d="M171.5 256l-6.8 6.7c-3.2 3.2 1.8 8.2 5 5l6.7-6.8c3.2-3.2-1.7-8.1-5-5z"/><path d="M173 273.4l-2.4-9.2c-1.2-4.4-8-2.5-6.7 1.8l2.4 9.2c1.2 4.4 8 2.5 6.8-1.8z"/></g></svg>