<svg xmlns="http://www.w3.org/2000/svg" width="361" height="361"><path d="M270 119a4 4 0 0 1-4 4h-23a4 4 0 0 1-4-4V96a4 4 0 0 1 4-4h23a4 4 0 0 1 4 4v23z" fill="none" stroke="#fff" stroke-width="10" stroke-miterlimit="10"/><path d="M216 78l7 8a5 5 0 0 0 7 0 5 5 0 0 0 0-8l-7-7a5 5 0 0 0-7 0 5 5 0 0 0 0 7zm-31 34h34c6 0 6-10 0-10h-34c-6 0-6 10 0 10zm105 25l-6-6a5 5 0 0 0-7 0 5 5 0 0 0 0 7l6 6a5 5 0 0 0 7 0 5 5 0 0 0 0-7zm-31 39v-34c0-6-10-6-10 0v34c0 7 10 7 10 0zm-51-15l23-23c5-5-2-12-7-7l-23 23c-5 5 2 12 7 7zm-66 130h14c5 1 5-6 0-6h-14c-4 0-4 7 0 7z" fill="#fff"/><path d="M144 223v64c0 6 10 6 10 0v-64c0-6-10-6-10 0zm-58-41h6c2 0 2-3 0-3h-6c-2 0-2 3 0 3zm119 0h5c2 0 2-3 0-3h-5c-2 0-2 3 0 3z" fill="#fff"/><path d="M219 212c0 5-5 5-9 5H90l-7-1c-4-1-4-5-4-8v-12c0-4 0-8 5-8h132c5 1 3 9 3 12v12c0 5 7 5 7 0 0-10 4-31-12-31H99c-8 0-18-2-24 4-5 5-3 14-3 20 0 8 0 15 9 18l8 1h110c10 0 26 2 27-12 1-4-6-4-7 0z" fill="#fff"/><path d="M71 204h40c2 0 2-3 0-3H71c-2 0-2 3 0 3zm116 0h40c2 0 2-3 0-3h-40c-2 0-2 3 0 3zm-16-2l-13 8c-1 1 0 4 2 3l12-8c2-1 0-4-1-3zm0-5l-22 13c-2 1 0 4 2 3l21-13c2-1 0-4-1-3zm0-6l-22 13c-2 1 0 4 2 3l21-13c2-1 0-4-1-3zm-1 17l-3 2c-1 1 0 4 2 3l3-2c1-1 0-4-2-3zm1-23l-22 13c-2 1 0 4 2 3l21-13c2-1 0-4-1-3z" fill="#fff"/><path d="M127 205l13 8c2 1 3-2 1-3l-12-8c-2-1-3 2-2 3zm0-6l22 13c2 1 3-1 2-2l-22-13c-2-1-3 1-2 2zm0-5l22 13c2 1 3-2 2-3l-22-13c-2-1-3 2-2 3zm1 17l3 2c2 1 3-2 1-3l-3-2c-1-1-3 2-1 3zm-1-23l22 13c2 1 3-2 2-3l-22-13c-2-1-3 2-2 3z" fill="#fff"/><path d="M176 217c0 3-13 2-15 2h-24c-1 0-14 1-14-2v-28c0-2 0-4 3-4h40c3 0 10-1 10 3v30c0 2 3 2 3 0v-33c-1-4-8-3-11-3h-41c-5 0-7 2-7 7v21c0 4-1 11 5 11 9 2 19 1 29 1h17c3 0 7 0 8-4 1-2-2-3-3-1z" fill="#fff"/></svg>