<svg xmlns="http://www.w3.org/2000/svg" width="361" height="361"><path d="M104 191h89c2 0 2-3 0-3h-90c-2 0-2 3 0 3zm-18 5h51c2 0 2-3 0-3H86c-2 0-2 3 0 3zM79 88h69c2 0 2-3 0-3H79c-2 0-2 3 0 3zm-7 5h60v-3H72c-2 0-2 3 0 3zm168 31h46c2 0 2-3 0-3h-46c-2 0-2 3 0 3zm-4-5h42c2 0 2-3 0-3h-42c-2 0-2 3 0 3zm-75 77h23c2 0 2-3 0-3h-23c-2 0-2 3 0 3z" fill="#fff"/><g fill="#fff" stroke="#fff" stroke-width="13" stroke-miterlimit="10"><path d="M197 170c0 5-4 8-7 8h-55c-4 0-7-3-7-8v-56c0-5 3-8 7-8h55c3 0 7 3 7 8v56z"/><path d="M104 151a8 8 0 0 0 7 8h37a8 8 0 0 0 8-8v-22a8 8 0 0 0-8-8h-37a8 8 0 0 0-7 8v22zm145 27c0 5-3 8-7 8h-54c-4 0-7-3-7-8v-57c0-4 3-7 7-7h54c4 0 7 3 7 7v57z"/><path d="M233 172a8 8 0 0 0 8 8h37a8 8 0 0 0 8-8v-23a8 8 0 0 0-8-7h-37a8 8 0 0 0-8 7v23z"/></g><path d="M170 210h118c2 0 2-3 0-3H170c-2 0-2 3 0 3zm-57 8h97c2 0 2-3 0-3h-97c-2 0-2 3 0 3zm107 2h-72c-2 0-2 3 0 3h72c2 0 2-3 0-3zm58 12h-96c-2 0-2 3 0 3h96c2 0 2-3 0-3z" fill="#fff"/></svg>