<svg xmlns="http://www.w3.org/2000/svg" width="361" height="361"><path d="M131 127a3 3 0 1 1-5 0 3 3 0 0 1 5 0zM77 80a3 3 0 0 1-6 0 3 3 0 1 1 6 0zm40 16a2 2 0 0 1-2 2h-1a2 2 0 0 1-2-2v-1l2-2h1a2 2 0 0 1 2 2v1zm60-5a3 3 0 1 1-5 0 3 3 0 0 1 5 0zm-5 36a4 4 0 0 1-9 0 4 4 0 0 1 9 0z" fill="#fff" stroke="#fff" stroke-miterlimit="10"/><path d="M100 81l-2 1a1 1 0 0 1-2-1l2-2 1 2z" fill="#fff"/><path d="M98 81c0 2 3 2 3 0v-2l-3-1c-2 0-3 1-3 3s1 3 3 3a3 3 0 0 0 3-3l-1-1-2 1z" fill="#fff"/><path d="M144 164a3 3 0 1 1-6 0 3 3 0 0 1 6 0zm-49-16a2 2 0 0 1-3 0l1-2a2 2 0 0 1 2 2zm142-41a3 3 0 1 1-6 0 3 3 0 0 1 6 0zM103 238a5 5 0 0 1-5 5 5 5 0 1 1 0-11 5 5 0 0 1 5 6zm11 29a2 2 0 0 1-3 0 2 2 0 0 1 1-2 2 2 0 0 1 2 2zM274 91a4 4 0 0 1-4 4h-2a4 4 0 0 1-4-4v-1a4 4 0 0 1 4-4h2a4 4 0 0 1 4 4v1z" fill="#fff" stroke="#fff" stroke-miterlimit="10"/><path d="M282 246a76 76 0 0 1-53 41 76 76 0 0 1-66-18 76 76 0 0 1-24-62 76 76 0 0 1 37-58 76 76 0 0 1 89 9 76 76 0 0 1 17 88c-1 1 2 3 3 1a79 79 0 0 0-42-106c-41-17-89 6-103 48a79 79 0 0 0 45 97 79 79 0 0 0 100-39c0-2-2-3-3-1z" fill="#fff"/><path d="M274 242a67 67 0 0 1-52 38 67 67 0 0 1-60-25 67 67 0 0 1-10-64 67 67 0 0 1 49-42c24-5 50 5 66 25a67 67 0 0 1 7 68c-3 6 6 11 9 5a78 78 0 0 0 0-65 76 76 0 0 0-50-42 77 77 0 0 0-63 12 77 77 0 0 0-32 58 77 77 0 0 0 57 78 77 77 0 0 0 88-41c2-6-6-11-9-5z" fill="#fff"/></svg>