<svg xmlns="http://www.w3.org/2000/svg" width="361" height="361"><path d="M165 141c0 4-3 8-7 8h-54c-4 0-7-4-7-8V84c0-4 3-8 7-8h54c4 1 7 4 7 8v57z" fill="#fff" stroke="#fff" stroke-width="13" stroke-miterlimit="10"/><path d="M78 122a8 8 0 0 0 8 7h36a8 8 0 0 0 8-7V99a8 8 0 0 0-8-8H86a8 8 0 0 0-8 8v22z" fill="#fff" stroke="#fff" stroke-width="13" stroke-miterlimit="10"/><path d="M76 122a8 8 0 0 1 8-8h45a8 8 0 0 1 8 7v13a8 8 0 0 1-8 8H84a8 8 0 0 1-8-8v-12z" fill="#fff" stroke="#fff" stroke-width="13" stroke-miterlimit="10"/><path d="M143 171l-17 29c-3 5 6 10 9 5l16-29c4-6-5-11-8-5zm-4-24l-16 29c-3 5 5 10 8 5l17-29c3-6-5-11-9-5zm-26 45l-16 29c-3 5 5 10 8 5l17-29c3-6-5-11-9-5zm4-36l-17 29c-3 5 6 10 9 5l17-29c3-6-6-11-9-5zm-4-24l-16 29c-3 5 5 10 9 5l16-29c3-6-5-11-9-5zm-26 45l-16 29c-3 5 5 10 9 5l16-29c3-5-5-10-9-5zm4 23l-16 29c-3 5 5 10 8 5l17-29c3-5-5-11-9-5zm27 14l-16 29c-3 5 5 10 8 5l17-29c3-5-5-11-9-5zm77-66l-16 29c-3 5 5 10 8 5l17-29c3-6-5-11-9-5zm-26 45l-16 29c-3 5 5 10 8 5l17-29c3-6-5-11-9-5zm4-36l-17 29c-3 5 6 10 9 5l16-29c4-6-5-11-8-5zm-26 44l-16 29c-3 5 5 10 8 5l17-29c3-6-5-11-9-5z" fill="#fff"/><path d="M208 149c0 4-4 8-7 8h-55c-4 0-7-4-7-8V92c0-4 3-8 7-8h55c4 0 7 4 7 8v57z" fill="#fff" stroke="#fff" stroke-width="13" stroke-miterlimit="10"/><path d="M172 142a8 8 0 0 0 8 8h36a8 8 0 0 0 8-8v-22a8 8 0 0 0-8-8h-36a8 8 0 0 0-8 8v22zm-1 16c0 4-3 8-7 8H98c-4 0-7-4-7-8v-57c0-4 3-8 7-8h66c3 0 7 4 7 8v57z" fill="#fff" stroke="#fff" stroke-width="13" stroke-miterlimit="10"/><path d="M285 280c0 6-6 5-10 5-3 0-9 0-9-5V85c0-4 0-7 5-8 4 0 14-1 14 5v198c0 5 7 5 7 0V80c-3-10-11-10-19-10-7 0-14 4-14 12v187l1 13c2 9 9 10 16 10l9-1c4-2 7-6 7-11 0-4-7-4-7 0z" fill="#fff"/><path d="M263 105h21c2 0 2-3 0-3h-21c-2 0-2 3 0 3zm0-10h12c2 0 2-3 0-3h-12c-2 0-2 3 0 3zm0-9h12c2 0 2-3 0-3h-12c-2 0-2 3 0 3zm-1 65h22c2 0 2-3 0-3h-22c-2 0-2 3 0 3zm0-9h12c2 0 2-3 0-3h-12c-2 0-2 3 0 3zm0-10h12c2 0 2-3 0-3h-12c-2 0-2 3 0 3zm0-9h12c2 0 2-3 0-3h-12c-2 0-2 3 0 3zm0-9h12c2 0 2-3 0-3h-12c-2 0-2 3 0 3zm1 83h21c2 0 2-3 0-3h-21c-2 0-2 3 0 3zm0-10h12c2 0 2-3 0-3h-12c-2 0-2 3 0 3zm0-9h12c2 0 2-3 0-3h-12c-2 0-2 3 0 3zm0-9h12c2 0 2-3 0-3h-12c-2 0-2 3 0 3zm0-9h12c2 0 2-3 0-3h-12c-2 0-2 3 0 3zm-1 83h21c2 0 2-3 0-3h-21c-2 0-2 3 0 3zm0-9h12c2 0 2-3 0-3h-12c-2 0-2 3 0 3zm0-9h12c2 0 2-3 0-3h-12c-2 0-2 3 0 3zm0-10h12c2 0 2-3 0-3h-12c-2 0-2 3 0 3zm0-9h12c2 0 2-3 0-3h-12c-2 0-2 3 0 3zm0 74h12c2 0 2-3 0-3h-12c-2 0-2 3 0 3zm0-9h12c2 0 2-3 0-3h-12c-2 0-2 3 0 3zm0-9h12c2 0 2-3 0-3h-12c-2 0-2 3 0 3zm0-10h12c2 0 2-3 0-3h-12c-2 0-2 3 0 3z" fill="#fff"/></svg>