<svg xmlns="http://www.w3.org/2000/svg" width="361" height="361"><path d="M262 96v191c0 6 10 6 10 0V96c0-6-10-6-10 0z" fill="#fff"/><path fill="none" stroke="#fff" stroke-width="10" stroke-miterlimit="10" d="M75 127l117-51M86 157l125-13"/><path fill="#fff" d="M192 76l65 19-46 49z"/><path d="M191 80l65 20-2-9-47 49 9 3-19-69c-1-6-11-3-9 3l18 68c1 4 6 5 8 2l47-49a5 5 0 0 0-3-8l-64-19c-6-2-9 8-3 9zm-90 72a7 7 0 0 1-5 9l-10 2a7 7 0 0 1-8-5l-8-29a7 7 0 0 1 5-8l10-3a7 7 0 0 1 9 5l7 29zm40-6c1 4-1 8-5 9l-10 3c-3 1-7-2-9-7l-8-35c-1-5 1-9 4-10l10-3c4-1 8 2 9 7l9 36zm43-8c1 6-1 11-5 12l-9 3c-4 1-8-3-10-9l-11-45c-1-5 1-11 4-12l10-2c4-1 8 3 9 8l12 45zM91 258l-2-7a5 5 0 0 0-4-2 34 34 0 0 0-4 0v29H70v-36a74 74 0 0 1 7-2 58 58 0 0 1 4 0h4a15 15 0 0 1 11 3l6-2a19 19 0 0 1 13 0l4 3a14 14 0 0 1 3 6v28h-10v-20l-2-7a5 5 0 0 0-4-2h-3a9 9 0 0 0-2 1v4a50 50 0 0 1 0 4v20H91v-20zm45 34h-11l24-70h11l-24 70zm36-21l4-1 1-2-1-2a30 30 0 0 0-5-3l-5-2-3-2a10 10 0 0 1-2-3l-1-5a10 10 0 0 1 4-8 17 17 0 0 1 11-4 35 35 0 0 1 11 2l-1 9a39 39 0 0 0-5-1l-5-1c-3 0-5 1-5 3l1 1 1 1 1 1 3 1 6 3a14 14 0 0 1 4 3l2 3v4c0 4-1 7-4 9a21 21 0 0 1-12 2 34 34 0 0 1-13-2l2-9a35 35 0 0 0 5 2 27 27 0 0 0 6 1z" fill="#fff"/></svg>