<svg xmlns="http://www.w3.org/2000/svg" width="361" height="361"><path d="M262 96v191c0 6 10 6 10 0V96c0-6-10-6-10 0z" fill="#fff"/><path fill="none" stroke="#fff" stroke-width="10" stroke-miterlimit="10" d="M75 127l117-51M86 157l125-13"/><path fill="#fff" d="M192 76l65 19-46 49z"/><path d="M191 80l65 20-2-9-47 49 9 3-19-69c-1-6-11-3-9 3l18 68c1 4 6 5 8 2l47-49a5 5 0 0 0-3-8l-64-19c-6-2-9 8-3 9zm-90 72a7 7 0 0 1-5 9l-10 2a7 7 0 0 1-8-5l-8-29a7 7 0 0 1 5-8l10-3a7 7 0 0 1 9 5l7 29zm40-6c1 4-1 8-5 9l-10 3c-3 1-7-2-9-7l-8-35c-1-5 1-9 4-10l10-3c4-1 8 2 9 7l9 36zm43-8c1 6-1 11-5 12l-9 3c-4 1-8-3-10-9l-11-45c-1-5 1-11 4-12l10-2c4-1 8 3 9 8l12 45zM86 279l-8-1a58 58 0 0 1-9-1v-48l8-1a97 97 0 0 1 8-1l8 1 7 2a12 12 0 0 1 5 5 13 13 0 0 1 1 6c0 4-2 7-6 10 4 1 6 3 7 5a14 14 0 0 1 2 7c0 5-2 9-6 11-4 3-9 4-17 4zm-6-31h6l7-2c2-1 2-2 2-4s0-4-2-4l-7-2h-3a34 34 0 0 0-3 1v10zm0 8v13a39 39 0 0 0 6 0 19 19 0 0 0 8-1c2-1 3-3 3-5 0-3-1-4-2-5l-8-2h-7zm53-34a23 23 0 0 1 10 2l-2 8a14 14 0 0 0-3-1 17 17 0 0 0-3 0l-4 1a5 5 0 0 0-3 3 12 12 0 0 0 0 3v2h13v9h-13v29h-11v-40a16 16 0 0 1 4-12c3-3 7-4 12-4zm14 9l11-2v11h13v9h-13v13l1 6c1 1 2 2 5 2a20 20 0 0 0 3-1 18 18 0 0 0 4-1l1 9a30 30 0 0 1-4 1 25 25 0 0 1-13-1 11 11 0 0 1-5-3 12 12 0 0 1-2-5 30 30 0 0 1-1-7v-32z" fill="#fff"/></svg>