<svg xmlns="http://www.w3.org/2000/svg" width="361" height="361"><path d="M165.2 141c0 4.4-3.1 8-7 8h-54.5c-4 0-7-3.6-7-8V84.3c0-4.3 3-7.8 7-7.8h54.5c3.9 0 7 3.5 7 7.8v56.9z" fill="#fff" stroke="#fff" stroke-width="13.1" stroke-miterlimit="10"/><path d="M78 121.5a7.8 7.8 0 0 0 7.8 7.8h36.6a7.8 7.8 0 0 0 7.9-7.8V99.3a7.8 7.8 0 0 0-7.9-7.9H85.8a7.8 7.8 0 0 0-7.8 7.9v22.2z" fill="#fff" stroke="#fff" stroke-width="13.1" stroke-miterlimit="10"/><path d="M76.3 121.5a7.8 7.8 0 0 1 7.9-7.9h45a7.8 7.8 0 0 1 7.9 7.9v12.4a7.8 7.8 0 0 1-7.9 7.8h-45a7.8 7.8 0 0 1-7.9-7.8v-12.4z" fill="#fff" stroke="#fff" stroke-width="13.1" stroke-miterlimit="10"/><path d="M142.8 171l-16.5 28.5c-3.2 5.6 5.4 10.7 8.6 5l16.5-28.5c3.3-5.6-5.4-10.6-8.6-5zm-3.5-24l-16.5 28.6c-3.2 5.6 5.4 10.6 8.6 5l16.5-28.5c3.3-5.6-5.4-10.7-8.6-5.1zm-26 45l-16.5 28.6c-3.2 5.6 5.4 10.6 8.6 5l16.5-28.5c3.3-5.6-5.4-10.6-8.6-5zm3.5-36l-16.5 28.5c-3.2 5.6 5.4 10.7 8.7 5l16.5-28.5c3.2-5.6-5.5-10.6-8.7-5zm-3.5-24l-16.5 28.6c-3.2 5.6 5.4 10.6 8.7 5l16.5-28.5c3.2-5.6-5.5-10.7-8.7-5.1zm-26 45l-16.5 28.6c-3.2 5.6 5.4 10.6 8.7 5L96 182.2c3.2-5.6-5.5-10.6-8.7-5zm4 23.1l-16.5 28.6c-3.2 5.6 5.4 10.6 8.6 5l16.5-28.5c3.3-5.6-5.4-10.7-8.6-5zm27 14l-16.5 28.6c-3.2 5.6 5.4 10.6 8.6 5l16.5-28.5c3.3-5.6-5.4-10.7-8.6-5zm77-66.1l-16.5 28.6c-3.2 5.6 5.4 10.6 8.6 5l16.5-28.5c3.3-5.6-5.4-10.7-8.6-5.1zm-26 45l-16.5 28.6c-3.2 5.6 5.4 10.6 8.6 5l16.5-28.5c3.3-5.6-5.4-10.6-8.6-5zm3.5-36l-16.5 28.5c-3.2 5.6 5.4 10.7 8.6 5l16.5-28.5c3.3-5.6-5.4-10.6-8.6-5zm-25.5 44l-16.5 28.6c-3.2 5.6 5.4 10.6 8.6 5l16.5-28.5c3.3-5.6-5.4-10.7-8.6-5z" fill="#fff"/><path d="M207.7 149c0 4.2-3.2 7.7-7 7.7H146c-3.9 0-7-3.5-7-7.8V92.1c0-4.3 3.1-7.8 7-7.8h54.5c4 0 7 3.5 7 7.8v56.8z" fill="#fff" stroke="#fff" stroke-width="13.1" stroke-miterlimit="10"/><path d="M171.8 142.4a7.8 7.8 0 0 0 7.8 7.8h36.6a7.8 7.8 0 0 0 7.8-7.8v-22.2a7.8 7.8 0 0 0-7.8-7.9h-36.6a7.8 7.8 0 0 0-7.8 7.9v22.2zm-1.2 15.7c0 4.3-3.1 7.8-7 7.8H98.1c-3.9 0-7-3.5-7-7.8v-56.9c0-4.3 3.1-7.8 7-7.8h65.5c3.9 0 7 3.5 7 7.8v56.9z" fill="#fff" stroke="#fff" stroke-width="13.1" stroke-miterlimit="10"/><path d="M285 280.3c-.4 5.4-6 4.5-9.8 4.5-3.4 0-8.9.6-8.9-4.5V84.5c0-3.2 0-7 4.5-7.3 4.3-.3 14.3-1.5 14.3 4.8v198.3c0 4.5 7 4.5 7 0V95.5c0-5 1-11-.3-16-2.4-9.7-11.2-9.3-19.3-9.3-6.9 0-13.2 4-13.2 11.7V269c0 4.2-.8 9.3.3 13.4 2 8.5 9.2 9.3 16.6 9.3 2.9 0 6 .3 8.7-.9 4.5-1.9 6.8-5.8 7.2-10.6.3-4.5-6.7-4.5-7 0z" fill="#fff"/><path d="M262.8 104.5h21.5c2 0 2-3 0-3h-21.5c-1.9 0-1.9 3 0 3zm0-9.3h12c2 0 2-3 0-3h-12c-1.9 0-1.9 3 0 3zm0-9.3h12c2 0 2-3 0-3h-12c-1.9 0-1.9 3 0 3zm-.8 65h21.6c1.9 0 1.9-3 0-3H262c-1.9 0-1.9 3 0 3zm0-9.3h12c2 0 2-3 0-3h-12c-1.9 0-1.9 3 0 3zm0-9.3h12c2 0 2-3 0-3h-12c-1.9 0-1.9 3 0 3zm0-9.3h12c2 0 2-3 0-3h-12c-1.9 0-1.9 3 0 3zm0-9.3h12c2 0 2-3 0-3h-12c-1.9 0-1.9 3 0 3zm.7 83.1h21.5c1.9 0 1.9-3 0-3h-21.5c-2 0-2 3 0 3zm0-9.3h12c1.9 0 1.9-3 0-3h-12c-2 0-2 3 0 3zm0-9.3h12c1.9 0 1.9-3 0-3h-12c-2 0-2 3 0 3zm0-9.3h12c1.9 0 1.9-3 0-3h-12c-2 0-2 3 0 3zm0-9.3h12c1.9 0 1.9-3 0-3h-12c-2 0-2 3 0 3zm-.8 83.6h21.5c2 0 2-3 0-3h-21.5c-2 0-2 3 0 3zm0-9.3h12c1.9 0 1.9-3 0-3h-12c-2 0-2 3 0 3zm0-9.3h12c1.9 0 1.9-3 0-3h-12c-2 0-2 3 0 3zm0-9.3h12c1.9 0 1.9-3 0-3h-12c-2 0-2 3 0 3zm0-9.3h12c1.9 0 1.9-3 0-3h-12c-2 0-2 3 0 3zm.2 74.3h12c1.9 0 1.9-3 0-3h-12c-2 0-2 3 0 3zm0-9.3h12c1.9 0 1.9-3 0-3h-12c-2 0-2 3 0 3zm0-9.3h12c1.9 0 1.9-3 0-3h-12c-2 0-2 3 0 3zm0-9.3h12c1.9 0 1.9-3 0-3h-12c-2 0-2 3 0 3z" fill="#fff"/></svg>