<svg xmlns="http://www.w3.org/2000/svg" width="361" height="361"><path d="M116 287c0-29 1-59 8-87a123 123 0 0 1 8-28 32 32 0 0 1 5-8 9 9 0 0 1 3-2 5 5 0 0 1 1 0c7 0 7-10 0-10-16 0-22 26-26 39-8 31-9 64-9 96 0 7 10 7 10 0zm37-157a5 5 0 0 1-5 5h-4a5 5 0 0 1-5-5v-3a5 5 0 0 1 5-5h4a5 5 0 0 1 4 5v3zm15 1a5 5 0 0 1-5 4h-4a5 5 0 0 1-5-4v-4a5 5 0 0 1 5-5h4a5 5 0 0 1 5 5v4zm-23 13a5 5 0 0 1-5 4h-3a5 5 0 0 1-5-4v-4a5 5 0 0 1 5-5h3a5 5 0 0 1 5 5v4zm29 1a5 5 0 0 1-5 5h-4a5 5 0 0 1-5-5v-4a5 5 0 0 1 5-4h4a5 5 0 0 1 5 4v4zm-12 12a5 5 0 0 1-5 4h-3a5 5 0 0 1-5-4v-4a5 5 0 0 1 5-5h3a5 5 0 0 1 5 5v4zm18 12a5 5 0 0 1-5 4h-3a5 5 0 0 1-5-4v-4a5 5 0 0 1 5-5h3a5 5 0 0 1 5 5v4zm10-43a5 5 0 0 1-5 5h-4a5 5 0 0 1-5-5v-3a5 5 0 0 1 5-5h4a5 5 0 0 1 5 5v4zm1 30a5 5 0 0 1-5 5h-4a5 5 0 0 1-5-5v-4a5 5 0 0 1 5-4h4a5 5 0 0 1 5 4v4zm3-15a5 5 0 0 1-5 5h-4a5 5 0 0 1-4-5v-3a5 5 0 0 1 4-5h4a5 5 0 0 1 5 5v3zm-17-27a5 5 0 0 1-4 5h-4a5 5 0 0 1-5-5v-3a5 5 0 0 1 5-5h4a5 5 0 0 1 4 5v3zm-15-4a5 5 0 0 1-5 5h-3a5 5 0 0 1-5-5v-4a5 5 0 0 1 5-4h3a5 5 0 0 1 5 4v4zm-14 3a5 5 0 0 1-5 5h-4a5 5 0 0 1-5-5v-4a5 5 0 0 1 5-5h4a5 5 0 0 1 5 5v4zm-13 10a5 5 0 0 1-5 5h-4a5 5 0 0 1-4-5v-4a5 5 0 0 1 5-5h3a5 5 0 0 1 5 5v4zm-6 14a5 5 0 0 1-5 5h-4a5 5 0 0 1-5-5v-3a5 5 0 0 1 5-5h4a5 5 0 0 1 5 5v3zm36 38a5 5 0 0 1-5 5h-3a5 5 0 0 1-5-5v-4a5 5 0 0 1 5-4h3a5 5 0 0 1 5 4v4z" fill="#fff"/><path d="M151 173a5 5 0 0 1-5 5h-4a5 5 0 0 1-5-5v-3a5 5 0 0 1 5-5h4a5 5 0 0 1 4 5v3zm-21-21a5 5 0 0 1-5 5h-3a5 5 0 0 1-5-5v-4a5 5 0 0 1 5-4h3a5 5 0 0 1 5 4v4zm152-57a4 4 0 0 1-8 0 4 4 0 0 1 8 0zm9-12a4 4 0 0 1-7 0 4 4 0 0 1 7 0zm-31-6a4 4 0 0 1-8 0 4 4 0 0 1 8 0zm4 27a4 4 0 0 1-7 0 4 4 0 0 1 7 0zm-19-1a4 4 0 0 1-8 0 4 4 0 0 1 8 0zm-23-29a4 4 0 0 1-7 0 4 4 0 0 1 8 0zm18 15a4 4 0 0 1-8 0 4 4 0 0 1 8 0zm-44-4a4 4 0 0 1-7 0 4 4 0 0 1 7 0zm4 9a4 4 0 0 1 8 0 4 4 0 1 1-8 0zm18 10a4 4 0 1 1 8 1 4 4 0 0 1-8 0zm-24 66a4 4 0 0 1-7 0 4 4 0 0 1 7 0zm5-8a4 4 0 0 1-7 0 4 4 0 0 1 7 0zm4-9a4 4 0 0 1-7 0 4 4 0 0 1 7 0zm-79-44a4 4 0 0 1-7 0 4 4 0 0 1 7 0zm8-7a4 4 0 0 1-8 0 4 4 0 0 1 8 0zm8-4a4 4 0 0 1-8 0 4 4 0 0 1 8 0zm9-3a4 4 0 0 1-8 0 4 4 0 0 1 8 0zm9 0a4 4 0 0 1-7 0 4 4 0 0 1 8 0zm10 1a4 4 0 0 1-8 0 4 4 0 0 1 8 0zm9 3a4 4 0 0 1-7 0 4 4 0 0 1 7 0zm9 4a4 4 0 0 1-8 0 4 4 0 0 1 8 0zm7 6a4 4 0 0 1-8 0 4 4 0 0 1 8 0zm5 8a4 4 0 0 1-8 0 4 4 0 0 1 8 0zm4 8a4 4 0 0 1-7 0 4 4 0 0 1 7 0zm3 9a4 4 0 0 1-8 0 4 4 0 0 1 8 0zm0 10a4 4 0 0 1-8 0 4 4 0 0 1 8 0zm-25 32a4 4 0 0 1 7 2 4 4 0 1 1-7-2zm-7 5a4 4 0 1 1 7 2 4 4 0 0 1-7-2zm-8 4a4 4 0 0 1 7 1 4 4 0 0 1-7-1zm-9 1a4 4 0 1 1 7 2 4 4 0 1 1-7-2zm-9 0a4 4 0 1 1 7 2 4 4 0 1 1-7-2zm-7-4a4 4 0 0 1 3 7 4 4 0 1 1-3-7zm-27-20a4 4 0 0 1 3 7 4 4 0 1 1-3-7zm-4-8a4 4 0 0 1 3 7 4 4 0 0 1-5-2 4 4 0 0 1 2-5zm2-8a4 4 0 1 1-4 7 4 4 0 0 1 4-7zm-1-8a4 4 0 0 1 1 5 4 4 0 0 1-5 1 4 4 0 1 1 4-6zm0-9a4 4 0 0 1 2 5 4 4 0 1 1-7-4 4 4 0 0 1 5-1zm3-9a4 4 0 0 1 1 6 4 4 0 0 1-5 1 4 4 0 1 1 4-7zm4-8a4 4 0 0 1 1 5 4 4 0 0 1-5 2 4 4 0 0 1 4-7zm0 171c0-43 43-70 83-70l-1-7-26 14-18 10-8 4a1463757 1463757 0 0 1-36 47c-3 4 2 9 5 5l36-46 1-1 6-3 17-10 26-14c3-2 2-6-1-6-44 0-90 30-91 77 0 5 7 5 7 0z" fill="#fff"/><path d="M112 288a62 62 0 0 0-37-79c-3-1-6 3-4 6l13 16 8 11 3 3c1 1 0 0 0 0l10 43c2 4 8 2 7-2l-10-42-3-5-9-11-13-17-4 5c29 10 41 42 32 70-1 4 6 6 7 2z" fill="#fff"/></svg>