<svg xmlns="http://www.w3.org/2000/svg" width="361" height="361"><path d="M262 96v191c0 6 10 6 10 0V96c0-6-10-6-10 0zm-89 162l44-119c2-6-8-9-10-3l-44 119c-2 6 8 9 10 3zm17 9l67-108c4-6-5-11-8-5l-68 108c-3 6 5 11 9 5z" fill="#fff"/><path fill="#fff" d="M212 137l45-42-4 61z"/><path d="M215 141l46-42-9-4-4 61 7-4-41-19c-5-3-11 6-5 9l41 19c4 1 8-1 8-5l4-61c1-5-5-6-8-3l-46 42c-5 4 3 11 7 7zm-21 108c2 1 2 4 1 8l-5 9c-2 3-5 5-7 4l-17-9c-2-1-2-4-1-8l5-9c1-3 4-5 7-4l17 9zm20-36c2 1 3 5 1 9l-4 9c-2 3-5 5-8 4l-21-11c-3-1-3-5-2-9l5-8c1-4 5-6 8-4l21 10zm21-38a7 7 0 0 1 3 9l-5 9a7 7 0 0 1-9 4l-26-13a7 7 0 0 1-3-10l4-8c2-4 6-5 9-4l27 13z" fill="#fff"/></svg>