<svg xmlns="http://www.w3.org/2000/svg" width="361" height="361"><path d="M248 291l-8-1-5-2a9 9 0 0 1-2-4 22 22 0 0 1-1-6v-42l11-1v44l1 2 2 1h3l-1 9zm24-28l7-10h11l-13 18 8 10a95 95 0 0 1 6 10h-12l-1-3a68 68 0 0 0-2-3 18 18 0 0 0-2-3 39 39 0 0 0-3-3l-2 2a17 17 0 0 0-2 3l-2 4a75 75 0 0 0-2 3h-11a69 69 0 0 1 6-10 66 66 0 0 1 8-9l-7-10-6-9h11l8 10zm-155 21c0 7-15 5-19 5H78c-7 0-5-12-5-16V79c0-3 2-6 6-6h20c3 0 18-3 18 4v208c0 2 3 2 3 0V78c0-12-15-8-23-8H78c-4 0-8 3-8 7v207c0 10 12 8 19 8h21c5 0 10-1 10-7 1-2-2-2-3 0zm73-205l15 15c4 5 11-2 7-7l-15-15c-5-5-12 3-7 7zm-31 46h40c6 0 6-10 0-10h-40c-6 0-6 10 0 10zm131 39l-15-15c-5-5-12 2-7 7l15 15c4 4 11-3 7-7zm-45 37v-39c0-7-10-7-10 0v39c0 7 10 7 10 0zm-60-17l28-28c5-5-3-12-7-7l-28 28c-5 4 2 11 7 7z" fill="#fff"/><path d="M159 125h40c6 0 6-10 0-10h-40c-6 0-6 10 0 10zm86 76v-39c0-7-10-7-10 0v39c0 7 10 7 10 0zm-60-17l28-28c4-5-3-12-7-7l-28 28c-5 4 2 11 7 7zm1-80l12 5c2 1 5-1 6-4 0-3-1-5-4-6l-11-5c-2-1-5 1-6 4s1 5 3 6zm3 44l12-4c2-1 4-4 3-7-1-2-4-4-6-3l-11 5c-3 1-5 3-4 6 1 2 4 4 6 3zm35 26l4-12c1-2-1-5-3-6-3 0-5 1-7 4l-4 11c-1 2 1 5 3 6 3 1 5-1 7-3zm42-3l-5-11c-1-3-3-4-6-4-2 1-4 4-3 6l4 12c1 2 4 4 7 3 2-1 4-4 3-6zm-52-94l3 6c1 2 3 4 6 3 2 0 4-3 3-6l-2-6c-1-2-4-4-7-3-2 0-4 3-3 6zm74 58l-7-3c-2 0-5 2-6 4-1 3 1 5 4 6l6 3c3 1 6-1 6-4 1-3-1-5-3-6z" fill="#fff"/><path d="M265 129a14 14 0 0 1-15 14h-18a14 14 0 0 1-14-14v-17a14 14 0 0 1 14-15h18a14 14 0 0 1 15 15v17z" fill="none" stroke="#fff" stroke-width="10" stroke-miterlimit="10"/><path d="M83 282h25c6 0 6-10 0-10H83c-7 0-7 10 0 10zm0-14h25c6 0 6-10 0-10H83c-7 0-7 10 0 10zm0-15h25c6 0 6-10 0-10H83c-7 0-7 10 0 10zm0-14h25c6 0 6-10 0-10H83c-7 0-7 10 0 10zm0-15h25c6 0 6-10 0-10H83c-7 0-7 10 0 10zm0-14h25c6 0 6-10 0-10H83c-7 0-7 10 0 10zm0-15h25c6 0 6-10 0-10H83c-7 0-7 10 0 10zm0-15h25c6 0 6-10 0-10H83c-7 0-7 10 0 10zm0-14h25c6 0 6-10 0-10H83c-7 0-7 10 0 10z" fill="#fff"/></svg>