<svg xmlns="http://www.w3.org/2000/svg" width="361" height="361"><path d="M190 79l15 15c4 4 11-3 7-7l-15-15c-5-5-12 2-7 7zm-31 46h40c6 0 6-10 0-10h-40c-6 0-6 10 0 10zm131 39l-15-15c-5-5-12 2-7 7l15 15c4 4 11-3 7-7zm-45 38v-39c0-7-10-7-10 0v39c0 7 10 7 10 0zm-60-18l28-28c4-5-3-12-7-7l-28 28c-5 4 2 11 7 7z" fill="#fff"/><path d="M159 125h40c6 0 6-10 0-10h-40c-6 0-6 10 0 10zm86 77v-39c0-7-10-7-10 0v39c0 7 10 7 10 0zm-60-18l28-28c5-5-3-12-7-7l-28 28c-5 4 2 11 7 7zm2-80l11 4c2 1 5-1 6-3 1-3-1-5-4-6l-11-5c-2-1-5 1-6 3-1 3 1 6 4 7zm3 44l11-5c2-1 4-3 3-6-1-2-4-4-6-3l-11 4c-3 1-4 3-4 6 1 3 4 5 7 4zm34 25l4-11c1-2-1-5-3-6-3-1-5 1-6 4l-5 11c-1 2 1 5 4 6 2 1 5-1 6-4zm42-2l-4-11c-1-3-4-5-7-4-2 1-4 4-3 6l4 11c2 3 4 5 7 4 2-1 4-4 3-6zm-52-94l3 6c1 2 3 4 6 3 2 0 4-3 3-6l-2-6c-1-3-4-4-7-4-2 1-4 4-3 7zm74 58l-6-3c-3-1-6 1-7 4 0 3 1 5 4 6l6 3c3 1 6-1 6-4 1-3-1-5-3-6z" fill="#fff"/><path d="M88 221a8 8 0 0 0 8 8h37a8 8 0 0 0 8-8v-22a8 8 0 0 0-8-8H96a8 8 0 0 0-8 8v22z" fill="#fff" stroke="#fff" stroke-width="10" stroke-miterlimit="10"/><path d="M75 223a8 8 0 0 1 8-8h46a8 8 0 0 1 8 8v13a8 8 0 0 1-8 8H83a8 8 0 0 1-8-8v-13zm175 12c0 4-3 7-6 7h-46c-3 0-6-3-6-7v-47c0-4 3-7 6-7h46c3 0 6 3 6 7v47z" fill="#fff" stroke="#fff" stroke-width="10" stroke-miterlimit="10"/><path d="M234 225a8 8 0 0 0 8 8h37a8 8 0 0 0 8-8v-23a8 8 0 0 0-8-8h-37a8 8 0 0 0-8 8v23z" fill="#fff" stroke="#fff" stroke-width="10" stroke-miterlimit="10"/><path d="M265 129a14 14 0 0 1-14 14h-19a14 14 0 0 1-14-14v-18a14 14 0 0 1 14-14h19a14 14 0 0 1 14 14v18z" fill="none" stroke="#fff" stroke-width="10" stroke-miterlimit="10"/><path d="M179 226a7 7 0 0 0 6 6h31a7 7 0 0 0 7-6v-19a7 7 0 0 0-7-7h-31a7 7 0 0 0-6 7v19zm-31-11a8 8 0 0 0-8-8h-37a8 8 0 0 0-8 8v23a8 8 0 0 0 8 8h37a8 8 0 0 0 8-8v-23z" fill="#fff" stroke="#fff" stroke-width="10" stroke-miterlimit="10"/><path d="M160 223a8 8 0 0 1-8 8h-46a8 8 0 0 1-8-8v-13a8 8 0 0 1 8-8h46a8 8 0 0 1 8 8v13zm68 21a7 7 0 0 0 7 6h31a7 7 0 0 0 7-6v-19a7 7 0 0 0-7-7h-31a7 7 0 0 0-7 7v19z" fill="#fff" stroke="#fff" stroke-width="10" stroke-miterlimit="10"/></svg>