<svg xmlns="http://www.w3.org/2000/svg" width="361" height="361"><path d="M189.7 78.8l15 15c4.5 4.5 11.6-2.5 7-7.1l-14.9-14.9c-4.6-4.6-11.6 2.5-7 7zM159 125h39.6c6.5 0 6.5-10 0-10H159c-6.4 0-6.4 10 0 10zm130.7 38.6l-15-15c-4.6-4.6-11.6 2.5-7 7l15 15.1c4.5 4.6 11.6-2.5 7-7zm-44.4 37.7v-39.6c0-6.4-10-6.4-10 0v39.6c0 6.4 10 6.4 10 0zm-60.4-17.6l28-28c4.6-4.6-2.5-11.7-7-7l-28 28c-4.6 4.5 2.4 11.5 7 7z" fill="#fff"/><path d="M159 125h39.6c6.5 0 6.5-10 0-10H159c-6.4 0-6.4 10 0 10zm86.3 76.2v-39.6c0-6.4-10-6.4-10 0v39.6c0 6.4 10 6.4 10 0zm-60.4-17.6l28-28c4.6-4.6-2.5-11.7-7-7l-28 28c-4.6 4.5 2.4 11.5 7 7zm1.6-79.9l11.2 4.6c2.5 1 5.5-1 6.1-3.5.8-2.9-1-5-3.5-6.1L189.2 94c-2.5-1-5.5 1-6.2 3.4-.8 3 1 5.1 3.5 6.2zm3 44.2l11.2-4.6c2.5-1 4.2-3.3 3.5-6.2-.7-2.4-3.7-4.5-6.2-3.5l-11.1 4.6c-2.6 1.1-4.3 3.3-3.5 6.2.6 2.4 3.6 4.5 6.1 3.5zm34.2 25.5l4.6-11.2c1-2.5-1.1-5.5-3.5-6.1-2.9-.8-5.1 1-6.2 3.5l-4.6 11.1c-1 2.5 1.1 5.5 3.5 6.2 2.9.8 5.1-1 6.2-3.5zm42.5-2.7l-4.6-11.1c-1-2.5-3.3-4.3-6.2-3.5-2.4.6-4.5 3.6-3.5 6.1l4.6 11.2c1 2.5 3.3 4.3 6.2 3.5 2.4-.7 4.5-3.7 3.5-6.2zM214 76.5l2.5 6.2c1 2.5 3.3 4.3 6.2 3.5 2.3-.7 4.5-3.6 3.5-6.1l-2.6-6.2c-1-2.5-3.3-4.3-6.1-3.5-2.4.6-4.6 3.6-3.5 6.1zm74 58.5l-6.5-2.6c-2.5-1-5.5 1-6.1 3.5-.8 2.8 1 5 3.5 6.1l6.4 2.7c2.5 1 5.5-1.1 6.2-3.5.8-2.9-1-5.1-3.5-6.2z" fill="#fff"/><path d="M196 212c0 4.3-3.2 8-7.2 8H133c-4 0-7.2-3.7-7.2-8v-58.2c0-4.5 3.3-8 7.2-8h55.8c4 0 7.2 3.5 7.2 8v58.1z" fill="#fff" stroke="#fff" stroke-width="10" stroke-miterlimit="10"/><path d="M90.4 194.9a8 8 0 0 0 8 8H136a8 8 0 0 0 8-8V172a8 8 0 0 0-8-8H98.4a8 8 0 0 0-8 8v23z" fill="#fff" stroke="#fff" stroke-width="10" stroke-miterlimit="10"/><path d="M74.4 194.9a8 8 0 0 1 8-8h46a8 8 0 0 1 8.1 8v12.7a8 8 0 0 1-8 8H82.4a8 8 0 0 1-8-8v-12.7zm175.3 28c0 4.5-3.2 8-7.2 8h-55.8c-4 0-7.2-3.5-7.2-8v-58.1c0-4.4 3.2-8 7.2-8h55.8c4 0 7.2 3.6 7.2 8v58.1z" fill="#fff" stroke="#fff" stroke-width="10" stroke-miterlimit="10"/><path d="M233.4 209.3a8 8 0 0 0 8 8H279a8 8 0 0 0 8-8v-22.8a8 8 0 0 0-8-8h-37.5a8 8 0 0 0-8 8v22.8zm-31.8 23c0 4.4-3.3 8-7.2 8h-55.8c-4 0-7.2-3.6-7.2-8V174c0-4.4 3.2-8 7.2-8h55.8c4 0 7.2 3.6 7.2 8v58.2z" fill="#fff" stroke="#fff" stroke-width="10" stroke-miterlimit="10"/><path d="M264.8 128.6a14.2 14.2 0 0 1-14.2 14.2h-18.3a14.2 14.2 0 0 1-14.2-14.2v-17.3A14.2 14.2 0 0 1 232.3 97h18.3a14.2 14.2 0 0 1 14.2 14.2v17.3z" fill="none" stroke="#fff" stroke-width="10" stroke-miterlimit="10"/><path d="M187 142.4a8 8 0 0 1 8-8h46.2a8 8 0 0 1 8 8v12.7a8 8 0 0 1-8 8H195a8 8 0 0 1-8-8v-12.7z" fill="#fff" stroke="#fff" stroke-width="10" stroke-miterlimit="10"/><path d="M255.5 135.7a8 8 0 0 1 8 8v46.1a8 8 0 0 1-8 8h-12.7a8 8 0 0 1-8-8v-46a8 8 0 0 1 8-8.1h12.7zm-78.7.8a8 8 0 0 0-8 8v37.4a8 8 0 0 0 8 8h22.8a8 8 0 0 0 8-8v-37.4a8 8 0 0 0-8-8h-22.8z" fill="#fff" stroke="#fff" stroke-width="10" stroke-miterlimit="10"/><path d="M192.4 172.8c0 6.3 5 11.3 11.3 11.3h52.9c6.3 0 11.3-5 11.3-11.3v-32c0-6.3-5-11.4-11.3-11.4h-52.9a11.3 11.3 0 0 0-11.3 11.3v32.1z" fill="#fff" stroke="#fff" stroke-width="10" stroke-miterlimit="10"/><path d="M263.5 240.4c0 4-3 7.3-6.8 7.3h-52.8c-3.8 0-6.8-3.3-6.8-7.3v-52.6c0-4 3-7.3 6.8-7.3h52.8c3.7 0 6.8 3.3 6.8 7.3v52.6z" fill="#fff" stroke="#fff" stroke-width="10" stroke-miterlimit="10"/><path d="M275.6 177.8c0 2.1-1.5 3.8-3.4 3.8h-26.3c-1.8 0-3.4-1.7-3.4-3.8v-27.4c0-2 1.6-3.7 3.4-3.7h26.3c1.9 0 3.4 1.7 3.4 3.7v27.4zm-110.4 60.9c0 4.4-3.2 8-7.1 8h-55.8c-4 0-7.2-3.6-7.2-8v-58.2c0-4.4 3.2-8 7.2-8H158c4 0 7.2 3.6 7.2 8v58.2z" fill="#fff" stroke="#fff" stroke-width="10" stroke-miterlimit="10"/><path d="M165.3 238.7c0 4.4-3.3 8-7.3 8h-55.7c-4 0-7.2-3.6-7.2-8v-58.2c0-4.4 3.2-8 7.2-8H158c4 0 7.2 3.6 7.2 8v58.2z" fill="#fff" stroke="#fff" stroke-width="10" stroke-miterlimit="10"/><path d="M129.8 249a6.7 6.7 0 0 0 6.6 6.6h31.1a6.7 6.7 0 0 0 6.7-6.7V230a6.7 6.7 0 0 0-6.7-6.6h-31.1a6.7 6.7 0 0 0-6.7 6.6v19z" fill="#fff" stroke="#fff" stroke-width="10" stroke-miterlimit="10"/></svg>