<svg xmlns="http://www.w3.org/2000/svg" width="361" height="361"><path d="M254.8 147.8a22.4 22.4 0 0 1-44.7 0c0-4.7 1.6-8.6 3.1-12.7 2.6-7.4 11.6-33.3 19.3-33.3 7.6 0 17 27 19.2 33.3 1.5 4.1 3.1 8 3.1 12.7zm-30 100a22.4 22.4 0 0 1-44.7 0c0-4.7 1.6-8.6 3.1-12.7 2.6-7.4 11.6-33.3 19.3-33.3 7.6 0 17 27 19.2 33.3 1.5 4.1 3.1 8 3.1 12.7zm-66.5 33c0 3.3-3 5.9-7 5.9h-55c-3.8 0-7-2.6-7-5.9V81c0-3.2 3.2-5.8 7-5.8h55c4 0 7 2.6 7 5.8v199.8z" fill="none" stroke="#fff" stroke-width="10" stroke-miterlimit="10"/><path d="M145.8 180.8a22.4 22.4 0 0 1-44.7 0c0-4.7 1.6-8.6 3.1-12.7 2.6-7.4 11.6-33.3 19.3-33.3 7.6 0 17 27 19.2 33.3 1.5 4.1 3.1 8 3.1 12.7z" fill="#fff"/></svg>