<svg xmlns="http://www.w3.org/2000/svg" width="361" height="361"><path d="M138.2 122.3c0 3-2.2 5.4-5 5.4h-38c-2.8 0-5-2.4-5-5.4V82.5c0-3 2.2-5.4 5-5.4h38c2.8 0 5 2.4 5 5.4v39.8z" fill="#fff" stroke="#fff" stroke-width="13.1" stroke-miterlimit="10"/><path d="M77.2 108.5a5.5 5.5 0 0 0 5.5 5.5h25.6a5.5 5.5 0 0 0 5.4-5.4V93a5.5 5.5 0 0 0-5.4-5.4H82.7a5.5 5.5 0 0 0-5.5 5.4v15.6z" fill="#fff" stroke="#fff" stroke-width="13.1" stroke-miterlimit="10"/><path d="M76 108.5a5.5 5.5 0 0 1 5.5-5.4H113a5.5 5.5 0 0 1 5.5 5.4v8.7a5.5 5.5 0 0 1-5.5 5.5H81.5a5.5 5.5 0 0 1-5.5-5.5v-8.7z" fill="#fff" stroke="#fff" stroke-width="13.1" stroke-miterlimit="10"/><path d="M131.3 137.7l-13.3 23c-2.3 4 3.8 7.5 6 3.6l13.3-23c2.3-4-3.8-7.5-6-3.6zm-3.8-17.4L114 143.4c-2.2 4 3.8 7.5 6 3.6l13.4-23.1c2.3-4-3.8-7.5-6-3.6zm-20 34.4l-13.4 23c-2.2 4 3.8 7.5 6 3.6l13.4-23c2.3-4-3.8-7.5-6-3.6zm2.8-29.1l-13.3 23c-2.3 4 3.8 7.5 6 3.6l13.4-23.1c2.2-4-3.8-7.4-6-3.5zm-9.7-10.4l-11.5 20c-3.3 5.5 5.4 10.6 8.6 5l11.5-20c3.3-5.6-5.4-10.6-8.6-5z" fill="#fff"/><path d="M86.5 142.6l-13.3 23c-2.3 4 3.8 7.5 6 3.6l13.3-23c2.3-4-3.8-7.5-6-3.6zm3.2 18.6l-13.3 23.1c-2.3 4 3.8 7.4 6 3.5l13.4-23c2.2-4-3.8-7.5-6-3.6zm21.8 11.3l-13.3 23.1c-2.3 4 3.8 7.5 6 3.6l13.4-23.1c2.2-4-3.8-7.5-6-3.6zm62.2-53.4l-13.3 23.1c-2.3 4 3.8 7.5 6 3.6l13.3-23.1c2.3-4-3.8-7.5-6-3.6zm-21 36.4l-13.3 23c-2.3 4 3.8 7.5 6 3.6l13.3-23c2.3-4-3.7-7.5-6-3.6zm2.8-29.1l-13.3 23c-2.3 4 3.8 7.5 6 3.6l13.4-23c2.2-4-3.8-7.5-6-3.6zM135 162l-13.3 23.1c-2.2 4 3.8 7.5 6 3.6l13.4-23.1c2.2-4-3.8-7.5-6-3.6z" fill="#fff"/><path d="M167.8 127.7c0 3-2.2 5.5-4.9 5.5h-38c-2.8 0-5-2.4-5-5.5V88c0-3 2.2-5.5 5-5.5h38c2.8 0 5 2.5 5 5.5v39.7z" fill="#fff" stroke="#fff" stroke-width="13.1" stroke-miterlimit="10"/><path d="M142.8 123.2a5.5 5.5 0 0 0 5.4 5.4h25.6a5.5 5.5 0 0 0 5.5-5.4v-15.6a5.5 5.5 0 0 0-5.5-5.4h-25.6a5.5 5.5 0 0 0-5.4 5.4v15.6zm-.8 11c0 3-2.2 5.4-5 5.4H91.4c-2.7 0-5-2.5-5-5.5V94.4c0-3 2.2-5.5 5-5.5H137c2.7 0 4.9 2.5 4.9 5.5v39.7z" fill="#fff" stroke="#fff" stroke-width="13.1" stroke-miterlimit="10"/><path d="M263.3 261.7h-20c-2 0-2 3 0 3h20c2 0 2-3 0-3zm0 8.7h-11.2c-1.9 0-1.9 3 0 3h11.2c2 0 2-3 0-3zm0 8.7h-11.2c-1.9 0-1.9 3 0 3h11.2c2 0 2-3 0-3zm.8-60.8H244c-2 0-2 3 0 3h20c2 0 2-3 0-3zm0 8.7h-11.2c-2 0-2 3 0 3H264c1.9 0 1.9-3 0-3zm0 8.8h-11.2c-2 0-2 3 0 3H264c1.9 0 1.9-3 0-3zm0 8.7h-11.2c-2 0-2 3 0 3H264c1.9 0 1.9-3 0-3zm0 8.7h-11.2c-2 0-2 3 0 3H264c1.9 0 1.9-3 0-3zm-.6-77.8h-20.1c-2 0-2 3 0 3h20.1c2 0 2-3 0-3zm0 8.7h-11.2c-2 0-2 3 0 3h11.2c2 0 2-3 0-3zm0 8.7h-11.2c-2 0-2 3 0 3h11.2c2 0 2-3 0-3zm0 8.7h-11.2c-2 0-2 3 0 3h11.2c2 0 2-3 0-3zm0 8.7h-11.2c-2 0-2 3 0 3h11.2c2 0 2-3 0-3zm.7-78.2h-20c-2 0-2 3 0 3h20c2 0 2-3 0-3zm0 8.7H253c-1.9 0-1.9 3 0 3h11.2c2 0 2-3 0-3zm0 8.7H253c-1.9 0-1.9 3 0 3h11.2c2 0 2-3 0-3zm0 8.7H253c-1.9 0-1.9 3 0 3h11.2c2 0 2-3 0-3zm0 8.7H253c-1.9 0-1.9 3 0 3h11.2c2 0 2-3 0-3z" fill="#fff"/><path d="M281.9 70.6H226c-3.9 0-8.4-.6-12.1.7-6.7 2.4-6.8 8.6-6.3 14.3l1.8 21.3 2 22.4c.4 5.1.1 10.5 4 14.4 2 2 5.1 2.6 8 2.6l-5-5 5.5 139.6c.2 5.5 3.3 10.5 9.5 10.5h18.3c4.8 0 12.8 1.5 17.4-.9 4.5-2.3 5.3-6.4 5.5-10.9l3.6-78.8 2.7-59.5-5 5c8.6 0 11.1-6.2 11.7-13.4l2-23 2-24.3c.7-7.4-1-14-9.8-15-6.4-.7-6.4 9.3 0 10 .8.1-2 26.4-2.1 28.4l-1.7 19.7c-.2 2 .6 7.6-2 7.6a5 5 0 0 0-5 5l-6.5 139.6c0 1.8-.2.5.7.5h-31.4c-1.1 0 .1.2.2.7l-.1-2.2-.5-11.5-3.6-90.3-1.5-36.8a5 5 0 0 0-5-5c-2.7 0-1.9-6.3-2-8.4l-1.9-21-1.7-20c0-1-1.3-6.3.3-6.3h64c6.4 0 6.4-10 0-10z" fill="#fff"/></svg>