<svg xmlns="http://www.w3.org/2000/svg" width="361" height="361"><path d="M270 119a4 4 0 0 1-4 4h-23a4 4 0 0 1-4-4V96a4 4 0 0 1 4-4h23a4 4 0 0 1 4 4v23z" fill="none" stroke="#fff" stroke-width="10" stroke-miterlimit="10"/><path d="M216 78l7 8a5 5 0 0 0 7 0 5 5 0 0 0 0-8l-7-7a5 5 0 0 0-7 0 5 5 0 0 0 0 7zm-31 34h34c6 0 6-10 0-10h-34c-6 0-6 10 0 10zm105 25l-6-6a5 5 0 0 0-7 0 5 5 0 0 0 0 7l6 6a5 5 0 0 0 7 0 5 5 0 0 0 0-7zm-31 39v-34c0-6-10-6-10 0v34c0 7 10 7 10 0zm-51-15l23-23c5-5-2-12-7-7l-23 23c-5 5 2 12 7 7zm-87 110c7 1 15 2 21-1a34 34 0 0 0 18-18l11-27a141 141 0 0 0 5-26l2-25c1-6-1-13-6-17-4-3-10-2-14-2h-35c-5 0-5 7 0 7h2c4 0 4-7 0-7H92c-6 0-11-1-16 2s-7 10-7 16l3 26 4 24c3 10 7 20 12 29a35 35 0 0 0 16 18c8 3 17 2 25 2 4 0 4-7 0-7h-12l-9-1c-8-4-12-11-16-19-7-15-11-29-13-46a876 876 0 0 1-2-21c-1-5-2-13 4-16h44c5 0 5-7 0-7h-2c-5 0-5 7 0 7h44c6 2 5 10 4 15l-2 22c-2 17-6 31-13 46-4 8-7 14-15 18-6 3-14 2-20 2-5 0-5 7 0 7z" fill="#fff"/><path fill="none" stroke="#fff" stroke-width="15" stroke-miterlimit="10" d="M124 268v11"/><path d="M96 286h56c4 0 4-7 0-7H96c-4 0-4 7 0 7z" fill="#fff"/><path d="M110 292h28c6 0 6-10 0-10h-28c-6 0-6 10 0 10zm45-74c-1 8-11 6-17 6H99c-6 0-6-11-7-16l-4-21c0-4 1-9 6-9h59c7 0 7 6 6 10l-4 30c-1 1 2 2 2 0l6-33c2-13-20-10-26-10H95c-15 0-9 18-7 27l2 13c0 3 0 7 2 9 5 5 14 3 20 3h30c7 0 15 0 16-9 0-2-3-2-3 0z" fill="#fff"/><path d="M117 188v27c0 2 3 2 3 0v-27c0-2-3-2-3 0zm11 0v27c0 2 3 2 3 0v-27c0-2-3-2-3 0zm-6 0v27c0 2 3 2 3 0v-27c0-2-3-2-3 0zm18-1l-1 27c0 2 3 2 3 0l1-27c0-2-3-2-3 0zm11 0l-1 27c0 2 3 2 3 0l1-27c0-2-3-2-3 0zm-5 0l-1 27c0 2 3 2 3 0l1-27c0-2-3-2-3 0zm-41 1l1 27c0 2 3 2 3 0l-1-27c0-2-3-2-3 0zm-11 0l1 27c0 2 3 2 3 0l-1-27c-1-2-4-2-3 0zm5 0l1 27c0 2 3 2 3 0l-1-27c0-2-3-2-3 0z" fill="#fff"/></svg>