<svg xmlns="http://www.w3.org/2000/svg" width="361" height="361"><path d="M190 79l15 15c4 4 11-3 7-7l-15-15c-5-5-12 2-7 7zm-31 46h40c6 0 6-10 0-10h-40c-6 0-6 10 0 10zm131 39l-15-15c-5-5-12 2-7 7l15 15c4 4 11-3 7-7zm-45 37v-39c0-7-10-7-10 0v39c0 7 10 7 10 0zm-60-17l28-28c4-5-3-12-7-7l-28 28c-5 4 2 11 7 7z" fill="#fff"/><path d="M159 125h40c6 0 6-10 0-10h-40c-6 0-6 10 0 10zm86 76v-39c0-7-10-7-10 0v39c0 7 10 7 10 0zm-60-17l28-28c5-5-3-12-7-7l-28 28c-5 4 2 11 7 7zm2-80l11 4c2 1 5-1 6-3 1-3-1-5-4-6l-11-5c-2-1-5 1-6 3-1 3 1 6 4 7zm3 44l11-5c2-1 4-3 3-6-1-2-4-4-6-3l-11 4c-3 1-4 3-4 6 1 3 4 5 7 4zm34 25l4-11c1-2-1-5-3-6-3-1-5 1-6 4l-5 11c-1 2 1 5 4 6 2 1 5-1 6-4zm42-2l-4-11c-1-3-4-5-7-4-2 1-4 4-3 6l4 11c2 3 4 5 7 4 2-1 4-4 3-6zm-52-94l3 6c1 2 3 4 6 3 2 0 4-3 3-6l-2-6c-1-3-4-4-7-4-2 1-4 4-3 7zm74 58l-6-3c-3-1-6 1-7 4 0 3 1 5 4 6l6 3c3 1 6-1 6-4 1-3-1-5-3-6z" fill="#fff"/><path d="M196 212c0 4-3 8-7 8h-56c-4 0-7-4-7-8v-58c0-5 3-8 7-8h56c4 0 7 3 7 8v58z" fill="#fff" stroke="#fff" stroke-width="10" stroke-miterlimit="10"/><path d="M90 195a8 8 0 0 0 8 8h38a8 8 0 0 0 8-8v-23a8 8 0 0 0-8-8H98a8 8 0 0 0-8 8v23z" fill="#fff" stroke="#fff" stroke-width="10" stroke-miterlimit="10"/><path d="M74 195a8 8 0 0 1 8-8h46a8 8 0 0 1 9 8v13a8 8 0 0 1-8 8H82a8 8 0 0 1-8-8v-13zm176 28c0 4-3 8-7 8h-56c-4 0-7-4-7-8v-58c0-5 3-8 7-8h56c4 0 7 3 7 8v58z" fill="#fff" stroke="#fff" stroke-width="10" stroke-miterlimit="10"/><path d="M233 209a8 8 0 0 0 8 8h38a8 8 0 0 0 8-8v-22a8 8 0 0 0-8-8h-37a8 8 0 0 0-8 8v22zm-31 23c0 5-4 8-8 8h-55c-4 0-8-3-8-8v-58c0-4 4-8 8-8h55c4 0 8 4 8 8v58z" fill="#fff" stroke="#fff" stroke-width="10" stroke-miterlimit="10"/><path d="M265 129a14 14 0 0 1-14 14h-19a14 14 0 0 1-14-14v-18a14 14 0 0 1 14-14h19a14 14 0 0 1 14 14v18z" fill="none" stroke="#fff" stroke-width="10" stroke-miterlimit="10"/><path d="M187 142a8 8 0 0 1 8-8h46a8 8 0 0 1 8 8v13a8 8 0 0 1-8 8h-46a8 8 0 0 1-8-8v-13z" fill="#fff" stroke="#fff" stroke-width="10" stroke-miterlimit="10"/><path d="M256 136a8 8 0 0 1 8 8v46a8 8 0 0 1-8 8h-13a8 8 0 0 1-8-8v-46a8 8 0 0 1 8-8h13zm-79 0a8 8 0 0 0-8 9v37a8 8 0 0 0 8 8h23a8 8 0 0 0 8-8v-37a8 8 0 0 0-8-8h-23z" fill="#fff" stroke="#fff" stroke-width="10" stroke-miterlimit="10"/><path d="M192 173c0 6 5 11 12 11h53c6 0 11-5 11-11v-32c0-6-5-12-11-12h-53a11 11 0 0 0-12 12v32z" fill="#fff" stroke="#fff" stroke-width="10" stroke-miterlimit="10"/><path d="M264 240c0 4-3 8-7 8h-53c-4 0-7-4-7-8v-52c0-4 3-7 7-7h53c3 0 6 3 6 7v52z" fill="#fff" stroke="#fff" stroke-width="10" stroke-miterlimit="10"/><path d="M276 178c0 2-2 4-4 4h-26c-2 0-3-2-3-4v-28c0-2 1-3 3-3h26c2 0 4 1 4 3v28zm-111 61c0 4-3 8-7 8h-56c-4 0-7-4-7-8v-58c0-5 3-8 7-8h56c4 0 7 3 7 8v58z" fill="#fff" stroke="#fff" stroke-width="10" stroke-miterlimit="10"/><path d="M165 239c0 4-3 8-7 8h-56c-4 0-7-4-7-8v-59c0-4 3-7 7-7h56c4 0 7 3 7 8v58z" fill="#fff" stroke="#fff" stroke-width="10" stroke-miterlimit="10"/><path d="M130 249a7 7 0 0 0 6 7h32a7 7 0 0 0 6-7v-19a7 7 0 0 0-7-7h-31a7 7 0 0 0-6 7v19z" fill="#fff" stroke="#fff" stroke-width="10" stroke-miterlimit="10"/></svg>