<svg xmlns="http://www.w3.org/2000/svg" width="361" height="361"><path d="M197 140c0 5-4 8-7 8h-55c-4 0-7-3-7-8V84c0-5 3-8 7-8h55c3 0 7 3 7 8v56z" fill="#fff" stroke="#fff" stroke-width="13" stroke-miterlimit="10"/><path d="M94 121a8 8 0 0 0 7 8h37a8 8 0 0 0 8-8V99a8 8 0 0 0-8-8h-37a8 8 0 0 0-7 8v22z" fill="#fff" stroke="#fff" stroke-width="13" stroke-miterlimit="10"/><path d="M78 121a8 8 0 0 1 8-8h45a8 8 0 0 1 8 8v12a8 8 0 0 1-8 8H86a8 8 0 0 1-8-8v-12zm171 27c0 5-3 8-7 8h-54c-4 0-7-3-7-8V91c0-4 3-7 7-7h54c4 0 7 3 7 7v57z" fill="#fff" stroke="#fff" stroke-width="13" stroke-miterlimit="10"/><path d="M233 142a8 8 0 0 0 8 8h37a8 8 0 0 0 8-8v-23a8 8 0 0 0-8-7h-37a8 8 0 0 0-8 7v23zm-31 15c0 5-3 8-7 8h-55c-3 0-6-3-6-8v-56c0-5 3-8 7-8h54c4 0 7 3 7 8v56z" fill="#fff" stroke="#fff" stroke-width="13" stroke-miterlimit="10"/><path d="M103 143a8 8 0 0 1 8-8h45a8 8 0 0 1 8 7v13a8 8 0 0 1-8 8h-45a8 8 0 0 1-8-8v-12z" fill="#fff" stroke="#fff" stroke-width="13" stroke-miterlimit="10"/><path d="M230 186l-8 27c-1 5 6 6 7 2l8-27c1-4-5-6-7-2z" fill="#fff"/><path d="M223 190l6 7c3 3 8-2 5-5l-7-7c-3-3-7 2-4 5z" fill="#fff"/><path d="M240 189l-9 2c-5 1-3 8 1 7l10-3c4-1 2-7-2-6zm-36 7l19 20c4 4 8-1 5-5l-19-20c-3-3-8 2-5 5z" fill="#fff"/><path d="M203 205l9-3c5-1 3-8-1-7l-10 3c-4 1-2 8 2 6z" fill="#fff"/><path d="M211 189l-3 9c-1 4 6 6 7 2l3-9c1-5-6-6-7-2z" fill="#fff"/><g fill="#fff"><path d="M199 224l28-7c4-1 2-8-2-7l-28 7c-4 1-2 8 2 7z"/><path d="M206 229l3-9c1-5-5-6-7-2l-2 9c-2 4 5 6 6 2z"/><path d="M197 214l6 7c3 4 8-1 5-5l-6-7c-3-3-8 2-5 5z"/></g><g fill="#fff"><path d="M221 242l8-27c2-4-5-6-6-2l-8 27c-2 5 5 6 6 2z"/><path d="M229 238l-7-7c-3-3-7 2-4 5l6 7c3 4 8-1 5-5z"/><path d="M212 240l9-3c5-1 3-8-2-7l-9 3c-4 1-3 8 2 7z"/></g><g fill="#fff"><path d="M248 232l-20-20c-3-4-8 1-5 5l20 20c3 3 8-2 5-5z"/><path d="M249 223l-10 3c-4 1-2 8 2 6l9-2c5-1 3-8-1-7z"/><path d="M241 239l3-9c1-4-6-6-7-2l-3 9c-1 4 6 6 7 2z"/></g><g fill="#fff"><path d="M253 204l-28 7c-4 1-3 7 2 6l27-6c5-1 3-8-1-7z"/><path d="M245 199l-2 9c-2 5 5 6 6 2l3-9c1-4-5-6-7-2z"/><path d="M255 214l-7-7c-3-4-8 1-5 5l7 7c3 3 8-2 5-5z"/></g><g fill="#fff"><path d="M134 152v29c0 4 7 4 7 0v-29c0-4-7-4-7 0z"/><path d="M127 158l9 5c4 2 7-4 3-6l-8-5c-4-2-8 4-4 6z"/><path d="M144 152l-9 5c-4 2 0 8 4 6l8-5c4-2 1-8-3-6zm-33 17l24 15c4 2 8-4 4-6l-25-15c-4-2-7 4-3 6z"/><path d="M113 178l8-5c4-2 0-8-3-6l-9 5c-4 2 0 8 4 6z"/><path d="M116 161v9c0 5 7 5 7 0v-9c0-5-7-5-7 0zm-2 37l25-15c4-2 0-8-3-5l-25 14c-4 2 0 8 3 6z"/><path d="M123 200v-9c0-5-7-5-7 0v9c0 5 7 5 7 0z"/><path d="M109 189l9 5c3 2 7-4 3-6l-8-5c-4-2-8 4-4 6zm32 20v-28c0-5-7-5-7 0v28c0 4 7 4 7 0z"/><path d="M147 203l-8-5c-4-2-7 4-4 6l9 5c4 2 7-4 3-6z"/><path d="M131 209l8-5c4-2 1-8-3-6a22219 22219 0 0 1-9 5c-4 2 0 8 4 6zm33-17l-25-14c-4-3-7 3-3 6l24 14c4 2 8-4 4-6z"/><path d="M162 183a22219 22219 0 0 1-8 5c-4 2-1 8 3 6l8-5c4-2 1-8-3-6z"/><path d="M159 201v-10c0-5-7-5-7 0v10c0 4 7 4 7 0zm1-37l-24 14c-4 2-1 8 3 6l25-15c3-2 0-8-4-5z"/><path d="M152 161v9c0 5 7 5 7 0v-9c0-5-7-5-7 0z"/><path d="M165 172l-8-5c-4-2-8 4-4 6l9 5c4 2 7-4 3-6z"/></g><g fill="#fff"><path d="M165 237l-20 20c-4 4 1 9 5 5l20-20c3-3-2-8-5-5z"/><path d="M156 237l2 9c2 5 8 3 7-2l-2-9c-2-4-8-2-7 2z"/><path d="M172 244l-9-2c-5-1-7 5-2 7l9 2c4 1 6-6 2-7zm-35-11l7 28c1 4 8 2 7-2l-8-28c-1-4-8-2-7 2z"/><path d="M132 241l9 2c4 1 6-6 2-7l-9-2c-5-1-7 5-2 6z"/><path d="M146 230l-7 7c-3 3 2 8 5 5l7-7c3-3-2-8-5-5zm-27 26l27 7c5 1 7-6 2-7l-27-7c-4-1-6 6-2 7z"/><path d="M123 264l7-7c3-4-2-8-5-5l-7 6c-3 4 2 9 5 6z"/><path d="M121 246l3 9c1 5 8 3 7-2l-3-9c-1-4-8-2-7 2zm9 36l20-20c3-3-2-8-5-5l-20 20c-3 3 2 8 5 5z"/><path d="M138 283l-2-10c-1-4-8-2-7 2l3 10c1 4 8 2 6-2z"/><path d="M123 275l9 3c4 1 6-6 2-7l-10-2c-4-2-6 5-1 6zm35 11l-7-27c-2-4-8-3-7 2l7 27c1 4 8 3 7-2z"/><path d="M163 279l-10-2c-4-2-6 5-1 6l9 3c4 1 6-6 2-7z"/><path d="M148 289l7-7c3-3-2-8-5-5l-6 7c-4 3 1 8 5 5zm28-25l-28-7c-4-2-6 5-2 6l28 8c4 1 6-6 1-7z"/><path d="M172 256l-7 7c-4 3 1 8 5 5l6-7c4-3-1-8-5-5z"/><path d="M173 273l-2-9c-2-4-8-2-7 2l2 9c2 5 8 3 7-2z"/></g></svg>