<svg xmlns="http://www.w3.org/2000/svg" width="361" height="361"><path d="M242 148v38c0 7 10 7 10 0v-38c0-7-10-7-10 0z" fill="#fff"/><path d="M233 156l12 7c5 3 10-6 5-9l-12-7c-5-3-10 6-5 9z" fill="#fff"/><path d="M256 147l-12 7c-5 3 0 12 5 9l12-7c5-3 0-12-5-9zm-45 24l33 19c6 3 11-5 5-8l-33-20c-5-3-11 6-5 9z" fill="#fff"/><path d="M214 183l11-7c6-3 1-12-5-9l-11 7c-6 3-1 12 5 9z" fill="#fff"/><path d="M217 159v13c0 6 10 6 10 0v-13c0-6-10-6-10 0z" fill="#fff"/><g fill="#fff"><path d="M216 210l33-20c6-3 1-12-4-8l-34 19c-6 3 0 12 5 9z"/><path d="M228 213v-13c0-6-10-6-10 0v13c0 6 10 6 10 0z"/><path d="M209 198l11 6c6 4 11-5 5-8l-11-7c-6-3-11 6-5 9z"/></g><g fill="#fff"><path d="M252 225v-39c0-6-10-6-10 0v39c0 6 10 6 10 0z"/><path d="M261 216l-12-6c-5-3-10 5-4 9l11 6c5 3 10-5 5-9z"/><path d="M238 225l12-6c5-4 0-12-5-9l-12 6c-5 4 0 12 5 9z"/></g><g fill="#fff"><path d="M283 201l-33-19c-6-3-11 5-5 9l33 19c6 3 11-5 5-9z"/><path d="M280 190l-11 6c-6 3 0 12 5 9l11-7c6-3 1-12-5-9z"/><path d="M277 213v-13c0-6-10-6-10 0v13c0 7 10 7 10 0z"/></g><g fill="#fff"><path d="M278 163l-33 19c-6 3-1 12 5 9l33-20c5-3 0-12-5-8z"/><path d="M267 159v13c0 7 10 7 10 0v-13c0-6-10-6-10 0z"/><path d="M285 174l-11-6c-6-4-11 5-5 8l11 7c6 3 11-6 5-9z"/></g><path d="M176 281a5 5 0 0 1-5 5h-71a5 5 0 0 1-6-5v-49a5 5 0 0 1 6-5h71a5 5 0 0 1 5 5v49zm-9-64a5 5 0 0 1-6 6h-53a5 5 0 0 1-6-6v-48a5 5 0 0 1 6-5h53a5 5 0 0 1 6 5v48zm-17-64a5 5 0 0 1-6 5h-31a5 5 0 0 1-6-5v-32a5 5 0 0 1 6-5h31a5 5 0 0 1 6 5v32zm-7-55a6 6 0 0 1-5 7l-23 6a6 6 0 0 1-7-4l-5-18a6 6 0 0 1 5-8l22-6a6 6 0 0 1 8 5l5 18z" fill="none" stroke="#fff" stroke-width="10" stroke-miterlimit="10"/><path d="M161 103c1 3-1 6-4 6l-56 15c-3 1-6-1-6-3-1-3 1-6 4-6l55-15c3-1 6 1 7 3z" fill="none" stroke="#fff" stroke-width="10" stroke-miterlimit="10"/><path d="M150 136l18 7 1-10-19-1 5 6 1-5c1-7-8-9-10-3l-1 5c-1 4 2 6 5 7l19 1c6 1 6-8 1-10l-17-6c-6-3-9 7-3 9zm-11-6a4 4 0 0 1-4 4h-2a4 4 0 0 1-3-4v-2a4 4 0 0 1 3-4h2a4 4 0 0 1 4 4v2zm-2 63l-58-50c-5-4-12 3-7 7l58 50c5 4 12-3 7-7z" fill="#fff"/><path d="M96 158a94454 94454 0 0 0 3-18c1-7-9-9-10-3a94454 94454 0 0 0-3 18c-1 6 9 9 10 3z" fill="#fff"/><path d="M94 159l-19 2c-7 1-7 11 0 10l19-2c6 0 6-10 0-10z" fill="#fff"/><g fill="#fff" stroke="#fff" stroke-width="10" stroke-miterlimit="10"><path d="M286 124c0 3-2 6-5 6h-42c-3 0-5-3-5-6V80c0-3 2-6 5-6h42c3 0 5 3 5 6v44z"/><path d="M207 109a6 6 0 0 0 6 6h28a6 6 0 0 0 6-6V92a6 6 0 0 0-6-6h-28a6 6 0 0 0-6 6v17z"/><path d="M195 109a6 6 0 0 1 6-6h35a6 6 0 0 1 6 6v9a6 6 0 0 1-6 6h-35a6 6 0 0 1-6-6v-9z"/></g></svg>