<svg xmlns="http://www.w3.org/2000/svg" width="361" height="361"><path d="M197 128a16 16 0 1 1-33 0l2-9c2-6 9-25 14-25s13 20 15 25l2 9zm-22 74a16 16 0 0 1-33 0l2-10c2-5 9-24 14-24 6 0 13 19 15 24l2 9zm-49 24c0 2-2 4-5 4H80c-3 0-5-2-5-4V79c0-2 3-4 5-4h41c3 0 5 2 5 4v147z" fill="none" stroke="#fff" stroke-width="10" stroke-miterlimit="10"/><path d="M117 152a16 16 0 1 1-33 0l2-9c2-5 9-25 14-25 6 0 13 20 14 25l3 9zm54 97c6 0 11 1 14 4 4 2 5 5 5 10 0 3 0 5-2 7a13 13 0 0 1-5 4 59 59 0 0 1 2 4 109 109 0 0 1 8 13h-11l-2-4a101 101 0 0 0-2-4 117 117 0 0 0-3-4 41 41 0 0 0-2-3h-5v15h-9v-41a53 53 0 0 1 12-1zm1 8h-4v12h3l7-2c2-1 3-2 3-4s-1-4-3-4l-6-2zm52-7h9v41h-9v-17h-16v17h-9v-41h9v16h16v-16zm38 10c0 4-1 7-3 9s-5 3-8 3-6-1-8-3-3-5-3-9c0-3 1-6 3-8s5-3 8-3 6 1 8 3 3 5 3 8zm-7 0l-1-4a4 4 0 0 0-6 0l-1 4 1 5 3 1 3-1 1-5zm18-10h8l-23 41h-8l23-41zm18 31c0 3-1 6-3 8a10 10 0 0 1-8 3c-3 0-5-1-7-3s-3-5-3-8 1-7 3-9 4-3 8-3 5 1 7 3 3 5 3 9zm-7 0l-1-5a3 3 0 0 0-3-1l-2 1-1 5 1 4a3 3 0 0 0 2 2c2 0 2-1 3-2l1-4z" fill="#fff"/></svg>