<svg xmlns="http://www.w3.org/2000/svg" width="361" height="361"><path d="M176 93v88c0 6 10 6 10 0V93c0-6-10-6-10 0z" fill="#fff"/><path d="M153 106l25 15c6 3 11-5 5-8l-25-15c-6-3-11 5-5 8z" fill="#fff"/><path d="M203 98l-25 15c-6 3-1 11 5 8l25-15c6-3 1-12-5-8zm-101 42l76 44c5 3 10-5 5-8l-76-44c-5-3-11 5-5 8z" fill="#fff"/><path d="M102 167l26-15c5-3 0-12-5-9l-26 15c-6 3-1 12 5 9z" fill="#fff"/><path d="M120 119v29c0 6 10 6 10 0v-29c0-7-10-7-10 0z" fill="#fff"/><g fill="#fff"><path d="M107 228l76-44c6-3 1-12-5-9l-76 44c-6 3 0 12 5 9z"/><path d="M130 241v-29c0-7-10-7-10 0v29c0 7 10 7 10 0z"/><path d="M97 202l26 14c5 4 10-5 5-8l-26-15c-5-3-10 5-5 9z"/></g><g fill="#fff"><path d="M186 268v-88c0-6-10-6-10 0v88c0 6 10 6 10 0z"/><path d="M209 254l-26-14c-6-4-11 5-5 8l26 15c5 3 10-5 5-9z"/><path d="M158 263l25-15c6-3 1-11-5-8l-25 14c-6 4-1 12 5 9z"/></g><g fill="#fff"><path d="M259 220l-76-44c-5-3-10 6-5 9l76 43c6 4 11-5 5-8z"/><path d="M259 193l-25 15c-6 3-1 12 5 9l25-15c6-3 1-12-5-9z"/><path d="M241 242v-30c0-6-10-6-10 0v29c0 7 10 7 10 1z"/></g><g fill="#fff"><path d="M254 132l-76 44c-6 3 0 12 5 9l76-44c6-3 1-12-5-9z"/><path d="M231 119v30c0 6 10 6 10 0v-30c0-6-10-6-10 0z"/><path d="M264 159l-26-15c-5-3-10 5-5 8l26 15c5 3 10-5 5-8z"/></g></svg>