<svg xmlns="http://www.w3.org/2000/svg" width="361" height="361"><path d="M127 208l-16 29c-3 5 5 10 8 5l17-29c3-6-6-11-9-5zm7-38l-17 31c-3 5 5 10 8 5l18-31c3-6-5-11-9-5zm-3-26l-18 31c-3 5 5 11 9 5l17-31c4-5-5-10-8-5zm-30 49l-16 29c-3 5 5 10 8 5l17-29c3-6-5-11-9-5zm4 23l-16 29c-3 5 5 10 8 5l17-29c3-5-6-11-9-5zm158-40l-17 29c-3 5 6 10 9 5l16-29c4-6-5-11-8-5zm-1-30l-17 30c-4 6 5 11 8 5l18-31c3-5-6-10-9-4zm-32 52l-16 29c-3 5 5 10 8 5l17-29c3-6-5-11-9-5zm8-43l-18 31c-3 5 6 10 9 5l18-31c3-6-6-11-9-5zm-1 65l-16 29c-3 5 5 10 8 5l17-29c3-5-5-11-9-5zm-54-22l18 10c6 3 11-6 5-9l-18-10c-6-3-11 6-5 9z" fill="#fff"/><path d="M189 171l9 32c1 6 11 4 9-3l-9-31c-1-7-11-4-9 2zm-8 25l13 31c2 6 11 1 8-5l-13-31c-2-6-11 0-9 5z" fill="#fff"/><path d="M188 228l8 2c3 0 5-1 6-4 1-2-1-6-3-6l-9-2c-2 0-5 1-6 4 0 2 1 5 4 6z" fill="#fff"/><path d="M182 224l9 32c1 6 11 3 9-3l-9-32c-1-6-11-3-9 3zm-31-24l15 14c5 4 12-3 7-7l-15-14c-5-4-12 3-7 7z" fill="#fff"/><path d="M158 177l6 33c1 6 11 3 10-3a473188 473188 0 0 0-7-33c-1-6-11-3-9 3zm-8 21l9 33c2 6 12 3 10-3l-10-32c-2-7-11-4-10 2z" fill="#fff"/><g fill="#fff" stroke="#fff" stroke-miterlimit="10"><path d="M178 153a9 9 0 0 0 8 9h40c4 0 8-4 8-9v-24a9 9 0 0 0-8-9h-40a9 9 0 0 0-8 9v24z" stroke-width="13"/><path d="M133 145a7 7 0 0 1 8-7h42a7 7 0 0 1 8 7v12a7 7 0 0 1-8 7h-42a7 7 0 0 1-8-7v-12z" stroke-width="12"/><path d="M153 138c0 4-2 7-5 7h-43c-3 0-6-3-6-7V90c0-4 3-7 6-7h43c3 0 5 3 5 7v48z" stroke-width="10"/><path d="M237 138a7 7 0 0 0 7 7h35a7 7 0 0 0 7-7v-21a7 7 0 0 0-7-8h-35a7 7 0 0 0-7 8v21zm-116-7a7 7 0 0 0 8 7h34a7 7 0 0 0 7-7v-21a7 7 0 0 0-7-8h-35a7 7 0 0 0-7 8v21z" stroke-width="12"/><path d="M188 84a7 7 0 0 1 7 7v42a7 7 0 0 1-7 8h-12a7 7 0 0 1-7-8V91a7 7 0 0 1 7-7h12z" stroke-width="12"/><path d="M185 100a7 7 0 0 1 7-8h43a7 7 0 0 1 7 8v11a7 7 0 0 1-7 8h-43a7 7 0 0 1-7-8v-11zm-28 59a7 7 0 0 1-7 7h-43a7 7 0 0 1-7-7v-12a7 7 0 0 1 7-7h43a7 7 0 0 1 7 7v12z" stroke-width="12"/><path d="M249 152a7 7 0 0 1-7-7v-43a7 7 0 0 1 7-7h12a7 7 0 0 1 7 7v43a7 7 0 0 1-7 7h-12z" stroke-width="12"/><path d="M267 159a7 7 0 0 1-7 7h-43a7 7 0 0 1-7-7v-12a7 7 0 0 1 7-7h43a7 7 0 0 1 7 7v12zm-52-83a7 7 0 0 1 7 7v43a7 7 0 0 1-7 7h-12a7 7 0 0 1-7-7V83a7 7 0 0 1 7-7h12zM77 134a7 7 0 0 1 8-7h42a7 7 0 0 1 7 7v12a7 7 0 0 1-7 7H85a7 7 0 0 1-8-7v-12z" stroke-width="12"/><path d="M87 108a7 7 0 0 1 7-7h42a7 7 0 0 1 8 7v12a7 7 0 0 1-8 7H94a7 7 0 0 1-7-7v-12z" stroke-width="12"/><path d="M132 76a7 7 0 0 1 7 7v43a7 7 0 0 1-7 7h-12a7 7 0 0 1-7-7V83a7 7 0 0 1 7-7h12z" stroke-width="12"/></g></svg>