<svg xmlns="http://www.w3.org/2000/svg" width="361" height="361"><path d="M232 267h-48c-7 0-7 10 0 10h48c7 0 7-10 0-10zM72 218l19 18c4 5 11-2 7-7l-19-19c-5-4-12 3-7 7zm55-46v49c0 6 10 6 10 0v-49c0-7-10-7-10 0zm74 22l-34 35c-5 5 2 12 7 7l34-34c5-5-2-12-7-8z" fill="#fff"/><path d="M232 267h-48c-7 0-7 10 0 10h48c7 0 7-10 0-10zm-105-95v49c0 6 10 6 10 0v-49c0-6-10-6-10 0zm74 23l-34 34c-5 5 2 12 7 7l34-34c5-5-2-12-7-8zm-6 44l-14 6c-2 1-4 3-3 6 0 2 3 4 6 3l14-6c2-1 4-3 3-6-1-2-4-4-6-3zm-41-32l-6 13c-1 3 1 6 3 7 3 0 6-1 7-4l5-14c1-2-1-5-3-6-3-1-5 1-6 4zm-53 2l6 14c1 3 3 4 6 4 2-1 5-4 4-7l-6-13c-1-3-3-5-6-4s-5 4-4 6zm-28 44l8 3c3 1 6-1 6-4 1-2 0-5-3-6l-8-3c-2-1-5 1-6 3-1 3 1 5 3 7z" fill="#fff"/><path d="M99 285v-24a20 20 0 0 1 20-20h25a20 20 0 0 1 20 20v24" fill="none" stroke="#fff" stroke-width="10" stroke-miterlimit="10"/><path d="M286 281H75c-6 0-6 10 0 10h211c7 0 7-10 0-10zM79 267h-4c-3 0-5 2-5 5s2 5 5 5h4a5 5 0 1 0 0-10z" fill="#fff"/><path d="M116 282v-13c0-9 8-10 15-10s17 0 17 10v13c0 2 3 2 3 0 0-6 1-12-1-18-2-8-11-8-18-8s-15 0-18 8c-3 5-1 12-1 18 0 2 3 2 3 0z" fill="#fff"/><path d="M212 119c0 4 2 7 6 7h45c3 0 6-3 6-7V92c0-4-3-7-6-7h-46c-3 0-5 3-5 7v27zm-98-10a5 5 0 0 1-5 5H88a5 5 0 0 1-4-5v-2a5 5 0 0 1 4-5h21a5 5 0 0 1 5 5v2z" fill="#fff" stroke="#fff" stroke-width="10" stroke-miterlimit="10"/><path d="M287 112a7 7 0 0 1-7 6h-31a7 7 0 0 1-7-6v-9a7 7 0 0 1 7-7h31a7 7 0 0 1 7 7v9zm-54 2a7 7 0 0 1-7 7h-31a7 7 0 0 1-6-7v-9a7 7 0 0 1 6-7h31a7 7 0 0 1 7 7v9zm-68-28a7 7 0 0 1-7 7h-32a7 7 0 0 1-7-7v-4a7 7 0 0 1 7-7h32a7 7 0 0 1 7 7v4z" fill="#fff" stroke="#fff" stroke-width="10" stroke-miterlimit="10"/><path d="M176 90a6 6 0 0 1-6 6h-10a6 6 0 0 1-6-6v-4a6 6 0 0 1 6-6h10a6 6 0 0 1 6 6v4z" fill="#fff" stroke="#fff" stroke-width="10" stroke-miterlimit="10"/></svg>