<svg xmlns="http://www.w3.org/2000/svg" width="361" height="361"><path d="M176.2 168.7v117.6c0 6.5 10 6.5 10 0V168.7c0-6.5-10-6.5-10 0zm69.5-58.8l-18.3-9.6c-5.7-3-10.8 5.6-5 8.6l18.2 9.7c5.8 3 10.8-5.7 5-8.7z" fill="#fff"/><path d="M240.7 110.3l-18.4 9.6c-5.7 3-.6 11.7 5 8.7l18.4-9.7c5.7-3 .6-11.6-5-8.6z" fill="#fff"/><path d="M153.2 119.5h89.6c6.5 0 6.5-10 0-10h-89.6c-6.5 0-6.5 10 0 10z" fill="#fff"/><path d="M114.8 78.7l33.7 39.4 1-7.9-33.7 19.5 7.5 4.3V75c0-6.4-10-6.4-10 0v59a5 5 0 0 0 7.6 4.3l33.6-19.4c3-1.7 3.1-5.5 1-7.9L122 71.6c-4.2-5-11.3 2.2-7.1 7zM262.5 209c6.8.5 5 9.9 5 14.5V247c0 4.3 1.3 12-5.2 12h-38.8c-3.9 0-10 1.1-13.5-.7-4.2-2-2.5-12-2.5-15.6v-23.2c0-4.2-.8-10.5 5.4-10.5h49.6c6.5 0 6.5-10 0-10h-50c-9 0-15 7.6-15 16.1v38.4c0 8.5 6.6 15.5 15.2 15.5h46.5c10 0 18.3-5 18.3-16.1V214c0-8.6-6.9-14.4-15-15-6.4-.4-6.4 9.6 0 10z" fill="#fff"/><path d="M199.2 222.7h76.3c6.5 0 6.5-10 0-10h-76.3c-6.5 0-6.5 10 0 10zm44.6 54.3v-12.3c0-6.5-10-6.5-10 0V277c0 6.5 10 6.5 10 0z" fill="#fff"/><path d="M238.8 272H128.2c-6.5 0-6.5 10 0 10h110.6c6.5 0 6.5-10 0-10z" fill="#fff"/><path d="M132.8 277v-12.3c0-6.5-10-6.5-10 0V277c0 6.5 10 6.5 10 0zm49.9-120.8c0 2.3.9 7.5-1.7 7.7-4.3.2-7.4-3.7-7.7-7.7-.2-4.4 3.7-7.5 7.7-7.7 2.6-.1 1.7 5.6 1.7 7.7 0 6.4 10 6.4 10 0 0-8.8-1.3-17-11.7-17.7-10-.6-17.2 8.5-17.7 17.7-.5 10 8.5 17.2 17.7 17.7 10.5.5 11.7-9.9 11.7-17.7 0-6.5-10-6.5-10 0zm38.1 0c0 2.6-1 7.4-4.3 7.7-1.4 0-1.3-6.9-1.3-7.7 0-1-.2-7.6 1.3-7.7 3.3-.2 4.2 5.5 4.3 7.7.3 6.4 10.3 6.4 10 0-.3-8.7-5-17-14.3-17.7-9.5-.7-11.2 10.8-11.3 17.7-.1 8 2 16.9 11.3 17.7 9.3.7 14-10.2 14.3-17.7.3-6.5-9.7-6.4-10 0zm-74 0c0 1 .2 7.5-1.3 7.7-3.3.2-4.2-5.6-4.3-7.7-.1-2.6 1-7.4 4.3-7.7 1.4 0 1.3 6.9 1.3 7.7.1 6.4 10.1 6.4 10 0 0-8-1.8-17-11.3-17.7-9.3-.7-14 10.2-14.3 17.7-.4 8.6 5.5 17 14.3 17.7 9.5.7 11.2-10.9 11.3-17.7.1-6.5-9.9-6.5-10 0z" fill="#fff"/><path d="M156.8 161.2h8c2.8 0 5-2.3 5-5s-2.2-5-5-5h-8c-2.7 0-5 2.3-5 5s2.3 5 5 5zm33.5 0h13.9c6.4 0 6.4-10 0-10h-13.9c-6.4 0-6.4 10 0 10zm-14.1-44.5v22.6c0 6.5 10 6.5 10 0v-22.6c0-6.5-10-6.5-10 0z" fill="#fff"/><g fill="#fff"><path d="M148.5 242.4h-40a3.5 3.5 0 0 0-3.5 3.5c0 4.6 6.7 4.5 7 0 .5-8.3 10.7-6.5 16.5-6.5s15.9-1.8 16.5 6.5c.3 4.5 7 4.6 7 0 0-4.5-7-4.5-7 0h7a14 14 0 0 0-11.2-13.3c-4-.8-8.4-.2-12.3-.2-3.8 0-7.6-.2-11.4.1-7.1.5-11.7 6.7-12.1 13.4h7l-3.5 3.5h40c4.5 0 4.5-7 0-7z"/><path d="M148.5 228h-40a3.5 3.5 0 0 0-3.5 3.5c0 4.5 6.7 4.5 7 0 .5-8.3 10.7-6.5 16.5-6.5s15.9-1.9 16.5 6.5c.3 4.5 7 4.5 7 0s-7-4.5-7 0h7c-.5-6.7-4.6-12-11.2-13.3-4-.8-8.4-.2-12.3-.2-3.8 0-7.6-.2-11.4.1-7.1.5-11.7 6.7-12.1 13.4h7l-3.5 3.5h40c4.5 0 4.5-7 0-7z"/><path d="M148.5 213.6h-40a3.5 3.5 0 0 0-3.5 3.5c0 4.5 6.7 4.4 7 0 .5-8.4 10.7-6.5 16.5-6.5s15.9-1.9 16.5 6.5c.3 4.4 7 4.5 7 0s-7-4.5-7 0h7c-.5-6.7-4.6-12-11.2-13.3-4-.8-8.4-.2-12.3-.2-3.8 0-7.6-.2-11.4 0-7.1.6-11.7 6.8-12.1 13.5h7l-3.5 3.5h40c4.5 0 4.5-7 0-7z"/><path d="M148.5 199.2h-40a3.5 3.5 0 0 0-3.5 3.5c0 4.5 6.7 4.4 7 0 .5-8.4 10.7-6.5 16.5-6.5s15.9-1.9 16.5 6.5c.3 4.4 7 4.5 7 0s-7-4.5-7 0h7c-.5-6.7-4.6-12-11.2-13.3-4-.8-8.4-.2-12.3-.2-3.8 0-7.6-.2-11.4 0-7.1.5-11.7 6.8-12.1 13.5h7l-3.5 3.5h40c4.5 0 4.5-7 0-7zm0 57.6h-40a3.5 3.5 0 0 0-3.5 3.5c0 4.6 6.7 4.5 7 0 .5-8.3 10.7-6.5 16.5-6.5s15.9-1.8 16.5 6.5c.3 4.5 7 4.6 7 0 0-4.5-7-4.5-7 0h7a14 14 0 0 0-11.2-13.3c-4-.8-8.4-.2-12.3-.2-3.8 0-7.6-.1-11.4.1-7.1.5-11.7 6.8-12.1 13.4h7l-3.5 3.5h40c4.5 0 4.5-7 0-7z"/></g></svg>