<svg xmlns="http://www.w3.org/2000/svg" width="361" height="361"><path d="M196.8 128a16.4 16.4 0 1 1-32.9 0c0-3.5 1.3-6.3 2.3-9.4 2-5.4 8.6-24.4 14.2-24.4s12.5 19.8 14.2 24.5c1 3 2.2 5.8 2.2 9.3zm-22 73.5a16.4 16.4 0 0 1-33 0c0-3.5 1.3-6.3 2.4-9.3 2-5.5 8.5-24.5 14.1-24.5 5.7 0 12.6 19.8 14.2 24.5 1 3 2.3 5.9 2.3 9.3zm-49 24.3c0 2.4-2.2 4.3-5 4.3H80.3c-2.8 0-5.1-2-5.1-4.3V78.9c0-2.4 2.3-4.3 5-4.3h40.6c2.8 0 5 2 5 4.3v147z" fill="none" stroke="#fff" stroke-width="10" stroke-miterlimit="10"/><path d="M116.7 152.3a16.4 16.4 0 1 1-32.9 0c0-3.5 1.2-6.4 2.3-9.4 2-5.4 8.5-24.5 14.2-24.5 5.6 0 12.5 19.9 14.1 24.5 1 3 2.3 5.9 2.3 9.4zm54.4 97c6.2 0 11 1 14.3 3.3 3.3 2.2 5 5.7 5 10.3 0 3-.7 5.3-2 7.1a13.2 13.2 0 0 1-5.8 4.3 58.6 58.6 0 0 1 2.6 3.6 109 109 0 0 1 7.7 13.4h-10.5l-2.3-4.1a101 101 0 0 0-2.4-4.1 116.8 116.8 0 0 0-2.4-3.8 40.9 40.9 0 0 0-2.4-3.2h-4.6v15.2h-9.4v-41a52.8 52.8 0 0 1 12.2-1zm.5 8h-1.8l-1.5.1v11.3h2.6c3.5 0 6-.4 7.6-1.3 1.5-1 2.2-2.4 2.2-4.5 0-2-.7-3.5-2.3-4.4-1.5-.8-3.8-1.3-6.8-1.3zm52.4-7.6h9.4v41.6H224v-17.6h-15.7v17.6h-9.4v-41.6h9.4v16H224v-16zm37.5 10.7c0 3.8-1 6.7-2.9 8.7s-4.5 3-7.7 3-5.9-1-7.8-3-2.8-5-2.8-8.7c0-3.7 1-6.6 2.8-8.6 2-2 4.5-3 7.8-3s5.8 1 7.7 3 2.9 4.9 2.9 8.6zm-6.8 0c0-2-.3-3.5-1-4.4a3.5 3.5 0 0 0-5.6 0c-.7.9-1 2.4-1 4.4 0 2 .3 3.5 1 4.5s1.6 1.4 2.8 1.4c1 0 2-.5 2.7-1.4s1.1-2.4 1.1-4.5zm18.5-10.7h8.3l-23.4 41.6h-8.4l23.5-41.6zm18 31c0 3.7-1 6.6-3 8.6a10 10 0 0 1-7.7 3c-3.2 0-5.8-1-7.7-3-2-2-2.9-5-2.9-8.7s1-6.6 2.9-8.6 4.5-3 7.7-3 5.8 1 7.8 3 2.8 4.9 2.8 8.6zm-6.8 0c0-2.1-.4-3.6-1.1-4.5a3.4 3.4 0 0 0-2.8-1.4c-1.1 0-2 .5-2.8 1.4-.7 1-1 2.4-1 4.4 0 2 .3 3.6 1 4.5a3.3 3.3 0 0 0 2.8 1.4c1.1 0 2-.4 2.8-1.4.7-1 1-2.4 1-4.5z" fill="#fff"/></svg>