<svg xmlns="http://www.w3.org/2000/svg" width="361" height="361"><path d="M115.5 287c0-29.3 1.9-58.9 8-87.5a123 123 0 0 1 8.8-27.5 32.2 32.2 0 0 1 4.9-7.7 9 9 0 0 1 2.4-2 4.8 4.8 0 0 1 1.6-.5c6.4-.2 6.4-10.2 0-10-16.6.5-22.6 26.4-25.8 38.7-8 31.2-9.9 64.4-9.9 96.5 0 6.5 10 6.5 10 0zm37-156.7a4.8 4.8 0 0 1-4.9 4.8H144a4.8 4.8 0 0 1-4.8-4.8v-3.6a4.8 4.8 0 0 1 4.8-4.9h3.6a4.8 4.8 0 0 1 4.9 4.9v3.6zm15.1.2a4.8 4.8 0 0 1-4.8 4.8h-3.6a4.8 4.8 0 0 1-4.8-4.8v-3.6a4.8 4.8 0 0 1 4.8-4.8h3.6a4.8 4.8 0 0 1 4.8 4.8v3.6zm-22.5 13a4.8 4.8 0 0 1-4.8 4.8h-3.6a4.8 4.8 0 0 1-4.8-4.8v-3.6a4.8 4.8 0 0 1 4.8-4.9h3.6a4.8 4.8 0 0 1 4.8 4.9v3.6zm28.7 1.6a4.8 4.8 0 0 1-4.9 4.8h-3.6a4.8 4.8 0 0 1-4.8-4.8v-3.6a4.8 4.8 0 0 1 4.8-4.8h3.6a4.8 4.8 0 0 1 4.9 4.8v3.6zm-11.5 11.6a4.8 4.8 0 0 1-4.8 4.8h-3.6a4.8 4.8 0 0 1-4.8-4.8v-3.6a4.8 4.8 0 0 1 4.8-4.8h3.6a4.8 4.8 0 0 1 4.8 4.8v3.6zm18 12a4.8 4.8 0 0 1-4.8 4.8h-3.6a4.8 4.8 0 0 1-4.8-4.8v-3.6a4.8 4.8 0 0 1 4.8-4.8h3.6a4.8 4.8 0 0 1 4.8 4.8v3.6zm9.3-42.2a4.8 4.8 0 0 1-4.9 4.8h-3.6a4.8 4.8 0 0 1-4.8-4.8V123a4.8 4.8 0 0 1 4.8-4.8h3.7a4.8 4.8 0 0 1 4.8 4.8v3.6zm1 29.5a4.8 4.8 0 0 1-4.7 4.9h-3.7a4.8 4.8 0 0 1-4.8-4.9v-3.6a4.8 4.8 0 0 1 4.9-4.8h3.6a4.8 4.8 0 0 1 4.8 4.8v3.6zm3.3-14.8a4.8 4.8 0 0 1-4.8 4.9h-3.6a4.8 4.8 0 0 1-4.8-4.9v-3.6a4.8 4.8 0 0 1 4.8-4.8h3.6a4.8 4.8 0 0 1 4.8 4.8v3.6zm-16.6-27a4.8 4.8 0 0 1-4.8 4.8h-3.6a4.8 4.8 0 0 1-4.8-4.8v-3.6a4.8 4.8 0 0 1 4.8-4.8h3.6a4.8 4.8 0 0 1 4.8 4.8v3.6zm-15.2-4.2a4.8 4.8 0 0 1-4.9 4.8h-3.6a4.8 4.8 0 0 1-4.8-4.8v-3.6a4.8 4.8 0 0 1 4.8-4.8h3.6a4.8 4.8 0 0 1 4.9 4.8v3.6zm-14.4 2.7a4.8 4.8 0 0 1-4.8 4.9h-3.6a4.8 4.8 0 0 1-4.9-4.9v-3.6a4.8 4.8 0 0 1 4.9-4.8h3.6a4.8 4.8 0 0 1 4.8 4.8v3.6zM135 122.8a4.8 4.8 0 0 1-4.9 4.8h-3.6a4.8 4.8 0 0 1-4.8-4.8v-3.6a4.8 4.8 0 0 1 4.8-4.8h3.6a4.8 4.8 0 0 1 4.9 4.8v3.6zm-6.3 14.4a4.8 4.8 0 0 1-4.8 4.8h-3.6a4.8 4.8 0 0 1-4.8-4.8v-3.6a4.8 4.8 0 0 1 4.8-4.9h3.6a4.8 4.8 0 0 1 4.8 4.9v3.6zM165 175a4.8 4.8 0 0 1-4.8 4.8h-3.6a4.8 4.8 0 0 1-4.9-4.8v-3.6a4.8 4.8 0 0 1 4.9-4.9h3.6a4.8 4.8 0 0 1 4.8 4.9v3.6z" fill="#fff"/><path d="M150.5 173.2a4.8 4.8 0 0 1-4.8 4.8H142a4.8 4.8 0 0 1-4.9-4.8v-3.6a4.8 4.8 0 0 1 4.9-4.8h3.6a4.8 4.8 0 0 1 4.8 4.8v3.6zm-20.3-21a4.8 4.8 0 0 1-4.8 4.8h-3.6a4.8 4.8 0 0 1-4.8-4.9v-3.6a4.8 4.8 0 0 1 4.8-4.8h3.6a4.8 4.8 0 0 1 4.8 4.8v3.6zm151.4-56.8a3.8 3.8 0 0 1-7.5 0 3.8 3.8 0 0 1 7.5 0zM291 83a3.8 3.8 0 0 1-7.5 0 3.8 3.8 0 0 1 7.5 0zm-31.3-6a3.8 3.8 0 0 1-7.5 0 3.8 3.8 0 0 1 7.5 0zm4.3 27.3a3.8 3.8 0 0 1-7.5 0 3.8 3.8 0 0 1 7.5 0zm-19.3-1.5a3.8 3.8 0 0 1-7.5 0 3.8 3.8 0 0 1 7.5 0zm-22.2-28.5a3.8 3.8 0 0 1-7.5 0 3.8 3.8 0 0 1 7.5 0zm17 15a3.8 3.8 0 0 1-7.5 0 3.8 3.8 0 0 1 7.5 0zm-43.3-4a3.8 3.8 0 0 1-7.5 0 3.8 3.8 0 0 1 7.5 0zm4 8.5a3.8 3.8 0 0 1 7.5.5 3.8 3.8 0 1 1-7.4-.5zm17.8 10.7a3.8 3.8 0 1 1 7.5.5 3.8 3.8 0 0 1-7.5-.4zm-24 65.9a3.8 3.8 0 0 1-7.5 0 3.8 3.8 0 0 1 7.5 0zm5.2-8.3a3.8 3.8 0 0 1-7.5 0 3.8 3.8 0 0 1 7.5 0zm3.8-9.2a3.8 3.8 0 0 1-7.5 0 3.8 3.8 0 0 1 7.5 0zm-78.8-44.4a3.8 3.8 0 0 1-7.5 0 3.8 3.8 0 0 1 7.5 0zm7.3-6.2a3.8 3.8 0 0 1-7.5 0 3.8 3.8 0 0 1 7.5 0zm8.2-4.5a3.8 3.8 0 0 1-7.5 0 3.8 3.8 0 0 1 7.5 0zm9-2.8a3.8 3.8 0 0 1-7.5 0 3.8 3.8 0 0 1 7.5 0zm9.8-.5a3.8 3.8 0 0 1-7.5 0 3.8 3.8 0 0 1 7.5 0zm9.2 1a3.8 3.8 0 0 1-7.5 0 3.8 3.8 0 0 1 7.5 0zm9.3 3a3.8 3.8 0 0 1-7.5 0 3.8 3.8 0 0 1 7.5 0zm8.5 4.8a3.8 3.8 0 0 1-7.5 0 3.8 3.8 0 0 1 7.5 0zm7.2 6a3.8 3.8 0 0 1-7.5 0 3.8 3.8 0 0 1 7.5 0zm5 7.5a3.8 3.8 0 0 1-7.5 0 3.8 3.8 0 0 1 7.5 0zm4.3 8a3.8 3.8 0 0 1-7.5 0 3.8 3.8 0 0 1 7.5 0zm2.5 9a3.8 3.8 0 0 1-7.5 0 3.8 3.8 0 0 1 7.5 0zm.2 9.7a3.8 3.8 0 0 1-7.5 0 3.8 3.8 0 0 1 7.5 0zm-24.6 32.8a3.8 3.8 0 0 1 7.4 1.5 3.8 3.8 0 1 1-7.4-1.5zm-7 4.8a3.8 3.8 0 1 1 7.3 1.5 3.8 3.8 0 0 1-7.4-1.5zm-8.4 3.4a3.8 3.8 0 0 1 7.3 1.5 3.8 3.8 0 0 1-7.3-1.5zm-9 1.8a3.8 3.8 0 1 1 7.4 1.5 3.8 3.8 0 1 1-7.3-1.5zm-9 0a3.8 3.8 0 1 1 7.4 1.4 3.8 3.8 0 1 1-7.3-1.5zm-6.9-4.3a3.8 3.8 0 0 1 3.1 6.8 3.8 3.8 0 1 1-3.1-6.8zm-26.6-19.8a3.8 3.8 0 0 1 3.1 6.9 3.8 3.8 0 1 1-3.1-6.9zm-3.8-8a3.8 3.8 0 0 1 3.1 6.8 3.8 3.8 0 0 1-5-1.8 3.8 3.8 0 0 1 2-5zm1.2-8a3.8 3.8 0 1 1-3.9 6.4 3.8 3.8 0 0 1 4-6.4zm-.8-8.3a3.8 3.8 0 0 1 1.3 5.1 3.8 3.8 0 0 1-5.2 1.3 3.8 3.8 0 1 1 4-6.4zm.6-9.2a3.8 3.8 0 0 1 1.2 5.2 3.8 3.8 0 1 1-6.4-3.9 3.8 3.8 0 0 1 5.2-1.3zm2.2-8.3a3.8 3.8 0 0 1 1.2 5.1 3.8 3.8 0 0 1-5.1 1.3 3.8 3.8 0 1 1 3.9-6.4zm4.1-8.2a3.8 3.8 0 0 1 1.3 5.1 3.8 3.8 0 0 1-5.2 1.3 3.8 3.8 0 0 1 4-6.4zm.2 171.2c.4-43.8 43.4-70.5 83.5-70.8l-1.8-6.5-25.8 14.2-17.5 9.6c-2.2 1.2-6.6 2.5-8.2 4.6A1463756.6 1463756.6 0 0 1 111 281c-2.7 3.5 2.2 8.5 5 5l36-46.4c-.8 1.1.4 0 1.3-.6l5.6-3 17.5-9.7 25.9-14.2c3-1.7 1.6-6.5-1.8-6.5-44 .3-90 30.2-90.5 77.8 0 4.5 7 4.5 7 0z" fill="#fff"/><path d="M112 287.8a62.1 62.1 0 0 0-37.2-78.5c-2.7-1-5.8 2.7-4 5.2L83.7 231l8.2 10.6 2.7 3.5c.9 1.2.4.4.4.3l10.4 42.3c1.1 4.3 7.8 2.5 6.8-1.9l-10.5-42.3c-.4-1.6-2-3-3-4.3l-8.3-11L76.9 211l-4 5.2c28.7 10 41.5 41.8 32.4 69.8-1.4 4.3 5.4 6.1 6.8 1.9z" fill="#fff"/></svg>