<svg xmlns="http://www.w3.org/2000/svg" width="361" height="361"><path d="M98 269a56 56 0 0 1-4-78c4-5-3-12-7-7a66 66 0 0 0 4 92c5 4 12-3 7-7z" fill="#fff"/><path d="M176 264a56 56 0 0 1-78 4c-5-4-12 3-7 7a66 66 0 0 0 92-4c4-5-3-12-7-7z" fill="#fff"/><path d="M177 263c-20 9-49 2-65-12-4-4-10 1-8 6l8-6a68 68 0 0 1-17-63c1-6-8-9-10-2-6 24 1 55 20 72 4 4 10-1 8-6l-8 6c20 18 52 25 77 14 6-3 0-12-5-9z" fill="#fff"/><path d="M131 127a3 3 0 1 1-5 0 3 3 0 0 1 5 0zM77 80a3 3 0 0 1-6 0 3 3 0 1 1 6 0zm40 16a2 2 0 0 1-2 2h-1a2 2 0 0 1-2-2v-1l2-2h1a2 2 0 0 1 2 2v1zm60-5a3 3 0 1 1-5 0 3 3 0 0 1 5 0zm-5 36a4 4 0 0 1-9 0 4 4 0 0 1 9 0z" fill="#fff" stroke="#fff" stroke-miterlimit="10"/><path d="M98 81l-2 2a1 1 0 0 1-2-2l2-1 2 1z" fill="#fff"/><path d="M96 81c0 2 3 2 3 0v-2l-3-1c-2 0-3 1-3 3a3 3 0 0 0 3 3c2 0 3-1 3-3l-1-1-2 1z" fill="#fff"/><path d="M150 164a3 3 0 1 1-5 0 3 3 0 0 1 5 0zm-55-16a2 2 0 0 1-3 0l1-2a2 2 0 0 1 2 2zm147-22a3 3 0 0 1-5 0 3 3 0 0 1 5 0zm15 1a3 3 0 1 1-6 0 3 3 0 1 1 6 0zm-29-9a2 2 0 0 1-2 2 2 2 0 0 1-2-2v-1c0-1 0-2 2-2l2 2v1zm60-28a3 3 0 1 1-5 0 3 3 0 0 1 5 0zm-5 36a4 4 0 0 1-9 0 4 4 0 0 1 9 0z" fill="#fff" stroke="#fff" stroke-miterlimit="10"/><path d="M201 103l-1 2h-1a1 1 0 0 1-1-2l1-1h1l1 1z" fill="#fff"/><path d="M199 103h1c-1 1-1 0 0 0h-1 1-1c1 0 0 0 0 0 0 2 3 2 3 0v-1l-2-2c-2 0-4 1-4 3s1 3 3 3a3 3 0 0 0 3-3l-1-1-2 1z" fill="#fff"/><path d="M240 178a3 3 0 1 1-6 0 3 3 0 1 1 6 0zm-34-31a2 2 0 0 1-3 0 2 2 0 0 1 3 0zm26 88a3 3 0 0 1 0 6 3 3 0 1 1 0-5zm-37-40a3 3 0 0 1 3 3 3 3 0 0 1-3 3 3 3 0 0 1-3-3 3 3 0 0 1 3-3zm19 35l2 2v1a2 2 0 0 1-2 2h-1a2 2 0 0 1-2-2v-1l2-2h1zm-10-62a3 3 0 1 1 0 6 3 3 0 0 1 0-6zm28 27a4 4 0 0 1 0 8 4 4 0 0 1 0-8z" fill="#fff" stroke="#fff" stroke-miterlimit="10"/><path d="M211 220l1 1-1 2h-1a1 1 0 0 1-1-2l1-1h1z" fill="#fff"/><path d="M211 221h-1 1c-1 1 0 0 0 0h-1 1c2 0 2-3 0-3h-2l-2 3a3 3 0 0 0 3 3c2 0 3-1 3-3 1-1 0-3-2-3l-2 2 2 1z" fill="#fff"/><path d="M277 195a3 3 0 0 1 0 5 3 3 0 0 1 0-5zm-53-28a2 2 0 0 1 0 3 2 2 0 0 1-1-1 2 2 0 0 1 1-2zm54 3a3 3 0 1 1-6 0 3 3 0 0 1 6 0zm-2 56a3 3 0 0 1-6 0 3 3 0 1 1 6 0zm-26-119a4 4 0 0 1-8 0 4 4 0 0 1 8 0z" fill="#fff" stroke="#fff" stroke-miterlimit="10"/></svg>