<svg xmlns="http://www.w3.org/2000/svg" width="361" height="361"><path d="M189.7 78.8l15 15c4.5 4.5 11.6-2.5 7-7.1l-14.9-14.9c-4.6-4.6-11.6 2.5-7 7zM159 125h39.6c6.5 0 6.5-10 0-10H159c-6.4 0-6.4 10 0 10zm130.7 38.6l-15-15c-4.6-4.6-11.6 2.5-7 7l15 15.1c4.5 4.6 11.6-2.5 7-7zm-44.4 38.7v-39.6c0-6.4-10-6.4-10 0v39.6c0 6.4 10 6.4 10 0zm-60.4-18.6l28-28c4.6-4.6-2.5-11.7-7-7l-28 28c-4.6 4.5 2.4 11.5 7 7z" fill="#fff"/><path d="M159 125h39.6c6.5 0 6.5-10 0-10H159c-6.4 0-6.4 10 0 10zm86.3 77.2v-39.6c0-6.4-10-6.4-10 0v39.6c0 6.4 10 6.4 10 0zm-60.4-18.6l28-28c4.6-4.6-2.5-11.7-7-7l-28 28c-4.6 4.5 2.4 11.5 7 7zm1.6-79.9l11.2 4.6c2.5 1 5.5-1 6.1-3.5.8-2.9-1-5-3.5-6.1L189.2 94c-2.5-1-5.5 1-6.2 3.4-.8 3 1 5.1 3.5 6.2zm3 44.2l11.2-4.6c2.5-1 4.2-3.3 3.5-6.2-.7-2.4-3.7-4.5-6.2-3.5l-11.1 4.6c-2.6 1.1-4.3 3.3-3.5 6.2.6 2.4 3.6 4.5 6.1 3.5zm34.2 25.5l4.6-11.2c1-2.5-1.1-5.5-3.5-6.1-2.9-.8-5.1 1-6.2 3.5l-4.6 11.1c-1 2.5 1.1 5.5 3.5 6.2 2.9.8 5.1-1 6.2-3.5zm42.5-2.7l-4.6-11.1c-1-2.5-3.3-4.3-6.2-3.5-2.4.6-4.5 3.6-3.5 6.1l4.6 11.2c1 2.5 3.3 4.3 6.2 3.5 2.4-.7 4.5-3.7 3.5-6.2zM214 76.5l2.5 6.2c1 2.5 3.3 4.3 6.2 3.5 2.3-.7 4.5-3.6 3.5-6.1l-2.6-6.2c-1-2.5-3.3-4.3-6.1-3.5-2.4.6-4.6 3.6-3.5 6.1zm74 58.5l-6.5-2.6c-2.5-1-5.5 1-6.1 3.5-.8 2.8 1 5 3.5 6.1l6.4 2.7c2.5 1 5.5-1.1 6.2-3.5.8-2.9-1-5.1-3.5-6.2z" fill="#fff"/><path d="M87.8 221.4a8 8 0 0 0 8 8h37.5a8 8 0 0 0 8-8v-22.7a8 8 0 0 0-8-8H95.8a8 8 0 0 0-8 8v22.7z" fill="#fff" stroke="#fff" stroke-width="10" stroke-miterlimit="10"/><path d="M74.8 223.1a8 8 0 0 1 8-8H129a8 8 0 0 1 8 8v12.7a8 8 0 0 1-8 8H83a8 8 0 0 1-8.1-8v-12.7zm174.9 12.3c0 3.6-2.7 6.6-6 6.6h-45.5c-3.3 0-6-3-6-6.6v-47.6c0-3.6 2.7-6.5 6-6.5h45.6c3.2 0 5.9 3 5.9 6.5v47.6z" fill="#fff" stroke="#fff" stroke-width="10" stroke-miterlimit="10"/><path d="M233.7 225.1a8 8 0 0 0 8 8h37.5a8 8 0 0 0 8-8v-22.7a8 8 0 0 0-8-8h-37.4a8 8 0 0 0-8 8V225z" fill="#fff" stroke="#fff" stroke-width="10" stroke-miterlimit="10"/><path d="M264.8 128.6a14.2 14.2 0 0 1-14.2 14.2h-18.3a14.2 14.2 0 0 1-14.2-14.2v-17.3A14.2 14.2 0 0 1 232.3 97h18.3a14.2 14.2 0 0 1 14.2 14.2v17.3z" fill="none" stroke="#fff" stroke-width="10" stroke-miterlimit="10"/><path d="M178.5 225.7a6.7 6.7 0 0 0 6.7 6.7h31a6.7 6.7 0 0 0 6.8-6.7v-19a6.7 6.7 0 0 0-6.7-6.6h-31.1a6.7 6.7 0 0 0-6.7 6.7v18.9zM148 215.3a8 8 0 0 0-8-8h-37.4a8 8 0 0 0-8 8V238a8 8 0 0 0 8 8H140a8 8 0 0 0 8-8v-22.7z" fill="#fff" stroke="#fff" stroke-width="10" stroke-miterlimit="10"/><path d="M159.8 222.6a8 8 0 0 1-8 8h-46.1a8 8 0 0 1-8-8v-12.7a8 8 0 0 1 8-8h46a8 8 0 0 1 8.1 8v12.7zm68.4 21.2a6.7 6.7 0 0 0 6.6 6.7H266a6.7 6.7 0 0 0 6.7-6.7V225a6.7 6.7 0 0 0-6.7-6.6h-31a6.7 6.7 0 0 0-6.7 6.6v19z" fill="#fff" stroke="#fff" stroke-width="10" stroke-miterlimit="10"/></svg>