<svg xmlns="http://www.w3.org/2000/svg" width="361" height="361"><path d="M146 79l22 22c5 5 12-3 7-7l-22-22c-4-5-12 2-7 7zm-47 67h58c7 0 7-10 1-10H99c-6 0-6 10 0 10zm192 62l-23-23c-4-4-11 3-7 7l23 22c4 5 11-2 7-7zm-67 54v-59c0-7-10-7-10 0v58c0 7 10 7 10 0zm-88-28l41-42c5-4-2-11-7-7l-41 42c-5 4 2 11 7 7z" fill="#fff"/><path d="M99 146h59c6 0 6-10 0-10H99c-6 0-6 10 0 10zm125 115v-58c0-6-10-6-10 0v59c0 6 10 6 10 0zm-88-27l41-42c4-4-3-11-7-7l-42 42c-4 4 3 11 7 7zm4-119l17 7c2 1 5-1 6-4s-1-5-4-6l-16-7c-3-1-6 1-6 4-1 3 1 5 3 6zm3 65l17-7c2-1 4-3 3-6 0-2-3-4-6-3l-16 7c-3 1-5 3-4 6 1 2 4 4 6 3zm49 40l7-17c1-2-1-5-3-6-3-1-6 1-7 3l-6 17c-1 2 1 5 3 6 3 1 5-1 6-3zm63-3l-7-16c-1-3-3-5-6-4-2 1-4 4-3 6l6 17c1 2 4 4 7 3 2-1 4-4 3-6zM183 77l3 9c2 2 4 4 7 3 2-1 4-4 3-6a59966 59966 0 0 1-4-9c-1-3-3-4-6-4-2 1-4 4-3 7zm106 89l-9-4c-3-1-6 1-7 3 0 3 1 5 4 7l9 4c3 1 6-2 7-4 0-3-1-5-4-6z" fill="#fff"/><path d="M261 156a24 24 0 0 1-24 24h-31a24 24 0 0 1-24-24v-29a24 24 0 0 1 24-24h30a24 24 0 0 1 25 24v29z" fill="none" stroke="#fff" stroke-width="10" stroke-miterlimit="10"/></svg>