<svg xmlns="http://www.w3.org/2000/svg" width="361" height="361"><path d="M194 292v-45l9-2v15a17 17 0 0 1 2 0 14 14 0 0 1 3-1l6 1 4 3a12 12 0 0 1 2 5l1 6v18h-9v-17l-1-6-4-2a12 12 0 0 0-5 1v24h-8zm48-42c6 0 11 1 14 3s5 6 5 11-2 8-5 10a26 26 0 0 1-14 4h-3v14h-10v-41a53 53 0 0 1 7-1 87 87 0 0 1 6 0zm1 8a34 34 0 0 0-4 0v12h3a16 16 0 0 0 7-2c2-1 3-2 3-5a6 6 0 0 0-1-2 5 5 0 0 0-2-2 8 8 0 0 0-3-1 23 23 0 0 0-3 0zm35 1l6 1 5 3a10 10 0 0 1 2 4v24l-5 1a50 50 0 0 1-14 0 12 12 0 0 1-4-2 8 8 0 0 1-3-3 11 11 0 0 1-1-5l1-5a9 9 0 0 1 3-3 13 13 0 0 1 5-1 24 24 0 0 1 10 0v-1a5 5 0 0 0-2-4l-4-1a29 29 0 0 0-9 1l-1-7a30 30 0 0 1 5-1 54 54 0 0 1 3-1 32 32 0 0 1 3 0zm0 26a51 51 0 0 0 5 0v-7a18 18 0 0 0-6 0l-2 1-1 1a3 3 0 0 0-1 2l2 3h3zm-65-138L107 253l-15 15c-1 1 1 3 2 2l106-106 15-15c1-1-1-3-2-2z" fill="#fff"/><path d="M214 143a84 84 0 0 0-18 26c-3 7-4 14 1 19 3 3 8-2 5-5-4-4 0-11 2-14a79 79 0 0 1 15-21c3-3-2-8-5-5z" fill="#fff"/><path d="M214 143a84 84 0 0 1-21 15c-3 2-11 6-14 2-3-3-8 2-5 5 5 5 12 4 19 1a79 79 0 0 0 26-18c3-3-2-8-5-5z" fill="#fff"/><g fill="#fff"><path d="M76 271a11 11 0 0 1 15 0c3 3 8-2 5-5a18 18 0 0 0-25 0c-3 3 2 8 5 5z"/><path d="M96 291a18 18 0 0 0 0-25c-3-3-8 2-5 5a11 11 0 0 1 0 15c-3 3 2 8 5 5z"/></g><path d="M149 222a6 6 0 0 1-8 0l-1-1a6 6 0 0 1 0-8l1-1a6 6 0 0 1 8 0l2 1a6 6 0 0 1 0 8l-2 1z" fill="#fff" stroke="#fff" stroke-miterlimit="10"/><path d="M223 99l-15 21c0 2 2 4 3 2l15-21c1-1-2-3-3-2zm20 17l-12 12c-1 1 1 3 3 2l12-12c1-1-2-3-3-2zm-10-9l-10 13c-1 2 1 4 2 2l11-12c1-2-1-4-3-3zm27 28l-21 16c-1 1 1 3 2 2l21-15c2-1 0-4-2-3zm7 11l-14 9c-1 1 0 4 2 3l14-9c2-1 0-4-2-3zm20 49l-16 3c-2 1-1 4 0 4l17-4c2 0 1-4-1-3zm-3-13l-25 8c-1 0-1 3 1 2l25-7c1 0 0-4-1-3zm-32-57l-13 11c-1 2 1 4 2 3l13-11c2-1-1-4-2-3zm22 33l-15 7c-2 1 0 4 1 3l15-7c2-1 0-4-1-4zm5 11l-15 7c-2 1-1 3 1 3l15-6c2-1 1-4-1-3zm10 39l-16 2c-2 0-2 4 0 3l17-1c2-1 1-4-1-4zm2 28l-26-1c-2 0-2 3 0 3l25 1c2 0 3-4 1-4zm0-14h-17c-2 0-2 4 0 4l17-1c2 0 1-3 0-3zM122 71l2 26h3l-1-26c0-2-4-2-4 0zm14 0a94822 94822 0 0 0 0 17h3l1-17c0-2-4-2-4 0zm53 10l-6 16c-1 1 2 3 3 1l6-16c1-1-3-3-3-1zm-13-4l-7 25 3 1 8-25c0-2-3-3-4-1zm-26-5l-2 16c0 2 3 3 3 1l3-17c0-2-4-2-4 0zm13 2l-3 16c0 2 3 3 3 1l4-16c0-2-3-3-4-1zm38 12l-7 15c-1 2 2 3 2 2l8-15c1-2-2-3-3-2zm11 6l-8 15c-1 1 2 3 3 2l8-15c1-1-2-3-3-2z" fill="#fff"/></svg>