<svg xmlns="http://www.w3.org/2000/svg" width="361" height="361"><path d="M110.7 258.9a94.8 94.8 0 0 1-31-64.6 94 94 0 0 1 23.7-67.5c4.2-4.8-2.8-11.9-7-7a105 105 0 0 0-26.8 74.5 104.1 104.1 0 0 0 34 71.6c4.7 4.4 11.8-2.7 7-7z" fill="#fff"/><path d="M242.4 251.3a94.7 94.7 0 0 1-64.5 31 94 94 0 0 1-67.6-23.7c-4.8-4.3-11.9 2.8-7 7a105 105 0 0 0 74.6 26.7 104.1 104.1 0 0 0 71.6-34c4.3-4.7-2.7-11.8-7-7z" fill="#fff"/><path d="M243.4 250.5c-17.3 8.2-37.7 8.1-56.2 4.6a111.9 111.9 0 0 1-53.3-24.6c-4.5-3.9-10.2 1-7.9 6l.1.3 7.9-6a102 102 0 0 1-27.8-49.8 114.4 114.4 0 0 1-1.6-56.5c1.6-6.3-8-9-9.6-2.7a127 127 0 0 0 1.5 61.9c5.1 20 15 40 30.4 54 4.4 4.1 10.1-1 7.8-6v-.2l-7.9 6.1a123 123 0 0 0 57.7 27.2 104 104 0 0 0 64-5.6c5.8-2.8.7-11.4-5-8.7z" fill="#fff"/><path d="M191 151.9c-2.1 0-3.9.5-3.9 1.2v21c0 .6 1.8 1.2 3.9 1.2h75.6c2.1 0 3.8-.6 3.8-1.2v-21c0-.7-1.7-1.2-3.8-1.2H191z" fill="none" stroke="#fff" stroke-width="10" stroke-miterlimit="10"/><path d="M291.3 148.8l-58.7-76.7c-2.4-3.2-6.2-3.2-8.6 0l-58.7 76.7c-2.4 3.2.9 7.6 4.3 7.6H287c6.5 0 6.5-10 0-10H169.6l4.3 7.5L232.6 77H224l58.6 76.8c3.9 5 12.6 0 8.6-5z" fill="#fff"/></svg>