<svg xmlns="http://www.w3.org/2000/svg" width="361" height="361"><path d="M131 126.6a2.8 2.8 0 1 1-5.4 0 2.8 2.8 0 0 1 5.5 0zM76.7 80.3a2.9 2.9 0 0 1-5.8 0 2.9 2.9 0 1 1 5.8 0zM116.9 96a2 2 0 0 1-2 2h-.7a2 2 0 0 1-2-2v-.7c0-1.1.8-2 2-2h.7a2 2 0 0 1 2 2v.7zm60.1-5.4a2.8 2.8 0 1 1-5.5 0 2.8 2.8 0 0 1 5.5 0zm-5.4 36a4.2 4.2 0 0 1-8.4 0 4.2 4.2 0 0 1 8.4 0z" fill="#fff" stroke="#fff" stroke-miterlimit="10"/><path d="M99.5 81c0 .8-.6 1.4-1.4 1.4h-.4a1.4 1.4 0 0 1-1.4-1.4v-.4c0-.7.6-1.3 1.4-1.3h.4c.8 0 1.4.6 1.4 1.3v.4z" fill="#fff"/><path d="M98 81c-.1.2 0 0 0 0h-.3.1c-.2-.1 0 0 0 0v-.3.2c.1-.3 0 0 0 0h.3l-.2-.2c.3.2.1.1 0 0v.4c0 2 3 2 3 0 0-.6 0-1.2-.3-1.8-.4-1-1.5-1.4-2.5-1.5-1.8 0-3.2 1.1-3.3 2.9 0 1.8 1 3.2 2.9 3.3a3 3 0 0 0 3.3-3c0-.8-.8-1.5-1.5-1.5-.9 0-1.5.7-1.5 1.5z" fill="#fff"/><path d="M143.7 164a2.8 2.8 0 1 1-5.5 0 2.8 2.8 0 0 1 5.5 0zm-49.1-16.3a1.5 1.5 0 0 1-3 0c0-.8.6-1.5 1.5-1.5a1.5 1.5 0 0 1 1.5 1.5zM236.7 107a2.8 2.8 0 1 1-5.5 0 2.8 2.8 0 0 1 5.5 0zM103.1 237.5a5.3 5.3 0 0 1-5.2 5.3 5.3 5.3 0 1 1 0-10.5 5.3 5.3 0 0 1 5.2 5.2zm10.6 29.3a1.5 1.5 0 0 1-3 0 1.5 1.5 0 0 1 1.4-1.5 1.5 1.5 0 0 1 1.6 1.5zM273.9 91.3a4.1 4.1 0 0 1-4.2 4h-1.4a4.1 4.1 0 0 1-4.2-4V90a4.1 4.1 0 0 1 4.2-4.1h1.4a4 4 0 0 1 4.2 4v1.4z" fill="#fff" stroke="#fff" stroke-miterlimit="10"/><path d="M282 245.6a76.4 76.4 0 0 1-52.8 41.5 75.7 75.7 0 0 1-66.4-18.4 76 76 0 0 1-23.8-62 75.7 75.7 0 0 1 36.9-58.2 76 76 0 0 1 89.1 9.7 76.2 76.2 0 0 1 17 87.4c-.9 1.7 1.7 3.3 2.5 1.5A79.1 79.1 0 0 0 243.4 141c-41.6-17.5-89.6 6.2-103.8 48.2a79 79 0 0 0 44.9 96.7 78.9 78.9 0 0 0 100-38.8c.8-1.7-1.7-3.2-2.6-1.5z" fill="#fff"/><g fill="#fff"><path d="M290.6 214.4a77.2 77.2 0 0 0-76.2-76.4c-6.5-.1-6.5 9.9 0 10a67 67 0 0 1 66.2 66.4c0 6.4 10 6.4 10 0z"/><path d="M214.2 290.3a77.3 77.3 0 0 0 76.4-76.2c0-6.5-10-6.5-10 0a67 67 0 0 1-66.5 66.2c-6.4 0-6.4 10 0 10z"/><path d="M211.8 147.2c23 12.3 42 39.6 42.3 66l9.4-2.5-.1-.1c-2.1-4.8-9.3-2.1-9.3 2.5-.4 26.6-17.4 57.2-42.5 67.9-5.9 2.5-.8 11 5 8.6 28.3-12 47.1-46.7 47.5-76.5l-9.3 2.5v.2c2.1 4.7 9.4 2.1 9.3-2.6-.3-29.8-21.2-60.6-47.2-74.6-5.7-3-10.8 5.5-5 8.6z"/></g></svg>