<svg xmlns="http://www.w3.org/2000/svg" width="361" height="361"><path d="M270.3 119.1a4 4 0 0 1-4 4h-23.4a4 4 0 0 1-4-4V95.7a4 4 0 0 1 4-4h23.4a4 4 0 0 1 4 4v23.4z" fill="none" stroke="#fff" stroke-width="10" stroke-miterlimit="10"/><path d="M216.2 78.3l7.2 7.3a5 5 0 0 0 7 0 5 5 0 0 0 0-7.1l-7.2-7.2a5 5 0 0 0-7 0 5 5 0 0 0 0 7zm-30.9 33.9h33.5c6.5 0 6.5-10 0-10h-33.5c-6.4 0-6.4 10 0 10zm104.4 24.6l-6-6a5 5 0 0 0-7 0 5 5 0 0 0 0 7l6 6a5 5 0 0 0 7 0 5 5 0 0 0 0-7zm-30.6 39.1v-33.5c0-6.4-10-6.4-10 0V176c0 6.5 10 6.5 10 0zm-51.3-14.4l23.7-23.7c4.5-4.5-2.5-11.6-7.1-7l-23.7 23.7c-4.6 4.5 2.5 11.6 7 7zm-65.8 130h14.2c4.5 0 4.5-7 0-7H142c-4.5 0-4.5 7 0 7z" fill="#fff"/><path d="M144.3 223.3v63.4c0 6.4 10 6.4 10 0v-63.3c0-6.5-10-6.5-10 0zm-58-41.2h5.5c1.9 0 1.9-3 0-3h-5.5c-2 0-2 3 0 3zm118.4 0h5.5c2 0 2-3 0-3h-5.5c-2 0-2 3 0 3z" fill="#fff"/><path d="M219.3 212.2c-.5 5-5.7 4.5-9.3 4.5H89.7c-2.3 0-4.8.2-7.2-.3-3.9-1-3.2-5.5-3.2-8.5v-12c0-3.8 0-7.6 5-8H205c3.5 0 7.6-.5 11.1.3 4.6 1 3.3 8.8 3.3 12.1v11.9c0 4.5 7 4.5 7 0 0-10.4 3.8-31.3-12.2-31.3H99c-7.6 0-18.5-1.9-24.2 4.3-4.3 4.8-2.6 14.2-2.6 20 0 7.8 0 14.6 8.4 18 2.3.9 5.7.5 8.2.5h110.5c10 0 25.7 2.5 26.9-11.5.4-4.5-6.6-4.5-7 0z" fill="#fff"/><path d="M71.2 204h40c1.9 0 1.9-3 0-3h-40c-2 0-2 3 0 3zm116 0h40c2 0 2-3 0-3h-40c-1.9 0-1.9 3 0 3zm-16.4-1.6l-12.5 7.5c-1.6 1-.1 3.6 1.6 2.6l12.4-7.5c1.7-1 .1-3.6-1.5-2.6zm0-5.6l-21.7 13c-1.7 1-.1 3.7 1.5 2.7l21.7-13c1.7-1 .2-3.7-1.5-2.7zm0-5.5l-21.7 13c-1.7 1-.1 3.6 1.5 2.6l21.7-13c1.7-1 .2-3.6-1.5-2.6zm-.5 16.8l-3 1.8c-1.6 1-.1 3.6 1.6 2.6l3-1.8c1.6-1 0-3.6-1.6-2.6zm.5-22.7l-21.7 13c-1.7 1-.1 3.6 1.5 2.6l21.7-13c1.7-1 .2-3.6-1.5-2.6z" fill="#fff"/><path d="M127.4 205l12.5 7.5c1.6 1 3.1-1.6 1.5-2.6l-12.5-7.5c-1.6-1-3.1 1.6-1.5 2.6zm0-5.6l21.7 13c1.7 1 3.2-1.5 1.5-2.5l-21.7-13c-1.6-1-3.2 1.5-1.5 2.5zm0-5.5l21.7 13c1.7 1 3.2-1.6 1.5-2.6l-21.7-13c-1.6-1-3.2 1.6-1.5 2.6zm.5 16.8l3 1.8c1.6 1 3.1-1.6 1.5-2.6l-3-1.8c-1.7-1-3.2 1.6-1.5 2.6zm-.5-22.7l21.7 13c1.7 1 3.2-1.6 1.5-2.6l-21.7-13c-1.6-1-3.1 1.6-1.5 2.6z" fill="#fff"/><path d="M176.3 217c-.8 3.2-13.3 1.7-15 1.7h-24c-1 0-14.1 1-14.1-1.4V189c0-2.3-.5-4 3-4h40c3 0 10-1.4 10 3v29.5c0 2 3 2 3 0v-16.7c0-5 1-11-.2-16-1-3.9-8.4-2.9-11.4-2.9h-40.9c-4.7 0-6.5 2.2-6.5 6.6v21.7c0 4-1.4 10.7 4.3 11.3 9.6 1 19.6.2 29.2.2h17c3.3 0 7.5.2 8.5-3.8.5-2-2.4-2.7-2.9-.8z" fill="#fff"/></svg>