<svg xmlns="http://www.w3.org/2000/svg" width="361" height="361"><path d="M270.3 119.1a4 4 0 0 1-4 4h-23.4a4 4 0 0 1-4-4V95.7a4 4 0 0 1 4-4h23.4a4 4 0 0 1 4 4v23.4z" fill="none" stroke="#fff" stroke-width="10" stroke-miterlimit="10"/><path d="M216.2 78.3l7.2 7.3a5 5 0 0 0 7 0 5 5 0 0 0 0-7.1l-7.2-7.2a5 5 0 0 0-7 0 5 5 0 0 0 0 7zm-30.9 33.9h33.5c6.5 0 6.5-10 0-10h-33.5c-6.4 0-6.4 10 0 10zm104.4 24.6l-6-6a5 5 0 0 0-7 0 5 5 0 0 0 0 7l6 6a5 5 0 0 0 7 0 5 5 0 0 0 0-7zm-30.6 39.1v-33.5c0-6.4-10-6.4-10 0V176c0 6.5 10 6.5 10 0zm-51.3-14.4l23.7-23.7c4.5-4.5-2.5-11.6-7.1-7l-23.7 23.7c-4.6 4.5 2.5 11.6 7 7zm-87.1 110c6.9 0 15.2 1.4 21.7-1.4a34 34 0 0 0 17.6-18.2c4.2-9 8.3-17.9 11.2-27.3a141 141 0 0 0 4.7-25.4c1-8.3 1.9-16.7 2.5-25 .5-6.6-1-13.6-6.8-17.3-4-2.6-9.3-2-13.8-2h-35c-4.5 0-4.5 7 0 7h2.2c4.5 0 4.5-7 0-7H91.5c-5.2 0-10.5-.6-15.2 2-5.6 3-6.9 10-7 15.7 0 8.8 1.7 17.9 2.7 26.6 1 8.1 2 16.2 4.3 24 2.8 10 7.2 19.4 11.5 28.7a35 35 0 0 0 16.7 17.8c7.2 3.4 16.5 1.9 24.2 1.9 4.5 0 4.5-7 0-7h-12.1c-3 0-5.8.2-8.5-1C99.6 260.2 96 253 92.4 245c-7-15-11.4-29.4-13.4-45.8a876 876 0 0 1-2.2-21.4c-.5-4.7-1.7-13.1 4-15.3 4-1.6 9.5-.7 13.8-.7H125c4.5 0 4.5-7 0-7h-2c-4.6 0-4.6 7 0 7h28.8c5 0 10.7-.8 15.4.7 5.4 1.7 4.5 10 4.1 14.3-.7 7.4-1.4 15-2.3 22.4-2 16.4-6.5 30.9-13.4 45.9-3.5 7.8-6.9 14-14.7 18-5.5 3-14 1.5-20.1 1.5-4.5 0-4.5 7 0 7z" fill="#fff"/><path fill="none" stroke="#fff" stroke-width="15" stroke-miterlimit="10" d="M124 268v11.3"/><path d="M96.3 286.2h55.3c4.5 0 4.5-7 0-7H96.3c-4.5 0-4.5 7 0 7z" fill="#fff"/><path d="M110.2 291.5h27.5c6.4 0 6.4-10 0-10h-27.5c-6.5 0-6.5 10 0 10zm44.4-73.5c-.7 7.8-10.8 6-16.2 6h-39c-6.9 0-6.9-10.7-7.6-15.7l-3.4-21.7c-.6-3.9.4-8.3 5.6-8.3h59c7 0 6.8 5.4 6.1 10.1l-4.5 29.2c-.4 1.9 2.5 2.7 2.8.8l5.3-33.6c2-12.7-19.5-9.5-26.2-9.5H95.3c-15 0-9 17.3-7.6 26.2l2.1 13.6c.5 3 .5 6.5 2.7 8.8 4.7 4.7 13.4 3 19.5 3h29.5c7 0 15.3.4 16.1-9 .2-1.8-2.8-1.8-3 0z" fill="#fff"/><path d="M116.8 187.8v26.7c0 2 3 2 3 0v-26.7c0-2-3-2-3 0zm11.2 0v26.7c0 2 3 2 3 0v-26.7c0-2-3-2-3 0zm-5.6 0v26.7c0 2 3 2 3 0v-26.7c0-2-3-2-3 0zm17.7-.6L139 214c0 2 3 2 3 0l1.2-26.7c.1-1.9-2.9-1.9-3 0zm11.3 0l-1.2 26.7c-.1 2 2.9 2 3 0l1.2-26.7c0-1.9-3-1.9-3 0zm-5.6 0l-1.2 26.7c-.1 2 2.9 2 3 0l1.2-26.7c0-1.9-3-1.9-3 0zm-41.1 1l1.2 26.7c0 2 3 2 3 0l-1.2-26.7c0-1.9-3-2-3 0zm-11.2 0l1.2 26.7c0 2 3 2 3 0l-1.2-26.7c-.1-1.9-3.1-2-3 0zm5.6 0l1.2 26.7c0 2 3 2 3 0l-1.2-26.7c-.1-1.9-3.1-2-3 0z" fill="#fff"/></svg>