<svg xmlns="http://www.w3.org/2000/svg" width="361" height="361"><path d="M111 259a95 95 0 0 1-31-65 94 94 0 0 1 23-67c5-5-2-12-7-7a105 105 0 0 0-26 74 104 104 0 0 0 34 72c4 4 11-3 7-7z" fill="#fff"/><path d="M242 251a95 95 0 0 1-64 31 94 94 0 0 1-68-23c-4-5-12 2-7 7a105 105 0 0 0 75 26 104 104 0 0 0 72-34c4-4-3-11-7-7z" fill="#fff"/><path d="M243 251c-17 8-37 8-56 4a112 112 0 0 1-53-25c-5-3-10 2-8 7l8-6a102 102 0 0 1-28-50 114 114 0 0 1-1-56c1-7-8-9-10-3a127 127 0 0 0 1 62c6 20 15 40 31 54 4 4 10-1 8-6v-1l-8 7a123 123 0 0 0 57 27 104 104 0 0 0 65-6c5-3 0-11-5-9z" fill="#fff"/><path d="M266 98l3-1V76l-3-1h-76l-4 1v21l4 1h76z" fill="none" stroke="#fff" stroke-width="10" stroke-miterlimit="10"/><path d="M165 101l59 77c2 3 6 3 9 0l58-77c3-3-1-7-4-7H170c-7 0-7 10 0 10h117l-4-8-59 77h9l-59-77c-4-5-13 0-9 5z" fill="#fff"/></svg>