<svg xmlns="http://www.w3.org/2000/svg" width="361" height="361"><path d="M197 128a16 16 0 1 1-33 0l2-9c2-6 9-25 14-25s13 20 15 25l2 9zm-22 74a16 16 0 0 1-33 0l2-10c2-5 9-24 14-24 6 0 13 19 15 24l2 9zm-49 24c0 2-2 4-5 4H80c-3 0-5-2-5-4V79c0-2 3-4 5-4h41c3 0 5 2 5 4v147z" fill="none" stroke="#fff" stroke-width="10" stroke-miterlimit="10"/><path d="M117 152a16 16 0 1 1-33 0l2-9c2-5 9-25 14-25 6 0 13 20 14 25l3 9zm75 124c0 6-1 9-4 12s-6 4-12 4a35 35 0 0 1-11-2l2-8a26 26 0 0 0 9 2c3 0 5 0 6-2a6 6 0 0 0 1-4v-1a14 14 0 0 1-6 1 13 13 0 0 1-10-4 16 16 0 0 1-3-10l1-7c0-2 1-3 3-5a14 14 0 0 1 5-3l7-1a38 38 0 0 1 6 1 48 48 0 0 1 6 1v26zm-19-12c0 5 2 7 6 7a10 10 0 0 0 4-1v-14a20 20 0 0 0-1-1 21 21 0 0 0-2 0c-3 0-4 1-6 3a10 10 0 0 0-1 6zm31 28h-9l20-59h9l-20 58zm38-28l-1-6c0-2-2-2-4-2h-3v24h-9v-30a64 64 0 0 1 6-1 48 48 0 0 1 7-1l6 1 3 2a15 15 0 0 1 4-2 16 16 0 0 1 11 0l4 3 2 5 1 6v17h-9v-16l-1-6c-1-2-2-2-4-2a8 8 0 0 0-2 0l-2 1a42 42 0 0 1 0 6v17h-9v-16zm39-7l3-1 1-1c0-2-1-3-4-3h-2v-5h4l1-2-2-2-3 1-3 1-2-5 4-1a15 15 0 0 1 8-1l3 2a5 5 0 0 1 1 2l1 3a5 5 0 0 1-1 2 7 7 0 0 1-2 2 6 6 0 0 1 4 6l-1 3a6 6 0 0 1-2 2 9 9 0 0 1-3 2 16 16 0 0 1-7 1 20 20 0 0 1-2-1 32 32 0 0 1-2 0 10 10 0 0 1-2-1l2-5a17 17 0 0 0 6 1z" fill="#fff"/></svg>