<svg xmlns="http://www.w3.org/2000/svg" width="361" height="361"><path d="M196.8 128a16.4 16.4 0 1 1-32.9 0c0-3.5 1.3-6.3 2.3-9.4 2-5.4 8.6-24.4 14.2-24.4s12.5 19.8 14.2 24.5c1 3 2.2 5.8 2.2 9.3zm-22 73.5a16.4 16.4 0 0 1-33 0c0-3.5 1.3-6.3 2.4-9.3 2-5.5 8.5-24.5 14.1-24.5 5.7 0 12.6 19.8 14.2 24.5 1 3 2.3 5.9 2.3 9.3zm-49 24.3c0 2.4-2.2 4.3-5 4.3H80.3c-2.8 0-5.1-2-5.1-4.3V78.9c0-2.4 2.3-4.3 5-4.3h40.6c2.8 0 5 2 5 4.3v147z" fill="none" stroke="#fff" stroke-width="10" stroke-miterlimit="10"/><path d="M116.7 152.3a16.4 16.4 0 1 1-32.9 0c0-3.5 1.2-6.4 2.3-9.4 2-5.4 8.5-24.5 14.2-24.5 5.6 0 12.5 19.9 14.1 24.5 1 3 2.3 5.9 2.3 9.4zm75.6 124c0 5.2-1.3 9-4 11.6s-6.6 3.7-12.1 3.7a34.7 34.7 0 0 1-11.1-1.9l1.5-7.4a26.2 26.2 0 0 0 9.7 1.8c2.6 0 4.4-.6 5.4-1.7a6 6 0 0 0 1.6-4.3v-1.2a14.3 14.3 0 0 1-6.3 1.3 13 13 0 0 1-10-3.8 15.6 15.6 0 0 1-3.5-10.9c0-2.3.4-4.4 1.1-6.3.7-1.9 1.8-3.5 3.2-4.9a14 14 0 0 1 5-3.1c2-.8 4.3-1.1 6.8-1.1a37.9 37.9 0 0 1 6.7.5 47.6 47.6 0 0 1 6 1.3v26.5zm-19.7-12.8c0 5 2 7.5 6.1 7.5a9.8 9.8 0 0 0 4.6-1.2v-14.2a20.4 20.4 0 0 0-1.5-.3 21.4 21.4 0 0 0-2.1 0c-2.4 0-4.2.7-5.3 2.3a9.7 9.7 0 0 0-1.8 6zm31.5 28H195l20.1-58.1h9l-20 58zm38.2-28c0-2.8-.4-4.8-1-6-.8-1.2-2.1-1.8-4-1.8h-1.7l-1.7.3v24.3h-9V250a63.7 63.7 0 0 1 6-1.3 48.1 48.1 0 0 1 7-.5c2.3 0 4.2.3 5.6.8 1.4.6 2.6 1.3 3.5 2a15.3 15.3 0 0 1 4.4-2 16 16 0 0 1 10.8.3c1.6.6 3 1.6 3.9 2.9s1.6 2.8 2 4.5c.3 1.8.5 3.8.5 6v17.7h-9v-16.7c0-2.9-.3-5-1-6.1-.8-1.2-2-1.8-3.9-1.8a8 8 0 0 0-2 .3c-.8.3-1.5.6-2.1 1a42 42 0 0 1 .7 6.2v17.1h-9v-16.7zm39.1-6.4c1.4 0 2.4-.3 3-.7.5-.4.8-1 .8-1.6 0-1.6-1.4-2.4-4.2-2.4h-2.5v-5h2.5c1 0 1.7-.1 2.3-.5s.9-.9.9-1.6c0-1.3-.9-2-2.7-2-.9 0-1.8.2-2.7.5l-2.7 1-2.2-4.7c1-.6 2.2-1.1 3.7-1.6a15 15 0 0 1 8.5-.2c1 .4 2 .9 2.6 1.5a5.3 5.3 0 0 1 1.4 2.2c.3.8.4 1.6.4 2.5a5.3 5.3 0 0 1-.5 2.4 6.8 6.8 0 0 1-2 2.2 6.1 6.1 0 0 1 3.7 5.8c0 1-.2 2.1-.5 3a6.1 6.1 0 0 1-1.8 2.5 8.5 8.5 0 0 1-3.1 1.7 16.4 16.4 0 0 1-7 .5 19.7 19.7 0 0 1-2.1-.4 31.9 31.9 0 0 1-2-.5 9.8 9.8 0 0 1-1.7-.6l1.4-5.4a16.9 16.9 0 0 0 6.5 1.4z" fill="#fff"/></svg>