<svg xmlns="http://www.w3.org/2000/svg" width="361" height="361"><path d="M262.1 96v190.7c0 6.4 10 6.4 10 0V96c0-6.4-10-6.4-10 0zm-89.3 161.7l43.8-119c2.2-6-7.5-8.6-9.7-2.6l-43.8 119c-2.2 6 7.5 8.6 9.7 2.6zm17 9.5l67.3-108.3c3.5-5.5-5.2-10.5-8.6-5L181.2 262c-3.4 5.5 5.2 10.5 8.6 5z" fill="#fff"/><path fill="#fff" d="M211.8 137.4l45.5-42.3-4.5 61.3z"/><path d="M215.3 141l45.6-42.3-8.6-3.6-4.5 61.3 7.6-4.4-41.1-19c-5.8-2.6-11 6-5 8.7l41 19c3.6 1.6 7.2-.4 7.5-4.3l4.5-61.3c.4-4.6-5.5-6.2-8.5-3.5L208.2 134c-4.7 4.4 2.4 11.4 7 7zm-21.5 107.5c2.1 1 2.4 4.7.7 8.1l-4.4 9c-1.7 3.4-4.8 5.3-7 4.3l-17.1-8.5c-2.2-1-2.5-4.7-.8-8.2l4.4-8.8c1.8-3.5 4.9-5.5 7-4.4l17.2 8.5zm19.8-35.3c2.7 1.3 3.4 5.1 1.7 8.6l-4.5 8.9c-1.7 3.4-5.2 5.2-7.8 3.9l-21.2-10.4c-2.6-1.3-3.3-5.2-1.6-8.7l4.4-8.9c1.7-3.4 5.3-5.2 7.9-3.9l21.1 10.5zm21.3-38a6.8 6.8 0 0 1 2.8 9.3l-4.4 8.9a6.8 6.8 0 0 1-9 3.3l-26.7-13a6.8 6.8 0 0 1-2.8-9.3l4.4-8.9c1.8-3.5 5.8-5 9.1-3.3l26.6 13z" fill="#fff"/></svg>