<svg xmlns="http://www.w3.org/2000/svg" width="361" height="361"><path d="M107.3 162.3v28.4c0 4.5 7 4.5 7 0v-28.4c0-4.5-7-4.5-7 0z" fill="#fff"/><path d="M100.8 168.2l8.2 4.8c4 2.2 7.5-3.8 3.6-6l-8.3-4.9c-4-2.2-7.4 3.8-3.5 6.1z" fill="#fff"/><path d="M117.2 162.2l-8.3 4.7c-3.9 2.3-.4 8.3 3.5 6l8.3-4.7c3.9-2.3.4-8.3-3.5-6zm-32.8 17l24.5 14.2c4 2.2 7.4-3.8 3.5-6L88 173c-4-2.2-7.4 3.8-3.5 6z" fill="#fff"/><path d="M86.3 187.8l8.2-4.8c3.9-2.3.4-8.3-3.5-6l-8.3 4.7c-3.9 2.3-.4 8.3 3.5 6z" fill="#fff"/><path d="M89.2 170.5v9.6c0 4.5 7 4.5 7 0v-9.6c0-4.5-7-4.5-7 0zm-1.2 37l24.5-14.1c4-2.3.4-8.4-3.5-6.1l-24.6 14.2c-3.9 2.2-.4 8.3 3.6 6z" fill="#fff"/><path d="M96.3 210.2v-9.5c0-4.5-7-4.5-7 0v9.5c0 4.5 7 4.5 7 0z" fill="#fff"/><path d="M82.8 199l8.3 4.8c3.9 2.3 7.4-3.8 3.5-6l-8.3-4.8c-3.9-2.3-7.4 3.8-3.5 6zm31.4 19.8v-28.4c0-4.5-7-4.5-7 0v28.4c0 4.5 7 4.5 7 0z" fill="#fff"/><path d="M120.8 212.9l-8.3-4.8c-4-2.2-7.4 3.8-3.5 6l8.2 4.8c4 2.3 7.5-3.7 3.6-6z" fill="#fff"/><path d="M104.4 219l8.2-4.8c4-2.3.4-8.3-3.5-6a22219.4 22219.4 0 0 1-8.3 4.7c-3.9 2.2-.4 8.3 3.6 6z" fill="#fff"/><g fill="#fff"><path d="M137.2 201.7l-24.6-14.2c-4-2.3-7.4 3.8-3.5 6l24.5 14.2c4 2.3 7.5-3.8 3.6-6z"/><path d="M135.3 193.1L127 198c-3.9 2.2-.4 8.3 3.5 6l8.3-4.7c4-2.3.4-8.3-3.5-6z"/><path d="M132.3 210.3v-9.5c0-4.5-7-4.5-7 0v9.5c0 4.6 7 4.6 7 0z"/></g><g fill="#fff"><path d="M133.6 173.4L109 187.5c-3.9 2.3-.4 8.3 3.6 6l24.5-14.1c3.9-2.3.4-8.3-3.5-6z"/><path d="M125.2 170.7v9.5c0 4.5 7 4.5 7 0v-9.5c0-4.6-7-4.6-7 0z"/><path d="M138.7 181.8l-8.3-4.7c-3.9-2.3-7.4 3.8-3.5 6l8.3 4.8c3.9 2.2 7.4-3.8 3.5-6z"/></g><path d="M196.7 140.4c0 4.3-3.2 7.9-7 7.9H135c-3.9 0-7-3.6-7-7.9V83.6c0-4.3 3.1-7.8 7-7.8h54.5c3.9 0 7 3.5 7 7.8v56.8z" fill="#fff" stroke="#fff" stroke-width="13.1" stroke-miterlimit="10"/><path d="M93.5 120.8a7.8 7.8 0 0 0 7.8 7.9h36.6a7.8 7.8 0 0 0 7.8-7.9V98.6a7.8 7.8 0 0 0-7.8-7.8h-36.6a7.8 7.8 0 0 0-7.8 7.8v22.2z" fill="#fff" stroke="#fff" stroke-width="13.1" stroke-miterlimit="10"/><path d="M77.8 120.8a7.8 7.8 0 0 1 7.8-7.8h45a7.8 7.8 0 0 1 8 7.8v12.4a7.8 7.8 0 0 1-8 7.9h-45a7.8 7.8 0 0 1-7.8-7.9v-12.4zM249 148.3c0 4.3-3.1 7.8-7 7.8h-54.5c-4 0-7-3.5-7-7.8V91.4c0-4.3 3-7.8 7-7.8H242c3.9 0 7 3.5 7 7.8v56.9z" fill="#fff" stroke="#fff" stroke-width="13.1" stroke-miterlimit="10"/><path d="M233.2 141.7a7.8 7.8 0 0 0 7.9 7.9h36.5a7.8 7.8 0 0 0 7.9-7.9v-22.2a7.8 7.8 0 0 0-7.9-7.8h-36.5a7.8 7.8 0 0 0-7.9 7.8v22.2zm-31.1 15.7c0 4.3-3.2 7.8-7 7.8h-54.6c-3.8 0-7-3.5-7-7.8v-56.8c0-4.4 3.2-7.9 7-7.9h54.6c3.8 0 7 3.5 7 7.9v56.8z" fill="#fff" stroke="#fff" stroke-width="13.1" stroke-miterlimit="10"/><path d="M103 142.5a7.8 7.8 0 0 1 7.9-7.8h45a7.8 7.8 0 0 1 7.9 7.8V155a7.8 7.8 0 0 1-7.8 7.9h-45.1a7.8 7.8 0 0 1-7.8-7.9v-12.4z" fill="#fff" stroke="#fff" stroke-width="13.1" stroke-miterlimit="10"/><g fill="#fff"><path d="M169.3 144.9v28.3c0 4.6 7 4.6 7 0V145c0-4.5-7-4.5-7 0z"/><path d="M162.8 150.8l8.3 4.7c3.9 2.3 7.4-3.7 3.5-6l-8.2-4.8c-4-2.2-7.5 3.8-3.6 6z"/><path d="M179.2 144.7l-8.2 4.8c-4 2.3-.4 8.3 3.5 6l8.2-4.7c4-2.3.4-8.3-3.5-6zm-32.8 17L171 176c3.9 2.3 7.4-3.8 3.5-6l-24.6-14.2c-3.9-2.2-7.4 3.8-3.5 6z"/><path d="M148.3 170.3l8.3-4.7c3.9-2.3.3-8.3-3.6-6l-8.2 4.7c-4 2.2-.4 8.3 3.5 6z"/><path d="M151.2 153.1v9.6c0 4.5 7 4.5 7 0V153c0-4.5-7-4.5-7 0zm-1.2 37l24.6-14.2c3.9-2.2.3-8.3-3.6-6L146.5 184c-4 2.3-.4 8.3 3.5 6z"/><path d="M158.3 192.8v-9.6c0-4.5-7-4.5-7 0v9.6c0 4.5 7 4.5 7 0z"/><path d="M144.9 181.6l8.2 4.8c4 2.2 7.5-3.8 3.6-6l-8.3-4.8c-4-2.3-7.4 3.7-3.5 6zm31.4 19.7V173c0-4.5-7-4.5-7 0v28.3c0 4.6 7 4.6 7 0z"/><path d="M182.8 195.5l-8.3-4.8c-3.9-2.3-7.4 3.8-3.5 6l8.3 4.8c3.9 2.3 7.4-3.8 3.5-6z"/><path d="M166.4 201.5l8.3-4.8c3.9-2.2.4-8.3-3.6-6a22219.4 22219.4 0 0 1-8.2 4.8c-4 2.2-.4 8.3 3.5 6zm32.8-17.2L174.7 170c-4-2.3-7.5 3.8-3.6 6l24.6 14.2c3.9 2.3 7.4-3.8 3.5-6z"/><path d="M197.3 175.7l-8.2 4.8c-4 2.2-.4 8.3 3.5 6l8.3-4.8c3.9-2.2.4-8.3-3.6-6z"/><path d="M194.4 193v-9.6c0-4.5-7-4.5-7 0v9.5c0 4.5 7 4.5 7 0zm1.2-37l-24.5 14c-4 2.3-.4 8.3 3.5 6l24.6-14.1c3.9-2.3.3-8.3-3.6-6z"/><path d="M187.3 153.2v9.6c0 4.5 7 4.5 7 0v-9.6c0-4.5-7-4.5-7 0z"/><path d="M200.8 164.4l-8.3-4.8c-4-2.2-7.5 3.8-3.5 6l8.2 4.9c4 2.2 7.5-3.8 3.6-6z"/></g><g fill="#fff"><path d="M253.1 169.7l-20 20c-3.2 3.3 1.7 8.2 5 5l20-20c3.1-3.2-1.8-8.2-5-5z"/><path d="M244.3 169.3l2.5 9.2c1.2 4.4 8 2.5 6.8-1.8l-2.5-9.3c-1.2-4.3-8-2.5-6.8 2z"/><path d="M260.3 176.6l-9.3-2.5c-4.3-1.1-6.2 5.6-1.8 6.8l9.2 2.4c4.4 1.2 6.2-5.5 1.9-6.7zM225 165.5l7.3 27.4c1.2 4.3 8 2.5 6.8-1.9l-7.4-27.4c-1.1-4.3-7.9-2.5-6.7 1.9z"/><path d="M220.2 172.8l9.2 2.5c4.4 1.2 6.2-5.6 1.9-6.8l-9.2-2.4c-4.4-1.2-6.2 5.6-1.9 6.7z"/><path d="M234.5 162.7l-6.8 6.8c-3.1 3.2 1.8 8.1 5 5l6.8-6.8c3.1-3.2-1.8-8.2-5-5zm-27 25.3l27.3 7.3c4.4 1.2 6.2-5.5 1.9-6.7l-27.4-7.3c-4.4-1.2-6.2 5.5-1.9 6.7z"/><path d="M211.5 195.8l6.7-6.7c3.2-3.2-1.7-8.2-5-5l-6.7 6.8c-3.2 3.2 1.8 8.1 5 5z"/><path d="M209.9 178.4l2.4 9.2c1.2 4.4 8 2.5 6.8-1.8l-2.5-9.2c-1.1-4.4-7.9-2.5-6.7 1.8zm8.2 36.2l20-20c3.3-3.3-1.7-8.2-4.9-5l-20 20c-3.2 3.2 1.7 8.2 5 5z"/><path d="M226.9 215l-2.5-9.3c-1.2-4.3-8-2.4-6.8 2l2.5 9.1c1.2 4.4 8 2.5 6.8-1.8z"/><path d="M211 207.7l9.2 2.5c4.4 1.1 6.2-5.6 1.8-6.8l-9.2-2.5c-4.3-1.1-6.2 5.6-1.8 6.8zm35.4 11l-7.4-27.4c-1.1-4.4-7.9-2.5-6.7 1.8l7.3 27.4c1.2 4.4 8 2.5 6.8-1.9z"/><path d="M251.2 211.3l-9.2-2.5c-4.4-1.1-6.3 5.6-1.9 6.8l9.2 2.5c4.4 1.1 6.2-5.6 1.9-6.8z"/><path d="M236.9 221.4l6.7-6.8c3.2-3.1-1.7-8-5-4.9l-6.7 6.8c-3.2 3.2 1.8 8 5 4.9zm27.1-25.3l-27.4-7.3c-4.4-1.2-6.3 5.6-2 6.7l27.5 7.4c4.3 1.1 6.2-5.6 1.8-6.8z"/><path d="M259.9 188.3l-6.7 6.8c-3.2 3.2 1.7 8.1 5 5l6.6-6.8c3.2-3.2-1.7-8.2-4.9-5z"/><path d="M261.5 205.7l-2.5-9.2c-1.1-4.4-7.9-2.5-6.7 1.8l2.5 9.3c1.1 4.3 7.9 2.5 6.7-1.9z"/></g><g fill="#fff"><path d="M200.3 220.4l-20 20c-3.2 3.3 1.8 8.2 5 5l20-20c3.2-3.2-1.8-8.2-5-5z"/><path d="M191.6 220l2.5 9.2c1.1 4.4 7.9 2.5 6.7-1.8l-2.5-9.3c-1.1-4.3-7.9-2.5-6.7 1.9z"/><path d="M207.5 227.3l-9.2-2.5c-4.4-1.1-6.2 5.6-1.9 6.8l9.2 2.4c4.4 1.2 6.3-5.5 1.9-6.7zm-35.3-11.1l7.4 27.4c1.1 4.3 7.9 2.5 6.7-1.9l-7.3-27.4c-1.2-4.3-8-2.5-6.8 1.9z"/><path d="M167.4 223.5l9.3 2.5c4.3 1.2 6.2-5.6 1.8-6.8l-9.2-2.4c-4.4-1.2-6.2 5.5-1.9 6.7z"/><path d="M181.7 213.4l-6.7 6.8c-3.2 3.2 1.8 8.1 5 5l6.7-6.8c3.2-3.2-1.8-8.2-5-5zm-27 25.3l27.4 7.3c4.3 1.2 6.2-5.6 1.8-6.7l-27.3-7.4c-4.4-1.1-6.3 5.6-1.9 6.8z"/><path d="M158.7 246.5l6.8-6.7c3.2-3.2-1.8-8.2-5-5l-6.7 6.7c-3.2 3.3 1.7 8.2 5 5z"/><path d="M157.1 229.1l2.5 9.2c1.1 4.4 7.9 2.5 6.7-1.8l-2.4-9.2c-1.2-4.4-8-2.6-6.8 1.8zm8.3 36.2l20-20c3.2-3.3-1.8-8.2-5-5l-20 20c-3.2 3.2 1.8 8.1 5 5z"/><path d="M174.1 265.7l-2.5-9.2c-1.1-4.4-7.9-2.5-6.7 1.8l2.5 9.2c1.1 4.4 7.9 2.5 6.7-1.8z"/><path d="M158.2 258.4l9.2 2.4c4.4 1.2 6.2-5.5 1.9-6.7l-9.2-2.5c-4.4-1.1-6.3 5.6-1.9 6.8zm35.4 11l-7.3-27.4c-1.2-4.4-8-2.6-6.8 1.8l7.4 27.4c1.1 4.4 7.9 2.5 6.7-1.9z"/><path d="M198.4 262l-9.2-2.5c-4.4-1.1-6.2 5.6-1.9 6.8l9.2 2.4c4.4 1.2 6.3-5.5 2-6.7z"/><path d="M184.1 272.1l6.8-6.8c3.2-3.1-1.8-8.1-5-4.9l-6.7 6.7c-3.2 3.2 1.7 8.2 5 5zm27.1-25.3l-27.4-7.3c-4.4-1.2-6.2 5.6-1.9 6.7l27.4 7.4c4.4 1.1 6.2-5.6 1.9-6.8z"/><path d="M207.2 239l-6.8 6.8c-3.2 3.1 1.8 8.1 5 4.9l6.7-6.7c3.2-3.2-1.8-8.2-5-5z"/><path d="M208.8 256.4l-2.5-9.2c-1.2-4.4-8-2.5-6.8 1.8l2.5 9.3c1.2 4.3 8 2.5 6.8-1.9z"/></g><g fill="#fff"><path d="M113.1 230.8v28.4c0 4.5 7 4.5 7 0v-28.4c0-4.5-7-4.5-7 0z"/><path d="M106.6 236.7l8.3 4.8c3.9 2.3 7.4-3.8 3.5-6l-8.3-4.8c-3.9-2.3-7.4 3.8-3.5 6z"/><path d="M123 230.7l-8.3 4.8c-3.9 2.2-.3 8.3 3.6 6l8.3-4.8c3.9-2.2.3-8.3-3.6-6zm-32.8 17l24.6 14.2c3.9 2.3 7.4-3.8 3.5-6l-24.6-14.2c-3.9-2.3-7.4 3.8-3.5 6z"/><path d="M92.1 256.3l8.3-4.8c3.9-2.2.3-8.3-3.6-6l-8.2 4.7c-4 2.3-.4 8.4 3.5 6z"/><path d="M95 239v9.6c0 4.5 7 4.5 7 0v-9.5c0-4.5-7-4.5-7 0zm-1.2 37l24.6-14.1c3.9-2.3.3-8.3-3.6-6L90.3 270c-4 2.3-.4 8.3 3.5 6z"/><path d="M102.1 278.7v-9.5c0-4.5-7-4.5-7 0v9.5c0 4.6 7 4.6 7 0z"/><path d="M88.7 267.6l8.2 4.7c4 2.3 7.5-3.8 3.6-6l-8.3-4.8c-4-2.3-7.4 3.8-3.5 6zm31.4 19.7v-28.4c0-4.5-7-4.5-7 0v28.4c0 4.5 7 4.5 7 0z"/><path d="M126.6 281.4l-8.2-4.7c-4-2.3-7.5 3.8-3.6 6l8.3 4.8c3.9 2.2 7.4-3.8 3.5-6z"/><path d="M110.2 287.5l8.3-4.8c3.9-2.3.4-8.3-3.6-6a22219.4 22219.4 0 0 1-8.2 4.7c-4 2.3-.4 8.3 3.5 6zm32.8-17.3L118.5 256c-4-2.2-7.5 3.8-3.6 6l24.6 14.3c3.9 2.2 7.4-3.8 3.5-6z"/><path d="M141.1 261.6l-8.2 4.8c-4 2.3-.4 8.3 3.5 6l8.3-4.7c3.9-2.3.4-8.3-3.6-6z"/><path d="M138.2 278.9v-9.6c0-4.5-7-4.5-7 0v9.6c0 4.5 7 4.5 7 0zm1.2-37L115 256c-4 2.2-.4 8.3 3.5 6l24.5-14.2c4-2.2.4-8.3-3.5-6z"/><path d="M131 239.2v9.5c0 4.5 7 4.5 7 0v-9.5c0-4.5-7-4.5-7 0z"/><path d="M144.6 250.4l-8.3-4.8c-4-2.3-7.5 3.8-3.5 6l8.2 4.8c4 2.3 7.5-3.8 3.6-6z"/></g></svg>