<svg xmlns="http://www.w3.org/2000/svg" width="361" height="361"><path d="M176 169v117c0 7 10 7 10 0V169c0-7-10-7-10 0zm70-59l-19-10c-5-3-10 6-5 9l19 10c5 3 10-6 5-9z" fill="#fff"/><path d="M241 110l-19 10c-5 3 0 12 5 9l19-10c5-3 0-12-5-9z" fill="#fff"/><path d="M153 120h90c6 0 6-10 0-10h-90c-6 0-6 10 0 10z" fill="#fff"/><path d="M115 79l34 39 1-8-34 20 7 4V75c0-6-10-6-10 0v59a5 5 0 0 0 8 4l33-19c4-2 4-6 2-8l-34-39c-4-5-11 2-7 7zm148 130c6 1 5 10 5 15v23c0 4 1 12-6 12h-38c-4 0-10 1-14-1s-2-12-2-15v-23c0-5-1-11 5-11h50c6 0 6-10 0-10h-50c-9 0-15 8-15 16v39c0 8 6 15 15 15h46c10 0 18-5 18-16v-39c1-9-6-14-14-15-7 0-7 10 0 10z" fill="#fff"/><path d="M199 223h76c7 0 7-10 1-10h-77c-6 0-6 10 0 10zm45 54v-12c0-7-10-7-10 0v12c0 7 10 7 10 0z" fill="#fff"/><path d="M239 272H128c-6 0-6 10 0 10h111c6 0 6-10 0-10z" fill="#fff"/><path d="M133 277v-12c0-7-10-7-10 0v12c0 7 10 7 10 0zm50-121c0 2 1 8-2 8-4 0-7-4-8-8 0-4 4-7 8-8 3 0 2 6 2 8 0 7 10 7 10 0 0-9-2-17-12-18-10 0-17 9-18 18 0 10 9 17 18 18 11 0 12-10 12-18 0-6-10-6-10 0zm38 0c0 3-1 8-4 8-2 0-2-7-2-8l1-8c4 0 5 6 5 8 0 7 10 7 10 0 0-9-5-17-14-18-10 0-12 11-12 18 0 8 2 17 11 18 10 1 15-10 15-18 0-6-10-6-10 0zm-74 0l-1 8c-4 0-5-6-5-8s1-7 4-8c2 1 2 7 2 8 0 7 10 7 10 0 0-8-2-17-11-18-10 0-14 11-15 18 0 9 6 17 14 18 10 1 12-11 12-18 0-6-10-6-10 0z" fill="#fff"/><path d="M157 161h8c3 0 5-2 5-5s-2-5-5-5h-8c-3 0-5 2-5 5s2 5 5 5zm33 0h14c7 0 7-10 0-10h-14c-6 0-6 10 0 10zm-14-44v22c0 7 10 7 10 0v-22c0-7-10-7-10 0z" fill="#fff"/><g fill="#fff"><path d="M149 242h-40a4 4 0 0 0-4 4c0 5 7 4 7 0 1-8 11-7 17-7s15-1 16 7c0 4 7 5 7 0s-7-5-7 0h7a14 14 0 0 0-11-13l-12-1-12 1c-7 0-12 6-12 13h7l-3 3h40c4 0 4-7 0-7z"/><path d="M149 228h-40a4 4 0 0 0-4 4c0 4 7 4 7 0 1-9 11-7 17-7s15-2 16 7c0 4 7 4 7 0s-7-5-7 0h7c0-7-5-12-11-14h-24c-7 1-12 7-12 13h7l-3 4h40c4 0 4-7 0-7z"/><path d="M149 214h-40a4 4 0 0 0-4 3c0 5 7 4 7 0 1-8 11-6 17-6s15-2 16 6c0 4 7 5 7 0s-7-4-7 0h7c0-7-5-12-11-13h-24c-7 0-12 6-12 13h7l-3 4h40c4 0 4-7 0-7z"/><path d="M149 199h-40a4 4 0 0 0-4 4c0 4 7 4 7 0 1-9 11-7 17-7s15-2 16 7c0 4 7 4 7 0s-7-5-7 0h7c0-7-5-12-11-14h-24c-7 1-12 7-12 14h7l-3 3h40c4 0 4-7 0-7zm0 58h-40a4 4 0 0 0-4 3c0 5 7 5 7 0 1-8 11-6 17-6s15-2 16 6c0 5 7 5 7 0 0-4-7-4-7 0h7a14 14 0 0 0-11-13h-24c-7 0-12 7-12 13h7l-3 4h40c4 0 4-7 0-7z"/></g></svg>