<svg xmlns="http://www.w3.org/2000/svg" width="361" height="361"><path d="M196.7 140.4c0 4.3-3.2 7.9-7 7.9H135c-3.9 0-7-3.6-7-7.9V83.6c0-4.3 3.1-7.8 7-7.8h54.5c3.9 0 7 3.5 7 7.8v56.8z" fill="#fff" stroke="#fff" stroke-width="13.1" stroke-miterlimit="10"/><path d="M93.5 120.8a7.8 7.8 0 0 0 7.8 7.9h36.6a7.8 7.8 0 0 0 7.8-7.9V98.6a7.8 7.8 0 0 0-7.8-7.8h-36.6a7.8 7.8 0 0 0-7.8 7.8v22.2z" fill="#fff" stroke="#fff" stroke-width="13.1" stroke-miterlimit="10"/><path d="M77.8 120.8a7.8 7.8 0 0 1 7.8-7.8h45a7.8 7.8 0 0 1 8 7.8v12.4a7.8 7.8 0 0 1-8 7.9h-45a7.8 7.8 0 0 1-7.8-7.9v-12.4zM249 148.3c0 4.3-3.1 7.8-7 7.8h-54.5c-4 0-7-3.5-7-7.8V91.4c0-4.3 3-7.8 7-7.8H242c3.9 0 7 3.5 7 7.8v56.9z" fill="#fff" stroke="#fff" stroke-width="13.1" stroke-miterlimit="10"/><path d="M233.2 141.7a7.8 7.8 0 0 0 7.9 7.9h36.5a7.8 7.8 0 0 0 7.9-7.9v-22.2a7.8 7.8 0 0 0-7.9-7.8h-36.5a7.8 7.8 0 0 0-7.9 7.8v22.2zm-31.1 15.7c0 4.3-3.2 7.8-7 7.8h-54.6c-3.8 0-7-3.5-7-7.8v-56.8c0-4.4 3.2-7.9 7-7.9h54.6c3.8 0 7 3.5 7 7.9v56.8z" fill="#fff" stroke="#fff" stroke-width="13.1" stroke-miterlimit="10"/><path d="M103 142.5a7.8 7.8 0 0 1 7.9-7.8h45a7.8 7.8 0 0 1 7.9 7.8V155a7.8 7.8 0 0 1-7.8 7.9h-45.1a7.8 7.8 0 0 1-7.8-7.9v-12.4z" fill="#fff" stroke="#fff" stroke-width="13.1" stroke-miterlimit="10"/><path d="M186.2 164.5l-8 27.2c-1.2 4.3 5.6 6.2 6.8 1.9l8-27.2c1.2-4.4-5.5-6.2-6.8-2z" fill="#fff"/><path d="M178.4 168.3l6.6 7c3.1 3.2 8-1.8 5-5l-6.7-7c-3-3.2-8 1.8-4.9 5z" fill="#fff"/><path d="M195.7 167l-9.3 2.3c-4.4 1.1-2.5 7.9 1.9 6.8l9.2-2.3c4.4-1 2.6-7.8-1.8-6.7zm-36.1 7.3l19.6 20.5c3 3.2 8-1.7 5-5l-19.7-20.5c-3.1-3.2-8 1.7-5 5z" fill="#fff"/><path d="M159 183l9.3-2.3c4.3-1 2.5-7.8-1.9-6.8l-9.3 2.3c-4.4 1-2.5 7.8 1.9 6.7z" fill="#fff"/><path d="M166.5 167.3l-2.6 9.2c-1.3 4.3 5.4 6.1 6.7 1.8l2.7-9.1c1.3-4.4-5.5-6.2-6.8-1.9z" fill="#fff"/><g fill="#fff"><path d="M155.1 202.4l27.5-6.7c4.4-1.1 2.6-7.9-1.8-6.8l-27.6 6.7c-4.3 1.1-2.5 7.9 1.9 6.8z"/><path d="M162.3 207.3l2.6-9.2c1.3-4.3-5.4-6.2-6.7-1.8l-2.7 9.1c-1.2 4.4 5.5 6.2 6.8 1.9z"/><path d="M152.5 192.9l6.6 6.9c3.2 3.2 8-1.7 5-5l-6.6-6.9c-3.2-3.2-8 1.7-5 5z"/></g><g fill="#fff"><path d="M177.1 220.5l8-27.2c1.2-4.3-5.5-6.2-6.8-1.8l-8 27.2c-1.2 4.3 5.5 6.2 6.8 1.8z"/><path d="M185 216.7l-6.7-6.9c-3.1-3.3-8 1.7-5 5l6.7 6.8c3.1 3.3 8-1.7 5-4.9z"/><path d="M167.6 218l9.3-2.3c4.4-1 2.5-7.8-1.9-6.8l-9.2 2.3c-4.4 1-2.6 7.8 1.8 6.8z"/></g><g fill="#fff"><path d="M203.8 210.5L184.2 190c-3.1-3.2-8 1.7-5 5l19.7 20.5c3 3.3 8-1.7 5-5z"/><path d="M204.4 201.9L195 204c-4.4 1.1-2.5 7.9 1.9 6.8l9.2-2.3c4.4-1 2.6-7.8-1.8-6.7z"/><path d="M196.8 217.5l2.7-9.2c1.3-4.3-5.5-6.1-6.7-1.8l-2.7 9.1c-1.3 4.4 5.5 6.2 6.7 2z"/></g><g fill="#fff"><path d="M208.3 182.4l-27.6 6.8c-4.3 1-2.5 7.8 1.9 6.7l27.5-6.7c4.4-1 2.6-7.8-1.8-6.8z"/><path d="M201.1 177.5l-2.7 9.2c-1.2 4.3 5.5 6.2 6.8 1.9l2.7-9.2c1.2-4.3-5.5-6.2-6.8-1.9z"/><path d="M210.8 192l-6.6-7c-3-3.2-8 1.7-4.9 5l6.6 6.9c3.1 3.2 8-1.7 5-5z"/></g><g fill="#fff"><path d="M102.8 134.6v28.3c0 4.5 7 4.5 7 0v-28.3c0-4.6-7-4.6-7 0z"/><path d="M96.3 140.4l8.2 4.8c4 2.3 7.5-3.8 3.6-6l-8.3-4.8c-4-2.3-7.4 3.8-3.5 6z"/><path d="M112.7 134.4l-8.3 4.8c-4 2.2-.4 8.3 3.5 6l8.3-4.8c3.9-2.2.4-8.3-3.5-6zm-32.8 17l24.5 14.2c4 2.3 7.4-3.8 3.5-6l-24.5-14.2c-4-2.3-7.5 3.8-3.5 6z"/><path d="M81.7 160l8.3-4.8c4-2.2.4-8.3-3.5-6l-8.3 4.8c-3.9 2.2-.4 8.3 3.5 6z"/><path d="M84.7 142.8v9.5c0 4.5 7 4.5 7 0v-9.5c0-4.6-7-4.6-7 0zm-1.3 37l24.6-14.2c4-2.3.4-8.3-3.5-6l-24.6 14.1c-3.9 2.3-.4 8.3 3.5 6z"/><path d="M91.8 182.4V173c0-4.5-7-4.5-7 0v9.5c0 4.6 7 4.6 7 0z"/><path d="M78.3 171.3l8.3 4.7c3.9 2.3 7.4-3.8 3.5-6l-8.2-4.8c-4-2.2-7.5 3.8-3.6 6zm31.5 19.7v-28.3c0-4.6-7-4.6-7 0V191c0 4.5 7 4.5 7 0z"/><path d="M116.3 185.1l-8.3-4.7c-4-2.3-7.4 3.7-3.5 6l8.2 4.8c4 2.2 7.5-3.8 3.6-6z"/><path d="M99.8 191.2l8.3-4.8c4-2.3.4-8.3-3.5-6l-8.3 4.7c-3.9 2.3-.4 8.3 3.5 6zm32.9-17.3L108 159.7c-4-2.2-7.4 3.8-3.5 6L129 180c4 2.2 7.5-3.8 3.6-6z"/><path d="M130.8 165.3l-8.3 4.8c-3.9 2.3-.4 8.3 3.5 6l8.3-4.7c4-2.3.4-8.3-3.5-6z"/><path d="M127.8 182.6V173c0-4.5-7-4.5-7 0v9.6c0 4.5 7 4.5 7 0zm1.2-37l-24.5 14.2c-3.9 2.2-.4 8.3 3.5 6l24.6-14.2c3.9-2.2.4-8.3-3.5-6z"/><path d="M120.7 142.9v9.5c0 4.5 7 4.5 7 0V143c0-4.5-7-4.5-7 0z"/><path d="M134.2 154l-8.3-4.7c-3.9-2.3-7.4 3.8-3.5 6l8.3 4.8c3.9 2.3 7.4-3.8 3.5-6z"/></g><g fill="#fff"><path d="M135.9 216.1l-20 20c-3.3 3.3 1.7 8.2 4.9 5l20-20c3.2-3.3-1.7-8.2-5-5z"/><path d="M127.1 215.7l2.5 9.2c1.2 4.4 8 2.5 6.7-1.9l-2.4-9.2c-1.2-4.3-8-2.5-6.8 1.9z"/><path d="M143 223l-9.2-2.5c-4.4-1.1-6.2 5.6-1.9 6.8l9.3 2.4c4.3 1.2 6.2-5.5 1.8-6.7zm-35.2-11.1l7.3 27.3c1.2 4.4 8 2.6 6.7-1.8l-7.3-27.4c-1.2-4.4-8-2.5-6.8 1.9z"/><path d="M103 219.2l9.2 2.5c4.4 1.1 6.2-5.6 1.8-6.8l-9.2-2.4c-4.3-1.2-6.2 5.5-1.8 6.7z"/><path d="M117.3 209.1l-6.8 6.8c-3.2 3.2 1.8 8.1 5 5l6.7-6.8c3.2-3.2-1.7-8.2-5-5zm-27.1 25.3l27.4 7.3c4.3 1.2 6.2-5.5 1.8-6.7l-27.3-7.3c-4.4-1.2-6.3 5.5-1.9 6.7z"/><path d="M94.2 242.2l6.8-6.8c3.2-3.2-1.8-8.1-5-4.9l-6.7 6.7c-3.2 3.2 1.7 8.2 5 5z"/><path d="M92.6 224.8l2.5 9.2c1.2 4.4 8 2.5 6.8-1.8l-2.5-9.2c-1.2-4.4-8-2.6-6.8 1.8zm8.3 36.1l20-20c3.2-3.2-1.7-8.2-5-5L96 256c-3.2 3.2 1.8 8.1 5 5z"/><path d="M109.6 261.4l-2.4-9.3c-1.2-4.3-8-2.5-6.8 1.9l2.5 9.2c1.1 4.4 7.9 2.5 6.7-1.8z"/><path d="M93.7 254l9.2 2.5c4.4 1.2 6.3-5.5 2-6.7l-9.3-2.5c-4.4-1.2-6.2 5.6-1.9 6.8zm35.5 11l-7.4-27.4c-1.1-4.3-7.9-2.5-6.7 1.9l7.3 27.4c1.2 4.3 8 2.5 6.8-1.9z"/><path d="M134 257.7l-9.3-2.5c-4.4-1.1-6.2 5.6-1.8 6.8l9.2 2.4c4.3 1.2 6.2-5.5 1.8-6.7z"/><path d="M119.6 267.8l6.8-6.8c3.2-3.2-1.8-8.1-5-5l-6.7 6.8c-3.2 3.2 1.7 8.2 5 5zm27.1-25.3l-27.4-7.3c-4.4-1.2-6.2 5.5-1.9 6.7l27.4 7.4c4.4 1.1 6.2-5.6 1.9-6.8z"/><path d="M142.7 234.7l-6.8 6.8c-3.2 3.1 1.8 8 5 4.9l6.7-6.8c3.2-3.2-1.7-8.1-5-4.9z"/><path d="M144.3 252l-2.5-9.1c-1.2-4.4-8-2.5-6.8 1.8l2.5 9.3c1.2 4.3 8 2.5 6.8-2z"/></g><g fill="#fff"><path d="M185.6 289.8l53-91.7h-8.7l53 91.7 4.3-7.5H181.3c-6.5 0-6.5 10 0 10h105.9a5 5 0 0 0 4.3-7.5l-53-91.7a5 5 0 0 0-8.6 0l-53 91.7c-3.2 5.6 5.5 10.6 8.7 5z"/><path d="M229.3 222.4V255c0 6.4 10 6.4 10 0v-32.6c0-6.5-10-6.5-10 0zm0 47.3v3.6c0 2.8 2.3 5 5 5s5-2.2 5-5v-3.7c0-2.7-2.3-5-5-5s-5 2.3-5 5z"/></g></svg>