<svg xmlns="http://www.w3.org/2000/svg" width="361" height="361"><path d="M183 286h3l1-1 1-1a3 3 0 0 0-1-4l-5-3a40 40 0 0 1-4-1 12 12 0 0 1-3-2 9 9 0 0 1-2-3 9 9 0 0 1-1-3l1-5a9 9 0 0 1 3-3 11 11 0 0 1 4-2h5a21 21 0 0 1 10 2l-3 6a21 21 0 0 0-3-1l-4-1-4 1-1 2 1 2 1 1 2 1h2a48 48 0 0 1 5 2l3 2 2 4v4c0 3-1 5-3 7s-5 2-10 2h-4a26 26 0 0 1-3-1 18 18 0 0 1-2 0 18 18 0 0 1-2-1l2-6a19 19 0 0 0 9 2zm-8-126l9-38 8 38z" fill="#fff"/><path d="M176 160l9-38h-3l9 38 1-1h-17c-2 0-2 3 0 3h17l2-2-9-38c0-2-2-2-3 0l-9 38c0 2 3 2 3 0z" fill="#fff"/><path d="M239 177l-32-7 3 3-1-15c-3-5-12-4-16-4l3 3-9-40c-1-4-6-4-7 0l-9 40 3-3c-5 0-11-1-15 4-3 4-2 11-2 15l3-3-32 7c-3 1-3 6 0 7l32 7-3-3c0 4-1 11 1 15 4 5 10 4 16 4l-3-3 9 39c1 4 6 4 7 1l9-40-3 3c4 0 12 1 15-3s2-11 2-16l-3 3 32-7c5-1 3-8-2-7l-32 7a4 4 0 0 0-2 4v10c0 3-9 2-10 2a4 4 0 0 0-4 2l-9 40h7l-9-40a4 4 0 0 0-4-2c-1 0-10 1-10-1v-11l-2-4-32-7v7l32-7 2-4v-10c0-3 9-1 10-1 2 0 3-1 4-3l9-40h-7l9 40a4 4 0 0 0 4 3c1 0 10-1 10 1v10l2 4 32 7c5 1 7-6 2-7z" fill="#fff"/></svg>