<svg xmlns="http://www.w3.org/2000/svg" width="361" height="361"><path d="M262.1 96v190.7c0 6.4 10 6.4 10 0V96c0-6.4-10-6.4-10 0z" fill="#fff"/><path fill="none" stroke="#fff" stroke-width="10" stroke-miterlimit="10" d="M75.3 127l117.1-51.5M85.6 157l125.1-13"/><path fill="#fff" d="M192.4 75.5l64.7 19.3-46.4 49.1z"/><path d="M191 80.3l64.8 19.4-2.3-8.4-46.3 49 8.4 2.3-18.4-68.4c-1.6-6.2-11.3-3.6-9.6 2.6l18.3 68.4c1 3.6 5.8 5 8.4 2.3l46.3-49.1a5 5 0 0 0-2.2-8.4l-64.7-19.3c-6.2-1.9-8.8 7.8-2.6 9.6zm-90.3 72a6.9 6.9 0 0 1-5.1 8.2L86 163a6.9 6.9 0 0 1-8.5-4.8l-7.3-29a6.9 6.9 0 0 1 5.2-8.3l9.6-2.4a6.9 6.9 0 0 1 8.5 4.8l7.2 29.1zm40-6.7c1.2 4.5-1 8.8-4.7 9.8l-9.7 2.4c-3.7.9-7.7-2-8.8-6.4l-9-35.8c-1-4.5 1.1-8.8 4.8-9.8l9.7-2.4c3.7-1 7.7 2 8.8 6.4l9 35.8zm43-7.3c1.3 5.6-.6 10.9-4.3 11.8l-9.7 2.4c-3.7 1-7.9-2.8-9.3-8.3l-11.2-45c-1.4-5.6.5-10.9 4.2-11.8l9.7-2.4c3.7-1 7.9 2.8 9.3 8.4l11.2 45zM80.2 254.7a666.5 666.5 0 0 0 3.2-3.4 144 144 0 0 0 3.2-3.6l2.9-3.4a251.5 251.5 0 0 0 2.3-2.8h12.4a470.3 470.3 0 0 1-7.2 8.1 201 201 0 0 1-7.7 8 48.2 48.2 0 0 1 4.3 4.6 110.2 110.2 0 0 1 4.3 5.4 80.8 80.8 0 0 1 3.9 5.6 72.5 72.5 0 0 1 3 5.1h-12a196.6 196.6 0 0 0-2.6-4 99 99 0 0 0-3-4.4 60.8 60.8 0 0 0-7-7.7v16.1H70v-52.6l10.4-1.7v30.7zm50.4 4.1c0-3.4-.5-5.7-1.3-7.1-.9-1.4-2.4-2.1-4.5-2.1h-2l-2 .3v28.4h-10.5v-35.5a71.8 71.8 0 0 1 7-1.5 56.3 56.3 0 0 1 8.1-.6c2.7 0 4.9.3 6.5 1 1.7.7 3 1.5 4.1 2.4 1.5-1 3.2-2 5.2-2.5a18.4 18.4 0 0 1 12.6.3c1.9.8 3.4 2 4.5 3.5a13.1 13.1 0 0 1 2.3 5.3c.4 2 .6 4.3.6 6.8v20.8H151v-19.5c0-3.4-.4-5.7-1.3-7.1-.9-1.4-2.4-2.1-4.5-2.1a9.4 9.4 0 0 0-2.3.4c-1 .3-1.8.6-2.5 1a45.8 45.8 0 0 1 .8 7.2v20.1h-10.4v-19.5zm44.1 32.5H164l23.5-67.8h10.6l-23.4 67.8zm27.7-13v-52.6L213 224v17.7a13 13 0 0 1 2.7-.7 17 17 0 0 1 3.2-.3c3 0 5.4.4 7.4 1.2 2 .8 3.6 2 4.8 3.5a13.4 13.4 0 0 1 2.5 5.3c.5 2 .7 4.3.7 6.8v20.8H224v-19.5c0-3.4-.4-5.7-1.3-7.1-.9-1.4-2.5-2.1-4.8-2.1-1 0-1.8 0-2.6.2l-2.2.5v28h-10.5z" fill="#fff"/></svg>