<svg xmlns="http://www.w3.org/2000/svg" width="361" height="361"><path d="M242 147.8v38.6c0 6.4 10 6.4 10 0v-38.6c0-6.4-10-6.4-10 0z" fill="#fff"/><path d="M233.3 156l11.2 6.5c5.6 3.2 10.7-5.4 5-8.6l-11.1-6.5c-5.6-3.3-10.7 5.4-5 8.6z" fill="#fff"/><path d="M255.6 147.4l-11.2 6.5c-5.6 3.2-.6 11.8 5 8.6l11.3-6.5c5.5-3.2.5-11.8-5-8.6zM211 171l33.4 19.2c5.6 3.3 10.6-5.4 5-8.6l-33.3-19.3c-5.6-3.2-10.7 5.4-5 8.7z" fill="#fff"/><path d="M213.8 182.6l11.2-6.5c5.6-3.2.6-11.8-5-8.6l-11.2 6.5c-5.6 3.2-.6 11.8 5 8.6z" fill="#fff"/><path d="M217.4 159v13c0 6.4 10 6.4 10 0v-13c0-6.5-10-6.5-10 0z" fill="#fff"/><g fill="#fff"><path d="M216.2 209.5l33.3-19.3c5.6-3.2.6-11.9-5-8.6L211 200.8c-5.6 3.3-.5 12 5 8.7z"/><path d="M227.6 213v-13c0-6.5-10-6.5-10 0v13c0 6.4 10 6.4 10 0z"/><path d="M209 198l11.1 6.4c5.6 3.3 10.7-5.4 5.1-8.6l-11.2-6.5c-5.6-3.2-10.7 5.4-5 8.6z"/></g><g fill="#fff"><path d="M252 224.6V186c0-6.4-10-6.4-10 0v38.6c0 6.4 10 6.4 10 0z"/><path d="M260.7 216.4l-11.2-6.5c-5.6-3.3-10.6 5.4-5 8.6l11.2 6.5c5.6 3.2 10.6-5.4 5-8.6z"/><path d="M238.4 225l11.3-6.5c5.6-3.2.5-11.8-5-8.6l-11.3 6.5c-5.6 3.2-.6 11.8 5 8.6z"/></g><g fill="#fff"><path d="M283 201.1L249.7 182c-5.6-3.3-10.7 5.4-5 8.6l33.3 19.3c5.6 3.2 10.6-5.4 5-8.7z"/><path d="M280.2 189.5L269 196c-5.6 3.2-.5 11.8 5 8.6l11.3-6.5c5.6-3.2.5-11.8-5-8.6z"/><path d="M276.6 213.1v-13c0-6.4-10-6.4-10 0v13c0 6.5 10 6.5 10 0z"/></g><g fill="#fff"><path d="M277.9 162.6L244.5 182c-5.6 3.2-.5 11.9 5 8.6l33.4-19.2c5.6-3.3.6-12-5-8.7z"/><path d="M266.5 159.2v13c0 6.4 10 6.4 10 0v-13c0-6.5-10-6.5-10 0z"/><path d="M285.1 174.2l-11.2-6.5c-5.6-3.3-10.6 5.4-5 8.6l11.2 6.5c5.6 3.2 10.6-5.4 5-8.6z"/></g><path d="M176.3 281.2a5.2 5.2 0 0 1-5.2 5.2H99.6a5.2 5.2 0 0 1-5.3-5.2v-49.3a5.2 5.2 0 0 1 5.3-5.2H171a5.2 5.2 0 0 1 5.2 5.2v49.3zm-9.6-64a5.4 5.4 0 0 1-5.4 5.5h-53.6a5.4 5.4 0 0 1-5.4-5.4V169a5.4 5.4 0 0 1 5.4-5.4h53.6a5.4 5.4 0 0 1 5.4 5.4v48.2zm-16.9-64.5a5.4 5.4 0 0 1-5.4 5.5h-31.6a5.4 5.4 0 0 1-5.5-5.5v-31.6a5.4 5.4 0 0 1 5.5-5.4h31.6a5.4 5.4 0 0 1 5.4 5.4v31.6zM142.6 98a6 6 0 0 1-4.3 7.4l-22.8 5.9a6 6 0 0 1-7.3-4.3l-4.8-18.4a6 6 0 0 1 4.3-7.3l22.8-6a6 6 0 0 1 7.3 4.4l4.8 18.4z" fill="none" stroke="#fff" stroke-width="10" stroke-miterlimit="10"/><path d="M161 103.3c.7 2.6-1.3 5.3-4.4 6l-55.1 14.4c-3.1.8-6.1-.6-6.8-3.2-.7-2.5 1.3-5.2 4.4-6l55.1-14.3c3.1-.8 6.1.6 6.8 3.1z" fill="none" stroke="#fff" stroke-width="10" stroke-miterlimit="10"/><path d="M149.8 136.2l17.8 6.8 1.4-9.9-19-1.4 4.8 6.3 1.2-5.3c1.4-6.2-8.3-9-9.7-2.6l-1.1 5.3c-.8 3.3 1.5 6 4.8 6.3l19 1.4c6 .5 6.2-8 1.3-9.8l-17.8-6.7c-6-2.3-8.7 7.4-2.7 9.6zm-10.6-6.4a3.9 3.9 0 0 1-3.9 3.9h-2a3.9 3.9 0 0 1-3.8-3.9v-2a3.9 3.9 0 0 1 3.9-3.8h1.9a3.9 3.9 0 0 1 3.9 3.9v1.9zm-2 63.3l-58.6-50c-4.8-4-12 3-7 7.1l58.5 50c4.8 4.2 12-2.9 7-7z" fill="#fff"/><path d="M95.6 157.5a94454.4 94454.4 0 0 0 3.2-17.9c1.1-6.3-8.5-9-9.6-2.6a94454.4 94454.4 0 0 0-3.2 17.8c-1.1 6.3 8.5 9 9.6 2.7z" fill="#fff"/><path d="M93.8 159.3l-19 2c-6.4.6-6.4 10.6 0 10l19-2c6.3-.7 6.4-10.7 0-10z" fill="#fff"/><g fill="#fff" stroke="#fff" stroke-width="10" stroke-miterlimit="10"><path d="M286.3 123.7c0 3.3-2.4 6-5.4 6h-41.7c-3 0-5.4-2.7-5.4-6V80.2c0-3.3 2.4-6 5.4-6H281c3 0 5.3 2.7 5.3 6v43.5z"/><path d="M207.3 108.7a6 6 0 0 0 6 6h28a6 6 0 0 0 6-6v-17a6 6 0 0 0-6-6h-28a6 6 0 0 0-6 6v17z"/><path d="M195.3 108.7a6 6 0 0 1 6-6h34.5a6 6 0 0 1 6 6v9.5a6 6 0 0 1-6 6h-34.5a6 6 0 0 1-6-6v-9.5z"/></g></svg>