<svg xmlns="http://www.w3.org/2000/svg" width="361" height="361"><path d="M127.3 208l-16.5 28.6c-3.2 5.6 5.4 10.6 8.6 5l16.5-28.5c3.3-5.6-5.4-10.6-8.6-5zm7.1-38.1l-17.6 30.6c-3.3 5.6 5.4 10.6 8.6 5l17.7-30.6c3.2-5.6-5.5-10.6-8.7-5zm-3.7-25.6L113 174.8c-3.2 5.6 5.4 10.7 8.7 5l17.6-30.5c3.2-5.6-5.4-10.6-8.6-5zM101.3 193l-16.5 28.6c-3.2 5.6 5.4 10.6 8.7 5l16.5-28.5c3.2-5.6-5.5-10.7-8.7-5zm4 23.1l-16.5 28.6c-3.2 5.6 5.4 10.6 8.6 5l16.5-28.5c3.3-5.6-5.4-10.7-8.6-5zM262.8 176l-16.5 28.6c-3.2 5.6 5.4 10.7 8.6 5l16.5-28.5c3.3-5.6-5.4-10.6-8.6-5zm-.7-30.5L244.5 176c-3.3 5.6 5.4 10.7 8.6 5.1l17.7-30.6c3.2-5.6-5.5-10.6-8.7-5zM230.3 198l-16.5 28.6c-3.2 5.6 5.4 10.6 8.6 5l16.5-28.5c3.3-5.6-5.4-10.7-8.6-5zm7.8-43l-17.7 30.5c-3.2 5.6 5.4 10.7 8.6 5l17.7-30.5c3.2-5.6-5.4-10.6-8.6-5zm-.8 65.1l-16.5 28.6c-3.2 5.6 5.4 10.6 8.6 5l16.5-28.5c3.3-5.6-5.4-10.7-8.6-5zM182.5 198l18.4 9.6c5.7 3 10.7-5.6 5-8.6l-18.4-9.6c-5.7-3-10.7 5.6-5 8.6z" fill="#fff"/><path d="M188.8 171.3l8.9 31.8c1.7 6.2 11.4 3.5 9.6-2.7l-8.9-31.8c-1.7-6.2-11.4-3.5-9.6 2.7zm-8.3 25l13 30.4c2.6 6 11.2.8 8.7-5l-13-30.4c-2.6-5.9-11.2-.8-8.7 5z" fill="#fff"/><path d="M187.9 228l8.2 1.6c2.7.5 5.4-.7 6.1-3.5.7-2.5-.8-5.6-3.5-6.2l-8.2-1.6c-2.7-.5-5.4.7-6.1 3.5-.7 2.5.8 5.6 3.5 6.2z" fill="#fff"/><path d="M181.8 223.9l8.9 31.8c1.7 6.2 11.4 3.5 9.6-2.7l-8.9-31.7c-1.7-6.3-11.4-3.6-9.6 2.6zM151 200.2l14.8 13.5c4.8 4.4 11.9-2.7 7.1-7L158 193.2c-4.7-4.4-11.8 2.7-7 7z" fill="#fff"/><path d="M157.6 176.8l6.3 33c1.2 6.3 10.8 3.6 9.6-2.7a473188 473188 0 0 0-6.3-33c-1.2-6.3-10.9-3.6-9.6 2.7zm-8 21.4l9.7 32.4c1.8 6.2 11.5 3.6 9.6-2.6l-9.7-32.5c-1.9-6.2-11.5-3.5-9.7 2.7z" fill="#fff"/><g fill="#fff" stroke="#fff" stroke-miterlimit="10"><path d="M178 153a8.5 8.5 0 0 0 8.3 8.6h39.2c4.7 0 8.5-3.9 8.5-8.6v-24.4a8.5 8.5 0 0 0-8.4-8.6h-39.2a8.5 8.5 0 0 0-8.4 8.6V153z" stroke-width="13.3"/><path d="M133.4 145.3a7.4 7.4 0 0 1 7.3-7.3h42.4a7.4 7.4 0 0 1 7.4 7.3V157a7.4 7.4 0 0 1-7.4 7.4h-42.3a7.4 7.4 0 0 1-7.4-7.4v-11.7z" stroke-width="11.5"/><path d="M153.2 138.3c0 3.6-2.4 6.6-5.5 6.6h-43c-3 0-5.6-3-5.6-6.6V90c0-3.6 2.5-6.6 5.6-6.6h43c3 0 5.5 3 5.5 6.6v48.2z" stroke-width="10"/><path d="M237 137.7a7.4 7.4 0 0 0 7.4 7.3h34.4a7.4 7.4 0 0 0 7.4-7.3v-20.9a7.4 7.4 0 0 0-7.4-7.4h-34.4a7.4 7.4 0 0 0-7.3 7.4v20.9zm-116-7a7.4 7.4 0 0 0 7.5 7.3h34.3a7.4 7.4 0 0 0 7.4-7.4v-20.9a7.4 7.4 0 0 0-7.4-7.3h-34.4a7.4 7.4 0 0 0-7.3 7.3v21z" stroke-width="11.5"/><path d="M187.5 83.5a7.4 7.4 0 0 1 7.4 7.4v42.3a7.4 7.4 0 0 1-7.4 7.4H176a7.4 7.4 0 0 1-7.4-7.4V91a7.4 7.4 0 0 1 7.4-7.4h11.6z" stroke-width="11.5"/><path d="M185 99.6a7.4 7.4 0 0 1 7.4-7.4h42.3a7.4 7.4 0 0 1 7.4 7.4v11.7a7.4 7.4 0 0 1-7.4 7.3h-42.3a7.4 7.4 0 0 1-7.4-7.3V99.6zM157 159a7.4 7.4 0 0 1-7.5 7.4h-42.3a7.4 7.4 0 0 1-7.4-7.4v-11.6a7.4 7.4 0 0 1 7.4-7.4h42.3a7.4 7.4 0 0 1 7.4 7.4V159z" stroke-width="11.5"/><path d="M249 152a7.4 7.4 0 0 1-7.4-7.4v-42.4A7.4 7.4 0 0 1 249 95h11.7a7.4 7.4 0 0 1 7.3 7.3v42.4a7.4 7.4 0 0 1-7.3 7.4H249z" stroke-width="11.5"/><path d="M267.1 159a7.4 7.4 0 0 1-7.4 7.4h-42.3a7.4 7.4 0 0 1-7.4-7.4v-11.6a7.4 7.4 0 0 1 7.4-7.4h42.4a7.4 7.4 0 0 1 7.3 7.4V159zM215 76a7.4 7.4 0 0 1 7.3 7.4v42.3a7.4 7.4 0 0 1-7.3 7.4h-11.7a7.4 7.4 0 0 1-7.4-7.4V83.3a7.4 7.4 0 0 1 7.4-7.4H215zM77 134.2a7.4 7.4 0 0 1 7.5-7.4h42.3a7.4 7.4 0 0 1 7.4 7.4v11.6a7.4 7.4 0 0 1-7.4 7.4H84.5a7.4 7.4 0 0 1-7.4-7.4v-11.6z" stroke-width="11.5"/><path d="M86.6 108.4a7.4 7.4 0 0 1 7.3-7.4h42.4a7.4 7.4 0 0 1 7.4 7.4V120a7.4 7.4 0 0 1-7.4 7.4H93.9a7.4 7.4 0 0 1-7.3-7.4v-11.6z" stroke-width="11.5"/><path d="M132 75.8a7.4 7.4 0 0 1 7.4 7.4v42.3a7.4 7.4 0 0 1-7.4 7.4h-11.7a7.4 7.4 0 0 1-7.3-7.4V83.3a7.4 7.4 0 0 1 7.3-7.4H132z" stroke-width="11.5"/></g></svg>