<svg xmlns="http://www.w3.org/2000/svg" width="361" height="361"><path d="M247.5 291.4c-3.2 0-5.7-.4-7.6-1s-3.5-1.5-4.6-2.6a8.7 8.7 0 0 1-2.3-4.2 22 22 0 0 1-.7-5.4v-41.7l10.8-1.7V276c0 1 0 1.9.2 2.7.1.7.4 1.4.8 1.9s1 1 1.8 1.3c.8.3 1.8.5 3 .6l-1.4 8.9zm24.1-28l7.5-10.6h11.1l-13.1 18.4c3 3.5 5.7 7 8 10.3a95.2 95.2 0 0 1 5.6 9.2h-11.5l-1.4-2.7a68.2 68.2 0 0 0-2-3.4 17.6 17.6 0 0 0-2.2-3 38.5 38.5 0 0 0-2.3-2.2l-2.2 2a17 17 0 0 0-2.2 2.8l-2 3.4a74.6 74.6 0 0 0-1.7 3h-10.9a68.8 68.8 0 0 1 5.6-9.3 65.7 65.7 0 0 1 8-9.7l-6.9-9.7-6.4-9.1h11.6l7.4 10.6zm-154.3 21.1c-.7 6.7-15.3 4.2-19 4.2h-20c-7 0-5-11.4-5-15.4V78.8c0-3 1.7-6.1 5.4-6.1h20.6c3 0 18-2.3 18 4.1v207.7c0 2 3 2 3 0V77.7c0-11.2-15.7-8-23-8H78.1c-4.4 0-7.8 3-7.8 7.5v206.4c0 10.3 12.2 8 19.2 8h20.4c5.2 0 9.7-1 10.4-7.1.2-2-2.8-1.9-3 0zm72.3-205.4l15 14.9c4.5 4.5 11.6-2.5 7-7.1L196.7 72c-4.6-4.6-11.6 2.5-7 7zM159 125h39.6c6.5 0 6.5-10 0-10H159c-6.4 0-6.4 10 0 10zm130.8 38.7l-15-15c-4.6-4.7-11.7 2.4-7.1 7l15 15c4.5 4.6 11.6-2.5 7-7zm-44.5 37.6v-39.6c0-6.4-10-6.4-10 0v39.6c0 6.4 10 6.4 10 0zm-60.4-17.6l28-28c4.6-4.6-2.5-11.7-7-7l-28 28c-4.6 4.5 2.4 11.5 7 7z" fill="#fff"/><path d="M159 125.2h39.5c6.5 0 6.5-10 0-10H159c-6.4 0-6.4 10 0 10zm86.2 76.2v-39.6c0-6.4-10-6.4-10 0v39.6c0 6.4 10 6.4 10 0zm-60.4-17.6l28-28c4.6-4.6-2.5-11.7-7-7l-28 28c-4.6 4.5 2.4 11.5 7 7zm1.6-79.9l11.2 4.6c2.5 1 5.5-1 6.1-3.5.8-2.9-1-5-3.5-6.1l-11.1-4.6c-2.5-1-5.5 1-6.2 3.4-.8 3 1 5.1 3.5 6.2zm3 44.2l11.2-4.6c2.5-1 4.2-3.3 3.5-6.2-.7-2.4-3.7-4.5-6.2-3.5l-11.1 4.7c-2.6 1-4.3 3.2-3.5 6.1.6 2.4 3.6 4.5 6.1 3.5zm34.2 25.5l4.6-11.2c1-2.5-1.1-5.5-3.5-6.1-2.9-.8-5.1 1-6.2 3.5l-4.6 11.1c-1 2.5 1.1 5.5 3.5 6.2 2.9.8 5.1-1 6.2-3.5zm42.5-2.7l-4.6-11.1c-1-2.5-3.3-4.3-6.2-3.5-2.4.6-4.5 3.6-3.5 6.1l4.6 11.2c1 2.5 3.3 4.3 6.2 3.5 2.4-.7 4.5-3.7 3.5-6.2zM214 76.7l2.5 6.2c1 2.5 3.3 4.3 6.2 3.5 2.4-.7 4.5-3.6 3.5-6.1l-2.6-6.2c-1-2.5-3.3-4.3-6.1-3.5-2.4.6-4.6 3.6-3.5 6.1zm73.9 58.4l-6.5-2.6c-2.5-1-5.5 1-6.1 3.5-.8 2.8 1 5 3.5 6.1l6.4 2.7c2.5 1 5.5-1.1 6.2-3.5.8-2.9-1-5.1-3.5-6.2z" fill="#fff"/><path d="M264.7 128.8a14.2 14.2 0 0 1-14.2 14.2h-18.3a14.2 14.2 0 0 1-14.2-14.2v-17.3a14.2 14.2 0 0 1 14.2-14.2h18.3a14.2 14.2 0 0 1 14.2 14.2v17.3z" fill="none" stroke="#fff" stroke-width="10" stroke-miterlimit="10"/><path d="M82.9 282.4h24.9c6.4 0 6.4-10 0-10h-25c-6.4 0-6.4 10 0 10zm0-14.5h24.9c6.4 0 6.4-10 0-10h-25c-6.4 0-6.4 10 0 10zm0-14.6h24.9c6.4 0 6.4-10 0-10h-25c-6.4 0-6.4 10 0 10zm0-14.6h24.9c6.4 0 6.4-10 0-10h-25c-6.4 0-6.4 10 0 10zm0-14.6h24.9c6.4 0 6.4-10 0-10h-25c-6.4 0-6.4 10 0 10zm0-14.5h24.9c6.4 0 6.4-10 0-10h-25c-6.4 0-6.4 10 0 10zm0-14.6h24.9c6.4 0 6.4-10 0-10h-25c-6.4 0-6.4 10 0 10zm0-14.6h24.9c6.4 0 6.4-10 0-10h-25c-6.4 0-6.4 10 0 10zm0-14.5h24.9c6.4 0 6.4-10 0-10h-25c-6.4 0-6.4 10 0 10z" fill="#fff"/></svg>