<svg xmlns="http://www.w3.org/2000/svg" width="361" height="361"><path d="M98 268.6a55.8 55.8 0 0 1-4.5-78c4.3-4.7-2.8-11.8-7-7a66 66 0 0 0 4.4 92c4.7 4.4 11.8-2.6 7-7z" fill="#fff"/><path d="M175.7 264a55.8 55.8 0 0 1-78 4.4c-4.7-4.2-11.8 2.8-7 7.1a66 66 0 0 0 92-4.4c4.5-4.8-2.6-11.9-7-7.1z" fill="#fff"/><path d="M176.7 263.2c-20 9.3-48.4 2.2-64.5-11.9-4.5-3.9-10.2 1-7.9 6v.2l7.9-6c-16.2-15-22.6-42-17.4-63 1.5-6.4-8.1-9-9.7-2.8-6 24.5 1.3 55.4 20 72.8 4.4 4 10.2-1 7.9-6v-.2l-8 6c19.8 17.4 52.4 24.8 76.8 13.5 5.8-2.6.7-11.3-5-8.6z" fill="#fff"/><path d="M131 126.6a2.8 2.8 0 1 1-5.4 0 2.8 2.8 0 0 1 5.5 0zM76.7 80.3a2.9 2.9 0 0 1-5.8 0 2.9 2.9 0 1 1 5.8 0zM116.9 96a2 2 0 0 1-2 2h-.7a2 2 0 0 1-2-2v-.7c0-1.1.8-2 2-2h.7a2 2 0 0 1 2 2v.7zm60.1-5.4a2.8 2.8 0 1 1-5.5 0 2.8 2.8 0 0 1 5.5 0zm-5.4 36a4.2 4.2 0 0 1-8.4 0 4.2 4.2 0 0 1 8.4 0z" fill="#fff" stroke="#fff" stroke-miterlimit="10"/><path d="M97.6 81.3c0 .8-.6 1.4-1.3 1.4h-.5a1.4 1.4 0 0 1-1.3-1.4V81c0-.8.6-1.4 1.3-1.4h.5c.7 0 1.3.6 1.3 1.4v.4z" fill="#fff"/><path d="M96.1 81.3l.1-.2c-.2.3 0 .1 0 0h-.4l.2.2c-.3-.2 0-.1 0 0v-.4l-.1.1c.2-.2 0 0 0 0h.4-.2c.3.1 0 0 0 0v.3c0 2 3 2 3 0 0-.6 0-1.2-.3-1.8-.5-1-1.6-1.4-2.5-1.5-1.8 0-3.2 1-3.3 2.9a3 3 0 0 0 2.8 3.3c1.8 0 3.2-1 3.3-2.9 0-.8-.7-1.5-1.5-1.5s-1.4.7-1.5 1.5z" fill="#fff"/><path d="M150.3 164a2.8 2.8 0 1 1-5.5 0 2.8 2.8 0 0 1 5.5 0zm-55.7-16.3a1.5 1.5 0 0 1-3 0c0-.8.6-1.5 1.5-1.5a1.5 1.5 0 0 1 1.5 1.5zm147.5-22a2.8 2.8 0 0 1-5.5 0 2.8 2.8 0 0 1 5.5 0zm14.5 1a2.9 2.9 0 1 1-5.8 0 2.9 2.9 0 1 1 5.8 0zm-28.3-8.7a2 2 0 0 1-2 2h-.7a2 2 0 0 1-2-2v-.7c0-1.1.8-2 2-2h.7c1 0 2 .9 2 2v.7zM288 89.6a2.8 2.8 0 1 1-5.5 0 2.8 2.8 0 0 1 5.5 0zm-5.4 36a4.2 4.2 0 0 1-8.4 0 4.2 4.2 0 0 1 8.4 0z" fill="#fff" stroke="#fff" stroke-miterlimit="10"/><path d="M200.9 103.4c0 .7-.6 1.3-1.3 1.3h-.5a1.4 1.4 0 0 1-1.3-1.3v-.5c0-.7.6-1.3 1.3-1.3h.5c.7 0 1.3.6 1.3 1.3v.5z" fill="#fff"/><path d="M199.4 103.4l.1-.2c-.2.3-.1 0 0 0h-.4l.2.1c-.3-.2 0 0 0 0v-.4l-.1.2c.2-.2 0 0 0 0h.4l-.2-.1c.3.2 0 .1 0 0v.4c0 2 3 2 3 0 0-.7 0-1.2-.4-1.9-.4-.9-1.5-1.4-2.4-1.4-1.8-.1-3.2 1-3.3 2.8-.1 1.8 1 3.2 2.8 3.3a3 3 0 0 0 3.3-2.8c0-.8-.7-1.5-1.5-1.5-.9 0-1.4.7-1.5 1.5z" fill="#fff"/><path d="M239.8 177.7a2.8 2.8 0 1 1-5.5 0 2.8 2.8 0 1 1 5.5 0zm-34.2-31a1.5 1.5 0 0 1-3 0 1.5 1.5 0 0 1 3 0zm26.2 88.8a2.8 2.8 0 0 1 0 5.5 2.8 2.8 0 1 1 0-5.5zm-36.5-40.7a2.9 2.9 0 0 1 3 2.9 2.9 2.9 0 0 1-3 2.9 2.9 2.9 0 0 1-2.9-3 2.9 2.9 0 0 1 3-2.8zm18.5 35.6c1.2 0 2 1 2 2v.7a2 2 0 0 1-2 2h-.6a2 2 0 0 1-2-2v-.7c0-1 .8-2 2-2h.6zM203.5 168a2.8 2.8 0 1 1 0 5.5 2.8 2.8 0 0 1 0-5.5zm28.3 27a4.2 4.2 0 0 1 0 8.4 4.2 4.2 0 0 1 0-8.4z" fill="#fff" stroke="#fff" stroke-miterlimit="10"/><path d="M210.7 219.6c.7 0 1.3.6 1.3 1.4v.4c0 .7-.6 1.3-1.3 1.3h-.5a1.4 1.4 0 0 1-1.3-1.3v-.4c0-.8.6-1.4 1.3-1.4h.5z" fill="#fff"/><path d="M210.7 221.1h-.2c.3.1 0 0 0 0v.3l.1-.2c-.2.3 0 0 0 0h-.4l.2.2c-.3-.2 0-.1 0 0v-.4l-.1.1c.2-.2 0 0 0 0h.4c1.9 0 1.9-3 0-3-.7 0-1.3 0-1.9.4-1 .4-1.4 1.5-1.4 2.5a3 3 0 0 0 2.8 3.3c1.8 0 3.2-1.1 3.3-2.9.1-1.8-1-3.2-2.8-3.3-.8 0-1.5.7-1.5 1.5 0 .9.7 1.5 1.5 1.5z" fill="#fff"/><path d="M276.8 194.6a2.8 2.8 0 0 1 0 5.5 2.8 2.8 0 0 1 0-5.5zm-52.6-27.4a1.5 1.5 0 0 1 0 3 1.5 1.5 0 0 1-1.5-1.4 1.5 1.5 0 0 1 1.5-1.6zm53.4 2.5a2.8 2.8 0 1 1-5.5 0 2.8 2.8 0 0 1 5.5 0zm-2 56.5a2.8 2.8 0 0 1-5.5 0 2.8 2.8 0 1 1 5.5 0zm-25.7-119.5a4.2 4.2 0 0 1-8.4 0 4.2 4.2 0 0 1 8.4 0z" fill="#fff" stroke="#fff" stroke-miterlimit="10"/></svg>