<svg xmlns="http://www.w3.org/2000/svg" width="361" height="361"><path d="M76 291h211c7 0 7-10 0-10H76c-6 0-6 10 0 10zm173-57v14c-1 9-9 13-16 13h-25c-3 0-11-3-11-8-1-6-11-6-10 0 0 12 13 18 23 18h23a26 26 0 0 0 24-14c4-7 2-16 2-23s-10-7-10 0zm-53-3v-16c3-8 10-10 17-10h18c6 0 16-1 17 7 0 7 10 7 10 0-1-22-30-17-45-17-10 0-19 3-24 12-5 7-3 16-3 24 0 6 10 6 10 0zm81-63l-19 19c-3 3 2 8 5 5l19-19c3-3-2-8-5-5zm-58-11v22c0 5 7 5 7 0v-22c0-5-7-5-7 0zm-77 77h29c4 1 4-6 0-6h-29c-5 0-5 7 0 7zm103-68l-6 13c-1 2 1 4 2 4 3 1 4 0 5-2l6-14c0-2-1-4-3-4-2-1-4 1-4 2zm-88 42l14 6c1 0 4-1 4-3 1-2-1-3-2-4l-14-6c-2-1-4 1-5 3 0 2 1 3 3 4zm2 52l14-5c1-1 3-3 2-5 0-1-2-3-4-2l-14 6c-2 0-3 2-2 4 0 2 2 3 4 2z" fill="#fff"/><path d="M272 282a51469 51469 0 0 0-11-10c-3-4-8 1-5 5a51469 51469 0 0 0 11 10c3 3 8-2 5-5zm-99 5l12-12c3-3-2-8-5-5l-12 12c-3 3 2 8 5 5zm113-58h-13c-4 0-4 7 0 7h13c5 0 5-7 0-7zm-1-26l-14 6c-1 0-3 2-2 4 0 2 2 3 4 3l14-6c2-1 3-2 2-4 0-2-2-4-4-3zm2 53l-14-6c-2-1-4 1-4 2-1 2 1 4 2 5l14 5c2 1 4 0 4-2 1-2 0-4-2-4zm-60 30v-2c0-2-2-3-4-3s-3 1-3 3v2c0 2 2 4 3 4s4-2 4-4zm21-2l-1-2a4 4 0 0 0-2-2 4 4 0 0 0-3 0 4 4 0 0 0-2 2l1 3 1 3 2 1a4 4 0 0 0 2 0 4 4 0 0 0 2-2v-3zm-45 3l1-3v-2a4 4 0 0 0-2-2 4 4 0 0 0-3 0l-2 2-1 4v2a4 4 0 0 0 2 2 4 4 0 0 0 3 0l2-2zm-80-45h89c3 0 3-3 1-3h-90c-2 0-2 3 0 3zm-18 5h51c2 0 2-3 0-3h-51c-2 0-2 3 0 3zm-27-37h69c2 0 2-3 0-3H78c-2 0-2 3 0 3zm-6 6h59c2 0 2-3 0-3H72c-2 0-2 3 0 3zm168 11h46c2 0 2-3 0-3h-46c-2 0-2 3 0 3zm-4-5h41c2 0 2-3 0-3h-41c-2 0-2 3 0 3zm-56 25l23-1c2 0 2-3 0-3l-23 1c-1 0-1 3 1 3zM99 133h102c2 0 2-3 0-3H99c-2 0-2 3 0 3zm-17 6h145c2 0 2-3 0-3H82c-2 0-2 3 0 3zm-8 20h68c2 0 2-3 0-3H75c-2 0-2 3 0 3zm75 3H99c-2 0-2 3 0 3h50c2 0 2-3 0-3zm34 27l-18-18c-3-4-8 1-5 5l18 18c4 3 9-2 5-5zm8-22l6 14c1 2 2 3 4 3 2-1 4-3 3-5l-6-14c-1-1-2-3-4-2l-3 4z" fill="#fff"/></svg>