<svg xmlns="http://www.w3.org/2000/svg" width="361" height="361"><path fill="#fff" d="M175 160l9-38 8 38z"/><path d="M176 160l9-38h-3l9 38 1-1h-17c-2 0-2 3 0 3h17l2-2-9-38c0-2-2-2-3 0l-9 38c0 2 3 2 3 0z" fill="#fff"/><path d="M239 177l-32-7 3 3-1-15c-3-5-12-4-16-4l3 3-9-40c-1-4-6-4-7 0l-9 40 3-3c-5 0-11-1-15 4-3 4-2 11-2 15l3-3-32 7c-3 1-3 6 0 7l32 7-3-3c0 4-1 11 1 15 4 5 10 4 16 4l-3-3 9 39c1 4 6 4 7 1l9-40-3 3c4 0 12 1 15-3s2-11 2-16l-3 3 32-7c5-1 3-8-2-7l-32 7a4 4 0 0 0-2 4v10c0 3-9 2-10 2a4 4 0 0 0-4 2l-9 40h7l-9-40a4 4 0 0 0-4-2c-1 0-10 1-10-1v-11l-2-4-32-7v7l32-7 2-4v-10c0-3 9-1 10-1 2 0 3-1 4-3l9-40h-7l9 40a4 4 0 0 0 4 3c1 0 10-1 10 1v10l2 4 32 7c5 1 7-6 2-7zm1 108h3a5 5 0 0 0 1-1l1-1 1-1-2-3-5-2a40 40 0 0 1-3-1 12 12 0 0 1-3-2 9 9 0 0 1-2-3l-1-4 1-4a9 9 0 0 1 2-3 11 11 0 0 1 4-2 16 16 0 0 1 5-1 21 21 0 0 1 10 2l-2 6-3-1-5-1-3 1-2 2 1 2 1 1a50 50 0 0 0 4 2l5 2 3 2a8 8 0 0 1 2 3v4c0 3-1 5-3 7s-5 3-10 3a27 27 0 0 1-7-1 18 18 0 0 1-2-1 18 18 0 0 1-2-1l2-6a19 19 0 0 0 9 2zm52-11a21 21 0 0 1-1 8 16 16 0 0 1-4 5 14 14 0 0 1-5 4 19 19 0 0 1-6 1l-7-1a15 15 0 0 1-5-4 15 15 0 0 1-4-5 20 20 0 0 1-1-8l1-7a16 16 0 0 1 4-6 15 15 0 0 1 5-3 18 18 0 0 1 6-1l7 1a15 15 0 0 1 5 3l4 6 1 7zm-25 0v5a10 10 0 0 0 2 3 8 8 0 0 0 3 2 9 9 0 0 0 7 0 8 8 0 0 0 3-2l2-3a16 16 0 0 0 0-9l-2-3a8 8 0 0 0-3-3 9 9 0 0 0-3 0h-4l-3 3a10 10 0 0 0-2 3v4z" fill="#fff"/></svg>