<svg xmlns="http://www.w3.org/2000/svg" viewBox="0 0 493 91"><path d="M318 2l-6 33c-6 35-6 41-1 47l7 7c4 2 6 2 17 2h12l1-7 1-7h-6c-5 0-7 0-9-2-5-4-5-6-1-28l3-20h11c12 0 11 0 12-8l1-6h-22l1-3 1-6 1-4h-11c-11 0-12 0-12 2zM14 15l-1 7-1 5h29l2 3 3 6v3H30c-16 0-16 1-20 3a20 20 0 0 0-7 8c-3 6-3 7-3 17s0 11 3 15l7 7a229 229 0 0 0 50 2l5-28 4-31a22 22 0 0 0-12-16c-5-3-5-3-24-3-18 0-18 0-19 2zm30 38l-2 13-2 11h-6c-5 0-6 0-9-3-4-4-4-4-3-9 1-10 5-13 16-13 5 0 7 0 6 1zm52-39c-11 4-16 16-14 27 2 7 6 11 23 20a64 64 0 0 1 13 9l-3 4-2 3H94c-22 0-20-1-21 8l-1 6h26c23 0 26 0 30-2 5-2 10-7 11-11a30 30 0 0 0 0-19c-3-5-5-6-21-16a65 65 0 0 1-14-10l3-4c2-2 2-2 22-2h19l1-5 1-7 1-2h-26l-29 1zm61 28c-5 32-5 35 1 42 5 6 9 7 27 7l19-1a24 24 0 0 0 12-12l6-32 5-30 1-3h-23l-5 27c-4 30-5 34-9 36-6 2-13 0-15-6l8-54v-3h-22l-5 29zm93-28c-11 4-16 16-14 27 2 7 6 11 23 20a64 64 0 0 1 13 9l-3 4-2 3h-19c-22 0-20-1-21 9l-1 5h26c23 0 26 0 30-2 8-4 12-10 12-20 0-11-2-14-21-26a79 79 0 0 1-15-10l2-3c2-2 3-3 21-3h18l1-4 1-7v-3h-24l-27 1zm132 1c-5 1-11 8-13 12a678 678 0 0 0-7 43 22 22 0 0 0 13 19c3 2 7 2 20 2s16 0 19-2c4-2 11-9 12-12l4-22 3-24a22 22 0 0 0-12-15c-5-3-6-3-20-3l-19 1zm31 14a9 9 0 0 1 4 3l-6 39a10 10 0 0 1-9 6c-4 0-9-3-10-6s4-34 6-38c0-2 2-4 3-4 2-2 9-2 12 0zm46-14a22 22 0 0 0-11 10l-7 34-5 32h11l11-1 10-59c2-3 5-4 14-4h8l1-5 1-7 1-2h-15c-10 0-16 1-19 2z" fill="#fff"/></svg>