<svg xmlns="http://www.w3.org/2000/svg" viewBox="0 0 272 92"><path d="M116 47c0 13-10 22-23 22s-22-9-22-22 10-22 23-22 22 9 22 22zm-10 0c0-8-6-13-12-13s-13 5-13 13 6 14 13 14 12-6 12-14zm58 0c0 13-10 22-22 22s-23-9-23-22 10-22 23-22 22 9 22 22zm-10 0c0-8-6-13-12-13s-13 5-13 13 6 14 13 14 12-6 12-14zm56-21v40c0 16-10 23-21 23a21 21 0 0 1-20-13l9-3c1 3 5 7 11 7 7 1 11-4 11-12v-4c-2 3-6 5-12 5a22 22 0 0 1-21-22 22 22 0 0 1 21-22c6 0 10 2 12 5v-4h10zm-9 21c0-7-5-13-12-13-6 0-12 6-12 13 0 8 6 14 12 14 7 0 12-6 12-14zm24-44v65h-9V3h9zm37 52l8 5a22 22 0 0 1-19 9c-12 0-22-9-22-22s10-22 21-22c12 0 17 9 19 14l1 3-30 12c3 4 6 7 11 7s9-3 11-6zm-23-8l19-9c-1-3-4-4-8-4-5 0-11 4-11 12zM35 41v-9h32l1 6c0 7-2 16-9 22-6 6-14 9-24 9C16 69 0 54 0 35S16 1 35 1c11 0 18 4 24 9l-7 7a25 25 0 0 0-41 18c0 14 10 25 24 25a23 23 0 0 0 18-7c2-3 4-6 5-12H35z" fill="#fff"/></svg>