<svg id="Layer_1" xmlns="http://www.w3.org/2000/svg" viewBox="0 0 300 52"><style>.st0{fill:#fff}</style><g id="g3258" transform="scale(.20615)"><g id="g3252"><path id="polygon2997" class="st0" d="M1457 1v105l-1 35 1 25v92h-101V1z"/><path id="path3005" class="st0" d="M1315 69v189h-97V65h-92v193h-97V65h-93v193h-97V1h409c18 0 34 7 47 20a64 64 0 0 1 20 48z"/><path id="path3033" class="st0" d="M799 69v121c0 19-7 35-20 48a65 65 0 0 1-48 20H421V106h97v88h183V65H420l1-64h310c19 0 35 7 48 20a65 65 0 0 1 20 48z"/><path id="polygon3053" class="st0" d="M277 1h102v257H277v-92H102v92H1V1h101v105h175z"/></g></g></svg>