<svg version="1" id="Layer_1" xmlns="http://www.w3.org/2000/svg" viewBox="0 0 609 97"><style>.st0{fill:#fff}</style><path class="st0" d="M604 58c-2 5-6 7-11 7h-42c-6 0-9-3-9-9V13c0-6 3-9 9-9h42c5 0 9 2 11 7v47zm-32 0h19c3 0 5-2 5-5V17c0-3-2-5-5-5h-37c-3 0-5 1-5 4v37c0 3 2 5 5 5h18zM340 91h-11V70v-8c-1-3-3-8-5-8-3-1-7 0-10 2-4 3-5 8-5 14v21h-11l-1-9V62c0-4 0-8-4-9-5-1-9 0-11 4-2 3-4 6-4 10l-1 19v5l-5 1h-6V44h10l1 8c5-6 9-10 16-10 6 0 12 2 16 10l4-5c4-3 5-4 10-5 10-2 17 5 18 16v4l-1 29zM395 91h-9l-1-5-2 1c-6 6-15 8-22 3-9-5-10-19-1-23 6-3 14-4 21-5l3-1c0-10-6-11-23-5l-4-8c10-6 20-8 30-3 5 2 8 6 8 11v35zm-11-23l-15 4c-2 1-4 4-3 6 0 2 2 4 4 5 8 3 15-4 14-15zM123 91V45l5-1 1 9c11-14 28-13 33 1l3-4c7-10 24-10 29 1l1 8v29c1 3-1 4-5 3V75l-1-17c-1-9-9-13-17-8-7 4-10 10-10 17v20c0 2 1 5-3 5s-3-3-3-5V61c0-5-1-10-6-12-6-2-11 0-15 4s-6 9-6 15v19c0 4-1 6-6 4zM514 57c-10-7-19-7-24 0-6 6-6 15-1 21 7 7 15 7 27 0 5 7 5 9-4 12-14 6-28 2-35-9-5-10-5-19 2-28 6-9 15-12 26-10l14 5-5 9zM414 31l11-1v9c-1 2 0 4 1 4 1 1 2 2 4 1h6v8l-3 1-7 1-1 8v7c0 10 2 12 11 13v9c-13 3-22-4-22-17l-1-15 1-6h-7v-9l7 1V31zM5 22c5-2 6 0 6 4v27l2 1 1-3c5-7 13-9 22-8 5 1 9 5 10 10v38h-5V75 60c-1-10-6-15-18-11-7 3-11 8-12 16v22c0 4-1 6-6 4V22zM251 68h-36c-1 7 1 12 7 16 8 6 17 4 26-2l2 4c-11 10-28 9-37-3-9-10-6-28 5-36 7-5 16-6 24-1 8 4 10 12 9 22zm-6-5c-1-11-6-15-15-15-8 0-15 6-15 15h30zM85 43c14 0 25 11 25 25-1 14-12 25-26 25S59 82 59 67c0-14 11-24 26-24zm-1 44c11 0 20-8 20-19s-9-20-20-20-19 9-19 20 8 20 19 19zM461 91h-11V44h11v47zM450 34v-9h11v9h-11z"/><path class="st0" d="M575 39v9h-5V21h14c4 1 6 5 5 9 0 5-2 8-7 8l-7 1zm0-15v10h9c3-3 1-8 0-8-2-2-6-2-9-2zM563 22v26h-4V24v-2h4z"/></svg>