<svg xmlns="http://www.w3.org/2000/svg" viewBox="0 0 628 112"><path d="M228 401h2v1l1 1 2 1 2-1h1l1-1-1-2h-1l-2-1-3-1-1-1a3 3 0 0 1-1-2l1-1 1-2h5l2 2 1 2h-2l-1-2h-4l-1 2v1l3 1h3l2 2v3a4 4 0 0 1-2 2h-3a8 8 0 0 1-3 0l-1-2-1-2zm19 1h1l-1 2-3 1-3-1-1-4 1-3 3-2 3 2 2 3v1h-7v2l2 1a2 2 0 0 0 3-2zm-5-2h5l-1-2-2-1-2 1v2zm15 2h1l-1 2-3 1-3-1-1-4 1-3 3-2 3 2 2 3v1h-7v2l2 1a2 2 0 0 0 3-2zm-5-2h5l-1-2-2-1-2 1v2zm8 5v-13h2v7l4-3h2l-4 3 4 6h-2l-3-5-1 1v4h-2zm13 0l-5-13h2l3 10 1 2 1-2 3-10h2l-5 13h-2zm14-3h1l-1 2-3 1-3-1-1-4 1-3 3-2 3 2 2 3v1h-7v2l2 1a2 2 0 0 0 3-2zm-5-2h5l-1-2-2-1-2 1v2zm15 2h1a4 4 0 0 1-1 2 4 4 0 0 1-3 1l-3-1-1-4v-2l2-2a4 4 0 0 1 5 0l1 2-2 1-1-2h-1l-2 1v5l2 1 2-1v-1zm6 2v1h-2l-1-1v-7h-2v-1h2v-2l1-1v3h2v1h-2v7h2zm1-4l1-3 3-1 3 1 1 3a7 7 0 0 1 0 3 4 4 0 0 1-4 2 4 4 0 0 1-3-1l-1-4zm1 0l1 3 2 1 2-1 1-3-1-2-2-1-2 1v2zm9 5v-9h2v1l1-1 1-1 1 1v1h-2l-1 1v7h-2zm7 0v-13h1v12h7v1h-8zm9-5l1-3 3-1 3 1 1 3a7 7 0 0 1 0 3 4 4 0 0 1-4 2 4 4 0 0 1-3-1l-1-4zm1 0l1 3 2 1 2-1 1-3-1-2-2-1-2 1v2zm9 6h2v1h4v-3l-2 1-3-1-1-4v-2l2-2 2-1 2 2v-1h2v11l-2 1-2 1-3-1-1-2zm1-6l1 3 2 1 2-1 1-3-1-2-2-1-2 1-1 2zm9 0l1-3 3-1 3 1 1 3a7 7 0 0 1 0 3 4 4 0 0 1-4 2 4 4 0 0 1-3-1l-1-4zm1 0l1 3 2 1 2-1 1-3-1-2-2-1-2 1v2zm10 5v-2h2v2h-2zm14-5l2 1-2 3-4 1-3-1-2-2-1-4 1-3 2-2 3-1 4 1 1 3h-1l-2-2-2-1-2 1-2 2a8 8 0 0 0 1 5l1 2 2 1 3-1 1-3zm3 0l1-3 3-1 3 1 1 3a7 7 0 0 1 0 3 4 4 0 0 1-4 2 4 4 0 0 1-3-1l-1-4zm1 0l1 3 2 1 2-1 1-3-1-2-2-1-2 1v2zm10 5v-9h1v1l1-1 2-1 1 1 1 1a3 3 0 0 1 3-2l2 1 1 3v6h-2v-7-1h-3l-1 3v5h-1v-6l-1-2h-1-1l-1 1v7h-2z" fill="#0c0407"/><path d="M255 1h29l23 57 23-57h29l17 107h-29l-8-62-27 62h-12l-25-62-9 62h-29zm216 107h31L460 1h-32l-43 107h31l27-74h1zM72 1v41H31V1H2v107h29V64h41v44h29V1zm149 72V1h-28v61c0 14-2 26-20 26-19 0-20-12-20-26V1h-29v73a36 36 0 0 0 12 26c9 9 24 12 37 12s27-3 37-12c9-8 11-16 11-26v-1zM626 0h-38l-21 29v-1l-2 2-21-30h-35l38 50 1 1-1 2a665 665 0 0 0-39 58l1 1 1-1 44-52 1 1a656 656 0 0 0-33 51v1l1-1 38-43 1 1a779 779 0 0 0-27 41l1 1h1l30-35 22 32h36l-41-53 42-55z" fill="#fff"/></svg>