<svg id="Layer_2" data-name="Layer 2" xmlns="http://www.w3.org/2000/svg" width="46.14" height="12.58" viewBox="0 0 46.14 12.58"><defs><style>.cls-1{fill:#fff;}</style></defs><title>hyperion</title><path class="cls-1" d="M20.59,1.11H1.75v9.64H20.61c0,.13,0,.44,0,.58-2.84.1-5.55,0-8.4.09,0,.07.73.91,1.21,1.54l-.15.21L11,11.5,8.74,13.19,8.57,13c.47-.64.72-.92,1.23-1.64l-.89,0c-2.29,0-4.58,0-6.87,0-.77,0-1.12-.18-1.1-1C1,7.32,1,4.36,1,1.39c0-.6.23-.77.82-.77,5.93,0,18.45,0,18.78,0C20.61.75,20.6,1,20.59,1.11Z" transform="translate(-0.94 -0.62)"/><path class="cls-1" d="M46.09,8.89c-.11,0-.08,0-.33-.32a49,49,0,0,0-3.44-4.43c0,1,.08,3.71,0,4.66,0,.21-.38,0-.8.09V2.3c.52.08.8,0,1,.3,1.14,1.55,2.34,3.48,3.68,5V3.91a10,10,0,0,1,0-1.45c.06-.24.74-.2.75,0,0,1,0,2.43,0,3.38v3C46.94,9,46.21,8.8,46.09,8.89Z" transform="translate(-0.94 -0.62)"/><path class="cls-1" d="M36.76,8.89a3.18,3.18,0,0,1-3.25-3.31,3.28,3.28,0,0,1,3.36-3.26,3.38,3.38,0,0,1,3.3,3.36A3.29,3.29,0,0,1,36.76,8.89Zm.12-5.83a2.62,2.62,0,0,0-2.69,2.59,2.65,2.65,0,0,0,2.6,2.58,2.54,2.54,0,0,0,2.59-2.55A2.49,2.49,0,0,0,36.88,3.06Z" transform="translate(-0.94 -0.62)"/><path class="cls-1" d="M3.79,5.2a4.64,4.64,0,0,0,.73.11H7.17c0-.83,0-2.08,0-2.81,0-.26.84-.28.84,0,0,1.89,0,4.29,0,6.18,0,.22-.79.21-.8,0,0-.78,0-1.57,0-2.43H3.83c0,1,0,1.58,0,2.58-.1.06-.85.15-.85,0-.06-2-.07-4.31,0-6.27,0-.22.84-.22.85,0C3.81,3.22,3.79,4.41,3.79,5.2Z" transform="translate(-0.94 -0.62)"/><path class="cls-1" d="M26.91,5.74c1-.32,2.6.24,2.53-1.58,0-1-.76-1.18-3-1,0,1.67.07,3.69,0,5.38,0,.35-.69.39-.69,0,0-1.95-.07-4.24-.07-6.3.93,0,1.72,0,2.5,0A1.89,1.89,0,0,1,30.18,3.9,1.92,1.92,0,0,1,29,6.2a6.7,6.7,0,0,0-.68.15c.61.92,1.11,1.5,1.79,2.5-.36,0-.72.1-.81,0C28.37,7.72,27.82,6.94,26.91,5.74Z" transform="translate(-0.94 -0.62)"/><path class="cls-1" d="M21.54,6.1v2c1.28.09,2.39,0,3.41.11,0,.11,0,.51,0,.61H20.8V2.31c1.16,0,2.25,0,3.34,0,.18,0,.14.75-.06.75-.82,0-1.65,0-2.53,0V5.37c.68,0,1.35,0,2,0,.22,0,.25.69,0,.7C23,6.13,22.32,6.1,21.54,6.1Z" transform="translate(-0.94 -0.62)"/><path class="cls-1" d="M15.3,2.33a27,27,0,0,1,2.72,0,2,2,0,0,1,1.79,2.1,2.1,2.1,0,0,1-2,1.87,7.66,7.66,0,0,1-1.22.15c0-.15-.05-.61-.08-.76a11.27,11.27,0,0,1,1.15-.14c1.11-.17,1.76-.89,1.27-1.73a1.71,1.71,0,0,0-1.05-.69,9,9,0,0,0-1.82,0c0,1.81,0,3.77,0,5.5,0,.3-.68.29-.69,0C15.3,6.64,15.3,4.44,15.3,2.33Z" transform="translate(-0.94 -0.62)"/><path class="cls-1" d="M9.81,2.35a18.9,18.9,0,0,1,1.82,2.57c.79-1,1.22-2.18,2.08-2.62.09.08.52.11.61.19-.47.72-.91,1.46-1.42,2.14a4,4,0,0,0-.88,3,6.09,6.09,0,0,1,0,1.13c0,.21-.74.21-.73.06.08-3.55-.76-4.13-2.06-5.87A5.21,5.21,0,0,1,9.81,2.35Z" transform="translate(-0.94 -0.62)"/><path class="cls-1" d="M32.39,2.3c0,.34,0,.58,0,.87,0,1.78,0,3.72,0,5.49,0,.27-.78.31-.78.08,0-2.07,0-4.38,0-6.45C31.72,2.26,32.23,2.33,32.39,2.3Z" transform="translate(-0.94 -0.62)"/></svg>