<svg id="Layer_2" data-name="Layer 2" xmlns="http://www.w3.org/2000/svg" width="46.98" height="12.58" viewBox="0 0 46.98 12.58"><defs><style>.cls-1{fill:#fff;}</style></defs><title>hyperion2</title><path class="cls-1" d="M2.5,9.23l.11-1.68c.06-.92.1-1.77.13-2.55s0-1.33,0-1.64V2.84H4.25L4.13,5v.49H7.3l.06-1.27c0-.43,0-.72,0-.85V2.84H8.86L8.71,5.39,8.64,7.28V8.39c0,.46,0,.74,0,.84H7.11c.08-.88.13-1.81.15-2.78H4.07L4,8.17,4,9.23H2.5Z" transform="translate(0.06 -0.62)"/><path class="cls-1" d="M10.73,9.23c0-.35.07-.8.11-1.36s.06-1,.07-1.33l-2.1-3.7h1.57c.14.33.35.74.62,1.23s.5,1,.69,1.37L13.08,3.2l.21-.36h1.55l-2.55,3.8-.06,1.18c0,.35,0,.82,0,1.41H10.73Z" transform="translate(0.06 -0.62)"/><path class="cls-1" d="M14.56,9.23l.09-1.11.11-2.46.06-1.78v-1h1.81l.84,0a3.17,3.17,0,0,1,1,.1,1.46,1.46,0,0,1,.57.32,1.54,1.54,0,0,1,.37.53,2,2,0,0,1,.14.74,2.06,2.06,0,0,1-.3,1.1,1.83,1.83,0,0,1-.84.74,2.83,2.83,0,0,1-1.18.24,3.34,3.34,0,0,1-.68-.07c-.07-.32-.15-.62-.23-.91a2.76,2.76,0,0,0,.57.06,1.92,1.92,0,0,0,.67-.11A1,1,0,0,0,18,5.17a1,1,0,0,0,.17-.59.86.86,0,0,0-.07-.36.52.52,0,0,0-.2-.26.83.83,0,0,0-.3-.14,2.61,2.61,0,0,0-.46,0h-1C16.07,4.42,16,5,16,5.56l0,1.79c0,.63,0,1.1,0,1.39v.49H14.56Z" transform="translate(0.06 -0.62)"/><path class="cls-1" d="M19.69,9.23l.14-1.79.1-2.08L20,3.48V2.84h4.66l-.06,1-.44,0H22l-.64,0-.08,1.66h1.29c.3,0,.81,0,1.52,0,0,.28-.05.62-.07,1l-1.43,0-1.37,0-.08,1.75h1.54l1,0,.68,0c0,.36-.05.7-.07,1H19.69Z" transform="translate(0.06 -0.62)"/><path class="cls-1" d="M25,9.23c.1-.93.17-2,.22-3.21s.07-2.26.07-3.18h1.73l.83,0a7.1,7.1,0,0,1,1,.06,1.88,1.88,0,0,1,.76.29,1.3,1.3,0,0,1,.49.53,1.54,1.54,0,0,1,.17.73,2.08,2.08,0,0,1-.07.5,1.85,1.85,0,0,1-.18.44,1.72,1.72,0,0,1-.28.37,2,2,0,0,1-.32.24,1.38,1.38,0,0,1-.37.16l-.55.16.31.62c.11.19.3.55.59,1.06l.47.82.23.43H28.56L28,8l-.33-.67-.56-1.14c-.06-.1-.14-.26-.24-.47a4.13,4.13,0,0,0,.58,0,1.93,1.93,0,0,0,.73-.13,1.05,1.05,0,0,0,.69-1,.86.86,0,0,0-.08-.36A.66.66,0,0,0,28.57,4a1,1,0,0,0-.43-.15,4.36,4.36,0,0,0-.51,0h-1l-.08,1.92-.09,3.51H25Z" transform="translate(0.06 -0.62)"/><path class="cls-1" d="M30.61,9.23q.11-1.61.18-3.3c.05-1.13.07-2,.07-2.59v-.5h1.49q-.18,2.46-.24,6.39h-1.5Z" transform="translate(0.06 -0.62)"/><path class="cls-1" d="M36.55,2.73a4.62,4.62,0,0,1,1.34.19A3,3,0,0,1,39,3.55a2.65,2.65,0,0,1,.75,1A3.27,3.27,0,0,1,40,5.9a4,4,0,0,1-.24,1.38,3,3,0,0,1-.74,1.13,3.2,3.2,0,0,1-1.22.7,4.72,4.72,0,0,1-1.51.23,4.92,4.92,0,0,1-1.44-.21,3.15,3.15,0,0,1-1.19-.66,2.55,2.55,0,0,1-.71-1,3.71,3.71,0,0,1-.22-1.26A3.78,3.78,0,0,1,33,4.76a2.88,2.88,0,0,1,.79-1.13A3.71,3.71,0,0,1,35,3,4.92,4.92,0,0,1,36.55,2.73Zm-.08,1a2.26,2.26,0,0,0-1.23.32,2,2,0,0,0-.78.89,2.79,2.79,0,0,0-.27,1.22,2.46,2.46,0,0,0,.26,1.12,1.73,1.73,0,0,0,.78.78,2.46,2.46,0,0,0,1.14.27,2.42,2.42,0,0,0,.89-.16A1.86,1.86,0,0,0,38,7.69a2,2,0,0,0,.46-.79,2.75,2.75,0,0,0,.16-1,2.91,2.91,0,0,0-.14-.89A1.79,1.79,0,0,0,38,4.33a1.68,1.68,0,0,0-.7-.46A2.72,2.72,0,0,0,36.47,3.73Z" transform="translate(0.06 -0.62)"/><path class="cls-1" d="M40.42,9.23c.06-.56.1-1.19.13-1.88l.11-2.29q.06-1.24.06-2.22h1.74c.35.62.83,1.42,1.46,2.41S45,7.06,45.42,7.7l.17-4.34c0-.1,0-.27,0-.52h1.32L46.8,4.56,46.66,7.5,46.6,9.23H44.89c-.15-.28-.27-.48-.35-.62l-.82-1.27c-.28-.42-.62-1-1-1.63-.31-.49-.56-.91-.78-1.27,0,.5-.06,1.44-.12,2.81,0,.56,0,1.22,0,2H40.42Z" transform="translate(0.06 -0.62)"/><path class="cls-1" d="M19.59,1.11H.75v9.64H19.61c0,.13,0,.44,0,.58-2.84.1-5.55,0-8.4.09,0,.07.73.91,1.21,1.54l-.15.21L10,11.5,7.74,13.19,7.57,13c.47-.64.72-.92,1.23-1.64l-.89,0c-2.29,0-4.58,0-6.87,0-.77,0-1.12-.18-1.1-1C0,7.32,0,4.36,0,1.39,0,.79.25.62.84.62c5.93,0,18.45,0,18.78,0C19.61.75,19.6,1,19.59,1.11Z" transform="translate(0.06 -0.62)"/></svg>