<svg id="Ebene_1" xmlns="http://www.w3.org/2000/svg" viewBox="0 0 617 211"><style>.st0{fill:#fff}</style><path class="st0" d="M390 44l3 1a50 50 0 0 1 33 15 52 52 0 0 1 15 41 51 51 0 0 1-50 50h-7a51 51 0 0 1-48-42l-1-14a52 52 0 0 1 9-28 49 49 0 0 1 39-22h3l1-1h3zm-2 93l11-1a36 36 0 0 0 19-12 38 38 0 0 0 9-21 45 45 0 0 0-1-17 37 37 0 0 0-35-28l-11 1a37 37 0 0 0-28 24 46 46 0 0 0-3 14l1 11a37 37 0 0 0 24 28l14 1m192 12l-2 1h-11l-2-2V47l2-1h12l1 1v102z"/><path class="st0" d="M292 88l6 7 11 15 14 19 14 19 1 1-2 1h-13a2 2 0 0 1-2-1l-25-33-14-19-2 2-11 10-6 6-1 1v32l-1 2h-11l-2-2V47l2-1h11l1 1v50l3-2 13-13 18-16 14-14 6-6a2 2 0 0 1 2 0h15l2 1v1l-5 4-8 8-11 10-11 11-8 7m165 10V47l2-1h43a46 46 0 0 1 33 14 50 50 0 0 1 13 23 66 66 0 0 1-3 37 50 50 0 0 1-9 15 45 45 0 0 1-23 13l-12 2h-43a1 1 0 0 1-1-1V98m14 39h29l5-1a30 30 0 0 0 20-10 38 38 0 0 0 10-24V90a38 38 0 0 0-16-26 31 31 0 0 0-17-5h-31v78zM200 99c0 2-1 4-3 5l-28 28c-4 4-7 4-11 0l-29-29c-3-3-3-7 0-10l29-30c4-3 7-3 11 0l28 29c1 1 3 3 3 5v2zm-94 92l-4-4-29-28c-3-4-3-7 0-11l30-29c3-3 7-3 10 0l29 29c4 4 4 7 0 11l-28 28a11 11 0 0 1-5 4h-3zM72 75V42c0-3 1-6 3-8l6-5 21-22c3-3 7-3 10 0l30 30c3 3 3 7 0 10l-35 35-30 30c-2 2-4 1-5-1V74M49 99v30l-1 3c0 1-2 2-3 0l-14-13-16-16c-2-3-2-6 0-8l30-29 2-2 2 3v32z"/></svg>