<svg version="1" id="Layer_1" xmlns="http://www.w3.org/2000/svg" viewBox="0 0 477 100"><style>.st0{fill:#fff}</style><g id="surface1"><path class="st0" d="M84 28c0 5-25-17-21-17 12-2 22 4 21 17zM49 7c6 0 13 5 13 9s-5 7-13 7-14-4-14-7 7-9 14-9zM32 10c4 1-20 22-21 17 0-12 9-19 21-17zM6 58c-6-5-8-19 3-25 7-2 3 27-3 25zM29 83c-3 2-11 1-17-7-4-7-3-14 0-16 4-3 10 1 15 6 4 5 6 14 2 17zM25 52c-6-4-7-13-2-21 5-7 13-10 20-6 6 4 7 13 2 21-5 7-14 10-20 6zM49 97c-8 0-15-6-15-8 0-3 9-6 15-6s14 2 14 5c0 2-7 9-14 9zM64 65c0 7-7 13-15 13s-15-6-15-13c0-8 7-14 15-14s15 6 15 14zM55 46c-5-7-4-17 2-21s15-1 20 6c4 8 3 17-3 21-6 3-15 1-19-6zM85 76c-7 9-15 9-18 6-4-3-1-13 4-18 5-6 11-10 14-7s4 13 0 19zM89 57c-5 3-10-26-3-25 11 6 9 20 3 25z"/></g><path class="st0" d="M115 52h-3v15l-1 5-3 1-3-1-2-5V31l2-5 4-1h20l4 1 3 3 3 4v5c1 3 0 6-2 8s-5 4-9 5l5 4 4 5 2 6 1 3v2l-2 2h-2l-2-1-2-2-2-3-4-7-3-5-3-2-5-1zm6-20h-9v13h14l3-2 1-4v-4l-3-2-6-1zM167 68l-6 4-7 1-5-1-4-4-1-5 2-6c1-2 3-3 6-4a161 161 0 0 0 9-2l5-1-1-5-5-2-5 1-3 3-1 2-2 1-3-1-1-2 2-5c1-1 3-3 5-3l8-2 8 2c3 0 4 2 5 4l1 8v10l1 5 1 4-1 2-3 1-3-1-2-4zm-1-13l-5 2-5 1-3 2-1 3a5 5 0 0 0 5 4l5-1 3-3 1-6v-2zM208 62l-1 6-5 4-8 1-8-2-4-3-2-5 1-2 3-1 2 1 1 2 3 3 5 1 4-1 1-3-1-3-6-2-7-2-4-4-2-5 2-5 4-4 7-1 6 1 4 2 3 2 1 3-1 3-3 1-2-1-2-3-2-2h-4l-3 1-2 2 1 2 3 2 5 1 7 3 3 3 1 5zM222 42v1l5-4 6-2 7 3 5 6 1 9c1 3 0 5-1 8l-3 5-4 4-5 1-6-1-5-5v13c0 4-1 6-4 6l-3-1-1-5V42l1-4 3-1 3 2 1 3zm16 13l-1-6-3-4-4-1c-2 0-4 1-5 3-2 2-3 4-3 8s1 6 3 8c1 2 3 3 5 3l4-1 3-4 1-6zM260 29v14l5-4 6-2a12 12 0 0 1 12 8l1 10-1 7-2 6-5 4-6 1h-3l-3-2-2-1-2-3v1l-1 4-3 1-3-1-1-4V30l1-4 3-2 3 1 1 4zm0 26c0 4 1 6 3 8 1 2 3 3 6 3 2 0 3-1 5-3l2-8-1-6-2-4-4-1-5 1c-2 1-2 2-2 4l-2 6zM313 57h-16l1 6a8 8 0 0 0 7 4h3l2-1 2-2 3-3h4l1 3-1 2a12 12 0 0 1-7 6l-7 1c-5 0-9-2-12-5s-4-8-4-13l1-7 3-6a15 15 0 0 1 12-5l8 2a15 15 0 0 1 7 13l-2 4-5 1zm-16-5h15l-2-7-5-2c-2 0-4 1-5 3l-3 6zM334 60v8l-1 4-3 1-3-2-1-4V43c0-4 1-6 4-6 2 0 3 1 3 2l1 4 3-4 4-2 5 2 3 3-1 3-2 1-3-1h-3l-3 1-1 3-1 5-1 6zM360 60v8l-1 4-3 1c-2 0-3-1-3-2l-1-4V43c0-4 1-6 4-6l3 2 1 4 3-4 4-2 5 2c2 1 2 2 2 3l-1 3-2 1-2-1h-3l-3 1-2 3-1 5v6zM386 74v-2l-10-27-1-4 1-2 1-1 2-1 3 1 2 4 7 22 6-21 2-3 1-2 2-1 2 1 1 1 1 2-1 2-1 2-10 30-3 6-4 4-5 1-6-1c-1 0-2-1-2-3l1-2 3-1h5l1-2 2-3zM443 54h-8v13l-1 5-4 1-3-1-1-5V31l1-5 5-1h11l8 1 5 2 3 5 1 6c0 5-2 9-5 11-2 3-6 4-12 4zm-2-22h-6v15h6l5-1 4-3 1-4-2-5-8-2zM470 33l-3-1-1-3 1-3 3-2 3 2 1 3-1 3-3 1zm4 9v26l-1 4-3 1-3-1-1-4V43l1-4 3-2 3 2 1 3z"/></svg>