<svg xmlns="http://www.w3.org/2000/svg" viewBox="0 0 500 90"><path d="M178 89c-18 0-34-6-46-16a38 38 0 0 1-12-28c0-11 4-21 12-29 11-9 29-15 46-15 20 0 35 5 47 15a38 38 0 0 1 12 29c0 10-4 21-12 28a69 69 0 0 1-47 16V77c10 0 19-3 25-9 6-7 9-14 9-23s-3-17-9-23-15-10-25-10-18 4-24 10-9 14-9 23a32 32 0 0 0 9 23 35 35 0 0 0 24 9v12zM47 1a75 75 0 0 0-30 6C8 11 1 17 1 27s6 15 6 15c2 2 6 6 17 8l25 4 23 3c3 1 9 2 9 8s-6 8-7 8c-1 1-7 4-20 4-8 0-19-3-23-4a29 29 0 0 1-14-9c-1-2-3-5-3-9H3v31h13v-4c0-1 0-3 2-2a96 96 0 0 0 18 6l19 2c13 0 19-2 24-3a42 42 0 0 0 15-8c3-2 8-7 8-16s-5-14-6-16l-8-5a58 58 0 0 0-10-4l-27-4-25-3c-1-1-4-2-4-6 0-2 1-4 4-6a48 48 0 0 1 22-4c11 0 20 2 26 5l6 3c3 2 5 6 7 11h9V5H85v3c0 1-1 2-3 1a84 84 0 0 0-35-8m240 5l54 48-1-32c0-5-1-6-5-6h-10V6h45v10h-9c-5 0-5 1-6 6l1 62h-16l-61-55v39c0 4 0 6 4 6h11v10h-45V74h11c4 0 4-4 4-6V22c0-3-1-6-7-6h-8V6h38zm136 68h2a3 3 0 0 0 3-2V55l-1-2-29-33c-2-2-5-4-9-4h-9V6h54v10h-7c-1 0-2 1-1 3l18 21h1l18-21c1-1 0-3-1-3h-7V6h44v10h-10c-3 0-5 0-8 3l-29 34-1 1v16l1 2 2 2h13v10h-54V74h10z" fill="#fff"/></svg>