<svg version="1" id="svg2" xmlns="http://www.w3.org/2000/svg" viewBox="0 0 1254 364"><style>.st0{fill:#fff}</style><g id="g3777"><path id="path3775" class="st0" d="M112 351c-5-2-9-5-12-10l-1-3v-35l-1-35-35-1H27l-3-2c-3-1-6-4-7-8l-1-32v-31h156v157h-60z"/><path id="path3761" class="st0" d="M198 265l-1-35 1-34h17c18-1 20-1 28-4 21-7 35-30 34-54-2-25-17-42-40-48h-24c-21 5-36 20-41 41-1 3-2 8-2 21l-1 17-68-1 1-41A123 123 0 0 1 225 20a115 115 0 0 1 119 96 125 125 0 0 1-100 148l-27 2-19-1z"/></g><g id="g3781"><path id="path3773" class="st0" d="M525 338c-2 0-3-2-4-3-2-2-2-3-2-88v-87l5-6c10-12 29-23 47-28 7-2 11-2 23-2 17 0 23 1 37 8 33 16 49 55 40 93-8 28-31 49-61 55l-24 1c-15 0-16 0-17-2l-1-13 1-14c1-2 2-2 16-2 20 0 28-2 38-12 19-17 20-49 3-68a44 44 0 0 0-40-13c-10 1-22 7-28 14l-4 4v81l-1 82h-28z"/><path id="path3771" class="st0" d="M441 280c-8-2-16-6-21-10-5-5-11-16-12-25V98c0-3 32-18 34-18l1 23 1 23h21c25 0 22-2 22 18v13h-22l-22 1v40c1 39 1 41 3 44 1 2 3 5 6 6 4 2 6 2 25 2l22 1 1 15-1 14c-2 2-49 1-58 0z"/><path id="path3769" class="st0" d="M792 278l-3-2V73l16-8 18-8 1 112c0 100 0 111-2 111l-14 1c-12 0-13 0-16-3z"/><path id="path3767" class="st0" d="M862 280c-5-2-5 1-5-80v-73h34l1 76-1 77h-29z"/><path id="path3765" class="st0" d="M930 280c-5-3-5-2-5-64l1-61c2-3 13-14 19-18 8-5 21-11 29-13 11-3 30-3 40-1 27 7 47 27 54 54 2 7 2 11 2 55 0 43 0 48-2 48-3 2-31 1-32 0l-1-46c0-42 0-45-2-51-5-17-17-27-34-28-14-1-25 3-34 12l-4 3v54l-1 55c-1 2-2 2-14 2l-16-1z"/><path id="path3763" class="st0" d="M1106 280c-5-2-5 3-5-106l1-100 16-9 18-8 1 67 1 67 27-33 27-32h20l20 1-31 36-30 36 34 40 34 40-20 2h-20l-2-2a3032 3032 0 0 1-59-71l-1 35-1 36c-1 2-2 2-15 2l-15-1z"/><path id="path3759" class="st0" d="M713 219c-3-2-16-31-16-33l32-1 31 1v17l-1 17-23 1c-19 0-22 0-23-2z"/><path id="path2987" class="st0" d="M856 91c-3-3-5-10-5-17 1-7 4-13 11-17 5-3 6-3 12-3 8 0 13 2 18 7 8 7 8 21 1 29-1 2-3 2-18 2l-19-1z"/></g></svg>