<svg xmlns="http://www.w3.org/2000/svg" viewBox="0 0 2500 538"><path d="M809 218v-69h-69V38h-99v111h-53v69h53v153c0 94 61 147 168 148v-82c-45-1-69-29-69-81V218h69zm1322-69v357h-59V149h59zm128 0v57h2c24-44 63-65 116-65 24 0 43 3 59 9a97 97 0 0 1 38 27 101 101 0 0 1 20 41c4 16 6 34 6 53v235h-59V264c0-22-6-39-19-52a72 72 0 0 0-53-20c-18 0-34 3-47 9a89 89 0 0 0-33 23 101 101 0 0 0-19 36 144 144 0 0 0-7 44v202h-59V149h56zM1108 506v-50h-2a110 110 0 0 1-49 45 143 143 0 0 1-61 14c-26 0-47-3-64-10a93 93 0 0 1-40-30 115 115 0 0 1-20-46 289 289 0 0 1-6-60V149h98v202c0 29 5 51 14 66 9 14 25 21 49 21 26 0 46-7 58-23s18-42 18-79V149h98v357h-93zm252-357v50h2a113 113 0 0 1 48-46 141 141 0 0 1 61-14c26 0 48 4 64 11 17 7 30 17 40 30a116 116 0 0 1 20 46c4 18 6 38 6 60v220h-98V304c0-29-4-51-13-66-10-14-26-21-49-21-27 0-47 8-59 23s-18 43-18 79v187h-98V149h94zm412 271c15 15 36 22 63 22 20 0 37-5 52-15 14-10 23-20 26-31h86c-14 42-35 73-63 92-29 18-64 27-104 27-28 0-54-4-76-13-23-9-42-22-57-39a174 174 0 0 1-37-59 218 218 0 0 1-12-76c0-27 4-52 13-75a176 176 0 0 1 95-99 185 185 0 0 1 74-15 170 170 0 0 1 79 18 158 158 0 0 1 56 47c14 20 25 43 31 68 7 25 9 52 7 80h-257c1 31 9 54 24 68zm111-188c-12-12-30-19-54-19a86 86 0 0 0-39 8 74 74 0 0 0-38 45c-2 9-4 16-4 23h159c-4-25-12-44-24-57zm257-194a38 38 0 1 1-75 0 38 38 0 0 1 75 0M241 188a86 86 0 0 1-61-147 86 86 0 0 1 147 61 86 86 0 0 1-86 86M0 222c0-4 4-8 8-8h232a76 76 0 0 1 76 76v67c0 5-4 8-9 8H77a76 76 0 0 1-76-75v-68zm413-9h66c5 0 8 4 8 8v68a76 76 0 0 1-75 75h-66a8 8 0 0 1-9-8v-67a76 76 0 0 1 76-76M308 387H174a8 8 0 0 0-9 8v135c1 4 4 8 9 8h66a76 76 0 0 0 76-76v-67a8 8 0 0 0-8-8" fill="#fff"/></svg>